<?xml version="1.0" encoding="UTF-8" standalone="no"?>
<!DOCTYPE svg PUBLIC "-//W3C//DTD SVG 1.1//EN"
 "http://www.w3.org/Graphics/SVG/1.1/DTD/svg11.dtd">
<!-- Generated by graphviz version 2.38.0 (20140413.2041)
 -->
<!-- Title: src/accumulator.c Pages: 1 -->
<svg width="678pt" height="588pt"
 viewBox="0.00 0.00 678.00 588.00" xmlns="http://www.w3.org/2000/svg" xmlns:xlink="http://www.w3.org/1999/xlink">
<g id="graph0" class="graph" transform="scale(1 1) rotate(0) translate(4 584)">
<title>src/accumulator.c</title>
<polygon fill="white" stroke="none" points="-4,4 -4,-584 674,-584 674,4 -4,4"/>
<!-- Node1 -->
<g id="node1" class="node"><title>Node1</title>
<polygon fill="#bfbfbf" stroke="black" points="424.5,-560.5 424.5,-579.5 519.5,-579.5 519.5,-560.5 424.5,-560.5"/>
<text text-anchor="middle" x="472" y="-567.5" font-family="Helvetica,sans-Serif" font-size="10.00">src/accumulator.c</text>
</g>
<!-- Node2 -->
<g id="node2" class="node"><title>Node2</title>
<g id="a_node2"><a xlink:href="accumulator_8h.html" target="_top" xlink:title="header file for the accumulator ">
<polygon fill="white" stroke="black" points="294,-504.5 294,-523.5 372,-523.5 372,-504.5 294,-504.5"/>
<text text-anchor="middle" x="333" y="-511.5" font-family="Helvetica,sans-Serif" font-size="10.00">accumulator.h</text>
</a>
</g>
</g>
<!-- Node1&#45;&gt;Node2 -->
<g id="edge1" class="edge"><title>Node1&#45;&gt;Node2</title>
<path fill="none" stroke="midnightblue" d="M449.975,-560.444C426.896,-551.478 390.438,-537.314 364.359,-527.183"/>
<polygon fill="midnightblue" stroke="midnightblue" points="365.511,-523.875 354.922,-523.516 362.976,-530.4 365.511,-523.875"/>
</g>
<!-- Node20 -->
<g id="node20" class="node"><title>Node20</title>
<g id="a_node20"><a xlink:href="mtree_8h.html" target="_top" xlink:title="semantic tree matrix header file `` ">
<polygon fill="white" stroke="black" points="223,-224.5 223,-243.5 273,-243.5 273,-224.5 223,-224.5"/>
<text text-anchor="middle" x="248" y="-231.5" font-family="Helvetica,sans-Serif" font-size="10.00">mtree.h</text>
</a>
</g>
</g>
<!-- Node1&#45;&gt;Node20 -->
<g id="edge45" class="edge"><title>Node1&#45;&gt;Node20</title>
<path fill="none" stroke="midnightblue" d="M424.375,-568.046C353.367,-563.813 228,-544.267 228,-459 228,-459 228,-459 228,-345 228,-312.438 236.588,-275.315 242.509,-253.592"/>
<polygon fill="midnightblue" stroke="midnightblue" points="245.942,-254.317 245.303,-243.742 239.207,-252.408 245.942,-254.317"/>
</g>
<!-- Node22 -->
<g id="node22" class="node"><title>Node22</title>
<g id="a_node22"><a xlink:href="receptor_8h.html" target="_top" xlink:title="receptor implementation header file ">
<polygon fill="white" stroke="black" points="466,-392.5 466,-411.5 526,-411.5 526,-392.5 466,-392.5"/>
<text text-anchor="middle" x="496" y="-399.5" font-family="Helvetica,sans-Serif" font-size="10.00">receptor.h</text>
</a>
</g>
</g>
<!-- Node1&#45;&gt;Node22 -->
<g id="edge46" class="edge"><title>Node1&#45;&gt;Node22</title>
<path fill="none" stroke="midnightblue" d="M473.29,-560.075C477.068,-533.945 488.162,-457.211 493.314,-421.577"/>
<polygon fill="midnightblue" stroke="midnightblue" points="496.794,-421.966 494.761,-411.568 489.866,-420.964 496.794,-421.966"/>
</g>
<!-- Node28 -->
<g id="node28" class="node"><title>Node28</title>
<g id="a_node28"><a xlink:href="semtrex_8h.html" target="_top" xlink:title="Semantic tree regular expression header file. ">
<polygon fill="white" stroke="black" points="408,-448.5 408,-467.5 468,-467.5 468,-448.5 408,-448.5"/>
<text text-anchor="middle" x="438" y="-455.5" font-family="Helvetica,sans-Serif" font-size="10.00">semtrex.h</text>
</a>
</g>
</g>
<!-- Node1&#45;&gt;Node28 -->
<g id="edge43" class="edge"><title>Node1&#45;&gt;Node28</title>
<path fill="none" stroke="midnightblue" d="M469.332,-560.368C463.82,-542.537 451.073,-501.295 443.648,-477.272"/>
<polygon fill="midnightblue" stroke="midnightblue" points="446.953,-476.112 440.656,-467.591 440.265,-478.179 446.953,-476.112"/>
</g>
<!-- Node29 -->
<g id="node29" class="node"><title>Node29</title>
<polygon fill="white" stroke="#bfbfbf" points="524,-504.5 524,-523.5 592,-523.5 592,-504.5 524,-504.5"/>
<text text-anchor="middle" x="558" y="-511.5" font-family="Helvetica,sans-Serif" font-size="10.00">sys/types.h</text>
</g>
<!-- Node1&#45;&gt;Node29 -->
<g id="edge47" class="edge"><title>Node1&#45;&gt;Node29</title>
<path fill="none" stroke="midnightblue" d="M485.817,-560.324C499.233,-551.9 519.824,-538.971 535.586,-529.074"/>
<polygon fill="midnightblue" stroke="midnightblue" points="537.609,-531.936 544.217,-523.655 533.887,-526.008 537.609,-531.936"/>
</g>
<!-- Node30 -->
<g id="node30" class="node"><title>Node30</title>
<polygon fill="white" stroke="#bfbfbf" points="610,-504.5 610,-523.5 670,-523.5 670,-504.5 610,-504.5"/>
<text text-anchor="middle" x="640" y="-511.5" font-family="Helvetica,sans-Serif" font-size="10.00">sys/stat.h</text>
</g>
<!-- Node1&#45;&gt;Node30 -->
<g id="edge48" class="edge"><title>Node1&#45;&gt;Node30</title>
<path fill="none" stroke="midnightblue" d="M498.62,-560.444C527.006,-551.32 572.137,-536.813 603.753,-526.651"/>
<polygon fill="midnightblue" stroke="midnightblue" points="605.055,-529.909 613.504,-523.516 602.913,-523.244 605.055,-529.909"/>
</g>
<!-- Node3 -->
<g id="node3" class="node"><title>Node3</title>
<g id="a_node3"><a xlink:href="tree_8h.html" target="_top" xlink:title="semantic trees header file ">
<polygon fill="white" stroke="black" points="414.5,-280.5 414.5,-299.5 455.5,-299.5 455.5,-280.5 414.5,-280.5"/>
<text text-anchor="middle" x="435" y="-287.5" font-family="Helvetica,sans-Serif" font-size="10.00">tree.h</text>
</a>
</g>
</g>
<!-- Node2&#45;&gt;Node3 -->
<g id="edge2" class="edge"><title>Node2&#45;&gt;Node3</title>
<path fill="none" stroke="midnightblue" d="M330.518,-504.467C328.043,-495.485 324.415,-480.888 323,-468 316.413,-407.994 317.592,-383.378 355,-336 367.713,-319.899 387.87,-308.612 404.77,-301.369"/>
<polygon fill="midnightblue" stroke="midnightblue" points="406.282,-304.534 414.263,-297.566 403.678,-298.036 406.282,-304.534"/>
</g>
<!-- Node2&#45;&gt;Node20 -->
<g id="edge25" class="edge"><title>Node2&#45;&gt;Node20</title>
<path fill="none" stroke="midnightblue" d="M323.114,-504.402C304.477,-487.183 266,-446.38 266,-403 266,-403 266,-403 266,-345 266,-312.537 258.27,-275.384 252.942,-253.628"/>
<polygon fill="midnightblue" stroke="midnightblue" points="256.288,-252.587 250.428,-243.76 249.505,-254.315 256.288,-252.587"/>
</g>
<!-- Node21 -->
<g id="node21" class="node"><title>Node21</title>
<g id="a_node21"><a xlink:href="vmhost_8h.html" target="_top" xlink:title="vmhost implementation header file ">
<polygon fill="white" stroke="black" points="332.5,-448.5 332.5,-467.5 389.5,-467.5 389.5,-448.5 332.5,-448.5"/>
<text text-anchor="middle" x="361" y="-455.5" font-family="Helvetica,sans-Serif" font-size="10.00">vmhost.h</text>
</a>
</g>
</g>
<!-- Node2&#45;&gt;Node21 -->
<g id="edge31" class="edge"><title>Node2&#45;&gt;Node21</title>
<path fill="none" stroke="midnightblue" d="M337.624,-504.083C341.456,-496.691 347.024,-485.953 351.765,-476.811"/>
<polygon fill="midnightblue" stroke="midnightblue" points="354.966,-478.24 356.462,-467.751 348.752,-475.018 354.966,-478.24"/>
</g>
<!-- Node4 -->
<g id="node4" class="node"><title>Node4</title>
<polygon fill="white" stroke="#bfbfbf" points="13.5,-0.5 13.5,-19.5 62.5,-19.5 62.5,-0.5 13.5,-0.5"/>
<text text-anchor="middle" x="38" y="-7.5" font-family="Helvetica,sans-Serif" font-size="10.00">string.h</text>
</g>
<!-- Node3&#45;&gt;Node4 -->
<g id="edge3" class="edge"><title>Node3&#45;&gt;Node4</title>
<path fill="none" stroke="midnightblue" d="M414.312,-288.282C327.863,-284.733 0,-265.564 0,-179 0,-179 0,-179 0,-121 0,-86.8131 16.6005,-49.7639 27.8573,-28.5707"/>
<polygon fill="midnightblue" stroke="midnightblue" points="30.9473,-30.2151 32.7163,-19.769 24.8191,-26.832 30.9473,-30.2151"/>
</g>
<!-- Node5 -->
<g id="node5" class="node"><title>Node5</title>
<polygon fill="white" stroke="#bfbfbf" points="432,-0.5 432,-19.5 480,-19.5 480,-0.5 432,-0.5"/>
<text text-anchor="middle" x="456" y="-7.5" font-family="Helvetica,sans-Serif" font-size="10.00">stdlib.h</text>
</g>
<!-- Node3&#45;&gt;Node5 -->
<g id="edge4" class="edge"><title>Node3&#45;&gt;Node5</title>
<path fill="none" stroke="midnightblue" d="M455.771,-285.215C499.901,-275.85 599,-247.225 599,-179 599,-179 599,-179 599,-121 599,-66.1955 532.197,-34.9203 489.909,-20.6127"/>
<polygon fill="midnightblue" stroke="midnightblue" points="490.85,-17.2386 480.258,-17.4954 488.698,-23.8997 490.85,-17.2386"/>
</g>
<!-- Node6 -->
<g id="node6" class="node"><title>Node6</title>
<g id="a_node6"><a xlink:href="ceptr__error_8h_source.html" target="_top" xlink:title="ceptr_error.h">
<polygon fill="white" stroke="black" points="148.5,-168.5 148.5,-187.5 219.5,-187.5 219.5,-168.5 148.5,-168.5"/>
<text text-anchor="middle" x="184" y="-175.5" font-family="Helvetica,sans-Serif" font-size="10.00">ceptr_error.h</text>
</a>
</g>
</g>
<!-- Node3&#45;&gt;Node6 -->
<g id="edge5" class="edge"><title>Node3&#45;&gt;Node6</title>
<path fill="none" stroke="midnightblue" d="M415.304,-280.368C371.225,-261.051 264.455,-214.259 212.861,-191.648"/>
<polygon fill="midnightblue" stroke="midnightblue" points="214.168,-188.4 203.604,-187.591 211.358,-194.811 214.168,-188.4"/>
</g>
<!-- Node11 -->
<g id="node11" class="node"><title>Node11</title>
<g id="a_node11"><a xlink:href="sys__defs_8h.html" target="_top" xlink:title="Defines types and vars for system defined semantics. ">
<polygon fill="white" stroke="black" points="466.5,-168.5 466.5,-187.5 531.5,-187.5 531.5,-168.5 466.5,-168.5"/>
<text text-anchor="middle" x="499" y="-175.5" font-family="Helvetica,sans-Serif" font-size="10.00">sys_defs.h</text>
</a>
</g>
</g>
<!-- Node3&#45;&gt;Node11 -->
<g id="edge10" class="edge"><title>Node3&#45;&gt;Node11</title>
<path fill="none" stroke="midnightblue" d="M455.806,-286.97C481.112,-283.261 522.821,-272.872 542,-244 553.412,-226.82 535.989,-207.054 520.023,-193.873"/>
<polygon fill="midnightblue" stroke="midnightblue" points="522.015,-190.989 511.968,-187.629 517.727,-196.521 522.015,-190.989"/>
</g>
<!-- Node12 -->
<g id="node12" class="node"><title>Node12</title>
<g id="a_node12"><a xlink:href="ceptr__types_8h_source.html" target="_top" xlink:title="ceptr_types.h">
<polygon fill="white" stroke="black" points="352,-112.5 352,-131.5 428,-131.5 428,-112.5 352,-112.5"/>
<text text-anchor="middle" x="390" y="-119.5" font-family="Helvetica,sans-Serif" font-size="10.00">ceptr_types.h</text>
</a>
</g>
</g>
<!-- Node3&#45;&gt;Node12 -->
<g id="edge21" class="edge"><title>Node3&#45;&gt;Node12</title>
<path fill="none" stroke="midnightblue" d="M435.001,-280.497C434.751,-260.33 432.617,-208.281 418,-168 414.397,-158.071 408.395,-147.998 402.87,-139.906"/>
<polygon fill="midnightblue" stroke="midnightblue" points="405.668,-137.802 396.988,-131.726 399.985,-141.889 405.668,-137.802"/>
</g>
<!-- Node17 -->
<g id="node17" class="node"><title>Node17</title>
<g id="a_node17"><a xlink:href="base__defs_8h.html" target="_top" xlink:title="auto&#45;generated system definitions ">
<polygon fill="white" stroke="black" points="463,-224.5 463,-243.5 533,-243.5 533,-224.5 463,-224.5"/>
<text text-anchor="middle" x="498" y="-231.5" font-family="Helvetica,sans-Serif" font-size="10.00">base_defs.h</text>
</a>
</g>
</g>
<!-- Node3&#45;&gt;Node17 -->
<g id="edge19" class="edge"><title>Node3&#45;&gt;Node17</title>
<path fill="none" stroke="midnightblue" d="M445.122,-280.324C454.526,-272.263 468.744,-260.077 480.069,-250.369"/>
<polygon fill="midnightblue" stroke="midnightblue" points="482.379,-252.999 487.694,-243.834 477.823,-247.684 482.379,-252.999"/>
</g>
<!-- Node18 -->
<g id="node18" class="node"><title>Node18</title>
<g id="a_node18"><a xlink:href="stream_8h.html" target="_top" xlink:title="streams abstraction header file ">
<polygon fill="white" stroke="black" points="351.5,-224.5 351.5,-243.5 406.5,-243.5 406.5,-224.5 351.5,-224.5"/>
<text text-anchor="middle" x="379" y="-231.5" font-family="Helvetica,sans-Serif" font-size="10.00">stream.h</text>
</a>
</g>
</g>
<!-- Node3&#45;&gt;Node18 -->
<g id="edge22" class="edge"><title>Node3&#45;&gt;Node18</title>
<path fill="none" stroke="midnightblue" d="M426.003,-280.324C417.806,-272.42 405.494,-260.548 395.528,-250.938"/>
<polygon fill="midnightblue" stroke="midnightblue" points="397.789,-248.256 388.161,-243.834 392.93,-253.295 397.789,-248.256"/>
</g>
<!-- Node7 -->
<g id="node7" class="node"><title>Node7</title>
<polygon fill="white" stroke="#bfbfbf" points="242,-56.5 242,-75.5 288,-75.5 288,-56.5 242,-56.5"/>
<text text-anchor="middle" x="265" y="-63.5" font-family="Helvetica,sans-Serif" font-size="10.00">stdio.h</text>
</g>
<!-- Node6&#45;&gt;Node7 -->
<g id="edge6" class="edge"><title>Node6&#45;&gt;Node7</title>
<path fill="none" stroke="midnightblue" d="M153.316,-168.459C120.381,-157.744 75.2765,-137.624 95,-112 111.551,-90.4983 187.075,-77.1608 231.699,-71.0161"/>
<polygon fill="midnightblue" stroke="midnightblue" points="232.337,-74.4622 241.79,-69.6765 231.416,-67.5231 232.337,-74.4622"/>
</g>
<!-- Node8 -->
<g id="node8" class="node"><title>Node8</title>
<polygon fill="white" stroke="#bfbfbf" points="176,-112.5 176,-131.5 226,-131.5 226,-112.5 176,-112.5"/>
<text text-anchor="middle" x="201" y="-119.5" font-family="Helvetica,sans-Serif" font-size="10.00">signal.h</text>
</g>
<!-- Node6&#45;&gt;Node8 -->
<g id="edge7" class="edge"><title>Node6&#45;&gt;Node8</title>
<path fill="none" stroke="midnightblue" d="M186.807,-168.083C189.085,-160.849 192.371,-150.409 195.208,-141.397"/>
<polygon fill="midnightblue" stroke="midnightblue" points="198.581,-142.341 198.245,-131.751 191.904,-140.239 198.581,-142.341"/>
</g>
<!-- Node9 -->
<g id="node9" class="node"><title>Node9</title>
<polygon fill="white" stroke="#bfbfbf" points="244,-112.5 244,-131.5 296,-131.5 296,-112.5 244,-112.5"/>
<text text-anchor="middle" x="270" y="-119.5" font-family="Helvetica,sans-Serif" font-size="10.00">assert.h</text>
</g>
<!-- Node6&#45;&gt;Node9 -->
<g id="edge8" class="edge"><title>Node6&#45;&gt;Node9</title>
<path fill="none" stroke="midnightblue" d="M197.817,-168.324C211.233,-159.9 231.824,-146.971 247.586,-137.074"/>
<polygon fill="midnightblue" stroke="midnightblue" points="249.609,-139.936 256.217,-131.655 245.887,-134.008 249.609,-139.936"/>
</g>
<!-- Node10 -->
<g id="node10" class="node"><title>Node10</title>
<polygon fill="white" stroke="#bfbfbf" points="104,-112.5 104,-131.5 158,-131.5 158,-112.5 104,-112.5"/>
<text text-anchor="middle" x="131" y="-119.5" font-family="Helvetica,sans-Serif" font-size="10.00">setjmp.h</text>
</g>
<!-- Node6&#45;&gt;Node10 -->
<g id="edge9" class="edge"><title>Node6&#45;&gt;Node10</title>
<path fill="none" stroke="midnightblue" d="M175.248,-168.083C167.53,-160.22 156.095,-148.569 146.783,-139.081"/>
<polygon fill="midnightblue" stroke="midnightblue" points="149.092,-136.436 139.589,-131.751 144.096,-141.34 149.092,-136.436"/>
</g>
<!-- Node11&#45;&gt;Node12 -->
<g id="edge11" class="edge"><title>Node11&#45;&gt;Node12</title>
<path fill="none" stroke="midnightblue" d="M481.487,-168.324C463.928,-159.625 436.669,-146.12 416.469,-136.113"/>
<polygon fill="midnightblue" stroke="midnightblue" points="417.984,-132.958 407.469,-131.655 414.876,-139.23 417.984,-132.958"/>
</g>
<!-- Node12&#45;&gt;Node7 -->
<g id="edge13" class="edge"><title>Node12&#45;&gt;Node7</title>
<path fill="none" stroke="midnightblue" d="M370.193,-112.444C349.713,-103.596 317.517,-89.6875 294.135,-79.5865"/>
<polygon fill="midnightblue" stroke="midnightblue" points="295.282,-76.2692 284.714,-75.5164 292.506,-82.6953 295.282,-76.2692"/>
</g>
<!-- Node13 -->
<g id="node13" class="node"><title>Node13</title>
<polygon fill="white" stroke="#bfbfbf" points="378.5,-56.5 378.5,-75.5 427.5,-75.5 427.5,-56.5 378.5,-56.5"/>
<text text-anchor="middle" x="403" y="-63.5" font-family="Helvetica,sans-Serif" font-size="10.00">stdint.h</text>
</g>
<!-- Node12&#45;&gt;Node13 -->
<g id="edge12" class="edge"><title>Node12&#45;&gt;Node13</title>
<path fill="none" stroke="midnightblue" d="M392.147,-112.083C393.869,-104.927 396.347,-94.6353 398.5,-85.6911"/>
<polygon fill="midnightblue" stroke="midnightblue" points="401.955,-86.2925 400.893,-75.7511 395.15,-84.6541 401.955,-86.2925"/>
</g>
<!-- Node14 -->
<g id="node14" class="node"><title>Node14</title>
<g id="a_node14"><a xlink:href="uthash_8h_source.html" target="_top" xlink:title="uthash.h">
<polygon fill="white" stroke="black" points="306,-56.5 306,-75.5 360,-75.5 360,-56.5 306,-56.5"/>
<text text-anchor="middle" x="333" y="-63.5" font-family="Helvetica,sans-Serif" font-size="10.00">uthash.h</text>
</a>
</g>
</g>
<!-- Node12&#45;&gt;Node14 -->
<g id="edge14" class="edge"><title>Node12&#45;&gt;Node14</title>
<path fill="none" stroke="midnightblue" d="M380.842,-112.324C372.499,-104.42 359.968,-92.5482 349.823,-82.9377"/>
<polygon fill="midnightblue" stroke="midnightblue" points="351.991,-80.1705 342.325,-75.8339 347.177,-85.2522 351.991,-80.1705"/>
</g>
<!-- Node14&#45;&gt;Node4 -->
<g id="edge15" class="edge"><title>Node14&#45;&gt;Node4</title>
<path fill="none" stroke="midnightblue" d="M305.922,-58.0057C302.919,-57.297 299.899,-56.6134 297,-56 217.172,-39.1102 122.523,-23.8636 72.6881,-16.2026"/>
<polygon fill="midnightblue" stroke="midnightblue" points="73.1695,-12.7356 62.7555,-14.6851 72.1122,-19.6553 73.1695,-12.7356"/>
</g>
<!-- Node14&#45;&gt;Node5 -->
<g id="edge17" class="edge"><title>Node14&#45;&gt;Node5</title>
<path fill="none" stroke="midnightblue" d="M352.49,-56.4435C372.642,-47.5961 404.323,-33.6875 427.331,-23.5865"/>
<polygon fill="midnightblue" stroke="midnightblue" points="428.852,-26.7411 436.601,-19.5164 426.038,-20.3316 428.852,-26.7411"/>
</g>
<!-- Node15 -->
<g id="node15" class="node"><title>Node15</title>
<polygon fill="white" stroke="#bfbfbf" points="258,-0.5 258,-19.5 310,-19.5 310,-0.5 258,-0.5"/>
<text text-anchor="middle" x="284" y="-7.5" font-family="Helvetica,sans-Serif" font-size="10.00">stddef.h</text>
</g>
<!-- Node14&#45;&gt;Node15 -->
<g id="edge16" class="edge"><title>Node14&#45;&gt;Node15</title>
<path fill="none" stroke="midnightblue" d="M324.909,-56.083C317.845,-48.2982 307.412,-36.8015 298.851,-27.3665"/>
<polygon fill="midnightblue" stroke="midnightblue" points="301.253,-24.8047 291.941,-19.7511 296.069,-29.5087 301.253,-24.8047"/>
</g>
<!-- Node16 -->
<g id="node16" class="node"><title>Node16</title>
<polygon fill="white" stroke="#bfbfbf" points="328.5,-0.5 328.5,-19.5 387.5,-19.5 387.5,-0.5 328.5,-0.5"/>
<text text-anchor="middle" x="358" y="-7.5" font-family="Helvetica,sans-Serif" font-size="10.00">inttypes.h</text>
</g>
<!-- Node14&#45;&gt;Node16 -->
<g id="edge18" class="edge"><title>Node14&#45;&gt;Node16</title>
<path fill="none" stroke="midnightblue" d="M337.128,-56.083C340.514,-48.77 345.416,-38.1814 349.619,-29.1034"/>
<polygon fill="midnightblue" stroke="midnightblue" points="352.923,-30.2962 353.949,-19.7511 346.571,-27.3553 352.923,-30.2962"/>
</g>
<!-- Node17&#45;&gt;Node11 -->
<g id="edge20" class="edge"><title>Node17&#45;&gt;Node11</title>
<path fill="none" stroke="midnightblue" d="M498.165,-224.083C498.296,-217.006 498.484,-206.861 498.648,-197.986"/>
<polygon fill="midnightblue" stroke="midnightblue" points="502.152,-197.814 498.838,-187.751 495.153,-197.685 502.152,-197.814"/>
</g>
<!-- Node18&#45;&gt;Node7 -->
<g id="edge23" class="edge"><title>Node18&#45;&gt;Node7</title>
<path fill="none" stroke="midnightblue" d="M371.249,-224.45C363.533,-215.691 351.627,-201.484 343,-188 322.647,-156.189 326.172,-143.272 305,-112 298.056,-101.743 288.97,-91.3398 281.213,-83.1234"/>
<polygon fill="midnightblue" stroke="midnightblue" points="283.504,-80.459 274.027,-75.7223 278.482,-85.3351 283.504,-80.459"/>
</g>
<!-- Node19 -->
<g id="node19" class="node"><title>Node19</title>
<polygon fill="white" stroke="#bfbfbf" points="352.5,-168.5 352.5,-187.5 409.5,-187.5 409.5,-168.5 352.5,-168.5"/>
<text text-anchor="middle" x="381" y="-175.5" font-family="Helvetica,sans-Serif" font-size="10.00">pthread.h</text>
</g>
<!-- Node18&#45;&gt;Node19 -->
<g id="edge24" class="edge"><title>Node18&#45;&gt;Node19</title>
<path fill="none" stroke="midnightblue" d="M379.33,-224.083C379.592,-217.006 379.968,-206.861 380.297,-197.986"/>
<polygon fill="midnightblue" stroke="midnightblue" points="383.803,-197.874 380.676,-187.751 376.808,-197.615 383.803,-197.874"/>
</g>
<!-- Node20&#45;&gt;Node4 -->
<g id="edge26" class="edge"><title>Node20&#45;&gt;Node4</title>
<path fill="none" stroke="midnightblue" d="M222.66,-225.966C199.525,-218.779 165.065,-206.1 139,-188 111.102,-168.627 105.23,-160.657 87,-132 65.6906,-98.5025 50.601,-54.1929 43.1967,-29.552"/>
<polygon fill="midnightblue" stroke="midnightblue" points="46.4924,-28.3501 40.3408,-19.7241 39.7704,-30.3035 46.4924,-28.3501"/>
</g>
<!-- Node20&#45;&gt;Node5 -->
<g id="edge27" class="edge"><title>Node20&#45;&gt;Node5</title>
<path fill="none" stroke="midnightblue" d="M258.868,-224.301C275.983,-210.9 310.611,-184.982 343,-168 382.621,-147.227 408.856,-166.775 437,-132 460.772,-102.627 460.696,-55.7291 458.426,-29.7895"/>
<polygon fill="midnightblue" stroke="midnightblue" points="461.898,-29.3416 457.345,-19.7753 454.939,-30.0934 461.898,-29.3416"/>
</g>
<!-- Node20&#45;&gt;Node6 -->
<g id="edge28" class="edge"><title>Node20&#45;&gt;Node6</title>
<path fill="none" stroke="midnightblue" d="M237.717,-224.324C228.164,-216.263 213.72,-204.077 202.216,-194.369"/>
<polygon fill="midnightblue" stroke="midnightblue" points="204.37,-191.608 194.47,-187.834 199.856,-196.958 204.37,-191.608"/>
</g>
<!-- Node20&#45;&gt;Node11 -->
<g id="edge29" class="edge"><title>Node20&#45;&gt;Node11</title>
<path fill="none" stroke="midnightblue" d="M273.449,-227.525C316.446,-218.274 403.908,-199.458 456.389,-188.167"/>
<polygon fill="midnightblue" stroke="midnightblue" points="457.355,-191.54 466.395,-186.015 455.883,-184.696 457.355,-191.54"/>
</g>
<!-- Node20&#45;&gt;Node12 -->
<g id="edge30" class="edge"><title>Node20&#45;&gt;Node12</title>
<path fill="none" stroke="midnightblue" d="M248.933,-224.201C250.845,-210.43 256.432,-183.734 272,-168 290.688,-149.112 318.126,-138.023 341.842,-131.581"/>
<polygon fill="midnightblue" stroke="midnightblue" points="342.895,-134.925 351.742,-129.095 341.19,-128.136 342.895,-134.925"/>
</g>
<!-- Node21&#45;&gt;Node22 -->
<g id="edge32" class="edge"><title>Node21&#45;&gt;Node22</title>
<path fill="none" stroke="midnightblue" d="M382.391,-448.444C404.707,-439.517 439.903,-425.439 465.208,-415.317"/>
<polygon fill="midnightblue" stroke="midnightblue" points="466.724,-418.48 474.709,-411.516 464.124,-411.981 466.724,-418.48"/>
</g>
<!-- Node22&#45;&gt;Node3 -->
<g id="edge33" class="edge"><title>Node22&#45;&gt;Node3</title>
<path fill="none" stroke="midnightblue" d="M490.673,-392.461C485.115,-383.474 476.22,-368.873 469,-356 460.163,-340.245 450.681,-321.994 443.981,-308.849"/>
<polygon fill="midnightblue" stroke="midnightblue" points="447.099,-307.258 439.457,-299.919 440.854,-310.422 447.099,-307.258"/>
</g>
<!-- Node23 -->
<g id="node23" class="node"><title>Node23</title>
<g id="a_node23"><a xlink:href="def_8h.html" target="_top" xlink:title="header file for symbol and structure definition functions ">
<polygon fill="white" stroke="black" points="556,-336.5 556,-355.5 594,-355.5 594,-336.5 556,-336.5"/>
<text text-anchor="middle" x="575" y="-343.5" font-family="Helvetica,sans-Serif" font-size="10.00">def.h</text>
</a>
</g>
</g>
<!-- Node22&#45;&gt;Node23 -->
<g id="edge34" class="edge"><title>Node22&#45;&gt;Node23</title>
<path fill="none" stroke="midnightblue" d="M508.693,-392.324C520.901,-383.979 539.578,-371.212 554.003,-361.352"/>
<polygon fill="midnightblue" stroke="midnightblue" points="556.058,-364.187 562.339,-355.655 552.108,-358.408 556.058,-364.187"/>
</g>
<!-- Node25 -->
<g id="node25" class="node"><title>Node25</title>
<g id="a_node25"><a xlink:href="label_8h.html" target="_top" xlink:title="Label tables map human readable text strings to parts of semantic trees. ">
<polygon fill="white" stroke="black" points="614.5,-280.5 614.5,-299.5 659.5,-299.5 659.5,-280.5 614.5,-280.5"/>
<text text-anchor="middle" x="637" y="-287.5" font-family="Helvetica,sans-Serif" font-size="10.00">label.h</text>
</a>
</g>
</g>
<!-- Node22&#45;&gt;Node25 -->
<g id="edge37" class="edge"><title>Node22&#45;&gt;Node25</title>
<path fill="none" stroke="midnightblue" d="M526.293,-394.245C549.585,-387.751 581.342,-375.915 603,-356 616.746,-343.361 625.899,-323.877 631.212,-309.535"/>
<polygon fill="midnightblue" stroke="midnightblue" points="634.627,-310.363 634.538,-299.769 628.001,-308.106 634.627,-310.363"/>
</g>
<!-- Node26 -->
<g id="node26" class="node"><title>Node26</title>
<g id="a_node26"><a xlink:href="process_8h.html" target="_top" xlink:title="processing header files ">
<polygon fill="white" stroke="black" points="478.5,-336.5 478.5,-355.5 537.5,-355.5 537.5,-336.5 478.5,-336.5"/>
<text text-anchor="middle" x="508" y="-343.5" font-family="Helvetica,sans-Serif" font-size="10.00">process.h</text>
</a>
</g>
</g>
<!-- Node22&#45;&gt;Node26 -->
<g id="edge39" class="edge"><title>Node22&#45;&gt;Node26</title>
<path fill="none" stroke="midnightblue" d="M497.982,-392.083C499.572,-384.927 501.859,-374.635 503.846,-365.691"/>
<polygon fill="midnightblue" stroke="midnightblue" points="507.303,-366.272 506.055,-355.751 500.469,-364.754 507.303,-366.272"/>
</g>
<!-- Node27 -->
<g id="node27" class="node"><title>Node27</title>
<g id="a_node27"><a xlink:href="scape_8h.html" target="_top" xlink:title="scape header files ">
<polygon fill="white" stroke="black" points="370.5,-336.5 370.5,-355.5 421.5,-355.5 421.5,-336.5 370.5,-336.5"/>
<text text-anchor="middle" x="396" y="-343.5" font-family="Helvetica,sans-Serif" font-size="10.00">scape.h</text>
</a>
</g>
</g>
<!-- Node22&#45;&gt;Node27 -->
<g id="edge41" class="edge"><title>Node22&#45;&gt;Node27</title>
<path fill="none" stroke="midnightblue" d="M479.933,-392.324C464.042,-383.743 439.493,-370.486 421.042,-360.522"/>
<polygon fill="midnightblue" stroke="midnightblue" points="422.489,-357.326 412.027,-355.655 419.163,-363.486 422.489,-357.326"/>
</g>
<!-- Node23&#45;&gt;Node3 -->
<g id="edge35" class="edge"><title>Node23&#45;&gt;Node3</title>
<path fill="none" stroke="midnightblue" d="M555.827,-337.605C532.483,-328.601 492.777,-313.286 465.285,-302.681"/>
<polygon fill="midnightblue" stroke="midnightblue" points="466.352,-299.342 455.762,-299.008 463.833,-305.873 466.352,-299.342"/>
</g>
<!-- Node24 -->
<g id="node24" class="node"><title>Node24</title>
<polygon fill="white" stroke="#bfbfbf" points="544,-280.5 544,-299.5 596,-299.5 596,-280.5 544,-280.5"/>
<text text-anchor="middle" x="570" y="-287.5" font-family="Helvetica,sans-Serif" font-size="10.00">stdarg.h</text>
</g>
<!-- Node23&#45;&gt;Node24 -->
<g id="edge36" class="edge"><title>Node23&#45;&gt;Node24</title>
<path fill="none" stroke="midnightblue" d="M574.174,-336.083C573.519,-329.006 572.58,-318.861 571.758,-309.986"/>
<polygon fill="midnightblue" stroke="midnightblue" points="575.217,-309.386 570.81,-299.751 568.247,-310.031 575.217,-309.386"/>
</g>
<!-- Node25&#45;&gt;Node12 -->
<g id="edge38" class="edge"><title>Node25&#45;&gt;Node12</title>
<path fill="none" stroke="midnightblue" d="M632.433,-280.181C620.435,-257.886 585.763,-198.857 540,-168 509.519,-147.447 469.391,-136.052 438.309,-129.874"/>
<polygon fill="midnightblue" stroke="midnightblue" points="438.616,-126.371 428.143,-127.973 437.329,-133.251 438.616,-126.371"/>
</g>
<!-- Node26&#45;&gt;Node3 -->
<g id="edge40" class="edge"><title>Node26&#45;&gt;Node3</title>
<path fill="none" stroke="midnightblue" d="M496.271,-336.324C485.163,-328.107 468.258,-315.602 455.017,-305.807"/>
<polygon fill="midnightblue" stroke="midnightblue" points="457.063,-302.967 446.942,-299.834 452.9,-308.595 457.063,-302.967"/>
</g>
<!-- Node27&#45;&gt;Node3 -->
<g id="edge42" class="edge"><title>Node27&#45;&gt;Node3</title>
<path fill="none" stroke="midnightblue" d="M402.44,-336.083C407.949,-328.455 416.031,-317.264 422.765,-307.941"/>
<polygon fill="midnightblue" stroke="midnightblue" points="425.662,-309.907 428.68,-299.751 419.987,-305.809 425.662,-309.907"/>
</g>
<!-- Node28&#45;&gt;Node3 -->
<g id="edge44" class="edge"><title>Node28&#45;&gt;Node3</title>
<path fill="none" stroke="midnightblue" d="M428.235,-448.49C410.705,-432.484 374.475,-395.9 361,-356 358.156,-347.578 356.643,-343.748 361,-336 370.337,-319.394 388.559,-308.202 404.583,-301.134"/>
<polygon fill="midnightblue" stroke="midnightblue" points="406.219,-304.247 414.178,-297.254 403.595,-297.758 406.219,-304.247"/>
</g>
</g>
</svg>
