<?xml version="1.0" encoding="UTF-8" standalone="no"?>
<!DOCTYPE svg PUBLIC "-//W3C//DTD SVG 1.1//EN"
 "http://www.w3.org/Graphics/SVG/1.1/DTD/svg11.dtd">
<!-- Generated by graphviz version 2.38.0 (20140413.2041)
 -->
<!-- Title: src/accumulator.c Pages: 1 -->
<!--zoomable 644 -->
<svg id="main" version="1.1" xmlns="http://www.w3.org/2000/svg" xmlns:xlink="http://www.w3.org/1999/xlink" xml:space="preserve" onload="init(evt)">
<style type="text/css"><![CDATA[
.edge:hover path { stroke: red; }
.edge:hover polygon { stroke: red; fill: red; }
]]></style>
<script type="text/javascript"><![CDATA[
var edges = document.getElementsByTagName('g');
if (edges && edges.length) {
  for (var i=0;i<edges.length;i++) {
    if (edges[i].id.substr(0,4)=='edge') {
      edges[i].setAttribute('class','edge');
    }
  }
}
]]></script>
        <defs>
                <circle id="rim" cx="0" cy="0" r="7"/>
                <circle id="rim2" cx="0" cy="0" r="3.5"/>
                <g id="zoomPlus">
                        <use xlink:href="#rim" fill="#404040">
                                <set attributeName="fill" to="#808080" begin="zoomplus.mouseover" end="zoomplus.mouseout"/>
                        </use>
                        <path d="M-4,0h8M0,-4v8" fill="none" stroke="white" stroke-width="1.5" pointer-events="none"/>
                </g>
                <g id="zoomMin">
                        <use xlink:href="#rim" fill="#404040">
                                <set attributeName="fill" to="#808080" begin="zoomminus.mouseover" end="zoomminus.mouseout"/>
                        </use>
                        <path d="M-4,0h8" fill="none" stroke="white" stroke-width="1.5" pointer-events="none"/>
                </g>
                <g id="dirArrow">
                        <path fill="none" stroke="white" stroke-width="1.5" d="M0,-3.0v7 M-2.5,-0.5L0,-3.0L2.5,-0.5"/>
                </g>
               <g id="resetDef">
                       <use xlink:href="#rim2" fill="#404040">
                               <set attributeName="fill" to="#808080" begin="reset.mouseover" end="reset.mouseout"/>
                       </use>
               </g>
        </defs>

<script type="text/javascript">
var viewWidth = 828;
var viewHeight = 644;
var sectionId = 'dynsection-0';
</script>
<script xlink:href="svgpan.js"/>
<svg id="graph" class="graph">
<g id="viewport">
<title>src/accumulator.c</title>
<polygon fill="white" stroke="none" points="-4,4 -4,-640 824,-640 824,4 -4,4"/>
<!-- Node1 -->
<g id="node1" class="node"><title>Node1</title>
<polygon fill="#bfbfbf" stroke="black" points="545.5,-616.5 545.5,-635.5 640.5,-635.5 640.5,-616.5 545.5,-616.5"/>
<text text-anchor="middle" x="593" y="-623.5" font-family="Helvetica,sans-Serif" font-size="10.00">src/accumulator.c</text>
</g>
<!-- Node2 -->
<g id="node2" class="node"><title>Node2</title>
<g id="a_node2"><a xlink:href="accumulator_8h.html" target="_top" xlink:title="header file for the accumulator ">
<polygon fill="white" stroke="black" points="512,-560.5 512,-579.5 590,-579.5 590,-560.5 512,-560.5"/>
<text text-anchor="middle" x="551" y="-567.5" font-family="Helvetica,sans-Serif" font-size="10.00">accumulator.h</text>
</a>
</g>
</g>
<!-- Node1&#45;&gt;Node2 -->
<g id="edge1" class="edge"><title>Node1&#45;&gt;Node2</title>
<path fill="none" stroke="midnightblue" d="M586.065,-616.083C580.071,-608.377 571.248,-597.033 563.952,-587.653"/>
<polygon fill="midnightblue" stroke="midnightblue" points="566.709,-585.496 557.806,-579.751 561.183,-589.793 566.709,-585.496"/>
</g>
<!-- Node22 -->
<g id="node22" class="node"><title>Node22</title>
<g id="a_node22"><a xlink:href="mtree_8h.html" target="_top" xlink:title="semantic tree matrix header file `` ">
<polygon fill="white" stroke="black" points="583,-280.5 583,-299.5 633,-299.5 633,-280.5 583,-280.5"/>
<text text-anchor="middle" x="608" y="-287.5" font-family="Helvetica,sans-Serif" font-size="10.00">mtree.h</text>
</a>
</g>
</g>
<!-- Node1&#45;&gt;Node22 -->
<g id="edge50" class="edge"><title>Node1&#45;&gt;Node22</title>
<path fill="none" stroke="midnightblue" d="M600.594,-616.281C615.249,-598.523 646,-556.337 646,-515 646,-515 646,-515 646,-401 646,-366.813 629.4,-329.764 618.143,-308.571"/>
<polygon fill="midnightblue" stroke="midnightblue" points="621.181,-306.832 613.284,-299.769 615.053,-310.215 621.181,-306.832"/>
</g>
<!-- Node24 -->
<g id="node24" class="node"><title>Node24</title>
<g id="a_node24"><a xlink:href="receptor_8h.html" target="_top" xlink:title="receptor implementation header file ">
<polygon fill="white" stroke="black" points="436,-448.5 436,-467.5 496,-467.5 496,-448.5 436,-448.5"/>
<text text-anchor="middle" x="466" y="-455.5" font-family="Helvetica,sans-Serif" font-size="10.00">receptor.h</text>
</a>
</g>
</g>
<!-- Node1&#45;&gt;Node24 -->
<g id="edge51" class="edge"><title>Node1&#45;&gt;Node24</title>
<path fill="none" stroke="midnightblue" d="M561.894,-616.413C542.424,-609.537 518.228,-598.008 503,-580 477.907,-550.326 469.826,-503.882 467.227,-478.016"/>
<polygon fill="midnightblue" stroke="midnightblue" points="470.688,-477.392 466.378,-467.714 463.712,-477.967 470.688,-477.392"/>
</g>
<!-- Node30 -->
<g id="node30" class="node"><title>Node30</title>
<g id="a_node30"><a xlink:href="semtrex_8h.html" target="_top" xlink:title="Semantic tree regular expression header file. ">
<polygon fill="white" stroke="black" points="194,-504.5 194,-523.5 254,-523.5 254,-504.5 194,-504.5"/>
<text text-anchor="middle" x="224" y="-511.5" font-family="Helvetica,sans-Serif" font-size="10.00">semtrex.h</text>
</a>
</g>
</g>
<!-- Node1&#45;&gt;Node30 -->
<g id="edge48" class="edge"><title>Node1&#45;&gt;Node30</title>
<path fill="none" stroke="midnightblue" d="M564.352,-616.46C498.611,-596.862 336.872,-548.647 262.522,-526.483"/>
<polygon fill="midnightblue" stroke="midnightblue" points="263.213,-523.037 252.63,-523.535 261.213,-529.746 263.213,-523.037"/>
</g>
<!-- Node31 -->
<g id="node31" class="node"><title>Node31</title>
<polygon fill="white" stroke="#bfbfbf" points="674,-560.5 674,-579.5 742,-579.5 742,-560.5 674,-560.5"/>
<text text-anchor="middle" x="708" y="-567.5" font-family="Helvetica,sans-Serif" font-size="10.00">sys/types.h</text>
</g>
<!-- Node1&#45;&gt;Node31 -->
<g id="edge52" class="edge"><title>Node1&#45;&gt;Node31</title>
<path fill="none" stroke="midnightblue" d="M611.222,-616.444C629.896,-607.675 659.156,-593.935 680.617,-583.858"/>
<polygon fill="midnightblue" stroke="midnightblue" points="682.299,-586.935 689.863,-579.516 679.324,-580.599 682.299,-586.935"/>
</g>
<!-- Node32 -->
<g id="node32" class="node"><title>Node32</title>
<polygon fill="white" stroke="#bfbfbf" points="760,-560.5 760,-579.5 820,-579.5 820,-560.5 760,-560.5"/>
<text text-anchor="middle" x="790" y="-567.5" font-family="Helvetica,sans-Serif" font-size="10.00">sys/stat.h</text>
</g>
<!-- Node1&#45;&gt;Node32 -->
<g id="edge53" class="edge"><title>Node1&#45;&gt;Node32</title>
<path fill="none" stroke="midnightblue" d="M624.215,-616.444C658.23,-607.12 712.752,-592.175 749.911,-581.989"/>
<polygon fill="midnightblue" stroke="midnightblue" points="751.181,-585.27 759.9,-579.251 749.33,-578.519 751.181,-585.27"/>
</g>
<!-- Node3 -->
<g id="node3" class="node"><title>Node3</title>
<g id="a_node3"><a xlink:href="tree_8h.html" target="_top" xlink:title="semantic trees header file ">
<polygon fill="white" stroke="black" points="366.5,-336.5 366.5,-355.5 407.5,-355.5 407.5,-336.5 366.5,-336.5"/>
<text text-anchor="middle" x="387" y="-343.5" font-family="Helvetica,sans-Serif" font-size="10.00">tree.h</text>
</a>
</g>
</g>
<!-- Node2&#45;&gt;Node3 -->
<g id="edge2" class="edge"><title>Node2&#45;&gt;Node3</title>
<path fill="none" stroke="midnightblue" d="M528.733,-560.46C483.35,-541.676 381.064,-491.975 341,-412 331.72,-393.475 349.072,-374.362 365.054,-361.699"/>
<polygon fill="midnightblue" stroke="midnightblue" points="367.192,-364.471 373.138,-355.702 363.021,-358.849 367.192,-364.471"/>
</g>
<!-- Node2&#45;&gt;Node22 -->
<g id="edge29" class="edge"><title>Node2&#45;&gt;Node22</title>
<path fill="none" stroke="midnightblue" d="M559.167,-560.384C574.928,-542.812 608,-500.942 608,-459 608,-459 608,-459 608,-401 608,-368.948 608,-331.643 608,-309.749"/>
<polygon fill="midnightblue" stroke="midnightblue" points="611.5,-309.558 608,-299.558 604.5,-309.558 611.5,-309.558"/>
</g>
<!-- Node23 -->
<g id="node23" class="node"><title>Node23</title>
<g id="a_node23"><a xlink:href="vmhost_8h.html" target="_top" xlink:title="vmhost implementation header file ">
<polygon fill="white" stroke="black" points="511.5,-504.5 511.5,-523.5 568.5,-523.5 568.5,-504.5 511.5,-504.5"/>
<text text-anchor="middle" x="540" y="-511.5" font-family="Helvetica,sans-Serif" font-size="10.00">vmhost.h</text>
</a>
</g>
</g>
<!-- Node2&#45;&gt;Node23 -->
<g id="edge35" class="edge"><title>Node2&#45;&gt;Node23</title>
<path fill="none" stroke="midnightblue" d="M549.184,-560.083C547.726,-552.927 545.629,-542.635 543.807,-533.691"/>
<polygon fill="midnightblue" stroke="midnightblue" points="547.208,-532.851 541.783,-523.751 540.349,-534.248 547.208,-532.851"/>
</g>
<!-- Node4 -->
<g id="node4" class="node"><title>Node4</title>
<polygon fill="white" stroke="#bfbfbf" points="551.5,-0.5 551.5,-19.5 600.5,-19.5 600.5,-0.5 551.5,-0.5"/>
<text text-anchor="middle" x="576" y="-7.5" font-family="Helvetica,sans-Serif" font-size="10.00">string.h</text>
</g>
<!-- Node3&#45;&gt;Node4 -->
<g id="edge3" class="edge"><title>Node3&#45;&gt;Node4</title>
<path fill="none" stroke="midnightblue" d="M406.386,-336.421C422.114,-328.697 444.053,-316.093 459,-300 535.383,-217.765 564.788,-79.1512 573.205,-29.4358"/>
<polygon fill="midnightblue" stroke="midnightblue" points="576.67,-29.9339 574.803,-19.505 569.759,-28.8222 576.67,-29.9339"/>
</g>
<!-- Node5 -->
<g id="node5" class="node"><title>Node5</title>
<polygon fill="white" stroke="#bfbfbf" points="628,-0.5 628,-19.5 676,-19.5 676,-0.5 628,-0.5"/>
<text text-anchor="middle" x="652" y="-7.5" font-family="Helvetica,sans-Serif" font-size="10.00">stdlib.h</text>
</g>
<!-- Node3&#45;&gt;Node5 -->
<g id="edge4" class="edge"><title>Node3&#45;&gt;Node5</title>
<path fill="none" stroke="midnightblue" d="M407.878,-343.312C461.507,-338.665 602.639,-324.387 642,-300 672.527,-281.086 690,-270.912 690,-235 690,-235 690,-235 690,-121 690,-86.8131 673.4,-49.7639 662.143,-28.5707"/>
<polygon fill="midnightblue" stroke="midnightblue" points="665.181,-26.832 657.284,-19.769 659.053,-30.2151 665.181,-26.832"/>
</g>
<!-- Node6 -->
<g id="node6" class="node"><title>Node6</title>
<g id="a_node6"><a xlink:href="ceptr__error_8h_source.html" target="_top" xlink:title="ceptr_error.h">
<polygon fill="white" stroke="black" points="93.5,-112.5 93.5,-131.5 164.5,-131.5 164.5,-112.5 93.5,-112.5"/>
<text text-anchor="middle" x="129" y="-119.5" font-family="Helvetica,sans-Serif" font-size="10.00">ceptr_error.h</text>
</a>
</g>
</g>
<!-- Node3&#45;&gt;Node6 -->
<g id="edge5" class="edge"><title>Node3&#45;&gt;Node6</title>
<path fill="none" stroke="midnightblue" d="M366.256,-342.697C321.685,-337.361 218.73,-322.836 193,-300 145.587,-257.92 133.281,-177.967 130.1,-141.71"/>
<polygon fill="midnightblue" stroke="midnightblue" points="133.579,-141.294 129.356,-131.577 126.598,-141.807 133.579,-141.294"/>
</g>
<!-- Node11 -->
<g id="node11" class="node"><title>Node11</title>
<g id="a_node11"><a xlink:href="sys__defs_8h.html" target="_top" xlink:title="Defines types and vars for system defined semantics. ">
<polygon fill="white" stroke="black" points="366.5,-224.5 366.5,-243.5 431.5,-243.5 431.5,-224.5 366.5,-224.5"/>
<text text-anchor="middle" x="399" y="-231.5" font-family="Helvetica,sans-Serif" font-size="10.00">sys_defs.h</text>
</a>
</g>
</g>
<!-- Node3&#45;&gt;Node11 -->
<g id="edge10" class="edge"><title>Node3&#45;&gt;Node11</title>
<path fill="none" stroke="midnightblue" d="M404.502,-336.465C417.787,-328.917 435.076,-316.533 443,-300 451.796,-281.648 435.355,-262.587 420.129,-249.89"/>
<polygon fill="midnightblue" stroke="midnightblue" points="422.004,-246.914 411.963,-243.536 417.705,-252.439 422.004,-246.914"/>
</g>
<!-- Node12 -->
<g id="node12" class="node"><title>Node12</title>
<g id="a_node12"><a xlink:href="ceptr__types_8h_source.html" target="_top" xlink:title="ceptr_types.h">
<polygon fill="white" stroke="black" points="360,-112.5 360,-131.5 436,-131.5 436,-112.5 360,-112.5"/>
<text text-anchor="middle" x="398" y="-119.5" font-family="Helvetica,sans-Serif" font-size="10.00">ceptr_types.h</text>
</a>
</g>
</g>
<!-- Node3&#45;&gt;Node12 -->
<g id="edge25" class="edge"><title>Node3&#45;&gt;Node12</title>
<path fill="none" stroke="midnightblue" d="M378.249,-336.286C370.437,-327.84 359.549,-314.246 355,-300 352.296,-291.532 354.841,-288.887 355,-280 355.445,-255.099 351.792,-248.354 357,-224 363.537,-193.427 378.711,-160.252 388.653,-140.566"/>
<polygon fill="midnightblue" stroke="midnightblue" points="391.813,-142.075 393.301,-131.585 385.596,-138.857 391.813,-142.075"/>
</g>
<!-- Node19 -->
<g id="node19" class="node"><title>Node19</title>
<g id="a_node19"><a xlink:href="base__defs_8h.html" target="_top" xlink:title="auto&#45;generated system definitions ">
<polygon fill="white" stroke="black" points="364,-280.5 364,-299.5 434,-299.5 434,-280.5 364,-280.5"/>
<text text-anchor="middle" x="399" y="-287.5" font-family="Helvetica,sans-Serif" font-size="10.00">base_defs.h</text>
</a>
</g>
</g>
<!-- Node3&#45;&gt;Node19 -->
<g id="edge23" class="edge"><title>Node3&#45;&gt;Node19</title>
<path fill="none" stroke="midnightblue" d="M388.982,-336.083C390.572,-328.927 392.859,-318.635 394.846,-309.691"/>
<polygon fill="midnightblue" stroke="midnightblue" points="398.303,-310.272 397.055,-299.751 391.469,-308.754 398.303,-310.272"/>
</g>
<!-- Node20 -->
<g id="node20" class="node"><title>Node20</title>
<g id="a_node20"><a xlink:href="stream_8h.html" target="_top" xlink:title="streams abstraction header file ">
<polygon fill="white" stroke="black" points="202.5,-280.5 202.5,-299.5 257.5,-299.5 257.5,-280.5 202.5,-280.5"/>
<text text-anchor="middle" x="230" y="-287.5" font-family="Helvetica,sans-Serif" font-size="10.00">stream.h</text>
</a>
</g>
</g>
<!-- Node3&#45;&gt;Node20 -->
<g id="edge26" class="edge"><title>Node3&#45;&gt;Node20</title>
<path fill="none" stroke="midnightblue" d="M366.475,-337.94C340.599,-329.041 295.736,-313.61 264.541,-302.88"/>
<polygon fill="midnightblue" stroke="midnightblue" points="265.529,-299.519 254.934,-299.576 263.252,-306.138 265.529,-299.519"/>
</g>
<!-- Node7 -->
<g id="node7" class="node"><title>Node7</title>
<polygon fill="white" stroke="#bfbfbf" points="210,-56.5 210,-75.5 256,-75.5 256,-56.5 210,-56.5"/>
<text text-anchor="middle" x="233" y="-63.5" font-family="Helvetica,sans-Serif" font-size="10.00">stdio.h</text>
</g>
<!-- Node6&#45;&gt;Node7 -->
<g id="edge6" class="edge"><title>Node6&#45;&gt;Node7</title>
<path fill="none" stroke="midnightblue" d="M145.709,-112.324C162.312,-103.703 188.002,-90.3643 207.22,-80.3855"/>
<polygon fill="midnightblue" stroke="midnightblue" points="209.07,-83.3689 216.332,-75.6545 205.844,-77.1565 209.07,-83.3689"/>
</g>
<!-- Node8 -->
<g id="node8" class="node"><title>Node8</title>
<polygon fill="white" stroke="#bfbfbf" points="0,-56.5 0,-75.5 50,-75.5 50,-56.5 0,-56.5"/>
<text text-anchor="middle" x="25" y="-63.5" font-family="Helvetica,sans-Serif" font-size="10.00">signal.h</text>
</g>
<!-- Node6&#45;&gt;Node8 -->
<g id="edge7" class="edge"><title>Node6&#45;&gt;Node8</title>
<path fill="none" stroke="midnightblue" d="M112.291,-112.324C95.6881,-103.703 69.9979,-90.3643 50.7795,-80.3855"/>
<polygon fill="midnightblue" stroke="midnightblue" points="52.1558,-77.1565 41.6679,-75.6545 48.93,-83.3689 52.1558,-77.1565"/>
</g>
<!-- Node9 -->
<g id="node9" class="node"><title>Node9</title>
<polygon fill="white" stroke="#bfbfbf" points="68,-56.5 68,-75.5 120,-75.5 120,-56.5 68,-56.5"/>
<text text-anchor="middle" x="94" y="-63.5" font-family="Helvetica,sans-Serif" font-size="10.00">assert.h</text>
</g>
<!-- Node6&#45;&gt;Node9 -->
<g id="edge8" class="edge"><title>Node6&#45;&gt;Node9</title>
<path fill="none" stroke="midnightblue" d="M123.22,-112.083C118.328,-104.534 111.173,-93.4948 105.167,-84.2298"/>
<polygon fill="midnightblue" stroke="midnightblue" points="108.048,-82.239 99.672,-75.7511 102.174,-86.0463 108.048,-82.239"/>
</g>
<!-- Node10 -->
<g id="node10" class="node"><title>Node10</title>
<polygon fill="white" stroke="#bfbfbf" points="138,-56.5 138,-75.5 192,-75.5 192,-56.5 138,-56.5"/>
<text text-anchor="middle" x="165" y="-63.5" font-family="Helvetica,sans-Serif" font-size="10.00">setjmp.h</text>
</g>
<!-- Node6&#45;&gt;Node10 -->
<g id="edge9" class="edge"><title>Node6&#45;&gt;Node10</title>
<path fill="none" stroke="midnightblue" d="M134.945,-112.083C139.977,-104.534 147.337,-93.4948 153.513,-84.2298"/>
<polygon fill="midnightblue" stroke="midnightblue" points="156.531,-86.0131 159.166,-75.7511 150.707,-82.1301 156.531,-86.0131"/>
</g>
<!-- Node11&#45;&gt;Node12 -->
<g id="edge11" class="edge"><title>Node11&#45;&gt;Node12</title>
<path fill="none" stroke="midnightblue" d="M398.922,-224.368C398.76,-206.617 398.388,-165.666 398.169,-141.597"/>
<polygon fill="midnightblue" stroke="midnightblue" points="401.669,-141.559 398.078,-131.591 394.669,-141.623 401.669,-141.559"/>
</g>
<!-- Node18 -->
<g id="node18" class="node"><title>Node18</title>
<g id="a_node18"><a xlink:href="semtable_8h.html" target="_top" xlink:title="header file for table for coordinating meaning across a vmhost ">
<polygon fill="white" stroke="black" points="242.5,-168.5 242.5,-187.5 307.5,-187.5 307.5,-168.5 242.5,-168.5"/>
<text text-anchor="middle" x="275" y="-175.5" font-family="Helvetica,sans-Serif" font-size="10.00">semtable.h</text>
</a>
</g>
</g>
<!-- Node11&#45;&gt;Node18 -->
<g id="edge20" class="edge"><title>Node11&#45;&gt;Node18</title>
<path fill="none" stroke="midnightblue" d="M379.352,-224.444C359.035,-215.596 327.097,-201.687 303.902,-191.586"/>
<polygon fill="midnightblue" stroke="midnightblue" points="305.122,-188.3 294.556,-187.516 302.327,-194.718 305.122,-188.3"/>
</g>
<!-- Node12&#45;&gt;Node7 -->
<g id="edge13" class="edge"><title>Node12&#45;&gt;Node7</title>
<path fill="none" stroke="midnightblue" d="M371.855,-112.444C343.075,-103.024 296.766,-87.869 265.629,-77.6785"/>
<polygon fill="midnightblue" stroke="midnightblue" points="266.686,-74.3421 256.094,-74.558 264.509,-80.9948 266.686,-74.3421"/>
</g>
<!-- Node13 -->
<g id="node13" class="node"><title>Node13</title>
<polygon fill="white" stroke="#bfbfbf" points="424.5,-56.5 424.5,-75.5 473.5,-75.5 473.5,-56.5 424.5,-56.5"/>
<text text-anchor="middle" x="449" y="-63.5" font-family="Helvetica,sans-Serif" font-size="10.00">stdint.h</text>
</g>
<!-- Node12&#45;&gt;Node13 -->
<g id="edge12" class="edge"><title>Node12&#45;&gt;Node13</title>
<path fill="none" stroke="midnightblue" d="M406.422,-112.083C413.848,-104.22 424.852,-92.5688 433.812,-83.0813"/>
<polygon fill="midnightblue" stroke="midnightblue" points="436.413,-85.4244 440.735,-75.7511 431.324,-80.618 436.413,-85.4244"/>
</g>
<!-- Node14 -->
<g id="node14" class="node"><title>Node14</title>
<g id="a_node14"><a xlink:href="uthash_8h_source.html" target="_top" xlink:title="uthash.h">
<polygon fill="white" stroke="black" points="352,-56.5 352,-75.5 406,-75.5 406,-56.5 352,-56.5"/>
<text text-anchor="middle" x="379" y="-63.5" font-family="Helvetica,sans-Serif" font-size="10.00">uthash.h</text>
</a>
</g>
</g>
<!-- Node12&#45;&gt;Node14 -->
<g id="edge14" class="edge"><title>Node12&#45;&gt;Node14</title>
<path fill="none" stroke="midnightblue" d="M394.863,-112.083C392.317,-104.849 388.644,-94.4087 385.473,-85.3968"/>
<polygon fill="midnightblue" stroke="midnightblue" points="388.7,-84.0225 382.079,-75.7511 382.097,-86.3459 388.7,-84.0225"/>
</g>
<!-- Node17 -->
<g id="node17" class="node"><title>Node17</title>
<polygon fill="white" stroke="#bfbfbf" points="492,-56.5 492,-75.5 548,-75.5 548,-56.5 492,-56.5"/>
<text text-anchor="middle" x="520" y="-63.5" font-family="Helvetica,sans-Serif" font-size="10.00">stdbool.h</text>
</g>
<!-- Node12&#45;&gt;Node17 -->
<g id="edge19" class="edge"><title>Node12&#45;&gt;Node17</title>
<path fill="none" stroke="midnightblue" d="M417.331,-112.444C437.32,-103.596 468.743,-89.6875 491.564,-79.5865"/>
<polygon fill="midnightblue" stroke="midnightblue" points="493.032,-82.7645 500.759,-75.5164 490.198,-76.3635 493.032,-82.7645"/>
</g>
<!-- Node14&#45;&gt;Node4 -->
<g id="edge15" class="edge"><title>Node14&#45;&gt;Node4</title>
<path fill="none" stroke="midnightblue" d="M406.392,-57.4915C441.718,-47.8082 503.173,-30.9626 541.607,-20.4275"/>
<polygon fill="midnightblue" stroke="midnightblue" points="542.605,-23.7832 551.324,-17.764 540.754,-17.0322 542.605,-23.7832"/>
</g>
<!-- Node14&#45;&gt;Node5 -->
<g id="edge17" class="edge"><title>Node14&#45;&gt;Node5</title>
<path fill="none" stroke="midnightblue" d="M406.085,-58.0392C409.087,-57.3242 412.104,-56.63 415,-56 500.69,-37.3567 522.966,-36.9838 609,-20 611.876,-19.4322 614.858,-18.8321 617.849,-18.222"/>
<polygon fill="midnightblue" stroke="midnightblue" points="618.828,-21.5938 627.913,-16.1427 617.411,-14.7386 618.828,-21.5938"/>
</g>
<!-- Node15 -->
<g id="node15" class="node"><title>Node15</title>
<polygon fill="white" stroke="#bfbfbf" points="390,-0.5 390,-19.5 442,-19.5 442,-0.5 390,-0.5"/>
<text text-anchor="middle" x="416" y="-7.5" font-family="Helvetica,sans-Serif" font-size="10.00">stddef.h</text>
</g>
<!-- Node14&#45;&gt;Node15 -->
<g id="edge16" class="edge"><title>Node14&#45;&gt;Node15</title>
<path fill="none" stroke="midnightblue" d="M385.11,-56.083C390.282,-48.5341 397.846,-37.4948 404.194,-28.2298"/>
<polygon fill="midnightblue" stroke="midnightblue" points="407.239,-29.9787 410.004,-19.7511 401.464,-26.0221 407.239,-29.9787"/>
</g>
<!-- Node16 -->
<g id="node16" class="node"><title>Node16</title>
<polygon fill="white" stroke="#bfbfbf" points="312.5,-0.5 312.5,-19.5 371.5,-19.5 371.5,-0.5 312.5,-0.5"/>
<text text-anchor="middle" x="342" y="-7.5" font-family="Helvetica,sans-Serif" font-size="10.00">inttypes.h</text>
</g>
<!-- Node14&#45;&gt;Node16 -->
<g id="edge18" class="edge"><title>Node14&#45;&gt;Node16</title>
<path fill="none" stroke="midnightblue" d="M372.89,-56.083C367.718,-48.5341 360.154,-37.4948 353.806,-28.2298"/>
<polygon fill="midnightblue" stroke="midnightblue" points="356.536,-26.0221 347.996,-19.7511 350.761,-29.9787 356.536,-26.0221"/>
</g>
<!-- Node18&#45;&gt;Node6 -->
<g id="edge22" class="edge"><title>Node18&#45;&gt;Node6</title>
<path fill="none" stroke="midnightblue" d="M251.866,-168.444C227.518,-159.438 188.993,-145.189 161.577,-135.049"/>
<polygon fill="midnightblue" stroke="midnightblue" points="162.619,-131.703 152.026,-131.516 160.191,-138.268 162.619,-131.703"/>
</g>
<!-- Node18&#45;&gt;Node12 -->
<g id="edge21" class="edge"><title>Node18&#45;&gt;Node12</title>
<path fill="none" stroke="midnightblue" d="M294.49,-168.444C314.642,-159.596 346.323,-145.687 369.331,-135.586"/>
<polygon fill="midnightblue" stroke="midnightblue" points="370.852,-138.741 378.601,-131.516 368.038,-132.332 370.852,-138.741"/>
</g>
<!-- Node19&#45;&gt;Node11 -->
<g id="edge24" class="edge"><title>Node19&#45;&gt;Node11</title>
<path fill="none" stroke="midnightblue" d="M399,-280.083C399,-273.006 399,-262.861 399,-253.986"/>
<polygon fill="midnightblue" stroke="midnightblue" points="402.5,-253.751 399,-243.751 395.5,-253.751 402.5,-253.751"/>
</g>
<!-- Node20&#45;&gt;Node7 -->
<g id="edge27" class="edge"><title>Node20&#45;&gt;Node7</title>
<path fill="none" stroke="midnightblue" d="M219.286,-280.305C210.062,-272.069 197.409,-258.789 192,-244 171.282,-187.354 204.39,-116.577 222.472,-84.3844"/>
<polygon fill="midnightblue" stroke="midnightblue" points="225.526,-86.095 227.526,-75.6905 219.474,-82.5774 225.526,-86.095"/>
</g>
<!-- Node21 -->
<g id="node21" class="node"><title>Node21</title>
<polygon fill="white" stroke="#bfbfbf" points="201.5,-224.5 201.5,-243.5 258.5,-243.5 258.5,-224.5 201.5,-224.5"/>
<text text-anchor="middle" x="230" y="-231.5" font-family="Helvetica,sans-Serif" font-size="10.00">pthread.h</text>
</g>
<!-- Node20&#45;&gt;Node21 -->
<g id="edge28" class="edge"><title>Node20&#45;&gt;Node21</title>
<path fill="none" stroke="midnightblue" d="M230,-280.083C230,-273.006 230,-262.861 230,-253.986"/>
<polygon fill="midnightblue" stroke="midnightblue" points="233.5,-253.751 230,-243.751 226.5,-253.751 233.5,-253.751"/>
</g>
<!-- Node22&#45;&gt;Node4 -->
<g id="edge30" class="edge"><title>Node22&#45;&gt;Node4</title>
<path fill="none" stroke="midnightblue" d="M608.784,-280.451C610.411,-261.962 614,-216.869 614,-179 614,-179 614,-179 614,-121 614,-86.8131 597.4,-49.7639 586.143,-28.5707"/>
<polygon fill="midnightblue" stroke="midnightblue" points="589.181,-26.832 581.284,-19.769 583.053,-30.2151 589.181,-26.832"/>
</g>
<!-- Node22&#45;&gt;Node5 -->
<g id="edge31" class="edge"><title>Node22&#45;&gt;Node5</title>
<path fill="none" stroke="midnightblue" d="M614.118,-280.349C626.208,-262.377 652,-219.314 652,-179 652,-179 652,-179 652,-121 652,-88.948 652,-51.6426 652,-29.7489"/>
<polygon fill="midnightblue" stroke="midnightblue" points="655.5,-29.5577 652,-19.5578 648.5,-29.5578 655.5,-29.5577"/>
</g>
<!-- Node22&#45;&gt;Node6 -->
<g id="edge32" class="edge"><title>Node22&#45;&gt;Node6</title>
<path fill="none" stroke="midnightblue" d="M590.259,-280.494C545.269,-259.18 422.714,-202.714 316,-168 268.486,-152.544 212.631,-139.783 174.417,-131.846"/>
<polygon fill="midnightblue" stroke="midnightblue" points="175.113,-128.416 164.614,-129.835 173.706,-135.273 175.113,-128.416"/>
</g>
<!-- Node22&#45;&gt;Node11 -->
<g id="edge33" class="edge"><title>Node22&#45;&gt;Node11</title>
<path fill="none" stroke="midnightblue" d="M582.79,-282.486C547.711,-273.423 483.716,-256.888 441.269,-245.921"/>
<polygon fill="midnightblue" stroke="midnightblue" points="442.059,-242.51 431.501,-243.397 440.308,-249.288 442.059,-242.51"/>
</g>
<!-- Node22&#45;&gt;Node12 -->
<g id="edge34" class="edge"><title>Node22&#45;&gt;Node12</title>
<path fill="none" stroke="midnightblue" d="M603.814,-280.349C592.801,-258.448 560.887,-200.268 518,-168 496.764,-152.023 469.223,-141.159 445.883,-134.115"/>
<polygon fill="midnightblue" stroke="midnightblue" points="446.745,-130.721 436.167,-131.326 444.814,-137.449 446.745,-130.721"/>
</g>
<!-- Node23&#45;&gt;Node24 -->
<g id="edge36" class="edge"><title>Node23&#45;&gt;Node24</title>
<path fill="none" stroke="midnightblue" d="M528.111,-504.324C516.85,-496.107 499.713,-483.602 486.291,-473.807"/>
<polygon fill="midnightblue" stroke="midnightblue" points="488.247,-470.901 478.106,-467.834 484.12,-476.556 488.247,-470.901"/>
</g>
<!-- Node24&#45;&gt;Node3 -->
<g id="edge38" class="edge"><title>Node24&#45;&gt;Node3</title>
<path fill="none" stroke="midnightblue" d="M435.736,-454.771C407.74,-450.917 367.59,-440.438 348,-412 336.661,-395.541 352.503,-375.733 367.265,-362.344"/>
<polygon fill="midnightblue" stroke="midnightblue" points="369.818,-364.767 375.176,-355.627 365.288,-359.431 369.818,-364.767"/>
</g>
<!-- Node24&#45;&gt;Node18 -->
<g id="edge37" class="edge"><title>Node24&#45;&gt;Node18</title>
<path fill="none" stroke="midnightblue" d="M435.999,-453.981C407.647,-449.544 365.857,-438.649 341,-412 283.208,-350.043 275.505,-241.245 274.843,-197.746"/>
<polygon fill="midnightblue" stroke="midnightblue" points="278.342,-197.502 274.806,-187.514 271.342,-197.527 278.342,-197.502"/>
</g>
<!-- Node25 -->
<g id="node25" class="node"><title>Node25</title>
<g id="a_node25"><a xlink:href="def_8h.html" target="_top" xlink:title="header file for symbol and structure definition functions ">
<polygon fill="white" stroke="black" points="504,-392.5 504,-411.5 542,-411.5 542,-392.5 504,-392.5"/>
<text text-anchor="middle" x="523" y="-399.5" font-family="Helvetica,sans-Serif" font-size="10.00">def.h</text>
</a>
</g>
</g>
<!-- Node24&#45;&gt;Node25 -->
<g id="edge39" class="edge"><title>Node24&#45;&gt;Node25</title>
<path fill="none" stroke="midnightblue" d="M475.158,-448.324C483.501,-440.42 496.032,-428.548 506.177,-418.938"/>
<polygon fill="midnightblue" stroke="midnightblue" points="508.823,-421.252 513.675,-411.834 504.009,-416.171 508.823,-421.252"/>
</g>
<!-- Node27 -->
<g id="node27" class="node"><title>Node27</title>
<g id="a_node27"><a xlink:href="label_8h.html" target="_top" xlink:title="Label tables map human readable text strings to parts of semantic trees. ">
<polygon fill="white" stroke="black" points="464.5,-168.5 464.5,-187.5 509.5,-187.5 509.5,-168.5 464.5,-168.5"/>
<text text-anchor="middle" x="487" y="-175.5" font-family="Helvetica,sans-Serif" font-size="10.00">label.h</text>
</a>
</g>
</g>
<!-- Node24&#45;&gt;Node27 -->
<g id="edge42" class="edge"><title>Node24&#45;&gt;Node27</title>
<path fill="none" stroke="midnightblue" d="M496.376,-449.573C515.687,-443.107 539.201,-431.597 551,-412 594.762,-339.316 529.433,-236.052 500.069,-195.891"/>
<polygon fill="midnightblue" stroke="midnightblue" points="502.727,-193.602 493.93,-187.699 497.126,-197.8 502.727,-193.602"/>
</g>
<!-- Node28 -->
<g id="node28" class="node"><title>Node28</title>
<g id="a_node28"><a xlink:href="process_8h.html" target="_top" xlink:title="processing header files ">
<polygon fill="white" stroke="black" points="357.5,-392.5 357.5,-411.5 416.5,-411.5 416.5,-392.5 357.5,-392.5"/>
<text text-anchor="middle" x="387" y="-399.5" font-family="Helvetica,sans-Serif" font-size="10.00">process.h</text>
</a>
</g>
</g>
<!-- Node24&#45;&gt;Node28 -->
<g id="edge44" class="edge"><title>Node24&#45;&gt;Node28</title>
<path fill="none" stroke="midnightblue" d="M453.307,-448.324C441.099,-439.979 422.422,-427.212 407.997,-417.352"/>
<polygon fill="midnightblue" stroke="midnightblue" points="409.892,-414.408 399.661,-411.655 405.942,-420.187 409.892,-414.408"/>
</g>
<!-- Node29 -->
<g id="node29" class="node"><title>Node29</title>
<g id="a_node29"><a xlink:href="scape_8h.html" target="_top" xlink:title="scape header files ">
<polygon fill="white" stroke="black" points="434.5,-392.5 434.5,-411.5 485.5,-411.5 485.5,-392.5 434.5,-392.5"/>
<text text-anchor="middle" x="460" y="-399.5" font-family="Helvetica,sans-Serif" font-size="10.00">scape.h</text>
</a>
</g>
</g>
<!-- Node24&#45;&gt;Node29 -->
<g id="edge46" class="edge"><title>Node24&#45;&gt;Node29</title>
<path fill="none" stroke="midnightblue" d="M465.009,-448.083C464.214,-440.927 463.071,-430.635 462.077,-421.691"/>
<polygon fill="midnightblue" stroke="midnightblue" points="465.555,-421.303 460.972,-411.751 458.598,-422.076 465.555,-421.303"/>
</g>
<!-- Node25&#45;&gt;Node3 -->
<g id="edge40" class="edge"><title>Node25&#45;&gt;Node3</title>
<path fill="none" stroke="midnightblue" d="M503.803,-393.378C481.339,-384.458 443.856,-369.575 417.42,-359.079"/>
<polygon fill="midnightblue" stroke="midnightblue" points="418.469,-355.729 407.883,-355.292 415.886,-362.235 418.469,-355.729"/>
</g>
<!-- Node26 -->
<g id="node26" class="node"><title>Node26</title>
<polygon fill="white" stroke="#bfbfbf" points="490,-336.5 490,-355.5 542,-355.5 542,-336.5 490,-336.5"/>
<text text-anchor="middle" x="516" y="-343.5" font-family="Helvetica,sans-Serif" font-size="10.00">stdarg.h</text>
</g>
<!-- Node25&#45;&gt;Node26 -->
<g id="edge41" class="edge"><title>Node25&#45;&gt;Node26</title>
<path fill="none" stroke="midnightblue" d="M521.844,-392.083C520.916,-384.927 519.582,-374.635 518.423,-365.691"/>
<polygon fill="midnightblue" stroke="midnightblue" points="521.891,-365.218 517.134,-355.751 514.949,-366.118 521.891,-365.218"/>
</g>
<!-- Node27&#45;&gt;Node12 -->
<g id="edge43" class="edge"><title>Node27&#45;&gt;Node12</title>
<path fill="none" stroke="midnightblue" d="M472.701,-168.324C458.817,-159.9 437.508,-146.971 421.196,-137.074"/>
<polygon fill="midnightblue" stroke="midnightblue" points="422.629,-133.85 412.264,-131.655 418.998,-139.834 422.629,-133.85"/>
</g>
<!-- Node28&#45;&gt;Node3 -->
<g id="edge45" class="edge"><title>Node28&#45;&gt;Node3</title>
<path fill="none" stroke="midnightblue" d="M387,-392.083C387,-385.006 387,-374.861 387,-365.986"/>
<polygon fill="midnightblue" stroke="midnightblue" points="390.5,-365.751 387,-355.751 383.5,-365.751 390.5,-365.751"/>
</g>
<!-- Node29&#45;&gt;Node3 -->
<g id="edge47" class="edge"><title>Node29&#45;&gt;Node3</title>
<path fill="none" stroke="midnightblue" d="M448.271,-392.324C437.163,-384.107 420.258,-371.602 407.017,-361.807"/>
<polygon fill="midnightblue" stroke="midnightblue" points="409.063,-358.967 398.942,-355.834 404.9,-364.595 409.063,-358.967"/>
</g>
<!-- Node30&#45;&gt;Node3 -->
<g id="edge49" class="edge"><title>Node30&#45;&gt;Node3</title>
<path fill="none" stroke="midnightblue" d="M225.466,-504.416C229.607,-482.674 243.351,-424.834 277,-392 298.838,-370.691 332.15,-358.985 356.394,-352.898"/>
<polygon fill="midnightblue" stroke="midnightblue" points="357.224,-356.298 366.169,-350.621 355.636,-349.481 357.224,-356.298"/>
</g>
</g>
</svg>
        <g id="navigator" transform="translate(0 0)" fill="#404254">
                <rect fill="#f2f5e9" fill-opacity="0.5" stroke="#606060" stroke-width=".5" x="0" y="0" width="60" height="60"/>
                <use id="zoomplus" xlink:href="#zoomPlus" x="17" y="9" onmousedown="handleZoom(evt,'in')"/>
                <use id="zoomminus" xlink:href="#zoomMin" x="42" y="9" onmousedown="handleZoom(evt,'out')"/>
                <use id="reset" xlink:href="#resetDef" x="30" y="36" onmousedown="handleReset()"/>
                <g id="arrowUp" xlink:href="#dirArrow" transform="translate(30 24)" onmousedown="handlePan(0,-1)">
                  <use xlink:href="#rim" fill="#404040">
                        <set attributeName="fill" to="#808080" begin="arrowUp.mouseover" end="arrowUp.mouseout"/>
                  </use>
                  <path fill="none" stroke="white" stroke-width="1.5" d="M0,-3.0v7 M-2.5,-0.5L0,-3.0L2.5,-0.5"/>
                </g>
                <g id="arrowRight" xlink:href="#dirArrow" transform="rotate(90) translate(36 -43)" onmousedown="handlePan(1,0)">
                  <use xlink:href="#rim" fill="#404040">
                        <set attributeName="fill" to="#808080" begin="arrowRight.mouseover" end="arrowRight.mouseout"/>
                  </use>
                  <path fill="none" stroke="white" stroke-width="1.5" d="M0,-3.0v7 M-2.5,-0.5L0,-3.0L2.5,-0.5"/>
                </g>
                <g id="arrowDown" xlink:href="#dirArrow" transform="rotate(180) translate(-30 -48)" onmousedown="handlePan(0,1)">
                  <use xlink:href="#rim" fill="#404040">
                        <set attributeName="fill" to="#808080" begin="arrowDown.mouseover" end="arrowDown.mouseout"/>
                  </use>
                  <path fill="none" stroke="white" stroke-width="1.5" d="M0,-3.0v7 M-2.5,-0.5L0,-3.0L2.5,-0.5"/>
                </g>
                <g id="arrowLeft" xlink:href="#dirArrow" transform="rotate(270) translate(-36 17)" onmousedown="handlePan(-1,0)">
                  <use xlink:href="#rim" fill="#404040">
                        <set attributeName="fill" to="#808080" begin="arrowLeft.mouseover" end="arrowLeft.mouseout"/>
                  </use>
                  <path fill="none" stroke="white" stroke-width="1.5" d="M0,-3.0v7 M-2.5,-0.5L0,-3.0L2.5,-0.5"/>
                </g>
        </g>
        <svg viewBox="0 0 15 15" width="100%" height="30px" preserveAspectRatio="xMaxYMin meet">
         <g id="arrow_out" transform="scale(0.3 0.3)">
          <a xlink:href="accumulator_8c__incl_org.svg" target="_base">
           <rect id="button" ry="5" rx="5" y="6" x="6" height="38" width="38"
                fill="#f2f5e9" fill-opacity="0.5" stroke="#606060" stroke-width="1.0"/>
           <path id="arrow"
             d="M 11.500037,31.436501 C 11.940474,20.09759 22.043105,11.32322 32.158766,21.979434 L 37.068811,17.246167 C 37.068811,17.246167 37.088388,32 37.088388,32 L 22.160133,31.978069 C 22.160133,31.978069 26.997745,27.140456 26.997745,27.140456 C 18.528582,18.264221 13.291696,25.230495 11.500037,31.436501 z"
             style="fill:#404040;"/>
          </a>
         </g>
        </svg>
</svg>
