<?xml version="1.0" encoding="UTF-8" standalone="no"?>
<!DOCTYPE svg PUBLIC "-//W3C//DTD SVG 1.1//EN"
 "http://www.w3.org/Graphics/SVG/1.1/DTD/svg11.dtd">
<!-- Generated by graphviz version 2.38.0 (20140413.2041)
 -->
<!-- Title: src/accumulator.h Pages: 1 -->
<svg width="954pt" height="196pt"
 viewBox="0.00 0.00 953.50 196.00" xmlns="http://www.w3.org/2000/svg" xmlns:xlink="http://www.w3.org/1999/xlink">
<g id="graph0" class="graph" transform="scale(1 1) rotate(0) translate(4 192)">
<title>src/accumulator.h</title>
<polygon fill="white" stroke="none" points="-4,4 -4,-192 949.5,-192 949.5,4 -4,4"/>
<!-- Node1 -->
<g id="node1" class="node"><title>Node1</title>
<polygon fill="#bfbfbf" stroke="black" points="434,-168.5 434,-187.5 529,-187.5 529,-168.5 434,-168.5"/>
<text text-anchor="middle" x="481.5" y="-175.5" font-family="Helvetica,sans-Serif" font-size="10.00">src/accumulator.h</text>
</g>
<!-- Node2 -->
<g id="node2" class="node"><title>Node2</title>
<g id="a_node2"><a xlink:href="accumulator_8c.html" target="_top" xlink:title="implementation file for accumulator ">
<polygon fill="white" stroke="black" points="32,-112.5 32,-131.5 127,-131.5 127,-112.5 32,-112.5"/>
<text text-anchor="middle" x="79.5" y="-119.5" font-family="Helvetica,sans-Serif" font-size="10.00">src/accumulator.c</text>
</a>
</g>
</g>
<!-- Node1&#45;&gt;Node2 -->
<g id="edge1" class="edge"><title>Node1&#45;&gt;Node2</title>
<path fill="none" stroke="midnightblue" d="M423.862,-169.596C356.209,-160.853 240.653,-145.758 141.5,-132 136.867,-131.357 132.042,-130.676 127.219,-129.989"/>
<polygon fill="midnightblue" stroke="midnightblue" points="423.527,-173.081 433.893,-170.891 424.424,-166.139 423.527,-173.081"/>
</g>
<!-- Node3 -->
<g id="node3" class="node"><title>Node3</title>
<g id="a_node3"><a xlink:href="ceptr_8c.html" target="_top" xlink:title="implements main() entry point for the ceptr node ">
<polygon fill="white" stroke="black" points="0,-56.5 0,-75.5 63,-75.5 63,-56.5 0,-56.5"/>
<text text-anchor="middle" x="31.5" y="-63.5" font-family="Helvetica,sans-Serif" font-size="10.00">src/ceptr.c</text>
</a>
</g>
</g>
<!-- Node1&#45;&gt;Node3 -->
<g id="edge2" class="edge"><title>Node1&#45;&gt;Node3</title>
<path fill="none" stroke="midnightblue" d="M423.781,-174.183C361.111,-169.835 258.699,-158.943 174.5,-132 155.947,-126.063 153.115,-120.317 135.5,-112 107.036,-98.561 73.5268,-84.3426 52.3979,-75.5687"/>
<polygon fill="midnightblue" stroke="midnightblue" points="423.659,-177.682 433.868,-174.85 424.121,-170.698 423.659,-177.682"/>
</g>
<!-- Node4 -->
<g id="node4" class="node"><title>Node4</title>
<g id="a_node4"><a xlink:href="shell_8h.html" target="_top" xlink:title="command line shell receptor header files ">
<polygon fill="white" stroke="black" points="183.5,-112.5 183.5,-131.5 245.5,-131.5 245.5,-112.5 183.5,-112.5"/>
<text text-anchor="middle" x="214.5" y="-119.5" font-family="Helvetica,sans-Serif" font-size="10.00">src/shell.h</text>
</a>
</g>
</g>
<!-- Node1&#45;&gt;Node4 -->
<g id="edge3" class="edge"><title>Node1&#45;&gt;Node4</title>
<path fill="none" stroke="midnightblue" d="M429.359,-166.455C374.78,-155.416 290.874,-138.446 245.764,-129.323"/>
<polygon fill="midnightblue" stroke="midnightblue" points="428.698,-169.892 439.193,-168.444 430.085,-163.031 428.698,-169.892"/>
</g>
<!-- Node8 -->
<g id="node8" class="node"><title>Node8</title>
<g id="a_node8"><a xlink:href="group_8h.html" target="_top" xlink:title="group communication receptors header file ">
<polygon fill="white" stroke="black" points="717,-112.5 717,-131.5 782,-131.5 782,-112.5 717,-112.5"/>
<text text-anchor="middle" x="749.5" y="-119.5" font-family="Helvetica,sans-Serif" font-size="10.00">src/group.h</text>
</a>
</g>
</g>
<!-- Node1&#45;&gt;Node8 -->
<g id="edge8" class="edge"><title>Node1&#45;&gt;Node8</title>
<path fill="none" stroke="midnightblue" d="M534.091,-166.403C588.403,-155.46 671.447,-138.727 716.928,-129.563"/>
<polygon fill="midnightblue" stroke="midnightblue" points="533.077,-163.037 523.965,-168.444 534.46,-169.899 533.077,-163.037"/>
</g>
<!-- Node11 -->
<g id="node11" class="node"><title>Node11</title>
<g id="a_node11"><a xlink:href="process_8c.html" target="_top" xlink:title="implementation of ceptr processing: instructions and run tree reduction ">
<polygon fill="white" stroke="black" points="396.5,-112.5 396.5,-131.5 472.5,-131.5 472.5,-112.5 396.5,-112.5"/>
<text text-anchor="middle" x="434.5" y="-119.5" font-family="Helvetica,sans-Serif" font-size="10.00">src/process.c</text>
</a>
</g>
</g>
<!-- Node1&#45;&gt;Node11 -->
<g id="edge12" class="edge"><title>Node1&#45;&gt;Node11</title>
<path fill="none" stroke="midnightblue" d="M467.079,-160.431C458.842,-150.967 448.846,-139.483 442.117,-131.751"/>
<polygon fill="midnightblue" stroke="midnightblue" points="464.534,-162.838 473.739,-168.083 469.814,-158.242 464.534,-162.838"/>
</g>
<!-- Node12 -->
<g id="node12" class="node"><title>Node12</title>
<g id="a_node12"><a xlink:href="receptor_8c.html" target="_top" xlink:title="receptor implementation ">
<polygon fill="white" stroke="black" points="491,-112.5 491,-131.5 568,-131.5 568,-112.5 491,-112.5"/>
<text text-anchor="middle" x="529.5" y="-119.5" font-family="Helvetica,sans-Serif" font-size="10.00">src/receptor.c</text>
</a>
</g>
</g>
<!-- Node1&#45;&gt;Node12 -->
<g id="edge13" class="edge"><title>Node1&#45;&gt;Node12</title>
<path fill="none" stroke="midnightblue" d="M496.228,-160.431C504.64,-150.967 514.849,-139.483 521.721,-131.751"/>
<polygon fill="midnightblue" stroke="midnightblue" points="493.454,-158.284 489.426,-168.083 498.686,-162.934 493.454,-158.284"/>
</g>
<!-- Node13 -->
<g id="node13" class="node"><title>Node13</title>
<g id="a_node13"><a xlink:href="vmhost_8c.html" target="_top" xlink:title="virtual machine host receptor implementation ">
<polygon fill="white" stroke="black" points="586.5,-112.5 586.5,-131.5 660.5,-131.5 660.5,-112.5 586.5,-112.5"/>
<text text-anchor="middle" x="623.5" y="-119.5" font-family="Helvetica,sans-Serif" font-size="10.00">src/vmhost.c</text>
</a>
</g>
</g>
<!-- Node1&#45;&gt;Node13 -->
<g id="edge14" class="edge"><title>Node1&#45;&gt;Node13</title>
<path fill="none" stroke="midnightblue" d="M513.655,-164.772C540.328,-154.629 577.569,-140.467 601.105,-131.516"/>
<polygon fill="midnightblue" stroke="midnightblue" points="512.103,-161.618 504,-168.444 514.591,-168.16 512.103,-161.618"/>
</g>
<!-- Node14 -->
<g id="node14" class="node"><title>Node14</title>
<g id="a_node14"><a xlink:href="accumulator__spec_8h_source.html" target="_top" xlink:title="spec/accumulator_spec.h">
<polygon fill="white" stroke="black" points="817.5,-112.5 817.5,-131.5 945.5,-131.5 945.5,-112.5 817.5,-112.5"/>
<text text-anchor="middle" x="881.5" y="-119.5" font-family="Helvetica,sans-Serif" font-size="10.00">spec/accumulator_spec.h</text>
</a>
</g>
</g>
<!-- Node1&#45;&gt;Node14 -->
<g id="edge15" class="edge"><title>Node1&#45;&gt;Node14</title>
<path fill="none" stroke="midnightblue" d="M539.457,-169.176C613.688,-159.155 741.869,-141.85 818.467,-131.509"/>
<polygon fill="midnightblue" stroke="midnightblue" points="538.794,-165.733 529.352,-170.54 539.73,-172.671 538.794,-165.733"/>
</g>
<!-- Node15 -->
<g id="node15" class="node"><title>Node15</title>
<g id="a_node15"><a xlink:href="http__example_8h.html" target="_top" xlink:title="spec/http_example.h">
<polygon fill="white" stroke="black" points="271,-112.5 271,-131.5 378,-131.5 378,-112.5 271,-112.5"/>
<text text-anchor="middle" x="324.5" y="-119.5" font-family="Helvetica,sans-Serif" font-size="10.00">spec/http_example.h</text>
</a>
</g>
</g>
<!-- Node1&#45;&gt;Node15 -->
<g id="edge17" class="edge"><title>Node1&#45;&gt;Node15</title>
<path fill="none" stroke="midnightblue" d="M447.111,-165.172C417.548,-155.004 375.627,-140.585 349.261,-131.516"/>
<polygon fill="midnightblue" stroke="midnightblue" points="446.028,-168.501 456.623,-168.444 448.305,-161.881 446.028,-168.501"/>
</g>
<!-- Node18 -->
<g id="node18" class="node"><title>Node18</title>
<g id="a_node18"><a xlink:href="receptor__spec_8h.html" target="_top" xlink:title="spec/receptor_spec.h">
<polygon fill="white" stroke="black" points="552.5,-56.5 552.5,-75.5 662.5,-75.5 662.5,-56.5 552.5,-56.5"/>
<text text-anchor="middle" x="607.5" y="-63.5" font-family="Helvetica,sans-Serif" font-size="10.00">spec/receptor_spec.h</text>
</a>
</g>
</g>
<!-- Node1&#45;&gt;Node18 -->
<g id="edge26" class="edge"><title>Node1&#45;&gt;Node18</title>
<path fill="none" stroke="midnightblue" d="M539.589,-170.929C588.677,-164.459 653.49,-152.294 669.5,-132 686.596,-110.328 650.413,-87.5518 626.453,-75.5582"/>
<polygon fill="midnightblue" stroke="midnightblue" points="538.857,-167.494 529.377,-172.224 539.738,-174.438 538.857,-167.494"/>
</g>
<!-- Node4&#45;&gt;Node3 -->
<g id="edge4" class="edge"><title>Node4&#45;&gt;Node3</title>
<path fill="none" stroke="midnightblue" d="M175.757,-109.568C141.235,-99.381 91.495,-84.7034 60.3612,-75.5164"/>
<polygon fill="midnightblue" stroke="midnightblue" points="174.921,-112.97 185.503,-112.444 176.903,-106.256 174.921,-112.97"/>
</g>
<!-- Node5 -->
<g id="node5" class="node"><title>Node5</title>
<g id="a_node5"><a xlink:href="shell_8c.html" target="_top" xlink:title="implementation of a command line shell receptor ">
<polygon fill="white" stroke="black" points="81.5,-56.5 81.5,-75.5 143.5,-75.5 143.5,-56.5 81.5,-56.5"/>
<text text-anchor="middle" x="112.5" y="-63.5" font-family="Helvetica,sans-Serif" font-size="10.00">src/shell.c</text>
</a>
</g>
</g>
<!-- Node4&#45;&gt;Node5 -->
<g id="edge5" class="edge"><title>Node4&#45;&gt;Node5</title>
<path fill="none" stroke="midnightblue" d="M189.169,-107.59C170.31,-97.6052 145.116,-84.2672 128.847,-75.6545"/>
<polygon fill="midnightblue" stroke="midnightblue" points="187.636,-110.738 198.112,-112.324 190.912,-104.552 187.636,-110.738"/>
</g>
<!-- Node6 -->
<g id="node6" class="node"><title>Node6</title>
<g id="a_node6"><a xlink:href="vmhost__spec_8h.html" target="_top" xlink:title="spec/vmhost_spec.h">
<polygon fill="white" stroke="black" points="161,-56.5 161,-75.5 268,-75.5 268,-56.5 161,-56.5"/>
<text text-anchor="middle" x="214.5" y="-63.5" font-family="Helvetica,sans-Serif" font-size="10.00">spec/vmhost_spec.h</text>
</a>
</g>
</g>
<!-- Node4&#45;&gt;Node6 -->
<g id="edge6" class="edge"><title>Node4&#45;&gt;Node6</title>
<path fill="none" stroke="midnightblue" d="M214.5,-101.805C214.5,-92.9102 214.5,-82.7798 214.5,-75.7511"/>
<polygon fill="midnightblue" stroke="midnightblue" points="211,-102.083 214.5,-112.083 218,-102.083 211,-102.083"/>
</g>
<!-- Node7 -->
<g id="node7" class="node"><title>Node7</title>
<g id="a_node7"><a xlink:href="ceptr__specs_8c.html" target="_top" xlink:title="implements a main() entry point for running all the tests ">
<polygon fill="white" stroke="black" points="473.5,-0.5 473.5,-19.5 575.5,-19.5 575.5,-0.5 473.5,-0.5"/>
<text text-anchor="middle" x="524.5" y="-7.5" font-family="Helvetica,sans-Serif" font-size="10.00">spec/ceptr_specs.c</text>
</a>
</g>
</g>
<!-- Node6&#45;&gt;Node7 -->
<g id="edge7" class="edge"><title>Node6&#45;&gt;Node7</title>
<path fill="none" stroke="midnightblue" d="M273.835,-54.6642C332.42,-44.4592 420.945,-29.0386 475.609,-19.5164"/>
<polygon fill="midnightblue" stroke="midnightblue" points="272.871,-51.2793 263.62,-56.4435 274.073,-58.1754 272.871,-51.2793"/>
</g>
<!-- Node9 -->
<g id="node9" class="node"><title>Node9</title>
<g id="a_node9"><a xlink:href="group_8c.html" target="_top" xlink:title="implementation of some group communication receptors ">
<polygon fill="white" stroke="black" points="681,-56.5 681,-75.5 746,-75.5 746,-56.5 681,-56.5"/>
<text text-anchor="middle" x="713.5" y="-63.5" font-family="Helvetica,sans-Serif" font-size="10.00">src/group.c</text>
</a>
</g>
</g>
<!-- Node8&#45;&gt;Node9 -->
<g id="edge9" class="edge"><title>Node8&#45;&gt;Node9</title>
<path fill="none" stroke="midnightblue" d="M737.877,-103.566C731.683,-94.2747 724.332,-83.2484 719.334,-75.7511"/>
<polygon fill="midnightblue" stroke="midnightblue" points="735.096,-105.704 743.555,-112.083 740.92,-101.821 735.096,-105.704"/>
</g>
<!-- Node10 -->
<g id="node10" class="node"><title>Node10</title>
<g id="a_node10"><a xlink:href="group__spec_8h.html" target="_top" xlink:title="spec/group_spec.h">
<polygon fill="white" stroke="black" points="764,-56.5 764,-75.5 863,-75.5 863,-56.5 764,-56.5"/>
<text text-anchor="middle" x="813.5" y="-63.5" font-family="Helvetica,sans-Serif" font-size="10.00">spec/group_spec.h</text>
</a>
</g>
</g>
<!-- Node8&#45;&gt;Node10 -->
<g id="edge10" class="edge"><title>Node8&#45;&gt;Node10</title>
<path fill="none" stroke="midnightblue" d="M767.491,-105.82C778.958,-96.1452 793.413,-83.9481 803.03,-75.8339"/>
<polygon fill="midnightblue" stroke="midnightblue" points="765.169,-103.2 759.783,-112.324 769.683,-108.55 765.169,-103.2"/>
</g>
<!-- Node10&#45;&gt;Node7 -->
<g id="edge11" class="edge"><title>Node10&#45;&gt;Node7</title>
<path fill="none" stroke="midnightblue" d="M757.845,-54.6007C703.227,-44.3953 620.934,-29.0189 570.079,-19.5164"/>
<polygon fill="midnightblue" stroke="midnightblue" points="757.234,-58.0472 767.707,-56.4435 758.52,-51.1663 757.234,-58.0472"/>
</g>
<!-- Node14&#45;&gt;Node7 -->
<g id="edge16" class="edge"><title>Node14&#45;&gt;Node7</title>
<path fill="none" stroke="midnightblue" d="M884.435,-102.457C885.616,-87.7978 884.494,-67.8862 872.5,-56 831.718,-15.5831 662.316,-10.2883 575.818,-10.3061"/>
<polygon fill="midnightblue" stroke="midnightblue" points="880.956,-102.075 883.225,-112.424 887.905,-102.918 880.956,-102.075"/>
</g>
<!-- Node15&#45;&gt;Node6 -->
<g id="edge24" class="edge"><title>Node15&#45;&gt;Node6</title>
<path fill="none" stroke="midnightblue" d="M297.738,-107.862C277.341,-97.8492 249.834,-84.3458 232.13,-75.6545"/>
<polygon fill="midnightblue" stroke="midnightblue" points="296.308,-111.059 306.827,-112.324 299.392,-104.775 296.308,-111.059"/>
</g>
<!-- Node15&#45;&gt;Node7 -->
<g id="edge25" class="edge"><title>Node15&#45;&gt;Node7</title>
<path fill="none" stroke="midnightblue" d="M378.287,-110.452C428.207,-100.212 496.186,-84.9428 505.5,-76 521.274,-60.8549 524.157,-33.4045 524.553,-19.5249"/>
<polygon fill="midnightblue" stroke="midnightblue" points="377.353,-107.07 368.251,-112.493 378.748,-113.93 377.353,-107.07"/>
</g>
<!-- Node16 -->
<g id="node16" class="node"><title>Node16</title>
<g id="a_node16"><a xlink:href="tree__spec_8h.html" target="_top" xlink:title="spec/tree_spec.h">
<polygon fill="white" stroke="black" points="286.5,-56.5 286.5,-75.5 378.5,-75.5 378.5,-56.5 286.5,-56.5"/>
<text text-anchor="middle" x="332.5" y="-63.5" font-family="Helvetica,sans-Serif" font-size="10.00">spec/tree_spec.h</text>
</a>
</g>
</g>
<!-- Node15&#45;&gt;Node16 -->
<g id="edge18" class="edge"><title>Node15&#45;&gt;Node16</title>
<path fill="none" stroke="midnightblue" d="M327.3,-102.101C328.628,-93.1357 330.151,-82.8579 331.204,-75.7511"/>
<polygon fill="midnightblue" stroke="midnightblue" points="323.824,-101.678 325.821,-112.083 330.749,-102.704 323.824,-101.678"/>
</g>
<!-- Node17 -->
<g id="node17" class="node"><title>Node17</title>
<g id="a_node17"><a xlink:href="mtree__spec_8h.html" target="_top" xlink:title="spec/mtree_spec.h">
<polygon fill="white" stroke="black" points="396.5,-56.5 396.5,-75.5 496.5,-75.5 496.5,-56.5 396.5,-56.5"/>
<text text-anchor="middle" x="446.5" y="-63.5" font-family="Helvetica,sans-Serif" font-size="10.00">spec/mtree_spec.h</text>
</a>
</g>
</g>
<!-- Node15&#45;&gt;Node17 -->
<g id="edge20" class="edge"><title>Node15&#45;&gt;Node17</title>
<path fill="none" stroke="midnightblue" d="M353.039,-108.368C375.886,-98.2553 407.305,-84.3486 427.259,-75.5164"/>
<polygon fill="midnightblue" stroke="midnightblue" points="351.559,-105.196 343.831,-112.444 354.392,-111.597 351.559,-105.196"/>
</g>
<!-- Node15&#45;&gt;Node18 -->
<g id="edge22" class="edge"><title>Node15&#45;&gt;Node18</title>
<path fill="none" stroke="midnightblue" d="M379.333,-110.537C432.818,-100.332 513.171,-84.9992 562.868,-75.5164"/>
<polygon fill="midnightblue" stroke="midnightblue" points="378.509,-107.131 369.342,-112.444 379.821,-114.007 378.509,-107.131"/>
</g>
<!-- Node16&#45;&gt;Node7 -->
<g id="edge19" class="edge"><title>Node16&#45;&gt;Node7</title>
<path fill="none" stroke="midnightblue" d="M372.683,-53.6986C408.919,-43.507 461.414,-28.7429 494.219,-19.5164"/>
<polygon fill="midnightblue" stroke="midnightblue" points="371.602,-50.3667 362.923,-56.4435 373.497,-57.1053 371.602,-50.3667"/>
</g>
<!-- Node17&#45;&gt;Node7 -->
<g id="edge21" class="edge"><title>Node17&#45;&gt;Node7</title>
<path fill="none" stroke="midnightblue" d="M467.268,-50.6221C481.517,-40.7574 499.956,-27.9919 511.999,-19.6545"/>
<polygon fill="midnightblue" stroke="midnightblue" points="465.262,-47.7541 459.032,-56.324 469.246,-53.5095 465.262,-47.7541"/>
</g>
<!-- Node18&#45;&gt;Node7 -->
<g id="edge23" class="edge"><title>Node18&#45;&gt;Node7</title>
<path fill="none" stroke="midnightblue" d="M585.401,-50.6221C570.238,-40.7574 550.617,-27.9919 537.802,-19.6545"/>
<polygon fill="midnightblue" stroke="midnightblue" points="583.874,-53.8042 594.165,-56.324 587.691,-47.9367 583.874,-53.8042"/>
</g>
</g>
</svg>
