<?xml version="1.0" encoding="UTF-8" standalone="no"?>
<!DOCTYPE svg PUBLIC "-//W3C//DTD SVG 1.1//EN"
 "http://www.w3.org/Graphics/SVG/1.1/DTD/svg11.dtd">
<!-- Generated by graphviz version 2.38.0 (20140413.2041)
 -->
<!-- Title: src/accumulator.h Pages: 1 -->
<svg width="565pt" height="140pt"
 viewBox="0.00 0.00 564.50 140.00" xmlns="http://www.w3.org/2000/svg" xmlns:xlink="http://www.w3.org/1999/xlink">
<g id="graph0" class="graph" transform="scale(1 1) rotate(0) translate(4 136)">
<title>src/accumulator.h</title>
<polygon fill="white" stroke="none" points="-4,4 -4,-136 560.5,-136 560.5,4 -4,4"/>
<!-- Node1 -->
<g id="node1" class="node"><title>Node1</title>
<polygon fill="#bfbfbf" stroke="black" points="198,-112.5 198,-131.5 293,-131.5 293,-112.5 198,-112.5"/>
<text text-anchor="middle" x="245.5" y="-119.5" font-family="Helvetica,sans-Serif" font-size="10.00">src/accumulator.h</text>
</g>
<!-- Node2 -->
<g id="node2" class="node"><title>Node2</title>
<g id="a_node2"><a xlink:href="accumulator_8c.html" target="_top" xlink:title="implementation file for accumulator ">
<polygon fill="white" stroke="black" points="0,-56.5 0,-75.5 95,-75.5 95,-56.5 0,-56.5"/>
<text text-anchor="middle" x="47.5" y="-63.5" font-family="Helvetica,sans-Serif" font-size="10.00">src/accumulator.c</text>
</a>
</g>
</g>
<!-- Node1&#45;&gt;Node2 -->
<g id="edge1" class="edge"><title>Node1&#45;&gt;Node2</title>
<path fill="none" stroke="midnightblue" d="M204.062,-109.699C166.693,-99.507 112.557,-84.7429 78.7269,-75.5164"/>
<polygon fill="midnightblue" stroke="midnightblue" points="203.558,-113.189 214.126,-112.444 205.4,-106.436 203.558,-113.189"/>
</g>
<!-- Node3 -->
<g id="node3" class="node"><title>Node3</title>
<g id="a_node3"><a xlink:href="receptor_8c.html" target="_top" xlink:title="receptor implementation ">
<polygon fill="white" stroke="black" points="113,-56.5 113,-75.5 190,-75.5 190,-56.5 113,-56.5"/>
<text text-anchor="middle" x="151.5" y="-63.5" font-family="Helvetica,sans-Serif" font-size="10.00">src/receptor.c</text>
</a>
</g>
</g>
<!-- Node1&#45;&gt;Node3 -->
<g id="edge2" class="edge"><title>Node1&#45;&gt;Node3</title>
<path fill="none" stroke="midnightblue" d="M221.438,-107.177C204.141,-97.2407 181.352,-84.1492 166.565,-75.6545"/>
<polygon fill="midnightblue" stroke="midnightblue" points="219.983,-110.378 230.397,-112.324 223.47,-104.308 219.983,-110.378"/>
</g>
<!-- Node4 -->
<g id="node4" class="node"><title>Node4</title>
<g id="a_node4"><a xlink:href="vmhost_8c.html" target="_top" xlink:title="virtual machine host receptor implementation ">
<polygon fill="white" stroke="black" points="208.5,-56.5 208.5,-75.5 282.5,-75.5 282.5,-56.5 208.5,-56.5"/>
<text text-anchor="middle" x="245.5" y="-63.5" font-family="Helvetica,sans-Serif" font-size="10.00">src/vmhost.c</text>
</a>
</g>
</g>
<!-- Node1&#45;&gt;Node4 -->
<g id="edge3" class="edge"><title>Node1&#45;&gt;Node4</title>
<path fill="none" stroke="midnightblue" d="M245.5,-101.805C245.5,-92.9102 245.5,-82.7798 245.5,-75.7511"/>
<polygon fill="midnightblue" stroke="midnightblue" points="242,-102.083 245.5,-112.083 249,-102.083 242,-102.083"/>
</g>
<!-- Node5 -->
<g id="node5" class="node"><title>Node5</title>
<g id="a_node5"><a xlink:href="accumulator__spec_8h_source.html" target="_top" xlink:title="spec/accumulator_spec.h">
<polygon fill="white" stroke="black" points="300.5,-56.5 300.5,-75.5 428.5,-75.5 428.5,-56.5 300.5,-56.5"/>
<text text-anchor="middle" x="364.5" y="-63.5" font-family="Helvetica,sans-Serif" font-size="10.00">spec/accumulator_spec.h</text>
</a>
</g>
</g>
<!-- Node1&#45;&gt;Node5 -->
<g id="edge4" class="edge"><title>Node1&#45;&gt;Node5</title>
<path fill="none" stroke="midnightblue" d="M273.637,-108.232C295.896,-98.1312 326.356,-84.3091 345.732,-75.5164"/>
<polygon fill="midnightblue" stroke="midnightblue" points="272.016,-105.124 264.356,-112.444 274.909,-111.498 272.016,-105.124"/>
</g>
<!-- Node7 -->
<g id="node7" class="node"><title>Node7</title>
<g id="a_node7"><a xlink:href="receptor__spec_8h.html" target="_top" xlink:title="spec/receptor_spec.h">
<polygon fill="white" stroke="black" points="446.5,-56.5 446.5,-75.5 556.5,-75.5 556.5,-56.5 446.5,-56.5"/>
<text text-anchor="middle" x="501.5" y="-63.5" font-family="Helvetica,sans-Serif" font-size="10.00">spec/receptor_spec.h</text>
</a>
</g>
</g>
<!-- Node1&#45;&gt;Node7 -->
<g id="edge6" class="edge"><title>Node1&#45;&gt;Node7</title>
<path fill="none" stroke="midnightblue" d="M296.01,-110.346C344.389,-100.141 416.451,-84.94 461.126,-75.5164"/>
<polygon fill="midnightblue" stroke="midnightblue" points="295.126,-106.955 286.064,-112.444 296.571,-113.804 295.126,-106.955"/>
</g>
<!-- Node6 -->
<g id="node6" class="node"><title>Node6</title>
<g id="a_node6"><a xlink:href="ceptr__specs_8c.html" target="_top" xlink:title="implements a main() entry point for running all the tests ">
<polygon fill="white" stroke="black" points="381.5,-0.5 381.5,-19.5 483.5,-19.5 483.5,-0.5 381.5,-0.5"/>
<text text-anchor="middle" x="432.5" y="-7.5" font-family="Helvetica,sans-Serif" font-size="10.00">spec/ceptr_specs.c</text>
</a>
</g>
</g>
<!-- Node5&#45;&gt;Node6 -->
<g id="edge5" class="edge"><title>Node5&#45;&gt;Node6</title>
<path fill="none" stroke="midnightblue" d="M383.262,-50.1008C395.5,-40.3824 411.059,-28.0269 421.376,-19.8339"/>
<polygon fill="midnightblue" stroke="midnightblue" points="381.08,-47.3642 375.425,-56.324 385.433,-52.846 381.08,-47.3642"/>
</g>
<!-- Node7&#45;&gt;Node6 -->
<g id="edge7" class="edge"><title>Node7&#45;&gt;Node6</title>
<path fill="none" stroke="midnightblue" d="M482.462,-50.1008C470.044,-40.3824 454.257,-28.0269 443.788,-19.8339"/>
<polygon fill="midnightblue" stroke="midnightblue" points="480.382,-52.9171 490.414,-56.324 484.696,-47.4046 480.382,-52.9171"/>
</g>
</g>
</svg>
