<?xml version="1.0" encoding="UTF-8" standalone="no"?>
<!DOCTYPE svg PUBLIC "-//W3C//DTD SVG 1.1//EN"
 "http://www.w3.org/Graphics/SVG/1.1/DTD/svg11.dtd">
<!-- Generated by graphviz version 2.38.0 (20140413.2041)
 -->
<!-- Title: src/ceptr.c Pages: 1 -->
<svg width="951pt" height="588pt"
 viewBox="0.00 0.00 950.50 588.00" xmlns="http://www.w3.org/2000/svg" xmlns:xlink="http://www.w3.org/1999/xlink">
<g id="graph0" class="graph" transform="scale(1 1) rotate(0) translate(4 584)">
<title>src/ceptr.c</title>
<polygon fill="white" stroke="none" points="-4,4 -4,-584 946.5,-584 946.5,4 -4,4"/>
<!-- Node1 -->
<g id="node1" class="node"><title>Node1</title>
<polygon fill="#bfbfbf" stroke="black" points="301.5,-560.5 301.5,-579.5 364.5,-579.5 364.5,-560.5 301.5,-560.5"/>
<text text-anchor="middle" x="333" y="-567.5" font-family="Helvetica,sans-Serif" font-size="10.00">src/ceptr.c</text>
</g>
<!-- Node2 -->
<g id="node2" class="node"><title>Node2</title>
<g id="a_node2"><a xlink:href="ceptr_8h_source.html" target="_top" xlink:title="ceptr.h">
<polygon fill="white" stroke="black" points="309.5,-336.5 309.5,-355.5 356.5,-355.5 356.5,-336.5 309.5,-336.5"/>
<text text-anchor="middle" x="333" y="-343.5" font-family="Helvetica,sans-Serif" font-size="10.00">ceptr.h</text>
</a>
</g>
</g>
<!-- Node1&#45;&gt;Node2 -->
<g id="edge1" class="edge"><title>Node1&#45;&gt;Node2</title>
<path fill="none" stroke="midnightblue" d="M333,-560.297C333,-527.633 333,-411.866 333,-365.957"/>
<polygon fill="midnightblue" stroke="midnightblue" points="336.5,-365.884 333,-355.884 329.5,-365.884 336.5,-365.884"/>
</g>
<!-- Node4 -->
<g id="node4" class="node"><title>Node4</title>
<polygon fill="white" stroke="#bfbfbf" points="178,-56.5 178,-75.5 224,-75.5 224,-56.5 178,-56.5"/>
<text text-anchor="middle" x="201" y="-63.5" font-family="Helvetica,sans-Serif" font-size="10.00">stdio.h</text>
</g>
<!-- Node1&#45;&gt;Node4 -->
<g id="edge58" class="edge"><title>Node1&#45;&gt;Node4</title>
<path fill="none" stroke="midnightblue" d="M301.372,-565.416C218.25,-555.124 0,-522.092 0,-459 0,-459 0,-459 0,-345 0,-223.361 127.934,-118.866 179.67,-81.5817"/>
<polygon fill="midnightblue" stroke="midnightblue" points="181.978,-84.2362 188.121,-75.6036 177.936,-78.5215 181.978,-84.2362"/>
</g>
<!-- Node25 -->
<g id="node25" class="node"><title>Node25</title>
<g id="a_node25"><a xlink:href="accumulator_8h.html" target="_top" xlink:title="header file for the accumulator ">
<polygon fill="white" stroke="black" points="500,-504.5 500,-523.5 578,-523.5 578,-504.5 500,-504.5"/>
<text text-anchor="middle" x="539" y="-511.5" font-family="Helvetica,sans-Serif" font-size="10.00">accumulator.h</text>
</a>
</g>
</g>
<!-- Node1&#45;&gt;Node25 -->
<g id="edge43" class="edge"><title>Node1&#45;&gt;Node25</title>
<path fill="none" stroke="midnightblue" d="M364.736,-560.681C400.14,-551.4 457.576,-536.344 496.757,-526.073"/>
<polygon fill="midnightblue" stroke="midnightblue" points="497.762,-529.428 506.548,-523.507 495.987,-522.657 497.762,-529.428"/>
</g>
<!-- Node3 -->
<g id="node3" class="node"><title>Node3</title>
<polygon fill="white" stroke="#bfbfbf" points="779.5,-0.5 779.5,-19.5 828.5,-19.5 828.5,-0.5 779.5,-0.5"/>
<text text-anchor="middle" x="804" y="-7.5" font-family="Helvetica,sans-Serif" font-size="10.00">string.h</text>
</g>
<!-- Node2&#45;&gt;Node3 -->
<g id="edge2" class="edge"><title>Node2&#45;&gt;Node3</title>
<path fill="none" stroke="midnightblue" d="M356.755,-343.195C409.902,-338.818 542.203,-326.028 650,-300 724.052,-282.12 750.392,-288.809 812,-244 841.258,-222.72 861,-215.178 861,-179 861,-179 861,-179 861,-121 861,-84.3005 835.679,-47.6567 818.79,-27.2973"/>
<polygon fill="midnightblue" stroke="midnightblue" points="821.348,-24.9037 812.167,-19.6161 816.046,-29.475 821.348,-24.9037"/>
</g>
<!-- Node2&#45;&gt;Node4 -->
<g id="edge3" class="edge"><title>Node2&#45;&gt;Node4</title>
<path fill="none" stroke="midnightblue" d="M309.337,-341.831C260.275,-333.794 152,-307.808 152,-235 152,-235 152,-235 152,-177 152,-141.466 173.6,-104.627 188.118,-83.8799"/>
<polygon fill="midnightblue" stroke="midnightblue" points="191.131,-85.6871 194.187,-75.5423 185.472,-81.5675 191.131,-85.6871"/>
</g>
<!-- Node5 -->
<g id="node5" class="node"><title>Node5</title>
<polygon fill="white" stroke="#bfbfbf" points="509,-0.5 509,-19.5 557,-19.5 557,-0.5 509,-0.5"/>
<text text-anchor="middle" x="533" y="-7.5" font-family="Helvetica,sans-Serif" font-size="10.00">stdlib.h</text>
</g>
<!-- Node2&#45;&gt;Node5 -->
<g id="edge4" class="edge"><title>Node2&#45;&gt;Node5</title>
<path fill="none" stroke="midnightblue" d="M309.485,-342.55C260.112,-337.022 147.675,-322.296 117,-300 24.9065,-233.061 -37.7662,-140.077 39,-56 69.9469,-22.1059 391.911,-13.4563 498.756,-11.511"/>
<polygon fill="midnightblue" stroke="midnightblue" points="499.045,-15.0066 508.983,-11.3335 498.923,-8.00767 499.045,-15.0066"/>
</g>
<!-- Node6 -->
<g id="node6" class="node"><title>Node6</title>
<g id="a_node6"><a xlink:href="ceptr__error_8h_source.html" target="_top" xlink:title="ceptr_error.h">
<polygon fill="white" stroke="black" points="297.5,-168.5 297.5,-187.5 368.5,-187.5 368.5,-168.5 297.5,-168.5"/>
<text text-anchor="middle" x="333" y="-175.5" font-family="Helvetica,sans-Serif" font-size="10.00">ceptr_error.h</text>
</a>
</g>
</g>
<!-- Node2&#45;&gt;Node6 -->
<g id="edge5" class="edge"><title>Node2&#45;&gt;Node6</title>
<path fill="none" stroke="midnightblue" d="M333,-336.075C333,-309.945 333,-233.211 333,-197.577"/>
<polygon fill="midnightblue" stroke="midnightblue" points="336.5,-197.568 333,-187.568 329.5,-197.568 336.5,-197.568"/>
</g>
<!-- Node10 -->
<g id="node10" class="node"><title>Node10</title>
<g id="a_node10"><a xlink:href="tree_8h.html" target="_top" xlink:title="semantic trees header file ">
<polygon fill="white" stroke="black" points="600.5,-280.5 600.5,-299.5 641.5,-299.5 641.5,-280.5 600.5,-280.5"/>
<text text-anchor="middle" x="621" y="-287.5" font-family="Helvetica,sans-Serif" font-size="10.00">tree.h</text>
</a>
</g>
</g>
<!-- Node2&#45;&gt;Node10 -->
<g id="edge10" class="edge"><title>Node2&#45;&gt;Node10</title>
<path fill="none" stroke="midnightblue" d="M356.568,-340.581C408.421,-330.859 532.372,-307.618 590.249,-296.766"/>
<polygon fill="midnightblue" stroke="midnightblue" points="591.072,-300.173 600.255,-294.89 589.781,-293.293 591.072,-300.173"/>
</g>
<!-- Node18 -->
<g id="node18" class="node"><title>Node18</title>
<g id="a_node18"><a xlink:href="stream_8h.html" target="_top" xlink:title="streams abstraction header file ">
<polygon fill="white" stroke="black" points="414.5,-224.5 414.5,-243.5 469.5,-243.5 469.5,-224.5 414.5,-224.5"/>
<text text-anchor="middle" x="442" y="-231.5" font-family="Helvetica,sans-Serif" font-size="10.00">stream.h</text>
</a>
</g>
</g>
<!-- Node2&#45;&gt;Node18 -->
<g id="edge35" class="edge"><title>Node2&#45;&gt;Node18</title>
<path fill="none" stroke="midnightblue" d="M341.553,-336.368C359.86,-317.894 403.065,-274.293 426.4,-250.744"/>
<polygon fill="midnightblue" stroke="midnightblue" points="428.934,-253.158 433.487,-243.591 423.962,-248.231 428.934,-253.158"/>
</g>
<!-- Node20 -->
<g id="node20" class="node"><title>Node20</title>
<g id="a_node20"><a xlink:href="mtree_8h.html" target="_top" xlink:title="semantic tree matrix header file `` ">
<polygon fill="white" stroke="black" points="495,-224.5 495,-243.5 545,-243.5 545,-224.5 495,-224.5"/>
<text text-anchor="middle" x="520" y="-231.5" font-family="Helvetica,sans-Serif" font-size="10.00">mtree.h</text>
</a>
</g>
</g>
<!-- Node2&#45;&gt;Node20 -->
<g id="edge29" class="edge"><title>Node2&#45;&gt;Node20</title>
<path fill="none" stroke="midnightblue" d="M347.674,-336.368C379.899,-317.412 457.099,-272.001 496.298,-248.942"/>
<polygon fill="midnightblue" stroke="midnightblue" points="498.55,-251.678 505.395,-243.591 495.001,-245.645 498.55,-251.678"/>
</g>
<!-- Node21 -->
<g id="node21" class="node"><title>Node21</title>
<g id="a_node21"><a xlink:href="util_8h.html" target="_top" xlink:title="util.h">
<polygon fill="white" stroke="black" points="48,-112.5 48,-131.5 86,-131.5 86,-112.5 48,-112.5"/>
<text text-anchor="middle" x="67" y="-119.5" font-family="Helvetica,sans-Serif" font-size="10.00">util.h</text>
</a>
</g>
</g>
<!-- Node2&#45;&gt;Node21 -->
<g id="edge36" class="edge"><title>Node2&#45;&gt;Node21</title>
<path fill="none" stroke="midnightblue" d="M309.444,-342.305C263.405,-336.609 163.733,-322.031 138,-300 89.2067,-258.225 73.5917,-178.115 68.8903,-141.764"/>
<polygon fill="midnightblue" stroke="midnightblue" points="72.3413,-141.137 67.7191,-131.603 65.3873,-141.939 72.3413,-141.137"/>
</g>
<!-- Node24 -->
<g id="node24" class="node"><title>Node24</title>
<g id="a_node24"><a xlink:href="debug_8h.html" target="_top" xlink:title="debug.h">
<polygon fill="white" stroke="black" points="216.5,-224.5 216.5,-243.5 267.5,-243.5 267.5,-224.5 216.5,-224.5"/>
<text text-anchor="middle" x="242" y="-231.5" font-family="Helvetica,sans-Serif" font-size="10.00">debug.h</text>
</a>
</g>
</g>
<!-- Node2&#45;&gt;Node24 -->
<g id="edge41" class="edge"><title>Node2&#45;&gt;Node24</title>
<path fill="none" stroke="midnightblue" d="M325.859,-336.368C310.709,-318.055 275.131,-275.049 255.536,-251.362"/>
<polygon fill="midnightblue" stroke="midnightblue" points="258.179,-249.066 249.107,-243.591 252.785,-253.528 258.179,-249.066"/>
</g>
<!-- Node6&#45;&gt;Node4 -->
<g id="edge6" class="edge"><title>Node6&#45;&gt;Node4</title>
<path fill="none" stroke="midnightblue" d="M310.02,-168.496C291.584,-160.892 265.774,-148.417 247,-132 231.441,-118.395 218.367,-98.5129 210.181,-84.3248"/>
<polygon fill="midnightblue" stroke="midnightblue" points="213.233,-82.6103 205.325,-75.5591 207.11,-86.0026 213.233,-82.6103"/>
</g>
<!-- Node7 -->
<g id="node7" class="node"><title>Node7</title>
<polygon fill="white" stroke="#bfbfbf" points="256,-112.5 256,-131.5 306,-131.5 306,-112.5 256,-112.5"/>
<text text-anchor="middle" x="281" y="-119.5" font-family="Helvetica,sans-Serif" font-size="10.00">signal.h</text>
</g>
<!-- Node6&#45;&gt;Node7 -->
<g id="edge7" class="edge"><title>Node6&#45;&gt;Node7</title>
<path fill="none" stroke="midnightblue" d="M324.413,-168.083C316.841,-160.22 305.622,-148.569 296.486,-139.081"/>
<polygon fill="midnightblue" stroke="midnightblue" points="298.885,-136.527 289.427,-131.751 293.842,-141.382 298.885,-136.527"/>
</g>
<!-- Node8 -->
<g id="node8" class="node"><title>Node8</title>
<polygon fill="white" stroke="#bfbfbf" points="324,-112.5 324,-131.5 376,-131.5 376,-112.5 324,-112.5"/>
<text text-anchor="middle" x="350" y="-119.5" font-family="Helvetica,sans-Serif" font-size="10.00">assert.h</text>
</g>
<!-- Node6&#45;&gt;Node8 -->
<g id="edge8" class="edge"><title>Node6&#45;&gt;Node8</title>
<path fill="none" stroke="midnightblue" d="M335.807,-168.083C338.085,-160.849 341.371,-150.409 344.208,-141.397"/>
<polygon fill="midnightblue" stroke="midnightblue" points="347.581,-142.341 347.245,-131.751 340.904,-140.239 347.581,-142.341"/>
</g>
<!-- Node9 -->
<g id="node9" class="node"><title>Node9</title>
<polygon fill="white" stroke="#bfbfbf" points="394,-112.5 394,-131.5 448,-131.5 448,-112.5 394,-112.5"/>
<text text-anchor="middle" x="421" y="-119.5" font-family="Helvetica,sans-Serif" font-size="10.00">setjmp.h</text>
</g>
<!-- Node6&#45;&gt;Node9 -->
<g id="edge9" class="edge"><title>Node6&#45;&gt;Node9</title>
<path fill="none" stroke="midnightblue" d="M347.139,-168.324C360.866,-159.9 381.936,-146.971 398.064,-137.074"/>
<polygon fill="midnightblue" stroke="midnightblue" points="400.204,-139.868 406.896,-131.655 396.543,-133.902 400.204,-139.868"/>
</g>
<!-- Node10&#45;&gt;Node3 -->
<g id="edge11" class="edge"><title>Node10&#45;&gt;Node3</title>
<path fill="none" stroke="midnightblue" d="M641.857,-287.389C693.467,-282.154 823,-260.861 823,-179 823,-179 823,-179 823,-121 823,-88.4885 814.841,-51.3503 809.216,-29.6103"/>
<polygon fill="midnightblue" stroke="midnightblue" points="812.541,-28.498 806.562,-19.7514 805.782,-30.3175 812.541,-28.498"/>
</g>
<!-- Node10&#45;&gt;Node5 -->
<g id="edge12" class="edge"><title>Node10&#45;&gt;Node5</title>
<path fill="none" stroke="midnightblue" d="M621.193,-280.326C621.884,-242.848 623.074,-94.967 600,-56 591.763,-42.0894 577.342,-31.5772 563.984,-24.2256"/>
<polygon fill="midnightblue" stroke="midnightblue" points="565.493,-21.0664 554.995,-19.6381 562.311,-27.3013 565.493,-21.0664"/>
</g>
<!-- Node10&#45;&gt;Node6 -->
<g id="edge13" class="edge"><title>Node10&#45;&gt;Node6</title>
<path fill="none" stroke="midnightblue" d="M600.48,-288.264C560.675,-286.096 471.088,-277.56 405,-244 381.654,-232.145 360.107,-210.713 346.786,-195.71"/>
<polygon fill="midnightblue" stroke="midnightblue" points="349.112,-193.047 339.941,-187.741 343.802,-197.608 349.112,-193.047"/>
</g>
<!-- Node11 -->
<g id="node11" class="node"><title>Node11</title>
<g id="a_node11"><a xlink:href="sys__defs_8h.html" target="_top" xlink:title="Defines types and vars for system defined semantics. ">
<polygon fill="white" stroke="black" points="653.5,-168.5 653.5,-187.5 718.5,-187.5 718.5,-168.5 653.5,-168.5"/>
<text text-anchor="middle" x="686" y="-175.5" font-family="Helvetica,sans-Serif" font-size="10.00">sys_defs.h</text>
</a>
</g>
</g>
<!-- Node10&#45;&gt;Node11 -->
<g id="edge14" class="edge"><title>Node10&#45;&gt;Node11</title>
<path fill="none" stroke="midnightblue" d="M622.085,-280.446C624.033,-267.461 628.992,-242.349 640,-224 646.777,-212.704 657.069,-202.268 666.201,-194.295"/>
<polygon fill="midnightblue" stroke="midnightblue" points="668.67,-196.794 674.127,-187.712 664.198,-191.409 668.67,-196.794"/>
</g>
<!-- Node12 -->
<g id="node12" class="node"><title>Node12</title>
<g id="a_node12"><a xlink:href="ceptr__types_8h_source.html" target="_top" xlink:title="ceptr_types.h">
<polygon fill="white" stroke="black" points="648,-112.5 648,-131.5 724,-131.5 724,-112.5 648,-112.5"/>
<text text-anchor="middle" x="686" y="-119.5" font-family="Helvetica,sans-Serif" font-size="10.00">ceptr_types.h</text>
</a>
</g>
</g>
<!-- Node10&#45;&gt;Node12 -->
<g id="edge25" class="edge"><title>Node10&#45;&gt;Node12</title>
<path fill="none" stroke="midnightblue" d="M641.806,-286.97C667.112,-283.261 708.821,-272.872 728,-244 733.736,-235.365 741.571,-204.654 727,-168 722.443,-156.538 713.521,-146.175 705.16,-138.29"/>
<polygon fill="midnightblue" stroke="midnightblue" points="707.297,-135.51 697.476,-131.536 702.676,-140.767 707.297,-135.51"/>
</g>
<!-- Node17 -->
<g id="node17" class="node"><title>Node17</title>
<g id="a_node17"><a xlink:href="base__defs_8h.html" target="_top" xlink:title="auto&#45;generated system definitions ">
<polygon fill="white" stroke="black" points="649,-224.5 649,-243.5 719,-243.5 719,-224.5 649,-224.5"/>
<text text-anchor="middle" x="684" y="-231.5" font-family="Helvetica,sans-Serif" font-size="10.00">base_defs.h</text>
</a>
</g>
</g>
<!-- Node10&#45;&gt;Node17 -->
<g id="edge23" class="edge"><title>Node10&#45;&gt;Node17</title>
<path fill="none" stroke="midnightblue" d="M631.122,-280.324C640.526,-272.263 654.744,-260.077 666.069,-250.369"/>
<polygon fill="midnightblue" stroke="midnightblue" points="668.379,-252.999 673.694,-243.834 663.823,-247.684 668.379,-252.999"/>
</g>
<!-- Node10&#45;&gt;Node18 -->
<g id="edge26" class="edge"><title>Node10&#45;&gt;Node18</title>
<path fill="none" stroke="midnightblue" d="M600.466,-282.806C571.004,-273.917 516.241,-257.397 479.455,-246.299"/>
<polygon fill="midnightblue" stroke="midnightblue" points="480.176,-242.861 469.592,-243.324 478.155,-249.563 480.176,-242.861"/>
</g>
<!-- Node11&#45;&gt;Node12 -->
<g id="edge15" class="edge"><title>Node11&#45;&gt;Node12</title>
<path fill="none" stroke="midnightblue" d="M686,-168.083C686,-161.006 686,-150.861 686,-141.986"/>
<polygon fill="midnightblue" stroke="midnightblue" points="689.5,-141.751 686,-131.751 682.5,-141.751 689.5,-141.751"/>
</g>
<!-- Node12&#45;&gt;Node4 -->
<g id="edge17" class="edge"><title>Node12&#45;&gt;Node4</title>
<path fill="none" stroke="midnightblue" d="M647.943,-116.763C555.657,-106.488 321.167,-80.3794 234.158,-70.6918"/>
<polygon fill="midnightblue" stroke="midnightblue" points="234.387,-67.1958 224.061,-69.5676 233.612,-74.1528 234.387,-67.1958"/>
</g>
<!-- Node13 -->
<g id="node13" class="node"><title>Node13</title>
<polygon fill="white" stroke="#bfbfbf" points="542.5,-56.5 542.5,-75.5 591.5,-75.5 591.5,-56.5 542.5,-56.5"/>
<text text-anchor="middle" x="567" y="-63.5" font-family="Helvetica,sans-Serif" font-size="10.00">stdint.h</text>
</g>
<!-- Node12&#45;&gt;Node13 -->
<g id="edge16" class="edge"><title>Node12&#45;&gt;Node13</title>
<path fill="none" stroke="midnightblue" d="M667.144,-112.444C647.734,-103.636 617.27,-89.8116 595.035,-79.722"/>
<polygon fill="midnightblue" stroke="midnightblue" points="596.32,-76.4615 585.768,-75.5164 593.428,-82.836 596.32,-76.4615"/>
</g>
<!-- Node14 -->
<g id="node14" class="node"><title>Node14</title>
<g id="a_node14"><a xlink:href="uthash_8h_source.html" target="_top" xlink:title="uthash.h">
<polygon fill="white" stroke="black" points="648,-56.5 648,-75.5 702,-75.5 702,-56.5 648,-56.5"/>
<text text-anchor="middle" x="675" y="-63.5" font-family="Helvetica,sans-Serif" font-size="10.00">uthash.h</text>
</a>
</g>
</g>
<!-- Node12&#45;&gt;Node14 -->
<g id="edge18" class="edge"><title>Node12&#45;&gt;Node14</title>
<path fill="none" stroke="midnightblue" d="M684.184,-112.083C682.726,-104.927 680.629,-94.6353 678.807,-85.6911"/>
<polygon fill="midnightblue" stroke="midnightblue" points="682.208,-84.8512 676.783,-75.7511 675.349,-86.2485 682.208,-84.8512"/>
</g>
<!-- Node14&#45;&gt;Node3 -->
<g id="edge19" class="edge"><title>Node14&#45;&gt;Node3</title>
<path fill="none" stroke="midnightblue" d="M695.44,-56.4435C716.67,-47.5566 750.099,-33.5632 774.255,-23.4514"/>
<polygon fill="midnightblue" stroke="midnightblue" points="775.782,-26.6064 783.655,-19.5164 773.079,-20.1493 775.782,-26.6064"/>
</g>
<!-- Node14&#45;&gt;Node5 -->
<g id="edge21" class="edge"><title>Node14&#45;&gt;Node5</title>
<path fill="none" stroke="midnightblue" d="M652.5,-56.4435C628.923,-47.4776 591.678,-33.314 565.036,-23.1827"/>
<polygon fill="midnightblue" stroke="midnightblue" points="565.986,-19.7995 555.395,-19.5164 563.498,-26.3424 565.986,-19.7995"/>
</g>
<!-- Node15 -->
<g id="node15" class="node"><title>Node15</title>
<polygon fill="white" stroke="#bfbfbf" points="594,-0.5 594,-19.5 646,-19.5 646,-0.5 594,-0.5"/>
<text text-anchor="middle" x="620" y="-7.5" font-family="Helvetica,sans-Serif" font-size="10.00">stddef.h</text>
</g>
<!-- Node14&#45;&gt;Node15 -->
<g id="edge20" class="edge"><title>Node14&#45;&gt;Node15</title>
<path fill="none" stroke="midnightblue" d="M665.918,-56.083C657.829,-48.1409 645.805,-36.3354 636.09,-26.7973"/>
<polygon fill="midnightblue" stroke="midnightblue" points="638.501,-24.2595 628.913,-19.7511 633.597,-29.2545 638.501,-24.2595"/>
</g>
<!-- Node16 -->
<g id="node16" class="node"><title>Node16</title>
<polygon fill="white" stroke="#bfbfbf" points="664.5,-0.5 664.5,-19.5 723.5,-19.5 723.5,-0.5 664.5,-0.5"/>
<text text-anchor="middle" x="694" y="-7.5" font-family="Helvetica,sans-Serif" font-size="10.00">inttypes.h</text>
</g>
<!-- Node14&#45;&gt;Node16 -->
<g id="edge22" class="edge"><title>Node14&#45;&gt;Node16</title>
<path fill="none" stroke="midnightblue" d="M678.137,-56.083C680.683,-48.8486 684.356,-38.4087 687.527,-29.3968"/>
<polygon fill="midnightblue" stroke="midnightblue" points="690.903,-30.3459 690.921,-19.7511 684.3,-28.0225 690.903,-30.3459"/>
</g>
<!-- Node17&#45;&gt;Node11 -->
<g id="edge24" class="edge"><title>Node17&#45;&gt;Node11</title>
<path fill="none" stroke="midnightblue" d="M684.33,-224.083C684.592,-217.006 684.968,-206.861 685.297,-197.986"/>
<polygon fill="midnightblue" stroke="midnightblue" points="688.803,-197.874 685.676,-187.751 681.808,-197.615 688.803,-197.874"/>
</g>
<!-- Node18&#45;&gt;Node4 -->
<g id="edge27" class="edge"><title>Node18&#45;&gt;Node4</title>
<path fill="none" stroke="midnightblue" d="M434.1,-224.485C423.497,-211.968 406.977,-187.93 416,-168 426.001,-145.909 446.999,-154.091 457,-132 460.666,-123.902 462.715,-118.808 457,-112 428.954,-78.5942 297.284,-69.9799 234.485,-67.7642"/>
<polygon fill="midnightblue" stroke="midnightblue" points="234.417,-64.2603 224.311,-67.4403 234.194,-71.2568 234.417,-64.2603"/>
</g>
<!-- Node19 -->
<g id="node19" class="node"><title>Node19</title>
<polygon fill="white" stroke="#bfbfbf" points="425.5,-168.5 425.5,-187.5 482.5,-187.5 482.5,-168.5 425.5,-168.5"/>
<text text-anchor="middle" x="454" y="-175.5" font-family="Helvetica,sans-Serif" font-size="10.00">pthread.h</text>
</g>
<!-- Node18&#45;&gt;Node19 -->
<g id="edge28" class="edge"><title>Node18&#45;&gt;Node19</title>
<path fill="none" stroke="midnightblue" d="M443.982,-224.083C445.572,-216.927 447.859,-206.635 449.846,-197.691"/>
<polygon fill="midnightblue" stroke="midnightblue" points="453.303,-198.272 452.055,-187.751 446.469,-196.754 453.303,-198.272"/>
</g>
<!-- Node20&#45;&gt;Node3 -->
<g id="edge30" class="edge"><title>Node20&#45;&gt;Node3</title>
<path fill="none" stroke="midnightblue" d="M526.718,-224.426C543.684,-203.196 590.386,-147.348 639,-112 667.936,-90.96 680.255,-94.2968 711,-76 737.476,-60.2436 766.315,-39.4774 784.747,-25.7046"/>
<polygon fill="midnightblue" stroke="midnightblue" points="787.023,-28.3714 792.903,-19.5577 782.81,-22.7812 787.023,-28.3714"/>
</g>
<!-- Node20&#45;&gt;Node5 -->
<g id="edge31" class="edge"><title>Node20&#45;&gt;Node5</title>
<path fill="none" stroke="midnightblue" d="M520.51,-224.297C522.422,-191.633 529.202,-75.8661 531.89,-29.9573"/>
<polygon fill="midnightblue" stroke="midnightblue" points="535.389,-30.0713 532.48,-19.8837 528.401,-29.662 535.389,-30.0713"/>
</g>
<!-- Node20&#45;&gt;Node6 -->
<g id="edge32" class="edge"><title>Node20&#45;&gt;Node6</title>
<path fill="none" stroke="midnightblue" d="M494.78,-225.717C463.433,-216.665 409.571,-201.111 372.672,-190.456"/>
<polygon fill="midnightblue" stroke="midnightblue" points="373.325,-187.002 362.747,-187.59 371.383,-193.727 373.325,-187.002"/>
</g>
<!-- Node20&#45;&gt;Node11 -->
<g id="edge33" class="edge"><title>Node20&#45;&gt;Node11</title>
<path fill="none" stroke="midnightblue" d="M545.212,-224.799C573.12,-215.72 618.332,-201.012 649.971,-190.72"/>
<polygon fill="midnightblue" stroke="midnightblue" points="651.3,-193.969 659.727,-187.547 649.135,-187.312 651.3,-193.969"/>
</g>
<!-- Node20&#45;&gt;Node12 -->
<g id="edge34" class="edge"><title>Node20&#45;&gt;Node12</title>
<path fill="none" stroke="midnightblue" d="M533.026,-224.368C561.511,-205.492 629.583,-160.385 664.516,-137.237"/>
<polygon fill="midnightblue" stroke="midnightblue" points="666.632,-140.033 673.035,-131.591 662.765,-134.198 666.632,-140.033"/>
</g>
<!-- Node21&#45;&gt;Node4 -->
<g id="edge38" class="edge"><title>Node21&#45;&gt;Node4</title>
<path fill="none" stroke="midnightblue" d="M86.1989,-113.263C108.145,-104.419 144.368,-89.8218 170.257,-79.3891"/>
<polygon fill="midnightblue" stroke="midnightblue" points="171.654,-82.5994 179.621,-75.6152 169.038,-76.1067 171.654,-82.5994"/>
</g>
<!-- Node21&#45;&gt;Node13 -->
<g id="edge40" class="edge"><title>Node21&#45;&gt;Node13</title>
<path fill="none" stroke="midnightblue" d="M86.2942,-118.916C161.37,-110.808 434.655,-81.2932 532.149,-70.7639"/>
<polygon fill="midnightblue" stroke="midnightblue" points="532.787,-74.2155 542.353,-69.6619 532.035,-67.256 532.787,-74.2155"/>
</g>
<!-- Node22 -->
<g id="node22" class="node"><title>Node22</title>
<polygon fill="white" stroke="#bfbfbf" points="48.5,-56.5 48.5,-75.5 97.5,-75.5 97.5,-56.5 48.5,-56.5"/>
<text text-anchor="middle" x="73" y="-63.5" font-family="Helvetica,sans-Serif" font-size="10.00">ctype.h</text>
</g>
<!-- Node21&#45;&gt;Node22 -->
<g id="edge37" class="edge"><title>Node21&#45;&gt;Node22</title>
<path fill="none" stroke="midnightblue" d="M67.9908,-112.083C68.7859,-104.927 69.9294,-94.6353 70.9232,-85.6911"/>
<polygon fill="midnightblue" stroke="midnightblue" points="74.4018,-86.0765 72.0277,-75.7511 67.4447,-85.3034 74.4018,-86.0765"/>
</g>
<!-- Node23 -->
<g id="node23" class="node"><title>Node23</title>
<polygon fill="white" stroke="#bfbfbf" points="116,-56.5 116,-75.5 160,-75.5 160,-56.5 116,-56.5"/>
<text text-anchor="middle" x="138" y="-63.5" font-family="Helvetica,sans-Serif" font-size="10.00">time.h</text>
</g>
<!-- Node21&#45;&gt;Node23 -->
<g id="edge39" class="edge"><title>Node21&#45;&gt;Node23</title>
<path fill="none" stroke="midnightblue" d="M78.4074,-112.324C89.1088,-104.185 105.341,-91.8395 118.163,-82.0874"/>
<polygon fill="midnightblue" stroke="midnightblue" points="120.544,-84.6734 126.385,-75.8339 116.307,-79.1018 120.544,-84.6734"/>
</g>
<!-- Node24&#45;&gt;Node4 -->
<g id="edge42" class="edge"><title>Node24&#45;&gt;Node4</title>
<path fill="none" stroke="midnightblue" d="M239.796,-224.075C233.342,-197.945 214.389,-121.211 205.588,-85.577"/>
<polygon fill="midnightblue" stroke="midnightblue" points="208.912,-84.4371 203.116,-75.5681 202.116,-86.1156 208.912,-84.4371"/>
</g>
<!-- Node25&#45;&gt;Node10 -->
<g id="edge44" class="edge"><title>Node25&#45;&gt;Node10</title>
<path fill="none" stroke="midnightblue" d="M539.188,-504.313C540.104,-477.564 545.476,-394.701 577,-336 583.095,-324.65 592.909,-314.209 601.724,-306.248"/>
<polygon fill="midnightblue" stroke="midnightblue" points="604.079,-308.839 609.402,-299.679 599.528,-303.52 604.079,-308.839"/>
</g>
<!-- Node25&#45;&gt;Node20 -->
<g id="edge45" class="edge"><title>Node25&#45;&gt;Node20</title>
<path fill="none" stroke="midnightblue" d="M536.438,-504.249C531.251,-485.738 520,-441.179 520,-403 520,-403 520,-403 520,-345 520,-312.948 520,-275.643 520,-253.749"/>
<polygon fill="midnightblue" stroke="midnightblue" points="523.5,-253.558 520,-243.558 516.5,-253.558 523.5,-253.558"/>
</g>
<!-- Node26 -->
<g id="node26" class="node"><title>Node26</title>
<g id="a_node26"><a xlink:href="vmhost_8h.html" target="_top" xlink:title="vmhost implementation header file ">
<polygon fill="white" stroke="black" points="626.5,-448.5 626.5,-467.5 683.5,-467.5 683.5,-448.5 626.5,-448.5"/>
<text text-anchor="middle" x="655" y="-455.5" font-family="Helvetica,sans-Serif" font-size="10.00">vmhost.h</text>
</a>
</g>
</g>
<!-- Node25&#45;&gt;Node26 -->
<g id="edge46" class="edge"><title>Node25&#45;&gt;Node26</title>
<path fill="none" stroke="midnightblue" d="M557.381,-504.444C576.216,-495.675 605.731,-481.935 627.379,-471.858"/>
<polygon fill="midnightblue" stroke="midnightblue" points="629.117,-474.91 636.705,-467.516 626.162,-468.564 629.117,-474.91"/>
</g>
<!-- Node27 -->
<g id="node27" class="node"><title>Node27</title>
<g id="a_node27"><a xlink:href="receptor_8h.html" target="_top" xlink:title="receptor implementation header file ">
<polygon fill="white" stroke="black" points="665,-392.5 665,-411.5 725,-411.5 725,-392.5 665,-392.5"/>
<text text-anchor="middle" x="695" y="-399.5" font-family="Helvetica,sans-Serif" font-size="10.00">receptor.h</text>
</a>
</g>
</g>
<!-- Node26&#45;&gt;Node27 -->
<g id="edge47" class="edge"><title>Node26&#45;&gt;Node27</title>
<path fill="none" stroke="midnightblue" d="M661.605,-448.083C667.255,-440.455 675.545,-429.264 682.451,-419.941"/>
<polygon fill="midnightblue" stroke="midnightblue" points="685.378,-421.87 688.518,-411.751 679.753,-417.703 685.378,-421.87"/>
</g>
<!-- Node27&#45;&gt;Node10 -->
<g id="edge48" class="edge"><title>Node27&#45;&gt;Node10</title>
<path fill="none" stroke="midnightblue" d="M689.193,-392.368C676.981,-374.215 648.448,-331.802 632.43,-307.99"/>
<polygon fill="midnightblue" stroke="midnightblue" points="635.266,-305.935 626.78,-299.591 629.457,-309.842 635.266,-305.935"/>
</g>
<!-- Node28 -->
<g id="node28" class="node"><title>Node28</title>
<g id="a_node28"><a xlink:href="def_8h.html" target="_top" xlink:title="header file for symbol and structure definition functions ">
<polygon fill="white" stroke="black" points="772,-336.5 772,-355.5 810,-355.5 810,-336.5 772,-336.5"/>
<text text-anchor="middle" x="791" y="-343.5" font-family="Helvetica,sans-Serif" font-size="10.00">def.h</text>
</a>
</g>
</g>
<!-- Node27&#45;&gt;Node28 -->
<g id="edge49" class="edge"><title>Node27&#45;&gt;Node28</title>
<path fill="none" stroke="midnightblue" d="M710.424,-392.324C725.54,-383.822 748.815,-370.729 766.471,-360.797"/>
<polygon fill="midnightblue" stroke="midnightblue" points="768.614,-363.608 775.614,-355.655 765.183,-357.507 768.614,-363.608"/>
</g>
<!-- Node30 -->
<g id="node30" class="node"><title>Node30</title>
<g id="a_node30"><a xlink:href="label_8h.html" target="_top" xlink:title="Label tables map human readable text strings to parts of semantic trees. ">
<polygon fill="white" stroke="black" points="897.5,-280.5 897.5,-299.5 942.5,-299.5 942.5,-280.5 897.5,-280.5"/>
<text text-anchor="middle" x="920" y="-287.5" font-family="Helvetica,sans-Serif" font-size="10.00">label.h</text>
</a>
</g>
</g>
<!-- Node27&#45;&gt;Node30 -->
<g id="edge52" class="edge"><title>Node27&#45;&gt;Node30</title>
<path fill="none" stroke="midnightblue" d="M724.071,-392.484C749.692,-384.505 787.705,-371.504 819,-356 848.652,-341.31 880.353,-319.854 900.169,-305.666"/>
<polygon fill="midnightblue" stroke="midnightblue" points="902.344,-308.412 908.387,-299.709 898.236,-302.745 902.344,-308.412"/>
</g>
<!-- Node31 -->
<g id="node31" class="node"><title>Node31</title>
<g id="a_node31"><a xlink:href="process_8h.html" target="_top" xlink:title="processing header files ">
<polygon fill="white" stroke="black" points="694.5,-336.5 694.5,-355.5 753.5,-355.5 753.5,-336.5 694.5,-336.5"/>
<text text-anchor="middle" x="724" y="-343.5" font-family="Helvetica,sans-Serif" font-size="10.00">process.h</text>
</a>
</g>
</g>
<!-- Node27&#45;&gt;Node31 -->
<g id="edge54" class="edge"><title>Node27&#45;&gt;Node31</title>
<path fill="none" stroke="midnightblue" d="M699.789,-392.083C703.758,-384.691 709.525,-373.953 714.435,-364.811"/>
<polygon fill="midnightblue" stroke="midnightblue" points="717.653,-366.217 719.3,-355.751 711.486,-362.905 717.653,-366.217"/>
</g>
<!-- Node32 -->
<g id="node32" class="node"><title>Node32</title>
<g id="a_node32"><a xlink:href="scape_8h.html" target="_top" xlink:title="scape header files ">
<polygon fill="white" stroke="black" points="586.5,-336.5 586.5,-355.5 637.5,-355.5 637.5,-336.5 586.5,-336.5"/>
<text text-anchor="middle" x="612" y="-343.5" font-family="Helvetica,sans-Serif" font-size="10.00">scape.h</text>
</a>
</g>
</g>
<!-- Node27&#45;&gt;Node32 -->
<g id="edge56" class="edge"><title>Node27&#45;&gt;Node32</title>
<path fill="none" stroke="midnightblue" d="M681.665,-392.324C668.838,-383.979 649.215,-371.212 634.06,-361.352"/>
<polygon fill="midnightblue" stroke="midnightblue" points="635.593,-358.174 625.302,-355.655 631.776,-364.042 635.593,-358.174"/>
</g>
<!-- Node28&#45;&gt;Node10 -->
<g id="edge50" class="edge"><title>Node28&#45;&gt;Node10</title>
<path fill="none" stroke="midnightblue" d="M771.829,-338.91C742.508,-329.597 686.259,-311.729 651.353,-300.642"/>
<polygon fill="midnightblue" stroke="midnightblue" points="652.277,-297.263 641.687,-297.571 650.158,-303.934 652.277,-297.263"/>
</g>
<!-- Node29 -->
<g id="node29" class="node"><title>Node29</title>
<polygon fill="white" stroke="#bfbfbf" points="827,-280.5 827,-299.5 879,-299.5 879,-280.5 827,-280.5"/>
<text text-anchor="middle" x="853" y="-287.5" font-family="Helvetica,sans-Serif" font-size="10.00">stdarg.h</text>
</g>
<!-- Node28&#45;&gt;Node29 -->
<g id="edge51" class="edge"><title>Node28&#45;&gt;Node29</title>
<path fill="none" stroke="midnightblue" d="M800.961,-336.324C810.127,-328.341 823.937,-316.313 835.028,-306.653"/>
<polygon fill="midnightblue" stroke="midnightblue" points="837.615,-309.041 842.857,-299.834 833.018,-303.762 837.615,-309.041"/>
</g>
<!-- Node30&#45;&gt;Node12 -->
<g id="edge53" class="edge"><title>Node30&#45;&gt;Node12</title>
<path fill="none" stroke="midnightblue" d="M907.749,-280.309C869.761,-253.36 753.676,-171.01 706.379,-137.457"/>
<polygon fill="midnightblue" stroke="midnightblue" points="708.311,-134.536 698.13,-131.605 704.261,-140.246 708.311,-134.536"/>
</g>
<!-- Node31&#45;&gt;Node10 -->
<g id="edge55" class="edge"><title>Node31&#45;&gt;Node10</title>
<path fill="none" stroke="midnightblue" d="M707.451,-336.324C691.008,-327.703 665.565,-314.364 646.532,-304.386"/>
<polygon fill="midnightblue" stroke="midnightblue" points="647.989,-301.198 637.508,-299.655 644.739,-307.398 647.989,-301.198"/>
</g>
<!-- Node32&#45;&gt;Node10 -->
<g id="edge57" class="edge"><title>Node32&#45;&gt;Node10</title>
<path fill="none" stroke="midnightblue" d="M613.486,-336.083C614.679,-328.927 616.394,-318.635 617.885,-309.691"/>
<polygon fill="midnightblue" stroke="midnightblue" points="621.35,-310.19 619.541,-299.751 614.445,-309.04 621.35,-310.19"/>
</g>
</g>
</svg>
