<?xml version="1.0" encoding="UTF-8" standalone="no"?>
<!DOCTYPE svg PUBLIC "-//W3C//DTD SVG 1.1//EN"
 "http://www.w3.org/Graphics/SVG/1.1/DTD/svg11.dtd">
<!-- Generated by graphviz version 2.38.0 (20140413.2041)
 -->
<!-- Title: spec/ceptr_specs.c Pages: 1 -->
<!--zoomable 588 -->
<svg id="main" version="1.1" xmlns="http://www.w3.org/2000/svg" xmlns:xlink="http://www.w3.org/1999/xlink" xml:space="preserve" onload="init(evt)">
<style type="text/css"><![CDATA[
.edge:hover path { stroke: red; }
.edge:hover polygon { stroke: red; fill: red; }
]]></style>
<script type="text/javascript"><![CDATA[
var edges = document.getElementsByTagName('g');
if (edges && edges.length) {
  for (var i=0;i<edges.length;i++) {
    if (edges[i].id.substr(0,4)=='edge') {
      edges[i].setAttribute('class','edge');
    }
  }
}
]]></script>
        <defs>
                <circle id="rim" cx="0" cy="0" r="7"/>
                <circle id="rim2" cx="0" cy="0" r="3.5"/>
                <g id="zoomPlus">
                        <use xlink:href="#rim" fill="#404040">
                                <set attributeName="fill" to="#808080" begin="zoomplus.mouseover" end="zoomplus.mouseout"/>
                        </use>
                        <path d="M-4,0h8M0,-4v8" fill="none" stroke="white" stroke-width="1.5" pointer-events="none"/>
                </g>
                <g id="zoomMin">
                        <use xlink:href="#rim" fill="#404040">
                                <set attributeName="fill" to="#808080" begin="zoomminus.mouseover" end="zoomminus.mouseout"/>
                        </use>
                        <path d="M-4,0h8" fill="none" stroke="white" stroke-width="1.5" pointer-events="none"/>
                </g>
                <g id="dirArrow">
                        <path fill="none" stroke="white" stroke-width="1.5" d="M0,-3.0v7 M-2.5,-0.5L0,-3.0L2.5,-0.5"/>
                </g>
               <g id="resetDef">
                       <use xlink:href="#rim2" fill="#404040">
                               <set attributeName="fill" to="#808080" begin="reset.mouseover" end="reset.mouseout"/>
                       </use>
               </g>
        </defs>

<script type="text/javascript">
var viewWidth = 1151;
var viewHeight = 588;
var sectionId = 'dynsection-0';
</script>
<script xlink:href="svgpan.js"/>
<svg id="graph" class="graph">
<g id="viewport">
<title>spec/ceptr_specs.c</title>
<polygon fill="white" stroke="none" points="-4,4 -4,-584 1147.32,-584 1147.32,4 -4,4"/>
<!-- Node1 -->
<g id="node1" class="node"><title>Node1</title>
<polygon fill="#bfbfbf" stroke="black" points="385,-560.5 385,-579.5 487,-579.5 487,-560.5 385,-560.5"/>
<text text-anchor="middle" x="436" y="-567.5" font-family="Helvetica,sans-Serif" font-size="10.00">spec/ceptr_specs.c</text>
</g>
<!-- Node2 -->
<g id="node2" class="node"><title>Node2</title>
<g id="a_node2"><a xlink:href="ceptr_8h_source.html" target="_top" xlink:title="../src/ceptr.h">
<polygon fill="white" stroke="black" points="428,-392.5 428,-411.5 500,-411.5 500,-392.5 428,-392.5"/>
<text text-anchor="middle" x="464" y="-399.5" font-family="Helvetica,sans-Serif" font-size="10.00">../src/ceptr.h</text>
</a>
</g>
</g>
<!-- Node1&#45;&gt;Node2 -->
<g id="edge1" class="edge"><title>Node1&#45;&gt;Node2</title>
<path fill="none" stroke="midnightblue" d="M430.774,-560.247C424.009,-547.837 413.58,-524.369 418,-504 424.746,-472.912 441.924,-439.913 453.272,-420.399"/>
<polygon fill="midnightblue" stroke="midnightblue" points="456.323,-422.117 458.446,-411.737 450.313,-418.527 456.323,-422.117"/>
</g>
<!-- Node4 -->
<g id="node4" class="node"><title>Node4</title>
<polygon fill="white" stroke="#bfbfbf" points="238,-168.5 238,-187.5 284,-187.5 284,-168.5 238,-168.5"/>
<text text-anchor="middle" x="261" y="-175.5" font-family="Helvetica,sans-Serif" font-size="10.00">stdio.h</text>
</g>
<!-- Node1&#45;&gt;Node4 -->
<g id="edge27" class="edge"><title>Node1&#45;&gt;Node4</title>
<path fill="none" stroke="midnightblue" d="M384.997,-565.054C325.38,-557.37 229.363,-534.726 186,-468 170.843,-444.677 233.826,-257.302 254.573,-197.366"/>
<polygon fill="midnightblue" stroke="midnightblue" points="257.946,-198.321 257.927,-187.726 251.335,-196.021 257.946,-198.321"/>
</g>
<!-- Node7 -->
<g id="node7" class="node"><title>Node7</title>
<polygon fill="white" stroke="#bfbfbf" points="28,-168.5 28,-187.5 78,-187.5 78,-168.5 28,-168.5"/>
<text text-anchor="middle" x="53" y="-175.5" font-family="Helvetica,sans-Serif" font-size="10.00">signal.h</text>
</g>
<!-- Node1&#45;&gt;Node7 -->
<g id="edge28" class="edge"><title>Node1&#45;&gt;Node7</title>
<path fill="none" stroke="midnightblue" d="M384.857,-565.992C306.283,-560.684 160.11,-547.888 114,-524 78.8225,-505.776 53,-498.618 53,-459 53,-459 53,-459 53,-289 53,-256.948 53,-219.643 53,-197.749"/>
<polygon fill="midnightblue" stroke="midnightblue" points="56.5001,-197.558 53,-187.558 49.5001,-197.558 56.5001,-197.558"/>
</g>
<!-- Node8 -->
<g id="node8" class="node"><title>Node8</title>
<polygon fill="white" stroke="#bfbfbf" points="96,-168.5 96,-187.5 148,-187.5 148,-168.5 96,-168.5"/>
<text text-anchor="middle" x="122" y="-175.5" font-family="Helvetica,sans-Serif" font-size="10.00">assert.h</text>
</g>
<!-- Node1&#45;&gt;Node8 -->
<g id="edge29" class="edge"><title>Node1&#45;&gt;Node8</title>
<path fill="none" stroke="midnightblue" d="M384.99,-569.608C327.235,-568.34 231.727,-560.209 159,-524 121.574,-505.366 91,-500.808 91,-459 91,-459 91,-459 91,-289 91,-255.41 104.558,-218.14 113.741,-196.747"/>
<polygon fill="midnightblue" stroke="midnightblue" points="116.941,-198.165 117.819,-187.607 110.548,-195.313 116.941,-198.165"/>
</g>
<!-- Node9 -->
<g id="node9" class="node"><title>Node9</title>
<polygon fill="white" stroke="#bfbfbf" points="166,-168.5 166,-187.5 220,-187.5 220,-168.5 166,-168.5"/>
<text text-anchor="middle" x="193" y="-175.5" font-family="Helvetica,sans-Serif" font-size="10.00">setjmp.h</text>
</g>
<!-- Node1&#45;&gt;Node9 -->
<g id="edge81" class="edge"><title>Node1&#45;&gt;Node9</title>
<path fill="none" stroke="midnightblue" d="M384.695,-564.915C338.819,-559.794 270.6,-548.495 216,-524 171.962,-504.243 129,-507.267 129,-459 129,-459 129,-459 129,-289 129,-258.902 132.658,-249.894 148,-224 154.64,-212.793 164.71,-202.363 173.641,-194.372"/>
<polygon fill="midnightblue" stroke="midnightblue" points="176.051,-196.917 181.392,-187.767 171.51,-191.589 176.051,-196.917"/>
</g>
<!-- Node19 -->
<g id="node19" class="node"><title>Node19</title>
<g id="a_node19"><a xlink:href="test__framework_8h.html" target="_top" xlink:title="implements the testing harness ">
<polygon fill="white" stroke="black" points="427,-504.5 427,-523.5 519,-523.5 519,-504.5 427,-504.5"/>
<text text-anchor="middle" x="473" y="-511.5" font-family="Helvetica,sans-Serif" font-size="10.00">test_framework.h</text>
</a>
</g>
</g>
<!-- Node1&#45;&gt;Node19 -->
<g id="edge30" class="edge"><title>Node1&#45;&gt;Node19</title>
<path fill="none" stroke="midnightblue" d="M442.11,-560.083C447.282,-552.534 454.846,-541.495 461.194,-532.23"/>
<polygon fill="midnightblue" stroke="midnightblue" points="464.239,-533.979 467.004,-523.751 458.464,-530.022 464.239,-533.979"/>
</g>
<!-- Node20 -->
<g id="node20" class="node"><title>Node20</title>
<g id="a_node20"><a xlink:href="tree__spec_8h.html" target="_top" xlink:title="tree_spec.h">
<polygon fill="white" stroke="black" points="822,-504.5 822,-523.5 890,-523.5 890,-504.5 822,-504.5"/>
<text text-anchor="middle" x="856" y="-511.5" font-family="Helvetica,sans-Serif" font-size="10.00">tree_spec.h</text>
</a>
</g>
</g>
<!-- Node1&#45;&gt;Node20 -->
<g id="edge32" class="edge"><title>Node1&#45;&gt;Node20</title>
<path fill="none" stroke="midnightblue" d="M487.024,-562.778C556.172,-554.293 683.475,-538.489 792,-524 798.35,-523.152 805.051,-522.235 811.63,-521.321"/>
<polygon fill="midnightblue" stroke="midnightblue" points="812.382,-524.75 821.801,-519.899 811.413,-517.818 812.382,-524.75"/>
</g>
<!-- Node29 -->
<g id="node29" class="node"><title>Node29</title>
<g id="a_node29"><a xlink:href="def__spec_8h_source.html" target="_top" xlink:title="def_spec.h">
<polygon fill="white" stroke="black" points="1059.5,-448.5 1059.5,-467.5 1124.5,-467.5 1124.5,-448.5 1059.5,-448.5"/>
<text text-anchor="middle" x="1092" y="-455.5" font-family="Helvetica,sans-Serif" font-size="10.00">def_spec.h</text>
</a>
</g>
</g>
<!-- Node1&#45;&gt;Node29 -->
<g id="edge51" class="edge"><title>Node1&#45;&gt;Node29</title>
<path fill="none" stroke="midnightblue" d="M487.336,-568.918C610.259,-568.098 918.294,-562.174 1013,-524 1039.13,-513.467 1063.21,-491.031 1077.75,-475.487"/>
<polygon fill="midnightblue" stroke="midnightblue" points="1080.69,-477.448 1084.79,-467.68 1075.5,-472.758 1080.69,-477.448"/>
</g>
<!-- Node30 -->
<g id="node30" class="node"><title>Node30</title>
<g id="a_node30"><a xlink:href="label__spec_8h.html" target="_top" xlink:title="label_spec.h">
<polygon fill="white" stroke="black" points="195.5,-448.5 195.5,-467.5 266.5,-467.5 266.5,-448.5 195.5,-448.5"/>
<text text-anchor="middle" x="231" y="-455.5" font-family="Helvetica,sans-Serif" font-size="10.00">label_spec.h</text>
</a>
</g>
</g>
<!-- Node1&#45;&gt;Node30 -->
<g id="edge55" class="edge"><title>Node1&#45;&gt;Node30</title>
<path fill="none" stroke="midnightblue" d="M419.914,-560.368C384.287,-541.251 298.518,-495.229 255.9,-472.361"/>
<polygon fill="midnightblue" stroke="midnightblue" points="257.478,-469.236 247.011,-467.591 254.168,-475.404 257.478,-469.236"/>
</g>
<!-- Node31 -->
<g id="node31" class="node"><title>Node31</title>
<g id="a_node31"><a xlink:href="semtrex__spec_8h.html" target="_top" xlink:title="semtrex_spec.h">
<polygon fill="white" stroke="black" points="675,-448.5 675,-467.5 761,-467.5 761,-448.5 675,-448.5"/>
<text text-anchor="middle" x="718" y="-455.5" font-family="Helvetica,sans-Serif" font-size="10.00">semtrex_spec.h</text>
</a>
</g>
</g>
<!-- Node1&#45;&gt;Node31 -->
<g id="edge58" class="edge"><title>Node1&#45;&gt;Node31</title>
<path fill="none" stroke="midnightblue" d="M459.931,-560.433C484.592,-551.544 524.108,-537.131 558,-524 603.606,-506.331 656.056,-484.787 688.111,-471.481"/>
<polygon fill="midnightblue" stroke="midnightblue" points="689.484,-474.701 697.374,-467.63 686.796,-468.237 689.484,-474.701"/>
</g>
<!-- Node33 -->
<g id="node33" class="node"><title>Node33</title>
<g id="a_node33"><a xlink:href="receptor__spec_8h.html" target="_top" xlink:title="receptor_spec.h">
<polygon fill="white" stroke="black" points="918,-504.5 918,-523.5 1004,-523.5 1004,-504.5 918,-504.5"/>
<text text-anchor="middle" x="961" y="-511.5" font-family="Helvetica,sans-Serif" font-size="10.00">receptor_spec.h</text>
</a>
</g>
</g>
<!-- Node1&#45;&gt;Node33 -->
<g id="edge64" class="edge"><title>Node1&#45;&gt;Node33</title>
<path fill="none" stroke="midnightblue" d="M487.127,-564.826C572.557,-557.674 749.674,-542.085 899,-524 901.834,-523.657 904.739,-523.289 907.671,-522.906"/>
<polygon fill="midnightblue" stroke="midnightblue" points="908.233,-526.362 917.674,-521.556 907.296,-519.425 908.233,-526.362"/>
</g>
<!-- Node34 -->
<g id="node34" class="node"><title>Node34</title>
<g id="a_node34"><a xlink:href="process__spec_8h.html" target="_top" xlink:title="process_spec.h">
<polygon fill="white" stroke="black" points="285,-448.5 285,-467.5 371,-467.5 371,-448.5 285,-448.5"/>
<text text-anchor="middle" x="328" y="-455.5" font-family="Helvetica,sans-Serif" font-size="10.00">process_spec.h</text>
</a>
</g>
</g>
<!-- Node1&#45;&gt;Node34 -->
<g id="edge69" class="edge"><title>Node1&#45;&gt;Node34</title>
<path fill="none" stroke="midnightblue" d="M425.491,-560.406C414.926,-551.613 398.339,-537.38 385,-524 369.353,-508.305 352.793,-489.091 341.579,-475.639"/>
<polygon fill="midnightblue" stroke="midnightblue" points="344.111,-473.208 335.045,-467.726 338.713,-477.666 344.111,-473.208"/>
</g>
<!-- Node35 -->
<g id="node35" class="node"><title>Node35</title>
<g id="a_node35"><a xlink:href="scape__spec_8h.html" target="_top" xlink:title="scape_spec.h">
<polygon fill="white" stroke="black" points="579.5,-448.5 579.5,-467.5 656.5,-467.5 656.5,-448.5 579.5,-448.5"/>
<text text-anchor="middle" x="618" y="-455.5" font-family="Helvetica,sans-Serif" font-size="10.00">scape_spec.h</text>
</a>
</g>
</g>
<!-- Node1&#45;&gt;Node35 -->
<g id="edge72" class="edge"><title>Node1&#45;&gt;Node35</title>
<path fill="none" stroke="midnightblue" d="M455.894,-560.457C474.881,-552.029 504.06,-538.357 528,-524 553.853,-508.496 581.71,-487.674 599.473,-473.819"/>
<polygon fill="midnightblue" stroke="midnightblue" points="601.638,-476.569 607.328,-467.631 597.307,-471.07 601.638,-476.569"/>
</g>
<!-- Node36 -->
<g id="node36" class="node"><title>Node36</title>
<g id="a_node36"><a xlink:href="vmhost__spec_8h.html" target="_top" xlink:title="vmhost_spec.h">
<polygon fill="white" stroke="black" points="700.5,-504.5 700.5,-523.5 783.5,-523.5 783.5,-504.5 700.5,-504.5"/>
<text text-anchor="middle" x="742" y="-511.5" font-family="Helvetica,sans-Serif" font-size="10.00">vmhost_spec.h</text>
</a>
</g>
</g>
<!-- Node1&#45;&gt;Node36 -->
<g id="edge76" class="edge"><title>Node1&#45;&gt;Node36</title>
<path fill="none" stroke="midnightblue" d="M484.487,-560.444C540.606,-550.54 632.659,-534.295 690.163,-524.148"/>
<polygon fill="midnightblue" stroke="midnightblue" points="690.893,-527.573 700.132,-522.388 689.676,-520.68 690.893,-527.573"/>
</g>
<!-- Node3 -->
<g id="node3" class="node"><title>Node3</title>
<polygon fill="white" stroke="#bfbfbf" points="630.5,-0.5 630.5,-19.5 679.5,-19.5 679.5,-0.5 630.5,-0.5"/>
<text text-anchor="middle" x="655" y="-7.5" font-family="Helvetica,sans-Serif" font-size="10.00">string.h</text>
</g>
<!-- Node2&#45;&gt;Node3 -->
<g id="edge2" class="edge"><title>Node2&#45;&gt;Node3</title>
<path fill="none" stroke="midnightblue" d="M464.261,-392.443C464.804,-373.939 466,-328.819 466,-291 466,-291 466,-291 466,-121 466,-85.6166 566.2,-43.4426 620.685,-23.1254"/>
<polygon fill="midnightblue" stroke="midnightblue" points="622.114,-26.329 630.292,-19.5927 619.698,-19.7591 622.114,-26.329"/>
</g>
<!-- Node2&#45;&gt;Node4 -->
<g id="edge3" class="edge"><title>Node2&#45;&gt;Node4</title>
<path fill="none" stroke="midnightblue" d="M456.042,-392.297C425.603,-359.01 316.25,-239.421 276.004,-195.408"/>
<polygon fill="midnightblue" stroke="midnightblue" points="278.455,-192.902 269.123,-187.884 273.289,-197.625 278.455,-192.902"/>
</g>
<!-- Node5 -->
<g id="node5" class="node"><title>Node5</title>
<polygon fill="white" stroke="#bfbfbf" points="564,-0.5 564,-19.5 612,-19.5 612,-0.5 564,-0.5"/>
<text text-anchor="middle" x="588" y="-7.5" font-family="Helvetica,sans-Serif" font-size="10.00">stdlib.h</text>
</g>
<!-- Node2&#45;&gt;Node5 -->
<g id="edge4" class="edge"><title>Node2&#45;&gt;Node5</title>
<path fill="none" stroke="midnightblue" d="M427.977,-400.158C318.958,-396.645 0,-378.859 0,-291 0,-291 0,-291 0,-121 0,-64.2995 427.901,-24.2881 553.647,-13.7542"/>
<polygon fill="midnightblue" stroke="midnightblue" points="554.177,-17.2224 563.853,-12.9086 553.599,-10.2463 554.177,-17.2224"/>
</g>
<!-- Node6 -->
<g id="node6" class="node"><title>Node6</title>
<g id="a_node6"><a xlink:href="ceptr__error_8h_source.html" target="_top" xlink:title="ceptr_error.h">
<polygon fill="white" stroke="black" points="157.5,-224.5 157.5,-243.5 228.5,-243.5 228.5,-224.5 157.5,-224.5"/>
<text text-anchor="middle" x="193" y="-231.5" font-family="Helvetica,sans-Serif" font-size="10.00">ceptr_error.h</text>
</a>
</g>
</g>
<!-- Node2&#45;&gt;Node6 -->
<g id="edge5" class="edge"><title>Node2&#45;&gt;Node6</title>
<path fill="none" stroke="midnightblue" d="M432.424,-392.482C407.028,-384.908 370.935,-372.479 342,-356 288.698,-325.642 235.011,-276.381 209.052,-251.097"/>
<polygon fill="midnightblue" stroke="midnightblue" points="211.213,-248.312 201.634,-243.785 206.299,-253.297 211.213,-248.312"/>
</g>
<!-- Node10 -->
<g id="node10" class="node"><title>Node10</title>
<g id="a_node10"><a xlink:href="tree_8h.html" target="_top" xlink:title="semantic trees header file ">
<polygon fill="white" stroke="black" points="740.5,-280.5 740.5,-299.5 781.5,-299.5 781.5,-280.5 740.5,-280.5"/>
<text text-anchor="middle" x="761" y="-287.5" font-family="Helvetica,sans-Serif" font-size="10.00">tree.h</text>
</a>
</g>
</g>
<!-- Node2&#45;&gt;Node10 -->
<g id="edge10" class="edge"><title>Node2&#45;&gt;Node10</title>
<path fill="none" stroke="midnightblue" d="M500.212,-399.413C545.922,-396.16 625.95,-386.242 687,-356 711.047,-344.088 733.421,-322.353 747.136,-307.316"/>
<polygon fill="midnightblue" stroke="midnightblue" points="749.818,-309.565 753.82,-299.755 744.574,-304.929 749.818,-309.565"/>
</g>
<!-- Node6&#45;&gt;Node4 -->
<g id="edge6" class="edge"><title>Node6&#45;&gt;Node4</title>
<path fill="none" stroke="midnightblue" d="M203.925,-224.324C214.175,-216.185 229.721,-203.839 242.001,-194.087"/>
<polygon fill="midnightblue" stroke="midnightblue" points="244.221,-196.794 249.876,-187.834 239.868,-191.312 244.221,-196.794"/>
</g>
<!-- Node6&#45;&gt;Node7 -->
<g id="edge7" class="edge"><title>Node6&#45;&gt;Node7</title>
<path fill="none" stroke="midnightblue" d="M170.817,-224.444C147.572,-215.478 110.851,-201.314 84.5848,-191.183"/>
<polygon fill="midnightblue" stroke="midnightblue" points="85.6692,-187.85 75.0796,-187.516 83.1501,-194.381 85.6692,-187.85"/>
</g>
<!-- Node6&#45;&gt;Node8 -->
<g id="edge8" class="edge"><title>Node6&#45;&gt;Node8</title>
<path fill="none" stroke="midnightblue" d="M181.593,-224.324C170.891,-216.185 154.659,-203.839 141.837,-194.087"/>
<polygon fill="midnightblue" stroke="midnightblue" points="143.693,-191.102 133.615,-187.834 139.456,-196.673 143.693,-191.102"/>
</g>
<!-- Node6&#45;&gt;Node9 -->
<g id="edge9" class="edge"><title>Node6&#45;&gt;Node9</title>
<path fill="none" stroke="midnightblue" d="M193,-224.083C193,-217.006 193,-206.861 193,-197.986"/>
<polygon fill="midnightblue" stroke="midnightblue" points="196.5,-197.751 193,-187.751 189.5,-197.751 196.5,-197.751"/>
</g>
<!-- Node10&#45;&gt;Node3 -->
<g id="edge11" class="edge"><title>Node10&#45;&gt;Node3</title>
<path fill="none" stroke="midnightblue" d="M740.304,-285.064C717.635,-279.683 681.747,-267.839 661,-244 641.241,-221.296 642,-209.098 642,-179 642,-179 642,-179 642,-121 642,-88.5762 647.639,-51.1457 651.49,-29.3688"/>
<polygon fill="midnightblue" stroke="midnightblue" points="654.935,-29.9853 653.3,-19.5172 648.05,-28.7196 654.935,-29.9853"/>
</g>
<!-- Node10&#45;&gt;Node5 -->
<g id="edge12" class="edge"><title>Node10&#45;&gt;Node5</title>
<path fill="none" stroke="midnightblue" d="M740.475,-284.767C697.918,-274.662 604,-244.897 604,-179 604,-179 604,-179 604,-121 604,-88.6258 597.129,-51.4449 592.393,-29.6593"/>
<polygon fill="midnightblue" stroke="midnightblue" points="595.777,-28.7588 590.158,-19.7771 588.95,-30.3028 595.777,-28.7588"/>
</g>
<!-- Node10&#45;&gt;Node6 -->
<g id="edge13" class="edge"><title>Node10&#45;&gt;Node6</title>
<path fill="none" stroke="midnightblue" d="M740.449,-287.046C658.688,-279.273 355.295,-250.429 238.883,-239.362"/>
<polygon fill="midnightblue" stroke="midnightblue" points="239.152,-235.872 228.865,-238.41 238.489,-242.841 239.152,-235.872"/>
</g>
<!-- Node11 -->
<g id="node11" class="node"><title>Node11</title>
<g id="a_node11"><a xlink:href="sys__symbols_8h.html" target="_top" xlink:title="Defines hard&#45;coded system defined symbols. ">
<polygon fill="white" stroke="black" points="818.5,-224.5 818.5,-243.5 901.5,-243.5 901.5,-224.5 818.5,-224.5"/>
<text text-anchor="middle" x="860" y="-231.5" font-family="Helvetica,sans-Serif" font-size="10.00">sys_symbols.h</text>
</a>
</g>
</g>
<!-- Node10&#45;&gt;Node11 -->
<g id="edge14" class="edge"><title>Node10&#45;&gt;Node11</title>
<path fill="none" stroke="midnightblue" d="M776.906,-280.324C792.638,-271.743 816.942,-258.486 835.209,-248.522"/>
<polygon fill="midnightblue" stroke="midnightblue" points="837.03,-251.516 844.133,-243.655 833.678,-245.37 837.03,-251.516"/>
</g>
<!-- Node12 -->
<g id="node12" class="node"><title>Node12</title>
<g id="a_node12"><a xlink:href="sys__structures_8h.html" target="_top" xlink:title="Defines hard&#45;coded system defined structures. ">
<polygon fill="white" stroke="black" points="742.5,-168.5 742.5,-187.5 831.5,-187.5 831.5,-168.5 742.5,-168.5"/>
<text text-anchor="middle" x="787" y="-175.5" font-family="Helvetica,sans-Serif" font-size="10.00">sys_structures.h</text>
</a>
</g>
</g>
<!-- Node10&#45;&gt;Node12 -->
<g id="edge24" class="edge"><title>Node10&#45;&gt;Node12</title>
<path fill="none" stroke="midnightblue" d="M763.04,-280.368C767.236,-262.617 776.915,-221.666 782.604,-197.597"/>
<polygon fill="midnightblue" stroke="midnightblue" points="786.075,-198.128 784.969,-187.591 779.263,-196.518 786.075,-198.128"/>
</g>
<!-- Node13 -->
<g id="node13" class="node"><title>Node13</title>
<g id="a_node13"><a xlink:href="ceptr__types_8h_source.html" target="_top" xlink:title="ceptr_types.h">
<polygon fill="white" stroke="black" points="738,-112.5 738,-131.5 814,-131.5 814,-112.5 738,-112.5"/>
<text text-anchor="middle" x="776" y="-119.5" font-family="Helvetica,sans-Serif" font-size="10.00">ceptr_types.h</text>
</a>
</g>
</g>
<!-- Node10&#45;&gt;Node13 -->
<g id="edge26" class="edge"><title>Node10&#45;&gt;Node13</title>
<path fill="none" stroke="midnightblue" d="M781.608,-289.797C814.957,-289.823 880.035,-284.352 910,-244 944.426,-197.641 859.916,-155.345 809.818,-135.27"/>
<polygon fill="midnightblue" stroke="midnightblue" points="810.89,-131.932 800.302,-131.557 808.346,-138.453 810.89,-131.932"/>
</g>
<!-- Node18 -->
<g id="node18" class="node"><title>Node18</title>
<g id="a_node18"><a xlink:href="sys__processes_8h.html" target="_top" xlink:title="Defines hard&#45;coded system defined processes. ">
<polygon fill="white" stroke="black" points="670.5,-224.5 670.5,-243.5 761.5,-243.5 761.5,-224.5 670.5,-224.5"/>
<text text-anchor="middle" x="716" y="-231.5" font-family="Helvetica,sans-Serif" font-size="10.00">sys_processes.h</text>
</a>
</g>
</g>
<!-- Node10&#45;&gt;Node18 -->
<g id="edge25" class="edge"><title>Node10&#45;&gt;Node18</title>
<path fill="none" stroke="midnightblue" d="M753.569,-280.083C747.147,-272.377 737.694,-261.033 729.878,-251.653"/>
<polygon fill="midnightblue" stroke="midnightblue" points="732.383,-249.193 723.293,-243.751 727.006,-253.674 732.383,-249.193"/>
</g>
<!-- Node11&#45;&gt;Node12 -->
<g id="edge15" class="edge"><title>Node11&#45;&gt;Node12</title>
<path fill="none" stroke="midnightblue" d="M848.271,-224.324C837.163,-216.107 820.258,-203.602 807.017,-193.807"/>
<polygon fill="midnightblue" stroke="midnightblue" points="809.063,-190.967 798.942,-187.834 804.9,-196.595 809.063,-190.967"/>
</g>
<!-- Node11&#45;&gt;Node13 -->
<g id="edge23" class="edge"><title>Node11&#45;&gt;Node13</title>
<path fill="none" stroke="midnightblue" d="M859.118,-224.204C857.41,-210.904 852.629,-185.386 840,-168 830.493,-154.912 815.98,-144.263 803.177,-136.615"/>
<polygon fill="midnightblue" stroke="midnightblue" points="804.683,-133.446 794.253,-131.585 801.246,-139.544 804.683,-133.446"/>
</g>
<!-- Node12&#45;&gt;Node13 -->
<g id="edge16" class="edge"><title>Node12&#45;&gt;Node13</title>
<path fill="none" stroke="midnightblue" d="M785.184,-168.083C783.726,-160.927 781.629,-150.635 779.807,-141.691"/>
<polygon fill="midnightblue" stroke="midnightblue" points="783.208,-140.851 777.783,-131.751 776.349,-142.248 783.208,-140.851"/>
</g>
<!-- Node14 -->
<g id="node14" class="node"><title>Node14</title>
<polygon fill="white" stroke="#bfbfbf" points="670.5,-56.5 670.5,-75.5 719.5,-75.5 719.5,-56.5 670.5,-56.5"/>
<text text-anchor="middle" x="695" y="-63.5" font-family="Helvetica,sans-Serif" font-size="10.00">stdint.h</text>
</g>
<!-- Node13&#45;&gt;Node14 -->
<g id="edge17" class="edge"><title>Node13&#45;&gt;Node14</title>
<path fill="none" stroke="midnightblue" d="M762.986,-112.324C750.468,-103.979 731.318,-91.2122 716.529,-81.3524"/>
<polygon fill="midnightblue" stroke="midnightblue" points="718.244,-78.2894 707.982,-75.6545 714.361,-84.1137 718.244,-78.2894"/>
</g>
<!-- Node15 -->
<g id="node15" class="node"><title>Node15</title>
<g id="a_node15"><a xlink:href="uthash_8h_source.html" target="_top" xlink:title="uthash.h">
<polygon fill="white" stroke="black" points="738,-56.5 738,-75.5 792,-75.5 792,-56.5 738,-56.5"/>
<text text-anchor="middle" x="765" y="-63.5" font-family="Helvetica,sans-Serif" font-size="10.00">uthash.h</text>
</a>
</g>
</g>
<!-- Node13&#45;&gt;Node15 -->
<g id="edge18" class="edge"><title>Node13&#45;&gt;Node15</title>
<path fill="none" stroke="midnightblue" d="M774.184,-112.083C772.726,-104.927 770.629,-94.6353 768.807,-85.6911"/>
<polygon fill="midnightblue" stroke="midnightblue" points="772.208,-84.8512 766.783,-75.7511 765.349,-86.2485 772.208,-84.8512"/>
</g>
<!-- Node15&#45;&gt;Node3 -->
<g id="edge19" class="edge"><title>Node15&#45;&gt;Node3</title>
<path fill="none" stroke="midnightblue" d="M747.327,-56.324C729.606,-47.6247 702.097,-34.1202 681.712,-24.113"/>
<polygon fill="midnightblue" stroke="midnightblue" points="683.149,-20.9195 672.63,-19.6545 680.064,-27.2031 683.149,-20.9195"/>
</g>
<!-- Node15&#45;&gt;Node5 -->
<g id="edge21" class="edge"><title>Node15&#45;&gt;Node5</title>
<path fill="none" stroke="midnightblue" d="M737.732,-56.6808C706.622,-47.1897 655.712,-31.6578 622.028,-21.3816"/>
<polygon fill="midnightblue" stroke="midnightblue" points="622.755,-17.9441 612.169,-18.3736 620.713,-24.6395 622.755,-17.9441"/>
</g>
<!-- Node16 -->
<g id="node16" class="node"><title>Node16</title>
<polygon fill="white" stroke="#bfbfbf" points="725,-0.5 725,-19.5 777,-19.5 777,-0.5 725,-0.5"/>
<text text-anchor="middle" x="751" y="-7.5" font-family="Helvetica,sans-Serif" font-size="10.00">stddef.h</text>
</g>
<!-- Node15&#45;&gt;Node16 -->
<g id="edge20" class="edge"><title>Node15&#45;&gt;Node16</title>
<path fill="none" stroke="midnightblue" d="M762.688,-56.083C760.833,-48.9272 758.165,-38.6353 755.846,-29.6911"/>
<polygon fill="midnightblue" stroke="midnightblue" points="759.166,-28.5527 753.269,-19.7511 752.391,-30.3094 759.166,-28.5527"/>
</g>
<!-- Node17 -->
<g id="node17" class="node"><title>Node17</title>
<polygon fill="white" stroke="#bfbfbf" points="795.5,-0.5 795.5,-19.5 854.5,-19.5 854.5,-0.5 795.5,-0.5"/>
<text text-anchor="middle" x="825" y="-7.5" font-family="Helvetica,sans-Serif" font-size="10.00">inttypes.h</text>
</g>
<!-- Node15&#45;&gt;Node17 -->
<g id="edge22" class="edge"><title>Node15&#45;&gt;Node17</title>
<path fill="none" stroke="midnightblue" d="M774.64,-56.324C783.51,-48.3414 796.875,-36.3128 807.608,-26.6529"/>
<polygon fill="midnightblue" stroke="midnightblue" points="810.093,-29.1251 815.185,-19.8339 805.41,-23.922 810.093,-29.1251"/>
</g>
<!-- Node19&#45;&gt;Node2 -->
<g id="edge31" class="edge"><title>Node19&#45;&gt;Node2</title>
<path fill="none" stroke="midnightblue" d="M469.912,-504.173C466.948,-495.198 462.681,-480.827 461,-468 458.979,-452.579 460,-434.946 461.374,-421.94"/>
<polygon fill="midnightblue" stroke="midnightblue" points="464.866,-422.224 462.607,-411.873 457.918,-421.374 464.866,-422.224"/>
</g>
<!-- Node20&#45;&gt;Node2 -->
<g id="edge33" class="edge"><title>Node20&#45;&gt;Node2</title>
<path fill="none" stroke="midnightblue" d="M821.911,-508.207C739.732,-496.652 537.404,-468.187 537,-468 512.835,-456.806 490.864,-434.909 477.478,-419.638"/>
<polygon fill="midnightblue" stroke="midnightblue" points="480.098,-417.316 470.965,-411.946 474.756,-421.84 480.098,-417.316"/>
</g>
<!-- Node21 -->
<g id="node21" class="node"><title>Node21</title>
<g id="a_node21"><a xlink:href="receptor_8h.html" target="_top" xlink:title="receptor implementation header file ">
<polygon fill="white" stroke="black" points="760,-392.5 760,-411.5 846,-411.5 846,-392.5 760,-392.5"/>
<text text-anchor="middle" x="803" y="-399.5" font-family="Helvetica,sans-Serif" font-size="10.00">../src/receptor.h</text>
</a>
</g>
</g>
<!-- Node20&#45;&gt;Node21 -->
<g id="edge34" class="edge"><title>Node20&#45;&gt;Node21</title>
<path fill="none" stroke="midnightblue" d="M861.79,-504.07C869.443,-491.038 880.868,-466.363 871,-448 863.378,-433.815 849.103,-423.352 835.594,-416.103"/>
<polygon fill="midnightblue" stroke="midnightblue" points="836.97,-412.879 826.454,-411.592 833.872,-419.156 836.97,-412.879"/>
</g>
<!-- Node27 -->
<g id="node27" class="node"><title>Node27</title>
<g id="a_node27"><a xlink:href="http__example_8h.html" target="_top" xlink:title="http_example.h">
<polygon fill="white" stroke="black" points="919.5,-448.5 919.5,-467.5 1002.5,-467.5 1002.5,-448.5 919.5,-448.5"/>
<text text-anchor="middle" x="961" y="-455.5" font-family="Helvetica,sans-Serif" font-size="10.00">http_example.h</text>
</a>
</g>
</g>
<!-- Node20&#45;&gt;Node27 -->
<g id="edge45" class="edge"><title>Node20&#45;&gt;Node27</title>
<path fill="none" stroke="midnightblue" d="M872.87,-504.324C889.709,-495.664 915.807,-482.242 935.238,-472.249"/>
<polygon fill="midnightblue" stroke="midnightblue" points="936.88,-475.341 944.172,-467.655 933.678,-469.116 936.88,-475.341"/>
</g>
<!-- Node21&#45;&gt;Node10 -->
<g id="edge35" class="edge"><title>Node21&#45;&gt;Node10</title>
<path fill="none" stroke="midnightblue" d="M803.334,-392.231C803.516,-379.398 802.681,-354.97 795,-336 790.745,-325.492 783.384,-315.284 776.597,-307.254"/>
<polygon fill="midnightblue" stroke="midnightblue" points="779.163,-304.873 769.886,-299.754 773.946,-309.54 779.163,-304.873"/>
</g>
<!-- Node22 -->
<g id="node22" class="node"><title>Node22</title>
<g id="a_node22"><a xlink:href="def_8h.html" target="_top" xlink:title="header file for symbol and structure definition functions ">
<polygon fill="white" stroke="black" points="959,-336.5 959,-355.5 997,-355.5 997,-336.5 959,-336.5"/>
<text text-anchor="middle" x="978" y="-343.5" font-family="Helvetica,sans-Serif" font-size="10.00">def.h</text>
</a>
</g>
</g>
<!-- Node21&#45;&gt;Node22 -->
<g id="edge36" class="edge"><title>Node21&#45;&gt;Node22</title>
<path fill="none" stroke="midnightblue" d="M830.729,-392.444C862.994,-382.488 916.027,-366.123 948.876,-355.987"/>
<polygon fill="midnightblue" stroke="midnightblue" points="950.256,-359.224 958.78,-352.931 948.192,-352.535 950.256,-359.224"/>
</g>
<!-- Node24 -->
<g id="node24" class="node"><title>Node24</title>
<g id="a_node24"><a xlink:href="label_8h.html" target="_top" xlink:title="Label tables map human readable text strings to parts of semantic trees. ">
<polygon fill="white" stroke="black" points="556.5,-336.5 556.5,-355.5 601.5,-355.5 601.5,-336.5 556.5,-336.5"/>
<text text-anchor="middle" x="579" y="-343.5" font-family="Helvetica,sans-Serif" font-size="10.00">label.h</text>
</a>
</g>
</g>
<!-- Node21&#45;&gt;Node24 -->
<g id="edge39" class="edge"><title>Node21&#45;&gt;Node24</title>
<path fill="none" stroke="midnightblue" d="M763.666,-392.476C726.621,-384.304 669.363,-371.304 611.342,-356.258"/>
<polygon fill="midnightblue" stroke="midnightblue" points="612.208,-352.867 601.648,-353.727 610.439,-359.64 612.208,-352.867"/>
</g>
<!-- Node25 -->
<g id="node25" class="node"><title>Node25</title>
<g id="a_node25"><a xlink:href="process_8h.html" target="_top" xlink:title="processing header files ">
<polygon fill="white" stroke="black" points="619.5,-336.5 619.5,-355.5 678.5,-355.5 678.5,-336.5 619.5,-336.5"/>
<text text-anchor="middle" x="649" y="-343.5" font-family="Helvetica,sans-Serif" font-size="10.00">process.h</text>
</a>
</g>
</g>
<!-- Node21&#45;&gt;Node25 -->
<g id="edge41" class="edge"><title>Node21&#45;&gt;Node25</title>
<path fill="none" stroke="midnightblue" d="M778.598,-392.444C752.803,-383.399 711.923,-369.064 682.982,-358.916"/>
<polygon fill="midnightblue" stroke="midnightblue" points="683.882,-355.523 673.288,-355.516 681.566,-362.128 683.882,-355.523"/>
</g>
<!-- Node26 -->
<g id="node26" class="node"><title>Node26</title>
<g id="a_node26"><a xlink:href="scape_8h.html" target="_top" xlink:title="scape header files ">
<polygon fill="white" stroke="black" points="735.5,-336.5 735.5,-355.5 786.5,-355.5 786.5,-336.5 735.5,-336.5"/>
<text text-anchor="middle" x="761" y="-343.5" font-family="Helvetica,sans-Serif" font-size="10.00">scape.h</text>
</a>
</g>
</g>
<!-- Node21&#45;&gt;Node26 -->
<g id="edge43" class="edge"><title>Node21&#45;&gt;Node26</title>
<path fill="none" stroke="midnightblue" d="M796.065,-392.083C790.071,-384.377 781.248,-373.033 773.952,-363.653"/>
<polygon fill="midnightblue" stroke="midnightblue" points="776.709,-361.496 767.806,-355.751 771.183,-365.793 776.709,-361.496"/>
</g>
<!-- Node22&#45;&gt;Node10 -->
<g id="edge37" class="edge"><title>Node22&#45;&gt;Node10</title>
<path fill="none" stroke="midnightblue" d="M958.743,-340.208C921.02,-330.821 837.121,-309.942 791.675,-298.633"/>
<polygon fill="midnightblue" stroke="midnightblue" points="792.344,-295.193 781.795,-296.175 790.653,-301.986 792.344,-295.193"/>
</g>
<!-- Node23 -->
<g id="node23" class="node"><title>Node23</title>
<polygon fill="white" stroke="#bfbfbf" points="952,-280.5 952,-299.5 1004,-299.5 1004,-280.5 952,-280.5"/>
<text text-anchor="middle" x="978" y="-287.5" font-family="Helvetica,sans-Serif" font-size="10.00">stdarg.h</text>
</g>
<!-- Node22&#45;&gt;Node23 -->
<g id="edge38" class="edge"><title>Node22&#45;&gt;Node23</title>
<path fill="none" stroke="midnightblue" d="M978,-336.083C978,-329.006 978,-318.861 978,-309.986"/>
<polygon fill="midnightblue" stroke="midnightblue" points="981.5,-309.751 978,-299.751 974.5,-309.751 981.5,-309.751"/>
</g>
<!-- Node24&#45;&gt;Node13 -->
<g id="edge40" class="edge"><title>Node24&#45;&gt;Node13</title>
<path fill="none" stroke="midnightblue" d="M583.88,-336.251C595.639,-315.554 627.09,-262.441 661,-224 691.059,-189.925 732.272,-156.308 756.326,-137.74"/>
<polygon fill="midnightblue" stroke="midnightblue" points="758.535,-140.458 764.359,-131.608 754.287,-134.894 758.535,-140.458"/>
</g>
<!-- Node25&#45;&gt;Node10 -->
<g id="edge42" class="edge"><title>Node25&#45;&gt;Node10</title>
<path fill="none" stroke="midnightblue" d="M666.995,-336.324C685.038,-327.625 713.047,-314.12 733.803,-304.113"/>
<polygon fill="midnightblue" stroke="midnightblue" points="735.562,-307.15 743.05,-299.655 732.522,-300.845 735.562,-307.15"/>
</g>
<!-- Node26&#45;&gt;Node10 -->
<g id="edge44" class="edge"><title>Node26&#45;&gt;Node10</title>
<path fill="none" stroke="midnightblue" d="M761,-336.083C761,-329.006 761,-318.861 761,-309.986"/>
<polygon fill="midnightblue" stroke="midnightblue" points="764.5,-309.751 761,-299.751 757.5,-309.751 764.5,-309.751"/>
</g>
<!-- Node27&#45;&gt;Node2 -->
<g id="edge46" class="edge"><title>Node27&#45;&gt;Node2</title>
<path fill="none" stroke="midnightblue" d="M919.481,-452.489C827.416,-442.486 606.691,-418.504 510.325,-408.033"/>
<polygon fill="midnightblue" stroke="midnightblue" points="510.618,-404.545 500.299,-406.944 509.862,-411.504 510.618,-404.545"/>
</g>
<!-- Node27&#45;&gt;Node21 -->
<g id="edge47" class="edge"><title>Node27&#45;&gt;Node21</title>
<path fill="none" stroke="midnightblue" d="M935.964,-448.444C909.384,-439.359 867.191,-424.939 837.477,-414.783"/>
<polygon fill="midnightblue" stroke="midnightblue" points="838.513,-411.439 827.918,-411.516 836.249,-418.062 838.513,-411.439"/>
</g>
<!-- Node27&#45;&gt;Node22 -->
<g id="edge48" class="edge"><title>Node27&#45;&gt;Node22</title>
<path fill="none" stroke="midnightblue" d="M962.334,-448.368C965.077,-430.617 971.406,-389.666 975.126,-365.597"/>
<polygon fill="midnightblue" stroke="midnightblue" points="978.604,-366.009 976.672,-355.591 971.686,-364.94 978.604,-366.009"/>
</g>
<!-- Node28 -->
<g id="node28" class="node"><title>Node28</title>
<g id="a_node28"><a xlink:href="semtrex_8h.html" target="_top" xlink:title="Semantic tree regular expression header file. ">
<polygon fill="white" stroke="black" points="864,-392.5 864,-411.5 950,-411.5 950,-392.5 864,-392.5"/>
<text text-anchor="middle" x="907" y="-399.5" font-family="Helvetica,sans-Serif" font-size="10.00">../src/semtrex.h</text>
</a>
</g>
</g>
<!-- Node27&#45;&gt;Node28 -->
<g id="edge49" class="edge"><title>Node27&#45;&gt;Node28</title>
<path fill="none" stroke="midnightblue" d="M952.083,-448.083C944.22,-440.22 932.569,-428.569 923.081,-419.081"/>
<polygon fill="midnightblue" stroke="midnightblue" points="925.297,-416.347 915.751,-411.751 920.347,-421.297 925.297,-416.347"/>
</g>
<!-- Node28&#45;&gt;Node10 -->
<g id="edge50" class="edge"><title>Node28&#45;&gt;Node10</title>
<path fill="none" stroke="midnightblue" d="M895.544,-392.368C870.703,-373.653 811.637,-329.151 780.687,-305.832"/>
<polygon fill="midnightblue" stroke="midnightblue" points="782.496,-302.814 772.403,-299.591 778.284,-308.404 782.496,-302.814"/>
</g>
<!-- Node29&#45;&gt;Node2 -->
<g id="edge52" class="edge"><title>Node29&#45;&gt;Node2</title>
<path fill="none" stroke="midnightblue" d="M1059.31,-453.153C1044.56,-451.472 1026.91,-449.538 1011,-448 825.652,-430.083 604.524,-413.297 510.254,-406.357"/>
<polygon fill="midnightblue" stroke="midnightblue" points="510.425,-402.86 500.195,-405.618 509.912,-409.841 510.425,-402.86"/>
</g>
<!-- Node29&#45;&gt;Node22 -->
<g id="edge53" class="edge"><title>Node29&#45;&gt;Node22</title>
<path fill="none" stroke="midnightblue" d="M1083.05,-448.368C1063.91,-429.894 1018.72,-386.293 994.316,-362.744"/>
<polygon fill="midnightblue" stroke="midnightblue" points="996.53,-360.016 986.904,-355.591 991.67,-365.054 996.53,-360.016"/>
</g>
<!-- Node29&#45;&gt;Node28 -->
<g id="edge54" class="edge"><title>Node29&#45;&gt;Node28</title>
<path fill="none" stroke="midnightblue" d="M1062.69,-448.444C1031.16,-439.241 980.869,-424.562 946.014,-414.388"/>
<polygon fill="midnightblue" stroke="midnightblue" points="946.757,-410.959 936.177,-411.516 944.795,-417.678 946.757,-410.959"/>
</g>
<!-- Node30&#45;&gt;Node2 -->
<g id="edge57" class="edge"><title>Node30&#45;&gt;Node2</title>
<path fill="none" stroke="midnightblue" d="M266.641,-448.74C307.207,-439.338 373.584,-423.955 418.018,-413.657"/>
<polygon fill="midnightblue" stroke="midnightblue" points="419.028,-417.016 427.979,-411.348 417.447,-410.196 419.028,-417.016"/>
</g>
<!-- Node30&#45;&gt;Node24 -->
<g id="edge56" class="edge"><title>Node30&#45;&gt;Node24</title>
<path fill="none" stroke="midnightblue" d="M248.143,-448.321C275.591,-434.713 331.367,-408.238 381,-392 438.052,-373.334 506.81,-359.59 546.459,-352.479"/>
<polygon fill="midnightblue" stroke="midnightblue" points="547.122,-355.916 556.362,-350.732 545.906,-349.022 547.122,-355.916"/>
</g>
<!-- Node31&#45;&gt;Node2 -->
<g id="edge59" class="edge"><title>Node31&#45;&gt;Node2</title>
<path fill="none" stroke="midnightblue" d="M677.753,-448.444C632.175,-438.754 558.042,-422.993 510.155,-412.813"/>
<polygon fill="midnightblue" stroke="midnightblue" points="510.864,-409.385 500.355,-410.729 509.409,-416.232 510.864,-409.385"/>
</g>
<!-- Node31&#45;&gt;Node21 -->
<g id="edge63" class="edge"><title>Node31&#45;&gt;Node21</title>
<path fill="none" stroke="midnightblue" d="M731.657,-448.324C744.916,-439.9 765.268,-426.971 780.846,-417.074"/>
<polygon fill="midnightblue" stroke="midnightblue" points="782.813,-419.971 789.377,-411.655 779.06,-414.063 782.813,-419.971"/>
</g>
<!-- Node31&#45;&gt;Node28 -->
<g id="edge62" class="edge"><title>Node31&#45;&gt;Node28</title>
<path fill="none" stroke="midnightblue" d="M747.948,-448.444C780.158,-439.241 831.534,-424.562 867.142,-414.388"/>
<polygon fill="midnightblue" stroke="midnightblue" points="868.539,-417.629 877.192,-411.516 866.616,-410.898 868.539,-417.629"/>
</g>
<!-- Node32 -->
<g id="node32" class="node"><title>Node32</title>
<g id="a_node32"><a xlink:href="hashfn_8h_source.html" target="_top" xlink:title="../src/hashfn.h">
<polygon fill="white" stroke="black" points="495,-112.5 495,-131.5 575,-131.5 575,-112.5 495,-112.5"/>
<text text-anchor="middle" x="535" y="-119.5" font-family="Helvetica,sans-Serif" font-size="10.00">../src/hashfn.h</text>
</a>
</g>
</g>
<!-- Node31&#45;&gt;Node32 -->
<g id="edge60" class="edge"><title>Node31&#45;&gt;Node32</title>
<path fill="none" stroke="midnightblue" d="M693.161,-448.43C641.659,-429.901 528,-384.734 528,-347 528,-347 528,-347 528,-233 528,-200.883 531.009,-163.598 533.081,-141.726"/>
<polygon fill="midnightblue" stroke="midnightblue" points="536.587,-141.841 534.085,-131.546 529.62,-141.154 536.587,-141.841"/>
</g>
<!-- Node32&#45;&gt;Node14 -->
<g id="edge61" class="edge"><title>Node32&#45;&gt;Node14</title>
<path fill="none" stroke="midnightblue" d="M560.352,-112.444C587.428,-103.306 630.5,-88.7689 660.617,-78.6044"/>
<polygon fill="midnightblue" stroke="midnightblue" points="661.936,-81.8531 670.292,-75.339 659.698,-75.2206 661.936,-81.8531"/>
</g>
<!-- Node33&#45;&gt;Node2 -->
<g id="edge65" class="edge"><title>Node33&#45;&gt;Node2</title>
<path fill="none" stroke="midnightblue" d="M917.666,-506.511C911.408,-505.632 905.042,-504.769 899,-504 753.082,-485.432 709.18,-515.6 570,-468 568.86,-467.61 517.757,-436.151 486.933,-417.147"/>
<polygon fill="midnightblue" stroke="midnightblue" points="488.444,-413.967 478.095,-411.698 484.77,-419.926 488.444,-413.967"/>
</g>
<!-- Node33&#45;&gt;Node21 -->
<g id="edge66" class="edge"><title>Node33&#45;&gt;Node21</title>
<path fill="none" stroke="midnightblue" d="M975.858,-504.489C995.835,-491.977 1027.09,-467.945 1011,-448 1006.08,-441.901 916.299,-424.117 856.316,-412.818"/>
<polygon fill="midnightblue" stroke="midnightblue" points="856.701,-409.329 846.227,-410.925 855.41,-416.209 856.701,-409.329"/>
</g>
<!-- Node33&#45;&gt;Node22 -->
<g id="edge67" class="edge"><title>Node33&#45;&gt;Node22</title>
<path fill="none" stroke="midnightblue" d="M1004.27,-507.781C1050.18,-501.249 1118.24,-488.378 1134,-468 1174.95,-415.031 1062.58,-372.446 1007.02,-355.239"/>
<polygon fill="midnightblue" stroke="midnightblue" points="1007.95,-351.862 997.36,-352.325 1005.92,-358.564 1007.95,-351.862"/>
</g>
<!-- Node33&#45;&gt;Node27 -->
<g id="edge68" class="edge"><title>Node33&#45;&gt;Node27</title>
<path fill="none" stroke="midnightblue" d="M961,-504.083C961,-497.006 961,-486.861 961,-477.986"/>
<polygon fill="midnightblue" stroke="midnightblue" points="964.5,-477.751 961,-467.751 957.5,-477.751 964.5,-477.751"/>
</g>
<!-- Node34&#45;&gt;Node2 -->
<g id="edge70" class="edge"><title>Node34&#45;&gt;Node2</title>
<path fill="none" stroke="midnightblue" d="M349.55,-448.444C372.031,-439.517 407.488,-425.439 432.98,-415.317"/>
<polygon fill="midnightblue" stroke="midnightblue" points="434.549,-418.46 442.551,-411.516 431.965,-411.954 434.549,-418.46"/>
</g>
<!-- Node34&#45;&gt;Node25 -->
<g id="edge71" class="edge"><title>Node34&#45;&gt;Node25</title>
<path fill="none" stroke="midnightblue" d="M337.241,-448.257C352.797,-434.063 385.785,-406.171 419,-392 495.583,-359.325 523.433,-372.652 609.309,-356.006"/>
<polygon fill="midnightblue" stroke="midnightblue" points="610.108,-359.415 619.217,-354.004 608.722,-352.554 610.108,-359.415"/>
</g>
<!-- Node35&#45;&gt;Node2 -->
<g id="edge73" class="edge"><title>Node35&#45;&gt;Node2</title>
<path fill="none" stroke="midnightblue" d="M593.598,-448.444C567.803,-439.399 526.923,-425.064 497.982,-414.916"/>
<polygon fill="midnightblue" stroke="midnightblue" points="498.882,-411.523 488.288,-411.516 496.566,-418.128 498.882,-411.523"/>
</g>
<!-- Node35&#45;&gt;Node21 -->
<g id="edge75" class="edge"><title>Node35&#45;&gt;Node21</title>
<path fill="none" stroke="midnightblue" d="M647.314,-448.444C678.842,-439.241 729.131,-424.562 763.986,-414.388"/>
<polygon fill="midnightblue" stroke="midnightblue" points="765.205,-417.678 773.823,-411.516 763.243,-410.959 765.205,-417.678"/>
</g>
<!-- Node35&#45;&gt;Node26 -->
<g id="edge74" class="edge"><title>Node35&#45;&gt;Node26</title>
<path fill="none" stroke="midnightblue" d="M629.221,-448.368C653.551,-429.653 711.404,-385.151 741.718,-361.832"/>
<polygon fill="midnightblue" stroke="midnightblue" points="744.039,-364.463 749.831,-355.591 739.771,-358.914 744.039,-364.463"/>
</g>
<!-- Node36&#45;&gt;Node2 -->
<g id="edge77" class="edge"><title>Node36&#45;&gt;Node2</title>
<path fill="none" stroke="midnightblue" d="M700.483,-509.636C639.758,-504.006 530.505,-490.97 499,-468 483.499,-456.699 474.16,-436.394 469.076,-421.476"/>
<polygon fill="midnightblue" stroke="midnightblue" points="472.378,-420.305 466.099,-411.772 465.686,-422.359 472.378,-420.305"/>
</g>
<!-- Node36&#45;&gt;Node27 -->
<g id="edge80" class="edge"><title>Node36&#45;&gt;Node27</title>
<path fill="none" stroke="midnightblue" d="M776.701,-504.444C814.585,-495.102 875.349,-480.119 916.662,-469.933"/>
<polygon fill="midnightblue" stroke="midnightblue" points="917.59,-473.309 926.461,-467.516 915.914,-466.512 917.59,-473.309"/>
</g>
<!-- Node37 -->
<g id="node37" class="node"><title>Node37</title>
<g id="a_node37"><a xlink:href="vmhost_8h.html" target="_top" xlink:title="vmhost implementation header file ">
<polygon fill="white" stroke="black" points="779.5,-448.5 779.5,-467.5 862.5,-467.5 862.5,-448.5 779.5,-448.5"/>
<text text-anchor="middle" x="821" y="-455.5" font-family="Helvetica,sans-Serif" font-size="10.00">../src/vmhost.h</text>
</a>
</g>
</g>
<!-- Node36&#45;&gt;Node37 -->
<g id="edge78" class="edge"><title>Node36&#45;&gt;Node37</title>
<path fill="none" stroke="midnightblue" d="M754.693,-504.324C766.901,-495.979 785.578,-483.212 800.003,-473.352"/>
<polygon fill="midnightblue" stroke="midnightblue" points="802.058,-476.187 808.339,-467.655 798.108,-470.408 802.058,-476.187"/>
</g>
<!-- Node37&#45;&gt;Node21 -->
<g id="edge79" class="edge"><title>Node37&#45;&gt;Node21</title>
<path fill="none" stroke="midnightblue" d="M818.028,-448.083C815.616,-440.849 812.136,-430.409 809.132,-421.397"/>
<polygon fill="midnightblue" stroke="midnightblue" points="812.4,-420.131 805.917,-411.751 805.759,-422.345 812.4,-420.131"/>
</g>
</g>
</svg>
        <g id="navigator" transform="translate(0 0)" fill="#404254">
                <rect fill="#f2f5e9" fill-opacity="0.5" stroke="#606060" stroke-width=".5" x="0" y="0" width="60" height="60"/>
                <use id="zoomplus" xlink:href="#zoomPlus" x="17" y="9" onmousedown="handleZoom(evt,'in')"/>
                <use id="zoomminus" xlink:href="#zoomMin" x="42" y="9" onmousedown="handleZoom(evt,'out')"/>
                <use id="reset" xlink:href="#resetDef" x="30" y="36" onmousedown="handleReset()"/>
                <g id="arrowUp" xlink:href="#dirArrow" transform="translate(30 24)" onmousedown="handlePan(0,-1)">
                  <use xlink:href="#rim" fill="#404040">
                        <set attributeName="fill" to="#808080" begin="arrowUp.mouseover" end="arrowUp.mouseout"/>
                  </use>
                  <path fill="none" stroke="white" stroke-width="1.5" d="M0,-3.0v7 M-2.5,-0.5L0,-3.0L2.5,-0.5"/>
                </g>
                <g id="arrowRight" xlink:href="#dirArrow" transform="rotate(90) translate(36 -43)" onmousedown="handlePan(1,0)">
                  <use xlink:href="#rim" fill="#404040">
                        <set attributeName="fill" to="#808080" begin="arrowRight.mouseover" end="arrowRight.mouseout"/>
                  </use>
                  <path fill="none" stroke="white" stroke-width="1.5" d="M0,-3.0v7 M-2.5,-0.5L0,-3.0L2.5,-0.5"/>
                </g>
                <g id="arrowDown" xlink:href="#dirArrow" transform="rotate(180) translate(-30 -48)" onmousedown="handlePan(0,1)">
                  <use xlink:href="#rim" fill="#404040">
                        <set attributeName="fill" to="#808080" begin="arrowDown.mouseover" end="arrowDown.mouseout"/>
                  </use>
                  <path fill="none" stroke="white" stroke-width="1.5" d="M0,-3.0v7 M-2.5,-0.5L0,-3.0L2.5,-0.5"/>
                </g>
                <g id="arrowLeft" xlink:href="#dirArrow" transform="rotate(270) translate(-36 17)" onmousedown="handlePan(-1,0)">
                  <use xlink:href="#rim" fill="#404040">
                        <set attributeName="fill" to="#808080" begin="arrowLeft.mouseover" end="arrowLeft.mouseout"/>
                  </use>
                  <path fill="none" stroke="white" stroke-width="1.5" d="M0,-3.0v7 M-2.5,-0.5L0,-3.0L2.5,-0.5"/>
                </g>
        </g>
        <svg viewBox="0 0 15 15" width="100%" height="30px" preserveAspectRatio="xMaxYMin meet">
         <g id="arrow_out" transform="scale(0.3 0.3)">
          <a xlink:href="ceptr__specs_8c__incl_org.svg" target="_base">
           <rect id="button" ry="5" rx="5" y="6" x="6" height="38" width="38"
                fill="#f2f5e9" fill-opacity="0.5" stroke="#606060" stroke-width="1.0"/>
           <path id="arrow"
             d="M 11.500037,31.436501 C 11.940474,20.09759 22.043105,11.32322 32.158766,21.979434 L 37.068811,17.246167 C 37.068811,17.246167 37.088388,32 37.088388,32 L 22.160133,31.978069 C 22.160133,31.978069 26.997745,27.140456 26.997745,27.140456 C 18.528582,18.264221 13.291696,25.230495 11.500037,31.436501 z"
             style="fill:#404040;"/>
          </a>
         </g>
        </svg>
</svg>
