<?xml version="1.0" encoding="UTF-8" standalone="no"?>
<!DOCTYPE svg PUBLIC "-//W3C//DTD SVG 1.1//EN"
 "http://www.w3.org/Graphics/SVG/1.1/DTD/svg11.dtd">
<!-- Generated by graphviz version 2.38.0 (20140413.2041)
 -->
<!-- Title: src/de.h Pages: 1 -->
<svg width="552pt" height="532pt"
 viewBox="0.00 0.00 551.50 532.00" xmlns="http://www.w3.org/2000/svg" xmlns:xlink="http://www.w3.org/1999/xlink">
<g id="graph0" class="graph" transform="scale(1 1) rotate(0) translate(4 528)">
<title>src/de.h</title>
<polygon fill="white" stroke="none" points="-4,4 -4,-528 547.501,-528 547.501,4 -4,4"/>
<!-- Node1 -->
<g id="node1" class="node"><title>Node1</title>
<polygon fill="#bfbfbf" stroke="black" points="277.501,-504.5 277.501,-523.5 329.501,-523.5 329.501,-504.5 277.501,-504.5"/>
<text text-anchor="middle" x="303.501" y="-511.5" font-family="Helvetica,sans-Serif" font-size="10.00">src/de.h</text>
</g>
<!-- Node2 -->
<g id="node2" class="node"><title>Node2</title>
<g id="a_node2"><a xlink:href="tree_8h.html" target="_top" xlink:title="semantic trees header file ">
<polygon fill="white" stroke="black" points="248.001,-280.5 248.001,-299.5 289.001,-299.5 289.001,-280.5 248.001,-280.5"/>
<text text-anchor="middle" x="268.501" y="-287.5" font-family="Helvetica,sans-Serif" font-size="10.00">tree.h</text>
</a>
</g>
</g>
<!-- Node1&#45;&gt;Node2 -->
<g id="edge1" class="edge"><title>Node1&#45;&gt;Node2</title>
<path fill="none" stroke="midnightblue" d="M305.93,-504.148C312.753,-477.605 330.169,-396.765 307.501,-336 303.328,-324.812 294.982,-314.56 287.077,-306.676"/>
<polygon fill="midnightblue" stroke="midnightblue" points="289.202,-303.872 279.491,-299.635 284.44,-309.003 289.202,-303.872"/>
</g>
<!-- Node18 -->
<g id="node18" class="node"><title>Node18</title>
<g id="a_node18"><a xlink:href="vmhost_8h.html" target="_top" xlink:title="vmhost implementation header file ">
<polygon fill="white" stroke="black" points="229.001,-448.5 229.001,-467.5 286.001,-467.5 286.001,-448.5 229.001,-448.5"/>
<text text-anchor="middle" x="257.501" y="-455.5" font-family="Helvetica,sans-Serif" font-size="10.00">vmhost.h</text>
</a>
</g>
</g>
<!-- Node1&#45;&gt;Node18 -->
<g id="edge22" class="edge"><title>Node1&#45;&gt;Node18</title>
<path fill="none" stroke="midnightblue" d="M295.905,-504.083C289.274,-496.298 279.48,-484.801 271.443,-475.367"/>
<polygon fill="midnightblue" stroke="midnightblue" points="274.105,-473.094 264.956,-467.751 268.776,-477.633 274.105,-473.094"/>
</g>
<!-- Node3 -->
<g id="node3" class="node"><title>Node3</title>
<polygon fill="white" stroke="#bfbfbf" points="428.001,-0.5 428.001,-19.5 477.001,-19.5 477.001,-0.5 428.001,-0.5"/>
<text text-anchor="middle" x="452.501" y="-7.5" font-family="Helvetica,sans-Serif" font-size="10.00">string.h</text>
</g>
<!-- Node2&#45;&gt;Node3 -->
<g id="edge2" class="edge"><title>Node2&#45;&gt;Node3</title>
<path fill="none" stroke="midnightblue" d="M289.312,-287.892C342.909,-283.81 481.501,-264.944 481.501,-179 481.501,-179 481.501,-179 481.501,-121 481.501,-87.7163 468.933,-50.5837 460.345,-29.0939"/>
<polygon fill="midnightblue" stroke="midnightblue" points="463.483,-27.5254 456.412,-19.6354 457.02,-30.2128 463.483,-27.5254"/>
</g>
<!-- Node4 -->
<g id="node4" class="node"><title>Node4</title>
<polygon fill="white" stroke="#bfbfbf" points="495.501,-0.5 495.501,-19.5 543.501,-19.5 543.501,-0.5 495.501,-0.5"/>
<text text-anchor="middle" x="519.501" y="-7.5" font-family="Helvetica,sans-Serif" font-size="10.00">stdlib.h</text>
</g>
<!-- Node2&#45;&gt;Node4 -->
<g id="edge3" class="edge"><title>Node2&#45;&gt;Node4</title>
<path fill="none" stroke="midnightblue" d="M289.042,-289.304C348.988,-289.02 519.501,-279.388 519.501,-179 519.501,-179 519.501,-179 519.501,-121 519.501,-88.948 519.501,-51.6426 519.501,-29.7489"/>
<polygon fill="midnightblue" stroke="midnightblue" points="523.001,-29.5577 519.501,-19.5578 516.001,-29.5578 523.001,-29.5577"/>
</g>
<!-- Node5 -->
<g id="node5" class="node"><title>Node5</title>
<g id="a_node5"><a xlink:href="ceptr__error_8h_source.html" target="_top" xlink:title="ceptr_error.h">
<polygon fill="white" stroke="black" points="244.001,-224.5 244.001,-243.5 315.001,-243.5 315.001,-224.5 244.001,-224.5"/>
<text text-anchor="middle" x="279.501" y="-231.5" font-family="Helvetica,sans-Serif" font-size="10.00">ceptr_error.h</text>
</a>
</g>
</g>
<!-- Node2&#45;&gt;Node5 -->
<g id="edge4" class="edge"><title>Node2&#45;&gt;Node5</title>
<path fill="none" stroke="midnightblue" d="M270.318,-280.083C271.775,-272.927 273.872,-262.635 275.694,-253.691"/>
<polygon fill="midnightblue" stroke="midnightblue" points="279.152,-254.248 277.719,-243.751 272.293,-252.851 279.152,-254.248"/>
</g>
<!-- Node10 -->
<g id="node10" class="node"><title>Node10</title>
<g id="a_node10"><a xlink:href="sys__symbols_8h.html" target="_top" xlink:title="Defines hard&#45;coded system defined symbols. ">
<polygon fill="white" stroke="black" points="128.001,-224.5 128.001,-243.5 211.001,-243.5 211.001,-224.5 128.001,-224.5"/>
<text text-anchor="middle" x="169.501" y="-231.5" font-family="Helvetica,sans-Serif" font-size="10.00">sys_symbols.h</text>
</a>
</g>
</g>
<!-- Node2&#45;&gt;Node10 -->
<g id="edge9" class="edge"><title>Node2&#45;&gt;Node10</title>
<path fill="none" stroke="midnightblue" d="M252.595,-280.324C236.863,-271.743 212.559,-258.486 194.292,-248.522"/>
<polygon fill="midnightblue" stroke="midnightblue" points="195.823,-245.37 185.368,-243.655 192.471,-251.516 195.823,-245.37"/>
</g>
<!-- Node11 -->
<g id="node11" class="node"><title>Node11</title>
<g id="a_node11"><a xlink:href="sys__structures_8h.html" target="_top" xlink:title="Defines hard&#45;coded system defined structures. ">
<polygon fill="white" stroke="black" points="52.0012,-168.5 52.0012,-187.5 141.001,-187.5 141.001,-168.5 52.0012,-168.5"/>
<text text-anchor="middle" x="96.5012" y="-175.5" font-family="Helvetica,sans-Serif" font-size="10.00">sys_structures.h</text>
</a>
</g>
</g>
<!-- Node2&#45;&gt;Node11 -->
<g id="edge19" class="edge"><title>Node2&#45;&gt;Node11</title>
<path fill="none" stroke="midnightblue" d="M247.859,-288.556C215.898,-286.751 154.389,-278.657 118.501,-244 106.059,-231.984 100.653,-212.691 98.305,-198.239"/>
<polygon fill="midnightblue" stroke="midnightblue" points="101.727,-197.401 97.0011,-187.919 94.7822,-198.279 101.727,-197.401"/>
</g>
<!-- Node12 -->
<g id="node12" class="node"><title>Node12</title>
<g id="a_node12"><a xlink:href="ceptr__types_8h_source.html" target="_top" xlink:title="ceptr_types.h">
<polygon fill="white" stroke="black" points="58.5012,-112.5 58.5012,-131.5 134.501,-131.5 134.501,-112.5 58.5012,-112.5"/>
<text text-anchor="middle" x="96.5012" y="-119.5" font-family="Helvetica,sans-Serif" font-size="10.00">ceptr_types.h</text>
</a>
</g>
</g>
<!-- Node2&#45;&gt;Node12 -->
<g id="edge21" class="edge"><title>Node2&#45;&gt;Node12</title>
<path fill="none" stroke="midnightblue" d="M247.879,-288.113C198.868,-284.699 76.9352,-268.158 42.5012,-188 33.8425,-167.844 53.7227,-149.057 71.7565,-136.918"/>
<polygon fill="midnightblue" stroke="midnightblue" points="73.7344,-139.808 80.328,-131.515 70.0019,-133.886 73.7344,-139.808"/>
</g>
<!-- Node17 -->
<g id="node17" class="node"><title>Node17</title>
<g id="a_node17"><a xlink:href="sys__processes_8h.html" target="_top" xlink:title="Defines hard&#45;coded system defined processes. ">
<polygon fill="white" stroke="black" points="333.001,-224.5 333.001,-243.5 424.001,-243.5 424.001,-224.5 333.001,-224.5"/>
<text text-anchor="middle" x="378.501" y="-231.5" font-family="Helvetica,sans-Serif" font-size="10.00">sys_processes.h</text>
</a>
</g>
</g>
<!-- Node2&#45;&gt;Node17 -->
<g id="edge20" class="edge"><title>Node2&#45;&gt;Node17</title>
<path fill="none" stroke="midnightblue" d="M286.175,-280.324C303.895,-271.625 331.404,-258.12 351.79,-248.113"/>
<polygon fill="midnightblue" stroke="midnightblue" points="353.437,-251.203 360.872,-243.655 350.353,-244.919 353.437,-251.203"/>
</g>
<!-- Node6 -->
<g id="node6" class="node"><title>Node6</title>
<polygon fill="white" stroke="#bfbfbf" points="339.501,-168.5 339.501,-187.5 385.501,-187.5 385.501,-168.5 339.501,-168.5"/>
<text text-anchor="middle" x="362.501" y="-175.5" font-family="Helvetica,sans-Serif" font-size="10.00">stdio.h</text>
</g>
<!-- Node5&#45;&gt;Node6 -->
<g id="edge5" class="edge"><title>Node5&#45;&gt;Node6</title>
<path fill="none" stroke="midnightblue" d="M292.837,-224.324C305.663,-215.979 325.286,-203.212 340.441,-193.352"/>
<polygon fill="midnightblue" stroke="midnightblue" points="342.725,-196.042 349.199,-187.655 338.908,-190.174 342.725,-196.042"/>
</g>
<!-- Node7 -->
<g id="node7" class="node"><title>Node7</title>
<polygon fill="white" stroke="#bfbfbf" points="403.501,-168.5 403.501,-187.5 453.501,-187.5 453.501,-168.5 403.501,-168.5"/>
<text text-anchor="middle" x="428.501" y="-175.5" font-family="Helvetica,sans-Serif" font-size="10.00">signal.h</text>
</g>
<!-- Node5&#45;&gt;Node7 -->
<g id="edge6" class="edge"><title>Node5&#45;&gt;Node7</title>
<path fill="none" stroke="midnightblue" d="M303.111,-224.444C327.959,-215.438 367.276,-201.189 395.255,-191.049"/>
<polygon fill="midnightblue" stroke="midnightblue" points="396.793,-194.214 405.002,-187.516 394.408,-187.633 396.793,-194.214"/>
</g>
<!-- Node8 -->
<g id="node8" class="node"><title>Node8</title>
<polygon fill="white" stroke="#bfbfbf" points="197.501,-168.5 197.501,-187.5 249.501,-187.5 249.501,-168.5 197.501,-168.5"/>
<text text-anchor="middle" x="223.501" y="-175.5" font-family="Helvetica,sans-Serif" font-size="10.00">assert.h</text>
</g>
<!-- Node5&#45;&gt;Node8 -->
<g id="edge7" class="edge"><title>Node5&#45;&gt;Node8</title>
<path fill="none" stroke="midnightblue" d="M270.504,-224.324C262.307,-216.42 249.996,-204.548 240.029,-194.938"/>
<polygon fill="midnightblue" stroke="midnightblue" points="242.29,-192.256 232.662,-187.834 237.431,-197.295 242.29,-192.256"/>
</g>
<!-- Node9 -->
<g id="node9" class="node"><title>Node9</title>
<polygon fill="white" stroke="#bfbfbf" points="267.501,-168.5 267.501,-187.5 321.501,-187.5 321.501,-168.5 267.501,-168.5"/>
<text text-anchor="middle" x="294.501" y="-175.5" font-family="Helvetica,sans-Serif" font-size="10.00">setjmp.h</text>
</g>
<!-- Node5&#45;&gt;Node9 -->
<g id="edge8" class="edge"><title>Node5&#45;&gt;Node9</title>
<path fill="none" stroke="midnightblue" d="M281.978,-224.083C283.988,-216.849 286.888,-206.409 289.391,-197.397"/>
<polygon fill="midnightblue" stroke="midnightblue" points="292.766,-198.323 292.07,-187.751 286.022,-196.449 292.766,-198.323"/>
</g>
<!-- Node10&#45;&gt;Node11 -->
<g id="edge10" class="edge"><title>Node10&#45;&gt;Node11</title>
<path fill="none" stroke="midnightblue" d="M157.772,-224.324C146.664,-216.107 129.759,-203.602 116.518,-193.807"/>
<polygon fill="midnightblue" stroke="midnightblue" points="118.564,-190.967 108.443,-187.834 114.401,-196.595 118.564,-190.967"/>
</g>
<!-- Node10&#45;&gt;Node12 -->
<g id="edge18" class="edge"><title>Node10&#45;&gt;Node12</title>
<path fill="none" stroke="midnightblue" d="M168.418,-224.344C166.446,-211.226 161.325,-185.943 149.501,-168 141.614,-156.031 129.64,-145.484 119.067,-137.614"/>
<polygon fill="midnightblue" stroke="midnightblue" points="120.824,-134.57 110.637,-131.661 116.787,-140.288 120.824,-134.57"/>
</g>
<!-- Node11&#45;&gt;Node12 -->
<g id="edge11" class="edge"><title>Node11&#45;&gt;Node12</title>
<path fill="none" stroke="midnightblue" d="M96.5012,-168.083C96.5012,-161.006 96.5012,-150.861 96.5012,-141.986"/>
<polygon fill="midnightblue" stroke="midnightblue" points="100.001,-141.751 96.5012,-131.751 93.0013,-141.751 100.001,-141.751"/>
</g>
<!-- Node13 -->
<g id="node13" class="node"><title>Node13</title>
<polygon fill="white" stroke="#bfbfbf" points="72.0012,-56.5 72.0012,-75.5 121.001,-75.5 121.001,-56.5 72.0012,-56.5"/>
<text text-anchor="middle" x="96.5012" y="-63.5" font-family="Helvetica,sans-Serif" font-size="10.00">stdint.h</text>
</g>
<!-- Node12&#45;&gt;Node13 -->
<g id="edge12" class="edge"><title>Node12&#45;&gt;Node13</title>
<path fill="none" stroke="midnightblue" d="M96.5012,-112.083C96.5012,-105.006 96.5012,-94.8611 96.5012,-85.9865"/>
<polygon fill="midnightblue" stroke="midnightblue" points="100.001,-85.751 96.5012,-75.7511 93.0013,-85.7511 100.001,-85.751"/>
</g>
<!-- Node14 -->
<g id="node14" class="node"><title>Node14</title>
<g id="a_node14"><a xlink:href="uthash_8h_source.html" target="_top" xlink:title="uthash.h">
<polygon fill="white" stroke="black" points="356.501,-56.5 356.501,-75.5 410.501,-75.5 410.501,-56.5 356.501,-56.5"/>
<text text-anchor="middle" x="383.501" y="-63.5" font-family="Helvetica,sans-Serif" font-size="10.00">uthash.h</text>
</a>
</g>
</g>
<!-- Node12&#45;&gt;Node14 -->
<g id="edge13" class="edge"><title>Node12&#45;&gt;Node14</title>
<path fill="none" stroke="midnightblue" d="M134.613,-113.829C189.906,-103.426 291.726,-84.2679 346.429,-73.9752"/>
<polygon fill="midnightblue" stroke="midnightblue" points="347.214,-77.3891 356.394,-72.1003 345.919,-70.5098 347.214,-77.3891"/>
</g>
<!-- Node14&#45;&gt;Node3 -->
<g id="edge14" class="edge"><title>Node14&#45;&gt;Node3</title>
<path fill="none" stroke="midnightblue" d="M394.587,-56.324C404.987,-48.1849 420.762,-35.8395 433.223,-26.0874"/>
<polygon fill="midnightblue" stroke="midnightblue" points="435.495,-28.7533 441.213,-19.8339 431.181,-23.2407 435.495,-28.7533"/>
</g>
<!-- Node14&#45;&gt;Node4 -->
<g id="edge16" class="edge"><title>Node14&#45;&gt;Node4</title>
<path fill="none" stroke="midnightblue" d="M405.051,-56.4435C427.532,-47.5171 462.989,-33.4387 488.481,-23.3168"/>
<polygon fill="midnightblue" stroke="midnightblue" points="490.05,-26.4598 498.052,-19.5164 487.467,-19.9539 490.05,-26.4598"/>
</g>
<!-- Node15 -->
<g id="node15" class="node"><title>Node15</title>
<polygon fill="white" stroke="#bfbfbf" points="357.501,-0.5 357.501,-19.5 409.501,-19.5 409.501,-0.5 357.501,-0.5"/>
<text text-anchor="middle" x="383.501" y="-7.5" font-family="Helvetica,sans-Serif" font-size="10.00">stddef.h</text>
</g>
<!-- Node14&#45;&gt;Node15 -->
<g id="edge15" class="edge"><title>Node14&#45;&gt;Node15</title>
<path fill="none" stroke="midnightblue" d="M383.501,-56.083C383.501,-49.0059 383.501,-38.8611 383.501,-29.9865"/>
<polygon fill="midnightblue" stroke="midnightblue" points="387.001,-29.751 383.501,-19.7511 380.001,-29.7511 387.001,-29.751"/>
</g>
<!-- Node16 -->
<g id="node16" class="node"><title>Node16</title>
<polygon fill="white" stroke="#bfbfbf" points="280.001,-0.5 280.001,-19.5 339.001,-19.5 339.001,-0.5 280.001,-0.5"/>
<text text-anchor="middle" x="309.501" y="-7.5" font-family="Helvetica,sans-Serif" font-size="10.00">inttypes.h</text>
</g>
<!-- Node14&#45;&gt;Node16 -->
<g id="edge17" class="edge"><title>Node14&#45;&gt;Node16</title>
<path fill="none" stroke="midnightblue" d="M371.612,-56.324C360.351,-48.1066 343.215,-35.6017 329.792,-25.8069"/>
<polygon fill="midnightblue" stroke="midnightblue" points="331.748,-22.9014 321.607,-19.8339 327.622,-28.5559 331.748,-22.9014"/>
</g>
<!-- Node19 -->
<g id="node19" class="node"><title>Node19</title>
<g id="a_node19"><a xlink:href="receptor_8h.html" target="_top" xlink:title="receptor implementation header file ">
<polygon fill="white" stroke="black" points="191.501,-392.5 191.501,-411.5 251.501,-411.5 251.501,-392.5 191.501,-392.5"/>
<text text-anchor="middle" x="221.501" y="-399.5" font-family="Helvetica,sans-Serif" font-size="10.00">receptor.h</text>
</a>
</g>
</g>
<!-- Node18&#45;&gt;Node19 -->
<g id="edge23" class="edge"><title>Node18&#45;&gt;Node19</title>
<path fill="none" stroke="midnightblue" d="M251.557,-448.083C246.524,-440.534 239.164,-429.495 232.988,-420.23"/>
<polygon fill="midnightblue" stroke="midnightblue" points="235.794,-418.13 227.335,-411.751 229.97,-422.013 235.794,-418.13"/>
</g>
<!-- Node19&#45;&gt;Node2 -->
<g id="edge24" class="edge"><title>Node19&#45;&gt;Node2</title>
<path fill="none" stroke="midnightblue" d="M245.971,-392.438C262.068,-385.378 281.878,-373.626 291.501,-356 299.89,-340.634 291.188,-321.611 282.184,-308.124"/>
<polygon fill="midnightblue" stroke="midnightblue" points="284.826,-305.806 276.109,-299.784 279.168,-309.928 284.826,-305.806"/>
</g>
<!-- Node20 -->
<g id="node20" class="node"><title>Node20</title>
<g id="a_node20"><a xlink:href="def_8h.html" target="_top" xlink:title="header file for symbol and structure definition functions ">
<polygon fill="white" stroke="black" points="98.5012,-336.5 98.5012,-355.5 136.501,-355.5 136.501,-336.5 98.5012,-336.5"/>
<text text-anchor="middle" x="117.501" y="-343.5" font-family="Helvetica,sans-Serif" font-size="10.00">def.h</text>
</a>
</g>
</g>
<!-- Node19&#45;&gt;Node20 -->
<g id="edge25" class="edge"><title>Node19&#45;&gt;Node20</title>
<path fill="none" stroke="midnightblue" d="M204.792,-392.324C188.189,-383.703 162.499,-370.364 143.281,-360.386"/>
<polygon fill="midnightblue" stroke="midnightblue" points="144.657,-357.156 134.169,-355.655 141.431,-363.369 144.657,-357.156"/>
</g>
<!-- Node22 -->
<g id="node22" class="node"><title>Node22</title>
<g id="a_node22"><a xlink:href="label_8h.html" target="_top" xlink:title="Label tables map human readable text strings to parts of semantic trees. ">
<polygon fill="white" stroke="black" points="6.0012,-280.5 6.0012,-299.5 51.0012,-299.5 51.0012,-280.5 6.0012,-280.5"/>
<text text-anchor="middle" x="28.5012" y="-287.5" font-family="Helvetica,sans-Serif" font-size="10.00">label.h</text>
</a>
</g>
</g>
<!-- Node19&#45;&gt;Node22 -->
<g id="edge28" class="edge"><title>Node19&#45;&gt;Node22</title>
<path fill="none" stroke="midnightblue" d="M191.342,-395.137C163.315,-388.704 121.242,-376.472 89.5012,-356 69.6844,-343.218 51.847,-322.624 40.6534,-308.046"/>
<polygon fill="midnightblue" stroke="midnightblue" points="43.3549,-305.813 34.584,-299.87 37.7343,-309.986 43.3549,-305.813"/>
</g>
<!-- Node23 -->
<g id="node23" class="node"><title>Node23</title>
<g id="a_node23"><a xlink:href="process_8h.html" target="_top" xlink:title="processing header files ">
<polygon fill="white" stroke="black" points="155.001,-336.5 155.001,-355.5 214.001,-355.5 214.001,-336.5 155.001,-336.5"/>
<text text-anchor="middle" x="184.501" y="-343.5" font-family="Helvetica,sans-Serif" font-size="10.00">process.h</text>
</a>
</g>
</g>
<!-- Node19&#45;&gt;Node23 -->
<g id="edge30" class="edge"><title>Node19&#45;&gt;Node23</title>
<path fill="none" stroke="midnightblue" d="M215.391,-392.083C210.219,-384.534 202.655,-373.495 196.307,-364.23"/>
<polygon fill="midnightblue" stroke="midnightblue" points="199.037,-362.022 190.497,-355.751 193.262,-365.979 199.037,-362.022"/>
</g>
<!-- Node24 -->
<g id="node24" class="node"><title>Node24</title>
<g id="a_node24"><a xlink:href="scape_8h.html" target="_top" xlink:title="scape header files ">
<polygon fill="white" stroke="black" points="232.001,-336.5 232.001,-355.5 283.001,-355.5 283.001,-336.5 232.001,-336.5"/>
<text text-anchor="middle" x="257.501" y="-343.5" font-family="Helvetica,sans-Serif" font-size="10.00">scape.h</text>
</a>
</g>
</g>
<!-- Node19&#45;&gt;Node24 -->
<g id="edge32" class="edge"><title>Node19&#45;&gt;Node24</title>
<path fill="none" stroke="midnightblue" d="M227.446,-392.083C232.478,-384.534 239.838,-373.495 246.015,-364.23"/>
<polygon fill="midnightblue" stroke="midnightblue" points="249.032,-366.013 251.667,-355.751 243.208,-362.13 249.032,-366.013"/>
</g>
<!-- Node20&#45;&gt;Node2 -->
<g id="edge26" class="edge"><title>Node20&#45;&gt;Node2</title>
<path fill="none" stroke="midnightblue" d="M136.625,-338.161C162.151,-329.033 207.649,-312.762 237.953,-301.924"/>
<polygon fill="midnightblue" stroke="midnightblue" points="239.36,-305.139 247.597,-298.476 237.002,-298.547 239.36,-305.139"/>
</g>
<!-- Node21 -->
<g id="node21" class="node"><title>Node21</title>
<polygon fill="white" stroke="#bfbfbf" points="91.5012,-280.5 91.5012,-299.5 143.501,-299.5 143.501,-280.5 91.5012,-280.5"/>
<text text-anchor="middle" x="117.501" y="-287.5" font-family="Helvetica,sans-Serif" font-size="10.00">stdarg.h</text>
</g>
<!-- Node20&#45;&gt;Node21 -->
<g id="edge27" class="edge"><title>Node20&#45;&gt;Node21</title>
<path fill="none" stroke="midnightblue" d="M117.501,-336.083C117.501,-329.006 117.501,-318.861 117.501,-309.986"/>
<polygon fill="midnightblue" stroke="midnightblue" points="121.001,-309.751 117.501,-299.751 114.001,-309.751 121.001,-309.751"/>
</g>
<!-- Node22&#45;&gt;Node12 -->
<g id="edge29" class="edge"><title>Node22&#45;&gt;Node12</title>
<path fill="none" stroke="midnightblue" d="M23.5095,-280.33C12.156,-259.353 -12.9408,-204.874 9.5012,-168 18.9608,-152.457 35.7115,-142.045 52.0058,-135.191"/>
<polygon fill="midnightblue" stroke="midnightblue" points="53.4046,-138.403 61.4884,-131.555 50.8981,-131.868 53.4046,-138.403"/>
</g>
<!-- Node23&#45;&gt;Node2 -->
<g id="edge31" class="edge"><title>Node23&#45;&gt;Node2</title>
<path fill="none" stroke="midnightblue" d="M197.997,-336.324C211.101,-327.9 231.213,-314.971 246.608,-305.074"/>
<polygon fill="midnightblue" stroke="midnightblue" points="248.52,-308.006 255.039,-299.655 244.734,-302.118 248.52,-308.006"/>
</g>
<!-- Node24&#45;&gt;Node2 -->
<g id="edge33" class="edge"><title>Node24&#45;&gt;Node2</title>
<path fill="none" stroke="midnightblue" d="M259.318,-336.083C260.775,-328.927 262.872,-318.635 264.694,-309.691"/>
<polygon fill="midnightblue" stroke="midnightblue" points="268.152,-310.248 266.719,-299.751 261.293,-308.851 268.152,-310.248"/>
</g>
</g>
</svg>
