<?xml version="1.0" encoding="UTF-8" standalone="no"?>
<!DOCTYPE svg PUBLIC "-//W3C//DTD SVG 1.1//EN"
 "http://www.w3.org/Graphics/SVG/1.1/DTD/svg11.dtd">
<!-- Generated by graphviz version 2.38.0 (20140413.2041)
 -->
<!-- Title: spec/de_spec.h Pages: 1 -->
<!--zoomable 588 -->
<svg id="main" version="1.1" xmlns="http://www.w3.org/2000/svg" xmlns:xlink="http://www.w3.org/1999/xlink" xml:space="preserve" onload="init(evt)">
<style type="text/css"><![CDATA[
.edge:hover path { stroke: red; }
.edge:hover polygon { stroke: red; fill: red; }
]]></style>
<script type="text/javascript"><![CDATA[
var edges = document.getElementsByTagName('g');
if (edges && edges.length) {
  for (var i=0;i<edges.length;i++) {
    if (edges[i].id.substr(0,4)=='edge') {
      edges[i].setAttribute('class','edge');
    }
  }
}
]]></script>
        <defs>
                <circle id="rim" cx="0" cy="0" r="7"/>
                <circle id="rim2" cx="0" cy="0" r="3.5"/>
                <g id="zoomPlus">
                        <use xlink:href="#rim" fill="#404040">
                                <set attributeName="fill" to="#808080" begin="zoomplus.mouseover" end="zoomplus.mouseout"/>
                        </use>
                        <path d="M-4,0h8M0,-4v8" fill="none" stroke="white" stroke-width="1.5" pointer-events="none"/>
                </g>
                <g id="zoomMin">
                        <use xlink:href="#rim" fill="#404040">
                                <set attributeName="fill" to="#808080" begin="zoomminus.mouseover" end="zoomminus.mouseout"/>
                        </use>
                        <path d="M-4,0h8" fill="none" stroke="white" stroke-width="1.5" pointer-events="none"/>
                </g>
                <g id="dirArrow">
                        <path fill="none" stroke="white" stroke-width="1.5" d="M0,-3.0v7 M-2.5,-0.5L0,-3.0L2.5,-0.5"/>
                </g>
               <g id="resetDef">
                       <use xlink:href="#rim2" fill="#404040">
                               <set attributeName="fill" to="#808080" begin="reset.mouseover" end="reset.mouseout"/>
                       </use>
               </g>
        </defs>

<script type="text/javascript">
var viewWidth = 836;
var viewHeight = 588;
var sectionId = 'dynsection-0';
</script>
<script xlink:href="svgpan.js"/>
<svg id="graph" class="graph">
<g id="viewport">
<title>spec/de_spec.h</title>
<polygon fill="white" stroke="none" points="-4,4 -4,-584 831.5,-584 831.5,4 -4,4"/>
<!-- Node1 -->
<g id="node1" class="node"><title>Node1</title>
<polygon fill="#bfbfbf" stroke="black" points="403,-560.5 403,-579.5 489,-579.5 489,-560.5 403,-560.5"/>
<text text-anchor="middle" x="446" y="-567.5" font-family="Helvetica,sans-Serif" font-size="10.00">spec/de_spec.h</text>
</g>
<!-- Node2 -->
<g id="node2" class="node"><title>Node2</title>
<g id="a_node2"><a xlink:href="ceptr_8h_source.html" target="_top" xlink:title="../src/ceptr.h">
<polygon fill="white" stroke="black" points="259,-336.5 259,-355.5 331,-355.5 331,-336.5 259,-336.5"/>
<text text-anchor="middle" x="295" y="-343.5" font-family="Helvetica,sans-Serif" font-size="10.00">../src/ceptr.h</text>
</a>
</g>
</g>
<!-- Node1&#45;&gt;Node2 -->
<g id="edge1" class="edge"><title>Node1&#45;&gt;Node2</title>
<path fill="none" stroke="midnightblue" d="M440.081,-560.297C417.58,-527.217 337.11,-408.909 306.727,-364.241"/>
<polygon fill="midnightblue" stroke="midnightblue" points="309.561,-362.184 301.043,-355.884 303.773,-366.121 309.561,-362.184"/>
</g>
<!-- Node22 -->
<g id="node22" class="node"><title>Node22</title>
<g id="a_node22"><a xlink:href="de_8h.html" target="_top" xlink:title="header file for data engine ">
<polygon fill="white" stroke="black" points="480.5,-504.5 480.5,-523.5 541.5,-523.5 541.5,-504.5 480.5,-504.5"/>
<text text-anchor="middle" x="511" y="-511.5" font-family="Helvetica,sans-Serif" font-size="10.00">../src/de.h</text>
</a>
</g>
</g>
<!-- Node1&#45;&gt;Node22 -->
<g id="edge38" class="edge"><title>Node1&#45;&gt;Node22</title>
<path fill="none" stroke="midnightblue" d="M456.443,-560.324C466.146,-552.263 480.815,-540.077 492.5,-530.369"/>
<polygon fill="midnightblue" stroke="midnightblue" points="494.911,-532.916 500.367,-523.834 490.438,-527.532 494.911,-532.916"/>
</g>
<!-- Node3 -->
<g id="node3" class="node"><title>Node3</title>
<polygon fill="white" stroke="#bfbfbf" points="176.5,-0.5 176.5,-19.5 225.5,-19.5 225.5,-0.5 176.5,-0.5"/>
<text text-anchor="middle" x="201" y="-7.5" font-family="Helvetica,sans-Serif" font-size="10.00">string.h</text>
</g>
<!-- Node2&#45;&gt;Node3 -->
<g id="edge2" class="edge"><title>Node2&#45;&gt;Node3</title>
<path fill="none" stroke="midnightblue" d="M258.936,-343.902C212.57,-341.172 130.693,-331.809 69,-300 31.5536,-280.693 0,-277.131 0,-235 0,-235 0,-235 0,-121 0,-46.1023 108.725,-21.8738 166.247,-14.2966"/>
<polygon fill="midnightblue" stroke="midnightblue" points="166.849,-17.7491 176.353,-13.067 166.004,-10.8004 166.849,-17.7491"/>
</g>
<!-- Node4 -->
<g id="node4" class="node"><title>Node4</title>
<polygon fill="white" stroke="#bfbfbf" points="85,-168.5 85,-187.5 131,-187.5 131,-168.5 85,-168.5"/>
<text text-anchor="middle" x="108" y="-175.5" font-family="Helvetica,sans-Serif" font-size="10.00">stdio.h</text>
</g>
<!-- Node2&#45;&gt;Node4 -->
<g id="edge3" class="edge"><title>Node2&#45;&gt;Node4</title>
<path fill="none" stroke="midnightblue" d="M282.949,-336.384C259.789,-319.62 207.833,-281.006 168,-244 151.387,-228.566 133.977,-209.312 122.217,-195.779"/>
<polygon fill="midnightblue" stroke="midnightblue" points="124.541,-193.114 115.37,-187.81 119.232,-197.676 124.541,-193.114"/>
</g>
<!-- Node5 -->
<g id="node5" class="node"><title>Node5</title>
<polygon fill="white" stroke="#bfbfbf" points="522,-0.5 522,-19.5 570,-19.5 570,-0.5 522,-0.5"/>
<text text-anchor="middle" x="546" y="-7.5" font-family="Helvetica,sans-Serif" font-size="10.00">stdlib.h</text>
</g>
<!-- Node2&#45;&gt;Node5 -->
<g id="edge4" class="edge"><title>Node2&#45;&gt;Node5</title>
<path fill="none" stroke="midnightblue" d="M331.251,-344.045C397.06,-340.321 536.604,-322.964 615,-244 636.295,-222.55 635,-209.225 635,-179 635,-179 635,-179 635,-121 635,-78.8457 595.01,-43.7791 568.642,-25.2392"/>
<polygon fill="midnightblue" stroke="midnightblue" points="570.544,-22.3003 560.299,-19.5989 566.623,-28.0994 570.544,-22.3003"/>
</g>
<!-- Node6 -->
<g id="node6" class="node"><title>Node6</title>
<g id="a_node6"><a xlink:href="ceptr__error_8h_source.html" target="_top" xlink:title="ceptr_error.h">
<polygon fill="white" stroke="black" points="210.5,-224.5 210.5,-243.5 281.5,-243.5 281.5,-224.5 210.5,-224.5"/>
<text text-anchor="middle" x="246" y="-231.5" font-family="Helvetica,sans-Serif" font-size="10.00">ceptr_error.h</text>
</a>
</g>
</g>
<!-- Node2&#45;&gt;Node6 -->
<g id="edge5" class="edge"><title>Node2&#45;&gt;Node6</title>
<path fill="none" stroke="midnightblue" d="M291.155,-336.368C283.176,-318.456 264.675,-276.923 253.995,-252.948"/>
<polygon fill="midnightblue" stroke="midnightblue" points="257.093,-251.302 249.827,-243.591 250.699,-254.15 257.093,-251.302"/>
</g>
<!-- Node10 -->
<g id="node10" class="node"><title>Node10</title>
<g id="a_node10"><a xlink:href="tree_8h.html" target="_top" xlink:title="semantic trees header file ">
<polygon fill="white" stroke="black" points="652.5,-280.5 652.5,-299.5 693.5,-299.5 693.5,-280.5 652.5,-280.5"/>
<text text-anchor="middle" x="673" y="-287.5" font-family="Helvetica,sans-Serif" font-size="10.00">tree.h</text>
</a>
</g>
</g>
<!-- Node2&#45;&gt;Node10 -->
<g id="edge10" class="edge"><title>Node2&#45;&gt;Node10</title>
<path fill="none" stroke="midnightblue" d="M331.281,-341.7C394.126,-335.66 527.144,-321.443 638,-300 639.463,-299.717 640.956,-299.409 642.46,-299.083"/>
<polygon fill="midnightblue" stroke="midnightblue" points="643.436,-302.449 652.366,-296.748 641.83,-295.636 643.436,-302.449"/>
</g>
<!-- Node19 -->
<g id="node19" class="node"><title>Node19</title>
<g id="a_node19"><a xlink:href="mtree_8h.html" target="_top" xlink:title="semantic tree matrix header file `` ">
<polygon fill="white" stroke="black" points="304,-280.5 304,-299.5 354,-299.5 354,-280.5 304,-280.5"/>
<text text-anchor="middle" x="329" y="-287.5" font-family="Helvetica,sans-Serif" font-size="10.00">mtree.h</text>
</a>
</g>
</g>
<!-- Node2&#45;&gt;Node19 -->
<g id="edge27" class="edge"><title>Node2&#45;&gt;Node19</title>
<path fill="none" stroke="midnightblue" d="M300.614,-336.083C305.367,-328.534 312.318,-317.495 318.152,-308.23"/>
<polygon fill="midnightblue" stroke="midnightblue" points="321.124,-310.078 323.49,-299.751 315.2,-306.349 321.124,-310.078"/>
</g>
<!-- Node20 -->
<g id="node20" class="node"><title>Node20</title>
<g id="a_node20"><a xlink:href="util_8h.html" target="_top" xlink:title="util.h">
<polygon fill="white" stroke="black" points="78,-280.5 78,-299.5 116,-299.5 116,-280.5 78,-280.5"/>
<text text-anchor="middle" x="97" y="-287.5" font-family="Helvetica,sans-Serif" font-size="10.00">util.h</text>
</a>
</g>
</g>
<!-- Node2&#45;&gt;Node20 -->
<g id="edge35" class="edge"><title>Node2&#45;&gt;Node20</title>
<path fill="none" stroke="midnightblue" d="M263.626,-336.444C225.912,-326.158 163.117,-309.032 126.335,-299.001"/>
<polygon fill="midnightblue" stroke="midnightblue" points="126.821,-295.505 116.252,-296.251 124.979,-302.259 126.821,-295.505"/>
</g>
<!-- Node6&#45;&gt;Node4 -->
<g id="edge6" class="edge"><title>Node6&#45;&gt;Node4</title>
<path fill="none" stroke="midnightblue" d="M224.133,-224.444C201.221,-215.478 165.025,-201.314 139.134,-191.183"/>
<polygon fill="midnightblue" stroke="midnightblue" points="140.352,-187.901 129.764,-187.516 137.801,-194.42 140.352,-187.901"/>
</g>
<!-- Node7 -->
<g id="node7" class="node"><title>Node7</title>
<polygon fill="white" stroke="#bfbfbf" points="329,-168.5 329,-187.5 379,-187.5 379,-168.5 329,-168.5"/>
<text text-anchor="middle" x="354" y="-175.5" font-family="Helvetica,sans-Serif" font-size="10.00">signal.h</text>
</g>
<!-- Node6&#45;&gt;Node7 -->
<g id="edge7" class="edge"><title>Node6&#45;&gt;Node7</title>
<path fill="none" stroke="midnightblue" d="M263.352,-224.324C280.672,-215.664 307.515,-202.242 327.502,-192.249"/>
<polygon fill="midnightblue" stroke="midnightblue" points="329.312,-195.257 336.691,-187.655 326.181,-188.996 329.312,-195.257"/>
</g>
<!-- Node8 -->
<g id="node8" class="node"><title>Node8</title>
<polygon fill="white" stroke="#bfbfbf" points="187,-168.5 187,-187.5 239,-187.5 239,-168.5 187,-168.5"/>
<text text-anchor="middle" x="213" y="-175.5" font-family="Helvetica,sans-Serif" font-size="10.00">assert.h</text>
</g>
<!-- Node6&#45;&gt;Node8 -->
<g id="edge8" class="edge"><title>Node6&#45;&gt;Node8</title>
<path fill="none" stroke="midnightblue" d="M240.551,-224.083C235.986,-216.613 229.332,-205.724 223.707,-196.52"/>
<polygon fill="midnightblue" stroke="midnightblue" points="226.549,-194.459 218.348,-187.751 220.576,-198.109 226.549,-194.459"/>
</g>
<!-- Node9 -->
<g id="node9" class="node"><title>Node9</title>
<polygon fill="white" stroke="#bfbfbf" points="257,-168.5 257,-187.5 311,-187.5 311,-168.5 257,-168.5"/>
<text text-anchor="middle" x="284" y="-175.5" font-family="Helvetica,sans-Serif" font-size="10.00">setjmp.h</text>
</g>
<!-- Node6&#45;&gt;Node9 -->
<g id="edge9" class="edge"><title>Node6&#45;&gt;Node9</title>
<path fill="none" stroke="midnightblue" d="M252.275,-224.083C257.642,-216.455 265.518,-205.264 272.079,-195.941"/>
<polygon fill="midnightblue" stroke="midnightblue" points="274.949,-197.943 277.842,-187.751 269.225,-193.915 274.949,-197.943"/>
</g>
<!-- Node10&#45;&gt;Node3 -->
<g id="edge11" class="edge"><title>Node10&#45;&gt;Node3</title>
<path fill="none" stroke="midnightblue" d="M693.645,-280.421C726.496,-265.231 787,-230.293 787,-179 787,-179 787,-179 787,-121 787,-43.3868 341.263,-27.8186 276,-20 262.877,-18.4279 248.463,-16.6987 235.808,-15.1799"/>
<polygon fill="midnightblue" stroke="midnightblue" points="236.005,-11.6784 225.659,-13.9615 235.17,-18.6285 236.005,-11.6784"/>
</g>
<!-- Node10&#45;&gt;Node5 -->
<g id="edge12" class="edge"><title>Node10&#45;&gt;Node5</title>
<path fill="none" stroke="midnightblue" d="M693.626,-282.806C727.778,-272.395 793.111,-251.767 801,-244 822.945,-222.395 825,-209.795 825,-179 825,-179 825,-179 825,-121 825,-90.2048 824.635,-75.7417 801,-56 767.977,-28.4166 641.759,-16.9232 580.186,-12.88"/>
<polygon fill="midnightblue" stroke="midnightblue" points="580.379,-9.38535 570.179,-12.2514 579.94,-16.3716 580.379,-9.38535"/>
</g>
<!-- Node10&#45;&gt;Node6 -->
<g id="edge13" class="edge"><title>Node10&#45;&gt;Node6</title>
<path fill="none" stroke="midnightblue" d="M652.405,-286.395C587.118,-278.139 383.674,-252.411 291.82,-240.795"/>
<polygon fill="midnightblue" stroke="midnightblue" points="292.071,-237.299 281.711,-239.516 291.193,-244.243 292.071,-237.299"/>
</g>
<!-- Node11 -->
<g id="node11" class="node"><title>Node11</title>
<g id="a_node11"><a xlink:href="sys__symbols_8h.html" target="_top" xlink:title="Defines hard&#45;coded system defined symbols. ">
<polygon fill="white" stroke="black" points="523.5,-224.5 523.5,-243.5 606.5,-243.5 606.5,-224.5 523.5,-224.5"/>
<text text-anchor="middle" x="565" y="-231.5" font-family="Helvetica,sans-Serif" font-size="10.00">sys_symbols.h</text>
</a>
</g>
</g>
<!-- Node10&#45;&gt;Node11 -->
<g id="edge14" class="edge"><title>Node10&#45;&gt;Node11</title>
<path fill="none" stroke="midnightblue" d="M655.648,-280.324C638.328,-271.664 611.485,-258.242 591.498,-248.249"/>
<polygon fill="midnightblue" stroke="midnightblue" points="592.819,-244.996 582.309,-243.655 589.688,-251.257 592.819,-244.996"/>
</g>
<!-- Node12 -->
<g id="node12" class="node"><title>Node12</title>
<g id="a_node12"><a xlink:href="sys__structures_8h.html" target="_top" xlink:title="Defines hard&#45;coded system defined structures. ">
<polygon fill="white" stroke="black" points="475.5,-168.5 475.5,-187.5 564.5,-187.5 564.5,-168.5 475.5,-168.5"/>
<text text-anchor="middle" x="520" y="-175.5" font-family="Helvetica,sans-Serif" font-size="10.00">sys_structures.h</text>
</a>
</g>
</g>
<!-- Node10&#45;&gt;Node12 -->
<g id="edge24" class="edge"><title>Node10&#45;&gt;Node12</title>
<path fill="none" stroke="midnightblue" d="M667.105,-280.423C657.497,-266.956 637.283,-240.671 615,-224 596.583,-210.222 573.275,-199.103 554.355,-191.365"/>
<polygon fill="midnightblue" stroke="midnightblue" points="555.497,-188.053 544.91,-187.63 552.923,-194.562 555.497,-188.053"/>
</g>
<!-- Node13 -->
<g id="node13" class="node"><title>Node13</title>
<g id="a_node13"><a xlink:href="ceptr__types_8h_source.html" target="_top" xlink:title="ceptr_types.h">
<polygon fill="white" stroke="black" points="506,-112.5 506,-131.5 582,-131.5 582,-112.5 506,-112.5"/>
<text text-anchor="middle" x="544" y="-119.5" font-family="Helvetica,sans-Serif" font-size="10.00">ceptr_types.h</text>
</a>
</g>
</g>
<!-- Node10&#45;&gt;Node13 -->
<g id="edge26" class="edge"><title>Node10&#45;&gt;Node13</title>
<path fill="none" stroke="midnightblue" d="M669.424,-280.172C663.999,-267.266 652.942,-242.747 640,-224 616.806,-190.405 582.477,-157.214 561.77,-138.492"/>
<polygon fill="midnightblue" stroke="midnightblue" points="563.846,-135.654 554.052,-131.614 559.189,-140.88 563.846,-135.654"/>
</g>
<!-- Node18 -->
<g id="node18" class="node"><title>Node18</title>
<g id="a_node18"><a xlink:href="sys__processes_8h.html" target="_top" xlink:title="Defines hard&#45;coded system defined processes. ">
<polygon fill="white" stroke="black" points="414.5,-224.5 414.5,-243.5 505.5,-243.5 505.5,-224.5 414.5,-224.5"/>
<text text-anchor="middle" x="460" y="-231.5" font-family="Helvetica,sans-Serif" font-size="10.00">sys_processes.h</text>
</a>
</g>
</g>
<!-- Node10&#45;&gt;Node18 -->
<g id="edge25" class="edge"><title>Node10&#45;&gt;Node18</title>
<path fill="none" stroke="midnightblue" d="M652.189,-283.724C617.932,-275.039 548.952,-257.551 503.632,-246.062"/>
<polygon fill="midnightblue" stroke="midnightblue" points="504.333,-242.629 493.78,-243.564 502.613,-249.414 504.333,-242.629"/>
</g>
<!-- Node11&#45;&gt;Node12 -->
<g id="edge15" class="edge"><title>Node11&#45;&gt;Node12</title>
<path fill="none" stroke="midnightblue" d="M557.569,-224.083C551.147,-216.377 541.694,-205.033 533.878,-195.653"/>
<polygon fill="midnightblue" stroke="midnightblue" points="536.383,-193.193 527.293,-187.751 531.006,-197.674 536.383,-193.193"/>
</g>
<!-- Node11&#45;&gt;Node13 -->
<g id="edge23" class="edge"><title>Node11&#45;&gt;Node13</title>
<path fill="none" stroke="midnightblue" d="M568.224,-224.406C572.476,-211.792 578.778,-187.633 573,-168 569.988,-157.765 563.845,-147.66 557.986,-139.627"/>
<polygon fill="midnightblue" stroke="midnightblue" points="560.586,-137.269 551.673,-131.541 555.068,-141.577 560.586,-137.269"/>
</g>
<!-- Node12&#45;&gt;Node13 -->
<g id="edge16" class="edge"><title>Node12&#45;&gt;Node13</title>
<path fill="none" stroke="midnightblue" d="M523.963,-168.083C527.213,-160.77 531.919,-150.181 535.954,-141.103"/>
<polygon fill="midnightblue" stroke="midnightblue" points="539.248,-142.311 540.111,-131.751 532.851,-139.468 539.248,-142.311"/>
</g>
<!-- Node14 -->
<g id="node14" class="node"><title>Node14</title>
<polygon fill="white" stroke="#bfbfbf" points="519.5,-56.5 519.5,-75.5 568.5,-75.5 568.5,-56.5 519.5,-56.5"/>
<text text-anchor="middle" x="544" y="-63.5" font-family="Helvetica,sans-Serif" font-size="10.00">stdint.h</text>
</g>
<!-- Node13&#45;&gt;Node14 -->
<g id="edge17" class="edge"><title>Node13&#45;&gt;Node14</title>
<path fill="none" stroke="midnightblue" d="M544,-112.083C544,-105.006 544,-94.8611 544,-85.9865"/>
<polygon fill="midnightblue" stroke="midnightblue" points="547.5,-85.751 544,-75.7511 540.5,-85.7511 547.5,-85.751"/>
</g>
<!-- Node15 -->
<g id="node15" class="node"><title>Node15</title>
<g id="a_node15"><a xlink:href="uthash_8h_source.html" target="_top" xlink:title="uthash.h">
<polygon fill="white" stroke="black" points="325,-56.5 325,-75.5 379,-75.5 379,-56.5 325,-56.5"/>
<text text-anchor="middle" x="352" y="-63.5" font-family="Helvetica,sans-Serif" font-size="10.00">uthash.h</text>
</a>
</g>
</g>
<!-- Node13&#45;&gt;Node15 -->
<g id="edge18" class="edge"><title>Node13&#45;&gt;Node15</title>
<path fill="none" stroke="midnightblue" d="M513.577,-112.444C479.749,-102.929 425.11,-87.5622 388.876,-77.3713"/>
<polygon fill="midnightblue" stroke="midnightblue" points="389.75,-73.9816 379.176,-74.6433 387.855,-80.7201 389.75,-73.9816"/>
</g>
<!-- Node15&#45;&gt;Node3 -->
<g id="edge19" class="edge"><title>Node15&#45;&gt;Node3</title>
<path fill="none" stroke="midnightblue" d="M328.074,-56.4435C302.781,-47.3986 262.698,-33.064 234.32,-22.9158"/>
<polygon fill="midnightblue" stroke="midnightblue" points="235.409,-19.5882 224.814,-19.5164 233.052,-26.1794 235.409,-19.5882"/>
</g>
<!-- Node15&#45;&gt;Node5 -->
<g id="edge21" class="edge"><title>Node15&#45;&gt;Node5</title>
<path fill="none" stroke="midnightblue" d="M379.384,-57.3776C414.135,-47.7047 474.082,-31.0185 511.802,-20.5189"/>
<polygon fill="midnightblue" stroke="midnightblue" points="513.118,-23.786 521.813,-17.7325 511.241,-17.0423 513.118,-23.786"/>
</g>
<!-- Node16 -->
<g id="node16" class="node"><title>Node16</title>
<polygon fill="white" stroke="#bfbfbf" points="363,-0.5 363,-19.5 415,-19.5 415,-0.5 363,-0.5"/>
<text text-anchor="middle" x="389" y="-7.5" font-family="Helvetica,sans-Serif" font-size="10.00">stddef.h</text>
</g>
<!-- Node15&#45;&gt;Node16 -->
<g id="edge20" class="edge"><title>Node15&#45;&gt;Node16</title>
<path fill="none" stroke="midnightblue" d="M358.11,-56.083C363.282,-48.5341 370.846,-37.4948 377.194,-28.2298"/>
<polygon fill="midnightblue" stroke="midnightblue" points="380.239,-29.9787 383.004,-19.7511 374.464,-26.0221 380.239,-29.9787"/>
</g>
<!-- Node17 -->
<g id="node17" class="node"><title>Node17</title>
<polygon fill="white" stroke="#bfbfbf" points="285.5,-0.5 285.5,-19.5 344.5,-19.5 344.5,-0.5 285.5,-0.5"/>
<text text-anchor="middle" x="315" y="-7.5" font-family="Helvetica,sans-Serif" font-size="10.00">inttypes.h</text>
</g>
<!-- Node15&#45;&gt;Node17 -->
<g id="edge22" class="edge"><title>Node15&#45;&gt;Node17</title>
<path fill="none" stroke="midnightblue" d="M345.89,-56.083C340.718,-48.5341 333.154,-37.4948 326.806,-28.2298"/>
<polygon fill="midnightblue" stroke="midnightblue" points="329.536,-26.0221 320.996,-19.7511 323.761,-29.9787 329.536,-26.0221"/>
</g>
<!-- Node19&#45;&gt;Node3 -->
<g id="edge28" class="edge"><title>Node19&#45;&gt;Node3</title>
<path fill="none" stroke="midnightblue" d="M303.942,-286.326C275.579,-282.05 229.61,-271.17 201,-244 141.384,-187.386 176.428,-73.8053 193.404,-29.3952"/>
<polygon fill="midnightblue" stroke="midnightblue" points="196.74,-30.4775 197.172,-19.8915 190.233,-27.8978 196.74,-30.4775"/>
</g>
<!-- Node19&#45;&gt;Node5 -->
<g id="edge29" class="edge"><title>Node19&#45;&gt;Node5</title>
<path fill="none" stroke="midnightblue" d="M331.236,-280.084C334.755,-267.069 342.403,-242.416 354,-224 365.728,-205.377 373.115,-204.211 388,-188 441.732,-129.482 504.181,-58.6738 531.715,-27.3081"/>
<polygon fill="midnightblue" stroke="midnightblue" points="534.557,-29.3763 538.519,-19.5503 529.294,-24.7607 534.557,-29.3763"/>
</g>
<!-- Node19&#45;&gt;Node6 -->
<g id="edge30" class="edge"><title>Node19&#45;&gt;Node6</title>
<path fill="none" stroke="midnightblue" d="M315.665,-280.324C302.838,-271.979 283.215,-259.212 268.06,-249.352"/>
<polygon fill="midnightblue" stroke="midnightblue" points="269.593,-246.174 259.302,-243.655 265.776,-252.042 269.593,-246.174"/>
</g>
<!-- Node19&#45;&gt;Node11 -->
<g id="edge31" class="edge"><title>Node19&#45;&gt;Node11</title>
<path fill="none" stroke="midnightblue" d="M354.256,-283.221C393.192,-274.312 468.521,-257.076 517.769,-245.807"/>
<polygon fill="midnightblue" stroke="midnightblue" points="518.589,-249.21 527.556,-243.568 517.027,-242.386 518.589,-249.21"/>
</g>
<!-- Node19&#45;&gt;Node12 -->
<g id="edge32" class="edge"><title>Node19&#45;&gt;Node12</title>
<path fill="none" stroke="midnightblue" d="M337.152,-280.367C350.328,-266.822 377.604,-240.432 405,-224 428.703,-209.783 457.698,-198.473 480.644,-190.747"/>
<polygon fill="midnightblue" stroke="midnightblue" points="481.981,-193.992 490.396,-187.555 479.803,-187.34 481.981,-193.992"/>
</g>
<!-- Node19&#45;&gt;Node13 -->
<g id="edge34" class="edge"><title>Node19&#45;&gt;Node13</title>
<path fill="none" stroke="midnightblue" d="M333.708,-280.161C341.14,-266.803 356.647,-241.211 375,-224 398.305,-202.146 477.69,-158.352 518.826,-136.314"/>
<polygon fill="midnightblue" stroke="midnightblue" points="520.523,-139.376 527.698,-131.581 517.228,-133.2 520.523,-139.376"/>
</g>
<!-- Node19&#45;&gt;Node18 -->
<g id="edge33" class="edge"><title>Node19&#45;&gt;Node18</title>
<path fill="none" stroke="midnightblue" d="M349.757,-280.444C371.316,-271.557 405.263,-257.563 429.794,-247.451"/>
<polygon fill="midnightblue" stroke="midnightblue" points="431.428,-250.563 439.34,-243.516 428.761,-244.092 431.428,-250.563"/>
</g>
<!-- Node20&#45;&gt;Node4 -->
<g id="edge37" class="edge"><title>Node20&#45;&gt;Node4</title>
<path fill="none" stroke="midnightblue" d="M97.8632,-280.368C99.6383,-262.617 103.733,-221.666 106.14,-197.597"/>
<polygon fill="midnightblue" stroke="midnightblue" points="109.628,-197.89 107.141,-187.591 102.663,-197.193 109.628,-197.89"/>
</g>
<!-- Node21 -->
<g id="node21" class="node"><title>Node21</title>
<polygon fill="white" stroke="#bfbfbf" points="28.5,-224.5 28.5,-243.5 77.5,-243.5 77.5,-224.5 28.5,-224.5"/>
<text text-anchor="middle" x="53" y="-231.5" font-family="Helvetica,sans-Serif" font-size="10.00">ctype.h</text>
</g>
<!-- Node20&#45;&gt;Node21 -->
<g id="edge36" class="edge"><title>Node20&#45;&gt;Node21</title>
<path fill="none" stroke="midnightblue" d="M89.7343,-280.083C83.4552,-272.377 74.2124,-261.033 66.5692,-251.653"/>
<polygon fill="midnightblue" stroke="midnightblue" points="69.1606,-249.293 60.1305,-243.751 63.7339,-253.714 69.1606,-249.293"/>
</g>
<!-- Node22&#45;&gt;Node10 -->
<g id="edge39" class="edge"><title>Node22&#45;&gt;Node10</title>
<path fill="none" stroke="midnightblue" d="M508.982,-504.402C502.969,-476.473 488.083,-387.159 530,-336 533.678,-331.511 601.663,-311.429 642.549,-299.664"/>
<polygon fill="midnightblue" stroke="midnightblue" points="643.657,-302.987 652.305,-296.866 641.728,-296.258 643.657,-302.987"/>
</g>
<!-- Node23 -->
<g id="node23" class="node"><title>Node23</title>
<g id="a_node23"><a xlink:href="vmhost_8h.html" target="_top" xlink:title="vmhost implementation header file ">
<polygon fill="white" stroke="black" points="589.5,-448.5 589.5,-467.5 646.5,-467.5 646.5,-448.5 589.5,-448.5"/>
<text text-anchor="middle" x="618" y="-455.5" font-family="Helvetica,sans-Serif" font-size="10.00">vmhost.h</text>
</a>
</g>
</g>
<!-- Node22&#45;&gt;Node23 -->
<g id="edge40" class="edge"><title>Node22&#45;&gt;Node23</title>
<path fill="none" stroke="midnightblue" d="M528.191,-504.324C545.351,-495.664 571.946,-482.242 591.747,-472.249"/>
<polygon fill="midnightblue" stroke="midnightblue" points="593.501,-475.285 600.851,-467.655 590.347,-469.035 593.501,-475.285"/>
</g>
<!-- Node24 -->
<g id="node24" class="node"><title>Node24</title>
<g id="a_node24"><a xlink:href="receptor_8h.html" target="_top" xlink:title="receptor implementation header file ">
<polygon fill="white" stroke="black" points="639,-392.5 639,-411.5 699,-411.5 699,-392.5 639,-392.5"/>
<text text-anchor="middle" x="669" y="-399.5" font-family="Helvetica,sans-Serif" font-size="10.00">receptor.h</text>
</a>
</g>
</g>
<!-- Node23&#45;&gt;Node24 -->
<g id="edge41" class="edge"><title>Node23&#45;&gt;Node24</title>
<path fill="none" stroke="midnightblue" d="M626.422,-448.083C633.848,-440.22 644.852,-428.569 653.812,-419.081"/>
<polygon fill="midnightblue" stroke="midnightblue" points="656.413,-421.424 660.735,-411.751 651.324,-416.618 656.413,-421.424"/>
</g>
<!-- Node24&#45;&gt;Node10 -->
<g id="edge42" class="edge"><title>Node24&#45;&gt;Node10</title>
<path fill="none" stroke="midnightblue" d="M670.739,-392.419C672.472,-383.399 675.013,-368.77 676,-356 677.199,-340.494 676.241,-322.867 675.099,-309.885"/>
<polygon fill="midnightblue" stroke="midnightblue" points="678.572,-309.446 674.097,-299.842 671.607,-310.14 678.572,-309.446"/>
</g>
<!-- Node25 -->
<g id="node25" class="node"><title>Node25</title>
<g id="a_node25"><a xlink:href="def_8h.html" target="_top" xlink:title="header file for symbol and structure definition functions ">
<polygon fill="white" stroke="black" points="724,-336.5 724,-355.5 762,-355.5 762,-336.5 724,-336.5"/>
<text text-anchor="middle" x="743" y="-343.5" font-family="Helvetica,sans-Serif" font-size="10.00">def.h</text>
</a>
</g>
</g>
<!-- Node24&#45;&gt;Node25 -->
<g id="edge43" class="edge"><title>Node24&#45;&gt;Node25</title>
<path fill="none" stroke="midnightblue" d="M680.889,-392.324C692.15,-384.107 709.287,-371.602 722.709,-361.807"/>
<polygon fill="midnightblue" stroke="midnightblue" points="724.88,-364.556 730.894,-355.834 720.753,-358.901 724.88,-364.556"/>
</g>
<!-- Node27 -->
<g id="node27" class="node"><title>Node27</title>
<g id="a_node27"><a xlink:href="label_8h.html" target="_top" xlink:title="Label tables map human readable text strings to parts of semantic trees. ">
<polygon fill="white" stroke="black" points="782.5,-280.5 782.5,-299.5 827.5,-299.5 827.5,-280.5 782.5,-280.5"/>
<text text-anchor="middle" x="805" y="-287.5" font-family="Helvetica,sans-Serif" font-size="10.00">label.h</text>
</a>
</g>
</g>
<!-- Node24&#45;&gt;Node27 -->
<g id="edge46" class="edge"><title>Node24&#45;&gt;Node27</title>
<path fill="none" stroke="midnightblue" d="M699.263,-393.49C721.331,-386.735 750.79,-374.91 771,-356 784.635,-343.242 793.805,-323.775 799.151,-309.47"/>
<polygon fill="midnightblue" stroke="midnightblue" points="802.557,-310.328 802.505,-299.733 795.939,-308.048 802.557,-310.328"/>
</g>
<!-- Node28 -->
<g id="node28" class="node"><title>Node28</title>
<g id="a_node28"><a xlink:href="process_8h.html" target="_top" xlink:title="processing header files ">
<polygon fill="white" stroke="black" points="539.5,-336.5 539.5,-355.5 598.5,-355.5 598.5,-336.5 539.5,-336.5"/>
<text text-anchor="middle" x="569" y="-343.5" font-family="Helvetica,sans-Serif" font-size="10.00">process.h</text>
</a>
</g>
</g>
<!-- Node24&#45;&gt;Node28 -->
<g id="edge48" class="edge"><title>Node24&#45;&gt;Node28</title>
<path fill="none" stroke="midnightblue" d="M652.933,-392.324C637.042,-383.743 612.493,-370.486 594.042,-360.522"/>
<polygon fill="midnightblue" stroke="midnightblue" points="595.489,-357.326 585.027,-355.655 592.163,-363.486 595.489,-357.326"/>
</g>
<!-- Node29 -->
<g id="node29" class="node"><title>Node29</title>
<g id="a_node29"><a xlink:href="scape_8h.html" target="_top" xlink:title="scape header files ">
<polygon fill="white" stroke="black" points="616.5,-336.5 616.5,-355.5 667.5,-355.5 667.5,-336.5 616.5,-336.5"/>
<text text-anchor="middle" x="642" y="-343.5" font-family="Helvetica,sans-Serif" font-size="10.00">scape.h</text>
</a>
</g>
</g>
<!-- Node24&#45;&gt;Node29 -->
<g id="edge50" class="edge"><title>Node24&#45;&gt;Node29</title>
<path fill="none" stroke="midnightblue" d="M664.541,-392.083C660.846,-384.691 655.477,-373.953 650.906,-364.811"/>
<polygon fill="midnightblue" stroke="midnightblue" points="653.978,-363.13 646.376,-355.751 647.717,-366.261 653.978,-363.13"/>
</g>
<!-- Node25&#45;&gt;Node10 -->
<g id="edge44" class="edge"><title>Node25&#45;&gt;Node10</title>
<path fill="none" stroke="midnightblue" d="M731.753,-336.324C721.203,-328.185 705.199,-315.839 692.558,-306.087"/>
<polygon fill="midnightblue" stroke="midnightblue" points="694.507,-303.171 684.451,-299.834 690.231,-308.713 694.507,-303.171"/>
</g>
<!-- Node26 -->
<g id="node26" class="node"><title>Node26</title>
<polygon fill="white" stroke="#bfbfbf" points="712,-280.5 712,-299.5 764,-299.5 764,-280.5 712,-280.5"/>
<text text-anchor="middle" x="738" y="-287.5" font-family="Helvetica,sans-Serif" font-size="10.00">stdarg.h</text>
</g>
<!-- Node25&#45;&gt;Node26 -->
<g id="edge45" class="edge"><title>Node25&#45;&gt;Node26</title>
<path fill="none" stroke="midnightblue" d="M742.174,-336.083C741.519,-329.006 740.58,-318.861 739.758,-309.986"/>
<polygon fill="midnightblue" stroke="midnightblue" points="743.217,-309.386 738.81,-299.751 736.247,-310.031 743.217,-309.386"/>
</g>
<!-- Node27&#45;&gt;Node13 -->
<g id="edge47" class="edge"><title>Node27&#45;&gt;Node13</title>
<path fill="none" stroke="midnightblue" d="M791.741,-280.442C760.95,-260.582 682.182,-209.865 616,-168 599.445,-157.528 580.676,-145.802 566.452,-136.946"/>
<polygon fill="midnightblue" stroke="midnightblue" points="568.171,-133.893 557.831,-131.582 564.473,-139.836 568.171,-133.893"/>
</g>
<!-- Node28&#45;&gt;Node10 -->
<g id="edge49" class="edge"><title>Node28&#45;&gt;Node10</title>
<path fill="none" stroke="midnightblue" d="M585.709,-336.324C602.312,-327.703 628.002,-314.364 647.22,-304.386"/>
<polygon fill="midnightblue" stroke="midnightblue" points="649.07,-307.369 656.332,-299.655 645.844,-301.156 649.07,-307.369"/>
</g>
<!-- Node29&#45;&gt;Node10 -->
<g id="edge51" class="edge"><title>Node29&#45;&gt;Node10</title>
<path fill="none" stroke="midnightblue" d="M647.119,-336.083C651.408,-328.613 657.658,-317.724 662.942,-308.52"/>
<polygon fill="midnightblue" stroke="midnightblue" points="666.033,-310.166 667.976,-299.751 659.962,-306.681 666.033,-310.166"/>
</g>
</g>
</svg>
        <g id="navigator" transform="translate(0 0)" fill="#404254">
                <rect fill="#f2f5e9" fill-opacity="0.5" stroke="#606060" stroke-width=".5" x="0" y="0" width="60" height="60"/>
                <use id="zoomplus" xlink:href="#zoomPlus" x="17" y="9" onmousedown="handleZoom(evt,'in')"/>
                <use id="zoomminus" xlink:href="#zoomMin" x="42" y="9" onmousedown="handleZoom(evt,'out')"/>
                <use id="reset" xlink:href="#resetDef" x="30" y="36" onmousedown="handleReset()"/>
                <g id="arrowUp" xlink:href="#dirArrow" transform="translate(30 24)" onmousedown="handlePan(0,-1)">
                  <use xlink:href="#rim" fill="#404040">
                        <set attributeName="fill" to="#808080" begin="arrowUp.mouseover" end="arrowUp.mouseout"/>
                  </use>
                  <path fill="none" stroke="white" stroke-width="1.5" d="M0,-3.0v7 M-2.5,-0.5L0,-3.0L2.5,-0.5"/>
                </g>
                <g id="arrowRight" xlink:href="#dirArrow" transform="rotate(90) translate(36 -43)" onmousedown="handlePan(1,0)">
                  <use xlink:href="#rim" fill="#404040">
                        <set attributeName="fill" to="#808080" begin="arrowRight.mouseover" end="arrowRight.mouseout"/>
                  </use>
                  <path fill="none" stroke="white" stroke-width="1.5" d="M0,-3.0v7 M-2.5,-0.5L0,-3.0L2.5,-0.5"/>
                </g>
                <g id="arrowDown" xlink:href="#dirArrow" transform="rotate(180) translate(-30 -48)" onmousedown="handlePan(0,1)">
                  <use xlink:href="#rim" fill="#404040">
                        <set attributeName="fill" to="#808080" begin="arrowDown.mouseover" end="arrowDown.mouseout"/>
                  </use>
                  <path fill="none" stroke="white" stroke-width="1.5" d="M0,-3.0v7 M-2.5,-0.5L0,-3.0L2.5,-0.5"/>
                </g>
                <g id="arrowLeft" xlink:href="#dirArrow" transform="rotate(270) translate(-36 17)" onmousedown="handlePan(-1,0)">
                  <use xlink:href="#rim" fill="#404040">
                        <set attributeName="fill" to="#808080" begin="arrowLeft.mouseover" end="arrowLeft.mouseout"/>
                  </use>
                  <path fill="none" stroke="white" stroke-width="1.5" d="M0,-3.0v7 M-2.5,-0.5L0,-3.0L2.5,-0.5"/>
                </g>
        </g>
        <svg viewBox="0 0 15 15" width="100%" height="30px" preserveAspectRatio="xMaxYMin meet">
         <g id="arrow_out" transform="scale(0.3 0.3)">
          <a xlink:href="de__spec_8h__incl_org.svg" target="_base">
           <rect id="button" ry="5" rx="5" y="6" x="6" height="38" width="38"
                fill="#f2f5e9" fill-opacity="0.5" stroke="#606060" stroke-width="1.0"/>
           <path id="arrow"
             d="M 11.500037,31.436501 C 11.940474,20.09759 22.043105,11.32322 32.158766,21.979434 L 37.068811,17.246167 C 37.068811,17.246167 37.088388,32 37.088388,32 L 22.160133,31.978069 C 22.160133,31.978069 26.997745,27.140456 26.997745,27.140456 C 18.528582,18.264221 13.291696,25.230495 11.500037,31.436501 z"
             style="fill:#404040;"/>
          </a>
         </g>
        </svg>
</svg>
