<?xml version="1.0" encoding="UTF-8" standalone="no"?>
<!DOCTYPE svg PUBLIC "-//W3C//DTD SVG 1.1//EN"
 "http://www.w3.org/Graphics/SVG/1.1/DTD/svg11.dtd">
<!-- Generated by graphviz version 2.38.0 (20140413.2041)
 -->
<!-- Title: src/debug.h Pages: 1 -->
<!--zoomable 308 -->
<svg id="main" version="1.1" xmlns="http://www.w3.org/2000/svg" xmlns:xlink="http://www.w3.org/1999/xlink" xml:space="preserve" onload="init(evt)">
<style type="text/css"><![CDATA[
.edge:hover path { stroke: red; }
.edge:hover polygon { stroke: red; fill: red; }
]]></style>
<script type="text/javascript"><![CDATA[
var edges = document.getElementsByTagName('g');
if (edges && edges.length) {
  for (var i=0;i<edges.length;i++) {
    if (edges[i].id.substr(0,4)=='edge') {
      edges[i].setAttribute('class','edge');
    }
  }
}
]]></script>
        <defs>
                <circle id="rim" cx="0" cy="0" r="7"/>
                <circle id="rim2" cx="0" cy="0" r="3.5"/>
                <g id="zoomPlus">
                        <use xlink:href="#rim" fill="#404040">
                                <set attributeName="fill" to="#808080" begin="zoomplus.mouseover" end="zoomplus.mouseout"/>
                        </use>
                        <path d="M-4,0h8M0,-4v8" fill="none" stroke="white" stroke-width="1.5" pointer-events="none"/>
                </g>
                <g id="zoomMin">
                        <use xlink:href="#rim" fill="#404040">
                                <set attributeName="fill" to="#808080" begin="zoomminus.mouseover" end="zoomminus.mouseout"/>
                        </use>
                        <path d="M-4,0h8" fill="none" stroke="white" stroke-width="1.5" pointer-events="none"/>
                </g>
                <g id="dirArrow">
                        <path fill="none" stroke="white" stroke-width="1.5" d="M0,-3.0v7 M-2.5,-0.5L0,-3.0L2.5,-0.5"/>
                </g>
               <g id="resetDef">
                       <use xlink:href="#rim2" fill="#404040">
                               <set attributeName="fill" to="#808080" begin="reset.mouseover" end="reset.mouseout"/>
                       </use>
               </g>
        </defs>

<script type="text/javascript">
var viewWidth = 1371;
var viewHeight = 308;
var sectionId = 'dynsection-1';
</script>
<script xlink:href="svgpan.js"/>
<svg id="graph" class="graph">
<g id="viewport">
<title>src/debug.h</title>
<polygon fill="white" stroke="none" points="-4,4 -4,-304 1366.5,-304 1366.5,4 -4,4"/>
<!-- Node1 -->
<g id="node1" class="node"><title>Node1</title>
<polygon fill="#bfbfbf" stroke="black" points="763,-280.5 763,-299.5 831,-299.5 831,-280.5 763,-280.5"/>
<text text-anchor="middle" x="797" y="-287.5" font-family="Helvetica,sans-Serif" font-size="10.00">src/debug.h</text>
</g>
<!-- Node2 -->
<g id="node2" class="node"><title>Node2</title>
<g id="a_node2"><a xlink:href="ceptr_8h_source.html" target="_top" xlink:title="src/ceptr.h">
<polygon fill="white" stroke="black" points="636.5,-224.5 636.5,-243.5 699.5,-243.5 699.5,-224.5 636.5,-224.5"/>
<text text-anchor="middle" x="668" y="-231.5" font-family="Helvetica,sans-Serif" font-size="10.00">src/ceptr.h</text>
</a>
</g>
</g>
<!-- Node1&#45;&gt;Node2 -->
<g id="edge1" class="edge"><title>Node1&#45;&gt;Node2</title>
<path fill="none" stroke="midnightblue" d="M767.146,-276.503C742.962,-266.38 709.538,-252.388 688.345,-243.516"/>
<polygon fill="midnightblue" stroke="midnightblue" points="765.984,-279.811 776.56,-280.444 768.687,-273.354 765.984,-279.811"/>
</g>
<!-- Node5 -->
<g id="node5" class="node"><title>Node5</title>
<g id="a_node5"><a xlink:href="process_8c.html" target="_top" xlink:title="implementation of ceptr processing: instructions and run tree reduction ">
<polygon fill="white" stroke="black" points="0,-112.5 0,-131.5 76,-131.5 76,-112.5 0,-112.5"/>
<text text-anchor="middle" x="38" y="-119.5" font-family="Helvetica,sans-Serif" font-size="10.00">src/process.c</text>
</a>
</g>
</g>
<!-- Node1&#45;&gt;Node5 -->
<g id="edge42" class="edge"><title>Node1&#45;&gt;Node5</title>
<path fill="none" stroke="midnightblue" d="M752.713,-285.237C651.515,-275.86 396.225,-247.779 191,-188 139.462,-172.988 82.0475,-145.477 54.5023,-131.555"/>
<polygon fill="midnightblue" stroke="midnightblue" points="752.593,-288.74 762.869,-286.163 753.228,-281.769 752.593,-288.74"/>
</g>
<!-- Node22 -->
<g id="node22" class="node"><title>Node22</title>
<g id="a_node22"><a xlink:href="debug_8c.html" target="_top" xlink:title="src/debug.c">
<polygon fill="white" stroke="black" points="718,-224.5 718,-243.5 786,-243.5 786,-224.5 718,-224.5"/>
<text text-anchor="middle" x="752" y="-231.5" font-family="Helvetica,sans-Serif" font-size="10.00">src/debug.c</text>
</a>
</g>
</g>
<!-- Node1&#45;&gt;Node22 -->
<g id="edge41" class="edge"><title>Node1&#45;&gt;Node22</title>
<path fill="none" stroke="midnightblue" d="M782.953,-272.144C775.113,-262.736 765.671,-251.405 759.293,-243.751"/>
<polygon fill="midnightblue" stroke="midnightblue" points="780.479,-274.641 789.569,-280.083 785.856,-270.16 780.479,-274.641"/>
</g>
<!-- Node23 -->
<g id="node23" class="node"><title>Node23</title>
<g id="a_node23"><a xlink:href="receptor_8c.html" target="_top" xlink:title="receptor implementation ">
<polygon fill="white" stroke="black" points="804.5,-224.5 804.5,-243.5 881.5,-243.5 881.5,-224.5 804.5,-224.5"/>
<text text-anchor="middle" x="843" y="-231.5" font-family="Helvetica,sans-Serif" font-size="10.00">src/receptor.c</text>
</a>
</g>
</g>
<!-- Node1&#45;&gt;Node23 -->
<g id="edge43" class="edge"><title>Node1&#45;&gt;Node23</title>
<path fill="none" stroke="midnightblue" d="M811.114,-272.431C819.176,-262.967 828.959,-251.483 835.545,-243.751"/>
<polygon fill="midnightblue" stroke="midnightblue" points="808.416,-270.201 804.596,-280.083 813.745,-274.74 808.416,-270.201"/>
</g>
<!-- Node24 -->
<g id="node24" class="node"><title>Node24</title>
<g id="a_node24"><a xlink:href="semtrex_8c.html" target="_top" xlink:title="semtrex implementation ">
<polygon fill="white" stroke="black" points="899.5,-224.5 899.5,-243.5 976.5,-243.5 976.5,-224.5 899.5,-224.5"/>
<text text-anchor="middle" x="938" y="-231.5" font-family="Helvetica,sans-Serif" font-size="10.00">src/semtrex.c</text>
</a>
</g>
</g>
<!-- Node1&#45;&gt;Node24 -->
<g id="edge44" class="edge"><title>Node1&#45;&gt;Node24</title>
<path fill="none" stroke="midnightblue" d="M828.929,-276.772C855.414,-266.629 892.392,-252.467 915.763,-243.516"/>
<polygon fill="midnightblue" stroke="midnightblue" points="827.429,-273.599 819.342,-280.444 829.932,-280.136 827.429,-273.599"/>
</g>
<!-- Node25 -->
<g id="node25" class="node"><title>Node25</title>
<g id="a_node25"><a xlink:href="stream_8c.html" target="_top" xlink:title="stream abstraction implementation ">
<polygon fill="white" stroke="black" points="994.5,-224.5 994.5,-243.5 1065.5,-243.5 1065.5,-224.5 994.5,-224.5"/>
<text text-anchor="middle" x="1030" y="-231.5" font-family="Helvetica,sans-Serif" font-size="10.00">src/stream.c</text>
</a>
</g>
</g>
<!-- Node1&#45;&gt;Node25 -->
<g id="edge45" class="edge"><title>Node1&#45;&gt;Node25</title>
<path fill="none" stroke="midnightblue" d="M841.315,-278.729C885.732,-268.436 953.252,-252.787 994.331,-243.267"/>
<polygon fill="midnightblue" stroke="midnightblue" points="840.332,-275.365 831.38,-281.032 841.912,-282.184 840.332,-275.365"/>
</g>
<!-- Node3 -->
<g id="node3" class="node"><title>Node3</title>
<g id="a_node3"><a xlink:href="ceptr_8c.html" target="_top" xlink:title="implements main() entry point for the ceptr node ">
<polygon fill="white" stroke="black" points="923.5,-168.5 923.5,-187.5 986.5,-187.5 986.5,-168.5 923.5,-168.5"/>
<text text-anchor="middle" x="955" y="-175.5" font-family="Helvetica,sans-Serif" font-size="10.00">src/ceptr.c</text>
</a>
</g>
</g>
<!-- Node2&#45;&gt;Node3 -->
<g id="edge2" class="edge"><title>Node2&#45;&gt;Node3</title>
<path fill="none" stroke="midnightblue" d="M709.748,-223.926C801.437,-206.048 826.349,-205.308 914,-188 917.003,-187.407 920.124,-186.766 923.244,-186.11"/>
<polygon fill="midnightblue" stroke="midnightblue" points="708.894,-220.527 699.756,-225.89 710.244,-227.396 708.894,-220.527"/>
</g>
<!-- Node4 -->
<g id="node4" class="node"><title>Node4</title>
<g id="a_node4"><a xlink:href="spec__utils_8h.html" target="_top" xlink:title="spec/spec_utils.h">
<polygon fill="white" stroke="black" points="231.5,-168.5 231.5,-187.5 324.5,-187.5 324.5,-168.5 231.5,-168.5"/>
<text text-anchor="middle" x="278" y="-175.5" font-family="Helvetica,sans-Serif" font-size="10.00">spec/spec_utils.h</text>
</a>
</g>
</g>
<!-- Node2&#45;&gt;Node4 -->
<g id="edge3" class="edge"><title>Node2&#45;&gt;Node4</title>
<path fill="none" stroke="midnightblue" d="M626.173,-227.209C552.797,-217.049 401.406,-196.087 324.715,-185.468"/>
<polygon fill="midnightblue" stroke="midnightblue" points="626.029,-230.722 636.415,-228.627 626.99,-223.788 626.029,-230.722"/>
</g>
<!-- Node7 -->
<g id="node7" class="node"><title>Node7</title>
<g id="a_node7"><a xlink:href="ceptr__specs_8c.html" target="_top" xlink:title="implements a main() entry point for running all the tests ">
<polygon fill="white" stroke="black" points="737,-0.5 737,-19.5 839,-19.5 839,-0.5 737,-0.5"/>
<text text-anchor="middle" x="788" y="-7.5" font-family="Helvetica,sans-Serif" font-size="10.00">spec/ceptr_specs.c</text>
</a>
</g>
</g>
<!-- Node2&#45;&gt;Node7 -->
<g id="edge22" class="edge"><title>Node2&#45;&gt;Node7</title>
<path fill="none" stroke="midnightblue" d="M665.746,-214.02C663.741,-188.196 664.042,-141.8 687,-112 711.291,-80.4698 742.733,-105.904 769,-76 783.276,-59.747 786.846,-33.2786 787.724,-19.6757"/>
<polygon fill="midnightblue" stroke="midnightblue" points="662.295,-214.695 666.756,-224.304 669.262,-214.01 662.295,-214.695"/>
</g>
<!-- Node8 -->
<g id="node8" class="node"><title>Node8</title>
<g id="a_node8"><a xlink:href="http__example_8h.html" target="_top" xlink:title="spec/http_example.h">
<polygon fill="white" stroke="black" points="418.5,-112.5 418.5,-131.5 525.5,-131.5 525.5,-112.5 418.5,-112.5"/>
<text text-anchor="middle" x="472" y="-119.5" font-family="Helvetica,sans-Serif" font-size="10.00">spec/http_example.h</text>
</a>
</g>
</g>
<!-- Node2&#45;&gt;Node8 -->
<g id="edge26" class="edge"><title>Node2&#45;&gt;Node8</title>
<path fill="none" stroke="midnightblue" d="M626.419,-223.217C600.36,-215.946 566.762,-204.425 540,-188 514.389,-172.282 490.465,-145.579 479.033,-131.803"/>
<polygon fill="midnightblue" stroke="midnightblue" points="625.798,-226.674 636.364,-225.889 627.615,-219.914 625.798,-226.674"/>
</g>
<!-- Node9 -->
<g id="node9" class="node"><title>Node9</title>
<g id="a_node9"><a xlink:href="tree__spec_8h.html" target="_top" xlink:title="spec/tree_spec.h">
<polygon fill="white" stroke="black" points="668,-56.5 668,-75.5 760,-75.5 760,-56.5 668,-56.5"/>
<text text-anchor="middle" x="714" y="-63.5" font-family="Helvetica,sans-Serif" font-size="10.00">spec/tree_spec.h</text>
</a>
</g>
</g>
<!-- Node2&#45;&gt;Node9 -->
<g id="edge25" class="edge"><title>Node2&#45;&gt;Node9</title>
<path fill="none" stroke="midnightblue" d="M659.87,-214.672C650.208,-189.978 637.359,-145.282 654,-112 662.443,-95.113 680.571,-82.9191 694.704,-75.5195"/>
<polygon fill="midnightblue" stroke="midnightblue" points="656.77,-216.333 663.844,-224.22 663.233,-213.643 656.77,-216.333"/>
</g>
<!-- Node10 -->
<g id="node10" class="node"><title>Node10</title>
<g id="a_node10"><a xlink:href="mtree__spec_8h.html" target="_top" xlink:title="spec/mtree_spec.h">
<polygon fill="white" stroke="black" points="258,-56.5 258,-75.5 358,-75.5 358,-56.5 258,-56.5"/>
<text text-anchor="middle" x="308" y="-63.5" font-family="Helvetica,sans-Serif" font-size="10.00">spec/mtree_spec.h</text>
</a>
</g>
</g>
<!-- Node2&#45;&gt;Node10 -->
<g id="edge27" class="edge"><title>Node2&#45;&gt;Node10</title>
<path fill="none" stroke="midnightblue" d="M626.36,-223.606C594.449,-215.786 549.649,-203.45 512,-188 463.795,-168.218 453.828,-158.562 409,-132 376.53,-112.76 339.485,-88.2337 320.566,-75.514"/>
<polygon fill="midnightblue" stroke="midnightblue" points="625.701,-227.048 636.243,-225.985 627.34,-220.242 625.701,-227.048"/>
</g>
<!-- Node11 -->
<g id="node11" class="node"><title>Node11</title>
<g id="a_node11"><a xlink:href="receptor__spec_8h.html" target="_top" xlink:title="spec/receptor_spec.h">
<polygon fill="white" stroke="black" points="414,-56.5 414,-75.5 524,-75.5 524,-56.5 414,-56.5"/>
<text text-anchor="middle" x="469" y="-63.5" font-family="Helvetica,sans-Serif" font-size="10.00">spec/receptor_spec.h</text>
</a>
</g>
</g>
<!-- Node2&#45;&gt;Node11 -->
<g id="edge34" class="edge"><title>Node2&#45;&gt;Node11</title>
<path fill="none" stroke="midnightblue" d="M651.883,-217.192C627.302,-193.376 578.588,-147.326 534,-112 516.895,-98.4482 495.963,-84.3712 482.557,-75.6491"/>
<polygon fill="midnightblue" stroke="midnightblue" points="649.647,-219.899 659.253,-224.368 654.53,-214.884 649.647,-219.899"/>
</g>
<!-- Node12 -->
<g id="node12" class="node"><title>Node12</title>
<g id="a_node12"><a xlink:href="vmhost__spec_8h.html" target="_top" xlink:title="spec/vmhost_spec.h">
<polygon fill="white" stroke="black" points="542.5,-56.5 542.5,-75.5 649.5,-75.5 649.5,-56.5 542.5,-56.5"/>
<text text-anchor="middle" x="596" y="-63.5" font-family="Helvetica,sans-Serif" font-size="10.00">spec/vmhost_spec.h</text>
</a>
</g>
</g>
<!-- Node2&#45;&gt;Node12 -->
<g id="edge39" class="edge"><title>Node2&#45;&gt;Node12</title>
<path fill="none" stroke="midnightblue" d="M657.926,-215.223C653.443,-207.041 648.233,-197.139 644,-188 624.907,-146.783 606.205,-95.6965 599.051,-75.6479"/>
<polygon fill="midnightblue" stroke="midnightblue" points="654.994,-217.152 662.918,-224.185 661.109,-213.746 654.994,-217.152"/>
</g>
<!-- Node13 -->
<g id="node13" class="node"><title>Node13</title>
<g id="a_node13"><a xlink:href="profile__example_8h.html" target="_top" xlink:title="spec/profile_example.h">
<polygon fill="white" stroke="black" points="94.5,-112.5 94.5,-131.5 211.5,-131.5 211.5,-112.5 94.5,-112.5"/>
<text text-anchor="middle" x="153" y="-119.5" font-family="Helvetica,sans-Serif" font-size="10.00">spec/profile_example.h</text>
</a>
</g>
</g>
<!-- Node2&#45;&gt;Node13 -->
<g id="edge40" class="edge"><title>Node2&#45;&gt;Node13</title>
<path fill="none" stroke="midnightblue" d="M625.937,-232.182C529.13,-229.755 293.4,-220.578 222,-188 193.852,-175.157 169.834,-146.122 159.061,-131.604"/>
<polygon fill="midnightblue" stroke="midnightblue" points="626.142,-235.688 636.223,-232.427 626.309,-228.69 626.142,-235.688"/>
</g>
<!-- Node15 -->
<g id="node15" class="node"><title>Node15</title>
<g id="a_node15"><a xlink:href="accumulator__spec_8h_source.html" target="_top" xlink:title="spec/accumulator_spec.h">
<polygon fill="white" stroke="black" points="696,-112.5 696,-131.5 824,-131.5 824,-112.5 696,-112.5"/>
<text text-anchor="middle" x="760" y="-119.5" font-family="Helvetica,sans-Serif" font-size="10.00">spec/accumulator_spec.h</text>
</a>
</g>
</g>
<!-- Node2&#45;&gt;Node15 -->
<g id="edge20" class="edge"><title>Node2&#45;&gt;Node15</title>
<path fill="none" stroke="midnightblue" d="M681.728,-216.586C701.563,-192.871 737.528,-149.869 752.814,-131.591"/>
<polygon fill="midnightblue" stroke="midnightblue" points="678.95,-214.452 675.219,-224.368 684.319,-218.943 678.95,-214.452"/>
</g>
<!-- Node16 -->
<g id="node16" class="node"><title>Node16</title>
<g id="a_node16"><a xlink:href="test__framework_8h.html" target="_top" xlink:title="implements the testing harness ">
<polygon fill="white" stroke="black" points="842,-112.5 842,-131.5 958,-131.5 958,-112.5 842,-112.5"/>
<text text-anchor="middle" x="900" y="-119.5" font-family="Helvetica,sans-Serif" font-size="10.00">spec/test_framework.h</text>
</a>
</g>
</g>
<!-- Node2&#45;&gt;Node16 -->
<g id="edge23" class="edge"><title>Node2&#45;&gt;Node16</title>
<path fill="none" stroke="midnightblue" d="M687.231,-218.427C706.763,-204.135 738.285,-182.444 768,-168 800.772,-152.07 840.632,-139.317 867.92,-131.512"/>
<polygon fill="midnightblue" stroke="midnightblue" points="685.097,-215.652 679.15,-224.42 689.267,-221.274 685.097,-215.652"/>
</g>
<!-- Node17 -->
<g id="node17" class="node"><title>Node17</title>
<g id="a_node17"><a xlink:href="stream__spec_8h.html" target="_top" xlink:title="spec/stream_spec.h">
<polygon fill="white" stroke="black" points="892.5,-56.5 892.5,-75.5 997.5,-75.5 997.5,-56.5 892.5,-56.5"/>
<text text-anchor="middle" x="945" y="-63.5" font-family="Helvetica,sans-Serif" font-size="10.00">spec/stream_spec.h</text>
</a>
</g>
</g>
<!-- Node2&#45;&gt;Node17 -->
<g id="edge28" class="edge"><title>Node2&#45;&gt;Node17</title>
<path fill="none" stroke="midnightblue" d="M696.753,-220.323C716.195,-211.589 742.354,-199.524 765,-188 781.313,-179.699 783.872,-174.453 801,-168 871.645,-141.383 919.612,-190.767 967,-132 980.611,-115.121 963.749,-89.3889 952.864,-75.9227"/>
<polygon fill="midnightblue" stroke="midnightblue" points="695.227,-217.171 687.523,-224.445 698.081,-223.562 695.227,-217.171"/>
</g>
<!-- Node18 -->
<g id="node18" class="node"><title>Node18</title>
<g id="a_node18"><a xlink:href="label__spec_8h.html" target="_top" xlink:title="spec/label_spec.h">
<polygon fill="white" stroke="black" points="810.5,-168.5 810.5,-187.5 905.5,-187.5 905.5,-168.5 810.5,-168.5"/>
<text text-anchor="middle" x="858" y="-175.5" font-family="Helvetica,sans-Serif" font-size="10.00">spec/label_spec.h</text>
</a>
</g>
</g>
<!-- Node2&#45;&gt;Node18 -->
<g id="edge30" class="edge"><title>Node2&#45;&gt;Node18</title>
<path fill="none" stroke="midnightblue" d="M707.764,-221.699C743.623,-211.507 795.571,-196.743 828.035,-187.516"/>
<polygon fill="midnightblue" stroke="midnightblue" points="706.768,-218.343 698.106,-224.444 708.682,-225.076 706.768,-218.343"/>
</g>
<!-- Node19 -->
<g id="node19" class="node"><title>Node19</title>
<g id="a_node19"><a xlink:href="semtrex__spec_8h.html" target="_top" xlink:title="spec/semtrex_spec.h">
<polygon fill="white" stroke="black" points="1005,-168.5 1005,-187.5 1115,-187.5 1115,-168.5 1005,-168.5"/>
<text text-anchor="middle" x="1060" y="-175.5" font-family="Helvetica,sans-Serif" font-size="10.00">spec/semtrex_spec.h</text>
</a>
</g>
</g>
<!-- Node2&#45;&gt;Node19 -->
<g id="edge32" class="edge"><title>Node2&#45;&gt;Node19</title>
<path fill="none" stroke="midnightblue" d="M709.856,-223.997C836.976,-202.36 871.215,-204.36 995,-188 998.162,-187.582 1001.41,-187.148 1004.69,-186.706"/>
<polygon fill="midnightblue" stroke="midnightblue" points="708.991,-220.594 699.728,-225.737 710.176,-227.493 708.991,-220.594"/>
</g>
<!-- Node20 -->
<g id="node20" class="node"><title>Node20</title>
<g id="a_node20"><a xlink:href="process__spec_8h.html" target="_top" xlink:title="spec/process_spec.h">
<polygon fill="white" stroke="black" points="1133,-168.5 1133,-187.5 1243,-187.5 1243,-168.5 1133,-168.5"/>
<text text-anchor="middle" x="1188" y="-175.5" font-family="Helvetica,sans-Serif" font-size="10.00">spec/process_spec.h</text>
</a>
</g>
</g>
<!-- Node2&#45;&gt;Node20 -->
<g id="edge35" class="edge"><title>Node2&#45;&gt;Node20</title>
<path fill="none" stroke="midnightblue" d="M709.717,-224.097C893.752,-196.534 943.28,-208.531 1124,-188 1126.9,-187.671 1129.87,-187.315 1132.87,-186.943"/>
<polygon fill="midnightblue" stroke="midnightblue" points="709.07,-220.655 699.708,-225.614 710.12,-227.575 709.07,-220.655"/>
</g>
<!-- Node21 -->
<g id="node21" class="node"><title>Node21</title>
<g id="a_node21"><a xlink:href="scape__spec_8h.html" target="_top" xlink:title="spec/scape_spec.h">
<polygon fill="white" stroke="black" points="1261.5,-168.5 1261.5,-187.5 1362.5,-187.5 1362.5,-168.5 1261.5,-168.5"/>
<text text-anchor="middle" x="1312" y="-175.5" font-family="Helvetica,sans-Serif" font-size="10.00">spec/scape_spec.h</text>
</a>
</g>
</g>
<!-- Node2&#45;&gt;Node21 -->
<g id="edge37" class="edge"><title>Node2&#45;&gt;Node21</title>
<path fill="none" stroke="midnightblue" d="M709.799,-224.124C950.216,-190.622 1014.82,-213.606 1252,-188 1255.04,-187.672 1258.16,-187.303 1261.3,-186.906"/>
<polygon fill="midnightblue" stroke="midnightblue" points="709.111,-220.686 699.699,-225.55 710.09,-227.617 709.111,-220.686"/>
</g>
<!-- Node4&#45;&gt;Node5 -->
<g id="edge4" class="edge"><title>Node4&#45;&gt;Node5</title>
<path fill="none" stroke="midnightblue" d="M230.077,-166.217C184.726,-156.013 117.558,-140.901 75.8508,-131.516"/>
<polygon fill="midnightblue" stroke="midnightblue" points="229.447,-169.663 239.971,-168.444 230.984,-162.834 229.447,-169.663"/>
</g>
<!-- Node6 -->
<g id="node6" class="node"><title>Node6</title>
<g id="a_node6"><a xlink:href="def__spec_8h.html" target="_top" xlink:title="spec/def_spec.h">
<polygon fill="white" stroke="black" points="150.5,-56.5 150.5,-75.5 239.5,-75.5 239.5,-56.5 150.5,-56.5"/>
<text text-anchor="middle" x="195" y="-63.5" font-family="Helvetica,sans-Serif" font-size="10.00">spec/def_spec.h</text>
</a>
</g>
</g>
<!-- Node4&#45;&gt;Node6 -->
<g id="edge5" class="edge"><title>Node4&#45;&gt;Node6</title>
<path fill="none" stroke="midnightblue" d="M265.378,-160.272C247.437,-136.494 215.213,-93.7889 201.483,-75.5914"/>
<polygon fill="midnightblue" stroke="midnightblue" points="262.67,-162.494 271.487,-168.368 268.258,-158.278 262.67,-162.494"/>
</g>
<!-- Node4&#45;&gt;Node8 -->
<g id="edge7" class="edge"><title>Node4&#45;&gt;Node8</title>
<path fill="none" stroke="midnightblue" d="M318.601,-165.699C355.215,-155.507 408.257,-140.743 441.404,-131.516"/>
<polygon fill="midnightblue" stroke="midnightblue" points="317.435,-162.39 308.74,-168.444 319.312,-169.134 317.435,-162.39"/>
</g>
<!-- Node4&#45;&gt;Node13 -->
<g id="edge17" class="edge"><title>Node4&#45;&gt;Node13</title>
<path fill="none" stroke="midnightblue" d="M248.759,-164.368C225.35,-154.255 193.159,-140.349 172.714,-131.516"/>
<polygon fill="midnightblue" stroke="midnightblue" points="247.625,-167.691 258.193,-168.444 250.401,-161.265 247.625,-167.691"/>
</g>
<!-- Node14 -->
<g id="node14" class="node"><title>Node14</title>
<g id="a_node14"><a xlink:href="spec__utils_8c.html" target="_top" xlink:title="spec/spec_utils.c">
<polygon fill="white" stroke="black" points="268.5,-112.5 268.5,-131.5 361.5,-131.5 361.5,-112.5 268.5,-112.5"/>
<text text-anchor="middle" x="315" y="-119.5" font-family="Helvetica,sans-Serif" font-size="10.00">spec/spec_utils.c</text>
</a>
</g>
</g>
<!-- Node4&#45;&gt;Node14 -->
<g id="edge19" class="edge"><title>Node4&#45;&gt;Node14</title>
<path fill="none" stroke="midnightblue" d="M289.946,-159.566C296.312,-150.275 303.867,-139.248 309.004,-131.751"/>
<polygon fill="midnightblue" stroke="midnightblue" points="286.875,-157.855 284.11,-168.083 292.649,-161.812 286.875,-157.855"/>
</g>
<!-- Node6&#45;&gt;Node7 -->
<g id="edge6" class="edge"><title>Node6&#45;&gt;Node7</title>
<path fill="none" stroke="midnightblue" d="M249.681,-56.0185C435.136,-33.1962 642.767,-19.455 736.951,-13.865"/>
<polygon fill="midnightblue" stroke="midnightblue" points="249.24,-52.5462 239.748,-57.2523 250.103,-59.4928 249.24,-52.5462"/>
</g>
<!-- Node8&#45;&gt;Node7 -->
<g id="edge16" class="edge"><title>Node8&#45;&gt;Node7</title>
<path fill="none" stroke="midnightblue" d="M442.079,-107.874C417.103,-95.1393 388.096,-75.0063 405,-56 426.69,-31.6118 637.559,-18.2678 736.82,-13.2933"/>
<polygon fill="midnightblue" stroke="midnightblue" points="440.826,-111.156 451.35,-112.374 443.883,-104.858 440.826,-111.156"/>
</g>
<!-- Node8&#45;&gt;Node9 -->
<g id="edge8" class="edge"><title>Node8&#45;&gt;Node9</title>
<path fill="none" stroke="midnightblue" d="M520.323,-110.217C566.051,-100.013 633.779,-84.9006 675.834,-75.5164"/>
<polygon fill="midnightblue" stroke="midnightblue" points="519.343,-106.85 510.346,-112.444 520.868,-113.682 519.343,-106.85"/>
</g>
<!-- Node8&#45;&gt;Node10 -->
<g id="edge10" class="edge"><title>Node8&#45;&gt;Node10</title>
<path fill="none" stroke="midnightblue" d="M436.48,-109.304C405.578,-99.1294 361.527,-84.6246 333.865,-75.5164"/>
<polygon fill="midnightblue" stroke="midnightblue" points="435.421,-112.64 446.014,-112.444 437.61,-105.992 435.421,-112.64"/>
</g>
<!-- Node8&#45;&gt;Node11 -->
<g id="edge12" class="edge"><title>Node8&#45;&gt;Node11</title>
<path fill="none" stroke="midnightblue" d="M470.934,-101.805C470.439,-92.9102 469.877,-82.7798 469.486,-75.7511"/>
<polygon fill="midnightblue" stroke="midnightblue" points="467.455,-102.293 471.505,-112.083 474.444,-101.904 467.455,-102.293"/>
</g>
<!-- Node8&#45;&gt;Node12 -->
<g id="edge14" class="edge"><title>Node8&#45;&gt;Node12</title>
<path fill="none" stroke="midnightblue" d="M501.007,-108.368C524.229,-98.2553 556.163,-84.3486 576.444,-75.5164"/>
<polygon fill="midnightblue" stroke="midnightblue" points="499.419,-105.242 491.648,-112.444 502.214,-111.66 499.419,-105.242"/>
</g>
<!-- Node9&#45;&gt;Node7 -->
<g id="edge9" class="edge"><title>Node9&#45;&gt;Node7</title>
<path fill="none" stroke="midnightblue" d="M734.034,-50.3804C747.409,-40.6204 764.559,-28.1057 775.894,-19.8339"/>
<polygon fill="midnightblue" stroke="midnightblue" points="731.904,-47.602 725.889,-56.324 736.03,-53.2565 731.904,-47.602"/>
</g>
<!-- Node10&#45;&gt;Node7 -->
<g id="edge11" class="edge"><title>Node10&#45;&gt;Node7</title>
<path fill="none" stroke="midnightblue" d="M368.205,-56.4778C369.481,-56.3153 370.747,-56.1558 372,-56 503.2,-39.683 658.11,-23.8223 736.704,-16.0162"/>
<polygon fill="midnightblue" stroke="midnightblue" points="367.751,-53.0073 358.288,-57.7735 368.658,-59.9483 367.751,-53.0073"/>
</g>
<!-- Node11&#45;&gt;Node7 -->
<g id="edge13" class="edge"><title>Node11&#45;&gt;Node7</title>
<path fill="none" stroke="midnightblue" d="M529.684,-54.7275C589.966,-44.523 681.322,-29.0583 737.69,-19.5164"/>
<polygon fill="midnightblue" stroke="midnightblue" points="528.822,-51.3235 519.546,-56.4435 529.99,-58.2253 528.822,-51.3235"/>
</g>
<!-- Node12&#45;&gt;Node7 -->
<g id="edge15" class="edge"><title>Node12&#45;&gt;Node7</title>
<path fill="none" stroke="midnightblue" d="M636.183,-53.6986C672.419,-43.507 724.914,-28.7429 757.719,-19.5164"/>
<polygon fill="midnightblue" stroke="midnightblue" points="635.102,-50.3667 626.423,-56.4435 636.997,-57.1053 635.102,-50.3667"/>
</g>
<!-- Node13&#45;&gt;Node7 -->
<g id="edge18" class="edge"><title>Node13&#45;&gt;Node7</title>
<path fill="none" stroke="midnightblue" d="M142.421,-103.125C135.356,-88.6051 129.297,-68.5447 141,-56 181.324,-12.7744 590.866,-10.1847 736.743,-10.6497"/>
<polygon fill="midnightblue" stroke="midnightblue" points="139.447,-104.984 147.268,-112.131 145.611,-101.667 139.447,-104.984"/>
</g>
<!-- Node15&#45;&gt;Node7 -->
<g id="edge21" class="edge"><title>Node15&#45;&gt;Node7</title>
<path fill="none" stroke="midnightblue" d="M780.045,-105.528C788.531,-97.709 797.486,-87.4521 802,-76 809.62,-56.6692 799.603,-32.3873 792.984,-19.6737"/>
<polygon fill="midnightblue" stroke="midnightblue" points="777.531,-103.073 772.214,-112.236 782.085,-108.389 777.531,-103.073"/>
</g>
<!-- Node16&#45;&gt;Node7 -->
<g id="edge24" class="edge"><title>Node16&#45;&gt;Node7</title>
<path fill="none" stroke="midnightblue" d="M883.918,-105.205C859.911,-81.6272 815.521,-38.0294 796.748,-19.5914"/>
<polygon fill="midnightblue" stroke="midnightblue" points="881.625,-107.858 891.212,-112.368 886.53,-102.864 881.625,-107.858"/>
</g>
<!-- Node17&#45;&gt;Node7 -->
<g id="edge29" class="edge"><title>Node17&#45;&gt;Node7</title>
<path fill="none" stroke="midnightblue" d="M910.611,-53.172C881.048,-43.0039 839.127,-28.5852 812.761,-19.5164"/>
<polygon fill="midnightblue" stroke="midnightblue" points="909.528,-56.5007 920.123,-56.4435 911.805,-49.8813 909.528,-56.5007"/>
</g>
<!-- Node18&#45;&gt;Node7 -->
<g id="edge31" class="edge"><title>Node18&#45;&gt;Node7</title>
<path fill="none" stroke="midnightblue" d="M912.55,-166.158C947.589,-158.03 988.603,-145.941 1000,-132 1021.45,-105.767 1027.4,-82.2692 1006,-56 985.344,-30.6452 896.714,-19.1469 839.018,-14.2655"/>
<polygon fill="midnightblue" stroke="midnightblue" points="911.37,-162.836 902.383,-168.446 912.907,-169.665 911.37,-162.836"/>
</g>
<!-- Node19&#45;&gt;Node7 -->
<g id="edge33" class="edge"><title>Node19&#45;&gt;Node7</title>
<path fill="none" stroke="midnightblue" d="M1060.44,-158.108C1059.97,-131.276 1054.87,-82.4563 1026,-56 999.301,-31.5295 900.781,-19.6162 839.178,-14.4404"/>
<polygon fill="midnightblue" stroke="midnightblue" points="1056.94,-158.42 1060.41,-168.431 1063.94,-158.443 1056.94,-158.42"/>
</g>
<!-- Node20&#45;&gt;Node7 -->
<g id="edge36" class="edge"><title>Node20&#45;&gt;Node7</title>
<path fill="none" stroke="midnightblue" d="M1174.39,-160.49C1151.38,-133.789 1101.98,-81.5463 1048,-56 980.507,-24.0563 893.556,-14.5474 839.287,-11.8543"/>
<polygon fill="midnightblue" stroke="midnightblue" points="1171.78,-162.82 1180.91,-168.196 1177.12,-158.3 1171.78,-162.82"/>
</g>
<!-- Node21&#45;&gt;Node7 -->
<g id="edge38" class="edge"><title>Node21&#45;&gt;Node7</title>
<path fill="none" stroke="midnightblue" d="M1290.49,-162.67C1250.74,-136.919 1162.32,-82.9907 1080,-56 998.239,-29.1931 898.249,-18.1956 839.028,-13.7991"/>
<polygon fill="midnightblue" stroke="midnightblue" points="1288.8,-165.746 1299.08,-168.292 1292.63,-159.888 1288.8,-165.746"/>
</g>
</g>
</svg>
        <g id="navigator" transform="translate(0 0)" fill="#404254">
                <rect fill="#f2f5e9" fill-opacity="0.5" stroke="#606060" stroke-width=".5" x="0" y="0" width="60" height="60"/>
                <use id="zoomplus" xlink:href="#zoomPlus" x="17" y="9" onmousedown="handleZoom(evt,'in')"/>
                <use id="zoomminus" xlink:href="#zoomMin" x="42" y="9" onmousedown="handleZoom(evt,'out')"/>
                <use id="reset" xlink:href="#resetDef" x="30" y="36" onmousedown="handleReset()"/>
                <g id="arrowUp" xlink:href="#dirArrow" transform="translate(30 24)" onmousedown="handlePan(0,-1)">
                  <use xlink:href="#rim" fill="#404040">
                        <set attributeName="fill" to="#808080" begin="arrowUp.mouseover" end="arrowUp.mouseout"/>
                  </use>
                  <path fill="none" stroke="white" stroke-width="1.5" d="M0,-3.0v7 M-2.5,-0.5L0,-3.0L2.5,-0.5"/>
                </g>
                <g id="arrowRight" xlink:href="#dirArrow" transform="rotate(90) translate(36 -43)" onmousedown="handlePan(1,0)">
                  <use xlink:href="#rim" fill="#404040">
                        <set attributeName="fill" to="#808080" begin="arrowRight.mouseover" end="arrowRight.mouseout"/>
                  </use>
                  <path fill="none" stroke="white" stroke-width="1.5" d="M0,-3.0v7 M-2.5,-0.5L0,-3.0L2.5,-0.5"/>
                </g>
                <g id="arrowDown" xlink:href="#dirArrow" transform="rotate(180) translate(-30 -48)" onmousedown="handlePan(0,1)">
                  <use xlink:href="#rim" fill="#404040">
                        <set attributeName="fill" to="#808080" begin="arrowDown.mouseover" end="arrowDown.mouseout"/>
                  </use>
                  <path fill="none" stroke="white" stroke-width="1.5" d="M0,-3.0v7 M-2.5,-0.5L0,-3.0L2.5,-0.5"/>
                </g>
                <g id="arrowLeft" xlink:href="#dirArrow" transform="rotate(270) translate(-36 17)" onmousedown="handlePan(-1,0)">
                  <use xlink:href="#rim" fill="#404040">
                        <set attributeName="fill" to="#808080" begin="arrowLeft.mouseover" end="arrowLeft.mouseout"/>
                  </use>
                  <path fill="none" stroke="white" stroke-width="1.5" d="M0,-3.0v7 M-2.5,-0.5L0,-3.0L2.5,-0.5"/>
                </g>
        </g>
        <svg viewBox="0 0 15 15" width="100%" height="30px" preserveAspectRatio="xMaxYMin meet">
         <g id="arrow_out" transform="scale(0.3 0.3)">
          <a xlink:href="debug_8h__dep__incl_org.svg" target="_base">
           <rect id="button" ry="5" rx="5" y="6" x="6" height="38" width="38"
                fill="#f2f5e9" fill-opacity="0.5" stroke="#606060" stroke-width="1.0"/>
           <path id="arrow"
             d="M 11.500037,31.436501 C 11.940474,20.09759 22.043105,11.32322 32.158766,21.979434 L 37.068811,17.246167 C 37.068811,17.246167 37.088388,32 37.088388,32 L 22.160133,31.978069 C 22.160133,31.978069 26.997745,27.140456 26.997745,27.140456 C 18.528582,18.264221 13.291696,25.230495 11.500037,31.436501 z"
             style="fill:#404040;"/>
          </a>
         </g>
        </svg>
</svg>
