<?xml version="1.0" encoding="UTF-8" standalone="no"?>
<!DOCTYPE svg PUBLIC "-//W3C//DTD SVG 1.1//EN"
 "http://www.w3.org/Graphics/SVG/1.1/DTD/svg11.dtd">
<!-- Generated by graphviz version 2.38.0 (20140413.2041)
 -->
<!-- Title: src/def.c Pages: 1 -->
<svg width="590pt" height="476pt"
 viewBox="0.00 0.00 589.50 476.00" xmlns="http://www.w3.org/2000/svg" xmlns:xlink="http://www.w3.org/1999/xlink">
<g id="graph0" class="graph" transform="scale(1 1) rotate(0) translate(4 472)">
<title>src/def.c</title>
<polygon fill="white" stroke="none" points="-4,4 -4,-472 585.5,-472 585.5,4 -4,4"/>
<!-- Node1 -->
<g id="node1" class="node"><title>Node1</title>
<polygon fill="#bfbfbf" stroke="black" points="238,-448.5 238,-467.5 293,-467.5 293,-448.5 238,-448.5"/>
<text text-anchor="middle" x="265.5" y="-455.5" font-family="Helvetica,sans-Serif" font-size="10.00">src/def.c</text>
</g>
<!-- Node2 -->
<g id="node2" class="node"><title>Node2</title>
<g id="a_node2"><a xlink:href="tree_8h.html" target="_top" xlink:title="semantic trees header file ">
<polygon fill="white" stroke="black" points="207,-336.5 207,-355.5 248,-355.5 248,-336.5 207,-336.5"/>
<text text-anchor="middle" x="227.5" y="-343.5" font-family="Helvetica,sans-Serif" font-size="10.00">tree.h</text>
</a>
</g>
</g>
<!-- Node1&#45;&gt;Node2 -->
<g id="edge1" class="edge"><title>Node1&#45;&gt;Node2</title>
<path fill="none" stroke="midnightblue" d="M239.996,-448.472C223.513,-441.478 203.361,-429.792 193.5,-412 184.314,-395.426 197.293,-376.159 209.774,-362.93"/>
<polygon fill="midnightblue" stroke="midnightblue" points="212.234,-365.419 216.894,-355.904 207.317,-360.436 212.234,-365.419"/>
</g>
<!-- Node19 -->
<g id="node19" class="node"><title>Node19</title>
<g id="a_node19"><a xlink:href="stream_8h.html" target="_top" xlink:title="streams abstraction header file ">
<polygon fill="white" stroke="black" points="353,-280.5 353,-299.5 408,-299.5 408,-280.5 353,-280.5"/>
<text text-anchor="middle" x="380.5" y="-287.5" font-family="Helvetica,sans-Serif" font-size="10.00">stream.h</text>
</a>
</g>
</g>
<!-- Node1&#45;&gt;Node19 -->
<g id="edge28" class="edge"><title>Node1&#45;&gt;Node19</title>
<path fill="none" stroke="midnightblue" d="M281.878,-448.394C295.597,-440.488 314.905,-427.643 327.5,-412 352.934,-380.413 368.519,-334.73 375.726,-309.496"/>
<polygon fill="midnightblue" stroke="midnightblue" points="379.13,-310.317 378.38,-299.749 372.376,-308.478 379.13,-310.317"/>
</g>
<!-- Node21 -->
<g id="node21" class="node"><title>Node21</title>
<g id="a_node21"><a xlink:href="def_8h.html" target="_top" xlink:title="header file for symbol and structure definition functions ">
<polygon fill="white" stroke="black" points="280.5,-392.5 280.5,-411.5 318.5,-411.5 318.5,-392.5 280.5,-392.5"/>
<text text-anchor="middle" x="299.5" y="-399.5" font-family="Helvetica,sans-Serif" font-size="10.00">def.h</text>
</a>
</g>
</g>
<!-- Node1&#45;&gt;Node21 -->
<g id="edge29" class="edge"><title>Node1&#45;&gt;Node21</title>
<path fill="none" stroke="midnightblue" d="M271.114,-448.083C275.867,-440.534 282.818,-429.495 288.652,-420.23"/>
<polygon fill="midnightblue" stroke="midnightblue" points="291.624,-422.078 293.99,-411.751 285.7,-418.349 291.624,-422.078"/>
</g>
<!-- Node23 -->
<g id="node23" class="node"><title>Node23</title>
<g id="a_node23"><a xlink:href="semtrex_8h.html" target="_top" xlink:title="Semantic tree regular expression header file. ">
<polygon fill="white" stroke="black" points="202.5,-392.5 202.5,-411.5 262.5,-411.5 262.5,-392.5 202.5,-392.5"/>
<text text-anchor="middle" x="232.5" y="-399.5" font-family="Helvetica,sans-Serif" font-size="10.00">semtrex.h</text>
</a>
</g>
</g>
<!-- Node1&#45;&gt;Node23 -->
<g id="edge32" class="edge"><title>Node1&#45;&gt;Node23</title>
<path fill="none" stroke="midnightblue" d="M260.051,-448.083C255.486,-440.613 248.832,-429.724 243.207,-420.52"/>
<polygon fill="midnightblue" stroke="midnightblue" points="246.049,-418.459 237.848,-411.751 240.076,-422.109 246.049,-418.459"/>
</g>
<!-- Node3 -->
<g id="node3" class="node"><title>Node3</title>
<polygon fill="white" stroke="#bfbfbf" points="0,-0.5 0,-19.5 49,-19.5 49,-0.5 0,-0.5"/>
<text text-anchor="middle" x="24.5" y="-7.5" font-family="Helvetica,sans-Serif" font-size="10.00">string.h</text>
</g>
<!-- Node2&#45;&gt;Node3 -->
<g id="edge2" class="edge"><title>Node2&#45;&gt;Node3</title>
<path fill="none" stroke="midnightblue" d="M206.85,-343.315C155.75,-337.905 27.5,-316.236 27.5,-235 27.5,-235 27.5,-235 27.5,-121 27.5,-88.9361 26.2105,-51.6344 25.3224,-29.7446"/>
<polygon fill="midnightblue" stroke="midnightblue" points="28.811,-29.399 24.8922,-19.5556 21.8172,-29.6944 28.811,-29.399"/>
</g>
<!-- Node4 -->
<g id="node4" class="node"><title>Node4</title>
<polygon fill="white" stroke="#bfbfbf" points="238.5,-0.5 238.5,-19.5 286.5,-19.5 286.5,-0.5 238.5,-0.5"/>
<text text-anchor="middle" x="262.5" y="-7.5" font-family="Helvetica,sans-Serif" font-size="10.00">stdlib.h</text>
</g>
<!-- Node2&#45;&gt;Node4 -->
<g id="edge3" class="edge"><title>Node2&#45;&gt;Node4</title>
<path fill="none" stroke="midnightblue" d="M237.427,-336.296C246.477,-327.856 259.604,-314.267 267.5,-300 282.075,-273.667 286.5,-265.098 286.5,-235 286.5,-235 286.5,-235 286.5,-121 286.5,-88.0588 276.099,-50.8177 268.991,-29.2139"/>
<polygon fill="midnightblue" stroke="midnightblue" points="272.285,-28.0282 265.737,-19.6992 265.662,-30.2937 272.285,-28.0282"/>
</g>
<!-- Node5 -->
<g id="node5" class="node"><title>Node5</title>
<g id="a_node5"><a xlink:href="ceptr__error_8h_source.html" target="_top" xlink:title="ceptr_error.h">
<polygon fill="white" stroke="black" points="391,-112.5 391,-131.5 462,-131.5 462,-112.5 391,-112.5"/>
<text text-anchor="middle" x="426.5" y="-119.5" font-family="Helvetica,sans-Serif" font-size="10.00">ceptr_error.h</text>
</a>
</g>
</g>
<!-- Node2&#45;&gt;Node5 -->
<g id="edge4" class="edge"><title>Node2&#45;&gt;Node5</title>
<path fill="none" stroke="midnightblue" d="M245.674,-336.41C261.34,-328.428 283.977,-315.463 300.5,-300 353.662,-250.247 398.291,-174.89 417.03,-140.828"/>
<polygon fill="midnightblue" stroke="midnightblue" points="420.312,-142.117 421.995,-131.657 414.156,-138.785 420.312,-142.117"/>
</g>
<!-- Node10 -->
<g id="node10" class="node"><title>Node10</title>
<g id="a_node10"><a xlink:href="sys__defs_8h.html" target="_top" xlink:title="Defines types and vars for system defined semantics. ">
<polygon fill="white" stroke="black" points="171,-224.5 171,-243.5 236,-243.5 236,-224.5 171,-224.5"/>
<text text-anchor="middle" x="203.5" y="-231.5" font-family="Helvetica,sans-Serif" font-size="10.00">sys_defs.h</text>
</a>
</g>
</g>
<!-- Node2&#45;&gt;Node10 -->
<g id="edge9" class="edge"><title>Node2&#45;&gt;Node10</title>
<path fill="none" stroke="midnightblue" d="M213.13,-336.33C201.62,-328.469 186.311,-315.722 179.5,-300 172.506,-283.857 181.336,-264.944 190.193,-251.695"/>
<polygon fill="midnightblue" stroke="midnightblue" points="193.08,-253.677 196.134,-243.532 187.42,-249.557 193.08,-253.677"/>
</g>
<!-- Node11 -->
<g id="node11" class="node"><title>Node11</title>
<g id="a_node11"><a xlink:href="ceptr__types_8h_source.html" target="_top" xlink:title="ceptr_types.h">
<polygon fill="white" stroke="black" points="123.5,-112.5 123.5,-131.5 199.5,-131.5 199.5,-112.5 123.5,-112.5"/>
<text text-anchor="middle" x="161.5" y="-119.5" font-family="Helvetica,sans-Serif" font-size="10.00">ceptr_types.h</text>
</a>
</g>
</g>
<!-- Node2&#45;&gt;Node11 -->
<g id="edge24" class="edge"><title>Node2&#45;&gt;Node11</title>
<path fill="none" stroke="midnightblue" d="M212.262,-336.302C199.88,-328.424 182.967,-315.667 173.5,-300 143.016,-249.555 151.402,-175.621 157.579,-141.504"/>
<polygon fill="midnightblue" stroke="midnightblue" points="161.041,-142.038 159.53,-131.551 154.172,-140.691 161.041,-142.038"/>
</g>
<!-- Node18 -->
<g id="node18" class="node"><title>Node18</title>
<g id="a_node18"><a xlink:href="base__defs_8h.html" target="_top" xlink:title="auto&#45;generated system definitions ">
<polygon fill="white" stroke="black" points="188.5,-280.5 188.5,-299.5 258.5,-299.5 258.5,-280.5 188.5,-280.5"/>
<text text-anchor="middle" x="223.5" y="-287.5" font-family="Helvetica,sans-Serif" font-size="10.00">base_defs.h</text>
</a>
</g>
</g>
<!-- Node2&#45;&gt;Node18 -->
<g id="edge22" class="edge"><title>Node2&#45;&gt;Node18</title>
<path fill="none" stroke="midnightblue" d="M226.839,-336.083C226.315,-329.006 225.564,-318.861 224.906,-309.986"/>
<polygon fill="midnightblue" stroke="midnightblue" points="228.377,-309.465 224.148,-299.751 221.397,-309.982 228.377,-309.465"/>
</g>
<!-- Node2&#45;&gt;Node19 -->
<g id="edge25" class="edge"><title>Node2&#45;&gt;Node19</title>
<path fill="none" stroke="midnightblue" d="M248.134,-337.717C273.344,-328.82 316.35,-313.641 346.481,-303.007"/>
<polygon fill="midnightblue" stroke="midnightblue" points="347.897,-306.219 356.162,-299.59 345.567,-299.618 347.897,-306.219"/>
</g>
<!-- Node6 -->
<g id="node6" class="node"><title>Node6</title>
<polygon fill="white" stroke="#bfbfbf" points="325.5,-56.5 325.5,-75.5 371.5,-75.5 371.5,-56.5 325.5,-56.5"/>
<text text-anchor="middle" x="348.5" y="-63.5" font-family="Helvetica,sans-Serif" font-size="10.00">stdio.h</text>
</g>
<!-- Node5&#45;&gt;Node6 -->
<g id="edge5" class="edge"><title>Node5&#45;&gt;Node6</title>
<path fill="none" stroke="midnightblue" d="M413.968,-112.324C401.914,-103.979 383.473,-91.2122 369.231,-81.3524"/>
<polygon fill="midnightblue" stroke="midnightblue" points="371.215,-78.469 361.001,-75.6545 367.231,-84.2243 371.215,-78.469"/>
</g>
<!-- Node7 -->
<g id="node7" class="node"><title>Node7</title>
<polygon fill="white" stroke="#bfbfbf" points="389.5,-56.5 389.5,-75.5 439.5,-75.5 439.5,-56.5 389.5,-56.5"/>
<text text-anchor="middle" x="414.5" y="-63.5" font-family="Helvetica,sans-Serif" font-size="10.00">signal.h</text>
</g>
<!-- Node5&#45;&gt;Node7 -->
<g id="edge6" class="edge"><title>Node5&#45;&gt;Node7</title>
<path fill="none" stroke="midnightblue" d="M424.518,-112.083C422.928,-104.927 420.641,-94.6353 418.654,-85.6911"/>
<polygon fill="midnightblue" stroke="midnightblue" points="422.031,-84.7537 416.445,-75.7511 415.197,-86.2722 422.031,-84.7537"/>
</g>
<!-- Node8 -->
<g id="node8" class="node"><title>Node8</title>
<polygon fill="white" stroke="#bfbfbf" points="457.5,-56.5 457.5,-75.5 509.5,-75.5 509.5,-56.5 457.5,-56.5"/>
<text text-anchor="middle" x="483.5" y="-63.5" font-family="Helvetica,sans-Serif" font-size="10.00">assert.h</text>
</g>
<!-- Node5&#45;&gt;Node8 -->
<g id="edge7" class="edge"><title>Node5&#45;&gt;Node8</title>
<path fill="none" stroke="midnightblue" d="M435.658,-112.324C444.001,-104.42 456.532,-92.5482 466.677,-82.9377"/>
<polygon fill="midnightblue" stroke="midnightblue" points="469.323,-85.2522 474.175,-75.8339 464.509,-80.1705 469.323,-85.2522"/>
</g>
<!-- Node9 -->
<g id="node9" class="node"><title>Node9</title>
<polygon fill="white" stroke="#bfbfbf" points="527.5,-56.5 527.5,-75.5 581.5,-75.5 581.5,-56.5 527.5,-56.5"/>
<text text-anchor="middle" x="554.5" y="-63.5" font-family="Helvetica,sans-Serif" font-size="10.00">setjmp.h</text>
</g>
<!-- Node5&#45;&gt;Node9 -->
<g id="edge8" class="edge"><title>Node5&#45;&gt;Node9</title>
<path fill="none" stroke="midnightblue" d="M446.782,-112.444C467.847,-103.557 501.017,-89.5632 524.986,-79.4514"/>
<polygon fill="midnightblue" stroke="midnightblue" points="526.46,-82.6283 534.313,-75.5164 523.739,-76.1787 526.46,-82.6283"/>
</g>
<!-- Node10&#45;&gt;Node11 -->
<g id="edge10" class="edge"><title>Node10&#45;&gt;Node11</title>
<path fill="none" stroke="midnightblue" d="M198.411,-224.265C193.374,-215.362 185.687,-201.045 180.5,-188 174.391,-172.637 169.261,-154.538 165.877,-141.346"/>
<polygon fill="midnightblue" stroke="midnightblue" points="169.261,-140.452 163.462,-131.585 162.466,-142.133 169.261,-140.452"/>
</g>
<!-- Node17 -->
<g id="node17" class="node"><title>Node17</title>
<g id="a_node17"><a xlink:href="semtable_8h.html" target="_top" xlink:title="header file for table for coordinating meaning across a vmhost ">
<polygon fill="white" stroke="black" points="190,-168.5 190,-187.5 255,-187.5 255,-168.5 190,-168.5"/>
<text text-anchor="middle" x="222.5" y="-175.5" font-family="Helvetica,sans-Serif" font-size="10.00">semtable.h</text>
</a>
</g>
</g>
<!-- Node10&#45;&gt;Node17 -->
<g id="edge19" class="edge"><title>Node10&#45;&gt;Node17</title>
<path fill="none" stroke="midnightblue" d="M206.637,-224.083C209.183,-216.849 212.856,-206.409 216.027,-197.397"/>
<polygon fill="midnightblue" stroke="midnightblue" points="219.403,-198.346 219.421,-187.751 212.8,-196.023 219.403,-198.346"/>
</g>
<!-- Node11&#45;&gt;Node6 -->
<g id="edge12" class="edge"><title>Node11&#45;&gt;Node6</title>
<path fill="none" stroke="midnightblue" d="M191.131,-112.444C225.062,-102.645 280.49,-86.6391 315.698,-76.4723"/>
<polygon fill="midnightblue" stroke="midnightblue" points="316.856,-79.7809 325.493,-73.6439 314.914,-73.0557 316.856,-79.7809"/>
</g>
<!-- Node12 -->
<g id="node12" class="node"><title>Node12</title>
<polygon fill="white" stroke="#bfbfbf" points="135,-56.5 135,-75.5 184,-75.5 184,-56.5 135,-56.5"/>
<text text-anchor="middle" x="159.5" y="-63.5" font-family="Helvetica,sans-Serif" font-size="10.00">stdint.h</text>
</g>
<!-- Node11&#45;&gt;Node12 -->
<g id="edge11" class="edge"><title>Node11&#45;&gt;Node12</title>
<path fill="none" stroke="midnightblue" d="M161.17,-112.083C160.908,-105.006 160.532,-94.8611 160.203,-85.9865"/>
<polygon fill="midnightblue" stroke="midnightblue" points="163.692,-85.6147 159.824,-75.7511 156.697,-85.8738 163.692,-85.6147"/>
</g>
<!-- Node13 -->
<g id="node13" class="node"><title>Node13</title>
<g id="a_node13"><a xlink:href="uthash_8h_source.html" target="_top" xlink:title="uthash.h">
<polygon fill="white" stroke="black" points="62.5,-56.5 62.5,-75.5 116.5,-75.5 116.5,-56.5 62.5,-56.5"/>
<text text-anchor="middle" x="89.5" y="-63.5" font-family="Helvetica,sans-Serif" font-size="10.00">uthash.h</text>
</a>
</g>
</g>
<!-- Node11&#45;&gt;Node13 -->
<g id="edge13" class="edge"><title>Node11&#45;&gt;Node13</title>
<path fill="none" stroke="midnightblue" d="M149.932,-112.324C139.08,-104.185 122.619,-91.8395 109.617,-82.0874"/>
<polygon fill="midnightblue" stroke="midnightblue" points="111.379,-79.0339 101.279,-75.8339 107.179,-84.6339 111.379,-79.0339"/>
</g>
<!-- Node16 -->
<g id="node16" class="node"><title>Node16</title>
<polygon fill="white" stroke="#bfbfbf" points="202.5,-56.5 202.5,-75.5 258.5,-75.5 258.5,-56.5 202.5,-56.5"/>
<text text-anchor="middle" x="230.5" y="-63.5" font-family="Helvetica,sans-Serif" font-size="10.00">stdbool.h</text>
</g>
<!-- Node11&#45;&gt;Node16 -->
<g id="edge18" class="edge"><title>Node11&#45;&gt;Node16</title>
<path fill="none" stroke="midnightblue" d="M172.586,-112.324C182.986,-104.185 198.761,-91.8395 211.222,-82.0874"/>
<polygon fill="midnightblue" stroke="midnightblue" points="213.494,-84.7533 219.212,-75.8339 209.18,-79.2407 213.494,-84.7533"/>
</g>
<!-- Node13&#45;&gt;Node3 -->
<g id="edge14" class="edge"><title>Node13&#45;&gt;Node3</title>
<path fill="none" stroke="midnightblue" d="M79.0566,-56.324C69.3538,-48.2631 54.6847,-36.0765 43.0003,-26.3695"/>
<polygon fill="midnightblue" stroke="midnightblue" points="45.0619,-23.532 35.1334,-19.8339 40.5887,-28.9163 45.0619,-23.532"/>
</g>
<!-- Node13&#45;&gt;Node4 -->
<g id="edge16" class="edge"><title>Node13&#45;&gt;Node4</title>
<path fill="none" stroke="midnightblue" d="M116.531,-56.5625C146.846,-47.1 196.049,-31.7419 228.836,-21.5078"/>
<polygon fill="midnightblue" stroke="midnightblue" points="229.942,-24.8292 238.445,-18.5085 227.856,-18.1471 229.942,-24.8292"/>
</g>
<!-- Node14 -->
<g id="node14" class="node"><title>Node14</title>
<polygon fill="white" stroke="#bfbfbf" points="67.5,-0.5 67.5,-19.5 119.5,-19.5 119.5,-0.5 67.5,-0.5"/>
<text text-anchor="middle" x="93.5" y="-7.5" font-family="Helvetica,sans-Serif" font-size="10.00">stddef.h</text>
</g>
<!-- Node13&#45;&gt;Node14 -->
<g id="edge15" class="edge"><title>Node13&#45;&gt;Node14</title>
<path fill="none" stroke="midnightblue" d="M90.1605,-56.083C90.6848,-49.0059 91.4362,-38.8611 92.0936,-29.9865"/>
<polygon fill="midnightblue" stroke="midnightblue" points="95.6034,-29.9823 92.8518,-19.7511 88.6225,-29.4652 95.6034,-29.9823"/>
</g>
<!-- Node15 -->
<g id="node15" class="node"><title>Node15</title>
<polygon fill="white" stroke="#bfbfbf" points="138,-0.5 138,-19.5 197,-19.5 197,-0.5 138,-0.5"/>
<text text-anchor="middle" x="167.5" y="-7.5" font-family="Helvetica,sans-Serif" font-size="10.00">inttypes.h</text>
</g>
<!-- Node13&#45;&gt;Node15 -->
<g id="edge17" class="edge"><title>Node13&#45;&gt;Node15</title>
<path fill="none" stroke="midnightblue" d="M102.032,-56.324C114.086,-47.979 132.527,-35.2122 146.769,-25.3524"/>
<polygon fill="midnightblue" stroke="midnightblue" points="148.769,-28.2243 154.999,-19.6545 144.785,-22.469 148.769,-28.2243"/>
</g>
<!-- Node17&#45;&gt;Node5 -->
<g id="edge21" class="edge"><title>Node17&#45;&gt;Node5</title>
<path fill="none" stroke="midnightblue" d="M254.824,-168.444C289.889,-159.162 345.998,-144.309 384.465,-134.127"/>
<polygon fill="midnightblue" stroke="midnightblue" points="385.555,-137.459 394.327,-131.516 383.764,-130.692 385.555,-137.459"/>
</g>
<!-- Node17&#45;&gt;Node11 -->
<g id="edge20" class="edge"><title>Node17&#45;&gt;Node11</title>
<path fill="none" stroke="midnightblue" d="M212.699,-168.324C203.682,-160.341 190.094,-148.313 179.182,-138.653"/>
<polygon fill="midnightblue" stroke="midnightblue" points="181.287,-135.842 171.479,-131.834 176.647,-141.083 181.287,-135.842"/>
</g>
<!-- Node18&#45;&gt;Node10 -->
<g id="edge23" class="edge"><title>Node18&#45;&gt;Node10</title>
<path fill="none" stroke="midnightblue" d="M220.197,-280.083C217.518,-272.849 213.651,-262.409 210.314,-253.397"/>
<polygon fill="midnightblue" stroke="midnightblue" points="213.496,-251.913 206.741,-243.751 206.932,-254.344 213.496,-251.913"/>
</g>
<!-- Node19&#45;&gt;Node6 -->
<g id="edge26" class="edge"><title>Node19&#45;&gt;Node6</title>
<path fill="none" stroke="midnightblue" d="M379.246,-280.297C374.537,-247.633 357.85,-131.866 351.233,-85.9573"/>
<polygon fill="midnightblue" stroke="midnightblue" points="354.672,-85.2821 349.781,-75.8837 347.743,-86.2808 354.672,-85.2821"/>
</g>
<!-- Node20 -->
<g id="node20" class="node"><title>Node20</title>
<polygon fill="white" stroke="#bfbfbf" points="391,-224.5 391,-243.5 448,-243.5 448,-224.5 391,-224.5"/>
<text text-anchor="middle" x="419.5" y="-231.5" font-family="Helvetica,sans-Serif" font-size="10.00">pthread.h</text>
</g>
<!-- Node19&#45;&gt;Node20 -->
<g id="edge27" class="edge"><title>Node19&#45;&gt;Node20</title>
<path fill="none" stroke="midnightblue" d="M386.94,-280.083C392.449,-272.455 400.531,-261.264 407.265,-251.941"/>
<polygon fill="midnightblue" stroke="midnightblue" points="410.162,-253.907 413.18,-243.751 404.487,-249.809 410.162,-253.907"/>
</g>
<!-- Node21&#45;&gt;Node2 -->
<g id="edge30" class="edge"><title>Node21&#45;&gt;Node2</title>
<path fill="none" stroke="midnightblue" d="M287.932,-392.324C277.08,-384.185 260.619,-371.839 247.617,-362.087"/>
<polygon fill="midnightblue" stroke="midnightblue" points="249.379,-359.034 239.279,-355.834 245.179,-364.634 249.379,-359.034"/>
</g>
<!-- Node22 -->
<g id="node22" class="node"><title>Node22</title>
<polygon fill="white" stroke="#bfbfbf" points="273.5,-336.5 273.5,-355.5 325.5,-355.5 325.5,-336.5 273.5,-336.5"/>
<text text-anchor="middle" x="299.5" y="-343.5" font-family="Helvetica,sans-Serif" font-size="10.00">stdarg.h</text>
</g>
<!-- Node21&#45;&gt;Node22 -->
<g id="edge31" class="edge"><title>Node21&#45;&gt;Node22</title>
<path fill="none" stroke="midnightblue" d="M299.5,-392.083C299.5,-385.006 299.5,-374.861 299.5,-365.986"/>
<polygon fill="midnightblue" stroke="midnightblue" points="303,-365.751 299.5,-355.751 296,-365.751 303,-365.751"/>
</g>
<!-- Node23&#45;&gt;Node2 -->
<g id="edge33" class="edge"><title>Node23&#45;&gt;Node2</title>
<path fill="none" stroke="midnightblue" d="M231.674,-392.083C231.019,-385.006 230.08,-374.861 229.258,-365.986"/>
<polygon fill="midnightblue" stroke="midnightblue" points="232.717,-365.386 228.31,-355.751 225.747,-366.031 232.717,-365.386"/>
</g>
</g>
</svg>
