<?xml version="1.0" encoding="UTF-8" standalone="no"?>
<!DOCTYPE svg PUBLIC "-//W3C//DTD SVG 1.1//EN"
 "http://www.w3.org/Graphics/SVG/1.1/DTD/svg11.dtd">
<!-- Generated by graphviz version 2.38.0 (20140413.2041)
 -->
<!-- Title: spec/def_spec.h Pages: 1 -->
<svg width="1049pt" height="420pt"
 viewBox="0.00 0.00 1049.00 420.00" xmlns="http://www.w3.org/2000/svg" xmlns:xlink="http://www.w3.org/1999/xlink">
<g id="graph0" class="graph" transform="scale(1 1) rotate(0) translate(4 416)">
<title>spec/def_spec.h</title>
<polygon fill="white" stroke="none" points="-4,4 -4,-416 1045,-416 1045,4 -4,4"/>
<!-- Node1 -->
<g id="node1" class="node"><title>Node1</title>
<polygon fill="#bfbfbf" stroke="black" points="615.5,-392.5 615.5,-411.5 704.5,-411.5 704.5,-392.5 615.5,-392.5"/>
<text text-anchor="middle" x="660" y="-399.5" font-family="Helvetica,sans-Serif" font-size="10.00">spec/def_spec.h</text>
</g>
<!-- Node2 -->
<g id="node2" class="node"><title>Node2</title>
<g id="a_node2"><a xlink:href="ceptr_8h_source.html" target="_top" xlink:title="../src/ceptr.h">
<polygon fill="white" stroke="black" points="346,-336.5 346,-355.5 418,-355.5 418,-336.5 346,-336.5"/>
<text text-anchor="middle" x="382" y="-343.5" font-family="Helvetica,sans-Serif" font-size="10.00">../src/ceptr.h</text>
</a>
</g>
</g>
<!-- Node1&#45;&gt;Node2 -->
<g id="edge1" class="edge"><title>Node1&#45;&gt;Node2</title>
<path fill="none" stroke="midnightblue" d="M615.95,-392.444C564.709,-382.49 480.491,-366.131 428.304,-355.994"/>
<polygon fill="midnightblue" stroke="midnightblue" points="428.797,-352.525 418.314,-354.054 427.463,-359.396 428.797,-352.525"/>
</g>
<!-- Node25 -->
<g id="node25" class="node"><title>Node25</title>
<g id="a_node25"><a xlink:href="def_8h.html" target="_top" xlink:title="header file for symbol and structure definition functions ">
<polygon fill="white" stroke="black" points="721,-336.5 721,-355.5 785,-355.5 785,-336.5 721,-336.5"/>
<text text-anchor="middle" x="753" y="-343.5" font-family="Helvetica,sans-Serif" font-size="10.00">../src/def.h</text>
</a>
</g>
</g>
<!-- Node1&#45;&gt;Node25 -->
<g id="edge45" class="edge"><title>Node1&#45;&gt;Node25</title>
<path fill="none" stroke="midnightblue" d="M674.942,-392.324C689.585,-383.822 712.134,-370.729 729.238,-360.797"/>
<polygon fill="midnightblue" stroke="midnightblue" points="731.205,-363.703 738.095,-355.655 727.69,-357.649 731.205,-363.703"/>
</g>
<!-- Node27 -->
<g id="node27" class="node"><title>Node27</title>
<g id="a_node27"><a xlink:href="semtrex_8h.html" target="_top" xlink:title="Semantic tree regular expression header file. ">
<polygon fill="white" stroke="black" points="617,-336.5 617,-355.5 703,-355.5 703,-336.5 617,-336.5"/>
<text text-anchor="middle" x="660" y="-343.5" font-family="Helvetica,sans-Serif" font-size="10.00">../src/semtrex.h</text>
</a>
</g>
</g>
<!-- Node1&#45;&gt;Node27 -->
<g id="edge48" class="edge"><title>Node1&#45;&gt;Node27</title>
<path fill="none" stroke="midnightblue" d="M660,-392.083C660,-385.006 660,-374.861 660,-365.986"/>
<polygon fill="midnightblue" stroke="midnightblue" points="663.5,-365.751 660,-355.751 656.5,-365.751 663.5,-365.751"/>
</g>
<!-- Node3 -->
<g id="node3" class="node"><title>Node3</title>
<polygon fill="white" stroke="#bfbfbf" points="391.5,-0.5 391.5,-19.5 440.5,-19.5 440.5,-0.5 391.5,-0.5"/>
<text text-anchor="middle" x="416" y="-7.5" font-family="Helvetica,sans-Serif" font-size="10.00">string.h</text>
</g>
<!-- Node2&#45;&gt;Node3 -->
<g id="edge2" class="edge"><title>Node2&#45;&gt;Node3</title>
<path fill="none" stroke="midnightblue" d="M345.938,-345.931C286.991,-346.115 167.505,-340.829 77,-300 36.1764,-281.584 0,-279.785 0,-235 0,-235 0,-235 0,-121 0,-42.4349 280.828,-18.7145 381.013,-12.7519"/>
<polygon fill="midnightblue" stroke="midnightblue" points="381.439,-16.2335 391.223,-12.1691 381.04,-9.24483 381.439,-16.2335"/>
</g>
<!-- Node4 -->
<g id="node4" class="node"><title>Node4</title>
<polygon fill="white" stroke="#bfbfbf" points="322,-56.5 322,-75.5 368,-75.5 368,-56.5 322,-56.5"/>
<text text-anchor="middle" x="345" y="-63.5" font-family="Helvetica,sans-Serif" font-size="10.00">stdio.h</text>
</g>
<!-- Node2&#45;&gt;Node4 -->
<g id="edge3" class="edge"><title>Node2&#45;&gt;Node4</title>
<path fill="none" stroke="midnightblue" d="M345.836,-341.22C257.515,-330.989 38,-299.112 38,-235 38,-235 38,-235 38,-177 38,-119.294 232.657,-83.7415 311.968,-71.6509"/>
<polygon fill="midnightblue" stroke="midnightblue" points="312.552,-75.1026 321.925,-70.1643 311.518,-68.1794 312.552,-75.1026"/>
</g>
<!-- Node5 -->
<g id="node5" class="node"><title>Node5</title>
<polygon fill="white" stroke="#bfbfbf" points="903,-0.5 903,-19.5 951,-19.5 951,-0.5 903,-0.5"/>
<text text-anchor="middle" x="927" y="-7.5" font-family="Helvetica,sans-Serif" font-size="10.00">stdlib.h</text>
</g>
<!-- Node2&#45;&gt;Node5 -->
<g id="edge4" class="edge"><title>Node2&#45;&gt;Node5</title>
<path fill="none" stroke="midnightblue" d="M418.219,-341.984C544.976,-330.95 961,-290.508 961,-235 961,-235 961,-235 961,-121 961,-87.1598 946.13,-49.9705 936.058,-28.6613"/>
<polygon fill="midnightblue" stroke="midnightblue" points="939.137,-26.9912 931.585,-19.5604 932.855,-30.0788 939.137,-26.9912"/>
</g>
<!-- Node6 -->
<g id="node6" class="node"><title>Node6</title>
<g id="a_node6"><a xlink:href="ceptr__error_8h_source.html" target="_top" xlink:title="ceptr_error.h">
<polygon fill="white" stroke="black" points="310.5,-224.5 310.5,-243.5 381.5,-243.5 381.5,-224.5 310.5,-224.5"/>
<text text-anchor="middle" x="346" y="-231.5" font-family="Helvetica,sans-Serif" font-size="10.00">ceptr_error.h</text>
</a>
</g>
</g>
<!-- Node2&#45;&gt;Node6 -->
<g id="edge5" class="edge"><title>Node2&#45;&gt;Node6</title>
<path fill="none" stroke="midnightblue" d="M379.175,-336.368C373.339,-318.537 359.842,-277.295 351.98,-253.272"/>
<polygon fill="midnightblue" stroke="midnightblue" points="355.249,-252.007 348.812,-243.591 348.596,-254.184 355.249,-252.007"/>
</g>
<!-- Node10 -->
<g id="node10" class="node"><title>Node10</title>
<g id="a_node10"><a xlink:href="tree_8h.html" target="_top" xlink:title="semantic trees header file ">
<polygon fill="white" stroke="black" points="686.5,-280.5 686.5,-299.5 727.5,-299.5 727.5,-280.5 686.5,-280.5"/>
<text text-anchor="middle" x="707" y="-287.5" font-family="Helvetica,sans-Serif" font-size="10.00">tree.h</text>
</a>
</g>
</g>
<!-- Node2&#45;&gt;Node10 -->
<g id="edge10" class="edge"><title>Node2&#45;&gt;Node10</title>
<path fill="none" stroke="midnightblue" d="M418.022,-339.015C482.412,-328.316 616.139,-306.097 676.393,-296.085"/>
<polygon fill="midnightblue" stroke="midnightblue" points="677.13,-299.511 686.421,-294.419 675.983,-292.606 677.13,-299.511"/>
</g>
<!-- Node19 -->
<g id="node19" class="node"><title>Node19</title>
<g id="a_node19"><a xlink:href="stream_8h.html" target="_top" xlink:title="streams abstraction header file ">
<polygon fill="white" stroke="black" points="399.5,-224.5 399.5,-243.5 454.5,-243.5 454.5,-224.5 399.5,-224.5"/>
<text text-anchor="middle" x="427" y="-231.5" font-family="Helvetica,sans-Serif" font-size="10.00">stream.h</text>
</a>
</g>
</g>
<!-- Node2&#45;&gt;Node19 -->
<g id="edge38" class="edge"><title>Node2&#45;&gt;Node19</title>
<path fill="none" stroke="midnightblue" d="M385.531,-336.368C392.859,-318.456 409.85,-276.923 419.658,-252.948"/>
<polygon fill="midnightblue" stroke="midnightblue" points="422.938,-254.172 423.485,-243.591 416.46,-251.522 422.938,-254.172"/>
</g>
<!-- Node20 -->
<g id="node20" class="node"><title>Node20</title>
<g id="a_node20"><a xlink:href="mtree_8h.html" target="_top" xlink:title="semantic tree matrix header file `` ">
<polygon fill="white" stroke="black" points="477,-280.5 477,-299.5 527,-299.5 527,-280.5 477,-280.5"/>
<text text-anchor="middle" x="502" y="-287.5" font-family="Helvetica,sans-Serif" font-size="10.00">mtree.h</text>
</a>
</g>
</g>
<!-- Node2&#45;&gt;Node20 -->
<g id="edge30" class="edge"><title>Node2&#45;&gt;Node20</title>
<path fill="none" stroke="midnightblue" d="M401.014,-336.444C420.588,-327.636 451.308,-313.812 473.729,-303.722"/>
<polygon fill="midnightblue" stroke="midnightblue" points="475.392,-306.812 483.075,-299.516 472.519,-300.428 475.392,-306.812"/>
</g>
<!-- Node21 -->
<g id="node21" class="node"><title>Node21</title>
<g id="a_node21"><a xlink:href="util_8h.html" target="_top" xlink:title="util.h">
<polygon fill="white" stroke="black" points="140,-280.5 140,-299.5 178,-299.5 178,-280.5 140,-280.5"/>
<text text-anchor="middle" x="159" y="-287.5" font-family="Helvetica,sans-Serif" font-size="10.00">util.h</text>
</a>
</g>
</g>
<!-- Node2&#45;&gt;Node21 -->
<g id="edge39" class="edge"><title>Node2&#45;&gt;Node21</title>
<path fill="none" stroke="midnightblue" d="M346.665,-336.444C302.717,-325.801 228.528,-307.836 187.839,-297.983"/>
<polygon fill="midnightblue" stroke="midnightblue" points="188.559,-294.557 178.017,-295.605 186.912,-301.36 188.559,-294.557"/>
</g>
<!-- Node24 -->
<g id="node24" class="node"><title>Node24</title>
<g id="a_node24"><a xlink:href="debug_8h.html" target="_top" xlink:title="debug.h">
<polygon fill="white" stroke="black" points="257.5,-112.5 257.5,-131.5 308.5,-131.5 308.5,-112.5 257.5,-112.5"/>
<text text-anchor="middle" x="283" y="-119.5" font-family="Helvetica,sans-Serif" font-size="10.00">debug.h</text>
</a>
</g>
</g>
<!-- Node2&#45;&gt;Node24 -->
<g id="edge43" class="edge"><title>Node2&#45;&gt;Node24</title>
<path fill="none" stroke="midnightblue" d="M370.783,-336.419C328.168,-303.814 178.677,-189.375 178,-188 162.248,-156 211.309,-138.141 247.599,-129.557"/>
<polygon fill="midnightblue" stroke="midnightblue" points="248.426,-132.959 257.432,-127.378 246.911,-126.125 248.426,-132.959"/>
</g>
<!-- Node6&#45;&gt;Node4 -->
<g id="edge6" class="edge"><title>Node6&#45;&gt;Node4</title>
<path fill="none" stroke="midnightblue" d="M358.214,-224.236C368.354,-216.143 382.043,-203.112 388,-188 402.571,-151.033 376.01,-106.89 358.528,-83.4809"/>
<polygon fill="midnightblue" stroke="midnightblue" points="361.283,-81.3218 352.377,-75.5826 355.76,-85.6228 361.283,-81.3218"/>
</g>
<!-- Node7 -->
<g id="node7" class="node"><title>Node7</title>
<polygon fill="white" stroke="#bfbfbf" points="187,-168.5 187,-187.5 237,-187.5 237,-168.5 187,-168.5"/>
<text text-anchor="middle" x="212" y="-175.5" font-family="Helvetica,sans-Serif" font-size="10.00">signal.h</text>
</g>
<!-- Node6&#45;&gt;Node7 -->
<g id="edge7" class="edge"><title>Node6&#45;&gt;Node7</title>
<path fill="none" stroke="midnightblue" d="M324.767,-224.444C302.616,-215.517 267.681,-201.439 242.564,-191.317"/>
<polygon fill="midnightblue" stroke="midnightblue" points="243.717,-188.008 233.133,-187.516 241.1,-194.501 243.717,-188.008"/>
</g>
<!-- Node8 -->
<g id="node8" class="node"><title>Node8</title>
<polygon fill="white" stroke="#bfbfbf" points="255,-168.5 255,-187.5 307,-187.5 307,-168.5 255,-168.5"/>
<text text-anchor="middle" x="281" y="-175.5" font-family="Helvetica,sans-Serif" font-size="10.00">assert.h</text>
</g>
<!-- Node6&#45;&gt;Node8 -->
<g id="edge8" class="edge"><title>Node6&#45;&gt;Node8</title>
<path fill="none" stroke="midnightblue" d="M335.557,-224.324C325.854,-216.263 311.185,-204.077 299.5,-194.369"/>
<polygon fill="midnightblue" stroke="midnightblue" points="301.562,-191.532 291.633,-187.834 297.089,-196.916 301.562,-191.532"/>
</g>
<!-- Node9 -->
<g id="node9" class="node"><title>Node9</title>
<polygon fill="white" stroke="#bfbfbf" points="325,-168.5 325,-187.5 379,-187.5 379,-168.5 325,-168.5"/>
<text text-anchor="middle" x="352" y="-175.5" font-family="Helvetica,sans-Serif" font-size="10.00">setjmp.h</text>
</g>
<!-- Node6&#45;&gt;Node9 -->
<g id="edge9" class="edge"><title>Node6&#45;&gt;Node9</title>
<path fill="none" stroke="midnightblue" d="M346.991,-224.083C347.786,-216.927 348.929,-206.635 349.923,-197.691"/>
<polygon fill="midnightblue" stroke="midnightblue" points="353.402,-198.076 351.028,-187.751 346.445,-197.303 353.402,-198.076"/>
</g>
<!-- Node10&#45;&gt;Node3 -->
<g id="edge11" class="edge"><title>Node10&#45;&gt;Node3</title>
<path fill="none" stroke="midnightblue" d="M727.657,-289.214C759.034,-288.281 817.913,-281.323 845,-244 876.286,-200.891 777.621,-66.6242 762,-56 711.83,-21.8772 528.305,-13.6027 450.855,-11.6176"/>
<polygon fill="midnightblue" stroke="midnightblue" points="450.735,-8.11392 440.656,-11.3772 450.57,-15.112 450.735,-8.11392"/>
</g>
<!-- Node10&#45;&gt;Node5 -->
<g id="edge12" class="edge"><title>Node10&#45;&gt;Node5</title>
<path fill="none" stroke="midnightblue" d="M727.52,-286.655C771.613,-281.236 873.472,-266.556 899,-244 922.078,-223.61 923,-209.795 923,-179 923,-179 923,-179 923,-121 923,-88.9268 924.719,-51.628 925.904,-29.7413"/>
<polygon fill="midnightblue" stroke="midnightblue" points="929.409,-29.7349 926.477,-19.5539 922.42,-29.3413 929.409,-29.7349"/>
</g>
<!-- Node10&#45;&gt;Node6 -->
<g id="edge13" class="edge"><title>Node10&#45;&gt;Node6</title>
<path fill="none" stroke="midnightblue" d="M686.161,-286.487C636.806,-280.441 508.721,-264.2 391.707,-244.213"/>
<polygon fill="midnightblue" stroke="midnightblue" points="391.956,-240.704 381.506,-242.455 390.767,-247.602 391.956,-240.704"/>
</g>
<!-- Node11 -->
<g id="node11" class="node"><title>Node11</title>
<g id="a_node11"><a xlink:href="sys__symbols_8h.html" target="_top" xlink:title="Defines hard&#45;coded system defined symbols. ">
<polygon fill="white" stroke="black" points="735.5,-224.5 735.5,-243.5 818.5,-243.5 818.5,-224.5 735.5,-224.5"/>
<text text-anchor="middle" x="777" y="-231.5" font-family="Helvetica,sans-Serif" font-size="10.00">sys_symbols.h</text>
</a>
</g>
</g>
<!-- Node10&#45;&gt;Node11 -->
<g id="edge14" class="edge"><title>Node10&#45;&gt;Node11</title>
<path fill="none" stroke="midnightblue" d="M718.247,-280.324C728.797,-272.185 744.801,-259.839 757.442,-250.087"/>
<polygon fill="midnightblue" stroke="midnightblue" points="759.769,-252.713 765.549,-243.834 755.493,-247.171 759.769,-252.713"/>
</g>
<!-- Node12 -->
<g id="node12" class="node"><title>Node12</title>
<g id="a_node12"><a xlink:href="sys__structures_8h.html" target="_top" xlink:title="Defines hard&#45;coded system defined structures. ">
<polygon fill="white" stroke="black" points="661.5,-168.5 661.5,-187.5 750.5,-187.5 750.5,-168.5 661.5,-168.5"/>
<text text-anchor="middle" x="706" y="-175.5" font-family="Helvetica,sans-Serif" font-size="10.00">sys_structures.h</text>
</a>
</g>
</g>
<!-- Node10&#45;&gt;Node12 -->
<g id="edge25" class="edge"><title>Node10&#45;&gt;Node12</title>
<path fill="none" stroke="midnightblue" d="M706.922,-280.368C706.76,-262.617 706.388,-221.666 706.169,-197.597"/>
<polygon fill="midnightblue" stroke="midnightblue" points="709.669,-197.559 706.078,-187.591 702.669,-197.623 709.669,-197.559"/>
</g>
<!-- Node13 -->
<g id="node13" class="node"><title>Node13</title>
<g id="a_node13"><a xlink:href="ceptr__types_8h_source.html" target="_top" xlink:title="ceptr_types.h">
<polygon fill="white" stroke="black" points="691,-112.5 691,-131.5 767,-131.5 767,-112.5 691,-112.5"/>
<text text-anchor="middle" x="729" y="-119.5" font-family="Helvetica,sans-Serif" font-size="10.00">ceptr_types.h</text>
</a>
</g>
</g>
<!-- Node10&#45;&gt;Node13 -->
<g id="edge27" class="edge"><title>Node10&#45;&gt;Node13</title>
<path fill="none" stroke="midnightblue" d="M727.821,-288.036C755.79,-285.49 804.568,-276.369 827,-244 855.318,-203.136 792.368,-158.536 754.671,-136.659"/>
<polygon fill="midnightblue" stroke="midnightblue" points="756.132,-133.465 745.702,-131.603 752.695,-139.563 756.132,-133.465"/>
</g>
<!-- Node18 -->
<g id="node18" class="node"><title>Node18</title>
<g id="a_node18"><a xlink:href="sys__processes_8h.html" target="_top" xlink:title="Defines hard&#45;coded system defined processes. ">
<polygon fill="white" stroke="black" points="587.5,-224.5 587.5,-243.5 678.5,-243.5 678.5,-224.5 587.5,-224.5"/>
<text text-anchor="middle" x="633" y="-231.5" font-family="Helvetica,sans-Serif" font-size="10.00">sys_processes.h</text>
</a>
</g>
</g>
<!-- Node10&#45;&gt;Node18 -->
<g id="edge26" class="edge"><title>Node10&#45;&gt;Node18</title>
<path fill="none" stroke="midnightblue" d="M695.111,-280.324C683.85,-272.107 666.713,-259.602 653.291,-249.807"/>
<polygon fill="midnightblue" stroke="midnightblue" points="655.247,-246.901 645.106,-243.834 651.12,-252.556 655.247,-246.901"/>
</g>
<!-- Node10&#45;&gt;Node19 -->
<g id="edge28" class="edge"><title>Node10&#45;&gt;Node19</title>
<path fill="none" stroke="midnightblue" d="M686.411,-285.029C639.611,-276.004 524.67,-253.836 464.737,-242.278"/>
<polygon fill="midnightblue" stroke="midnightblue" points="465.393,-238.84 454.911,-240.383 464.068,-245.713 465.393,-238.84"/>
</g>
<!-- Node11&#45;&gt;Node12 -->
<g id="edge15" class="edge"><title>Node11&#45;&gt;Node12</title>
<path fill="none" stroke="midnightblue" d="M765.593,-224.324C754.891,-216.185 738.659,-203.839 725.837,-194.087"/>
<polygon fill="midnightblue" stroke="midnightblue" points="727.693,-191.102 717.615,-187.834 723.456,-196.673 727.693,-191.102"/>
</g>
<!-- Node11&#45;&gt;Node13 -->
<g id="edge24" class="edge"><title>Node11&#45;&gt;Node13</title>
<path fill="none" stroke="midnightblue" d="M775.501,-224.283C773.105,-211.515 767.769,-187.166 759,-168 754.516,-158.198 748.021,-148.138 742.22,-140.023"/>
<polygon fill="midnightblue" stroke="midnightblue" points="744.885,-137.741 736.11,-131.804 739.267,-141.917 744.885,-137.741"/>
</g>
<!-- Node12&#45;&gt;Node13 -->
<g id="edge16" class="edge"><title>Node12&#45;&gt;Node13</title>
<path fill="none" stroke="midnightblue" d="M709.798,-168.083C712.913,-160.77 717.423,-150.181 721.289,-141.103"/>
<polygon fill="midnightblue" stroke="midnightblue" points="724.574,-142.323 725.273,-131.751 718.134,-139.58 724.574,-142.323"/>
</g>
<!-- Node13&#45;&gt;Node4 -->
<g id="edge18" class="edge"><title>Node13&#45;&gt;Node4</title>
<path fill="none" stroke="midnightblue" d="M690.777,-115.625C615.533,-105.044 449.356,-81.6751 378.292,-71.6817"/>
<polygon fill="midnightblue" stroke="midnightblue" points="378.515,-68.1787 368.125,-70.2519 377.54,-75.1105 378.515,-68.1787"/>
</g>
<!-- Node14 -->
<g id="node14" class="node"><title>Node14</title>
<polygon fill="white" stroke="#bfbfbf" points="704.5,-56.5 704.5,-75.5 753.5,-75.5 753.5,-56.5 704.5,-56.5"/>
<text text-anchor="middle" x="729" y="-63.5" font-family="Helvetica,sans-Serif" font-size="10.00">stdint.h</text>
</g>
<!-- Node13&#45;&gt;Node14 -->
<g id="edge17" class="edge"><title>Node13&#45;&gt;Node14</title>
<path fill="none" stroke="midnightblue" d="M729,-112.083C729,-105.006 729,-94.8611 729,-85.9865"/>
<polygon fill="midnightblue" stroke="midnightblue" points="732.5,-85.751 729,-75.7511 725.5,-85.7511 732.5,-85.751"/>
</g>
<!-- Node15 -->
<g id="node15" class="node"><title>Node15</title>
<g id="a_node15"><a xlink:href="uthash_8h_source.html" target="_top" xlink:title="uthash.h">
<polygon fill="white" stroke="black" points="833,-56.5 833,-75.5 887,-75.5 887,-56.5 833,-56.5"/>
<text text-anchor="middle" x="860" y="-63.5" font-family="Helvetica,sans-Serif" font-size="10.00">uthash.h</text>
</a>
</g>
</g>
<!-- Node13&#45;&gt;Node15 -->
<g id="edge19" class="edge"><title>Node13&#45;&gt;Node15</title>
<path fill="none" stroke="midnightblue" d="M749.757,-112.444C771.316,-103.557 805.263,-89.5632 829.794,-79.4514"/>
<polygon fill="midnightblue" stroke="midnightblue" points="831.428,-82.5634 839.34,-75.5164 828.761,-76.0917 831.428,-82.5634"/>
</g>
<!-- Node15&#45;&gt;Node3 -->
<g id="edge20" class="edge"><title>Node15&#45;&gt;Node3</title>
<path fill="none" stroke="midnightblue" d="M832.73,-58.5961C828.161,-57.6435 823.458,-56.7361 819,-56 683.561,-33.6362 520.641,-19.2335 450.68,-13.6387"/>
<polygon fill="midnightblue" stroke="midnightblue" points="450.901,-10.1454 440.656,-12.8469 450.35,-17.1237 450.901,-10.1454"/>
</g>
<!-- Node15&#45;&gt;Node5 -->
<g id="edge22" class="edge"><title>Node15&#45;&gt;Node5</title>
<path fill="none" stroke="midnightblue" d="M870.765,-56.324C880.766,-48.2631 895.887,-36.0765 907.93,-26.3695"/>
<polygon fill="midnightblue" stroke="midnightblue" points="910.45,-28.8343 916.039,-19.8339 906.057,-23.3841 910.45,-28.8343"/>
</g>
<!-- Node16 -->
<g id="node16" class="node"><title>Node16</title>
<polygon fill="white" stroke="#bfbfbf" points="755,-0.5 755,-19.5 807,-19.5 807,-0.5 755,-0.5"/>
<text text-anchor="middle" x="781" y="-7.5" font-family="Helvetica,sans-Serif" font-size="10.00">stddef.h</text>
</g>
<!-- Node15&#45;&gt;Node16 -->
<g id="edge21" class="edge"><title>Node15&#45;&gt;Node16</title>
<path fill="none" stroke="midnightblue" d="M847.307,-56.324C835.099,-47.979 816.422,-35.2122 801.997,-25.3524"/>
<polygon fill="midnightblue" stroke="midnightblue" points="803.892,-22.4082 793.661,-19.6545 799.942,-28.1871 803.892,-22.4082"/>
</g>
<!-- Node17 -->
<g id="node17" class="node"><title>Node17</title>
<polygon fill="white" stroke="#bfbfbf" points="825.5,-0.5 825.5,-19.5 884.5,-19.5 884.5,-0.5 825.5,-0.5"/>
<text text-anchor="middle" x="855" y="-7.5" font-family="Helvetica,sans-Serif" font-size="10.00">inttypes.h</text>
</g>
<!-- Node15&#45;&gt;Node17 -->
<g id="edge23" class="edge"><title>Node15&#45;&gt;Node17</title>
<path fill="none" stroke="midnightblue" d="M859.174,-56.083C858.519,-49.0059 857.58,-38.8611 856.758,-29.9865"/>
<polygon fill="midnightblue" stroke="midnightblue" points="860.217,-29.3858 855.81,-19.7511 853.247,-30.0312 860.217,-29.3858"/>
</g>
<!-- Node19&#45;&gt;Node4 -->
<g id="edge29" class="edge"><title>Node19&#45;&gt;Node4</title>
<path fill="none" stroke="midnightblue" d="M426.519,-224.416C425.009,-203.631 418.984,-149.545 396,-112 388.679,-100.041 377.176,-89.4937 366.946,-81.6221"/>
<polygon fill="midnightblue" stroke="midnightblue" points="368.916,-78.7266 358.773,-75.6669 364.794,-84.3843 368.916,-78.7266"/>
</g>
<!-- Node20&#45;&gt;Node3 -->
<g id="edge31" class="edge"><title>Node20&#45;&gt;Node3</title>
<path fill="none" stroke="midnightblue" d="M476.868,-285.312C406.653,-274.413 211.358,-239.84 178,-188 121.665,-100.453 302.747,-40.7921 381.387,-19.5736"/>
<polygon fill="midnightblue" stroke="midnightblue" points="382.554,-22.8856 391.329,-16.949 380.767,-16.1174 382.554,-22.8856"/>
</g>
<!-- Node20&#45;&gt;Node5 -->
<g id="edge32" class="edge"><title>Node20&#45;&gt;Node5</title>
<path fill="none" stroke="midnightblue" d="M499.438,-280.249C494.251,-261.738 483,-217.179 483,-179 483,-179 483,-179 483,-121 483,-27.1651 801.413,-40.4146 893,-20 893.101,-19.9776 893.201,-19.9551 893.302,-19.9325"/>
<polygon fill="midnightblue" stroke="midnightblue" points="894.004,-23.3636 902.912,-17.6277 892.371,-16.5566 894.004,-23.3636"/>
</g>
<!-- Node20&#45;&gt;Node6 -->
<g id="edge33" class="edge"><title>Node20&#45;&gt;Node6</title>
<path fill="none" stroke="midnightblue" d="M477.281,-280.444C451.152,-271.399 409.741,-257.064 380.424,-246.916"/>
<polygon fill="midnightblue" stroke="midnightblue" points="381.198,-243.48 370.603,-243.516 378.908,-250.095 381.198,-243.48"/>
</g>
<!-- Node20&#45;&gt;Node11 -->
<g id="edge34" class="edge"><title>Node20&#45;&gt;Node11</title>
<path fill="none" stroke="midnightblue" d="M527.378,-284.017C572.251,-275.205 666.42,-256.714 725.404,-245.132"/>
<polygon fill="midnightblue" stroke="midnightblue" points="726.133,-248.555 735.271,-243.194 724.784,-241.687 726.133,-248.555"/>
</g>
<!-- Node20&#45;&gt;Node12 -->
<g id="edge35" class="edge"><title>Node20&#45;&gt;Node12</title>
<path fill="none" stroke="midnightblue" d="M510.085,-280.253C523.169,-266.552 550.321,-239.951 578,-224 604.035,-208.996 635.907,-197.771 661.334,-190.285"/>
<polygon fill="midnightblue" stroke="midnightblue" points="662.434,-193.611 671.09,-187.501 660.513,-186.88 662.434,-193.611"/>
</g>
<!-- Node20&#45;&gt;Node13 -->
<g id="edge37" class="edge"><title>Node20&#45;&gt;Node13</title>
<path fill="none" stroke="midnightblue" d="M506.234,-280.49C513.224,-267.115 528.282,-240.953 547,-224 592.609,-182.693 658.069,-151.651 696.791,-135.494"/>
<polygon fill="midnightblue" stroke="midnightblue" points="698.568,-138.549 706.498,-131.523 695.917,-132.07 698.568,-138.549"/>
</g>
<!-- Node20&#45;&gt;Node18 -->
<g id="edge36" class="edge"><title>Node20&#45;&gt;Node18</title>
<path fill="none" stroke="midnightblue" d="M522.757,-280.444C544.316,-271.557 578.263,-257.563 602.794,-247.451"/>
<polygon fill="midnightblue" stroke="midnightblue" points="604.428,-250.563 612.34,-243.516 601.761,-244.092 604.428,-250.563"/>
</g>
<!-- Node21&#45;&gt;Node4 -->
<g id="edge41" class="edge"><title>Node21&#45;&gt;Node4</title>
<path fill="none" stroke="midnightblue" d="M139.682,-280.835C116.605,-269.784 82.5723,-248.594 95,-224 138.829,-137.263 254.884,-92.8834 312.127,-75.6991"/>
<polygon fill="midnightblue" stroke="midnightblue" points="313.148,-79.0472 321.773,-72.8946 311.194,-72.3256 313.148,-79.0472"/>
</g>
<!-- Node22 -->
<g id="node22" class="node"><title>Node22</title>
<polygon fill="white" stroke="#bfbfbf" points="166.5,-224.5 166.5,-243.5 215.5,-243.5 215.5,-224.5 166.5,-224.5"/>
<text text-anchor="middle" x="191" y="-231.5" font-family="Helvetica,sans-Serif" font-size="10.00">ctype.h</text>
</g>
<!-- Node21&#45;&gt;Node22 -->
<g id="edge40" class="edge"><title>Node21&#45;&gt;Node22</title>
<path fill="none" stroke="midnightblue" d="M164.284,-280.083C168.711,-272.613 175.163,-261.724 180.618,-252.52"/>
<polygon fill="midnightblue" stroke="midnightblue" points="183.727,-254.138 185.814,-243.751 177.705,-250.57 183.727,-254.138"/>
</g>
<!-- Node23 -->
<g id="node23" class="node"><title>Node23</title>
<polygon fill="white" stroke="#bfbfbf" points="104,-224.5 104,-243.5 148,-243.5 148,-224.5 104,-224.5"/>
<text text-anchor="middle" x="126" y="-231.5" font-family="Helvetica,sans-Serif" font-size="10.00">time.h</text>
</g>
<!-- Node21&#45;&gt;Node23 -->
<g id="edge42" class="edge"><title>Node21&#45;&gt;Node23</title>
<path fill="none" stroke="midnightblue" d="M153.551,-280.083C148.986,-272.613 142.332,-261.724 136.707,-252.52"/>
<polygon fill="midnightblue" stroke="midnightblue" points="139.549,-250.459 131.348,-243.751 133.576,-254.109 139.549,-250.459"/>
</g>
<!-- Node24&#45;&gt;Node4 -->
<g id="edge44" class="edge"><title>Node24&#45;&gt;Node4</title>
<path fill="none" stroke="midnightblue" d="M292.961,-112.324C302.127,-104.341 315.937,-92.3128 327.028,-82.6529"/>
<polygon fill="midnightblue" stroke="midnightblue" points="329.615,-85.041 334.857,-75.8339 325.018,-79.7624 329.615,-85.041"/>
</g>
<!-- Node25&#45;&gt;Node10 -->
<g id="edge46" class="edge"><title>Node25&#45;&gt;Node10</title>
<path fill="none" stroke="midnightblue" d="M745.404,-336.083C738.773,-328.298 728.979,-316.801 720.942,-307.367"/>
<polygon fill="midnightblue" stroke="midnightblue" points="723.604,-305.094 714.455,-299.751 718.275,-309.633 723.604,-305.094"/>
</g>
<!-- Node26 -->
<g id="node26" class="node"><title>Node26</title>
<polygon fill="white" stroke="#bfbfbf" points="989,-280.5 989,-299.5 1041,-299.5 1041,-280.5 989,-280.5"/>
<text text-anchor="middle" x="1015" y="-287.5" font-family="Helvetica,sans-Serif" font-size="10.00">stdarg.h</text>
</g>
<!-- Node25&#45;&gt;Node26 -->
<g id="edge47" class="edge"><title>Node25&#45;&gt;Node26</title>
<path fill="none" stroke="midnightblue" d="M785.029,-338.73C828.22,-330.225 907.509,-314.431 975,-300 976.253,-299.732 977.527,-299.457 978.814,-299.178"/>
<polygon fill="midnightblue" stroke="midnightblue" points="979.754,-302.555 988.768,-296.986 978.249,-295.719 979.754,-302.555"/>
</g>
<!-- Node27&#45;&gt;Node10 -->
<g id="edge49" class="edge"><title>Node27&#45;&gt;Node10</title>
<path fill="none" stroke="midnightblue" d="M667.761,-336.083C674.537,-328.298 684.543,-316.801 692.755,-307.367"/>
<polygon fill="midnightblue" stroke="midnightblue" points="695.458,-309.592 699.383,-299.751 690.178,-304.996 695.458,-309.592"/>
</g>
</g>
</svg>
