<?xml version="1.0" encoding="UTF-8" standalone="no"?>
<!DOCTYPE svg PUBLIC "-//W3C//DTD SVG 1.1//EN"
 "http://www.w3.org/Graphics/SVG/1.1/DTD/svg11.dtd">
<!-- Generated by graphviz version 2.38.0 (20140413.2041)
 -->
<!-- Title: src/def.h Pages: 1 -->
<!--zoomable 364 -->
<svg id="main" version="1.1" xmlns="http://www.w3.org/2000/svg" xmlns:xlink="http://www.w3.org/1999/xlink" xml:space="preserve" onload="init(evt)">
<style type="text/css"><![CDATA[
.edge:hover path { stroke: red; }
.edge:hover polygon { stroke: red; fill: red; }
]]></style>
<script type="text/javascript"><![CDATA[
var edges = document.getElementsByTagName('g');
if (edges && edges.length) {
  for (var i=0;i<edges.length;i++) {
    if (edges[i].id.substr(0,4)=='edge') {
      edges[i].setAttribute('class','edge');
    }
  }
}
]]></script>
        <defs>
                <circle id="rim" cx="0" cy="0" r="7"/>
                <circle id="rim2" cx="0" cy="0" r="3.5"/>
                <g id="zoomPlus">
                        <use xlink:href="#rim" fill="#404040">
                                <set attributeName="fill" to="#808080" begin="zoomplus.mouseover" end="zoomplus.mouseout"/>
                        </use>
                        <path d="M-4,0h8M0,-4v8" fill="none" stroke="white" stroke-width="1.5" pointer-events="none"/>
                </g>
                <g id="zoomMin">
                        <use xlink:href="#rim" fill="#404040">
                                <set attributeName="fill" to="#808080" begin="zoomminus.mouseover" end="zoomminus.mouseout"/>
                        </use>
                        <path d="M-4,0h8" fill="none" stroke="white" stroke-width="1.5" pointer-events="none"/>
                </g>
                <g id="dirArrow">
                        <path fill="none" stroke="white" stroke-width="1.5" d="M0,-3.0v7 M-2.5,-0.5L0,-3.0L2.5,-0.5"/>
                </g>
               <g id="resetDef">
                       <use xlink:href="#rim2" fill="#404040">
                               <set attributeName="fill" to="#808080" begin="reset.mouseover" end="reset.mouseout"/>
                       </use>
               </g>
        </defs>

<script type="text/javascript">
var viewWidth = 2272;
var viewHeight = 364;
var sectionId = 'dynsection-1';
</script>
<script xlink:href="svgpan.js"/>
<svg id="graph" class="graph">
<g id="viewport">
<title>src/def.h</title>
<polygon fill="white" stroke="none" points="-4,4 -4,-360 2267.8,-360 2267.8,4 -4,4"/>
<!-- Node1 -->
<g id="node1" class="node"><title>Node1</title>
<polygon fill="#bfbfbf" stroke="black" points="1816.8,-336.5 1816.8,-355.5 1871.8,-355.5 1871.8,-336.5 1816.8,-336.5"/>
<text text-anchor="middle" x="1844.3" y="-343.5" font-family="Helvetica,sans-Serif" font-size="10.00">src/def.h</text>
</g>
<!-- Node2 -->
<g id="node2" class="node"><title>Node2</title>
<g id="a_node2"><a xlink:href="receptor_8h.html" target="_top" xlink:title="receptor implementation header file ">
<polygon fill="white" stroke="black" points="1243.8,-280.5 1243.8,-299.5 1320.8,-299.5 1320.8,-280.5 1243.8,-280.5"/>
<text text-anchor="middle" x="1282.3" y="-287.5" font-family="Helvetica,sans-Serif" font-size="10.00">src/receptor.h</text>
</a>
</g>
</g>
<!-- Node1&#45;&gt;Node2 -->
<g id="edge1" class="edge"><title>Node1&#45;&gt;Node2</title>
<path fill="none" stroke="midnightblue" d="M1806.27,-341.345C1704.05,-331.523 1424.21,-304.635 1321.11,-294.728"/>
<polygon fill="midnightblue" stroke="midnightblue" points="1806.15,-344.85 1816.43,-342.322 1806.82,-337.882 1806.15,-344.85"/>
</g>
<!-- Node11 -->
<g id="node11" class="node"><title>Node11</title>
<g id="a_node11"><a xlink:href="process_8c.html" target="_top" xlink:title="implementation of ceptr processing: instructions and run tree reduction ">
<polygon fill="white" stroke="black" points="1555.3,-112.5 1555.3,-131.5 1631.3,-131.5 1631.3,-112.5 1555.3,-112.5"/>
<text text-anchor="middle" x="1593.3" y="-119.5" font-family="Helvetica,sans-Serif" font-size="10.00">src/process.c</text>
</a>
</g>
</g>
<!-- Node1&#45;&gt;Node11 -->
<g id="edge67" class="edge"><title>Node1&#45;&gt;Node11</title>
<path fill="none" stroke="midnightblue" d="M1862.17,-329.534C1891.37,-304.061 1946.56,-254.995 1951.3,-244 1954.82,-235.838 1956.67,-231.088 1951.3,-224 1912.33,-172.508 1715.75,-139.827 1631.61,-127.993"/>
<polygon fill="midnightblue" stroke="midnightblue" points="1859.61,-327.126 1854.36,-336.329 1864.2,-332.408 1859.61,-327.126"/>
</g>
<!-- Node18 -->
<g id="node18" class="node"><title>Node18</title>
<g id="a_node18"><a xlink:href="http__example_8h.html" target="_top" xlink:title="spec/http_example.h">
<polygon fill="white" stroke="black" points="1391.8,-112.5 1391.8,-131.5 1498.8,-131.5 1498.8,-112.5 1391.8,-112.5"/>
<text text-anchor="middle" x="1445.3" y="-119.5" font-family="Helvetica,sans-Serif" font-size="10.00">spec/http_example.h</text>
</a>
</g>
</g>
<!-- Node1&#45;&gt;Node18 -->
<g id="edge72" class="edge"><title>Node1&#45;&gt;Node18</title>
<path fill="none" stroke="midnightblue" d="M1806.65,-338.656C1758.42,-328.288 1676.71,-302.652 1640.3,-244 1635.62,-236.448 1636.18,-231.874 1640.3,-224 1653.35,-199.102 1679.26,-212.898 1692.3,-188 1696.43,-180.126 1698,-174.825 1692.3,-168 1680.02,-153.273 1567.88,-137.526 1498.99,-129.123"/>
<polygon fill="midnightblue" stroke="midnightblue" points="1806.2,-342.135 1816.7,-340.698 1807.6,-335.276 1806.2,-342.135"/>
</g>
<!-- Node21 -->
<g id="node21" class="node"><title>Node21</title>
<g id="a_node21"><a xlink:href="receptor__spec_8h.html" target="_top" xlink:title="spec/receptor_spec.h">
<polygon fill="white" stroke="black" points="748.305,-56.5 748.305,-75.5 858.305,-75.5 858.305,-56.5 748.305,-56.5"/>
<text text-anchor="middle" x="803.305" y="-63.5" font-family="Helvetica,sans-Serif" font-size="10.00">spec/receptor_spec.h</text>
</a>
</g>
</g>
<!-- Node1&#45;&gt;Node21 -->
<g id="edge73" class="edge"><title>Node1&#45;&gt;Node21</title>
<path fill="none" stroke="midnightblue" d="M1806.48,-344.77C1544.66,-342.941 12.3046,-328.25 12.3046,-235 12.3046,-235 12.3046,-235 12.3046,-177 12.3046,-165.272 -92.3793,-171.305 325.305,-112 477.77,-90.352 659.126,-76.5129 748.265,-70.4863"/>
<polygon fill="midnightblue" stroke="midnightblue" points="1806.6,-348.271 1816.62,-344.839 1806.65,-341.271 1806.6,-348.271"/>
</g>
<!-- Node23 -->
<g id="node23" class="node"><title>Node23</title>
<g id="a_node23"><a xlink:href="base__defs_8c.html" target="_top" xlink:title="auto&#45;generated system definitions ">
<polygon fill="white" stroke="black" points="342.305,-112.5 342.305,-131.5 428.305,-131.5 428.305,-112.5 342.305,-112.5"/>
<text text-anchor="middle" x="385.305" y="-119.5" font-family="Helvetica,sans-Serif" font-size="10.00">src/base_defs.c</text>
</a>
</g>
</g>
<!-- Node1&#45;&gt;Node23 -->
<g id="edge64" class="edge"><title>Node1&#45;&gt;Node23</title>
<path fill="none" stroke="midnightblue" d="M1806.54,-344.268C1579.37,-339.648 399.662,-312.481 255.305,-244 218.327,-226.458 178.076,-200.227 203.305,-168 220.209,-146.407 293.708,-133.744 341.977,-127.61"/>
<polygon fill="midnightblue" stroke="midnightblue" points="1806.56,-347.769 1816.63,-344.471 1806.7,-340.771 1806.56,-347.769"/>
</g>
<!-- Node26 -->
<g id="node26" class="node"><title>Node26</title>
<g id="a_node26"><a xlink:href="sys__defs_8c.html" target="_top" xlink:title="definition of system semantic elements for bootstrapping ">
<polygon fill="white" stroke="black" points="1784.8,-224.5 1784.8,-243.5 1865.8,-243.5 1865.8,-224.5 1784.8,-224.5"/>
<text text-anchor="middle" x="1825.3" y="-231.5" font-family="Helvetica,sans-Serif" font-size="10.00">src/sys_defs.c</text>
</a>
</g>
</g>
<!-- Node1&#45;&gt;Node26 -->
<g id="edge70" class="edge"><title>Node1&#45;&gt;Node26</title>
<path fill="none" stroke="midnightblue" d="M1841.08,-326.348C1836.92,-302.254 1829.85,-261.308 1826.79,-243.591"/>
<polygon fill="midnightblue" stroke="midnightblue" points="1837.66,-327.11 1842.81,-336.368 1844.56,-325.919 1837.66,-327.11"/>
</g>
<!-- Node27 -->
<g id="node27" class="node"><title>Node27</title>
<g id="a_node27"><a xlink:href="tree_8c.html" target="_top" xlink:title="semantic tree pointer implementation ">
<polygon fill="white" stroke="black" points="1884.3,-224.5 1884.3,-243.5 1942.3,-243.5 1942.3,-224.5 1884.3,-224.5"/>
<text text-anchor="middle" x="1913.3" y="-231.5" font-family="Helvetica,sans-Serif" font-size="10.00">src/tree.c</text>
</a>
</g>
</g>
<!-- Node1&#45;&gt;Node27 -->
<g id="edge71" class="edge"><title>Node1&#45;&gt;Node27</title>
<path fill="none" stroke="midnightblue" d="M1855.19,-327.64C1870.18,-303.744 1896.6,-261.629 1907.92,-243.591"/>
<polygon fill="midnightblue" stroke="midnightblue" points="1852.07,-326.037 1849.72,-336.368 1858,-329.757 1852.07,-326.037"/>
</g>
<!-- Node32 -->
<g id="node32" class="node"><title>Node32</title>
<g id="a_node32"><a xlink:href="profile__example_8h.html" target="_top" xlink:title="spec/profile_example.h">
<polygon fill="white" stroke="black" points="1649.8,-224.5 1649.8,-243.5 1766.8,-243.5 1766.8,-224.5 1649.8,-224.5"/>
<text text-anchor="middle" x="1708.3" y="-231.5" font-family="Helvetica,sans-Serif" font-size="10.00">spec/profile_example.h</text>
</a>
</g>
</g>
<!-- Node1&#45;&gt;Node32 -->
<g id="edge74" class="edge"><title>Node1&#45;&gt;Node32</title>
<path fill="none" stroke="midnightblue" d="M1825.53,-329.816C1796.57,-306.387 1741.92,-262.19 1718.93,-243.591"/>
<polygon fill="midnightblue" stroke="midnightblue" points="1823.66,-332.801 1833.63,-336.368 1828.06,-327.358 1823.66,-332.801"/>
</g>
<!-- Node33 -->
<g id="node33" class="node"><title>Node33</title>
<g id="a_node33"><a xlink:href="def_8c.html" target="_top" xlink:title="implementation file for symbol and structure definition functions ">
<polygon fill="white" stroke="black" points="1929.8,-280.5 1929.8,-299.5 1984.8,-299.5 1984.8,-280.5 1929.8,-280.5"/>
<text text-anchor="middle" x="1957.3" y="-287.5" font-family="Helvetica,sans-Serif" font-size="10.00">src/def.c</text>
</a>
</g>
</g>
<!-- Node1&#45;&gt;Node33 -->
<g id="edge65" class="edge"><title>Node1&#45;&gt;Node33</title>
<path fill="none" stroke="midnightblue" d="M1871.31,-332.096C1892.42,-322.007 1921.17,-308.27 1939.48,-299.516"/>
<polygon fill="midnightblue" stroke="midnightblue" points="1869.72,-328.974 1862.21,-336.444 1872.74,-335.29 1869.72,-328.974"/>
</g>
<!-- Node34 -->
<g id="node34" class="node"><title>Node34</title>
<g id="a_node34"><a xlink:href="mtree_8c.html" target="_top" xlink:title="semantic tree matrix implementation ">
<polygon fill="white" stroke="black" points="2003.3,-280.5 2003.3,-299.5 2069.3,-299.5 2069.3,-280.5 2003.3,-280.5"/>
<text text-anchor="middle" x="2036.3" y="-287.5" font-family="Helvetica,sans-Serif" font-size="10.00">src/mtree.c</text>
</a>
</g>
</g>
<!-- Node1&#45;&gt;Node34 -->
<g id="edge66" class="edge"><title>Node1&#45;&gt;Node34</title>
<path fill="none" stroke="midnightblue" d="M1881.53,-334.53C1917.81,-324.328 1972.28,-309.006 2006,-299.524"/>
<polygon fill="midnightblue" stroke="midnightblue" points="1880.49,-331.186 1871.81,-337.263 1882.39,-337.925 1880.49,-331.186"/>
</g>
<!-- Node35 -->
<g id="node35" class="node"><title>Node35</title>
<g id="a_node35"><a xlink:href="semtable_8c.html" target="_top" xlink:title="implementation of table for coordinating meaning across a vmhost ">
<polygon fill="white" stroke="black" points="2087.8,-280.5 2087.8,-299.5 2168.8,-299.5 2168.8,-280.5 2087.8,-280.5"/>
<text text-anchor="middle" x="2128.3" y="-287.5" font-family="Helvetica,sans-Serif" font-size="10.00">src/semtable.c</text>
</a>
</g>
</g>
<!-- Node1&#45;&gt;Node35 -->
<g id="edge68" class="edge"><title>Node1&#45;&gt;Node35</title>
<path fill="none" stroke="midnightblue" d="M1882.13,-337.807C1935.59,-327.643 2032.83,-309.155 2087.73,-298.714"/>
<polygon fill="midnightblue" stroke="midnightblue" points="1881.22,-334.418 1872.05,-339.724 1882.53,-341.294 1881.22,-334.418"/>
</g>
<!-- Node36 -->
<g id="node36" class="node"><title>Node36</title>
<g id="a_node36"><a xlink:href="semtrex_8c.html" target="_top" xlink:title="semtrex implementation ">
<polygon fill="white" stroke="black" points="2186.8,-280.5 2186.8,-299.5 2263.8,-299.5 2263.8,-280.5 2186.8,-280.5"/>
<text text-anchor="middle" x="2225.3" y="-287.5" font-family="Helvetica,sans-Serif" font-size="10.00">src/semtrex.c</text>
</a>
</g>
</g>
<!-- Node1&#45;&gt;Node36 -->
<g id="edge69" class="edge"><title>Node1&#45;&gt;Node36</title>
<path fill="none" stroke="midnightblue" d="M1882.07,-340.534C1943.92,-333.076 2070.59,-317.203 2177.3,-300 2180.32,-299.514 2183.43,-298.987 2186.56,-298.44"/>
<polygon fill="midnightblue" stroke="midnightblue" points="1881.52,-337.075 1872,-341.742 1882.35,-344.025 1881.52,-337.075"/>
</g>
<!-- Node3 -->
<g id="node3" class="node"><title>Node3</title>
<g id="a_node3"><a xlink:href="vmhost_8h.html" target="_top" xlink:title="vmhost implementation header file ">
<polygon fill="white" stroke="black" points="1096.3,-224.5 1096.3,-243.5 1170.3,-243.5 1170.3,-224.5 1096.3,-224.5"/>
<text text-anchor="middle" x="1133.3" y="-231.5" font-family="Helvetica,sans-Serif" font-size="10.00">src/vmhost.h</text>
</a>
</g>
</g>
<!-- Node2&#45;&gt;Node3 -->
<g id="edge2" class="edge"><title>Node2&#45;&gt;Node3</title>
<path fill="none" stroke="midnightblue" d="M1248.93,-276.906C1220.92,-266.754 1181.61,-252.506 1156.8,-243.516"/>
<polygon fill="midnightblue" stroke="midnightblue" points="1248.1,-280.327 1258.7,-280.444 1250.49,-273.746 1248.1,-280.327"/>
</g>
<!-- Node5 -->
<g id="node5" class="node"><title>Node5</title>
<g id="a_node5"><a xlink:href="accumulator_8c.html" target="_top" xlink:title="implementation file for accumulator ">
<polygon fill="white" stroke="black" points="787.805,-112.5 787.805,-131.5 882.805,-131.5 882.805,-112.5 787.805,-112.5"/>
<text text-anchor="middle" x="835.305" y="-119.5" font-family="Helvetica,sans-Serif" font-size="10.00">src/accumulator.c</text>
</a>
</g>
</g>
<!-- Node2&#45;&gt;Node5 -->
<g id="edge34" class="edge"><title>Node2&#45;&gt;Node5</title>
<path fill="none" stroke="midnightblue" d="M1233.47,-280.831C1193.51,-273.413 1135.86,-261.026 1087.3,-244 993.418,-211.082 888.301,-153.293 850.145,-131.574"/>
<polygon fill="midnightblue" stroke="midnightblue" points="1233.02,-284.307 1243.48,-282.655 1234.27,-277.42 1233.02,-284.307"/>
</g>
<!-- Node2&#45;&gt;Node11 -->
<g id="edge46" class="edge"><title>Node2&#45;&gt;Node11</title>
<path fill="none" stroke="midnightblue" d="M1331.04,-288.377C1374.58,-285.581 1438.25,-275.751 1483.3,-244 1515.96,-220.987 1503.98,-197.146 1531.3,-168 1545.31,-153.057 1564.9,-139.808 1578.29,-131.622"/>
<polygon fill="midnightblue" stroke="midnightblue" points="1330.78,-284.886 1320.98,-288.921 1331.16,-291.876 1330.78,-284.886"/>
</g>
<!-- Node12 -->
<g id="node12" class="node"><title>Node12</title>
<g id="a_node12"><a xlink:href="receptor_8c.html" target="_top" xlink:title="receptor implementation ">
<polygon fill="white" stroke="black" points="692.805,-112.5 692.805,-131.5 769.805,-131.5 769.805,-112.5 692.805,-112.5"/>
<text text-anchor="middle" x="731.305" y="-119.5" font-family="Helvetica,sans-Serif" font-size="10.00">src/receptor.c</text>
</a>
</g>
</g>
<!-- Node2&#45;&gt;Node12 -->
<g id="edge47" class="edge"><title>Node2&#45;&gt;Node12</title>
<path fill="none" stroke="midnightblue" d="M1233.77,-283.188C1183.09,-276.436 1101.64,-263.644 1033.3,-244 921.752,-211.93 794.69,-153.377 748.901,-131.524"/>
<polygon fill="midnightblue" stroke="midnightblue" points="1233.42,-286.672 1243.79,-284.498 1234.33,-279.731 1233.42,-286.672"/>
</g>
<!-- Node2&#45;&gt;Node18 -->
<g id="edge55" class="edge"><title>Node2&#45;&gt;Node18</title>
<path fill="none" stroke="midnightblue" d="M1301.99,-274.14C1326.1,-255.452 1367.51,-221.713 1398.3,-188 1415.21,-169.493 1431.58,-144.877 1439.81,-131.892"/>
<polygon fill="midnightblue" stroke="midnightblue" points="1299.75,-271.451 1293.95,-280.316 1304.01,-277.003 1299.75,-271.451"/>
</g>
<!-- Node19 -->
<g id="node19" class="node"><title>Node19</title>
<g id="a_node19"><a xlink:href="tree__spec_8h.html" target="_top" xlink:title="spec/tree_spec.h">
<polygon fill="white" stroke="black" points="1466.3,-56.5 1466.3,-75.5 1558.3,-75.5 1558.3,-56.5 1466.3,-56.5"/>
<text text-anchor="middle" x="1512.3" y="-63.5" font-family="Helvetica,sans-Serif" font-size="10.00">spec/tree_spec.h</text>
</a>
</g>
</g>
<!-- Node2&#45;&gt;Node19 -->
<g id="edge54" class="edge"><title>Node2&#45;&gt;Node19</title>
<path fill="none" stroke="midnightblue" d="M1316.59,-276.81C1368.73,-256.193 1466.25,-208.997 1507.3,-132 1517,-113.824 1515.43,-88.6387 1513.72,-75.5974"/>
<polygon fill="midnightblue" stroke="midnightblue" points="1315.17,-273.605 1307.1,-280.466 1317.69,-280.137 1315.17,-273.605"/>
</g>
<!-- Node20 -->
<g id="node20" class="node"><title>Node20</title>
<g id="a_node20"><a xlink:href="mtree__spec_8h.html" target="_top" xlink:title="spec/mtree_spec.h">
<polygon fill="white" stroke="black" points="1576.3,-56.5 1576.3,-75.5 1676.3,-75.5 1676.3,-56.5 1576.3,-56.5"/>
<text text-anchor="middle" x="1626.3" y="-63.5" font-family="Helvetica,sans-Serif" font-size="10.00">spec/mtree_spec.h</text>
</a>
</g>
</g>
<!-- Node2&#45;&gt;Node20 -->
<g id="edge56" class="edge"><title>Node2&#45;&gt;Node20</title>
<path fill="none" stroke="midnightblue" d="M1331.37,-289.072C1379.61,-286.987 1453.61,-277.837 1507.3,-244 1543.02,-221.488 1531.6,-194.707 1564.3,-168 1593.25,-144.358 1620.32,-163.583 1640.3,-132 1651.54,-114.247 1639.72,-88.8835 1631.95,-75.7036"/>
<polygon fill="midnightblue" stroke="midnightblue" points="1331.06,-285.58 1321.19,-289.423 1331.3,-292.576 1331.06,-285.58"/>
</g>
<!-- Node2&#45;&gt;Node21 -->
<g id="edge59" class="edge"><title>Node2&#45;&gt;Node21</title>
<path fill="none" stroke="midnightblue" d="M1233.43,-289.666C1053.64,-290.895 434.176,-283.921 333.305,-132 328.388,-124.595 327.326,-118.578 333.305,-112 347.104,-96.8158 626.898,-77.852 748.107,-70.3125"/>
<polygon fill="midnightblue" stroke="midnightblue" points="1233.67,-293.164 1243.64,-289.584 1233.61,-286.165 1233.67,-293.164"/>
</g>
<!-- Node2&#45;&gt;Node23 -->
<g id="edge35" class="edge"><title>Node2&#45;&gt;Node23</title>
<path fill="none" stroke="midnightblue" d="M1233.6,-287.349C1107.62,-282.775 773.266,-268.621 665.305,-244 557.914,-219.509 440.189,-154.937 399.818,-131.583"/>
<polygon fill="midnightblue" stroke="midnightblue" points="1233.61,-290.851 1243.73,-287.712 1233.86,-283.856 1233.61,-290.851"/>
</g>
<!-- Node24 -->
<g id="node24" class="node"><title>Node24</title>
<g id="a_node24"><a xlink:href="protocol_8h.html" target="_top" xlink:title="protocol helpers header file ">
<polygon fill="white" stroke="black" points="532.305,-168.5 532.305,-187.5 608.305,-187.5 608.305,-168.5 532.305,-168.5"/>
<text text-anchor="middle" x="570.305" y="-175.5" font-family="Helvetica,sans-Serif" font-size="10.00">src/protocol.h</text>
</a>
</g>
</g>
<!-- Node2&#45;&gt;Node24 -->
<g id="edge36" class="edge"><title>Node2&#45;&gt;Node24</title>
<path fill="none" stroke="midnightblue" d="M1233.5,-287.035C1116.21,-281.995 821.152,-267.338 725.305,-244 672.003,-231.021 613.396,-202.05 586.021,-187.575"/>
<polygon fill="midnightblue" stroke="midnightblue" points="1233.48,-290.537 1243.62,-287.465 1233.78,-283.544 1233.48,-290.537"/>
</g>
<!-- Node2&#45;&gt;Node26 -->
<g id="edge48" class="edge"><title>Node2&#45;&gt;Node26</title>
<path fill="none" stroke="midnightblue" d="M1331.14,-285.958C1419.86,-280.116 1613.3,-265.932 1775.3,-244 1778.36,-243.586 1781.52,-243.117 1784.69,-242.615"/>
<polygon fill="midnightblue" stroke="midnightblue" points="1330.85,-282.469 1321.1,-286.612 1331.31,-289.454 1330.85,-282.469"/>
</g>
<!-- Node2&#45;&gt;Node27 -->
<g id="edge49" class="edge"><title>Node2&#45;&gt;Node27</title>
<path fill="none" stroke="midnightblue" d="M1331.24,-287.776C1432.92,-284.686 1674.28,-274.504 1874.3,-244 1877.46,-243.518 1880.75,-242.919 1884.01,-242.26"/>
<polygon fill="midnightblue" stroke="midnightblue" points="1330.87,-284.286 1320.97,-288.078 1331.07,-291.283 1330.87,-284.286"/>
</g>
<!-- Node28 -->
<g id="node28" class="node"><title>Node28</title>
<g id="a_node28"><a xlink:href="semtable__spec_8h.html" target="_top" xlink:title="spec/semtable_spec.h">
<polygon fill="white" stroke="black" points="40.8046,-168.5 40.8046,-187.5 155.805,-187.5 155.805,-168.5 40.8046,-168.5"/>
<text text-anchor="middle" x="98.3046" y="-175.5" font-family="Helvetica,sans-Serif" font-size="10.00">spec/semtable_spec.h</text>
</a>
</g>
</g>
<!-- Node2&#45;&gt;Node28 -->
<g id="edge50" class="edge"><title>Node2&#45;&gt;Node28</title>
<path fill="none" stroke="midnightblue" d="M1233.47,-289.103C1055.92,-289.129 445.147,-286.085 255.305,-244 200.87,-231.933 141.237,-202.255 113.752,-187.547"/>
<polygon fill="midnightblue" stroke="midnightblue" points="1233.56,-292.603 1243.56,-289.098 1233.56,-285.603 1233.56,-292.603"/>
</g>
<!-- Node29 -->
<g id="node29" class="node"><title>Node29</title>
<g id="a_node29"><a xlink:href="def__spec_8h.html" target="_top" xlink:title="spec/def_spec.h">
<polygon fill="white" stroke="black" points="212.805,-168.5 212.805,-187.5 301.805,-187.5 301.805,-168.5 212.805,-168.5"/>
<text text-anchor="middle" x="257.305" y="-175.5" font-family="Helvetica,sans-Serif" font-size="10.00">spec/def_spec.h</text>
</a>
</g>
</g>
<!-- Node2&#45;&gt;Node29 -->
<g id="edge52" class="edge"><title>Node2&#45;&gt;Node29</title>
<path fill="none" stroke="midnightblue" d="M1233.58,-288.489C1036.5,-286.213 307.231,-275.67 270.305,-244 254.057,-230.065 254.556,-202.066 256.045,-187.796"/>
<polygon fill="midnightblue" stroke="midnightblue" points="1233.6,-291.99 1243.64,-288.604 1233.68,-284.99 1233.6,-291.99"/>
</g>
<!-- Node30 -->
<g id="node30" class="node"><title>Node30</title>
<g id="a_node30"><a xlink:href="semtrex__spec_8h.html" target="_top" xlink:title="spec/semtrex_spec.h">
<polygon fill="white" stroke="black" points="1573.3,-168.5 1573.3,-187.5 1683.3,-187.5 1683.3,-168.5 1573.3,-168.5"/>
<text text-anchor="middle" x="1628.3" y="-175.5" font-family="Helvetica,sans-Serif" font-size="10.00">spec/semtrex_spec.h</text>
</a>
</g>
</g>
<!-- Node2&#45;&gt;Node30 -->
<g id="edge57" class="edge"><title>Node2&#45;&gt;Node30</title>
<path fill="none" stroke="midnightblue" d="M1331.45,-289.552C1388.96,-288.325 1485.68,-280.323 1559.3,-244 1586.76,-230.457 1610.74,-202.281 1621.81,-187.884"/>
<polygon fill="midnightblue" stroke="midnightblue" points="1331.13,-286.056 1321.18,-289.708 1331.23,-293.056 1331.13,-286.056"/>
</g>
<!-- Node31 -->
<g id="node31" class="node"><title>Node31</title>
<g id="a_node31"><a xlink:href="scape__spec_8h.html" target="_top" xlink:title="spec/scape_spec.h">
<polygon fill="white" stroke="black" points="279.805,-224.5 279.805,-243.5 380.805,-243.5 380.805,-224.5 279.805,-224.5"/>
<text text-anchor="middle" x="330.305" y="-231.5" font-family="Helvetica,sans-Serif" font-size="10.00">spec/scape_spec.h</text>
</a>
</g>
</g>
<!-- Node2&#45;&gt;Node31 -->
<g id="edge60" class="edge"><title>Node2&#45;&gt;Node31</title>
<path fill="none" stroke="midnightblue" d="M1233.4,-288.01C1099.22,-284.973 714.03,-274.093 395.305,-244 390.654,-243.561 385.826,-243.032 380.997,-242.452"/>
<polygon fill="midnightblue" stroke="midnightblue" points="1233.67,-291.517 1243.75,-288.24 1233.83,-284.519 1233.67,-291.517"/>
</g>
<!-- Node2&#45;&gt;Node32 -->
<g id="edge62" class="edge"><title>Node2&#45;&gt;Node32</title>
<path fill="none" stroke="midnightblue" d="M1331,-282.828C1409.79,-272.839 1564.95,-253.172 1649.68,-242.431"/>
<polygon fill="midnightblue" stroke="midnightblue" points="1330.34,-279.383 1320.86,-284.113 1331.22,-286.327 1330.34,-279.383"/>
</g>
<!-- Node4 -->
<g id="node4" class="node"><title>Node4</title>
<g id="a_node4"><a xlink:href="accumulator_8h.html" target="_top" xlink:title="header file for the accumulator ">
<polygon fill="white" stroke="black" points="1085.8,-168.5 1085.8,-187.5 1180.8,-187.5 1180.8,-168.5 1085.8,-168.5"/>
<text text-anchor="middle" x="1133.3" y="-175.5" font-family="Helvetica,sans-Serif" font-size="10.00">src/accumulator.h</text>
</a>
</g>
</g>
<!-- Node3&#45;&gt;Node4 -->
<g id="edge3" class="edge"><title>Node3&#45;&gt;Node4</title>
<path fill="none" stroke="midnightblue" d="M1133.3,-213.805C1133.3,-204.91 1133.3,-194.78 1133.3,-187.751"/>
<polygon fill="midnightblue" stroke="midnightblue" points="1129.8,-214.083 1133.3,-224.083 1136.8,-214.083 1129.8,-214.083"/>
</g>
<!-- Node15 -->
<g id="node15" class="node"><title>Node15</title>
<g id="a_node15"><a xlink:href="vmhost__spec_8h.html" target="_top" xlink:title="spec/vmhost_spec.h">
<polygon fill="white" stroke="black" points="1302.8,-56.5 1302.8,-75.5 1409.8,-75.5 1409.8,-56.5 1302.8,-56.5"/>
<text text-anchor="middle" x="1356.3" y="-63.5" font-family="Helvetica,sans-Serif" font-size="10.00">spec/vmhost_spec.h</text>
</a>
</g>
</g>
<!-- Node3&#45;&gt;Node15 -->
<g id="edge33" class="edge"><title>Node3&#45;&gt;Node15</title>
<path fill="none" stroke="midnightblue" d="M1180.34,-223.592C1229.18,-211.258 1303.97,-184.683 1344.3,-132 1357.14,-115.235 1357.72,-88.9907 1357.04,-75.5543"/>
<polygon fill="midnightblue" stroke="midnightblue" points="1179.23,-220.26 1170.33,-226.013 1180.87,-227.064 1179.23,-220.26"/>
</g>
<!-- Node16 -->
<g id="node16" class="node"><title>Node16</title>
<g id="a_node16"><a xlink:href="vmhost_8c.html" target="_top" xlink:title="virtual machine host receptor implementation ">
<polygon fill="white" stroke="black" points="939.305,-112.5 939.305,-131.5 1013.3,-131.5 1013.3,-112.5 939.305,-112.5"/>
<text text-anchor="middle" x="976.305" y="-119.5" font-family="Helvetica,sans-Serif" font-size="10.00">src/vmhost.c</text>
</a>
</g>
</g>
<!-- Node3&#45;&gt;Node16 -->
<g id="edge30" class="edge"><title>Node3&#45;&gt;Node16</title>
<path fill="none" stroke="midnightblue" d="M1112.49,-218.417C1079.28,-195.151 1015.34,-150.35 988.567,-131.591"/>
<polygon fill="midnightblue" stroke="midnightblue" points="1110.79,-221.497 1120.99,-224.368 1114.8,-215.764 1110.79,-221.497"/>
</g>
<!-- Node3&#45;&gt;Node18 -->
<g id="edge31" class="edge"><title>Node3&#45;&gt;Node18</title>
<path fill="none" stroke="midnightblue" d="M1180.78,-231.091C1230.09,-227.511 1308.41,-217.264 1369.3,-188 1398.41,-174.012 1425.34,-146.037 1437.89,-131.785"/>
<polygon fill="midnightblue" stroke="midnightblue" points="1180.46,-227.604 1170.71,-231.758 1180.92,-234.589 1180.46,-227.604"/>
</g>
<!-- Node3&#45;&gt;Node21 -->
<g id="edge32" class="edge"><title>Node3&#45;&gt;Node21</title>
<path fill="none" stroke="midnightblue" d="M1105.32,-220.255C1086.09,-211.407 1060.03,-199.235 1037.3,-188 971.727,-155.58 956.316,-145.542 891.305,-112 866.601,-99.2541 837.923,-84.6194 820.193,-75.5905"/>
<polygon fill="midnightblue" stroke="midnightblue" points="1103.88,-223.446 1114.43,-224.434 1106.8,-217.084 1103.88,-223.446"/>
</g>
<!-- Node22 -->
<g id="node22" class="node"><title>Node22</title>
<g id="a_node22"><a xlink:href="protocol_8c.html" target="_top" xlink:title="implementation of protocol helpers ">
<polygon fill="white" stroke="black" points="598.305,-112.5 598.305,-131.5 674.305,-131.5 674.305,-112.5 598.305,-112.5"/>
<text text-anchor="middle" x="636.305" y="-119.5" font-family="Helvetica,sans-Serif" font-size="10.00">src/protocol.c</text>
</a>
</g>
</g>
<!-- Node3&#45;&gt;Node22 -->
<g id="edge29" class="edge"><title>Node3&#45;&gt;Node22</title>
<path fill="none" stroke="midnightblue" d="M1085.93,-224.767C1038.17,-216.279 962.396,-202.299 897.305,-188 814.296,-169.765 717.398,-144.605 668.314,-131.583"/>
<polygon fill="midnightblue" stroke="midnightblue" points="1085.52,-228.249 1095.98,-226.545 1086.74,-221.356 1085.52,-228.249"/>
</g>
<!-- Node4&#45;&gt;Node5 -->
<g id="edge4" class="edge"><title>Node4&#45;&gt;Node5</title>
<path fill="none" stroke="midnightblue" d="M1075.92,-166.601C1019.6,-156.395 934.742,-141.019 882.303,-131.516"/>
<polygon fill="midnightblue" stroke="midnightblue" points="1075.62,-170.104 1086.09,-168.444 1076.87,-163.217 1075.62,-170.104"/>
</g>
<!-- Node6 -->
<g id="node6" class="node"><title>Node6</title>
<g id="a_node6"><a xlink:href="ceptr_8c.html" target="_top" xlink:title="implements main() entry point for the ceptr node ">
<polygon fill="white" stroke="black" points="1191.8,-112.5 1191.8,-131.5 1254.8,-131.5 1254.8,-112.5 1191.8,-112.5"/>
<text text-anchor="middle" x="1223.3" y="-119.5" font-family="Helvetica,sans-Serif" font-size="10.00">src/ceptr.c</text>
</a>
</g>
</g>
<!-- Node4&#45;&gt;Node6 -->
<g id="edge5" class="edge"><title>Node4&#45;&gt;Node6</title>
<path fill="none" stroke="midnightblue" d="M1156.34,-163.177C1172.9,-153.241 1194.72,-140.149 1208.88,-131.655"/>
<polygon fill="midnightblue" stroke="midnightblue" points="1154.54,-160.178 1147.76,-168.324 1158.14,-166.18 1154.54,-160.178"/>
</g>
<!-- Node7 -->
<g id="node7" class="node"><title>Node7</title>
<g id="a_node7"><a xlink:href="group_8h.html" target="_top" xlink:title="group communication receptors header file ">
<polygon fill="white" stroke="black" points="1069.8,-112.5 1069.8,-131.5 1134.8,-131.5 1134.8,-112.5 1069.8,-112.5"/>
<text text-anchor="middle" x="1102.3" y="-119.5" font-family="Helvetica,sans-Serif" font-size="10.00">src/group.h</text>
</a>
</g>
</g>
<!-- Node4&#45;&gt;Node7 -->
<g id="edge6" class="edge"><title>Node4&#45;&gt;Node7</title>
<path fill="none" stroke="midnightblue" d="M1123.13,-159.275C1117.83,-150.045 1111.59,-139.17 1107.33,-131.751"/>
<polygon fill="midnightblue" stroke="midnightblue" points="1120.17,-161.153 1128.19,-168.083 1126.24,-157.668 1120.17,-161.153"/>
</g>
<!-- Node4&#45;&gt;Node11 -->
<g id="edge10" class="edge"><title>Node4&#45;&gt;Node11</title>
<path fill="none" stroke="midnightblue" d="M1191.29,-170.193C1286.75,-158.987 1474.45,-136.952 1555.05,-127.491"/>
<polygon fill="midnightblue" stroke="midnightblue" points="1190.75,-166.732 1181.23,-171.374 1191.57,-173.684 1190.75,-166.732"/>
</g>
<!-- Node4&#45;&gt;Node12 -->
<g id="edge11" class="edge"><title>Node4&#45;&gt;Node12</title>
<path fill="none" stroke="midnightblue" d="M1075.81,-170.841C1005.46,-163.047 882.835,-148.616 778.305,-132 775.597,-131.57 772.806,-131.101 769.999,-130.61"/>
<polygon fill="midnightblue" stroke="midnightblue" points="1075.47,-174.326 1085.8,-171.943 1076.24,-167.368 1075.47,-174.326"/>
</g>
<!-- Node13 -->
<g id="node13" class="node"><title>Node13</title>
<g id="a_node13"><a xlink:href="shell_8h.html" target="_top" xlink:title="command line shell receptor header files ">
<polygon fill="white" stroke="black" points="1273.3,-112.5 1273.3,-131.5 1335.3,-131.5 1335.3,-112.5 1273.3,-112.5"/>
<text text-anchor="middle" x="1304.3" y="-119.5" font-family="Helvetica,sans-Serif" font-size="10.00">src/shell.h</text>
</a>
</g>
</g>
<!-- Node4&#45;&gt;Node13 -->
<g id="edge12" class="edge"><title>Node4&#45;&gt;Node13</title>
<path fill="none" stroke="midnightblue" d="M1170.34,-165.304C1202.56,-155.129 1248.49,-140.625 1277.34,-131.516"/>
<polygon fill="midnightblue" stroke="midnightblue" points="1168.88,-162.095 1160.4,-168.444 1170.99,-168.77 1168.88,-162.095"/>
</g>
<!-- Node4&#45;&gt;Node16 -->
<g id="edge16" class="edge"><title>Node4&#45;&gt;Node16</title>
<path fill="none" stroke="midnightblue" d="M1098.92,-165.172C1069.35,-155.004 1027.43,-140.585 1001.07,-131.516"/>
<polygon fill="midnightblue" stroke="midnightblue" points="1097.83,-168.501 1108.43,-168.444 1100.11,-161.881 1097.83,-168.501"/>
</g>
<!-- Node17 -->
<g id="node17" class="node"><title>Node17</title>
<g id="a_node17"><a xlink:href="accumulator__spec_8h_source.html" target="_top" xlink:title="spec/accumulator_spec.h">
<polygon fill="white" stroke="black" points="1077.3,-56.5 1077.3,-75.5 1205.3,-75.5 1205.3,-56.5 1077.3,-56.5"/>
<text text-anchor="middle" x="1141.3" y="-63.5" font-family="Helvetica,sans-Serif" font-size="10.00">spec/accumulator_spec.h</text>
</a>
</g>
</g>
<!-- Node4&#45;&gt;Node17 -->
<g id="edge17" class="edge"><title>Node4&#45;&gt;Node17</title>
<path fill="none" stroke="midnightblue" d="M1138.34,-158.625C1140.31,-150.528 1142.33,-140.86 1143.3,-132 1145.5,-112.024 1143.67,-88.4021 1142.36,-75.8621"/>
<polygon fill="midnightblue" stroke="midnightblue" points="1134.91,-157.908 1135.79,-168.467 1141.69,-159.667 1134.91,-157.908"/>
</g>
<!-- Node4&#45;&gt;Node18 -->
<g id="edge19" class="edge"><title>Node4&#45;&gt;Node18</title>
<path fill="none" stroke="midnightblue" d="M1190.92,-167.027C1249.83,-156.832 1340.36,-141.164 1396.04,-131.527"/>
<polygon fill="midnightblue" stroke="midnightblue" points="1190.29,-163.586 1181.03,-168.74 1191.48,-170.483 1190.29,-163.586"/>
</g>
<!-- Node4&#45;&gt;Node21 -->
<g id="edge28" class="edge"><title>Node4&#45;&gt;Node21</title>
<path fill="none" stroke="midnightblue" d="M1110.23,-162.942C1080.48,-144.907 1031.48,-115.518 1022.3,-112 992.315,-100.499 909.572,-85.0609 854.817,-75.5832"/>
<polygon fill="midnightblue" stroke="midnightblue" points="1108.77,-166.152 1119.13,-168.351 1112.4,-160.169 1108.77,-166.152"/>
</g>
<!-- Node8 -->
<g id="node8" class="node"><title>Node8</title>
<g id="a_node8"><a xlink:href="group_8c.html" target="_top" xlink:title="implementation of some group communication receptors ">
<polygon fill="white" stroke="black" points="876.805,-56.5 876.805,-75.5 941.805,-75.5 941.805,-56.5 876.805,-56.5"/>
<text text-anchor="middle" x="909.305" y="-63.5" font-family="Helvetica,sans-Serif" font-size="10.00">src/group.c</text>
</a>
</g>
</g>
<!-- Node7&#45;&gt;Node8 -->
<g id="edge7" class="edge"><title>Node7&#45;&gt;Node8</title>
<path fill="none" stroke="midnightblue" d="M1061.91,-109.699C1025.49,-99.507 972.719,-84.7429 939.743,-75.5164"/>
<polygon fill="midnightblue" stroke="midnightblue" points="1061.15,-113.12 1071.72,-112.444 1063.04,-106.378 1061.15,-113.12"/>
</g>
<!-- Node9 -->
<g id="node9" class="node"><title>Node9</title>
<g id="a_node9"><a xlink:href="group__spec_8h.html" target="_top" xlink:title="spec/group_spec.h">
<polygon fill="white" stroke="black" points="959.805,-56.5 959.805,-75.5 1058.8,-75.5 1058.8,-56.5 959.805,-56.5"/>
<text text-anchor="middle" x="1009.3" y="-63.5" font-family="Helvetica,sans-Serif" font-size="10.00">spec/group_spec.h</text>
</a>
</g>
</g>
<!-- Node7&#45;&gt;Node9 -->
<g id="edge8" class="edge"><title>Node7&#45;&gt;Node9</title>
<path fill="none" stroke="midnightblue" d="M1078.5,-107.177C1061.39,-97.2407 1038.84,-84.1492 1024.21,-75.6545"/>
<polygon fill="midnightblue" stroke="midnightblue" points="1076.96,-110.329 1087.36,-112.324 1080.47,-104.276 1076.96,-110.329"/>
</g>
<!-- Node10 -->
<g id="node10" class="node"><title>Node10</title>
<g id="a_node10"><a xlink:href="ceptr__specs_8c.html" target="_top" xlink:title="implements a main() entry point for running all the tests ">
<polygon fill="white" stroke="black" points="1090.3,-0.5 1090.3,-19.5 1192.3,-19.5 1192.3,-0.5 1090.3,-0.5"/>
<text text-anchor="middle" x="1141.3" y="-7.5" font-family="Helvetica,sans-Serif" font-size="10.00">spec/ceptr_specs.c</text>
</a>
</g>
</g>
<!-- Node9&#45;&gt;Node10 -->
<g id="edge9" class="edge"><title>Node9&#45;&gt;Node10</title>
<path fill="none" stroke="midnightblue" d="M1039.52,-52.6377C1064.29,-42.504 1098.7,-28.4274 1120.49,-19.5164"/>
<polygon fill="midnightblue" stroke="midnightblue" points="1038.15,-49.4177 1030.22,-56.4435 1040.8,-55.8966 1038.15,-49.4177"/>
</g>
<!-- Node14 -->
<g id="node14" class="node"><title>Node14</title>
<g id="a_node14"><a xlink:href="shell_8c.html" target="_top" xlink:title="implementation of a command line shell receptor ">
<polygon fill="white" stroke="black" points="1223.3,-56.5 1223.3,-75.5 1285.3,-75.5 1285.3,-56.5 1223.3,-56.5"/>
<text text-anchor="middle" x="1254.3" y="-63.5" font-family="Helvetica,sans-Serif" font-size="10.00">src/shell.c</text>
</a>
</g>
</g>
<!-- Node13&#45;&gt;Node14 -->
<g id="edge13" class="edge"><title>Node13&#45;&gt;Node14</title>
<path fill="none" stroke="midnightblue" d="M1289.23,-104.718C1280.42,-95.1997 1269.64,-83.5608 1262.41,-75.7511"/>
<polygon fill="midnightblue" stroke="midnightblue" points="1286.69,-107.123 1296.05,-112.083 1291.82,-102.367 1286.69,-107.123"/>
</g>
<!-- Node13&#45;&gt;Node15 -->
<g id="edge14" class="edge"><title>Node13&#45;&gt;Node15</title>
<path fill="none" stroke="midnightblue" d="M1319.98,-104.718C1329.15,-95.1997 1340.36,-83.5608 1347.88,-75.7511"/>
<polygon fill="midnightblue" stroke="midnightblue" points="1317.31,-102.452 1312.89,-112.083 1322.35,-107.308 1317.31,-102.452"/>
</g>
<!-- Node15&#45;&gt;Node10 -->
<g id="edge15" class="edge"><title>Node15&#45;&gt;Node10</title>
<path fill="none" stroke="midnightblue" d="M1312.34,-53.959C1271.74,-43.7598 1212.26,-28.8217 1175.21,-19.5164"/>
<polygon fill="midnightblue" stroke="midnightblue" points="1311.69,-57.4021 1322.24,-56.4435 1313.39,-50.6129 1311.69,-57.4021"/>
</g>
<!-- Node17&#45;&gt;Node10 -->
<g id="edge18" class="edge"><title>Node17&#45;&gt;Node10</title>
<path fill="none" stroke="midnightblue" d="M1141.3,-45.8045C1141.3,-36.9102 1141.3,-26.7798 1141.3,-19.7511"/>
<polygon fill="midnightblue" stroke="midnightblue" points="1137.8,-46.083 1141.3,-56.083 1144.8,-46.083 1137.8,-46.083"/>
</g>
<!-- Node18&#45;&gt;Node10 -->
<g id="edge27" class="edge"><title>Node18&#45;&gt;Node10</title>
<path fill="none" stroke="midnightblue" d="M1442.53,-102.11C1439.32,-87.2486 1432.51,-67.2339 1418.3,-56 1384.15,-28.9913 1262.64,-17.7605 1192.42,-13.4418"/>
<polygon fill="midnightblue" stroke="midnightblue" points="1439.14,-103.017 1444.35,-112.24 1446.03,-101.779 1439.14,-103.017"/>
</g>
<!-- Node18&#45;&gt;Node15 -->
<g id="edge26" class="edge"><title>Node18&#45;&gt;Node15</title>
<path fill="none" stroke="midnightblue" d="M1422.07,-106.901C1405.75,-96.9986 1384.44,-84.0705 1370.57,-75.6545"/>
<polygon fill="midnightblue" stroke="midnightblue" points="1420.64,-110.129 1431.01,-112.324 1424.27,-104.144 1420.64,-110.129"/>
</g>
<!-- Node18&#45;&gt;Node19 -->
<g id="edge20" class="edge"><title>Node18&#45;&gt;Node19</title>
<path fill="none" stroke="midnightblue" d="M1464.14,-105.82C1476.14,-96.1452 1491.28,-83.9481 1501.34,-75.8339"/>
<polygon fill="midnightblue" stroke="midnightblue" points="1461.66,-103.324 1456.07,-112.324 1466.05,-108.774 1461.66,-103.324"/>
</g>
<!-- Node18&#45;&gt;Node20 -->
<g id="edge22" class="edge"><title>Node18&#45;&gt;Node20</title>
<path fill="none" stroke="midnightblue" d="M1483.62,-109.568C1517.77,-99.381 1566.97,-84.7034 1597.76,-75.5164"/>
<polygon fill="midnightblue" stroke="midnightblue" points="1482.57,-106.231 1473.98,-112.444 1484.57,-112.938 1482.57,-106.231"/>
</g>
<!-- Node18&#45;&gt;Node21 -->
<g id="edge24" class="edge"><title>Node18&#45;&gt;Node21</title>
<path fill="none" stroke="midnightblue" d="M1381.39,-115.173C1369.09,-114.088 1356.3,-112.987 1344.3,-112 1132.42,-94.5646 1078.68,-98.8148 867.305,-76 864.404,-75.6869 861.433,-75.3446 858.435,-74.9823"/>
<polygon fill="midnightblue" stroke="midnightblue" points="1381.32,-118.68 1391.59,-116.077 1381.94,-111.707 1381.32,-118.68"/>
</g>
<!-- Node19&#45;&gt;Node10 -->
<g id="edge21" class="edge"><title>Node19&#45;&gt;Node10</title>
<path fill="none" stroke="midnightblue" d="M1456.13,-56.564C1454.84,-56.3739 1453.56,-56.1857 1452.3,-56 1360.82,-42.5202 1254.14,-27.1631 1192.5,-18.3241"/>
<polygon fill="midnightblue" stroke="midnightblue" points="1455.71,-60.0413 1466.12,-58.0477 1456.74,-53.1172 1455.71,-60.0413"/>
</g>
<!-- Node20&#45;&gt;Node10 -->
<g id="edge23" class="edge"><title>Node20&#45;&gt;Node10</title>
<path fill="none" stroke="midnightblue" d="M1565.98,-55.8804C1424.88,-37.8627 1270.76,-22.899 1192.54,-15.6424"/>
<polygon fill="midnightblue" stroke="midnightblue" points="1565.75,-59.3796 1576.11,-57.1829 1566.64,-52.4367 1565.75,-59.3796"/>
</g>
<!-- Node21&#45;&gt;Node10 -->
<g id="edge25" class="edge"><title>Node21&#45;&gt;Node10</title>
<path fill="none" stroke="midnightblue" d="M866.933,-54.8345C931.589,-44.5048 1030.48,-28.7054 1090.21,-19.1629"/>
<polygon fill="midnightblue" stroke="midnightblue" points="866.184,-51.4097 856.862,-56.4435 867.289,-58.322 866.184,-51.4097"/>
</g>
<!-- Node24&#45;&gt;Node8 -->
<g id="edge38" class="edge"><title>Node24&#45;&gt;Node8</title>
<path fill="none" stroke="midnightblue" d="M559.091,-159.302C551.528,-144.889 544.825,-124.885 556.305,-112 602.585,-60.0533 798.656,-87.3017 867.305,-76 870.395,-75.4912 873.602,-74.9071 876.804,-74.2861"/>
<polygon fill="midnightblue" stroke="midnightblue" points="556.218,-161.324 564.252,-168.231 562.278,-157.821 556.218,-161.324"/>
</g>
<!-- Node24&#45;&gt;Node12 -->
<g id="edge40" class="edge"><title>Node24&#45;&gt;Node12</title>
<path fill="none" stroke="midnightblue" d="M605.569,-165.172C635.886,-155.004 678.875,-140.585 705.913,-131.516"/>
<polygon fill="midnightblue" stroke="midnightblue" points="604.183,-161.945 595.816,-168.444 606.409,-168.582 604.183,-161.945"/>
</g>
<!-- Node24&#45;&gt;Node15 -->
<g id="edge43" class="edge"><title>Node24&#45;&gt;Node15</title>
<path fill="none" stroke="midnightblue" d="M570.302,-157.882C571.422,-142.886 575.632,-122.804 589.305,-112 650.846,-63.3717 1216.24,-83.6421 1294.3,-76 1297.01,-75.7351 1299.78,-75.436 1302.57,-75.1121"/>
<polygon fill="midnightblue" stroke="midnightblue" points="566.795,-158.002 569.941,-168.119 573.791,-158.249 566.795,-158.002"/>
</g>
<!-- Node24&#45;&gt;Node18 -->
<g id="edge41" class="edge"><title>Node24&#45;&gt;Node18</title>
<path fill="none" stroke="midnightblue" d="M618.709,-174.705C740.603,-168.812 1070.06,-152.186 1344.3,-132 1359.67,-130.869 1376.33,-129.46 1391.6,-128.095"/>
<polygon fill="midnightblue" stroke="midnightblue" points="618.406,-171.215 608.586,-175.193 618.743,-178.207 618.406,-171.215"/>
</g>
<!-- Node24&#45;&gt;Node21 -->
<g id="edge42" class="edge"><title>Node24&#45;&gt;Node21</title>
<path fill="none" stroke="midnightblue" d="M546.299,-163.043C526.403,-149.735 503.584,-129.227 518.305,-112 547.266,-78.1065 673.739,-69.5905 748.12,-67.5475"/>
<polygon fill="midnightblue" stroke="midnightblue" points="544.49,-166.04 554.809,-168.444 548.241,-160.13 544.49,-166.04"/>
</g>
<!-- Node24&#45;&gt;Node22 -->
<g id="edge39" class="edge"><title>Node24&#45;&gt;Node22</title>
<path fill="none" stroke="midnightblue" d="M588.858,-161.82C600.683,-152.145 615.59,-139.948 625.508,-131.834"/>
<polygon fill="midnightblue" stroke="midnightblue" points="586.432,-159.283 580.909,-168.324 590.865,-164.7 586.432,-159.283"/>
</g>
<!-- Node24&#45;&gt;Node23 -->
<g id="edge37" class="edge"><title>Node24&#45;&gt;Node23</title>
<path fill="none" stroke="midnightblue" d="M531.139,-165.568C496.239,-155.381 445.955,-140.703 414.481,-131.516"/>
<polygon fill="midnightblue" stroke="midnightblue" points="530.411,-169.001 540.991,-168.444 532.372,-162.282 530.411,-169.001"/>
</g>
<!-- Node25 -->
<g id="node25" class="node"><title>Node25</title>
<g id="a_node25"><a xlink:href="protocol__spec_8h.html" target="_top" xlink:title="spec/protocol_spec.h">
<polygon fill="white" stroke="black" points="510.305,-56.5 510.305,-75.5 620.305,-75.5 620.305,-56.5 510.305,-56.5"/>
<text text-anchor="middle" x="565.305" y="-63.5" font-family="Helvetica,sans-Serif" font-size="10.00">spec/protocol_spec.h</text>
</a>
</g>
</g>
<!-- Node24&#45;&gt;Node25 -->
<g id="edge44" class="edge"><title>Node24&#45;&gt;Node25</title>
<path fill="none" stroke="midnightblue" d="M523.527,-164.85C506.927,-158.042 489.978,-147.652 480.305,-132 463.994,-105.609 505.136,-85.9894 535.713,-75.5371"/>
<polygon fill="midnightblue" stroke="midnightblue" points="522.61,-168.244 533.202,-168.458 525.055,-161.685 522.61,-168.244"/>
</g>
<!-- Node25&#45;&gt;Node10 -->
<g id="edge45" class="edge"><title>Node25&#45;&gt;Node10</title>
<path fill="none" stroke="midnightblue" d="M630.672,-58.8718C746.428,-48.0197 985.12,-25.6423 1089.98,-15.8112"/>
<polygon fill="midnightblue" stroke="midnightblue" points="630.164,-55.404 620.534,-59.8223 630.817,-62.3735 630.164,-55.404"/>
</g>
<!-- Node28&#45;&gt;Node10 -->
<g id="edge51" class="edge"><title>Node28&#45;&gt;Node10</title>
<path fill="none" stroke="midnightblue" d="M111.879,-160.535C135.731,-132.993 188.179,-78.3976 246.305,-56 324.97,-25.6874 912.022,-14.4459 1090.19,-11.7114"/>
<polygon fill="midnightblue" stroke="midnightblue" points="108.965,-158.56 105.169,-168.451 114.305,-163.086 108.965,-158.56"/>
</g>
<!-- Node29&#45;&gt;Node10 -->
<g id="edge53" class="edge"><title>Node29&#45;&gt;Node10</title>
<path fill="none" stroke="midnightblue" d="M251.355,-158.56C244.045,-131.923 235.639,-82.9291 262.305,-56 291.569,-26.446 907.003,-14.6111 1090.26,-11.7343"/>
<polygon fill="midnightblue" stroke="midnightblue" points="248.101,-159.896 254.315,-168.478 254.809,-157.894 248.101,-159.896"/>
</g>
<!-- Node30&#45;&gt;Node10 -->
<g id="edge58" class="edge"><title>Node30&#45;&gt;Node10</title>
<path fill="none" stroke="midnightblue" d="M1648.03,-161.833C1657.04,-153.891 1667.08,-143.443 1673.3,-132 1689.65,-101.961 1708.47,-81.1574 1685.3,-56 1652.33,-20.1825 1321.75,-12.8716 1192.61,-11.3811"/>
<polygon fill="midnightblue" stroke="midnightblue" points="1645.61,-159.289 1640.17,-168.379 1650.09,-164.666 1645.61,-159.289"/>
</g>
<!-- Node31&#45;&gt;Node10 -->
<g id="edge61" class="edge"><title>Node31&#45;&gt;Node10</title>
<path fill="none" stroke="midnightblue" d="M323.117,-214.775C314.323,-189.17 303.153,-142.294 325.305,-112 373.756,-45.7384 420.682,-71.4322 501.305,-56 717.368,-14.6427 980.973,-10.315 1090.17,-10.4967"/>
<polygon fill="midnightblue" stroke="midnightblue" points="319.897,-216.161 326.636,-224.336 326.466,-213.743 319.897,-216.161"/>
</g>
<!-- Node32&#45;&gt;Node10 -->
<g id="edge63" class="edge"><title>Node32&#45;&gt;Node10</title>
<path fill="none" stroke="midnightblue" d="M1715.09,-214.46C1726.91,-178.55 1746.32,-99.245 1705.3,-56 1670.41,-19.2078 1324.83,-12.4917 1192.5,-11.27"/>
<polygon fill="midnightblue" stroke="midnightblue" points="1711.71,-213.529 1711.74,-224.124 1718.33,-215.822 1711.71,-213.529"/>
</g>
</g>
</svg>
        <g id="navigator" transform="translate(0 0)" fill="#404254">
                <rect fill="#f2f5e9" fill-opacity="0.5" stroke="#606060" stroke-width=".5" x="0" y="0" width="60" height="60"/>
                <use id="zoomplus" xlink:href="#zoomPlus" x="17" y="9" onmousedown="handleZoom(evt,'in')"/>
                <use id="zoomminus" xlink:href="#zoomMin" x="42" y="9" onmousedown="handleZoom(evt,'out')"/>
                <use id="reset" xlink:href="#resetDef" x="30" y="36" onmousedown="handleReset()"/>
                <g id="arrowUp" xlink:href="#dirArrow" transform="translate(30 24)" onmousedown="handlePan(0,-1)">
                  <use xlink:href="#rim" fill="#404040">
                        <set attributeName="fill" to="#808080" begin="arrowUp.mouseover" end="arrowUp.mouseout"/>
                  </use>
                  <path fill="none" stroke="white" stroke-width="1.5" d="M0,-3.0v7 M-2.5,-0.5L0,-3.0L2.5,-0.5"/>
                </g>
                <g id="arrowRight" xlink:href="#dirArrow" transform="rotate(90) translate(36 -43)" onmousedown="handlePan(1,0)">
                  <use xlink:href="#rim" fill="#404040">
                        <set attributeName="fill" to="#808080" begin="arrowRight.mouseover" end="arrowRight.mouseout"/>
                  </use>
                  <path fill="none" stroke="white" stroke-width="1.5" d="M0,-3.0v7 M-2.5,-0.5L0,-3.0L2.5,-0.5"/>
                </g>
                <g id="arrowDown" xlink:href="#dirArrow" transform="rotate(180) translate(-30 -48)" onmousedown="handlePan(0,1)">
                  <use xlink:href="#rim" fill="#404040">
                        <set attributeName="fill" to="#808080" begin="arrowDown.mouseover" end="arrowDown.mouseout"/>
                  </use>
                  <path fill="none" stroke="white" stroke-width="1.5" d="M0,-3.0v7 M-2.5,-0.5L0,-3.0L2.5,-0.5"/>
                </g>
                <g id="arrowLeft" xlink:href="#dirArrow" transform="rotate(270) translate(-36 17)" onmousedown="handlePan(-1,0)">
                  <use xlink:href="#rim" fill="#404040">
                        <set attributeName="fill" to="#808080" begin="arrowLeft.mouseover" end="arrowLeft.mouseout"/>
                  </use>
                  <path fill="none" stroke="white" stroke-width="1.5" d="M0,-3.0v7 M-2.5,-0.5L0,-3.0L2.5,-0.5"/>
                </g>
        </g>
        <svg viewBox="0 0 15 15" width="100%" height="30px" preserveAspectRatio="xMaxYMin meet">
         <g id="arrow_out" transform="scale(0.3 0.3)">
          <a xlink:href="def_8h__dep__incl_org.svg" target="_base">
           <rect id="button" ry="5" rx="5" y="6" x="6" height="38" width="38"
                fill="#f2f5e9" fill-opacity="0.5" stroke="#606060" stroke-width="1.0"/>
           <path id="arrow"
             d="M 11.500037,31.436501 C 11.940474,20.09759 22.043105,11.32322 32.158766,21.979434 L 37.068811,17.246167 C 37.068811,17.246167 37.088388,32 37.088388,32 L 22.160133,31.978069 C 22.160133,31.978069 26.997745,27.140456 26.997745,27.140456 C 18.528582,18.264221 13.291696,25.230495 11.500037,31.436501 z"
             style="fill:#404040;"/>
          </a>
         </g>
        </svg>
</svg>
