<?xml version="1.0" encoding="UTF-8" standalone="no"?>
<!DOCTYPE svg PUBLIC "-//W3C//DTD SVG 1.1//EN"
 "http://www.w3.org/Graphics/SVG/1.1/DTD/svg11.dtd">
<!-- Generated by graphviz version 2.38.0 (20140413.2041)
 -->
<!-- Title: src/def.h Pages: 1 -->
<svg width="1529pt" height="308pt"
 viewBox="0.00 0.00 1529.00 308.00" xmlns="http://www.w3.org/2000/svg" xmlns:xlink="http://www.w3.org/1999/xlink">
<g id="graph0" class="graph" transform="scale(1 1) rotate(0) translate(4 304)">
<title>src/def.h</title>
<polygon fill="white" stroke="none" points="-4,4 -4,-304 1525,-304 1525,4 -4,4"/>
<!-- Node1 -->
<g id="node1" class="node"><title>Node1</title>
<polygon fill="#bfbfbf" stroke="black" points="1008,-280.5 1008,-299.5 1063,-299.5 1063,-280.5 1008,-280.5"/>
<text text-anchor="middle" x="1035.5" y="-287.5" font-family="Helvetica,sans-Serif" font-size="10.00">src/def.h</text>
</g>
<!-- Node2 -->
<g id="node2" class="node"><title>Node2</title>
<g id="a_node2"><a xlink:href="receptor_8h.html" target="_top" xlink:title="receptor implementation header file ">
<polygon fill="white" stroke="black" points="758,-224.5 758,-243.5 835,-243.5 835,-224.5 758,-224.5"/>
<text text-anchor="middle" x="796.5" y="-231.5" font-family="Helvetica,sans-Serif" font-size="10.00">src/receptor.h</text>
</a>
</g>
</g>
<!-- Node1&#45;&gt;Node2 -->
<g id="edge1" class="edge"><title>Node1&#45;&gt;Node2</title>
<path fill="none" stroke="midnightblue" d="M997.738,-280.468C953.071,-270.376 879.149,-253.674 834.416,-243.567"/>
<polygon fill="midnightblue" stroke="midnightblue" points="997.09,-283.91 1007.62,-282.7 998.633,-277.082 997.09,-283.91"/>
</g>
<!-- Node10 -->
<g id="node10" class="node"><title>Node10</title>
<g id="a_node10"><a xlink:href="receptor__spec_8h.html" target="_top" xlink:title="spec/receptor_spec.h">
<polygon fill="white" stroke="black" points="446.5,-56.5 446.5,-75.5 556.5,-75.5 556.5,-56.5 446.5,-56.5"/>
<text text-anchor="middle" x="501.5" y="-63.5" font-family="Helvetica,sans-Serif" font-size="10.00">spec/receptor_spec.h</text>
</a>
</g>
</g>
<!-- Node1&#45;&gt;Node10 -->
<g id="edge44" class="edge"><title>Node1&#45;&gt;Node10</title>
<path fill="none" stroke="midnightblue" d="M997.673,-289.087C873.582,-288.484 482.485,-279.26 406.5,-188 372.151,-146.745 450.305,-95.6804 485.473,-75.6427"/>
<polygon fill="midnightblue" stroke="midnightblue" points="997.817,-292.587 1007.83,-289.119 997.839,-285.587 997.817,-292.587"/>
</g>
<!-- Node12 -->
<g id="node12" class="node"><title>Node12</title>
<g id="a_node12"><a xlink:href="process_8c.html" target="_top" xlink:title="implementation of ceptr processing: instructions and run tree reduction ">
<polygon fill="white" stroke="black" points="1124.5,-168.5 1124.5,-187.5 1200.5,-187.5 1200.5,-168.5 1124.5,-168.5"/>
<text text-anchor="middle" x="1162.5" y="-175.5" font-family="Helvetica,sans-Serif" font-size="10.00">src/process.c</text>
</a>
</g>
</g>
<!-- Node1&#45;&gt;Node12 -->
<g id="edge37" class="edge"><title>Node1&#45;&gt;Node12</title>
<path fill="none" stroke="midnightblue" d="M1031.93,-270.376C1030.32,-256.257 1030.59,-237.11 1040.5,-224 1051.22,-209.816 1094.93,-196.052 1126.97,-187.56"/>
<polygon fill="midnightblue" stroke="midnightblue" points="1028.5,-271.064 1033.48,-280.41 1035.41,-269.992 1028.5,-271.064"/>
</g>
<!-- Node13 -->
<g id="node13" class="node"><title>Node13</title>
<g id="a_node13"><a xlink:href="tree_8c.html" target="_top" xlink:title="semantic tree pointer implementation ">
<polygon fill="white" stroke="black" points="1218.5,-168.5 1218.5,-187.5 1276.5,-187.5 1276.5,-168.5 1218.5,-168.5"/>
<text text-anchor="middle" x="1247.5" y="-175.5" font-family="Helvetica,sans-Serif" font-size="10.00">src/tree.c</text>
</a>
</g>
</g>
<!-- Node1&#45;&gt;Node13 -->
<g id="edge40" class="edge"><title>Node1&#45;&gt;Node13</title>
<path fill="none" stroke="midnightblue" d="M1041.64,-270.782C1047.55,-256.021 1057.89,-235.8 1073.5,-224 1079.35,-219.578 1170.45,-197.382 1218.43,-185.902"/>
<polygon fill="midnightblue" stroke="midnightblue" points="1038.29,-269.774 1038.12,-280.367 1044.86,-272.19 1038.29,-269.774"/>
</g>
<!-- Node15 -->
<g id="node15" class="node"><title>Node15</title>
<g id="a_node15"><a xlink:href="http__example_8h.html" target="_top" xlink:title="spec/http_example.h">
<polygon fill="white" stroke="black" points="604,-168.5 604,-187.5 711,-187.5 711,-168.5 604,-168.5"/>
<text text-anchor="middle" x="657.5" y="-175.5" font-family="Helvetica,sans-Serif" font-size="10.00">spec/http_example.h</text>
</a>
</g>
</g>
<!-- Node1&#45;&gt;Node15 -->
<g id="edge41" class="edge"><title>Node1&#45;&gt;Node15</title>
<path fill="none" stroke="midnightblue" d="M997.648,-288.562C941.298,-286.712 832.933,-278.499 748.5,-244 715.071,-230.341 682.18,-202.217 666.693,-187.858"/>
<polygon fill="midnightblue" stroke="midnightblue" points="997.781,-292.067 1007.87,-288.846 997.975,-285.07 997.781,-292.067"/>
</g>
<!-- Node19 -->
<g id="node19" class="node"><title>Node19</title>
<g id="a_node19"><a xlink:href="profile__example_8h.html" target="_top" xlink:title="spec/profile_example.h">
<polygon fill="white" stroke="black" points="882,-168.5 882,-187.5 999,-187.5 999,-168.5 882,-168.5"/>
<text text-anchor="middle" x="940.5" y="-175.5" font-family="Helvetica,sans-Serif" font-size="10.00">spec/profile_example.h</text>
</a>
</g>
</g>
<!-- Node1&#45;&gt;Node19 -->
<g id="edge45" class="edge"><title>Node1&#45;&gt;Node19</title>
<path fill="none" stroke="midnightblue" d="M1021.32,-272.658C1013.91,-264.123 1004.71,-253.504 996.5,-244 979.165,-223.939 958.863,-200.35 948.1,-187.838"/>
<polygon fill="midnightblue" stroke="midnightblue" points="1018.82,-275.12 1028.02,-280.38 1024.11,-270.533 1018.82,-275.12"/>
</g>
<!-- Node20 -->
<g id="node20" class="node"><title>Node20</title>
<g id="a_node20"><a xlink:href="base__defs_8c.html" target="_top" xlink:title="auto&#45;generated system definitions ">
<polygon fill="white" stroke="black" points="1082.5,-224.5 1082.5,-243.5 1168.5,-243.5 1168.5,-224.5 1082.5,-224.5"/>
<text text-anchor="middle" x="1125.5" y="-231.5" font-family="Helvetica,sans-Serif" font-size="10.00">src/base_defs.c</text>
</a>
</g>
</g>
<!-- Node1&#45;&gt;Node20 -->
<g id="edge34" class="edge"><title>Node1&#45;&gt;Node20</title>
<path fill="none" stroke="midnightblue" d="M1058.54,-275.177C1075.1,-265.241 1096.92,-252.149 1111.08,-243.655"/>
<polygon fill="midnightblue" stroke="midnightblue" points="1056.73,-272.178 1049.96,-280.324 1060.34,-278.18 1056.73,-272.178"/>
</g>
<!-- Node21 -->
<g id="node21" class="node"><title>Node21</title>
<g id="a_node21"><a xlink:href="def_8c.html" target="_top" xlink:title="implementation file for symbol and structure definition functions ">
<polygon fill="white" stroke="black" points="1187,-224.5 1187,-243.5 1242,-243.5 1242,-224.5 1187,-224.5"/>
<text text-anchor="middle" x="1214.5" y="-231.5" font-family="Helvetica,sans-Serif" font-size="10.00">src/def.c</text>
</a>
</g>
</g>
<!-- Node1&#45;&gt;Node21 -->
<g id="edge35" class="edge"><title>Node1&#45;&gt;Node21</title>
<path fill="none" stroke="midnightblue" d="M1072.66,-277.789C1106.69,-267.525 1156.26,-252.568 1186.89,-243.329"/>
<polygon fill="midnightblue" stroke="midnightblue" points="1071.64,-274.442 1063.08,-280.681 1073.66,-281.143 1071.64,-274.442"/>
</g>
<!-- Node22 -->
<g id="node22" class="node"><title>Node22</title>
<g id="a_node22"><a xlink:href="mtree_8c.html" target="_top" xlink:title="semantic tree matrix implementation ">
<polygon fill="white" stroke="black" points="1260.5,-224.5 1260.5,-243.5 1326.5,-243.5 1326.5,-224.5 1260.5,-224.5"/>
<text text-anchor="middle" x="1293.5" y="-231.5" font-family="Helvetica,sans-Serif" font-size="10.00">src/mtree.c</text>
</a>
</g>
</g>
<!-- Node1&#45;&gt;Node22 -->
<g id="edge36" class="edge"><title>Node1&#45;&gt;Node22</title>
<path fill="none" stroke="midnightblue" d="M1072.96,-281.159C1123.4,-270.603 1212.35,-251.985 1260.43,-241.921"/>
<polygon fill="midnightblue" stroke="midnightblue" points="1072.18,-277.747 1063.11,-283.221 1073.62,-284.598 1072.18,-277.747"/>
</g>
<!-- Node23 -->
<g id="node23" class="node"><title>Node23</title>
<g id="a_node23"><a xlink:href="semtrex_8c.html" target="_top" xlink:title="semtrex implementation ">
<polygon fill="white" stroke="black" points="1345,-224.5 1345,-243.5 1422,-243.5 1422,-224.5 1345,-224.5"/>
<text text-anchor="middle" x="1383.5" y="-231.5" font-family="Helvetica,sans-Serif" font-size="10.00">src/semtrex.c</text>
</a>
</g>
</g>
<!-- Node1&#45;&gt;Node23 -->
<g id="edge38" class="edge"><title>Node1&#45;&gt;Node23</title>
<path fill="none" stroke="midnightblue" d="M1073.25,-283.788C1130.18,-275.825 1241.39,-259.876 1335.5,-244 1338.51,-243.492 1341.62,-242.949 1344.75,-242.391"/>
<polygon fill="midnightblue" stroke="midnightblue" points="1072.69,-280.333 1063.26,-285.18 1073.65,-287.265 1072.69,-280.333"/>
</g>
<!-- Node24 -->
<g id="node24" class="node"><title>Node24</title>
<g id="a_node24"><a xlink:href="sys__defs_8c.html" target="_top" xlink:title="definition of system semantic elements for bootstrapping ">
<polygon fill="white" stroke="black" points="1440,-224.5 1440,-243.5 1521,-243.5 1521,-224.5 1440,-224.5"/>
<text text-anchor="middle" x="1480.5" y="-231.5" font-family="Helvetica,sans-Serif" font-size="10.00">src/sys_defs.c</text>
</a>
</g>
</g>
<!-- Node1&#45;&gt;Node24 -->
<g id="edge39" class="edge"><title>Node1&#45;&gt;Node24</title>
<path fill="none" stroke="midnightblue" d="M1073.53,-285.493C1144.08,-278.803 1299.94,-263.166 1430.5,-244 1433.55,-243.552 1436.71,-243.058 1439.88,-242.539"/>
<polygon fill="midnightblue" stroke="midnightblue" points="1072.98,-282.029 1063.36,-286.451 1073.64,-288.998 1072.98,-282.029"/>
</g>
<!-- Node25 -->
<g id="node25" class="node"><title>Node25</title>
<g id="a_node25"><a xlink:href="def__spec_8h.html" target="_top" xlink:title="spec/def_spec.h">
<polygon fill="white" stroke="black" points="1017,-168.5 1017,-187.5 1106,-187.5 1106,-168.5 1017,-168.5"/>
<text text-anchor="middle" x="1061.5" y="-175.5" font-family="Helvetica,sans-Serif" font-size="10.00">spec/def_spec.h</text>
</a>
</g>
</g>
<!-- Node1&#45;&gt;Node25 -->
<g id="edge42" class="edge"><title>Node1&#45;&gt;Node25</title>
<path fill="none" stroke="midnightblue" d="M1018.26,-272.86C1006.42,-259.736 994.225,-240.719 1002.5,-224 1010.79,-207.259 1028.61,-195.046 1042.52,-187.602"/>
<polygon fill="midnightblue" stroke="midnightblue" points="1015.91,-275.469 1025.39,-280.197 1020.93,-270.589 1015.91,-275.469"/>
</g>
<!-- Node3 -->
<g id="node3" class="node"><title>Node3</title>
<g id="a_node3"><a xlink:href="vmhost_8h.html" target="_top" xlink:title="vmhost implementation header file ">
<polygon fill="white" stroke="black" points="415.5,-168.5 415.5,-187.5 489.5,-187.5 489.5,-168.5 415.5,-168.5"/>
<text text-anchor="middle" x="452.5" y="-175.5" font-family="Helvetica,sans-Serif" font-size="10.00">src/vmhost.h</text>
</a>
</g>
</g>
<!-- Node2&#45;&gt;Node3 -->
<g id="edge2" class="edge"><title>Node2&#45;&gt;Node3</title>
<path fill="none" stroke="midnightblue" d="M747.571,-225.826C689.354,-217.211 589.244,-202.148 503.5,-188 498.976,-187.253 494.23,-186.447 489.531,-185.635"/>
<polygon fill="midnightblue" stroke="midnightblue" points="747.188,-229.307 757.592,-227.306 748.211,-222.382 747.188,-229.307"/>
</g>
<!-- Node6 -->
<g id="node6" class="node"><title>Node6</title>
<g id="a_node6"><a xlink:href="receptor_8c.html" target="_top" xlink:title="receptor implementation ">
<polygon fill="white" stroke="black" points="0,-56.5 0,-75.5 77,-75.5 77,-56.5 0,-56.5"/>
<text text-anchor="middle" x="38.5" y="-63.5" font-family="Helvetica,sans-Serif" font-size="10.00">src/receptor.c</text>
</a>
</g>
</g>
<!-- Node2&#45;&gt;Node6 -->
<g id="edge16" class="edge"><title>Node2&#45;&gt;Node6</title>
<path fill="none" stroke="midnightblue" d="M747.982,-230.068C673.811,-224.987 528.035,-212.641 406.5,-188 319.802,-170.422 299.511,-159.707 215.5,-132 159.074,-113.39 93.6878,-88.4959 60.4096,-75.5824"/>
<polygon fill="midnightblue" stroke="midnightblue" points="747.751,-233.56 757.963,-230.737 748.219,-226.576 747.751,-233.56"/>
</g>
<!-- Node2&#45;&gt;Node10 -->
<g id="edge29" class="edge"><title>Node2&#45;&gt;Node10</title>
<path fill="none" stroke="midnightblue" d="M747.788,-226.925C705.972,-220.6 644.686,-208.653 594.5,-188 551.282,-170.214 529.34,-172.197 505.5,-132 495.003,-114.302 497.41,-88.915 499.678,-75.7172"/>
<polygon fill="midnightblue" stroke="midnightblue" points="747.316,-230.393 757.717,-228.377 748.329,-223.467 747.316,-230.393"/>
</g>
<!-- Node2&#45;&gt;Node12 -->
<g id="edge15" class="edge"><title>Node2&#45;&gt;Node12</title>
<path fill="none" stroke="midnightblue" d="M845.225,-226.794C907.715,-218.677 1019.38,-203.639 1114.5,-188 1117.68,-187.477 1120.97,-186.911 1124.28,-186.327"/>
<polygon fill="midnightblue" stroke="midnightblue" points="844.725,-223.33 835.257,-228.084 845.623,-230.272 844.725,-223.33"/>
</g>
<!-- Node2&#45;&gt;Node13 -->
<g id="edge17" class="edge"><title>Node2&#45;&gt;Node13</title>
<path fill="none" stroke="midnightblue" d="M845.583,-229.632C923.232,-223.86 1078.99,-210.476 1209.5,-188 1212.31,-187.517 1215.21,-186.95 1218.12,-186.34"/>
<polygon fill="midnightblue" stroke="midnightblue" points="844.873,-226.175 835.156,-230.396 845.385,-233.156 844.873,-226.175"/>
</g>
<!-- Node14 -->
<g id="node14" class="node"><title>Node14</title>
<g id="a_node14"><a xlink:href="tree__spec_8h.html" target="_top" xlink:title="spec/tree_spec.h">
<polygon fill="white" stroke="black" points="655.5,-112.5 655.5,-131.5 747.5,-131.5 747.5,-112.5 655.5,-112.5"/>
<text text-anchor="middle" x="701.5" y="-119.5" font-family="Helvetica,sans-Serif" font-size="10.00">spec/tree_spec.h</text>
</a>
</g>
</g>
<!-- Node2&#45;&gt;Node14 -->
<g id="edge18" class="edge"><title>Node2&#45;&gt;Node14</title>
<path fill="none" stroke="midnightblue" d="M782.324,-216.586C761.843,-192.871 724.705,-149.869 708.92,-131.591"/>
<polygon fill="midnightblue" stroke="midnightblue" points="779.86,-219.088 789.046,-224.368 785.158,-214.513 779.86,-219.088"/>
</g>
<!-- Node2&#45;&gt;Node15 -->
<g id="edge20" class="edge"><title>Node2&#45;&gt;Node15</title>
<path fill="none" stroke="midnightblue" d="M765.024,-220.772C738.915,-210.629 702.461,-196.467 679.422,-187.516"/>
<polygon fill="midnightblue" stroke="midnightblue" points="763.886,-224.085 774.475,-224.444 766.421,-217.56 763.886,-224.085"/>
</g>
<!-- Node16 -->
<g id="node16" class="node"><title>Node16</title>
<g id="a_node16"><a xlink:href="mtree__spec_8h.html" target="_top" xlink:title="spec/mtree_spec.h">
<polygon fill="white" stroke="black" points="765.5,-112.5 765.5,-131.5 865.5,-131.5 865.5,-112.5 765.5,-112.5"/>
<text text-anchor="middle" x="815.5" y="-119.5" font-family="Helvetica,sans-Serif" font-size="10.00">spec/mtree_spec.h</text>
</a>
</g>
</g>
<!-- Node2&#45;&gt;Node16 -->
<g id="edge26" class="edge"><title>Node2&#45;&gt;Node16</title>
<path fill="none" stroke="midnightblue" d="M796.839,-213.985C797.345,-200.946 798.57,-183.304 801.5,-168 803.962,-155.143 808.815,-140.779 812.109,-131.814"/>
<polygon fill="midnightblue" stroke="midnightblue" points="793.338,-213.99 796.554,-224.085 800.335,-214.188 793.338,-213.99"/>
</g>
<!-- Node17 -->
<g id="node17" class="node"><title>Node17</title>
<g id="a_node17"><a xlink:href="semtrex__spec_8h.html" target="_top" xlink:title="spec/semtrex_spec.h">
<polygon fill="white" stroke="black" points="883.5,-112.5 883.5,-131.5 993.5,-131.5 993.5,-112.5 883.5,-112.5"/>
<text text-anchor="middle" x="938.5" y="-119.5" font-family="Helvetica,sans-Serif" font-size="10.00">spec/semtrex_spec.h</text>
</a>
</g>
</g>
<!-- Node2&#45;&gt;Node17 -->
<g id="edge27" class="edge"><title>Node2&#45;&gt;Node17</title>
<path fill="none" stroke="midnightblue" d="M804.86,-215.014C812.266,-200.71 824.262,-181.005 839.5,-168 859.749,-150.719 887.725,-138.823 908.774,-131.622"/>
<polygon fill="midnightblue" stroke="midnightblue" points="801.565,-213.784 800.297,-224.303 807.847,-216.87 801.565,-213.784"/>
</g>
<!-- Node18 -->
<g id="node18" class="node"><title>Node18</title>
<g id="a_node18"><a xlink:href="scape__spec_8h.html" target="_top" xlink:title="spec/scape_spec.h">
<polygon fill="white" stroke="black" points="1012,-112.5 1012,-131.5 1113,-131.5 1113,-112.5 1012,-112.5"/>
<text text-anchor="middle" x="1062.5" y="-119.5" font-family="Helvetica,sans-Serif" font-size="10.00">spec/scape_spec.h</text>
</a>
</g>
</g>
<!-- Node2&#45;&gt;Node18 -->
<g id="edge30" class="edge"><title>Node2&#45;&gt;Node18</title>
<path fill="none" stroke="midnightblue" d="M810.921,-216.877C825.138,-201.979 848.208,-180.341 872.5,-168 897.131,-155.487 967.424,-140.665 1015.25,-131.547"/>
<polygon fill="midnightblue" stroke="midnightblue" points="808.216,-214.647 803.982,-224.359 813.348,-219.407 808.216,-214.647"/>
</g>
<!-- Node2&#45;&gt;Node19 -->
<g id="edge32" class="edge"><title>Node2&#45;&gt;Node19</title>
<path fill="none" stroke="midnightblue" d="M828.751,-220.906C855.824,-210.754 893.817,-196.506 917.79,-187.516"/>
<polygon fill="midnightblue" stroke="midnightblue" points="827.452,-217.655 819.317,-224.444 829.909,-224.209 827.452,-217.655"/>
</g>
<!-- Node4 -->
<g id="node4" class="node"><title>Node4</title>
<g id="a_node4"><a xlink:href="accumulator_8h.html" target="_top" xlink:title="header file for the accumulator ">
<polygon fill="white" stroke="black" points="225,-112.5 225,-131.5 320,-131.5 320,-112.5 225,-112.5"/>
<text text-anchor="middle" x="272.5" y="-119.5" font-family="Helvetica,sans-Serif" font-size="10.00">src/accumulator.h</text>
</a>
</g>
</g>
<!-- Node3&#45;&gt;Node4 -->
<g id="edge3" class="edge"><title>Node3&#45;&gt;Node4</title>
<path fill="none" stroke="midnightblue" d="M414.392,-165.568C380.437,-155.381 331.511,-140.703 300.888,-131.516"/>
<polygon fill="midnightblue" stroke="midnightblue" points="413.394,-168.922 423.978,-168.444 415.406,-162.218 413.394,-168.922"/>
</g>
<!-- Node7 -->
<g id="node7" class="node"><title>Node7</title>
<g id="a_node7"><a xlink:href="vmhost_8c.html" target="_top" xlink:title="virtual machine host receptor implementation ">
<polygon fill="white" stroke="black" points="354.5,-56.5 354.5,-75.5 428.5,-75.5 428.5,-56.5 354.5,-56.5"/>
<text text-anchor="middle" x="391.5" y="-63.5" font-family="Helvetica,sans-Serif" font-size="10.00">src/vmhost.c</text>
</a>
</g>
</g>
<!-- Node3&#45;&gt;Node7 -->
<g id="edge11" class="edge"><title>Node3&#45;&gt;Node7</title>
<path fill="none" stroke="midnightblue" d="M442.696,-159.32C429.414,-135.37 406.222,-93.5484 396.264,-75.5914"/>
<polygon fill="midnightblue" stroke="midnightblue" points="439.803,-161.321 447.713,-168.368 445.925,-157.926 439.803,-161.321"/>
</g>
<!-- Node3&#45;&gt;Node10 -->
<g id="edge12" class="edge"><title>Node3&#45;&gt;Node10</title>
<path fill="none" stroke="midnightblue" d="M447.197,-158.097C444.453,-144.637 442.896,-126.448 449.5,-112 456.895,-95.821 473.297,-83.2312 485.717,-75.5333"/>
<polygon fill="midnightblue" stroke="midnightblue" points="443.867,-159.214 449.629,-168.105 450.669,-157.561 443.867,-159.214"/>
</g>
<!-- Node11 -->
<g id="node11" class="node"><title>Node11</title>
<g id="a_node11"><a xlink:href="vmhost__spec_8h.html" target="_top" xlink:title="spec/vmhost_spec.h">
<polygon fill="white" stroke="black" points="530,-112.5 530,-131.5 637,-131.5 637,-112.5 530,-112.5"/>
<text text-anchor="middle" x="583.5" y="-119.5" font-family="Helvetica,sans-Serif" font-size="10.00">spec/vmhost_spec.h</text>
</a>
</g>
</g>
<!-- Node3&#45;&gt;Node11 -->
<g id="edge13" class="edge"><title>Node3&#45;&gt;Node11</title>
<path fill="none" stroke="midnightblue" d="M482.817,-164.503C507.376,-154.38 541.318,-140.388 562.84,-131.516"/>
<polygon fill="midnightblue" stroke="midnightblue" points="481.169,-161.397 473.257,-168.444 483.837,-167.868 481.169,-161.397"/>
</g>
<!-- Node5 -->
<g id="node5" class="node"><title>Node5</title>
<g id="a_node5"><a xlink:href="accumulator_8c.html" target="_top" xlink:title="implementation file for accumulator ">
<polygon fill="white" stroke="black" points="95,-56.5 95,-75.5 190,-75.5 190,-56.5 95,-56.5"/>
<text text-anchor="middle" x="142.5" y="-63.5" font-family="Helvetica,sans-Serif" font-size="10.00">src/accumulator.c</text>
</a>
</g>
</g>
<!-- Node4&#45;&gt;Node5 -->
<g id="edge4" class="edge"><title>Node4&#45;&gt;Node5</title>
<path fill="none" stroke="midnightblue" d="M242.415,-108.503C218.043,-98.3795 184.36,-84.388 163.003,-75.5164"/>
<polygon fill="midnightblue" stroke="midnightblue" points="241.323,-111.84 251.901,-112.444 244.009,-105.375 241.323,-111.84"/>
</g>
<!-- Node4&#45;&gt;Node6 -->
<g id="edge5" class="edge"><title>Node4&#45;&gt;Node6</title>
<path fill="none" stroke="midnightblue" d="M225.496,-110.153C181.283,-99.95 115.984,-84.8809 75.4045,-75.5164"/>
<polygon fill="midnightblue" stroke="midnightblue" points="224.891,-113.605 235.422,-112.444 226.465,-106.784 224.891,-113.605"/>
</g>
<!-- Node4&#45;&gt;Node7 -->
<g id="edge6" class="edge"><title>Node4&#45;&gt;Node7</title>
<path fill="none" stroke="midnightblue" d="M300.637,-108.232C322.896,-98.1312 353.356,-84.3091 372.732,-75.5164"/>
<polygon fill="midnightblue" stroke="midnightblue" points="299.016,-105.124 291.356,-112.444 301.909,-111.498 299.016,-105.124"/>
</g>
<!-- Node8 -->
<g id="node8" class="node"><title>Node8</title>
<g id="a_node8"><a xlink:href="accumulator__spec_8h_source.html" target="_top" xlink:title="spec/accumulator_spec.h">
<polygon fill="white" stroke="black" points="208.5,-56.5 208.5,-75.5 336.5,-75.5 336.5,-56.5 208.5,-56.5"/>
<text text-anchor="middle" x="272.5" y="-63.5" font-family="Helvetica,sans-Serif" font-size="10.00">spec/accumulator_spec.h</text>
</a>
</g>
</g>
<!-- Node4&#45;&gt;Node8 -->
<g id="edge7" class="edge"><title>Node4&#45;&gt;Node8</title>
<path fill="none" stroke="midnightblue" d="M272.5,-101.805C272.5,-92.9102 272.5,-82.7798 272.5,-75.7511"/>
<polygon fill="midnightblue" stroke="midnightblue" points="269,-102.083 272.5,-112.083 276,-102.083 269,-102.083"/>
</g>
<!-- Node4&#45;&gt;Node10 -->
<g id="edge9" class="edge"><title>Node4&#45;&gt;Node10</title>
<path fill="none" stroke="midnightblue" d="M318.773,-110.088C362.037,-99.8865 425.755,-84.8612 465.384,-75.5164"/>
<polygon fill="midnightblue" stroke="midnightblue" points="317.715,-106.742 308.786,-112.444 319.322,-113.555 317.715,-106.742"/>
</g>
<!-- Node9 -->
<g id="node9" class="node"><title>Node9</title>
<g id="a_node9"><a xlink:href="ceptr__specs_8c.html" target="_top" xlink:title="implements a main() entry point for running all the tests ">
<polygon fill="white" stroke="black" points="764.5,-0.5 764.5,-19.5 866.5,-19.5 866.5,-0.5 764.5,-0.5"/>
<text text-anchor="middle" x="815.5" y="-7.5" font-family="Helvetica,sans-Serif" font-size="10.00">spec/ceptr_specs.c</text>
</a>
</g>
</g>
<!-- Node8&#45;&gt;Node9 -->
<g id="edge8" class="edge"><title>Node8&#45;&gt;Node9</title>
<path fill="none" stroke="midnightblue" d="M346.991,-55.863C505.373,-38.6417 679.797,-22.8752 764.336,-15.4394"/>
<polygon fill="midnightblue" stroke="midnightblue" points="346.144,-52.4346 336.583,-56.9993 346.903,-59.3932 346.144,-52.4346"/>
</g>
<!-- Node10&#45;&gt;Node9 -->
<g id="edge10" class="edge"><title>Node10&#45;&gt;Node9</title>
<path fill="none" stroke="midnightblue" d="M561.233,-54.7275C620.57,-44.523 710.494,-29.0583 765.979,-19.5164"/>
<polygon fill="midnightblue" stroke="midnightblue" points="560.516,-51.2992 551.254,-56.4435 561.703,-58.198 560.516,-51.2992"/>
</g>
<!-- Node11&#45;&gt;Node9 -->
<g id="edge14" class="edge"><title>Node11&#45;&gt;Node9</title>
<path fill="none" stroke="midnightblue" d="M610.873,-108.021C658.854,-85.2717 756.886,-38.791 797.38,-19.5914"/>
<polygon fill="midnightblue" stroke="midnightblue" points="609.241,-104.922 601.705,-112.368 612.24,-111.247 609.241,-104.922"/>
</g>
<!-- Node14&#45;&gt;Node9 -->
<g id="edge19" class="edge"><title>Node14&#45;&gt;Node9</title>
<path fill="none" stroke="midnightblue" d="M717.869,-105.205C742.305,-81.6272 787.488,-38.0294 806.596,-19.5914"/>
<polygon fill="midnightblue" stroke="midnightblue" points="715.211,-102.906 710.445,-112.368 720.072,-107.943 715.211,-102.906"/>
</g>
<!-- Node15&#45;&gt;Node10 -->
<g id="edge24" class="edge"><title>Node15&#45;&gt;Node10</title>
<path fill="none" stroke="midnightblue" d="M593.577,-169.156C567.815,-162.953 539.71,-151.854 520.5,-132 505.458,-116.453 502.223,-89.6758 501.594,-75.8433"/>
<polygon fill="midnightblue" stroke="midnightblue" points="593.168,-172.65 603.686,-171.376 594.67,-165.813 593.168,-172.65"/>
</g>
<!-- Node15&#45;&gt;Node11 -->
<g id="edge25" class="edge"><title>Node15&#45;&gt;Node11</title>
<path fill="none" stroke="midnightblue" d="M637.466,-162.38C624.091,-152.62 606.941,-140.106 595.606,-131.834"/>
<polygon fill="midnightblue" stroke="midnightblue" points="635.47,-165.257 645.611,-168.324 639.596,-159.602 635.47,-165.257"/>
</g>
<!-- Node15&#45;&gt;Node14 -->
<g id="edge21" class="edge"><title>Node15&#45;&gt;Node14</title>
<path fill="none" stroke="midnightblue" d="M671.235,-160.144C678.901,-150.736 688.133,-139.405 694.369,-131.751"/>
<polygon fill="midnightblue" stroke="midnightblue" points="668.369,-158.12 664.766,-168.083 673.796,-162.541 668.369,-158.12"/>
</g>
<!-- Node15&#45;&gt;Node16 -->
<g id="edge22" class="edge"><title>Node15&#45;&gt;Node16</title>
<path fill="none" stroke="midnightblue" d="M692.108,-165.172C721.859,-155.004 764.047,-140.585 790.582,-131.516"/>
<polygon fill="midnightblue" stroke="midnightblue" points="690.866,-161.898 682.536,-168.444 693.13,-168.521 690.866,-161.898"/>
</g>
<!-- Node16&#45;&gt;Node9 -->
<g id="edge23" class="edge"><title>Node16&#45;&gt;Node9</title>
<path fill="none" stroke="midnightblue" d="M815.5,-102.348C815.5,-78.2538 815.5,-37.3079 815.5,-19.5914"/>
<polygon fill="midnightblue" stroke="midnightblue" points="812,-102.368 815.5,-112.368 819,-102.369 812,-102.368"/>
</g>
<!-- Node17&#45;&gt;Node9 -->
<g id="edge28" class="edge"><title>Node17&#45;&gt;Node9</title>
<path fill="none" stroke="midnightblue" d="M921.181,-105.512C894.899,-82.0068 845.813,-38.1096 825.107,-19.5914"/>
<polygon fill="midnightblue" stroke="midnightblue" points="919.061,-108.311 928.848,-112.368 923.728,-103.093 919.061,-108.311"/>
</g>
<!-- Node18&#45;&gt;Node9 -->
<g id="edge31" class="edge"><title>Node18&#45;&gt;Node9</title>
<path fill="none" stroke="midnightblue" d="M1033.68,-108.163C982.71,-85.4659 877.993,-38.8311 834.792,-19.5914"/>
<polygon fill="midnightblue" stroke="midnightblue" points="1032.56,-111.497 1043.12,-112.368 1035.41,-105.103 1032.56,-111.497"/>
</g>
<!-- Node19&#45;&gt;Node9 -->
<g id="edge33" class="edge"><title>Node19&#45;&gt;Node9</title>
<path fill="none" stroke="midnightblue" d="M997.542,-166.452C1047.62,-156.614 1113.69,-141.994 1121.5,-132 1126.97,-124.997 1126.7,-119.211 1121.5,-112 1063.11,-30.9893 937.376,-13.8464 866.599,-10.8915"/>
<polygon fill="midnightblue" stroke="midnightblue" points="996.593,-163.071 987.444,-168.414 997.928,-169.942 996.593,-163.071"/>
</g>
<!-- Node25&#45;&gt;Node9 -->
<g id="edge43" class="edge"><title>Node25&#45;&gt;Node9</title>
<path fill="none" stroke="midnightblue" d="M1099.07,-164.542C1114.11,-157.496 1129.88,-147.014 1138.5,-132 1160.97,-92.8471 1093.72,-60.8556 1084.5,-56 1015.16,-19.4889 923.048,-11.3781 866.588,-10.2065"/>
<polygon fill="midnightblue" stroke="midnightblue" points="1097.68,-161.331 1089.87,-168.495 1100.44,-167.762 1097.68,-161.331"/>
</g>
</g>
</svg>
