<?xml version="1.0" encoding="UTF-8" standalone="no"?>
<!DOCTYPE svg PUBLIC "-//W3C//DTD SVG 1.1//EN"
 "http://www.w3.org/Graphics/SVG/1.1/DTD/svg11.dtd">
<!-- Generated by graphviz version 2.38.0 (20140413.2041)
 -->
<!-- Title: spec/def_spec.h Pages: 1 -->
<svg width="950pt" height="420pt"
 viewBox="0.00 0.00 950.02 420.00" xmlns="http://www.w3.org/2000/svg" xmlns:xlink="http://www.w3.org/1999/xlink">
<g id="graph0" class="graph" transform="scale(1 1) rotate(0) translate(4 416)">
<title>spec/def_spec.h</title>
<polygon fill="white" stroke="none" points="-4,4 -4,-416 946.024,-416 946.024,4 -4,4"/>
<!-- Node1 -->
<g id="node1" class="node"><title>Node1</title>
<polygon fill="#bfbfbf" stroke="black" points="576.024,-392.5 576.024,-411.5 665.024,-411.5 665.024,-392.5 576.024,-392.5"/>
<text text-anchor="middle" x="620.524" y="-399.5" font-family="Helvetica,sans-Serif" font-size="10.00">spec/def_spec.h</text>
</g>
<!-- Node2 -->
<g id="node2" class="node"><title>Node2</title>
<g id="a_node2"><a xlink:href="ceptr_8h_source.html" target="_top" xlink:title="../src/ceptr.h">
<polygon fill="white" stroke="black" points="322.524,-336.5 322.524,-355.5 394.524,-355.5 394.524,-336.5 322.524,-336.5"/>
<text text-anchor="middle" x="358.524" y="-343.5" font-family="Helvetica,sans-Serif" font-size="10.00">../src/ceptr.h</text>
</a>
</g>
</g>
<!-- Node1&#45;&gt;Node2 -->
<g id="edge1" class="edge"><title>Node1&#45;&gt;Node2</title>
<path fill="none" stroke="midnightblue" d="M579.009,-392.444C531.592,-382.67 454.211,-366.722 404.865,-356.551"/>
<polygon fill="midnightblue" stroke="midnightblue" points="405.283,-353.064 394.782,-354.473 403.87,-359.92 405.283,-353.064"/>
</g>
<!-- Node24 -->
<g id="node24" class="node"><title>Node24</title>
<g id="a_node24"><a xlink:href="def_8h.html" target="_top" xlink:title="header file for symbol and structure definition functions ">
<polygon fill="white" stroke="black" points="681.524,-336.5 681.524,-355.5 745.524,-355.5 745.524,-336.5 681.524,-336.5"/>
<text text-anchor="middle" x="713.524" y="-343.5" font-family="Helvetica,sans-Serif" font-size="10.00">../src/def.h</text>
</a>
</g>
</g>
<!-- Node1&#45;&gt;Node24 -->
<g id="edge41" class="edge"><title>Node1&#45;&gt;Node24</title>
<path fill="none" stroke="midnightblue" d="M635.466,-392.324C650.109,-383.822 672.658,-370.729 689.762,-360.797"/>
<polygon fill="midnightblue" stroke="midnightblue" points="691.729,-363.703 698.619,-355.655 688.214,-357.649 691.729,-363.703"/>
</g>
<!-- Node26 -->
<g id="node26" class="node"><title>Node26</title>
<g id="a_node26"><a xlink:href="semtrex_8h.html" target="_top" xlink:title="Semantic tree regular expression header file. ">
<polygon fill="white" stroke="black" points="577.524,-336.5 577.524,-355.5 663.524,-355.5 663.524,-336.5 577.524,-336.5"/>
<text text-anchor="middle" x="620.524" y="-343.5" font-family="Helvetica,sans-Serif" font-size="10.00">../src/semtrex.h</text>
</a>
</g>
</g>
<!-- Node1&#45;&gt;Node26 -->
<g id="edge44" class="edge"><title>Node1&#45;&gt;Node26</title>
<path fill="none" stroke="midnightblue" d="M620.524,-392.083C620.524,-385.006 620.524,-374.861 620.524,-365.986"/>
<polygon fill="midnightblue" stroke="midnightblue" points="624.024,-365.751 620.524,-355.751 617.024,-365.751 624.024,-365.751"/>
</g>
<!-- Node3 -->
<g id="node3" class="node"><title>Node3</title>
<polygon fill="white" stroke="#bfbfbf" points="673.024,-0.5 673.024,-19.5 722.024,-19.5 722.024,-0.5 673.024,-0.5"/>
<text text-anchor="middle" x="697.524" y="-7.5" font-family="Helvetica,sans-Serif" font-size="10.00">string.h</text>
</g>
<!-- Node2&#45;&gt;Node3 -->
<g id="edge2" class="edge"><title>Node2&#45;&gt;Node3</title>
<path fill="none" stroke="midnightblue" d="M367.245,-336.408C412.577,-291.744 621.524,-85.8788 681.43,-26.8567"/>
<polygon fill="midnightblue" stroke="midnightblue" points="684.194,-29.0466 688.861,-19.5351 679.281,-24.0602 684.194,-29.0466"/>
</g>
<!-- Node4 -->
<g id="node4" class="node"><title>Node4</title>
<polygon fill="white" stroke="#bfbfbf" points="194.524,-56.5 194.524,-75.5 240.524,-75.5 240.524,-56.5 194.524,-56.5"/>
<text text-anchor="middle" x="217.524" y="-63.5" font-family="Helvetica,sans-Serif" font-size="10.00">stdio.h</text>
</g>
<!-- Node2&#45;&gt;Node4 -->
<g id="edge3" class="edge"><title>Node2&#45;&gt;Node4</title>
<path fill="none" stroke="midnightblue" d="M322.467,-342.034C263.16,-334.969 151.524,-311.509 151.524,-235 151.524,-235 151.524,-235 151.524,-177 151.524,-138.857 181.064,-102.517 200.618,-82.6396"/>
<polygon fill="midnightblue" stroke="midnightblue" points="203.085,-85.1232 207.785,-75.6282 198.19,-80.1194 203.085,-85.1232"/>
</g>
<!-- Node5 -->
<g id="node5" class="node"><title>Node5</title>
<polygon fill="white" stroke="#bfbfbf" points="574.524,-0.5 574.524,-19.5 622.524,-19.5 622.524,-0.5 574.524,-0.5"/>
<text text-anchor="middle" x="598.524" y="-7.5" font-family="Helvetica,sans-Serif" font-size="10.00">stdlib.h</text>
</g>
<!-- Node2&#45;&gt;Node5 -->
<g id="edge4" class="edge"><title>Node2&#45;&gt;Node5</title>
<path fill="none" stroke="midnightblue" d="M354.245,-336.404C338.645,-303.726 288.309,-185.377 338.524,-112 390.016,-36.7569 506.405,-17.5594 564.379,-12.6679"/>
<polygon fill="midnightblue" stroke="midnightblue" points="564.784,-16.1475 574.495,-11.9108 564.262,-9.167 564.784,-16.1475"/>
</g>
<!-- Node6 -->
<g id="node6" class="node"><title>Node6</title>
<g id="a_node6"><a xlink:href="ceptr__error_8h_source.html" target="_top" xlink:title="ceptr_error.h">
<polygon fill="white" stroke="black" points="409.024,-168.5 409.024,-187.5 480.024,-187.5 480.024,-168.5 409.024,-168.5"/>
<text text-anchor="middle" x="444.524" y="-175.5" font-family="Helvetica,sans-Serif" font-size="10.00">ceptr_error.h</text>
</a>
</g>
</g>
<!-- Node2&#45;&gt;Node6 -->
<g id="edge5" class="edge"><title>Node2&#45;&gt;Node6</title>
<path fill="none" stroke="midnightblue" d="M363.148,-336.075C376.802,-309.719 417.129,-231.878 435.374,-196.661"/>
<polygon fill="midnightblue" stroke="midnightblue" points="438.593,-198.057 440.085,-187.568 432.377,-194.837 438.593,-198.057"/>
</g>
<!-- Node10 -->
<g id="node10" class="node"><title>Node10</title>
<g id="a_node10"><a xlink:href="tree_8h.html" target="_top" xlink:title="semantic trees header file ">
<polygon fill="white" stroke="black" points="661.024,-280.5 661.024,-299.5 702.024,-299.5 702.024,-280.5 661.024,-280.5"/>
<text text-anchor="middle" x="681.524" y="-287.5" font-family="Helvetica,sans-Serif" font-size="10.00">tree.h</text>
</a>
</g>
</g>
<!-- Node2&#45;&gt;Node10 -->
<g id="edge10" class="edge"><title>Node2&#45;&gt;Node10</title>
<path fill="none" stroke="midnightblue" d="M394.886,-339.475C447.89,-331.334 549.439,-315.41 635.524,-300 640.47,-299.115 645.707,-298.133 650.806,-297.152"/>
<polygon fill="midnightblue" stroke="midnightblue" points="651.798,-300.525 660.942,-295.174 650.456,-293.655 651.798,-300.525"/>
</g>
<!-- Node18 -->
<g id="node18" class="node"><title>Node18</title>
<g id="a_node18"><a xlink:href="stream_8h.html" target="_top" xlink:title="streams abstraction header file ">
<polygon fill="white" stroke="black" points="233.024,-224.5 233.024,-243.5 288.024,-243.5 288.024,-224.5 233.024,-224.5"/>
<text text-anchor="middle" x="260.524" y="-231.5" font-family="Helvetica,sans-Serif" font-size="10.00">stream.h</text>
</a>
</g>
</g>
<!-- Node2&#45;&gt;Node18 -->
<g id="edge34" class="edge"><title>Node2&#45;&gt;Node18</title>
<path fill="none" stroke="midnightblue" d="M345.529,-336.38C333.498,-327.999 315.554,-314.45 302.524,-300 289.347,-285.387 277.501,-266.221 269.776,-252.493"/>
<polygon fill="midnightblue" stroke="midnightblue" points="272.784,-250.7 264.919,-243.602 266.641,-254.055 272.784,-250.7"/>
</g>
<!-- Node19 -->
<g id="node19" class="node"><title>Node19</title>
<g id="a_node19"><a xlink:href="mtree_8h.html" target="_top" xlink:title="semantic tree matrix header file `` ">
<polygon fill="white" stroke="black" points="603.524,-224.5 603.524,-243.5 653.524,-243.5 653.524,-224.5 603.524,-224.5"/>
<text text-anchor="middle" x="628.524" y="-231.5" font-family="Helvetica,sans-Serif" font-size="10.00">mtree.h</text>
</a>
</g>
</g>
<!-- Node2&#45;&gt;Node19 -->
<g id="edge28" class="edge"><title>Node2&#45;&gt;Node19</title>
<path fill="none" stroke="midnightblue" d="M394.832,-341.542C451.722,-335.534 558.577,-321.694 589.524,-300 605.653,-288.694 616.253,-268.39 622.276,-253.474"/>
<polygon fill="midnightblue" stroke="midnightblue" points="625.679,-254.364 625.867,-243.77 619.114,-251.934 625.679,-254.364"/>
</g>
<!-- Node20 -->
<g id="node20" class="node"><title>Node20</title>
<g id="a_node20"><a xlink:href="util_8h.html" target="_top" xlink:title="util.h">
<polygon fill="white" stroke="black" points="47.524,-280.5 47.524,-299.5 85.524,-299.5 85.524,-280.5 47.524,-280.5"/>
<text text-anchor="middle" x="66.524" y="-287.5" font-family="Helvetica,sans-Serif" font-size="10.00">util.h</text>
</a>
</g>
</g>
<!-- Node2&#45;&gt;Node20 -->
<g id="edge35" class="edge"><title>Node2&#45;&gt;Node20</title>
<path fill="none" stroke="midnightblue" d="M322.426,-338.324C263.918,-327.504 149.52,-306.349 95.7586,-296.406"/>
<polygon fill="midnightblue" stroke="midnightblue" points="96.3191,-292.951 85.8494,-294.574 95.0461,-299.834 96.3191,-292.951"/>
</g>
<!-- Node23 -->
<g id="node23" class="node"><title>Node23</title>
<g id="a_node23"><a xlink:href="debug_8h.html" target="_top" xlink:title="debug.h">
<polygon fill="white" stroke="black" points="180.024,-168.5 180.024,-187.5 231.024,-187.5 231.024,-168.5 180.024,-168.5"/>
<text text-anchor="middle" x="205.524" y="-175.5" font-family="Helvetica,sans-Serif" font-size="10.00">debug.h</text>
</a>
</g>
</g>
<!-- Node2&#45;&gt;Node23 -->
<g id="edge39" class="edge"><title>Node2&#45;&gt;Node23</title>
<path fill="none" stroke="midnightblue" d="M339.166,-336.428C309.078,-322.018 251.635,-289.94 223.524,-244 214.834,-229.798 210.244,-211.321 207.881,-197.698"/>
<polygon fill="midnightblue" stroke="midnightblue" points="211.312,-196.973 206.378,-187.597 204.388,-198.003 211.312,-196.973"/>
</g>
<!-- Node6&#45;&gt;Node4 -->
<g id="edge6" class="edge"><title>Node6&#45;&gt;Node4</title>
<path fill="none" stroke="midnightblue" d="M422.746,-168.435C401.135,-159.777 367.186,-145.747 338.524,-132 304.168,-115.522 265.559,-94.2906 241.392,-80.6595"/>
<polygon fill="midnightblue" stroke="midnightblue" points="243,-77.5481 232.575,-75.6619 239.548,-83.6379 243,-77.5481"/>
</g>
<!-- Node7 -->
<g id="node7" class="node"><title>Node7</title>
<polygon fill="white" stroke="#bfbfbf" points="489.524,-112.5 489.524,-131.5 539.524,-131.5 539.524,-112.5 489.524,-112.5"/>
<text text-anchor="middle" x="514.524" y="-119.5" font-family="Helvetica,sans-Serif" font-size="10.00">signal.h</text>
</g>
<!-- Node6&#45;&gt;Node7 -->
<g id="edge7" class="edge"><title>Node6&#45;&gt;Node7</title>
<path fill="none" stroke="midnightblue" d="M455.771,-168.324C466.321,-160.185 482.325,-147.839 494.966,-138.087"/>
<polygon fill="midnightblue" stroke="midnightblue" points="497.293,-140.713 503.073,-131.834 493.017,-135.171 497.293,-140.713"/>
</g>
<!-- Node8 -->
<g id="node8" class="node"><title>Node8</title>
<polygon fill="white" stroke="#bfbfbf" points="347.524,-112.5 347.524,-131.5 399.524,-131.5 399.524,-112.5 347.524,-112.5"/>
<text text-anchor="middle" x="373.524" y="-119.5" font-family="Helvetica,sans-Serif" font-size="10.00">assert.h</text>
</g>
<!-- Node6&#45;&gt;Node8 -->
<g id="edge8" class="edge"><title>Node6&#45;&gt;Node8</title>
<path fill="none" stroke="midnightblue" d="M433.117,-168.324C422.415,-160.185 406.183,-147.839 393.361,-138.087"/>
<polygon fill="midnightblue" stroke="midnightblue" points="395.217,-135.102 385.139,-131.834 390.98,-140.673 395.217,-135.102"/>
</g>
<!-- Node9 -->
<g id="node9" class="node"><title>Node9</title>
<polygon fill="white" stroke="#bfbfbf" points="417.524,-112.5 417.524,-131.5 471.524,-131.5 471.524,-112.5 417.524,-112.5"/>
<text text-anchor="middle" x="444.524" y="-119.5" font-family="Helvetica,sans-Serif" font-size="10.00">setjmp.h</text>
</g>
<!-- Node6&#45;&gt;Node9 -->
<g id="edge9" class="edge"><title>Node6&#45;&gt;Node9</title>
<path fill="none" stroke="midnightblue" d="M444.524,-168.083C444.524,-161.006 444.524,-150.861 444.524,-141.986"/>
<polygon fill="midnightblue" stroke="midnightblue" points="448.024,-141.751 444.524,-131.751 441.024,-141.751 448.024,-141.751"/>
</g>
<!-- Node10&#45;&gt;Node3 -->
<g id="edge11" class="edge"><title>Node10&#45;&gt;Node3</title>
<path fill="none" stroke="midnightblue" d="M685.101,-280.218C688.539,-271.278 693.502,-256.934 695.524,-244 707.866,-165.063 702.355,-69.2414 699.192,-29.5724"/>
<polygon fill="midnightblue" stroke="midnightblue" points="702.673,-29.2061 698.343,-19.5366 695.698,-29.796 702.673,-29.2061"/>
</g>
<!-- Node10&#45;&gt;Node5 -->
<g id="edge12" class="edge"><title>Node10&#45;&gt;Node5</title>
<path fill="none" stroke="midnightblue" d="M681.524,-280.442C681.524,-261.936 681.524,-216.812 681.524,-179 681.524,-179 681.524,-179 681.524,-121 681.524,-79.911 644.165,-44.4436 619.576,-25.5491"/>
<polygon fill="midnightblue" stroke="midnightblue" points="621.615,-22.7041 611.493,-19.575 617.454,-28.3334 621.615,-22.7041"/>
</g>
<!-- Node10&#45;&gt;Node6 -->
<g id="edge13" class="edge"><title>Node10&#45;&gt;Node6</title>
<path fill="none" stroke="midnightblue" d="M662.927,-280.368C621.479,-261.131 521.329,-214.648 472.385,-191.931"/>
<polygon fill="midnightblue" stroke="midnightblue" points="473.579,-188.627 463.035,-187.591 470.632,-194.976 473.579,-188.627"/>
</g>
<!-- Node11 -->
<g id="node11" class="node"><title>Node11</title>
<g id="a_node11"><a xlink:href="sys__defs_8h.html" target="_top" xlink:title="Defines types and vars for system defined semantics. ">
<polygon fill="white" stroke="black" points="786.024,-168.5 786.024,-187.5 851.024,-187.5 851.024,-168.5 786.024,-168.5"/>
<text text-anchor="middle" x="818.524" y="-175.5" font-family="Helvetica,sans-Serif" font-size="10.00">sys_defs.h</text>
</a>
</g>
</g>
<!-- Node10&#45;&gt;Node11 -->
<g id="edge14" class="edge"><title>Node10&#45;&gt;Node11</title>
<path fill="none" stroke="midnightblue" d="M692.274,-280.368C715.483,-261.733 770.534,-217.532 799.676,-194.134"/>
<polygon fill="midnightblue" stroke="midnightblue" points="802.218,-196.581 807.824,-187.591 797.835,-191.123 802.218,-196.581"/>
</g>
<!-- Node12 -->
<g id="node12" class="node"><title>Node12</title>
<g id="a_node12"><a xlink:href="ceptr__types_8h_source.html" target="_top" xlink:title="ceptr_types.h">
<polygon fill="white" stroke="black" points="780.524,-112.5 780.524,-131.5 856.524,-131.5 856.524,-112.5 780.524,-112.5"/>
<text text-anchor="middle" x="818.524" y="-119.5" font-family="Helvetica,sans-Serif" font-size="10.00">ceptr_types.h</text>
</a>
</g>
</g>
<!-- Node10&#45;&gt;Node12 -->
<g id="edge25" class="edge"><title>Node10&#45;&gt;Node12</title>
<path fill="none" stroke="midnightblue" d="M702.134,-282.639C705.271,-281.722 708.477,-280.815 711.524,-280 779.01,-261.955 821.152,-298.762 864.524,-244 872.432,-234.016 874.296,-201.621 859.524,-168 854.562,-156.708 845.604,-146.359 837.324,-138.441"/>
<polygon fill="midnightblue" stroke="midnightblue" points="839.526,-135.715 829.746,-131.642 834.852,-140.925 839.526,-135.715"/>
</g>
<!-- Node17 -->
<g id="node17" class="node"><title>Node17</title>
<g id="a_node17"><a xlink:href="base__defs_8h.html" target="_top" xlink:title="auto&#45;generated system definitions ">
<polygon fill="white" stroke="black" points="785.524,-224.5 785.524,-243.5 855.524,-243.5 855.524,-224.5 785.524,-224.5"/>
<text text-anchor="middle" x="820.524" y="-231.5" font-family="Helvetica,sans-Serif" font-size="10.00">base_defs.h</text>
</a>
</g>
</g>
<!-- Node10&#45;&gt;Node17 -->
<g id="edge23" class="edge"><title>Node10&#45;&gt;Node17</title>
<path fill="none" stroke="midnightblue" d="M702.034,-281.032C724.935,-272.135 762.276,-257.629 788.918,-247.279"/>
<polygon fill="midnightblue" stroke="midnightblue" points="790.498,-250.42 798.552,-243.536 787.963,-243.895 790.498,-250.42"/>
</g>
<!-- Node10&#45;&gt;Node18 -->
<g id="edge26" class="edge"><title>Node10&#45;&gt;Node18</title>
<path fill="none" stroke="midnightblue" d="M660.933,-286.359C594.453,-277.832 384.845,-250.946 298.385,-239.856"/>
<polygon fill="midnightblue" stroke="midnightblue" points="298.592,-236.354 288.228,-238.553 297.701,-243.297 298.592,-236.354"/>
</g>
<!-- Node11&#45;&gt;Node12 -->
<g id="edge15" class="edge"><title>Node11&#45;&gt;Node12</title>
<path fill="none" stroke="midnightblue" d="M818.524,-168.083C818.524,-161.006 818.524,-150.861 818.524,-141.986"/>
<polygon fill="midnightblue" stroke="midnightblue" points="822.024,-141.751 818.524,-131.751 815.024,-141.751 822.024,-141.751"/>
</g>
<!-- Node12&#45;&gt;Node4 -->
<g id="edge17" class="edge"><title>Node12&#45;&gt;Node4</title>
<path fill="none" stroke="midnightblue" d="M780.473,-117.581C670.695,-107.718 354.657,-79.3214 250.939,-70.0023"/>
<polygon fill="midnightblue" stroke="midnightblue" points="251.016,-66.4953 240.743,-69.0863 250.39,-73.4672 251.016,-66.4953"/>
</g>
<!-- Node13 -->
<g id="node13" class="node"><title>Node13</title>
<polygon fill="white" stroke="#bfbfbf" points="781.024,-56.5 781.024,-75.5 830.024,-75.5 830.024,-56.5 781.024,-56.5"/>
<text text-anchor="middle" x="805.524" y="-63.5" font-family="Helvetica,sans-Serif" font-size="10.00">stdint.h</text>
</g>
<!-- Node12&#45;&gt;Node13 -->
<g id="edge16" class="edge"><title>Node12&#45;&gt;Node13</title>
<path fill="none" stroke="midnightblue" d="M816.377,-112.083C814.655,-104.927 812.177,-94.6353 810.024,-85.6911"/>
<polygon fill="midnightblue" stroke="midnightblue" points="813.374,-84.6541 807.631,-75.7511 806.569,-86.2925 813.374,-84.6541"/>
</g>
<!-- Node14 -->
<g id="node14" class="node"><title>Node14</title>
<g id="a_node14"><a xlink:href="uthash_8h_source.html" target="_top" xlink:title="uthash.h">
<polygon fill="white" stroke="black" points="848.524,-56.5 848.524,-75.5 902.524,-75.5 902.524,-56.5 848.524,-56.5"/>
<text text-anchor="middle" x="875.524" y="-63.5" font-family="Helvetica,sans-Serif" font-size="10.00">uthash.h</text>
</a>
</g>
</g>
<!-- Node12&#45;&gt;Node14 -->
<g id="edge18" class="edge"><title>Node12&#45;&gt;Node14</title>
<path fill="none" stroke="midnightblue" d="M827.682,-112.324C836.026,-104.42 848.556,-92.5482 858.701,-82.9377"/>
<polygon fill="midnightblue" stroke="midnightblue" points="861.347,-85.2522 866.199,-75.8339 856.533,-80.1705 861.347,-85.2522"/>
</g>
<!-- Node14&#45;&gt;Node3 -->
<g id="edge19" class="edge"><title>Node14&#45;&gt;Node3</title>
<path fill="none" stroke="midnightblue" d="M848.49,-56.7986C817.377,-47.3599 766.207,-31.8365 732.191,-21.5169"/>
<polygon fill="midnightblue" stroke="midnightblue" points="732.811,-18.0477 722.226,-18.4938 730.779,-24.7462 732.811,-18.0477"/>
</g>
<!-- Node14&#45;&gt;Node5 -->
<g id="edge21" class="edge"><title>Node14&#45;&gt;Node5</title>
<path fill="none" stroke="midnightblue" d="M848.484,-58.2468C845.136,-57.4626 841.755,-56.6955 838.524,-56 765.51,-40.2865 679.326,-24.8886 632.679,-16.8139"/>
<polygon fill="midnightblue" stroke="midnightblue" points="633.245,-13.36 622.796,-15.1105 632.056,-20.2583 633.245,-13.36"/>
</g>
<!-- Node15 -->
<g id="node15" class="node"><title>Node15</title>
<polygon fill="white" stroke="#bfbfbf" points="812.524,-0.5 812.524,-19.5 864.524,-19.5 864.524,-0.5 812.524,-0.5"/>
<text text-anchor="middle" x="838.524" y="-7.5" font-family="Helvetica,sans-Serif" font-size="10.00">stddef.h</text>
</g>
<!-- Node14&#45;&gt;Node15 -->
<g id="edge20" class="edge"><title>Node14&#45;&gt;Node15</title>
<path fill="none" stroke="midnightblue" d="M869.414,-56.083C864.242,-48.5341 856.678,-37.4948 850.33,-28.2298"/>
<polygon fill="midnightblue" stroke="midnightblue" points="853.06,-26.0221 844.52,-19.7511 847.285,-29.9787 853.06,-26.0221"/>
</g>
<!-- Node16 -->
<g id="node16" class="node"><title>Node16</title>
<polygon fill="white" stroke="#bfbfbf" points="883.024,-0.5 883.024,-19.5 942.024,-19.5 942.024,-0.5 883.024,-0.5"/>
<text text-anchor="middle" x="912.524" y="-7.5" font-family="Helvetica,sans-Serif" font-size="10.00">inttypes.h</text>
</g>
<!-- Node14&#45;&gt;Node16 -->
<g id="edge22" class="edge"><title>Node14&#45;&gt;Node16</title>
<path fill="none" stroke="midnightblue" d="M881.634,-56.083C886.806,-48.5341 894.37,-37.4948 900.718,-28.2298"/>
<polygon fill="midnightblue" stroke="midnightblue" points="903.763,-29.9787 906.528,-19.7511 897.988,-26.0221 903.763,-29.9787"/>
</g>
<!-- Node17&#45;&gt;Node11 -->
<g id="edge24" class="edge"><title>Node17&#45;&gt;Node11</title>
<path fill="none" stroke="midnightblue" d="M820.194,-224.083C819.932,-217.006 819.556,-206.861 819.227,-197.986"/>
<polygon fill="midnightblue" stroke="midnightblue" points="822.716,-197.615 818.848,-187.751 815.721,-197.874 822.716,-197.615"/>
</g>
<!-- Node18&#45;&gt;Node4 -->
<g id="edge27" class="edge"><title>Node18&#45;&gt;Node4</title>
<path fill="none" stroke="midnightblue" d="M258.212,-224.075C251.444,-197.945 231.567,-121.211 222.336,-85.577"/>
<polygon fill="midnightblue" stroke="midnightblue" points="225.639,-84.3709 219.743,-75.5681 218.863,-86.1263 225.639,-84.3709"/>
</g>
<!-- Node19&#45;&gt;Node3 -->
<g id="edge29" class="edge"><title>Node19&#45;&gt;Node3</title>
<path fill="none" stroke="midnightblue" d="M631.229,-224.297C641.403,-191.563 677.516,-75.3752 691.722,-29.6664"/>
<polygon fill="midnightblue" stroke="midnightblue" points="695.137,-30.472 694.763,-19.8837 688.452,-28.3943 695.137,-30.472"/>
</g>
<!-- Node19&#45;&gt;Node5 -->
<g id="edge30" class="edge"><title>Node19&#45;&gt;Node5</title>
<path fill="none" stroke="midnightblue" d="M624.877,-224.276C614.596,-198.727 586.442,-121.73 591.524,-56 592.203,-47.2204 593.616,-37.5626 594.996,-29.4526"/>
<polygon fill="midnightblue" stroke="midnightblue" points="598.446,-30.0446 596.785,-19.5806 591.558,-28.7961 598.446,-30.0446"/>
</g>
<!-- Node19&#45;&gt;Node6 -->
<g id="edge31" class="edge"><title>Node19&#45;&gt;Node6</title>
<path fill="none" stroke="midnightblue" d="M603.325,-225.605C572.377,-216.522 519.548,-201.018 483.386,-190.405"/>
<polygon fill="midnightblue" stroke="midnightblue" points="484.241,-187.009 473.66,-187.551 482.27,-193.725 484.241,-187.009"/>
</g>
<!-- Node19&#45;&gt;Node11 -->
<g id="edge32" class="edge"><title>Node19&#45;&gt;Node11</title>
<path fill="none" stroke="midnightblue" d="M653.755,-225.829C685.724,-216.743 741.186,-200.98 778.846,-190.277"/>
<polygon fill="midnightblue" stroke="midnightblue" points="779.824,-193.638 788.486,-187.537 777.91,-186.904 779.824,-193.638"/>
</g>
<!-- Node19&#45;&gt;Node12 -->
<g id="edge33" class="edge"><title>Node19&#45;&gt;Node12</title>
<path fill="none" stroke="midnightblue" d="M643.433,-224.368C676.315,-205.332 755.279,-159.615 794.946,-136.65"/>
<polygon fill="midnightblue" stroke="midnightblue" points="796.784,-139.631 803.684,-131.591 793.276,-133.573 796.784,-139.631"/>
</g>
<!-- Node20&#45;&gt;Node4 -->
<g id="edge37" class="edge"><title>Node20&#45;&gt;Node4</title>
<path fill="none" stroke="midnightblue" d="M47.4254,-280.942C24.5853,-270.007 -9.19128,-248.942 2.52402,-224 38.7228,-146.934 134.158,-99.4826 184.83,-78.9314"/>
<polygon fill="midnightblue" stroke="midnightblue" points="186.321,-82.1061 194.337,-75.1791 183.751,-75.5949 186.321,-82.1061"/>
</g>
<!-- Node21 -->
<g id="node21" class="node"><title>Node21</title>
<polygon fill="white" stroke="#bfbfbf" points="74.024,-224.5 74.024,-243.5 123.024,-243.5 123.024,-224.5 74.024,-224.5"/>
<text text-anchor="middle" x="98.524" y="-231.5" font-family="Helvetica,sans-Serif" font-size="10.00">ctype.h</text>
</g>
<!-- Node20&#45;&gt;Node21 -->
<g id="edge36" class="edge"><title>Node20&#45;&gt;Node21</title>
<path fill="none" stroke="midnightblue" d="M71.8082,-280.083C76.235,-272.613 82.6873,-261.724 88.1419,-252.52"/>
<polygon fill="midnightblue" stroke="midnightblue" points="91.2511,-254.138 93.3382,-243.751 85.2291,-250.57 91.2511,-254.138"/>
</g>
<!-- Node22 -->
<g id="node22" class="node"><title>Node22</title>
<polygon fill="white" stroke="#bfbfbf" points="11.524,-224.5 11.524,-243.5 55.524,-243.5 55.524,-224.5 11.524,-224.5"/>
<text text-anchor="middle" x="33.524" y="-231.5" font-family="Helvetica,sans-Serif" font-size="10.00">time.h</text>
</g>
<!-- Node20&#45;&gt;Node22 -->
<g id="edge38" class="edge"><title>Node20&#45;&gt;Node22</title>
<path fill="none" stroke="midnightblue" d="M61.0747,-280.083C56.5096,-272.613 49.8556,-261.724 44.2306,-252.52"/>
<polygon fill="midnightblue" stroke="midnightblue" points="47.0729,-250.459 38.8719,-243.751 41.1,-254.109 47.0729,-250.459"/>
</g>
<!-- Node23&#45;&gt;Node4 -->
<g id="edge40" class="edge"><title>Node23&#45;&gt;Node4</title>
<path fill="none" stroke="midnightblue" d="M206.466,-168.368C208.402,-150.617 212.87,-109.666 215.495,-85.5974"/>
<polygon fill="midnightblue" stroke="midnightblue" points="218.982,-85.912 216.587,-75.5914 212.023,-85.1528 218.982,-85.912"/>
</g>
<!-- Node24&#45;&gt;Node10 -->
<g id="edge42" class="edge"><title>Node24&#45;&gt;Node10</title>
<path fill="none" stroke="midnightblue" d="M708.24,-336.083C703.813,-328.613 697.361,-317.724 691.906,-308.52"/>
<polygon fill="midnightblue" stroke="midnightblue" points="694.819,-306.57 686.71,-299.751 688.797,-310.138 694.819,-306.57"/>
</g>
<!-- Node25 -->
<g id="node25" class="node"><title>Node25</title>
<polygon fill="white" stroke="#bfbfbf" points="720.524,-280.5 720.524,-299.5 772.524,-299.5 772.524,-280.5 720.524,-280.5"/>
<text text-anchor="middle" x="746.524" y="-287.5" font-family="Helvetica,sans-Serif" font-size="10.00">stdarg.h</text>
</g>
<!-- Node24&#45;&gt;Node25 -->
<g id="edge43" class="edge"><title>Node24&#45;&gt;Node25</title>
<path fill="none" stroke="midnightblue" d="M718.973,-336.083C723.538,-328.613 730.192,-317.724 735.817,-308.52"/>
<polygon fill="midnightblue" stroke="midnightblue" points="738.948,-310.109 741.176,-299.751 732.975,-306.459 738.948,-310.109"/>
</g>
<!-- Node26&#45;&gt;Node10 -->
<g id="edge45" class="edge"><title>Node26&#45;&gt;Node10</title>
<path fill="none" stroke="midnightblue" d="M630.325,-336.324C639.342,-328.341 652.93,-316.313 663.842,-306.653"/>
<polygon fill="midnightblue" stroke="midnightblue" points="666.377,-309.083 671.545,-299.834 661.737,-303.842 666.377,-309.083"/>
</g>
</g>
</svg>
