<?xml version="1.0" encoding="UTF-8" standalone="no"?>
<!DOCTYPE svg PUBLIC "-//W3C//DTD SVG 1.1//EN"
 "http://www.w3.org/Graphics/SVG/1.1/DTD/svg11.dtd">
<!-- Generated by graphviz version 2.38.0 (20140413.2041)
 -->
<!-- Title: src/def.h Pages: 1 -->
<!--zoomable 364 -->
<svg id="main" version="1.1" xmlns="http://www.w3.org/2000/svg" xmlns:xlink="http://www.w3.org/1999/xlink" xml:space="preserve" onload="init(evt)">
<style type="text/css"><![CDATA[
.edge:hover path { stroke: red; }
.edge:hover polygon { stroke: red; fill: red; }
]]></style>
<script type="text/javascript"><![CDATA[
var edges = document.getElementsByTagName('g');
if (edges && edges.length) {
  for (var i=0;i<edges.length;i++) {
    if (edges[i].id.substr(0,4)=='edge') {
      edges[i].setAttribute('class','edge');
    }
  }
}
]]></script>
        <defs>
                <circle id="rim" cx="0" cy="0" r="7"/>
                <circle id="rim2" cx="0" cy="0" r="3.5"/>
                <g id="zoomPlus">
                        <use xlink:href="#rim" fill="#404040">
                                <set attributeName="fill" to="#808080" begin="zoomplus.mouseover" end="zoomplus.mouseout"/>
                        </use>
                        <path d="M-4,0h8M0,-4v8" fill="none" stroke="white" stroke-width="1.5" pointer-events="none"/>
                </g>
                <g id="zoomMin">
                        <use xlink:href="#rim" fill="#404040">
                                <set attributeName="fill" to="#808080" begin="zoomminus.mouseover" end="zoomminus.mouseout"/>
                        </use>
                        <path d="M-4,0h8" fill="none" stroke="white" stroke-width="1.5" pointer-events="none"/>
                </g>
                <g id="dirArrow">
                        <path fill="none" stroke="white" stroke-width="1.5" d="M0,-3.0v7 M-2.5,-0.5L0,-3.0L2.5,-0.5"/>
                </g>
               <g id="resetDef">
                       <use xlink:href="#rim2" fill="#404040">
                               <set attributeName="fill" to="#808080" begin="reset.mouseover" end="reset.mouseout"/>
                       </use>
               </g>
        </defs>

<script type="text/javascript">
var viewWidth = 528;
var viewHeight = 364;
var sectionId = 'dynsection-0';
</script>
<script xlink:href="svgpan.js"/>
<svg id="graph" class="graph">
<g id="viewport">
<title>src/def.h</title>
<polygon fill="white" stroke="none" points="-4,4 -4,-360 524,-360 524,4 -4,4"/>
<!-- Node1 -->
<g id="node1" class="node"><title>Node1</title>
<polygon fill="#bfbfbf" stroke="black" points="229,-336.5 229,-355.5 284,-355.5 284,-336.5 229,-336.5"/>
<text text-anchor="middle" x="256.5" y="-343.5" font-family="Helvetica,sans-Serif" font-size="10.00">src/def.h</text>
</g>
<!-- Node2 -->
<g id="node2" class="node"><title>Node2</title>
<g id="a_node2"><a xlink:href="tree_8h.html" target="_top" xlink:title="semantic trees header file ">
<polygon fill="white" stroke="black" points="204,-280.5 204,-299.5 245,-299.5 245,-280.5 204,-280.5"/>
<text text-anchor="middle" x="224.5" y="-287.5" font-family="Helvetica,sans-Serif" font-size="10.00">tree.h</text>
</a>
</g>
</g>
<!-- Node1&#45;&gt;Node2 -->
<g id="edge1" class="edge"><title>Node1&#45;&gt;Node2</title>
<path fill="none" stroke="midnightblue" d="M251.216,-336.083C246.789,-328.613 240.337,-317.724 234.882,-308.52"/>
<polygon fill="midnightblue" stroke="midnightblue" points="237.795,-306.57 229.686,-299.751 231.773,-310.138 237.795,-306.57"/>
</g>
<!-- Node19 -->
<g id="node19" class="node"><title>Node19</title>
<polygon fill="white" stroke="#bfbfbf" points="263.5,-280.5 263.5,-299.5 315.5,-299.5 315.5,-280.5 263.5,-280.5"/>
<text text-anchor="middle" x="289.5" y="-287.5" font-family="Helvetica,sans-Serif" font-size="10.00">stdarg.h</text>
</g>
<!-- Node1&#45;&gt;Node19 -->
<g id="edge25" class="edge"><title>Node1&#45;&gt;Node19</title>
<path fill="none" stroke="midnightblue" d="M261.949,-336.083C266.514,-328.613 273.168,-317.724 278.793,-308.52"/>
<polygon fill="midnightblue" stroke="midnightblue" points="281.924,-310.109 284.152,-299.751 275.951,-306.459 281.924,-310.109"/>
</g>
<!-- Node3 -->
<g id="node3" class="node"><title>Node3</title>
<polygon fill="white" stroke="#bfbfbf" points="0,-0.5 0,-19.5 49,-19.5 49,-0.5 0,-0.5"/>
<text text-anchor="middle" x="24.5" y="-7.5" font-family="Helvetica,sans-Serif" font-size="10.00">string.h</text>
</g>
<!-- Node2&#45;&gt;Node3 -->
<g id="edge2" class="edge"><title>Node2&#45;&gt;Node3</title>
<path fill="none" stroke="midnightblue" d="M203.918,-287.464C152.31,-282.381 21.5,-261.374 21.5,-179 21.5,-179 21.5,-179 21.5,-121 21.5,-88.9361 22.7895,-51.6344 23.6776,-29.7446"/>
<polygon fill="midnightblue" stroke="midnightblue" points="27.1828,-29.6944 24.1078,-19.5556 20.189,-29.399 27.1828,-29.6944"/>
</g>
<!-- Node4 -->
<g id="node4" class="node"><title>Node4</title>
<polygon fill="white" stroke="#bfbfbf" points="218.5,-0.5 218.5,-19.5 266.5,-19.5 266.5,-0.5 218.5,-0.5"/>
<text text-anchor="middle" x="242.5" y="-7.5" font-family="Helvetica,sans-Serif" font-size="10.00">stdlib.h</text>
</g>
<!-- Node2&#45;&gt;Node4 -->
<g id="edge3" class="edge"><title>Node2&#45;&gt;Node4</title>
<path fill="none" stroke="midnightblue" d="M227.062,-280.249C232.249,-261.738 243.5,-217.179 243.5,-179 243.5,-179 243.5,-179 243.5,-121 243.5,-88.9467 243.07,-51.6417 242.774,-29.7484"/>
<polygon fill="midnightblue" stroke="midnightblue" points="246.271,-29.5073 242.631,-19.5575 239.272,-29.6058 246.271,-29.5073"/>
</g>
<!-- Node5 -->
<g id="node5" class="node"><title>Node5</title>
<g id="a_node5"><a xlink:href="ceptr__error_8h_source.html" target="_top" xlink:title="ceptr_error.h">
<polygon fill="white" stroke="black" points="340,-224.5 340,-243.5 411,-243.5 411,-224.5 340,-224.5"/>
<text text-anchor="middle" x="375.5" y="-231.5" font-family="Helvetica,sans-Serif" font-size="10.00">ceptr_error.h</text>
</a>
</g>
</g>
<!-- Node2&#45;&gt;Node5 -->
<g id="edge4" class="edge"><title>Node2&#45;&gt;Node5</title>
<path fill="none" stroke="midnightblue" d="M245.179,-281.605C270.143,-272.677 312.455,-257.546 342.074,-246.954"/>
<polygon fill="midnightblue" stroke="midnightblue" points="343.352,-250.214 351.589,-243.551 340.995,-243.623 343.352,-250.214"/>
</g>
<!-- Node10 -->
<g id="node10" class="node"><title>Node10</title>
<g id="a_node10"><a xlink:href="sys__symbols_8h.html" target="_top" xlink:title="Defines hard&#45;coded system defined symbols. ">
<polygon fill="white" stroke="black" points="94,-224.5 94,-243.5 177,-243.5 177,-224.5 94,-224.5"/>
<text text-anchor="middle" x="135.5" y="-231.5" font-family="Helvetica,sans-Serif" font-size="10.00">sys_symbols.h</text>
</a>
</g>
</g>
<!-- Node2&#45;&gt;Node10 -->
<g id="edge9" class="edge"><title>Node2&#45;&gt;Node10</title>
<path fill="none" stroke="midnightblue" d="M210.201,-280.324C196.317,-271.9 175.008,-258.971 158.696,-249.074"/>
<polygon fill="midnightblue" stroke="midnightblue" points="160.129,-245.85 149.764,-243.655 156.498,-251.834 160.129,-245.85"/>
</g>
<!-- Node11 -->
<g id="node11" class="node"><title>Node11</title>
<g id="a_node11"><a xlink:href="sys__structures_8h.html" target="_top" xlink:title="Defines hard&#45;coded system defined structures. ">
<polygon fill="white" stroke="black" points="126,-168.5 126,-187.5 215,-187.5 215,-168.5 126,-168.5"/>
<text text-anchor="middle" x="170.5" y="-175.5" font-family="Helvetica,sans-Serif" font-size="10.00">sys_structures.h</text>
</a>
</g>
</g>
<!-- Node2&#45;&gt;Node11 -->
<g id="edge20" class="edge"><title>Node2&#45;&gt;Node11</title>
<path fill="none" stroke="midnightblue" d="M220.263,-280.368C211.43,-262.376 190.897,-220.55 179.153,-196.627"/>
<polygon fill="midnightblue" stroke="midnightblue" points="182.266,-195.026 174.718,-187.591 175.983,-198.11 182.266,-195.026"/>
</g>
<!-- Node12 -->
<g id="node12" class="node"><title>Node12</title>
<g id="a_node12"><a xlink:href="ceptr__types_8h_source.html" target="_top" xlink:title="ceptr_types.h">
<polygon fill="white" stroke="black" points="92.5,-112.5 92.5,-131.5 168.5,-131.5 168.5,-112.5 92.5,-112.5"/>
<text text-anchor="middle" x="130.5" y="-119.5" font-family="Helvetica,sans-Serif" font-size="10.00">ceptr_types.h</text>
</a>
</g>
</g>
<!-- Node2&#45;&gt;Node12 -->
<g id="edge22" class="edge"><title>Node2&#45;&gt;Node12</title>
<path fill="none" stroke="midnightblue" d="M203.814,-289.326C172.062,-288.564 112.096,-281.857 84.5,-244 60.4603,-211.022 93.6702,-163.947 115.007,-139.367"/>
<polygon fill="midnightblue" stroke="midnightblue" points="117.849,-141.442 121.946,-131.671 112.65,-136.754 117.849,-141.442"/>
</g>
<!-- Node17 -->
<g id="node17" class="node"><title>Node17</title>
<g id="a_node17"><a xlink:href="sys__processes_8h.html" target="_top" xlink:title="Defines hard&#45;coded system defined processes. ">
<polygon fill="white" stroke="black" points="429,-224.5 429,-243.5 520,-243.5 520,-224.5 429,-224.5"/>
<text text-anchor="middle" x="474.5" y="-231.5" font-family="Helvetica,sans-Serif" font-size="10.00">sys_processes.h</text>
</a>
</g>
</g>
<!-- Node2&#45;&gt;Node17 -->
<g id="edge21" class="edge"><title>Node2&#45;&gt;Node17</title>
<path fill="none" stroke="midnightblue" d="M245.089,-282.558C248.229,-281.653 251.442,-280.77 254.5,-280 309.916,-266.05 374,-253.322 418.656,-244.989"/>
<polygon fill="midnightblue" stroke="midnightblue" points="419.53,-248.387 428.725,-243.124 418.254,-241.504 419.53,-248.387"/>
</g>
<!-- Node18 -->
<g id="node18" class="node"><title>Node18</title>
<g id="a_node18"><a xlink:href="stream_8h.html" target="_top" xlink:title="streams abstraction header file ">
<polygon fill="white" stroke="black" points="272,-112.5 272,-131.5 327,-131.5 327,-112.5 272,-112.5"/>
<text text-anchor="middle" x="299.5" y="-119.5" font-family="Helvetica,sans-Serif" font-size="10.00">stream.h</text>
</a>
</g>
</g>
<!-- Node2&#45;&gt;Node18 -->
<g id="edge23" class="edge"><title>Node2&#45;&gt;Node18</title>
<path fill="none" stroke="midnightblue" d="M232.177,-280.224C239.482,-271.518 250.385,-257.553 257.5,-244 275.524,-209.667 288.481,-165.963 294.911,-141.585"/>
<polygon fill="midnightblue" stroke="midnightblue" points="298.385,-142.127 297.469,-131.572 291.603,-140.394 298.385,-142.127"/>
</g>
<!-- Node6 -->
<g id="node6" class="node"><title>Node6</title>
<polygon fill="white" stroke="#bfbfbf" points="276.5,-56.5 276.5,-75.5 322.5,-75.5 322.5,-56.5 276.5,-56.5"/>
<text text-anchor="middle" x="299.5" y="-63.5" font-family="Helvetica,sans-Serif" font-size="10.00">stdio.h</text>
</g>
<!-- Node5&#45;&gt;Node6 -->
<g id="edge5" class="edge"><title>Node5&#45;&gt;Node6</title>
<path fill="none" stroke="midnightblue" d="M411.014,-226.038C446.899,-218.196 498.691,-204.384 510.5,-188 515.697,-180.789 515.238,-175.521 510.5,-168 471.173,-105.575 381.403,-80.8857 332.589,-71.8115"/>
<polygon fill="midnightblue" stroke="midnightblue" points="332.994,-68.3294 322.541,-70.0575 331.79,-75.2251 332.994,-68.3294"/>
</g>
<!-- Node7 -->
<g id="node7" class="node"><title>Node7</title>
<polygon fill="white" stroke="#bfbfbf" points="451.5,-168.5 451.5,-187.5 501.5,-187.5 501.5,-168.5 451.5,-168.5"/>
<text text-anchor="middle" x="476.5" y="-175.5" font-family="Helvetica,sans-Serif" font-size="10.00">signal.h</text>
</g>
<!-- Node5&#45;&gt;Node7 -->
<g id="edge6" class="edge"><title>Node5&#45;&gt;Node7</title>
<path fill="none" stroke="midnightblue" d="M391.727,-224.324C407.851,-215.703 432.8,-202.364 451.464,-192.386"/>
<polygon fill="midnightblue" stroke="midnightblue" points="453.144,-195.456 460.313,-187.655 449.844,-189.283 453.144,-195.456"/>
</g>
<!-- Node8 -->
<g id="node8" class="node"><title>Node8</title>
<polygon fill="white" stroke="#bfbfbf" points="309.5,-168.5 309.5,-187.5 361.5,-187.5 361.5,-168.5 309.5,-168.5"/>
<text text-anchor="middle" x="335.5" y="-175.5" font-family="Helvetica,sans-Serif" font-size="10.00">assert.h</text>
</g>
<!-- Node5&#45;&gt;Node8 -->
<g id="edge7" class="edge"><title>Node5&#45;&gt;Node8</title>
<path fill="none" stroke="midnightblue" d="M368.895,-224.083C363.245,-216.455 354.955,-205.264 348.049,-195.941"/>
<polygon fill="midnightblue" stroke="midnightblue" points="350.747,-193.703 341.982,-187.751 345.122,-197.87 350.747,-193.703"/>
</g>
<!-- Node9 -->
<g id="node9" class="node"><title>Node9</title>
<polygon fill="white" stroke="#bfbfbf" points="379.5,-168.5 379.5,-187.5 433.5,-187.5 433.5,-168.5 379.5,-168.5"/>
<text text-anchor="middle" x="406.5" y="-175.5" font-family="Helvetica,sans-Serif" font-size="10.00">setjmp.h</text>
</g>
<!-- Node5&#45;&gt;Node9 -->
<g id="edge8" class="edge"><title>Node5&#45;&gt;Node9</title>
<path fill="none" stroke="midnightblue" d="M380.619,-224.083C384.908,-216.613 391.158,-205.724 396.442,-196.52"/>
<polygon fill="midnightblue" stroke="midnightblue" points="399.533,-198.166 401.476,-187.751 393.462,-194.681 399.533,-198.166"/>
</g>
<!-- Node10&#45;&gt;Node11 -->
<g id="edge10" class="edge"><title>Node10&#45;&gt;Node11</title>
<path fill="none" stroke="midnightblue" d="M141.28,-224.083C146.172,-216.534 153.327,-205.495 159.333,-196.23"/>
<polygon fill="midnightblue" stroke="midnightblue" points="162.326,-198.046 164.828,-187.751 156.452,-194.239 162.326,-198.046"/>
</g>
<!-- Node10&#45;&gt;Node12 -->
<g id="edge19" class="edge"><title>Node10&#45;&gt;Node12</title>
<path fill="none" stroke="midnightblue" d="M130.624,-224.372C125.941,-215.552 119.192,-201.299 116.5,-188 113.315,-172.267 117.721,-154.446 122.411,-141.449"/>
<polygon fill="midnightblue" stroke="midnightblue" points="125.799,-142.402 126.257,-131.817 119.298,-139.806 125.799,-142.402"/>
</g>
<!-- Node11&#45;&gt;Node12 -->
<g id="edge11" class="edge"><title>Node11&#45;&gt;Node12</title>
<path fill="none" stroke="midnightblue" d="M163.895,-168.083C158.245,-160.455 149.955,-149.264 143.049,-139.941"/>
<polygon fill="midnightblue" stroke="midnightblue" points="145.747,-137.703 136.982,-131.751 140.122,-141.87 145.747,-137.703"/>
</g>
<!-- Node12&#45;&gt;Node6 -->
<g id="edge13" class="edge"><title>Node12&#45;&gt;Node6</title>
<path fill="none" stroke="midnightblue" d="M157.279,-112.444C186.925,-102.971 234.729,-87.6961 266.624,-77.5048"/>
<polygon fill="midnightblue" stroke="midnightblue" points="267.917,-80.7661 276.377,-74.3884 265.786,-74.0982 267.917,-80.7661"/>
</g>
<!-- Node13 -->
<g id="node13" class="node"><title>Node13</title>
<polygon fill="white" stroke="#bfbfbf" points="65,-56.5 65,-75.5 114,-75.5 114,-56.5 65,-56.5"/>
<text text-anchor="middle" x="89.5" y="-63.5" font-family="Helvetica,sans-Serif" font-size="10.00">stdint.h</text>
</g>
<!-- Node12&#45;&gt;Node13 -->
<g id="edge12" class="edge"><title>Node12&#45;&gt;Node13</title>
<path fill="none" stroke="midnightblue" d="M123.73,-112.083C117.938,-104.455 109.442,-93.2645 102.362,-83.9408"/>
<polygon fill="midnightblue" stroke="midnightblue" points="104.979,-81.5991 96.1443,-75.7511 99.4039,-85.8321 104.979,-81.5991"/>
</g>
<!-- Node14 -->
<g id="node14" class="node"><title>Node14</title>
<g id="a_node14"><a xlink:href="uthash_8h_source.html" target="_top" xlink:title="uthash.h">
<polygon fill="white" stroke="black" points="132.5,-56.5 132.5,-75.5 186.5,-75.5 186.5,-56.5 132.5,-56.5"/>
<text text-anchor="middle" x="159.5" y="-63.5" font-family="Helvetica,sans-Serif" font-size="10.00">uthash.h</text>
</a>
</g>
</g>
<!-- Node12&#45;&gt;Node14 -->
<g id="edge14" class="edge"><title>Node12&#45;&gt;Node14</title>
<path fill="none" stroke="midnightblue" d="M135.289,-112.083C139.258,-104.691 145.025,-93.9533 149.935,-84.8111"/>
<polygon fill="midnightblue" stroke="midnightblue" points="153.153,-86.217 154.8,-75.7511 146.986,-82.9051 153.153,-86.217"/>
</g>
<!-- Node14&#45;&gt;Node3 -->
<g id="edge15" class="edge"><title>Node14&#45;&gt;Node3</title>
<path fill="none" stroke="midnightblue" d="M138.109,-56.4435C115.793,-47.5171 80.5968,-33.4387 55.292,-23.3168"/>
<polygon fill="midnightblue" stroke="midnightblue" points="56.3757,-19.9807 45.7911,-19.5164 53.776,-26.4801 56.3757,-19.9807"/>
</g>
<!-- Node14&#45;&gt;Node4 -->
<g id="edge17" class="edge"><title>Node14&#45;&gt;Node4</title>
<path fill="none" stroke="midnightblue" d="M172.835,-56.324C185.662,-47.979 205.285,-35.2122 220.44,-25.3524"/>
<polygon fill="midnightblue" stroke="midnightblue" points="222.724,-28.0417 229.198,-19.6545 218.907,-22.1742 222.724,-28.0417"/>
</g>
<!-- Node15 -->
<g id="node15" class="node"><title>Node15</title>
<polygon fill="white" stroke="#bfbfbf" points="69.5,-0.5 69.5,-19.5 121.5,-19.5 121.5,-0.5 69.5,-0.5"/>
<text text-anchor="middle" x="95.5" y="-7.5" font-family="Helvetica,sans-Serif" font-size="10.00">stddef.h</text>
</g>
<!-- Node14&#45;&gt;Node15 -->
<g id="edge16" class="edge"><title>Node14&#45;&gt;Node15</title>
<path fill="none" stroke="midnightblue" d="M149.217,-56.324C139.664,-48.2631 125.22,-36.0765 113.716,-26.3695"/>
<polygon fill="midnightblue" stroke="midnightblue" points="115.87,-23.6076 105.97,-19.8339 111.356,-28.9577 115.87,-23.6076"/>
</g>
<!-- Node16 -->
<g id="node16" class="node"><title>Node16</title>
<polygon fill="white" stroke="#bfbfbf" points="140,-0.5 140,-19.5 199,-19.5 199,-0.5 140,-0.5"/>
<text text-anchor="middle" x="169.5" y="-7.5" font-family="Helvetica,sans-Serif" font-size="10.00">inttypes.h</text>
</g>
<!-- Node14&#45;&gt;Node16 -->
<g id="edge18" class="edge"><title>Node14&#45;&gt;Node16</title>
<path fill="none" stroke="midnightblue" d="M161.151,-56.083C162.476,-48.9272 164.382,-38.6353 166.039,-29.6911"/>
<polygon fill="midnightblue" stroke="midnightblue" points="169.5,-30.2212 167.879,-19.7511 162.617,-28.9466 169.5,-30.2212"/>
</g>
<!-- Node18&#45;&gt;Node6 -->
<g id="edge24" class="edge"><title>Node18&#45;&gt;Node6</title>
<path fill="none" stroke="midnightblue" d="M299.5,-112.083C299.5,-105.006 299.5,-94.8611 299.5,-85.9865"/>
<polygon fill="midnightblue" stroke="midnightblue" points="303,-85.751 299.5,-75.7511 296,-85.7511 303,-85.751"/>
</g>
</g>
</svg>
        <g id="navigator" transform="translate(0 0)" fill="#404254">
                <rect fill="#f2f5e9" fill-opacity="0.5" stroke="#606060" stroke-width=".5" x="0" y="0" width="60" height="60"/>
                <use id="zoomplus" xlink:href="#zoomPlus" x="17" y="9" onmousedown="handleZoom(evt,'in')"/>
                <use id="zoomminus" xlink:href="#zoomMin" x="42" y="9" onmousedown="handleZoom(evt,'out')"/>
                <use id="reset" xlink:href="#resetDef" x="30" y="36" onmousedown="handleReset()"/>
                <g id="arrowUp" xlink:href="#dirArrow" transform="translate(30 24)" onmousedown="handlePan(0,-1)">
                  <use xlink:href="#rim" fill="#404040">
                        <set attributeName="fill" to="#808080" begin="arrowUp.mouseover" end="arrowUp.mouseout"/>
                  </use>
                  <path fill="none" stroke="white" stroke-width="1.5" d="M0,-3.0v7 M-2.5,-0.5L0,-3.0L2.5,-0.5"/>
                </g>
                <g id="arrowRight" xlink:href="#dirArrow" transform="rotate(90) translate(36 -43)" onmousedown="handlePan(1,0)">
                  <use xlink:href="#rim" fill="#404040">
                        <set attributeName="fill" to="#808080" begin="arrowRight.mouseover" end="arrowRight.mouseout"/>
                  </use>
                  <path fill="none" stroke="white" stroke-width="1.5" d="M0,-3.0v7 M-2.5,-0.5L0,-3.0L2.5,-0.5"/>
                </g>
                <g id="arrowDown" xlink:href="#dirArrow" transform="rotate(180) translate(-30 -48)" onmousedown="handlePan(0,1)">
                  <use xlink:href="#rim" fill="#404040">
                        <set attributeName="fill" to="#808080" begin="arrowDown.mouseover" end="arrowDown.mouseout"/>
                  </use>
                  <path fill="none" stroke="white" stroke-width="1.5" d="M0,-3.0v7 M-2.5,-0.5L0,-3.0L2.5,-0.5"/>
                </g>
                <g id="arrowLeft" xlink:href="#dirArrow" transform="rotate(270) translate(-36 17)" onmousedown="handlePan(-1,0)">
                  <use xlink:href="#rim" fill="#404040">
                        <set attributeName="fill" to="#808080" begin="arrowLeft.mouseover" end="arrowLeft.mouseout"/>
                  </use>
                  <path fill="none" stroke="white" stroke-width="1.5" d="M0,-3.0v7 M-2.5,-0.5L0,-3.0L2.5,-0.5"/>
                </g>
        </g>
        <svg viewBox="0 0 15 15" width="100%" height="30px" preserveAspectRatio="xMaxYMin meet">
         <g id="arrow_out" transform="scale(0.3 0.3)">
          <a xlink:href="def_8h__incl_org.svg" target="_base">
           <rect id="button" ry="5" rx="5" y="6" x="6" height="38" width="38"
                fill="#f2f5e9" fill-opacity="0.5" stroke="#606060" stroke-width="1.0"/>
           <path id="arrow"
             d="M 11.500037,31.436501 C 11.940474,20.09759 22.043105,11.32322 32.158766,21.979434 L 37.068811,17.246167 C 37.068811,17.246167 37.088388,32 37.088388,32 L 22.160133,31.978069 C 22.160133,31.978069 26.997745,27.140456 26.997745,27.140456 C 18.528582,18.264221 13.291696,25.230495 11.500037,31.436501 z"
             style="fill:#404040;"/>
          </a>
         </g>
        </svg>
</svg>
