<?xml version="1.0" encoding="UTF-8" standalone="no"?>
<!DOCTYPE svg PUBLIC "-//W3C//DTD SVG 1.1//EN"
 "http://www.w3.org/Graphics/SVG/1.1/DTD/svg11.dtd">
<!-- Generated by graphviz version 2.38.0 (20140413.2041)
 -->
<!-- Title: spec/def_spec.h Pages: 1 -->
<svg width="867pt" height="420pt"
 viewBox="0.00 0.00 867.00 420.00" xmlns="http://www.w3.org/2000/svg" xmlns:xlink="http://www.w3.org/1999/xlink">
<g id="graph0" class="graph" transform="scale(1 1) rotate(0) translate(4 416)">
<title>spec/def_spec.h</title>
<polygon fill="white" stroke="none" points="-4,4 -4,-416 863,-416 863,4 -4,4"/>
<!-- Node1 -->
<g id="node1" class="node"><title>Node1</title>
<polygon fill="#bfbfbf" stroke="black" points="456.5,-392.5 456.5,-411.5 545.5,-411.5 545.5,-392.5 456.5,-392.5"/>
<text text-anchor="middle" x="501" y="-399.5" font-family="Helvetica,sans-Serif" font-size="10.00">spec/def_spec.h</text>
</g>
<!-- Node2 -->
<g id="node2" class="node"><title>Node2</title>
<g id="a_node2"><a xlink:href="ceptr_8h_source.html" target="_top" xlink:title="../src/ceptr.h">
<polygon fill="white" stroke="black" points="465,-336.5 465,-355.5 537,-355.5 537,-336.5 465,-336.5"/>
<text text-anchor="middle" x="501" y="-343.5" font-family="Helvetica,sans-Serif" font-size="10.00">../src/ceptr.h</text>
</a>
</g>
</g>
<!-- Node1&#45;&gt;Node2 -->
<g id="edge1" class="edge"><title>Node1&#45;&gt;Node2</title>
<path fill="none" stroke="midnightblue" d="M501,-392.083C501,-385.006 501,-374.861 501,-365.986"/>
<polygon fill="midnightblue" stroke="midnightblue" points="504.5,-365.751 501,-355.751 497.5,-365.751 504.5,-365.751"/>
</g>
<!-- Node26 -->
<g id="node26" class="node"><title>Node26</title>
<g id="a_node26"><a xlink:href="def_8h.html" target="_top" xlink:title="header file for symbol and structure definition functions ">
<polygon fill="white" stroke="black" points="555,-336.5 555,-355.5 619,-355.5 619,-336.5 555,-336.5"/>
<text text-anchor="middle" x="587" y="-343.5" font-family="Helvetica,sans-Serif" font-size="10.00">../src/def.h</text>
</a>
</g>
</g>
<!-- Node1&#45;&gt;Node26 -->
<g id="edge44" class="edge"><title>Node1&#45;&gt;Node26</title>
<path fill="none" stroke="midnightblue" d="M514.817,-392.324C528.233,-383.9 548.824,-370.971 564.586,-361.074"/>
<polygon fill="midnightblue" stroke="midnightblue" points="566.609,-363.936 573.217,-355.655 562.887,-358.008 566.609,-363.936"/>
</g>
<!-- Node28 -->
<g id="node28" class="node"><title>Node28</title>
<g id="a_node28"><a xlink:href="semtrex_8h.html" target="_top" xlink:title="Semantic tree regular expression header file. ">
<polygon fill="white" stroke="black" points="357,-336.5 357,-355.5 443,-355.5 443,-336.5 357,-336.5"/>
<text text-anchor="middle" x="400" y="-343.5" font-family="Helvetica,sans-Serif" font-size="10.00">../src/semtrex.h</text>
</a>
</g>
</g>
<!-- Node1&#45;&gt;Node28 -->
<g id="edge47" class="edge"><title>Node1&#45;&gt;Node28</title>
<path fill="none" stroke="midnightblue" d="M484.773,-392.324C468.649,-383.703 443.7,-370.364 425.036,-360.386"/>
<polygon fill="midnightblue" stroke="midnightblue" points="426.656,-357.283 416.187,-355.655 423.356,-363.456 426.656,-357.283"/>
</g>
<!-- Node3 -->
<g id="node3" class="node"><title>Node3</title>
<polygon fill="white" stroke="#bfbfbf" points="353.5,-0.5 353.5,-19.5 402.5,-19.5 402.5,-0.5 353.5,-0.5"/>
<text text-anchor="middle" x="378" y="-7.5" font-family="Helvetica,sans-Serif" font-size="10.00">string.h</text>
</g>
<!-- Node2&#45;&gt;Node3 -->
<g id="edge2" class="edge"><title>Node2&#45;&gt;Node3</title>
<path fill="none" stroke="midnightblue" d="M537.046,-337.839C570.861,-330.49 622.453,-317.639 665,-300 718.878,-277.664 779,-293.324 779,-235 779,-235 779,-235 779,-121 779,-90.9022 782.984,-75.4318 760,-56 708.04,-12.071 496.743,-9.56475 412.709,-10.37"/>
<polygon fill="midnightblue" stroke="midnightblue" points="412.605,-6.87083 402.647,-10.4885 412.688,-13.8703 412.605,-6.87083"/>
</g>
<!-- Node4 -->
<g id="node4" class="node"><title>Node4</title>
<polygon fill="white" stroke="#bfbfbf" points="508,-56.5 508,-75.5 554,-75.5 554,-56.5 508,-56.5"/>
<text text-anchor="middle" x="531" y="-63.5" font-family="Helvetica,sans-Serif" font-size="10.00">stdio.h</text>
</g>
<!-- Node2&#45;&gt;Node4 -->
<g id="edge3" class="edge"><title>Node2&#45;&gt;Node4</title>
<path fill="none" stroke="midnightblue" d="M506.673,-336.282C517.317,-319.344 539.935,-280.445 548,-244 560.589,-187.109 545.373,-117.892 536.51,-85.4501"/>
<polygon fill="midnightblue" stroke="midnightblue" points="539.806,-84.2448 533.696,-75.5893 533.074,-86.1659 539.806,-84.2448"/>
</g>
<!-- Node5 -->
<g id="node5" class="node"><title>Node5</title>
<polygon fill="white" stroke="#bfbfbf" points="20,-0.5 20,-19.5 68,-19.5 68,-0.5 20,-0.5"/>
<text text-anchor="middle" x="44" y="-7.5" font-family="Helvetica,sans-Serif" font-size="10.00">stdlib.h</text>
</g>
<!-- Node2&#45;&gt;Node5 -->
<g id="edge4" class="edge"><title>Node2&#45;&gt;Node5</title>
<path fill="none" stroke="midnightblue" d="M464.969,-338.051C350.095,-315.775 0,-246.911 0,-235 0,-235 0,-235 0,-121 0,-86.0403 19.3959,-49.013 32.4323,-28.0745"/>
<polygon fill="midnightblue" stroke="midnightblue" points="35.3884,-29.9487 37.882,-19.6515 29.5112,-26.1462 35.3884,-29.9487"/>
</g>
<!-- Node6 -->
<g id="node6" class="node"><title>Node6</title>
<g id="a_node6"><a xlink:href="ceptr__error_8h_source.html" target="_top" xlink:title="ceptr_error.h">
<polygon fill="white" stroke="black" points="318.5,-168.5 318.5,-187.5 389.5,-187.5 389.5,-168.5 318.5,-168.5"/>
<text text-anchor="middle" x="354" y="-175.5" font-family="Helvetica,sans-Serif" font-size="10.00">ceptr_error.h</text>
</a>
</g>
</g>
<!-- Node2&#45;&gt;Node6 -->
<g id="edge5" class="edge"><title>Node2&#45;&gt;Node6</title>
<path fill="none" stroke="midnightblue" d="M493.097,-336.075C469.457,-309.38 399.043,-229.865 368.454,-195.322"/>
<polygon fill="midnightblue" stroke="midnightblue" points="370.837,-192.734 361.587,-187.568 365.597,-197.375 370.837,-192.734"/>
</g>
<!-- Node10 -->
<g id="node10" class="node"><title>Node10</title>
<g id="a_node10"><a xlink:href="tree_8h.html" target="_top" xlink:title="semantic trees header file ">
<polygon fill="white" stroke="black" points="370.5,-280.5 370.5,-299.5 411.5,-299.5 411.5,-280.5 370.5,-280.5"/>
<text text-anchor="middle" x="391" y="-287.5" font-family="Helvetica,sans-Serif" font-size="10.00">tree.h</text>
</a>
</g>
</g>
<!-- Node2&#45;&gt;Node10 -->
<g id="edge10" class="edge"><title>Node2&#45;&gt;Node10</title>
<path fill="none" stroke="midnightblue" d="M483.327,-336.324C465.606,-327.625 438.097,-314.12 417.712,-304.113"/>
<polygon fill="midnightblue" stroke="midnightblue" points="419.149,-300.919 408.63,-299.655 416.064,-307.203 419.149,-300.919"/>
</g>
<!-- Node19 -->
<g id="node19" class="node"><title>Node19</title>
<g id="a_node19"><a xlink:href="stream_8h.html" target="_top" xlink:title="streams abstraction header file ">
<polygon fill="white" stroke="black" points="484.5,-224.5 484.5,-243.5 539.5,-243.5 539.5,-224.5 484.5,-224.5"/>
<text text-anchor="middle" x="512" y="-231.5" font-family="Helvetica,sans-Serif" font-size="10.00">stream.h</text>
</a>
</g>
</g>
<!-- Node2&#45;&gt;Node19 -->
<g id="edge36" class="edge"><title>Node2&#45;&gt;Node19</title>
<path fill="none" stroke="midnightblue" d="M501.863,-336.368C503.638,-318.617 507.733,-277.666 510.14,-253.597"/>
<polygon fill="midnightblue" stroke="midnightblue" points="513.628,-253.89 511.141,-243.591 506.663,-253.193 513.628,-253.89"/>
</g>
<!-- Node21 -->
<g id="node21" class="node"><title>Node21</title>
<g id="a_node21"><a xlink:href="mtree_8h.html" target="_top" xlink:title="semantic tree matrix header file `` ">
<polygon fill="white" stroke="black" points="127,-224.5 127,-243.5 177,-243.5 177,-224.5 127,-224.5"/>
<text text-anchor="middle" x="152" y="-231.5" font-family="Helvetica,sans-Serif" font-size="10.00">mtree.h</text>
</a>
</g>
</g>
<!-- Node2&#45;&gt;Node21 -->
<g id="edge30" class="edge"><title>Node2&#45;&gt;Node21</title>
<path fill="none" stroke="midnightblue" d="M473.905,-336.46C411.32,-316.734 256.747,-268.015 187.063,-246.051"/>
<polygon fill="midnightblue" stroke="midnightblue" points="188.009,-242.68 177.419,-243.012 185.904,-249.356 188.009,-242.68"/>
</g>
<!-- Node22 -->
<g id="node22" class="node"><title>Node22</title>
<g id="a_node22"><a xlink:href="util_8h.html" target="_top" xlink:title="util.h">
<polygon fill="white" stroke="black" points="645,-112.5 645,-131.5 683,-131.5 683,-112.5 645,-112.5"/>
<text text-anchor="middle" x="664" y="-119.5" font-family="Helvetica,sans-Serif" font-size="10.00">util.h</text>
</a>
</g>
</g>
<!-- Node2&#45;&gt;Node22 -->
<g id="edge37" class="edge"><title>Node2&#45;&gt;Node22</title>
<path fill="none" stroke="midnightblue" d="M534.786,-336.434C574.777,-325.982 636.883,-308.637 644,-300 681.976,-253.915 674.04,-176.646 667.849,-141.458"/>
<polygon fill="midnightblue" stroke="midnightblue" points="671.28,-140.768 665.96,-131.605 664.405,-142.085 671.28,-140.768"/>
</g>
<!-- Node25 -->
<g id="node25" class="node"><title>Node25</title>
<g id="a_node25"><a xlink:href="debug_8h.html" target="_top" xlink:title="debug.h">
<polygon fill="white" stroke="black" points="584.5,-280.5 584.5,-299.5 635.5,-299.5 635.5,-280.5 584.5,-280.5"/>
<text text-anchor="middle" x="610" y="-287.5" font-family="Helvetica,sans-Serif" font-size="10.00">debug.h</text>
</a>
</g>
</g>
<!-- Node2&#45;&gt;Node25 -->
<g id="edge42" class="edge"><title>Node2&#45;&gt;Node25</title>
<path fill="none" stroke="midnightblue" d="M518.513,-336.324C536.072,-327.625 563.331,-314.12 583.531,-304.113"/>
<polygon fill="midnightblue" stroke="midnightblue" points="585.124,-307.23 592.531,-299.655 582.016,-300.958 585.124,-307.23"/>
</g>
<!-- Node6&#45;&gt;Node4 -->
<g id="edge6" class="edge"><title>Node6&#45;&gt;Node4</title>
<path fill="none" stroke="midnightblue" d="M371.154,-168.39C388.154,-159.697 414.794,-145.642 437,-132 463.296,-115.845 492.34,-95.3248 511.085,-81.7082"/>
<polygon fill="midnightblue" stroke="midnightblue" points="513.395,-84.3548 519.402,-75.6276 509.264,-78.7039 513.395,-84.3548"/>
</g>
<!-- Node7 -->
<g id="node7" class="node"><title>Node7</title>
<polygon fill="white" stroke="#bfbfbf" points="378,-112.5 378,-131.5 428,-131.5 428,-112.5 378,-112.5"/>
<text text-anchor="middle" x="403" y="-119.5" font-family="Helvetica,sans-Serif" font-size="10.00">signal.h</text>
</g>
<!-- Node6&#45;&gt;Node7 -->
<g id="edge7" class="edge"><title>Node6&#45;&gt;Node7</title>
<path fill="none" stroke="midnightblue" d="M362.091,-168.083C369.155,-160.298 379.588,-148.801 388.149,-139.367"/>
<polygon fill="midnightblue" stroke="midnightblue" points="390.931,-141.509 395.059,-131.751 385.747,-136.805 390.931,-141.509"/>
</g>
<!-- Node8 -->
<g id="node8" class="node"><title>Node8</title>
<polygon fill="white" stroke="#bfbfbf" points="236,-112.5 236,-131.5 288,-131.5 288,-112.5 236,-112.5"/>
<text text-anchor="middle" x="262" y="-119.5" font-family="Helvetica,sans-Serif" font-size="10.00">assert.h</text>
</g>
<!-- Node6&#45;&gt;Node8 -->
<g id="edge8" class="edge"><title>Node6&#45;&gt;Node8</title>
<path fill="none" stroke="midnightblue" d="M339.219,-168.324C324.733,-159.822 302.427,-146.729 285.507,-136.797"/>
<polygon fill="midnightblue" stroke="midnightblue" points="287.141,-133.698 276.745,-131.655 283.597,-139.735 287.141,-133.698"/>
</g>
<!-- Node9 -->
<g id="node9" class="node"><title>Node9</title>
<polygon fill="white" stroke="#bfbfbf" points="306,-112.5 306,-131.5 360,-131.5 360,-112.5 306,-112.5"/>
<text text-anchor="middle" x="333" y="-119.5" font-family="Helvetica,sans-Serif" font-size="10.00">setjmp.h</text>
</g>
<!-- Node6&#45;&gt;Node9 -->
<g id="edge9" class="edge"><title>Node6&#45;&gt;Node9</title>
<path fill="none" stroke="midnightblue" d="M350.532,-168.083C347.688,-160.77 343.571,-150.181 340.04,-141.103"/>
<polygon fill="midnightblue" stroke="midnightblue" points="343.29,-139.803 336.403,-131.751 336.766,-142.34 343.29,-139.803"/>
</g>
<!-- Node10&#45;&gt;Node3 -->
<g id="edge11" class="edge"><title>Node10&#45;&gt;Node3</title>
<path fill="none" stroke="midnightblue" d="M394.504,-280.243C406.69,-249.31 446.001,-145.252 437,-112 428.206,-79.5098 406.066,-46.7521 391.549,-27.6934"/>
<polygon fill="midnightblue" stroke="midnightblue" points="394.23,-25.4398 385.309,-19.7246 388.719,-29.7557 394.23,-25.4398"/>
</g>
<!-- Node10&#45;&gt;Node5 -->
<g id="edge12" class="edge"><title>Node10&#45;&gt;Node5</title>
<path fill="none" stroke="midnightblue" d="M370.454,-289.145C323.542,-288.74 205.829,-283.522 118,-244 76.2226,-225.201 38,-224.812 38,-179 38,-179 38,-179 38,-121 38,-88.9004 40.5789,-51.6098 42.3553,-29.7319"/>
<polygon fill="midnightblue" stroke="midnightblue" points="45.8612,-29.8083 43.2156,-19.5491 38.886,-29.2189 45.8612,-29.8083"/>
</g>
<!-- Node10&#45;&gt;Node6 -->
<g id="edge13" class="edge"><title>Node10&#45;&gt;Node6</title>
<path fill="none" stroke="midnightblue" d="M388.097,-280.368C382.099,-262.537 368.227,-221.295 360.146,-197.272"/>
<polygon fill="midnightblue" stroke="midnightblue" points="363.395,-195.954 356.89,-187.591 356.761,-198.185 363.395,-195.954"/>
</g>
<!-- Node11 -->
<g id="node11" class="node"><title>Node11</title>
<g id="a_node11"><a xlink:href="sys__defs_8h.html" target="_top" xlink:title="Defines types and vars for system defined semantics. ">
<polygon fill="white" stroke="black" points="180.5,-168.5 180.5,-187.5 245.5,-187.5 245.5,-168.5 180.5,-168.5"/>
<text text-anchor="middle" x="213" y="-175.5" font-family="Helvetica,sans-Serif" font-size="10.00">sys_defs.h</text>
</a>
</g>
</g>
<!-- Node10&#45;&gt;Node11 -->
<g id="edge14" class="edge"><title>Node10&#45;&gt;Node11</title>
<path fill="none" stroke="midnightblue" d="M370.427,-286.243C330.279,-280.435 243.689,-265.667 224,-244 212.825,-231.702 210.787,-212.447 211.117,-198.081"/>
<polygon fill="midnightblue" stroke="midnightblue" points="214.627,-198.034 211.76,-187.834 207.641,-197.595 214.627,-198.034"/>
</g>
<!-- Node12 -->
<g id="node12" class="node"><title>Node12</title>
<g id="a_node12"><a xlink:href="ceptr__types_8h_source.html" target="_top" xlink:title="ceptr_types.h">
<polygon fill="white" stroke="black" points="142,-112.5 142,-131.5 218,-131.5 218,-112.5 142,-112.5"/>
<text text-anchor="middle" x="180" y="-119.5" font-family="Helvetica,sans-Serif" font-size="10.00">ceptr_types.h</text>
</a>
</g>
</g>
<!-- Node10&#45;&gt;Node12 -->
<g id="edge26" class="edge"><title>Node10&#45;&gt;Node12</title>
<path fill="none" stroke="midnightblue" d="M382.173,-280.195C361.072,-259.376 305.61,-206.019 254,-168 238.31,-156.441 219.539,-145.052 204.828,-136.623"/>
<polygon fill="midnightblue" stroke="midnightblue" points="206.25,-133.407 195.821,-131.54 202.81,-139.503 206.25,-133.407"/>
</g>
<!-- Node18 -->
<g id="node18" class="node"><title>Node18</title>
<g id="a_node18"><a xlink:href="base__defs_8h.html" target="_top" xlink:title="auto&#45;generated system definitions ">
<polygon fill="white" stroke="black" points="233,-224.5 233,-243.5 303,-243.5 303,-224.5 233,-224.5"/>
<text text-anchor="middle" x="268" y="-231.5" font-family="Helvetica,sans-Serif" font-size="10.00">base_defs.h</text>
</a>
</g>
</g>
<!-- Node10&#45;&gt;Node18 -->
<g id="edge24" class="edge"><title>Node10&#45;&gt;Node18</title>
<path fill="none" stroke="midnightblue" d="M371.51,-280.444C351.358,-271.596 319.677,-257.687 296.669,-247.586"/>
<polygon fill="midnightblue" stroke="midnightblue" points="297.962,-244.332 287.399,-243.516 295.148,-250.741 297.962,-244.332"/>
</g>
<!-- Node10&#45;&gt;Node19 -->
<g id="edge27" class="edge"><title>Node10&#45;&gt;Node19</title>
<path fill="none" stroke="midnightblue" d="M410.173,-280.444C429.909,-271.636 460.885,-257.812 483.493,-247.722"/>
<polygon fill="midnightblue" stroke="midnightblue" points="485.211,-250.788 492.917,-243.516 482.359,-244.396 485.211,-250.788"/>
</g>
<!-- Node11&#45;&gt;Node12 -->
<g id="edge15" class="edge"><title>Node11&#45;&gt;Node12</title>
<path fill="none" stroke="midnightblue" d="M207.551,-168.083C202.986,-160.613 196.332,-149.724 190.707,-140.52"/>
<polygon fill="midnightblue" stroke="midnightblue" points="193.549,-138.459 185.348,-131.751 187.576,-142.109 193.549,-138.459"/>
</g>
<!-- Node12&#45;&gt;Node4 -->
<g id="edge17" class="edge"><title>Node12&#45;&gt;Node4</title>
<path fill="none" stroke="midnightblue" d="M218.195,-113.546C221.172,-113.008 224.133,-112.486 227,-112 325.091,-95.3559 441.586,-79.082 497.622,-71.4709"/>
<polygon fill="midnightblue" stroke="midnightblue" points="498.242,-74.919 507.682,-70.1094 497.303,-67.9822 498.242,-74.919"/>
</g>
<!-- Node13 -->
<g id="node13" class="node"><title>Node13</title>
<polygon fill="white" stroke="#bfbfbf" points="572.5,-56.5 572.5,-75.5 621.5,-75.5 621.5,-56.5 572.5,-56.5"/>
<text text-anchor="middle" x="597" y="-63.5" font-family="Helvetica,sans-Serif" font-size="10.00">stdint.h</text>
</g>
<!-- Node12&#45;&gt;Node13 -->
<g id="edge16" class="edge"><title>Node12&#45;&gt;Node13</title>
<path fill="none" stroke="midnightblue" d="M218.175,-113.417C221.156,-112.908 224.124,-112.429 227,-112 372.355,-90.3338 413.554,-102.734 562.263,-75.8544"/>
<polygon fill="midnightblue" stroke="midnightblue" points="563.013,-79.2753 572.216,-74.0263 561.749,-72.3905 563.013,-79.2753"/>
</g>
<!-- Node14 -->
<g id="node14" class="node"><title>Node14</title>
<g id="a_node14"><a xlink:href="uthash_8h_source.html" target="_top" xlink:title="uthash.h">
<polygon fill="white" stroke="black" points="104,-56.5 104,-75.5 158,-75.5 158,-56.5 104,-56.5"/>
<text text-anchor="middle" x="131" y="-63.5" font-family="Helvetica,sans-Serif" font-size="10.00">uthash.h</text>
</a>
</g>
</g>
<!-- Node12&#45;&gt;Node14 -->
<g id="edge18" class="edge"><title>Node12&#45;&gt;Node14</title>
<path fill="none" stroke="midnightblue" d="M171.909,-112.083C164.845,-104.298 154.412,-92.8015 145.851,-83.3665"/>
<polygon fill="midnightblue" stroke="midnightblue" points="148.253,-80.8047 138.941,-75.7511 143.069,-85.5087 148.253,-80.8047"/>
</g>
<!-- Node17 -->
<g id="node17" class="node"><title>Node17</title>
<polygon fill="white" stroke="#bfbfbf" points="214,-56.5 214,-75.5 270,-75.5 270,-56.5 214,-56.5"/>
<text text-anchor="middle" x="242" y="-63.5" font-family="Helvetica,sans-Serif" font-size="10.00">stdbool.h</text>
</g>
<!-- Node12&#45;&gt;Node17 -->
<g id="edge23" class="edge"><title>Node12&#45;&gt;Node17</title>
<path fill="none" stroke="midnightblue" d="M189.961,-112.324C199.127,-104.341 212.937,-92.3128 224.028,-82.6529"/>
<polygon fill="midnightblue" stroke="midnightblue" points="226.615,-85.041 231.857,-75.8339 222.018,-79.7624 226.615,-85.041"/>
</g>
<!-- Node14&#45;&gt;Node3 -->
<g id="edge19" class="edge"><title>Node14&#45;&gt;Node3</title>
<path fill="none" stroke="midnightblue" d="M158.346,-58.9931C162.906,-57.9928 167.586,-56.9665 172,-56 232.2,-42.8174 302.307,-27.5128 343.259,-18.5778"/>
<polygon fill="midnightblue" stroke="midnightblue" points="344.241,-21.946 353.265,-16.3948 342.749,-15.1069 344.241,-21.946"/>
</g>
<!-- Node14&#45;&gt;Node5 -->
<g id="edge21" class="edge"><title>Node14&#45;&gt;Node5</title>
<path fill="none" stroke="midnightblue" d="M117.022,-56.324C103.45,-47.9002 82.6198,-34.9709 66.675,-25.0741"/>
<polygon fill="midnightblue" stroke="midnightblue" points="68.2856,-21.9544 57.9434,-19.6545 64.594,-27.9019 68.2856,-21.9544"/>
</g>
<!-- Node15 -->
<g id="node15" class="node"><title>Node15</title>
<polygon fill="white" stroke="#bfbfbf" points="98,-0.5 98,-19.5 150,-19.5 150,-0.5 98,-0.5"/>
<text text-anchor="middle" x="124" y="-7.5" font-family="Helvetica,sans-Serif" font-size="10.00">stddef.h</text>
</g>
<!-- Node14&#45;&gt;Node15 -->
<g id="edge20" class="edge"><title>Node14&#45;&gt;Node15</title>
<path fill="none" stroke="midnightblue" d="M129.844,-56.083C128.916,-48.9272 127.582,-38.6353 126.423,-29.6911"/>
<polygon fill="midnightblue" stroke="midnightblue" points="129.891,-29.2181 125.134,-19.7511 122.949,-30.1181 129.891,-29.2181"/>
</g>
<!-- Node16 -->
<g id="node16" class="node"><title>Node16</title>
<polygon fill="white" stroke="#bfbfbf" points="168.5,-0.5 168.5,-19.5 227.5,-19.5 227.5,-0.5 168.5,-0.5"/>
<text text-anchor="middle" x="198" y="-7.5" font-family="Helvetica,sans-Serif" font-size="10.00">inttypes.h</text>
</g>
<!-- Node14&#45;&gt;Node16 -->
<g id="edge22" class="edge"><title>Node14&#45;&gt;Node16</title>
<path fill="none" stroke="midnightblue" d="M141.765,-56.324C151.766,-48.2631 166.887,-36.0765 178.93,-26.3695"/>
<polygon fill="midnightblue" stroke="midnightblue" points="181.45,-28.8343 187.039,-19.8339 177.057,-23.3841 181.45,-28.8343"/>
</g>
<!-- Node18&#45;&gt;Node11 -->
<g id="edge25" class="edge"><title>Node18&#45;&gt;Node11</title>
<path fill="none" stroke="midnightblue" d="M258.918,-224.083C250.829,-216.141 238.805,-204.335 229.09,-194.797"/>
<polygon fill="midnightblue" stroke="midnightblue" points="231.501,-192.26 221.913,-187.751 226.597,-197.254 231.501,-192.26"/>
</g>
<!-- Node19&#45;&gt;Node4 -->
<g id="edge28" class="edge"><title>Node19&#45;&gt;Node4</title>
<path fill="none" stroke="midnightblue" d="M513.022,-224.075C516.012,-197.945 524.795,-121.211 528.874,-85.577"/>
<polygon fill="midnightblue" stroke="midnightblue" points="532.359,-85.9013 530.019,-75.5681 525.405,-85.1052 532.359,-85.9013"/>
</g>
<!-- Node20 -->
<g id="node20" class="node"><title>Node20</title>
<polygon fill="white" stroke="#bfbfbf" points="446.5,-168.5 446.5,-187.5 503.5,-187.5 503.5,-168.5 446.5,-168.5"/>
<text text-anchor="middle" x="475" y="-175.5" font-family="Helvetica,sans-Serif" font-size="10.00">pthread.h</text>
</g>
<!-- Node19&#45;&gt;Node20 -->
<g id="edge29" class="edge"><title>Node19&#45;&gt;Node20</title>
<path fill="none" stroke="midnightblue" d="M505.89,-224.083C500.718,-216.534 493.154,-205.495 486.806,-196.23"/>
<polygon fill="midnightblue" stroke="midnightblue" points="489.536,-194.022 480.996,-187.751 483.761,-197.979 489.536,-194.022"/>
</g>
<!-- Node21&#45;&gt;Node3 -->
<g id="edge31" class="edge"><title>Node21&#45;&gt;Node3</title>
<path fill="none" stroke="midnightblue" d="M147.301,-224.27C136.868,-203.616 114.128,-150.586 133,-112 141.906,-93.7913 186.817,-64.958 205,-56 250.101,-33.7803 307.403,-21.6617 343.401,-15.7581"/>
<polygon fill="midnightblue" stroke="midnightblue" points="344.07,-19.1961 353.407,-14.1878 342.985,-12.2807 344.07,-19.1961"/>
</g>
<!-- Node21&#45;&gt;Node5 -->
<g id="edge32" class="edge"><title>Node21&#45;&gt;Node5</title>
<path fill="none" stroke="midnightblue" d="M138.165,-224.26C126.436,-216.182 109.974,-203.16 100,-188 82.3877,-161.231 58.3507,-69.2633 48.4947,-29.5286"/>
<polygon fill="midnightblue" stroke="midnightblue" points="51.8413,-28.4799 46.059,-19.6021 45.043,-30.1481 51.8413,-28.4799"/>
</g>
<!-- Node21&#45;&gt;Node6 -->
<g id="edge33" class="edge"><title>Node21&#45;&gt;Node6</title>
<path fill="none" stroke="midnightblue" d="M177.175,-226.27C211.007,-217.226 271.588,-201.031 312.287,-190.151"/>
<polygon fill="midnightblue" stroke="midnightblue" points="313.421,-193.471 322.178,-187.507 311.613,-186.708 313.421,-193.471"/>
</g>
<!-- Node21&#45;&gt;Node11 -->
<g id="edge34" class="edge"><title>Node21&#45;&gt;Node11</title>
<path fill="none" stroke="midnightblue" d="M161.801,-224.324C170.818,-216.341 184.406,-204.313 195.318,-194.653"/>
<polygon fill="midnightblue" stroke="midnightblue" points="197.853,-197.083 203.021,-187.834 193.213,-191.842 197.853,-197.083"/>
</g>
<!-- Node21&#45;&gt;Node12 -->
<g id="edge35" class="edge"><title>Node21&#45;&gt;Node12</title>
<path fill="none" stroke="midnightblue" d="M154.197,-224.368C158.716,-206.617 169.139,-165.666 175.266,-141.597"/>
<polygon fill="midnightblue" stroke="midnightblue" points="178.738,-142.146 177.813,-131.591 171.954,-140.419 178.738,-142.146"/>
</g>
<!-- Node22&#45;&gt;Node4 -->
<g id="edge39" class="edge"><title>Node22&#45;&gt;Node4</title>
<path fill="none" stroke="midnightblue" d="M644.944,-113.263C623.162,-104.419 587.209,-89.8218 561.514,-79.3891"/>
<polygon fill="midnightblue" stroke="midnightblue" points="562.801,-76.1343 552.219,-75.6152 560.168,-82.6201 562.801,-76.1343"/>
</g>
<!-- Node22&#45;&gt;Node13 -->
<g id="edge41" class="edge"><title>Node22&#45;&gt;Node13</title>
<path fill="none" stroke="midnightblue" d="M653.235,-112.324C643.234,-104.263 628.113,-92.0765 616.07,-82.3695"/>
<polygon fill="midnightblue" stroke="midnightblue" points="617.943,-79.3841 607.961,-75.8339 613.55,-84.8343 617.943,-79.3841"/>
</g>
<!-- Node23 -->
<g id="node23" class="node"><title>Node23</title>
<polygon fill="white" stroke="#bfbfbf" points="639.5,-56.5 639.5,-75.5 688.5,-75.5 688.5,-56.5 639.5,-56.5"/>
<text text-anchor="middle" x="664" y="-63.5" font-family="Helvetica,sans-Serif" font-size="10.00">ctype.h</text>
</g>
<!-- Node22&#45;&gt;Node23 -->
<g id="edge38" class="edge"><title>Node22&#45;&gt;Node23</title>
<path fill="none" stroke="midnightblue" d="M664,-112.083C664,-105.006 664,-94.8611 664,-85.9865"/>
<polygon fill="midnightblue" stroke="midnightblue" points="667.5,-85.751 664,-75.7511 660.5,-85.7511 667.5,-85.751"/>
</g>
<!-- Node24 -->
<g id="node24" class="node"><title>Node24</title>
<polygon fill="white" stroke="#bfbfbf" points="707,-56.5 707,-75.5 751,-75.5 751,-56.5 707,-56.5"/>
<text text-anchor="middle" x="729" y="-63.5" font-family="Helvetica,sans-Serif" font-size="10.00">time.h</text>
</g>
<!-- Node22&#45;&gt;Node24 -->
<g id="edge40" class="edge"><title>Node22&#45;&gt;Node24</title>
<path fill="none" stroke="midnightblue" d="M674.443,-112.324C684.146,-104.263 698.815,-92.0765 710.5,-82.3695"/>
<polygon fill="midnightblue" stroke="midnightblue" points="712.911,-84.9163 718.367,-75.8339 708.438,-79.532 712.911,-84.9163"/>
</g>
<!-- Node25&#45;&gt;Node4 -->
<g id="edge43" class="edge"><title>Node25&#45;&gt;Node4</title>
<path fill="none" stroke="midnightblue" d="M610.79,-280.214C612.808,-253.179 615.934,-169.583 584,-112 577.14,-99.6296 565.454,-89.155 554.799,-81.4328"/>
<polygon fill="midnightblue" stroke="midnightblue" points="556.459,-78.3299 546.219,-75.6122 552.529,-84.1227 556.459,-78.3299"/>
</g>
<!-- Node26&#45;&gt;Node10 -->
<g id="edge45" class="edge"><title>Node26&#45;&gt;Node10</title>
<path fill="none" stroke="midnightblue" d="M555.943,-336.444C519.2,-326.32 458.406,-309.571 421.783,-299.481"/>
<polygon fill="midnightblue" stroke="midnightblue" points="422.261,-295.982 411.69,-296.7 420.401,-302.731 422.261,-295.982"/>
</g>
<!-- Node27 -->
<g id="node27" class="node"><title>Node27</title>
<polygon fill="white" stroke="#bfbfbf" points="807,-280.5 807,-299.5 859,-299.5 859,-280.5 807,-280.5"/>
<text text-anchor="middle" x="833" y="-287.5" font-family="Helvetica,sans-Serif" font-size="10.00">stdarg.h</text>
</g>
<!-- Node26&#45;&gt;Node27 -->
<g id="edge46" class="edge"><title>Node26&#45;&gt;Node27</title>
<path fill="none" stroke="midnightblue" d="M619.127,-338.047C659.668,-329.258 731.528,-313.63 793,-300 794.251,-299.723 795.524,-299.44 796.809,-299.154"/>
<polygon fill="midnightblue" stroke="midnightblue" points="797.76,-302.527 806.755,-296.93 796.232,-295.696 797.76,-302.527"/>
</g>
<!-- Node28&#45;&gt;Node10 -->
<g id="edge48" class="edge"><title>Node28&#45;&gt;Node10</title>
<path fill="none" stroke="midnightblue" d="M398.514,-336.083C397.321,-328.927 395.606,-318.635 394.115,-309.691"/>
<polygon fill="midnightblue" stroke="midnightblue" points="397.555,-309.04 392.459,-299.751 390.65,-310.19 397.555,-309.04"/>
</g>
</g>
</svg>
