<?xml version="1.0" encoding="UTF-8" standalone="no"?>
<!DOCTYPE svg PUBLIC "-//W3C//DTD SVG 1.1//EN"
 "http://www.w3.org/Graphics/SVG/1.1/DTD/svg11.dtd">
<!-- Generated by graphviz version 2.38.0 (20140413.2041)
 -->
<!-- Title: spec/def_spec.h Pages: 1 -->
<!--zoomable 420 -->
<svg id="main" version="1.1" xmlns="http://www.w3.org/2000/svg" xmlns:xlink="http://www.w3.org/1999/xlink" xml:space="preserve" onload="init(evt)">
<style type="text/css"><![CDATA[
.edge:hover path { stroke: red; }
.edge:hover polygon { stroke: red; fill: red; }
]]></style>
<script type="text/javascript"><![CDATA[
var edges = document.getElementsByTagName('g');
if (edges && edges.length) {
  for (var i=0;i<edges.length;i++) {
    if (edges[i].id.substr(0,4)=='edge') {
      edges[i].setAttribute('class','edge');
    }
  }
}
]]></script>
        <defs>
                <circle id="rim" cx="0" cy="0" r="7"/>
                <circle id="rim2" cx="0" cy="0" r="3.5"/>
                <g id="zoomPlus">
                        <use xlink:href="#rim" fill="#404040">
                                <set attributeName="fill" to="#808080" begin="zoomplus.mouseover" end="zoomplus.mouseout"/>
                        </use>
                        <path d="M-4,0h8M0,-4v8" fill="none" stroke="white" stroke-width="1.5" pointer-events="none"/>
                </g>
                <g id="zoomMin">
                        <use xlink:href="#rim" fill="#404040">
                                <set attributeName="fill" to="#808080" begin="zoomminus.mouseover" end="zoomminus.mouseout"/>
                        </use>
                        <path d="M-4,0h8" fill="none" stroke="white" stroke-width="1.5" pointer-events="none"/>
                </g>
                <g id="dirArrow">
                        <path fill="none" stroke="white" stroke-width="1.5" d="M0,-3.0v7 M-2.5,-0.5L0,-3.0L2.5,-0.5"/>
                </g>
               <g id="resetDef">
                       <use xlink:href="#rim2" fill="#404040">
                               <set attributeName="fill" to="#808080" begin="reset.mouseover" end="reset.mouseout"/>
                       </use>
               </g>
        </defs>

<script type="text/javascript">
var viewWidth = 857;
var viewHeight = 420;
var sectionId = 'dynsection-0';
</script>
<script xlink:href="svgpan.js"/>
<svg id="graph" class="graph">
<g id="viewport">
<title>spec/def_spec.h</title>
<polygon fill="white" stroke="none" points="-4,4 -4,-416 853,-416 853,4 -4,4"/>
<!-- Node1 -->
<g id="node1" class="node"><title>Node1</title>
<polygon fill="#bfbfbf" stroke="black" points="555.5,-392.5 555.5,-411.5 644.5,-411.5 644.5,-392.5 555.5,-392.5"/>
<text text-anchor="middle" x="600" y="-399.5" font-family="Helvetica,sans-Serif" font-size="10.00">spec/def_spec.h</text>
</g>
<!-- Node2 -->
<g id="node2" class="node"><title>Node2</title>
<g id="a_node2"><a xlink:href="ceptr_8h_source.html" target="_top" xlink:title="../src/ceptr.h">
<polygon fill="white" stroke="black" points="196,-336.5 196,-355.5 268,-355.5 268,-336.5 196,-336.5"/>
<text text-anchor="middle" x="232" y="-343.5" font-family="Helvetica,sans-Serif" font-size="10.00">../src/ceptr.h</text>
</a>
</g>
</g>
<!-- Node1&#45;&gt;Node2 -->
<g id="edge1" class="edge"><title>Node1&#45;&gt;Node2</title>
<path fill="none" stroke="midnightblue" d="M555.244,-394.433C484.955,-384.118 349.379,-364.224 278.205,-353.78"/>
<polygon fill="midnightblue" stroke="midnightblue" points="278.589,-350.299 268.186,-352.31 277.572,-357.225 278.589,-350.299"/>
</g>
<!-- Node23 -->
<g id="node23" class="node"><title>Node23</title>
<g id="a_node23"><a xlink:href="def_8h.html" target="_top" xlink:title="header file for symbol and structure definition functions ">
<polygon fill="white" stroke="black" points="661,-336.5 661,-355.5 725,-355.5 725,-336.5 661,-336.5"/>
<text text-anchor="middle" x="693" y="-343.5" font-family="Helvetica,sans-Serif" font-size="10.00">../src/def.h</text>
</a>
</g>
</g>
<!-- Node1&#45;&gt;Node23 -->
<g id="edge39" class="edge"><title>Node1&#45;&gt;Node23</title>
<path fill="none" stroke="midnightblue" d="M614.942,-392.324C629.585,-383.822 652.134,-370.729 669.238,-360.797"/>
<polygon fill="midnightblue" stroke="midnightblue" points="671.205,-363.703 678.095,-355.655 667.69,-357.649 671.205,-363.703"/>
</g>
<!-- Node25 -->
<g id="node25" class="node"><title>Node25</title>
<g id="a_node25"><a xlink:href="semtrex_8h.html" target="_top" xlink:title="Semantic tree regular expression header file. ">
<polygon fill="white" stroke="black" points="557,-336.5 557,-355.5 643,-355.5 643,-336.5 557,-336.5"/>
<text text-anchor="middle" x="600" y="-343.5" font-family="Helvetica,sans-Serif" font-size="10.00">../src/semtrex.h</text>
</a>
</g>
</g>
<!-- Node1&#45;&gt;Node25 -->
<g id="edge42" class="edge"><title>Node1&#45;&gt;Node25</title>
<path fill="none" stroke="midnightblue" d="M600,-392.083C600,-385.006 600,-374.861 600,-365.986"/>
<polygon fill="midnightblue" stroke="midnightblue" points="603.5,-365.751 600,-355.751 596.5,-365.751 603.5,-365.751"/>
</g>
<!-- Node3 -->
<g id="node3" class="node"><title>Node3</title>
<polygon fill="white" stroke="#bfbfbf" points="509.5,-0.5 509.5,-19.5 558.5,-19.5 558.5,-0.5 509.5,-0.5"/>
<text text-anchor="middle" x="534" y="-7.5" font-family="Helvetica,sans-Serif" font-size="10.00">string.h</text>
</g>
<!-- Node2&#45;&gt;Node3 -->
<g id="edge2" class="edge"><title>Node2&#45;&gt;Node3</title>
<path fill="none" stroke="midnightblue" d="M195.784,-337.336C171.77,-330.749 140.789,-319.191 119,-300 72.9984,-259.482 43.4185,-217.918 79,-168 178.626,-28.2332 411.293,-11.6789 499.376,-10.5951"/>
<polygon fill="midnightblue" stroke="midnightblue" points="499.405,-14.0951 509.383,-10.5324 499.361,-7.09523 499.405,-14.0951"/>
</g>
<!-- Node4 -->
<g id="node4" class="node"><title>Node4</title>
<polygon fill="white" stroke="#bfbfbf" points="88,-168.5 88,-187.5 134,-187.5 134,-168.5 88,-168.5"/>
<text text-anchor="middle" x="111" y="-175.5" font-family="Helvetica,sans-Serif" font-size="10.00">stdio.h</text>
</g>
<!-- Node2&#45;&gt;Node4 -->
<g id="edge3" class="edge"><title>Node2&#45;&gt;Node4</title>
<path fill="none" stroke="midnightblue" d="M210.089,-336.48C177.939,-322.631 119.182,-291.871 95,-244 87.4101,-228.975 93.5309,-210.144 100.277,-196.624"/>
<polygon fill="midnightblue" stroke="midnightblue" points="103.352,-198.295 105.113,-187.848 97.2214,-194.917 103.352,-198.295"/>
</g>
<!-- Node5 -->
<g id="node5" class="node"><title>Node5</title>
<polygon fill="white" stroke="#bfbfbf" points="290,-0.5 290,-19.5 338,-19.5 338,-0.5 290,-0.5"/>
<text text-anchor="middle" x="314" y="-7.5" font-family="Helvetica,sans-Serif" font-size="10.00">stdlib.h</text>
</g>
<!-- Node2&#45;&gt;Node5 -->
<g id="edge4" class="edge"><title>Node2&#45;&gt;Node5</title>
<path fill="none" stroke="midnightblue" d="M195.838,-341.371C143.288,-335.415 49.3158,-321.984 24,-300 0.748308,-279.808 0,-265.795 0,-235 0,-235 0,-235 0,-121 0,-62.2648 198.162,-27.4296 279.642,-15.5887"/>
<polygon fill="midnightblue" stroke="midnightblue" points="280.475,-19.0056 289.882,-14.1328 279.489,-12.0753 280.475,-19.0056"/>
</g>
<!-- Node6 -->
<g id="node6" class="node"><title>Node6</title>
<g id="a_node6"><a xlink:href="ceptr__error_8h_source.html" target="_top" xlink:title="ceptr_error.h">
<polygon fill="white" stroke="black" points="310.5,-224.5 310.5,-243.5 381.5,-243.5 381.5,-224.5 310.5,-224.5"/>
<text text-anchor="middle" x="346" y="-231.5" font-family="Helvetica,sans-Serif" font-size="10.00">ceptr_error.h</text>
</a>
</g>
</g>
<!-- Node2&#45;&gt;Node6 -->
<g id="edge5" class="edge"><title>Node2&#45;&gt;Node6</title>
<path fill="none" stroke="midnightblue" d="M240.945,-336.368C260.092,-317.894 305.279,-274.293 329.684,-250.744"/>
<polygon fill="midnightblue" stroke="midnightblue" points="332.33,-253.054 337.096,-243.591 327.47,-248.016 332.33,-253.054"/>
</g>
<!-- Node10 -->
<g id="node10" class="node"><title>Node10</title>
<g id="a_node10"><a xlink:href="tree_8h.html" target="_top" xlink:title="semantic trees header file ">
<polygon fill="white" stroke="black" points="640.5,-280.5 640.5,-299.5 681.5,-299.5 681.5,-280.5 640.5,-280.5"/>
<text text-anchor="middle" x="661" y="-287.5" font-family="Helvetica,sans-Serif" font-size="10.00">tree.h</text>
</a>
</g>
</g>
<!-- Node2&#45;&gt;Node10 -->
<g id="edge10" class="edge"><title>Node2&#45;&gt;Node10</title>
<path fill="none" stroke="midnightblue" d="M268.207,-340.443C350.973,-330.024 552.817,-304.617 630.151,-294.883"/>
<polygon fill="midnightblue" stroke="midnightblue" points="630.727,-298.338 640.212,-293.617 629.853,-291.393 630.727,-298.338"/>
</g>
<!-- Node19 -->
<g id="node19" class="node"><title>Node19</title>
<g id="a_node19"><a xlink:href="mtree_8h.html" target="_top" xlink:title="semantic tree matrix header file `` ">
<polygon fill="white" stroke="black" points="404,-280.5 404,-299.5 454,-299.5 454,-280.5 404,-280.5"/>
<text text-anchor="middle" x="429" y="-287.5" font-family="Helvetica,sans-Serif" font-size="10.00">mtree.h</text>
</a>
</g>
</g>
<!-- Node2&#45;&gt;Node19 -->
<g id="edge27" class="edge"><title>Node2&#45;&gt;Node19</title>
<path fill="none" stroke="midnightblue" d="M263.215,-336.444C298.817,-326.685 356.883,-310.768 393.994,-300.596"/>
<polygon fill="midnightblue" stroke="midnightblue" points="395.15,-303.908 403.869,-297.889 393.3,-297.157 395.15,-303.908"/>
</g>
<!-- Node20 -->
<g id="node20" class="node"><title>Node20</title>
<g id="a_node20"><a xlink:href="util_8h.html" target="_top" xlink:title="util.h">
<polygon fill="white" stroke="black" points="194,-280.5 194,-299.5 232,-299.5 232,-280.5 194,-280.5"/>
<text text-anchor="middle" x="213" y="-287.5" font-family="Helvetica,sans-Serif" font-size="10.00">util.h</text>
</a>
</g>
</g>
<!-- Node2&#45;&gt;Node20 -->
<g id="edge35" class="edge"><title>Node2&#45;&gt;Node20</title>
<path fill="none" stroke="midnightblue" d="M228.863,-336.083C226.317,-328.849 222.644,-318.409 219.473,-309.397"/>
<polygon fill="midnightblue" stroke="midnightblue" points="222.7,-308.023 216.079,-299.751 216.097,-310.346 222.7,-308.023"/>
</g>
<!-- Node6&#45;&gt;Node4 -->
<g id="edge6" class="edge"><title>Node6&#45;&gt;Node4</title>
<path fill="none" stroke="midnightblue" d="M310.309,-224.799C265.138,-214.419 187.945,-196.681 144.061,-186.597"/>
<polygon fill="midnightblue" stroke="midnightblue" points="144.712,-183.156 134.183,-184.327 143.145,-189.978 144.712,-183.156"/>
</g>
<!-- Node7 -->
<g id="node7" class="node"><title>Node7</title>
<polygon fill="white" stroke="#bfbfbf" points="332,-168.5 332,-187.5 382,-187.5 382,-168.5 332,-168.5"/>
<text text-anchor="middle" x="357" y="-175.5" font-family="Helvetica,sans-Serif" font-size="10.00">signal.h</text>
</g>
<!-- Node6&#45;&gt;Node7 -->
<g id="edge7" class="edge"><title>Node6&#45;&gt;Node7</title>
<path fill="none" stroke="midnightblue" d="M347.816,-224.083C349.274,-216.927 351.371,-206.635 353.193,-197.691"/>
<polygon fill="midnightblue" stroke="midnightblue" points="356.651,-198.248 355.217,-187.751 349.792,-196.851 356.651,-198.248"/>
</g>
<!-- Node8 -->
<g id="node8" class="node"><title>Node8</title>
<polygon fill="white" stroke="#bfbfbf" points="190,-168.5 190,-187.5 242,-187.5 242,-168.5 190,-168.5"/>
<text text-anchor="middle" x="216" y="-175.5" font-family="Helvetica,sans-Serif" font-size="10.00">assert.h</text>
</g>
<!-- Node6&#45;&gt;Node8 -->
<g id="edge8" class="edge"><title>Node6&#45;&gt;Node8</title>
<path fill="none" stroke="midnightblue" d="M325.401,-224.444C304.007,-215.557 270.319,-201.563 245.976,-191.451"/>
<polygon fill="midnightblue" stroke="midnightblue" points="247.08,-188.12 236.503,-187.516 244.395,-194.585 247.08,-188.12"/>
</g>
<!-- Node9 -->
<g id="node9" class="node"><title>Node9</title>
<polygon fill="white" stroke="#bfbfbf" points="260,-168.5 260,-187.5 314,-187.5 314,-168.5 260,-168.5"/>
<text text-anchor="middle" x="287" y="-175.5" font-family="Helvetica,sans-Serif" font-size="10.00">setjmp.h</text>
</g>
<!-- Node6&#45;&gt;Node9 -->
<g id="edge9" class="edge"><title>Node6&#45;&gt;Node9</title>
<path fill="none" stroke="midnightblue" d="M336.521,-224.324C327.799,-216.341 314.657,-204.313 304.102,-194.653"/>
<polygon fill="midnightblue" stroke="midnightblue" points="306.392,-192.004 296.652,-187.834 301.666,-197.167 306.392,-192.004"/>
</g>
<!-- Node10&#45;&gt;Node3 -->
<g id="edge11" class="edge"><title>Node10&#45;&gt;Node3</title>
<path fill="none" stroke="midnightblue" d="M681.634,-282.724C684.767,-281.796 687.966,-280.862 691,-280 750.317,-263.138 779.451,-285.571 825,-244 847.746,-223.24 849,-209.795 849,-179 849,-179 849,-179 849,-121 849,-85.0879 831.6,-74.7967 801,-56 762.663,-32.4505 632.369,-18.9583 569.077,-13.65"/>
<polygon fill="midnightblue" stroke="midnightblue" points="569.047,-10.1361 558.796,-12.8106 568.478,-17.1128 569.047,-10.1361"/>
</g>
<!-- Node10&#45;&gt;Node5 -->
<g id="edge12" class="edge"><title>Node10&#45;&gt;Node5</title>
<path fill="none" stroke="midnightblue" d="M681.901,-280.996C704.923,-271.705 739.67,-256.109 747,-244 787.069,-177.81 921.863,-239.758 662,-56 636.655,-38.078 431.082,-20.1695 348.326,-13.6131"/>
<polygon fill="midnightblue" stroke="midnightblue" points="348.42,-10.1099 338.177,-12.8174 347.873,-17.0884 348.42,-10.1099"/>
</g>
<!-- Node10&#45;&gt;Node6 -->
<g id="edge13" class="edge"><title>Node10&#45;&gt;Node6</title>
<path fill="none" stroke="midnightblue" d="M640.332,-285.457C590.209,-276.864 461.216,-254.751 391.816,-242.854"/>
<polygon fill="midnightblue" stroke="midnightblue" points="392.065,-239.346 381.618,-241.106 390.882,-246.245 392.065,-239.346"/>
</g>
<!-- Node11 -->
<g id="node11" class="node"><title>Node11</title>
<g id="a_node11"><a xlink:href="sys__symbols_8h.html" target="_top" xlink:title="Defines hard&#45;coded system defined symbols. ">
<polygon fill="white" stroke="black" points="514.5,-224.5 514.5,-243.5 597.5,-243.5 597.5,-224.5 514.5,-224.5"/>
<text text-anchor="middle" x="556" y="-231.5" font-family="Helvetica,sans-Serif" font-size="10.00">sys_symbols.h</text>
</a>
</g>
</g>
<!-- Node10&#45;&gt;Node11 -->
<g id="edge14" class="edge"><title>Node10&#45;&gt;Node11</title>
<path fill="none" stroke="midnightblue" d="M644.13,-280.324C627.291,-271.664 601.193,-258.242 581.762,-248.249"/>
<polygon fill="midnightblue" stroke="midnightblue" points="583.322,-245.116 572.828,-243.655 580.12,-251.341 583.322,-245.116"/>
</g>
<!-- Node12 -->
<g id="node12" class="node"><title>Node12</title>
<g id="a_node12"><a xlink:href="sys__structures_8h.html" target="_top" xlink:title="Defines hard&#45;coded system defined structures. ">
<polygon fill="white" stroke="black" points="584.5,-168.5 584.5,-187.5 673.5,-187.5 673.5,-168.5 584.5,-168.5"/>
<text text-anchor="middle" x="629" y="-175.5" font-family="Helvetica,sans-Serif" font-size="10.00">sys_structures.h</text>
</a>
</g>
</g>
<!-- Node10&#45;&gt;Node12 -->
<g id="edge24" class="edge"><title>Node10&#45;&gt;Node12</title>
<path fill="none" stroke="midnightblue" d="M677.442,-280.396C697.834,-268.528 728.372,-246.089 715,-224 705.59,-208.455 688.847,-198.022 672.62,-191.151"/>
<polygon fill="midnightblue" stroke="midnightblue" points="673.774,-187.845 663.184,-187.507 671.251,-194.375 673.774,-187.845"/>
</g>
<!-- Node13 -->
<g id="node13" class="node"><title>Node13</title>
<g id="a_node13"><a xlink:href="ceptr__types_8h_source.html" target="_top" xlink:title="ceptr_types.h">
<polygon fill="white" stroke="black" points="591,-112.5 591,-131.5 667,-131.5 667,-112.5 591,-112.5"/>
<text text-anchor="middle" x="629" y="-119.5" font-family="Helvetica,sans-Serif" font-size="10.00">ceptr_types.h</text>
</a>
</g>
</g>
<!-- Node10&#45;&gt;Node13 -->
<g id="edge26" class="edge"><title>Node10&#45;&gt;Node13</title>
<path fill="none" stroke="midnightblue" d="M681.724,-282.027C698.368,-275.201 720.616,-263.021 731,-244 735.259,-236.198 734.126,-232.321 731,-224 716.402,-185.147 677.627,-154.1 652.311,-137.146"/>
<polygon fill="midnightblue" stroke="midnightblue" points="653.96,-134.044 643.663,-131.549 650.157,-139.921 653.96,-134.044"/>
</g>
<!-- Node18 -->
<g id="node18" class="node"><title>Node18</title>
<g id="a_node18"><a xlink:href="sys__processes_8h.html" target="_top" xlink:title="Defines hard&#45;coded system defined processes. ">
<polygon fill="white" stroke="black" points="615.5,-224.5 615.5,-243.5 706.5,-243.5 706.5,-224.5 615.5,-224.5"/>
<text text-anchor="middle" x="661" y="-231.5" font-family="Helvetica,sans-Serif" font-size="10.00">sys_processes.h</text>
</a>
</g>
</g>
<!-- Node10&#45;&gt;Node18 -->
<g id="edge25" class="edge"><title>Node10&#45;&gt;Node18</title>
<path fill="none" stroke="midnightblue" d="M661,-280.083C661,-273.006 661,-262.861 661,-253.986"/>
<polygon fill="midnightblue" stroke="midnightblue" points="664.5,-253.751 661,-243.751 657.5,-253.751 664.5,-253.751"/>
</g>
<!-- Node11&#45;&gt;Node12 -->
<g id="edge15" class="edge"><title>Node11&#45;&gt;Node12</title>
<path fill="none" stroke="midnightblue" d="M567.729,-224.324C578.837,-216.107 595.742,-203.602 608.983,-193.807"/>
<polygon fill="midnightblue" stroke="midnightblue" points="611.1,-196.595 617.058,-187.834 606.937,-190.967 611.1,-196.595"/>
</g>
<!-- Node11&#45;&gt;Node13 -->
<g id="edge23" class="edge"><title>Node11&#45;&gt;Node13</title>
<path fill="none" stroke="midnightblue" d="M556.904,-224.332C558.615,-211.199 563.27,-185.896 575,-168 583.024,-155.759 595.382,-145.11 606.252,-137.249"/>
<polygon fill="midnightblue" stroke="midnightblue" points="608.273,-140.108 614.54,-131.565 604.313,-134.335 608.273,-140.108"/>
</g>
<!-- Node12&#45;&gt;Node13 -->
<g id="edge16" class="edge"><title>Node12&#45;&gt;Node13</title>
<path fill="none" stroke="midnightblue" d="M629,-168.083C629,-161.006 629,-150.861 629,-141.986"/>
<polygon fill="midnightblue" stroke="midnightblue" points="632.5,-141.751 629,-131.751 625.5,-141.751 632.5,-141.751"/>
</g>
<!-- Node14 -->
<g id="node14" class="node"><title>Node14</title>
<polygon fill="white" stroke="#bfbfbf" points="604.5,-56.5 604.5,-75.5 653.5,-75.5 653.5,-56.5 604.5,-56.5"/>
<text text-anchor="middle" x="629" y="-63.5" font-family="Helvetica,sans-Serif" font-size="10.00">stdint.h</text>
</g>
<!-- Node13&#45;&gt;Node14 -->
<g id="edge17" class="edge"><title>Node13&#45;&gt;Node14</title>
<path fill="none" stroke="midnightblue" d="M629,-112.083C629,-105.006 629,-94.8611 629,-85.9865"/>
<polygon fill="midnightblue" stroke="midnightblue" points="632.5,-85.751 629,-75.7511 625.5,-85.7511 632.5,-85.751"/>
</g>
<!-- Node15 -->
<g id="node15" class="node"><title>Node15</title>
<g id="a_node15"><a xlink:href="uthash_8h_source.html" target="_top" xlink:title="uthash.h">
<polygon fill="white" stroke="black" points="738,-56.5 738,-75.5 792,-75.5 792,-56.5 738,-56.5"/>
<text text-anchor="middle" x="765" y="-63.5" font-family="Helvetica,sans-Serif" font-size="10.00">uthash.h</text>
</a>
</g>
</g>
<!-- Node13&#45;&gt;Node15 -->
<g id="edge18" class="edge"><title>Node13&#45;&gt;Node15</title>
<path fill="none" stroke="midnightblue" d="M650.55,-112.444C673.031,-103.517 708.488,-89.4387 733.98,-79.3168"/>
<polygon fill="midnightblue" stroke="midnightblue" points="735.549,-82.4598 743.551,-75.5164 732.965,-75.9539 735.549,-82.4598"/>
</g>
<!-- Node15&#45;&gt;Node3 -->
<g id="edge19" class="edge"><title>Node15&#45;&gt;Node3</title>
<path fill="none" stroke="midnightblue" d="M737.594,-58.5934C695.373,-48.7236 614.486,-29.8148 568.393,-19.0399"/>
<polygon fill="midnightblue" stroke="midnightblue" points="569.098,-15.6104 558.564,-16.7422 567.505,-22.4267 569.098,-15.6104"/>
</g>
<!-- Node15&#45;&gt;Node5 -->
<g id="edge21" class="edge"><title>Node15&#45;&gt;Node5</title>
<path fill="none" stroke="midnightblue" d="M737.731,-58.5889C733.162,-57.6372 728.459,-56.7319 724,-56 585.543,-33.2719 418.844,-18.9734 348.248,-13.5154"/>
<polygon fill="midnightblue" stroke="midnightblue" points="348.39,-10.0161 338.153,-12.7447 347.857,-16.9958 348.39,-10.0161"/>
</g>
<!-- Node16 -->
<g id="node16" class="node"><title>Node16</title>
<polygon fill="white" stroke="#bfbfbf" points="702,-0.5 702,-19.5 754,-19.5 754,-0.5 702,-0.5"/>
<text text-anchor="middle" x="728" y="-7.5" font-family="Helvetica,sans-Serif" font-size="10.00">stddef.h</text>
</g>
<!-- Node15&#45;&gt;Node16 -->
<g id="edge20" class="edge"><title>Node15&#45;&gt;Node16</title>
<path fill="none" stroke="midnightblue" d="M758.89,-56.083C753.718,-48.5341 746.154,-37.4948 739.806,-28.2298"/>
<polygon fill="midnightblue" stroke="midnightblue" points="742.536,-26.0221 733.996,-19.7511 736.761,-29.9787 742.536,-26.0221"/>
</g>
<!-- Node17 -->
<g id="node17" class="node"><title>Node17</title>
<polygon fill="white" stroke="#bfbfbf" points="772.5,-0.5 772.5,-19.5 831.5,-19.5 831.5,-0.5 772.5,-0.5"/>
<text text-anchor="middle" x="802" y="-7.5" font-family="Helvetica,sans-Serif" font-size="10.00">inttypes.h</text>
</g>
<!-- Node15&#45;&gt;Node17 -->
<g id="edge22" class="edge"><title>Node15&#45;&gt;Node17</title>
<path fill="none" stroke="midnightblue" d="M771.11,-56.083C776.282,-48.5341 783.846,-37.4948 790.194,-28.2298"/>
<polygon fill="midnightblue" stroke="midnightblue" points="793.239,-29.9787 796.004,-19.7511 787.464,-26.0221 793.239,-29.9787"/>
</g>
<!-- Node19&#45;&gt;Node3 -->
<g id="edge28" class="edge"><title>Node19&#45;&gt;Node3</title>
<path fill="none" stroke="midnightblue" d="M426.438,-280.249C421.251,-261.738 410,-217.179 410,-179 410,-179 410,-179 410,-121 410,-72.2608 464.274,-39.8655 501.008,-23.5212"/>
<polygon fill="midnightblue" stroke="midnightblue" points="502.558,-26.6652 510.385,-19.5239 499.813,-20.2259 502.558,-26.6652"/>
</g>
<!-- Node19&#45;&gt;Node5 -->
<g id="edge29" class="edge"><title>Node19&#45;&gt;Node5</title>
<path fill="none" stroke="midnightblue" d="M403.591,-280.516C342.922,-260.004 193.705,-207.949 181,-188 140.362,-124.191 240.822,-53.8766 289.445,-24.7754"/>
<polygon fill="midnightblue" stroke="midnightblue" points="291.29,-27.7507 298.148,-19.6751 287.751,-21.7113 291.29,-27.7507"/>
</g>
<!-- Node19&#45;&gt;Node6 -->
<g id="edge30" class="edge"><title>Node19&#45;&gt;Node6</title>
<path fill="none" stroke="midnightblue" d="M415.665,-280.324C402.838,-271.979 383.215,-259.212 368.06,-249.352"/>
<polygon fill="midnightblue" stroke="midnightblue" points="369.593,-246.174 359.302,-243.655 365.776,-252.042 369.593,-246.174"/>
</g>
<!-- Node19&#45;&gt;Node11 -->
<g id="edge31" class="edge"><title>Node19&#45;&gt;Node11</title>
<path fill="none" stroke="midnightblue" d="M449.124,-280.444C470.024,-271.557 502.935,-257.563 526.716,-247.451"/>
<polygon fill="midnightblue" stroke="midnightblue" points="528.138,-250.65 535.971,-243.516 525.398,-244.208 528.138,-250.65"/>
</g>
<!-- Node19&#45;&gt;Node12 -->
<g id="edge32" class="edge"><title>Node19&#45;&gt;Node12</title>
<path fill="none" stroke="midnightblue" d="M437.104,-280.286C450.214,-266.63 477.402,-240.09 505,-224 530.301,-209.249 561.267,-198.007 585.924,-190.448"/>
<polygon fill="midnightblue" stroke="midnightblue" points="587.138,-193.739 595.726,-187.534 585.143,-187.029 587.138,-193.739"/>
</g>
<!-- Node19&#45;&gt;Node13 -->
<g id="edge34" class="edge"><title>Node19&#45;&gt;Node13</title>
<path fill="none" stroke="midnightblue" d="M433.617,-280.211C440.902,-266.921 456.091,-241.414 474,-224 513.402,-185.688 569.378,-153.469 602.17,-136.314"/>
<polygon fill="midnightblue" stroke="midnightblue" points="603.876,-139.372 611.165,-131.683 600.672,-133.149 603.876,-139.372"/>
</g>
<!-- Node19&#45;&gt;Node18 -->
<g id="edge33" class="edge"><title>Node19&#45;&gt;Node18</title>
<path fill="none" stroke="midnightblue" d="M454.27,-283.118C492.644,-274.186 566.238,-257.057 614.468,-245.831"/>
<polygon fill="midnightblue" stroke="midnightblue" points="615.407,-249.206 624.353,-243.53 613.82,-242.388 615.407,-249.206"/>
</g>
<!-- Node20&#45;&gt;Node4 -->
<g id="edge37" class="edge"><title>Node20&#45;&gt;Node4</title>
<path fill="none" stroke="midnightblue" d="M218.373,-280.175C225.727,-266.836 236.748,-241.268 225,-224 215.51,-210.052 174.036,-196.117 143.842,-187.531"/>
<polygon fill="midnightblue" stroke="midnightblue" points="144.669,-184.129 134.098,-184.832 142.801,-190.875 144.669,-184.129"/>
</g>
<!-- Node21 -->
<g id="node21" class="node"><title>Node21</title>
<polygon fill="white" stroke="#bfbfbf" points="104.5,-224.5 104.5,-243.5 153.5,-243.5 153.5,-224.5 104.5,-224.5"/>
<text text-anchor="middle" x="129" y="-231.5" font-family="Helvetica,sans-Serif" font-size="10.00">ctype.h</text>
</g>
<!-- Node20&#45;&gt;Node21 -->
<g id="edge36" class="edge"><title>Node20&#45;&gt;Node21</title>
<path fill="none" stroke="midnightblue" d="M199.504,-280.324C186.4,-271.9 166.288,-258.971 150.893,-249.074"/>
<polygon fill="midnightblue" stroke="midnightblue" points="152.767,-246.118 142.463,-243.655 148.982,-252.006 152.767,-246.118"/>
</g>
<!-- Node22 -->
<g id="node22" class="node"><title>Node22</title>
<polygon fill="white" stroke="#bfbfbf" points="172,-224.5 172,-243.5 216,-243.5 216,-224.5 172,-224.5"/>
<text text-anchor="middle" x="194" y="-231.5" font-family="Helvetica,sans-Serif" font-size="10.00">time.h</text>
</g>
<!-- Node20&#45;&gt;Node22 -->
<g id="edge38" class="edge"><title>Node20&#45;&gt;Node22</title>
<path fill="none" stroke="midnightblue" d="M209.863,-280.083C207.317,-272.849 203.644,-262.409 200.473,-253.397"/>
<polygon fill="midnightblue" stroke="midnightblue" points="203.7,-252.023 197.079,-243.751 197.097,-254.346 203.7,-252.023"/>
</g>
<!-- Node23&#45;&gt;Node10 -->
<g id="edge40" class="edge"><title>Node23&#45;&gt;Node10</title>
<path fill="none" stroke="midnightblue" d="M687.716,-336.083C683.289,-328.613 676.837,-317.724 671.382,-308.52"/>
<polygon fill="midnightblue" stroke="midnightblue" points="674.295,-306.57 666.186,-299.751 668.273,-310.138 674.295,-306.57"/>
</g>
<!-- Node24 -->
<g id="node24" class="node"><title>Node24</title>
<polygon fill="white" stroke="#bfbfbf" points="700,-280.5 700,-299.5 752,-299.5 752,-280.5 700,-280.5"/>
<text text-anchor="middle" x="726" y="-287.5" font-family="Helvetica,sans-Serif" font-size="10.00">stdarg.h</text>
</g>
<!-- Node23&#45;&gt;Node24 -->
<g id="edge41" class="edge"><title>Node23&#45;&gt;Node24</title>
<path fill="none" stroke="midnightblue" d="M698.449,-336.083C703.014,-328.613 709.668,-317.724 715.293,-308.52"/>
<polygon fill="midnightblue" stroke="midnightblue" points="718.424,-310.109 720.652,-299.751 712.451,-306.459 718.424,-310.109"/>
</g>
<!-- Node25&#45;&gt;Node10 -->
<g id="edge43" class="edge"><title>Node25&#45;&gt;Node10</title>
<path fill="none" stroke="midnightblue" d="M609.801,-336.324C618.818,-328.341 632.406,-316.313 643.318,-306.653"/>
<polygon fill="midnightblue" stroke="midnightblue" points="645.853,-309.083 651.021,-299.834 641.213,-303.842 645.853,-309.083"/>
</g>
</g>
</svg>
        <g id="navigator" transform="translate(0 0)" fill="#404254">
                <rect fill="#f2f5e9" fill-opacity="0.5" stroke="#606060" stroke-width=".5" x="0" y="0" width="60" height="60"/>
                <use id="zoomplus" xlink:href="#zoomPlus" x="17" y="9" onmousedown="handleZoom(evt,'in')"/>
                <use id="zoomminus" xlink:href="#zoomMin" x="42" y="9" onmousedown="handleZoom(evt,'out')"/>
                <use id="reset" xlink:href="#resetDef" x="30" y="36" onmousedown="handleReset()"/>
                <g id="arrowUp" xlink:href="#dirArrow" transform="translate(30 24)" onmousedown="handlePan(0,-1)">
                  <use xlink:href="#rim" fill="#404040">
                        <set attributeName="fill" to="#808080" begin="arrowUp.mouseover" end="arrowUp.mouseout"/>
                  </use>
                  <path fill="none" stroke="white" stroke-width="1.5" d="M0,-3.0v7 M-2.5,-0.5L0,-3.0L2.5,-0.5"/>
                </g>
                <g id="arrowRight" xlink:href="#dirArrow" transform="rotate(90) translate(36 -43)" onmousedown="handlePan(1,0)">
                  <use xlink:href="#rim" fill="#404040">
                        <set attributeName="fill" to="#808080" begin="arrowRight.mouseover" end="arrowRight.mouseout"/>
                  </use>
                  <path fill="none" stroke="white" stroke-width="1.5" d="M0,-3.0v7 M-2.5,-0.5L0,-3.0L2.5,-0.5"/>
                </g>
                <g id="arrowDown" xlink:href="#dirArrow" transform="rotate(180) translate(-30 -48)" onmousedown="handlePan(0,1)">
                  <use xlink:href="#rim" fill="#404040">
                        <set attributeName="fill" to="#808080" begin="arrowDown.mouseover" end="arrowDown.mouseout"/>
                  </use>
                  <path fill="none" stroke="white" stroke-width="1.5" d="M0,-3.0v7 M-2.5,-0.5L0,-3.0L2.5,-0.5"/>
                </g>
                <g id="arrowLeft" xlink:href="#dirArrow" transform="rotate(270) translate(-36 17)" onmousedown="handlePan(-1,0)">
                  <use xlink:href="#rim" fill="#404040">
                        <set attributeName="fill" to="#808080" begin="arrowLeft.mouseover" end="arrowLeft.mouseout"/>
                  </use>
                  <path fill="none" stroke="white" stroke-width="1.5" d="M0,-3.0v7 M-2.5,-0.5L0,-3.0L2.5,-0.5"/>
                </g>
        </g>
        <svg viewBox="0 0 15 15" width="100%" height="30px" preserveAspectRatio="xMaxYMin meet">
         <g id="arrow_out" transform="scale(0.3 0.3)">
          <a xlink:href="def__spec_8h__incl_org.svg" target="_base">
           <rect id="button" ry="5" rx="5" y="6" x="6" height="38" width="38"
                fill="#f2f5e9" fill-opacity="0.5" stroke="#606060" stroke-width="1.0"/>
           <path id="arrow"
             d="M 11.500037,31.436501 C 11.940474,20.09759 22.043105,11.32322 32.158766,21.979434 L 37.068811,17.246167 C 37.068811,17.246167 37.088388,32 37.088388,32 L 22.160133,31.978069 C 22.160133,31.978069 26.997745,27.140456 26.997745,27.140456 C 18.528582,18.264221 13.291696,25.230495 11.500037,31.436501 z"
             style="fill:#404040;"/>
          </a>
         </g>
        </svg>
</svg>
