<?xml version="1.0" encoding="UTF-8" standalone="no"?>
<!DOCTYPE svg PUBLIC "-//W3C//DTD SVG 1.1//EN"
 "http://www.w3.org/Graphics/SVG/1.1/DTD/svg11.dtd">
<!-- Generated by graphviz version 2.38.0 (20140413.2041)
 -->
<!-- Title: spec/def_spec.h Pages: 1 -->
<svg width="750pt" height="420pt"
 viewBox="0.00 0.00 750.00 420.00" xmlns="http://www.w3.org/2000/svg" xmlns:xlink="http://www.w3.org/1999/xlink">
<g id="graph0" class="graph" transform="scale(1 1) rotate(0) translate(4 416)">
<title>spec/def_spec.h</title>
<polygon fill="white" stroke="none" points="-4,4 -4,-416 746,-416 746,4 -4,4"/>
<!-- Node1 -->
<g id="node1" class="node"><title>Node1</title>
<polygon fill="#bfbfbf" stroke="black" points="448.5,-392.5 448.5,-411.5 537.5,-411.5 537.5,-392.5 448.5,-392.5"/>
<text text-anchor="middle" x="493" y="-399.5" font-family="Helvetica,sans-Serif" font-size="10.00">spec/def_spec.h</text>
</g>
<!-- Node2 -->
<g id="node2" class="node"><title>Node2</title>
<g id="a_node2"><a xlink:href="ceptr_8h_source.html" target="_top" xlink:title="../src/ceptr.h">
<polygon fill="white" stroke="black" points="203,-336.5 203,-355.5 275,-355.5 275,-336.5 203,-336.5"/>
<text text-anchor="middle" x="239" y="-343.5" font-family="Helvetica,sans-Serif" font-size="10.00">../src/ceptr.h</text>
</a>
</g>
</g>
<!-- Node1&#45;&gt;Node2 -->
<g id="edge1" class="edge"><title>Node1&#45;&gt;Node2</title>
<path fill="none" stroke="midnightblue" d="M452.753,-392.444C407.175,-382.754 333.042,-366.993 285.155,-356.813"/>
<polygon fill="midnightblue" stroke="midnightblue" points="285.864,-353.385 275.355,-354.729 284.409,-360.232 285.864,-353.385"/>
</g>
<!-- Node20 -->
<g id="node20" class="node"><title>Node20</title>
<g id="a_node20"><a xlink:href="def_8h.html" target="_top" xlink:title="header file for symbol and structure definition functions ">
<polygon fill="white" stroke="black" points="554,-336.5 554,-355.5 618,-355.5 618,-336.5 554,-336.5"/>
<text text-anchor="middle" x="586" y="-343.5" font-family="Helvetica,sans-Serif" font-size="10.00">../src/def.h</text>
</a>
</g>
</g>
<!-- Node1&#45;&gt;Node20 -->
<g id="edge35" class="edge"><title>Node1&#45;&gt;Node20</title>
<path fill="none" stroke="midnightblue" d="M507.942,-392.324C522.585,-383.822 545.134,-370.729 562.238,-360.797"/>
<polygon fill="midnightblue" stroke="midnightblue" points="564.205,-363.703 571.095,-355.655 560.69,-357.649 564.205,-363.703"/>
</g>
<!-- Node22 -->
<g id="node22" class="node"><title>Node22</title>
<g id="a_node22"><a xlink:href="semtrex_8h.html" target="_top" xlink:title="Semantic tree regular expression header file. ">
<polygon fill="white" stroke="black" points="450,-336.5 450,-355.5 536,-355.5 536,-336.5 450,-336.5"/>
<text text-anchor="middle" x="493" y="-343.5" font-family="Helvetica,sans-Serif" font-size="10.00">../src/semtrex.h</text>
</a>
</g>
</g>
<!-- Node1&#45;&gt;Node22 -->
<g id="edge38" class="edge"><title>Node1&#45;&gt;Node22</title>
<path fill="none" stroke="midnightblue" d="M493,-392.083C493,-385.006 493,-374.861 493,-365.986"/>
<polygon fill="midnightblue" stroke="midnightblue" points="496.5,-365.751 493,-355.751 489.5,-365.751 496.5,-365.751"/>
</g>
<!-- Node3 -->
<g id="node3" class="node"><title>Node3</title>
<polygon fill="white" stroke="#bfbfbf" points="215.5,-0.5 215.5,-19.5 264.5,-19.5 264.5,-0.5 215.5,-0.5"/>
<text text-anchor="middle" x="240" y="-7.5" font-family="Helvetica,sans-Serif" font-size="10.00">string.h</text>
</g>
<!-- Node2&#45;&gt;Node3 -->
<g id="edge2" class="edge"><title>Node2&#45;&gt;Node3</title>
<path fill="none" stroke="midnightblue" d="M202.969,-341.669C148.935,-335.993 50.4232,-322.79 24,-300 0.680408,-279.887 0,-265.795 0,-235 0,-235 0,-235 0,-121 0,-31.8104 138.667,-14.6543 205.194,-11.5557"/>
<polygon fill="midnightblue" stroke="midnightblue" points="205.362,-15.0519 215.22,-11.1702 205.093,-8.05711 205.362,-15.0519"/>
</g>
<!-- Node4 -->
<g id="node4" class="node"><title>Node4</title>
<polygon fill="white" stroke="#bfbfbf" points="104,-168.5 104,-187.5 150,-187.5 150,-168.5 104,-168.5"/>
<text text-anchor="middle" x="127" y="-175.5" font-family="Helvetica,sans-Serif" font-size="10.00">stdio.h</text>
</g>
<!-- Node2&#45;&gt;Node4 -->
<g id="edge3" class="edge"><title>Node2&#45;&gt;Node4</title>
<path fill="none" stroke="midnightblue" d="M232.978,-336.075C215.12,-309.606 162.225,-231.209 138.611,-196.21"/>
<polygon fill="midnightblue" stroke="midnightblue" points="141.275,-193.9 132.781,-187.568 135.473,-197.815 141.275,-193.9"/>
</g>
<!-- Node5 -->
<g id="node5" class="node"><title>Node5</title>
<polygon fill="white" stroke="#bfbfbf" points="447,-0.5 447,-19.5 495,-19.5 495,-0.5 447,-0.5"/>
<text text-anchor="middle" x="471" y="-7.5" font-family="Helvetica,sans-Serif" font-size="10.00">stdlib.h</text>
</g>
<!-- Node2&#45;&gt;Node5 -->
<g id="edge4" class="edge"><title>Node2&#45;&gt;Node5</title>
<path fill="none" stroke="midnightblue" d="M202.6,-341.484C144.678,-333.663 38,-309.189 38,-235 38,-235 38,-235 38,-177 38,-91.7591 334.265,-33.9565 436.67,-16.5228"/>
<polygon fill="midnightblue" stroke="midnightblue" points="437.509,-19.931 446.792,-14.8242 436.351,-13.0275 437.509,-19.931"/>
</g>
<!-- Node6 -->
<g id="node6" class="node"><title>Node6</title>
<g id="a_node6"><a xlink:href="ceptr__error_8h_source.html" target="_top" xlink:title="ceptr_error.h">
<polygon fill="white" stroke="black" points="203.5,-224.5 203.5,-243.5 274.5,-243.5 274.5,-224.5 203.5,-224.5"/>
<text text-anchor="middle" x="239" y="-231.5" font-family="Helvetica,sans-Serif" font-size="10.00">ceptr_error.h</text>
</a>
</g>
</g>
<!-- Node2&#45;&gt;Node6 -->
<g id="edge5" class="edge"><title>Node2&#45;&gt;Node6</title>
<path fill="none" stroke="midnightblue" d="M239,-336.368C239,-318.617 239,-277.666 239,-253.597"/>
<polygon fill="midnightblue" stroke="midnightblue" points="242.5,-253.591 239,-243.591 235.5,-253.591 242.5,-253.591"/>
</g>
<!-- Node10 -->
<g id="node10" class="node"><title>Node10</title>
<g id="a_node10"><a xlink:href="tree_8h.html" target="_top" xlink:title="semantic trees header file ">
<polygon fill="white" stroke="black" points="533.5,-280.5 533.5,-299.5 574.5,-299.5 574.5,-280.5 533.5,-280.5"/>
<text text-anchor="middle" x="554" y="-287.5" font-family="Helvetica,sans-Serif" font-size="10.00">tree.h</text>
</a>
</g>
</g>
<!-- Node2&#45;&gt;Node10 -->
<g id="edge10" class="edge"><title>Node2&#45;&gt;Node10</title>
<path fill="none" stroke="midnightblue" d="M275.135,-338.806C337.661,-328.087 464.94,-306.267 523.397,-296.246"/>
<polygon fill="midnightblue" stroke="midnightblue" points="524.215,-299.657 533.48,-294.518 523.032,-292.758 524.215,-299.657"/>
</g>
<!-- Node19 -->
<g id="node19" class="node"><title>Node19</title>
<g id="a_node19"><a xlink:href="mtree_8h.html" target="_top" xlink:title="semantic tree matrix header file `` ">
<polygon fill="white" stroke="black" points="297,-280.5 297,-299.5 347,-299.5 347,-280.5 297,-280.5"/>
<text text-anchor="middle" x="322" y="-287.5" font-family="Helvetica,sans-Serif" font-size="10.00">mtree.h</text>
</a>
</g>
</g>
<!-- Node2&#45;&gt;Node19 -->
<g id="edge27" class="edge"><title>Node2&#45;&gt;Node19</title>
<path fill="none" stroke="midnightblue" d="M252.335,-336.324C265.162,-327.979 284.785,-315.212 299.94,-305.352"/>
<polygon fill="midnightblue" stroke="midnightblue" points="302.224,-308.042 308.698,-299.655 298.407,-302.174 302.224,-308.042"/>
</g>
<!-- Node6&#45;&gt;Node4 -->
<g id="edge6" class="edge"><title>Node6&#45;&gt;Node4</title>
<path fill="none" stroke="midnightblue" d="M221.005,-224.324C202.962,-215.625 174.953,-202.12 154.197,-192.113"/>
<polygon fill="midnightblue" stroke="midnightblue" points="155.478,-188.845 144.95,-187.655 152.438,-195.15 155.478,-188.845"/>
</g>
<!-- Node7 -->
<g id="node7" class="node"><title>Node7</title>
<polygon fill="white" stroke="#bfbfbf" points="310,-168.5 310,-187.5 360,-187.5 360,-168.5 310,-168.5"/>
<text text-anchor="middle" x="335" y="-175.5" font-family="Helvetica,sans-Serif" font-size="10.00">signal.h</text>
</g>
<!-- Node6&#45;&gt;Node7 -->
<g id="edge7" class="edge"><title>Node6&#45;&gt;Node7</title>
<path fill="none" stroke="midnightblue" d="M254.424,-224.324C269.54,-215.822 292.815,-202.729 310.471,-192.797"/>
<polygon fill="midnightblue" stroke="midnightblue" points="312.614,-195.608 319.614,-187.655 309.183,-189.507 312.614,-195.608"/>
</g>
<!-- Node8 -->
<g id="node8" class="node"><title>Node8</title>
<polygon fill="white" stroke="#bfbfbf" points="168,-168.5 168,-187.5 220,-187.5 220,-168.5 168,-168.5"/>
<text text-anchor="middle" x="194" y="-175.5" font-family="Helvetica,sans-Serif" font-size="10.00">assert.h</text>
</g>
<!-- Node6&#45;&gt;Node8 -->
<g id="edge8" class="edge"><title>Node6&#45;&gt;Node8</title>
<path fill="none" stroke="midnightblue" d="M231.569,-224.083C225.147,-216.377 215.694,-205.033 207.878,-195.653"/>
<polygon fill="midnightblue" stroke="midnightblue" points="210.383,-193.193 201.293,-187.751 205.006,-197.674 210.383,-193.193"/>
</g>
<!-- Node9 -->
<g id="node9" class="node"><title>Node9</title>
<polygon fill="white" stroke="#bfbfbf" points="238,-168.5 238,-187.5 292,-187.5 292,-168.5 238,-168.5"/>
<text text-anchor="middle" x="265" y="-175.5" font-family="Helvetica,sans-Serif" font-size="10.00">setjmp.h</text>
</g>
<!-- Node6&#45;&gt;Node9 -->
<g id="edge9" class="edge"><title>Node6&#45;&gt;Node9</title>
<path fill="none" stroke="midnightblue" d="M243.293,-224.083C246.852,-216.691 252.022,-205.953 256.424,-196.811"/>
<polygon fill="midnightblue" stroke="midnightblue" points="259.602,-198.279 260.787,-187.751 253.295,-195.243 259.602,-198.279"/>
</g>
<!-- Node10&#45;&gt;Node3 -->
<g id="edge11" class="edge"><title>Node10&#45;&gt;Node3</title>
<path fill="none" stroke="midnightblue" d="M574.901,-280.996C597.923,-271.705 632.67,-256.109 640,-244 677.261,-182.449 812.327,-242.432 570,-56 524.463,-20.9666 350.765,-13.2072 275.324,-11.4887"/>
<polygon fill="midnightblue" stroke="midnightblue" points="275.002,-7.98155 264.933,-11.2765 274.859,-14.9801 275.002,-7.98155"/>
</g>
<!-- Node10&#45;&gt;Node5 -->
<g id="edge12" class="edge"><title>Node10&#45;&gt;Node5</title>
<path fill="none" stroke="midnightblue" d="M574.634,-282.724C577.767,-281.796 580.966,-280.862 584,-280 643.317,-263.138 672.451,-285.571 718,-244 740.746,-223.24 742,-209.795 742,-179 742,-179 742,-179 742,-121 742,-85.3501 724.985,-75.2829 695,-56 664.035,-36.087 560.204,-21.3922 505.457,-14.8178"/>
<polygon fill="midnightblue" stroke="midnightblue" points="505.538,-11.3034 495.198,-13.6121 504.721,-18.2555 505.538,-11.3034"/>
</g>
<!-- Node10&#45;&gt;Node6 -->
<g id="edge13" class="edge"><title>Node10&#45;&gt;Node6</title>
<path fill="none" stroke="midnightblue" d="M533.332,-285.457C483.209,-276.864 354.216,-254.751 284.816,-242.854"/>
<polygon fill="midnightblue" stroke="midnightblue" points="285.065,-239.346 274.618,-241.106 283.882,-246.245 285.065,-239.346"/>
</g>
<!-- Node11 -->
<g id="node11" class="node"><title>Node11</title>
<g id="a_node11"><a xlink:href="sys__symbols_8h.html" target="_top" xlink:title="Defines hard&#45;coded system defined symbols. ">
<polygon fill="white" stroke="black" points="407.5,-224.5 407.5,-243.5 490.5,-243.5 490.5,-224.5 407.5,-224.5"/>
<text text-anchor="middle" x="449" y="-231.5" font-family="Helvetica,sans-Serif" font-size="10.00">sys_symbols.h</text>
</a>
</g>
</g>
<!-- Node10&#45;&gt;Node11 -->
<g id="edge14" class="edge"><title>Node10&#45;&gt;Node11</title>
<path fill="none" stroke="midnightblue" d="M537.13,-280.324C520.291,-271.664 494.193,-258.242 474.762,-248.249"/>
<polygon fill="midnightblue" stroke="midnightblue" points="476.322,-245.116 465.828,-243.655 473.12,-251.341 476.322,-245.116"/>
</g>
<!-- Node12 -->
<g id="node12" class="node"><title>Node12</title>
<g id="a_node12"><a xlink:href="sys__structures_8h.html" target="_top" xlink:title="Defines hard&#45;coded system defined structures. ">
<polygon fill="white" stroke="black" points="492.5,-168.5 492.5,-187.5 581.5,-187.5 581.5,-168.5 492.5,-168.5"/>
<text text-anchor="middle" x="537" y="-175.5" font-family="Helvetica,sans-Serif" font-size="10.00">sys_structures.h</text>
</a>
</g>
</g>
<!-- Node10&#45;&gt;Node12 -->
<g id="edge24" class="edge"><title>Node10&#45;&gt;Node12</title>
<path fill="none" stroke="midnightblue" d="M570.514,-280.352C590.597,-268.61 620.375,-246.495 608,-224 600.113,-209.663 585.514,-199.253 571.597,-192.079"/>
<polygon fill="midnightblue" stroke="midnightblue" points="572.698,-188.728 562.161,-187.622 569.708,-195.058 572.698,-188.728"/>
</g>
<!-- Node13 -->
<g id="node13" class="node"><title>Node13</title>
<g id="a_node13"><a xlink:href="ceptr__types_8h_source.html" target="_top" xlink:title="ceptr_types.h">
<polygon fill="white" stroke="black" points="499,-112.5 499,-131.5 575,-131.5 575,-112.5 499,-112.5"/>
<text text-anchor="middle" x="537" y="-119.5" font-family="Helvetica,sans-Serif" font-size="10.00">ceptr_types.h</text>
</a>
</g>
</g>
<!-- Node10&#45;&gt;Node13 -->
<g id="edge26" class="edge"><title>Node10&#45;&gt;Node13</title>
<path fill="none" stroke="midnightblue" d="M574.724,-282.027C591.368,-275.201 613.616,-263.021 624,-244 628.259,-236.198 626.395,-232.56 624,-224 613.65,-187.01 580.153,-155.531 557.872,-137.964"/>
<polygon fill="midnightblue" stroke="midnightblue" points="559.75,-134.995 549.673,-131.724 555.511,-140.565 559.75,-134.995"/>
</g>
<!-- Node18 -->
<g id="node18" class="node"><title>Node18</title>
<g id="a_node18"><a xlink:href="sys__processes_8h.html" target="_top" xlink:title="Defines hard&#45;coded system defined processes. ">
<polygon fill="white" stroke="black" points="508.5,-224.5 508.5,-243.5 599.5,-243.5 599.5,-224.5 508.5,-224.5"/>
<text text-anchor="middle" x="554" y="-231.5" font-family="Helvetica,sans-Serif" font-size="10.00">sys_processes.h</text>
</a>
</g>
</g>
<!-- Node10&#45;&gt;Node18 -->
<g id="edge25" class="edge"><title>Node10&#45;&gt;Node18</title>
<path fill="none" stroke="midnightblue" d="M554,-280.083C554,-273.006 554,-262.861 554,-253.986"/>
<polygon fill="midnightblue" stroke="midnightblue" points="557.5,-253.751 554,-243.751 550.5,-253.751 557.5,-253.751"/>
</g>
<!-- Node11&#45;&gt;Node12 -->
<g id="edge15" class="edge"><title>Node11&#45;&gt;Node12</title>
<path fill="none" stroke="midnightblue" d="M463.139,-224.324C476.866,-215.9 497.936,-202.971 514.064,-193.074"/>
<polygon fill="midnightblue" stroke="midnightblue" points="516.204,-195.868 522.896,-187.655 512.543,-189.902 516.204,-195.868"/>
</g>
<!-- Node11&#45;&gt;Node13 -->
<g id="edge23" class="edge"><title>Node11&#45;&gt;Node13</title>
<path fill="none" stroke="midnightblue" d="M452.232,-224.368C457.4,-211.281 468.444,-186.037 483,-168 492.221,-156.574 504.702,-145.949 515.342,-137.895"/>
<polygon fill="midnightblue" stroke="midnightblue" points="517.718,-140.494 523.734,-131.774 513.593,-134.839 517.718,-140.494"/>
</g>
<!-- Node12&#45;&gt;Node13 -->
<g id="edge16" class="edge"><title>Node12&#45;&gt;Node13</title>
<path fill="none" stroke="midnightblue" d="M537,-168.083C537,-161.006 537,-150.861 537,-141.986"/>
<polygon fill="midnightblue" stroke="midnightblue" points="540.5,-141.751 537,-131.751 533.5,-141.751 540.5,-141.751"/>
</g>
<!-- Node14 -->
<g id="node14" class="node"><title>Node14</title>
<polygon fill="white" stroke="#bfbfbf" points="512.5,-56.5 512.5,-75.5 561.5,-75.5 561.5,-56.5 512.5,-56.5"/>
<text text-anchor="middle" x="537" y="-63.5" font-family="Helvetica,sans-Serif" font-size="10.00">stdint.h</text>
</g>
<!-- Node13&#45;&gt;Node14 -->
<g id="edge17" class="edge"><title>Node13&#45;&gt;Node14</title>
<path fill="none" stroke="midnightblue" d="M537,-112.083C537,-105.006 537,-94.8611 537,-85.9865"/>
<polygon fill="midnightblue" stroke="midnightblue" points="540.5,-85.751 537,-75.7511 533.5,-85.7511 540.5,-85.751"/>
</g>
<!-- Node15 -->
<g id="node15" class="node"><title>Node15</title>
<g id="a_node15"><a xlink:href="uthash_8h_source.html" target="_top" xlink:title="uthash.h">
<polygon fill="white" stroke="black" points="632,-56.5 632,-75.5 686,-75.5 686,-56.5 632,-56.5"/>
<text text-anchor="middle" x="659" y="-63.5" font-family="Helvetica,sans-Serif" font-size="10.00">uthash.h</text>
</a>
</g>
</g>
<!-- Node13&#45;&gt;Node15 -->
<g id="edge18" class="edge"><title>Node13&#45;&gt;Node15</title>
<path fill="none" stroke="midnightblue" d="M556.331,-112.444C576.32,-103.596 607.743,-89.6875 630.564,-79.5865"/>
<polygon fill="midnightblue" stroke="midnightblue" points="632.032,-82.7645 639.759,-75.5164 629.198,-76.3635 632.032,-82.7645"/>
</g>
<!-- Node15&#45;&gt;Node3 -->
<g id="edge19" class="edge"><title>Node15&#45;&gt;Node3</title>
<path fill="none" stroke="midnightblue" d="M631.725,-58.6241C627.157,-57.6681 622.455,-56.7523 618,-56 492.431,-34.7957 341.735,-20.0173 274.88,-14.0047"/>
<polygon fill="midnightblue" stroke="midnightblue" points="275.158,-10.5156 264.887,-13.1153 274.537,-17.4881 275.158,-10.5156"/>
</g>
<!-- Node15&#45;&gt;Node5 -->
<g id="edge21" class="edge"><title>Node15&#45;&gt;Node5</title>
<path fill="none" stroke="midnightblue" d="M631.663,-57.1479C598.059,-47.4956 541.036,-31.1168 504.739,-20.6909"/>
<polygon fill="midnightblue" stroke="midnightblue" points="505.665,-17.3155 495.087,-17.9187 503.732,-24.0434 505.665,-17.3155"/>
</g>
<!-- Node16 -->
<g id="node16" class="node"><title>Node16</title>
<polygon fill="white" stroke="#bfbfbf" points="596,-0.5 596,-19.5 648,-19.5 648,-0.5 596,-0.5"/>
<text text-anchor="middle" x="622" y="-7.5" font-family="Helvetica,sans-Serif" font-size="10.00">stddef.h</text>
</g>
<!-- Node15&#45;&gt;Node16 -->
<g id="edge20" class="edge"><title>Node15&#45;&gt;Node16</title>
<path fill="none" stroke="midnightblue" d="M652.89,-56.083C647.718,-48.5341 640.154,-37.4948 633.806,-28.2298"/>
<polygon fill="midnightblue" stroke="midnightblue" points="636.536,-26.0221 627.996,-19.7511 630.761,-29.9787 636.536,-26.0221"/>
</g>
<!-- Node17 -->
<g id="node17" class="node"><title>Node17</title>
<polygon fill="white" stroke="#bfbfbf" points="666.5,-0.5 666.5,-19.5 725.5,-19.5 725.5,-0.5 666.5,-0.5"/>
<text text-anchor="middle" x="696" y="-7.5" font-family="Helvetica,sans-Serif" font-size="10.00">inttypes.h</text>
</g>
<!-- Node15&#45;&gt;Node17 -->
<g id="edge22" class="edge"><title>Node15&#45;&gt;Node17</title>
<path fill="none" stroke="midnightblue" d="M665.11,-56.083C670.282,-48.5341 677.846,-37.4948 684.194,-28.2298"/>
<polygon fill="midnightblue" stroke="midnightblue" points="687.239,-29.9787 690.004,-19.7511 681.464,-26.0221 687.239,-29.9787"/>
</g>
<!-- Node19&#45;&gt;Node3 -->
<g id="edge28" class="edge"><title>Node19&#45;&gt;Node3</title>
<path fill="none" stroke="midnightblue" d="M296.6,-289.061C233.748,-287.75 76,-274.906 76,-179 76,-179 76,-179 76,-121 76,-59.196 157.325,-29.8883 205.438,-17.9574"/>
<polygon fill="midnightblue" stroke="midnightblue" points="206.513,-21.3002 215.448,-15.6058 204.912,-14.4858 206.513,-21.3002"/>
</g>
<!-- Node19&#45;&gt;Node5 -->
<g id="edge29" class="edge"><title>Node19&#45;&gt;Node5</title>
<path fill="none" stroke="midnightblue" d="M324.542,-280.342C328.414,-267.649 336.366,-243.391 346,-224 354.448,-206.996 359.146,-204.23 369,-188 404.045,-130.28 443.381,-60.5114 461.242,-28.543"/>
<polygon fill="midnightblue" stroke="midnightblue" points="464.44,-29.9936 466.253,-19.5551 458.326,-26.5847 464.44,-29.9936"/>
</g>
<!-- Node19&#45;&gt;Node6 -->
<g id="edge30" class="edge"><title>Node19&#45;&gt;Node6</title>
<path fill="none" stroke="midnightblue" d="M308.665,-280.324C295.838,-271.979 276.215,-259.212 261.06,-249.352"/>
<polygon fill="midnightblue" stroke="midnightblue" points="262.593,-246.174 252.302,-243.655 258.776,-252.042 262.593,-246.174"/>
</g>
<!-- Node19&#45;&gt;Node11 -->
<g id="edge31" class="edge"><title>Node19&#45;&gt;Node11</title>
<path fill="none" stroke="midnightblue" d="M342.124,-280.444C363.024,-271.557 395.935,-257.563 419.716,-247.451"/>
<polygon fill="midnightblue" stroke="midnightblue" points="421.138,-250.65 428.971,-243.516 418.398,-244.208 421.138,-250.65"/>
</g>
<!-- Node19&#45;&gt;Node12 -->
<g id="edge32" class="edge"><title>Node19&#45;&gt;Node12</title>
<path fill="none" stroke="midnightblue" d="M330.039,-280.17C343.058,-266.356 370.124,-239.604 398,-224 425.795,-208.441 459.768,-197.319 487.17,-190.024"/>
<polygon fill="midnightblue" stroke="midnightblue" points="488.132,-193.39 496.945,-187.508 486.388,-186.611 488.132,-193.39"/>
</g>
<!-- Node19&#45;&gt;Node13 -->
<g id="edge34" class="edge"><title>Node19&#45;&gt;Node13</title>
<path fill="none" stroke="midnightblue" d="M326.528,-280.118C333.695,-266.704 348.734,-241.039 367,-224 409.909,-183.973 471.306,-152.37 507.373,-135.787"/>
<polygon fill="midnightblue" stroke="midnightblue" points="509.165,-138.818 516.838,-131.513 506.284,-132.438 509.165,-138.818"/>
</g>
<!-- Node19&#45;&gt;Node18 -->
<g id="edge33" class="edge"><title>Node19&#45;&gt;Node18</title>
<path fill="none" stroke="midnightblue" d="M347.27,-283.118C385.644,-274.186 459.238,-257.057 507.468,-245.831"/>
<polygon fill="midnightblue" stroke="midnightblue" points="508.407,-249.206 517.353,-243.53 506.82,-242.388 508.407,-249.206"/>
</g>
<!-- Node20&#45;&gt;Node10 -->
<g id="edge36" class="edge"><title>Node20&#45;&gt;Node10</title>
<path fill="none" stroke="midnightblue" d="M580.716,-336.083C576.289,-328.613 569.837,-317.724 564.382,-308.52"/>
<polygon fill="midnightblue" stroke="midnightblue" points="567.295,-306.57 559.186,-299.751 561.273,-310.138 567.295,-306.57"/>
</g>
<!-- Node21 -->
<g id="node21" class="node"><title>Node21</title>
<polygon fill="white" stroke="#bfbfbf" points="593,-280.5 593,-299.5 645,-299.5 645,-280.5 593,-280.5"/>
<text text-anchor="middle" x="619" y="-287.5" font-family="Helvetica,sans-Serif" font-size="10.00">stdarg.h</text>
</g>
<!-- Node20&#45;&gt;Node21 -->
<g id="edge37" class="edge"><title>Node20&#45;&gt;Node21</title>
<path fill="none" stroke="midnightblue" d="M591.449,-336.083C596.014,-328.613 602.668,-317.724 608.293,-308.52"/>
<polygon fill="midnightblue" stroke="midnightblue" points="611.424,-310.109 613.652,-299.751 605.451,-306.459 611.424,-310.109"/>
</g>
<!-- Node22&#45;&gt;Node10 -->
<g id="edge39" class="edge"><title>Node22&#45;&gt;Node10</title>
<path fill="none" stroke="midnightblue" d="M502.801,-336.324C511.818,-328.341 525.406,-316.313 536.318,-306.653"/>
<polygon fill="midnightblue" stroke="midnightblue" points="538.853,-309.083 544.021,-299.834 534.213,-303.842 538.853,-309.083"/>
</g>
</g>
</svg>
