<?xml version="1.0" encoding="UTF-8" standalone="no"?>
<!DOCTYPE svg PUBLIC "-//W3C//DTD SVG 1.1//EN"
 "http://www.w3.org/Graphics/SVG/1.1/DTD/svg11.dtd">
<!-- Generated by graphviz version 2.38.0 (20140413.2041)
 -->
<!-- Title: src/def.h Pages: 1 -->
<!--zoomable 364 -->
<svg id="main" version="1.1" xmlns="http://www.w3.org/2000/svg" xmlns:xlink="http://www.w3.org/1999/xlink" xml:space="preserve" onload="init(evt)">
<style type="text/css"><![CDATA[
.edge:hover path { stroke: red; }
.edge:hover polygon { stroke: red; fill: red; }
]]></style>
<script type="text/javascript"><![CDATA[
var edges = document.getElementsByTagName('g');
if (edges && edges.length) {
  for (var i=0;i<edges.length;i++) {
    if (edges[i].id.substr(0,4)=='edge') {
      edges[i].setAttribute('class','edge');
    }
  }
}
]]></script>
        <defs>
                <circle id="rim" cx="0" cy="0" r="7"/>
                <circle id="rim2" cx="0" cy="0" r="3.5"/>
                <g id="zoomPlus">
                        <use xlink:href="#rim" fill="#404040">
                                <set attributeName="fill" to="#808080" begin="zoomplus.mouseover" end="zoomplus.mouseout"/>
                        </use>
                        <path d="M-4,0h8M0,-4v8" fill="none" stroke="white" stroke-width="1.5" pointer-events="none"/>
                </g>
                <g id="zoomMin">
                        <use xlink:href="#rim" fill="#404040">
                                <set attributeName="fill" to="#808080" begin="zoomminus.mouseover" end="zoomminus.mouseout"/>
                        </use>
                        <path d="M-4,0h8" fill="none" stroke="white" stroke-width="1.5" pointer-events="none"/>
                </g>
                <g id="dirArrow">
                        <path fill="none" stroke="white" stroke-width="1.5" d="M0,-3.0v7 M-2.5,-0.5L0,-3.0L2.5,-0.5"/>
                </g>
               <g id="resetDef">
                       <use xlink:href="#rim2" fill="#404040">
                               <set attributeName="fill" to="#808080" begin="reset.mouseover" end="reset.mouseout"/>
                       </use>
               </g>
        </defs>

<script type="text/javascript">
var viewWidth = 1593;
var viewHeight = 364;
var sectionId = 'dynsection-1';
</script>
<script xlink:href="svgpan.js"/>
<svg id="graph" class="graph">
<g id="viewport">
<title>src/def.h</title>
<polygon fill="white" stroke="none" points="-4,4 -4,-360 1588.5,-360 1588.5,4 -4,4"/>
<!-- Node1 -->
<g id="node1" class="node"><title>Node1</title>
<polygon fill="#bfbfbf" stroke="black" points="1137.5,-336.5 1137.5,-355.5 1192.5,-355.5 1192.5,-336.5 1137.5,-336.5"/>
<text text-anchor="middle" x="1165" y="-343.5" font-family="Helvetica,sans-Serif" font-size="10.00">src/def.h</text>
</g>
<!-- Node2 -->
<g id="node2" class="node"><title>Node2</title>
<g id="a_node2"><a xlink:href="receptor_8h.html" target="_top" xlink:title="receptor implementation header file ">
<polygon fill="white" stroke="black" points="803.5,-280.5 803.5,-299.5 880.5,-299.5 880.5,-280.5 803.5,-280.5"/>
<text text-anchor="middle" x="842" y="-287.5" font-family="Helvetica,sans-Serif" font-size="10.00">src/receptor.h</text>
</a>
</g>
</g>
<!-- Node1&#45;&gt;Node2 -->
<g id="edge1" class="edge"><title>Node1&#45;&gt;Node2</title>
<path fill="none" stroke="midnightblue" d="M1127.36,-338.707C1065.49,-328.364 942.973,-307.881 880.533,-297.442"/>
<polygon fill="midnightblue" stroke="midnightblue" points="1127.02,-342.199 1137.46,-340.396 1128.18,-335.295 1127.02,-342.199"/>
</g>
<!-- Node11 -->
<g id="node11" class="node"><title>Node11</title>
<g id="a_node11"><a xlink:href="process_8c.html" target="_top" xlink:title="implementation of ceptr processing: instructions and run tree reduction ">
<polygon fill="white" stroke="black" points="1262,-112.5 1262,-131.5 1338,-131.5 1338,-112.5 1262,-112.5"/>
<text text-anchor="middle" x="1300" y="-119.5" font-family="Helvetica,sans-Serif" font-size="10.00">src/process.c</text>
</a>
</g>
</g>
<!-- Node1&#45;&gt;Node11 -->
<g id="edge61" class="edge"><title>Node1&#45;&gt;Node11</title>
<path fill="none" stroke="midnightblue" d="M1151.16,-328.405C1132.15,-303.489 1102.91,-255.938 1127,-224 1162.07,-177.503 1205.31,-221.437 1253,-188 1274.21,-173.129 1289.41,-145.555 1296.14,-131.586"/>
<polygon fill="midnightblue" stroke="midnightblue" points="1148.62,-330.837 1157.59,-336.49 1154.11,-326.482 1148.62,-330.837"/>
</g>
<!-- Node18 -->
<g id="node18" class="node"><title>Node18</title>
<g id="a_node18"><a xlink:href="receptor__spec_8h.html" target="_top" xlink:title="spec/receptor_spec.h">
<polygon fill="white" stroke="black" points="380,-112.5 380,-131.5 490,-131.5 490,-112.5 380,-112.5"/>
<text text-anchor="middle" x="435" y="-119.5" font-family="Helvetica,sans-Serif" font-size="10.00">spec/receptor_spec.h</text>
</a>
</g>
</g>
<!-- Node1&#45;&gt;Node18 -->
<g id="edge67" class="edge"><title>Node1&#45;&gt;Node18</title>
<path fill="none" stroke="midnightblue" d="M1127.13,-344.49C1026.61,-341.984 746.096,-327.436 532,-244 486.333,-226.203 461.965,-230.177 437,-188 426.533,-170.318 429.938,-144.924 432.781,-131.721"/>
<polygon fill="midnightblue" stroke="midnightblue" points="1127.32,-347.995 1137.39,-344.719 1127.47,-340.997 1127.32,-347.995"/>
</g>
<!-- Node20 -->
<g id="node20" class="node"><title>Node20</title>
<g id="a_node20"><a xlink:href="base__defs_8c.html" target="_top" xlink:title="auto&#45;generated system definitions ">
<polygon fill="white" stroke="black" points="234,-224.5 234,-243.5 320,-243.5 320,-224.5 234,-224.5"/>
<text text-anchor="middle" x="277" y="-231.5" font-family="Helvetica,sans-Serif" font-size="10.00">src/base_defs.c</text>
</a>
</g>
</g>
<!-- Node1&#45;&gt;Node20 -->
<g id="edge58" class="edge"><title>Node1&#45;&gt;Node20</title>
<path fill="none" stroke="midnightblue" d="M1127.07,-344.668C973.92,-343.094 405.855,-334.931 334,-300 308.623,-287.663 289.778,-258.391 281.557,-243.711"/>
<polygon fill="midnightblue" stroke="midnightblue" points="1127.34,-348.17 1137.37,-344.77 1127.41,-341.171 1127.34,-348.17"/>
</g>
<!-- Node23 -->
<g id="node23" class="node"><title>Node23</title>
<g id="a_node23"><a xlink:href="sys__defs_8c.html" target="_top" xlink:title="definition of system semantic elements for bootstrapping ">
<polygon fill="white" stroke="black" points="1271.5,-224.5 1271.5,-243.5 1352.5,-243.5 1352.5,-224.5 1271.5,-224.5"/>
<text text-anchor="middle" x="1312" y="-231.5" font-family="Helvetica,sans-Serif" font-size="10.00">src/sys_defs.c</text>
</a>
</g>
</g>
<!-- Node1&#45;&gt;Node23 -->
<g id="edge64" class="edge"><title>Node1&#45;&gt;Node23</title>
<path fill="none" stroke="midnightblue" d="M1173.3,-326.94C1180.67,-312.592 1192.64,-292.866 1208,-280 1228.96,-262.439 1257.82,-250.681 1279.82,-243.602"/>
<polygon fill="midnightblue" stroke="midnightblue" points="1169.99,-325.738 1168.76,-336.261 1176.28,-328.8 1169.99,-325.738"/>
</g>
<!-- Node24 -->
<g id="node24" class="node"><title>Node24</title>
<g id="a_node24"><a xlink:href="tree_8c.html" target="_top" xlink:title="semantic tree pointer implementation ">
<polygon fill="white" stroke="black" points="1371,-224.5 1371,-243.5 1429,-243.5 1429,-224.5 1371,-224.5"/>
<text text-anchor="middle" x="1400" y="-231.5" font-family="Helvetica,sans-Serif" font-size="10.00">src/tree.c</text>
</a>
</g>
</g>
<!-- Node1&#45;&gt;Node24 -->
<g id="edge65" class="edge"><title>Node1&#45;&gt;Node24</title>
<path fill="none" stroke="midnightblue" d="M1179.54,-329.112C1193.85,-314.383 1216.98,-292.864 1241,-280 1263.51,-267.946 1331.59,-250.899 1370.98,-241.63"/>
<polygon fill="midnightblue" stroke="midnightblue" points="1176.89,-326.829 1172.55,-336.498 1181.97,-331.64 1176.89,-326.829"/>
</g>
<!-- Node28 -->
<g id="node28" class="node"><title>Node28</title>
<g id="a_node28"><a xlink:href="http__example_8h.html" target="_top" xlink:title="spec/http_example.h">
<polygon fill="white" stroke="black" points="212.5,-168.5 212.5,-187.5 319.5,-187.5 319.5,-168.5 212.5,-168.5"/>
<text text-anchor="middle" x="266" y="-175.5" font-family="Helvetica,sans-Serif" font-size="10.00">spec/http_example.h</text>
</a>
</g>
</g>
<!-- Node1&#45;&gt;Node28 -->
<g id="edge66" class="edge"><title>Node1&#45;&gt;Node28</title>
<path fill="none" stroke="midnightblue" d="M1127.47,-344.254C972.05,-341.002 383.425,-326.994 305,-300 263.962,-285.875 245.043,-282.496 225,-244 214.032,-222.935 238.139,-199.739 253.846,-187.559"/>
<polygon fill="midnightblue" stroke="midnightblue" points="1127.41,-347.754 1137.48,-344.462 1127.56,-340.755 1127.41,-347.754"/>
</g>
<!-- Node32 -->
<g id="node32" class="node"><title>Node32</title>
<g id="a_node32"><a xlink:href="profile__example_8h.html" target="_top" xlink:title="spec/profile_example.h">
<polygon fill="white" stroke="black" points="1136.5,-224.5 1136.5,-243.5 1253.5,-243.5 1253.5,-224.5 1136.5,-224.5"/>
<text text-anchor="middle" x="1195" y="-231.5" font-family="Helvetica,sans-Serif" font-size="10.00">spec/profile_example.h</text>
</a>
</g>
</g>
<!-- Node1&#45;&gt;Node32 -->
<g id="edge68" class="edge"><title>Node1&#45;&gt;Node32</title>
<path fill="none" stroke="midnightblue" d="M1164.34,-326.182C1164.38,-312.991 1165.47,-295.09 1170,-280 1174.06,-266.477 1182.63,-252.505 1188.6,-243.789"/>
<polygon fill="midnightblue" stroke="midnightblue" points="1160.84,-326.433 1164.51,-336.374 1167.84,-326.317 1160.84,-326.433"/>
</g>
<!-- Node33 -->
<g id="node33" class="node"><title>Node33</title>
<g id="a_node33"><a xlink:href="def_8c.html" target="_top" xlink:title="implementation file for symbol and structure definition functions ">
<polygon fill="white" stroke="black" points="1250.5,-280.5 1250.5,-299.5 1305.5,-299.5 1305.5,-280.5 1250.5,-280.5"/>
<text text-anchor="middle" x="1278" y="-287.5" font-family="Helvetica,sans-Serif" font-size="10.00">src/def.c</text>
</a>
</g>
</g>
<!-- Node1&#45;&gt;Node33 -->
<g id="edge59" class="edge"><title>Node1&#45;&gt;Node33</title>
<path fill="none" stroke="midnightblue" d="M1192,-332.096C1213.11,-322.007 1241.86,-308.27 1260.18,-299.516"/>
<polygon fill="midnightblue" stroke="midnightblue" points="1190.42,-328.974 1182.91,-336.444 1193.44,-335.29 1190.42,-328.974"/>
</g>
<!-- Node34 -->
<g id="node34" class="node"><title>Node34</title>
<g id="a_node34"><a xlink:href="mtree_8c.html" target="_top" xlink:title="semantic tree matrix implementation ">
<polygon fill="white" stroke="black" points="1324,-280.5 1324,-299.5 1390,-299.5 1390,-280.5 1324,-280.5"/>
<text text-anchor="middle" x="1357" y="-287.5" font-family="Helvetica,sans-Serif" font-size="10.00">src/mtree.c</text>
</a>
</g>
</g>
<!-- Node1&#45;&gt;Node34 -->
<g id="edge60" class="edge"><title>Node1&#45;&gt;Node34</title>
<path fill="none" stroke="midnightblue" d="M1202.23,-334.53C1238.5,-324.328 1292.98,-309.006 1326.69,-299.524"/>
<polygon fill="midnightblue" stroke="midnightblue" points="1201.19,-331.186 1192.51,-337.263 1203.08,-337.925 1201.19,-331.186"/>
</g>
<!-- Node35 -->
<g id="node35" class="node"><title>Node35</title>
<g id="a_node35"><a xlink:href="semtable_8c.html" target="_top" xlink:title="implementation of table for coordinating meaning across a vmhost ">
<polygon fill="white" stroke="black" points="1408.5,-280.5 1408.5,-299.5 1489.5,-299.5 1489.5,-280.5 1408.5,-280.5"/>
<text text-anchor="middle" x="1449" y="-287.5" font-family="Helvetica,sans-Serif" font-size="10.00">src/semtable.c</text>
</a>
</g>
</g>
<!-- Node1&#45;&gt;Node35 -->
<g id="edge62" class="edge"><title>Node1&#45;&gt;Node35</title>
<path fill="none" stroke="midnightblue" d="M1202.83,-337.807C1256.29,-327.643 1353.52,-309.155 1408.43,-298.714"/>
<polygon fill="midnightblue" stroke="midnightblue" points="1201.92,-334.418 1192.75,-339.724 1203.23,-341.294 1201.92,-334.418"/>
</g>
<!-- Node36 -->
<g id="node36" class="node"><title>Node36</title>
<g id="a_node36"><a xlink:href="semtrex_8c.html" target="_top" xlink:title="semtrex implementation ">
<polygon fill="white" stroke="black" points="1507.5,-280.5 1507.5,-299.5 1584.5,-299.5 1584.5,-280.5 1507.5,-280.5"/>
<text text-anchor="middle" x="1546" y="-287.5" font-family="Helvetica,sans-Serif" font-size="10.00">src/semtrex.c</text>
</a>
</g>
</g>
<!-- Node1&#45;&gt;Node36 -->
<g id="edge63" class="edge"><title>Node1&#45;&gt;Node36</title>
<path fill="none" stroke="midnightblue" d="M1202.77,-340.534C1264.61,-333.076 1391.29,-317.203 1498,-300 1501.01,-299.514 1504.13,-298.987 1507.26,-298.44"/>
<polygon fill="midnightblue" stroke="midnightblue" points="1202.21,-337.075 1192.7,-341.742 1203.05,-344.025 1202.21,-337.075"/>
</g>
<!-- Node3 -->
<g id="node3" class="node"><title>Node3</title>
<g id="a_node3"><a xlink:href="vmhost_8h.html" target="_top" xlink:title="vmhost implementation header file ">
<polygon fill="white" stroke="black" points="658,-224.5 658,-243.5 732,-243.5 732,-224.5 658,-224.5"/>
<text text-anchor="middle" x="695" y="-231.5" font-family="Helvetica,sans-Serif" font-size="10.00">src/vmhost.h</text>
</a>
</g>
</g>
<!-- Node2&#45;&gt;Node3 -->
<g id="edge2" class="edge"><title>Node2&#45;&gt;Node3</title>
<path fill="none" stroke="midnightblue" d="M809.077,-276.906C781.44,-266.754 742.656,-252.506 718.184,-243.516"/>
<polygon fill="midnightblue" stroke="midnightblue" points="808.114,-280.281 818.707,-280.444 810.528,-273.71 808.114,-280.281"/>
</g>
<!-- Node5 -->
<g id="node5" class="node"><title>Node5</title>
<g id="a_node5"><a xlink:href="accumulator_8c.html" target="_top" xlink:title="implementation file for accumulator ">
<polygon fill="white" stroke="black" points="1053.5,-112.5 1053.5,-131.5 1148.5,-131.5 1148.5,-112.5 1053.5,-112.5"/>
<text text-anchor="middle" x="1101" y="-119.5" font-family="Helvetica,sans-Serif" font-size="10.00">src/accumulator.c</text>
</a>
</g>
</g>
<!-- Node2&#45;&gt;Node5 -->
<g id="edge25" class="edge"><title>Node2&#45;&gt;Node5</title>
<path fill="none" stroke="midnightblue" d="M851.653,-271.595C867.199,-245.186 900.305,-195.196 942,-168 961.523,-155.266 1020.33,-140.566 1060.68,-131.527"/>
<polygon fill="midnightblue" stroke="midnightblue" points="848.505,-270.049 846.573,-280.466 854.58,-273.527 848.505,-270.049"/>
</g>
<!-- Node2&#45;&gt;Node11 -->
<g id="edge33" class="edge"><title>Node2&#45;&gt;Node11</title>
<path fill="none" stroke="midnightblue" d="M866.612,-275.59C881.76,-267.053 901.39,-255.478 918,-244 940.242,-228.631 988.228,-178.829 1013,-168 1111.43,-124.972 1146.08,-149.901 1252,-132 1255.18,-131.463 1258.47,-130.887 1261.77,-130.296"/>
<polygon fill="midnightblue" stroke="midnightblue" points="864.859,-272.56 857.826,-280.484 868.265,-278.675 864.859,-272.56"/>
</g>
<!-- Node12 -->
<g id="node12" class="node"><title>Node12</title>
<g id="a_node12"><a xlink:href="receptor_8c.html" target="_top" xlink:title="receptor implementation ">
<polygon fill="white" stroke="black" points="1166.5,-112.5 1166.5,-131.5 1243.5,-131.5 1243.5,-112.5 1166.5,-112.5"/>
<text text-anchor="middle" x="1205" y="-119.5" font-family="Helvetica,sans-Serif" font-size="10.00">src/receptor.c</text>
</a>
</g>
</g>
<!-- Node2&#45;&gt;Node12 -->
<g id="edge34" class="edge"><title>Node2&#45;&gt;Node12</title>
<path fill="none" stroke="midnightblue" d="M859.387,-273.328C894.885,-241.39 972.958,-171.477 980,-168 984.191,-165.931 1103.26,-142.692 1166.44,-130.449"/>
<polygon fill="midnightblue" stroke="midnightblue" points="856.818,-270.931 851.729,-280.223 861.502,-276.133 856.818,-270.931"/>
</g>
<!-- Node2&#45;&gt;Node18 -->
<g id="edge53" class="edge"><title>Node2&#45;&gt;Node18</title>
<path fill="none" stroke="midnightblue" d="M793.166,-283.849C752.856,-278.162 695.01,-266.63 649,-244 601.101,-220.441 602.308,-194.551 556,-168 527.321,-151.557 491.521,-139.123 466.327,-131.537"/>
<polygon fill="midnightblue" stroke="midnightblue" points="792.898,-287.344 803.275,-285.204 793.829,-280.406 792.898,-287.344"/>
</g>
<!-- Node2&#45;&gt;Node20 -->
<g id="edge26" class="edge"><title>Node2&#45;&gt;Node20</title>
<path fill="none" stroke="midnightblue" d="M793.122,-284.329C684.342,-273.932 423.715,-249.022 320.325,-239.141"/>
<polygon fill="midnightblue" stroke="midnightblue" points="792.878,-287.821 803.165,-285.288 793.544,-280.853 792.878,-287.821"/>
</g>
<!-- Node21 -->
<g id="node21" class="node"><title>Node21</title>
<g id="a_node21"><a xlink:href="protocol_8h.html" target="_top" xlink:title="protocol helpers header file ">
<polygon fill="white" stroke="black" points="756,-112.5 756,-131.5 832,-131.5 832,-112.5 756,-112.5"/>
<text text-anchor="middle" x="794" y="-119.5" font-family="Helvetica,sans-Serif" font-size="10.00">src/protocol.h</text>
</a>
</g>
</g>
<!-- Node2&#45;&gt;Node21 -->
<g id="edge27" class="edge"><title>Node2&#45;&gt;Node21</title>
<path fill="none" stroke="midnightblue" d="M828.932,-272.265C814.902,-253.141 793.485,-220.299 785,-188 779.79,-168.167 786.356,-144.089 790.714,-131.541"/>
<polygon fill="midnightblue" stroke="midnightblue" points="826.32,-274.614 835.137,-280.489 831.907,-270.398 826.32,-274.614"/>
</g>
<!-- Node2&#45;&gt;Node23 -->
<g id="edge35" class="edge"><title>Node2&#45;&gt;Node23</title>
<path fill="none" stroke="midnightblue" d="M890.686,-284.92C969.089,-278.095 1128.09,-263.2 1262,-244 1265.06,-243.562 1268.21,-243.075 1271.38,-242.562"/>
<polygon fill="midnightblue" stroke="midnightblue" points="890.284,-281.442 880.622,-285.791 890.887,-288.416 890.284,-281.442"/>
</g>
<!-- Node2&#45;&gt;Node24 -->
<g id="edge36" class="edge"><title>Node2&#45;&gt;Node24</title>
<path fill="none" stroke="midnightblue" d="M890.794,-287.054C983.093,-282.869 1189.39,-271.104 1361,-244 1364.16,-243.501 1367.44,-242.891 1370.7,-242.226"/>
<polygon fill="midnightblue" stroke="midnightblue" points="890.474,-283.565 880.639,-287.505 890.784,-290.558 890.474,-283.565"/>
</g>
<!-- Node25 -->
<g id="node25" class="node"><title>Node25</title>
<g id="a_node25"><a xlink:href="semtable__spec_8h.html" target="_top" xlink:title="spec/semtable_spec.h">
<polygon fill="white" stroke="black" points="1022.5,-168.5 1022.5,-187.5 1137.5,-187.5 1137.5,-168.5 1022.5,-168.5"/>
<text text-anchor="middle" x="1080" y="-175.5" font-family="Helvetica,sans-Serif" font-size="10.00">spec/semtable_spec.h</text>
</a>
</g>
</g>
<!-- Node2&#45;&gt;Node25 -->
<g id="edge37" class="edge"><title>Node2&#45;&gt;Node25</title>
<path fill="none" stroke="midnightblue" d="M891.082,-281.929C925.388,-275.533 971.419,-263.962 1008,-244 1035.5,-228.996 1061.04,-201.482 1072.96,-187.556"/>
<polygon fill="midnightblue" stroke="midnightblue" points="890.067,-278.555 880.835,-283.752 891.293,-285.446 890.067,-278.555"/>
</g>
<!-- Node26 -->
<g id="node26" class="node"><title>Node26</title>
<g id="a_node26"><a xlink:href="def__spec_8h.html" target="_top" xlink:title="spec/def_spec.h">
<polygon fill="white" stroke="black" points="1155.5,-168.5 1155.5,-187.5 1244.5,-187.5 1244.5,-168.5 1155.5,-168.5"/>
<text text-anchor="middle" x="1200" y="-175.5" font-family="Helvetica,sans-Serif" font-size="10.00">spec/def_spec.h</text>
</a>
</g>
</g>
<!-- Node2&#45;&gt;Node26 -->
<g id="edge39" class="edge"><title>Node2&#45;&gt;Node26</title>
<path fill="none" stroke="midnightblue" d="M890.544,-279.943C930.334,-272.01 987.888,-259.36 1037,-244 1090.5,-227.267 1151.3,-201.009 1181.27,-187.562"/>
<polygon fill="midnightblue" stroke="midnightblue" points="889.71,-276.54 880.574,-281.907 891.062,-283.408 889.71,-276.54"/>
</g>
<!-- Node27 -->
<g id="node27" class="node"><title>Node27</title>
<g id="a_node27"><a xlink:href="tree__spec_8h.html" target="_top" xlink:title="spec/tree_spec.h">
<polygon fill="white" stroke="black" points="38,-112.5 38,-131.5 130,-131.5 130,-112.5 38,-112.5"/>
<text text-anchor="middle" x="84" y="-119.5" font-family="Helvetica,sans-Serif" font-size="10.00">spec/tree_spec.h</text>
</a>
</g>
</g>
<!-- Node2&#45;&gt;Node27 -->
<g id="edge41" class="edge"><title>Node2&#45;&gt;Node27</title>
<path fill="none" stroke="midnightblue" d="M793.008,-287.386C716.339,-284.004 563.757,-273.819 438,-244 413.097,-238.095 408.628,-230.963 384,-224 305.073,-201.687 280.1,-215.981 203,-188 161.841,-173.063 117.672,-145.518 96.5943,-131.572"/>
<polygon fill="midnightblue" stroke="midnightblue" points="793.174,-290.896 803.312,-287.819 793.468,-283.902 793.174,-290.896"/>
</g>
<!-- Node2&#45;&gt;Node28 -->
<g id="edge43" class="edge"><title>Node2&#45;&gt;Node28</title>
<path fill="none" stroke="midnightblue" d="M793.238,-286.982C723.914,-283.186 593.362,-272.591 486,-244 463.667,-238.053 459.899,-231.387 438,-224 392.96,-208.807 339.866,-195.608 304.706,-187.503"/>
<polygon fill="midnightblue" stroke="midnightblue" points="793.249,-290.488 803.418,-287.515 793.615,-283.497 793.249,-290.488"/>
</g>
<!-- Node29 -->
<g id="node29" class="node"><title>Node29</title>
<g id="a_node29"><a xlink:href="mtree__spec_8h.html" target="_top" xlink:title="spec/mtree_spec.h">
<polygon fill="white" stroke="black" points="186,-112.5 186,-131.5 286,-131.5 286,-112.5 186,-112.5"/>
<text text-anchor="middle" x="236" y="-119.5" font-family="Helvetica,sans-Serif" font-size="10.00">spec/mtree_spec.h</text>
</a>
</g>
</g>
<!-- Node2&#45;&gt;Node29 -->
<g id="edge50" class="edge"><title>Node2&#45;&gt;Node29</title>
<path fill="none" stroke="midnightblue" d="M792.974,-285.594C731.223,-280.463 622.272,-268.605 532,-244 503.545,-236.244 318.377,-157.992 256.27,-131.622"/>
<polygon fill="midnightblue" stroke="midnightblue" points="792.956,-289.104 803.205,-286.418 793.518,-282.126 792.956,-289.104"/>
</g>
<!-- Node30 -->
<g id="node30" class="node"><title>Node30</title>
<g id="a_node30"><a xlink:href="semtrex__spec_8h.html" target="_top" xlink:title="spec/semtrex_spec.h">
<polygon fill="white" stroke="black" points="0,-168.5 0,-187.5 110,-187.5 110,-168.5 0,-168.5"/>
<text text-anchor="middle" x="55" y="-175.5" font-family="Helvetica,sans-Serif" font-size="10.00">spec/semtrex_spec.h</text>
</a>
</g>
</g>
<!-- Node2&#45;&gt;Node30 -->
<g id="edge51" class="edge"><title>Node2&#45;&gt;Node30</title>
<path fill="none" stroke="midnightblue" d="M793.009,-286.111C712.585,-280.874 547.736,-268.059 410,-244 373.472,-237.619 365.324,-231.455 329,-224 253.562,-208.517 165.577,-194.835 110.08,-186.734"/>
<polygon fill="midnightblue" stroke="midnightblue" points="793.118,-289.625 803.321,-286.771 793.565,-282.639 793.118,-289.625"/>
</g>
<!-- Node31 -->
<g id="node31" class="node"><title>Node31</title>
<g id="a_node31"><a xlink:href="scape__spec_8h.html" target="_top" xlink:title="spec/scape_spec.h">
<polygon fill="white" stroke="black" points="446.5,-168.5 446.5,-187.5 547.5,-187.5 547.5,-168.5 446.5,-168.5"/>
<text text-anchor="middle" x="497" y="-175.5" font-family="Helvetica,sans-Serif" font-size="10.00">spec/scape_spec.h</text>
</a>
</g>
</g>
<!-- Node2&#45;&gt;Node31 -->
<g id="edge54" class="edge"><title>Node2&#45;&gt;Node31</title>
<path fill="none" stroke="midnightblue" d="M793.063,-284.789C723.869,-278.22 601.461,-264.163 562,-244 535.567,-230.494 513.231,-202.301 502.993,-187.893"/>
<polygon fill="midnightblue" stroke="midnightblue" points="792.998,-288.298 803.28,-285.741 793.648,-281.328 792.998,-288.298"/>
</g>
<!-- Node2&#45;&gt;Node32 -->
<g id="edge56" class="edge"><title>Node2&#45;&gt;Node32</title>
<path fill="none" stroke="midnightblue" d="M890.795,-281.536C955.914,-271.574 1070.95,-253.977 1139.36,-243.511"/>
<polygon fill="midnightblue" stroke="midnightblue" points="890.143,-278.095 880.787,-283.067 891.201,-285.014 890.143,-278.095"/>
</g>
<!-- Node4 -->
<g id="node4" class="node"><title>Node4</title>
<g id="a_node4"><a xlink:href="accumulator_8h.html" target="_top" xlink:title="header file for the accumulator ">
<polygon fill="white" stroke="black" points="794.5,-168.5 794.5,-187.5 889.5,-187.5 889.5,-168.5 794.5,-168.5"/>
<text text-anchor="middle" x="842" y="-175.5" font-family="Helvetica,sans-Serif" font-size="10.00">src/accumulator.h</text>
</a>
</g>
</g>
<!-- Node3&#45;&gt;Node4 -->
<g id="edge3" class="edge"><title>Node3&#45;&gt;Node4</title>
<path fill="none" stroke="midnightblue" d="M727.923,-220.906C755.56,-210.754 794.344,-196.506 818.816,-187.516"/>
<polygon fill="midnightblue" stroke="midnightblue" points="726.472,-217.71 718.293,-224.444 728.886,-224.281 726.472,-217.71"/>
</g>
<!-- Node15 -->
<g id="node15" class="node"><title>Node15</title>
<g id="a_node15"><a xlink:href="vmhost__spec_8h.html" target="_top" xlink:title="spec/vmhost_spec.h">
<polygon fill="white" stroke="black" points="463.5,-56.5 463.5,-75.5 570.5,-75.5 570.5,-56.5 463.5,-56.5"/>
<text text-anchor="middle" x="517" y="-63.5" font-family="Helvetica,sans-Serif" font-size="10.00">spec/vmhost_spec.h</text>
</a>
</g>
</g>
<!-- Node3&#45;&gt;Node15 -->
<g id="edge24" class="edge"><title>Node3&#45;&gt;Node15</title>
<path fill="none" stroke="midnightblue" d="M680.197,-216.831C666.453,-202.544 644.871,-181.877 623,-168 588.012,-145.801 564.83,-162.699 537,-132 522.409,-115.905 518.46,-89.3674 517.394,-75.7132"/>
<polygon fill="midnightblue" stroke="midnightblue" points="677.924,-219.523 687.327,-224.407 683.022,-214.726 677.924,-219.523"/>
</g>
<!-- Node16 -->
<g id="node16" class="node"><title>Node16</title>
<g id="a_node16"><a xlink:href="vmhost_8c.html" target="_top" xlink:title="virtual machine host receptor implementation ">
<polygon fill="white" stroke="black" points="546,-112.5 546,-131.5 620,-131.5 620,-112.5 546,-112.5"/>
<text text-anchor="middle" x="583" y="-119.5" font-family="Helvetica,sans-Serif" font-size="10.00">src/vmhost.c</text>
</a>
</g>
</g>
<!-- Node3&#45;&gt;Node16 -->
<g id="edge22" class="edge"><title>Node3&#45;&gt;Node16</title>
<path fill="none" stroke="midnightblue" d="M690.254,-214.407C685.879,-200.305 678.187,-181.166 666,-168 650.077,-150.799 626.045,-138.773 607.931,-131.509"/>
<polygon fill="midnightblue" stroke="midnightblue" points="686.995,-215.749 693.074,-224.427 693.733,-213.853 686.995,-215.749"/>
</g>
<!-- Node3&#45;&gt;Node18 -->
<g id="edge23" class="edge"><title>Node3&#45;&gt;Node18</title>
<path fill="none" stroke="midnightblue" d="M675.441,-218.625C655.001,-204.16 621.569,-182.039 590,-168 552.491,-151.32 507.152,-138.994 475.228,-131.501"/>
<polygon fill="midnightblue" stroke="midnightblue" points="673.449,-221.504 683.613,-224.493 677.531,-215.818 673.449,-221.504"/>
</g>
<!-- Node19 -->
<g id="node19" class="node"><title>Node19</title>
<g id="a_node19"><a xlink:href="protocol_8c.html" target="_top" xlink:title="implementation of protocol helpers ">
<polygon fill="white" stroke="black" points="668,-56.5 668,-75.5 744,-75.5 744,-56.5 668,-56.5"/>
<text text-anchor="middle" x="706" y="-63.5" font-family="Helvetica,sans-Serif" font-size="10.00">src/protocol.c</text>
</a>
</g>
</g>
<!-- Node3&#45;&gt;Node19 -->
<g id="edge21" class="edge"><title>Node3&#45;&gt;Node19</title>
<path fill="none" stroke="midnightblue" d="M698.365,-214.379C701.833,-194.174 707.005,-160.922 709,-132 709.612,-123.132 709.296,-120.884 709,-112 708.578,-99.3227 707.489,-84.6698 706.746,-75.6183"/>
<polygon fill="midnightblue" stroke="midnightblue" points="694.889,-213.94 696.601,-224.395 701.783,-215.154 694.889,-213.94"/>
</g>
<!-- Node4&#45;&gt;Node5 -->
<g id="edge4" class="edge"><title>Node4&#45;&gt;Node5</title>
<path fill="none" stroke="midnightblue" d="M893.102,-166.346C942.048,-156.141 1014.95,-140.94 1060.15,-131.516"/>
<polygon fill="midnightblue" stroke="midnightblue" points="892.114,-162.976 883.039,-168.444 893.543,-169.829 892.114,-162.976"/>
</g>
<!-- Node6 -->
<g id="node6" class="node"><title>Node6</title>
<g id="a_node6"><a xlink:href="ceptr_8c.html" target="_top" xlink:title="implements main() entry point for the ceptr node ">
<polygon fill="white" stroke="black" points="850.5,-112.5 850.5,-131.5 913.5,-131.5 913.5,-112.5 850.5,-112.5"/>
<text text-anchor="middle" x="882" y="-119.5" font-family="Helvetica,sans-Serif" font-size="10.00">src/ceptr.c</text>
</a>
</g>
</g>
<!-- Node4&#45;&gt;Node6 -->
<g id="edge5" class="edge"><title>Node4&#45;&gt;Node6</title>
<path fill="none" stroke="midnightblue" d="M854.7,-159.855C861.626,-150.505 869.906,-139.327 875.518,-131.751"/>
<polygon fill="midnightblue" stroke="midnightblue" points="851.745,-157.964 848.605,-168.083 857.37,-162.131 851.745,-157.964"/>
</g>
<!-- Node7 -->
<g id="node7" class="node"><title>Node7</title>
<g id="a_node7"><a xlink:href="group_8h.html" target="_top" xlink:title="group communication receptors header file ">
<polygon fill="white" stroke="black" points="931.5,-112.5 931.5,-131.5 996.5,-131.5 996.5,-112.5 931.5,-112.5"/>
<text text-anchor="middle" x="964" y="-119.5" font-family="Helvetica,sans-Serif" font-size="10.00">src/group.h</text>
</a>
</g>
</g>
<!-- Node4&#45;&gt;Node7 -->
<g id="edge6" class="edge"><title>Node4&#45;&gt;Node7</title>
<path fill="none" stroke="midnightblue" d="M870.539,-164.368C893.386,-154.255 924.805,-140.349 944.759,-131.516"/>
<polygon fill="midnightblue" stroke="midnightblue" points="869.059,-161.196 861.331,-168.444 871.892,-167.597 869.059,-161.196"/>
</g>
<!-- Node4&#45;&gt;Node11 -->
<g id="edge10" class="edge"><title>Node4&#45;&gt;Node11</title>
<path fill="none" stroke="midnightblue" d="M900.118,-172.024C979.739,-164.887 1127.1,-150.536 1252,-132 1255.19,-131.527 1258.49,-130.996 1261.79,-130.435"/>
<polygon fill="midnightblue" stroke="midnightblue" points="899.462,-168.568 889.811,-172.941 900.082,-175.541 899.462,-168.568"/>
</g>
<!-- Node4&#45;&gt;Node12 -->
<g id="edge11" class="edge"><title>Node4&#45;&gt;Node12</title>
<path fill="none" stroke="midnightblue" d="M899.768,-169.514C963.031,-161.136 1067.42,-146.789 1157,-132 1160.01,-131.503 1163.13,-130.967 1166.25,-130.415"/>
<polygon fill="midnightblue" stroke="midnightblue" points="899.05,-166.078 889.594,-170.856 899.966,-173.018 899.05,-166.078"/>
</g>
<!-- Node13 -->
<g id="node13" class="node"><title>Node13</title>
<g id="a_node13"><a xlink:href="shell_8h.html" target="_top" xlink:title="command line shell receptor header files ">
<polygon fill="white" stroke="black" points="638,-112.5 638,-131.5 700,-131.5 700,-112.5 638,-112.5"/>
<text text-anchor="middle" x="669" y="-119.5" font-family="Helvetica,sans-Serif" font-size="10.00">src/shell.h</text>
</a>
</g>
</g>
<!-- Node4&#45;&gt;Node13 -->
<g id="edge12" class="edge"><title>Node4&#45;&gt;Node13</title>
<path fill="none" stroke="midnightblue" d="M804.953,-165.436C772.336,-155.255 725.59,-140.664 696.284,-131.516"/>
<polygon fill="midnightblue" stroke="midnightblue" points="803.999,-168.805 814.588,-168.444 806.085,-162.123 803.999,-168.805"/>
</g>
<!-- Node4&#45;&gt;Node16 -->
<g id="edge16" class="edge"><title>Node4&#45;&gt;Node16</title>
<path fill="none" stroke="midnightblue" d="M790.937,-166.354C740.603,-155.859 664.904,-140.076 620.071,-130.729"/>
<polygon fill="midnightblue" stroke="midnightblue" points="790.457,-169.829 800.961,-168.444 791.886,-162.976 790.457,-169.829"/>
</g>
<!-- Node17 -->
<g id="node17" class="node"><title>Node17</title>
<g id="a_node17"><a xlink:href="accumulator__spec_8h_source.html" target="_top" xlink:title="spec/accumulator_spec.h">
<polygon fill="white" stroke="black" points="1091,-56.5 1091,-75.5 1219,-75.5 1219,-56.5 1091,-56.5"/>
<text text-anchor="middle" x="1155" y="-63.5" font-family="Helvetica,sans-Serif" font-size="10.00">spec/accumulator_spec.h</text>
</a>
</g>
</g>
<!-- Node4&#45;&gt;Node17 -->
<g id="edge17" class="edge"><title>Node4&#45;&gt;Node17</title>
<path fill="none" stroke="midnightblue" d="M891.393,-166.152C924.162,-158.281 967.816,-146.491 1005,-132 1023.15,-124.927 1026.29,-120.112 1044,-112 1074.06,-98.232 1109.6,-84.2073 1132.21,-75.556"/>
<polygon fill="midnightblue" stroke="midnightblue" points="890.519,-162.762 881.592,-168.468 892.128,-169.575 890.519,-162.762"/>
</g>
<!-- Node4&#45;&gt;Node18 -->
<g id="edge19" class="edge"><title>Node4&#45;&gt;Node18</title>
<path fill="none" stroke="midnightblue" d="M783.937,-169.296C705.583,-158.9 566.984,-140.511 490.155,-130.318"/>
<polygon fill="midnightblue" stroke="midnightblue" points="783.742,-172.801 794.115,-170.647 784.662,-165.862 783.742,-172.801"/>
</g>
<!-- Node8 -->
<g id="node8" class="node"><title>Node8</title>
<g id="a_node8"><a xlink:href="group_8c.html" target="_top" xlink:title="implementation of some group communication receptors ">
<polygon fill="white" stroke="black" points="890.5,-56.5 890.5,-75.5 955.5,-75.5 955.5,-56.5 890.5,-56.5"/>
<text text-anchor="middle" x="923" y="-63.5" font-family="Helvetica,sans-Serif" font-size="10.00">src/group.c</text>
</a>
</g>
</g>
<!-- Node7&#45;&gt;Node8 -->
<g id="edge7" class="edge"><title>Node7&#45;&gt;Node8</title>
<path fill="none" stroke="midnightblue" d="M950.983,-103.855C943.883,-94.5048 935.396,-83.3265 929.644,-75.7511"/>
<polygon fill="midnightblue" stroke="midnightblue" points="948.395,-106.235 957.23,-112.083 953.97,-102.002 948.395,-106.235"/>
</g>
<!-- Node9 -->
<g id="node9" class="node"><title>Node9</title>
<g id="a_node9"><a xlink:href="group__spec_8h.html" target="_top" xlink:title="spec/group_spec.h">
<polygon fill="white" stroke="black" points="973.5,-56.5 973.5,-75.5 1072.5,-75.5 1072.5,-56.5 973.5,-56.5"/>
<text text-anchor="middle" x="1023" y="-63.5" font-family="Helvetica,sans-Serif" font-size="10.00">spec/group_spec.h</text>
</a>
</g>
</g>
<!-- Node7&#45;&gt;Node9 -->
<g id="edge8" class="edge"><title>Node7&#45;&gt;Node9</title>
<path fill="none" stroke="midnightblue" d="M980.895,-105.537C991.415,-95.9087 1004.57,-83.8694 1013.35,-75.8339"/>
<polygon fill="midnightblue" stroke="midnightblue" points="978.493,-102.99 973.479,-112.324 983.219,-108.154 978.493,-102.99"/>
</g>
<!-- Node10 -->
<g id="node10" class="node"><title>Node10</title>
<g id="a_node10"><a xlink:href="ceptr__specs_8c.html" target="_top" xlink:title="implements a main() entry point for running all the tests ">
<polygon fill="white" stroke="black" points="466,-0.5 466,-19.5 568,-19.5 568,-0.5 466,-0.5"/>
<text text-anchor="middle" x="517" y="-7.5" font-family="Helvetica,sans-Serif" font-size="10.00">spec/ceptr_specs.c</text>
</a>
</g>
</g>
<!-- Node9&#45;&gt;Node10 -->
<g id="edge9" class="edge"><title>Node9&#45;&gt;Node10</title>
<path fill="none" stroke="midnightblue" d="M963.144,-55.9551C813.269,-37.1988 649.291,-22.292 568.044,-15.2846"/>
<polygon fill="midnightblue" stroke="midnightblue" points="963.092,-59.4762 973.451,-57.2541 963.967,-52.5312 963.092,-59.4762"/>
</g>
<!-- Node14 -->
<g id="node14" class="node"><title>Node14</title>
<g id="a_node14"><a xlink:href="shell_8c.html" target="_top" xlink:title="implementation of a command line shell receptor ">
<polygon fill="white" stroke="black" points="588,-56.5 588,-75.5 650,-75.5 650,-56.5 588,-56.5"/>
<text text-anchor="middle" x="619" y="-63.5" font-family="Helvetica,sans-Serif" font-size="10.00">src/shell.c</text>
</a>
</g>
</g>
<!-- Node13&#45;&gt;Node14 -->
<g id="edge13" class="edge"><title>Node13&#45;&gt;Node14</title>
<path fill="none" stroke="midnightblue" d="M653.924,-104.718C645.111,-95.1997 634.334,-83.5608 627.103,-75.7511"/>
<polygon fill="midnightblue" stroke="midnightblue" points="651.381,-107.123 660.744,-112.083 656.518,-102.367 651.381,-107.123"/>
</g>
<!-- Node13&#45;&gt;Node15 -->
<g id="edge14" class="edge"><title>Node13&#45;&gt;Node15</title>
<path fill="none" stroke="midnightblue" d="M635.332,-109.039C606.732,-98.8786 566.388,-84.5457 540.972,-75.5164"/>
<polygon fill="midnightblue" stroke="midnightblue" points="634.32,-112.394 644.915,-112.444 636.664,-105.798 634.32,-112.394"/>
</g>
<!-- Node15&#45;&gt;Node10 -->
<g id="edge15" class="edge"><title>Node15&#45;&gt;Node10</title>
<path fill="none" stroke="midnightblue" d="M517,-45.8045C517,-36.9102 517,-26.7798 517,-19.7511"/>
<polygon fill="midnightblue" stroke="midnightblue" points="513.5,-46.083 517,-56.083 520.5,-46.083 513.5,-46.083"/>
</g>
<!-- Node17&#45;&gt;Node10 -->
<g id="edge18" class="edge"><title>Node17&#45;&gt;Node10</title>
<path fill="none" stroke="midnightblue" d="M1080.63,-56.0082C884.472,-36.4456 665.323,-20.9224 568.004,-14.3588"/>
<polygon fill="midnightblue" stroke="midnightblue" points="1080.54,-59.5168 1090.84,-57.0323 1081.24,-52.5517 1080.54,-59.5168"/>
</g>
<!-- Node18&#45;&gt;Node10 -->
<g id="edge20" class="edge"><title>Node18&#45;&gt;Node10</title>
<path fill="none" stroke="midnightblue" d="M437.188,-101.963C439.533,-88.1713 444.321,-69.6301 454,-56 465.517,-39.7804 484.774,-27.2744 498.972,-19.6092"/>
<polygon fill="midnightblue" stroke="midnightblue" points="433.672,-101.828 435.739,-112.22 440.604,-102.807 433.672,-101.828"/>
</g>
<!-- Node21&#45;&gt;Node8 -->
<g id="edge28" class="edge"><title>Node21&#45;&gt;Node8</title>
<path fill="none" stroke="midnightblue" d="M823.854,-108.503C848.038,-98.3795 881.462,-84.388 902.655,-75.5164"/>
<polygon fill="midnightblue" stroke="midnightblue" points="822.313,-105.354 814.44,-112.444 825.016,-111.811 822.313,-105.354"/>
</g>
<!-- Node21&#45;&gt;Node15 -->
<g id="edge30" class="edge"><title>Node21&#45;&gt;Node15</title>
<path fill="none" stroke="midnightblue" d="M745.762,-111.596C693.584,-101.424 611.126,-85.3495 560.762,-75.5313"/>
<polygon fill="midnightblue" stroke="midnightblue" points="745.29,-115.07 755.775,-113.548 746.63,-108.199 745.29,-115.07"/>
</g>
<!-- Node21&#45;&gt;Node19 -->
<g id="edge29" class="edge"><title>Node21&#45;&gt;Node19</title>
<path fill="none" stroke="midnightblue" d="M771.023,-106.901C754.887,-96.9986 733.819,-84.0705 720.104,-75.6545"/>
<polygon fill="midnightblue" stroke="midnightblue" points="769.507,-110.077 779.861,-112.324 773.169,-104.111 769.507,-110.077"/>
</g>
<!-- Node22 -->
<g id="node22" class="node"><title>Node22</title>
<g id="a_node22"><a xlink:href="protocol__spec_8h.html" target="_top" xlink:title="spec/protocol_spec.h">
<polygon fill="white" stroke="black" points="762,-56.5 762,-75.5 872,-75.5 872,-56.5 762,-56.5"/>
<text text-anchor="middle" x="817" y="-63.5" font-family="Helvetica,sans-Serif" font-size="10.00">spec/protocol_spec.h</text>
</a>
</g>
</g>
<!-- Node21&#45;&gt;Node22 -->
<g id="edge31" class="edge"><title>Node21&#45;&gt;Node22</title>
<path fill="none" stroke="midnightblue" d="M801.799,-102.69C805.675,-93.589 810.179,-83.0141 813.273,-75.7511"/>
<polygon fill="midnightblue" stroke="midnightblue" points="798.497,-101.511 797.798,-112.083 804.937,-104.254 798.497,-101.511"/>
</g>
<!-- Node22&#45;&gt;Node10 -->
<g id="edge32" class="edge"><title>Node22&#45;&gt;Node10</title>
<path fill="none" stroke="midnightblue" d="M759.579,-54.6642C702.884,-44.4592 617.214,-29.0386 564.313,-19.5164"/>
<polygon fill="midnightblue" stroke="midnightblue" points="759.002,-58.1166 769.464,-56.4435 760.242,-51.2273 759.002,-58.1166"/>
</g>
<!-- Node25&#45;&gt;Node10 -->
<g id="edge38" class="edge"><title>Node25&#45;&gt;Node10</title>
<path fill="none" stroke="midnightblue" d="M1146.29,-166.897C1224.29,-154.852 1343.74,-135.859 1347,-132 1352.74,-125.212 1351.76,-119.505 1347,-112 1315.68,-62.6466 1284.61,-70.5477 1228,-56 1103.04,-23.8898 709.555,-14.2296 568.198,-11.7539"/>
<polygon fill="midnightblue" stroke="midnightblue" points="1145.39,-163.493 1136.04,-168.475 1146.46,-170.411 1145.39,-163.493"/>
</g>
<!-- Node26&#45;&gt;Node10 -->
<g id="edge40" class="edge"><title>Node26&#45;&gt;Node10</title>
<path fill="none" stroke="midnightblue" d="M1254.77,-175.192C1310.74,-170.898 1386.38,-156.9 1363,-112 1342.96,-73.5042 1323.99,-70.2567 1283,-56 1150.49,-9.91557 717.503,-9.20185 568.175,-10.3966"/>
<polygon fill="midnightblue" stroke="midnightblue" points="1254.32,-171.715 1244.58,-175.887 1254.79,-178.699 1254.32,-171.715"/>
</g>
<!-- Node27&#45;&gt;Node10 -->
<g id="edge42" class="edge"><title>Node27&#45;&gt;Node10</title>
<path fill="none" stroke="midnightblue" d="M94.6123,-103.895C105.126,-88.5719 122.712,-66.8863 144,-56 199.024,-27.8609 376.971,-16.7232 465.707,-12.8357"/>
<polygon fill="midnightblue" stroke="midnightblue" points="91.5547,-102.176 89.0101,-112.46 97.413,-106.007 91.5547,-102.176"/>
</g>
<!-- Node28&#45;&gt;Node10 -->
<g id="edge49" class="edge"><title>Node28&#45;&gt;Node10</title>
<path fill="none" stroke="midnightblue" d="M224.823,-165.214C194.727,-154.333 161.644,-136.198 177,-112 208.179,-62.8679 378.641,-31.2314 465.731,-18.0371"/>
<polygon fill="midnightblue" stroke="midnightblue" points="223.829,-168.573 234.424,-168.491 226.09,-161.949 223.829,-168.573"/>
</g>
<!-- Node28&#45;&gt;Node15 -->
<g id="edge48" class="edge"><title>Node28&#45;&gt;Node15</title>
<path fill="none" stroke="midnightblue" d="M285.94,-162.498C306.447,-148.114 339.717,-126.22 371,-112 406.857,-95.7006 450.242,-83.1689 480.356,-75.5185"/>
<polygon fill="midnightblue" stroke="midnightblue" points="283.844,-159.694 277.723,-168.341 287.901,-165.398 283.844,-159.694"/>
</g>
<!-- Node28&#45;&gt;Node18 -->
<g id="edge47" class="edge"><title>Node28&#45;&gt;Node18</title>
<path fill="none" stroke="midnightblue" d="M302.603,-165.304C334.447,-155.129 379.842,-140.625 408.347,-131.516"/>
<polygon fill="midnightblue" stroke="midnightblue" points="301.239,-162.066 292.779,-168.444 303.369,-168.734 301.239,-162.066"/>
</g>
<!-- Node28&#45;&gt;Node27 -->
<g id="edge44" class="edge"><title>Node28&#45;&gt;Node27</title>
<path fill="none" stroke="midnightblue" d="M227.469,-165.568C193.136,-155.381 143.667,-140.703 112.704,-131.516"/>
<polygon fill="midnightblue" stroke="midnightblue" points="226.579,-168.954 237.162,-168.444 228.57,-162.244 226.579,-168.954"/>
</g>
<!-- Node28&#45;&gt;Node29 -->
<g id="edge45" class="edge"><title>Node28&#45;&gt;Node29</title>
<path fill="none" stroke="midnightblue" d="M256.153,-159.275C251.025,-150.045 244.984,-139.17 240.862,-131.751"/>
<polygon fill="midnightblue" stroke="midnightblue" points="253.13,-161.041 261.046,-168.083 259.249,-157.642 253.13,-161.041"/>
</g>
<!-- Node29&#45;&gt;Node10 -->
<g id="edge46" class="edge"><title>Node29&#45;&gt;Node10</title>
<path fill="none" stroke="midnightblue" d="M255.098,-106.16C274.842,-91.48 307.062,-69.3301 338,-56 379.346,-38.1853 429.226,-26.3705 465.818,-19.3357"/>
<polygon fill="midnightblue" stroke="midnightblue" points="252.817,-103.497 246.953,-112.321 257.04,-109.08 252.817,-103.497"/>
</g>
<!-- Node30&#45;&gt;Node10 -->
<g id="edge52" class="edge"><title>Node30&#45;&gt;Node10</title>
<path fill="none" stroke="midnightblue" d="M40.3749,-160.405C30.4097,-146.978 20.4466,-127.777 29,-112 50.7391,-71.9026 72.066,-71.397 115,-56 178.378,-33.2712 372.35,-19.3446 465.722,-13.7857"/>
<polygon fill="midnightblue" stroke="midnightblue" points="37.7327,-162.704 46.7291,-168.3 43.186,-158.315 37.7327,-162.704"/>
</g>
<!-- Node31&#45;&gt;Node10 -->
<g id="edge55" class="edge"><title>Node31&#45;&gt;Node10</title>
<path fill="none" stroke="midnightblue" d="M436.466,-168.823C397.156,-160.417 355.827,-143.856 371,-112 394.658,-62.3305 456.306,-32.8226 491.464,-19.5085"/>
<polygon fill="midnightblue" stroke="midnightblue" points="435.891,-172.278 446.38,-170.789 437.252,-165.411 435.891,-172.278"/>
</g>
<!-- Node32&#45;&gt;Node10 -->
<g id="edge57" class="edge"><title>Node32&#45;&gt;Node10</title>
<path fill="none" stroke="midnightblue" d="M1242.98,-221.698C1287.32,-208.426 1350.63,-181.625 1380,-132 1404.22,-91.0643 1335.93,-62.0832 1322,-56 1253.21,-25.9525 734.54,-14.6653 568.183,-11.7954"/>
<polygon fill="midnightblue" stroke="midnightblue" points="1241.92,-218.362 1233.27,-224.482 1243.85,-225.091 1241.92,-218.362"/>
</g>
</g>
</svg>
        <g id="navigator" transform="translate(0 0)" fill="#404254">
                <rect fill="#f2f5e9" fill-opacity="0.5" stroke="#606060" stroke-width=".5" x="0" y="0" width="60" height="60"/>
                <use id="zoomplus" xlink:href="#zoomPlus" x="17" y="9" onmousedown="handleZoom(evt,'in')"/>
                <use id="zoomminus" xlink:href="#zoomMin" x="42" y="9" onmousedown="handleZoom(evt,'out')"/>
                <use id="reset" xlink:href="#resetDef" x="30" y="36" onmousedown="handleReset()"/>
                <g id="arrowUp" xlink:href="#dirArrow" transform="translate(30 24)" onmousedown="handlePan(0,-1)">
                  <use xlink:href="#rim" fill="#404040">
                        <set attributeName="fill" to="#808080" begin="arrowUp.mouseover" end="arrowUp.mouseout"/>
                  </use>
                  <path fill="none" stroke="white" stroke-width="1.5" d="M0,-3.0v7 M-2.5,-0.5L0,-3.0L2.5,-0.5"/>
                </g>
                <g id="arrowRight" xlink:href="#dirArrow" transform="rotate(90) translate(36 -43)" onmousedown="handlePan(1,0)">
                  <use xlink:href="#rim" fill="#404040">
                        <set attributeName="fill" to="#808080" begin="arrowRight.mouseover" end="arrowRight.mouseout"/>
                  </use>
                  <path fill="none" stroke="white" stroke-width="1.5" d="M0,-3.0v7 M-2.5,-0.5L0,-3.0L2.5,-0.5"/>
                </g>
                <g id="arrowDown" xlink:href="#dirArrow" transform="rotate(180) translate(-30 -48)" onmousedown="handlePan(0,1)">
                  <use xlink:href="#rim" fill="#404040">
                        <set attributeName="fill" to="#808080" begin="arrowDown.mouseover" end="arrowDown.mouseout"/>
                  </use>
                  <path fill="none" stroke="white" stroke-width="1.5" d="M0,-3.0v7 M-2.5,-0.5L0,-3.0L2.5,-0.5"/>
                </g>
                <g id="arrowLeft" xlink:href="#dirArrow" transform="rotate(270) translate(-36 17)" onmousedown="handlePan(-1,0)">
                  <use xlink:href="#rim" fill="#404040">
                        <set attributeName="fill" to="#808080" begin="arrowLeft.mouseover" end="arrowLeft.mouseout"/>
                  </use>
                  <path fill="none" stroke="white" stroke-width="1.5" d="M0,-3.0v7 M-2.5,-0.5L0,-3.0L2.5,-0.5"/>
                </g>
        </g>
        <svg viewBox="0 0 15 15" width="100%" height="30px" preserveAspectRatio="xMaxYMin meet">
         <g id="arrow_out" transform="scale(0.3 0.3)">
          <a xlink:href="def_8h__dep__incl_org.svg" target="_base">
           <rect id="button" ry="5" rx="5" y="6" x="6" height="38" width="38"
                fill="#f2f5e9" fill-opacity="0.5" stroke="#606060" stroke-width="1.0"/>
           <path id="arrow"
             d="M 11.500037,31.436501 C 11.940474,20.09759 22.043105,11.32322 32.158766,21.979434 L 37.068811,17.246167 C 37.068811,17.246167 37.088388,32 37.088388,32 L 22.160133,31.978069 C 22.160133,31.978069 26.997745,27.140456 26.997745,27.140456 C 18.528582,18.264221 13.291696,25.230495 11.500037,31.436501 z"
             style="fill:#404040;"/>
          </a>
         </g>
        </svg>
</svg>
