<?xml version="1.0" encoding="UTF-8" standalone="no"?>
<!DOCTYPE svg PUBLIC "-//W3C//DTD SVG 1.1//EN"
 "http://www.w3.org/Graphics/SVG/1.1/DTD/svg11.dtd">
<!-- Generated by graphviz version 2.38.0 (20140413.2041)
 -->
<!-- Title: spec/def_spec.h Pages: 1 -->
<svg width="795pt" height="420pt"
 viewBox="0.00 0.00 795.00 420.00" xmlns="http://www.w3.org/2000/svg" xmlns:xlink="http://www.w3.org/1999/xlink">
<g id="graph0" class="graph" transform="scale(1 1) rotate(0) translate(4 416)">
<title>spec/def_spec.h</title>
<polygon fill="white" stroke="none" points="-4,4 -4,-416 791,-416 791,4 -4,4"/>
<!-- Node1 -->
<g id="node1" class="node"><title>Node1</title>
<polygon fill="#bfbfbf" stroke="black" points="493.5,-392.5 493.5,-411.5 582.5,-411.5 582.5,-392.5 493.5,-392.5"/>
<text text-anchor="middle" x="538" y="-399.5" font-family="Helvetica,sans-Serif" font-size="10.00">spec/def_spec.h</text>
</g>
<!-- Node2 -->
<g id="node2" class="node"><title>Node2</title>
<g id="a_node2"><a xlink:href="ceptr_8h_source.html" target="_top" xlink:title="../src/ceptr.h">
<polygon fill="white" stroke="black" points="172,-336.5 172,-355.5 244,-355.5 244,-336.5 172,-336.5"/>
<text text-anchor="middle" x="208" y="-343.5" font-family="Helvetica,sans-Serif" font-size="10.00">../src/ceptr.h</text>
</a>
</g>
</g>
<!-- Node1&#45;&gt;Node2 -->
<g id="edge1" class="edge"><title>Node1&#45;&gt;Node2</title>
<path fill="none" stroke="midnightblue" d="M493.495,-393.717C431,-383.491 317.798,-364.967 254.333,-354.582"/>
<polygon fill="midnightblue" stroke="midnightblue" points="254.647,-351.087 244.213,-352.926 253.516,-357.995 254.647,-351.087"/>
</g>
<!-- Node22 -->
<g id="node22" class="node"><title>Node22</title>
<g id="a_node22"><a xlink:href="def_8h.html" target="_top" xlink:title="header file for symbol and structure definition functions ">
<polygon fill="white" stroke="black" points="599,-336.5 599,-355.5 663,-355.5 663,-336.5 599,-336.5"/>
<text text-anchor="middle" x="631" y="-343.5" font-family="Helvetica,sans-Serif" font-size="10.00">../src/def.h</text>
</a>
</g>
</g>
<!-- Node1&#45;&gt;Node22 -->
<g id="edge38" class="edge"><title>Node1&#45;&gt;Node22</title>
<path fill="none" stroke="midnightblue" d="M552.942,-392.324C567.585,-383.822 590.134,-370.729 607.238,-360.797"/>
<polygon fill="midnightblue" stroke="midnightblue" points="609.205,-363.703 616.095,-355.655 605.69,-357.649 609.205,-363.703"/>
</g>
<!-- Node24 -->
<g id="node24" class="node"><title>Node24</title>
<g id="a_node24"><a xlink:href="semtrex_8h.html" target="_top" xlink:title="Semantic tree regular expression header file. ">
<polygon fill="white" stroke="black" points="495,-336.5 495,-355.5 581,-355.5 581,-336.5 495,-336.5"/>
<text text-anchor="middle" x="538" y="-343.5" font-family="Helvetica,sans-Serif" font-size="10.00">../src/semtrex.h</text>
</a>
</g>
</g>
<!-- Node1&#45;&gt;Node24 -->
<g id="edge41" class="edge"><title>Node1&#45;&gt;Node24</title>
<path fill="none" stroke="midnightblue" d="M538,-392.083C538,-385.006 538,-374.861 538,-365.986"/>
<polygon fill="midnightblue" stroke="midnightblue" points="541.5,-365.751 538,-355.751 534.5,-365.751 541.5,-365.751"/>
</g>
<!-- Node3 -->
<g id="node3" class="node"><title>Node3</title>
<polygon fill="white" stroke="#bfbfbf" points="258.5,-0.5 258.5,-19.5 307.5,-19.5 307.5,-0.5 258.5,-0.5"/>
<text text-anchor="middle" x="283" y="-7.5" font-family="Helvetica,sans-Serif" font-size="10.00">string.h</text>
</g>
<!-- Node2&#45;&gt;Node3 -->
<g id="edge2" class="edge"><title>Node2&#45;&gt;Node3</title>
<path fill="none" stroke="midnightblue" d="M171.971,-345.732C131.19,-344.619 65.1031,-336.671 24,-300 1.0209,-279.499 0,-265.795 0,-235 0,-235 0,-235 0,-121 0,-68.2637 172.883,-30.7661 248.399,-16.9025"/>
<polygon fill="midnightblue" stroke="midnightblue" points="249.16,-20.3219 258.381,-15.104 247.918,-13.4328 249.16,-20.3219"/>
</g>
<!-- Node4 -->
<g id="node4" class="node"><title>Node4</title>
<polygon fill="white" stroke="#bfbfbf" points="66,-168.5 66,-187.5 112,-187.5 112,-168.5 66,-168.5"/>
<text text-anchor="middle" x="89" y="-175.5" font-family="Helvetica,sans-Serif" font-size="10.00">stdio.h</text>
</g>
<!-- Node2&#45;&gt;Node4 -->
<g id="edge3" class="edge"><title>Node2&#45;&gt;Node4</title>
<path fill="none" stroke="midnightblue" d="M192.066,-336.351C166.336,-321.397 116.365,-288.031 95,-244 87.9655,-229.503 86.8943,-211.058 87.3321,-197.523"/>
<polygon fill="midnightblue" stroke="midnightblue" points="90.8277,-197.701 87.9571,-187.502 83.8413,-197.265 90.8277,-197.701"/>
</g>
<!-- Node5 -->
<g id="node5" class="node"><title>Node5</title>
<polygon fill="white" stroke="#bfbfbf" points="469,-0.5 469,-19.5 517,-19.5 517,-0.5 469,-0.5"/>
<text text-anchor="middle" x="493" y="-7.5" font-family="Helvetica,sans-Serif" font-size="10.00">stdlib.h</text>
</g>
<!-- Node2&#45;&gt;Node5 -->
<g id="edge4" class="edge"><title>Node2&#45;&gt;Node5</title>
<path fill="none" stroke="midnightblue" d="M182.244,-336.489C163.075,-329.16 137.188,-317.053 119,-300 71.7172,-255.667 19.7322,-221.03 57,-168 151.6,-33.3886 373.292,-13.6544 458.654,-11.1619"/>
<polygon fill="midnightblue" stroke="midnightblue" points="458.921,-14.6569 468.838,-10.9291 458.761,-7.65869 458.921,-14.6569"/>
</g>
<!-- Node6 -->
<g id="node6" class="node"><title>Node6</title>
<g id="a_node6"><a xlink:href="ceptr__error_8h_source.html" target="_top" xlink:title="ceptr_error.h">
<polygon fill="white" stroke="black" points="248.5,-224.5 248.5,-243.5 319.5,-243.5 319.5,-224.5 248.5,-224.5"/>
<text text-anchor="middle" x="284" y="-231.5" font-family="Helvetica,sans-Serif" font-size="10.00">ceptr_error.h</text>
</a>
</g>
</g>
<!-- Node2&#45;&gt;Node6 -->
<g id="edge5" class="edge"><title>Node2&#45;&gt;Node6</title>
<path fill="none" stroke="midnightblue" d="M213.964,-336.368C226.506,-318.215 255.81,-275.802 272.261,-251.99"/>
<polygon fill="midnightblue" stroke="midnightblue" points="275.259,-253.808 278.064,-243.591 269.5,-249.829 275.259,-253.808"/>
</g>
<!-- Node10 -->
<g id="node10" class="node"><title>Node10</title>
<g id="a_node10"><a xlink:href="tree_8h.html" target="_top" xlink:title="semantic trees header file ">
<polygon fill="white" stroke="black" points="578.5,-280.5 578.5,-299.5 619.5,-299.5 619.5,-280.5 578.5,-280.5"/>
<text text-anchor="middle" x="599" y="-287.5" font-family="Helvetica,sans-Serif" font-size="10.00">tree.h</text>
</a>
</g>
</g>
<!-- Node2&#45;&gt;Node10 -->
<g id="edge10" class="edge"><title>Node2&#45;&gt;Node10</title>
<path fill="none" stroke="midnightblue" d="M244.083,-340.017C320.328,-329.487 496.668,-305.133 568.109,-295.266"/>
<polygon fill="midnightblue" stroke="midnightblue" points="568.827,-298.7 578.254,-293.865 567.869,-291.766 568.827,-298.7"/>
</g>
<!-- Node19 -->
<g id="node19" class="node"><title>Node19</title>
<g id="a_node19"><a xlink:href="mtree_8h.html" target="_top" xlink:title="semantic tree matrix header file `` ">
<polygon fill="white" stroke="black" points="342,-280.5 342,-299.5 392,-299.5 392,-280.5 342,-280.5"/>
<text text-anchor="middle" x="367" y="-287.5" font-family="Helvetica,sans-Serif" font-size="10.00">mtree.h</text>
</a>
</g>
</g>
<!-- Node2&#45;&gt;Node19 -->
<g id="edge27" class="edge"><title>Node2&#45;&gt;Node19</title>
<path fill="none" stroke="midnightblue" d="M233.194,-336.444C259.943,-327.359 302.403,-312.939 332.305,-302.783"/>
<polygon fill="midnightblue" stroke="midnightblue" points="333.581,-306.046 341.924,-299.516 331.329,-299.418 333.581,-306.046"/>
</g>
<!-- Node20 -->
<g id="node20" class="node"><title>Node20</title>
<g id="a_node20"><a xlink:href="util_8h.html" target="_top" xlink:title="util.h">
<polygon fill="white" stroke="black" points="163,-280.5 163,-299.5 201,-299.5 201,-280.5 163,-280.5"/>
<text text-anchor="middle" x="182" y="-287.5" font-family="Helvetica,sans-Serif" font-size="10.00">util.h</text>
</a>
</g>
</g>
<!-- Node2&#45;&gt;Node20 -->
<g id="edge35" class="edge"><title>Node2&#45;&gt;Node20</title>
<path fill="none" stroke="midnightblue" d="M203.707,-336.083C200.148,-328.691 194.978,-317.953 190.576,-308.811"/>
<polygon fill="midnightblue" stroke="midnightblue" points="193.705,-307.243 186.213,-299.751 187.398,-310.279 193.705,-307.243"/>
</g>
<!-- Node6&#45;&gt;Node4 -->
<g id="edge6" class="edge"><title>Node6&#45;&gt;Node4</title>
<path fill="none" stroke="midnightblue" d="M253.102,-224.444C217.272,-214.522 158.457,-198.234 121.826,-188.09"/>
<polygon fill="midnightblue" stroke="midnightblue" points="122.692,-184.698 112.121,-185.403 120.824,-191.445 122.692,-184.698"/>
</g>
<!-- Node7 -->
<g id="node7" class="node"><title>Node7</title>
<polygon fill="white" stroke="#bfbfbf" points="310,-168.5 310,-187.5 360,-187.5 360,-168.5 310,-168.5"/>
<text text-anchor="middle" x="335" y="-175.5" font-family="Helvetica,sans-Serif" font-size="10.00">signal.h</text>
</g>
<!-- Node6&#45;&gt;Node7 -->
<g id="edge7" class="edge"><title>Node6&#45;&gt;Node7</title>
<path fill="none" stroke="midnightblue" d="M292.422,-224.083C299.848,-216.22 310.852,-204.569 319.812,-195.081"/>
<polygon fill="midnightblue" stroke="midnightblue" points="322.413,-197.424 326.735,-187.751 317.324,-192.618 322.413,-197.424"/>
</g>
<!-- Node8 -->
<g id="node8" class="node"><title>Node8</title>
<polygon fill="white" stroke="#bfbfbf" points="168,-168.5 168,-187.5 220,-187.5 220,-168.5 168,-168.5"/>
<text text-anchor="middle" x="194" y="-175.5" font-family="Helvetica,sans-Serif" font-size="10.00">assert.h</text>
</g>
<!-- Node6&#45;&gt;Node8 -->
<g id="edge8" class="edge"><title>Node6&#45;&gt;Node8</title>
<path fill="none" stroke="midnightblue" d="M269.54,-224.324C255.5,-215.9 233.952,-202.971 217.457,-193.074"/>
<polygon fill="midnightblue" stroke="midnightblue" points="218.8,-189.798 208.424,-187.655 215.198,-195.801 218.8,-189.798"/>
</g>
<!-- Node9 -->
<g id="node9" class="node"><title>Node9</title>
<polygon fill="white" stroke="#bfbfbf" points="238,-168.5 238,-187.5 292,-187.5 292,-168.5 238,-168.5"/>
<text text-anchor="middle" x="265" y="-175.5" font-family="Helvetica,sans-Serif" font-size="10.00">setjmp.h</text>
</g>
<!-- Node6&#45;&gt;Node9 -->
<g id="edge9" class="edge"><title>Node6&#45;&gt;Node9</title>
<path fill="none" stroke="midnightblue" d="M280.863,-224.083C278.317,-216.849 274.644,-206.409 271.473,-197.397"/>
<polygon fill="midnightblue" stroke="midnightblue" points="274.7,-196.023 268.079,-187.751 268.097,-198.346 274.7,-196.023"/>
</g>
<!-- Node10&#45;&gt;Node3 -->
<g id="edge11" class="edge"><title>Node10&#45;&gt;Node3</title>
<path fill="none" stroke="midnightblue" d="M619.901,-280.996C642.923,-271.705 677.67,-256.109 685,-244 724.96,-177.991 858.837,-241.453 600,-56 555.318,-23.9856 390.477,-14.5791 317.803,-11.9564"/>
<polygon fill="midnightblue" stroke="midnightblue" points="317.887,-8.4573 307.775,-11.6167 317.65,-15.4533 317.887,-8.4573"/>
</g>
<!-- Node10&#45;&gt;Node5 -->
<g id="edge12" class="edge"><title>Node10&#45;&gt;Node5</title>
<path fill="none" stroke="midnightblue" d="M619.634,-282.724C622.767,-281.796 625.966,-280.862 629,-280 688.317,-263.138 717.451,-285.571 763,-244 785.746,-223.24 787,-209.795 787,-179 787,-179 787,-179 787,-121 787,-85.0879 769.468,-75.0097 739,-56 704.15,-34.256 586.418,-20.0707 527.369,-14.1498"/>
<polygon fill="midnightblue" stroke="midnightblue" points="527.353,-10.6316 517.059,-13.1404 526.671,-17.5983 527.353,-10.6316"/>
</g>
<!-- Node10&#45;&gt;Node6 -->
<g id="edge13" class="edge"><title>Node10&#45;&gt;Node6</title>
<path fill="none" stroke="midnightblue" d="M578.332,-285.457C528.209,-276.864 399.216,-254.751 329.816,-242.854"/>
<polygon fill="midnightblue" stroke="midnightblue" points="330.065,-239.346 319.618,-241.106 328.882,-246.245 330.065,-239.346"/>
</g>
<!-- Node11 -->
<g id="node11" class="node"><title>Node11</title>
<g id="a_node11"><a xlink:href="sys__symbols_8h.html" target="_top" xlink:title="Defines hard&#45;coded system defined symbols. ">
<polygon fill="white" stroke="black" points="452.5,-224.5 452.5,-243.5 535.5,-243.5 535.5,-224.5 452.5,-224.5"/>
<text text-anchor="middle" x="494" y="-231.5" font-family="Helvetica,sans-Serif" font-size="10.00">sys_symbols.h</text>
</a>
</g>
</g>
<!-- Node10&#45;&gt;Node11 -->
<g id="edge14" class="edge"><title>Node10&#45;&gt;Node11</title>
<path fill="none" stroke="midnightblue" d="M582.13,-280.324C565.291,-271.664 539.193,-258.242 519.762,-248.249"/>
<polygon fill="midnightblue" stroke="midnightblue" points="521.322,-245.116 510.828,-243.655 518.12,-251.341 521.322,-245.116"/>
</g>
<!-- Node12 -->
<g id="node12" class="node"><title>Node12</title>
<g id="a_node12"><a xlink:href="sys__structures_8h.html" target="_top" xlink:title="Defines hard&#45;coded system defined structures. ">
<polygon fill="white" stroke="black" points="522.5,-168.5 522.5,-187.5 611.5,-187.5 611.5,-168.5 522.5,-168.5"/>
<text text-anchor="middle" x="567" y="-175.5" font-family="Helvetica,sans-Serif" font-size="10.00">sys_structures.h</text>
</a>
</g>
</g>
<!-- Node10&#45;&gt;Node12 -->
<g id="edge24" class="edge"><title>Node10&#45;&gt;Node12</title>
<path fill="none" stroke="midnightblue" d="M615.442,-280.396C635.834,-268.528 666.372,-246.089 653,-224 643.59,-208.455 626.847,-198.022 610.62,-191.151"/>
<polygon fill="midnightblue" stroke="midnightblue" points="611.774,-187.845 601.184,-187.507 609.251,-194.375 611.774,-187.845"/>
</g>
<!-- Node13 -->
<g id="node13" class="node"><title>Node13</title>
<g id="a_node13"><a xlink:href="ceptr__types_8h_source.html" target="_top" xlink:title="ceptr_types.h">
<polygon fill="white" stroke="black" points="529,-112.5 529,-131.5 605,-131.5 605,-112.5 529,-112.5"/>
<text text-anchor="middle" x="567" y="-119.5" font-family="Helvetica,sans-Serif" font-size="10.00">ceptr_types.h</text>
</a>
</g>
</g>
<!-- Node10&#45;&gt;Node13 -->
<g id="edge26" class="edge"><title>Node10&#45;&gt;Node13</title>
<path fill="none" stroke="midnightblue" d="M619.724,-282.027C636.368,-275.201 658.616,-263.021 669,-244 673.259,-236.198 672.126,-232.321 669,-224 654.402,-185.147 615.627,-154.1 590.311,-137.146"/>
<polygon fill="midnightblue" stroke="midnightblue" points="591.96,-134.044 581.663,-131.549 588.157,-139.921 591.96,-134.044"/>
</g>
<!-- Node18 -->
<g id="node18" class="node"><title>Node18</title>
<g id="a_node18"><a xlink:href="sys__processes_8h.html" target="_top" xlink:title="Defines hard&#45;coded system defined processes. ">
<polygon fill="white" stroke="black" points="553.5,-224.5 553.5,-243.5 644.5,-243.5 644.5,-224.5 553.5,-224.5"/>
<text text-anchor="middle" x="599" y="-231.5" font-family="Helvetica,sans-Serif" font-size="10.00">sys_processes.h</text>
</a>
</g>
</g>
<!-- Node10&#45;&gt;Node18 -->
<g id="edge25" class="edge"><title>Node10&#45;&gt;Node18</title>
<path fill="none" stroke="midnightblue" d="M599,-280.083C599,-273.006 599,-262.861 599,-253.986"/>
<polygon fill="midnightblue" stroke="midnightblue" points="602.5,-253.751 599,-243.751 595.5,-253.751 602.5,-253.751"/>
</g>
<!-- Node11&#45;&gt;Node12 -->
<g id="edge15" class="edge"><title>Node11&#45;&gt;Node12</title>
<path fill="none" stroke="midnightblue" d="M505.729,-224.324C516.837,-216.107 533.742,-203.602 546.983,-193.807"/>
<polygon fill="midnightblue" stroke="midnightblue" points="549.1,-196.595 555.058,-187.834 544.937,-190.967 549.1,-196.595"/>
</g>
<!-- Node11&#45;&gt;Node13 -->
<g id="edge23" class="edge"><title>Node11&#45;&gt;Node13</title>
<path fill="none" stroke="midnightblue" d="M494.904,-224.332C496.615,-211.199 501.27,-185.896 513,-168 521.024,-155.759 533.382,-145.11 544.252,-137.249"/>
<polygon fill="midnightblue" stroke="midnightblue" points="546.273,-140.108 552.54,-131.565 542.313,-134.335 546.273,-140.108"/>
</g>
<!-- Node12&#45;&gt;Node13 -->
<g id="edge16" class="edge"><title>Node12&#45;&gt;Node13</title>
<path fill="none" stroke="midnightblue" d="M567,-168.083C567,-161.006 567,-150.861 567,-141.986"/>
<polygon fill="midnightblue" stroke="midnightblue" points="570.5,-141.751 567,-131.751 563.5,-141.751 570.5,-141.751"/>
</g>
<!-- Node14 -->
<g id="node14" class="node"><title>Node14</title>
<polygon fill="white" stroke="#bfbfbf" points="542.5,-56.5 542.5,-75.5 591.5,-75.5 591.5,-56.5 542.5,-56.5"/>
<text text-anchor="middle" x="567" y="-63.5" font-family="Helvetica,sans-Serif" font-size="10.00">stdint.h</text>
</g>
<!-- Node13&#45;&gt;Node14 -->
<g id="edge17" class="edge"><title>Node13&#45;&gt;Node14</title>
<path fill="none" stroke="midnightblue" d="M567,-112.083C567,-105.006 567,-94.8611 567,-85.9865"/>
<polygon fill="midnightblue" stroke="midnightblue" points="570.5,-85.751 567,-75.7511 563.5,-85.7511 570.5,-85.751"/>
</g>
<!-- Node15 -->
<g id="node15" class="node"><title>Node15</title>
<g id="a_node15"><a xlink:href="uthash_8h_source.html" target="_top" xlink:title="uthash.h">
<polygon fill="white" stroke="black" points="676,-56.5 676,-75.5 730,-75.5 730,-56.5 676,-56.5"/>
<text text-anchor="middle" x="703" y="-63.5" font-family="Helvetica,sans-Serif" font-size="10.00">uthash.h</text>
</a>
</g>
</g>
<!-- Node13&#45;&gt;Node15 -->
<g id="edge18" class="edge"><title>Node13&#45;&gt;Node15</title>
<path fill="none" stroke="midnightblue" d="M588.55,-112.444C611.031,-103.517 646.488,-89.4387 671.98,-79.3168"/>
<polygon fill="midnightblue" stroke="midnightblue" points="673.549,-82.4598 681.551,-75.5164 670.965,-75.9539 673.549,-82.4598"/>
</g>
<!-- Node15&#45;&gt;Node3 -->
<g id="edge19" class="edge"><title>Node15&#45;&gt;Node3</title>
<path fill="none" stroke="midnightblue" d="M675.725,-58.6229C671.157,-57.6671 666.455,-56.7516 662,-56 535.79,-34.7076 384.26,-19.9269 317.479,-13.9539"/>
<polygon fill="midnightblue" stroke="midnightblue" points="317.775,-10.4665 307.505,-13.0712 317.158,-17.4393 317.775,-10.4665"/>
</g>
<!-- Node15&#45;&gt;Node5 -->
<g id="edge21" class="edge"><title>Node15&#45;&gt;Node5</title>
<path fill="none" stroke="midnightblue" d="M675.976,-58.051C637.987,-48.2823 568.799,-30.4912 527.249,-19.807"/>
<polygon fill="midnightblue" stroke="midnightblue" points="527.874,-16.3538 517.317,-17.253 526.131,-23.1332 527.874,-16.3538"/>
</g>
<!-- Node16 -->
<g id="node16" class="node"><title>Node16</title>
<polygon fill="white" stroke="#bfbfbf" points="640,-0.5 640,-19.5 692,-19.5 692,-0.5 640,-0.5"/>
<text text-anchor="middle" x="666" y="-7.5" font-family="Helvetica,sans-Serif" font-size="10.00">stddef.h</text>
</g>
<!-- Node15&#45;&gt;Node16 -->
<g id="edge20" class="edge"><title>Node15&#45;&gt;Node16</title>
<path fill="none" stroke="midnightblue" d="M696.89,-56.083C691.718,-48.5341 684.154,-37.4948 677.806,-28.2298"/>
<polygon fill="midnightblue" stroke="midnightblue" points="680.536,-26.0221 671.996,-19.7511 674.761,-29.9787 680.536,-26.0221"/>
</g>
<!-- Node17 -->
<g id="node17" class="node"><title>Node17</title>
<polygon fill="white" stroke="#bfbfbf" points="710.5,-0.5 710.5,-19.5 769.5,-19.5 769.5,-0.5 710.5,-0.5"/>
<text text-anchor="middle" x="740" y="-7.5" font-family="Helvetica,sans-Serif" font-size="10.00">inttypes.h</text>
</g>
<!-- Node15&#45;&gt;Node17 -->
<g id="edge22" class="edge"><title>Node15&#45;&gt;Node17</title>
<path fill="none" stroke="midnightblue" d="M709.11,-56.083C714.282,-48.5341 721.846,-37.4948 728.194,-28.2298"/>
<polygon fill="midnightblue" stroke="midnightblue" points="731.239,-29.9787 734.004,-19.7511 725.464,-26.0221 731.239,-29.9787"/>
</g>
<!-- Node19&#45;&gt;Node3 -->
<g id="edge28" class="edge"><title>Node19&#45;&gt;Node3</title>
<path fill="none" stroke="midnightblue" d="M341.91,-286.146C294.832,-279.229 194.779,-256.72 159,-188 125.121,-122.929 215.332,-54.0025 259.841,-25.0702"/>
<polygon fill="midnightblue" stroke="midnightblue" points="261.77,-27.9912 268.334,-19.6743 258.016,-22.0829 261.77,-27.9912"/>
</g>
<!-- Node19&#45;&gt;Node5 -->
<g id="edge29" class="edge"><title>Node19&#45;&gt;Node5</title>
<path fill="none" stroke="midnightblue" d="M369.86,-280.488C374.126,-267.976 382.565,-243.942 391,-224 422.11,-150.451 464.925,-65.52 483.626,-29.1021"/>
<polygon fill="midnightblue" stroke="midnightblue" points="486.954,-30.2853 488.424,-19.7931 480.732,-27.078 486.954,-30.2853"/>
</g>
<!-- Node19&#45;&gt;Node6 -->
<g id="edge30" class="edge"><title>Node19&#45;&gt;Node6</title>
<path fill="none" stroke="midnightblue" d="M353.665,-280.324C340.838,-271.979 321.215,-259.212 306.06,-249.352"/>
<polygon fill="midnightblue" stroke="midnightblue" points="307.593,-246.174 297.302,-243.655 303.776,-252.042 307.593,-246.174"/>
</g>
<!-- Node19&#45;&gt;Node11 -->
<g id="edge31" class="edge"><title>Node19&#45;&gt;Node11</title>
<path fill="none" stroke="midnightblue" d="M387.124,-280.444C408.024,-271.557 440.935,-257.563 464.716,-247.451"/>
<polygon fill="midnightblue" stroke="midnightblue" points="466.138,-250.65 473.971,-243.516 463.398,-244.208 466.138,-250.65"/>
</g>
<!-- Node19&#45;&gt;Node12 -->
<g id="edge32" class="edge"><title>Node19&#45;&gt;Node12</title>
<path fill="none" stroke="midnightblue" d="M375.104,-280.286C388.214,-266.63 415.402,-240.09 443,-224 468.301,-209.249 499.267,-198.007 523.924,-190.448"/>
<polygon fill="midnightblue" stroke="midnightblue" points="525.138,-193.739 533.726,-187.534 523.143,-187.029 525.138,-193.739"/>
</g>
<!-- Node19&#45;&gt;Node13 -->
<g id="edge34" class="edge"><title>Node19&#45;&gt;Node13</title>
<path fill="none" stroke="midnightblue" d="M371.617,-280.211C378.902,-266.921 394.091,-241.414 412,-224 451.402,-185.688 507.378,-153.469 540.17,-136.314"/>
<polygon fill="midnightblue" stroke="midnightblue" points="541.876,-139.372 549.165,-131.683 538.672,-133.149 541.876,-139.372"/>
</g>
<!-- Node19&#45;&gt;Node18 -->
<g id="edge33" class="edge"><title>Node19&#45;&gt;Node18</title>
<path fill="none" stroke="midnightblue" d="M392.27,-283.118C430.644,-274.186 504.238,-257.057 552.468,-245.831"/>
<polygon fill="midnightblue" stroke="midnightblue" points="553.407,-249.206 562.353,-243.53 551.82,-242.388 553.407,-249.206"/>
</g>
<!-- Node20&#45;&gt;Node4 -->
<g id="edge37" class="edge"><title>Node20&#45;&gt;Node4</title>
<path fill="none" stroke="midnightblue" d="M181.249,-280.107C179.71,-266.679 175.148,-240.996 162,-224 151.239,-210.09 134.866,-199.436 120.351,-191.994"/>
<polygon fill="midnightblue" stroke="midnightblue" points="121.687,-188.753 111.159,-187.566 118.649,-195.059 121.687,-188.753"/>
</g>
<!-- Node21 -->
<g id="node21" class="node"><title>Node21</title>
<polygon fill="white" stroke="#bfbfbf" points="104.5,-224.5 104.5,-243.5 153.5,-243.5 153.5,-224.5 104.5,-224.5"/>
<text text-anchor="middle" x="129" y="-231.5" font-family="Helvetica,sans-Serif" font-size="10.00">ctype.h</text>
</g>
<!-- Node20&#45;&gt;Node21 -->
<g id="edge36" class="edge"><title>Node20&#45;&gt;Node21</title>
<path fill="none" stroke="midnightblue" d="M173.248,-280.083C165.53,-272.22 154.095,-260.569 144.783,-251.081"/>
<polygon fill="midnightblue" stroke="midnightblue" points="147.092,-248.436 137.589,-243.751 142.096,-253.34 147.092,-248.436"/>
</g>
<!-- Node22&#45;&gt;Node10 -->
<g id="edge39" class="edge"><title>Node22&#45;&gt;Node10</title>
<path fill="none" stroke="midnightblue" d="M625.716,-336.083C621.289,-328.613 614.837,-317.724 609.382,-308.52"/>
<polygon fill="midnightblue" stroke="midnightblue" points="612.295,-306.57 604.186,-299.751 606.273,-310.138 612.295,-306.57"/>
</g>
<!-- Node23 -->
<g id="node23" class="node"><title>Node23</title>
<polygon fill="white" stroke="#bfbfbf" points="638,-280.5 638,-299.5 690,-299.5 690,-280.5 638,-280.5"/>
<text text-anchor="middle" x="664" y="-287.5" font-family="Helvetica,sans-Serif" font-size="10.00">stdarg.h</text>
</g>
<!-- Node22&#45;&gt;Node23 -->
<g id="edge40" class="edge"><title>Node22&#45;&gt;Node23</title>
<path fill="none" stroke="midnightblue" d="M636.449,-336.083C641.014,-328.613 647.668,-317.724 653.293,-308.52"/>
<polygon fill="midnightblue" stroke="midnightblue" points="656.424,-310.109 658.652,-299.751 650.451,-306.459 656.424,-310.109"/>
</g>
<!-- Node24&#45;&gt;Node10 -->
<g id="edge42" class="edge"><title>Node24&#45;&gt;Node10</title>
<path fill="none" stroke="midnightblue" d="M547.801,-336.324C556.818,-328.341 570.406,-316.313 581.318,-306.653"/>
<polygon fill="midnightblue" stroke="midnightblue" points="583.853,-309.083 589.021,-299.834 579.213,-303.842 583.853,-309.083"/>
</g>
</g>
</svg>
