<?xml version="1.0" encoding="UTF-8" standalone="no"?>
<!DOCTYPE svg PUBLIC "-//W3C//DTD SVG 1.1//EN"
 "http://www.w3.org/Graphics/SVG/1.1/DTD/svg11.dtd">
<!-- Generated by graphviz version 2.38.0 (20140413.2041)
 -->
<!-- Title: src/def.h Pages: 1 -->
<svg width="1446pt" height="364pt"
 viewBox="0.00 0.00 1445.61 364.00" xmlns="http://www.w3.org/2000/svg" xmlns:xlink="http://www.w3.org/1999/xlink">
<g id="graph0" class="graph" transform="scale(1 1) rotate(0) translate(4 360)">
<title>src/def.h</title>
<polygon fill="white" stroke="none" points="-4,4 -4,-360 1441.61,-360 1441.61,4 -4,4"/>
<!-- Node1 -->
<g id="node1" class="node"><title>Node1</title>
<polygon fill="#bfbfbf" stroke="black" points="965.696,-336.5 965.696,-355.5 1020.7,-355.5 1020.7,-336.5 965.696,-336.5"/>
<text text-anchor="middle" x="993.196" y="-343.5" font-family="Helvetica,sans-Serif" font-size="10.00">src/def.h</text>
</g>
<!-- Node2 -->
<g id="node2" class="node"><title>Node2</title>
<g id="a_node2"><a xlink:href="receptor_8h.html" target="_top" xlink:title="receptor implementation header file ">
<polygon fill="white" stroke="black" points="691.696,-280.5 691.696,-299.5 768.696,-299.5 768.696,-280.5 691.696,-280.5"/>
<text text-anchor="middle" x="730.196" y="-287.5" font-family="Helvetica,sans-Serif" font-size="10.00">src/receptor.h</text>
</a>
</g>
</g>
<!-- Node1&#45;&gt;Node2 -->
<g id="edge1" class="edge"><title>Node1&#45;&gt;Node2</title>
<path fill="none" stroke="midnightblue" d="M955.549,-337.27C905.921,-327.08 819.05,-309.244 768.9,-298.947"/>
<polygon fill="midnightblue" stroke="midnightblue" points="955.048,-340.74 965.548,-339.323 956.456,-333.883 955.048,-340.74"/>
</g>
<!-- Node7 -->
<g id="node7" class="node"><title>Node7</title>
<g id="a_node7"><a xlink:href="process_8c.html" target="_top" xlink:title="implementation of ceptr processing: instructions and run tree reduction ">
<polygon fill="white" stroke="black" points="962.196,-112.5 962.196,-131.5 1038.2,-131.5 1038.2,-112.5 962.196,-112.5"/>
<text text-anchor="middle" x="1000.2" y="-119.5" font-family="Helvetica,sans-Serif" font-size="10.00">src/process.c</text>
</a>
</g>
</g>
<!-- Node1&#45;&gt;Node7 -->
<g id="edge43" class="edge"><title>Node1&#45;&gt;Node7</title>
<path fill="none" stroke="midnightblue" d="M968.976,-330.991C936.058,-309.964 883.231,-267.993 901.196,-224 918.648,-181.265 963.859,-146.827 986.646,-131.547"/>
<polygon fill="midnightblue" stroke="midnightblue" points="967.309,-334.075 977.657,-336.351 970.986,-328.119 967.309,-334.075"/>
</g>
<!-- Node15 -->
<g id="node15" class="node"><title>Node15</title>
<g id="a_node15"><a xlink:href="receptor__spec_8h.html" target="_top" xlink:title="spec/receptor_spec.h">
<polygon fill="white" stroke="black" points="295.196,-112.5 295.196,-131.5 405.196,-131.5 405.196,-112.5 295.196,-112.5"/>
<text text-anchor="middle" x="350.196" y="-119.5" font-family="Helvetica,sans-Serif" font-size="10.00">spec/receptor_spec.h</text>
</a>
</g>
</g>
<!-- Node1&#45;&gt;Node15 -->
<g id="edge50" class="edge"><title>Node1&#45;&gt;Node15</title>
<path fill="none" stroke="midnightblue" d="M955.451,-342.175C781.097,-328.72 59.7579,-268.429 4.19611,-188 -0.856145,-180.687 -1.66998,-174.678 4.19611,-168 23.0597,-146.524 202.199,-132.254 295.015,-126.239"/>
<polygon fill="midnightblue" stroke="midnightblue" points="955.434,-345.684 965.672,-342.959 955.969,-338.705 955.434,-345.684"/>
</g>
<!-- Node16 -->
<g id="node16" class="node"><title>Node16</title>
<g id="a_node16"><a xlink:href="tree_8c.html" target="_top" xlink:title="semantic tree pointer implementation ">
<polygon fill="white" stroke="black" points="1046.2,-224.5 1046.2,-243.5 1104.2,-243.5 1104.2,-224.5 1046.2,-224.5"/>
<text text-anchor="middle" x="1075.2" y="-231.5" font-family="Helvetica,sans-Serif" font-size="10.00">src/tree.c</text>
</a>
</g>
</g>
<!-- Node1&#45;&gt;Node16 -->
<g id="edge46" class="edge"><title>Node1&#45;&gt;Node16</title>
<path fill="none" stroke="midnightblue" d="M981.867,-327.35C974.57,-313.535 968.009,-294.328 977.196,-280 985.382,-267.234 1022.45,-252.605 1048.57,-243.582"/>
<polygon fill="midnightblue" stroke="midnightblue" points="979.033,-329.437 987.096,-336.31 985.078,-325.909 979.033,-329.437"/>
</g>
<!-- Node18 -->
<g id="node18" class="node"><title>Node18</title>
<g id="a_node18"><a xlink:href="http__example_8h.html" target="_top" xlink:title="spec/http_example.h">
<polygon fill="white" stroke="black" points="254.696,-224.5 254.696,-243.5 361.696,-243.5 361.696,-224.5 254.696,-224.5"/>
<text text-anchor="middle" x="308.196" y="-231.5" font-family="Helvetica,sans-Serif" font-size="10.00">spec/http_example.h</text>
</a>
</g>
</g>
<!-- Node1&#45;&gt;Node18 -->
<g id="edge47" class="edge"><title>Node1&#45;&gt;Node18</title>
<path fill="none" stroke="midnightblue" d="M955.362,-339.878C896.761,-331.866 780.543,-315.658 682.196,-300 564.068,-281.193 425.448,-256.381 354.77,-243.532"/>
<polygon fill="midnightblue" stroke="midnightblue" points="954.897,-343.347 965.278,-341.231 955.843,-336.411 954.897,-343.347"/>
</g>
<!-- Node22 -->
<g id="node22" class="node"><title>Node22</title>
<g id="a_node22"><a xlink:href="profile__example_8h.html" target="_top" xlink:title="spec/profile_example.h">
<polygon fill="white" stroke="black" points="910.696,-224.5 910.696,-243.5 1027.7,-243.5 1027.7,-224.5 910.696,-224.5"/>
<text text-anchor="middle" x="969.196" y="-231.5" font-family="Helvetica,sans-Serif" font-size="10.00">spec/profile_example.h</text>
</a>
</g>
</g>
<!-- Node1&#45;&gt;Node22 -->
<g id="edge51" class="edge"><title>Node1&#45;&gt;Node22</title>
<path fill="none" stroke="midnightblue" d="M970.1,-330.354C960.154,-322.659 949.586,-312.268 944.196,-300 935.442,-280.075 951.358,-256.035 961.58,-243.517"/>
<polygon fill="midnightblue" stroke="midnightblue" points="968.368,-333.419 978.535,-336.402 972.448,-327.73 968.368,-333.419"/>
</g>
<!-- Node23 -->
<g id="node23" class="node"><title>Node23</title>
<g id="a_node23"><a xlink:href="base__defs_8c.html" target="_top" xlink:title="auto&#45;generated system definitions ">
<polygon fill="white" stroke="black" points="986.196,-280.5 986.196,-299.5 1072.2,-299.5 1072.2,-280.5 986.196,-280.5"/>
<text text-anchor="middle" x="1029.2" y="-287.5" font-family="Helvetica,sans-Serif" font-size="10.00">src/base_defs.c</text>
</a>
</g>
</g>
<!-- Node1&#45;&gt;Node23 -->
<g id="edge40" class="edge"><title>Node1&#45;&gt;Node23</title>
<path fill="none" stroke="midnightblue" d="M1004.82,-327.566C1011.01,-318.275 1018.36,-307.248 1023.36,-299.751"/>
<polygon fill="midnightblue" stroke="midnightblue" points="1001.78,-325.821 999.141,-336.083 1007.6,-329.704 1001.78,-325.821"/>
</g>
<!-- Node24 -->
<g id="node24" class="node"><title>Node24</title>
<g id="a_node24"><a xlink:href="def_8c.html" target="_top" xlink:title="implementation file for symbol and structure definition functions ">
<polygon fill="white" stroke="black" points="1090.7,-280.5 1090.7,-299.5 1145.7,-299.5 1145.7,-280.5 1090.7,-280.5"/>
<text text-anchor="middle" x="1118.2" y="-287.5" font-family="Helvetica,sans-Serif" font-size="10.00">src/def.c</text>
</a>
</g>
</g>
<!-- Node1&#45;&gt;Node24 -->
<g id="edge41" class="edge"><title>Node1&#45;&gt;Node24</title>
<path fill="none" stroke="midnightblue" d="M1022.44,-332.368C1045.85,-322.255 1078.04,-308.349 1098.48,-299.516"/>
<polygon fill="midnightblue" stroke="midnightblue" points="1020.79,-329.265 1013,-336.444 1023.57,-335.691 1020.79,-329.265"/>
</g>
<!-- Node25 -->
<g id="node25" class="node"><title>Node25</title>
<g id="a_node25"><a xlink:href="mtree_8c.html" target="_top" xlink:title="semantic tree matrix implementation ">
<polygon fill="white" stroke="black" points="1164.2,-280.5 1164.2,-299.5 1230.2,-299.5 1230.2,-280.5 1164.2,-280.5"/>
<text text-anchor="middle" x="1197.2" y="-287.5" font-family="Helvetica,sans-Serif" font-size="10.00">src/mtree.c</text>
</a>
</g>
</g>
<!-- Node1&#45;&gt;Node25 -->
<g id="edge42" class="edge"><title>Node1&#45;&gt;Node25</title>
<path fill="none" stroke="midnightblue" d="M1030.48,-335.131C1068.9,-324.961 1128.2,-309.265 1164.74,-299.59"/>
<polygon fill="midnightblue" stroke="midnightblue" points="1029.48,-331.775 1020.71,-337.717 1031.27,-338.542 1029.48,-331.775"/>
</g>
<!-- Node26 -->
<g id="node26" class="node"><title>Node26</title>
<g id="a_node26"><a xlink:href="semtrex_8c.html" target="_top" xlink:title="semtrex implementation ">
<polygon fill="white" stroke="black" points="1248.7,-280.5 1248.7,-299.5 1325.7,-299.5 1325.7,-280.5 1248.7,-280.5"/>
<text text-anchor="middle" x="1287.2" y="-287.5" font-family="Helvetica,sans-Serif" font-size="10.00">src/semtrex.c</text>
</a>
</g>
</g>
<!-- Node1&#45;&gt;Node26 -->
<g id="edge44" class="edge"><title>Node1&#45;&gt;Node26</title>
<path fill="none" stroke="midnightblue" d="M1030.87,-338.163C1079.14,-329.388 1165.42,-313.665 1239.2,-300 1242.28,-299.429 1245.48,-298.835 1248.69,-298.236"/>
<polygon fill="midnightblue" stroke="midnightblue" points="1030.09,-334.747 1020.87,-339.978 1031.34,-341.634 1030.09,-334.747"/>
</g>
<!-- Node27 -->
<g id="node27" class="node"><title>Node27</title>
<g id="a_node27"><a xlink:href="sys__defs_8c.html" target="_top" xlink:title="definition of system semantic elements for bootstrapping ">
<polygon fill="white" stroke="black" points="1343.7,-280.5 1343.7,-299.5 1424.7,-299.5 1424.7,-280.5 1343.7,-280.5"/>
<text text-anchor="middle" x="1384.2" y="-287.5" font-family="Helvetica,sans-Serif" font-size="10.00">src/sys_defs.c</text>
</a>
</g>
</g>
<!-- Node1&#45;&gt;Node27 -->
<g id="edge45" class="edge"><title>Node1&#45;&gt;Node27</title>
<path fill="none" stroke="midnightblue" d="M1031.38,-340.554C1094.51,-333.069 1224.6,-317.086 1334.2,-300 1337.25,-299.524 1340.4,-299.011 1343.56,-298.478"/>
<polygon fill="midnightblue" stroke="midnightblue" points="1030.63,-337.118 1021.11,-341.766 1031.45,-344.07 1030.63,-337.118"/>
</g>
<!-- Node28 -->
<g id="node28" class="node"><title>Node28</title>
<g id="a_node28"><a xlink:href="def__spec_8h.html" target="_top" xlink:title="spec/def_spec.h">
<polygon fill="white" stroke="black" points="1124.7,-224.5 1124.7,-243.5 1213.7,-243.5 1213.7,-224.5 1124.7,-224.5"/>
<text text-anchor="middle" x="1169.2" y="-231.5" font-family="Helvetica,sans-Serif" font-size="10.00">spec/def_spec.h</text>
</a>
</g>
</g>
<!-- Node1&#45;&gt;Node28 -->
<g id="edge48" class="edge"><title>Node1&#45;&gt;Node28</title>
<path fill="none" stroke="midnightblue" d="M1031.14,-343.968C1132.97,-340.809 1406.45,-329.621 1433.2,-300 1439.15,-293.403 1438.93,-286.793 1433.2,-280 1405.65,-247.355 1281.63,-238.39 1213.83,-235.929"/>
<polygon fill="midnightblue" stroke="midnightblue" points="1030.88,-340.474 1020.99,-344.274 1031.09,-347.471 1030.88,-340.474"/>
</g>
<!-- Node3 -->
<g id="node3" class="node"><title>Node3</title>
<g id="a_node3"><a xlink:href="vmhost_8h.html" target="_top" xlink:title="vmhost implementation header file ">
<polygon fill="white" stroke="black" points="532.196,-224.5 532.196,-243.5 606.196,-243.5 606.196,-224.5 532.196,-224.5"/>
<text text-anchor="middle" x="569.196" y="-231.5" font-family="Helvetica,sans-Serif" font-size="10.00">src/vmhost.h</text>
</a>
</g>
</g>
<!-- Node2&#45;&gt;Node3 -->
<g id="edge2" class="edge"><title>Node2&#45;&gt;Node3</title>
<path fill="none" stroke="midnightblue" d="M694.931,-277.172C664.615,-267.004 621.626,-252.585 594.588,-243.516"/>
<polygon fill="midnightblue" stroke="midnightblue" points="694.091,-280.582 704.685,-280.444 696.317,-273.945 694.091,-280.582"/>
</g>
<!-- Node5 -->
<g id="node5" class="node"><title>Node5</title>
<g id="a_node5"><a xlink:href="accumulator_8c.html" target="_top" xlink:title="implementation file for accumulator ">
<polygon fill="white" stroke="black" points="753.696,-112.5 753.696,-131.5 848.696,-131.5 848.696,-112.5 753.696,-112.5"/>
<text text-anchor="middle" x="801.196" y="-119.5" font-family="Helvetica,sans-Serif" font-size="10.00">src/accumulator.c</text>
</a>
</g>
</g>
<!-- Node2&#45;&gt;Node5 -->
<g id="edge20" class="edge"><title>Node2&#45;&gt;Node5</title>
<path fill="none" stroke="midnightblue" d="M730.468,-270.3C731.567,-245.465 736.154,-200.91 754.196,-168 762.45,-152.943 777.472,-139.902 788.315,-131.791"/>
<polygon fill="midnightblue" stroke="midnightblue" points="726.964,-270.392 730.169,-280.491 733.961,-270.598 726.964,-270.392"/>
</g>
<!-- Node2&#45;&gt;Node7 -->
<g id="edge21" class="edge"><title>Node2&#45;&gt;Node7</title>
<path fill="none" stroke="midnightblue" d="M744.69,-272.709C768.259,-247.113 817.39,-197.374 868.196,-168 898.065,-150.731 935.581,-138.744 962.977,-131.51"/>
<polygon fill="midnightblue" stroke="midnightblue" points="741.84,-270.642 737.712,-280.399 747.024,-275.346 741.84,-270.642"/>
</g>
<!-- Node8 -->
<g id="node8" class="node"><title>Node8</title>
<g id="a_node8"><a xlink:href="receptor_8c.html" target="_top" xlink:title="receptor implementation ">
<polygon fill="white" stroke="black" points="866.696,-112.5 866.696,-131.5 943.696,-131.5 943.696,-112.5 866.696,-112.5"/>
<text text-anchor="middle" x="905.196" y="-119.5" font-family="Helvetica,sans-Serif" font-size="10.00">src/receptor.c</text>
</a>
</g>
</g>
<!-- Node2&#45;&gt;Node8 -->
<g id="edge22" class="edge"><title>Node2&#45;&gt;Node8</title>
<path fill="none" stroke="midnightblue" d="M737.551,-271.013C750.08,-241.096 775.796,-182.919 792.196,-168 813.049,-149.03 842.883,-137.608 866.66,-131.02"/>
<polygon fill="midnightblue" stroke="midnightblue" points="734.298,-269.721 733.706,-280.299 740.766,-272.399 734.298,-269.721"/>
</g>
<!-- Node2&#45;&gt;Node15 -->
<g id="edge35" class="edge"><title>Node2&#45;&gt;Node15</title>
<path fill="none" stroke="midnightblue" d="M681.623,-285.352C638.155,-280.518 573.687,-269.397 523.196,-244 477.329,-220.929 478.57,-196.992 436.196,-168 414.64,-153.251 387.66,-139.865 369.726,-131.599"/>
<polygon fill="midnightblue" stroke="midnightblue" points="681.345,-288.842 691.654,-286.397 682.071,-281.879 681.345,-288.842"/>
</g>
<!-- Node2&#45;&gt;Node16 -->
<g id="edge23" class="edge"><title>Node2&#45;&gt;Node16</title>
<path fill="none" stroke="midnightblue" d="M779.049,-283.053C839.62,-275.396 945.912,-261.027 1036.2,-244 1039.34,-243.408 1042.61,-242.738 1045.86,-242.037"/>
<polygon fill="midnightblue" stroke="midnightblue" points="778.493,-279.595 769.007,-284.314 779.365,-286.541 778.493,-279.595"/>
</g>
<!-- Node17 -->
<g id="node17" class="node"><title>Node17</title>
<g id="a_node17"><a xlink:href="tree__spec_8h.html" target="_top" xlink:title="spec/tree_spec.h">
<polygon fill="white" stroke="black" points="13.1961,-168.5 13.1961,-187.5 105.196,-187.5 105.196,-168.5 13.1961,-168.5"/>
<text text-anchor="middle" x="59.1961" y="-175.5" font-family="Helvetica,sans-Serif" font-size="10.00">spec/tree_spec.h</text>
</a>
</g>
</g>
<!-- Node2&#45;&gt;Node17 -->
<g id="edge24" class="edge"><title>Node2&#45;&gt;Node17</title>
<path fill="none" stroke="midnightblue" d="M681.281,-289.823C588.387,-290.279 380.667,-285.977 212.196,-244 159.549,-230.882 101.713,-201.976 74.7028,-187.545"/>
<polygon fill="midnightblue" stroke="midnightblue" points="681.526,-293.322 691.501,-289.751 681.477,-286.322 681.526,-293.322"/>
</g>
<!-- Node2&#45;&gt;Node18 -->
<g id="edge26" class="edge"><title>Node2&#45;&gt;Node18</title>
<path fill="none" stroke="midnightblue" d="M681.387,-282.754C601.772,-272.567 444.564,-252.45 361.894,-241.871"/>
<polygon fill="midnightblue" stroke="midnightblue" points="681.264,-286.267 691.628,-284.065 682.153,-279.324 681.264,-286.267"/>
</g>
<!-- Node19 -->
<g id="node19" class="node"><title>Node19</title>
<g id="a_node19"><a xlink:href="mtree__spec_8h.html" target="_top" xlink:title="spec/mtree_spec.h">
<polygon fill="white" stroke="black" points="327.196,-168.5 327.196,-187.5 427.196,-187.5 427.196,-168.5 327.196,-168.5"/>
<text text-anchor="middle" x="377.196" y="-175.5" font-family="Helvetica,sans-Serif" font-size="10.00">spec/mtree_spec.h</text>
</a>
</g>
</g>
<!-- Node2&#45;&gt;Node19 -->
<g id="edge32" class="edge"><title>Node2&#45;&gt;Node19</title>
<path fill="none" stroke="midnightblue" d="M681.516,-285.134C610.43,-278.868 482.217,-265.034 441.196,-244 414.985,-230.56 393.077,-202.337 383.055,-187.907"/>
<polygon fill="midnightblue" stroke="midnightblue" points="681.308,-288.629 691.572,-286.004 681.911,-281.655 681.308,-288.629"/>
</g>
<!-- Node20 -->
<g id="node20" class="node"><title>Node20</title>
<g id="a_node20"><a xlink:href="semtrex__spec_8h.html" target="_top" xlink:title="spec/semtrex_spec.h">
<polygon fill="white" stroke="black" points="123.196,-168.5 123.196,-187.5 233.196,-187.5 233.196,-168.5 123.196,-168.5"/>
<text text-anchor="middle" x="178.196" y="-175.5" font-family="Helvetica,sans-Serif" font-size="10.00">spec/semtrex_spec.h</text>
</a>
</g>
</g>
<!-- Node2&#45;&gt;Node20 -->
<g id="edge33" class="edge"><title>Node2&#45;&gt;Node20</title>
<path fill="none" stroke="midnightblue" d="M681.115,-288.548C573.821,-286.905 321.86,-279.288 245.196,-244 217.519,-231.26 194.359,-202.177 184.008,-187.626"/>
<polygon fill="midnightblue" stroke="midnightblue" points="681.292,-292.051 691.34,-288.693 681.391,-285.052 681.292,-292.051"/>
</g>
<!-- Node21 -->
<g id="node21" class="node"><title>Node21</title>
<g id="a_node21"><a xlink:href="scape__spec_8h.html" target="_top" xlink:title="spec/scape_spec.h">
<polygon fill="white" stroke="black" points="864.696,-56.5 864.696,-75.5 965.696,-75.5 965.696,-56.5 864.696,-56.5"/>
<text text-anchor="middle" x="915.196" y="-63.5" font-family="Helvetica,sans-Serif" font-size="10.00">spec/scape_spec.h</text>
</a>
</g>
</g>
<!-- Node2&#45;&gt;Node21 -->
<g id="edge36" class="edge"><title>Node2&#45;&gt;Node21</title>
<path fill="none" stroke="midnightblue" d="M764.936,-277.056C840.349,-250.349 1014.88,-184.061 1047.2,-132 1068.75,-97.2738 1011.8,-80.5647 966.054,-72.9163"/>
<polygon fill="midnightblue" stroke="midnightblue" points="763.673,-273.79 755.4,-280.409 765.995,-280.394 763.673,-273.79"/>
</g>
<!-- Node2&#45;&gt;Node22 -->
<g id="edge38" class="edge"><title>Node2&#45;&gt;Node22</title>
<path fill="none" stroke="midnightblue" d="M777.92,-278.217C823.081,-268.013 889.969,-252.901 931.503,-243.516"/>
<polygon fill="midnightblue" stroke="midnightblue" points="777.049,-274.826 768.066,-280.444 778.592,-281.654 777.049,-274.826"/>
</g>
<!-- Node4 -->
<g id="node4" class="node"><title>Node4</title>
<g id="a_node4"><a xlink:href="accumulator_8h.html" target="_top" xlink:title="header file for the accumulator ">
<polygon fill="white" stroke="black" points="597.696,-168.5 597.696,-187.5 692.696,-187.5 692.696,-168.5 597.696,-168.5"/>
<text text-anchor="middle" x="645.196" y="-175.5" font-family="Helvetica,sans-Serif" font-size="10.00">src/accumulator.h</text>
</a>
</g>
</g>
<!-- Node3&#45;&gt;Node4 -->
<g id="edge3" class="edge"><title>Node3&#45;&gt;Node4</title>
<path fill="none" stroke="midnightblue" d="M589.772,-218.38C603.508,-208.62 621.121,-196.106 632.763,-187.834"/>
<polygon fill="midnightblue" stroke="midnightblue" points="587.531,-215.679 581.407,-224.324 591.586,-221.385 587.531,-215.679"/>
</g>
<!-- Node11 -->
<g id="node11" class="node"><title>Node11</title>
<g id="a_node11"><a xlink:href="vmhost__spec_8h.html" target="_top" xlink:title="spec/vmhost_spec.h">
<polygon fill="white" stroke="black" points="378.696,-56.5 378.696,-75.5 485.696,-75.5 485.696,-56.5 378.696,-56.5"/>
<text text-anchor="middle" x="432.196" y="-63.5" font-family="Helvetica,sans-Serif" font-size="10.00">spec/vmhost_spec.h</text>
</a>
</g>
</g>
<!-- Node3&#45;&gt;Node11 -->
<g id="edge19" class="edge"><title>Node3&#45;&gt;Node11</title>
<path fill="none" stroke="midnightblue" d="M553.653,-217.023C540.207,-203.48 520.019,-183.798 501.196,-168 480.497,-150.627 467.85,-154.028 452.196,-132 439.749,-114.484 434.891,-89.0205 433.123,-75.763"/>
<polygon fill="midnightblue" stroke="midnightblue" points="551.219,-219.541 560.729,-224.212 556.208,-214.63 551.219,-219.541"/>
</g>
<!-- Node13 -->
<g id="node13" class="node"><title>Node13</title>
<g id="a_node13"><a xlink:href="vmhost_8c.html" target="_top" xlink:title="virtual machine host receptor implementation ">
<polygon fill="white" stroke="black" points="461.196,-112.5 461.196,-131.5 535.196,-131.5 535.196,-112.5 461.196,-112.5"/>
<text text-anchor="middle" x="498.196" y="-119.5" font-family="Helvetica,sans-Serif" font-size="10.00">src/vmhost.c</text>
</a>
</g>
</g>
<!-- Node3&#45;&gt;Node13 -->
<g id="edge17" class="edge"><title>Node3&#45;&gt;Node13</title>
<path fill="none" stroke="midnightblue" d="M564.745,-214.362C560.94,-200.77 554.576,-182.303 545.196,-168 535.656,-153.452 520.586,-140.123 510.091,-131.81"/>
<polygon fill="midnightblue" stroke="midnightblue" points="561.457,-215.63 567.349,-224.436 568.234,-213.878 561.457,-215.63"/>
</g>
<!-- Node3&#45;&gt;Node15 -->
<g id="edge18" class="edge"><title>Node3&#45;&gt;Node15</title>
<path fill="none" stroke="midnightblue" d="M549.542,-218.403C529.907,-204.268 498.509,-182.851 469.196,-168 439.051,-152.727 402.432,-139.636 377.846,-131.575"/>
<polygon fill="midnightblue" stroke="midnightblue" points="547.541,-221.277 557.685,-224.336 551.663,-215.619 547.541,-221.277"/>
</g>
<!-- Node4&#45;&gt;Node5 -->
<g id="edge4" class="edge"><title>Node4&#45;&gt;Node5</title>
<path fill="none" stroke="midnightblue" d="M679.366,-165.172C708.74,-155.004 750.395,-140.585 776.593,-131.516"/>
<polygon fill="midnightblue" stroke="midnightblue" points="678.22,-161.865 669.915,-168.444 680.51,-168.48 678.22,-161.865"/>
</g>
<!-- Node6 -->
<g id="node6" class="node"><title>Node6</title>
<g id="a_node6"><a xlink:href="ceptr_8c.html" target="_top" xlink:title="implements main() entry point for the ceptr node ">
<polygon fill="white" stroke="black" points="591.696,-112.5 591.696,-131.5 654.696,-131.5 654.696,-112.5 591.696,-112.5"/>
<text text-anchor="middle" x="623.196" y="-119.5" font-family="Helvetica,sans-Serif" font-size="10.00">src/ceptr.c</text>
</a>
</g>
</g>
<!-- Node4&#45;&gt;Node6 -->
<g id="edge5" class="edge"><title>Node4&#45;&gt;Node6</title>
<path fill="none" stroke="midnightblue" d="M637.736,-158.69C634.029,-149.589 629.72,-139.014 626.761,-131.751"/>
<polygon fill="midnightblue" stroke="midnightblue" points="634.549,-160.143 641.563,-168.083 641.032,-157.502 634.549,-160.143"/>
</g>
<!-- Node4&#45;&gt;Node7 -->
<g id="edge6" class="edge"><title>Node4&#45;&gt;Node7</title>
<path fill="none" stroke="midnightblue" d="M702.828,-169.25C764.604,-160.779 865.502,-146.476 952.196,-132 955.374,-131.469 958.666,-130.898 961.968,-130.31"/>
<polygon fill="midnightblue" stroke="midnightblue" points="702.317,-165.787 692.884,-170.609 703.265,-172.722 702.317,-165.787"/>
</g>
<!-- Node4&#45;&gt;Node8 -->
<g id="edge7" class="edge"><title>Node4&#45;&gt;Node8</title>
<path fill="none" stroke="midnightblue" d="M696.336,-166.379C746.246,-156.013 821.082,-140.47 866.314,-131.075"/>
<polygon fill="midnightblue" stroke="midnightblue" points="695.473,-162.983 686.394,-168.444 696.897,-169.837 695.473,-162.983"/>
</g>
<!-- Node9 -->
<g id="node9" class="node"><title>Node9</title>
<g id="a_node9"><a xlink:href="shell_8h.html" target="_top" xlink:title="command line shell receptor header files ">
<polygon fill="white" stroke="black" points="673.196,-112.5 673.196,-131.5 735.196,-131.5 735.196,-112.5 673.196,-112.5"/>
<text text-anchor="middle" x="704.196" y="-119.5" font-family="Helvetica,sans-Serif" font-size="10.00">src/shell.h</text>
</a>
</g>
</g>
<!-- Node4&#45;&gt;Node9 -->
<g id="edge8" class="edge"><title>Node4&#45;&gt;Node9</title>
<path fill="none" stroke="midnightblue" d="M662.091,-161.537C672.611,-151.909 685.765,-139.869 694.544,-131.834"/>
<polygon fill="midnightblue" stroke="midnightblue" points="659.689,-158.99 654.675,-168.324 664.415,-164.154 659.689,-158.99"/>
</g>
<!-- Node4&#45;&gt;Node13 -->
<g id="edge12" class="edge"><title>Node4&#45;&gt;Node13</title>
<path fill="none" stroke="midnightblue" d="M612.273,-164.906C584.636,-154.754 545.852,-140.506 521.38,-131.516"/>
<polygon fill="midnightblue" stroke="midnightblue" points="611.31,-168.281 621.904,-168.444 613.724,-161.71 611.31,-168.281"/>
</g>
<!-- Node14 -->
<g id="node14" class="node"><title>Node14</title>
<g id="a_node14"><a xlink:href="accumulator__spec_8h_source.html" target="_top" xlink:title="spec/accumulator_spec.h">
<polygon fill="white" stroke="black" points="504.196,-56.5 504.196,-75.5 632.196,-75.5 632.196,-56.5 504.196,-56.5"/>
<text text-anchor="middle" x="568.196" y="-63.5" font-family="Helvetica,sans-Serif" font-size="10.00">spec/accumulator_spec.h</text>
</a>
</g>
</g>
<!-- Node4&#45;&gt;Node14 -->
<g id="edge13" class="edge"><title>Node4&#45;&gt;Node14</title>
<path fill="none" stroke="midnightblue" d="M617.698,-163.48C605.04,-155.903 590.927,-145.288 582.196,-132 570.659,-114.442 568.45,-88.9963 568.137,-75.7525"/>
<polygon fill="midnightblue" stroke="midnightblue" points="616.126,-166.611 626.559,-168.454 619.552,-160.507 616.126,-166.611"/>
</g>
<!-- Node4&#45;&gt;Node15 -->
<g id="edge15" class="edge"><title>Node4&#45;&gt;Node15</title>
<path fill="none" stroke="midnightblue" d="M588.385,-166.601C532.634,-156.395 448.633,-141.019 396.721,-131.516"/>
<polygon fill="midnightblue" stroke="midnightblue" points="587.986,-170.086 598.452,-168.444 589.246,-163.2 587.986,-170.086"/>
</g>
<!-- Node10 -->
<g id="node10" class="node"><title>Node10</title>
<g id="a_node10"><a xlink:href="shell_8c.html" target="_top" xlink:title="implementation of a command line shell receptor ">
<polygon fill="white" stroke="black" points="673.196,-56.5 673.196,-75.5 735.196,-75.5 735.196,-56.5 673.196,-56.5"/>
<text text-anchor="middle" x="704.196" y="-63.5" font-family="Helvetica,sans-Serif" font-size="10.00">src/shell.c</text>
</a>
</g>
</g>
<!-- Node9&#45;&gt;Node10 -->
<g id="edge9" class="edge"><title>Node9&#45;&gt;Node10</title>
<path fill="none" stroke="midnightblue" d="M704.196,-101.805C704.196,-92.9102 704.196,-82.7798 704.196,-75.7511"/>
<polygon fill="midnightblue" stroke="midnightblue" points="700.696,-102.083 704.196,-112.083 707.696,-102.083 700.696,-102.083"/>
</g>
<!-- Node9&#45;&gt;Node11 -->
<g id="edge10" class="edge"><title>Node9&#45;&gt;Node11</title>
<path fill="none" stroke="midnightblue" d="M662.914,-111.983C592.345,-97.4247 522.392,-83.9919 477.843,-75.5619"/>
<polygon fill="midnightblue" stroke="midnightblue" points="662.371,-115.445 672.873,-114.044 663.79,-108.59 662.371,-115.445"/>
</g>
<!-- Node12 -->
<g id="node12" class="node"><title>Node12</title>
<g id="a_node12"><a xlink:href="ceptr__specs_8c.html" target="_top" xlink:title="implements a main() entry point for running all the tests ">
<polygon fill="white" stroke="black" points="381.196,-0.5 381.196,-19.5 483.196,-19.5 483.196,-0.5 381.196,-0.5"/>
<text text-anchor="middle" x="432.196" y="-7.5" font-family="Helvetica,sans-Serif" font-size="10.00">spec/ceptr_specs.c</text>
</a>
</g>
</g>
<!-- Node11&#45;&gt;Node12 -->
<g id="edge11" class="edge"><title>Node11&#45;&gt;Node12</title>
<path fill="none" stroke="midnightblue" d="M432.196,-45.8045C432.196,-36.9102 432.196,-26.7798 432.196,-19.7511"/>
<polygon fill="midnightblue" stroke="midnightblue" points="428.696,-46.083 432.196,-56.083 435.696,-46.083 428.696,-46.083"/>
</g>
<!-- Node14&#45;&gt;Node12 -->
<g id="edge14" class="edge"><title>Node14&#45;&gt;Node12</title>
<path fill="none" stroke="midnightblue" d="M537.061,-52.6377C511.54,-42.504 476.087,-28.4274 453.645,-19.5164"/>
<polygon fill="midnightblue" stroke="midnightblue" points="536.061,-56.0061 546.647,-56.4435 538.644,-49.5002 536.061,-56.0061"/>
</g>
<!-- Node15&#45;&gt;Node12 -->
<g id="edge16" class="edge"><title>Node15&#45;&gt;Node12</title>
<path fill="none" stroke="midnightblue" d="M352.384,-101.963C354.729,-88.1713 359.518,-69.6301 369.196,-56 380.714,-39.7804 399.97,-27.2744 414.168,-19.6092"/>
<polygon fill="midnightblue" stroke="midnightblue" points="348.869,-101.828 350.936,-112.22 355.8,-102.807 348.869,-101.828"/>
</g>
<!-- Node17&#45;&gt;Node12 -->
<g id="edge25" class="edge"><title>Node17&#45;&gt;Node12</title>
<path fill="none" stroke="midnightblue" d="M81.4642,-162.614C120.301,-138.02 203.514,-87.5035 279.196,-56 317.538,-40.0396 363.477,-27.3333 394.946,-19.5472"/>
<polygon fill="midnightblue" stroke="midnightblue" points="79.1278,-159.953 72.5782,-168.281 82.8916,-165.855 79.1278,-159.953"/>
</g>
<!-- Node18&#45;&gt;Node11 -->
<g id="edge31" class="edge"><title>Node18&#45;&gt;Node11</title>
<path fill="none" stroke="midnightblue" d="M297.517,-215.554C283.541,-190.229 263.359,-142.936 286.196,-112 307.226,-83.512 346.027,-72.4985 378.344,-68.4814"/>
<polygon fill="midnightblue" stroke="midnightblue" points="294.596,-217.493 302.64,-224.388 300.651,-213.982 294.596,-217.493"/>
</g>
<!-- Node18&#45;&gt;Node15 -->
<g id="edge30" class="edge"><title>Node18&#45;&gt;Node15</title>
<path fill="none" stroke="midnightblue" d="M308.81,-213.957C309.787,-200.662 312.221,-182.729 318.196,-168 323.89,-153.964 334.745,-140.113 342.221,-131.564"/>
<polygon fill="midnightblue" stroke="midnightblue" points="305.299,-214.082 308.274,-224.25 312.289,-214.446 305.299,-214.082"/>
</g>
<!-- Node18&#45;&gt;Node17 -->
<g id="edge27" class="edge"><title>Node18&#45;&gt;Node17</title>
<path fill="none" stroke="midnightblue" d="M258.772,-222.281C211.718,-212.077 141.829,-196.92 98.4663,-187.516"/>
<polygon fill="midnightblue" stroke="midnightblue" points="258.227,-225.745 268.741,-224.444 259.71,-218.904 258.227,-225.745"/>
</g>
<!-- Node18&#45;&gt;Node19 -->
<g id="edge28" class="edge"><title>Node18&#45;&gt;Node19</title>
<path fill="none" stroke="midnightblue" d="M327.234,-218.101C339.652,-208.382 355.439,-196.027 365.908,-187.834"/>
<polygon fill="midnightblue" stroke="midnightblue" points="325,-215.405 319.282,-224.324 329.314,-220.917 325,-215.405"/>
</g>
<!-- Node19&#45;&gt;Node12 -->
<g id="edge29" class="edge"><title>Node19&#45;&gt;Node12</title>
<path fill="none" stroke="midnightblue" d="M333.669,-165.196C304.743,-154.809 274.12,-137.354 286.196,-112 309.854,-62.3305 371.502,-32.8226 406.66,-19.5085"/>
<polygon fill="midnightblue" stroke="midnightblue" points="332.755,-168.581 343.349,-168.449 334.985,-161.946 332.755,-168.581"/>
</g>
<!-- Node20&#45;&gt;Node12 -->
<g id="edge34" class="edge"><title>Node20&#45;&gt;Node12</title>
<path fill="none" stroke="midnightblue" d="M192.133,-160.835C214.803,-135.413 262.095,-85.9101 311.196,-56 338.951,-39.0934 374.083,-26.9021 399.332,-19.5084"/>
<polygon fill="midnightblue" stroke="midnightblue" points="189.395,-158.649 185.421,-168.47 194.652,-163.27 189.395,-158.649"/>
</g>
<!-- Node21&#45;&gt;Node12 -->
<g id="edge37" class="edge"><title>Node21&#45;&gt;Node12</title>
<path fill="none" stroke="midnightblue" d="M854.276,-58.1891C758.161,-47.4432 573.058,-26.7485 483.381,-16.7225"/>
<polygon fill="midnightblue" stroke="midnightblue" points="854.093,-61.6903 864.42,-59.3231 854.87,-54.7336 854.093,-61.6903"/>
</g>
<!-- Node22&#45;&gt;Node12 -->
<g id="edge39" class="edge"><title>Node22&#45;&gt;Node12</title>
<path fill="none" stroke="midnightblue" d="M990.411,-218.324C1013.6,-200.854 1049.41,-169.306 1064.2,-132 1083.49,-83.3303 1023.9,-72.4548 974.196,-56 884,-26.1382 600.657,-15.4168 483.588,-12.1968"/>
<polygon fill="midnightblue" stroke="midnightblue" points="988.224,-215.587 982.214,-224.312 992.353,-221.239 988.224,-215.587"/>
</g>
<!-- Node28&#45;&gt;Node12 -->
<g id="edge49" class="edge"><title>Node28&#45;&gt;Node12</title>
<path fill="none" stroke="midnightblue" d="M1160.87,-214.925C1142,-176.497 1091.81,-87.6136 1018.2,-56 922.682,-14.9832 608.003,-10.7514 483.529,-10.7326"/>
<polygon fill="midnightblue" stroke="midnightblue" points="1157.9,-216.815 1165.36,-224.336 1164.21,-213.803 1157.9,-216.815"/>
</g>
</g>
</svg>
