<?xml version="1.0" encoding="UTF-8" standalone="no"?>
<!DOCTYPE svg PUBLIC "-//W3C//DTD SVG 1.1//EN"
 "http://www.w3.org/Graphics/SVG/1.1/DTD/svg11.dtd">
<!-- Generated by graphviz version 2.38.0 (20140413.2041)
 -->
<!-- Title: src/group.h Pages: 1 -->
<svg width="606pt" height="588pt"
 viewBox="0.00 0.00 606.00 588.00" xmlns="http://www.w3.org/2000/svg" xmlns:xlink="http://www.w3.org/1999/xlink">
<g id="graph0" class="graph" transform="scale(1 1) rotate(0) translate(4 584)">
<title>src/group.h</title>
<polygon fill="white" stroke="none" points="-4,4 -4,-584 602,-584 602,4 -4,4"/>
<!-- Node1 -->
<g id="node1" class="node"><title>Node1</title>
<polygon fill="#bfbfbf" stroke="black" points="343.5,-560.5 343.5,-579.5 408.5,-579.5 408.5,-560.5 343.5,-560.5"/>
<text text-anchor="middle" x="376" y="-567.5" font-family="Helvetica,sans-Serif" font-size="10.00">src/group.h</text>
</g>
<!-- Node2 -->
<g id="node2" class="node"><title>Node2</title>
<g id="a_node2"><a xlink:href="accumulator_8h.html" target="_top" xlink:title="header file for the accumulator ">
<polygon fill="white" stroke="black" points="337,-504.5 337,-523.5 415,-523.5 415,-504.5 337,-504.5"/>
<text text-anchor="middle" x="376" y="-511.5" font-family="Helvetica,sans-Serif" font-size="10.00">accumulator.h</text>
</a>
</g>
</g>
<!-- Node1&#45;&gt;Node2 -->
<g id="edge1" class="edge"><title>Node1&#45;&gt;Node2</title>
<path fill="none" stroke="midnightblue" d="M376,-560.083C376,-553.006 376,-542.861 376,-533.986"/>
<polygon fill="midnightblue" stroke="midnightblue" points="379.5,-533.751 376,-523.751 372.5,-533.751 379.5,-533.751"/>
</g>
<!-- Node3 -->
<g id="node3" class="node"><title>Node3</title>
<g id="a_node3"><a xlink:href="tree_8h.html" target="_top" xlink:title="semantic trees header file ">
<polygon fill="white" stroke="black" points="255.5,-280.5 255.5,-299.5 296.5,-299.5 296.5,-280.5 255.5,-280.5"/>
<text text-anchor="middle" x="276" y="-287.5" font-family="Helvetica,sans-Serif" font-size="10.00">tree.h</text>
</a>
</g>
</g>
<!-- Node2&#45;&gt;Node3 -->
<g id="edge2" class="edge"><title>Node2&#45;&gt;Node3</title>
<path fill="none" stroke="midnightblue" d="M375.925,-504.484C375.308,-477.535 370.412,-392.564 334,-336 325.809,-323.276 312.739,-312.675 301.079,-304.964"/>
<polygon fill="midnightblue" stroke="midnightblue" points="302.878,-301.962 292.54,-299.644 299.177,-307.903 302.878,-301.962"/>
</g>
<!-- Node21 -->
<g id="node21" class="node"><title>Node21</title>
<g id="a_node21"><a xlink:href="mtree_8h.html" target="_top" xlink:title="semantic tree matrix header file `` ">
<polygon fill="white" stroke="black" points="397,-224.5 397,-243.5 447,-243.5 447,-224.5 397,-224.5"/>
<text text-anchor="middle" x="422" y="-231.5" font-family="Helvetica,sans-Serif" font-size="10.00">mtree.h</text>
</a>
</g>
</g>
<!-- Node2&#45;&gt;Node21 -->
<g id="edge26" class="edge"><title>Node2&#45;&gt;Node21</title>
<path fill="none" stroke="midnightblue" d="M381.979,-504.328C393.794,-486.318 419,-443.189 419,-403 419,-403 419,-403 419,-345 419,-312.936 420.289,-275.634 421.178,-253.745"/>
<polygon fill="midnightblue" stroke="midnightblue" points="424.683,-253.694 421.608,-243.556 417.689,-253.399 424.683,-253.694"/>
</g>
<!-- Node22 -->
<g id="node22" class="node"><title>Node22</title>
<g id="a_node22"><a xlink:href="vmhost_8h.html" target="_top" xlink:title="vmhost implementation header file ">
<polygon fill="white" stroke="black" points="273.5,-448.5 273.5,-467.5 330.5,-467.5 330.5,-448.5 273.5,-448.5"/>
<text text-anchor="middle" x="302" y="-455.5" font-family="Helvetica,sans-Serif" font-size="10.00">vmhost.h</text>
</a>
</g>
</g>
<!-- Node2&#45;&gt;Node22 -->
<g id="edge32" class="edge"><title>Node2&#45;&gt;Node22</title>
<path fill="none" stroke="midnightblue" d="M364.111,-504.324C352.85,-496.107 335.713,-483.602 322.291,-473.807"/>
<polygon fill="midnightblue" stroke="midnightblue" points="324.247,-470.901 314.106,-467.834 320.12,-476.556 324.247,-470.901"/>
</g>
<!-- Node4 -->
<g id="node4" class="node"><title>Node4</title>
<polygon fill="white" stroke="#bfbfbf" points="147.5,-0.5 147.5,-19.5 196.5,-19.5 196.5,-0.5 147.5,-0.5"/>
<text text-anchor="middle" x="172" y="-7.5" font-family="Helvetica,sans-Serif" font-size="10.00">string.h</text>
</g>
<!-- Node3&#45;&gt;Node4 -->
<g id="edge3" class="edge"><title>Node3&#45;&gt;Node4</title>
<path fill="none" stroke="midnightblue" d="M255.093,-283.827C198.23,-269.151 45,-225.307 45,-179 45,-179 45,-179 45,-121 45,-90.9022 43.9243,-78.4242 64,-56 74.1965,-44.6107 109.737,-31.0582 137.295,-21.8233"/>
<polygon fill="midnightblue" stroke="midnightblue" points="138.616,-25.0735 147.025,-18.6284 136.432,-18.4229 138.616,-25.0735"/>
</g>
<!-- Node5 -->
<g id="node5" class="node"><title>Node5</title>
<polygon fill="white" stroke="#bfbfbf" points="536,-0.5 536,-19.5 584,-19.5 584,-0.5 536,-0.5"/>
<text text-anchor="middle" x="560" y="-7.5" font-family="Helvetica,sans-Serif" font-size="10.00">stdlib.h</text>
</g>
<!-- Node3&#45;&gt;Node5 -->
<g id="edge4" class="edge"><title>Node3&#45;&gt;Node5</title>
<path fill="none" stroke="midnightblue" d="M296.632,-286.519C367.701,-277.408 598,-242.948 598,-179 598,-179 598,-179 598,-121 598,-86.8131 581.4,-49.7639 570.143,-28.5707"/>
<polygon fill="midnightblue" stroke="midnightblue" points="573.181,-26.832 565.284,-19.769 567.053,-30.2151 573.181,-26.832"/>
</g>
<!-- Node6 -->
<g id="node6" class="node"><title>Node6</title>
<g id="a_node6"><a xlink:href="ceptr__error_8h_source.html" target="_top" xlink:title="ceptr_error.h">
<polygon fill="white" stroke="black" points="386.5,-168.5 386.5,-187.5 457.5,-187.5 457.5,-168.5 386.5,-168.5"/>
<text text-anchor="middle" x="422" y="-175.5" font-family="Helvetica,sans-Serif" font-size="10.00">ceptr_error.h</text>
</a>
</g>
</g>
<!-- Node3&#45;&gt;Node6 -->
<g id="edge5" class="edge"><title>Node3&#45;&gt;Node6</title>
<path fill="none" stroke="midnightblue" d="M287.456,-280.368C312.297,-261.653 371.363,-217.151 402.313,-193.832"/>
<polygon fill="midnightblue" stroke="midnightblue" points="404.716,-196.404 410.597,-187.591 400.504,-190.814 404.716,-196.404"/>
</g>
<!-- Node11 -->
<g id="node11" class="node"><title>Node11</title>
<g id="a_node11"><a xlink:href="sys__defs_8h.html" target="_top" xlink:title="Defines types and vars for system defined semantics. ">
<polygon fill="white" stroke="black" points="264.5,-168.5 264.5,-187.5 329.5,-187.5 329.5,-168.5 264.5,-168.5"/>
<text text-anchor="middle" x="297" y="-175.5" font-family="Helvetica,sans-Serif" font-size="10.00">sys_defs.h</text>
</a>
</g>
</g>
<!-- Node3&#45;&gt;Node11 -->
<g id="edge10" class="edge"><title>Node3&#45;&gt;Node11</title>
<path fill="none" stroke="midnightblue" d="M286.162,-280.185C294.908,-271.87 306.9,-258.539 312,-244 317.445,-228.478 312.231,-210.172 306.509,-196.948"/>
<polygon fill="midnightblue" stroke="midnightblue" points="309.494,-195.079 302.006,-187.584 303.185,-198.113 309.494,-195.079"/>
</g>
<!-- Node12 -->
<g id="node12" class="node"><title>Node12</title>
<g id="a_node12"><a xlink:href="ceptr__types_8h_source.html" target="_top" xlink:title="ceptr_types.h">
<polygon fill="white" stroke="black" points="132,-112.5 132,-131.5 208,-131.5 208,-112.5 132,-112.5"/>
<text text-anchor="middle" x="170" y="-119.5" font-family="Helvetica,sans-Serif" font-size="10.00">ceptr_types.h</text>
</a>
</g>
</g>
<!-- Node3&#45;&gt;Node12 -->
<g id="edge22" class="edge"><title>Node3&#45;&gt;Node12</title>
<path fill="none" stroke="midnightblue" d="M255.398,-287.868C227.023,-285.13 176.432,-275.794 150,-244 128.256,-217.844 131.397,-200.63 141,-168 144.012,-157.765 150.155,-147.66 156.014,-139.627"/>
<polygon fill="midnightblue" stroke="midnightblue" points="158.932,-141.577 162.327,-131.541 153.414,-137.269 158.932,-141.577"/>
</g>
<!-- Node18 -->
<g id="node18" class="node"><title>Node18</title>
<g id="a_node18"><a xlink:href="base__defs_8h.html" target="_top" xlink:title="auto&#45;generated system definitions ">
<polygon fill="white" stroke="black" points="233,-224.5 233,-243.5 303,-243.5 303,-224.5 233,-224.5"/>
<text text-anchor="middle" x="268" y="-231.5" font-family="Helvetica,sans-Serif" font-size="10.00">base_defs.h</text>
</a>
</g>
</g>
<!-- Node3&#45;&gt;Node18 -->
<g id="edge20" class="edge"><title>Node3&#45;&gt;Node18</title>
<path fill="none" stroke="midnightblue" d="M274.679,-280.083C273.619,-272.927 272.094,-262.635 270.769,-253.691"/>
<polygon fill="midnightblue" stroke="midnightblue" points="274.224,-253.13 269.296,-243.751 267.3,-254.156 274.224,-253.13"/>
</g>
<!-- Node19 -->
<g id="node19" class="node"><title>Node19</title>
<g id="a_node19"><a xlink:href="stream_8h.html" target="_top" xlink:title="streams abstraction header file ">
<polygon fill="white" stroke="black" points="159.5,-224.5 159.5,-243.5 214.5,-243.5 214.5,-224.5 159.5,-224.5"/>
<text text-anchor="middle" x="187" y="-231.5" font-family="Helvetica,sans-Serif" font-size="10.00">stream.h</text>
</a>
</g>
</g>
<!-- Node3&#45;&gt;Node19 -->
<g id="edge23" class="edge"><title>Node3&#45;&gt;Node19</title>
<path fill="none" stroke="midnightblue" d="M261.701,-280.324C247.817,-271.9 226.508,-258.971 210.196,-249.074"/>
<polygon fill="midnightblue" stroke="midnightblue" points="211.629,-245.85 201.264,-243.655 207.998,-251.834 211.629,-245.85"/>
</g>
<!-- Node7 -->
<g id="node7" class="node"><title>Node7</title>
<polygon fill="white" stroke="#bfbfbf" points="287,-56.5 287,-75.5 333,-75.5 333,-56.5 287,-56.5"/>
<text text-anchor="middle" x="310" y="-63.5" font-family="Helvetica,sans-Serif" font-size="10.00">stdio.h</text>
</g>
<!-- Node6&#45;&gt;Node7 -->
<g id="edge6" class="edge"><title>Node6&#45;&gt;Node7</title>
<path fill="none" stroke="midnightblue" d="M386.459,-169.44C352.229,-161.352 304.057,-147.567 293,-132 283.012,-117.938 290.235,-98.4329 298.119,-84.4654"/>
<polygon fill="midnightblue" stroke="midnightblue" points="301.186,-86.1592 303.478,-75.8152 295.236,-82.4722 301.186,-86.1592"/>
</g>
<!-- Node8 -->
<g id="node8" class="node"><title>Node8</title>
<polygon fill="white" stroke="#bfbfbf" points="302,-112.5 302,-131.5 352,-131.5 352,-112.5 302,-112.5"/>
<text text-anchor="middle" x="327" y="-119.5" font-family="Helvetica,sans-Serif" font-size="10.00">signal.h</text>
</g>
<!-- Node6&#45;&gt;Node8 -->
<g id="edge7" class="edge"><title>Node6&#45;&gt;Node8</title>
<path fill="none" stroke="midnightblue" d="M406.737,-168.324C391.779,-159.822 368.745,-146.729 351.273,-136.797"/>
<polygon fill="midnightblue" stroke="midnightblue" points="352.649,-133.553 342.226,-131.655 349.19,-139.639 352.649,-133.553"/>
</g>
<!-- Node9 -->
<g id="node9" class="node"><title>Node9</title>
<polygon fill="white" stroke="#bfbfbf" points="370,-112.5 370,-131.5 422,-131.5 422,-112.5 370,-112.5"/>
<text text-anchor="middle" x="396" y="-119.5" font-family="Helvetica,sans-Serif" font-size="10.00">assert.h</text>
</g>
<!-- Node6&#45;&gt;Node9 -->
<g id="edge8" class="edge"><title>Node6&#45;&gt;Node9</title>
<path fill="none" stroke="midnightblue" d="M417.707,-168.083C414.148,-160.691 408.978,-149.953 404.576,-140.811"/>
<polygon fill="midnightblue" stroke="midnightblue" points="407.705,-139.243 400.213,-131.751 401.398,-142.279 407.705,-139.243"/>
</g>
<!-- Node10 -->
<g id="node10" class="node"><title>Node10</title>
<polygon fill="white" stroke="#bfbfbf" points="440,-112.5 440,-131.5 494,-131.5 494,-112.5 440,-112.5"/>
<text text-anchor="middle" x="467" y="-119.5" font-family="Helvetica,sans-Serif" font-size="10.00">setjmp.h</text>
</g>
<!-- Node6&#45;&gt;Node10 -->
<g id="edge9" class="edge"><title>Node6&#45;&gt;Node10</title>
<path fill="none" stroke="midnightblue" d="M429.431,-168.083C435.853,-160.377 445.306,-149.033 453.122,-139.653"/>
<polygon fill="midnightblue" stroke="midnightblue" points="455.994,-141.674 459.707,-131.751 450.617,-137.193 455.994,-141.674"/>
</g>
<!-- Node11&#45;&gt;Node12 -->
<g id="edge11" class="edge"><title>Node11&#45;&gt;Node12</title>
<path fill="none" stroke="midnightblue" d="M276.876,-168.444C255.976,-159.557 223.065,-145.563 199.284,-135.451"/>
<polygon fill="midnightblue" stroke="midnightblue" points="200.602,-132.208 190.029,-131.516 197.862,-138.65 200.602,-132.208"/>
</g>
<!-- Node12&#45;&gt;Node7 -->
<g id="edge13" class="edge"><title>Node12&#45;&gt;Node7</title>
<path fill="none" stroke="midnightblue" d="M192.183,-112.444C215.428,-103.478 252.149,-89.314 278.415,-79.1827"/>
<polygon fill="midnightblue" stroke="midnightblue" points="279.85,-82.3807 287.92,-75.5164 277.331,-75.8497 279.85,-82.3807"/>
</g>
<!-- Node13 -->
<g id="node13" class="node"><title>Node13</title>
<polygon fill="white" stroke="#bfbfbf" points="145.5,-56.5 145.5,-75.5 194.5,-75.5 194.5,-56.5 145.5,-56.5"/>
<text text-anchor="middle" x="170" y="-63.5" font-family="Helvetica,sans-Serif" font-size="10.00">stdint.h</text>
</g>
<!-- Node12&#45;&gt;Node13 -->
<g id="edge12" class="edge"><title>Node12&#45;&gt;Node13</title>
<path fill="none" stroke="midnightblue" d="M170,-112.083C170,-105.006 170,-94.8611 170,-85.9865"/>
<polygon fill="midnightblue" stroke="midnightblue" points="173.5,-85.751 170,-75.7511 166.5,-85.7511 173.5,-85.751"/>
</g>
<!-- Node14 -->
<g id="node14" class="node"><title>Node14</title>
<g id="a_node14"><a xlink:href="uthash_8h_source.html" target="_top" xlink:title="uthash.h">
<polygon fill="white" stroke="black" points="73,-56.5 73,-75.5 127,-75.5 127,-56.5 73,-56.5"/>
<text text-anchor="middle" x="100" y="-63.5" font-family="Helvetica,sans-Serif" font-size="10.00">uthash.h</text>
</a>
</g>
</g>
<!-- Node12&#45;&gt;Node14 -->
<g id="edge14" class="edge"><title>Node12&#45;&gt;Node14</title>
<path fill="none" stroke="midnightblue" d="M158.753,-112.324C148.203,-104.185 132.199,-91.8395 119.558,-82.0874"/>
<polygon fill="midnightblue" stroke="midnightblue" points="121.507,-79.1707 111.451,-75.8339 117.231,-84.7132 121.507,-79.1707"/>
</g>
<!-- Node17 -->
<g id="node17" class="node"><title>Node17</title>
<polygon fill="white" stroke="#bfbfbf" points="213,-56.5 213,-75.5 269,-75.5 269,-56.5 213,-56.5"/>
<text text-anchor="middle" x="241" y="-63.5" font-family="Helvetica,sans-Serif" font-size="10.00">stdbool.h</text>
</g>
<!-- Node12&#45;&gt;Node17 -->
<g id="edge19" class="edge"><title>Node12&#45;&gt;Node17</title>
<path fill="none" stroke="midnightblue" d="M181.407,-112.324C192.109,-104.185 208.341,-91.8395 221.163,-82.0874"/>
<polygon fill="midnightblue" stroke="midnightblue" points="223.544,-84.6734 229.385,-75.8339 219.307,-79.1018 223.544,-84.6734"/>
</g>
<!-- Node14&#45;&gt;Node4 -->
<g id="edge15" class="edge"><title>Node14&#45;&gt;Node4</title>
<path fill="none" stroke="midnightblue" d="M111.568,-56.324C122.42,-48.1849 138.881,-35.8395 151.883,-26.0874"/>
<polygon fill="midnightblue" stroke="midnightblue" points="154.321,-28.6339 160.221,-19.8339 150.121,-23.0339 154.321,-28.6339"/>
</g>
<!-- Node14&#45;&gt;Node5 -->
<g id="edge17" class="edge"><title>Node14&#45;&gt;Node5</title>
<path fill="none" stroke="midnightblue" d="M127.04,-57.811C130.05,-57.1388 133.082,-56.517 136,-56 279.514,-30.5726 453.081,-17.6393 525.58,-13.0225"/>
<polygon fill="midnightblue" stroke="midnightblue" points="526.166,-16.4928 535.928,-12.3766 525.73,-9.50639 526.166,-16.4928"/>
</g>
<!-- Node15 -->
<g id="node15" class="node"><title>Node15</title>
<polygon fill="white" stroke="#bfbfbf" points="0,-0.5 0,-19.5 52,-19.5 52,-0.5 0,-0.5"/>
<text text-anchor="middle" x="26" y="-7.5" font-family="Helvetica,sans-Serif" font-size="10.00">stddef.h</text>
</g>
<!-- Node14&#45;&gt;Node15 -->
<g id="edge16" class="edge"><title>Node14&#45;&gt;Node15</title>
<path fill="none" stroke="midnightblue" d="M88.1106,-56.324C76.8498,-48.1066 59.7134,-35.6017 46.2909,-25.8069"/>
<polygon fill="midnightblue" stroke="midnightblue" points="48.2468,-22.9014 38.1057,-19.8339 44.1205,-28.5559 48.2468,-22.9014"/>
</g>
<!-- Node16 -->
<g id="node16" class="node"><title>Node16</title>
<polygon fill="white" stroke="#bfbfbf" points="70.5,-0.5 70.5,-19.5 129.5,-19.5 129.5,-0.5 70.5,-0.5"/>
<text text-anchor="middle" x="100" y="-7.5" font-family="Helvetica,sans-Serif" font-size="10.00">inttypes.h</text>
</g>
<!-- Node14&#45;&gt;Node16 -->
<g id="edge18" class="edge"><title>Node14&#45;&gt;Node16</title>
<path fill="none" stroke="midnightblue" d="M100,-56.083C100,-49.0059 100,-38.8611 100,-29.9865"/>
<polygon fill="midnightblue" stroke="midnightblue" points="103.5,-29.751 100,-19.7511 96.5001,-29.7511 103.5,-29.751"/>
</g>
<!-- Node18&#45;&gt;Node11 -->
<g id="edge21" class="edge"><title>Node18&#45;&gt;Node11</title>
<path fill="none" stroke="midnightblue" d="M272.789,-224.083C276.758,-216.691 282.525,-205.953 287.435,-196.811"/>
<polygon fill="midnightblue" stroke="midnightblue" points="290.653,-198.217 292.3,-187.751 284.486,-194.905 290.653,-198.217"/>
</g>
<!-- Node19&#45;&gt;Node7 -->
<g id="edge24" class="edge"><title>Node19&#45;&gt;Node7</title>
<path fill="none" stroke="midnightblue" d="M193.613,-224.075C213.31,-197.493 271.812,-118.538 297.579,-83.7633"/>
<polygon fill="midnightblue" stroke="midnightblue" points="300.51,-85.6866 303.651,-75.5681 294.886,-81.5191 300.51,-85.6866"/>
</g>
<!-- Node20 -->
<g id="node20" class="node"><title>Node20</title>
<polygon fill="white" stroke="#bfbfbf" points="150.5,-168.5 150.5,-187.5 207.5,-187.5 207.5,-168.5 150.5,-168.5"/>
<text text-anchor="middle" x="179" y="-175.5" font-family="Helvetica,sans-Serif" font-size="10.00">pthread.h</text>
</g>
<!-- Node19&#45;&gt;Node20 -->
<g id="edge25" class="edge"><title>Node19&#45;&gt;Node20</title>
<path fill="none" stroke="midnightblue" d="M185.679,-224.083C184.619,-216.927 183.094,-206.635 181.769,-197.691"/>
<polygon fill="midnightblue" stroke="midnightblue" points="185.224,-197.13 180.296,-187.751 178.3,-198.156 185.224,-197.13"/>
</g>
<!-- Node21&#45;&gt;Node4 -->
<g id="edge27" class="edge"><title>Node21&#45;&gt;Node4</title>
<path fill="none" stroke="midnightblue" d="M435.687,-224.379C465.717,-204.387 532.442,-153.412 503,-112 468.089,-62.894 284.708,-28.7383 206.928,-16.2488"/>
<polygon fill="midnightblue" stroke="midnightblue" points="207.104,-12.7332 196.68,-14.6309 206.012,-19.6476 207.104,-12.7332"/>
</g>
<!-- Node21&#45;&gt;Node5 -->
<g id="edge28" class="edge"><title>Node21&#45;&gt;Node5</title>
<path fill="none" stroke="midnightblue" d="M447.246,-230.383C473.742,-226.208 514.473,-215.464 536,-188 572.781,-141.075 567.852,-64.7967 563.117,-29.7244"/>
<polygon fill="midnightblue" stroke="midnightblue" points="566.53,-28.8794 561.58,-19.5119 559.608,-29.9215 566.53,-28.8794"/>
</g>
<!-- Node21&#45;&gt;Node6 -->
<g id="edge29" class="edge"><title>Node21&#45;&gt;Node6</title>
<path fill="none" stroke="midnightblue" d="M422,-224.083C422,-217.006 422,-206.861 422,-197.986"/>
<polygon fill="midnightblue" stroke="midnightblue" points="425.5,-197.751 422,-187.751 418.5,-197.751 425.5,-197.751"/>
</g>
<!-- Node21&#45;&gt;Node11 -->
<g id="edge30" class="edge"><title>Node21&#45;&gt;Node11</title>
<path fill="none" stroke="midnightblue" d="M402.193,-224.444C381.713,-215.596 349.517,-201.687 326.135,-191.586"/>
<polygon fill="midnightblue" stroke="midnightblue" points="327.282,-188.269 316.714,-187.516 324.506,-194.695 327.282,-188.269"/>
</g>
<!-- Node21&#45;&gt;Node12 -->
<g id="edge31" class="edge"><title>Node21&#45;&gt;Node12</title>
<path fill="none" stroke="midnightblue" d="M413.486,-224.494C399.149,-210.642 368.73,-183.231 338,-168 299.833,-149.084 252.714,-137.35 218.099,-130.628"/>
<polygon fill="midnightblue" stroke="midnightblue" points="218.708,-127.181 208.234,-128.781 217.42,-134.061 218.708,-127.181"/>
</g>
<!-- Node23 -->
<g id="node23" class="node"><title>Node23</title>
<g id="a_node23"><a xlink:href="receptor_8h.html" target="_top" xlink:title="receptor implementation header file ">
<polygon fill="white" stroke="black" points="218,-392.5 218,-411.5 278,-411.5 278,-392.5 218,-392.5"/>
<text text-anchor="middle" x="248" y="-399.5" font-family="Helvetica,sans-Serif" font-size="10.00">receptor.h</text>
</a>
</g>
</g>
<!-- Node22&#45;&gt;Node23 -->
<g id="edge33" class="edge"><title>Node22&#45;&gt;Node23</title>
<path fill="none" stroke="midnightblue" d="M293.083,-448.083C285.22,-440.22 273.569,-428.569 264.081,-419.081"/>
<polygon fill="midnightblue" stroke="midnightblue" points="266.297,-416.347 256.751,-411.751 261.347,-421.297 266.297,-416.347"/>
</g>
<!-- Node23&#45;&gt;Node3 -->
<g id="edge34" class="edge"><title>Node23&#45;&gt;Node3</title>
<path fill="none" stroke="midnightblue" d="M272.469,-392.438C288.567,-385.378 308.377,-373.626 318,-356 327.669,-338.289 311.538,-318.987 296.55,-306.057"/>
<polygon fill="midnightblue" stroke="midnightblue" points="298.495,-303.129 288.513,-299.58 294.103,-308.58 298.495,-303.129"/>
</g>
<!-- Node24 -->
<g id="node24" class="node"><title>Node24</title>
<g id="a_node24"><a xlink:href="def_8h.html" target="_top" xlink:title="header file for symbol and structure definition functions ">
<polygon fill="white" stroke="black" points="125,-336.5 125,-355.5 163,-355.5 163,-336.5 125,-336.5"/>
<text text-anchor="middle" x="144" y="-343.5" font-family="Helvetica,sans-Serif" font-size="10.00">def.h</text>
</a>
</g>
</g>
<!-- Node23&#45;&gt;Node24 -->
<g id="edge35" class="edge"><title>Node23&#45;&gt;Node24</title>
<path fill="none" stroke="midnightblue" d="M231.291,-392.324C214.688,-383.703 188.998,-370.364 169.78,-360.386"/>
<polygon fill="midnightblue" stroke="midnightblue" points="171.156,-357.156 160.668,-355.655 167.93,-363.369 171.156,-357.156"/>
</g>
<!-- Node26 -->
<g id="node26" class="node"><title>Node26</title>
<g id="a_node26"><a xlink:href="label_8h.html" target="_top" xlink:title="Label tables map human readable text strings to parts of semantic trees. ">
<polygon fill="white" stroke="black" points="61.5,-280.5 61.5,-299.5 106.5,-299.5 106.5,-280.5 61.5,-280.5"/>
<text text-anchor="middle" x="84" y="-287.5" font-family="Helvetica,sans-Serif" font-size="10.00">label.h</text>
</a>
</g>
</g>
<!-- Node23&#45;&gt;Node26 -->
<g id="edge38" class="edge"><title>Node23&#45;&gt;Node26</title>
<path fill="none" stroke="midnightblue" d="M217.963,-397.459C188.835,-392.616 144.918,-381.411 116,-356 102.146,-343.826 93.6644,-324.275 88.9458,-309.79"/>
<polygon fill="midnightblue" stroke="midnightblue" points="92.2197,-308.516 86.0443,-299.907 85.5032,-310.488 92.2197,-308.516"/>
</g>
<!-- Node27 -->
<g id="node27" class="node"><title>Node27</title>
<g id="a_node27"><a xlink:href="process_8h.html" target="_top" xlink:title="processing header files ">
<polygon fill="white" stroke="black" points="181.5,-336.5 181.5,-355.5 240.5,-355.5 240.5,-336.5 181.5,-336.5"/>
<text text-anchor="middle" x="211" y="-343.5" font-family="Helvetica,sans-Serif" font-size="10.00">process.h</text>
</a>
</g>
</g>
<!-- Node23&#45;&gt;Node27 -->
<g id="edge40" class="edge"><title>Node23&#45;&gt;Node27</title>
<path fill="none" stroke="midnightblue" d="M241.89,-392.083C236.718,-384.534 229.154,-373.495 222.806,-364.23"/>
<polygon fill="midnightblue" stroke="midnightblue" points="225.536,-362.022 216.996,-355.751 219.761,-365.979 225.536,-362.022"/>
</g>
<!-- Node28 -->
<g id="node28" class="node"><title>Node28</title>
<g id="a_node28"><a xlink:href="scape_8h.html" target="_top" xlink:title="scape header files ">
<polygon fill="white" stroke="black" points="258.5,-336.5 258.5,-355.5 309.5,-355.5 309.5,-336.5 258.5,-336.5"/>
<text text-anchor="middle" x="284" y="-343.5" font-family="Helvetica,sans-Serif" font-size="10.00">scape.h</text>
</a>
</g>
</g>
<!-- Node23&#45;&gt;Node28 -->
<g id="edge42" class="edge"><title>Node23&#45;&gt;Node28</title>
<path fill="none" stroke="midnightblue" d="M253.945,-392.083C258.977,-384.534 266.337,-373.495 272.513,-364.23"/>
<polygon fill="midnightblue" stroke="midnightblue" points="275.531,-366.013 278.166,-355.751 269.707,-362.13 275.531,-366.013"/>
</g>
<!-- Node24&#45;&gt;Node3 -->
<g id="edge36" class="edge"><title>Node24&#45;&gt;Node3</title>
<path fill="none" stroke="midnightblue" d="M163.194,-337.148C184.909,-328.265 220.551,-313.684 245.958,-303.29"/>
<polygon fill="midnightblue" stroke="midnightblue" points="247.549,-306.421 255.479,-299.395 244.898,-299.942 247.549,-306.421"/>
</g>
<!-- Node25 -->
<g id="node25" class="node"><title>Node25</title>
<polygon fill="white" stroke="#bfbfbf" points="125,-280.5 125,-299.5 177,-299.5 177,-280.5 125,-280.5"/>
<text text-anchor="middle" x="151" y="-287.5" font-family="Helvetica,sans-Serif" font-size="10.00">stdarg.h</text>
</g>
<!-- Node24&#45;&gt;Node25 -->
<g id="edge37" class="edge"><title>Node24&#45;&gt;Node25</title>
<path fill="none" stroke="midnightblue" d="M145.156,-336.083C146.084,-328.927 147.418,-318.635 148.577,-309.691"/>
<polygon fill="midnightblue" stroke="midnightblue" points="152.051,-310.118 149.866,-299.751 145.109,-309.218 152.051,-310.118"/>
</g>
<!-- Node26&#45;&gt;Node12 -->
<g id="edge39" class="edge"><title>Node26&#45;&gt;Node12</title>
<path fill="none" stroke="midnightblue" d="M83.6463,-280.297C83.2041,-259.246 84.5622,-204.616 108,-168 116.482,-154.749 130.363,-144.136 142.842,-136.552"/>
<polygon fill="midnightblue" stroke="midnightblue" points="144.628,-139.563 151.584,-131.571 141.163,-133.481 144.628,-139.563"/>
</g>
<!-- Node27&#45;&gt;Node3 -->
<g id="edge41" class="edge"><title>Node27&#45;&gt;Node3</title>
<path fill="none" stroke="midnightblue" d="M221.443,-336.324C231.146,-328.263 245.815,-316.077 257.5,-306.369"/>
<polygon fill="midnightblue" stroke="midnightblue" points="259.911,-308.916 265.367,-299.834 255.438,-303.532 259.911,-308.916"/>
</g>
<!-- Node28&#45;&gt;Node3 -->
<g id="edge43" class="edge"><title>Node28&#45;&gt;Node3</title>
<path fill="none" stroke="midnightblue" d="M282.679,-336.083C281.619,-328.927 280.094,-318.635 278.769,-309.691"/>
<polygon fill="midnightblue" stroke="midnightblue" points="282.224,-309.13 277.296,-299.751 275.3,-310.156 282.224,-309.13"/>
</g>
</g>
</svg>
