<?xml version="1.0" encoding="UTF-8" standalone="no"?>
<!DOCTYPE svg PUBLIC "-//W3C//DTD SVG 1.1//EN"
 "http://www.w3.org/Graphics/SVG/1.1/DTD/svg11.dtd">
<!-- Generated by graphviz version 2.38.0 (20140413.2041)
 -->
<!-- Title: src/group.h Pages: 1 -->
<svg width="760pt" height="644pt"
 viewBox="0.00 0.00 759.50 644.00" xmlns="http://www.w3.org/2000/svg" xmlns:xlink="http://www.w3.org/1999/xlink">
<g id="graph0" class="graph" transform="scale(1 1) rotate(0) translate(4 640)">
<title>src/group.h</title>
<polygon fill="white" stroke="none" points="-4,4 -4,-640 755.5,-640 755.5,4 -4,4"/>
<!-- Node1 -->
<g id="node1" class="node"><title>Node1</title>
<polygon fill="#bfbfbf" stroke="black" points="287,-616.5 287,-635.5 352,-635.5 352,-616.5 287,-616.5"/>
<text text-anchor="middle" x="319.5" y="-623.5" font-family="Helvetica,sans-Serif" font-size="10.00">src/group.h</text>
</g>
<!-- Node2 -->
<g id="node2" class="node"><title>Node2</title>
<g id="a_node2"><a xlink:href="accumulator_8h.html" target="_top" xlink:title="header file for the accumulator ">
<polygon fill="white" stroke="black" points="280.5,-560.5 280.5,-579.5 358.5,-579.5 358.5,-560.5 280.5,-560.5"/>
<text text-anchor="middle" x="319.5" y="-567.5" font-family="Helvetica,sans-Serif" font-size="10.00">accumulator.h</text>
</a>
</g>
</g>
<!-- Node1&#45;&gt;Node2 -->
<g id="edge1" class="edge"><title>Node1&#45;&gt;Node2</title>
<path fill="none" stroke="midnightblue" d="M319.5,-616.083C319.5,-609.006 319.5,-598.861 319.5,-589.986"/>
<polygon fill="midnightblue" stroke="midnightblue" points="323,-589.751 319.5,-579.751 316,-589.751 323,-589.751"/>
</g>
<!-- Node3 -->
<g id="node3" class="node"><title>Node3</title>
<g id="a_node3"><a xlink:href="tree_8h.html" target="_top" xlink:title="semantic trees header file ">
<polygon fill="white" stroke="black" points="300,-336.5 300,-355.5 341,-355.5 341,-336.5 300,-336.5"/>
<text text-anchor="middle" x="320.5" y="-343.5" font-family="Helvetica,sans-Serif" font-size="10.00">tree.h</text>
</a>
</g>
</g>
<!-- Node2&#45;&gt;Node3 -->
<g id="edge2" class="edge"><title>Node2&#45;&gt;Node3</title>
<path fill="none" stroke="midnightblue" d="M305.737,-560.458C266.088,-534.782 157.202,-456.111 201.5,-392 211.867,-376.997 258.372,-362.626 290.081,-354.313"/>
<polygon fill="midnightblue" stroke="midnightblue" points="290.968,-357.699 299.792,-351.835 289.237,-350.917 290.968,-357.699"/>
</g>
<!-- Node22 -->
<g id="node22" class="node"><title>Node22</title>
<g id="a_node22"><a xlink:href="mtree_8h.html" target="_top" xlink:title="semantic tree matrix header file `` ">
<polygon fill="white" stroke="black" points="499.5,-280.5 499.5,-299.5 549.5,-299.5 549.5,-280.5 499.5,-280.5"/>
<text text-anchor="middle" x="524.5" y="-287.5" font-family="Helvetica,sans-Serif" font-size="10.00">mtree.h</text>
</a>
</g>
</g>
<!-- Node2&#45;&gt;Node22 -->
<g id="edge30" class="edge"><title>Node2&#45;&gt;Node22</title>
<path fill="none" stroke="midnightblue" d="M358.537,-565.026C416.74,-556.705 519.5,-531.716 519.5,-459 519.5,-459 519.5,-459 519.5,-401 519.5,-368.915 521.649,-331.62 523.129,-309.737"/>
<polygon fill="midnightblue" stroke="midnightblue" points="526.635,-309.773 523.846,-299.552 519.653,-309.281 526.635,-309.773"/>
</g>
<!-- Node23 -->
<g id="node23" class="node"><title>Node23</title>
<g id="a_node23"><a xlink:href="vmhost_8h.html" target="_top" xlink:title="vmhost implementation header file ">
<polygon fill="white" stroke="black" points="291,-504.5 291,-523.5 348,-523.5 348,-504.5 291,-504.5"/>
<text text-anchor="middle" x="319.5" y="-511.5" font-family="Helvetica,sans-Serif" font-size="10.00">vmhost.h</text>
</a>
</g>
</g>
<!-- Node2&#45;&gt;Node23 -->
<g id="edge36" class="edge"><title>Node2&#45;&gt;Node23</title>
<path fill="none" stroke="midnightblue" d="M319.5,-560.083C319.5,-553.006 319.5,-542.861 319.5,-533.986"/>
<polygon fill="midnightblue" stroke="midnightblue" points="323,-533.751 319.5,-523.751 316,-533.751 323,-533.751"/>
</g>
<!-- Node4 -->
<g id="node4" class="node"><title>Node4</title>
<polygon fill="white" stroke="#bfbfbf" points="172,-0.5 172,-19.5 221,-19.5 221,-0.5 172,-0.5"/>
<text text-anchor="middle" x="196.5" y="-7.5" font-family="Helvetica,sans-Serif" font-size="10.00">string.h</text>
</g>
<!-- Node3&#45;&gt;Node4 -->
<g id="edge3" class="edge"><title>Node3&#45;&gt;Node4</title>
<path fill="none" stroke="midnightblue" d="M299.866,-340.493C240.502,-326.936 73.5,-284.407 73.5,-235 73.5,-235 73.5,-235 73.5,-121 73.5,-90.9022 72.577,-78.5599 92.5,-56 102.2,-45.0164 135.827,-31.5779 162.25,-22.2608"/>
<polygon fill="midnightblue" stroke="midnightblue" points="163.651,-25.4798 171.959,-18.9054 161.365,-18.8637 163.651,-25.4798"/>
</g>
<!-- Node5 -->
<g id="node5" class="node"><title>Node5</title>
<polygon fill="white" stroke="#bfbfbf" points="689.5,-0.5 689.5,-19.5 737.5,-19.5 737.5,-0.5 689.5,-0.5"/>
<text text-anchor="middle" x="713.5" y="-7.5" font-family="Helvetica,sans-Serif" font-size="10.00">stdlib.h</text>
</g>
<!-- Node3&#45;&gt;Node5 -->
<g id="edge4" class="edge"><title>Node3&#45;&gt;Node5</title>
<path fill="none" stroke="midnightblue" d="M341.288,-344.231C427.382,-340.491 751.5,-320.72 751.5,-235 751.5,-235 751.5,-235 751.5,-121 751.5,-86.8131 734.9,-49.7639 723.643,-28.5707"/>
<polygon fill="midnightblue" stroke="midnightblue" points="726.681,-26.832 718.784,-19.769 720.553,-30.2151 726.681,-26.832"/>
</g>
<!-- Node6 -->
<g id="node6" class="node"><title>Node6</title>
<g id="a_node6"><a xlink:href="ceptr__error_8h_source.html" target="_top" xlink:title="ceptr_error.h">
<polygon fill="white" stroke="black" points="447,-112.5 447,-131.5 518,-131.5 518,-112.5 447,-112.5"/>
<text text-anchor="middle" x="482.5" y="-119.5" font-family="Helvetica,sans-Serif" font-size="10.00">ceptr_error.h</text>
</a>
</g>
</g>
<!-- Node3&#45;&gt;Node6 -->
<g id="edge5" class="edge"><title>Node3&#45;&gt;Node6</title>
<path fill="none" stroke="midnightblue" d="M328.312,-336.23C336.17,-327.3 348.518,-312.963 358.5,-300 402.271,-243.155 449.836,-172.477 471.106,-140.346"/>
<polygon fill="midnightblue" stroke="midnightblue" points="474.245,-141.945 476.83,-131.67 468.402,-138.09 474.245,-141.945"/>
</g>
<!-- Node11 -->
<g id="node11" class="node"><title>Node11</title>
<g id="a_node11"><a xlink:href="sys__defs_8h.html" target="_top" xlink:title="Defines types and vars for system defined semantics. ">
<polygon fill="white" stroke="black" points="284,-224.5 284,-243.5 349,-243.5 349,-224.5 284,-224.5"/>
<text text-anchor="middle" x="316.5" y="-231.5" font-family="Helvetica,sans-Serif" font-size="10.00">sys_defs.h</text>
</a>
</g>
</g>
<!-- Node3&#45;&gt;Node11 -->
<g id="edge10" class="edge"><title>Node3&#45;&gt;Node11</title>
<path fill="none" stroke="midnightblue" d="M320.748,-336.163C321.042,-323.653 321.39,-300.067 320.5,-280 320.117,-271.372 319.324,-261.841 318.544,-253.78"/>
<polygon fill="midnightblue" stroke="midnightblue" points="322.002,-253.199 317.494,-243.612 315.039,-253.918 322.002,-253.199"/>
</g>
<!-- Node12 -->
<g id="node12" class="node"><title>Node12</title>
<g id="a_node12"><a xlink:href="ceptr__types_8h_source.html" target="_top" xlink:title="ceptr_types.h">
<polygon fill="white" stroke="black" points="217.5,-112.5 217.5,-131.5 293.5,-131.5 293.5,-112.5 217.5,-112.5"/>
<text text-anchor="middle" x="255.5" y="-119.5" font-family="Helvetica,sans-Serif" font-size="10.00">ceptr_types.h</text>
</a>
</g>
</g>
<!-- Node3&#45;&gt;Node12 -->
<g id="edge25" class="edge"><title>Node3&#45;&gt;Node12</title>
<path fill="none" stroke="midnightblue" d="M299.876,-340.945C278.782,-335.578 247.097,-323.859 232.5,-300 201.284,-248.976 230.22,-174.264 246.344,-140.597"/>
<polygon fill="midnightblue" stroke="midnightblue" points="249.53,-142.05 250.856,-131.538 243.265,-138.929 249.53,-142.05"/>
</g>
<!-- Node19 -->
<g id="node19" class="node"><title>Node19</title>
<g id="a_node19"><a xlink:href="base__defs_8h.html" target="_top" xlink:title="auto&#45;generated system definitions ">
<polygon fill="white" stroke="black" points="241.5,-280.5 241.5,-299.5 311.5,-299.5 311.5,-280.5 241.5,-280.5"/>
<text text-anchor="middle" x="276.5" y="-287.5" font-family="Helvetica,sans-Serif" font-size="10.00">base_defs.h</text>
</a>
</g>
</g>
<!-- Node3&#45;&gt;Node19 -->
<g id="edge23" class="edge"><title>Node3&#45;&gt;Node19</title>
<path fill="none" stroke="midnightblue" d="M313.234,-336.083C306.955,-328.377 297.712,-317.033 290.069,-307.653"/>
<polygon fill="midnightblue" stroke="midnightblue" points="292.661,-305.293 283.631,-299.751 287.234,-309.714 292.661,-305.293"/>
</g>
<!-- Node20 -->
<g id="node20" class="node"><title>Node20</title>
<g id="a_node20"><a xlink:href="stream_8h.html" target="_top" xlink:title="streams abstraction header file ">
<polygon fill="white" stroke="black" points="331,-112.5 331,-131.5 386,-131.5 386,-112.5 331,-112.5"/>
<text text-anchor="middle" x="358.5" y="-119.5" font-family="Helvetica,sans-Serif" font-size="10.00">stream.h</text>
</a>
</g>
</g>
<!-- Node3&#45;&gt;Node20 -->
<g id="edge26" class="edge"><title>Node3&#45;&gt;Node20</title>
<path fill="none" stroke="midnightblue" d="M324.82,-336.369C333.115,-319.268 351.024,-279.645 357.5,-244 363.986,-208.297 362.175,-165.686 360.31,-141.744"/>
<polygon fill="midnightblue" stroke="midnightblue" points="363.781,-141.261 359.426,-131.603 356.808,-141.869 363.781,-141.261"/>
</g>
<!-- Node7 -->
<g id="node7" class="node"><title>Node7</title>
<polygon fill="white" stroke="#bfbfbf" points="391.5,-56.5 391.5,-75.5 437.5,-75.5 437.5,-56.5 391.5,-56.5"/>
<text text-anchor="middle" x="414.5" y="-63.5" font-family="Helvetica,sans-Serif" font-size="10.00">stdio.h</text>
</g>
<!-- Node6&#45;&gt;Node7 -->
<g id="edge6" class="edge"><title>Node6&#45;&gt;Node7</title>
<path fill="none" stroke="midnightblue" d="M471.575,-112.324C461.325,-104.185 445.779,-91.8395 433.499,-82.0874"/>
<polygon fill="midnightblue" stroke="midnightblue" points="435.632,-79.3119 425.624,-75.8339 431.279,-84.7937 435.632,-79.3119"/>
</g>
<!-- Node8 -->
<g id="node8" class="node"><title>Node8</title>
<polygon fill="white" stroke="#bfbfbf" points="527.5,-56.5 527.5,-75.5 577.5,-75.5 577.5,-56.5 527.5,-56.5"/>
<text text-anchor="middle" x="552.5" y="-63.5" font-family="Helvetica,sans-Serif" font-size="10.00">signal.h</text>
</g>
<!-- Node6&#45;&gt;Node8 -->
<g id="edge7" class="edge"><title>Node6&#45;&gt;Node8</title>
<path fill="none" stroke="midnightblue" d="M493.747,-112.324C504.297,-104.185 520.301,-91.8395 532.942,-82.0874"/>
<polygon fill="midnightblue" stroke="midnightblue" points="535.269,-84.7132 541.049,-75.8339 530.993,-79.1707 535.269,-84.7132"/>
</g>
<!-- Node9 -->
<g id="node9" class="node"><title>Node9</title>
<polygon fill="white" stroke="#bfbfbf" points="595.5,-56.5 595.5,-75.5 647.5,-75.5 647.5,-56.5 595.5,-56.5"/>
<text text-anchor="middle" x="621.5" y="-63.5" font-family="Helvetica,sans-Serif" font-size="10.00">assert.h</text>
</g>
<!-- Node6&#45;&gt;Node9 -->
<g id="edge8" class="edge"><title>Node6&#45;&gt;Node9</title>
<path fill="none" stroke="midnightblue" d="M504.525,-112.444C527.604,-103.478 564.062,-89.314 590.141,-79.1827"/>
<polygon fill="midnightblue" stroke="midnightblue" points="591.524,-82.4002 599.578,-75.5164 588.989,-75.8753 591.524,-82.4002"/>
</g>
<!-- Node10 -->
<g id="node10" class="node"><title>Node10</title>
<polygon fill="white" stroke="#bfbfbf" points="455.5,-56.5 455.5,-75.5 509.5,-75.5 509.5,-56.5 455.5,-56.5"/>
<text text-anchor="middle" x="482.5" y="-63.5" font-family="Helvetica,sans-Serif" font-size="10.00">setjmp.h</text>
</g>
<!-- Node6&#45;&gt;Node10 -->
<g id="edge9" class="edge"><title>Node6&#45;&gt;Node10</title>
<path fill="none" stroke="midnightblue" d="M482.5,-112.083C482.5,-105.006 482.5,-94.8611 482.5,-85.9865"/>
<polygon fill="midnightblue" stroke="midnightblue" points="486,-85.751 482.5,-75.7511 479,-85.7511 486,-85.751"/>
</g>
<!-- Node11&#45;&gt;Node12 -->
<g id="edge11" class="edge"><title>Node11&#45;&gt;Node12</title>
<path fill="none" stroke="midnightblue" d="M306.057,-224.397C296.541,-216.028 282.75,-202.487 274.5,-188 266.319,-173.633 261.392,-155.436 258.614,-141.953"/>
<polygon fill="midnightblue" stroke="midnightblue" points="262.019,-141.12 256.761,-131.922 255.136,-142.392 262.019,-141.12"/>
</g>
<!-- Node18 -->
<g id="node18" class="node"><title>Node18</title>
<g id="a_node18"><a xlink:href="semtable_8h.html" target="_top" xlink:title="header file for table for coordinating meaning across a vmhost ">
<polygon fill="white" stroke="black" points="284,-168.5 284,-187.5 349,-187.5 349,-168.5 284,-168.5"/>
<text text-anchor="middle" x="316.5" y="-175.5" font-family="Helvetica,sans-Serif" font-size="10.00">semtable.h</text>
</a>
</g>
</g>
<!-- Node11&#45;&gt;Node18 -->
<g id="edge20" class="edge"><title>Node11&#45;&gt;Node18</title>
<path fill="none" stroke="midnightblue" d="M316.5,-224.083C316.5,-217.006 316.5,-206.861 316.5,-197.986"/>
<polygon fill="midnightblue" stroke="midnightblue" points="320,-197.751 316.5,-187.751 313,-197.751 320,-197.751"/>
</g>
<!-- Node12&#45;&gt;Node7 -->
<g id="edge13" class="edge"><title>Node12&#45;&gt;Node7</title>
<path fill="none" stroke="midnightblue" d="M280.694,-112.444C308.072,-103.145 351.909,-88.2572 381.895,-78.0735"/>
<polygon fill="midnightblue" stroke="midnightblue" points="383.146,-81.3451 391.489,-74.8151 380.894,-74.7169 383.146,-81.3451"/>
</g>
<!-- Node13 -->
<g id="node13" class="node"><title>Node13</title>
<polygon fill="white" stroke="#bfbfbf" points="102,-56.5 102,-75.5 151,-75.5 151,-56.5 102,-56.5"/>
<text text-anchor="middle" x="126.5" y="-63.5" font-family="Helvetica,sans-Serif" font-size="10.00">stdint.h</text>
</g>
<!-- Node12&#45;&gt;Node13 -->
<g id="edge12" class="edge"><title>Node12&#45;&gt;Node13</title>
<path fill="none" stroke="midnightblue" d="M235.06,-112.444C213.83,-103.557 180.401,-89.5632 156.245,-79.4514"/>
<polygon fill="midnightblue" stroke="midnightblue" points="157.421,-76.1493 146.845,-75.5164 154.718,-82.6064 157.421,-76.1493"/>
</g>
<!-- Node14 -->
<g id="node14" class="node"><title>Node14</title>
<g id="a_node14"><a xlink:href="uthash_8h_source.html" target="_top" xlink:title="uthash.h">
<polygon fill="white" stroke="black" points="169.5,-56.5 169.5,-75.5 223.5,-75.5 223.5,-56.5 169.5,-56.5"/>
<text text-anchor="middle" x="196.5" y="-63.5" font-family="Helvetica,sans-Serif" font-size="10.00">uthash.h</text>
</a>
</g>
</g>
<!-- Node12&#45;&gt;Node14 -->
<g id="edge14" class="edge"><title>Node12&#45;&gt;Node14</title>
<path fill="none" stroke="midnightblue" d="M246.021,-112.324C237.299,-104.341 224.157,-92.3128 213.602,-82.6529"/>
<polygon fill="midnightblue" stroke="midnightblue" points="215.892,-80.0036 206.152,-75.8339 211.166,-85.1674 215.892,-80.0036"/>
</g>
<!-- Node17 -->
<g id="node17" class="node"><title>Node17</title>
<polygon fill="white" stroke="#bfbfbf" points="241.5,-56.5 241.5,-75.5 297.5,-75.5 297.5,-56.5 241.5,-56.5"/>
<text text-anchor="middle" x="269.5" y="-63.5" font-family="Helvetica,sans-Serif" font-size="10.00">stdbool.h</text>
</g>
<!-- Node12&#45;&gt;Node17 -->
<g id="edge19" class="edge"><title>Node12&#45;&gt;Node17</title>
<path fill="none" stroke="midnightblue" d="M257.812,-112.083C259.667,-104.927 262.335,-94.6353 264.654,-85.6911"/>
<polygon fill="midnightblue" stroke="midnightblue" points="268.109,-86.3094 267.231,-75.7511 261.334,-84.5527 268.109,-86.3094"/>
</g>
<!-- Node14&#45;&gt;Node4 -->
<g id="edge15" class="edge"><title>Node14&#45;&gt;Node4</title>
<path fill="none" stroke="midnightblue" d="M196.5,-56.083C196.5,-49.0059 196.5,-38.8611 196.5,-29.9865"/>
<polygon fill="midnightblue" stroke="midnightblue" points="200,-29.751 196.5,-19.7511 193,-29.7511 200,-29.751"/>
</g>
<!-- Node14&#45;&gt;Node5 -->
<g id="edge17" class="edge"><title>Node14&#45;&gt;Node5</title>
<path fill="none" stroke="midnightblue" d="M223.534,-57.7743C226.545,-57.109 229.579,-56.4988 232.5,-56 398.318,-27.6845 599.556,-16.1157 678.932,-12.4332"/>
<polygon fill="midnightblue" stroke="midnightblue" points="679.475,-15.9123 689.307,-11.965 679.16,-8.91941 679.475,-15.9123"/>
</g>
<!-- Node15 -->
<g id="node15" class="node"><title>Node15</title>
<polygon fill="white" stroke="#bfbfbf" points="101.5,-0.5 101.5,-19.5 153.5,-19.5 153.5,-0.5 101.5,-0.5"/>
<text text-anchor="middle" x="127.5" y="-7.5" font-family="Helvetica,sans-Serif" font-size="10.00">stddef.h</text>
</g>
<!-- Node14&#45;&gt;Node15 -->
<g id="edge16" class="edge"><title>Node14&#45;&gt;Node15</title>
<path fill="none" stroke="midnightblue" d="M185.414,-56.324C175.014,-48.1849 159.239,-35.8395 146.778,-26.0874"/>
<polygon fill="midnightblue" stroke="midnightblue" points="148.82,-23.2407 138.788,-19.8339 144.506,-28.7533 148.82,-23.2407"/>
</g>
<!-- Node16 -->
<g id="node16" class="node"><title>Node16</title>
<polygon fill="white" stroke="#bfbfbf" points="239,-0.5 239,-19.5 298,-19.5 298,-0.5 239,-0.5"/>
<text text-anchor="middle" x="268.5" y="-7.5" font-family="Helvetica,sans-Serif" font-size="10.00">inttypes.h</text>
</g>
<!-- Node14&#45;&gt;Node16 -->
<g id="edge18" class="edge"><title>Node14&#45;&gt;Node16</title>
<path fill="none" stroke="midnightblue" d="M208.068,-56.324C218.92,-48.1849 235.381,-35.8395 248.383,-26.0874"/>
<polygon fill="midnightblue" stroke="midnightblue" points="250.821,-28.6339 256.721,-19.8339 246.621,-23.0339 250.821,-28.6339"/>
</g>
<!-- Node18&#45;&gt;Node6 -->
<g id="edge22" class="edge"><title>Node18&#45;&gt;Node6</title>
<path fill="none" stroke="midnightblue" d="M342.803,-168.444C370.851,-159.32 415.444,-144.813 446.684,-134.651"/>
<polygon fill="midnightblue" stroke="midnightblue" points="447.893,-137.938 456.32,-131.516 445.728,-131.282 447.893,-137.938"/>
</g>
<!-- Node18&#45;&gt;Node12 -->
<g id="edge21" class="edge"><title>Node18&#45;&gt;Node12</title>
<path fill="none" stroke="midnightblue" d="M306.699,-168.324C297.682,-160.341 284.094,-148.313 273.182,-138.653"/>
<polygon fill="midnightblue" stroke="midnightblue" points="275.287,-135.842 265.479,-131.834 270.647,-141.083 275.287,-135.842"/>
</g>
<!-- Node19&#45;&gt;Node11 -->
<g id="edge24" class="edge"><title>Node19&#45;&gt;Node11</title>
<path fill="none" stroke="midnightblue" d="M283.105,-280.083C288.755,-272.455 297.045,-261.264 303.951,-251.941"/>
<polygon fill="midnightblue" stroke="midnightblue" points="306.878,-253.87 310.018,-243.751 301.253,-249.703 306.878,-253.87"/>
</g>
<!-- Node20&#45;&gt;Node7 -->
<g id="edge27" class="edge"><title>Node20&#45;&gt;Node7</title>
<path fill="none" stroke="midnightblue" d="M367.497,-112.324C375.694,-104.42 388.006,-92.5482 397.972,-82.9377"/>
<polygon fill="midnightblue" stroke="midnightblue" points="400.57,-85.2947 405.339,-75.8339 395.711,-80.2558 400.57,-85.2947"/>
</g>
<!-- Node20&#45;&gt;Node17 -->
<g id="edge29" class="edge"><title>Node20&#45;&gt;Node17</title>
<path fill="none" stroke="midnightblue" d="M344.201,-112.324C330.317,-103.9 309.008,-90.9709 292.696,-81.0741"/>
<polygon fill="midnightblue" stroke="midnightblue" points="294.129,-77.8495 283.764,-75.6545 290.498,-83.8341 294.129,-77.8495"/>
</g>
<!-- Node21 -->
<g id="node21" class="node"><title>Node21</title>
<polygon fill="white" stroke="#bfbfbf" points="316,-56.5 316,-75.5 373,-75.5 373,-56.5 316,-56.5"/>
<text text-anchor="middle" x="344.5" y="-63.5" font-family="Helvetica,sans-Serif" font-size="10.00">pthread.h</text>
</g>
<!-- Node20&#45;&gt;Node21 -->
<g id="edge28" class="edge"><title>Node20&#45;&gt;Node21</title>
<path fill="none" stroke="midnightblue" d="M356.188,-112.083C354.333,-104.927 351.665,-94.6353 349.346,-85.6911"/>
<polygon fill="midnightblue" stroke="midnightblue" points="352.666,-84.5527 346.769,-75.7511 345.891,-86.3094 352.666,-84.5527"/>
</g>
<!-- Node22&#45;&gt;Node4 -->
<g id="edge31" class="edge"><title>Node22&#45;&gt;Node4</title>
<path fill="none" stroke="midnightblue" d="M549.774,-283.03C592.76,-271.206 675.5,-240.462 675.5,-179 675.5,-179 675.5,-179 675.5,-121 675.5,-90.9022 679.803,-75.0481 656.5,-56 585.075,2.38255 339.306,-34.1414 231.271,-19.821"/>
<polygon fill="midnightblue" stroke="midnightblue" points="231.674,-16.3418 221.256,-18.2716 230.604,-23.2595 231.674,-16.3418"/>
</g>
<!-- Node22&#45;&gt;Node5 -->
<g id="edge32" class="edge"><title>Node22&#45;&gt;Node5</title>
<path fill="none" stroke="midnightblue" d="M549.666,-288.98C585.256,-287.599 650.311,-279.903 689.5,-244 712.207,-223.197 713.5,-209.795 713.5,-179 713.5,-179 713.5,-179 713.5,-121 713.5,-88.948 713.5,-51.6426 713.5,-29.7489"/>
<polygon fill="midnightblue" stroke="midnightblue" points="717,-29.5577 713.5,-19.5578 710,-29.5578 717,-29.5577"/>
</g>
<!-- Node22&#45;&gt;Node6 -->
<g id="edge33" class="edge"><title>Node22&#45;&gt;Node6</title>
<path fill="none" stroke="midnightblue" d="M524.075,-280.273C522.888,-260.06 518.706,-208.65 505.5,-168 502.416,-158.508 497.532,-148.567 493.056,-140.45"/>
<polygon fill="midnightblue" stroke="midnightblue" points="495.98,-138.514 487.947,-131.606 489.919,-142.016 495.98,-138.514"/>
</g>
<!-- Node22&#45;&gt;Node11 -->
<g id="edge34" class="edge"><title>Node22&#45;&gt;Node11</title>
<path fill="none" stroke="midnightblue" d="M499.41,-282.486C464.6,-273.449 401.175,-256.983 358.93,-246.015"/>
<polygon fill="midnightblue" stroke="midnightblue" points="359.762,-242.616 349.204,-243.49 358.003,-249.391 359.762,-242.616"/>
</g>
<!-- Node22&#45;&gt;Node12 -->
<g id="edge35" class="edge"><title>Node22&#45;&gt;Node12</title>
<path fill="none" stroke="midnightblue" d="M514.095,-280.242C488.607,-259.071 420.529,-204.193 357.5,-168 335.142,-155.162 308.436,-143.5 287.959,-135.267"/>
<polygon fill="midnightblue" stroke="midnightblue" points="289.04,-131.931 278.454,-131.51 286.468,-138.441 289.04,-131.931"/>
</g>
<!-- Node24 -->
<g id="node24" class="node"><title>Node24</title>
<g id="a_node24"><a xlink:href="receptor_8h.html" target="_top" xlink:title="receptor implementation header file ">
<polygon fill="white" stroke="black" points="289.5,-448.5 289.5,-467.5 349.5,-467.5 349.5,-448.5 289.5,-448.5"/>
<text text-anchor="middle" x="319.5" y="-455.5" font-family="Helvetica,sans-Serif" font-size="10.00">receptor.h</text>
</a>
</g>
</g>
<!-- Node23&#45;&gt;Node24 -->
<g id="edge37" class="edge"><title>Node23&#45;&gt;Node24</title>
<path fill="none" stroke="midnightblue" d="M319.5,-504.083C319.5,-497.006 319.5,-486.861 319.5,-477.986"/>
<polygon fill="midnightblue" stroke="midnightblue" points="323,-477.751 319.5,-467.751 316,-477.751 323,-477.751"/>
</g>
<!-- Node24&#45;&gt;Node3 -->
<g id="edge39" class="edge"><title>Node24&#45;&gt;Node3</title>
<path fill="none" stroke="midnightblue" d="M321.239,-448.419C322.972,-439.399 325.513,-424.77 326.5,-412 327.703,-396.444 325.877,-378.821 323.931,-365.853"/>
<polygon fill="midnightblue" stroke="midnightblue" points="327.357,-365.115 322.265,-355.824 320.452,-366.263 327.357,-365.115"/>
</g>
<!-- Node24&#45;&gt;Node18 -->
<g id="edge38" class="edge"><title>Node24&#45;&gt;Node18</title>
<path fill="none" stroke="midnightblue" d="M349.625,-455.342C378.821,-451.943 421.657,-441.819 442.5,-412 447.592,-404.714 444.563,-400.646 442.5,-392 423.081,-310.605 405.001,-292.89 357.5,-224 350.316,-213.582 340.884,-203.065 332.877,-194.821"/>
<polygon fill="midnightblue" stroke="midnightblue" points="335.3,-192.294 325.758,-187.691 330.346,-197.24 335.3,-192.294"/>
</g>
<!-- Node25 -->
<g id="node25" class="node"><title>Node25</title>
<g id="a_node25"><a xlink:href="def_8h.html" target="_top" xlink:title="header file for symbol and structure definition functions ">
<polygon fill="white" stroke="black" points="210.5,-392.5 210.5,-411.5 248.5,-411.5 248.5,-392.5 210.5,-392.5"/>
<text text-anchor="middle" x="229.5" y="-399.5" font-family="Helvetica,sans-Serif" font-size="10.00">def.h</text>
</a>
</g>
</g>
<!-- Node24&#45;&gt;Node25 -->
<g id="edge40" class="edge"><title>Node24&#45;&gt;Node25</title>
<path fill="none" stroke="midnightblue" d="M305.04,-448.324C291,-439.9 269.452,-426.971 252.957,-417.074"/>
<polygon fill="midnightblue" stroke="midnightblue" points="254.3,-413.798 243.924,-411.655 250.698,-419.801 254.3,-413.798"/>
</g>
<!-- Node27 -->
<g id="node27" class="node"><title>Node27</title>
<g id="a_node27"><a xlink:href="label_8h.html" target="_top" xlink:title="Label tables map human readable text strings to parts of semantic trees. ">
<polygon fill="white" stroke="black" points="0,-224.5 0,-243.5 45,-243.5 45,-224.5 0,-224.5"/>
<text text-anchor="middle" x="22.5" y="-231.5" font-family="Helvetica,sans-Serif" font-size="10.00">label.h</text>
</a>
</g>
</g>
<!-- Node24&#45;&gt;Node27 -->
<g id="edge43" class="edge"><title>Node24&#45;&gt;Node27</title>
<path fill="none" stroke="midnightblue" d="M289.781,-448.436C265.226,-440.721 229.914,-428.121 201.5,-412 131.589,-372.335 111.908,-360.945 59.5,-300 47.2213,-285.721 36.9798,-266.759 30.4081,-253.003"/>
<polygon fill="midnightblue" stroke="midnightblue" points="33.4746,-251.293 26.125,-243.662 27.1116,-254.211 33.4746,-251.293"/>
</g>
<!-- Node28 -->
<g id="node28" class="node"><title>Node28</title>
<g id="a_node28"><a xlink:href="process_8h.html" target="_top" xlink:title="processing header files ">
<polygon fill="white" stroke="black" points="375,-392.5 375,-411.5 434,-411.5 434,-392.5 375,-392.5"/>
<text text-anchor="middle" x="404.5" y="-399.5" font-family="Helvetica,sans-Serif" font-size="10.00">process.h</text>
</a>
</g>
</g>
<!-- Node24&#45;&gt;Node28 -->
<g id="edge45" class="edge"><title>Node24&#45;&gt;Node28</title>
<path fill="none" stroke="midnightblue" d="M333.157,-448.324C346.416,-439.9 366.768,-426.971 382.346,-417.074"/>
<polygon fill="midnightblue" stroke="midnightblue" points="384.313,-419.971 390.877,-411.655 380.56,-414.063 384.313,-419.971"/>
</g>
<!-- Node29 -->
<g id="node29" class="node"><title>Node29</title>
<g id="a_node29"><a xlink:href="scape_8h.html" target="_top" xlink:title="scape header files ">
<polygon fill="white" stroke="black" points="267,-392.5 267,-411.5 318,-411.5 318,-392.5 267,-392.5"/>
<text text-anchor="middle" x="292.5" y="-399.5" font-family="Helvetica,sans-Serif" font-size="10.00">scape.h</text>
</a>
</g>
</g>
<!-- Node24&#45;&gt;Node29 -->
<g id="edge47" class="edge"><title>Node24&#45;&gt;Node29</title>
<path fill="none" stroke="midnightblue" d="M315.041,-448.083C311.346,-440.691 305.977,-429.953 301.406,-420.811"/>
<polygon fill="midnightblue" stroke="midnightblue" points="304.478,-419.13 296.876,-411.751 298.217,-422.261 304.478,-419.13"/>
</g>
<!-- Node25&#45;&gt;Node3 -->
<g id="edge41" class="edge"><title>Node25&#45;&gt;Node3</title>
<path fill="none" stroke="midnightblue" d="M244.121,-392.324C258.449,-383.822 280.513,-370.729 297.249,-360.797"/>
<polygon fill="midnightblue" stroke="midnightblue" points="299.102,-363.768 305.916,-355.655 295.53,-357.748 299.102,-363.768"/>
</g>
<!-- Node26 -->
<g id="node26" class="node"><title>Node26</title>
<polygon fill="white" stroke="#bfbfbf" points="203.5,-336.5 203.5,-355.5 255.5,-355.5 255.5,-336.5 203.5,-336.5"/>
<text text-anchor="middle" x="229.5" y="-343.5" font-family="Helvetica,sans-Serif" font-size="10.00">stdarg.h</text>
</g>
<!-- Node25&#45;&gt;Node26 -->
<g id="edge42" class="edge"><title>Node25&#45;&gt;Node26</title>
<path fill="none" stroke="midnightblue" d="M229.5,-392.083C229.5,-385.006 229.5,-374.861 229.5,-365.986"/>
<polygon fill="midnightblue" stroke="midnightblue" points="233,-365.751 229.5,-355.751 226,-365.751 233,-365.751"/>
</g>
<!-- Node27&#45;&gt;Node12 -->
<g id="edge44" class="edge"><title>Node27&#45;&gt;Node12</title>
<path fill="none" stroke="midnightblue" d="M40.7831,-224.368C81.5317,-205.131 179.991,-158.648 228.109,-135.931"/>
<polygon fill="midnightblue" stroke="midnightblue" points="229.753,-139.026 237.302,-131.591 226.765,-132.696 229.753,-139.026"/>
</g>
<!-- Node28&#45;&gt;Node3 -->
<g id="edge46" class="edge"><title>Node28&#45;&gt;Node3</title>
<path fill="none" stroke="midnightblue" d="M391.004,-392.324C377.9,-383.9 357.788,-370.971 342.393,-361.074"/>
<polygon fill="midnightblue" stroke="midnightblue" points="344.267,-358.118 333.963,-355.655 340.482,-364.006 344.267,-358.118"/>
</g>
<!-- Node29&#45;&gt;Node3 -->
<g id="edge48" class="edge"><title>Node29&#45;&gt;Node3</title>
<path fill="none" stroke="midnightblue" d="M297.124,-392.083C300.956,-384.691 306.524,-373.953 311.265,-364.811"/>
<polygon fill="midnightblue" stroke="midnightblue" points="314.466,-366.24 315.962,-355.751 308.252,-363.018 314.466,-366.24"/>
</g>
</g>
</svg>
