<?xml version="1.0" encoding="UTF-8" standalone="no"?>
<!DOCTYPE svg PUBLIC "-//W3C//DTD SVG 1.1//EN"
 "http://www.w3.org/Graphics/SVG/1.1/DTD/svg11.dtd">
<!-- Generated by graphviz version 2.38.0 (20140413.2041)
 -->
<!-- Title: src/group.c Pages: 1 -->
<!--zoomable 700 -->
<svg id="main" version="1.1" xmlns="http://www.w3.org/2000/svg" xmlns:xlink="http://www.w3.org/1999/xlink" xml:space="preserve" onload="init(evt)">
<style type="text/css"><![CDATA[
.edge:hover path { stroke: red; }
.edge:hover polygon { stroke: red; fill: red; }
]]></style>
<script type="text/javascript"><![CDATA[
var edges = document.getElementsByTagName('g');
if (edges && edges.length) {
  for (var i=0;i<edges.length;i++) {
    if (edges[i].id.substr(0,4)=='edge') {
      edges[i].setAttribute('class','edge');
    }
  }
}
]]></script>
        <defs>
                <circle id="rim" cx="0" cy="0" r="7"/>
                <circle id="rim2" cx="0" cy="0" r="3.5"/>
                <g id="zoomPlus">
                        <use xlink:href="#rim" fill="#404040">
                                <set attributeName="fill" to="#808080" begin="zoomplus.mouseover" end="zoomplus.mouseout"/>
                        </use>
                        <path d="M-4,0h8M0,-4v8" fill="none" stroke="white" stroke-width="1.5" pointer-events="none"/>
                </g>
                <g id="zoomMin">
                        <use xlink:href="#rim" fill="#404040">
                                <set attributeName="fill" to="#808080" begin="zoomminus.mouseover" end="zoomminus.mouseout"/>
                        </use>
                        <path d="M-4,0h8" fill="none" stroke="white" stroke-width="1.5" pointer-events="none"/>
                </g>
                <g id="dirArrow">
                        <path fill="none" stroke="white" stroke-width="1.5" d="M0,-3.0v7 M-2.5,-0.5L0,-3.0L2.5,-0.5"/>
                </g>
               <g id="resetDef">
                       <use xlink:href="#rim2" fill="#404040">
                               <set attributeName="fill" to="#808080" begin="reset.mouseover" end="reset.mouseout"/>
                       </use>
               </g>
        </defs>

<script type="text/javascript">
var viewWidth = 650;
var viewHeight = 700;
var sectionId = 'dynsection-0';
</script>
<script xlink:href="svgpan.js"/>
<svg id="graph" class="graph">
<g id="viewport">
<title>src/group.c</title>
<polygon fill="white" stroke="none" points="-4,4 -4,-696 646,-696 646,4 -4,4"/>
<!-- Node1 -->
<g id="node1" class="node"><title>Node1</title>
<polygon fill="#bfbfbf" stroke="black" points="151.5,-672.5 151.5,-691.5 216.5,-691.5 216.5,-672.5 151.5,-672.5"/>
<text text-anchor="middle" x="184" y="-679.5" font-family="Helvetica,sans-Serif" font-size="10.00">src/group.c</text>
</g>
<!-- Node2 -->
<g id="node2" class="node"><title>Node2</title>
<g id="a_node2"><a xlink:href="group_8h.html" target="_top" xlink:title="group communication receptors header file ">
<polygon fill="white" stroke="black" points="159.5,-616.5 159.5,-635.5 208.5,-635.5 208.5,-616.5 159.5,-616.5"/>
<text text-anchor="middle" x="184" y="-623.5" font-family="Helvetica,sans-Serif" font-size="10.00">group.h</text>
</a>
</g>
</g>
<!-- Node1&#45;&gt;Node2 -->
<g id="edge1" class="edge"><title>Node1&#45;&gt;Node2</title>
<path fill="none" stroke="midnightblue" d="M184,-672.083C184,-665.006 184,-654.861 184,-645.986"/>
<polygon fill="midnightblue" stroke="midnightblue" points="187.5,-645.751 184,-635.751 180.5,-645.751 187.5,-645.751"/>
</g>
<!-- Node31 -->
<g id="node31" class="node"><title>Node31</title>
<g id="a_node31"><a xlink:href="protocol_8h.html" target="_top" xlink:title="protocol helpers header file ">
<polygon fill="white" stroke="black" points="19.5,-560.5 19.5,-579.5 78.5,-579.5 78.5,-560.5 19.5,-560.5"/>
<text text-anchor="middle" x="49" y="-567.5" font-family="Helvetica,sans-Serif" font-size="10.00">protocol.h</text>
</a>
</g>
</g>
<!-- Node1&#45;&gt;Node31 -->
<g id="edge49" class="edge"><title>Node1&#45;&gt;Node31</title>
<path fill="none" stroke="midnightblue" d="M173.407,-672.368C150.536,-653.733 96.2897,-609.532 67.5734,-586.134"/>
<polygon fill="midnightblue" stroke="midnightblue" points="69.5073,-583.195 59.544,-579.591 65.0855,-588.622 69.5073,-583.195"/>
</g>
<!-- Node32 -->
<g id="node32" class="node"><title>Node32</title>
<g id="a_node32"><a xlink:href="debug_8h.html" target="_top" xlink:title="debug.h">
<polygon fill="white" stroke="black" points="529.5,-504.5 529.5,-523.5 580.5,-523.5 580.5,-504.5 529.5,-504.5"/>
<text text-anchor="middle" x="555" y="-511.5" font-family="Helvetica,sans-Serif" font-size="10.00">debug.h</text>
</a>
</g>
</g>
<!-- Node1&#45;&gt;Node32 -->
<g id="edge51" class="edge"><title>Node1&#45;&gt;Node32</title>
<path fill="none" stroke="midnightblue" d="M203.165,-672.425C264.102,-645.159 453.649,-560.348 526.28,-527.851"/>
<polygon fill="midnightblue" stroke="midnightblue" points="528.028,-530.903 535.727,-523.624 525.169,-524.513 528.028,-530.903"/>
</g>
<!-- Node3 -->
<g id="node3" class="node"><title>Node3</title>
<g id="a_node3"><a xlink:href="accumulator_8h.html" target="_top" xlink:title="header file for the accumulator ">
<polygon fill="white" stroke="black" points="145,-560.5 145,-579.5 223,-579.5 223,-560.5 145,-560.5"/>
<text text-anchor="middle" x="184" y="-567.5" font-family="Helvetica,sans-Serif" font-size="10.00">accumulator.h</text>
</a>
</g>
</g>
<!-- Node2&#45;&gt;Node3 -->
<g id="edge2" class="edge"><title>Node2&#45;&gt;Node3</title>
<path fill="none" stroke="midnightblue" d="M184,-616.083C184,-609.006 184,-598.861 184,-589.986"/>
<polygon fill="midnightblue" stroke="midnightblue" points="187.5,-589.751 184,-579.751 180.5,-589.751 187.5,-589.751"/>
</g>
<!-- Node4 -->
<g id="node4" class="node"><title>Node4</title>
<g id="a_node4"><a xlink:href="tree_8h.html" target="_top" xlink:title="semantic trees header file ">
<polygon fill="white" stroke="black" points="189.5,-336.5 189.5,-355.5 230.5,-355.5 230.5,-336.5 189.5,-336.5"/>
<text text-anchor="middle" x="210" y="-343.5" font-family="Helvetica,sans-Serif" font-size="10.00">tree.h</text>
</a>
</g>
</g>
<!-- Node3&#45;&gt;Node4 -->
<g id="edge3" class="edge"><title>Node3&#45;&gt;Node4</title>
<path fill="none" stroke="midnightblue" d="M173.373,-560.449C141.905,-534.088 53.8935,-452.227 95,-392 113.672,-364.643 151.69,-353.916 178.903,-349.711"/>
<polygon fill="midnightblue" stroke="midnightblue" points="179.647,-353.143 189.099,-348.357 178.725,-346.204 179.647,-353.143"/>
</g>
<!-- Node23 -->
<g id="node23" class="node"><title>Node23</title>
<g id="a_node23"><a xlink:href="mtree_8h.html" target="_top" xlink:title="semantic tree matrix header file `` ">
<polygon fill="white" stroke="black" points="454,-280.5 454,-299.5 504,-299.5 504,-280.5 454,-280.5"/>
<text text-anchor="middle" x="479" y="-287.5" font-family="Helvetica,sans-Serif" font-size="10.00">mtree.h</text>
</a>
</g>
</g>
<!-- Node3&#45;&gt;Node23 -->
<g id="edge30" class="edge"><title>Node3&#45;&gt;Node23</title>
<path fill="none" stroke="midnightblue" d="M223.257,-569.94C297.696,-569.465 452,-556.697 452,-459 452,-459 452,-459 452,-401 452,-367.861 463.701,-330.682 471.697,-309.144"/>
<polygon fill="midnightblue" stroke="midnightblue" points="475.022,-310.252 475.359,-299.662 468.491,-307.73 475.022,-310.252"/>
</g>
<!-- Node24 -->
<g id="node24" class="node"><title>Node24</title>
<g id="a_node24"><a xlink:href="vmhost_8h.html" target="_top" xlink:title="vmhost implementation header file ">
<polygon fill="white" stroke="black" points="155.5,-504.5 155.5,-523.5 212.5,-523.5 212.5,-504.5 155.5,-504.5"/>
<text text-anchor="middle" x="184" y="-511.5" font-family="Helvetica,sans-Serif" font-size="10.00">vmhost.h</text>
</a>
</g>
</g>
<!-- Node3&#45;&gt;Node24 -->
<g id="edge36" class="edge"><title>Node3&#45;&gt;Node24</title>
<path fill="none" stroke="midnightblue" d="M184,-560.083C184,-553.006 184,-542.861 184,-533.986"/>
<polygon fill="midnightblue" stroke="midnightblue" points="187.5,-533.751 184,-523.751 180.5,-533.751 187.5,-533.751"/>
</g>
<!-- Node5 -->
<g id="node5" class="node"><title>Node5</title>
<polygon fill="white" stroke="#bfbfbf" points="579.5,-0.5 579.5,-19.5 628.5,-19.5 628.5,-0.5 579.5,-0.5"/>
<text text-anchor="middle" x="604" y="-7.5" font-family="Helvetica,sans-Serif" font-size="10.00">string.h</text>
</g>
<!-- Node4&#45;&gt;Node5 -->
<g id="edge4" class="edge"><title>Node4&#45;&gt;Node5</title>
<path fill="none" stroke="midnightblue" d="M230.585,-342.039C298.278,-332.289 509.864,-301.712 513,-300 608.854,-247.672 605.308,-184.861 614,-76 614.707,-67.1393 614.97,-64.8358 614,-56 613.027,-47.1398 611.008,-37.4716 609.037,-29.3755"/>
<polygon fill="midnightblue" stroke="midnightblue" points="612.383,-28.333 606.482,-19.5332 605.607,-30.0919 612.383,-28.333"/>
</g>
<!-- Node6 -->
<g id="node6" class="node"><title>Node6</title>
<polygon fill="white" stroke="#bfbfbf" points="0,-0.5 0,-19.5 48,-19.5 48,-0.5 0,-0.5"/>
<text text-anchor="middle" x="24" y="-7.5" font-family="Helvetica,sans-Serif" font-size="10.00">stdlib.h</text>
</g>
<!-- Node4&#45;&gt;Node6 -->
<g id="edge5" class="edge"><title>Node4&#45;&gt;Node6</title>
<path fill="none" stroke="midnightblue" d="M189.384,-337.899C140.957,-319.761 24,-266.862 24,-179 24,-179 24,-179 24,-121 24,-88.948 24,-51.6426 24,-29.7489"/>
<polygon fill="midnightblue" stroke="midnightblue" points="27.5001,-29.5577 24,-19.5578 20.5001,-29.5578 27.5001,-29.5577"/>
</g>
<!-- Node7 -->
<g id="node7" class="node"><title>Node7</title>
<g id="a_node7"><a xlink:href="ceptr__error_8h_source.html" target="_top" xlink:title="ceptr_error.h">
<polygon fill="white" stroke="black" points="378.5,-112.5 378.5,-131.5 449.5,-131.5 449.5,-112.5 378.5,-112.5"/>
<text text-anchor="middle" x="414" y="-119.5" font-family="Helvetica,sans-Serif" font-size="10.00">ceptr_error.h</text>
</a>
</g>
</g>
<!-- Node4&#45;&gt;Node7 -->
<g id="edge6" class="edge"><title>Node4&#45;&gt;Node7</title>
<path fill="none" stroke="midnightblue" d="M230.673,-341.118C266.715,-333.965 338.942,-317.799 357,-300 401.399,-256.24 411.249,-177.788 413.409,-141.879"/>
<polygon fill="midnightblue" stroke="midnightblue" points="416.908,-141.964 413.874,-131.813 409.916,-141.641 416.908,-141.964"/>
</g>
<!-- Node12 -->
<g id="node12" class="node"><title>Node12</title>
<g id="a_node12"><a xlink:href="sys__defs_8h.html" target="_top" xlink:title="Defines types and vars for system defined semantics. ">
<polygon fill="white" stroke="black" points="281.5,-224.5 281.5,-243.5 346.5,-243.5 346.5,-224.5 281.5,-224.5"/>
<text text-anchor="middle" x="314" y="-231.5" font-family="Helvetica,sans-Serif" font-size="10.00">sys_defs.h</text>
</a>
</g>
</g>
<!-- Node4&#45;&gt;Node12 -->
<g id="edge11" class="edge"><title>Node4&#45;&gt;Node12</title>
<path fill="none" stroke="midnightblue" d="M217.509,-336.466C228.596,-323.927 250.077,-299.861 269,-280 278.453,-270.079 289.309,-259.208 297.99,-250.637"/>
<polygon fill="midnightblue" stroke="midnightblue" points="300.568,-253.01 305.248,-243.505 295.662,-248.017 300.568,-253.01"/>
</g>
<!-- Node13 -->
<g id="node13" class="node"><title>Node13</title>
<g id="a_node13"><a xlink:href="ceptr__types_8h_source.html" target="_top" xlink:title="ceptr_types.h">
<polygon fill="white" stroke="black" points="149,-112.5 149,-131.5 225,-131.5 225,-112.5 149,-112.5"/>
<text text-anchor="middle" x="187" y="-119.5" font-family="Helvetica,sans-Serif" font-size="10.00">ceptr_types.h</text>
</a>
</g>
</g>
<!-- Node4&#45;&gt;Node13 -->
<g id="edge26" class="edge"><title>Node4&#45;&gt;Node13</title>
<path fill="none" stroke="midnightblue" d="M193.666,-336.387C181.045,-328.72 164.503,-316.213 157,-300 131.96,-245.891 161.094,-173.814 177.421,-140.836"/>
<polygon fill="midnightblue" stroke="midnightblue" points="180.723,-142.068 182.187,-131.575 174.499,-138.865 180.723,-142.068"/>
</g>
<!-- Node20 -->
<g id="node20" class="node"><title>Node20</title>
<g id="a_node20"><a xlink:href="base__defs_8h.html" target="_top" xlink:title="auto&#45;generated system definitions ">
<polygon fill="white" stroke="black" points="278,-280.5 278,-299.5 348,-299.5 348,-280.5 278,-280.5"/>
<text text-anchor="middle" x="313" y="-287.5" font-family="Helvetica,sans-Serif" font-size="10.00">base_defs.h</text>
</a>
</g>
</g>
<!-- Node4&#45;&gt;Node20 -->
<g id="edge24" class="edge"><title>Node4&#45;&gt;Node20</title>
<path fill="none" stroke="midnightblue" d="M226.549,-336.324C242.992,-327.703 268.435,-314.364 287.468,-304.386"/>
<polygon fill="midnightblue" stroke="midnightblue" points="289.261,-307.398 296.492,-299.655 286.011,-301.198 289.261,-307.398"/>
</g>
<!-- Node21 -->
<g id="node21" class="node"><title>Node21</title>
<g id="a_node21"><a xlink:href="stream_8h.html" target="_top" xlink:title="streams abstraction header file ">
<polygon fill="white" stroke="black" points="166.5,-280.5 166.5,-299.5 221.5,-299.5 221.5,-280.5 166.5,-280.5"/>
<text text-anchor="middle" x="194" y="-287.5" font-family="Helvetica,sans-Serif" font-size="10.00">stream.h</text>
</a>
</g>
</g>
<!-- Node4&#45;&gt;Node21 -->
<g id="edge27" class="edge"><title>Node4&#45;&gt;Node21</title>
<path fill="none" stroke="midnightblue" d="M207.358,-336.083C205.214,-328.849 202.121,-318.409 199.451,-309.397"/>
<polygon fill="midnightblue" stroke="midnightblue" points="202.79,-308.345 196.593,-299.751 196.078,-310.333 202.79,-308.345"/>
</g>
<!-- Node8 -->
<g id="node8" class="node"><title>Node8</title>
<polygon fill="white" stroke="#bfbfbf" points="266,-56.5 266,-75.5 312,-75.5 312,-56.5 266,-56.5"/>
<text text-anchor="middle" x="289" y="-63.5" font-family="Helvetica,sans-Serif" font-size="10.00">stdio.h</text>
</g>
<!-- Node7&#45;&gt;Node8 -->
<g id="edge7" class="edge"><title>Node7&#45;&gt;Node8</title>
<path fill="none" stroke="midnightblue" d="M394.193,-112.444C373.713,-103.596 341.517,-89.6875 318.135,-79.5865"/>
<polygon fill="midnightblue" stroke="midnightblue" points="319.282,-76.2692 308.714,-75.5164 316.506,-82.6953 319.282,-76.2692"/>
</g>
<!-- Node9 -->
<g id="node9" class="node"><title>Node9</title>
<polygon fill="white" stroke="#bfbfbf" points="402,-56.5 402,-75.5 452,-75.5 452,-56.5 402,-56.5"/>
<text text-anchor="middle" x="427" y="-63.5" font-family="Helvetica,sans-Serif" font-size="10.00">signal.h</text>
</g>
<!-- Node7&#45;&gt;Node9 -->
<g id="edge8" class="edge"><title>Node7&#45;&gt;Node9</title>
<path fill="none" stroke="midnightblue" d="M416.147,-112.083C417.869,-104.927 420.347,-94.6353 422.5,-85.6911"/>
<polygon fill="midnightblue" stroke="midnightblue" points="425.955,-86.2925 424.893,-75.7511 419.15,-84.6541 425.955,-86.2925"/>
</g>
<!-- Node10 -->
<g id="node10" class="node"><title>Node10</title>
<polygon fill="white" stroke="#bfbfbf" points="470,-56.5 470,-75.5 522,-75.5 522,-56.5 470,-56.5"/>
<text text-anchor="middle" x="496" y="-63.5" font-family="Helvetica,sans-Serif" font-size="10.00">assert.h</text>
</g>
<!-- Node7&#45;&gt;Node10 -->
<g id="edge9" class="edge"><title>Node7&#45;&gt;Node10</title>
<path fill="none" stroke="midnightblue" d="M427.175,-112.324C439.847,-103.979 459.233,-91.2122 474.206,-81.3524"/>
<polygon fill="midnightblue" stroke="midnightblue" points="476.431,-84.0776 482.858,-75.6545 472.581,-78.2313 476.431,-84.0776"/>
</g>
<!-- Node11 -->
<g id="node11" class="node"><title>Node11</title>
<polygon fill="white" stroke="#bfbfbf" points="330,-56.5 330,-75.5 384,-75.5 384,-56.5 330,-56.5"/>
<text text-anchor="middle" x="357" y="-63.5" font-family="Helvetica,sans-Serif" font-size="10.00">setjmp.h</text>
</g>
<!-- Node7&#45;&gt;Node11 -->
<g id="edge10" class="edge"><title>Node7&#45;&gt;Node11</title>
<path fill="none" stroke="midnightblue" d="M404.842,-112.324C396.499,-104.42 383.968,-92.5482 373.823,-82.9377"/>
<polygon fill="midnightblue" stroke="midnightblue" points="375.991,-80.1705 366.325,-75.8339 371.177,-85.2522 375.991,-80.1705"/>
</g>
<!-- Node12&#45;&gt;Node13 -->
<g id="edge12" class="edge"><title>Node12&#45;&gt;Node13</title>
<path fill="none" stroke="midnightblue" d="M304.035,-224.368C282.612,-205.814 231.927,-161.913 204.823,-138.438"/>
<polygon fill="midnightblue" stroke="midnightblue" points="206.77,-135.493 196.919,-131.591 202.187,-140.784 206.77,-135.493"/>
</g>
<!-- Node19 -->
<g id="node19" class="node"><title>Node19</title>
<g id="a_node19"><a xlink:href="semtable_8h.html" target="_top" xlink:title="header file for table for coordinating meaning across a vmhost ">
<polygon fill="white" stroke="black" points="281.5,-168.5 281.5,-187.5 346.5,-187.5 346.5,-168.5 281.5,-168.5"/>
<text text-anchor="middle" x="314" y="-175.5" font-family="Helvetica,sans-Serif" font-size="10.00">semtable.h</text>
</a>
</g>
</g>
<!-- Node12&#45;&gt;Node19 -->
<g id="edge21" class="edge"><title>Node12&#45;&gt;Node19</title>
<path fill="none" stroke="midnightblue" d="M314,-224.083C314,-217.006 314,-206.861 314,-197.986"/>
<polygon fill="midnightblue" stroke="midnightblue" points="317.5,-197.751 314,-187.751 310.5,-197.751 317.5,-197.751"/>
</g>
<!-- Node13&#45;&gt;Node8 -->
<g id="edge14" class="edge"><title>Node13&#45;&gt;Node8</title>
<path fill="none" stroke="midnightblue" d="M203.388,-112.324C219.671,-103.703 244.867,-90.3643 263.716,-80.3855"/>
<polygon fill="midnightblue" stroke="midnightblue" points="265.452,-83.4267 272.653,-75.6545 262.177,-77.2402 265.452,-83.4267"/>
</g>
<!-- Node14 -->
<g id="node14" class="node"><title>Node14</title>
<polygon fill="white" stroke="#bfbfbf" points="198.5,-56.5 198.5,-75.5 247.5,-75.5 247.5,-56.5 198.5,-56.5"/>
<text text-anchor="middle" x="223" y="-63.5" font-family="Helvetica,sans-Serif" font-size="10.00">stdint.h</text>
</g>
<!-- Node13&#45;&gt;Node14 -->
<g id="edge13" class="edge"><title>Node13&#45;&gt;Node14</title>
<path fill="none" stroke="midnightblue" d="M192.945,-112.083C197.977,-104.534 205.337,-93.4948 211.513,-84.2298"/>
<polygon fill="midnightblue" stroke="midnightblue" points="214.531,-86.0131 217.166,-75.7511 208.707,-82.1301 214.531,-86.0131"/>
</g>
<!-- Node15 -->
<g id="node15" class="node"><title>Node15</title>
<g id="a_node15"><a xlink:href="uthash_8h_source.html" target="_top" xlink:title="uthash.h">
<polygon fill="white" stroke="black" points="52,-56.5 52,-75.5 106,-75.5 106,-56.5 52,-56.5"/>
<text text-anchor="middle" x="79" y="-63.5" font-family="Helvetica,sans-Serif" font-size="10.00">uthash.h</text>
</a>
</g>
</g>
<!-- Node13&#45;&gt;Node15 -->
<g id="edge15" class="edge"><title>Node13&#45;&gt;Node15</title>
<path fill="none" stroke="midnightblue" d="M169.648,-112.324C152.328,-103.664 125.485,-90.2424 105.498,-80.249"/>
<polygon fill="midnightblue" stroke="midnightblue" points="106.819,-76.9962 96.309,-75.6545 103.688,-83.2572 106.819,-76.9962"/>
</g>
<!-- Node18 -->
<g id="node18" class="node"><title>Node18</title>
<polygon fill="white" stroke="#bfbfbf" points="124,-56.5 124,-75.5 180,-75.5 180,-56.5 124,-56.5"/>
<text text-anchor="middle" x="152" y="-63.5" font-family="Helvetica,sans-Serif" font-size="10.00">stdbool.h</text>
</g>
<!-- Node13&#45;&gt;Node18 -->
<g id="edge20" class="edge"><title>Node13&#45;&gt;Node18</title>
<path fill="none" stroke="midnightblue" d="M181.22,-112.083C176.328,-104.534 169.173,-93.4948 163.167,-84.2298"/>
<polygon fill="midnightblue" stroke="midnightblue" points="166.048,-82.239 157.672,-75.7511 160.174,-86.0463 166.048,-82.239"/>
</g>
<!-- Node15&#45;&gt;Node5 -->
<g id="edge16" class="edge"><title>Node15&#45;&gt;Node5</title>
<path fill="none" stroke="midnightblue" d="M106.033,-57.7699C109.044,-57.1053 112.078,-56.4966 115,-56 283.919,-27.2869 488.997,-15.9224 569.35,-12.3636"/>
<polygon fill="midnightblue" stroke="midnightblue" points="569.565,-15.8577 579.405,-11.9306 569.263,-8.86418 569.565,-15.8577"/>
</g>
<!-- Node15&#45;&gt;Node6 -->
<g id="edge18" class="edge"><title>Node15&#45;&gt;Node6</title>
<path fill="none" stroke="midnightblue" d="M69.9179,-56.083C61.8287,-48.1409 49.8046,-36.3354 40.0898,-26.7973"/>
<polygon fill="midnightblue" stroke="midnightblue" points="42.5009,-24.2595 32.9131,-19.7511 37.5967,-29.2545 42.5009,-24.2595"/>
</g>
<!-- Node16 -->
<g id="node16" class="node"><title>Node16</title>
<polygon fill="white" stroke="#bfbfbf" points="66,-0.5 66,-19.5 118,-19.5 118,-0.5 66,-0.5"/>
<text text-anchor="middle" x="92" y="-7.5" font-family="Helvetica,sans-Serif" font-size="10.00">stddef.h</text>
</g>
<!-- Node15&#45;&gt;Node16 -->
<g id="edge17" class="edge"><title>Node15&#45;&gt;Node16</title>
<path fill="none" stroke="midnightblue" d="M81.1467,-56.083C82.8694,-48.9272 85.3471,-38.6353 87.5003,-29.6911"/>
<polygon fill="midnightblue" stroke="midnightblue" points="90.9554,-30.2925 89.8933,-19.7511 84.1499,-28.6541 90.9554,-30.2925"/>
</g>
<!-- Node17 -->
<g id="node17" class="node"><title>Node17</title>
<polygon fill="white" stroke="#bfbfbf" points="136.5,-0.5 136.5,-19.5 195.5,-19.5 195.5,-0.5 136.5,-0.5"/>
<text text-anchor="middle" x="166" y="-7.5" font-family="Helvetica,sans-Serif" font-size="10.00">inttypes.h</text>
</g>
<!-- Node15&#45;&gt;Node17 -->
<g id="edge19" class="edge"><title>Node15&#45;&gt;Node17</title>
<path fill="none" stroke="midnightblue" d="M92.9781,-56.324C106.55,-47.9002 127.38,-34.9709 143.325,-25.0741"/>
<polygon fill="midnightblue" stroke="midnightblue" points="145.406,-27.9019 152.057,-19.6545 141.714,-21.9544 145.406,-27.9019"/>
</g>
<!-- Node19&#45;&gt;Node7 -->
<g id="edge23" class="edge"><title>Node19&#45;&gt;Node7</title>
<path fill="none" stroke="midnightblue" d="M330.067,-168.324C345.958,-159.743 370.507,-146.486 388.958,-136.522"/>
<polygon fill="midnightblue" stroke="midnightblue" points="390.837,-139.486 397.973,-131.655 387.511,-133.326 390.837,-139.486"/>
</g>
<!-- Node19&#45;&gt;Node13 -->
<g id="edge22" class="edge"><title>Node19&#45;&gt;Node13</title>
<path fill="none" stroke="midnightblue" d="M293.876,-168.444C272.976,-159.557 240.065,-145.563 216.284,-135.451"/>
<polygon fill="midnightblue" stroke="midnightblue" points="217.602,-132.208 207.029,-131.516 214.862,-138.65 217.602,-132.208"/>
</g>
<!-- Node20&#45;&gt;Node12 -->
<g id="edge25" class="edge"><title>Node20&#45;&gt;Node12</title>
<path fill="none" stroke="midnightblue" d="M313.165,-280.083C313.296,-273.006 313.484,-262.861 313.648,-253.986"/>
<polygon fill="midnightblue" stroke="midnightblue" points="317.152,-253.814 313.838,-243.751 310.153,-253.685 317.152,-253.814"/>
</g>
<!-- Node21&#45;&gt;Node8 -->
<g id="edge28" class="edge"><title>Node21&#45;&gt;Node8</title>
<path fill="none" stroke="midnightblue" d="M202.998,-280.477C211.525,-271.958 224.164,-258.128 232,-244 261.695,-190.462 278.674,-119.113 285.481,-85.7215"/>
<polygon fill="midnightblue" stroke="midnightblue" points="288.979,-86.0714 287.469,-75.5847 282.11,-84.7243 288.979,-86.0714"/>
</g>
<!-- Node22 -->
<g id="node22" class="node"><title>Node22</title>
<polygon fill="white" stroke="#bfbfbf" points="166.5,-224.5 166.5,-243.5 223.5,-243.5 223.5,-224.5 166.5,-224.5"/>
<text text-anchor="middle" x="195" y="-231.5" font-family="Helvetica,sans-Serif" font-size="10.00">pthread.h</text>
</g>
<!-- Node21&#45;&gt;Node22 -->
<g id="edge29" class="edge"><title>Node21&#45;&gt;Node22</title>
<path fill="none" stroke="midnightblue" d="M194.165,-280.083C194.296,-273.006 194.484,-262.861 194.648,-253.986"/>
<polygon fill="midnightblue" stroke="midnightblue" points="198.152,-253.814 194.838,-243.751 191.153,-253.685 198.152,-253.814"/>
</g>
<!-- Node23&#45;&gt;Node5 -->
<g id="edge31" class="edge"><title>Node23&#45;&gt;Node5</title>
<path fill="none" stroke="midnightblue" d="M497.133,-280.465C511.393,-272.843 530.681,-260.358 542,-244 589.462,-175.409 600.601,-72.4285 603.208,-30.1525"/>
<polygon fill="midnightblue" stroke="midnightblue" points="606.716,-30.0855 603.74,-19.9172 599.725,-29.7221 606.716,-30.0855"/>
</g>
<!-- Node23&#45;&gt;Node6 -->
<g id="edge32" class="edge"><title>Node23&#45;&gt;Node6</title>
<path fill="none" stroke="midnightblue" d="M485.473,-280.44C510.03,-246.884 592.986,-122.873 531,-56 496.707,-19.0035 143.025,-28.0378 58.1609,-19.4568"/>
<polygon fill="midnightblue" stroke="midnightblue" points="58.4029,-15.9585 48.0315,-18.1225 57.4887,-22.8986 58.4029,-15.9585"/>
</g>
<!-- Node23&#45;&gt;Node7 -->
<g id="edge33" class="edge"><title>Node23&#45;&gt;Node7</title>
<path fill="none" stroke="midnightblue" d="M478.051,-280.385C476.487,-267.745 472.838,-243.554 466,-224 455.195,-193.104 436.545,-159.819 424.763,-140.228"/>
<polygon fill="midnightblue" stroke="midnightblue" points="427.656,-138.25 419.45,-131.548 421.686,-141.904 427.656,-138.25"/>
</g>
<!-- Node23&#45;&gt;Node12 -->
<g id="edge34" class="edge"><title>Node23&#45;&gt;Node12</title>
<path fill="none" stroke="midnightblue" d="M453.94,-280.799C426.2,-271.72 381.26,-257.012 349.812,-246.72"/>
<polygon fill="midnightblue" stroke="midnightblue" points="350.707,-243.331 340.115,-243.547 348.53,-249.984 350.707,-243.331"/>
</g>
<!-- Node23&#45;&gt;Node13 -->
<g id="edge35" class="edge"><title>Node23&#45;&gt;Node13</title>
<path fill="none" stroke="midnightblue" d="M472.82,-280.463C456.328,-258.323 408.851,-198.65 355,-168 317.74,-146.793 270.132,-135.268 235.117,-129.208"/>
<polygon fill="midnightblue" stroke="midnightblue" points="235.572,-125.736 225.137,-127.569 234.438,-132.643 235.572,-125.736"/>
</g>
<!-- Node25 -->
<g id="node25" class="node"><title>Node25</title>
<g id="a_node25"><a xlink:href="receptor_8h.html" target="_top" xlink:title="receptor implementation header file ">
<polygon fill="white" stroke="black" points="154,-448.5 154,-467.5 214,-467.5 214,-448.5 154,-448.5"/>
<text text-anchor="middle" x="184" y="-455.5" font-family="Helvetica,sans-Serif" font-size="10.00">receptor.h</text>
</a>
</g>
</g>
<!-- Node24&#45;&gt;Node25 -->
<g id="edge37" class="edge"><title>Node24&#45;&gt;Node25</title>
<path fill="none" stroke="midnightblue" d="M184,-504.083C184,-497.006 184,-486.861 184,-477.986"/>
<polygon fill="midnightblue" stroke="midnightblue" points="187.5,-477.751 184,-467.751 180.5,-477.751 187.5,-477.751"/>
</g>
<!-- Node25&#45;&gt;Node4 -->
<g id="edge39" class="edge"><title>Node25&#45;&gt;Node4</title>
<path fill="none" stroke="midnightblue" d="M186.04,-448.368C190.236,-430.617 199.915,-389.666 205.604,-365.597"/>
<polygon fill="midnightblue" stroke="midnightblue" points="209.075,-366.128 207.969,-355.591 202.263,-364.518 209.075,-366.128"/>
</g>
<!-- Node25&#45;&gt;Node19 -->
<g id="edge38" class="edge"><title>Node25&#45;&gt;Node19</title>
<path fill="none" stroke="midnightblue" d="M214.423,-453.58C268.562,-445.624 376,-420.567 376,-347 376,-347 376,-347 376,-289 376,-258.641 370.235,-250.26 355,-224 348.795,-213.304 339.697,-202.985 331.648,-194.933"/>
<polygon fill="midnightblue" stroke="midnightblue" points="333.739,-192.09 324.093,-187.707 328.9,-197.148 333.739,-192.09"/>
</g>
<!-- Node26 -->
<g id="node26" class="node"><title>Node26</title>
<g id="a_node26"><a xlink:href="def_8h.html" target="_top" xlink:title="header file for symbol and structure definition functions ">
<polygon fill="white" stroke="black" points="290,-392.5 290,-411.5 328,-411.5 328,-392.5 290,-392.5"/>
<text text-anchor="middle" x="309" y="-399.5" font-family="Helvetica,sans-Serif" font-size="10.00">def.h</text>
</a>
</g>
</g>
<!-- Node25&#45;&gt;Node26 -->
<g id="edge40" class="edge"><title>Node25&#45;&gt;Node26</title>
<path fill="none" stroke="midnightblue" d="M203.807,-448.444C224.407,-439.544 256.862,-425.524 280.276,-415.409"/>
<polygon fill="midnightblue" stroke="midnightblue" points="281.905,-418.518 289.697,-411.339 279.129,-412.092 281.905,-418.518"/>
</g>
<!-- Node28 -->
<g id="node28" class="node"><title>Node28</title>
<g id="a_node28"><a xlink:href="label_8h.html" target="_top" xlink:title="Label tables map human readable text strings to parts of semantic trees. ">
<polygon fill="white" stroke="black" points="58.5,-168.5 58.5,-187.5 103.5,-187.5 103.5,-168.5 58.5,-168.5"/>
<text text-anchor="middle" x="81" y="-175.5" font-family="Helvetica,sans-Serif" font-size="10.00">label.h</text>
</a>
</g>
</g>
<!-- Node25&#45;&gt;Node28 -->
<g id="edge43" class="edge"><title>Node25&#45;&gt;Node28</title>
<path fill="none" stroke="midnightblue" d="M153.939,-450.133C133.681,-443.817 108.311,-432.258 95,-412 50.3575,-344.06 67.0838,-239.521 76.4124,-197.463"/>
<polygon fill="midnightblue" stroke="midnightblue" points="79.8622,-198.082 78.7387,-187.547 73.0472,-196.483 79.8622,-198.082"/>
</g>
<!-- Node29 -->
<g id="node29" class="node"><title>Node29</title>
<g id="a_node29"><a xlink:href="process_8h.html" target="_top" xlink:title="processing header files ">
<polygon fill="white" stroke="black" points="212.5,-392.5 212.5,-411.5 271.5,-411.5 271.5,-392.5 212.5,-392.5"/>
<text text-anchor="middle" x="242" y="-399.5" font-family="Helvetica,sans-Serif" font-size="10.00">process.h</text>
</a>
</g>
</g>
<!-- Node25&#45;&gt;Node29 -->
<g id="edge45" class="edge"><title>Node25&#45;&gt;Node29</title>
<path fill="none" stroke="midnightblue" d="M193.319,-448.324C201.893,-440.341 214.812,-428.313 225.188,-418.653"/>
<polygon fill="midnightblue" stroke="midnightblue" points="227.578,-421.21 232.512,-411.834 222.808,-416.086 227.578,-421.21"/>
</g>
<!-- Node30 -->
<g id="node30" class="node"><title>Node30</title>
<g id="a_node30"><a xlink:href="scape_8h.html" target="_top" xlink:title="scape header files ">
<polygon fill="white" stroke="black" points="104.5,-392.5 104.5,-411.5 155.5,-411.5 155.5,-392.5 104.5,-392.5"/>
<text text-anchor="middle" x="130" y="-399.5" font-family="Helvetica,sans-Serif" font-size="10.00">scape.h</text>
</a>
</g>
</g>
<!-- Node25&#45;&gt;Node30 -->
<g id="edge47" class="edge"><title>Node25&#45;&gt;Node30</title>
<path fill="none" stroke="midnightblue" d="M175.083,-448.083C167.22,-440.22 155.569,-428.569 146.081,-419.081"/>
<polygon fill="midnightblue" stroke="midnightblue" points="148.297,-416.347 138.751,-411.751 143.347,-421.297 148.297,-416.347"/>
</g>
<!-- Node26&#45;&gt;Node4 -->
<g id="edge41" class="edge"><title>Node26&#45;&gt;Node4</title>
<path fill="none" stroke="midnightblue" d="M293.094,-392.324C277.362,-383.743 253.058,-370.486 234.791,-360.522"/>
<polygon fill="midnightblue" stroke="midnightblue" points="236.322,-357.37 225.867,-355.655 232.97,-363.516 236.322,-357.37"/>
</g>
<!-- Node27 -->
<g id="node27" class="node"><title>Node27</title>
<polygon fill="white" stroke="#bfbfbf" points="283,-336.5 283,-355.5 335,-355.5 335,-336.5 283,-336.5"/>
<text text-anchor="middle" x="309" y="-343.5" font-family="Helvetica,sans-Serif" font-size="10.00">stdarg.h</text>
</g>
<!-- Node26&#45;&gt;Node27 -->
<g id="edge42" class="edge"><title>Node26&#45;&gt;Node27</title>
<path fill="none" stroke="midnightblue" d="M309,-392.083C309,-385.006 309,-374.861 309,-365.986"/>
<polygon fill="midnightblue" stroke="midnightblue" points="312.5,-365.751 309,-355.751 305.5,-365.751 312.5,-365.751"/>
</g>
<!-- Node28&#45;&gt;Node13 -->
<g id="edge44" class="edge"><title>Node28&#45;&gt;Node13</title>
<path fill="none" stroke="midnightblue" d="M98.0307,-168.324C115.03,-159.664 141.376,-146.242 160.993,-136.249"/>
<polygon fill="midnightblue" stroke="midnightblue" points="162.69,-139.312 170.012,-131.655 159.512,-133.075 162.69,-139.312"/>
</g>
<!-- Node29&#45;&gt;Node4 -->
<g id="edge46" class="edge"><title>Node29&#45;&gt;Node4</title>
<path fill="none" stroke="midnightblue" d="M236.716,-392.083C232.289,-384.613 225.837,-373.724 220.382,-364.52"/>
<polygon fill="midnightblue" stroke="midnightblue" points="223.295,-362.57 215.186,-355.751 217.273,-366.138 223.295,-362.57"/>
</g>
<!-- Node30&#45;&gt;Node4 -->
<g id="edge48" class="edge"><title>Node30&#45;&gt;Node4</title>
<path fill="none" stroke="midnightblue" d="M142.853,-392.324C155.216,-383.979 174.13,-371.212 188.737,-361.352"/>
<polygon fill="midnightblue" stroke="midnightblue" points="190.848,-364.15 197.179,-355.655 186.932,-358.348 190.848,-364.15"/>
</g>
<!-- Node31&#45;&gt;Node25 -->
<g id="edge50" class="edge"><title>Node31&#45;&gt;Node25</title>
<path fill="none" stroke="midnightblue" d="M59.5932,-560.368C82.4635,-541.733 136.71,-497.532 165.427,-474.134"/>
<polygon fill="midnightblue" stroke="midnightblue" points="167.914,-476.622 173.456,-467.591 163.493,-471.195 167.914,-476.622"/>
</g>
<!-- Node32&#45;&gt;Node8 -->
<g id="edge52" class="edge"><title>Node32&#45;&gt;Node8</title>
<path fill="none" stroke="midnightblue" d="M568.978,-504.321C593.571,-487.848 642,-449.505 642,-403 642,-403 642,-403 642,-289 642,-175.527 556.95,-167.542 458,-112 405.782,-82.6893 383.914,-91.5164 321.931,-76.1092"/>
<polygon fill="midnightblue" stroke="midnightblue" points="322.618,-72.6714 312.059,-73.5364 320.853,-79.4452 322.618,-72.6714"/>
</g>
</g>
</svg>
        <g id="navigator" transform="translate(0 0)" fill="#404254">
                <rect fill="#f2f5e9" fill-opacity="0.5" stroke="#606060" stroke-width=".5" x="0" y="0" width="60" height="60"/>
                <use id="zoomplus" xlink:href="#zoomPlus" x="17" y="9" onmousedown="handleZoom(evt,'in')"/>
                <use id="zoomminus" xlink:href="#zoomMin" x="42" y="9" onmousedown="handleZoom(evt,'out')"/>
                <use id="reset" xlink:href="#resetDef" x="30" y="36" onmousedown="handleReset()"/>
                <g id="arrowUp" xlink:href="#dirArrow" transform="translate(30 24)" onmousedown="handlePan(0,-1)">
                  <use xlink:href="#rim" fill="#404040">
                        <set attributeName="fill" to="#808080" begin="arrowUp.mouseover" end="arrowUp.mouseout"/>
                  </use>
                  <path fill="none" stroke="white" stroke-width="1.5" d="M0,-3.0v7 M-2.5,-0.5L0,-3.0L2.5,-0.5"/>
                </g>
                <g id="arrowRight" xlink:href="#dirArrow" transform="rotate(90) translate(36 -43)" onmousedown="handlePan(1,0)">
                  <use xlink:href="#rim" fill="#404040">
                        <set attributeName="fill" to="#808080" begin="arrowRight.mouseover" end="arrowRight.mouseout"/>
                  </use>
                  <path fill="none" stroke="white" stroke-width="1.5" d="M0,-3.0v7 M-2.5,-0.5L0,-3.0L2.5,-0.5"/>
                </g>
                <g id="arrowDown" xlink:href="#dirArrow" transform="rotate(180) translate(-30 -48)" onmousedown="handlePan(0,1)">
                  <use xlink:href="#rim" fill="#404040">
                        <set attributeName="fill" to="#808080" begin="arrowDown.mouseover" end="arrowDown.mouseout"/>
                  </use>
                  <path fill="none" stroke="white" stroke-width="1.5" d="M0,-3.0v7 M-2.5,-0.5L0,-3.0L2.5,-0.5"/>
                </g>
                <g id="arrowLeft" xlink:href="#dirArrow" transform="rotate(270) translate(-36 17)" onmousedown="handlePan(-1,0)">
                  <use xlink:href="#rim" fill="#404040">
                        <set attributeName="fill" to="#808080" begin="arrowLeft.mouseover" end="arrowLeft.mouseout"/>
                  </use>
                  <path fill="none" stroke="white" stroke-width="1.5" d="M0,-3.0v7 M-2.5,-0.5L0,-3.0L2.5,-0.5"/>
                </g>
        </g>
        <svg viewBox="0 0 15 15" width="100%" height="30px" preserveAspectRatio="xMaxYMin meet">
         <g id="arrow_out" transform="scale(0.3 0.3)">
          <a xlink:href="group_8c__incl_org.svg" target="_base">
           <rect id="button" ry="5" rx="5" y="6" x="6" height="38" width="38"
                fill="#f2f5e9" fill-opacity="0.5" stroke="#606060" stroke-width="1.0"/>
           <path id="arrow"
             d="M 11.500037,31.436501 C 11.940474,20.09759 22.043105,11.32322 32.158766,21.979434 L 37.068811,17.246167 C 37.068811,17.246167 37.088388,32 37.088388,32 L 22.160133,31.978069 C 22.160133,31.978069 26.997745,27.140456 26.997745,27.140456 C 18.528582,18.264221 13.291696,25.230495 11.500037,31.436501 z"
             style="fill:#404040;"/>
          </a>
         </g>
        </svg>
</svg>
