<?xml version="1.0" encoding="UTF-8" standalone="no"?>
<!DOCTYPE svg PUBLIC "-//W3C//DTD SVG 1.1//EN"
 "http://www.w3.org/Graphics/SVG/1.1/DTD/svg11.dtd">
<!-- Generated by graphviz version 2.38.0 (20140413.2041)
 -->
<!-- Title: spec/http_example.h Pages: 1 -->
<svg width="683pt" height="476pt"
 viewBox="0.00 0.00 683.00 476.00" xmlns="http://www.w3.org/2000/svg" xmlns:xlink="http://www.w3.org/1999/xlink">
<g id="graph0" class="graph" transform="scale(1 1) rotate(0) translate(4 472)">
<title>spec/http_example.h</title>
<polygon fill="white" stroke="none" points="-4,4 -4,-472 679,-472 679,4 -4,4"/>
<!-- Node1 -->
<g id="node1" class="node"><title>Node1</title>
<polygon fill="#bfbfbf" stroke="black" points="332.5,-448.5 332.5,-467.5 439.5,-467.5 439.5,-448.5 332.5,-448.5"/>
<text text-anchor="middle" x="386" y="-455.5" font-family="Helvetica,sans-Serif" font-size="10.00">spec/http_example.h</text>
</g>
<!-- Node2 -->
<g id="node2" class="node"><title>Node2</title>
<g id="a_node2"><a xlink:href="ceptr_8h_source.html" target="_top" xlink:title="../src/ceptr.h">
<polygon fill="white" stroke="black" points="188,-336.5 188,-355.5 260,-355.5 260,-336.5 188,-336.5"/>
<text text-anchor="middle" x="224" y="-343.5" font-family="Helvetica,sans-Serif" font-size="10.00">../src/ceptr.h</text>
</a>
</g>
</g>
<!-- Node1&#45;&gt;Node2 -->
<g id="edge1" class="edge"><title>Node1&#45;&gt;Node2</title>
<path fill="none" stroke="midnightblue" d="M355.439,-448.406C332.894,-441.098 302.229,-429.055 279,-412 261.015,-398.795 245.118,-378.566 235.1,-364.185"/>
<polygon fill="midnightblue" stroke="midnightblue" points="237.887,-362.058 229.402,-355.713 232.078,-365.964 237.887,-362.058"/>
</g>
<!-- Node19 -->
<g id="node19" class="node"><title>Node19</title>
<g id="a_node19"><a xlink:href="receptor_8h.html" target="_top" xlink:title="receptor implementation header file ">
<polygon fill="white" stroke="black" points="399,-392.5 399,-411.5 485,-411.5 485,-392.5 399,-392.5"/>
<text text-anchor="middle" x="442" y="-399.5" font-family="Helvetica,sans-Serif" font-size="10.00">../src/receptor.h</text>
</a>
</g>
</g>
<!-- Node1&#45;&gt;Node19 -->
<g id="edge27" class="edge"><title>Node1&#45;&gt;Node19</title>
<path fill="none" stroke="midnightblue" d="M394.997,-448.324C403.194,-440.42 415.506,-428.548 425.472,-418.938"/>
<polygon fill="midnightblue" stroke="midnightblue" points="428.07,-421.295 432.839,-411.834 423.211,-416.256 428.07,-421.295"/>
</g>
<!-- Node20 -->
<g id="node20" class="node"><title>Node20</title>
<g id="a_node20"><a xlink:href="def_8h.html" target="_top" xlink:title="header file for symbol and structure definition functions ">
<polygon fill="white" stroke="black" points="545,-336.5 545,-355.5 583,-355.5 583,-336.5 545,-336.5"/>
<text text-anchor="middle" x="564" y="-343.5" font-family="Helvetica,sans-Serif" font-size="10.00">def.h</text>
</a>
</g>
</g>
<!-- Node1&#45;&gt;Node20 -->
<g id="edge38" class="edge"><title>Node1&#45;&gt;Node20</title>
<path fill="none" stroke="midnightblue" d="M413.947,-448.414C436.57,-440.762 468.716,-428.263 494,-412 515.454,-398.201 536.397,-377.519 549.699,-363.206"/>
<polygon fill="midnightblue" stroke="midnightblue" points="552.461,-365.371 556.594,-355.615 547.279,-360.664 552.461,-365.371"/>
</g>
<!-- Node25 -->
<g id="node25" class="node"><title>Node25</title>
<g id="a_node25"><a xlink:href="semtrex_8h.html" target="_top" xlink:title="Semantic tree regular expression header file. ">
<polygon fill="white" stroke="black" points="288,-392.5 288,-411.5 374,-411.5 374,-392.5 288,-392.5"/>
<text text-anchor="middle" x="331" y="-399.5" font-family="Helvetica,sans-Serif" font-size="10.00">../src/semtrex.h</text>
</a>
</g>
</g>
<!-- Node1&#45;&gt;Node25 -->
<g id="edge39" class="edge"><title>Node1&#45;&gt;Node25</title>
<path fill="none" stroke="midnightblue" d="M376.918,-448.083C368.829,-440.141 356.805,-428.335 347.09,-418.797"/>
<polygon fill="midnightblue" stroke="midnightblue" points="349.501,-416.26 339.913,-411.751 344.597,-421.254 349.501,-416.26"/>
</g>
<!-- Node3 -->
<g id="node3" class="node"><title>Node3</title>
<polygon fill="white" stroke="#bfbfbf" points="271.5,-0.5 271.5,-19.5 320.5,-19.5 320.5,-0.5 271.5,-0.5"/>
<text text-anchor="middle" x="296" y="-7.5" font-family="Helvetica,sans-Serif" font-size="10.00">string.h</text>
</g>
<!-- Node2&#45;&gt;Node3 -->
<g id="edge2" class="edge"><title>Node2&#45;&gt;Node3</title>
<path fill="none" stroke="midnightblue" d="M187.512,-343.291C124.039,-338.146 0,-317.534 0,-235 0,-235 0,-235 0,-121 0,-65.8912 182.555,-29.498 260.934,-16.4124"/>
<polygon fill="midnightblue" stroke="midnightblue" points="261.969,-19.7897 271.272,-14.7211 260.838,-12.8816 261.969,-19.7897"/>
</g>
<!-- Node4 -->
<g id="node4" class="node"><title>Node4</title>
<polygon fill="white" stroke="#bfbfbf" points="28,-168.5 28,-187.5 74,-187.5 74,-168.5 28,-168.5"/>
<text text-anchor="middle" x="51" y="-175.5" font-family="Helvetica,sans-Serif" font-size="10.00">stdio.h</text>
</g>
<!-- Node2&#45;&gt;Node4 -->
<g id="edge3" class="edge"><title>Node2&#45;&gt;Node4</title>
<path fill="none" stroke="midnightblue" d="M214.699,-336.075C186.76,-309.267 103.307,-229.19 67.555,-194.885"/>
<polygon fill="midnightblue" stroke="midnightblue" points="69.5682,-191.966 59.9294,-187.568 64.7217,-197.017 69.5682,-191.966"/>
</g>
<!-- Node5 -->
<g id="node5" class="node"><title>Node5</title>
<polygon fill="white" stroke="#bfbfbf" points="486,-0.5 486,-19.5 534,-19.5 534,-0.5 486,-0.5"/>
<text text-anchor="middle" x="510" y="-7.5" font-family="Helvetica,sans-Serif" font-size="10.00">stdlib.h</text>
</g>
<!-- Node2&#45;&gt;Node5 -->
<g id="edge4" class="edge"><title>Node2&#45;&gt;Node5</title>
<path fill="none" stroke="midnightblue" d="M238.139,-336.361C263.014,-319.953 312,-281.712 312,-235 312,-235 312,-235 312,-177 312,-104.184 385.775,-123.459 441,-76 459.781,-59.8603 480.322,-40.2377 494.065,-26.8024"/>
<polygon fill="midnightblue" stroke="midnightblue" points="496.632,-29.1873 501.307,-19.6799 491.723,-24.1966 496.632,-29.1873"/>
</g>
<!-- Node6 -->
<g id="node6" class="node"><title>Node6</title>
<g id="a_node6"><a xlink:href="ceptr__error_8h_source.html" target="_top" xlink:title="ceptr_error.h">
<polygon fill="white" stroke="black" points="161.5,-224.5 161.5,-243.5 232.5,-243.5 232.5,-224.5 161.5,-224.5"/>
<text text-anchor="middle" x="197" y="-231.5" font-family="Helvetica,sans-Serif" font-size="10.00">ceptr_error.h</text>
</a>
</g>
</g>
<!-- Node2&#45;&gt;Node6 -->
<g id="edge5" class="edge"><title>Node2&#45;&gt;Node6</title>
<path fill="none" stroke="midnightblue" d="M221.881,-336.368C217.524,-318.617 207.473,-277.666 201.565,-253.597"/>
<polygon fill="midnightblue" stroke="midnightblue" points="204.892,-252.469 199.109,-243.591 198.094,-254.137 204.892,-252.469"/>
</g>
<!-- Node10 -->
<g id="node10" class="node"><title>Node10</title>
<g id="a_node10"><a xlink:href="tree_8h.html" target="_top" xlink:title="semantic trees header file ">
<polygon fill="white" stroke="black" points="404.5,-280.5 404.5,-299.5 445.5,-299.5 445.5,-280.5 404.5,-280.5"/>
<text text-anchor="middle" x="425" y="-287.5" font-family="Helvetica,sans-Serif" font-size="10.00">tree.h</text>
</a>
</g>
</g>
<!-- Node2&#45;&gt;Node10 -->
<g id="edge10" class="edge"><title>Node2&#45;&gt;Node10</title>
<path fill="none" stroke="midnightblue" d="M255.849,-336.444C293.894,-326.223 357.081,-309.247 394.514,-299.19"/>
<polygon fill="midnightblue" stroke="midnightblue" points="395.597,-302.524 404.346,-296.549 393.781,-295.763 395.597,-302.524"/>
</g>
<!-- Node6&#45;&gt;Node4 -->
<g id="edge6" class="edge"><title>Node6&#45;&gt;Node4</title>
<path fill="none" stroke="midnightblue" d="M173.866,-224.444C149.518,-215.438 110.993,-201.189 83.577,-191.049"/>
<polygon fill="midnightblue" stroke="midnightblue" points="84.6191,-187.703 74.0259,-187.516 82.1908,-194.268 84.6191,-187.703"/>
</g>
<!-- Node7 -->
<g id="node7" class="node"><title>Node7</title>
<polygon fill="white" stroke="#bfbfbf" points="92,-168.5 92,-187.5 142,-187.5 142,-168.5 92,-168.5"/>
<text text-anchor="middle" x="117" y="-175.5" font-family="Helvetica,sans-Serif" font-size="10.00">signal.h</text>
</g>
<!-- Node6&#45;&gt;Node7 -->
<g id="edge7" class="edge"><title>Node6&#45;&gt;Node7</title>
<path fill="none" stroke="midnightblue" d="M184.147,-224.324C171.784,-215.979 152.87,-203.212 138.263,-193.352"/>
<polygon fill="midnightblue" stroke="midnightblue" points="140.068,-190.348 129.821,-187.655 136.152,-196.15 140.068,-190.348"/>
</g>
<!-- Node8 -->
<g id="node8" class="node"><title>Node8</title>
<polygon fill="white" stroke="#bfbfbf" points="160,-168.5 160,-187.5 212,-187.5 212,-168.5 160,-168.5"/>
<text text-anchor="middle" x="186" y="-175.5" font-family="Helvetica,sans-Serif" font-size="10.00">assert.h</text>
</g>
<!-- Node6&#45;&gt;Node8 -->
<g id="edge8" class="edge"><title>Node6&#45;&gt;Node8</title>
<path fill="none" stroke="midnightblue" d="M195.184,-224.083C193.726,-216.927 191.629,-206.635 189.807,-197.691"/>
<polygon fill="midnightblue" stroke="midnightblue" points="193.208,-196.851 187.783,-187.751 186.349,-198.248 193.208,-196.851"/>
</g>
<!-- Node9 -->
<g id="node9" class="node"><title>Node9</title>
<polygon fill="white" stroke="#bfbfbf" points="230,-168.5 230,-187.5 284,-187.5 284,-168.5 230,-168.5"/>
<text text-anchor="middle" x="257" y="-175.5" font-family="Helvetica,sans-Serif" font-size="10.00">setjmp.h</text>
</g>
<!-- Node6&#45;&gt;Node9 -->
<g id="edge9" class="edge"><title>Node6&#45;&gt;Node9</title>
<path fill="none" stroke="midnightblue" d="M206.64,-224.324C215.51,-216.341 228.875,-204.313 239.608,-194.653"/>
<polygon fill="midnightblue" stroke="midnightblue" points="242.093,-197.125 247.185,-187.834 237.41,-191.922 242.093,-197.125"/>
</g>
<!-- Node10&#45;&gt;Node3 -->
<g id="edge11" class="edge"><title>Node10&#45;&gt;Node3</title>
<path fill="none" stroke="midnightblue" d="M413.609,-280.398C392.628,-263.477 350,-223.61 350,-179 350,-179 350,-179 350,-121 350,-84.8628 326.225,-48.252 310.226,-27.7063"/>
<polygon fill="midnightblue" stroke="midnightblue" points="312.751,-25.2619 303.737,-19.694 307.311,-29.6678 312.751,-25.2619"/>
</g>
<!-- Node10&#45;&gt;Node5 -->
<g id="edge12" class="edge"><title>Node10&#45;&gt;Node5</title>
<path fill="none" stroke="midnightblue" d="M445.657,-285.559C495.698,-277.086 620.456,-255.103 636,-244 663.415,-224.418 675,-212.69 675,-179 675,-179 675,-179 675,-121 675,-58.645 592.411,-29.4615 544.094,-17.7237"/>
<polygon fill="midnightblue" stroke="midnightblue" points="544.877,-14.3124 534.346,-15.4782 543.305,-21.1337 544.877,-14.3124"/>
</g>
<!-- Node10&#45;&gt;Node6 -->
<g id="edge13" class="edge"><title>Node10&#45;&gt;Node6</title>
<path fill="none" stroke="midnightblue" d="M404.364,-284.113C367.958,-275.49 291.53,-257.389 242.321,-245.734"/>
<polygon fill="midnightblue" stroke="midnightblue" points="243.097,-242.321 232.559,-243.422 241.484,-249.133 243.097,-242.321"/>
</g>
<!-- Node11 -->
<g id="node11" class="node"><title>Node11</title>
<g id="a_node11"><a xlink:href="sys__symbols_8h.html" target="_top" xlink:title="Defines hard&#45;coded system defined symbols. ">
<polygon fill="white" stroke="black" points="525.5,-224.5 525.5,-243.5 608.5,-243.5 608.5,-224.5 525.5,-224.5"/>
<text text-anchor="middle" x="567" y="-231.5" font-family="Helvetica,sans-Serif" font-size="10.00">sys_symbols.h</text>
</a>
</g>
</g>
<!-- Node10&#45;&gt;Node11 -->
<g id="edge14" class="edge"><title>Node10&#45;&gt;Node11</title>
<path fill="none" stroke="midnightblue" d="M445.648,-281.148C469.078,-272.238 507.579,-257.597 534.927,-247.197"/>
<polygon fill="midnightblue" stroke="midnightblue" points="536.347,-250.402 544.449,-243.576 533.858,-243.859 536.347,-250.402"/>
</g>
<!-- Node12 -->
<g id="node12" class="node"><title>Node12</title>
<g id="a_node12"><a xlink:href="sys__structures_8h.html" target="_top" xlink:title="Defines hard&#45;coded system defined structures. ">
<polygon fill="white" stroke="black" points="465.5,-168.5 465.5,-187.5 554.5,-187.5 554.5,-168.5 465.5,-168.5"/>
<text text-anchor="middle" x="510" y="-175.5" font-family="Helvetica,sans-Serif" font-size="10.00">sys_structures.h</text>
</a>
</g>
</g>
<!-- Node10&#45;&gt;Node12 -->
<g id="edge24" class="edge"><title>Node10&#45;&gt;Node12</title>
<path fill="none" stroke="midnightblue" d="M418.432,-280.316C409.352,-267.162 395.331,-241.832 407,-224 418.055,-207.106 436.999,-196.517 455.649,-189.896"/>
<polygon fill="midnightblue" stroke="midnightblue" points="456.882,-193.176 465.331,-186.783 454.74,-186.512 456.882,-193.176"/>
</g>
<!-- Node13 -->
<g id="node13" class="node"><title>Node13</title>
<g id="a_node13"><a xlink:href="ceptr__types_8h_source.html" target="_top" xlink:title="ceptr_types.h">
<polygon fill="white" stroke="black" points="545,-112.5 545,-131.5 621,-131.5 621,-112.5 545,-112.5"/>
<text text-anchor="middle" x="583" y="-119.5" font-family="Helvetica,sans-Serif" font-size="10.00">ceptr_types.h</text>
</a>
</g>
</g>
<!-- Node10&#45;&gt;Node13 -->
<g id="edge26" class="edge"><title>Node10&#45;&gt;Node13</title>
<path fill="none" stroke="midnightblue" d="M445.591,-285.646C492.926,-277.734 606.26,-257.549 617,-244 641.628,-212.932 614.172,-165.016 596.157,-139.815"/>
<polygon fill="midnightblue" stroke="midnightblue" points="598.842,-137.56 590.061,-131.631 593.228,-141.742 598.842,-137.56"/>
</g>
<!-- Node18 -->
<g id="node18" class="node"><title>Node18</title>
<g id="a_node18"><a xlink:href="sys__processes_8h.html" target="_top" xlink:title="Defines hard&#45;coded system defined processes. ">
<polygon fill="white" stroke="black" points="416.5,-224.5 416.5,-243.5 507.5,-243.5 507.5,-224.5 416.5,-224.5"/>
<text text-anchor="middle" x="462" y="-231.5" font-family="Helvetica,sans-Serif" font-size="10.00">sys_processes.h</text>
</a>
</g>
</g>
<!-- Node10&#45;&gt;Node18 -->
<g id="edge25" class="edge"><title>Node10&#45;&gt;Node18</title>
<path fill="none" stroke="midnightblue" d="M431.11,-280.083C436.282,-272.534 443.846,-261.495 450.194,-252.23"/>
<polygon fill="midnightblue" stroke="midnightblue" points="453.239,-253.979 456.004,-243.751 447.464,-250.022 453.239,-253.979"/>
</g>
<!-- Node11&#45;&gt;Node12 -->
<g id="edge15" class="edge"><title>Node11&#45;&gt;Node12</title>
<path fill="none" stroke="midnightblue" d="M557.842,-224.324C549.499,-216.42 536.968,-204.548 526.823,-194.938"/>
<polygon fill="midnightblue" stroke="midnightblue" points="528.991,-192.171 519.325,-187.834 524.177,-197.252 528.991,-192.171"/>
</g>
<!-- Node11&#45;&gt;Node13 -->
<g id="edge23" class="edge"><title>Node11&#45;&gt;Node13</title>
<path fill="none" stroke="midnightblue" d="M568.255,-224.368C570.838,-206.617 576.794,-165.666 580.295,-141.597"/>
<polygon fill="midnightblue" stroke="midnightblue" points="583.774,-141.991 581.75,-131.591 576.847,-140.983 583.774,-141.991"/>
</g>
<!-- Node12&#45;&gt;Node13 -->
<g id="edge16" class="edge"><title>Node12&#45;&gt;Node13</title>
<path fill="none" stroke="midnightblue" d="M521.729,-168.324C532.837,-160.107 549.742,-147.602 562.983,-137.807"/>
<polygon fill="midnightblue" stroke="midnightblue" points="565.1,-140.595 571.058,-131.834 560.937,-134.967 565.1,-140.595"/>
</g>
<!-- Node14 -->
<g id="node14" class="node"><title>Node14</title>
<polygon fill="white" stroke="#bfbfbf" points="558.5,-56.5 558.5,-75.5 607.5,-75.5 607.5,-56.5 558.5,-56.5"/>
<text text-anchor="middle" x="583" y="-63.5" font-family="Helvetica,sans-Serif" font-size="10.00">stdint.h</text>
</g>
<!-- Node13&#45;&gt;Node14 -->
<g id="edge17" class="edge"><title>Node13&#45;&gt;Node14</title>
<path fill="none" stroke="midnightblue" d="M583,-112.083C583,-105.006 583,-94.8611 583,-85.9865"/>
<polygon fill="midnightblue" stroke="midnightblue" points="586.5,-85.751 583,-75.7511 579.5,-85.7511 586.5,-85.751"/>
</g>
<!-- Node15 -->
<g id="node15" class="node"><title>Node15</title>
<g id="a_node15"><a xlink:href="uthash_8h_source.html" target="_top" xlink:title="uthash.h">
<polygon fill="white" stroke="black" points="378,-56.5 378,-75.5 432,-75.5 432,-56.5 378,-56.5"/>
<text text-anchor="middle" x="405" y="-63.5" font-family="Helvetica,sans-Serif" font-size="10.00">uthash.h</text>
</a>
</g>
</g>
<!-- Node13&#45;&gt;Node15 -->
<g id="edge18" class="edge"><title>Node13&#45;&gt;Node15</title>
<path fill="none" stroke="midnightblue" d="M554.795,-112.444C524.323,-103.199 475.638,-88.4296 442.087,-78.2511"/>
<polygon fill="midnightblue" stroke="midnightblue" points="442.783,-74.8047 432.197,-75.2508 440.75,-81.5032 442.783,-74.8047"/>
</g>
<!-- Node15&#45;&gt;Node3 -->
<g id="edge19" class="edge"><title>Node15&#45;&gt;Node3</title>
<path fill="none" stroke="midnightblue" d="M387.487,-56.324C369.928,-47.6247 342.669,-34.1202 322.469,-24.113"/>
<polygon fill="midnightblue" stroke="midnightblue" points="323.984,-20.9575 313.469,-19.6545 320.876,-27.23 323.984,-20.9575"/>
</g>
<!-- Node15&#45;&gt;Node5 -->
<g id="edge21" class="edge"><title>Node15&#45;&gt;Node5</title>
<path fill="none" stroke="midnightblue" d="M421.87,-56.324C438.709,-47.6641 464.807,-34.2424 484.238,-24.249"/>
<polygon fill="midnightblue" stroke="midnightblue" points="485.88,-27.3405 493.172,-19.6545 482.678,-21.1155 485.88,-27.3405"/>
</g>
<!-- Node16 -->
<g id="node16" class="node"><title>Node16</title>
<polygon fill="white" stroke="#bfbfbf" points="416,-0.5 416,-19.5 468,-19.5 468,-0.5 416,-0.5"/>
<text text-anchor="middle" x="442" y="-7.5" font-family="Helvetica,sans-Serif" font-size="10.00">stddef.h</text>
</g>
<!-- Node15&#45;&gt;Node16 -->
<g id="edge20" class="edge"><title>Node15&#45;&gt;Node16</title>
<path fill="none" stroke="midnightblue" d="M411.11,-56.083C416.282,-48.5341 423.846,-37.4948 430.194,-28.2298"/>
<polygon fill="midnightblue" stroke="midnightblue" points="433.239,-29.9787 436.004,-19.7511 427.464,-26.0221 433.239,-29.9787"/>
</g>
<!-- Node17 -->
<g id="node17" class="node"><title>Node17</title>
<polygon fill="white" stroke="#bfbfbf" points="338.5,-0.5 338.5,-19.5 397.5,-19.5 397.5,-0.5 338.5,-0.5"/>
<text text-anchor="middle" x="368" y="-7.5" font-family="Helvetica,sans-Serif" font-size="10.00">inttypes.h</text>
</g>
<!-- Node15&#45;&gt;Node17 -->
<g id="edge22" class="edge"><title>Node15&#45;&gt;Node17</title>
<path fill="none" stroke="midnightblue" d="M398.89,-56.083C393.718,-48.5341 386.154,-37.4948 379.806,-28.2298"/>
<polygon fill="midnightblue" stroke="midnightblue" points="382.536,-26.0221 373.996,-19.7511 376.761,-29.9787 382.536,-26.0221"/>
</g>
<!-- Node19&#45;&gt;Node10 -->
<g id="edge28" class="edge"><title>Node19&#45;&gt;Node10</title>
<path fill="none" stroke="midnightblue" d="M447.37,-392.479C454.559,-379.954 465.675,-355.906 459,-336 455.396,-325.251 448.097,-315.02 441.183,-307.038"/>
<polygon fill="midnightblue" stroke="midnightblue" points="443.655,-304.556 434.288,-299.605 438.523,-309.317 443.655,-304.556"/>
</g>
<!-- Node19&#45;&gt;Node20 -->
<g id="edge29" class="edge"><title>Node19&#45;&gt;Node20</title>
<path fill="none" stroke="midnightblue" d="M461.331,-392.444C481.32,-383.596 512.743,-369.687 535.564,-359.586"/>
<polygon fill="midnightblue" stroke="midnightblue" points="537.032,-362.764 544.759,-355.516 534.198,-356.363 537.032,-362.764"/>
</g>
<!-- Node22 -->
<g id="node22" class="node"><title>Node22</title>
<g id="a_node22"><a xlink:href="label_8h.html" target="_top" xlink:title="Label tables map human readable text strings to parts of semantic trees. ">
<polygon fill="white" stroke="black" points="494.5,-280.5 494.5,-299.5 539.5,-299.5 539.5,-280.5 494.5,-280.5"/>
<text text-anchor="middle" x="517" y="-287.5" font-family="Helvetica,sans-Serif" font-size="10.00">label.h</text>
</a>
</g>
</g>
<!-- Node19&#45;&gt;Node22 -->
<g id="edge32" class="edge"><title>Node19&#45;&gt;Node22</title>
<path fill="none" stroke="midnightblue" d="M448.479,-392.482C455.247,-383.512 466.097,-368.925 475,-356 486.04,-339.974 498.032,-321.275 506.365,-308.058"/>
<polygon fill="midnightblue" stroke="midnightblue" points="509.372,-309.85 511.72,-299.519 503.442,-306.131 509.372,-309.85"/>
</g>
<!-- Node23 -->
<g id="node23" class="node"><title>Node23</title>
<g id="a_node23"><a xlink:href="process_8h.html" target="_top" xlink:title="processing header files ">
<polygon fill="white" stroke="black" points="322.5,-336.5 322.5,-355.5 381.5,-355.5 381.5,-336.5 322.5,-336.5"/>
<text text-anchor="middle" x="352" y="-343.5" font-family="Helvetica,sans-Serif" font-size="10.00">process.h</text>
</a>
</g>
</g>
<!-- Node19&#45;&gt;Node23 -->
<g id="edge34" class="edge"><title>Node19&#45;&gt;Node23</title>
<path fill="none" stroke="midnightblue" d="M427.54,-392.324C413.5,-383.9 391.952,-370.971 375.457,-361.074"/>
<polygon fill="midnightblue" stroke="midnightblue" points="376.8,-357.798 366.424,-355.655 373.198,-363.801 376.8,-357.798"/>
</g>
<!-- Node24 -->
<g id="node24" class="node"><title>Node24</title>
<g id="a_node24"><a xlink:href="scape_8h.html" target="_top" xlink:title="scape header files ">
<polygon fill="white" stroke="black" points="399.5,-336.5 399.5,-355.5 450.5,-355.5 450.5,-336.5 399.5,-336.5"/>
<text text-anchor="middle" x="425" y="-343.5" font-family="Helvetica,sans-Serif" font-size="10.00">scape.h</text>
</a>
</g>
</g>
<!-- Node19&#45;&gt;Node24 -->
<g id="edge36" class="edge"><title>Node19&#45;&gt;Node24</title>
<path fill="none" stroke="midnightblue" d="M439.193,-392.083C436.915,-384.849 433.629,-374.409 430.792,-365.397"/>
<polygon fill="midnightblue" stroke="midnightblue" points="434.096,-364.239 427.755,-355.751 427.419,-366.341 434.096,-364.239"/>
</g>
<!-- Node20&#45;&gt;Node10 -->
<g id="edge30" class="edge"><title>Node20&#45;&gt;Node10</title>
<path fill="none" stroke="midnightblue" d="M544.964,-337.605C521.787,-328.601 482.365,-313.286 455.069,-302.681"/>
<polygon fill="midnightblue" stroke="midnightblue" points="456.203,-299.367 445.614,-299.008 453.668,-305.892 456.203,-299.367"/>
</g>
<!-- Node21 -->
<g id="node21" class="node"><title>Node21</title>
<polygon fill="white" stroke="#bfbfbf" points="558,-280.5 558,-299.5 610,-299.5 610,-280.5 558,-280.5"/>
<text text-anchor="middle" x="584" y="-287.5" font-family="Helvetica,sans-Serif" font-size="10.00">stdarg.h</text>
</g>
<!-- Node20&#45;&gt;Node21 -->
<g id="edge31" class="edge"><title>Node20&#45;&gt;Node21</title>
<path fill="none" stroke="midnightblue" d="M567.303,-336.083C569.982,-328.849 573.849,-318.409 577.186,-309.397"/>
<polygon fill="midnightblue" stroke="midnightblue" points="580.568,-310.344 580.759,-299.751 574.004,-307.913 580.568,-310.344"/>
</g>
<!-- Node22&#45;&gt;Node13 -->
<g id="edge33" class="edge"><title>Node22&#45;&gt;Node13</title>
<path fill="none" stroke="midnightblue" d="M539.628,-282.153C576.944,-270.756 647.633,-248.682 651,-244 670.72,-216.576 666.989,-197.754 651,-168 643.378,-153.815 629.103,-143.352 615.594,-136.103"/>
<polygon fill="midnightblue" stroke="midnightblue" points="616.97,-132.879 606.454,-131.592 613.872,-139.156 616.97,-132.879"/>
</g>
<!-- Node23&#45;&gt;Node10 -->
<g id="edge35" class="edge"><title>Node23&#45;&gt;Node10</title>
<path fill="none" stroke="midnightblue" d="M363.729,-336.324C374.837,-328.107 391.742,-315.602 404.983,-305.807"/>
<polygon fill="midnightblue" stroke="midnightblue" points="407.1,-308.595 413.058,-299.834 402.937,-302.967 407.1,-308.595"/>
</g>
<!-- Node24&#45;&gt;Node10 -->
<g id="edge37" class="edge"><title>Node24&#45;&gt;Node10</title>
<path fill="none" stroke="midnightblue" d="M425,-336.083C425,-329.006 425,-318.861 425,-309.986"/>
<polygon fill="midnightblue" stroke="midnightblue" points="428.5,-309.751 425,-299.751 421.5,-309.751 428.5,-309.751"/>
</g>
<!-- Node25&#45;&gt;Node10 -->
<g id="edge40" class="edge"><title>Node25&#45;&gt;Node10</title>
<path fill="none" stroke="midnightblue" d="M324.366,-392.272C315.198,-379.061 301.066,-353.656 313,-336 331.026,-309.331 367.744,-298.465 394.233,-294.039"/>
<polygon fill="midnightblue" stroke="midnightblue" points="394.78,-297.496 404.173,-292.595 393.773,-290.569 394.78,-297.496"/>
</g>
</g>
</svg>
