<?xml version="1.0" encoding="UTF-8" standalone="no"?>
<!DOCTYPE svg PUBLIC "-//W3C//DTD SVG 1.1//EN"
 "http://www.w3.org/Graphics/SVG/1.1/DTD/svg11.dtd">
<!-- Generated by graphviz version 2.38.0 (20140413.2041)
 -->
<!-- Title: spec/http_example.h Pages: 1 -->
<!--zoomable 532 -->
<svg id="main" version="1.1" xmlns="http://www.w3.org/2000/svg" xmlns:xlink="http://www.w3.org/1999/xlink" xml:space="preserve" onload="init(evt)">
<style type="text/css"><![CDATA[
.edge:hover path { stroke: red; }
.edge:hover polygon { stroke: red; fill: red; }
]]></style>
<script type="text/javascript"><![CDATA[
var edges = document.getElementsByTagName('g');
if (edges && edges.length) {
  for (var i=0;i<edges.length;i++) {
    if (edges[i].id.substr(0,4)=='edge') {
      edges[i].setAttribute('class','edge');
    }
  }
}
]]></script>
        <defs>
                <circle id="rim" cx="0" cy="0" r="7"/>
                <circle id="rim2" cx="0" cy="0" r="3.5"/>
                <g id="zoomPlus">
                        <use xlink:href="#rim" fill="#404040">
                                <set attributeName="fill" to="#808080" begin="zoomplus.mouseover" end="zoomplus.mouseout"/>
                        </use>
                        <path d="M-4,0h8M0,-4v8" fill="none" stroke="white" stroke-width="1.5" pointer-events="none"/>
                </g>
                <g id="zoomMin">
                        <use xlink:href="#rim" fill="#404040">
                                <set attributeName="fill" to="#808080" begin="zoomminus.mouseover" end="zoomminus.mouseout"/>
                        </use>
                        <path d="M-4,0h8" fill="none" stroke="white" stroke-width="1.5" pointer-events="none"/>
                </g>
                <g id="dirArrow">
                        <path fill="none" stroke="white" stroke-width="1.5" d="M0,-3.0v7 M-2.5,-0.5L0,-3.0L2.5,-0.5"/>
                </g>
               <g id="resetDef">
                       <use xlink:href="#rim2" fill="#404040">
                               <set attributeName="fill" to="#808080" begin="reset.mouseover" end="reset.mouseout"/>
                       </use>
               </g>
        </defs>

<script type="text/javascript">
var viewWidth = 908;
var viewHeight = 532;
var sectionId = 'dynsection-0';
</script>
<script xlink:href="svgpan.js"/>
<svg id="graph" class="graph">
<g id="viewport">
<title>spec/http_example.h</title>
<polygon fill="white" stroke="none" points="-4,4 -4,-528 903.777,-528 903.777,4 -4,4"/>
<!-- Node1 -->
<g id="node1" class="node"><title>Node1</title>
<polygon fill="#bfbfbf" stroke="black" points="486.277,-504.5 486.277,-523.5 593.277,-523.5 593.277,-504.5 486.277,-504.5"/>
<text text-anchor="middle" x="539.777" y="-511.5" font-family="Helvetica,sans-Serif" font-size="10.00">spec/http_example.h</text>
</g>
<!-- Node2 -->
<g id="node2" class="node"><title>Node2</title>
<g id="a_node2"><a xlink:href="ceptr_8h_source.html" target="_top" xlink:title="../src/ceptr.h">
<polygon fill="white" stroke="black" points="272.777,-392.5 272.777,-411.5 344.777,-411.5 344.777,-392.5 272.777,-392.5"/>
<text text-anchor="middle" x="308.777" y="-399.5" font-family="Helvetica,sans-Serif" font-size="10.00">../src/ceptr.h</text>
</a>
</g>
</g>
<!-- Node1&#45;&gt;Node2 -->
<g id="edge1" class="edge"><title>Node1&#45;&gt;Node2</title>
<path fill="none" stroke="midnightblue" d="M486.216,-504.436C453.932,-497.732 412.809,-486.379 379.777,-468 357.071,-455.366 335.756,-434.101 322.517,-419.35"/>
<polygon fill="midnightblue" stroke="midnightblue" points="324.915,-416.773 315.707,-411.532 319.636,-421.371 324.915,-416.773"/>
</g>
<!-- Node27 -->
<g id="node27" class="node"><title>Node27</title>
<g id="a_node27"><a xlink:href="receptor_8h.html" target="_top" xlink:title="receptor implementation header file ">
<polygon fill="white" stroke="black" points="665.777,-448.5 665.777,-467.5 751.777,-467.5 751.777,-448.5 665.777,-448.5"/>
<text text-anchor="middle" x="708.777" y="-455.5" font-family="Helvetica,sans-Serif" font-size="10.00">../src/receptor.h</text>
</a>
</g>
</g>
<!-- Node1&#45;&gt;Node27 -->
<g id="edge48" class="edge"><title>Node1&#45;&gt;Node27</title>
<path fill="none" stroke="midnightblue" d="M566.556,-504.444C595.11,-495.32 640.51,-480.813 672.314,-470.651"/>
<polygon fill="midnightblue" stroke="midnightblue" points="673.664,-473.894 682.124,-467.516 671.533,-467.226 673.664,-473.894"/>
</g>
<!-- Node28 -->
<g id="node28" class="node"><title>Node28</title>
<g id="a_node28"><a xlink:href="def_8h.html" target="_top" xlink:title="header file for symbol and structure definition functions ">
<polygon fill="white" stroke="black" points="847.777,-392.5 847.777,-411.5 885.777,-411.5 885.777,-392.5 847.777,-392.5"/>
<text text-anchor="middle" x="866.777" y="-399.5" font-family="Helvetica,sans-Serif" font-size="10.00">def.h</text>
</a>
</g>
</g>
<!-- Node1&#45;&gt;Node28 -->
<g id="edge60" class="edge"><title>Node1&#45;&gt;Node28</title>
<path fill="none" stroke="midnightblue" d="M593.509,-507.382C639.21,-501.364 705.954,-489.61 760.777,-468 793.317,-455.174 827.128,-432.546 847.566,-417.662"/>
<polygon fill="midnightblue" stroke="midnightblue" points="849.767,-420.387 855.714,-411.619 845.597,-414.765 849.767,-420.387"/>
</g>
<!-- Node33 -->
<g id="node33" class="node"><title>Node33</title>
<g id="a_node33"><a xlink:href="semtrex_8h.html" target="_top" xlink:title="Semantic tree regular expression header file. ">
<polygon fill="white" stroke="black" points="496.777,-448.5 496.777,-467.5 582.777,-467.5 582.777,-448.5 496.777,-448.5"/>
<text text-anchor="middle" x="539.777" y="-455.5" font-family="Helvetica,sans-Serif" font-size="10.00">../src/semtrex.h</text>
</a>
</g>
</g>
<!-- Node1&#45;&gt;Node33 -->
<g id="edge61" class="edge"><title>Node1&#45;&gt;Node33</title>
<path fill="none" stroke="midnightblue" d="M539.777,-504.083C539.777,-497.006 539.777,-486.861 539.777,-477.986"/>
<polygon fill="midnightblue" stroke="midnightblue" points="543.277,-477.751 539.777,-467.751 536.277,-477.751 543.277,-477.751"/>
</g>
<!-- Node34 -->
<g id="node34" class="node"><title>Node34</title>
<g id="a_node34"><a xlink:href="spec__utils_8h.html" target="_top" xlink:title="spec_utils.h">
<polygon fill="white" stroke="black" points="389.277,-448.5 389.277,-467.5 458.277,-467.5 458.277,-448.5 389.277,-448.5"/>
<text text-anchor="middle" x="423.777" y="-455.5" font-family="Helvetica,sans-Serif" font-size="10.00">spec_utils.h</text>
</a>
</g>
</g>
<!-- Node1&#45;&gt;Node34 -->
<g id="edge63" class="edge"><title>Node1&#45;&gt;Node34</title>
<path fill="none" stroke="midnightblue" d="M521.397,-504.444C502.561,-495.675 473.046,-481.935 451.398,-471.858"/>
<polygon fill="midnightblue" stroke="midnightblue" points="452.615,-468.564 442.072,-467.516 449.661,-474.91 452.615,-468.564"/>
</g>
<!-- Node3 -->
<g id="node3" class="node"><title>Node3</title>
<polygon fill="white" stroke="#bfbfbf" points="425.277,-0.5 425.277,-19.5 474.277,-19.5 474.277,-0.5 425.277,-0.5"/>
<text text-anchor="middle" x="449.777" y="-7.5" font-family="Helvetica,sans-Serif" font-size="10.00">string.h</text>
</g>
<!-- Node2&#45;&gt;Node3 -->
<g id="edge2" class="edge"><title>Node2&#45;&gt;Node3</title>
<path fill="none" stroke="midnightblue" d="M307.373,-392.164C299.064,-339.586 257.041,-69.714 267.777,-56 272.364,-50.1406 363.297,-29.6839 414.854,-18.4789"/>
<polygon fill="midnightblue" stroke="midnightblue" points="415.875,-21.839 424.909,-16.3026 414.395,-14.9975 415.875,-21.839"/>
</g>
<!-- Node4 -->
<g id="node4" class="node"><title>Node4</title>
<polygon fill="white" stroke="#bfbfbf" points="160.777,-56.5 160.777,-75.5 206.777,-75.5 206.777,-56.5 160.777,-56.5"/>
<text text-anchor="middle" x="183.777" y="-63.5" font-family="Helvetica,sans-Serif" font-size="10.00">stdio.h</text>
</g>
<!-- Node2&#45;&gt;Node4 -->
<g id="edge3" class="edge"><title>Node2&#45;&gt;Node4</title>
<path fill="none" stroke="midnightblue" d="M272.421,-393.336C224.658,-380.889 146.777,-351.343 146.777,-291 146.777,-291 146.777,-291 146.777,-177 146.777,-142.889 162.959,-105.787 173.92,-84.5681"/>
<polygon fill="midnightblue" stroke="midnightblue" points="177.137,-85.9756 178.787,-75.5101 170.971,-82.662 177.137,-85.9756"/>
</g>
<!-- Node5 -->
<g id="node5" class="node"><title>Node5</title>
<polygon fill="white" stroke="#bfbfbf" points="344.777,-0.5 344.777,-19.5 392.777,-19.5 392.777,-0.5 344.777,-0.5"/>
<text text-anchor="middle" x="368.777" y="-7.5" font-family="Helvetica,sans-Serif" font-size="10.00">stdlib.h</text>
</g>
<!-- Node2&#45;&gt;Node5 -->
<g id="edge4" class="edge"><title>Node2&#45;&gt;Node5</title>
<path fill="none" stroke="midnightblue" d="M272.652,-400.997C222.989,-399.565 132.13,-391.732 64.7773,-356 28.9631,-337 0.777256,-331.542 0.777256,-291 0.777256,-291 0.777256,-291 0.777256,-121 0.777256,-90.7745 -2.33177,-75.4821 20.7773,-56 67.6524,-16.4818 255.951,-11.2875 334.303,-10.8725"/>
<polygon fill="midnightblue" stroke="midnightblue" points="334.613,-14.3717 344.603,-10.8426 334.593,-7.37173 334.613,-14.3717"/>
</g>
<!-- Node6 -->
<g id="node6" class="node"><title>Node6</title>
<g id="a_node6"><a xlink:href="ceptr__error_8h_source.html" target="_top" xlink:title="ceptr_error.h">
<polygon fill="white" stroke="black" points="504.277,-112.5 504.277,-131.5 575.277,-131.5 575.277,-112.5 504.277,-112.5"/>
<text text-anchor="middle" x="539.777" y="-119.5" font-family="Helvetica,sans-Serif" font-size="10.00">ceptr_error.h</text>
</a>
</g>
</g>
<!-- Node2&#45;&gt;Node6 -->
<g id="edge5" class="edge"><title>Node2&#45;&gt;Node6</title>
<path fill="none" stroke="midnightblue" d="M318.516,-392.372C336.875,-375.099 374.777,-334.206 374.777,-291 374.777,-291 374.777,-291 374.777,-233 374.777,-175.346 445.383,-146.05 494.221,-132.683"/>
<polygon fill="midnightblue" stroke="midnightblue" points="495.18,-136.05 503.975,-130.143 493.415,-129.276 495.18,-136.05"/>
</g>
<!-- Node10 -->
<g id="node10" class="node"><title>Node10</title>
<g id="a_node10"><a xlink:href="semtable_8h.html" target="_top" xlink:title="header file for table for coordinating meaning across a vmhost ">
<polygon fill="white" stroke="black" points="639.277,-168.5 639.277,-187.5 704.277,-187.5 704.277,-168.5 639.277,-168.5"/>
<text text-anchor="middle" x="671.777" y="-175.5" font-family="Helvetica,sans-Serif" font-size="10.00">semtable.h</text>
</a>
</g>
</g>
<!-- Node2&#45;&gt;Node10 -->
<g id="edge10" class="edge"><title>Node2&#45;&gt;Node10</title>
<path fill="none" stroke="midnightblue" d="M331.532,-392.378C354.126,-383.676 389.648,-369.614 419.777,-356 470.493,-333.083 485.477,-330.879 531.777,-300 580.734,-267.349 631.309,-219.473 656.12,-194.877"/>
<polygon fill="midnightblue" stroke="midnightblue" points="658.642,-197.306 663.236,-187.759 653.691,-192.357 658.642,-197.306"/>
</g>
<!-- Node17 -->
<g id="node17" class="node"><title>Node17</title>
<g id="a_node17"><a xlink:href="tree_8h.html" target="_top" xlink:title="semantic trees header file ">
<polygon fill="white" stroke="black" points="621.277,-336.5 621.277,-355.5 662.277,-355.5 662.277,-336.5 621.277,-336.5"/>
<text text-anchor="middle" x="641.777" y="-343.5" font-family="Helvetica,sans-Serif" font-size="10.00">tree.h</text>
</a>
</g>
</g>
<!-- Node2&#45;&gt;Node17 -->
<g id="edge21" class="edge"><title>Node2&#45;&gt;Node17</title>
<path fill="none" stroke="midnightblue" d="M345.226,-396.711C401.6,-389.805 513.207,-375.044 606.777,-356 608.237,-355.703 609.728,-355.383 611.23,-355.048"/>
<polygon fill="midnightblue" stroke="midnightblue" points="612.218,-358.411 621.13,-352.681 610.59,-351.603 612.218,-358.411"/>
</g>
<!-- Node20 -->
<g id="node20" class="node"><title>Node20</title>
<g id="a_node20"><a xlink:href="stream_8h.html" target="_top" xlink:title="streams abstraction header file ">
<polygon fill="white" stroke="black" points="215.277,-280.5 215.277,-299.5 270.277,-299.5 270.277,-280.5 215.277,-280.5"/>
<text text-anchor="middle" x="242.777" y="-287.5" font-family="Helvetica,sans-Serif" font-size="10.00">stream.h</text>
</a>
</g>
</g>
<!-- Node2&#45;&gt;Node20 -->
<g id="edge40" class="edge"><title>Node2&#45;&gt;Node20</title>
<path fill="none" stroke="midnightblue" d="M303.598,-392.368C292.755,-374.296 267.483,-332.176 253.162,-308.307"/>
<polygon fill="midnightblue" stroke="midnightblue" points="256.078,-306.366 247.932,-299.591 250.076,-309.967 256.078,-306.366"/>
</g>
<!-- Node22 -->
<g id="node22" class="node"><title>Node22</title>
<g id="a_node22"><a xlink:href="mtree_8h.html" target="_top" xlink:title="semantic tree matrix header file `` ">
<polygon fill="white" stroke="black" points="472.777,-280.5 472.777,-299.5 522.777,-299.5 522.777,-280.5 472.777,-280.5"/>
<text text-anchor="middle" x="497.777" y="-287.5" font-family="Helvetica,sans-Serif" font-size="10.00">mtree.h</text>
</a>
</g>
</g>
<!-- Node2&#45;&gt;Node22 -->
<g id="edge34" class="edge"><title>Node2&#45;&gt;Node22</title>
<path fill="none" stroke="midnightblue" d="M324.179,-392.488C340.337,-383.523 366.439,-368.94 388.777,-356 418.805,-338.605 453.142,-318.011 475.121,-304.738"/>
<polygon fill="midnightblue" stroke="midnightblue" points="476.989,-307.698 483.735,-299.529 473.367,-301.709 476.989,-307.698"/>
</g>
<!-- Node23 -->
<g id="node23" class="node"><title>Node23</title>
<g id="a_node23"><a xlink:href="util_8h.html" target="_top" xlink:title="util.h">
<polygon fill="white" stroke="black" points="42.7773,-112.5 42.7773,-131.5 80.7773,-131.5 80.7773,-112.5 42.7773,-112.5"/>
<text text-anchor="middle" x="61.7773" y="-119.5" font-family="Helvetica,sans-Serif" font-size="10.00">util.h</text>
</a>
</g>
</g>
<!-- Node2&#45;&gt;Node23 -->
<g id="edge41" class="edge"><title>Node2&#45;&gt;Node23</title>
<path fill="none" stroke="midnightblue" d="M272.482,-397.919C231.916,-393.303 165.187,-382.143 113.777,-356 74.4592,-336.006 38.7773,-335.11 38.7773,-291 38.7773,-291 38.7773,-291 38.7773,-233 38.7773,-200.12 48.7448,-162.86 55.5564,-141.235"/>
<polygon fill="midnightblue" stroke="midnightblue" points="58.8896,-142.303 58.6754,-131.711 52.2371,-140.125 58.8896,-142.303"/>
</g>
<!-- Node26 -->
<g id="node26" class="node"><title>Node26</title>
<g id="a_node26"><a xlink:href="debug_8h.html" target="_top" xlink:title="debug.h">
<polygon fill="white" stroke="black" points="67.2773,-224.5 67.2773,-243.5 118.277,-243.5 118.277,-224.5 67.2773,-224.5"/>
<text text-anchor="middle" x="92.7773" y="-231.5" font-family="Helvetica,sans-Serif" font-size="10.00">debug.h</text>
</a>
</g>
</g>
<!-- Node2&#45;&gt;Node26 -->
<g id="edge46" class="edge"><title>Node2&#45;&gt;Node26</title>
<path fill="none" stroke="midnightblue" d="M272.649,-401.457C233.314,-399.988 170.936,-391.614 132.777,-356 103.893,-329.042 95.8424,-280.817 93.6145,-254.112"/>
<polygon fill="midnightblue" stroke="midnightblue" points="97.087,-253.566 92.9593,-243.809 90.1011,-254.011 97.087,-253.566"/>
</g>
<!-- Node6&#45;&gt;Node4 -->
<g id="edge6" class="edge"><title>Node6&#45;&gt;Node4</title>
<path fill="none" stroke="midnightblue" d="M504.013,-115.575C434.89,-105.09 283.876,-82.1836 216.9,-72.0243"/>
<polygon fill="midnightblue" stroke="midnightblue" points="217.31,-68.5464 206.898,-70.5071 216.26,-75.4673 217.31,-68.5464"/>
</g>
<!-- Node7 -->
<g id="node7" class="node"><title>Node7</title>
<polygon fill="white" stroke="#bfbfbf" points="496.777,-56.5 496.777,-75.5 546.777,-75.5 546.777,-56.5 496.777,-56.5"/>
<text text-anchor="middle" x="521.777" y="-63.5" font-family="Helvetica,sans-Serif" font-size="10.00">signal.h</text>
</g>
<!-- Node6&#45;&gt;Node7 -->
<g id="edge7" class="edge"><title>Node6&#45;&gt;Node7</title>
<path fill="none" stroke="midnightblue" d="M536.805,-112.083C534.393,-104.849 530.913,-94.4087 527.91,-85.3968"/>
<polygon fill="midnightblue" stroke="midnightblue" points="531.177,-84.1311 524.694,-75.7511 524.536,-86.3447 531.177,-84.1311"/>
</g>
<!-- Node8 -->
<g id="node8" class="node"><title>Node8</title>
<polygon fill="white" stroke="#bfbfbf" points="564.777,-56.5 564.777,-75.5 616.777,-75.5 616.777,-56.5 564.777,-56.5"/>
<text text-anchor="middle" x="590.777" y="-63.5" font-family="Helvetica,sans-Serif" font-size="10.00">assert.h</text>
</g>
<!-- Node6&#45;&gt;Node8 -->
<g id="edge8" class="edge"><title>Node6&#45;&gt;Node8</title>
<path fill="none" stroke="midnightblue" d="M548.199,-112.083C555.625,-104.22 566.629,-92.5688 575.589,-83.0813"/>
<polygon fill="midnightblue" stroke="midnightblue" points="578.191,-85.4244 582.512,-75.7511 573.102,-80.618 578.191,-85.4244"/>
</g>
<!-- Node9 -->
<g id="node9" class="node"><title>Node9</title>
<polygon fill="white" stroke="#bfbfbf" points="634.777,-56.5 634.777,-75.5 688.777,-75.5 688.777,-56.5 634.777,-56.5"/>
<text text-anchor="middle" x="661.777" y="-63.5" font-family="Helvetica,sans-Serif" font-size="10.00">setjmp.h</text>
</g>
<!-- Node6&#45;&gt;Node9 -->
<g id="edge9" class="edge"><title>Node6&#45;&gt;Node9</title>
<path fill="none" stroke="midnightblue" d="M559.109,-112.444C579.097,-103.596 610.52,-89.6875 633.341,-79.5865"/>
<polygon fill="midnightblue" stroke="midnightblue" points="634.809,-82.7645 642.536,-75.5164 631.976,-76.3635 634.809,-82.7645"/>
</g>
<!-- Node10&#45;&gt;Node6 -->
<g id="edge20" class="edge"><title>Node10&#45;&gt;Node6</title>
<path fill="none" stroke="midnightblue" d="M650.861,-168.444C629.041,-159.517 594.627,-145.439 569.885,-135.317"/>
<polygon fill="midnightblue" stroke="midnightblue" points="571.176,-132.063 560.595,-131.516 568.525,-138.542 571.176,-132.063"/>
</g>
<!-- Node11 -->
<g id="node11" class="node"><title>Node11</title>
<g id="a_node11"><a xlink:href="ceptr__types_8h_source.html" target="_top" xlink:title="ceptr_types.h">
<polygon fill="white" stroke="black" points="694.777,-112.5 694.777,-131.5 770.777,-131.5 770.777,-112.5 694.777,-112.5"/>
<text text-anchor="middle" x="732.777" y="-119.5" font-family="Helvetica,sans-Serif" font-size="10.00">ceptr_types.h</text>
</a>
</g>
</g>
<!-- Node10&#45;&gt;Node11 -->
<g id="edge11" class="edge"><title>Node10&#45;&gt;Node11</title>
<path fill="none" stroke="midnightblue" d="M681.578,-168.324C690.595,-160.341 704.183,-148.313 715.095,-138.653"/>
<polygon fill="midnightblue" stroke="midnightblue" points="717.631,-141.083 722.798,-131.834 712.991,-135.842 717.631,-141.083"/>
</g>
<!-- Node11&#45;&gt;Node4 -->
<g id="edge13" class="edge"><title>Node11&#45;&gt;Node4</title>
<path fill="none" stroke="midnightblue" d="M694.488,-117.429C614.965,-109.982 426.127,-92.1447 267.777,-76 251.061,-74.2957 232.484,-72.3144 217.059,-70.6453"/>
<polygon fill="midnightblue" stroke="midnightblue" points="217.265,-67.1472 206.946,-69.5469 216.509,-74.1063 217.265,-67.1472"/>
</g>
<!-- Node12 -->
<g id="node12" class="node"><title>Node12</title>
<polygon fill="white" stroke="#bfbfbf" points="277.277,-56.5 277.277,-75.5 326.277,-75.5 326.277,-56.5 277.277,-56.5"/>
<text text-anchor="middle" x="301.777" y="-63.5" font-family="Helvetica,sans-Serif" font-size="10.00">stdint.h</text>
</g>
<!-- Node11&#45;&gt;Node12 -->
<g id="edge12" class="edge"><title>Node11&#45;&gt;Node12</title>
<path fill="none" stroke="midnightblue" d="M694.529,-116.208C611.522,-105.808 415.939,-81.3034 336.364,-71.3334"/>
<polygon fill="midnightblue" stroke="midnightblue" points="336.725,-67.8514 326.368,-70.081 335.855,-74.7971 336.725,-67.8514"/>
</g>
<!-- Node13 -->
<g id="node13" class="node"><title>Node13</title>
<g id="a_node13"><a xlink:href="uthash_8h_source.html" target="_top" xlink:title="uthash.h">
<polygon fill="white" stroke="black" points="780.777,-56.5 780.777,-75.5 834.777,-75.5 834.777,-56.5 780.777,-56.5"/>
<text text-anchor="middle" x="807.777" y="-63.5" font-family="Helvetica,sans-Serif" font-size="10.00">uthash.h</text>
</a>
</g>
</g>
<!-- Node11&#45;&gt;Node13 -->
<g id="edge14" class="edge"><title>Node11&#45;&gt;Node13</title>
<path fill="none" stroke="midnightblue" d="M744.827,-112.324C756.24,-104.107 773.608,-91.6017 787.212,-81.8069"/>
<polygon fill="midnightblue" stroke="midnightblue" points="789.438,-84.5174 795.508,-75.8339 785.348,-78.8366 789.438,-84.5174"/>
</g>
<!-- Node16 -->
<g id="node16" class="node"><title>Node16</title>
<polygon fill="white" stroke="#bfbfbf" points="706.777,-56.5 706.777,-75.5 762.777,-75.5 762.777,-56.5 706.777,-56.5"/>
<text text-anchor="middle" x="734.777" y="-63.5" font-family="Helvetica,sans-Serif" font-size="10.00">stdbool.h</text>
</g>
<!-- Node11&#45;&gt;Node16 -->
<g id="edge19" class="edge"><title>Node11&#45;&gt;Node16</title>
<path fill="none" stroke="midnightblue" d="M733.108,-112.083C733.37,-105.006 733.745,-94.8611 734.074,-85.9865"/>
<polygon fill="midnightblue" stroke="midnightblue" points="737.581,-85.8738 734.453,-75.7511 730.585,-85.6147 737.581,-85.8738"/>
</g>
<!-- Node13&#45;&gt;Node3 -->
<g id="edge15" class="edge"><title>Node13&#45;&gt;Node3</title>
<path fill="none" stroke="midnightblue" d="M780.719,-57.9084C777.712,-57.218 774.686,-56.5653 771.777,-56 668.019,-35.839 543.767,-21.0951 484.518,-14.6306"/>
<polygon fill="midnightblue" stroke="midnightblue" points="484.885,-11.15 474.567,-13.5563 484.134,-18.1095 484.885,-11.15"/>
</g>
<!-- Node13&#45;&gt;Node5 -->
<g id="edge17" class="edge"><title>Node13&#45;&gt;Node5</title>
<path fill="none" stroke="midnightblue" d="M780.74,-57.7964C777.729,-57.1269 774.697,-56.5098 771.777,-56 615.119,-28.6438 573.138,-42.9769 415.777,-20 411.615,-19.3923 407.262,-18.673 402.955,-17.91"/>
<polygon fill="midnightblue" stroke="midnightblue" points="403.572,-14.465 393.102,-16.0823 402.296,-21.3476 403.572,-14.465"/>
</g>
<!-- Node14 -->
<g id="node14" class="node"><title>Node14</title>
<polygon fill="white" stroke="#bfbfbf" points="744.777,-0.5 744.777,-19.5 796.777,-19.5 796.777,-0.5 744.777,-0.5"/>
<text text-anchor="middle" x="770.777" y="-7.5" font-family="Helvetica,sans-Serif" font-size="10.00">stddef.h</text>
</g>
<!-- Node13&#45;&gt;Node14 -->
<g id="edge16" class="edge"><title>Node13&#45;&gt;Node14</title>
<path fill="none" stroke="midnightblue" d="M801.667,-56.083C796.495,-48.5341 788.931,-37.4948 782.583,-28.2298"/>
<polygon fill="midnightblue" stroke="midnightblue" points="785.313,-26.0221 776.773,-19.7511 779.538,-29.9787 785.313,-26.0221"/>
</g>
<!-- Node15 -->
<g id="node15" class="node"><title>Node15</title>
<polygon fill="white" stroke="#bfbfbf" points="815.277,-0.5 815.277,-19.5 874.277,-19.5 874.277,-0.5 815.277,-0.5"/>
<text text-anchor="middle" x="844.777" y="-7.5" font-family="Helvetica,sans-Serif" font-size="10.00">inttypes.h</text>
</g>
<!-- Node13&#45;&gt;Node15 -->
<g id="edge18" class="edge"><title>Node13&#45;&gt;Node15</title>
<path fill="none" stroke="midnightblue" d="M813.887,-56.083C819.059,-48.5341 826.623,-37.4948 832.972,-28.2298"/>
<polygon fill="midnightblue" stroke="midnightblue" points="836.016,-29.9787 838.781,-19.7511 830.242,-26.0221 836.016,-29.9787"/>
</g>
<!-- Node17&#45;&gt;Node3 -->
<g id="edge22" class="edge"><title>Node17&#45;&gt;Node3</title>
<path fill="none" stroke="midnightblue" d="M621.263,-342.841C578.831,-337.917 483.711,-324.36 463.777,-300 397.678,-219.222 429.656,-79.1814 444.046,-29.2965"/>
<polygon fill="midnightblue" stroke="midnightblue" points="447.437,-30.1738 446.959,-19.5897 440.732,-28.1616 447.437,-30.1738"/>
</g>
<!-- Node17&#45;&gt;Node5 -->
<g id="edge23" class="edge"><title>Node17&#45;&gt;Node5</title>
<path fill="none" stroke="midnightblue" d="M621.19,-345.636C582.817,-345.759 499.481,-340.894 446.777,-300 360.891,-233.359 363.283,-82.6685 367.031,-29.7774"/>
<polygon fill="midnightblue" stroke="midnightblue" points="370.542,-29.7854 367.868,-19.5338 363.566,-29.2159 370.542,-29.7854"/>
</g>
<!-- Node17&#45;&gt;Node6 -->
<g id="edge24" class="edge"><title>Node17&#45;&gt;Node6</title>
<path fill="none" stroke="midnightblue" d="M636.983,-336.472C631.994,-327.494 624.049,-312.9 617.777,-300 589.944,-242.748 560.561,-173.229 547.185,-141.005"/>
<polygon fill="midnightblue" stroke="midnightblue" points="550.343,-139.482 543.289,-131.578 543.874,-142.156 550.343,-139.482"/>
</g>
<!-- Node17&#45;&gt;Node11 -->
<g id="edge30" class="edge"><title>Node17&#45;&gt;Node11</title>
<path fill="none" stroke="midnightblue" d="M662.476,-338.26C680.697,-331.341 706.754,-318.894 722.777,-300 761.218,-254.672 747.356,-177.018 738.224,-141.595"/>
<polygon fill="midnightblue" stroke="midnightblue" points="741.523,-140.388 735.498,-131.673 734.773,-142.243 741.523,-140.388"/>
</g>
<!-- Node18 -->
<g id="node18" class="node"><title>Node18</title>
<g id="a_node18"><a xlink:href="sys__defs_8h.html" target="_top" xlink:title="Defines types and vars for system defined semantics. ">
<polygon fill="white" stroke="black" points="669.277,-224.5 669.277,-243.5 734.277,-243.5 734.277,-224.5 669.277,-224.5"/>
<text text-anchor="middle" x="701.777" y="-231.5" font-family="Helvetica,sans-Serif" font-size="10.00">sys_defs.h</text>
</a>
</g>
</g>
<!-- Node17&#45;&gt;Node18 -->
<g id="edge25" class="edge"><title>Node17&#45;&gt;Node18</title>
<path fill="none" stroke="midnightblue" d="M662.32,-336.814C677.374,-329.594 696.7,-317.479 705.777,-300 713.26,-285.591 711.089,-266.893 707.74,-253.253"/>
<polygon fill="midnightblue" stroke="midnightblue" points="711.086,-252.223 704.964,-243.576 704.358,-254.154 711.086,-252.223"/>
</g>
<!-- Node19 -->
<g id="node19" class="node"><title>Node19</title>
<g id="a_node19"><a xlink:href="base__defs_8h.html" target="_top" xlink:title="auto&#45;generated system definitions ">
<polygon fill="white" stroke="black" points="626.777,-280.5 626.777,-299.5 696.777,-299.5 696.777,-280.5 626.777,-280.5"/>
<text text-anchor="middle" x="661.777" y="-287.5" font-family="Helvetica,sans-Serif" font-size="10.00">base_defs.h</text>
</a>
</g>
</g>
<!-- Node17&#45;&gt;Node19 -->
<g id="edge28" class="edge"><title>Node17&#45;&gt;Node19</title>
<path fill="none" stroke="midnightblue" d="M645.08,-336.083C647.759,-328.849 651.626,-318.409 654.964,-309.397"/>
<polygon fill="midnightblue" stroke="midnightblue" points="658.345,-310.344 658.536,-299.751 651.781,-307.913 658.345,-310.344"/>
</g>
<!-- Node17&#45;&gt;Node20 -->
<g id="edge31" class="edge"><title>Node17&#45;&gt;Node20</title>
<path fill="none" stroke="midnightblue" d="M621.165,-342.21C557.427,-333.584 362.858,-307.251 280.372,-296.088"/>
<polygon fill="midnightblue" stroke="midnightblue" points="280.802,-292.614 270.423,-294.741 279.863,-299.551 280.802,-292.614"/>
</g>
<!-- Node18&#45;&gt;Node10 -->
<g id="edge27" class="edge"><title>Node18&#45;&gt;Node10</title>
<path fill="none" stroke="midnightblue" d="M696.823,-224.083C692.673,-216.613 686.624,-205.724 681.511,-196.52"/>
<polygon fill="midnightblue" stroke="midnightblue" points="684.555,-194.793 676.639,-187.751 678.436,-198.192 684.555,-194.793"/>
</g>
<!-- Node18&#45;&gt;Node11 -->
<g id="edge26" class="edge"><title>Node18&#45;&gt;Node11</title>
<path fill="none" stroke="midnightblue" d="M704.21,-224.368C709.235,-206.537 720.858,-165.295 727.628,-141.272"/>
<polygon fill="midnightblue" stroke="midnightblue" points="731.012,-142.166 730.356,-131.591 724.275,-140.267 731.012,-142.166"/>
</g>
<!-- Node19&#45;&gt;Node18 -->
<g id="edge29" class="edge"><title>Node19&#45;&gt;Node18</title>
<path fill="none" stroke="midnightblue" d="M668.382,-280.083C674.032,-272.455 682.322,-261.264 689.229,-251.941"/>
<polygon fill="midnightblue" stroke="midnightblue" points="692.155,-253.87 695.295,-243.751 686.53,-249.703 692.155,-253.87"/>
</g>
<!-- Node20&#45;&gt;Node4 -->
<g id="edge32" class="edge"><title>Node20&#45;&gt;Node4</title>
<path fill="none" stroke="midnightblue" d="M232.182,-280.205C222.986,-271.903 210.172,-258.58 203.777,-244 180.223,-190.292 180.591,-119.026 182.364,-85.6873"/>
<polygon fill="midnightblue" stroke="midnightblue" points="185.866,-85.7715 183.013,-75.568 178.88,-85.3234 185.866,-85.7715"/>
</g>
<!-- Node21 -->
<g id="node21" class="node"><title>Node21</title>
<polygon fill="white" stroke="#bfbfbf" points="213.277,-224.5 213.277,-243.5 270.277,-243.5 270.277,-224.5 213.277,-224.5"/>
<text text-anchor="middle" x="241.777" y="-231.5" font-family="Helvetica,sans-Serif" font-size="10.00">pthread.h</text>
</g>
<!-- Node20&#45;&gt;Node21 -->
<g id="edge33" class="edge"><title>Node20&#45;&gt;Node21</title>
<path fill="none" stroke="midnightblue" d="M242.612,-280.083C242.481,-273.006 242.293,-262.861 242.129,-253.986"/>
<polygon fill="midnightblue" stroke="midnightblue" points="245.624,-253.685 241.939,-243.751 238.625,-253.814 245.624,-253.685"/>
</g>
<!-- Node22&#45;&gt;Node3 -->
<g id="edge35" class="edge"><title>Node22&#45;&gt;Node3</title>
<path fill="none" stroke="midnightblue" d="M496.288,-280.375C489.611,-241.701 462.346,-83.7937 452.965,-29.4651"/>
<polygon fill="midnightblue" stroke="midnightblue" points="456.4,-28.7829 451.249,-19.5243 449.502,-29.974 456.4,-28.7829"/>
</g>
<!-- Node22&#45;&gt;Node5 -->
<g id="edge36" class="edge"><title>Node22&#45;&gt;Node5</title>
<path fill="none" stroke="midnightblue" d="M493.775,-280.375C475.754,-241.54 401.942,-82.4702 377.032,-28.7886"/>
<polygon fill="midnightblue" stroke="midnightblue" points="380.117,-27.122 372.733,-19.5243 373.767,-30.0685 380.117,-27.122"/>
</g>
<!-- Node22&#45;&gt;Node6 -->
<g id="edge37" class="edge"><title>Node22&#45;&gt;Node6</title>
<path fill="none" stroke="midnightblue" d="M500.035,-280.075C506.647,-253.945 526.061,-177.211 535.077,-141.577"/>
<polygon fill="midnightblue" stroke="midnightblue" points="538.55,-142.121 537.609,-131.568 531.763,-140.404 538.55,-142.121"/>
</g>
<!-- Node22&#45;&gt;Node11 -->
<g id="edge39" class="edge"><title>Node22&#45;&gt;Node11</title>
<path fill="none" stroke="midnightblue" d="M505.324,-280.333C524.362,-258.889 576.623,-202.592 629.777,-168 650.861,-154.279 676.827,-142.967 697.414,-135.116"/>
<polygon fill="midnightblue" stroke="midnightblue" points="698.884,-138.304 707.042,-131.544 696.449,-131.74 698.884,-138.304"/>
</g>
<!-- Node22&#45;&gt;Node18 -->
<g id="edge38" class="edge"><title>Node22&#45;&gt;Node18</title>
<path fill="none" stroke="midnightblue" d="M522.792,-282.379C556.898,-273.35 618.461,-257.054 659.728,-246.131"/>
<polygon fill="midnightblue" stroke="midnightblue" points="660.724,-249.488 669.495,-243.545 658.932,-242.721 660.724,-249.488"/>
</g>
<!-- Node23&#45;&gt;Node4 -->
<g id="edge43" class="edge"><title>Node23&#45;&gt;Node4</title>
<path fill="none" stroke="midnightblue" d="M80.8398,-112.562C100.777,-103.738 132.299,-89.7853 155.212,-79.6436"/>
<polygon fill="midnightblue" stroke="midnightblue" points="156.718,-82.8045 164.446,-75.5565 153.885,-76.4035 156.718,-82.8045"/>
</g>
<!-- Node23&#45;&gt;Node12 -->
<g id="edge45" class="edge"><title>Node23&#45;&gt;Node12</title>
<path fill="none" stroke="midnightblue" d="M81.0118,-116.672C121.492,-107.564 215.964,-86.308 267.221,-74.7752"/>
<polygon fill="midnightblue" stroke="midnightblue" points="268.18,-78.147 277.168,-72.5372 266.643,-71.3177 268.18,-78.147"/>
</g>
<!-- Node24 -->
<g id="node24" class="node"><title>Node24</title>
<polygon fill="white" stroke="#bfbfbf" points="30.2773,-56.5 30.2773,-75.5 79.2773,-75.5 79.2773,-56.5 30.2773,-56.5"/>
<text text-anchor="middle" x="54.7773" y="-63.5" font-family="Helvetica,sans-Serif" font-size="10.00">ctype.h</text>
</g>
<!-- Node23&#45;&gt;Node24 -->
<g id="edge42" class="edge"><title>Node23&#45;&gt;Node24</title>
<path fill="none" stroke="midnightblue" d="M60.6213,-112.083C59.6937,-104.927 58.3596,-94.6353 57.2002,-85.6911"/>
<polygon fill="midnightblue" stroke="midnightblue" points="60.6682,-85.2181 55.9117,-75.7511 53.7263,-86.1181 60.6682,-85.2181"/>
</g>
<!-- Node25 -->
<g id="node25" class="node"><title>Node25</title>
<polygon fill="white" stroke="#bfbfbf" points="97.7773,-56.5 97.7773,-75.5 141.777,-75.5 141.777,-56.5 97.7773,-56.5"/>
<text text-anchor="middle" x="119.777" y="-63.5" font-family="Helvetica,sans-Serif" font-size="10.00">time.h</text>
</g>
<!-- Node23&#45;&gt;Node25 -->
<g id="edge44" class="edge"><title>Node23&#45;&gt;Node25</title>
<path fill="none" stroke="midnightblue" d="M71.096,-112.324C79.6698,-104.341 92.5895,-92.3128 102.965,-82.6529"/>
<polygon fill="midnightblue" stroke="midnightblue" points="105.355,-85.2098 110.289,-75.8339 100.585,-80.0865 105.355,-85.2098"/>
</g>
<!-- Node26&#45;&gt;Node4 -->
<g id="edge47" class="edge"><title>Node26&#45;&gt;Node4</title>
<path fill="none" stroke="midnightblue" d="M94.0287,-224.408C97.3786,-203.604 108.03,-149.481 132.777,-112 140.605,-100.144 152.339,-89.493 162.58,-81.5327"/>
<polygon fill="midnightblue" stroke="midnightblue" points="164.758,-84.2751 170.712,-75.5115 160.592,-78.6494 164.758,-84.2751"/>
</g>
<!-- Node27&#45;&gt;Node10 -->
<g id="edge49" class="edge"><title>Node27&#45;&gt;Node10</title>
<path fill="none" stroke="midnightblue" d="M716.813,-448.321C724.432,-439.687 735.732,-425.774 742.777,-412 756.541,-385.09 762.777,-377.225 762.777,-347 762.777,-347 762.777,-347 762.777,-289 762.777,-258.775 761.122,-248.022 742.777,-224 732.242,-210.204 716.169,-199.514 701.979,-192.021"/>
<polygon fill="midnightblue" stroke="midnightblue" points="703.515,-188.876 693.003,-187.559 700.399,-195.144 703.515,-188.876"/>
</g>
<!-- Node27&#45;&gt;Node17 -->
<g id="edge50" class="edge"><title>Node27&#45;&gt;Node17</title>
<path fill="none" stroke="midnightblue" d="M665.741,-451.558C641.117,-445.994 612.15,-434.743 596.777,-412 585.062,-394.667 603.252,-374.93 619.888,-361.798"/>
<polygon fill="midnightblue" stroke="midnightblue" points="622.328,-364.345 628.279,-355.58 618.161,-358.721 622.328,-364.345"/>
</g>
<!-- Node27&#45;&gt;Node28 -->
<g id="edge51" class="edge"><title>Node27&#45;&gt;Node28</title>
<path fill="none" stroke="midnightblue" d="M733.813,-448.444C761.99,-438.813 807.712,-423.187 837.515,-413.001"/>
<polygon fill="midnightblue" stroke="midnightblue" points="839.007,-416.19 847.338,-409.644 836.743,-409.566 839.007,-416.19"/>
</g>
<!-- Node30 -->
<g id="node30" class="node"><title>Node30</title>
<g id="a_node30"><a xlink:href="label_8h.html" target="_top" xlink:title="Label tables map human readable text strings to parts of semantic trees. ">
<polygon fill="white" stroke="black" points="829.277,-168.5 829.277,-187.5 874.277,-187.5 874.277,-168.5 829.277,-168.5"/>
<text text-anchor="middle" x="851.777" y="-175.5" font-family="Helvetica,sans-Serif" font-size="10.00">label.h</text>
</a>
</g>
</g>
<!-- Node27&#45;&gt;Node30 -->
<g id="edge54" class="edge"><title>Node27&#45;&gt;Node30</title>
<path fill="none" stroke="midnightblue" d="M722.187,-448.478C734.018,-440.36 751.011,-427.154 761.777,-412 811.932,-341.409 838.603,-239.173 847.91,-197.613"/>
<polygon fill="midnightblue" stroke="midnightblue" points="851.342,-198.297 850.036,-187.783 844.501,-196.817 851.342,-198.297"/>
</g>
<!-- Node31 -->
<g id="node31" class="node"><title>Node31</title>
<g id="a_node31"><a xlink:href="process_8h.html" target="_top" xlink:title="processing header files ">
<polygon fill="white" stroke="black" points="606.277,-392.5 606.277,-411.5 665.277,-411.5 665.277,-392.5 606.277,-392.5"/>
<text text-anchor="middle" x="635.777" y="-399.5" font-family="Helvetica,sans-Serif" font-size="10.00">process.h</text>
</a>
</g>
</g>
<!-- Node27&#45;&gt;Node31 -->
<g id="edge56" class="edge"><title>Node27&#45;&gt;Node31</title>
<path fill="none" stroke="midnightblue" d="M697.049,-448.324C685.94,-440.107 669.035,-427.602 655.794,-417.807"/>
<polygon fill="midnightblue" stroke="midnightblue" points="657.84,-414.967 647.719,-411.834 653.677,-420.595 657.84,-414.967"/>
</g>
<!-- Node32 -->
<g id="node32" class="node"><title>Node32</title>
<g id="a_node32"><a xlink:href="scape_8h.html" target="_top" xlink:title="scape header files ">
<polygon fill="white" stroke="black" points="683.277,-392.5 683.277,-411.5 734.277,-411.5 734.277,-392.5 683.277,-392.5"/>
<text text-anchor="middle" x="708.777" y="-399.5" font-family="Helvetica,sans-Serif" font-size="10.00">scape.h</text>
</a>
</g>
</g>
<!-- Node27&#45;&gt;Node32 -->
<g id="edge58" class="edge"><title>Node27&#45;&gt;Node32</title>
<path fill="none" stroke="midnightblue" d="M708.777,-448.083C708.777,-441.006 708.777,-430.861 708.777,-421.986"/>
<polygon fill="midnightblue" stroke="midnightblue" points="712.277,-421.751 708.777,-411.751 705.277,-421.751 712.277,-421.751"/>
</g>
<!-- Node28&#45;&gt;Node17 -->
<g id="edge52" class="edge"><title>Node28&#45;&gt;Node17</title>
<path fill="none" stroke="midnightblue" d="M847.594,-396.396C808.568,-387.03 719.645,-365.688 672.478,-354.368"/>
<polygon fill="midnightblue" stroke="midnightblue" points="673.073,-350.912 662.532,-351.981 671.439,-357.718 673.073,-350.912"/>
</g>
<!-- Node29 -->
<g id="node29" class="node"><title>Node29</title>
<polygon fill="white" stroke="#bfbfbf" points="847.777,-336.5 847.777,-355.5 899.777,-355.5 899.777,-336.5 847.777,-336.5"/>
<text text-anchor="middle" x="873.777" y="-343.5" font-family="Helvetica,sans-Serif" font-size="10.00">stdarg.h</text>
</g>
<!-- Node28&#45;&gt;Node29 -->
<g id="edge53" class="edge"><title>Node28&#45;&gt;Node29</title>
<path fill="none" stroke="midnightblue" d="M867.933,-392.083C868.861,-384.927 870.195,-374.635 871.354,-365.691"/>
<polygon fill="midnightblue" stroke="midnightblue" points="874.828,-366.118 872.643,-355.751 867.886,-365.218 874.828,-366.118"/>
</g>
<!-- Node30&#45;&gt;Node11 -->
<g id="edge55" class="edge"><title>Node30&#45;&gt;Node11</title>
<path fill="none" stroke="midnightblue" d="M832.921,-168.444C813.511,-159.636 783.047,-145.812 760.813,-135.722"/>
<polygon fill="midnightblue" stroke="midnightblue" points="762.098,-132.462 751.545,-131.516 759.205,-138.836 762.098,-132.462"/>
</g>
<!-- Node31&#45;&gt;Node17 -->
<g id="edge57" class="edge"><title>Node31&#45;&gt;Node17</title>
<path fill="none" stroke="midnightblue" d="M636.768,-392.083C637.563,-384.927 638.707,-374.635 639.7,-365.691"/>
<polygon fill="midnightblue" stroke="midnightblue" points="643.179,-366.076 640.805,-355.751 636.222,-365.303 643.179,-366.076"/>
</g>
<!-- Node32&#45;&gt;Node17 -->
<g id="edge59" class="edge"><title>Node32&#45;&gt;Node17</title>
<path fill="none" stroke="midnightblue" d="M698.013,-392.324C688.011,-384.263 672.891,-372.077 660.847,-362.369"/>
<polygon fill="midnightblue" stroke="midnightblue" points="662.72,-359.384 652.738,-355.834 658.327,-364.834 662.72,-359.384"/>
</g>
<!-- Node33&#45;&gt;Node17 -->
<g id="edge62" class="edge"><title>Node33&#45;&gt;Node17</title>
<path fill="none" stroke="midnightblue" d="M545.73,-448.143C554.613,-435.2 572.186,-410.636 589.777,-392 599.893,-381.283 612.344,-370.439 622.525,-362.082"/>
<polygon fill="midnightblue" stroke="midnightblue" points="624.851,-364.703 630.443,-355.704 620.46,-359.251 624.851,-364.703"/>
</g>
<!-- Node34&#45;&gt;Node2 -->
<g id="edge64" class="edge"><title>Node34&#45;&gt;Node2</title>
<path fill="none" stroke="midnightblue" d="M405.555,-448.444C386.882,-439.675 357.621,-425.935 336.16,-415.858"/>
<polygon fill="midnightblue" stroke="midnightblue" points="337.454,-412.599 326.914,-411.516 334.478,-418.935 337.454,-412.599"/>
</g>
</g>
</svg>
        <g id="navigator" transform="translate(0 0)" fill="#404254">
                <rect fill="#f2f5e9" fill-opacity="0.5" stroke="#606060" stroke-width=".5" x="0" y="0" width="60" height="60"/>
                <use id="zoomplus" xlink:href="#zoomPlus" x="17" y="9" onmousedown="handleZoom(evt,'in')"/>
                <use id="zoomminus" xlink:href="#zoomMin" x="42" y="9" onmousedown="handleZoom(evt,'out')"/>
                <use id="reset" xlink:href="#resetDef" x="30" y="36" onmousedown="handleReset()"/>
                <g id="arrowUp" xlink:href="#dirArrow" transform="translate(30 24)" onmousedown="handlePan(0,-1)">
                  <use xlink:href="#rim" fill="#404040">
                        <set attributeName="fill" to="#808080" begin="arrowUp.mouseover" end="arrowUp.mouseout"/>
                  </use>
                  <path fill="none" stroke="white" stroke-width="1.5" d="M0,-3.0v7 M-2.5,-0.5L0,-3.0L2.5,-0.5"/>
                </g>
                <g id="arrowRight" xlink:href="#dirArrow" transform="rotate(90) translate(36 -43)" onmousedown="handlePan(1,0)">
                  <use xlink:href="#rim" fill="#404040">
                        <set attributeName="fill" to="#808080" begin="arrowRight.mouseover" end="arrowRight.mouseout"/>
                  </use>
                  <path fill="none" stroke="white" stroke-width="1.5" d="M0,-3.0v7 M-2.5,-0.5L0,-3.0L2.5,-0.5"/>
                </g>
                <g id="arrowDown" xlink:href="#dirArrow" transform="rotate(180) translate(-30 -48)" onmousedown="handlePan(0,1)">
                  <use xlink:href="#rim" fill="#404040">
                        <set attributeName="fill" to="#808080" begin="arrowDown.mouseover" end="arrowDown.mouseout"/>
                  </use>
                  <path fill="none" stroke="white" stroke-width="1.5" d="M0,-3.0v7 M-2.5,-0.5L0,-3.0L2.5,-0.5"/>
                </g>
                <g id="arrowLeft" xlink:href="#dirArrow" transform="rotate(270) translate(-36 17)" onmousedown="handlePan(-1,0)">
                  <use xlink:href="#rim" fill="#404040">
                        <set attributeName="fill" to="#808080" begin="arrowLeft.mouseover" end="arrowLeft.mouseout"/>
                  </use>
                  <path fill="none" stroke="white" stroke-width="1.5" d="M0,-3.0v7 M-2.5,-0.5L0,-3.0L2.5,-0.5"/>
                </g>
        </g>
        <svg viewBox="0 0 15 15" width="100%" height="30px" preserveAspectRatio="xMaxYMin meet">
         <g id="arrow_out" transform="scale(0.3 0.3)">
          <a xlink:href="http__example_8h__incl_org.svg" target="_base">
           <rect id="button" ry="5" rx="5" y="6" x="6" height="38" width="38"
                fill="#f2f5e9" fill-opacity="0.5" stroke="#606060" stroke-width="1.0"/>
           <path id="arrow"
             d="M 11.500037,31.436501 C 11.940474,20.09759 22.043105,11.32322 32.158766,21.979434 L 37.068811,17.246167 C 37.068811,17.246167 37.088388,32 37.088388,32 L 22.160133,31.978069 C 22.160133,31.978069 26.997745,27.140456 26.997745,27.140456 C 18.528582,18.264221 13.291696,25.230495 11.500037,31.436501 z"
             style="fill:#404040;"/>
          </a>
         </g>
        </svg>
</svg>
