<?xml version="1.0" encoding="UTF-8" standalone="no"?>
<!DOCTYPE svg PUBLIC "-//W3C//DTD SVG 1.1//EN"
 "http://www.w3.org/Graphics/SVG/1.1/DTD/svg11.dtd">
<!-- Generated by graphviz version 2.38.0 (20140413.2041)
 -->
<!-- Title: spec/http_example.h Pages: 1 -->
<svg width="472pt" height="140pt"
 viewBox="0.00 0.00 471.50 140.00" xmlns="http://www.w3.org/2000/svg" xmlns:xlink="http://www.w3.org/1999/xlink">
<g id="graph0" class="graph" transform="scale(1 1) rotate(0) translate(4 136)">
<title>spec/http_example.h</title>
<polygon fill="white" stroke="none" points="-4,4 -4,-136 467.5,-136 467.5,4 -4,4"/>
<!-- Node1 -->
<g id="node1" class="node"><title>Node1</title>
<polygon fill="#bfbfbf" stroke="black" points="167.5,-112.5 167.5,-131.5 274.5,-131.5 274.5,-112.5 167.5,-112.5"/>
<text text-anchor="middle" x="221" y="-119.5" font-family="Helvetica,sans-Serif" font-size="10.00">spec/http_example.h</text>
</g>
<!-- Node2 -->
<g id="node2" class="node"><title>Node2</title>
<g id="a_node2"><a xlink:href="tree__spec_8h.html" target="_top" xlink:title="spec/tree_spec.h">
<polygon fill="white" stroke="black" points="0,-56.5 0,-75.5 92,-75.5 92,-56.5 0,-56.5"/>
<text text-anchor="middle" x="46" y="-63.5" font-family="Helvetica,sans-Serif" font-size="10.00">spec/tree_spec.h</text>
</a>
</g>
</g>
<!-- Node1&#45;&gt;Node2 -->
<g id="edge1" class="edge"><title>Node1&#45;&gt;Node2</title>
<path fill="none" stroke="midnightblue" d="M183.525,-109.436C150.53,-99.2551 103.244,-84.664 73.5995,-75.5164"/>
<polygon fill="midnightblue" stroke="midnightblue" points="182.683,-112.839 193.271,-112.444 184.747,-106.151 182.683,-112.839"/>
</g>
<!-- Node4 -->
<g id="node4" class="node"><title>Node4</title>
<g id="a_node4"><a xlink:href="mtree__spec_8h.html" target="_top" xlink:title="spec/mtree_spec.h">
<polygon fill="white" stroke="black" points="110,-56.5 110,-75.5 210,-75.5 210,-56.5 110,-56.5"/>
<text text-anchor="middle" x="160" y="-63.5" font-family="Helvetica,sans-Serif" font-size="10.00">spec/mtree_spec.h</text>
</a>
</g>
</g>
<!-- Node1&#45;&gt;Node4 -->
<g id="edge3" class="edge"><title>Node1&#45;&gt;Node4</title>
<path fill="none" stroke="midnightblue" d="M203.533,-105.537C192.656,-95.9087 179.056,-83.8694 169.979,-75.8339"/>
<polygon fill="midnightblue" stroke="midnightblue" points="201.392,-108.316 211.199,-112.324 206.032,-103.075 201.392,-108.316"/>
</g>
<!-- Node5 -->
<g id="node5" class="node"><title>Node5</title>
<g id="a_node5"><a xlink:href="receptor__spec_8h.html" target="_top" xlink:title="spec/receptor_spec.h">
<polygon fill="white" stroke="black" points="228,-56.5 228,-75.5 338,-75.5 338,-56.5 228,-56.5"/>
<text text-anchor="middle" x="283" y="-63.5" font-family="Helvetica,sans-Serif" font-size="10.00">spec/receptor_spec.h</text>
</a>
</g>
</g>
<!-- Node1&#45;&gt;Node5 -->
<g id="edge5" class="edge"><title>Node1&#45;&gt;Node5</title>
<path fill="none" stroke="midnightblue" d="M238.754,-105.537C249.808,-95.9087 263.631,-83.8694 272.857,-75.8339"/>
<polygon fill="midnightblue" stroke="midnightblue" points="236.203,-103.117 230.961,-112.324 240.801,-108.395 236.203,-103.117"/>
</g>
<!-- Node6 -->
<g id="node6" class="node"><title>Node6</title>
<g id="a_node6"><a xlink:href="vmhost__spec_8h.html" target="_top" xlink:title="spec/vmhost_spec.h">
<polygon fill="white" stroke="black" points="356.5,-56.5 356.5,-75.5 463.5,-75.5 463.5,-56.5 356.5,-56.5"/>
<text text-anchor="middle" x="410" y="-63.5" font-family="Helvetica,sans-Serif" font-size="10.00">spec/vmhost_spec.h</text>
</a>
</g>
</g>
<!-- Node1&#45;&gt;Node6 -->
<g id="edge7" class="edge"><title>Node1&#45;&gt;Node6</title>
<path fill="none" stroke="midnightblue" d="M261.013,-109.568C296.667,-99.381 348.038,-84.7034 380.192,-75.5164"/>
<polygon fill="midnightblue" stroke="midnightblue" points="259.601,-106.331 250.948,-112.444 261.524,-113.062 259.601,-106.331"/>
</g>
<!-- Node3 -->
<g id="node3" class="node"><title>Node3</title>
<g id="a_node3"><a xlink:href="ceptr__specs_8c.html" target="_top" xlink:title="implements a main() entry point for running all the tests ">
<polygon fill="white" stroke="black" points="170,-0.5 170,-19.5 272,-19.5 272,-0.5 170,-0.5"/>
<text text-anchor="middle" x="221" y="-7.5" font-family="Helvetica,sans-Serif" font-size="10.00">spec/ceptr_specs.c</text>
</a>
</g>
</g>
<!-- Node2&#45;&gt;Node3 -->
<g id="edge2" class="edge"><title>Node2&#45;&gt;Node3</title>
<path fill="none" stroke="midnightblue" d="M83.4749,-53.4363C116.47,-43.2551 163.756,-28.664 193.4,-19.5164"/>
<polygon fill="midnightblue" stroke="midnightblue" points="82.2527,-50.1505 73.7293,-56.4435 84.3167,-56.8393 82.2527,-50.1505"/>
</g>
<!-- Node4&#45;&gt;Node3 -->
<g id="edge4" class="edge"><title>Node4&#45;&gt;Node3</title>
<path fill="none" stroke="midnightblue" d="M177.467,-49.5372C188.344,-39.9087 201.944,-27.8694 211.021,-19.8339"/>
<polygon fill="midnightblue" stroke="midnightblue" points="174.968,-47.0749 169.801,-56.324 179.608,-52.3162 174.968,-47.0749"/>
</g>
<!-- Node5&#45;&gt;Node3 -->
<g id="edge6" class="edge"><title>Node5&#45;&gt;Node3</title>
<path fill="none" stroke="midnightblue" d="M265.246,-49.5372C254.192,-39.9087 240.369,-27.8694 231.143,-19.8339"/>
<polygon fill="midnightblue" stroke="midnightblue" points="263.199,-52.3954 273.039,-56.324 267.797,-47.1168 263.199,-52.3954"/>
</g>
<!-- Node6&#45;&gt;Node3 -->
<g id="edge8" class="edge"><title>Node6&#45;&gt;Node3</title>
<path fill="none" stroke="midnightblue" d="M369.987,-53.5677C334.333,-43.381 282.962,-28.7034 250.808,-19.5164"/>
<polygon fill="midnightblue" stroke="midnightblue" points="369.476,-57.0616 380.052,-56.4435 371.399,-50.3309 369.476,-57.0616"/>
</g>
</g>
</svg>
