<?xml version="1.0" encoding="UTF-8" standalone="no"?>
<!DOCTYPE svg PUBLIC "-//W3C//DTD SVG 1.1//EN"
 "http://www.w3.org/Graphics/SVG/1.1/DTD/svg11.dtd">
<!-- Generated by graphviz version 2.38.0 (20140413.2041)
 -->
<!-- Title: spec/http_example.h Pages: 1 -->
<svg width="354pt" height="140pt"
 viewBox="0.00 0.00 353.50 140.00" xmlns="http://www.w3.org/2000/svg" xmlns:xlink="http://www.w3.org/1999/xlink">
<g id="graph0" class="graph" transform="scale(1 1) rotate(0) translate(4 136)">
<title>spec/http_example.h</title>
<polygon fill="white" stroke="none" points="-4,4 -4,-136 349.5,-136 349.5,4 -4,4"/>
<!-- Node1 -->
<g id="node1" class="node"><title>Node1</title>
<polygon fill="#bfbfbf" stroke="black" points="111.5,-112.5 111.5,-131.5 218.5,-131.5 218.5,-112.5 111.5,-112.5"/>
<text text-anchor="middle" x="165" y="-119.5" font-family="Helvetica,sans-Serif" font-size="10.00">spec/http_example.h</text>
</g>
<!-- Node2 -->
<g id="node2" class="node"><title>Node2</title>
<g id="a_node2"><a xlink:href="tree__spec_8h.html" target="_top" xlink:title="spec/tree_spec.h">
<polygon fill="white" stroke="black" points="0,-56.5 0,-75.5 92,-75.5 92,-56.5 0,-56.5"/>
<text text-anchor="middle" x="46" y="-63.5" font-family="Helvetica,sans-Serif" font-size="10.00">spec/tree_spec.h</text>
</a>
</g>
</g>
<!-- Node1&#45;&gt;Node2 -->
<g id="edge1" class="edge"><title>Node1&#45;&gt;Node2</title>
<path fill="none" stroke="midnightblue" d="M136.863,-108.232C114.604,-98.1312 84.1442,-84.3091 64.7677,-75.5164"/>
<polygon fill="midnightblue" stroke="midnightblue" points="135.591,-111.498 146.144,-112.444 138.484,-105.124 135.591,-111.498"/>
</g>
<!-- Node4 -->
<g id="node4" class="node"><title>Node4</title>
<g id="a_node4"><a xlink:href="receptor__spec_8h.html" target="_top" xlink:title="spec/receptor_spec.h">
<polygon fill="white" stroke="black" points="110,-56.5 110,-75.5 220,-75.5 220,-56.5 110,-56.5"/>
<text text-anchor="middle" x="165" y="-63.5" font-family="Helvetica,sans-Serif" font-size="10.00">spec/receptor_spec.h</text>
</a>
</g>
</g>
<!-- Node1&#45;&gt;Node4 -->
<g id="edge3" class="edge"><title>Node1&#45;&gt;Node4</title>
<path fill="none" stroke="midnightblue" d="M165,-101.805C165,-92.9102 165,-82.7798 165,-75.7511"/>
<polygon fill="midnightblue" stroke="midnightblue" points="161.5,-102.083 165,-112.083 168.5,-102.083 161.5,-102.083"/>
</g>
<!-- Node5 -->
<g id="node5" class="node"><title>Node5</title>
<g id="a_node5"><a xlink:href="vmhost__spec_8h.html" target="_top" xlink:title="spec/vmhost_spec.h">
<polygon fill="white" stroke="black" points="238.5,-56.5 238.5,-75.5 345.5,-75.5 345.5,-56.5 238.5,-56.5"/>
<text text-anchor="middle" x="292" y="-63.5" font-family="Helvetica,sans-Serif" font-size="10.00">spec/vmhost_spec.h</text>
</a>
</g>
</g>
<!-- Node1&#45;&gt;Node5 -->
<g id="edge5" class="edge"><title>Node1&#45;&gt;Node5</title>
<path fill="none" stroke="midnightblue" d="M194.391,-108.503C218.2,-98.3795 251.106,-84.388 271.971,-75.5164"/>
<polygon fill="midnightblue" stroke="midnightblue" points="192.957,-105.31 185.124,-112.444 195.696,-111.751 192.957,-105.31"/>
</g>
<!-- Node3 -->
<g id="node3" class="node"><title>Node3</title>
<g id="a_node3"><a xlink:href="ceptr__specs_8c.html" target="_top" xlink:title="implements a main() entry point for running all the tests ">
<polygon fill="white" stroke="black" points="114,-0.5 114,-19.5 216,-19.5 216,-0.5 114,-0.5"/>
<text text-anchor="middle" x="165" y="-7.5" font-family="Helvetica,sans-Serif" font-size="10.00">spec/ceptr_specs.c</text>
</a>
</g>
</g>
<!-- Node2&#45;&gt;Node3 -->
<g id="edge2" class="edge"><title>Node2&#45;&gt;Node3</title>
<path fill="none" stroke="midnightblue" d="M74.1367,-52.2321C96.3961,-42.1312 126.856,-28.3091 146.232,-19.5164"/>
<polygon fill="midnightblue" stroke="midnightblue" points="72.5159,-49.124 64.8559,-56.4435 75.4085,-55.4984 72.5159,-49.124"/>
</g>
<!-- Node4&#45;&gt;Node3 -->
<g id="edge4" class="edge"><title>Node4&#45;&gt;Node3</title>
<path fill="none" stroke="midnightblue" d="M165,-45.8045C165,-36.9102 165,-26.7798 165,-19.7511"/>
<polygon fill="midnightblue" stroke="midnightblue" points="161.5,-46.083 165,-56.083 168.5,-46.083 161.5,-46.083"/>
</g>
<!-- Node5&#45;&gt;Node3 -->
<g id="edge6" class="edge"><title>Node5&#45;&gt;Node3</title>
<path fill="none" stroke="midnightblue" d="M262.609,-52.503C238.8,-42.3795 205.894,-28.388 185.029,-19.5164"/>
<polygon fill="midnightblue" stroke="midnightblue" points="261.304,-55.7515 271.876,-56.4435 264.043,-49.3096 261.304,-55.7515"/>
</g>
</g>
</svg>
