<?xml version="1.0" encoding="UTF-8" standalone="no"?>
<!DOCTYPE svg PUBLIC "-//W3C//DTD SVG 1.1//EN"
 "http://www.w3.org/Graphics/SVG/1.1/DTD/svg11.dtd">
<!-- Generated by graphviz version 2.38.0 (20140413.2041)
 -->
<!-- Title: src/label.h Pages: 1 -->
<!--zoomable 364 -->
<svg id="main" version="1.1" xmlns="http://www.w3.org/2000/svg" xmlns:xlink="http://www.w3.org/1999/xlink" xml:space="preserve" onload="init(evt)">
<style type="text/css"><![CDATA[
.edge:hover path { stroke: red; }
.edge:hover polygon { stroke: red; fill: red; }
]]></style>
<script type="text/javascript"><![CDATA[
var edges = document.getElementsByTagName('g');
if (edges && edges.length) {
  for (var i=0;i<edges.length;i++) {
    if (edges[i].id.substr(0,4)=='edge') {
      edges[i].setAttribute('class','edge');
    }
  }
}
]]></script>
        <defs>
                <circle id="rim" cx="0" cy="0" r="7"/>
                <circle id="rim2" cx="0" cy="0" r="3.5"/>
                <g id="zoomPlus">
                        <use xlink:href="#rim" fill="#404040">
                                <set attributeName="fill" to="#808080" begin="zoomplus.mouseover" end="zoomplus.mouseout"/>
                        </use>
                        <path d="M-4,0h8M0,-4v8" fill="none" stroke="white" stroke-width="1.5" pointer-events="none"/>
                </g>
                <g id="zoomMin">
                        <use xlink:href="#rim" fill="#404040">
                                <set attributeName="fill" to="#808080" begin="zoomminus.mouseover" end="zoomminus.mouseout"/>
                        </use>
                        <path d="M-4,0h8" fill="none" stroke="white" stroke-width="1.5" pointer-events="none"/>
                </g>
                <g id="dirArrow">
                        <path fill="none" stroke="white" stroke-width="1.5" d="M0,-3.0v7 M-2.5,-0.5L0,-3.0L2.5,-0.5"/>
                </g>
               <g id="resetDef">
                       <use xlink:href="#rim2" fill="#404040">
                               <set attributeName="fill" to="#808080" begin="reset.mouseover" end="reset.mouseout"/>
                       </use>
               </g>
        </defs>

<script type="text/javascript">
var viewWidth = 1814;
var viewHeight = 364;
var sectionId = 'dynsection-1';
</script>
<script xlink:href="svgpan.js"/>
<svg id="graph" class="graph">
<g id="viewport">
<title>src/label.h</title>
<polygon fill="white" stroke="none" points="-4,4 -4,-360 1809.5,-360 1809.5,4 -4,4"/>
<!-- Node1 -->
<g id="node1" class="node"><title>Node1</title>
<polygon fill="#bfbfbf" stroke="black" points="1343.5,-336.5 1343.5,-355.5 1405.5,-355.5 1405.5,-336.5 1343.5,-336.5"/>
<text text-anchor="middle" x="1374.5" y="-343.5" font-family="Helvetica,sans-Serif" font-size="10.00">src/label.h</text>
</g>
<!-- Node2 -->
<g id="node2" class="node"><title>Node2</title>
<g id="a_node2"><a xlink:href="receptor_8h.html" target="_top" xlink:title="receptor implementation header file ">
<polygon fill="white" stroke="black" points="870,-280.5 870,-299.5 947,-299.5 947,-280.5 870,-280.5"/>
<text text-anchor="middle" x="908.5" y="-287.5" font-family="Helvetica,sans-Serif" font-size="10.00">src/receptor.h</text>
</a>
</g>
</g>
<!-- Node1&#45;&gt;Node2 -->
<g id="edge1" class="edge"><title>Node1&#45;&gt;Node2</title>
<path fill="none" stroke="midnightblue" d="M1333.17,-340.211C1243.83,-329.858 1033.78,-305.517 947.026,-295.464"/>
<polygon fill="midnightblue" stroke="midnightblue" points="1332.86,-343.699 1343.2,-341.373 1333.67,-336.745 1332.86,-343.699"/>
</g>
<!-- Node33 -->
<g id="node33" class="node"><title>Node33</title>
<g id="a_node33"><a xlink:href="label_8c.html" target="_top" xlink:title="Implementation of label tabels for semantic reference to parts of semantic trees. ...">
<polygon fill="white" stroke="black" points="1343.5,-280.5 1343.5,-299.5 1405.5,-299.5 1405.5,-280.5 1343.5,-280.5"/>
<text text-anchor="middle" x="1374.5" y="-287.5" font-family="Helvetica,sans-Serif" font-size="10.00">src/label.c</text>
</a>
</g>
</g>
<!-- Node1&#45;&gt;Node33 -->
<g id="edge64" class="edge"><title>Node1&#45;&gt;Node33</title>
<path fill="none" stroke="midnightblue" d="M1374.5,-325.805C1374.5,-316.91 1374.5,-306.78 1374.5,-299.751"/>
<polygon fill="midnightblue" stroke="midnightblue" points="1371,-326.083 1374.5,-336.083 1378,-326.083 1371,-326.083"/>
</g>
<!-- Node34 -->
<g id="node34" class="node"><title>Node34</title>
<g id="a_node34"><a xlink:href="label__spec_8h.html" target="_top" xlink:title="spec/label_spec.h">
<polygon fill="white" stroke="black" points="1613,-280.5 1613,-299.5 1708,-299.5 1708,-280.5 1613,-280.5"/>
<text text-anchor="middle" x="1660.5" y="-287.5" font-family="Helvetica,sans-Serif" font-size="10.00">spec/label_spec.h</text>
</a>
</g>
</g>
<!-- Node1&#45;&gt;Node34 -->
<g id="edge65" class="edge"><title>Node1&#45;&gt;Node34</title>
<path fill="none" stroke="midnightblue" d="M1415.71,-337.218C1468.72,-327.21 1560.46,-309.888 1615.32,-299.53"/>
<polygon fill="midnightblue" stroke="midnightblue" points="1414.83,-333.824 1405.65,-339.118 1416.13,-340.702 1414.83,-333.824"/>
</g>
<!-- Node3 -->
<g id="node3" class="node"><title>Node3</title>
<g id="a_node3"><a xlink:href="vmhost_8h.html" target="_top" xlink:title="vmhost implementation header file ">
<polygon fill="white" stroke="black" points="999.5,-224.5 999.5,-243.5 1073.5,-243.5 1073.5,-224.5 999.5,-224.5"/>
<text text-anchor="middle" x="1036.5" y="-231.5" font-family="Helvetica,sans-Serif" font-size="10.00">src/vmhost.h</text>
</a>
</g>
</g>
<!-- Node2&#45;&gt;Node3 -->
<g id="edge2" class="edge"><title>Node2&#45;&gt;Node3</title>
<path fill="none" stroke="midnightblue" d="M938.123,-276.503C962.119,-266.38 995.284,-252.388 1016.31,-243.516"/>
<polygon fill="midnightblue" stroke="midnightblue" points="936.635,-273.332 928.782,-280.444 939.356,-279.781 936.635,-273.332"/>
</g>
<!-- Node5 -->
<g id="node5" class="node"><title>Node5</title>
<g id="a_node5"><a xlink:href="accumulator_8c.html" target="_top" xlink:title="implementation file for accumulator ">
<polygon fill="white" stroke="black" points="1391,-112.5 1391,-131.5 1486,-131.5 1486,-112.5 1391,-112.5"/>
<text text-anchor="middle" x="1438.5" y="-119.5" font-family="Helvetica,sans-Serif" font-size="10.00">src/accumulator.c</text>
</a>
</g>
</g>
<!-- Node2&#45;&gt;Node5 -->
<g id="edge34" class="edge"><title>Node2&#45;&gt;Node5</title>
<path fill="none" stroke="midnightblue" d="M954.695,-278.048C989.911,-269.46 1039.51,-256.846 1082.5,-244 1209.47,-206.062 1358.93,-152.207 1415.37,-131.533"/>
<polygon fill="midnightblue" stroke="midnightblue" points="953.601,-274.712 944.707,-280.47 955.251,-281.515 953.601,-274.712"/>
</g>
<!-- Node11 -->
<g id="node11" class="node"><title>Node11</title>
<g id="a_node11"><a xlink:href="process_8c.html" target="_top" xlink:title="implementation of ceptr processing: instructions and run tree reduction ">
<polygon fill="white" stroke="black" points="1504.5,-112.5 1504.5,-131.5 1580.5,-131.5 1580.5,-112.5 1504.5,-112.5"/>
<text text-anchor="middle" x="1542.5" y="-119.5" font-family="Helvetica,sans-Serif" font-size="10.00">src/process.c</text>
</a>
</g>
</g>
<!-- Node2&#45;&gt;Node11 -->
<g id="edge46" class="edge"><title>Node2&#45;&gt;Node11</title>
<path fill="none" stroke="midnightblue" d="M957.3,-280.277C1002.06,-271.978 1070.08,-258.617 1128.5,-244 1243.64,-215.192 1270.54,-201.144 1384.5,-168 1428.87,-155.097 1480.35,-140.504 1512.18,-131.527"/>
<polygon fill="midnightblue" stroke="midnightblue" points="956.479,-276.869 947.278,-282.122 957.747,-283.754 956.479,-276.869"/>
</g>
<!-- Node12 -->
<g id="node12" class="node"><title>Node12</title>
<g id="a_node12"><a xlink:href="receptor_8c.html" target="_top" xlink:title="receptor implementation ">
<polygon fill="white" stroke="black" points="719,-112.5 719,-131.5 796,-131.5 796,-112.5 719,-112.5"/>
<text text-anchor="middle" x="757.5" y="-119.5" font-family="Helvetica,sans-Serif" font-size="10.00">src/receptor.c</text>
</a>
</g>
</g>
<!-- Node2&#45;&gt;Node12 -->
<g id="edge47" class="edge"><title>Node2&#45;&gt;Node12</title>
<path fill="none" stroke="midnightblue" d="M861.117,-277.303C841.458,-270.402 819.733,-259.821 804.5,-244 772.457,-210.72 761.594,-153.149 758.538,-131.531"/>
<polygon fill="midnightblue" stroke="midnightblue" points="860.269,-280.708 870.862,-280.493 862.447,-274.056 860.269,-280.708"/>
</g>
<!-- Node18 -->
<g id="node18" class="node"><title>Node18</title>
<g id="a_node18"><a xlink:href="http__example_8h.html" target="_top" xlink:title="spec/http_example.h">
<polygon fill="white" stroke="black" points="814,-112.5 814,-131.5 921,-131.5 921,-112.5 814,-112.5"/>
<text text-anchor="middle" x="867.5" y="-119.5" font-family="Helvetica,sans-Serif" font-size="10.00">spec/http_example.h</text>
</a>
</g>
</g>
<!-- Node2&#45;&gt;Node18 -->
<g id="edge55" class="edge"><title>Node2&#45;&gt;Node18</title>
<path fill="none" stroke="midnightblue" d="M860.185,-277.529C842.701,-270.793 824.753,-260.275 814.5,-244 789.808,-204.803 837.082,-152.127 858.124,-131.648"/>
<polygon fill="midnightblue" stroke="midnightblue" points="859.204,-280.894 869.799,-280.895 861.517,-274.287 859.204,-280.894"/>
</g>
<!-- Node19 -->
<g id="node19" class="node"><title>Node19</title>
<g id="a_node19"><a xlink:href="tree__spec_8h.html" target="_top" xlink:title="spec/tree_spec.h">
<polygon fill="white" stroke="black" points="1261.5,-56.5 1261.5,-75.5 1353.5,-75.5 1353.5,-56.5 1261.5,-56.5"/>
<text text-anchor="middle" x="1307.5" y="-63.5" font-family="Helvetica,sans-Serif" font-size="10.00">spec/tree_spec.h</text>
</a>
</g>
</g>
<!-- Node2&#45;&gt;Node19 -->
<g id="edge54" class="edge"><title>Node2&#45;&gt;Node19</title>
<path fill="none" stroke="midnightblue" d="M957.199,-282.844C1011.91,-275.489 1103.18,-261.897 1180.5,-244 1265.02,-224.436 1285.59,-216.584 1367.5,-188 1390.1,-180.115 1394.59,-174.922 1417.5,-168 1492.26,-145.411 1540.26,-192.619 1589.5,-132 1635.79,-75.0158 1738.76,-136.62 1362.5,-76 1359.63,-75.5383 1356.68,-75.0612 1353.71,-74.5787"/>
<polygon fill="midnightblue" stroke="midnightblue" points="956.542,-279.4 947.09,-284.188 957.464,-286.339 956.542,-279.4"/>
</g>
<!-- Node20 -->
<g id="node20" class="node"><title>Node20</title>
<g id="a_node20"><a xlink:href="mtree__spec_8h.html" target="_top" xlink:title="spec/mtree_spec.h">
<polygon fill="white" stroke="black" points="570.5,-56.5 570.5,-75.5 670.5,-75.5 670.5,-56.5 570.5,-56.5"/>
<text text-anchor="middle" x="620.5" y="-63.5" font-family="Helvetica,sans-Serif" font-size="10.00">spec/mtree_spec.h</text>
</a>
</g>
</g>
<!-- Node2&#45;&gt;Node20 -->
<g id="edge56" class="edge"><title>Node2&#45;&gt;Node20</title>
<path fill="none" stroke="midnightblue" d="M859.751,-286.709C787.908,-282.528 649.757,-271.412 535.5,-244 465.086,-227.107 443.536,-226.962 382.5,-188 352.831,-169.061 339.97,-164.519 326.5,-132 323.098,-123.788 320.71,-118.744 326.5,-112 326.624,-111.856 486.389,-87.4613 570.319,-74.6547"/>
<polygon fill="midnightblue" stroke="midnightblue" points="859.678,-290.21 869.859,-287.276 860.071,-283.221 859.678,-290.21"/>
</g>
<!-- Node21 -->
<g id="node21" class="node"><title>Node21</title>
<g id="a_node21"><a xlink:href="receptor__spec_8h.html" target="_top" xlink:title="spec/receptor_spec.h">
<polygon fill="white" stroke="black" points="688.5,-56.5 688.5,-75.5 798.5,-75.5 798.5,-56.5 688.5,-56.5"/>
<text text-anchor="middle" x="743.5" y="-63.5" font-family="Helvetica,sans-Serif" font-size="10.00">spec/receptor_spec.h</text>
</a>
</g>
</g>
<!-- Node2&#45;&gt;Node21 -->
<g id="edge59" class="edge"><title>Node2&#45;&gt;Node21</title>
<path fill="none" stroke="midnightblue" d="M859.784,-283.34C733.637,-267.546 401.942,-218.389 341.5,-132 312.81,-90.9944 306.781,-122.043 679.5,-76 682.395,-75.6423 685.363,-75.2645 688.358,-74.8743"/>
<polygon fill="midnightblue" stroke="midnightblue" points="859.571,-286.84 869.925,-284.593 860.43,-279.893 859.571,-286.84"/>
</g>
<!-- Node23 -->
<g id="node23" class="node"><title>Node23</title>
<g id="a_node23"><a xlink:href="base__defs_8c.html" target="_top" xlink:title="auto&#45;generated system definitions ">
<polygon fill="white" stroke="black" points="368.5,-112.5 368.5,-131.5 454.5,-131.5 454.5,-112.5 368.5,-112.5"/>
<text text-anchor="middle" x="411.5" y="-119.5" font-family="Helvetica,sans-Serif" font-size="10.00">src/base_defs.c</text>
</a>
</g>
</g>
<!-- Node2&#45;&gt;Node23 -->
<g id="edge35" class="edge"><title>Node2&#45;&gt;Node23</title>
<path fill="none" stroke="midnightblue" d="M859.744,-280.183C818.911,-272.288 759.32,-259.569 708.5,-244 643.239,-224.006 628.725,-213.717 565.5,-188 517.114,-168.318 460.635,-144.179 431.366,-131.581"/>
<polygon fill="midnightblue" stroke="midnightblue" points="859.225,-283.647 869.705,-282.085 860.539,-276.771 859.225,-283.647"/>
</g>
<!-- Node24 -->
<g id="node24" class="node"><title>Node24</title>
<g id="a_node24"><a xlink:href="protocol_8h.html" target="_top" xlink:title="protocol helpers header file ">
<polygon fill="white" stroke="black" points="614.5,-168.5 614.5,-187.5 690.5,-187.5 690.5,-168.5 614.5,-168.5"/>
<text text-anchor="middle" x="652.5" y="-175.5" font-family="Helvetica,sans-Serif" font-size="10.00">src/protocol.h</text>
</a>
</g>
</g>
<!-- Node2&#45;&gt;Node24 -->
<g id="edge36" class="edge"><title>Node2&#45;&gt;Node24</title>
<path fill="none" stroke="midnightblue" d="M859.721,-280.433C825.999,-273.388 780.691,-261.657 743.5,-244 711.053,-228.596 677.979,-201.51 662.129,-187.671"/>
<polygon fill="midnightblue" stroke="midnightblue" points="859.297,-283.918 869.793,-282.47 860.685,-277.057 859.297,-283.918"/>
</g>
<!-- Node26 -->
<g id="node26" class="node"><title>Node26</title>
<g id="a_node26"><a xlink:href="sys__defs_8c.html" target="_top" xlink:title="definition of system semantic elements for bootstrapping ">
<polygon fill="white" stroke="black" points="824,-224.5 824,-243.5 905,-243.5 905,-224.5 824,-224.5"/>
<text text-anchor="middle" x="864.5" y="-231.5" font-family="Helvetica,sans-Serif" font-size="10.00">src/sys_defs.c</text>
</a>
</g>
</g>
<!-- Node2&#45;&gt;Node26 -->
<g id="edge48" class="edge"><title>Node2&#45;&gt;Node26</title>
<path fill="none" stroke="midnightblue" d="M894.765,-272.144C887.099,-262.736 877.867,-251.405 871.631,-243.751"/>
<polygon fill="midnightblue" stroke="midnightblue" points="892.204,-274.541 901.234,-280.083 897.631,-270.12 892.204,-274.541"/>
</g>
<!-- Node27 -->
<g id="node27" class="node"><title>Node27</title>
<g id="a_node27"><a xlink:href="tree_8c.html" target="_top" xlink:title="semantic tree pointer implementation ">
<polygon fill="white" stroke="black" points="923.5,-224.5 923.5,-243.5 981.5,-243.5 981.5,-224.5 923.5,-224.5"/>
<text text-anchor="middle" x="952.5" y="-231.5" font-family="Helvetica,sans-Serif" font-size="10.00">src/tree.c</text>
</a>
</g>
</g>
<!-- Node2&#45;&gt;Node27 -->
<g id="edge49" class="edge"><title>Node2&#45;&gt;Node27</title>
<path fill="none" stroke="midnightblue" d="M922.235,-272.144C929.901,-262.736 939.133,-251.405 945.369,-243.751"/>
<polygon fill="midnightblue" stroke="midnightblue" points="919.369,-270.12 915.766,-280.083 924.796,-274.541 919.369,-270.12"/>
</g>
<!-- Node28 -->
<g id="node28" class="node"><title>Node28</title>
<g id="a_node28"><a xlink:href="semtable__spec_8h.html" target="_top" xlink:title="spec/semtable_spec.h">
<polygon fill="white" stroke="black" points="1427,-168.5 1427,-187.5 1542,-187.5 1542,-168.5 1427,-168.5"/>
<text text-anchor="middle" x="1484.5" y="-175.5" font-family="Helvetica,sans-Serif" font-size="10.00">spec/semtable_spec.h</text>
</a>
</g>
</g>
<!-- Node2&#45;&gt;Node28 -->
<g id="edge50" class="edge"><title>Node2&#45;&gt;Node28</title>
<path fill="none" stroke="midnightblue" d="M957.463,-288.548C1067.63,-286.905 1331.68,-279.29 1412.5,-244 1441.51,-231.331 1466.74,-202.215 1478.1,-187.64"/>
<polygon fill="midnightblue" stroke="midnightblue" points="957.244,-285.05 947.294,-288.689 957.341,-292.05 957.244,-285.05"/>
</g>
<!-- Node29 -->
<g id="node29" class="node"><title>Node29</title>
<g id="a_node29"><a xlink:href="def__spec_8h.html" target="_top" xlink:title="spec/def_spec.h">
<polygon fill="white" stroke="black" points="1560,-168.5 1560,-187.5 1649,-187.5 1649,-168.5 1560,-168.5"/>
<text text-anchor="middle" x="1604.5" y="-175.5" font-family="Helvetica,sans-Serif" font-size="10.00">spec/def_spec.h</text>
</a>
</g>
</g>
<!-- Node2&#45;&gt;Node29 -->
<g id="edge52" class="edge"><title>Node2&#45;&gt;Node29</title>
<path fill="none" stroke="midnightblue" d="M957.482,-289.691C1052.43,-289.98 1267.55,-285.484 1442.5,-244 1497.94,-230.855 1559.32,-201.962 1588.02,-187.54"/>
<polygon fill="midnightblue" stroke="midnightblue" points="957.337,-286.191 947.32,-289.641 957.302,-293.191 957.337,-286.191"/>
</g>
<!-- Node30 -->
<g id="node30" class="node"><title>Node30</title>
<g id="a_node30"><a xlink:href="semtrex__spec_8h.html" target="_top" xlink:title="spec/semtrex_spec.h">
<polygon fill="white" stroke="black" points="1667.5,-168.5 1667.5,-187.5 1777.5,-187.5 1777.5,-168.5 1667.5,-168.5"/>
<text text-anchor="middle" x="1722.5" y="-175.5" font-family="Helvetica,sans-Serif" font-size="10.00">spec/semtrex_spec.h</text>
</a>
</g>
</g>
<!-- Node2&#45;&gt;Node30 -->
<g id="edge57" class="edge"><title>Node2&#45;&gt;Node30</title>
<path fill="none" stroke="midnightblue" d="M957.12,-288.341C1057.03,-286.302 1292.36,-277.972 1486.5,-244 1564.99,-230.265 1655.11,-201.781 1697.71,-187.521"/>
<polygon fill="midnightblue" stroke="midnightblue" points="956.96,-284.843 947.029,-288.535 957.095,-291.842 956.96,-284.843"/>
</g>
<!-- Node31 -->
<g id="node31" class="node"><title>Node31</title>
<g id="a_node31"><a xlink:href="scape__spec_8h.html" target="_top" xlink:title="spec/scape_spec.h">
<polygon fill="white" stroke="black" points="0,-224.5 0,-243.5 101,-243.5 101,-224.5 0,-224.5"/>
<text text-anchor="middle" x="50.5" y="-231.5" font-family="Helvetica,sans-Serif" font-size="10.00">spec/scape_spec.h</text>
</a>
</g>
</g>
<!-- Node2&#45;&gt;Node31 -->
<g id="edge60" class="edge"><title>Node2&#45;&gt;Node31</title>
<path fill="none" stroke="midnightblue" d="M859.708,-287.867C734.688,-284.615 392.766,-273.514 109.5,-244 106.821,-243.721 104.077,-243.406 101.309,-243.064"/>
<polygon fill="midnightblue" stroke="midnightblue" points="859.646,-291.367 869.732,-288.123 859.824,-284.369 859.646,-291.367"/>
</g>
<!-- Node32 -->
<g id="node32" class="node"><title>Node32</title>
<g id="a_node32"><a xlink:href="profile__example_8h.html" target="_top" xlink:title="spec/profile_example.h">
<polygon fill="white" stroke="black" points="119,-224.5 119,-243.5 236,-243.5 236,-224.5 119,-224.5"/>
<text text-anchor="middle" x="177.5" y="-231.5" font-family="Helvetica,sans-Serif" font-size="10.00">spec/profile_example.h</text>
</a>
</g>
</g>
<!-- Node2&#45;&gt;Node32 -->
<g id="edge62" class="edge"><title>Node2&#45;&gt;Node32</title>
<path fill="none" stroke="midnightblue" d="M859.826,-286.579C750.649,-280.951 477.964,-265.784 250.5,-244 245.797,-243.55 240.928,-243.041 236.04,-242.501"/>
<polygon fill="midnightblue" stroke="midnightblue" points="859.708,-290.078 869.874,-287.094 860.066,-283.087 859.708,-290.078"/>
</g>
<!-- Node4 -->
<g id="node4" class="node"><title>Node4</title>
<g id="a_node4"><a xlink:href="accumulator_8h.html" target="_top" xlink:title="header file for the accumulator ">
<polygon fill="white" stroke="black" points="1081,-168.5 1081,-187.5 1176,-187.5 1176,-168.5 1081,-168.5"/>
<text text-anchor="middle" x="1128.5" y="-175.5" font-family="Helvetica,sans-Serif" font-size="10.00">src/accumulator.h</text>
</a>
</g>
</g>
<!-- Node3&#45;&gt;Node4 -->
<g id="edge3" class="edge"><title>Node3&#45;&gt;Node4</title>
<path fill="none" stroke="midnightblue" d="M1060.05,-219.177C1076.98,-209.241 1099.28,-196.149 1113.76,-187.655"/>
<polygon fill="midnightblue" stroke="midnightblue" points="1058.13,-216.243 1051.28,-224.324 1061.68,-222.28 1058.13,-216.243"/>
</g>
<!-- Node15 -->
<g id="node15" class="node"><title>Node15</title>
<g id="a_node15"><a xlink:href="vmhost__spec_8h.html" target="_top" xlink:title="spec/vmhost_spec.h">
<polygon fill="white" stroke="black" points="855,-56.5 855,-75.5 962,-75.5 962,-56.5 855,-56.5"/>
<text text-anchor="middle" x="908.5" y="-63.5" font-family="Helvetica,sans-Serif" font-size="10.00">spec/vmhost_spec.h</text>
</a>
</g>
</g>
<!-- Node3&#45;&gt;Node15 -->
<g id="edge33" class="edge"><title>Node3&#45;&gt;Node15</title>
<path fill="none" stroke="midnightblue" d="M1023.21,-215.763C996.089,-180.592 935.238,-101.676 915.107,-75.5681"/>
<polygon fill="midnightblue" stroke="midnightblue" points="1020.74,-218.293 1029.62,-224.075 1026.28,-214.019 1020.74,-218.293"/>
</g>
<!-- Node16 -->
<g id="node16" class="node"><title>Node16</title>
<g id="a_node16"><a xlink:href="vmhost_8c.html" target="_top" xlink:title="virtual machine host receptor implementation ">
<polygon fill="white" stroke="black" points="1298.5,-112.5 1298.5,-131.5 1372.5,-131.5 1372.5,-112.5 1298.5,-112.5"/>
<text text-anchor="middle" x="1335.5" y="-119.5" font-family="Helvetica,sans-Serif" font-size="10.00">src/vmhost.c</text>
</a>
</g>
</g>
<!-- Node3&#45;&gt;Node16 -->
<g id="edge30" class="edge"><title>Node3&#45;&gt;Node16</title>
<path fill="none" stroke="midnightblue" d="M1077.99,-221.723C1107.89,-213.274 1149.04,-200.978 1184.5,-188 1233.28,-170.148 1289.02,-144.826 1317.17,-131.679"/>
<polygon fill="midnightblue" stroke="midnightblue" points="1076.99,-218.368 1068.31,-224.437 1078.88,-225.109 1076.99,-218.368"/>
</g>
<!-- Node3&#45;&gt;Node18 -->
<g id="edge31" class="edge"><title>Node3&#45;&gt;Node18</title>
<path fill="none" stroke="midnightblue" d="M1001.73,-220.934C981.512,-213.1 956.048,-201.788 935.5,-188 910.547,-171.257 886.335,-145.003 874.69,-131.559"/>
<polygon fill="midnightblue" stroke="midnightblue" points="1000.6,-224.247 1011.19,-224.496 1003.06,-217.696 1000.6,-224.247"/>
</g>
<!-- Node3&#45;&gt;Node21 -->
<g id="edge32" class="edge"><title>Node3&#45;&gt;Node21</title>
<path fill="none" stroke="midnightblue" d="M989.434,-224.112C832.921,-206.043 443.711,-242.16 359.5,-132 329.848,-93.2107 310.945,-122.636 679.5,-76 682.394,-75.6338 685.361,-75.2491 688.355,-74.8535"/>
<polygon fill="midnightblue" stroke="midnightblue" points="989.039,-227.589 999.401,-225.382 989.924,-220.646 989.039,-227.589"/>
</g>
<!-- Node22 -->
<g id="node22" class="node"><title>Node22</title>
<g id="a_node22"><a xlink:href="protocol_8c.html" target="_top" xlink:title="implementation of protocol helpers ">
<polygon fill="white" stroke="black" points="472.5,-112.5 472.5,-131.5 548.5,-131.5 548.5,-112.5 472.5,-112.5"/>
<text text-anchor="middle" x="510.5" y="-119.5" font-family="Helvetica,sans-Serif" font-size="10.00">src/protocol.c</text>
</a>
</g>
</g>
<!-- Node3&#45;&gt;Node22 -->
<g id="edge29" class="edge"><title>Node3&#45;&gt;Node22</title>
<path fill="none" stroke="midnightblue" d="M989.307,-224.006C818.334,-201.219 764.057,-245.275 605.5,-188 570.165,-175.236 535.494,-146.164 519.568,-131.62"/>
<polygon fill="midnightblue" stroke="midnightblue" points="989.01,-227.499 999.397,-225.41 989.975,-220.566 989.01,-227.499"/>
</g>
<!-- Node4&#45;&gt;Node5 -->
<g id="edge4" class="edge"><title>Node4&#45;&gt;Node5</title>
<path fill="none" stroke="midnightblue" d="M1186.17,-166.954C1245.21,-156.67 1335.88,-140.876 1390.94,-131.284"/>
<polygon fill="midnightblue" stroke="midnightblue" points="1185.51,-163.517 1176.26,-168.681 1186.71,-170.413 1185.51,-163.517"/>
</g>
<!-- Node6 -->
<g id="node6" class="node"><title>Node6</title>
<g id="a_node6"><a xlink:href="ceptr_8c.html" target="_top" xlink:title="implements main() entry point for the ceptr node ">
<polygon fill="white" stroke="black" points="1179,-112.5 1179,-131.5 1242,-131.5 1242,-112.5 1179,-112.5"/>
<text text-anchor="middle" x="1210.5" y="-119.5" font-family="Helvetica,sans-Serif" font-size="10.00">src/ceptr.c</text>
</a>
</g>
</g>
<!-- Node4&#45;&gt;Node6 -->
<g id="edge5" class="edge"><title>Node4&#45;&gt;Node6</title>
<path fill="none" stroke="midnightblue" d="M1150.33,-162.622C1165.31,-152.757 1184.7,-139.992 1197.36,-131.655"/>
<polygon fill="midnightblue" stroke="midnightblue" points="1148.1,-159.901 1141.67,-168.324 1151.95,-165.747 1148.1,-159.901"/>
</g>
<!-- Node7 -->
<g id="node7" class="node"><title>Node7</title>
<g id="a_node7"><a xlink:href="group_8h.html" target="_top" xlink:title="group communication receptors header file ">
<polygon fill="white" stroke="black" points="1096,-112.5 1096,-131.5 1161,-131.5 1161,-112.5 1096,-112.5"/>
<text text-anchor="middle" x="1128.5" y="-119.5" font-family="Helvetica,sans-Serif" font-size="10.00">src/group.h</text>
</a>
</g>
</g>
<!-- Node4&#45;&gt;Node7 -->
<g id="edge6" class="edge"><title>Node4&#45;&gt;Node7</title>
<path fill="none" stroke="midnightblue" d="M1128.5,-157.805C1128.5,-148.91 1128.5,-138.78 1128.5,-131.751"/>
<polygon fill="midnightblue" stroke="midnightblue" points="1125,-158.083 1128.5,-168.083 1132,-158.083 1125,-158.083"/>
</g>
<!-- Node4&#45;&gt;Node11 -->
<g id="edge10" class="edge"><title>Node4&#45;&gt;Node11</title>
<path fill="none" stroke="midnightblue" d="M1186.26,-171.036C1258.52,-163.313 1385.96,-148.831 1494.5,-132 1497.68,-131.506 1500.98,-130.961 1504.29,-130.39"/>
<polygon fill="midnightblue" stroke="midnightblue" points="1185.58,-167.588 1176.01,-172.126 1186.32,-174.549 1185.58,-167.588"/>
</g>
<!-- Node4&#45;&gt;Node12 -->
<g id="edge11" class="edge"><title>Node4&#45;&gt;Node12</title>
<path fill="none" stroke="midnightblue" d="M1070.86,-169.9C1005.97,-161.696 897.443,-147.343 804.5,-132 801.795,-131.553 799.006,-131.072 796.201,-130.573"/>
<polygon fill="midnightblue" stroke="midnightblue" points="1070.54,-173.386 1080.9,-171.163 1071.41,-166.441 1070.54,-173.386"/>
</g>
<!-- Node13 -->
<g id="node13" class="node"><title>Node13</title>
<g id="a_node13"><a xlink:href="shell_8h.html" target="_top" xlink:title="command line shell receptor header files ">
<polygon fill="white" stroke="black" points="1015.5,-112.5 1015.5,-131.5 1077.5,-131.5 1077.5,-112.5 1015.5,-112.5"/>
<text text-anchor="middle" x="1046.5" y="-119.5" font-family="Helvetica,sans-Serif" font-size="10.00">src/shell.h</text>
</a>
</g>
</g>
<!-- Node4&#45;&gt;Node13 -->
<g id="edge12" class="edge"><title>Node4&#45;&gt;Node13</title>
<path fill="none" stroke="midnightblue" d="M1106.67,-162.622C1091.69,-152.757 1072.3,-139.992 1059.64,-131.655"/>
<polygon fill="midnightblue" stroke="midnightblue" points="1105.05,-165.747 1115.33,-168.324 1108.9,-159.901 1105.05,-165.747"/>
</g>
<!-- Node4&#45;&gt;Node16 -->
<g id="edge16" class="edge"><title>Node4&#45;&gt;Node16</title>
<path fill="none" stroke="midnightblue" d="M1171.32,-165.829C1210.41,-155.633 1267.33,-140.782 1302.85,-131.516"/>
<polygon fill="midnightblue" stroke="midnightblue" points="1170.09,-162.533 1161.3,-168.444 1171.86,-169.306 1170.09,-162.533"/>
</g>
<!-- Node17 -->
<g id="node17" class="node"><title>Node17</title>
<g id="a_node17"><a xlink:href="accumulator__spec_8h_source.html" target="_top" xlink:title="spec/accumulator_spec.h">
<polygon fill="white" stroke="black" points="1371.5,-56.5 1371.5,-75.5 1499.5,-75.5 1499.5,-56.5 1371.5,-56.5"/>
<text text-anchor="middle" x="1435.5" y="-63.5" font-family="Helvetica,sans-Serif" font-size="10.00">spec/accumulator_spec.h</text>
</a>
</g>
</g>
<!-- Node4&#45;&gt;Node17 -->
<g id="edge17" class="edge"><title>Node4&#45;&gt;Node17</title>
<path fill="none" stroke="midnightblue" d="M1164.19,-165.11C1188.76,-156.618 1221.98,-144.52 1250.5,-132 1268.34,-124.171 1271.46,-119.341 1289.5,-112 1327.09,-96.706 1371.9,-83.6194 1401.87,-75.5646"/>
<polygon fill="midnightblue" stroke="midnightblue" points="1162.89,-161.856 1154.56,-168.407 1165.16,-168.478 1162.89,-161.856"/>
</g>
<!-- Node4&#45;&gt;Node18 -->
<g id="edge19" class="edge"><title>Node4&#45;&gt;Node18</title>
<path fill="none" stroke="midnightblue" d="M1077.31,-166.41C1027.99,-156.204 954.305,-140.96 908.663,-131.516"/>
<polygon fill="midnightblue" stroke="midnightblue" points="1076.64,-169.845 1087.14,-168.444 1078.06,-162.99 1076.64,-169.845"/>
</g>
<!-- Node4&#45;&gt;Node21 -->
<g id="edge28" class="edge"><title>Node4&#45;&gt;Node21</title>
<path fill="none" stroke="midnightblue" d="M1094.86,-165.12C1055.49,-151.424 988.2,-128.66 929.5,-112 879.161,-97.7132 820.359,-83.9728 782.562,-75.5142"/>
<polygon fill="midnightblue" stroke="midnightblue" points="1093.89,-168.488 1104.49,-168.481 1096.2,-161.879 1093.89,-168.488"/>
</g>
<!-- Node8 -->
<g id="node8" class="node"><title>Node8</title>
<g id="a_node8"><a xlink:href="group_8c.html" target="_top" xlink:title="implementation of some group communication receptors ">
<polygon fill="white" stroke="black" points="980,-56.5 980,-75.5 1045,-75.5 1045,-56.5 980,-56.5"/>
<text text-anchor="middle" x="1012.5" y="-63.5" font-family="Helvetica,sans-Serif" font-size="10.00">src/group.c</text>
</a>
</g>
</g>
<!-- Node7&#45;&gt;Node8 -->
<g id="edge7" class="edge"><title>Node7&#45;&gt;Node8</title>
<path fill="none" stroke="midnightblue" d="M1100.78,-108.096C1079.11,-98.0073 1049.6,-84.2697 1030.79,-75.5164"/>
<polygon fill="midnightblue" stroke="midnightblue" points="1099.58,-111.396 1110.12,-112.444 1102.53,-105.05 1099.58,-111.396"/>
</g>
<!-- Node9 -->
<g id="node9" class="node"><title>Node9</title>
<g id="a_node9"><a xlink:href="group__spec_8h.html" target="_top" xlink:title="spec/group_spec.h">
<polygon fill="white" stroke="black" points="1144,-56.5 1144,-75.5 1243,-75.5 1243,-56.5 1144,-56.5"/>
<text text-anchor="middle" x="1193.5" y="-63.5" font-family="Helvetica,sans-Serif" font-size="10.00">spec/group_spec.h</text>
</a>
</g>
</g>
<!-- Node7&#45;&gt;Node9 -->
<g id="edge8" class="edge"><title>Node7&#45;&gt;Node9</title>
<path fill="none" stroke="midnightblue" d="M1146.77,-105.82C1158.42,-96.1452 1173.1,-83.9481 1182.87,-75.8339"/>
<polygon fill="midnightblue" stroke="midnightblue" points="1144.4,-103.242 1138.94,-112.324 1148.87,-108.626 1144.4,-103.242"/>
</g>
<!-- Node10 -->
<g id="node10" class="node"><title>Node10</title>
<g id="a_node10"><a xlink:href="ceptr__specs_8c.html" target="_top" xlink:title="implements a main() entry point for running all the tests ">
<polygon fill="white" stroke="black" points="999.5,-0.5 999.5,-19.5 1101.5,-19.5 1101.5,-0.5 999.5,-0.5"/>
<text text-anchor="middle" x="1050.5" y="-7.5" font-family="Helvetica,sans-Serif" font-size="10.00">spec/ceptr_specs.c</text>
</a>
</g>
</g>
<!-- Node9&#45;&gt;Node10 -->
<g id="edge9" class="edge"><title>Node9&#45;&gt;Node10</title>
<path fill="none" stroke="midnightblue" d="M1161.47,-52.9058C1134.59,-42.7536 1096.86,-28.5063 1073.05,-19.5164"/>
<polygon fill="midnightblue" stroke="midnightblue" points="1160.25,-56.1851 1170.84,-56.4435 1162.72,-49.6364 1160.25,-56.1851"/>
</g>
<!-- Node14 -->
<g id="node14" class="node"><title>Node14</title>
<g id="a_node14"><a xlink:href="shell_8c.html" target="_top" xlink:title="implementation of a command line shell receptor ">
<polygon fill="white" stroke="black" points="1063.5,-56.5 1063.5,-75.5 1125.5,-75.5 1125.5,-56.5 1063.5,-56.5"/>
<text text-anchor="middle" x="1094.5" y="-63.5" font-family="Helvetica,sans-Serif" font-size="10.00">src/shell.c</text>
</a>
</g>
</g>
<!-- Node13&#45;&gt;Node14 -->
<g id="edge13" class="edge"><title>Node13&#45;&gt;Node14</title>
<path fill="none" stroke="midnightblue" d="M1061.23,-104.431C1069.64,-94.9673 1079.85,-83.4827 1086.72,-75.7511"/>
<polygon fill="midnightblue" stroke="midnightblue" points="1058.45,-102.284 1054.43,-112.083 1063.69,-106.934 1058.45,-102.284"/>
</g>
<!-- Node13&#45;&gt;Node15 -->
<g id="edge14" class="edge"><title>Node13&#45;&gt;Node15</title>
<path fill="none" stroke="midnightblue" d="M1015.25,-108.772C989.329,-98.6287 953.138,-84.4669 930.264,-75.5164"/>
<polygon fill="midnightblue" stroke="midnightblue" points="1014.05,-112.059 1024.63,-112.444 1016.6,-105.54 1014.05,-112.059"/>
</g>
<!-- Node15&#45;&gt;Node10 -->
<g id="edge15" class="edge"><title>Node15&#45;&gt;Node10</title>
<path fill="none" stroke="midnightblue" d="M940.655,-52.772C967.328,-42.6287 1004.57,-28.4669 1028.1,-19.5164"/>
<polygon fill="midnightblue" stroke="midnightblue" points="939.103,-49.6176 931,-56.4435 941.591,-56.1604 939.103,-49.6176"/>
</g>
<!-- Node17&#45;&gt;Node10 -->
<g id="edge18" class="edge"><title>Node17&#45;&gt;Node10</title>
<path fill="none" stroke="midnightblue" d="M1364.5,-55.0419C1288.32,-44.3562 1169.19,-27.6468 1101.68,-18.1785"/>
<polygon fill="midnightblue" stroke="midnightblue" points="1364.11,-58.5205 1374.5,-56.4435 1365.08,-51.5884 1364.11,-58.5205"/>
</g>
<!-- Node18&#45;&gt;Node10 -->
<g id="edge27" class="edge"><title>Node18&#45;&gt;Node10</title>
<path fill="none" stroke="midnightblue" d="M853.41,-103.76C843.69,-89.6611 834.353,-69.8599 845.5,-56 864.454,-32.4335 945.024,-20.5086 999.332,-15.0366"/>
<polygon fill="midnightblue" stroke="midnightblue" points="850.846,-106.175 859.642,-112.082 856.449,-101.979 850.846,-106.175"/>
</g>
<!-- Node18&#45;&gt;Node15 -->
<g id="edge26" class="edge"><title>Node18&#45;&gt;Node15</title>
<path fill="none" stroke="midnightblue" d="M880.517,-103.855C887.617,-94.5048 896.104,-83.3265 901.856,-75.7511"/>
<polygon fill="midnightblue" stroke="midnightblue" points="877.53,-102.002 874.27,-112.083 883.105,-106.235 877.53,-102.002"/>
</g>
<!-- Node18&#45;&gt;Node19 -->
<g id="edge20" class="edge"><title>Node18&#45;&gt;Node19</title>
<path fill="none" stroke="midnightblue" d="M931.408,-114.355C1007.71,-106.226 1139.11,-91.6097 1251.5,-76 1254.72,-75.553 1258.04,-75.0717 1261.38,-74.5723"/>
<polygon fill="midnightblue" stroke="midnightblue" points="930.591,-110.922 921.016,-115.458 931.33,-117.883 930.591,-110.922"/>
</g>
<!-- Node18&#45;&gt;Node20 -->
<g id="edge22" class="edge"><title>Node18&#45;&gt;Node20</title>
<path fill="none" stroke="midnightblue" d="M818.473,-110.281C771.796,-100.077 702.469,-84.9203 659.455,-75.5164"/>
<polygon fill="midnightblue" stroke="midnightblue" points="817.845,-113.727 828.362,-112.444 819.34,-106.888 817.845,-113.727"/>
</g>
<!-- Node18&#45;&gt;Node21 -->
<g id="edge24" class="edge"><title>Node18&#45;&gt;Node21</title>
<path fill="none" stroke="midnightblue" d="M838.493,-108.368C815.271,-98.2553 783.337,-84.3486 763.056,-75.5164"/>
<polygon fill="midnightblue" stroke="midnightblue" points="837.286,-111.66 847.852,-112.444 840.081,-105.242 837.286,-111.66"/>
</g>
<!-- Node19&#45;&gt;Node10 -->
<g id="edge21" class="edge"><title>Node19&#45;&gt;Node10</title>
<path fill="none" stroke="midnightblue" d="M1256.79,-54.3456C1208.22,-44.1405 1135.88,-28.94 1091.03,-19.5164"/>
<polygon fill="midnightblue" stroke="midnightblue" points="1256.27,-57.8124 1266.78,-56.4435 1257.71,-50.962 1256.27,-57.8124"/>
</g>
<!-- Node20&#45;&gt;Node10 -->
<g id="edge23" class="edge"><title>Node20&#45;&gt;Node10</title>
<path fill="none" stroke="midnightblue" d="M680.803,-55.8561C800.895,-39.5341 929.791,-24.5663 999.427,-16.6931"/>
<polygon fill="midnightblue" stroke="midnightblue" points="680.132,-52.4152 670.697,-57.2358 681.078,-59.3509 680.132,-52.4152"/>
</g>
<!-- Node21&#45;&gt;Node10 -->
<g id="edge25" class="edge"><title>Node21&#45;&gt;Node10</title>
<path fill="none" stroke="midnightblue" d="M802.261,-54.6642C860.278,-44.4592 947.947,-29.0386 1002.08,-19.5164"/>
<polygon fill="midnightblue" stroke="midnightblue" points="801.388,-51.264 792.145,-56.4435 802.6,-58.1582 801.388,-51.264"/>
</g>
<!-- Node24&#45;&gt;Node8 -->
<g id="edge38" class="edge"><title>Node24&#45;&gt;Node8</title>
<path fill="none" stroke="midnightblue" d="M662.738,-159.495C672.649,-144.264 689.145,-122.961 709.5,-112 812.6,-56.4806 855.172,-96.2816 970.5,-76 973.585,-75.4575 976.788,-74.8508 979.987,-74.2155"/>
<polygon fill="midnightblue" stroke="midnightblue" points="659.731,-157.702 657.441,-168.047 665.682,-161.388 659.731,-157.702"/>
</g>
<!-- Node24&#45;&gt;Node12 -->
<g id="edge40" class="edge"><title>Node24&#45;&gt;Node12</title>
<path fill="none" stroke="midnightblue" d="M678.31,-163.726C697.753,-153.727 723.848,-140.307 740.672,-131.655"/>
<polygon fill="midnightblue" stroke="midnightblue" points="676.662,-160.638 669.37,-168.324 679.864,-166.863 676.662,-160.638"/>
</g>
<!-- Node24&#45;&gt;Node15 -->
<g id="edge43" class="edge"><title>Node24&#45;&gt;Node15</title>
<path fill="none" stroke="midnightblue" d="M654.455,-158.276C657.014,-143.511 662.913,-123.545 676.5,-112 702.841,-89.6171 795.016,-77.2038 854.949,-71.333"/>
<polygon fill="midnightblue" stroke="midnightblue" points="650.968,-157.945 653.078,-168.328 657.903,-158.896 650.968,-157.945"/>
</g>
<!-- Node24&#45;&gt;Node18 -->
<g id="edge41" class="edge"><title>Node24&#45;&gt;Node18</title>
<path fill="none" stroke="midnightblue" d="M696.46,-165.959C737.067,-155.76 796.543,-140.822 833.592,-131.516"/>
<polygon fill="midnightblue" stroke="midnightblue" points="695.414,-162.613 686.567,-168.444 697.119,-169.402 695.414,-162.613"/>
</g>
<!-- Node24&#45;&gt;Node21 -->
<g id="edge42" class="edge"><title>Node24&#45;&gt;Node21</title>
<path fill="none" stroke="midnightblue" d="M641.891,-159.233C635.117,-145.352 629.193,-126.114 638.5,-112 651.11,-92.8764 673.715,-81.8489 694.729,-75.5047"/>
<polygon fill="midnightblue" stroke="midnightblue" points="638.93,-161.115 646.768,-168.243 645.086,-157.782 638.93,-161.115"/>
</g>
<!-- Node24&#45;&gt;Node22 -->
<g id="edge39" class="edge"><title>Node24&#45;&gt;Node22</title>
<path fill="none" stroke="midnightblue" d="M620.345,-164.772C593.672,-154.629 556.431,-140.467 532.895,-131.516"/>
<polygon fill="midnightblue" stroke="midnightblue" points="619.409,-168.16 630,-168.444 621.897,-161.618 619.409,-168.16"/>
</g>
<!-- Node24&#45;&gt;Node23 -->
<g id="edge37" class="edge"><title>Node24&#45;&gt;Node23</title>
<path fill="none" stroke="midnightblue" d="M604.377,-166.217C558.838,-156.013 491.39,-140.901 449.509,-131.516"/>
<polygon fill="midnightblue" stroke="midnightblue" points="603.79,-169.672 614.313,-168.444 605.32,-162.842 603.79,-169.672"/>
</g>
<!-- Node25 -->
<g id="node25" class="node"><title>Node25</title>
<g id="a_node25"><a xlink:href="protocol__spec_8h.html" target="_top" xlink:title="spec/protocol_spec.h">
<polygon fill="white" stroke="black" points="442.5,-56.5 442.5,-75.5 552.5,-75.5 552.5,-56.5 442.5,-56.5"/>
<text text-anchor="middle" x="497.5" y="-63.5" font-family="Helvetica,sans-Serif" font-size="10.00">spec/protocol_spec.h</text>
</a>
</g>
</g>
<!-- Node24&#45;&gt;Node25 -->
<g id="edge44" class="edge"><title>Node24&#45;&gt;Node25</title>
<path fill="none" stroke="midnightblue" d="M631.951,-162.417C599.168,-139.151 536.039,-94.3501 509.606,-75.5914"/>
<polygon fill="midnightblue" stroke="midnightblue" points="630.157,-165.435 640.337,-168.368 634.208,-159.727 630.157,-165.435"/>
</g>
<!-- Node25&#45;&gt;Node10 -->
<g id="edge45" class="edge"><title>Node25&#45;&gt;Node10</title>
<path fill="none" stroke="midnightblue" d="M563.015,-55.8741C728.644,-36.8299 912.129,-21.7141 999.377,-14.8928"/>
<polygon fill="midnightblue" stroke="midnightblue" points="562.168,-52.4488 552.636,-57.0754 562.973,-59.4024 562.168,-52.4488"/>
</g>
<!-- Node28&#45;&gt;Node10 -->
<g id="edge51" class="edge"><title>Node28&#45;&gt;Node10</title>
<path fill="none" stroke="midnightblue" d="M1538.67,-166.161C1572.79,-158.109 1612.26,-146.108 1622.5,-132 1627.72,-124.806 1627.2,-119.545 1622.5,-112 1567.65,-23.9453 1231.48,-12.1906 1101.62,-10.9686"/>
<polygon fill="midnightblue" stroke="midnightblue" points="1537.72,-162.787 1528.75,-168.428 1539.28,-169.611 1537.72,-162.787"/>
</g>
<!-- Node29&#45;&gt;Node10 -->
<g id="edge53" class="edge"><title>Node29&#45;&gt;Node10</title>
<path fill="none" stroke="midnightblue" d="M1622.12,-160.938C1634.22,-147.858 1646.75,-128.864 1638.5,-112 1620.69,-75.5827 1604.24,-70.8114 1566.5,-56 1482.79,-23.1459 1214.94,-14.1605 1101.76,-11.8015"/>
<polygon fill="midnightblue" stroke="midnightblue" points="1619.41,-158.696 1614.82,-168.246 1624.36,-163.642 1619.41,-158.696"/>
</g>
<!-- Node30&#45;&gt;Node10 -->
<g id="edge58" class="edge"><title>Node30&#45;&gt;Node10</title>
<path fill="none" stroke="midnightblue" d="M1711.43,-159.643C1692.77,-132.092 1652.17,-79.1084 1602.5,-56 1514.34,-14.9858 1220.94,-10.69 1101.62,-10.6941"/>
<polygon fill="midnightblue" stroke="midnightblue" points="1708.67,-161.815 1717.1,-168.237 1714.51,-157.962 1708.67,-161.815"/>
</g>
<!-- Node31&#45;&gt;Node10 -->
<g id="edge61" class="edge"><title>Node31&#45;&gt;Node10</title>
<path fill="none" stroke="midnightblue" d="M69.9685,-218.489C118.699,-183.091 251.106,-92.543 377.5,-56 494.072,-22.2967 862.984,-13.6706 999.261,-11.6075"/>
<polygon fill="midnightblue" stroke="midnightblue" points="67.8587,-215.696 61.8635,-224.431 71.9977,-221.341 67.8587,-215.696"/>
</g>
<!-- Node32&#45;&gt;Node10 -->
<g id="edge63" class="edge"><title>Node32&#45;&gt;Node10</title>
<path fill="none" stroke="midnightblue" d="M192.439,-216.887C229.012,-178.875 327.804,-84.6506 433.5,-56 539.753,-27.1984 871.487,-15.6681 999.445,-12.2171"/>
<polygon fill="midnightblue" stroke="midnightblue" points="189.568,-214.828 185.232,-224.495 194.65,-219.642 189.568,-214.828"/>
</g>
<!-- Node34&#45;&gt;Node10 -->
<g id="edge66" class="edge"><title>Node34&#45;&gt;Node10</title>
<path fill="none" stroke="midnightblue" d="M1701.61,-277.239C1744.48,-262.156 1805.5,-231.473 1805.5,-179 1805.5,-179 1805.5,-179 1805.5,-121 1805.5,-38.8631 1712.69,-73.7872 1632.5,-56 1440.06,-13.3141 1204.09,-9.51481 1101.81,-10.1529"/>
<polygon fill="midnightblue" stroke="midnightblue" points="1700.33,-273.979 1691.96,-280.482 1702.56,-280.614 1700.33,-273.979"/>
</g>
</g>
</svg>
        <g id="navigator" transform="translate(0 0)" fill="#404254">
                <rect fill="#f2f5e9" fill-opacity="0.5" stroke="#606060" stroke-width=".5" x="0" y="0" width="60" height="60"/>
                <use id="zoomplus" xlink:href="#zoomPlus" x="17" y="9" onmousedown="handleZoom(evt,'in')"/>
                <use id="zoomminus" xlink:href="#zoomMin" x="42" y="9" onmousedown="handleZoom(evt,'out')"/>
                <use id="reset" xlink:href="#resetDef" x="30" y="36" onmousedown="handleReset()"/>
                <g id="arrowUp" xlink:href="#dirArrow" transform="translate(30 24)" onmousedown="handlePan(0,-1)">
                  <use xlink:href="#rim" fill="#404040">
                        <set attributeName="fill" to="#808080" begin="arrowUp.mouseover" end="arrowUp.mouseout"/>
                  </use>
                  <path fill="none" stroke="white" stroke-width="1.5" d="M0,-3.0v7 M-2.5,-0.5L0,-3.0L2.5,-0.5"/>
                </g>
                <g id="arrowRight" xlink:href="#dirArrow" transform="rotate(90) translate(36 -43)" onmousedown="handlePan(1,0)">
                  <use xlink:href="#rim" fill="#404040">
                        <set attributeName="fill" to="#808080" begin="arrowRight.mouseover" end="arrowRight.mouseout"/>
                  </use>
                  <path fill="none" stroke="white" stroke-width="1.5" d="M0,-3.0v7 M-2.5,-0.5L0,-3.0L2.5,-0.5"/>
                </g>
                <g id="arrowDown" xlink:href="#dirArrow" transform="rotate(180) translate(-30 -48)" onmousedown="handlePan(0,1)">
                  <use xlink:href="#rim" fill="#404040">
                        <set attributeName="fill" to="#808080" begin="arrowDown.mouseover" end="arrowDown.mouseout"/>
                  </use>
                  <path fill="none" stroke="white" stroke-width="1.5" d="M0,-3.0v7 M-2.5,-0.5L0,-3.0L2.5,-0.5"/>
                </g>
                <g id="arrowLeft" xlink:href="#dirArrow" transform="rotate(270) translate(-36 17)" onmousedown="handlePan(-1,0)">
                  <use xlink:href="#rim" fill="#404040">
                        <set attributeName="fill" to="#808080" begin="arrowLeft.mouseover" end="arrowLeft.mouseout"/>
                  </use>
                  <path fill="none" stroke="white" stroke-width="1.5" d="M0,-3.0v7 M-2.5,-0.5L0,-3.0L2.5,-0.5"/>
                </g>
        </g>
        <svg viewBox="0 0 15 15" width="100%" height="30px" preserveAspectRatio="xMaxYMin meet">
         <g id="arrow_out" transform="scale(0.3 0.3)">
          <a xlink:href="label_8h__dep__incl_org.svg" target="_base">
           <rect id="button" ry="5" rx="5" y="6" x="6" height="38" width="38"
                fill="#f2f5e9" fill-opacity="0.5" stroke="#606060" stroke-width="1.0"/>
           <path id="arrow"
             d="M 11.500037,31.436501 C 11.940474,20.09759 22.043105,11.32322 32.158766,21.979434 L 37.068811,17.246167 C 37.068811,17.246167 37.088388,32 37.088388,32 L 22.160133,31.978069 C 22.160133,31.978069 26.997745,27.140456 26.997745,27.140456 C 18.528582,18.264221 13.291696,25.230495 11.500037,31.436501 z"
             style="fill:#404040;"/>
          </a>
         </g>
        </svg>
</svg>
