<?xml version="1.0" encoding="UTF-8" standalone="no"?>
<!DOCTYPE svg PUBLIC "-//W3C//DTD SVG 1.1//EN"
 "http://www.w3.org/Graphics/SVG/1.1/DTD/svg11.dtd">
<!-- Generated by graphviz version 2.38.0 (20140413.2041)
 -->
<!-- Title: src/label.c Pages: 1 -->
<!--zoomable 364 -->
<svg id="main" version="1.1" xmlns="http://www.w3.org/2000/svg" xmlns:xlink="http://www.w3.org/1999/xlink" xml:space="preserve" onload="init(evt)">
<style type="text/css"><![CDATA[
.edge:hover path { stroke: red; }
.edge:hover polygon { stroke: red; fill: red; }
]]></style>
<script type="text/javascript"><![CDATA[
var edges = document.getElementsByTagName('g');
if (edges && edges.length) {
  for (var i=0;i<edges.length;i++) {
    if (edges[i].id.substr(0,4)=='edge') {
      edges[i].setAttribute('class','edge');
    }
  }
}
]]></script>
        <defs>
                <circle id="rim" cx="0" cy="0" r="7"/>
                <circle id="rim2" cx="0" cy="0" r="3.5"/>
                <g id="zoomPlus">
                        <use xlink:href="#rim" fill="#404040">
                                <set attributeName="fill" to="#808080" begin="zoomplus.mouseover" end="zoomplus.mouseout"/>
                        </use>
                        <path d="M-4,0h8M0,-4v8" fill="none" stroke="white" stroke-width="1.5" pointer-events="none"/>
                </g>
                <g id="zoomMin">
                        <use xlink:href="#rim" fill="#404040">
                                <set attributeName="fill" to="#808080" begin="zoomminus.mouseover" end="zoomminus.mouseout"/>
                        </use>
                        <path d="M-4,0h8" fill="none" stroke="white" stroke-width="1.5" pointer-events="none"/>
                </g>
                <g id="dirArrow">
                        <path fill="none" stroke="white" stroke-width="1.5" d="M0,-3.0v7 M-2.5,-0.5L0,-3.0L2.5,-0.5"/>
                </g>
               <g id="resetDef">
                       <use xlink:href="#rim2" fill="#404040">
                               <set attributeName="fill" to="#808080" begin="reset.mouseover" end="reset.mouseout"/>
                       </use>
               </g>
        </defs>

<script type="text/javascript">
var viewWidth = 616;
var viewHeight = 364;
var sectionId = 'dynsection-0';
</script>
<script xlink:href="svgpan.js"/>
<svg id="graph" class="graph">
<g id="viewport">
<title>src/label.c</title>
<polygon fill="white" stroke="none" points="-4,4 -4,-360 612,-360 612,4 -4,4"/>
<!-- Node1 -->
<g id="node1" class="node"><title>Node1</title>
<polygon fill="#bfbfbf" stroke="black" points="457,-336.5 457,-355.5 519,-355.5 519,-336.5 457,-336.5"/>
<text text-anchor="middle" x="488" y="-343.5" font-family="Helvetica,sans-Serif" font-size="10.00">src/label.c</text>
</g>
<!-- Node2 -->
<g id="node2" class="node"><title>Node2</title>
<g id="a_node2"><a xlink:href="label_8h.html" target="_top" xlink:title="Label tables map human readable text strings to parts of semantic trees. ">
<polygon fill="white" stroke="black" points="465.5,-280.5 465.5,-299.5 510.5,-299.5 510.5,-280.5 465.5,-280.5"/>
<text text-anchor="middle" x="488" y="-287.5" font-family="Helvetica,sans-Serif" font-size="10.00">label.h</text>
</a>
</g>
</g>
<!-- Node1&#45;&gt;Node2 -->
<g id="edge1" class="edge"><title>Node1&#45;&gt;Node2</title>
<path fill="none" stroke="midnightblue" d="M488,-336.083C488,-329.006 488,-318.861 488,-309.986"/>
<polygon fill="midnightblue" stroke="midnightblue" points="491.5,-309.751 488,-299.751 484.5,-309.751 491.5,-309.751"/>
</g>
<!-- Node11 -->
<g id="node11" class="node"><title>Node11</title>
<g id="a_node11"><a xlink:href="tree_8h.html" target="_top" xlink:title="semantic trees header file ">
<polygon fill="white" stroke="black" points="335.5,-280.5 335.5,-299.5 376.5,-299.5 376.5,-280.5 335.5,-280.5"/>
<text text-anchor="middle" x="356" y="-287.5" font-family="Helvetica,sans-Serif" font-size="10.00">tree.h</text>
</a>
</g>
</g>
<!-- Node1&#45;&gt;Node11 -->
<g id="edge10" class="edge"><title>Node1&#45;&gt;Node11</title>
<path fill="none" stroke="midnightblue" d="M467.084,-336.444C445.264,-327.517 410.85,-313.439 386.108,-303.317"/>
<polygon fill="midnightblue" stroke="midnightblue" points="387.399,-300.063 376.818,-299.516 384.748,-306.542 387.399,-300.063"/>
</g>
<!-- Node19 -->
<g id="node19" class="node"><title>Node19</title>
<g id="a_node19"><a xlink:href="hashfn_8h_source.html" target="_top" xlink:title="hashfn.h">
<polygon fill="white" stroke="black" points="554,-112.5 554,-131.5 608,-131.5 608,-112.5 554,-112.5"/>
<text text-anchor="middle" x="581" y="-119.5" font-family="Helvetica,sans-Serif" font-size="10.00">hashfn.h</text>
</a>
</g>
</g>
<!-- Node1&#45;&gt;Node19 -->
<g id="edge25" class="edge"><title>Node1&#45;&gt;Node19</title>
<path fill="none" stroke="midnightblue" d="M494.846,-336.439C501.624,-327.671 511.977,-313.457 519,-300 547.433,-245.518 567.642,-175.157 576.298,-141.949"/>
<polygon fill="midnightblue" stroke="midnightblue" points="579.797,-142.393 578.873,-131.839 573.013,-140.666 579.797,-142.393"/>
</g>
<!-- Node3 -->
<g id="node3" class="node"><title>Node3</title>
<g id="a_node3"><a xlink:href="ceptr__types_8h_source.html" target="_top" xlink:title="ceptr_types.h">
<polygon fill="white" stroke="black" points="369,-112.5 369,-131.5 445,-131.5 445,-112.5 369,-112.5"/>
<text text-anchor="middle" x="407" y="-119.5" font-family="Helvetica,sans-Serif" font-size="10.00">ceptr_types.h</text>
</a>
</g>
</g>
<!-- Node2&#45;&gt;Node3 -->
<g id="edge2" class="edge"><title>Node2&#45;&gt;Node3</title>
<path fill="none" stroke="midnightblue" d="M486.423,-280.27C482.422,-259.614 470.559,-206.582 448,-168 441.758,-157.325 432.658,-147.008 424.616,-138.952"/>
<polygon fill="midnightblue" stroke="midnightblue" points="426.712,-136.113 417.071,-131.72 421.868,-141.166 426.712,-136.113"/>
</g>
<!-- Node4 -->
<g id="node4" class="node"><title>Node4</title>
<polygon fill="white" stroke="#bfbfbf" points="555.5,-56.5 555.5,-75.5 604.5,-75.5 604.5,-56.5 555.5,-56.5"/>
<text text-anchor="middle" x="580" y="-63.5" font-family="Helvetica,sans-Serif" font-size="10.00">stdint.h</text>
</g>
<!-- Node3&#45;&gt;Node4 -->
<g id="edge3" class="edge"><title>Node3&#45;&gt;Node4</title>
<path fill="none" stroke="midnightblue" d="M434.412,-112.444C464.546,-103.038 513.007,-87.9112 545.653,-77.7212"/>
<polygon fill="midnightblue" stroke="midnightblue" points="546.736,-81.0497 555.238,-74.729 544.65,-74.3677 546.736,-81.0497"/>
</g>
<!-- Node5 -->
<g id="node5" class="node"><title>Node5</title>
<polygon fill="white" stroke="#bfbfbf" points="263,-56.5 263,-75.5 309,-75.5 309,-56.5 263,-56.5"/>
<text text-anchor="middle" x="286" y="-63.5" font-family="Helvetica,sans-Serif" font-size="10.00">stdio.h</text>
</g>
<!-- Node3&#45;&gt;Node5 -->
<g id="edge4" class="edge"><title>Node3&#45;&gt;Node5</title>
<path fill="none" stroke="midnightblue" d="M387.827,-112.444C368.091,-103.636 337.115,-89.8116 314.507,-79.722"/>
<polygon fill="midnightblue" stroke="midnightblue" points="315.641,-76.3957 305.083,-75.5164 312.789,-82.788 315.641,-76.3957"/>
</g>
<!-- Node6 -->
<g id="node6" class="node"><title>Node6</title>
<g id="a_node6"><a xlink:href="uthash_8h_source.html" target="_top" xlink:title="uthash.h">
<polygon fill="white" stroke="black" points="380,-56.5 380,-75.5 434,-75.5 434,-56.5 380,-56.5"/>
<text text-anchor="middle" x="407" y="-63.5" font-family="Helvetica,sans-Serif" font-size="10.00">uthash.h</text>
</a>
</g>
</g>
<!-- Node3&#45;&gt;Node6 -->
<g id="edge5" class="edge"><title>Node3&#45;&gt;Node6</title>
<path fill="none" stroke="midnightblue" d="M407,-112.083C407,-105.006 407,-94.8611 407,-85.9865"/>
<polygon fill="midnightblue" stroke="midnightblue" points="410.5,-85.751 407,-75.7511 403.5,-85.7511 410.5,-85.751"/>
</g>
<!-- Node7 -->
<g id="node7" class="node"><title>Node7</title>
<polygon fill="white" stroke="#bfbfbf" points="474.5,-0.5 474.5,-19.5 523.5,-19.5 523.5,-0.5 474.5,-0.5"/>
<text text-anchor="middle" x="499" y="-7.5" font-family="Helvetica,sans-Serif" font-size="10.00">string.h</text>
</g>
<!-- Node6&#45;&gt;Node7 -->
<g id="edge6" class="edge"><title>Node6&#45;&gt;Node7</title>
<path fill="none" stroke="midnightblue" d="M421.781,-56.324C436.267,-47.8215 458.573,-34.7288 475.493,-24.7975"/>
<polygon fill="midnightblue" stroke="midnightblue" points="477.403,-27.735 484.255,-19.6545 473.859,-21.6981 477.403,-27.735"/>
</g>
<!-- Node8 -->
<g id="node8" class="node"><title>Node8</title>
<polygon fill="white" stroke="#bfbfbf" points="320,-0.5 320,-19.5 372,-19.5 372,-0.5 320,-0.5"/>
<text text-anchor="middle" x="346" y="-7.5" font-family="Helvetica,sans-Serif" font-size="10.00">stddef.h</text>
</g>
<!-- Node6&#45;&gt;Node8 -->
<g id="edge7" class="edge"><title>Node6&#45;&gt;Node8</title>
<path fill="none" stroke="midnightblue" d="M397.199,-56.324C388.182,-48.3414 374.594,-36.3128 363.682,-26.6529"/>
<polygon fill="midnightblue" stroke="midnightblue" points="365.787,-23.8416 355.979,-19.8339 361.147,-29.083 365.787,-23.8416"/>
</g>
<!-- Node9 -->
<g id="node9" class="node"><title>Node9</title>
<polygon fill="white" stroke="#bfbfbf" points="105,-0.5 105,-19.5 153,-19.5 153,-0.5 105,-0.5"/>
<text text-anchor="middle" x="129" y="-7.5" font-family="Helvetica,sans-Serif" font-size="10.00">stdlib.h</text>
</g>
<!-- Node6&#45;&gt;Node9 -->
<g id="edge8" class="edge"><title>Node6&#45;&gt;Node9</title>
<path fill="none" stroke="midnightblue" d="M379.838,-59.7239C328.882,-49.826 219.061,-28.4939 163.173,-17.638"/>
<polygon fill="midnightblue" stroke="midnightblue" points="163.554,-14.1466 153.07,-15.6755 162.219,-21.0181 163.554,-14.1466"/>
</g>
<!-- Node10 -->
<g id="node10" class="node"><title>Node10</title>
<polygon fill="white" stroke="#bfbfbf" points="390.5,-0.5 390.5,-19.5 449.5,-19.5 449.5,-0.5 390.5,-0.5"/>
<text text-anchor="middle" x="420" y="-7.5" font-family="Helvetica,sans-Serif" font-size="10.00">inttypes.h</text>
</g>
<!-- Node6&#45;&gt;Node10 -->
<g id="edge9" class="edge"><title>Node6&#45;&gt;Node10</title>
<path fill="none" stroke="midnightblue" d="M409.147,-56.083C410.869,-48.9272 413.347,-38.6353 415.5,-29.6911"/>
<polygon fill="midnightblue" stroke="midnightblue" points="418.955,-30.2925 417.893,-19.7511 412.15,-28.6541 418.955,-30.2925"/>
</g>
<!-- Node11&#45;&gt;Node3 -->
<g id="edge22" class="edge"><title>Node11&#45;&gt;Node3</title>
<path fill="none" stroke="midnightblue" d="M352.053,-280.18C346.962,-267.69 339.188,-244.127 343,-224 347.976,-197.726 350.736,-190.619 365,-168 371.739,-157.314 381.21,-146.901 389.454,-138.788"/>
<polygon fill="midnightblue" stroke="midnightblue" points="391.999,-141.198 396.851,-131.78 387.185,-136.116 391.999,-141.198"/>
</g>
<!-- Node11&#45;&gt;Node7 -->
<g id="edge11" class="edge"><title>Node11&#45;&gt;Node7</title>
<path fill="none" stroke="midnightblue" d="M376.506,-285.67C421.721,-277.036 526,-249.483 526,-179 526,-179 526,-179 526,-121 526,-87.8606 514.299,-50.6823 506.303,-29.1445"/>
<polygon fill="midnightblue" stroke="midnightblue" points="509.509,-27.7302 502.641,-19.6622 502.978,-30.2517 509.509,-27.7302"/>
</g>
<!-- Node11&#45;&gt;Node9 -->
<g id="edge12" class="edge"><title>Node11&#45;&gt;Node9</title>
<path fill="none" stroke="midnightblue" d="M335.321,-287.16C259.342,-279.839 0,-249.672 0,-179 0,-179 0,-179 0,-121 0,-71.0163 56.7687,-38.9412 94.9881,-23.0105"/>
<polygon fill="midnightblue" stroke="midnightblue" points="96.7426,-26.0791 104.736,-19.1253 94.1509,-19.5765 96.7426,-26.0791"/>
</g>
<!-- Node12 -->
<g id="node12" class="node"><title>Node12</title>
<g id="a_node12"><a xlink:href="ceptr__error_8h_source.html" target="_top" xlink:title="ceptr_error.h">
<polygon fill="white" stroke="black" points="124.5,-224.5 124.5,-243.5 195.5,-243.5 195.5,-224.5 124.5,-224.5"/>
<text text-anchor="middle" x="160" y="-231.5" font-family="Helvetica,sans-Serif" font-size="10.00">ceptr_error.h</text>
</a>
</g>
</g>
<!-- Node11&#45;&gt;Node12 -->
<g id="edge13" class="edge"><title>Node11&#45;&gt;Node12</title>
<path fill="none" stroke="midnightblue" d="M335.395,-283.323C303.525,-274.542 241.671,-257.501 200.597,-246.185"/>
<polygon fill="midnightblue" stroke="midnightblue" points="201.459,-242.792 190.889,-243.51 199.6,-249.541 201.459,-242.792"/>
</g>
<!-- Node16 -->
<g id="node16" class="node"><title>Node16</title>
<g id="a_node16"><a xlink:href="sys__defs_8h.html" target="_top" xlink:title="Defines types and vars for system defined semantics. ">
<polygon fill="white" stroke="black" points="374.5,-168.5 374.5,-187.5 439.5,-187.5 439.5,-168.5 374.5,-168.5"/>
<text text-anchor="middle" x="407" y="-175.5" font-family="Helvetica,sans-Serif" font-size="10.00">sys_defs.h</text>
</a>
</g>
</g>
<!-- Node11&#45;&gt;Node16 -->
<g id="edge18" class="edge"><title>Node11&#45;&gt;Node16</title>
<path fill="none" stroke="midnightblue" d="M376.744,-282.953C394.678,-276.5 419.478,-264.349 431,-244 439.751,-228.543 430.423,-209.293 420.96,-195.767"/>
<polygon fill="midnightblue" stroke="midnightblue" points="423.746,-193.649 414.911,-187.803 418.172,-197.883 423.746,-193.649"/>
</g>
<!-- Node17 -->
<g id="node17" class="node"><title>Node17</title>
<g id="a_node17"><a xlink:href="base__defs_8h.html" target="_top" xlink:title="auto&#45;generated system definitions ">
<polygon fill="white" stroke="black" points="352,-224.5 352,-243.5 422,-243.5 422,-224.5 352,-224.5"/>
<text text-anchor="middle" x="387" y="-231.5" font-family="Helvetica,sans-Serif" font-size="10.00">base_defs.h</text>
</a>
</g>
</g>
<!-- Node11&#45;&gt;Node17 -->
<g id="edge20" class="edge"><title>Node11&#45;&gt;Node17</title>
<path fill="none" stroke="midnightblue" d="M361.119,-280.083C365.408,-272.613 371.658,-261.724 376.942,-252.52"/>
<polygon fill="midnightblue" stroke="midnightblue" points="380.033,-254.166 381.976,-243.751 373.962,-250.681 380.033,-254.166"/>
</g>
<!-- Node18 -->
<g id="node18" class="node"><title>Node18</title>
<g id="a_node18"><a xlink:href="stream_8h.html" target="_top" xlink:title="streams abstraction header file ">
<polygon fill="white" stroke="black" points="258.5,-112.5 258.5,-131.5 313.5,-131.5 313.5,-112.5 258.5,-112.5"/>
<text text-anchor="middle" x="286" y="-119.5" font-family="Helvetica,sans-Serif" font-size="10.00">stream.h</text>
</a>
</g>
</g>
<!-- Node11&#45;&gt;Node18 -->
<g id="edge23" class="edge"><title>Node11&#45;&gt;Node18</title>
<path fill="none" stroke="midnightblue" d="M352.236,-280.075C341.17,-253.832 308.579,-176.545 293.64,-141.117"/>
<polygon fill="midnightblue" stroke="midnightblue" points="296.724,-139.422 289.613,-131.568 290.274,-142.142 296.724,-139.422"/>
</g>
<!-- Node12&#45;&gt;Node5 -->
<g id="edge14" class="edge"><title>Node12&#45;&gt;Node5</title>
<path fill="none" stroke="midnightblue" d="M124.316,-225.62C87.4235,-216.229 37.716,-197.582 57,-168 100.845,-100.743 200.693,-77.9579 252.863,-70.4856"/>
<polygon fill="midnightblue" stroke="midnightblue" points="253.48,-73.9345 262.932,-69.1497 252.559,-66.9953 253.48,-73.9345"/>
</g>
<!-- Node13 -->
<g id="node13" class="node"><title>Node13</title>
<polygon fill="white" stroke="#bfbfbf" points="66,-168.5 66,-187.5 116,-187.5 116,-168.5 66,-168.5"/>
<text text-anchor="middle" x="91" y="-175.5" font-family="Helvetica,sans-Serif" font-size="10.00">signal.h</text>
</g>
<!-- Node12&#45;&gt;Node13 -->
<g id="edge15" class="edge"><title>Node12&#45;&gt;Node13</title>
<path fill="none" stroke="midnightblue" d="M148.914,-224.324C138.514,-216.185 122.739,-203.839 110.278,-194.087"/>
<polygon fill="midnightblue" stroke="midnightblue" points="112.32,-191.241 102.288,-187.834 108.006,-196.753 112.32,-191.241"/>
</g>
<!-- Node14 -->
<g id="node14" class="node"><title>Node14</title>
<polygon fill="white" stroke="#bfbfbf" points="134,-168.5 134,-187.5 186,-187.5 186,-168.5 134,-168.5"/>
<text text-anchor="middle" x="160" y="-175.5" font-family="Helvetica,sans-Serif" font-size="10.00">assert.h</text>
</g>
<!-- Node12&#45;&gt;Node14 -->
<g id="edge16" class="edge"><title>Node12&#45;&gt;Node14</title>
<path fill="none" stroke="midnightblue" d="M160,-224.083C160,-217.006 160,-206.861 160,-197.986"/>
<polygon fill="midnightblue" stroke="midnightblue" points="163.5,-197.751 160,-187.751 156.5,-197.751 163.5,-197.751"/>
</g>
<!-- Node15 -->
<g id="node15" class="node"><title>Node15</title>
<polygon fill="white" stroke="#bfbfbf" points="204,-168.5 204,-187.5 258,-187.5 258,-168.5 204,-168.5"/>
<text text-anchor="middle" x="231" y="-175.5" font-family="Helvetica,sans-Serif" font-size="10.00">setjmp.h</text>
</g>
<!-- Node12&#45;&gt;Node15 -->
<g id="edge17" class="edge"><title>Node12&#45;&gt;Node15</title>
<path fill="none" stroke="midnightblue" d="M171.407,-224.324C182.109,-216.185 198.341,-203.839 211.163,-194.087"/>
<polygon fill="midnightblue" stroke="midnightblue" points="213.544,-196.673 219.385,-187.834 209.307,-191.102 213.544,-196.673"/>
</g>
<!-- Node16&#45;&gt;Node3 -->
<g id="edge19" class="edge"><title>Node16&#45;&gt;Node3</title>
<path fill="none" stroke="midnightblue" d="M407,-168.083C407,-161.006 407,-150.861 407,-141.986"/>
<polygon fill="midnightblue" stroke="midnightblue" points="410.5,-141.751 407,-131.751 403.5,-141.751 410.5,-141.751"/>
</g>
<!-- Node17&#45;&gt;Node16 -->
<g id="edge21" class="edge"><title>Node17&#45;&gt;Node16</title>
<path fill="none" stroke="midnightblue" d="M390.303,-224.083C392.982,-216.849 396.849,-206.409 400.186,-197.397"/>
<polygon fill="midnightblue" stroke="midnightblue" points="403.568,-198.344 403.759,-187.751 397.004,-195.913 403.568,-198.344"/>
</g>
<!-- Node18&#45;&gt;Node5 -->
<g id="edge24" class="edge"><title>Node18&#45;&gt;Node5</title>
<path fill="none" stroke="midnightblue" d="M286,-112.083C286,-105.006 286,-94.8611 286,-85.9865"/>
<polygon fill="midnightblue" stroke="midnightblue" points="289.5,-85.751 286,-75.7511 282.5,-85.7511 289.5,-85.751"/>
</g>
<!-- Node19&#45;&gt;Node4 -->
<g id="edge26" class="edge"><title>Node19&#45;&gt;Node4</title>
<path fill="none" stroke="midnightblue" d="M580.835,-112.083C580.704,-105.006 580.516,-94.8611 580.352,-85.9865"/>
<polygon fill="midnightblue" stroke="midnightblue" points="583.847,-85.6845 580.162,-75.7511 576.848,-85.8142 583.847,-85.6845"/>
</g>
</g>
</svg>
        <g id="navigator" transform="translate(0 0)" fill="#404254">
                <rect fill="#f2f5e9" fill-opacity="0.5" stroke="#606060" stroke-width=".5" x="0" y="0" width="60" height="60"/>
                <use id="zoomplus" xlink:href="#zoomPlus" x="17" y="9" onmousedown="handleZoom(evt,'in')"/>
                <use id="zoomminus" xlink:href="#zoomMin" x="42" y="9" onmousedown="handleZoom(evt,'out')"/>
                <use id="reset" xlink:href="#resetDef" x="30" y="36" onmousedown="handleReset()"/>
                <g id="arrowUp" xlink:href="#dirArrow" transform="translate(30 24)" onmousedown="handlePan(0,-1)">
                  <use xlink:href="#rim" fill="#404040">
                        <set attributeName="fill" to="#808080" begin="arrowUp.mouseover" end="arrowUp.mouseout"/>
                  </use>
                  <path fill="none" stroke="white" stroke-width="1.5" d="M0,-3.0v7 M-2.5,-0.5L0,-3.0L2.5,-0.5"/>
                </g>
                <g id="arrowRight" xlink:href="#dirArrow" transform="rotate(90) translate(36 -43)" onmousedown="handlePan(1,0)">
                  <use xlink:href="#rim" fill="#404040">
                        <set attributeName="fill" to="#808080" begin="arrowRight.mouseover" end="arrowRight.mouseout"/>
                  </use>
                  <path fill="none" stroke="white" stroke-width="1.5" d="M0,-3.0v7 M-2.5,-0.5L0,-3.0L2.5,-0.5"/>
                </g>
                <g id="arrowDown" xlink:href="#dirArrow" transform="rotate(180) translate(-30 -48)" onmousedown="handlePan(0,1)">
                  <use xlink:href="#rim" fill="#404040">
                        <set attributeName="fill" to="#808080" begin="arrowDown.mouseover" end="arrowDown.mouseout"/>
                  </use>
                  <path fill="none" stroke="white" stroke-width="1.5" d="M0,-3.0v7 M-2.5,-0.5L0,-3.0L2.5,-0.5"/>
                </g>
                <g id="arrowLeft" xlink:href="#dirArrow" transform="rotate(270) translate(-36 17)" onmousedown="handlePan(-1,0)">
                  <use xlink:href="#rim" fill="#404040">
                        <set attributeName="fill" to="#808080" begin="arrowLeft.mouseover" end="arrowLeft.mouseout"/>
                  </use>
                  <path fill="none" stroke="white" stroke-width="1.5" d="M0,-3.0v7 M-2.5,-0.5L0,-3.0L2.5,-0.5"/>
                </g>
        </g>
        <svg viewBox="0 0 15 15" width="100%" height="30px" preserveAspectRatio="xMaxYMin meet">
         <g id="arrow_out" transform="scale(0.3 0.3)">
          <a xlink:href="label_8c__incl_org.svg" target="_base">
           <rect id="button" ry="5" rx="5" y="6" x="6" height="38" width="38"
                fill="#f2f5e9" fill-opacity="0.5" stroke="#606060" stroke-width="1.0"/>
           <path id="arrow"
             d="M 11.500037,31.436501 C 11.940474,20.09759 22.043105,11.32322 32.158766,21.979434 L 37.068811,17.246167 C 37.068811,17.246167 37.088388,32 37.088388,32 L 22.160133,31.978069 C 22.160133,31.978069 26.997745,27.140456 26.997745,27.140456 C 18.528582,18.264221 13.291696,25.230495 11.500037,31.436501 z"
             style="fill:#404040;"/>
          </a>
         </g>
        </svg>
</svg>
