<?xml version="1.0" encoding="UTF-8" standalone="no"?>
<!DOCTYPE svg PUBLIC "-//W3C//DTD SVG 1.1//EN"
 "http://www.w3.org/Graphics/SVG/1.1/DTD/svg11.dtd">
<!-- Generated by graphviz version 2.38.0 (20140413.2041)
 -->
<!-- Title: src/label.h Pages: 1 -->
<!--zoomable 364 -->
<svg id="main" version="1.1" xmlns="http://www.w3.org/2000/svg" xmlns:xlink="http://www.w3.org/1999/xlink" xml:space="preserve" onload="init(evt)">
<style type="text/css"><![CDATA[
.edge:hover path { stroke: red; }
.edge:hover polygon { stroke: red; fill: red; }
]]></style>
<script type="text/javascript"><![CDATA[
var edges = document.getElementsByTagName('g');
if (edges && edges.length) {
  for (var i=0;i<edges.length;i++) {
    if (edges[i].id.substr(0,4)=='edge') {
      edges[i].setAttribute('class','edge');
    }
  }
}
]]></script>
        <defs>
                <circle id="rim" cx="0" cy="0" r="7"/>
                <circle id="rim2" cx="0" cy="0" r="3.5"/>
                <g id="zoomPlus">
                        <use xlink:href="#rim" fill="#404040">
                                <set attributeName="fill" to="#808080" begin="zoomplus.mouseover" end="zoomplus.mouseout"/>
                        </use>
                        <path d="M-4,0h8M0,-4v8" fill="none" stroke="white" stroke-width="1.5" pointer-events="none"/>
                </g>
                <g id="zoomMin">
                        <use xlink:href="#rim" fill="#404040">
                                <set attributeName="fill" to="#808080" begin="zoomminus.mouseover" end="zoomminus.mouseout"/>
                        </use>
                        <path d="M-4,0h8" fill="none" stroke="white" stroke-width="1.5" pointer-events="none"/>
                </g>
                <g id="dirArrow">
                        <path fill="none" stroke="white" stroke-width="1.5" d="M0,-3.0v7 M-2.5,-0.5L0,-3.0L2.5,-0.5"/>
                </g>
               <g id="resetDef">
                       <use xlink:href="#rim2" fill="#404040">
                               <set attributeName="fill" to="#808080" begin="reset.mouseover" end="reset.mouseout"/>
                       </use>
               </g>
        </defs>

<script type="text/javascript">
var viewWidth = 1591;
var viewHeight = 364;
var sectionId = 'dynsection-1';
</script>
<script xlink:href="svgpan.js"/>
<svg id="graph" class="graph">
<g id="viewport">
<title>src/label.h</title>
<polygon fill="white" stroke="none" points="-4,4 -4,-360 1587.15,-360 1587.15,4 -4,4"/>
<!-- Node1 -->
<g id="node1" class="node"><title>Node1</title>
<polygon fill="#bfbfbf" stroke="black" points="1228.15,-336.5 1228.15,-355.5 1290.15,-355.5 1290.15,-336.5 1228.15,-336.5"/>
<text text-anchor="middle" x="1259.15" y="-343.5" font-family="Helvetica,sans-Serif" font-size="10.00">src/label.h</text>
</g>
<!-- Node2 -->
<g id="node2" class="node"><title>Node2</title>
<g id="a_node2"><a xlink:href="receptor_8h.html" target="_top" xlink:title="receptor implementation header file ">
<polygon fill="white" stroke="black" points="831.646,-280.5 831.646,-299.5 908.646,-299.5 908.646,-280.5 831.646,-280.5"/>
<text text-anchor="middle" x="870.146" y="-287.5" font-family="Helvetica,sans-Serif" font-size="10.00">src/receptor.h</text>
</a>
</g>
</g>
<!-- Node1&#45;&gt;Node2 -->
<g id="edge1" class="edge"><title>Node1&#45;&gt;Node2</title>
<path fill="none" stroke="midnightblue" d="M1217.88,-339.271C1142.26,-328.774 982.505,-306.597 908.843,-296.372"/>
<polygon fill="midnightblue" stroke="midnightblue" points="1217.58,-342.764 1227.97,-340.672 1218.55,-335.83 1217.58,-342.764"/>
</g>
<!-- Node33 -->
<g id="node33" class="node"><title>Node33</title>
<g id="a_node33"><a xlink:href="label_8c.html" target="_top" xlink:title="Implementation of label tabels for semantic reference to parts of semantic trees. ...">
<polygon fill="white" stroke="black" points="1228.15,-280.5 1228.15,-299.5 1290.15,-299.5 1290.15,-280.5 1228.15,-280.5"/>
<text text-anchor="middle" x="1259.15" y="-287.5" font-family="Helvetica,sans-Serif" font-size="10.00">src/label.c</text>
</a>
</g>
</g>
<!-- Node1&#45;&gt;Node33 -->
<g id="edge59" class="edge"><title>Node1&#45;&gt;Node33</title>
<path fill="none" stroke="midnightblue" d="M1259.15,-325.805C1259.15,-316.91 1259.15,-306.78 1259.15,-299.751"/>
<polygon fill="midnightblue" stroke="midnightblue" points="1255.65,-326.083 1259.15,-336.083 1262.65,-326.083 1255.65,-326.083"/>
</g>
<!-- Node34 -->
<g id="node34" class="node"><title>Node34</title>
<g id="a_node34"><a xlink:href="label__spec_8h.html" target="_top" xlink:title="spec/label_spec.h">
<polygon fill="white" stroke="black" points="1459.65,-280.5 1459.65,-299.5 1554.65,-299.5 1554.65,-280.5 1459.65,-280.5"/>
<text text-anchor="middle" x="1507.15" y="-287.5" font-family="Helvetica,sans-Serif" font-size="10.00">spec/label_spec.h</text>
</a>
</g>
</g>
<!-- Node1&#45;&gt;Node34 -->
<g id="edge60" class="edge"><title>Node1&#45;&gt;Node34</title>
<path fill="none" stroke="midnightblue" d="M1300.34,-336.03C1346.85,-325.903 1421.98,-309.544 1467.74,-299.58"/>
<polygon fill="midnightblue" stroke="midnightblue" points="1299.33,-332.668 1290.3,-338.216 1300.82,-339.508 1299.33,-332.668"/>
</g>
<!-- Node3 -->
<g id="node3" class="node"><title>Node3</title>
<g id="a_node3"><a xlink:href="vmhost_8h.html" target="_top" xlink:title="vmhost implementation header file ">
<polygon fill="white" stroke="black" points="758.146,-224.5 758.146,-243.5 832.146,-243.5 832.146,-224.5 758.146,-224.5"/>
<text text-anchor="middle" x="795.146" y="-231.5" font-family="Helvetica,sans-Serif" font-size="10.00">src/vmhost.h</text>
</a>
</g>
</g>
<!-- Node2&#45;&gt;Node3 -->
<g id="edge2" class="edge"><title>Node2&#45;&gt;Node3</title>
<path fill="none" stroke="midnightblue" d="M849.84,-274.38C836.285,-264.62 818.903,-252.106 807.415,-243.834"/>
<polygon fill="midnightblue" stroke="midnightblue" points="847.935,-277.321 858.095,-280.324 852.025,-271.641 847.935,-277.321"/>
</g>
<!-- Node5 -->
<g id="node5" class="node"><title>Node5</title>
<g id="a_node5"><a xlink:href="accumulator_8c.html" target="_top" xlink:title="implementation file for accumulator ">
<polygon fill="white" stroke="black" points="1030.65,-112.5 1030.65,-131.5 1125.65,-131.5 1125.65,-112.5 1030.65,-112.5"/>
<text text-anchor="middle" x="1078.15" y="-119.5" font-family="Helvetica,sans-Serif" font-size="10.00">src/accumulator.c</text>
</a>
</g>
</g>
<!-- Node2&#45;&gt;Node5 -->
<g id="edge25" class="edge"><title>Node2&#45;&gt;Node5</title>
<path fill="none" stroke="midnightblue" d="M888.924,-274.014C931.424,-240.095 1033.88,-158.324 1067.36,-131.605"/>
<polygon fill="midnightblue" stroke="midnightblue" points="886.668,-271.335 881.036,-280.309 891.035,-276.807 886.668,-271.335"/>
</g>
<!-- Node11 -->
<g id="node11" class="node"><title>Node11</title>
<g id="a_node11"><a xlink:href="process_8c.html" target="_top" xlink:title="implementation of ceptr processing: instructions and run tree reduction ">
<polygon fill="white" stroke="black" points="1144.15,-112.5 1144.15,-131.5 1220.15,-131.5 1220.15,-112.5 1144.15,-112.5"/>
<text text-anchor="middle" x="1182.15" y="-119.5" font-family="Helvetica,sans-Serif" font-size="10.00">src/process.c</text>
</a>
</g>
</g>
<!-- Node2&#45;&gt;Node11 -->
<g id="edge34" class="edge"><title>Node2&#45;&gt;Node11</title>
<path fill="none" stroke="midnightblue" d="M894.724,-275.507C950.26,-245.025 1081.38,-173.085 1091.15,-168 1116.31,-154.894 1145.82,-140.475 1164.25,-131.577"/>
<polygon fill="midnightblue" stroke="midnightblue" points="892.964,-272.481 885.882,-280.361 896.333,-278.617 892.964,-272.481"/>
</g>
<!-- Node12 -->
<g id="node12" class="node"><title>Node12</title>
<g id="a_node12"><a xlink:href="receptor_8c.html" target="_top" xlink:title="receptor implementation ">
<polygon fill="white" stroke="black" points="1238.65,-112.5 1238.65,-131.5 1315.65,-131.5 1315.65,-112.5 1238.65,-112.5"/>
<text text-anchor="middle" x="1277.15" y="-119.5" font-family="Helvetica,sans-Serif" font-size="10.00">src/receptor.c</text>
</a>
</g>
</g>
<!-- Node2&#45;&gt;Node12 -->
<g id="edge35" class="edge"><title>Node2&#45;&gt;Node12</title>
<path fill="none" stroke="midnightblue" d="M903.613,-276.783C926.524,-268.178 957.468,-256.08 984.146,-244 1051.51,-213.499 1063.69,-195.952 1132.15,-168 1169.6,-152.705 1214.27,-139.573 1244.04,-131.51"/>
<polygon fill="midnightblue" stroke="midnightblue" points="902.157,-273.59 894.009,-280.362 904.602,-280.149 902.157,-273.59"/>
</g>
<!-- Node18 -->
<g id="node18" class="node"><title>Node18</title>
<g id="a_node18"><a xlink:href="receptor__spec_8h.html" target="_top" xlink:title="spec/receptor_spec.h">
<polygon fill="white" stroke="black" points="526.146,-112.5 526.146,-131.5 636.146,-131.5 636.146,-112.5 526.146,-112.5"/>
<text text-anchor="middle" x="581.146" y="-119.5" font-family="Helvetica,sans-Serif" font-size="10.00">spec/receptor_spec.h</text>
</a>
</g>
</g>
<!-- Node2&#45;&gt;Node18 -->
<g id="edge54" class="edge"><title>Node2&#45;&gt;Node18</title>
<path fill="none" stroke="midnightblue" d="M831.004,-277.406C806.733,-269.503 775.302,-257.955 749.146,-244 684.451,-209.483 616.182,-153.141 591.117,-131.677"/>
<polygon fill="midnightblue" stroke="midnightblue" points="830.006,-280.761 840.596,-280.461 832.13,-274.091 830.006,-280.761"/>
</g>
<!-- Node20 -->
<g id="node20" class="node"><title>Node20</title>
<g id="a_node20"><a xlink:href="base__defs_8c.html" target="_top" xlink:title="auto&#45;generated system definitions ">
<polygon fill="white" stroke="black" points="16.1455,-168.5 16.1455,-187.5 102.146,-187.5 102.146,-168.5 16.1455,-168.5"/>
<text text-anchor="middle" x="59.1455" y="-175.5" font-family="Helvetica,sans-Serif" font-size="10.00">src/base_defs.c</text>
</a>
</g>
</g>
<!-- Node2&#45;&gt;Node20 -->
<g id="edge26" class="edge"><title>Node2&#45;&gt;Node20</title>
<path fill="none" stroke="midnightblue" d="M821.378,-287.256C727.25,-283.368 514.183,-272.018 337.146,-244 245.842,-229.55 140.026,-201.657 89.301,-187.576"/>
<polygon fill="midnightblue" stroke="midnightblue" points="821.322,-290.757 831.455,-287.663 821.604,-283.763 821.322,-290.757"/>
</g>
<!-- Node21 -->
<g id="node21" class="node"><title>Node21</title>
<g id="a_node21"><a xlink:href="protocol_8h.html" target="_top" xlink:title="protocol helpers header file ">
<polygon fill="white" stroke="black" points="588.146,-224.5 588.146,-243.5 664.146,-243.5 664.146,-224.5 588.146,-224.5"/>
<text text-anchor="middle" x="626.146" y="-231.5" font-family="Helvetica,sans-Serif" font-size="10.00">src/protocol.h</text>
</a>
</g>
</g>
<!-- Node2&#45;&gt;Node21 -->
<g id="edge27" class="edge"><title>Node2&#45;&gt;Node21</title>
<path fill="none" stroke="midnightblue" d="M821.684,-278.275C775.429,-268.038 706.677,-252.823 664.226,-243.428"/>
<polygon fill="midnightblue" stroke="midnightblue" points="820.963,-281.7 831.483,-280.444 822.476,-274.865 820.963,-281.7"/>
</g>
<!-- Node23 -->
<g id="node23" class="node"><title>Node23</title>
<g id="a_node23"><a xlink:href="sys__defs_8c.html" target="_top" xlink:title="definition of system semantic elements for bootstrapping ">
<polygon fill="white" stroke="black" points="412.646,-224.5 412.646,-243.5 493.646,-243.5 493.646,-224.5 412.646,-224.5"/>
<text text-anchor="middle" x="453.146" y="-231.5" font-family="Helvetica,sans-Serif" font-size="10.00">src/sys_defs.c</text>
</a>
</g>
</g>
<!-- Node2&#45;&gt;Node23 -->
<g id="edge36" class="edge"><title>Node2&#45;&gt;Node23</title>
<path fill="none" stroke="midnightblue" d="M821.135,-283.875C750.651,-276.303 616.645,-261.16 503.146,-244 500.093,-243.539 496.941,-243.035 493.773,-242.51"/>
<polygon fill="midnightblue" stroke="midnightblue" points="821.161,-287.397 831.477,-284.98 821.905,-280.437 821.161,-287.397"/>
</g>
<!-- Node24 -->
<g id="node24" class="node"><title>Node24</title>
<g id="a_node24"><a xlink:href="tree_8c.html" target="_top" xlink:title="semantic tree pointer implementation ">
<polygon fill="white" stroke="black" points="512.146,-224.5 512.146,-243.5 570.146,-243.5 570.146,-224.5 512.146,-224.5"/>
<text text-anchor="middle" x="541.146" y="-231.5" font-family="Helvetica,sans-Serif" font-size="10.00">src/tree.c</text>
</a>
</g>
</g>
<!-- Node2&#45;&gt;Node24 -->
<g id="edge37" class="edge"><title>Node2&#45;&gt;Node24</title>
<path fill="none" stroke="midnightblue" d="M821.399,-282.663C763.433,-274.85 663.867,-260.557 579.146,-244 576.351,-243.454 573.45,-242.845 570.554,-242.208"/>
<polygon fill="midnightblue" stroke="midnightblue" points="821.002,-286.141 831.378,-283.999 821.931,-279.203 821.002,-286.141"/>
</g>
<!-- Node25 -->
<g id="node25" class="node"><title>Node25</title>
<g id="a_node25"><a xlink:href="semtable__spec_8h.html" target="_top" xlink:title="spec/semtable_spec.h">
<polygon fill="white" stroke="black" points="1141.65,-168.5 1141.65,-187.5 1256.65,-187.5 1256.65,-168.5 1141.65,-168.5"/>
<text text-anchor="middle" x="1199.15" y="-175.5" font-family="Helvetica,sans-Serif" font-size="10.00">spec/semtable_spec.h</text>
</a>
</g>
</g>
<!-- Node2&#45;&gt;Node25 -->
<g id="edge38" class="edge"><title>Node2&#45;&gt;Node25</title>
<path fill="none" stroke="midnightblue" d="M919.296,-287.318C971.14,-283.931 1054.16,-273.847 1119.15,-244 1149.39,-230.107 1177.92,-202.089 1191.26,-187.806"/>
<polygon fill="midnightblue" stroke="midnightblue" points="918.816,-283.84 909.041,-287.927 919.231,-290.828 918.816,-283.84"/>
</g>
<!-- Node26 -->
<g id="node26" class="node"><title>Node26</title>
<g id="a_node26"><a xlink:href="def__spec_8h.html" target="_top" xlink:title="spec/def_spec.h">
<polygon fill="white" stroke="black" points="1302.65,-56.5 1302.65,-75.5 1391.65,-75.5 1391.65,-56.5 1302.65,-56.5"/>
<text text-anchor="middle" x="1347.15" y="-63.5" font-family="Helvetica,sans-Serif" font-size="10.00">spec/def_spec.h</text>
</a>
</g>
</g>
<!-- Node2&#45;&gt;Node26 -->
<g id="edge40" class="edge"><title>Node2&#45;&gt;Node26</title>
<path fill="none" stroke="midnightblue" d="M918.945,-285.434C975.423,-280.328 1070.72,-268.676 1149.15,-244 1203.76,-226.817 1216.02,-217.398 1265.15,-188 1301.46,-166.27 1321.51,-168.943 1342.15,-132 1352.19,-114.016 1350.48,-88.7501 1348.65,-75.6457"/>
<polygon fill="midnightblue" stroke="midnightblue" points="918.522,-281.958 908.864,-286.313 919.13,-288.931 918.522,-281.958"/>
</g>
<!-- Node27 -->
<g id="node27" class="node"><title>Node27</title>
<g id="a_node27"><a xlink:href="tree__spec_8h.html" target="_top" xlink:title="spec/tree_spec.h">
<polygon fill="white" stroke="black" points="264.146,-112.5 264.146,-131.5 356.146,-131.5 356.146,-112.5 264.146,-112.5"/>
<text text-anchor="middle" x="310.146" y="-119.5" font-family="Helvetica,sans-Serif" font-size="10.00">spec/tree_spec.h</text>
</a>
</g>
</g>
<!-- Node2&#45;&gt;Node27 -->
<g id="edge42" class="edge"><title>Node2&#45;&gt;Node27</title>
<path fill="none" stroke="midnightblue" d="M821.432,-286.936C708.771,-281.791 437.21,-267.124 403.146,-244 371.734,-222.677 387.873,-197.638 364.146,-168 352.4,-153.329 335.245,-140.024 323.438,-131.752"/>
<polygon fill="midnightblue" stroke="midnightblue" points="821.359,-290.436 831.507,-287.39 821.675,-283.443 821.359,-290.436"/>
</g>
<!-- Node28 -->
<g id="node28" class="node"><title>Node28</title>
<g id="a_node28"><a xlink:href="http__example_8h.html" target="_top" xlink:title="spec/http_example.h">
<polygon fill="white" stroke="black" points="248.646,-168.5 248.646,-187.5 355.646,-187.5 355.646,-168.5 248.646,-168.5"/>
<text text-anchor="middle" x="302.146" y="-175.5" font-family="Helvetica,sans-Serif" font-size="10.00">spec/http_example.h</text>
</a>
</g>
</g>
<!-- Node2&#45;&gt;Node28 -->
<g id="edge44" class="edge"><title>Node2&#45;&gt;Node28</title>
<path fill="none" stroke="midnightblue" d="M821.499,-288.672C712.057,-287.288 449.808,-280.179 370.146,-244 342.19,-231.304 318.621,-202.2 308.073,-187.635"/>
<polygon fill="midnightblue" stroke="midnightblue" points="821.562,-292.173 831.602,-288.789 821.643,-285.173 821.562,-292.173"/>
</g>
<!-- Node29 -->
<g id="node29" class="node"><title>Node29</title>
<g id="a_node29"><a xlink:href="mtree__spec_8h.html" target="_top" xlink:title="spec/mtree_spec.h">
<polygon fill="white" stroke="black" points="108.146,-112.5 108.146,-131.5 208.146,-131.5 208.146,-112.5 108.146,-112.5"/>
<text text-anchor="middle" x="158.146" y="-119.5" font-family="Helvetica,sans-Serif" font-size="10.00">spec/mtree_spec.h</text>
</a>
</g>
</g>
<!-- Node2&#45;&gt;Node29 -->
<g id="edge51" class="edge"><title>Node2&#45;&gt;Node29</title>
<path fill="none" stroke="midnightblue" d="M821.32,-287.234C646.256,-280.381 57.7329,-252.652 7.14554,-188 -22.6659,-149.9 53.1962,-133.758 107.866,-127.199"/>
<polygon fill="midnightblue" stroke="midnightblue" points="821.396,-290.74 831.524,-287.628 821.666,-283.745 821.396,-290.74"/>
</g>
<!-- Node30 -->
<g id="node30" class="node"><title>Node30</title>
<g id="a_node30"><a xlink:href="semtrex__spec_8h.html" target="_top" xlink:title="spec/semtrex_spec.h">
<polygon fill="white" stroke="black" points="1319.15,-168.5 1319.15,-187.5 1429.15,-187.5 1429.15,-168.5 1319.15,-168.5"/>
<text text-anchor="middle" x="1374.15" y="-175.5" font-family="Helvetica,sans-Serif" font-size="10.00">spec/semtrex_spec.h</text>
</a>
</g>
</g>
<!-- Node2&#45;&gt;Node30 -->
<g id="edge52" class="edge"><title>Node2&#45;&gt;Node30</title>
<path fill="none" stroke="midnightblue" d="M918.718,-286.073C1009.83,-280.156 1202.9,-265.483 1266.15,-244 1286.14,-237.208 1337.37,-203.712 1361.38,-187.638"/>
<polygon fill="midnightblue" stroke="midnightblue" points="918.407,-282.586 908.651,-286.718 918.855,-289.571 918.407,-282.586"/>
</g>
<!-- Node31 -->
<g id="node31" class="node"><title>Node31</title>
<g id="a_node31"><a xlink:href="scape__spec_8h.html" target="_top" xlink:title="spec/scape_spec.h">
<polygon fill="white" stroke="black" points="1318.65,-224.5 1318.65,-243.5 1419.65,-243.5 1419.65,-224.5 1318.65,-224.5"/>
<text text-anchor="middle" x="1369.15" y="-231.5" font-family="Helvetica,sans-Serif" font-size="10.00">spec/scape_spec.h</text>
</a>
</g>
</g>
<!-- Node2&#45;&gt;Node31 -->
<g id="edge55" class="edge"><title>Node2&#45;&gt;Node31</title>
<path fill="none" stroke="midnightblue" d="M919.119,-284.474C999.57,-276.914 1164.7,-260.878 1304.15,-244 1308.78,-243.439 1313.6,-242.826 1318.43,-242.194"/>
<polygon fill="midnightblue" stroke="midnightblue" points="918.435,-281.022 908.805,-285.44 919.088,-287.992 918.435,-281.022"/>
</g>
<!-- Node32 -->
<g id="node32" class="node"><title>Node32</title>
<g id="a_node32"><a xlink:href="profile__example_8h.html" target="_top" xlink:title="spec/profile_example.h">
<polygon fill="white" stroke="black" points="1437.65,-224.5 1437.65,-243.5 1554.65,-243.5 1554.65,-224.5 1437.65,-224.5"/>
<text text-anchor="middle" x="1496.15" y="-231.5" font-family="Helvetica,sans-Serif" font-size="10.00">spec/profile_example.h</text>
</a>
</g>
</g>
<!-- Node2&#45;&gt;Node32 -->
<g id="edge57" class="edge"><title>Node2&#45;&gt;Node32</title>
<path fill="none" stroke="midnightblue" d="M918.864,-285.912C1015.92,-279.575 1240.25,-263.997 1428.15,-244 1431.22,-243.672 1434.38,-243.318 1437.56,-242.947"/>
<polygon fill="midnightblue" stroke="midnightblue" points="918.522,-282.427 908.769,-286.568 918.975,-289.412 918.522,-282.427"/>
</g>
<!-- Node4 -->
<g id="node4" class="node"><title>Node4</title>
<g id="a_node4"><a xlink:href="accumulator_8h.html" target="_top" xlink:title="header file for the accumulator ">
<polygon fill="white" stroke="black" points="781.646,-168.5 781.646,-187.5 876.646,-187.5 876.646,-168.5 781.646,-168.5"/>
<text text-anchor="middle" x="829.146" y="-175.5" font-family="Helvetica,sans-Serif" font-size="10.00">src/accumulator.h</text>
</a>
</g>
</g>
<!-- Node3&#45;&gt;Node4 -->
<g id="edge3" class="edge"><title>Node3&#45;&gt;Node4</title>
<path fill="none" stroke="midnightblue" d="M806.123,-215.566C811.973,-206.275 818.915,-195.248 823.636,-187.751"/>
<polygon fill="midnightblue" stroke="midnightblue" points="803.126,-213.756 800.76,-224.083 809.05,-217.486 803.126,-213.756"/>
</g>
<!-- Node15 -->
<g id="node15" class="node"><title>Node15</title>
<g id="a_node15"><a xlink:href="vmhost__spec_8h.html" target="_top" xlink:title="spec/vmhost_spec.h">
<polygon fill="white" stroke="black" points="425.646,-56.5 425.646,-75.5 532.646,-75.5 532.646,-56.5 425.646,-56.5"/>
<text text-anchor="middle" x="479.146" y="-63.5" font-family="Helvetica,sans-Serif" font-size="10.00">spec/vmhost_spec.h</text>
</a>
</g>
</g>
<!-- Node3&#45;&gt;Node15 -->
<g id="edge24" class="edge"><title>Node3&#45;&gt;Node15</title>
<path fill="none" stroke="midnightblue" d="M753.377,-221.616C685.226,-202.429 553.999,-162.736 517.146,-132 498.674,-116.595 487.125,-89.7557 482.089,-75.877"/>
<polygon fill="midnightblue" stroke="midnightblue" points="752.78,-225.083 763.353,-224.405 754.664,-218.342 752.78,-225.083"/>
</g>
<!-- Node16 -->
<g id="node16" class="node"><title>Node16</title>
<g id="a_node16"><a xlink:href="vmhost_8c.html" target="_top" xlink:title="virtual machine host receptor implementation ">
<polygon fill="white" stroke="black" points="938.146,-112.5 938.146,-131.5 1012.15,-131.5 1012.15,-112.5 938.146,-112.5"/>
<text text-anchor="middle" x="975.146" y="-119.5" font-family="Helvetica,sans-Serif" font-size="10.00">src/vmhost.c</text>
</a>
</g>
</g>
<!-- Node3&#45;&gt;Node16 -->
<g id="edge22" class="edge"><title>Node3&#45;&gt;Node16</title>
<path fill="none" stroke="midnightblue" d="M823.963,-220.052C841.944,-211.619 865.352,-199.988 885.146,-188 915.15,-169.828 947.981,-144.641 964.454,-131.598"/>
<polygon fill="midnightblue" stroke="midnightblue" points="822.194,-217.014 814.589,-224.39 825.134,-223.367 822.194,-217.014"/>
</g>
<!-- Node3&#45;&gt;Node18 -->
<g id="edge23" class="edge"><title>Node3&#45;&gt;Node18</title>
<path fill="none" stroke="midnightblue" d="M778.502,-217.45C762.33,-203.017 736.558,-181.748 711.146,-168 680.371,-151.351 642.246,-139.021 615.261,-131.518"/>
<polygon fill="midnightblue" stroke="midnightblue" points="776.278,-220.159 786.031,-224.298 780.989,-214.98 776.278,-220.159"/>
</g>
<!-- Node19 -->
<g id="node19" class="node"><title>Node19</title>
<g id="a_node19"><a xlink:href="protocol_8c.html" target="_top" xlink:title="implementation of protocol helpers ">
<polygon fill="white" stroke="black" points="488.146,-168.5 488.146,-187.5 564.146,-187.5 564.146,-168.5 488.146,-168.5"/>
<text text-anchor="middle" x="526.146" y="-175.5" font-family="Helvetica,sans-Serif" font-size="10.00">src/protocol.c</text>
</a>
</g>
</g>
<!-- Node3&#45;&gt;Node19 -->
<g id="edge21" class="edge"><title>Node3&#45;&gt;Node19</title>
<path fill="none" stroke="midnightblue" d="M748.005,-223.537C695.744,-213.046 612.468,-196.329 564.186,-186.636"/>
<polygon fill="midnightblue" stroke="midnightblue" points="747.531,-227.012 758.025,-225.548 748.909,-220.148 747.531,-227.012"/>
</g>
<!-- Node4&#45;&gt;Node5 -->
<g id="edge4" class="edge"><title>Node4&#45;&gt;Node5</title>
<path fill="none" stroke="midnightblue" d="M878.57,-166.281C925.624,-156.077 995.513,-140.92 1038.88,-131.516"/>
<polygon fill="midnightblue" stroke="midnightblue" points="877.631,-162.904 868.6,-168.444 879.115,-169.745 877.631,-162.904"/>
</g>
<!-- Node6 -->
<g id="node6" class="node"><title>Node6</title>
<g id="a_node6"><a xlink:href="ceptr_8c.html" target="_top" xlink:title="implements main() entry point for the ceptr node ">
<polygon fill="white" stroke="black" points="856.646,-112.5 856.646,-131.5 919.646,-131.5 919.646,-112.5 856.646,-112.5"/>
<text text-anchor="middle" x="888.146" y="-119.5" font-family="Helvetica,sans-Serif" font-size="10.00">src/ceptr.c</text>
</a>
</g>
</g>
<!-- Node4&#45;&gt;Node6 -->
<g id="edge5" class="edge"><title>Node4&#45;&gt;Node6</title>
<path fill="none" stroke="midnightblue" d="M846.04,-161.537C856.56,-151.909 869.714,-139.869 878.494,-131.834"/>
<polygon fill="midnightblue" stroke="midnightblue" points="843.639,-158.99 838.625,-168.324 848.365,-164.154 843.639,-158.99"/>
</g>
<!-- Node7 -->
<g id="node7" class="node"><title>Node7</title>
<g id="a_node7"><a xlink:href="group_8h.html" target="_top" xlink:title="group communication receptors header file ">
<polygon fill="white" stroke="black" points="734.646,-112.5 734.646,-131.5 799.646,-131.5 799.646,-112.5 734.646,-112.5"/>
<text text-anchor="middle" x="767.146" y="-119.5" font-family="Helvetica,sans-Serif" font-size="10.00">src/group.h</text>
</a>
</g>
</g>
<!-- Node4&#45;&gt;Node7 -->
<g id="edge6" class="edge"><title>Node4&#45;&gt;Node7</title>
<path fill="none" stroke="midnightblue" d="M811.392,-161.537C800.337,-151.909 786.514,-139.869 777.288,-131.834"/>
<polygon fill="midnightblue" stroke="midnightblue" points="809.345,-164.395 819.184,-168.324 813.942,-159.117 809.345,-164.395"/>
</g>
<!-- Node4&#45;&gt;Node11 -->
<g id="edge10" class="edge"><title>Node4&#45;&gt;Node11</title>
<path fill="none" stroke="midnightblue" d="M887.048,-169.14C948.476,-160.641 1048.31,-146.373 1134.15,-132 1137.32,-131.468 1140.62,-130.895 1143.92,-130.306"/>
<polygon fill="midnightblue" stroke="midnightblue" points="886.21,-165.722 876.782,-170.556 887.167,-172.656 886.21,-165.722"/>
</g>
<!-- Node4&#45;&gt;Node12 -->
<g id="edge11" class="edge"><title>Node4&#45;&gt;Node12</title>
<path fill="none" stroke="midnightblue" d="M886.794,-171.853C964.688,-164.594 1107.78,-150.181 1229.15,-132 1232.16,-131.548 1235.28,-131.045 1238.41,-130.514"/>
<polygon fill="midnightblue" stroke="midnightblue" points="886.34,-168.38 876.705,-172.788 886.985,-175.351 886.34,-168.38"/>
</g>
<!-- Node13 -->
<g id="node13" class="node"><title>Node13</title>
<g id="a_node13"><a xlink:href="shell_8h.html" target="_top" xlink:title="command line shell receptor header files ">
<polygon fill="white" stroke="black" points="654.146,-112.5 654.146,-131.5 716.146,-131.5 716.146,-112.5 654.146,-112.5"/>
<text text-anchor="middle" x="685.146" y="-119.5" font-family="Helvetica,sans-Serif" font-size="10.00">src/shell.h</text>
</a>
</g>
</g>
<!-- Node4&#45;&gt;Node13 -->
<g id="edge12" class="edge"><title>Node4&#45;&gt;Node13</title>
<path fill="none" stroke="midnightblue" d="M796.894,-164.906C769.822,-154.754 731.829,-140.506 707.856,-131.516"/>
<polygon fill="midnightblue" stroke="midnightblue" points="795.736,-168.209 806.328,-168.444 798.194,-161.655 795.736,-168.209"/>
</g>
<!-- Node4&#45;&gt;Node16 -->
<g id="edge16" class="edge"><title>Node4&#45;&gt;Node16</title>
<path fill="none" stroke="midnightblue" d="M861.845,-164.906C889.293,-154.754 927.814,-140.506 952.12,-131.516"/>
<polygon fill="midnightblue" stroke="midnightblue" points="860.445,-161.692 852.28,-168.444 862.873,-168.257 860.445,-161.692"/>
</g>
<!-- Node17 -->
<g id="node17" class="node"><title>Node17</title>
<g id="a_node17"><a xlink:href="accumulator__spec_8h_source.html" target="_top" xlink:title="spec/accumulator_spec.h">
<polygon fill="white" stroke="black" points="871.146,-56.5 871.146,-75.5 999.146,-75.5 999.146,-56.5 871.146,-56.5"/>
<text text-anchor="middle" x="935.146" y="-63.5" font-family="Helvetica,sans-Serif" font-size="10.00">spec/accumulator_spec.h</text>
</a>
</g>
</g>
<!-- Node4&#45;&gt;Node17 -->
<g id="edge17" class="edge"><title>Node4&#45;&gt;Node17</title>
<path fill="none" stroke="midnightblue" d="M830.304,-158.412C832.054,-144.313 836.401,-125.175 847.146,-112 861.786,-94.0476 885.457,-82.5153 904.563,-75.6242"/>
<polygon fill="midnightblue" stroke="midnightblue" points="826.814,-158.152 829.385,-168.43 833.784,-158.791 826.814,-158.152"/>
</g>
<!-- Node4&#45;&gt;Node18 -->
<g id="edge19" class="edge"><title>Node4&#45;&gt;Node18</title>
<path fill="none" stroke="midnightblue" d="M779.92,-166.281C733.054,-156.077 663.446,-140.92 620.258,-131.516"/>
<polygon fill="midnightblue" stroke="midnightblue" points="779.333,-169.736 789.849,-168.444 780.823,-162.896 779.333,-169.736"/>
</g>
<!-- Node8 -->
<g id="node8" class="node"><title>Node8</title>
<g id="a_node8"><a xlink:href="group_8c.html" target="_top" xlink:title="implementation of some group communication receptors ">
<polygon fill="white" stroke="black" points="589.646,-56.5 589.646,-75.5 654.646,-75.5 654.646,-56.5 589.646,-56.5"/>
<text text-anchor="middle" x="622.146" y="-63.5" font-family="Helvetica,sans-Serif" font-size="10.00">src/group.c</text>
</a>
</g>
</g>
<!-- Node7&#45;&gt;Node8 -->
<g id="edge7" class="edge"><title>Node7&#45;&gt;Node8</title>
<path fill="none" stroke="midnightblue" d="M734.67,-108.906C707.41,-98.7536 669.153,-84.5063 645.014,-75.5164"/>
<polygon fill="midnightblue" stroke="midnightblue" points="733.577,-112.233 744.17,-112.444 736.02,-105.674 733.577,-112.233"/>
</g>
<!-- Node9 -->
<g id="node9" class="node"><title>Node9</title>
<g id="a_node9"><a xlink:href="group__spec_8h.html" target="_top" xlink:title="spec/group_spec.h">
<polygon fill="white" stroke="black" points="753.646,-56.5 753.646,-75.5 852.646,-75.5 852.646,-56.5 753.646,-56.5"/>
<text text-anchor="middle" x="803.146" y="-63.5" font-family="Helvetica,sans-Serif" font-size="10.00">spec/group_spec.h</text>
</a>
</g>
</g>
<!-- Node7&#45;&gt;Node9 -->
<g id="edge8" class="edge"><title>Node7&#45;&gt;Node9</title>
<path fill="none" stroke="midnightblue" d="M778.768,-103.566C784.962,-94.2747 792.313,-83.2484 797.311,-75.7511"/>
<polygon fill="midnightblue" stroke="midnightblue" points="775.725,-101.821 773.09,-112.083 781.549,-105.704 775.725,-101.821"/>
</g>
<!-- Node10 -->
<g id="node10" class="node"><title>Node10</title>
<g id="a_node10"><a xlink:href="ceptr__specs_8c.html" target="_top" xlink:title="implements a main() entry point for running all the tests ">
<polygon fill="white" stroke="black" points="818.146,-0.5 818.146,-19.5 920.146,-19.5 920.146,-0.5 818.146,-0.5"/>
<text text-anchor="middle" x="869.146" y="-7.5" font-family="Helvetica,sans-Serif" font-size="10.00">spec/ceptr_specs.c</text>
</a>
</g>
</g>
<!-- Node9&#45;&gt;Node10 -->
<g id="edge9" class="edge"><title>Node9&#45;&gt;Node10</title>
<path fill="none" stroke="midnightblue" d="M821.699,-49.8197C833.524,-40.1452 848.431,-27.9481 858.349,-19.8339"/>
<polygon fill="midnightblue" stroke="midnightblue" points="819.273,-47.2827 813.75,-56.324 823.706,-52.7004 819.273,-47.2827"/>
</g>
<!-- Node14 -->
<g id="node14" class="node"><title>Node14</title>
<g id="a_node14"><a xlink:href="shell_8c.html" target="_top" xlink:title="implementation of a command line shell receptor ">
<polygon fill="white" stroke="black" points="673.146,-56.5 673.146,-75.5 735.146,-75.5 735.146,-56.5 673.146,-56.5"/>
<text text-anchor="middle" x="704.146" y="-63.5" font-family="Helvetica,sans-Serif" font-size="10.00">src/shell.c</text>
</a>
</g>
</g>
<!-- Node13&#45;&gt;Node14 -->
<g id="edge13" class="edge"><title>Node13&#45;&gt;Node14</title>
<path fill="none" stroke="midnightblue" d="M691.692,-102.396C694.87,-93.362 698.538,-82.936 701.066,-75.7511"/>
<polygon fill="midnightblue" stroke="midnightblue" points="688.301,-101.488 688.283,-112.083 694.904,-103.812 688.301,-101.488"/>
</g>
<!-- Node13&#45;&gt;Node15 -->
<g id="edge14" class="edge"><title>Node13&#45;&gt;Node15</title>
<path fill="none" stroke="midnightblue" d="M643.91,-110.191C605.027,-99.9981 547.526,-84.9249 511.75,-75.5467"/>
<polygon fill="midnightblue" stroke="midnightblue" points="643.298,-113.648 653.859,-112.799 645.073,-106.877 643.298,-113.648"/>
</g>
<!-- Node15&#45;&gt;Node10 -->
<g id="edge15" class="edge"><title>Node15&#45;&gt;Node10</title>
<path fill="none" stroke="midnightblue" d="M543,-56.1586C619.859,-45.5165 747.382,-27.8596 818.048,-18.0751"/>
<polygon fill="midnightblue" stroke="midnightblue" points="542.389,-52.7097 532.964,-57.5482 543.349,-59.6435 542.389,-52.7097"/>
</g>
<!-- Node17&#45;&gt;Node10 -->
<g id="edge18" class="edge"><title>Node17&#45;&gt;Node10</title>
<path fill="none" stroke="midnightblue" d="M916.592,-49.8197C904.767,-40.1452 889.86,-27.9481 879.943,-19.8339"/>
<polygon fill="midnightblue" stroke="midnightblue" points="914.586,-52.7004 924.542,-56.324 919.018,-47.2827 914.586,-52.7004"/>
</g>
<!-- Node18&#45;&gt;Node10 -->
<g id="edge20" class="edge"><title>Node18&#45;&gt;Node10</title>
<path fill="none" stroke="midnightblue" d="M574.86,-102.427C571.276,-88.0634 569.382,-68.5693 580.146,-56 610.16,-20.9504 743.225,-12.9865 817.888,-11.3153"/>
<polygon fill="midnightblue" stroke="midnightblue" points="571.56,-103.61 577.747,-112.21 578.273,-101.629 571.56,-103.61"/>
</g>
<!-- Node21&#45;&gt;Node8 -->
<g id="edge29" class="edge"><title>Node21&#45;&gt;Node8</title>
<path fill="none" stroke="midnightblue" d="M580.749,-221.987C539.923,-211.626 485.414,-196.474 479.146,-188 441.336,-136.885 544.672,-93.2734 595.625,-75.5152"/>
<polygon fill="midnightblue" stroke="midnightblue" points="579.982,-225.403 590.533,-224.445 581.688,-218.614 579.982,-225.403"/>
</g>
<!-- Node21&#45;&gt;Node15 -->
<g id="edge31" class="edge"><title>Node21&#45;&gt;Node15</title>
<path fill="none" stroke="midnightblue" d="M578.013,-222.452C533.774,-212.272 474.029,-197.102 467.146,-188 441.17,-153.652 464.213,-97.2099 474.646,-75.6975"/>
<polygon fill="midnightblue" stroke="midnightblue" points="577.509,-225.927 588.037,-224.735 579.064,-219.102 577.509,-225.927"/>
</g>
<!-- Node21&#45;&gt;Node19 -->
<g id="edge30" class="edge"><title>Node21&#45;&gt;Node19</title>
<path fill="none" stroke="midnightblue" d="M601.058,-219.453C582.596,-209.483 558.049,-196.228 542.172,-187.655"/>
<polygon fill="midnightblue" stroke="midnightblue" points="599.617,-222.652 610.079,-224.324 602.943,-216.493 599.617,-222.652"/>
</g>
<!-- Node21&#45;&gt;Node20 -->
<g id="edge28" class="edge"><title>Node21&#45;&gt;Node20</title>
<path fill="none" stroke="midnightblue" d="M577.995,-223.996C370.641,-196.875 314.922,-213.414 111.146,-188 108.236,-187.637 105.242,-187.224 102.229,-186.78"/>
<polygon fill="midnightblue" stroke="midnightblue" points="577.611,-227.476 587.985,-225.321 578.532,-220.536 577.611,-227.476"/>
</g>
<!-- Node22 -->
<g id="node22" class="node"><title>Node22</title>
<g id="a_node22"><a xlink:href="protocol__spec_8h.html" target="_top" xlink:title="spec/protocol_spec.h">
<polygon fill="white" stroke="black" points="120.146,-168.5 120.146,-187.5 230.146,-187.5 230.146,-168.5 120.146,-168.5"/>
<text text-anchor="middle" x="175.146" y="-175.5" font-family="Helvetica,sans-Serif" font-size="10.00">spec/protocol_spec.h</text>
</a>
</g>
</g>
<!-- Node21&#45;&gt;Node22 -->
<g id="edge32" class="edge"><title>Node21&#45;&gt;Node22</title>
<path fill="none" stroke="midnightblue" d="M577.879,-223.923C427.114,-201.89 386.721,-206.184 239.146,-188 236.25,-187.643 233.283,-187.266 230.288,-186.876"/>
<polygon fill="midnightblue" stroke="midnightblue" points="577.568,-227.415 587.972,-225.413 578.59,-220.49 577.568,-227.415"/>
</g>
<!-- Node22&#45;&gt;Node10 -->
<g id="edge33" class="edge"><title>Node22&#45;&gt;Node10</title>
<path fill="none" stroke="midnightblue" d="M140.576,-164.606C114.913,-153.269 86.398,-134.812 99.1455,-112 122.311,-70.5442 144.904,-70.4379 190.146,-56 306.914,-18.7353 680.484,-12.3158 817.84,-11.2209"/>
<polygon fill="midnightblue" stroke="midnightblue" points="139.243,-167.843 149.82,-168.456 141.934,-161.381 139.243,-167.843"/>
</g>
<!-- Node25&#45;&gt;Node10 -->
<g id="edge39" class="edge"><title>Node25&#45;&gt;Node10</title>
<path fill="none" stroke="midnightblue" d="M1263.08,-166.235C1304.18,-156.485 1346.11,-139.376 1324.15,-112 1273.95,-49.4404 1028.63,-23.2034 920.499,-14.5497"/>
<polygon fill="midnightblue" stroke="midnightblue" points="1262.24,-162.837 1253.24,-168.439 1263.77,-169.667 1262.24,-162.837"/>
</g>
<!-- Node26&#45;&gt;Node10 -->
<g id="edge41" class="edge"><title>Node26&#45;&gt;Node10</title>
<path fill="none" stroke="midnightblue" d="M1292.09,-56.5218C1290.76,-56.3432 1289.45,-56.1689 1288.15,-56 1155.74,-38.7996 999.174,-23.2536 920.186,-15.7447"/>
<polygon fill="midnightblue" stroke="midnightblue" points="1292.01,-60.0445 1302.4,-57.9607 1292.98,-53.1117 1292.01,-60.0445"/>
</g>
<!-- Node27&#45;&gt;Node10 -->
<g id="edge43" class="edge"><title>Node27&#45;&gt;Node10</title>
<path fill="none" stroke="midnightblue" d="M328.461,-106.157C348.623,-90.723 382.639,-67.273 416.146,-56 489.461,-31.3338 715.519,-18.0786 817.864,-13.2056"/>
<polygon fill="midnightblue" stroke="midnightblue" points="326.183,-103.496 320.467,-112.417 330.499,-109.007 326.183,-103.496"/>
</g>
<!-- Node28&#45;&gt;Node10 -->
<g id="edge50" class="edge"><title>Node28&#45;&gt;Node10</title>
<path fill="none" stroke="midnightblue" d="M279.449,-162.293C262.444,-149.358 243.894,-129.86 255.146,-112 285.875,-63.2235 316.559,-71.2854 372.146,-56 455.056,-33.2009 708.202,-18.7028 817.737,-13.3402"/>
<polygon fill="midnightblue" stroke="midnightblue" points="277.861,-165.459 288.035,-168.415 281.925,-159.76 277.861,-165.459"/>
</g>
<!-- Node28&#45;&gt;Node15 -->
<g id="edge49" class="edge"><title>Node28&#45;&gt;Node15</title>
<path fill="none" stroke="midnightblue" d="M324.659,-163.009C361.812,-139.919 434.879,-94.5104 465.321,-75.5914"/>
<polygon fill="midnightblue" stroke="midnightblue" points="322.68,-160.117 316.034,-168.368 326.375,-166.063 322.68,-160.117"/>
</g>
<!-- Node28&#45;&gt;Node18 -->
<g id="edge48" class="edge"><title>Node28&#45;&gt;Node18</title>
<path fill="none" stroke="midnightblue" d="M356.204,-166.537C408.933,-156.332 488.15,-140.999 537.144,-131.516"/>
<polygon fill="midnightblue" stroke="midnightblue" points="355.507,-163.107 346.354,-168.444 356.837,-169.979 355.507,-163.107"/>
</g>
<!-- Node28&#45;&gt;Node27 -->
<g id="edge45" class="edge"><title>Node28&#45;&gt;Node27</title>
<path fill="none" stroke="midnightblue" d="M304.945,-158.101C306.274,-149.136 307.796,-138.858 308.849,-131.751"/>
<polygon fill="midnightblue" stroke="midnightblue" points="301.47,-157.678 303.467,-168.083 308.394,-158.704 301.47,-157.678"/>
</g>
<!-- Node28&#45;&gt;Node29 -->
<g id="edge46" class="edge"><title>Node28&#45;&gt;Node29</title>
<path fill="none" stroke="midnightblue" d="M269.894,-164.906C242.822,-154.754 204.829,-140.506 180.856,-131.516"/>
<polygon fill="midnightblue" stroke="midnightblue" points="268.736,-168.209 279.328,-168.444 271.194,-161.655 268.736,-168.209"/>
</g>
<!-- Node29&#45;&gt;Node10 -->
<g id="edge47" class="edge"><title>Node29&#45;&gt;Node10</title>
<path fill="none" stroke="midnightblue" d="M169.289,-104.066C180.567,-88.5306 199.536,-66.4045 222.146,-56 275.686,-31.3612 674.435,-16.924 817.906,-12.4825"/>
<polygon fill="midnightblue" stroke="midnightblue" points="166.393,-102.101 163.569,-112.312 172.144,-106.091 166.393,-102.101"/>
</g>
<!-- Node30&#45;&gt;Node10 -->
<g id="edge53" class="edge"><title>Node30&#45;&gt;Node10</title>
<path fill="none" stroke="midnightblue" d="M1385.88,-159.978C1402.15,-134.116 1426.69,-84.8869 1400.15,-56 1368.06,-21.0853 1046.86,-13.2324 920.152,-11.4892"/>
<polygon fill="midnightblue" stroke="midnightblue" points="1382.94,-158.088 1380.38,-168.368 1388.79,-161.928 1382.94,-158.088"/>
</g>
<!-- Node31&#45;&gt;Node10 -->
<g id="edge56" class="edge"><title>Node31&#45;&gt;Node10</title>
<path fill="none" stroke="midnightblue" d="M1402.21,-220.008C1415.91,-212.781 1430.4,-202.304 1438.15,-188 1457.4,-152.458 1503.94,-133.507 1420.15,-56 1383.9,-22.4762 1050,-13.7715 920.311,-11.6458"/>
<polygon fill="midnightblue" stroke="midnightblue" points="1400.41,-216.99 1392.93,-224.499 1403.46,-223.29 1400.41,-216.99"/>
</g>
<!-- Node32&#45;&gt;Node10 -->
<g id="edge58" class="edge"><title>Node32&#45;&gt;Node10</title>
<path fill="none" stroke="midnightblue" d="M1497.81,-214.031C1499.99,-175.276 1498.41,-87.9774 1444.15,-56 1399.61,-29.7555 1052.79,-16.5706 920.331,-12.453"/>
<polygon fill="midnightblue" stroke="midnightblue" points="1494.29,-214.159 1497.06,-224.385 1501.27,-214.661 1494.29,-214.159"/>
</g>
<!-- Node34&#45;&gt;Node10 -->
<g id="edge61" class="edge"><title>Node34&#45;&gt;Node10</title>
<path fill="none" stroke="midnightblue" d="M1531.39,-274.847C1542.82,-267.063 1555.74,-256.454 1564.15,-244 1580.98,-219.048 1583.15,-209.098 1583.15,-179 1583.15,-179 1583.15,-179 1583.15,-121 1583.15,-63.0618 1525.52,-73.0316 1470.15,-56 1368.01,-24.5886 1046.28,-14.6549 920.373,-11.9224"/>
<polygon fill="midnightblue" stroke="midnightblue" points="1529.18,-272.107 1522.67,-280.465 1532.98,-277.992 1529.18,-272.107"/>
</g>
</g>
</svg>
        <g id="navigator" transform="translate(0 0)" fill="#404254">
                <rect fill="#f2f5e9" fill-opacity="0.5" stroke="#606060" stroke-width=".5" x="0" y="0" width="60" height="60"/>
                <use id="zoomplus" xlink:href="#zoomPlus" x="17" y="9" onmousedown="handleZoom(evt,'in')"/>
                <use id="zoomminus" xlink:href="#zoomMin" x="42" y="9" onmousedown="handleZoom(evt,'out')"/>
                <use id="reset" xlink:href="#resetDef" x="30" y="36" onmousedown="handleReset()"/>
                <g id="arrowUp" xlink:href="#dirArrow" transform="translate(30 24)" onmousedown="handlePan(0,-1)">
                  <use xlink:href="#rim" fill="#404040">
                        <set attributeName="fill" to="#808080" begin="arrowUp.mouseover" end="arrowUp.mouseout"/>
                  </use>
                  <path fill="none" stroke="white" stroke-width="1.5" d="M0,-3.0v7 M-2.5,-0.5L0,-3.0L2.5,-0.5"/>
                </g>
                <g id="arrowRight" xlink:href="#dirArrow" transform="rotate(90) translate(36 -43)" onmousedown="handlePan(1,0)">
                  <use xlink:href="#rim" fill="#404040">
                        <set attributeName="fill" to="#808080" begin="arrowRight.mouseover" end="arrowRight.mouseout"/>
                  </use>
                  <path fill="none" stroke="white" stroke-width="1.5" d="M0,-3.0v7 M-2.5,-0.5L0,-3.0L2.5,-0.5"/>
                </g>
                <g id="arrowDown" xlink:href="#dirArrow" transform="rotate(180) translate(-30 -48)" onmousedown="handlePan(0,1)">
                  <use xlink:href="#rim" fill="#404040">
                        <set attributeName="fill" to="#808080" begin="arrowDown.mouseover" end="arrowDown.mouseout"/>
                  </use>
                  <path fill="none" stroke="white" stroke-width="1.5" d="M0,-3.0v7 M-2.5,-0.5L0,-3.0L2.5,-0.5"/>
                </g>
                <g id="arrowLeft" xlink:href="#dirArrow" transform="rotate(270) translate(-36 17)" onmousedown="handlePan(-1,0)">
                  <use xlink:href="#rim" fill="#404040">
                        <set attributeName="fill" to="#808080" begin="arrowLeft.mouseover" end="arrowLeft.mouseout"/>
                  </use>
                  <path fill="none" stroke="white" stroke-width="1.5" d="M0,-3.0v7 M-2.5,-0.5L0,-3.0L2.5,-0.5"/>
                </g>
        </g>
        <svg viewBox="0 0 15 15" width="100%" height="30px" preserveAspectRatio="xMaxYMin meet">
         <g id="arrow_out" transform="scale(0.3 0.3)">
          <a xlink:href="label_8h__dep__incl_org.svg" target="_base">
           <rect id="button" ry="5" rx="5" y="6" x="6" height="38" width="38"
                fill="#f2f5e9" fill-opacity="0.5" stroke="#606060" stroke-width="1.0"/>
           <path id="arrow"
             d="M 11.500037,31.436501 C 11.940474,20.09759 22.043105,11.32322 32.158766,21.979434 L 37.068811,17.246167 C 37.068811,17.246167 37.088388,32 37.088388,32 L 22.160133,31.978069 C 22.160133,31.978069 26.997745,27.140456 26.997745,27.140456 C 18.528582,18.264221 13.291696,25.230495 11.500037,31.436501 z"
             style="fill:#404040;"/>
          </a>
         </g>
        </svg>
</svg>
