<?xml version="1.0" encoding="UTF-8" standalone="no"?>
<!DOCTYPE svg PUBLIC "-//W3C//DTD SVG 1.1//EN"
 "http://www.w3.org/Graphics/SVG/1.1/DTD/svg11.dtd">
<!-- Generated by graphviz version 2.38.0 (20140413.2041)
 -->
<!-- Title: src/label.h Pages: 1 -->
<!--zoomable 364 -->
<svg id="main" version="1.1" xmlns="http://www.w3.org/2000/svg" xmlns:xlink="http://www.w3.org/1999/xlink" xml:space="preserve" onload="init(evt)">
<style type="text/css"><![CDATA[
.edge:hover path { stroke: red; }
.edge:hover polygon { stroke: red; fill: red; }
]]></style>
<script type="text/javascript"><![CDATA[
var edges = document.getElementsByTagName('g');
if (edges && edges.length) {
  for (var i=0;i<edges.length;i++) {
    if (edges[i].id.substr(0,4)=='edge') {
      edges[i].setAttribute('class','edge');
    }
  }
}
]]></script>
        <defs>
                <circle id="rim" cx="0" cy="0" r="7"/>
                <circle id="rim2" cx="0" cy="0" r="3.5"/>
                <g id="zoomPlus">
                        <use xlink:href="#rim" fill="#404040">
                                <set attributeName="fill" to="#808080" begin="zoomplus.mouseover" end="zoomplus.mouseout"/>
                        </use>
                        <path d="M-4,0h8M0,-4v8" fill="none" stroke="white" stroke-width="1.5" pointer-events="none"/>
                </g>
                <g id="zoomMin">
                        <use xlink:href="#rim" fill="#404040">
                                <set attributeName="fill" to="#808080" begin="zoomminus.mouseover" end="zoomminus.mouseout"/>
                        </use>
                        <path d="M-4,0h8" fill="none" stroke="white" stroke-width="1.5" pointer-events="none"/>
                </g>
                <g id="dirArrow">
                        <path fill="none" stroke="white" stroke-width="1.5" d="M0,-3.0v7 M-2.5,-0.5L0,-3.0L2.5,-0.5"/>
                </g>
               <g id="resetDef">
                       <use xlink:href="#rim2" fill="#404040">
                               <set attributeName="fill" to="#808080" begin="reset.mouseover" end="reset.mouseout"/>
                       </use>
               </g>
        </defs>

<script type="text/javascript">
var viewWidth = 1179;
var viewHeight = 364;
var sectionId = 'dynsection-1';
</script>
<script xlink:href="svgpan.js"/>
<svg id="graph" class="graph">
<g id="viewport">
<title>src/label.h</title>
<polygon fill="white" stroke="none" points="-4,4 -4,-360 1174.53,-360 1174.53,4 -4,4"/>
<!-- Node1 -->
<g id="node1" class="node"><title>Node1</title>
<polygon fill="#bfbfbf" stroke="black" points="1009.24,-336.5 1009.24,-355.5 1071.24,-355.5 1071.24,-336.5 1009.24,-336.5"/>
<text text-anchor="middle" x="1040.24" y="-343.5" font-family="Helvetica,sans-Serif" font-size="10.00">src/label.h</text>
</g>
<!-- Node2 -->
<g id="node2" class="node"><title>Node2</title>
<g id="a_node2"><a xlink:href="receptor_8h.html" target="_top" xlink:title="receptor implementation header file ">
<polygon fill="white" stroke="black" points="767.736,-280.5 767.736,-299.5 844.736,-299.5 844.736,-280.5 767.736,-280.5"/>
<text text-anchor="middle" x="806.236" y="-287.5" font-family="Helvetica,sans-Serif" font-size="10.00">src/receptor.h</text>
</a>
</g>
</g>
<!-- Node1&#45;&gt;Node2 -->
<g id="edge1" class="edge"><title>Node1&#45;&gt;Node2</title>
<path fill="none" stroke="midnightblue" d="M999.351,-335.565C955.275,-325.393 885.735,-309.346 843.231,-299.537"/>
<polygon fill="midnightblue" stroke="midnightblue" points="998.632,-338.991 1009.16,-337.829 1000.21,-332.17 998.632,-338.991"/>
</g>
<!-- Node23 -->
<g id="node23" class="node"><title>Node23</title>
<g id="a_node23"><a xlink:href="label_8c.html" target="_top" xlink:title="Implementation of label tabels for semantic reference to parts of semantic trees. ...">
<polygon fill="white" stroke="black" points="1106.24,-280.5 1106.24,-299.5 1168.24,-299.5 1168.24,-280.5 1106.24,-280.5"/>
<text text-anchor="middle" x="1137.24" y="-287.5" font-family="Helvetica,sans-Serif" font-size="10.00">src/label.c</text>
</a>
</g>
</g>
<!-- Node1&#45;&gt;Node23 -->
<g id="edge40" class="edge"><title>Node1&#45;&gt;Node23</title>
<path fill="none" stroke="midnightblue" d="M1064.57,-331.453C1082.48,-321.483 1106.29,-308.228 1121.69,-299.655"/>
<polygon fill="midnightblue" stroke="midnightblue" points="1062.86,-328.402 1055.82,-336.324 1066.26,-334.518 1062.86,-328.402"/>
</g>
<!-- Node24 -->
<g id="node24" class="node"><title>Node24</title>
<g id="a_node24"><a xlink:href="label__spec_8h.html" target="_top" xlink:title="spec/label_spec.h">
<polygon fill="white" stroke="black" points="992.736,-280.5 992.736,-299.5 1087.74,-299.5 1087.74,-280.5 992.736,-280.5"/>
<text text-anchor="middle" x="1040.24" y="-287.5" font-family="Helvetica,sans-Serif" font-size="10.00">spec/label_spec.h</text>
</a>
</g>
</g>
<!-- Node1&#45;&gt;Node24 -->
<g id="edge41" class="edge"><title>Node1&#45;&gt;Node24</title>
<path fill="none" stroke="midnightblue" d="M1040.24,-325.805C1040.24,-316.91 1040.24,-306.78 1040.24,-299.751"/>
<polygon fill="midnightblue" stroke="midnightblue" points="1036.74,-326.083 1040.24,-336.083 1043.74,-326.083 1036.74,-326.083"/>
</g>
<!-- Node3 -->
<g id="node3" class="node"><title>Node3</title>
<g id="a_node3"><a xlink:href="vmhost_8h.html" target="_top" xlink:title="vmhost implementation header file ">
<polygon fill="white" stroke="black" points="306.236,-224.5 306.236,-243.5 380.236,-243.5 380.236,-224.5 306.236,-224.5"/>
<text text-anchor="middle" x="343.236" y="-231.5" font-family="Helvetica,sans-Serif" font-size="10.00">src/vmhost.h</text>
</a>
</g>
</g>
<!-- Node2&#45;&gt;Node3 -->
<g id="edge2" class="edge"><title>Node2&#45;&gt;Node3</title>
<path fill="none" stroke="midnightblue" d="M757.573,-283.324C664.634,-272.485 463.733,-249.054 380.511,-239.347"/>
<polygon fill="midnightblue" stroke="midnightblue" points="757.219,-286.807 767.558,-284.489 758.03,-279.854 757.219,-286.807"/>
</g>
<!-- Node5 -->
<g id="node5" class="node"><title>Node5</title>
<g id="a_node5"><a xlink:href="accumulator_8c.html" target="_top" xlink:title="implementation file for accumulator ">
<polygon fill="white" stroke="black" points="401.736,-112.5 401.736,-131.5 496.736,-131.5 496.736,-112.5 401.736,-112.5"/>
<text text-anchor="middle" x="449.236" y="-119.5" font-family="Helvetica,sans-Serif" font-size="10.00">src/accumulator.c</text>
</a>
</g>
</g>
<!-- Node2&#45;&gt;Node5 -->
<g id="edge20" class="edge"><title>Node2&#45;&gt;Node5</title>
<path fill="none" stroke="midnightblue" d="M758.547,-277.943C728.299,-270.166 688.702,-258.56 655.236,-244 577.648,-210.244 492.904,-153.451 461.678,-131.771"/>
<polygon fill="midnightblue" stroke="midnightblue" points="757.872,-281.382 768.424,-280.432 759.582,-274.594 757.872,-281.382"/>
</g>
<!-- Node7 -->
<g id="node7" class="node"><title>Node7</title>
<g id="a_node7"><a xlink:href="process_8c.html" target="_top" xlink:title="implementation of ceptr processing: instructions and run tree reduction ">
<polygon fill="white" stroke="black" points="515.236,-112.5 515.236,-131.5 591.236,-131.5 591.236,-112.5 515.236,-112.5"/>
<text text-anchor="middle" x="553.236" y="-119.5" font-family="Helvetica,sans-Serif" font-size="10.00">src/process.c</text>
</a>
</g>
</g>
<!-- Node2&#45;&gt;Node7 -->
<g id="edge21" class="edge"><title>Node2&#45;&gt;Node7</title>
<path fill="none" stroke="midnightblue" d="M764.453,-277.425C740.799,-269.858 711.239,-258.65 687.236,-244 632.389,-210.524 579.455,-153.07 560.542,-131.508"/>
<polygon fill="midnightblue" stroke="midnightblue" points="763.607,-280.827 774.195,-280.444 765.679,-274.14 763.607,-280.827"/>
</g>
<!-- Node8 -->
<g id="node8" class="node"><title>Node8</title>
<g id="a_node8"><a xlink:href="receptor_8c.html" target="_top" xlink:title="receptor implementation ">
<polygon fill="white" stroke="black" points="13.7364,-112.5 13.7364,-131.5 90.7364,-131.5 90.7364,-112.5 13.7364,-112.5"/>
<text text-anchor="middle" x="52.2364" y="-119.5" font-family="Helvetica,sans-Serif" font-size="10.00">src/receptor.c</text>
</a>
</g>
</g>
<!-- Node2&#45;&gt;Node8 -->
<g id="edge22" class="edge"><title>Node2&#45;&gt;Node8</title>
<path fill="none" stroke="midnightblue" d="M757.364,-286.979C647.309,-282.056 382.983,-268.051 297.236,-244 202.457,-217.416 100.362,-154.432 65.0799,-131.521"/>
<polygon fill="midnightblue" stroke="midnightblue" points="757.377,-290.483 767.521,-287.427 757.685,-283.489 757.377,-290.483"/>
</g>
<!-- Node15 -->
<g id="node15" class="node"><title>Node15</title>
<g id="a_node15"><a xlink:href="receptor__spec_8h.html" target="_top" xlink:title="spec/receptor_spec.h">
<polygon fill="white" stroke="black" points="609.236,-112.5 609.236,-131.5 719.236,-131.5 719.236,-112.5 609.236,-112.5"/>
<text text-anchor="middle" x="664.236" y="-119.5" font-family="Helvetica,sans-Serif" font-size="10.00">spec/receptor_spec.h</text>
</a>
</g>
</g>
<!-- Node2&#45;&gt;Node15 -->
<g id="edge35" class="edge"><title>Node2&#45;&gt;Node15</title>
<path fill="none" stroke="midnightblue" d="M772.586,-276.543C737.53,-261.533 684.534,-232.62 661.236,-188 651.72,-169.775 657.251,-144.61 661.244,-131.585"/>
<polygon fill="midnightblue" stroke="midnightblue" points="771.379,-279.832 781.958,-280.41 774.049,-273.361 771.379,-279.832"/>
</g>
<!-- Node16 -->
<g id="node16" class="node"><title>Node16</title>
<g id="a_node16"><a xlink:href="tree_8c.html" target="_top" xlink:title="semantic tree pointer implementation ">
<polygon fill="white" stroke="black" points="910.236,-224.5 910.236,-243.5 968.236,-243.5 968.236,-224.5 910.236,-224.5"/>
<text text-anchor="middle" x="939.236" y="-231.5" font-family="Helvetica,sans-Serif" font-size="10.00">src/tree.c</text>
</a>
</g>
</g>
<!-- Node2&#45;&gt;Node16 -->
<g id="edge23" class="edge"><title>Node2&#45;&gt;Node16</title>
<path fill="none" stroke="midnightblue" d="M836.684,-276.638C861.643,-266.504 896.313,-252.427 918.261,-243.516"/>
<polygon fill="midnightblue" stroke="midnightblue" points="835.259,-273.439 827.311,-280.444 837.893,-279.924 835.259,-273.439"/>
</g>
<!-- Node17 -->
<g id="node17" class="node"><title>Node17</title>
<g id="a_node17"><a xlink:href="tree__spec_8h.html" target="_top" xlink:title="spec/tree_spec.h">
<polygon fill="white" stroke="black" points="775.236,-112.5 775.236,-131.5 867.236,-131.5 867.236,-112.5 775.236,-112.5"/>
<text text-anchor="middle" x="821.236" y="-119.5" font-family="Helvetica,sans-Serif" font-size="10.00">spec/tree_spec.h</text>
</a>
</g>
</g>
<!-- Node2&#45;&gt;Node17 -->
<g id="edge24" class="edge"><title>Node2&#45;&gt;Node17</title>
<path fill="none" stroke="midnightblue" d="M807.96,-269.93C811.213,-233.92 818.143,-157.231 820.462,-131.568"/>
<polygon fill="midnightblue" stroke="midnightblue" points="804.457,-269.801 807.043,-280.075 811.429,-270.431 804.457,-269.801"/>
</g>
<!-- Node18 -->
<g id="node18" class="node"><title>Node18</title>
<g id="a_node18"><a xlink:href="http__example_8h.html" target="_top" xlink:title="spec/http_example.h">
<polygon fill="white" stroke="black" points="670.736,-168.5 670.736,-187.5 777.736,-187.5 777.736,-168.5 670.736,-168.5"/>
<text text-anchor="middle" x="724.236" y="-175.5" font-family="Helvetica,sans-Serif" font-size="10.00">spec/http_example.h</text>
</a>
</g>
</g>
<!-- Node2&#45;&gt;Node18 -->
<g id="edge26" class="edge"><title>Node2&#45;&gt;Node18</title>
<path fill="none" stroke="midnightblue" d="M793.767,-272.272C776.041,-248.494 744.206,-205.789 730.641,-187.591"/>
<polygon fill="midnightblue" stroke="midnightblue" points="791.019,-274.443 799.802,-280.368 796.631,-270.259 791.019,-274.443"/>
</g>
<!-- Node19 -->
<g id="node19" class="node"><title>Node19</title>
<g id="a_node19"><a xlink:href="mtree__spec_8h.html" target="_top" xlink:title="spec/mtree_spec.h">
<polygon fill="white" stroke="black" points="885.236,-112.5 885.236,-131.5 985.236,-131.5 985.236,-112.5 885.236,-112.5"/>
<text text-anchor="middle" x="935.236" y="-119.5" font-family="Helvetica,sans-Serif" font-size="10.00">spec/mtree_spec.h</text>
</a>
</g>
</g>
<!-- Node2&#45;&gt;Node19 -->
<g id="edge32" class="edge"><title>Node2&#45;&gt;Node19</title>
<path fill="none" stroke="midnightblue" d="M814.086,-270.898C827.924,-239.214 855.894,-176.267 863.236,-168 877.723,-151.688 899.524,-139.197 915.34,-131.56"/>
<polygon fill="midnightblue" stroke="midnightblue" points="810.766,-269.755 809.985,-280.321 817.185,-272.548 810.766,-269.755"/>
</g>
<!-- Node20 -->
<g id="node20" class="node"><title>Node20</title>
<g id="a_node20"><a xlink:href="semtrex__spec_8h.html" target="_top" xlink:title="spec/semtrex_spec.h">
<polygon fill="white" stroke="black" points="872.236,-168.5 872.236,-187.5 982.236,-187.5 982.236,-168.5 872.236,-168.5"/>
<text text-anchor="middle" x="927.236" y="-175.5" font-family="Helvetica,sans-Serif" font-size="10.00">spec/semtrex_spec.h</text>
</a>
</g>
</g>
<!-- Node2&#45;&gt;Node20 -->
<g id="edge33" class="edge"><title>Node2&#45;&gt;Node20</title>
<path fill="none" stroke="midnightblue" d="M824.073,-273.887C834.186,-265.239 847.022,-254.127 858.236,-244 880.223,-224.147 905.403,-200.077 918.417,-187.536"/>
<polygon fill="midnightblue" stroke="midnightblue" points="821.657,-271.348 816.314,-280.497 826.197,-276.677 821.657,-271.348"/>
</g>
<!-- Node21 -->
<g id="node21" class="node"><title>Node21</title>
<g id="a_node21"><a xlink:href="scape__spec_8h.html" target="_top" xlink:title="spec/scape_spec.h">
<polygon fill="white" stroke="black" points="1000.74,-168.5 1000.74,-187.5 1101.74,-187.5 1101.74,-168.5 1000.74,-168.5"/>
<text text-anchor="middle" x="1051.24" y="-175.5" font-family="Helvetica,sans-Serif" font-size="10.00">spec/scape_spec.h</text>
</a>
</g>
</g>
<!-- Node2&#45;&gt;Node21 -->
<g id="edge36" class="edge"><title>Node2&#45;&gt;Node21</title>
<path fill="none" stroke="midnightblue" d="M854.883,-282.357C890.361,-276.081 938.759,-264.476 977.236,-244 1005.31,-229.059 1031.66,-201.516 1043.96,-187.571"/>
<polygon fill="midnightblue" stroke="midnightblue" points="854.055,-278.948 844.777,-284.063 855.22,-285.85 854.055,-278.948"/>
</g>
<!-- Node22 -->
<g id="node22" class="node"><title>Node22</title>
<g id="a_node22"><a xlink:href="profile__example_8h.html" target="_top" xlink:title="spec/profile_example.h">
<polygon fill="white" stroke="black" points="1024.74,-224.5 1024.74,-243.5 1141.74,-243.5 1141.74,-224.5 1024.74,-224.5"/>
<text text-anchor="middle" x="1083.24" y="-231.5" font-family="Helvetica,sans-Serif" font-size="10.00">spec/profile_example.h</text>
</a>
</g>
</g>
<!-- Node2&#45;&gt;Node22 -->
<g id="edge38" class="edge"><title>Node2&#45;&gt;Node22</title>
<path fill="none" stroke="midnightblue" d="M854.778,-279.537C907.007,-269.355 989.317,-253.309 1039.57,-243.512"/>
<polygon fill="midnightblue" stroke="midnightblue" points="853.898,-276.143 844.752,-281.492 855.237,-283.013 853.898,-276.143"/>
</g>
<!-- Node4 -->
<g id="node4" class="node"><title>Node4</title>
<g id="a_node4"><a xlink:href="accumulator_8h.html" target="_top" xlink:title="header file for the accumulator ">
<polygon fill="white" stroke="black" points="295.736,-168.5 295.736,-187.5 390.736,-187.5 390.736,-168.5 295.736,-168.5"/>
<text text-anchor="middle" x="343.236" y="-175.5" font-family="Helvetica,sans-Serif" font-size="10.00">src/accumulator.h</text>
</a>
</g>
</g>
<!-- Node3&#45;&gt;Node4 -->
<g id="edge3" class="edge"><title>Node3&#45;&gt;Node4</title>
<path fill="none" stroke="midnightblue" d="M343.236,-213.805C343.236,-204.91 343.236,-194.78 343.236,-187.751"/>
<polygon fill="midnightblue" stroke="midnightblue" points="339.737,-214.083 343.236,-224.083 346.737,-214.083 339.737,-214.083"/>
</g>
<!-- Node11 -->
<g id="node11" class="node"><title>Node11</title>
<g id="a_node11"><a xlink:href="vmhost__spec_8h.html" target="_top" xlink:title="spec/vmhost_spec.h">
<polygon fill="white" stroke="black" points="260.736,-56.5 260.736,-75.5 367.736,-75.5 367.736,-56.5 260.736,-56.5"/>
<text text-anchor="middle" x="314.236" y="-63.5" font-family="Helvetica,sans-Serif" font-size="10.00">spec/vmhost_spec.h</text>
</a>
</g>
</g>
<!-- Node3&#45;&gt;Node11 -->
<g id="edge19" class="edge"><title>Node3&#45;&gt;Node11</title>
<path fill="none" stroke="midnightblue" d="M295.912,-225.925C211.232,-212.193 39.3393,-179.086 4.23642,-132 -1.07639,-124.874 -1.58001,-118.722 4.23642,-112 36.7529,-74.4225 180.822,-67.5634 260.606,-66.7147"/>
<polygon fill="midnightblue" stroke="midnightblue" points="295.609,-229.421 306.036,-227.542 296.713,-222.509 295.609,-229.421"/>
</g>
<!-- Node13 -->
<g id="node13" class="node"><title>Node13</title>
<g id="a_node13"><a xlink:href="vmhost_8c.html" target="_top" xlink:title="virtual machine host receptor implementation ">
<polygon fill="white" stroke="black" points="109.236,-112.5 109.236,-131.5 183.236,-131.5 183.236,-112.5 109.236,-112.5"/>
<text text-anchor="middle" x="146.236" y="-119.5" font-family="Helvetica,sans-Serif" font-size="10.00">src/vmhost.c</text>
</a>
</g>
</g>
<!-- Node3&#45;&gt;Node13 -->
<g id="edge17" class="edge"><title>Node3&#45;&gt;Node13</title>
<path fill="none" stroke="midnightblue" d="M318.963,-219.446C277.863,-196.497 195.72,-150.631 161.623,-131.591"/>
<polygon fill="midnightblue" stroke="midnightblue" points="317.341,-222.549 327.778,-224.368 320.753,-216.437 317.341,-222.549"/>
</g>
<!-- Node3&#45;&gt;Node15 -->
<g id="edge18" class="edge"><title>Node3&#45;&gt;Node15</title>
<path fill="none" stroke="midnightblue" d="M377.951,-221.104C443.078,-198.786 582.143,-151.132 639.11,-131.61"/>
<polygon fill="midnightblue" stroke="midnightblue" points="376.483,-217.907 368.158,-224.46 378.752,-224.529 376.483,-217.907"/>
</g>
<!-- Node4&#45;&gt;Node5 -->
<g id="edge4" class="edge"><title>Node4&#45;&gt;Node5</title>
<path fill="none" stroke="midnightblue" d="M369.293,-163.726C388.92,-153.727 415.264,-140.307 432.248,-131.655"/>
<polygon fill="midnightblue" stroke="midnightblue" points="367.589,-160.666 360.267,-168.324 370.766,-166.903 367.589,-160.666"/>
</g>
<!-- Node6 -->
<g id="node6" class="node"><title>Node6</title>
<g id="a_node6"><a xlink:href="ceptr_8c.html" target="_top" xlink:title="implements main() entry point for the ceptr node ">
<polygon fill="white" stroke="black" points="201.736,-112.5 201.736,-131.5 264.736,-131.5 264.736,-112.5 201.736,-112.5"/>
<text text-anchor="middle" x="233.236" y="-119.5" font-family="Helvetica,sans-Serif" font-size="10.00">src/ceptr.c</text>
</a>
</g>
</g>
<!-- Node4&#45;&gt;Node6 -->
<g id="edge5" class="edge"><title>Node4&#45;&gt;Node6</title>
<path fill="none" stroke="midnightblue" d="M316.474,-163.862C296.077,-153.849 268.571,-140.346 250.866,-131.655"/>
<polygon fill="midnightblue" stroke="midnightblue" points="315.044,-167.059 325.563,-168.324 318.129,-160.775 315.044,-167.059"/>
</g>
<!-- Node4&#45;&gt;Node7 -->
<g id="edge6" class="edge"><title>Node4&#45;&gt;Node7</title>
<path fill="none" stroke="midnightblue" d="M386.426,-165.894C426.083,-155.697 484.006,-140.802 520.117,-131.516"/>
<polygon fill="midnightblue" stroke="midnightblue" points="385.325,-162.563 376.512,-168.444 387.068,-169.343 385.325,-162.563"/>
</g>
<!-- Node4&#45;&gt;Node8 -->
<g id="edge7" class="edge"><title>Node4&#45;&gt;Node8</title>
<path fill="none" stroke="midnightblue" d="M286.967,-166.617C237.712,-157.519 164.225,-143.924 100.236,-132 97.1524,-131.425 93.9572,-130.829 90.7474,-130.229"/>
<polygon fill="midnightblue" stroke="midnightblue" points="286.629,-170.113 297.098,-168.488 287.9,-163.23 286.629,-170.113"/>
</g>
<!-- Node9 -->
<g id="node9" class="node"><title>Node9</title>
<g id="a_node9"><a xlink:href="shell_8h.html" target="_top" xlink:title="command line shell receptor header files ">
<polygon fill="white" stroke="black" points="283.236,-112.5 283.236,-131.5 345.236,-131.5 345.236,-112.5 283.236,-112.5"/>
<text text-anchor="middle" x="314.236" y="-119.5" font-family="Helvetica,sans-Serif" font-size="10.00">src/shell.h</text>
</a>
</g>
</g>
<!-- Node4&#45;&gt;Node9 -->
<g id="edge8" class="edge"><title>Node4&#45;&gt;Node9</title>
<path fill="none" stroke="midnightblue" d="M333.56,-158.983C328.638,-149.817 322.879,-139.092 318.936,-131.751"/>
<polygon fill="midnightblue" stroke="midnightblue" points="330.633,-160.929 338.448,-168.083 336.8,-157.617 330.633,-160.929"/>
</g>
<!-- Node4&#45;&gt;Node13 -->
<g id="edge12" class="edge"><title>Node4&#45;&gt;Node13</title>
<path fill="none" stroke="midnightblue" d="M302.007,-165.699C264.827,-155.507 210.965,-140.743 177.306,-131.516"/>
<polygon fill="midnightblue" stroke="midnightblue" points="301.452,-169.175 312.021,-168.444 303.302,-162.424 301.452,-169.175"/>
</g>
<!-- Node14 -->
<g id="node14" class="node"><title>Node14</title>
<g id="a_node14"><a xlink:href="accumulator__spec_8h_source.html" target="_top" xlink:title="spec/accumulator_spec.h">
<polygon fill="white" stroke="black" points="495.236,-56.5 495.236,-75.5 623.236,-75.5 623.236,-56.5 495.236,-56.5"/>
<text text-anchor="middle" x="559.236" y="-63.5" font-family="Helvetica,sans-Serif" font-size="10.00">spec/accumulator_spec.h</text>
</a>
</g>
</g>
<!-- Node4&#45;&gt;Node14 -->
<g id="edge13" class="edge"><title>Node4&#45;&gt;Node14</title>
<path fill="none" stroke="midnightblue" d="M352.258,-159.23C360.659,-144.446 374.538,-123.953 392.236,-112 422.719,-91.4124 462.268,-80.2238 495.226,-74.1531"/>
<polygon fill="midnightblue" stroke="midnightblue" points="348.993,-157.913 347.338,-168.378 355.157,-161.229 348.993,-157.913"/>
</g>
<!-- Node4&#45;&gt;Node15 -->
<g id="edge15" class="edge"><title>Node4&#45;&gt;Node15</title>
<path fill="none" stroke="midnightblue" d="M401.111,-167.264C461.697,-157.072 555.888,-141.227 613.612,-131.516"/>
<polygon fill="midnightblue" stroke="midnightblue" points="400.228,-163.863 390.947,-168.974 401.389,-170.766 400.228,-163.863"/>
</g>
<!-- Node10 -->
<g id="node10" class="node"><title>Node10</title>
<g id="a_node10"><a xlink:href="shell_8c.html" target="_top" xlink:title="implementation of a command line shell receptor ">
<polygon fill="white" stroke="black" points="385.236,-56.5 385.236,-75.5 447.236,-75.5 447.236,-56.5 385.236,-56.5"/>
<text text-anchor="middle" x="416.236" y="-63.5" font-family="Helvetica,sans-Serif" font-size="10.00">src/shell.c</text>
</a>
</g>
</g>
<!-- Node9&#45;&gt;Node10 -->
<g id="edge9" class="edge"><title>Node9&#45;&gt;Node10</title>
<path fill="none" stroke="midnightblue" d="M339.567,-107.59C358.427,-97.6052 383.621,-84.2672 399.889,-75.6545"/>
<polygon fill="midnightblue" stroke="midnightblue" points="337.825,-104.552 330.624,-112.324 341.1,-110.738 337.825,-104.552"/>
</g>
<!-- Node9&#45;&gt;Node11 -->
<g id="edge10" class="edge"><title>Node9&#45;&gt;Node11</title>
<path fill="none" stroke="midnightblue" d="M314.236,-101.805C314.236,-92.9102 314.236,-82.7798 314.236,-75.7511"/>
<polygon fill="midnightblue" stroke="midnightblue" points="310.737,-102.083 314.236,-112.083 317.737,-102.083 310.737,-102.083"/>
</g>
<!-- Node12 -->
<g id="node12" class="node"><title>Node12</title>
<g id="a_node12"><a xlink:href="ceptr__specs_8c.html" target="_top" xlink:title="implements a main() entry point for running all the tests ">
<polygon fill="white" stroke="black" points="884.236,-0.5 884.236,-19.5 986.236,-19.5 986.236,-0.5 884.236,-0.5"/>
<text text-anchor="middle" x="935.236" y="-7.5" font-family="Helvetica,sans-Serif" font-size="10.00">spec/ceptr_specs.c</text>
</a>
</g>
</g>
<!-- Node11&#45;&gt;Node12 -->
<g id="edge11" class="edge"><title>Node11&#45;&gt;Node12</title>
<path fill="none" stroke="midnightblue" d="M377.986,-55.8628C570.293,-34.4744 786.97,-19.999 883.879,-14.0342"/>
<polygon fill="midnightblue" stroke="midnightblue" points="377.526,-52.3924 367.978,-56.9847 378.305,-59.3488 377.526,-52.3924"/>
</g>
<!-- Node14&#45;&gt;Node12 -->
<g id="edge14" class="edge"><title>Node14&#45;&gt;Node12</title>
<path fill="none" stroke="midnightblue" d="M628.971,-54.9849C702.954,-44.3598 818.077,-27.8261 884.085,-18.3462"/>
<polygon fill="midnightblue" stroke="midnightblue" points="628.216,-51.5574 618.815,-56.4435 629.211,-58.4863 628.216,-51.5574"/>
</g>
<!-- Node15&#45;&gt;Node12 -->
<g id="edge16" class="edge"><title>Node15&#45;&gt;Node12</title>
<path fill="none" stroke="midnightblue" d="M694.82,-108.586C750.341,-86.0499 866.374,-38.9513 914.07,-19.5914"/>
<polygon fill="midnightblue" stroke="midnightblue" points="693.451,-105.364 685.501,-112.368 696.084,-111.85 693.451,-105.364"/>
</g>
<!-- Node17&#45;&gt;Node12 -->
<g id="edge25" class="edge"><title>Node17&#45;&gt;Node12</title>
<path fill="none" stroke="midnightblue" d="M837.606,-105.205C862.041,-81.6272 907.224,-38.0294 926.333,-19.5914"/>
<polygon fill="midnightblue" stroke="midnightblue" points="834.948,-102.906 830.182,-112.368 839.808,-107.943 834.948,-102.906"/>
</g>
<!-- Node18&#45;&gt;Node11 -->
<g id="edge31" class="edge"><title>Node18&#45;&gt;Node11</title>
<path fill="none" stroke="midnightblue" d="M731.753,-158.705C736.359,-144.22 739.455,-124.425 728.236,-112 701.889,-82.82 415.254,-80.825 376.236,-76 373.538,-75.6663 370.775,-75.3119 367.986,-74.9441"/>
<polygon fill="midnightblue" stroke="midnightblue" points="728.453,-157.537 728.316,-168.131 735.03,-159.935 728.453,-157.537"/>
</g>
<!-- Node18&#45;&gt;Node15 -->
<g id="edge30" class="edge"><title>Node18&#45;&gt;Node15</title>
<path fill="none" stroke="midnightblue" d="M707.056,-161.537C696.357,-151.909 682.98,-139.869 674.052,-131.834"/>
<polygon fill="midnightblue" stroke="midnightblue" points="704.822,-164.236 714.596,-168.324 709.505,-159.033 704.822,-164.236"/>
</g>
<!-- Node18&#45;&gt;Node17 -->
<g id="edge27" class="edge"><title>Node18&#45;&gt;Node17</title>
<path fill="none" stroke="midnightblue" d="M748.572,-163.453C766.479,-153.483 790.29,-140.228 805.69,-131.655"/>
<polygon fill="midnightblue" stroke="midnightblue" points="746.856,-160.402 739.821,-168.324 750.261,-166.518 746.856,-160.402"/>
</g>
<!-- Node18&#45;&gt;Node19 -->
<g id="edge28" class="edge"><title>Node18&#45;&gt;Node19</title>
<path fill="none" stroke="midnightblue" d="M767.378,-165.959C807.23,-155.76 865.6,-140.822 901.959,-131.516"/>
<polygon fill="midnightblue" stroke="midnightblue" points="766.49,-162.573 757.67,-168.444 768.226,-169.355 766.49,-162.573"/>
</g>
<!-- Node19&#45;&gt;Node12 -->
<g id="edge29" class="edge"><title>Node19&#45;&gt;Node12</title>
<path fill="none" stroke="midnightblue" d="M935.236,-102.348C935.236,-78.2538 935.236,-37.3079 935.236,-19.5914"/>
<polygon fill="midnightblue" stroke="midnightblue" points="931.737,-102.368 935.236,-112.368 938.737,-102.369 931.737,-102.368"/>
</g>
<!-- Node20&#45;&gt;Node12 -->
<g id="edge34" class="edge"><title>Node20&#45;&gt;Node12</title>
<path fill="none" stroke="midnightblue" d="M959.078,-163.942C972.476,-156.665 986.686,-146.166 994.236,-132 1016.33,-90.5444 967.359,-39.5941 945.296,-19.6149"/>
<polygon fill="midnightblue" stroke="midnightblue" points="957.402,-160.867 950.025,-168.471 960.534,-167.128 957.402,-160.867"/>
</g>
<!-- Node21&#45;&gt;Node12 -->
<g id="edge37" class="edge"><title>Node21&#45;&gt;Node12</title>
<path fill="none" stroke="midnightblue" d="M1046.7,-158.447C1039.81,-133.148 1024.72,-87.3897 999.236,-56 986.395,-40.1824 966.629,-27.4515 952.463,-19.6207"/>
<polygon fill="midnightblue" stroke="midnightblue" points="1043.34,-159.418 1049.23,-168.222 1050.12,-157.664 1043.34,-159.418"/>
</g>
<!-- Node22&#45;&gt;Node12 -->
<g id="edge39" class="edge"><title>Node22&#45;&gt;Node12</title>
<path fill="none" stroke="midnightblue" d="M1097.93,-216.296C1107.51,-203.303 1117.23,-184.73 1111.24,-168 1089.52,-107.352 1069.02,-96.8787 1019.24,-56 999.929,-40.1471 974.174,-27.3395 956.294,-19.5001"/>
<polygon fill="midnightblue" stroke="midnightblue" points="1095.03,-214.317 1091.5,-224.309 1100.49,-218.695 1095.03,-214.317"/>
</g>
<!-- Node24&#45;&gt;Node12 -->
<g id="edge42" class="edge"><title>Node24&#45;&gt;Node12</title>
<path fill="none" stroke="midnightblue" d="M1095.1,-277.459C1115.18,-270.732 1136.56,-260.239 1151.24,-244 1171.42,-221.673 1170.24,-209.098 1170.24,-179 1170.24,-179 1170.24,-179 1170.24,-121 1170.24,-40.4785 1055.66,-18.7744 986.518,-13.0077"/>
<polygon fill="midnightblue" stroke="midnightblue" points="1093.89,-274.167 1085.38,-280.467 1095.96,-280.854 1093.89,-274.167"/>
</g>
</g>
</svg>
        <g id="navigator" transform="translate(0 0)" fill="#404254">
                <rect fill="#f2f5e9" fill-opacity="0.5" stroke="#606060" stroke-width=".5" x="0" y="0" width="60" height="60"/>
                <use id="zoomplus" xlink:href="#zoomPlus" x="17" y="9" onmousedown="handleZoom(evt,'in')"/>
                <use id="zoomminus" xlink:href="#zoomMin" x="42" y="9" onmousedown="handleZoom(evt,'out')"/>
                <use id="reset" xlink:href="#resetDef" x="30" y="36" onmousedown="handleReset()"/>
                <g id="arrowUp" xlink:href="#dirArrow" transform="translate(30 24)" onmousedown="handlePan(0,-1)">
                  <use xlink:href="#rim" fill="#404040">
                        <set attributeName="fill" to="#808080" begin="arrowUp.mouseover" end="arrowUp.mouseout"/>
                  </use>
                  <path fill="none" stroke="white" stroke-width="1.5" d="M0,-3.0v7 M-2.5,-0.5L0,-3.0L2.5,-0.5"/>
                </g>
                <g id="arrowRight" xlink:href="#dirArrow" transform="rotate(90) translate(36 -43)" onmousedown="handlePan(1,0)">
                  <use xlink:href="#rim" fill="#404040">
                        <set attributeName="fill" to="#808080" begin="arrowRight.mouseover" end="arrowRight.mouseout"/>
                  </use>
                  <path fill="none" stroke="white" stroke-width="1.5" d="M0,-3.0v7 M-2.5,-0.5L0,-3.0L2.5,-0.5"/>
                </g>
                <g id="arrowDown" xlink:href="#dirArrow" transform="rotate(180) translate(-30 -48)" onmousedown="handlePan(0,1)">
                  <use xlink:href="#rim" fill="#404040">
                        <set attributeName="fill" to="#808080" begin="arrowDown.mouseover" end="arrowDown.mouseout"/>
                  </use>
                  <path fill="none" stroke="white" stroke-width="1.5" d="M0,-3.0v7 M-2.5,-0.5L0,-3.0L2.5,-0.5"/>
                </g>
                <g id="arrowLeft" xlink:href="#dirArrow" transform="rotate(270) translate(-36 17)" onmousedown="handlePan(-1,0)">
                  <use xlink:href="#rim" fill="#404040">
                        <set attributeName="fill" to="#808080" begin="arrowLeft.mouseover" end="arrowLeft.mouseout"/>
                  </use>
                  <path fill="none" stroke="white" stroke-width="1.5" d="M0,-3.0v7 M-2.5,-0.5L0,-3.0L2.5,-0.5"/>
                </g>
        </g>
        <svg viewBox="0 0 15 15" width="100%" height="30px" preserveAspectRatio="xMaxYMin meet">
         <g id="arrow_out" transform="scale(0.3 0.3)">
          <a xlink:href="label_8h__dep__incl_org.svg" target="_base">
           <rect id="button" ry="5" rx="5" y="6" x="6" height="38" width="38"
                fill="#f2f5e9" fill-opacity="0.5" stroke="#606060" stroke-width="1.0"/>
           <path id="arrow"
             d="M 11.500037,31.436501 C 11.940474,20.09759 22.043105,11.32322 32.158766,21.979434 L 37.068811,17.246167 C 37.068811,17.246167 37.088388,32 37.088388,32 L 22.160133,31.978069 C 22.160133,31.978069 26.997745,27.140456 26.997745,27.140456 C 18.528582,18.264221 13.291696,25.230495 11.500037,31.436501 z"
             style="fill:#404040;"/>
          </a>
         </g>
        </svg>
</svg>
