<?xml version="1.0" encoding="UTF-8" standalone="no"?>
<!DOCTYPE svg PUBLIC "-//W3C//DTD SVG 1.1//EN"
 "http://www.w3.org/Graphics/SVG/1.1/DTD/svg11.dtd">
<!-- Generated by graphviz version 2.38.0 (20140413.2041)
 -->
<!-- Title: src/label.c Pages: 1 -->
<!--zoomable 420 -->
<svg id="main" version="1.1" xmlns="http://www.w3.org/2000/svg" xmlns:xlink="http://www.w3.org/1999/xlink" xml:space="preserve" onload="init(evt)">
<style type="text/css"><![CDATA[
.edge:hover path { stroke: red; }
.edge:hover polygon { stroke: red; fill: red; }
]]></style>
<script type="text/javascript"><![CDATA[
var edges = document.getElementsByTagName('g');
if (edges && edges.length) {
  for (var i=0;i<edges.length;i++) {
    if (edges[i].id.substr(0,4)=='edge') {
      edges[i].setAttribute('class','edge');
    }
  }
}
]]></script>
        <defs>
                <circle id="rim" cx="0" cy="0" r="7"/>
                <circle id="rim2" cx="0" cy="0" r="3.5"/>
                <g id="zoomPlus">
                        <use xlink:href="#rim" fill="#404040">
                                <set attributeName="fill" to="#808080" begin="zoomplus.mouseover" end="zoomplus.mouseout"/>
                        </use>
                        <path d="M-4,0h8M0,-4v8" fill="none" stroke="white" stroke-width="1.5" pointer-events="none"/>
                </g>
                <g id="zoomMin">
                        <use xlink:href="#rim" fill="#404040">
                                <set attributeName="fill" to="#808080" begin="zoomminus.mouseover" end="zoomminus.mouseout"/>
                        </use>
                        <path d="M-4,0h8" fill="none" stroke="white" stroke-width="1.5" pointer-events="none"/>
                </g>
                <g id="dirArrow">
                        <path fill="none" stroke="white" stroke-width="1.5" d="M0,-3.0v7 M-2.5,-0.5L0,-3.0L2.5,-0.5"/>
                </g>
               <g id="resetDef">
                       <use xlink:href="#rim2" fill="#404040">
                               <set attributeName="fill" to="#808080" begin="reset.mouseover" end="reset.mouseout"/>
                       </use>
               </g>
        </defs>

<script type="text/javascript">
var viewWidth = 624;
var viewHeight = 420;
var sectionId = 'dynsection-0';
</script>
<script xlink:href="svgpan.js"/>
<svg id="graph" class="graph">
<g id="viewport">
<title>src/label.c</title>
<polygon fill="white" stroke="none" points="-4,4 -4,-416 620.269,-416 620.269,4 -4,4"/>
<!-- Node1 -->
<g id="node1" class="node"><title>Node1</title>
<polygon fill="#bfbfbf" stroke="black" points="420.269,-392.5 420.269,-411.5 482.269,-411.5 482.269,-392.5 420.269,-392.5"/>
<text text-anchor="middle" x="451.269" y="-399.5" font-family="Helvetica,sans-Serif" font-size="10.00">src/label.c</text>
</g>
<!-- Node2 -->
<g id="node2" class="node"><title>Node2</title>
<g id="a_node2"><a xlink:href="label_8h.html" target="_top" xlink:title="Label tables map human readable text strings to parts of semantic trees. ">
<polygon fill="white" stroke="black" points="428.769,-280.5 428.769,-299.5 473.769,-299.5 473.769,-280.5 428.769,-280.5"/>
<text text-anchor="middle" x="451.269" y="-287.5" font-family="Helvetica,sans-Serif" font-size="10.00">label.h</text>
</a>
</g>
</g>
<!-- Node1&#45;&gt;Node2 -->
<g id="edge1" class="edge"><title>Node1&#45;&gt;Node2</title>
<path fill="none" stroke="midnightblue" d="M451.269,-392.368C451.269,-374.617 451.269,-333.666 451.269,-309.597"/>
<polygon fill="midnightblue" stroke="midnightblue" points="454.769,-309.591 451.269,-299.591 447.769,-309.591 454.769,-309.591"/>
</g>
<!-- Node12 -->
<g id="node12" class="node"><title>Node12</title>
<g id="a_node12"><a xlink:href="tree_8h.html" target="_top" xlink:title="semantic trees header file ">
<polygon fill="white" stroke="black" points="310.769,-336.5 310.769,-355.5 351.769,-355.5 351.769,-336.5 310.769,-336.5"/>
<text text-anchor="middle" x="331.269" y="-343.5" font-family="Helvetica,sans-Serif" font-size="10.00">tree.h</text>
</a>
</g>
</g>
<!-- Node1&#45;&gt;Node12 -->
<g id="edge11" class="edge"><title>Node1&#45;&gt;Node12</title>
<path fill="none" stroke="midnightblue" d="M432.255,-392.444C412.681,-383.636 381.961,-369.812 359.54,-359.722"/>
<polygon fill="midnightblue" stroke="midnightblue" points="360.75,-356.428 350.194,-355.516 357.877,-362.812 360.75,-356.428"/>
</g>
<!-- Node22 -->
<g id="node22" class="node"><title>Node22</title>
<g id="a_node22"><a xlink:href="hashfn_8h_source.html" target="_top" xlink:title="hashfn.h">
<polygon fill="white" stroke="black" points="562.269,-224.5 562.269,-243.5 616.269,-243.5 616.269,-224.5 562.269,-224.5"/>
<text text-anchor="middle" x="589.269" y="-231.5" font-family="Helvetica,sans-Serif" font-size="10.00">hashfn.h</text>
</a>
</g>
</g>
<!-- Node1&#45;&gt;Node22 -->
<g id="edge31" class="edge"><title>Node1&#45;&gt;Node22</title>
<path fill="none" stroke="midnightblue" d="M460.748,-392.374C478.905,-375.594 519.354,-336.953 548.269,-300 560.178,-284.78 571.736,-265.975 579.528,-252.514"/>
<polygon fill="midnightblue" stroke="midnightblue" points="582.591,-254.208 584.487,-243.784 576.504,-250.75 582.591,-254.208"/>
</g>
<!-- Node3 -->
<g id="node3" class="node"><title>Node3</title>
<g id="a_node3"><a xlink:href="ceptr__types_8h_source.html" target="_top" xlink:title="ceptr_types.h">
<polygon fill="white" stroke="black" points="290.269,-112.5 290.269,-131.5 366.269,-131.5 366.269,-112.5 290.269,-112.5"/>
<text text-anchor="middle" x="328.269" y="-119.5" font-family="Helvetica,sans-Serif" font-size="10.00">ceptr_types.h</text>
</a>
</g>
</g>
<!-- Node2&#45;&gt;Node3 -->
<g id="edge2" class="edge"><title>Node2&#45;&gt;Node3</title>
<path fill="none" stroke="midnightblue" d="M446.888,-280.275C436.311,-259.631 407.903,-206.623 376.269,-168 367.424,-157.201 356.086,-146.458 346.65,-138.178"/>
<polygon fill="midnightblue" stroke="midnightblue" points="348.832,-135.439 338.958,-131.596 344.281,-140.757 348.832,-135.439"/>
</g>
<!-- Node4 -->
<g id="node4" class="node"><title>Node4</title>
<polygon fill="white" stroke="#bfbfbf" points="562.769,-56.5 562.769,-75.5 611.769,-75.5 611.769,-56.5 562.769,-56.5"/>
<text text-anchor="middle" x="587.269" y="-63.5" font-family="Helvetica,sans-Serif" font-size="10.00">stdint.h</text>
</g>
<!-- Node3&#45;&gt;Node4 -->
<g id="edge3" class="edge"><title>Node3&#45;&gt;Node4</title>
<path fill="none" stroke="midnightblue" d="M366.485,-113.032C416.694,-102.564 504.152,-84.3294 552.555,-74.2377"/>
<polygon fill="midnightblue" stroke="midnightblue" points="553.473,-77.6215 562.549,-72.154 552.045,-70.7689 553.473,-77.6215"/>
</g>
<!-- Node5 -->
<g id="node5" class="node"><title>Node5</title>
<polygon fill="white" stroke="#bfbfbf" points="238.269,-56.5 238.269,-75.5 284.269,-75.5 284.269,-56.5 238.269,-56.5"/>
<text text-anchor="middle" x="261.269" y="-63.5" font-family="Helvetica,sans-Serif" font-size="10.00">stdio.h</text>
</g>
<!-- Node3&#45;&gt;Node5 -->
<g id="edge4" class="edge"><title>Node3&#45;&gt;Node5</title>
<path fill="none" stroke="midnightblue" d="M317.504,-112.324C307.503,-104.263 292.382,-92.0765 280.338,-82.3695"/>
<polygon fill="midnightblue" stroke="midnightblue" points="282.212,-79.3841 272.229,-75.8339 277.819,-84.8343 282.212,-79.3841"/>
</g>
<!-- Node6 -->
<g id="node6" class="node"><title>Node6</title>
<g id="a_node6"><a xlink:href="uthash_8h_source.html" target="_top" xlink:title="uthash.h">
<polygon fill="white" stroke="black" points="302.269,-56.5 302.269,-75.5 356.269,-75.5 356.269,-56.5 302.269,-56.5"/>
<text text-anchor="middle" x="329.269" y="-63.5" font-family="Helvetica,sans-Serif" font-size="10.00">uthash.h</text>
</a>
</g>
</g>
<!-- Node3&#45;&gt;Node6 -->
<g id="edge5" class="edge"><title>Node3&#45;&gt;Node6</title>
<path fill="none" stroke="midnightblue" d="M328.434,-112.083C328.565,-105.006 328.753,-94.8611 328.917,-85.9865"/>
<polygon fill="midnightblue" stroke="midnightblue" points="332.421,-85.8142 329.107,-75.7511 325.422,-85.6845 332.421,-85.8142"/>
</g>
<!-- Node11 -->
<g id="node11" class="node"><title>Node11</title>
<polygon fill="white" stroke="#bfbfbf" points="374.269,-56.5 374.269,-75.5 430.269,-75.5 430.269,-56.5 374.269,-56.5"/>
<text text-anchor="middle" x="402.269" y="-63.5" font-family="Helvetica,sans-Serif" font-size="10.00">stdbool.h</text>
</g>
<!-- Node3&#45;&gt;Node11 -->
<g id="edge10" class="edge"><title>Node3&#45;&gt;Node11</title>
<path fill="none" stroke="midnightblue" d="M340.158,-112.324C351.419,-104.107 368.555,-91.6017 381.978,-81.8069"/>
<polygon fill="midnightblue" stroke="midnightblue" points="384.148,-84.5559 390.163,-75.8339 380.022,-78.9014 384.148,-84.5559"/>
</g>
<!-- Node7 -->
<g id="node7" class="node"><title>Node7</title>
<polygon fill="white" stroke="#bfbfbf" points="475.769,-0.5 475.769,-19.5 524.769,-19.5 524.769,-0.5 475.769,-0.5"/>
<text text-anchor="middle" x="500.269" y="-7.5" font-family="Helvetica,sans-Serif" font-size="10.00">string.h</text>
</g>
<!-- Node6&#45;&gt;Node7 -->
<g id="edge6" class="edge"><title>Node6&#45;&gt;Node7</title>
<path fill="none" stroke="midnightblue" d="M356.364,-56.4435C385.937,-47.1049 433.365,-32.1276 465.623,-21.9409"/>
<polygon fill="midnightblue" stroke="midnightblue" points="467.039,-25.164 475.521,-18.8151 464.931,-18.4889 467.039,-25.164"/>
</g>
<!-- Node8 -->
<g id="node8" class="node"><title>Node8</title>
<polygon fill="white" stroke="#bfbfbf" points="262.269,-0.5 262.269,-19.5 314.269,-19.5 314.269,-0.5 262.269,-0.5"/>
<text text-anchor="middle" x="288.269" y="-7.5" font-family="Helvetica,sans-Serif" font-size="10.00">stddef.h</text>
</g>
<!-- Node6&#45;&gt;Node8 -->
<g id="edge7" class="edge"><title>Node6&#45;&gt;Node8</title>
<path fill="none" stroke="midnightblue" d="M322.499,-56.083C316.707,-48.4554 308.21,-37.2645 301.131,-27.9408"/>
<polygon fill="midnightblue" stroke="midnightblue" points="303.748,-25.5991 294.913,-19.7511 298.173,-29.8321 303.748,-25.5991"/>
</g>
<!-- Node9 -->
<g id="node9" class="node"><title>Node9</title>
<polygon fill="white" stroke="#bfbfbf" points="103.269,-0.5 103.269,-19.5 151.269,-19.5 151.269,-0.5 103.269,-0.5"/>
<text text-anchor="middle" x="127.269" y="-7.5" font-family="Helvetica,sans-Serif" font-size="10.00">stdlib.h</text>
</g>
<!-- Node6&#45;&gt;Node9 -->
<g id="edge8" class="edge"><title>Node6&#45;&gt;Node9</title>
<path fill="none" stroke="midnightblue" d="M302.026,-57.7173C265.57,-47.9715 200.923,-30.6897 161.302,-20.098"/>
<polygon fill="midnightblue" stroke="midnightblue" points="162.124,-16.6949 151.56,-17.4935 160.316,-23.4574 162.124,-16.6949"/>
</g>
<!-- Node10 -->
<g id="node10" class="node"><title>Node10</title>
<polygon fill="white" stroke="#bfbfbf" points="332.769,-0.5 332.769,-19.5 391.769,-19.5 391.769,-0.5 332.769,-0.5"/>
<text text-anchor="middle" x="362.269" y="-7.5" font-family="Helvetica,sans-Serif" font-size="10.00">inttypes.h</text>
</g>
<!-- Node6&#45;&gt;Node10 -->
<g id="edge9" class="edge"><title>Node6&#45;&gt;Node10</title>
<path fill="none" stroke="midnightblue" d="M334.718,-56.083C339.283,-48.6127 345.937,-37.7244 351.562,-28.5199"/>
<polygon fill="midnightblue" stroke="midnightblue" points="354.693,-30.109 356.921,-19.7511 348.72,-26.4588 354.693,-30.109"/>
</g>
<!-- Node12&#45;&gt;Node3 -->
<g id="edge26" class="edge"><title>Node12&#45;&gt;Node3</title>
<path fill="none" stroke="midnightblue" d="M334.357,-336.173C337.321,-327.198 341.588,-312.827 343.269,-300 350.832,-242.285 339.089,-173.459 332.397,-141.28"/>
<polygon fill="midnightblue" stroke="midnightblue" points="335.817,-140.537 330.28,-131.504 328.976,-142.018 335.817,-140.537"/>
</g>
<!-- Node12&#45;&gt;Node7 -->
<g id="edge12" class="edge"><title>Node12&#45;&gt;Node7</title>
<path fill="none" stroke="midnightblue" d="M351.851,-343.464C403.459,-338.381 534.269,-317.374 534.269,-235 534.269,-235 534.269,-235 534.269,-121 534.269,-87.1598 519.399,-49.9705 509.327,-28.6613"/>
<polygon fill="midnightblue" stroke="midnightblue" points="512.406,-26.9912 504.854,-19.5604 506.124,-30.0788 512.406,-26.9912"/>
</g>
<!-- Node12&#45;&gt;Node9 -->
<g id="edge13" class="edge"><title>Node12&#45;&gt;Node9</title>
<path fill="none" stroke="midnightblue" d="M310.563,-342.694C238.099,-334.056 0.268918,-300.703 0.268918,-235 0.268918,-235 0.268918,-235 0.268918,-121 0.268918,-90.9022 -0.806753,-78.4242 19.2689,-56 38.3885,-34.6437 69.2465,-23.1584 93.0919,-17.1509"/>
<polygon fill="midnightblue" stroke="midnightblue" points="94.1989,-20.4875 103.156,-14.8295 92.6256,-13.6666 94.1989,-20.4875"/>
</g>
<!-- Node13 -->
<g id="node13" class="node"><title>Node13</title>
<g id="a_node13"><a xlink:href="ceptr__error_8h_source.html" target="_top" xlink:title="ceptr_error.h">
<polygon fill="white" stroke="black" points="159.769,-112.5 159.769,-131.5 230.769,-131.5 230.769,-112.5 159.769,-112.5"/>
<text text-anchor="middle" x="195.269" y="-119.5" font-family="Helvetica,sans-Serif" font-size="10.00">ceptr_error.h</text>
</a>
</g>
</g>
<!-- Node12&#45;&gt;Node13 -->
<g id="edge14" class="edge"><title>Node12&#45;&gt;Node13</title>
<path fill="none" stroke="midnightblue" d="M310.551,-338.849C291.69,-332.213 264.396,-319.843 248.269,-300 209.553,-252.364 199.103,-177.039 196.295,-142.041"/>
<polygon fill="midnightblue" stroke="midnightblue" points="199.77,-141.558 195.605,-131.816 192.786,-142.029 199.77,-141.558"/>
</g>
<!-- Node17 -->
<g id="node17" class="node"><title>Node17</title>
<g id="a_node17"><a xlink:href="sys__defs_8h.html" target="_top" xlink:title="Defines types and vars for system defined semantics. ">
<polygon fill="white" stroke="black" points="248.769,-224.5 248.769,-243.5 313.769,-243.5 313.769,-224.5 248.769,-224.5"/>
<text text-anchor="middle" x="281.269" y="-231.5" font-family="Helvetica,sans-Serif" font-size="10.00">sys_defs.h</text>
</a>
</g>
</g>
<!-- Node12&#45;&gt;Node17 -->
<g id="edge19" class="edge"><title>Node12&#45;&gt;Node17</title>
<path fill="none" stroke="midnightblue" d="M310.61,-339.156C292.418,-332.789 267.039,-320.648 255.269,-300 246.381,-284.409 256.396,-265.179 266.464,-251.695"/>
<polygon fill="midnightblue" stroke="midnightblue" points="269.317,-253.734 272.89,-243.76 263.877,-249.328 269.317,-253.734"/>
</g>
<!-- Node19 -->
<g id="node19" class="node"><title>Node19</title>
<g id="a_node19"><a xlink:href="base__defs_8h.html" target="_top" xlink:title="auto&#45;generated system definitions ">
<polygon fill="white" stroke="black" points="264.269,-280.5 264.269,-299.5 334.269,-299.5 334.269,-280.5 264.269,-280.5"/>
<text text-anchor="middle" x="299.269" y="-287.5" font-family="Helvetica,sans-Serif" font-size="10.00">base_defs.h</text>
</a>
</g>
</g>
<!-- Node12&#45;&gt;Node19 -->
<g id="edge24" class="edge"><title>Node12&#45;&gt;Node19</title>
<path fill="none" stroke="midnightblue" d="M325.985,-336.083C321.558,-328.613 315.106,-317.724 309.651,-308.52"/>
<polygon fill="midnightblue" stroke="midnightblue" points="312.564,-306.57 304.455,-299.751 306.542,-310.138 312.564,-306.57"/>
</g>
<!-- Node20 -->
<g id="node20" class="node"><title>Node20</title>
<g id="a_node20"><a xlink:href="stream_8h.html" target="_top" xlink:title="streams abstraction header file ">
<polygon fill="white" stroke="black" points="384.769,-112.5 384.769,-131.5 439.769,-131.5 439.769,-112.5 384.769,-112.5"/>
<text text-anchor="middle" x="412.269" y="-119.5" font-family="Helvetica,sans-Serif" font-size="10.00">stream.h</text>
</a>
</g>
</g>
<!-- Node12&#45;&gt;Node20 -->
<g id="edge27" class="edge"><title>Node12&#45;&gt;Node20</title>
<path fill="none" stroke="midnightblue" d="M337.314,-336.381C343.281,-327.569 352.348,-313.321 358.269,-300 382.899,-244.588 400.564,-174.669 408.146,-141.756"/>
<polygon fill="midnightblue" stroke="midnightblue" points="411.619,-142.267 410.402,-131.743 404.79,-140.729 411.619,-142.267"/>
</g>
<!-- Node13&#45;&gt;Node5 -->
<g id="edge15" class="edge"><title>Node13&#45;&gt;Node5</title>
<path fill="none" stroke="midnightblue" d="M205.873,-112.324C215.725,-104.263 230.62,-92.0765 242.484,-82.3695"/>
<polygon fill="midnightblue" stroke="midnightblue" points="244.949,-84.8752 250.472,-75.8339 240.516,-79.4575 244.949,-84.8752"/>
</g>
<!-- Node14 -->
<g id="node14" class="node"><title>Node14</title>
<polygon fill="white" stroke="#bfbfbf" points="100.269,-56.5 100.269,-75.5 150.269,-75.5 150.269,-56.5 100.269,-56.5"/>
<text text-anchor="middle" x="125.269" y="-63.5" font-family="Helvetica,sans-Serif" font-size="10.00">signal.h</text>
</g>
<!-- Node13&#45;&gt;Node14 -->
<g id="edge16" class="edge"><title>Node13&#45;&gt;Node14</title>
<path fill="none" stroke="midnightblue" d="M184.022,-112.324C173.472,-104.185 157.468,-91.8395 144.827,-82.0874"/>
<polygon fill="midnightblue" stroke="midnightblue" points="146.776,-79.1707 136.72,-75.8339 142.5,-84.7132 146.776,-79.1707"/>
</g>
<!-- Node15 -->
<g id="node15" class="node"><title>Node15</title>
<polygon fill="white" stroke="#bfbfbf" points="168.269,-56.5 168.269,-75.5 220.269,-75.5 220.269,-56.5 168.269,-56.5"/>
<text text-anchor="middle" x="194.269" y="-63.5" font-family="Helvetica,sans-Serif" font-size="10.00">assert.h</text>
</g>
<!-- Node13&#45;&gt;Node15 -->
<g id="edge17" class="edge"><title>Node13&#45;&gt;Node15</title>
<path fill="none" stroke="midnightblue" d="M195.104,-112.083C194.973,-105.006 194.785,-94.8611 194.621,-85.9865"/>
<polygon fill="midnightblue" stroke="midnightblue" points="198.116,-85.6845 194.431,-75.7511 191.117,-85.8142 198.116,-85.6845"/>
</g>
<!-- Node16 -->
<g id="node16" class="node"><title>Node16</title>
<polygon fill="white" stroke="#bfbfbf" points="28.2689,-56.5 28.2689,-75.5 82.2689,-75.5 82.2689,-56.5 28.2689,-56.5"/>
<text text-anchor="middle" x="55.2689" y="-63.5" font-family="Helvetica,sans-Serif" font-size="10.00">setjmp.h</text>
</g>
<!-- Node13&#45;&gt;Node16 -->
<g id="edge18" class="edge"><title>Node13&#45;&gt;Node16</title>
<path fill="none" stroke="midnightblue" d="M173.086,-112.444C149.84,-103.478 113.12,-89.314 86.8537,-79.1827"/>
<polygon fill="midnightblue" stroke="midnightblue" points="87.9381,-75.8497 77.3485,-75.5164 85.419,-82.3807 87.9381,-75.8497"/>
</g>
<!-- Node17&#45;&gt;Node3 -->
<g id="edge20" class="edge"><title>Node17&#45;&gt;Node3</title>
<path fill="none" stroke="midnightblue" d="M286.169,-224.186C291.058,-215.221 298.633,-200.857 304.269,-188 311.06,-172.507 317.632,-154.421 322.177,-141.266"/>
<polygon fill="midnightblue" stroke="midnightblue" points="325.578,-142.136 325.477,-131.541 318.949,-139.886 325.578,-142.136"/>
</g>
<!-- Node18 -->
<g id="node18" class="node"><title>Node18</title>
<g id="a_node18"><a xlink:href="semtable_8h.html" target="_top" xlink:title="header file for table for coordinating meaning across a vmhost ">
<polygon fill="white" stroke="black" points="230.769,-168.5 230.769,-187.5 295.769,-187.5 295.769,-168.5 230.769,-168.5"/>
<text text-anchor="middle" x="263.269" y="-175.5" font-family="Helvetica,sans-Serif" font-size="10.00">semtable.h</text>
</a>
</g>
</g>
<!-- Node17&#45;&gt;Node18 -->
<g id="edge21" class="edge"><title>Node17&#45;&gt;Node18</title>
<path fill="none" stroke="midnightblue" d="M278.297,-224.083C275.885,-216.849 272.405,-206.409 269.401,-197.397"/>
<polygon fill="midnightblue" stroke="midnightblue" points="272.669,-196.131 266.186,-187.751 266.028,-198.345 272.669,-196.131"/>
</g>
<!-- Node18&#45;&gt;Node3 -->
<g id="edge22" class="edge"><title>Node18&#45;&gt;Node3</title>
<path fill="none" stroke="midnightblue" d="M273.712,-168.324C283.415,-160.263 298.084,-148.077 309.769,-138.369"/>
<polygon fill="midnightblue" stroke="midnightblue" points="312.18,-140.916 317.636,-131.834 307.707,-135.532 312.18,-140.916"/>
</g>
<!-- Node18&#45;&gt;Node13 -->
<g id="edge23" class="edge"><title>Node18&#45;&gt;Node13</title>
<path fill="none" stroke="midnightblue" d="M252.344,-168.324C242.094,-160.185 226.548,-147.839 214.268,-138.087"/>
<polygon fill="midnightblue" stroke="midnightblue" points="216.401,-135.312 206.393,-131.834 212.048,-140.794 216.401,-135.312"/>
</g>
<!-- Node19&#45;&gt;Node17 -->
<g id="edge25" class="edge"><title>Node19&#45;&gt;Node17</title>
<path fill="none" stroke="midnightblue" d="M296.297,-280.083C293.885,-272.849 290.405,-262.409 287.401,-253.397"/>
<polygon fill="midnightblue" stroke="midnightblue" points="290.669,-252.131 284.186,-243.751 284.028,-254.345 290.669,-252.131"/>
</g>
<!-- Node20&#45;&gt;Node5 -->
<g id="edge28" class="edge"><title>Node20&#45;&gt;Node5</title>
<path fill="none" stroke="midnightblue" d="M388.343,-112.444C362.901,-103.345 322.494,-88.8952 294.09,-78.7372"/>
<polygon fill="midnightblue" stroke="midnightblue" points="295.182,-75.4108 284.587,-75.339 292.825,-82.002 295.182,-75.4108"/>
</g>
<!-- Node20&#45;&gt;Node11 -->
<g id="edge30" class="edge"><title>Node20&#45;&gt;Node11</title>
<path fill="none" stroke="midnightblue" d="M410.618,-112.083C409.292,-104.927 407.387,-94.6353 405.73,-85.6911"/>
<polygon fill="midnightblue" stroke="midnightblue" points="409.152,-84.9466 403.889,-75.7511 402.269,-86.2212 409.152,-84.9466"/>
</g>
<!-- Node21 -->
<g id="node21" class="node"><title>Node21</title>
<polygon fill="white" stroke="#bfbfbf" points="448.769,-56.5 448.769,-75.5 505.769,-75.5 505.769,-56.5 448.769,-56.5"/>
<text text-anchor="middle" x="477.269" y="-63.5" font-family="Helvetica,sans-Serif" font-size="10.00">pthread.h</text>
</g>
<!-- Node20&#45;&gt;Node21 -->
<g id="edge29" class="edge"><title>Node20&#45;&gt;Node21</title>
<path fill="none" stroke="midnightblue" d="M422.712,-112.324C432.415,-104.263 447.084,-92.0765 458.769,-82.3695"/>
<polygon fill="midnightblue" stroke="midnightblue" points="461.18,-84.9163 466.636,-75.8339 456.707,-79.532 461.18,-84.9163"/>
</g>
<!-- Node22&#45;&gt;Node4 -->
<g id="edge32" class="edge"><title>Node22&#45;&gt;Node4</title>
<path fill="none" stroke="midnightblue" d="M589.161,-224.075C588.847,-197.945 587.922,-121.211 587.493,-85.577"/>
<polygon fill="midnightblue" stroke="midnightblue" points="590.992,-85.5252 587.372,-75.5681 583.993,-85.6096 590.992,-85.5252"/>
</g>
</g>
</svg>
        <g id="navigator" transform="translate(0 0)" fill="#404254">
                <rect fill="#f2f5e9" fill-opacity="0.5" stroke="#606060" stroke-width=".5" x="0" y="0" width="60" height="60"/>
                <use id="zoomplus" xlink:href="#zoomPlus" x="17" y="9" onmousedown="handleZoom(evt,'in')"/>
                <use id="zoomminus" xlink:href="#zoomMin" x="42" y="9" onmousedown="handleZoom(evt,'out')"/>
                <use id="reset" xlink:href="#resetDef" x="30" y="36" onmousedown="handleReset()"/>
                <g id="arrowUp" xlink:href="#dirArrow" transform="translate(30 24)" onmousedown="handlePan(0,-1)">
                  <use xlink:href="#rim" fill="#404040">
                        <set attributeName="fill" to="#808080" begin="arrowUp.mouseover" end="arrowUp.mouseout"/>
                  </use>
                  <path fill="none" stroke="white" stroke-width="1.5" d="M0,-3.0v7 M-2.5,-0.5L0,-3.0L2.5,-0.5"/>
                </g>
                <g id="arrowRight" xlink:href="#dirArrow" transform="rotate(90) translate(36 -43)" onmousedown="handlePan(1,0)">
                  <use xlink:href="#rim" fill="#404040">
                        <set attributeName="fill" to="#808080" begin="arrowRight.mouseover" end="arrowRight.mouseout"/>
                  </use>
                  <path fill="none" stroke="white" stroke-width="1.5" d="M0,-3.0v7 M-2.5,-0.5L0,-3.0L2.5,-0.5"/>
                </g>
                <g id="arrowDown" xlink:href="#dirArrow" transform="rotate(180) translate(-30 -48)" onmousedown="handlePan(0,1)">
                  <use xlink:href="#rim" fill="#404040">
                        <set attributeName="fill" to="#808080" begin="arrowDown.mouseover" end="arrowDown.mouseout"/>
                  </use>
                  <path fill="none" stroke="white" stroke-width="1.5" d="M0,-3.0v7 M-2.5,-0.5L0,-3.0L2.5,-0.5"/>
                </g>
                <g id="arrowLeft" xlink:href="#dirArrow" transform="rotate(270) translate(-36 17)" onmousedown="handlePan(-1,0)">
                  <use xlink:href="#rim" fill="#404040">
                        <set attributeName="fill" to="#808080" begin="arrowLeft.mouseover" end="arrowLeft.mouseout"/>
                  </use>
                  <path fill="none" stroke="white" stroke-width="1.5" d="M0,-3.0v7 M-2.5,-0.5L0,-3.0L2.5,-0.5"/>
                </g>
        </g>
        <svg viewBox="0 0 15 15" width="100%" height="30px" preserveAspectRatio="xMaxYMin meet">
         <g id="arrow_out" transform="scale(0.3 0.3)">
          <a xlink:href="label_8c__incl_org.svg" target="_base">
           <rect id="button" ry="5" rx="5" y="6" x="6" height="38" width="38"
                fill="#f2f5e9" fill-opacity="0.5" stroke="#606060" stroke-width="1.0"/>
           <path id="arrow"
             d="M 11.500037,31.436501 C 11.940474,20.09759 22.043105,11.32322 32.158766,21.979434 L 37.068811,17.246167 C 37.068811,17.246167 37.088388,32 37.088388,32 L 22.160133,31.978069 C 22.160133,31.978069 26.997745,27.140456 26.997745,27.140456 C 18.528582,18.264221 13.291696,25.230495 11.500037,31.436501 z"
             style="fill:#404040;"/>
          </a>
         </g>
        </svg>
</svg>
