<?xml version="1.0" encoding="UTF-8" standalone="no"?>
<!DOCTYPE svg PUBLIC "-//W3C//DTD SVG 1.1//EN"
 "http://www.w3.org/Graphics/SVG/1.1/DTD/svg11.dtd">
<!-- Generated by graphviz version 2.38.0 (20140413.2041)
 -->
<!-- Title: src/label.h Pages: 1 -->
<!--zoomable 308 -->
<svg id="main" version="1.1" xmlns="http://www.w3.org/2000/svg" xmlns:xlink="http://www.w3.org/1999/xlink" xml:space="preserve" onload="init(evt)">
<style type="text/css"><![CDATA[
.edge:hover path { stroke: red; }
.edge:hover polygon { stroke: red; fill: red; }
]]></style>
<script type="text/javascript"><![CDATA[
var edges = document.getElementsByTagName('g');
if (edges && edges.length) {
  for (var i=0;i<edges.length;i++) {
    if (edges[i].id.substr(0,4)=='edge') {
      edges[i].setAttribute('class','edge');
    }
  }
}
]]></script>
        <defs>
                <circle id="rim" cx="0" cy="0" r="7"/>
                <circle id="rim2" cx="0" cy="0" r="3.5"/>
                <g id="zoomPlus">
                        <use xlink:href="#rim" fill="#404040">
                                <set attributeName="fill" to="#808080" begin="zoomplus.mouseover" end="zoomplus.mouseout"/>
                        </use>
                        <path d="M-4,0h8M0,-4v8" fill="none" stroke="white" stroke-width="1.5" pointer-events="none"/>
                </g>
                <g id="zoomMin">
                        <use xlink:href="#rim" fill="#404040">
                                <set attributeName="fill" to="#808080" begin="zoomminus.mouseover" end="zoomminus.mouseout"/>
                        </use>
                        <path d="M-4,0h8" fill="none" stroke="white" stroke-width="1.5" pointer-events="none"/>
                </g>
                <g id="dirArrow">
                        <path fill="none" stroke="white" stroke-width="1.5" d="M0,-3.0v7 M-2.5,-0.5L0,-3.0L2.5,-0.5"/>
                </g>
               <g id="resetDef">
                       <use xlink:href="#rim2" fill="#404040">
                               <set attributeName="fill" to="#808080" begin="reset.mouseover" end="reset.mouseout"/>
                       </use>
               </g>
        </defs>

<script type="text/javascript">
var viewWidth = 1014;
var viewHeight = 308;
var sectionId = 'dynsection-1';
</script>
<script xlink:href="svgpan.js"/>
<svg id="graph" class="graph">
<g id="viewport">
<title>src/label.h</title>
<polygon fill="white" stroke="none" points="-4,4 -4,-304 1009.5,-304 1009.5,4 -4,4"/>
<!-- Node1 -->
<g id="node1" class="node"><title>Node1</title>
<polygon fill="#bfbfbf" stroke="black" points="846.5,-280.5 846.5,-299.5 908.5,-299.5 908.5,-280.5 846.5,-280.5"/>
<text text-anchor="middle" x="877.5" y="-287.5" font-family="Helvetica,sans-Serif" font-size="10.00">src/label.h</text>
</g>
<!-- Node2 -->
<g id="node2" class="node"><title>Node2</title>
<g id="a_node2"><a xlink:href="receptor_8h.html" target="_top" xlink:title="receptor implementation header file ">
<polygon fill="white" stroke="black" points="577,-224.5 577,-243.5 654,-243.5 654,-224.5 577,-224.5"/>
<text text-anchor="middle" x="615.5" y="-231.5" font-family="Helvetica,sans-Serif" font-size="10.00">src/receptor.h</text>
</a>
</g>
</g>
<!-- Node1&#45;&gt;Node2 -->
<g id="edge1" class="edge"><title>Node1&#45;&gt;Node2</title>
<path fill="none" stroke="midnightblue" d="M836.612,-280.573C786.735,-270.293 703.047,-253.044 654.19,-242.974"/>
<polygon fill="midnightblue" stroke="midnightblue" points="835.916,-284.003 846.416,-282.593 837.329,-277.147 835.916,-284.003"/>
</g>
<!-- Node20 -->
<g id="node20" class="node"><title>Node20</title>
<g id="a_node20"><a xlink:href="label_8c.html" target="_top" xlink:title="Implementation of label tabels for semantic reference to parts of semantic trees. ...">
<polygon fill="white" stroke="black" points="943.5,-224.5 943.5,-243.5 1005.5,-243.5 1005.5,-224.5 943.5,-224.5"/>
<text text-anchor="middle" x="974.5" y="-231.5" font-family="Helvetica,sans-Serif" font-size="10.00">src/label.c</text>
</a>
</g>
</g>
<!-- Node1&#45;&gt;Node20 -->
<g id="edge33" class="edge"><title>Node1&#45;&gt;Node20</title>
<path fill="none" stroke="midnightblue" d="M901.835,-275.453C919.743,-265.483 943.554,-252.228 958.954,-243.655"/>
<polygon fill="midnightblue" stroke="midnightblue" points="900.12,-272.402 893.085,-280.324 903.525,-278.518 900.12,-272.402"/>
</g>
<!-- Node21 -->
<g id="node21" class="node"><title>Node21</title>
<g id="a_node21"><a xlink:href="label__spec_8h.html" target="_top" xlink:title="spec/label_spec.h">
<polygon fill="white" stroke="black" points="830,-224.5 830,-243.5 925,-243.5 925,-224.5 830,-224.5"/>
<text text-anchor="middle" x="877.5" y="-231.5" font-family="Helvetica,sans-Serif" font-size="10.00">spec/label_spec.h</text>
</a>
</g>
</g>
<!-- Node1&#45;&gt;Node21 -->
<g id="edge34" class="edge"><title>Node1&#45;&gt;Node21</title>
<path fill="none" stroke="midnightblue" d="M877.5,-269.805C877.5,-260.91 877.5,-250.78 877.5,-243.751"/>
<polygon fill="midnightblue" stroke="midnightblue" points="874,-270.083 877.5,-280.083 881,-270.083 874,-270.083"/>
</g>
<!-- Node3 -->
<g id="node3" class="node"><title>Node3</title>
<g id="a_node3"><a xlink:href="vmhost_8h.html" target="_top" xlink:title="vmhost implementation header file ">
<polygon fill="white" stroke="black" points="198.5,-168.5 198.5,-187.5 272.5,-187.5 272.5,-168.5 198.5,-168.5"/>
<text text-anchor="middle" x="235.5" y="-175.5" font-family="Helvetica,sans-Serif" font-size="10.00">src/vmhost.h</text>
</a>
</g>
</g>
<!-- Node2&#45;&gt;Node3 -->
<g id="edge2" class="edge"><title>Node2&#45;&gt;Node3</title>
<path fill="none" stroke="midnightblue" d="M566.691,-226.924C502.375,-218.781 385.773,-203.543 286.5,-188 281.97,-187.291 277.22,-186.507 272.519,-185.706"/>
<polygon fill="midnightblue" stroke="midnightblue" points="566.575,-230.437 576.935,-228.217 567.452,-223.492 566.575,-230.437"/>
</g>
<!-- Node6 -->
<g id="node6" class="node"><title>Node6</title>
<g id="a_node6"><a xlink:href="receptor_8c.html" target="_top" xlink:title="receptor implementation ">
<polygon fill="white" stroke="black" points="0,-56.5 0,-75.5 77,-75.5 77,-56.5 0,-56.5"/>
<text text-anchor="middle" x="38.5" y="-63.5" font-family="Helvetica,sans-Serif" font-size="10.00">src/receptor.c</text>
</a>
</g>
</g>
<!-- Node2&#45;&gt;Node6 -->
<g id="edge15" class="edge"><title>Node2&#45;&gt;Node6</title>
<path fill="none" stroke="midnightblue" d="M566.814,-231.291C469.982,-227.334 256.769,-215.682 189.5,-188 125.193,-161.537 66.1552,-98.7568 45.9106,-75.6934"/>
<polygon fill="midnightblue" stroke="midnightblue" points="566.791,-234.793 576.922,-231.693 567.069,-227.798 566.791,-234.793"/>
</g>
<!-- Node8 -->
<g id="node8" class="node"><title>Node8</title>
<g id="a_node8"><a xlink:href="receptor__spec_8h.html" target="_top" xlink:title="spec/receptor_spec.h">
<polygon fill="white" stroke="black" points="361.5,-56.5 361.5,-75.5 471.5,-75.5 471.5,-56.5 361.5,-56.5"/>
<text text-anchor="middle" x="416.5" y="-63.5" font-family="Helvetica,sans-Serif" font-size="10.00">spec/receptor_spec.h</text>
</a>
</g>
</g>
<!-- Node2&#45;&gt;Node8 -->
<g id="edge28" class="edge"><title>Node2&#45;&gt;Node8</title>
<path fill="none" stroke="midnightblue" d="M566.663,-232.849C500.467,-229.543 386.397,-211.938 350.5,-132 339.3,-107.06 372.08,-86.5795 395.367,-75.6341"/>
<polygon fill="midnightblue" stroke="midnightblue" points="566.722,-236.355 576.856,-233.264 567.007,-229.36 566.722,-236.355"/>
</g>
<!-- Node12 -->
<g id="node12" class="node"><title>Node12</title>
<g id="a_node12"><a xlink:href="process_8c.html" target="_top" xlink:title="implementation of ceptr processing: instructions and run tree reduction ">
<polygon fill="white" stroke="black" points="836.5,-168.5 836.5,-187.5 912.5,-187.5 912.5,-168.5 836.5,-168.5"/>
<text text-anchor="middle" x="874.5" y="-175.5" font-family="Helvetica,sans-Serif" font-size="10.00">src/process.c</text>
</a>
</g>
</g>
<!-- Node2&#45;&gt;Node12 -->
<g id="edge14" class="edge"><title>Node2&#45;&gt;Node12</title>
<path fill="none" stroke="midnightblue" d="M664.188,-222.849C714.077,-212.447 790.621,-196.488 836.305,-186.963"/>
<polygon fill="midnightblue" stroke="midnightblue" points="663.35,-219.448 654.275,-224.916 664.779,-226.301 663.35,-219.448"/>
</g>
<!-- Node13 -->
<g id="node13" class="node"><title>Node13</title>
<g id="a_node13"><a xlink:href="tree_8c.html" target="_top" xlink:title="semantic tree pointer implementation ">
<polygon fill="white" stroke="black" points="930.5,-168.5 930.5,-187.5 988.5,-187.5 988.5,-168.5 930.5,-168.5"/>
<text text-anchor="middle" x="959.5" y="-175.5" font-family="Helvetica,sans-Serif" font-size="10.00">src/tree.c</text>
</a>
</g>
</g>
<!-- Node2&#45;&gt;Node13 -->
<g id="edge16" class="edge"><title>Node2&#45;&gt;Node13</title>
<path fill="none" stroke="midnightblue" d="M664.369,-227.139C724.956,-219.568 831.266,-205.287 921.5,-188 924.297,-187.464 927.198,-186.862 930.096,-186.23"/>
<polygon fill="midnightblue" stroke="midnightblue" points="663.818,-223.68 654.325,-228.385 664.679,-230.627 663.818,-223.68"/>
</g>
<!-- Node14 -->
<g id="node14" class="node"><title>Node14</title>
<g id="a_node14"><a xlink:href="tree__spec_8h.html" target="_top" xlink:title="spec/tree_spec.h">
<polygon fill="white" stroke="black" points="492.5,-112.5 492.5,-131.5 584.5,-131.5 584.5,-112.5 492.5,-112.5"/>
<text text-anchor="middle" x="538.5" y="-119.5" font-family="Helvetica,sans-Serif" font-size="10.00">spec/tree_spec.h</text>
</a>
</g>
</g>
<!-- Node2&#45;&gt;Node14 -->
<g id="edge17" class="edge"><title>Node2&#45;&gt;Node14</title>
<path fill="none" stroke="midnightblue" d="M603.57,-215.957C586.883,-192.118 557.196,-149.709 544.514,-131.591"/>
<polygon fill="midnightblue" stroke="midnightblue" points="600.856,-218.183 609.458,-224.368 606.591,-214.169 600.856,-218.183"/>
</g>
<!-- Node15 -->
<g id="node15" class="node"><title>Node15</title>
<g id="a_node15"><a xlink:href="http__example_8h.html" target="_top" xlink:title="spec/http_example.h">
<polygon fill="white" stroke="black" points="423,-168.5 423,-187.5 530,-187.5 530,-168.5 423,-168.5"/>
<text text-anchor="middle" x="476.5" y="-175.5" font-family="Helvetica,sans-Serif" font-size="10.00">spec/http_example.h</text>
</a>
</g>
</g>
<!-- Node2&#45;&gt;Node15 -->
<g id="edge19" class="edge"><title>Node2&#45;&gt;Node15</title>
<path fill="none" stroke="midnightblue" d="M584.024,-220.772C557.915,-210.629 521.461,-196.467 498.422,-187.516"/>
<polygon fill="midnightblue" stroke="midnightblue" points="582.886,-224.085 593.475,-224.444 585.421,-217.56 582.886,-224.085"/>
</g>
<!-- Node16 -->
<g id="node16" class="node"><title>Node16</title>
<g id="a_node16"><a xlink:href="mtree__spec_8h.html" target="_top" xlink:title="spec/mtree_spec.h">
<polygon fill="white" stroke="black" points="602.5,-112.5 602.5,-131.5 702.5,-131.5 702.5,-112.5 602.5,-112.5"/>
<text text-anchor="middle" x="652.5" y="-119.5" font-family="Helvetica,sans-Serif" font-size="10.00">spec/mtree_spec.h</text>
</a>
</g>
</g>
<!-- Node2&#45;&gt;Node16 -->
<g id="edge25" class="edge"><title>Node2&#45;&gt;Node16</title>
<path fill="none" stroke="midnightblue" d="M614.323,-214.011C614.126,-200.74 615.135,-182.815 620.5,-168 625.592,-153.939 636.361,-140.305 643.997,-131.798"/>
<polygon fill="midnightblue" stroke="midnightblue" points="610.836,-214.425 614.726,-224.28 617.831,-214.15 610.836,-214.425"/>
</g>
<!-- Node17 -->
<g id="node17" class="node"><title>Node17</title>
<g id="a_node17"><a xlink:href="semtrex__spec_8h.html" target="_top" xlink:title="spec/semtrex_spec.h">
<polygon fill="white" stroke="black" points="720.5,-112.5 720.5,-131.5 830.5,-131.5 830.5,-112.5 720.5,-112.5"/>
<text text-anchor="middle" x="775.5" y="-119.5" font-family="Helvetica,sans-Serif" font-size="10.00">spec/semtrex_spec.h</text>
</a>
</g>
</g>
<!-- Node2&#45;&gt;Node17 -->
<g id="edge26" class="edge"><title>Node2&#45;&gt;Node17</title>
<path fill="none" stroke="midnightblue" d="M623.657,-214.77C630.946,-200.323 642.882,-180.547 658.5,-168 681.15,-149.804 711.995,-138.349 736.327,-131.552"/>
<polygon fill="midnightblue" stroke="midnightblue" points="620.322,-213.634 619.185,-224.167 626.642,-216.642 620.322,-213.634"/>
</g>
<!-- Node18 -->
<g id="node18" class="node"><title>Node18</title>
<g id="a_node18"><a xlink:href="scape__spec_8h.html" target="_top" xlink:title="spec/scape_spec.h">
<polygon fill="white" stroke="black" points="849,-112.5 849,-131.5 950,-131.5 950,-112.5 849,-112.5"/>
<text text-anchor="middle" x="899.5" y="-119.5" font-family="Helvetica,sans-Serif" font-size="10.00">spec/scape_spec.h</text>
</a>
</g>
</g>
<!-- Node2&#45;&gt;Node18 -->
<g id="edge29" class="edge"><title>Node2&#45;&gt;Node18</title>
<path fill="none" stroke="midnightblue" d="M629.867,-216.771C644.045,-201.795 667.089,-180.104 691.5,-168 718.643,-154.542 796.372,-139.859 848.735,-131.044"/>
<polygon fill="midnightblue" stroke="midnightblue" points="627.141,-214.565 622.95,-224.296 632.294,-219.302 627.141,-214.565"/>
</g>
<!-- Node19 -->
<g id="node19" class="node"><title>Node19</title>
<g id="a_node19"><a xlink:href="profile__example_8h.html" target="_top" xlink:title="spec/profile_example.h">
<polygon fill="white" stroke="black" points="701,-168.5 701,-187.5 818,-187.5 818,-168.5 701,-168.5"/>
<text text-anchor="middle" x="759.5" y="-175.5" font-family="Helvetica,sans-Serif" font-size="10.00">spec/profile_example.h</text>
</a>
</g>
</g>
<!-- Node2&#45;&gt;Node19 -->
<g id="edge31" class="edge"><title>Node2&#45;&gt;Node19</title>
<path fill="none" stroke="midnightblue" d="M647.751,-220.906C674.824,-210.754 712.817,-196.506 736.79,-187.516"/>
<polygon fill="midnightblue" stroke="midnightblue" points="646.452,-217.655 638.317,-224.444 648.909,-224.209 646.452,-217.655"/>
</g>
<!-- Node4 -->
<g id="node4" class="node"><title>Node4</title>
<g id="a_node4"><a xlink:href="de_8h.html" target="_top" xlink:title="header file for data engine ">
<polygon fill="white" stroke="black" points="182.5,-112.5 182.5,-131.5 234.5,-131.5 234.5,-112.5 182.5,-112.5"/>
<text text-anchor="middle" x="208.5" y="-119.5" font-family="Helvetica,sans-Serif" font-size="10.00">src/de.h</text>
</a>
</g>
</g>
<!-- Node3&#45;&gt;Node4 -->
<g id="edge3" class="edge"><title>Node3&#45;&gt;Node4</title>
<path fill="none" stroke="midnightblue" d="M226.491,-158.983C221.908,-149.817 216.546,-139.092 212.876,-131.751"/>
<polygon fill="midnightblue" stroke="midnightblue" points="223.439,-160.704 231.041,-168.083 229.7,-157.573 223.439,-160.704"/>
</g>
<!-- Node7 -->
<g id="node7" class="node"><title>Node7</title>
<g id="a_node7"><a xlink:href="vmhost_8c.html" target="_top" xlink:title="virtual machine host receptor implementation ">
<polygon fill="white" stroke="black" points="269.5,-56.5 269.5,-75.5 343.5,-75.5 343.5,-56.5 269.5,-56.5"/>
<text text-anchor="middle" x="306.5" y="-63.5" font-family="Helvetica,sans-Serif" font-size="10.00">src/vmhost.c</text>
</a>
</g>
</g>
<!-- Node3&#45;&gt;Node7 -->
<g id="edge11" class="edge"><title>Node3&#45;&gt;Node7</title>
<path fill="none" stroke="midnightblue" d="M246.5,-159.957C261.887,-136.118 289.261,-93.7088 300.955,-75.5914"/>
<polygon fill="midnightblue" stroke="midnightblue" points="243.554,-158.069 241.071,-168.368 249.435,-161.865 243.554,-158.069"/>
</g>
<!-- Node11 -->
<g id="node11" class="node"><title>Node11</title>
<g id="a_node11"><a xlink:href="vmhost__spec_8h.html" target="_top" xlink:title="spec/vmhost_spec.h">
<polygon fill="white" stroke="black" points="367,-112.5 367,-131.5 474,-131.5 474,-112.5 367,-112.5"/>
<text text-anchor="middle" x="420.5" y="-119.5" font-family="Helvetica,sans-Serif" font-size="10.00">spec/vmhost_spec.h</text>
</a>
</g>
</g>
<!-- Node3&#45;&gt;Node11 -->
<g id="edge12" class="edge"><title>Node3&#45;&gt;Node11</title>
<path fill="none" stroke="midnightblue" d="M274.666,-165.568C309.565,-155.381 359.849,-140.703 391.323,-131.516"/>
<polygon fill="midnightblue" stroke="midnightblue" points="273.433,-162.282 264.814,-168.444 275.394,-169.001 273.433,-162.282"/>
</g>
<!-- Node5 -->
<g id="node5" class="node"><title>Node5</title>
<g id="a_node5"><a xlink:href="de_8c.html" target="_top" xlink:title="implementation file for data engine ">
<polygon fill="white" stroke="black" points="95.5,-56.5 95.5,-75.5 147.5,-75.5 147.5,-56.5 95.5,-56.5"/>
<text text-anchor="middle" x="121.5" y="-63.5" font-family="Helvetica,sans-Serif" font-size="10.00">src/de.c</text>
</a>
</g>
</g>
<!-- Node4&#45;&gt;Node5 -->
<g id="edge4" class="edge"><title>Node4&#45;&gt;Node5</title>
<path fill="none" stroke="midnightblue" d="M185.784,-106.901C169.831,-96.9986 149.003,-84.0705 135.443,-75.6545"/>
<polygon fill="midnightblue" stroke="midnightblue" points="184.18,-110.024 194.522,-112.324 187.871,-104.077 184.18,-110.024"/>
</g>
<!-- Node4&#45;&gt;Node6 -->
<g id="edge5" class="edge"><title>Node4&#45;&gt;Node6</title>
<path fill="none" stroke="midnightblue" d="M172.43,-109.543C140.353,-99.3533 94.1773,-84.6857 65.281,-75.5069"/>
<polygon fill="midnightblue" stroke="midnightblue" points="171.72,-112.989 182.31,-112.681 173.839,-106.318 171.72,-112.989"/>
</g>
<!-- Node4&#45;&gt;Node7 -->
<g id="edge6" class="edge"><title>Node4&#45;&gt;Node7</title>
<path fill="none" stroke="midnightblue" d="M233.086,-107.453C251.178,-97.4835 275.235,-84.2279 290.794,-75.6545"/>
<polygon fill="midnightblue" stroke="midnightblue" points="231.315,-104.432 224.245,-112.324 234.693,-110.563 231.315,-104.432"/>
</g>
<!-- Node4&#45;&gt;Node8 -->
<g id="edge7" class="edge"><title>Node4&#45;&gt;Node8</title>
<path fill="none" stroke="midnightblue" d="M244.761,-111.586C283.904,-101.424 345.708,-85.3787 383.524,-75.5611"/>
<polygon fill="midnightblue" stroke="midnightblue" points="243.643,-108.26 234.843,-114.161 245.402,-115.036 243.643,-108.26"/>
</g>
<!-- Node10 -->
<g id="node10" class="node"><title>Node10</title>
<g id="a_node10"><a xlink:href="de__spec_8h.html" target="_top" xlink:title="spec/de_spec.h">
<polygon fill="white" stroke="black" points="165.5,-56.5 165.5,-75.5 251.5,-75.5 251.5,-56.5 165.5,-56.5"/>
<text text-anchor="middle" x="208.5" y="-63.5" font-family="Helvetica,sans-Serif" font-size="10.00">spec/de_spec.h</text>
</a>
</g>
</g>
<!-- Node4&#45;&gt;Node10 -->
<g id="edge9" class="edge"><title>Node4&#45;&gt;Node10</title>
<path fill="none" stroke="midnightblue" d="M208.5,-101.805C208.5,-92.9102 208.5,-82.7798 208.5,-75.7511"/>
<polygon fill="midnightblue" stroke="midnightblue" points="205,-102.083 208.5,-112.083 212,-102.083 205,-102.083"/>
</g>
<!-- Node9 -->
<g id="node9" class="node"><title>Node9</title>
<g id="a_node9"><a xlink:href="ceptr__specs_8c.html" target="_top" xlink:title="implements a main() entry point for running all the tests ">
<polygon fill="white" stroke="black" points="601.5,-0.5 601.5,-19.5 703.5,-19.5 703.5,-0.5 601.5,-0.5"/>
<text text-anchor="middle" x="652.5" y="-7.5" font-family="Helvetica,sans-Serif" font-size="10.00">spec/ceptr_specs.c</text>
</a>
</g>
</g>
<!-- Node8&#45;&gt;Node9 -->
<g id="edge8" class="edge"><title>Node8&#45;&gt;Node9</title>
<path fill="none" stroke="midnightblue" d="M463.906,-54.1529C508.497,-43.95 574.354,-28.8809 615.28,-19.5164"/>
<polygon fill="midnightblue" stroke="midnightblue" points="462.862,-50.8011 453.895,-56.4435 464.424,-57.6248 462.862,-50.8011"/>
</g>
<!-- Node10&#45;&gt;Node9 -->
<g id="edge10" class="edge"><title>Node10&#45;&gt;Node9</title>
<path fill="none" stroke="midnightblue" d="M261.586,-55.9151C389.647,-37.7099 528.268,-23.1839 601.325,-15.9333"/>
<polygon fill="midnightblue" stroke="midnightblue" points="261.003,-52.4628 251.6,-57.3453 261.995,-59.3921 261.003,-52.4628"/>
</g>
<!-- Node11&#45;&gt;Node9 -->
<g id="edge13" class="edge"><title>Node11&#45;&gt;Node9</title>
<path fill="none" stroke="midnightblue" d="M447.873,-108.021C495.854,-85.2717 593.886,-38.791 634.38,-19.5914"/>
<polygon fill="midnightblue" stroke="midnightblue" points="446.241,-104.922 438.705,-112.368 449.24,-111.247 446.241,-104.922"/>
</g>
<!-- Node14&#45;&gt;Node9 -->
<g id="edge18" class="edge"><title>Node14&#45;&gt;Node9</title>
<path fill="none" stroke="midnightblue" d="M554.869,-105.205C579.305,-81.6272 624.488,-38.0294 643.596,-19.5914"/>
<polygon fill="midnightblue" stroke="midnightblue" points="552.211,-102.906 547.445,-112.368 557.072,-107.943 552.211,-102.906"/>
</g>
<!-- Node15&#45;&gt;Node8 -->
<g id="edge23" class="edge"><title>Node15&#45;&gt;Node8</title>
<path fill="none" stroke="midnightblue" d="M413.229,-167.923C391.938,-161.514 370.348,-150.595 357.5,-132 342.252,-109.933 375.857,-87.4852 398.349,-75.6106"/>
<polygon fill="midnightblue" stroke="midnightblue" points="412.39,-171.322 422.958,-170.562 414.222,-164.566 412.39,-171.322"/>
</g>
<!-- Node15&#45;&gt;Node11 -->
<g id="edge24" class="edge"><title>Node15&#45;&gt;Node11</title>
<path fill="none" stroke="midnightblue" d="M460.17,-161.253C450.235,-151.673 437.912,-139.791 429.661,-131.834"/>
<polygon fill="midnightblue" stroke="midnightblue" points="457.875,-163.902 467.503,-168.324 462.734,-158.863 457.875,-163.902"/>
</g>
<!-- Node15&#45;&gt;Node14 -->
<g id="edge20" class="edge"><title>Node15&#45;&gt;Node14</title>
<path fill="none" stroke="midnightblue" d="M494.254,-161.537C505.308,-151.909 519.131,-139.869 528.357,-131.834"/>
<polygon fill="midnightblue" stroke="midnightblue" points="491.703,-159.117 486.461,-168.324 496.301,-164.395 491.703,-159.117"/>
</g>
<!-- Node15&#45;&gt;Node16 -->
<g id="edge21" class="edge"><title>Node15&#45;&gt;Node16</title>
<path fill="none" stroke="midnightblue" d="M514.189,-165.436C547.372,-155.255 594.928,-140.664 624.743,-131.516"/>
<polygon fill="midnightblue" stroke="midnightblue" points="512.921,-162.164 504.388,-168.444 514.975,-168.856 512.921,-162.164"/>
</g>
<!-- Node16&#45;&gt;Node9 -->
<g id="edge22" class="edge"><title>Node16&#45;&gt;Node9</title>
<path fill="none" stroke="midnightblue" d="M652.5,-102.348C652.5,-78.2538 652.5,-37.3079 652.5,-19.5914"/>
<polygon fill="midnightblue" stroke="midnightblue" points="649,-102.368 652.5,-112.368 656,-102.369 649,-102.368"/>
</g>
<!-- Node17&#45;&gt;Node9 -->
<g id="edge27" class="edge"><title>Node17&#45;&gt;Node9</title>
<path fill="none" stroke="midnightblue" d="M758.181,-105.512C731.899,-82.0068 682.813,-38.1096 662.107,-19.5914"/>
<polygon fill="midnightblue" stroke="midnightblue" points="756.061,-108.311 765.848,-112.368 760.728,-103.093 756.061,-108.311"/>
</g>
<!-- Node18&#45;&gt;Node9 -->
<g id="edge30" class="edge"><title>Node18&#45;&gt;Node9</title>
<path fill="none" stroke="midnightblue" d="M870.676,-108.163C819.71,-85.4659 714.993,-38.8311 671.792,-19.5914"/>
<polygon fill="midnightblue" stroke="midnightblue" points="869.559,-111.497 880.118,-112.368 872.407,-105.103 869.559,-111.497"/>
</g>
<!-- Node19&#45;&gt;Node9 -->
<g id="edge32" class="edge"><title>Node19&#45;&gt;Node9</title>
<path fill="none" stroke="midnightblue" d="M823.201,-166.734C878.423,-157.185 950.827,-142.841 959.5,-132 965.053,-125.059 964.704,-119.206 959.5,-112 900.867,-30.8026 774.742,-13.7334 703.752,-10.8401"/>
<polygon fill="midnightblue" stroke="midnightblue" points="822.377,-163.324 813.109,-168.459 823.556,-170.224 822.377,-163.324"/>
</g>
<!-- Node21&#45;&gt;Node9 -->
<g id="edge35" class="edge"><title>Node21&#45;&gt;Node9</title>
<path fill="none" stroke="midnightblue" d="M922.947,-221.731C953.042,-213.244 988.562,-200.898 997.5,-188 1011.72,-167.488 985.68,-128.019 975.5,-112 957.12,-83.0777 952.752,-72.0983 922.5,-56 885.478,-36.2988 771.162,-22.3732 703.732,-15.624"/>
<polygon fill="midnightblue" stroke="midnightblue" points="921.715,-218.439 912.995,-224.457 923.564,-225.191 921.715,-218.439"/>
</g>
</g>
</svg>
        <g id="navigator" transform="translate(0 0)" fill="#404254">
                <rect fill="#f2f5e9" fill-opacity="0.5" stroke="#606060" stroke-width=".5" x="0" y="0" width="60" height="60"/>
                <use id="zoomplus" xlink:href="#zoomPlus" x="17" y="9" onmousedown="handleZoom(evt,'in')"/>
                <use id="zoomminus" xlink:href="#zoomMin" x="42" y="9" onmousedown="handleZoom(evt,'out')"/>
                <use id="reset" xlink:href="#resetDef" x="30" y="36" onmousedown="handleReset()"/>
                <g id="arrowUp" xlink:href="#dirArrow" transform="translate(30 24)" onmousedown="handlePan(0,-1)">
                  <use xlink:href="#rim" fill="#404040">
                        <set attributeName="fill" to="#808080" begin="arrowUp.mouseover" end="arrowUp.mouseout"/>
                  </use>
                  <path fill="none" stroke="white" stroke-width="1.5" d="M0,-3.0v7 M-2.5,-0.5L0,-3.0L2.5,-0.5"/>
                </g>
                <g id="arrowRight" xlink:href="#dirArrow" transform="rotate(90) translate(36 -43)" onmousedown="handlePan(1,0)">
                  <use xlink:href="#rim" fill="#404040">
                        <set attributeName="fill" to="#808080" begin="arrowRight.mouseover" end="arrowRight.mouseout"/>
                  </use>
                  <path fill="none" stroke="white" stroke-width="1.5" d="M0,-3.0v7 M-2.5,-0.5L0,-3.0L2.5,-0.5"/>
                </g>
                <g id="arrowDown" xlink:href="#dirArrow" transform="rotate(180) translate(-30 -48)" onmousedown="handlePan(0,1)">
                  <use xlink:href="#rim" fill="#404040">
                        <set attributeName="fill" to="#808080" begin="arrowDown.mouseover" end="arrowDown.mouseout"/>
                  </use>
                  <path fill="none" stroke="white" stroke-width="1.5" d="M0,-3.0v7 M-2.5,-0.5L0,-3.0L2.5,-0.5"/>
                </g>
                <g id="arrowLeft" xlink:href="#dirArrow" transform="rotate(270) translate(-36 17)" onmousedown="handlePan(-1,0)">
                  <use xlink:href="#rim" fill="#404040">
                        <set attributeName="fill" to="#808080" begin="arrowLeft.mouseover" end="arrowLeft.mouseout"/>
                  </use>
                  <path fill="none" stroke="white" stroke-width="1.5" d="M0,-3.0v7 M-2.5,-0.5L0,-3.0L2.5,-0.5"/>
                </g>
        </g>
        <svg viewBox="0 0 15 15" width="100%" height="30px" preserveAspectRatio="xMaxYMin meet">
         <g id="arrow_out" transform="scale(0.3 0.3)">
          <a xlink:href="label_8h__dep__incl_org.svg" target="_base">
           <rect id="button" ry="5" rx="5" y="6" x="6" height="38" width="38"
                fill="#f2f5e9" fill-opacity="0.5" stroke="#606060" stroke-width="1.0"/>
           <path id="arrow"
             d="M 11.500037,31.436501 C 11.940474,20.09759 22.043105,11.32322 32.158766,21.979434 L 37.068811,17.246167 C 37.068811,17.246167 37.088388,32 37.088388,32 L 22.160133,31.978069 C 22.160133,31.978069 26.997745,27.140456 26.997745,27.140456 C 18.528582,18.264221 13.291696,25.230495 11.500037,31.436501 z"
             style="fill:#404040;"/>
          </a>
         </g>
        </svg>
</svg>
