<?xml version="1.0" encoding="UTF-8" standalone="no"?>
<!DOCTYPE svg PUBLIC "-//W3C//DTD SVG 1.1//EN"
 "http://www.w3.org/Graphics/SVG/1.1/DTD/svg11.dtd">
<!-- Generated by graphviz version 2.38.0 (20140413.2041)
 -->
<!-- Title: src/label.h Pages: 1 -->
<!--zoomable 364 -->
<svg id="main" version="1.1" xmlns="http://www.w3.org/2000/svg" xmlns:xlink="http://www.w3.org/1999/xlink" xml:space="preserve" onload="init(evt)">
<style type="text/css"><![CDATA[
.edge:hover path { stroke: red; }
.edge:hover polygon { stroke: red; fill: red; }
]]></style>
<script type="text/javascript"><![CDATA[
var edges = document.getElementsByTagName('g');
if (edges && edges.length) {
  for (var i=0;i<edges.length;i++) {
    if (edges[i].id.substr(0,4)=='edge') {
      edges[i].setAttribute('class','edge');
    }
  }
}
]]></script>
        <defs>
                <circle id="rim" cx="0" cy="0" r="7"/>
                <circle id="rim2" cx="0" cy="0" r="3.5"/>
                <g id="zoomPlus">
                        <use xlink:href="#rim" fill="#404040">
                                <set attributeName="fill" to="#808080" begin="zoomplus.mouseover" end="zoomplus.mouseout"/>
                        </use>
                        <path d="M-4,0h8M0,-4v8" fill="none" stroke="white" stroke-width="1.5" pointer-events="none"/>
                </g>
                <g id="zoomMin">
                        <use xlink:href="#rim" fill="#404040">
                                <set attributeName="fill" to="#808080" begin="zoomminus.mouseover" end="zoomminus.mouseout"/>
                        </use>
                        <path d="M-4,0h8" fill="none" stroke="white" stroke-width="1.5" pointer-events="none"/>
                </g>
                <g id="dirArrow">
                        <path fill="none" stroke="white" stroke-width="1.5" d="M0,-3.0v7 M-2.5,-0.5L0,-3.0L2.5,-0.5"/>
                </g>
               <g id="resetDef">
                       <use xlink:href="#rim2" fill="#404040">
                               <set attributeName="fill" to="#808080" begin="reset.mouseover" end="reset.mouseout"/>
                       </use>
               </g>
        </defs>

<script type="text/javascript">
var viewWidth = 1585;
var viewHeight = 364;
var sectionId = 'dynsection-1';
</script>
<script xlink:href="svgpan.js"/>
<svg id="graph" class="graph">
<g id="viewport">
<title>src/label.h</title>
<polygon fill="white" stroke="none" points="-4,4 -4,-360 1581,-360 1581,4 -4,4"/>
<!-- Node1 -->
<g id="node1" class="node"><title>Node1</title>
<polygon fill="#bfbfbf" stroke="black" points="1306,-336.5 1306,-355.5 1368,-355.5 1368,-336.5 1306,-336.5"/>
<text text-anchor="middle" x="1337" y="-343.5" font-family="Helvetica,sans-Serif" font-size="10.00">src/label.h</text>
</g>
<!-- Node2 -->
<g id="node2" class="node"><title>Node2</title>
<g id="a_node2"><a xlink:href="receptor_8h.html" target="_top" xlink:title="receptor implementation header file ">
<polygon fill="white" stroke="black" points="950.5,-280.5 950.5,-299.5 1027.5,-299.5 1027.5,-280.5 950.5,-280.5"/>
<text text-anchor="middle" x="989" y="-287.5" font-family="Helvetica,sans-Serif" font-size="10.00">src/receptor.h</text>
</a>
</g>
</g>
<!-- Node1&#45;&gt;Node2 -->
<g id="edge1" class="edge"><title>Node1&#45;&gt;Node2</title>
<path fill="none" stroke="midnightblue" d="M1295.91,-338.624C1228.1,-328.102 1093.7,-307.246 1027.58,-296.986"/>
<polygon fill="midnightblue" stroke="midnightblue" points="1295.39,-342.085 1305.81,-340.16 1296.47,-335.168 1295.39,-342.085"/>
</g>
<!-- Node32 -->
<g id="node32" class="node"><title>Node32</title>
<g id="a_node32"><a xlink:href="label_8c.html" target="_top" xlink:title="Implementation of label tabels for semantic reference to parts of semantic trees. ...">
<polygon fill="white" stroke="black" points="1403,-280.5 1403,-299.5 1465,-299.5 1465,-280.5 1403,-280.5"/>
<text text-anchor="middle" x="1434" y="-287.5" font-family="Helvetica,sans-Serif" font-size="10.00">src/label.c</text>
</a>
</g>
</g>
<!-- Node1&#45;&gt;Node32 -->
<g id="edge57" class="edge"><title>Node1&#45;&gt;Node32</title>
<path fill="none" stroke="midnightblue" d="M1361.34,-331.453C1379.24,-321.483 1403.05,-308.228 1418.45,-299.655"/>
<polygon fill="midnightblue" stroke="midnightblue" points="1359.62,-328.402 1352.58,-336.324 1363.02,-334.518 1359.62,-328.402"/>
</g>
<!-- Node33 -->
<g id="node33" class="node"><title>Node33</title>
<g id="a_node33"><a xlink:href="label__spec_8h.html" target="_top" xlink:title="spec/label_spec.h">
<polygon fill="white" stroke="black" points="1289.5,-280.5 1289.5,-299.5 1384.5,-299.5 1384.5,-280.5 1289.5,-280.5"/>
<text text-anchor="middle" x="1337" y="-287.5" font-family="Helvetica,sans-Serif" font-size="10.00">spec/label_spec.h</text>
</a>
</g>
</g>
<!-- Node1&#45;&gt;Node33 -->
<g id="edge58" class="edge"><title>Node1&#45;&gt;Node33</title>
<path fill="none" stroke="midnightblue" d="M1337,-325.805C1337,-316.91 1337,-306.78 1337,-299.751"/>
<polygon fill="midnightblue" stroke="midnightblue" points="1333.5,-326.083 1337,-336.083 1340.5,-326.083 1333.5,-326.083"/>
</g>
<!-- Node3 -->
<g id="node3" class="node"><title>Node3</title>
<g id="a_node3"><a xlink:href="vmhost_8h.html" target="_top" xlink:title="vmhost implementation header file ">
<polygon fill="white" stroke="black" points="776,-224.5 776,-243.5 850,-243.5 850,-224.5 776,-224.5"/>
<text text-anchor="middle" x="813" y="-231.5" font-family="Helvetica,sans-Serif" font-size="10.00">src/vmhost.h</text>
</a>
</g>
</g>
<!-- Node2&#45;&gt;Node3 -->
<g id="edge2" class="edge"><title>Node2&#45;&gt;Node3</title>
<path fill="none" stroke="midnightblue" d="M951.311,-277.436C918.128,-267.255 870.572,-252.664 840.757,-243.516"/>
<polygon fill="midnightblue" stroke="midnightblue" points="950.525,-280.856 961.112,-280.444 952.579,-274.164 950.525,-280.856"/>
</g>
<!-- Node5 -->
<g id="node5" class="node"><title>Node5</title>
<g id="a_node5"><a xlink:href="accumulator_8c.html" target="_top" xlink:title="implementation file for accumulator ">
<polygon fill="white" stroke="black" points="508.5,-112.5 508.5,-131.5 603.5,-131.5 603.5,-112.5 508.5,-112.5"/>
<text text-anchor="middle" x="556" y="-119.5" font-family="Helvetica,sans-Serif" font-size="10.00">src/accumulator.c</text>
</a>
</g>
</g>
<!-- Node2&#45;&gt;Node5 -->
<g id="edge25" class="edge"><title>Node2&#45;&gt;Node5</title>
<path fill="none" stroke="midnightblue" d="M940.285,-283.689C894.455,-277.638 824.477,-265.656 767,-244 685.597,-213.329 598.575,-153.669 567.687,-131.534"/>
<polygon fill="midnightblue" stroke="midnightblue" points="939.891,-287.166 950.254,-284.961 940.777,-280.223 939.891,-287.166"/>
</g>
<!-- Node11 -->
<g id="node11" class="node"><title>Node11</title>
<g id="a_node11"><a xlink:href="process_8c.html" target="_top" xlink:title="implementation of ceptr processing: instructions and run tree reduction ">
<polygon fill="white" stroke="black" points="997,-112.5 997,-131.5 1073,-131.5 1073,-112.5 997,-112.5"/>
<text text-anchor="middle" x="1035" y="-119.5" font-family="Helvetica,sans-Serif" font-size="10.00">src/process.c</text>
</a>
</g>
</g>
<!-- Node2&#45;&gt;Node11 -->
<g id="edge32" class="edge"><title>Node2&#45;&gt;Node11</title>
<path fill="none" stroke="midnightblue" d="M980.87,-270.672C971.208,-245.978 958.359,-201.282 975,-168 983.443,-151.113 1001.57,-138.919 1015.7,-131.52"/>
<polygon fill="midnightblue" stroke="midnightblue" points="977.77,-272.333 984.844,-280.22 984.233,-269.643 977.77,-272.333"/>
</g>
<!-- Node12 -->
<g id="node12" class="node"><title>Node12</title>
<g id="a_node12"><a xlink:href="receptor_8c.html" target="_top" xlink:title="receptor implementation ">
<polygon fill="white" stroke="black" points="1091.5,-112.5 1091.5,-131.5 1168.5,-131.5 1168.5,-112.5 1091.5,-112.5"/>
<text text-anchor="middle" x="1130" y="-119.5" font-family="Helvetica,sans-Serif" font-size="10.00">src/receptor.c</text>
</a>
</g>
</g>
<!-- Node2&#45;&gt;Node12 -->
<g id="edge33" class="edge"><title>Node2&#45;&gt;Node12</title>
<path fill="none" stroke="midnightblue" d="M986.523,-270.169C984.193,-244.181 984.046,-197.225 1008,-168 1019.38,-154.119 1063.68,-140.122 1095.63,-131.507"/>
<polygon fill="midnightblue" stroke="midnightblue" points="983.054,-270.648 987.63,-280.204 990.012,-269.88 983.054,-270.648"/>
</g>
<!-- Node18 -->
<g id="node18" class="node"><title>Node18</title>
<g id="a_node18"><a xlink:href="receptor__spec_8h.html" target="_top" xlink:title="spec/receptor_spec.h">
<polygon fill="white" stroke="black" points="304,-112.5 304,-131.5 414,-131.5 414,-112.5 304,-112.5"/>
<text text-anchor="middle" x="359" y="-119.5" font-family="Helvetica,sans-Serif" font-size="10.00">spec/receptor_spec.h</text>
</a>
</g>
</g>
<!-- Node2&#45;&gt;Node18 -->
<g id="edge52" class="edge"><title>Node2&#45;&gt;Node18</title>
<path fill="none" stroke="midnightblue" d="M940.256,-287.233C858.436,-283.555 688.616,-272.863 548,-244 466.344,-227.24 423.343,-251.209 369,-188 355.304,-172.07 356.13,-145.46 357.678,-131.752"/>
<polygon fill="midnightblue" stroke="midnightblue" points="940.12,-290.731 950.262,-287.668 940.423,-283.737 940.12,-290.731"/>
</g>
<!-- Node20 -->
<g id="node20" class="node"><title>Node20</title>
<g id="a_node20"><a xlink:href="protocol_8h.html" target="_top" xlink:title="protocol helpers header file ">
<polygon fill="white" stroke="black" points="1225,-112.5 1225,-131.5 1301,-131.5 1301,-112.5 1225,-112.5"/>
<text text-anchor="middle" x="1263" y="-119.5" font-family="Helvetica,sans-Serif" font-size="10.00">src/protocol.h</text>
</a>
</g>
</g>
<!-- Node2&#45;&gt;Node20 -->
<g id="edge26" class="edge"><title>Node2&#45;&gt;Node20</title>
<path fill="none" stroke="midnightblue" d="M1008.96,-274.603C1027.95,-261.077 1057.49,-240.504 1084,-224 1142.46,-187.601 1214.51,-148.679 1246.44,-131.727"/>
<polygon fill="midnightblue" stroke="midnightblue" points="1006.87,-271.789 1000.78,-280.455 1010.95,-277.482 1006.87,-271.789"/>
</g>
<!-- Node22 -->
<g id="node22" class="node"><title>Node22</title>
<g id="a_node22"><a xlink:href="sys__defs_8c.html" target="_top" xlink:title="definition of system semantic elements for bootstrapping ">
<polygon fill="white" stroke="black" points="1212.5,-224.5 1212.5,-243.5 1293.5,-243.5 1293.5,-224.5 1212.5,-224.5"/>
<text text-anchor="middle" x="1253" y="-231.5" font-family="Helvetica,sans-Serif" font-size="10.00">src/sys_defs.c</text>
</a>
</g>
</g>
<!-- Node2&#45;&gt;Node22 -->
<g id="edge34" class="edge"><title>Node2&#45;&gt;Node22</title>
<path fill="none" stroke="midnightblue" d="M1037.65,-279.049C1087.91,-268.768 1165.45,-252.907 1212.49,-243.286"/>
<polygon fill="midnightblue" stroke="midnightblue" points="1036.77,-275.657 1027.67,-281.09 1038.17,-282.515 1036.77,-275.657"/>
</g>
<!-- Node23 -->
<g id="node23" class="node"><title>Node23</title>
<g id="a_node23"><a xlink:href="tree_8c.html" target="_top" xlink:title="semantic tree pointer implementation ">
<polygon fill="white" stroke="black" points="1312,-224.5 1312,-243.5 1370,-243.5 1370,-224.5 1312,-224.5"/>
<text text-anchor="middle" x="1341" y="-231.5" font-family="Helvetica,sans-Serif" font-size="10.00">src/tree.c</text>
</a>
</g>
</g>
<!-- Node2&#45;&gt;Node23 -->
<g id="edge35" class="edge"><title>Node2&#45;&gt;Node23</title>
<path fill="none" stroke="midnightblue" d="M1037.95,-283.255C1099.73,-275.708 1209.16,-261.355 1302,-244 1305.14,-243.413 1308.41,-242.746 1311.67,-242.047"/>
<polygon fill="midnightblue" stroke="midnightblue" points="1037.23,-279.817 1027.72,-284.496 1038.07,-286.766 1037.23,-279.817"/>
</g>
<!-- Node24 -->
<g id="node24" class="node"><title>Node24</title>
<g id="a_node24"><a xlink:href="semtable__spec_8h.html" target="_top" xlink:title="spec/semtable_spec.h">
<polygon fill="white" stroke="black" points="1433.5,-168.5 1433.5,-187.5 1548.5,-187.5 1548.5,-168.5 1433.5,-168.5"/>
<text text-anchor="middle" x="1491" y="-175.5" font-family="Helvetica,sans-Serif" font-size="10.00">spec/semtable_spec.h</text>
</a>
</g>
</g>
<!-- Node2&#45;&gt;Node24 -->
<g id="edge36" class="edge"><title>Node2&#45;&gt;Node24</title>
<path fill="none" stroke="midnightblue" d="M1037.8,-286.599C1165.17,-280.097 1498.97,-261.464 1515,-244 1529.97,-227.695 1511.02,-201.25 1499.18,-187.664"/>
<polygon fill="midnightblue" stroke="midnightblue" points="1037.37,-283.116 1027.56,-287.118 1037.72,-290.107 1037.37,-283.116"/>
</g>
<!-- Node25 -->
<g id="node25" class="node"><title>Node25</title>
<g id="a_node25"><a xlink:href="def__spec_8h.html" target="_top" xlink:title="spec/def_spec.h">
<polygon fill="white" stroke="black" points="397.5,-168.5 397.5,-187.5 486.5,-187.5 486.5,-168.5 397.5,-168.5"/>
<text text-anchor="middle" x="442" y="-175.5" font-family="Helvetica,sans-Serif" font-size="10.00">spec/def_spec.h</text>
</a>
</g>
</g>
<!-- Node2&#45;&gt;Node25 -->
<g id="edge38" class="edge"><title>Node2&#45;&gt;Node25</title>
<path fill="none" stroke="midnightblue" d="M940.238,-286.911C868.043,-282.976 728.876,-272.158 614,-244 556.022,-229.789 490.969,-201.656 460.114,-187.523"/>
<polygon fill="midnightblue" stroke="midnightblue" points="940.223,-290.415 950.393,-287.443 940.59,-283.424 940.223,-290.415"/>
</g>
<!-- Node26 -->
<g id="node26" class="node"><title>Node26</title>
<g id="a_node26"><a xlink:href="tree__spec_8h.html" target="_top" xlink:title="spec/tree_spec.h">
<polygon fill="white" stroke="black" points="194,-112.5 194,-131.5 286,-131.5 286,-112.5 194,-112.5"/>
<text text-anchor="middle" x="240" y="-119.5" font-family="Helvetica,sans-Serif" font-size="10.00">spec/tree_spec.h</text>
</a>
</g>
</g>
<!-- Node2&#45;&gt;Node26 -->
<g id="edge40" class="edge"><title>Node2&#45;&gt;Node26</title>
<path fill="none" stroke="midnightblue" d="M940.237,-288.472C819.523,-286.641 509.566,-278.611 413,-244 341.579,-218.402 272.548,-155.088 248.738,-131.788"/>
<polygon fill="midnightblue" stroke="midnightblue" points="940.25,-291.972 950.299,-288.616 940.351,-284.973 940.25,-291.972"/>
</g>
<!-- Node27 -->
<g id="node27" class="node"><title>Node27</title>
<g id="a_node27"><a xlink:href="http__example_8h.html" target="_top" xlink:title="spec/http_example.h">
<polygon fill="white" stroke="black" points="124.5,-168.5 124.5,-187.5 231.5,-187.5 231.5,-168.5 124.5,-168.5"/>
<text text-anchor="middle" x="178" y="-175.5" font-family="Helvetica,sans-Serif" font-size="10.00">spec/http_example.h</text>
</a>
</g>
</g>
<!-- Node2&#45;&gt;Node27 -->
<g id="edge42" class="edge"><title>Node2&#45;&gt;Node27</title>
<path fill="none" stroke="midnightblue" d="M940.019,-289.462C798.647,-290.242 392.118,-288.452 268,-244 233.887,-231.783 201.34,-202.455 186.456,-187.736"/>
<polygon fill="midnightblue" stroke="midnightblue" points="940.148,-292.961 950.126,-289.399 940.105,-285.961 940.148,-292.961"/>
</g>
<!-- Node28 -->
<g id="node28" class="node"><title>Node28</title>
<g id="a_node28"><a xlink:href="mtree__spec_8h.html" target="_top" xlink:title="spec/mtree_spec.h">
<polygon fill="white" stroke="black" points="0,-112.5 0,-131.5 100,-131.5 100,-112.5 0,-112.5"/>
<text text-anchor="middle" x="50" y="-119.5" font-family="Helvetica,sans-Serif" font-size="10.00">spec/mtree_spec.h</text>
</a>
</g>
</g>
<!-- Node2&#45;&gt;Node28 -->
<g id="edge49" class="edge"><title>Node2&#45;&gt;Node28</title>
<path fill="none" stroke="midnightblue" d="M940.049,-288.674C793.875,-287.298 362.337,-280.193 227,-244 173.236,-229.622 160.148,-220.541 115,-188 91.4372,-171.017 68.5246,-145.329 57.2472,-131.897"/>
<polygon fill="midnightblue" stroke="midnightblue" points="940.041,-292.174 950.072,-288.764 940.104,-285.174 940.041,-292.174"/>
</g>
<!-- Node29 -->
<g id="node29" class="node"><title>Node29</title>
<g id="a_node29"><a xlink:href="semtrex__spec_8h.html" target="_top" xlink:title="spec/semtrex_spec.h">
<polygon fill="white" stroke="black" points="1017,-168.5 1017,-187.5 1127,-187.5 1127,-168.5 1017,-168.5"/>
<text text-anchor="middle" x="1072" y="-175.5" font-family="Helvetica,sans-Serif" font-size="10.00">spec/semtrex_spec.h</text>
</a>
</g>
</g>
<!-- Node2&#45;&gt;Node29 -->
<g id="edge50" class="edge"><title>Node2&#45;&gt;Node29</title>
<path fill="none" stroke="midnightblue" d="M1001.62,-272.272C1019.56,-248.494 1051.79,-205.789 1065.52,-187.591"/>
<polygon fill="midnightblue" stroke="midnightblue" points="998.742,-270.278 995.513,-280.368 1004.33,-274.494 998.742,-270.278"/>
</g>
<!-- Node30 -->
<g id="node30" class="node"><title>Node30</title>
<g id="a_node30"><a xlink:href="scape__spec_8h.html" target="_top" xlink:title="spec/scape_spec.h">
<polygon fill="white" stroke="black" points="1093.5,-224.5 1093.5,-243.5 1194.5,-243.5 1194.5,-224.5 1093.5,-224.5"/>
<text text-anchor="middle" x="1144" y="-231.5" font-family="Helvetica,sans-Serif" font-size="10.00">spec/scape_spec.h</text>
</a>
</g>
</g>
<!-- Node2&#45;&gt;Node30 -->
<g id="edge53" class="edge"><title>Node2&#45;&gt;Node30</title>
<path fill="none" stroke="midnightblue" d="M1023.33,-277.039C1052.5,-266.879 1093.64,-252.546 1119.55,-243.516"/>
<polygon fill="midnightblue" stroke="midnightblue" points="1021.85,-273.848 1013.56,-280.444 1024.16,-280.459 1021.85,-273.848"/>
</g>
<!-- Node31 -->
<g id="node31" class="node"><title>Node31</title>
<g id="a_node31"><a xlink:href="profile__example_8h.html" target="_top" xlink:title="spec/profile_example.h">
<polygon fill="white" stroke="black" points="1388.5,-224.5 1388.5,-243.5 1505.5,-243.5 1505.5,-224.5 1388.5,-224.5"/>
<text text-anchor="middle" x="1447" y="-231.5" font-family="Helvetica,sans-Serif" font-size="10.00">spec/profile_example.h</text>
</a>
</g>
</g>
<!-- Node2&#45;&gt;Node31 -->
<g id="edge55" class="edge"><title>Node2&#45;&gt;Node31</title>
<path fill="none" stroke="midnightblue" d="M1037.71,-283.644C1111.56,-275.464 1256.26,-259.203 1379,-244 1382.07,-243.619 1385.22,-243.223 1388.4,-242.819"/>
<polygon fill="midnightblue" stroke="midnightblue" points="1037.33,-280.165 1027.77,-284.743 1038.1,-287.122 1037.33,-280.165"/>
</g>
<!-- Node4 -->
<g id="node4" class="node"><title>Node4</title>
<g id="a_node4"><a xlink:href="accumulator_8h.html" target="_top" xlink:title="header file for the accumulator ">
<polygon fill="white" stroke="black" points="729.5,-168.5 729.5,-187.5 824.5,-187.5 824.5,-168.5 729.5,-168.5"/>
<text text-anchor="middle" x="777" y="-175.5" font-family="Helvetica,sans-Serif" font-size="10.00">src/accumulator.h</text>
</a>
</g>
</g>
<!-- Node3&#45;&gt;Node4 -->
<g id="edge3" class="edge"><title>Node3&#45;&gt;Node4</title>
<path fill="none" stroke="midnightblue" d="M801.377,-215.566C795.183,-206.275 787.832,-195.248 782.834,-187.751"/>
<polygon fill="midnightblue" stroke="midnightblue" points="798.596,-217.704 807.055,-224.083 804.42,-213.821 798.596,-217.704"/>
</g>
<!-- Node15 -->
<g id="node15" class="node"><title>Node15</title>
<g id="a_node15"><a xlink:href="vmhost__spec_8h.html" target="_top" xlink:title="spec/vmhost_spec.h">
<polygon fill="white" stroke="black" points="483.5,-56.5 483.5,-75.5 590.5,-75.5 590.5,-56.5 483.5,-56.5"/>
<text text-anchor="middle" x="537" y="-63.5" font-family="Helvetica,sans-Serif" font-size="10.00">spec/vmhost_spec.h</text>
</a>
</g>
</g>
<!-- Node3&#45;&gt;Node15 -->
<g id="edge24" class="edge"><title>Node3&#45;&gt;Node15</title>
<path fill="none" stroke="midnightblue" d="M765.741,-233.698C694.306,-231.871 560.641,-216.579 499,-132 485.065,-112.879 509.831,-88.3035 525.538,-75.5447"/>
<polygon fill="midnightblue" stroke="midnightblue" points="765.753,-237.198 775.813,-233.876 765.877,-230.2 765.753,-237.198"/>
</g>
<!-- Node16 -->
<g id="node16" class="node"><title>Node16</title>
<g id="a_node16"><a xlink:href="vmhost_8c.html" target="_top" xlink:title="virtual machine host receptor implementation ">
<polygon fill="white" stroke="black" points="905,-112.5 905,-131.5 979,-131.5 979,-112.5 905,-112.5"/>
<text text-anchor="middle" x="942" y="-119.5" font-family="Helvetica,sans-Serif" font-size="10.00">src/vmhost.c</text>
</a>
</g>
</g>
<!-- Node3&#45;&gt;Node16 -->
<g id="edge22" class="edge"><title>Node3&#45;&gt;Node16</title>
<path fill="none" stroke="midnightblue" d="M830.807,-217.816C858.282,-194.387 910.114,-150.19 931.925,-131.591"/>
<polygon fill="midnightblue" stroke="midnightblue" points="828.461,-215.217 823.122,-224.368 833.003,-220.543 828.461,-215.217"/>
</g>
<!-- Node3&#45;&gt;Node18 -->
<g id="edge23" class="edge"><title>Node3&#45;&gt;Node18</title>
<path fill="none" stroke="midnightblue" d="M765.568,-233.773C667.623,-234.46 447.22,-231.025 388,-188 369.406,-174.49 362.522,-146.299 360.148,-131.892"/>
<polygon fill="midnightblue" stroke="midnightblue" points="765.804,-237.271 775.773,-233.683 765.742,-230.272 765.804,-237.271"/>
</g>
<!-- Node19 -->
<g id="node19" class="node"><title>Node19</title>
<g id="a_node19"><a xlink:href="protocol_8c.html" target="_top" xlink:title="implementation of protocol helpers ">
<polygon fill="white" stroke="black" points="1263,-56.5 1263,-75.5 1339,-75.5 1339,-56.5 1263,-56.5"/>
<text text-anchor="middle" x="1301" y="-63.5" font-family="Helvetica,sans-Serif" font-size="10.00">src/protocol.c</text>
</a>
</g>
</g>
<!-- Node3&#45;&gt;Node19 -->
<g id="edge21" class="edge"><title>Node3&#45;&gt;Node19</title>
<path fill="none" stroke="midnightblue" d="M843.389,-220.721C881.293,-205.911 948.381,-181.344 1008,-168 1073.95,-153.238 1265.13,-182.54 1310,-132 1323.92,-116.325 1313.18,-89.6037 1306.04,-75.8129"/>
<polygon fill="midnightblue" stroke="midnightblue" points="841.971,-217.518 833.953,-224.443 844.539,-224.03 841.971,-217.518"/>
</g>
<!-- Node4&#45;&gt;Node5 -->
<g id="edge4" class="edge"><title>Node4&#45;&gt;Node5</title>
<path fill="none" stroke="midnightblue" d="M732.079,-166.024C690.332,-155.823 629.018,-140.841 590.854,-131.516"/>
<polygon fill="midnightblue" stroke="midnightblue" points="731.437,-169.47 741.982,-168.444 733.098,-162.67 731.437,-169.47"/>
</g>
<!-- Node6 -->
<g id="node6" class="node"><title>Node6</title>
<g id="a_node6"><a xlink:href="ceptr_8c.html" target="_top" xlink:title="implements main() entry point for the ceptr node ">
<polygon fill="white" stroke="black" points="740.5,-112.5 740.5,-131.5 803.5,-131.5 803.5,-112.5 740.5,-112.5"/>
<text text-anchor="middle" x="772" y="-119.5" font-family="Helvetica,sans-Serif" font-size="10.00">src/ceptr.c</text>
</a>
</g>
</g>
<!-- Node4&#45;&gt;Node6 -->
<g id="edge5" class="edge"><title>Node4&#45;&gt;Node6</title>
<path fill="none" stroke="midnightblue" d="M775.25,-158.101C774.42,-149.136 773.468,-138.858 772.81,-131.751"/>
<polygon fill="midnightblue" stroke="midnightblue" points="771.767,-158.448 776.174,-168.083 778.737,-157.803 771.767,-158.448"/>
</g>
<!-- Node7 -->
<g id="node7" class="node"><title>Node7</title>
<g id="a_node7"><a xlink:href="group_8h.html" target="_top" xlink:title="group communication receptors header file ">
<polygon fill="white" stroke="black" points="821.5,-112.5 821.5,-131.5 886.5,-131.5 886.5,-112.5 821.5,-112.5"/>
<text text-anchor="middle" x="854" y="-119.5" font-family="Helvetica,sans-Serif" font-size="10.00">src/group.h</text>
</a>
</g>
</g>
<!-- Node4&#45;&gt;Node7 -->
<g id="edge6" class="edge"><title>Node4&#45;&gt;Node7</title>
<path fill="none" stroke="midnightblue" d="M797.901,-162.342C811.911,-152.517 829.883,-139.913 841.659,-131.655"/>
<polygon fill="midnightblue" stroke="midnightblue" points="795.549,-159.717 789.371,-168.324 799.568,-165.448 795.549,-159.717"/>
</g>
<!-- Node4&#45;&gt;Node11 -->
<g id="edge10" class="edge"><title>Node4&#45;&gt;Node11</title>
<path fill="none" stroke="midnightblue" d="M827.777,-166.372C877.456,-155.974 952.002,-140.372 996.834,-130.988"/>
<polygon fill="midnightblue" stroke="midnightblue" points="826.952,-162.969 817.881,-168.444 828.386,-169.821 826.952,-162.969"/>
</g>
<!-- Node4&#45;&gt;Node12 -->
<g id="edge11" class="edge"><title>Node4&#45;&gt;Node12</title>
<path fill="none" stroke="midnightblue" d="M834.902,-169.14C896.33,-160.641 996.167,-146.373 1082,-132 1085.01,-131.496 1088.12,-130.956 1091.25,-130.399"/>
<polygon fill="midnightblue" stroke="midnightblue" points="834.065,-165.722 824.637,-170.556 835.021,-172.656 834.065,-165.722"/>
</g>
<!-- Node13 -->
<g id="node13" class="node"><title>Node13</title>
<g id="a_node13"><a xlink:href="shell_8h.html" target="_top" xlink:title="command line shell receptor header files ">
<polygon fill="white" stroke="black" points="622,-112.5 622,-131.5 684,-131.5 684,-112.5 622,-112.5"/>
<text text-anchor="middle" x="653" y="-119.5" font-family="Helvetica,sans-Serif" font-size="10.00">src/shell.h</text>
</a>
</g>
</g>
<!-- Node4&#45;&gt;Node13 -->
<g id="edge12" class="edge"><title>Node4&#45;&gt;Node13</title>
<path fill="none" stroke="midnightblue" d="M747.993,-164.368C724.771,-154.255 692.837,-140.349 672.556,-131.516"/>
<polygon fill="midnightblue" stroke="midnightblue" points="746.786,-167.66 757.352,-168.444 749.581,-161.242 746.786,-167.66"/>
</g>
<!-- Node4&#45;&gt;Node16 -->
<g id="edge16" class="edge"><title>Node4&#45;&gt;Node16</title>
<path fill="none" stroke="midnightblue" d="M812.736,-165.304C843.827,-155.129 888.147,-140.625 915.978,-131.516"/>
<polygon fill="midnightblue" stroke="midnightblue" points="811.56,-162.007 803.145,-168.444 813.737,-168.659 811.56,-162.007"/>
</g>
<!-- Node17 -->
<g id="node17" class="node"><title>Node17</title>
<g id="a_node17"><a xlink:href="accumulator__spec_8h_source.html" target="_top" xlink:title="spec/accumulator_spec.h">
<polygon fill="white" stroke="black" points="688,-56.5 688,-75.5 816,-75.5 816,-56.5 688,-56.5"/>
<text text-anchor="middle" x="752" y="-63.5" font-family="Helvetica,sans-Serif" font-size="10.00">spec/accumulator_spec.h</text>
</a>
</g>
</g>
<!-- Node4&#45;&gt;Node17 -->
<g id="edge17" class="edge"><title>Node4&#45;&gt;Node17</title>
<path fill="none" stroke="midnightblue" d="M755.287,-162.066C745.944,-154.308 736.026,-143.947 731,-132 722.723,-112.324 736.468,-88.1822 745.358,-75.5824"/>
<polygon fill="midnightblue" stroke="midnightblue" points="753.16,-164.845 763.213,-168.189 757.439,-159.306 753.16,-164.845"/>
</g>
<!-- Node4&#45;&gt;Node18 -->
<g id="edge19" class="edge"><title>Node4&#45;&gt;Node18</title>
<path fill="none" stroke="midnightblue" d="M719.483,-169.57C638.893,-159.158 493.372,-140.359 414.103,-130.119"/>
<polygon fill="midnightblue" stroke="midnightblue" points="719.091,-173.048 729.457,-170.858 719.988,-166.106 719.091,-173.048"/>
</g>
<!-- Node8 -->
<g id="node8" class="node"><title>Node8</title>
<g id="a_node8"><a xlink:href="group_8c.html" target="_top" xlink:title="implementation of some group communication receptors ">
<polygon fill="white" stroke="black" points="982.5,-56.5 982.5,-75.5 1047.5,-75.5 1047.5,-56.5 982.5,-56.5"/>
<text text-anchor="middle" x="1015" y="-63.5" font-family="Helvetica,sans-Serif" font-size="10.00">src/group.c</text>
</a>
</g>
</g>
<!-- Node7&#45;&gt;Node8 -->
<g id="edge7" class="edge"><title>Node7&#45;&gt;Node8</title>
<path fill="none" stroke="midnightblue" d="M889.265,-109.172C919.581,-99.0039 962.57,-84.5852 989.608,-75.5164"/>
<polygon fill="midnightblue" stroke="midnightblue" points="887.879,-105.945 879.511,-112.444 890.105,-112.582 887.879,-105.945"/>
</g>
<!-- Node9 -->
<g id="node9" class="node"><title>Node9</title>
<g id="a_node9"><a xlink:href="group__spec_8h.html" target="_top" xlink:title="spec/group_spec.h">
<polygon fill="white" stroke="black" points="834.5,-56.5 834.5,-75.5 933.5,-75.5 933.5,-56.5 834.5,-56.5"/>
<text text-anchor="middle" x="884" y="-63.5" font-family="Helvetica,sans-Serif" font-size="10.00">spec/group_spec.h</text>
</a>
</g>
</g>
<!-- Node7&#45;&gt;Node9 -->
<g id="edge8" class="edge"><title>Node7&#45;&gt;Node9</title>
<path fill="none" stroke="midnightblue" d="M863.847,-103.275C868.975,-94.0454 875.016,-83.1703 879.138,-75.7511"/>
<polygon fill="midnightblue" stroke="midnightblue" points="860.751,-101.642 858.954,-112.083 866.87,-105.041 860.751,-101.642"/>
</g>
<!-- Node10 -->
<g id="node10" class="node"><title>Node10</title>
<g id="a_node10"><a xlink:href="ceptr__specs_8c.html" target="_top" xlink:title="implements a main() entry point for running all the tests ">
<polygon fill="white" stroke="black" points="767,-0.5 767,-19.5 869,-19.5 869,-0.5 767,-0.5"/>
<text text-anchor="middle" x="818" y="-7.5" font-family="Helvetica,sans-Serif" font-size="10.00">spec/ceptr_specs.c</text>
</a>
</g>
</g>
<!-- Node9&#45;&gt;Node10 -->
<g id="edge9" class="edge"><title>Node9&#45;&gt;Node10</title>
<path fill="none" stroke="midnightblue" d="M865.446,-49.8197C853.622,-40.1452 838.714,-27.9481 828.797,-19.8339"/>
<polygon fill="midnightblue" stroke="midnightblue" points="863.44,-52.7004 873.396,-56.324 867.873,-47.2827 863.44,-52.7004"/>
</g>
<!-- Node14 -->
<g id="node14" class="node"><title>Node14</title>
<g id="a_node14"><a xlink:href="shell_8c.html" target="_top" xlink:title="implementation of a command line shell receptor ">
<polygon fill="white" stroke="black" points="608,-56.5 608,-75.5 670,-75.5 670,-56.5 608,-56.5"/>
<text text-anchor="middle" x="639" y="-63.5" font-family="Helvetica,sans-Serif" font-size="10.00">src/shell.c</text>
</a>
</g>
</g>
<!-- Node13&#45;&gt;Node14 -->
<g id="edge13" class="edge"><title>Node13&#45;&gt;Node14</title>
<path fill="none" stroke="midnightblue" d="M648.177,-102.396C645.835,-93.362 643.132,-82.936 641.269,-75.7511"/>
<polygon fill="midnightblue" stroke="midnightblue" points="644.79,-103.281 650.688,-112.083 651.566,-101.525 644.79,-103.281"/>
</g>
<!-- Node13&#45;&gt;Node15 -->
<g id="edge14" class="edge"><title>Node13&#45;&gt;Node15</title>
<path fill="none" stroke="midnightblue" d="M625.28,-108.096C603.608,-98.0073 574.098,-84.2697 555.295,-75.5164"/>
<polygon fill="midnightblue" stroke="midnightblue" points="624.077,-111.396 634.619,-112.444 627.031,-105.05 624.077,-111.396"/>
</g>
<!-- Node15&#45;&gt;Node10 -->
<g id="edge15" class="edge"><title>Node15&#45;&gt;Node10</title>
<path fill="none" stroke="midnightblue" d="M591.446,-54.5371C644.552,-44.3316 724.338,-28.9992 773.683,-19.5164"/>
<polygon fill="midnightblue" stroke="midnightblue" points="590.685,-51.1192 581.525,-56.4435 592.006,-57.9934 590.685,-51.1192"/>
</g>
<!-- Node17&#45;&gt;Node10 -->
<g id="edge18" class="edge"><title>Node17&#45;&gt;Node10</title>
<path fill="none" stroke="midnightblue" d="M770.554,-49.8197C782.378,-40.1452 797.286,-27.9481 807.203,-19.8339"/>
<polygon fill="midnightblue" stroke="midnightblue" points="768.127,-47.2827 762.604,-56.324 772.56,-52.7004 768.127,-47.2827"/>
</g>
<!-- Node18&#45;&gt;Node10 -->
<g id="edge20" class="edge"><title>Node18&#45;&gt;Node10</title>
<path fill="none" stroke="midnightblue" d="M371.427,-104.289C383.886,-88.9166 404.547,-66.9044 428,-56 487.023,-28.5574 675.068,-17.0148 766.755,-12.9225"/>
<polygon fill="midnightblue" stroke="midnightblue" points="368.463,-102.399 365.08,-112.439 373.986,-106.7 368.463,-102.399"/>
</g>
<!-- Node20&#45;&gt;Node8 -->
<g id="edge27" class="edge"><title>Node20&#45;&gt;Node8</title>
<path fill="none" stroke="midnightblue" d="M1215.01,-110.55C1165.76,-99.8269 1090.48,-83.4352 1047.7,-74.121"/>
<polygon fill="midnightblue" stroke="midnightblue" points="1214.28,-113.973 1224.79,-112.681 1215.77,-107.133 1214.28,-113.973"/>
</g>
<!-- Node20&#45;&gt;Node15 -->
<g id="edge29" class="edge"><title>Node20&#45;&gt;Node15</title>
<path fill="none" stroke="midnightblue" d="M1214.83,-115.599C1202.51,-114.316 1189.27,-113.024 1177,-112 920.504,-90.6005 855.018,-102.51 599,-76 596.295,-75.7199 593.528,-75.4087 590.735,-75.0752"/>
<polygon fill="midnightblue" stroke="midnightblue" points="1214.62,-119.095 1224.93,-116.668 1215.35,-112.134 1214.62,-119.095"/>
</g>
<!-- Node20&#45;&gt;Node19 -->
<g id="edge28" class="edge"><title>Node20&#45;&gt;Node19</title>
<path fill="none" stroke="midnightblue" d="M1275.06,-103.855C1281.64,-94.5048 1289.51,-83.3265 1294.84,-75.7511"/>
<polygon fill="midnightblue" stroke="midnightblue" points="1272.17,-101.891 1269.27,-112.083 1277.89,-105.919 1272.17,-101.891"/>
</g>
<!-- Node21 -->
<g id="node21" class="node"><title>Node21</title>
<g id="a_node21"><a xlink:href="protocol__spec_8h.html" target="_top" xlink:title="spec/protocol_spec.h">
<polygon fill="white" stroke="black" points="1135,-56.5 1135,-75.5 1245,-75.5 1245,-56.5 1135,-56.5"/>
<text text-anchor="middle" x="1190" y="-63.5" font-family="Helvetica,sans-Serif" font-size="10.00">spec/protocol_spec.h</text>
</a>
</g>
</g>
<!-- Node20&#45;&gt;Node21 -->
<g id="edge30" class="edge"><title>Node20&#45;&gt;Node21</title>
<path fill="none" stroke="midnightblue" d="M1242.86,-106.101C1229.72,-96.3824 1213.02,-84.0269 1201.94,-75.8339"/>
<polygon fill="midnightblue" stroke="midnightblue" points="1241.15,-109.191 1251.27,-112.324 1245.31,-103.563 1241.15,-109.191"/>
</g>
<!-- Node21&#45;&gt;Node10 -->
<g id="edge31" class="edge"><title>Node21&#45;&gt;Node10</title>
<path fill="none" stroke="midnightblue" d="M1124.73,-55.5256C1051.91,-44.9545 935.61,-28.0724 869.102,-18.418"/>
<polygon fill="midnightblue" stroke="midnightblue" points="1124.31,-59.001 1134.71,-56.974 1125.32,-52.0736 1124.31,-59.001"/>
</g>
<!-- Node24&#45;&gt;Node10 -->
<g id="edge37" class="edge"><title>Node24&#45;&gt;Node10</title>
<path fill="none" stroke="midnightblue" d="M1486.02,-158.722C1477.43,-131.116 1456.98,-79.5155 1419,-56 1372.8,-27.3926 1005.78,-15.5807 869.077,-12.1444"/>
<polygon fill="midnightblue" stroke="midnightblue" points="1482.66,-159.71 1488.82,-168.326 1489.38,-157.745 1482.66,-159.71"/>
</g>
<!-- Node25&#45;&gt;Node10 -->
<g id="edge39" class="edge"><title>Node25&#45;&gt;Node10</title>
<path fill="none" stroke="midnightblue" d="M441.021,-158.28C440.728,-131.291 444.584,-81.8602 474,-56 516.465,-18.6677 681.671,-11.89 766.741,-10.9296"/>
<polygon fill="midnightblue" stroke="midnightblue" points="437.524,-158.453 441.338,-168.338 444.521,-158.233 437.524,-158.453"/>
</g>
<!-- Node26&#45;&gt;Node10 -->
<g id="edge41" class="edge"><title>Node26&#45;&gt;Node10</title>
<path fill="none" stroke="midnightblue" d="M265.475,-107.776C295.905,-92.6193 348.763,-68.2916 397,-56 527.53,-22.739 686.908,-14.0378 766.95,-11.7786"/>
<polygon fill="midnightblue" stroke="midnightblue" points="263.768,-104.717 256.418,-112.348 266.922,-110.966 263.768,-104.717"/>
</g>
<!-- Node27&#45;&gt;Node10 -->
<g id="edge48" class="edge"><title>Node27&#45;&gt;Node10</title>
<path fill="none" stroke="midnightblue" d="M170.357,-158.945C165.708,-144.872 162.333,-125.515 172,-112 216.807,-49.3533 260.688,-72.1364 336,-56 490.497,-22.8972 678.022,-14.1453 766.744,-11.8315"/>
<polygon fill="midnightblue" stroke="midnightblue" points="167.155,-160.375 173.964,-168.492 173.703,-157.901 167.155,-160.375"/>
</g>
<!-- Node27&#45;&gt;Node15 -->
<g id="edge47" class="edge"><title>Node27&#45;&gt;Node15</title>
<path fill="none" stroke="midnightblue" d="M174.415,-158.525C172.737,-143.905 173.223,-124.013 185,-112 225.379,-70.8102 395.012,-65.801 483.212,-66.0812"/>
<polygon fill="midnightblue" stroke="midnightblue" points="170.966,-159.12 175.969,-168.459 177.881,-158.039 170.966,-159.12"/>
</g>
<!-- Node27&#45;&gt;Node18 -->
<g id="edge46" class="edge"><title>Node27&#45;&gt;Node18</title>
<path fill="none" stroke="midnightblue" d="M216.319,-165.568C250.464,-155.381 299.661,-140.703 330.454,-131.516"/>
<polygon fill="midnightblue" stroke="midnightblue" points="215.262,-162.231 206.68,-168.444 217.263,-168.938 215.262,-162.231"/>
</g>
<!-- Node27&#45;&gt;Node26 -->
<g id="edge43" class="edge"><title>Node27&#45;&gt;Node26</title>
<path fill="none" stroke="midnightblue" d="M195.754,-161.537C206.808,-151.909 220.631,-139.869 229.857,-131.834"/>
<polygon fill="midnightblue" stroke="midnightblue" points="193.203,-159.117 187.961,-168.324 197.801,-164.395 193.203,-159.117"/>
</g>
<!-- Node27&#45;&gt;Node28 -->
<g id="edge44" class="edge"><title>Node27&#45;&gt;Node28</title>
<path fill="none" stroke="midnightblue" d="M148.377,-164.503C124.381,-154.38 91.216,-140.388 70.1871,-131.516"/>
<polygon fill="midnightblue" stroke="midnightblue" points="147.144,-167.781 157.718,-168.444 149.865,-161.332 147.144,-167.781"/>
</g>
<!-- Node28&#45;&gt;Node10 -->
<g id="edge45" class="edge"><title>Node28&#45;&gt;Node10</title>
<path fill="none" stroke="midnightblue" d="M61.1308,-104.037C72.3991,-88.4817 91.3617,-66.3411 114,-56 172.902,-29.0936 615,-15.9306 766.918,-12.1674"/>
<polygon fill="midnightblue" stroke="midnightblue" points="58.2279,-102.082 55.4156,-112.296 63.9841,-106.065 58.2279,-102.082"/>
</g>
<!-- Node29&#45;&gt;Node10 -->
<g id="edge51" class="edge"><title>Node29&#45;&gt;Node10</title>
<path fill="none" stroke="midnightblue" d="M1123.75,-165.651C1157.97,-155.5 1193.71,-138.143 1177,-112 1143.7,-59.8989 960.252,-29.3202 869.24,-17.1508"/>
<polygon fill="midnightblue" stroke="midnightblue" points="1122.4,-162.392 1113.71,-168.447 1124.28,-169.135 1122.4,-162.392"/>
</g>
<!-- Node30&#45;&gt;Node10 -->
<g id="edge54" class="edge"><title>Node30&#45;&gt;Node10</title>
<path fill="none" stroke="midnightblue" d="M1179.08,-220.857C1252.63,-193.647 1411.17,-124.761 1348,-56 1316.02,-21.1906 996.161,-13.2767 869.374,-11.5031"/>
<polygon fill="midnightblue" stroke="midnightblue" points="1177.5,-217.708 1169.29,-224.416 1179.89,-224.287 1177.5,-217.708"/>
</g>
<!-- Node31&#45;&gt;Node10 -->
<g id="edge56" class="edge"><title>Node31&#45;&gt;Node10</title>
<path fill="none" stroke="midnightblue" d="M1438.15,-215.389C1434.06,-207.119 1429.19,-197.099 1425,-188 1398.29,-129.946 1419.92,-93.2545 1368,-56 1328.01,-27.3054 997.812,-15.6819 869.095,-12.2126"/>
<polygon fill="midnightblue" stroke="midnightblue" points="1435.07,-217.044 1442.66,-224.431 1441.33,-213.92 1435.07,-217.044"/>
</g>
<!-- Node33&#45;&gt;Node10 -->
<g id="edge59" class="edge"><title>Node33&#45;&gt;Node10</title>
<path fill="none" stroke="midnightblue" d="M1391.5,-278.423C1444.72,-267.765 1519.37,-251.81 1531,-244 1560.38,-224.268 1577,-214.391 1577,-179 1577,-179 1577,-179 1577,-121 1577,-55.2072 1507.53,-73.1157 1444,-56 1336.03,-26.9102 998.789,-15.5396 869.321,-12.1746"/>
<polygon fill="midnightblue" stroke="midnightblue" points="1390.63,-275.029 1381.5,-280.414 1391.99,-281.894 1390.63,-275.029"/>
</g>
</g>
</svg>
        <g id="navigator" transform="translate(0 0)" fill="#404254">
                <rect fill="#f2f5e9" fill-opacity="0.5" stroke="#606060" stroke-width=".5" x="0" y="0" width="60" height="60"/>
                <use id="zoomplus" xlink:href="#zoomPlus" x="17" y="9" onmousedown="handleZoom(evt,'in')"/>
                <use id="zoomminus" xlink:href="#zoomMin" x="42" y="9" onmousedown="handleZoom(evt,'out')"/>
                <use id="reset" xlink:href="#resetDef" x="30" y="36" onmousedown="handleReset()"/>
                <g id="arrowUp" xlink:href="#dirArrow" transform="translate(30 24)" onmousedown="handlePan(0,-1)">
                  <use xlink:href="#rim" fill="#404040">
                        <set attributeName="fill" to="#808080" begin="arrowUp.mouseover" end="arrowUp.mouseout"/>
                  </use>
                  <path fill="none" stroke="white" stroke-width="1.5" d="M0,-3.0v7 M-2.5,-0.5L0,-3.0L2.5,-0.5"/>
                </g>
                <g id="arrowRight" xlink:href="#dirArrow" transform="rotate(90) translate(36 -43)" onmousedown="handlePan(1,0)">
                  <use xlink:href="#rim" fill="#404040">
                        <set attributeName="fill" to="#808080" begin="arrowRight.mouseover" end="arrowRight.mouseout"/>
                  </use>
                  <path fill="none" stroke="white" stroke-width="1.5" d="M0,-3.0v7 M-2.5,-0.5L0,-3.0L2.5,-0.5"/>
                </g>
                <g id="arrowDown" xlink:href="#dirArrow" transform="rotate(180) translate(-30 -48)" onmousedown="handlePan(0,1)">
                  <use xlink:href="#rim" fill="#404040">
                        <set attributeName="fill" to="#808080" begin="arrowDown.mouseover" end="arrowDown.mouseout"/>
                  </use>
                  <path fill="none" stroke="white" stroke-width="1.5" d="M0,-3.0v7 M-2.5,-0.5L0,-3.0L2.5,-0.5"/>
                </g>
                <g id="arrowLeft" xlink:href="#dirArrow" transform="rotate(270) translate(-36 17)" onmousedown="handlePan(-1,0)">
                  <use xlink:href="#rim" fill="#404040">
                        <set attributeName="fill" to="#808080" begin="arrowLeft.mouseover" end="arrowLeft.mouseout"/>
                  </use>
                  <path fill="none" stroke="white" stroke-width="1.5" d="M0,-3.0v7 M-2.5,-0.5L0,-3.0L2.5,-0.5"/>
                </g>
        </g>
        <svg viewBox="0 0 15 15" width="100%" height="30px" preserveAspectRatio="xMaxYMin meet">
         <g id="arrow_out" transform="scale(0.3 0.3)">
          <a xlink:href="label_8h__dep__incl_org.svg" target="_base">
           <rect id="button" ry="5" rx="5" y="6" x="6" height="38" width="38"
                fill="#f2f5e9" fill-opacity="0.5" stroke="#606060" stroke-width="1.0"/>
           <path id="arrow"
             d="M 11.500037,31.436501 C 11.940474,20.09759 22.043105,11.32322 32.158766,21.979434 L 37.068811,17.246167 C 37.068811,17.246167 37.088388,32 37.088388,32 L 22.160133,31.978069 C 22.160133,31.978069 26.997745,27.140456 26.997745,27.140456 C 18.528582,18.264221 13.291696,25.230495 11.500037,31.436501 z"
             style="fill:#404040;"/>
          </a>
         </g>
        </svg>
</svg>
