<?xml version="1.0" encoding="UTF-8" standalone="no"?>
<!DOCTYPE svg PUBLIC "-//W3C//DTD SVG 1.1//EN"
 "http://www.w3.org/Graphics/SVG/1.1/DTD/svg11.dtd">
<!-- Generated by graphviz version 2.38.0 (20140413.2041)
 -->
<!-- Title: src/label.h Pages: 1 -->
<svg width="302pt" height="196pt"
 viewBox="0.00 0.00 302.00 196.00" xmlns="http://www.w3.org/2000/svg" xmlns:xlink="http://www.w3.org/1999/xlink">
<g id="graph0" class="graph" transform="scale(1 1) rotate(0) translate(4 192)">
<title>src/label.h</title>
<polygon fill="white" stroke="none" points="-4,4 -4,-192 298,-192 298,4 -4,4"/>
<!-- Node1 -->
<g id="node1" class="node"><title>Node1</title>
<polygon fill="#bfbfbf" stroke="black" points="93.5,-168.5 93.5,-187.5 155.5,-187.5 155.5,-168.5 93.5,-168.5"/>
<text text-anchor="middle" x="124.5" y="-175.5" font-family="Helvetica,sans-Serif" font-size="10.00">src/label.h</text>
</g>
<!-- Node2 -->
<g id="node2" class="node"><title>Node2</title>
<g id="a_node2"><a xlink:href="ceptr__types_8h_source.html" target="_top" xlink:title="ceptr_types.h">
<polygon fill="white" stroke="black" points="86.5,-112.5 86.5,-131.5 162.5,-131.5 162.5,-112.5 86.5,-112.5"/>
<text text-anchor="middle" x="124.5" y="-119.5" font-family="Helvetica,sans-Serif" font-size="10.00">ceptr_types.h</text>
</a>
</g>
</g>
<!-- Node1&#45;&gt;Node2 -->
<g id="edge1" class="edge"><title>Node1&#45;&gt;Node2</title>
<path fill="none" stroke="midnightblue" d="M124.5,-168.083C124.5,-161.006 124.5,-150.861 124.5,-141.986"/>
<polygon fill="midnightblue" stroke="midnightblue" points="128,-141.751 124.5,-131.751 121,-141.751 128,-141.751"/>
</g>
<!-- Node3 -->
<g id="node3" class="node"><title>Node3</title>
<polygon fill="white" stroke="#bfbfbf" points="-3.55271e-15,-56.5 -3.55271e-15,-75.5 49,-75.5 49,-56.5 -3.55271e-15,-56.5"/>
<text text-anchor="middle" x="24.5" y="-63.5" font-family="Helvetica,sans-Serif" font-size="10.00">stdint.h</text>
</g>
<!-- Node2&#45;&gt;Node3 -->
<g id="edge2" class="edge"><title>Node2&#45;&gt;Node3</title>
<path fill="none" stroke="midnightblue" d="M108.433,-112.324C92.5422,-103.743 67.9926,-90.486 49.5415,-80.5224"/>
<polygon fill="midnightblue" stroke="midnightblue" points="50.989,-77.3264 40.5269,-75.6545 47.6629,-83.4857 50.989,-77.3264"/>
</g>
<!-- Node4 -->
<g id="node4" class="node"><title>Node4</title>
<polygon fill="white" stroke="#bfbfbf" points="67.5,-56.5 67.5,-75.5 113.5,-75.5 113.5,-56.5 67.5,-56.5"/>
<text text-anchor="middle" x="90.5" y="-63.5" font-family="Helvetica,sans-Serif" font-size="10.00">stdio.h</text>
</g>
<!-- Node2&#45;&gt;Node4 -->
<g id="edge3" class="edge"><title>Node2&#45;&gt;Node4</title>
<path fill="none" stroke="midnightblue" d="M118.886,-112.083C114.133,-104.534 107.182,-93.4948 101.348,-84.2298"/>
<polygon fill="midnightblue" stroke="midnightblue" points="104.3,-82.3486 96.0099,-75.7511 98.3763,-86.0783 104.3,-82.3486"/>
</g>
<!-- Node5 -->
<g id="node5" class="node"><title>Node5</title>
<g id="a_node5"><a xlink:href="uthash_8h_source.html" target="_top" xlink:title="uthash.h">
<polygon fill="white" stroke="black" points="131.5,-56.5 131.5,-75.5 185.5,-75.5 185.5,-56.5 131.5,-56.5"/>
<text text-anchor="middle" x="158.5" y="-63.5" font-family="Helvetica,sans-Serif" font-size="10.00">uthash.h</text>
</a>
</g>
</g>
<!-- Node2&#45;&gt;Node5 -->
<g id="edge4" class="edge"><title>Node2&#45;&gt;Node5</title>
<path fill="none" stroke="midnightblue" d="M130.114,-112.083C134.867,-104.534 141.818,-93.4948 147.652,-84.2298"/>
<polygon fill="midnightblue" stroke="midnightblue" points="150.624,-86.0783 152.99,-75.7511 144.7,-82.3486 150.624,-86.0783"/>
</g>
<!-- Node10 -->
<g id="node10" class="node"><title>Node10</title>
<polygon fill="white" stroke="#bfbfbf" points="203.5,-56.5 203.5,-75.5 259.5,-75.5 259.5,-56.5 203.5,-56.5"/>
<text text-anchor="middle" x="231.5" y="-63.5" font-family="Helvetica,sans-Serif" font-size="10.00">stdbool.h</text>
</g>
<!-- Node2&#45;&gt;Node10 -->
<g id="edge9" class="edge"><title>Node2&#45;&gt;Node10</title>
<path fill="none" stroke="midnightblue" d="M141.691,-112.324C158.851,-103.664 185.446,-90.2424 205.247,-80.249"/>
<polygon fill="midnightblue" stroke="midnightblue" points="207.001,-83.2847 214.351,-75.6545 203.847,-77.0354 207.001,-83.2847"/>
</g>
<!-- Node6 -->
<g id="node6" class="node"><title>Node6</title>
<polygon fill="white" stroke="#bfbfbf" points="31,-0.5 31,-19.5 80,-19.5 80,-0.5 31,-0.5"/>
<text text-anchor="middle" x="55.5" y="-7.5" font-family="Helvetica,sans-Serif" font-size="10.00">string.h</text>
</g>
<!-- Node5&#45;&gt;Node6 -->
<g id="edge5" class="edge"><title>Node5&#45;&gt;Node6</title>
<path fill="none" stroke="midnightblue" d="M141.951,-56.324C125.508,-47.7034 100.065,-34.3643 81.0316,-24.3855"/>
<polygon fill="midnightblue" stroke="midnightblue" points="82.4895,-21.198 72.0077,-19.6545 79.2391,-27.3977 82.4895,-21.198"/>
</g>
<!-- Node7 -->
<g id="node7" class="node"><title>Node7</title>
<polygon fill="white" stroke="#bfbfbf" points="98.5,-0.5 98.5,-19.5 150.5,-19.5 150.5,-0.5 98.5,-0.5"/>
<text text-anchor="middle" x="124.5" y="-7.5" font-family="Helvetica,sans-Serif" font-size="10.00">stddef.h</text>
</g>
<!-- Node5&#45;&gt;Node7 -->
<g id="edge6" class="edge"><title>Node5&#45;&gt;Node7</title>
<path fill="none" stroke="midnightblue" d="M152.886,-56.083C148.133,-48.5341 141.182,-37.4948 135.348,-28.2298"/>
<polygon fill="midnightblue" stroke="midnightblue" points="138.3,-26.3486 130.01,-19.7511 132.376,-30.0783 138.3,-26.3486"/>
</g>
<!-- Node8 -->
<g id="node8" class="node"><title>Node8</title>
<polygon fill="white" stroke="#bfbfbf" points="168.5,-0.5 168.5,-19.5 216.5,-19.5 216.5,-0.5 168.5,-0.5"/>
<text text-anchor="middle" x="192.5" y="-7.5" font-family="Helvetica,sans-Serif" font-size="10.00">stdlib.h</text>
</g>
<!-- Node5&#45;&gt;Node8 -->
<g id="edge7" class="edge"><title>Node5&#45;&gt;Node8</title>
<path fill="none" stroke="midnightblue" d="M164.114,-56.083C168.867,-48.5341 175.818,-37.4948 181.652,-28.2298"/>
<polygon fill="midnightblue" stroke="midnightblue" points="184.624,-30.0783 186.99,-19.7511 178.7,-26.3486 184.624,-30.0783"/>
</g>
<!-- Node9 -->
<g id="node9" class="node"><title>Node9</title>
<polygon fill="white" stroke="#bfbfbf" points="235,-0.5 235,-19.5 294,-19.5 294,-0.5 235,-0.5"/>
<text text-anchor="middle" x="264.5" y="-7.5" font-family="Helvetica,sans-Serif" font-size="10.00">inttypes.h</text>
</g>
<!-- Node5&#45;&gt;Node9 -->
<g id="edge8" class="edge"><title>Node5&#45;&gt;Node9</title>
<path fill="none" stroke="midnightblue" d="M175.531,-56.324C192.53,-47.6641 218.876,-34.2424 238.493,-24.249"/>
<polygon fill="midnightblue" stroke="midnightblue" points="240.19,-27.3125 247.512,-19.6545 237.012,-21.0752 240.19,-27.3125"/>
</g>
</g>
</svg>
