<?xml version="1.0" encoding="UTF-8" standalone="no"?>
<!DOCTYPE svg PUBLIC "-//W3C//DTD SVG 1.1//EN"
 "http://www.w3.org/Graphics/SVG/1.1/DTD/svg11.dtd">
<!-- Generated by graphviz version 2.38.0 (20140413.2041)
 -->
<!-- Title: src/label.h Pages: 1 -->
<!--zoomable 252 -->
<svg id="main" version="1.1" xmlns="http://www.w3.org/2000/svg" xmlns:xlink="http://www.w3.org/1999/xlink" xml:space="preserve" onload="init(evt)">
<style type="text/css"><![CDATA[
.edge:hover path { stroke: red; }
.edge:hover polygon { stroke: red; fill: red; }
]]></style>
<script type="text/javascript"><![CDATA[
var edges = document.getElementsByTagName('g');
if (edges && edges.length) {
  for (var i=0;i<edges.length;i++) {
    if (edges[i].id.substr(0,4)=='edge') {
      edges[i].setAttribute('class','edge');
    }
  }
}
]]></script>
        <defs>
                <circle id="rim" cx="0" cy="0" r="7"/>
                <circle id="rim2" cx="0" cy="0" r="3.5"/>
                <g id="zoomPlus">
                        <use xlink:href="#rim" fill="#404040">
                                <set attributeName="fill" to="#808080" begin="zoomplus.mouseover" end="zoomplus.mouseout"/>
                        </use>
                        <path d="M-4,0h8M0,-4v8" fill="none" stroke="white" stroke-width="1.5" pointer-events="none"/>
                </g>
                <g id="zoomMin">
                        <use xlink:href="#rim" fill="#404040">
                                <set attributeName="fill" to="#808080" begin="zoomminus.mouseover" end="zoomminus.mouseout"/>
                        </use>
                        <path d="M-4,0h8" fill="none" stroke="white" stroke-width="1.5" pointer-events="none"/>
                </g>
                <g id="dirArrow">
                        <path fill="none" stroke="white" stroke-width="1.5" d="M0,-3.0v7 M-2.5,-0.5L0,-3.0L2.5,-0.5"/>
                </g>
               <g id="resetDef">
                       <use xlink:href="#rim2" fill="#404040">
                               <set attributeName="fill" to="#808080" begin="reset.mouseover" end="reset.mouseout"/>
                       </use>
               </g>
        </defs>

<script type="text/javascript">
var viewWidth = 822;
var viewHeight = 252;
var sectionId = 'dynsection-1';
</script>
<script xlink:href="svgpan.js"/>
<svg id="graph" class="graph">
<g id="viewport">
<title>src/label.h</title>
<polygon fill="white" stroke="none" points="-4,4 -4,-248 817.67,-248 817.67,4 -4,4"/>
<!-- Node1 -->
<g id="node1" class="node"><title>Node1</title>
<polygon fill="#bfbfbf" stroke="black" points="464,-224.5 464,-243.5 526,-243.5 526,-224.5 464,-224.5"/>
<text text-anchor="middle" x="495" y="-231.5" font-family="Helvetica,sans-Serif" font-size="10.00">src/label.h</text>
</g>
<!-- Node2 -->
<g id="node2" class="node"><title>Node2</title>
<g id="a_node2"><a xlink:href="label_8c.html" target="_top" xlink:title="Implementation of label tabels for semantic reference to parts of semantic trees. ...">
<polygon fill="white" stroke="black" points="376,-168.5 376,-187.5 438,-187.5 438,-168.5 376,-168.5"/>
<text text-anchor="middle" x="407" y="-175.5" font-family="Helvetica,sans-Serif" font-size="10.00">src/label.c</text>
</a>
</g>
</g>
<!-- Node1&#45;&gt;Node2 -->
<g id="edge1" class="edge"><title>Node1&#45;&gt;Node2</title>
<path fill="none" stroke="midnightblue" d="M472.023,-218.901C455.887,-208.999 434.819,-196.071 421.104,-187.655"/>
<polygon fill="midnightblue" stroke="midnightblue" points="470.507,-222.077 480.861,-224.324 474.169,-216.111 470.507,-222.077"/>
</g>
<!-- Node3 -->
<g id="node3" class="node"><title>Node3</title>
<g id="a_node3"><a xlink:href="receptor_8h.html" target="_top" xlink:title="receptor implementation header file ">
<polygon fill="white" stroke="black" points="456.5,-168.5 456.5,-187.5 533.5,-187.5 533.5,-168.5 456.5,-168.5"/>
<text text-anchor="middle" x="495" y="-175.5" font-family="Helvetica,sans-Serif" font-size="10.00">src/receptor.h</text>
</a>
</g>
</g>
<!-- Node1&#45;&gt;Node3 -->
<g id="edge2" class="edge"><title>Node1&#45;&gt;Node3</title>
<path fill="none" stroke="midnightblue" d="M495,-213.805C495,-204.91 495,-194.78 495,-187.751"/>
<polygon fill="midnightblue" stroke="midnightblue" points="491.5,-214.083 495,-224.083 498.5,-214.083 491.5,-214.083"/>
</g>
<!-- Node16 -->
<g id="node16" class="node"><title>Node16</title>
<g id="a_node16"><a xlink:href="label__spec_8h.html" target="_top" xlink:title="spec/label_spec.h">
<polygon fill="white" stroke="black" points="666.5,-168.5 666.5,-187.5 761.5,-187.5 761.5,-168.5 666.5,-168.5"/>
<text text-anchor="middle" x="714" y="-175.5" font-family="Helvetica,sans-Serif" font-size="10.00">spec/label_spec.h</text>
</a>
</g>
</g>
<!-- Node1&#45;&gt;Node16 -->
<g id="edge24" class="edge"><title>Node1&#45;&gt;Node16</title>
<path fill="none" stroke="midnightblue" d="M536.142,-222.856C577.508,-212.656 640.567,-197.107 679.429,-187.524"/>
<polygon fill="midnightblue" stroke="midnightblue" points="535.249,-219.471 526.377,-225.263 536.925,-226.267 535.249,-219.471"/>
</g>
<!-- Node4 -->
<g id="node4" class="node"><title>Node4</title>
<g id="a_node4"><a xlink:href="receptor_8c.html" target="_top" xlink:title="receptor implementation ">
<polygon fill="white" stroke="black" points="489.5,-112.5 489.5,-131.5 566.5,-131.5 566.5,-112.5 489.5,-112.5"/>
<text text-anchor="middle" x="528" y="-119.5" font-family="Helvetica,sans-Serif" font-size="10.00">src/receptor.c</text>
</a>
</g>
</g>
<!-- Node3&#45;&gt;Node4 -->
<g id="edge3" class="edge"><title>Node3&#45;&gt;Node4</title>
<path fill="none" stroke="midnightblue" d="M505.832,-159.275C511.472,-150.045 518.118,-139.17 522.652,-131.751"/>
<polygon fill="midnightblue" stroke="midnightblue" points="502.677,-157.725 500.449,-168.083 508.65,-161.375 502.677,-157.725"/>
</g>
<!-- Node5 -->
<g id="node5" class="node"><title>Node5</title>
<g id="a_node5"><a xlink:href="tree_8c.html" target="_top" xlink:title="semantic tree pointer implementation ">
<polygon fill="white" stroke="black" points="585,-112.5 585,-131.5 643,-131.5 643,-112.5 585,-112.5"/>
<text text-anchor="middle" x="614" y="-119.5" font-family="Helvetica,sans-Serif" font-size="10.00">src/tree.c</text>
</a>
</g>
</g>
<!-- Node3&#45;&gt;Node5 -->
<g id="edge4" class="edge"><title>Node3&#45;&gt;Node5</title>
<path fill="none" stroke="midnightblue" d="M523.137,-164.232C545.396,-154.131 575.856,-140.309 595.232,-131.516"/>
<polygon fill="midnightblue" stroke="midnightblue" points="521.516,-161.124 513.856,-168.444 524.409,-167.498 521.516,-161.124"/>
</g>
<!-- Node6 -->
<g id="node6" class="node"><title>Node6</title>
<g id="a_node6"><a xlink:href="vmhost_8h.html" target="_top" xlink:title="vmhost implementation header file ">
<polygon fill="white" stroke="black" points="195,-112.5 195,-131.5 269,-131.5 269,-112.5 195,-112.5"/>
<text text-anchor="middle" x="232" y="-119.5" font-family="Helvetica,sans-Serif" font-size="10.00">src/vmhost.h</text>
</a>
</g>
</g>
<!-- Node3&#45;&gt;Node6 -->
<g id="edge5" class="edge"><title>Node3&#45;&gt;Node6</title>
<path fill="none" stroke="midnightblue" d="M446.643,-167.071C395.492,-156.569 315.885,-140.223 269.35,-130.669"/>
<polygon fill="midnightblue" stroke="midnightblue" points="445.976,-170.507 456.476,-169.09 447.384,-163.65 445.976,-170.507"/>
</g>
<!-- Node10 -->
<g id="node10" class="node"><title>Node10</title>
<g id="a_node10"><a xlink:href="tree__spec_8h.html" target="_top" xlink:title="spec/tree_spec.h">
<polygon fill="white" stroke="black" points="346,-56.5 346,-75.5 438,-75.5 438,-56.5 346,-56.5"/>
<text text-anchor="middle" x="392" y="-63.5" font-family="Helvetica,sans-Serif" font-size="10.00">spec/tree_spec.h</text>
</a>
</g>
</g>
<!-- Node3&#45;&gt;Node10 -->
<g id="edge9" class="edge"><title>Node3&#45;&gt;Node10</title>
<path fill="none" stroke="midnightblue" d="M446.514,-166.352C394.922,-154.791 320.11,-137.271 316,-132 297.531,-108.313 338.732,-86.9563 367.389,-75.5977"/>
<polygon fill="midnightblue" stroke="midnightblue" points="445.973,-169.817 456.495,-168.579 447.497,-162.985 445.973,-169.817"/>
</g>
<!-- Node11 -->
<g id="node11" class="node"><title>Node11</title>
<g id="a_node11"><a xlink:href="http__example_8h.html" target="_top" xlink:title="spec/http_example.h">
<polygon fill="white" stroke="black" points="325.5,-112.5 325.5,-131.5 432.5,-131.5 432.5,-112.5 325.5,-112.5"/>
<text text-anchor="middle" x="379" y="-119.5" font-family="Helvetica,sans-Serif" font-size="10.00">spec/http_example.h</text>
</a>
</g>
</g>
<!-- Node3&#45;&gt;Node11 -->
<g id="edge11" class="edge"><title>Node3&#45;&gt;Node11</title>
<path fill="none" stroke="midnightblue" d="M467.28,-164.096C445.608,-154.007 416.098,-140.27 397.295,-131.516"/>
<polygon fill="midnightblue" stroke="midnightblue" points="466.077,-167.396 476.619,-168.444 469.031,-161.05 466.077,-167.396"/>
</g>
<!-- Node12 -->
<g id="node12" class="node"><title>Node12</title>
<g id="a_node12"><a xlink:href="mtree__spec_8h.html" target="_top" xlink:title="spec/mtree_spec.h">
<polygon fill="white" stroke="black" points="456,-56.5 456,-75.5 556,-75.5 556,-56.5 456,-56.5"/>
<text text-anchor="middle" x="506" y="-63.5" font-family="Helvetica,sans-Serif" font-size="10.00">spec/mtree_spec.h</text>
</a>
</g>
</g>
<!-- Node3&#45;&gt;Node12 -->
<g id="edge18" class="edge"><title>Node3&#45;&gt;Node12</title>
<path fill="none" stroke="midnightblue" d="M486.017,-158.83C480.712,-145.749 475.787,-127.711 480,-112 483.692,-98.2304 492.731,-84.3162 499.11,-75.6811"/>
<polygon fill="midnightblue" stroke="midnightblue" points="482.897,-160.429 490.184,-168.12 489.284,-157.563 482.897,-160.429"/>
</g>
<!-- Node13 -->
<g id="node13" class="node"><title>Node13</title>
<g id="a_node13"><a xlink:href="receptor__spec_8h.html" target="_top" xlink:title="spec/receptor_spec.h">
<polygon fill="white" stroke="black" points="574,-56.5 574,-75.5 684,-75.5 684,-56.5 574,-56.5"/>
<text text-anchor="middle" x="629" y="-63.5" font-family="Helvetica,sans-Serif" font-size="10.00">spec/receptor_spec.h</text>
</a>
</g>
</g>
<!-- Node3&#45;&gt;Node13 -->
<g id="edge21" class="edge"><title>Node3&#45;&gt;Node13</title>
<path fill="none" stroke="midnightblue" d="M543.43,-169.605C584.517,-162.225 638.836,-149.467 652,-132 665.112,-114.602 647.956,-89.0885 636.941,-75.7924"/>
<polygon fill="midnightblue" stroke="midnightblue" points="542.819,-166.159 533.566,-171.321 544.018,-173.055 542.819,-166.159"/>
</g>
<!-- Node14 -->
<g id="node14" class="node"><title>Node14</title>
<g id="a_node14"><a xlink:href="semtrex__spec_8h.html" target="_top" xlink:title="spec/semtrex_spec.h">
<polygon fill="white" stroke="black" points="0,-56.5 0,-75.5 110,-75.5 110,-56.5 0,-56.5"/>
<text text-anchor="middle" x="55" y="-63.5" font-family="Helvetica,sans-Serif" font-size="10.00">spec/semtrex_spec.h</text>
</a>
</g>
</g>
<!-- Node3&#45;&gt;Node14 -->
<g id="edge19" class="edge"><title>Node3&#45;&gt;Node14</title>
<path fill="none" stroke="midnightblue" d="M446.217,-167.981C329.529,-150.11 294.849,-165.531 186,-132 140.627,-118.023 91.6415,-89.7824 68.5315,-75.5745"/>
<polygon fill="midnightblue" stroke="midnightblue" points="445.832,-171.464 456.256,-169.569 446.925,-164.55 445.832,-171.464"/>
</g>
<!-- Node15 -->
<g id="node15" class="node"><title>Node15</title>
<g id="a_node15"><a xlink:href="scape__spec_8h.html" target="_top" xlink:title="spec/scape_spec.h">
<polygon fill="white" stroke="black" points="699.5,-112.5 699.5,-131.5 800.5,-131.5 800.5,-112.5 699.5,-112.5"/>
<text text-anchor="middle" x="750" y="-119.5" font-family="Helvetica,sans-Serif" font-size="10.00">spec/scape_spec.h</text>
</a>
</g>
</g>
<!-- Node3&#45;&gt;Node15 -->
<g id="edge22" class="edge"><title>Node3&#45;&gt;Node15</title>
<path fill="none" stroke="midnightblue" d="M543.607,-166.707C591.745,-156.513 664.601,-141.084 709.641,-131.547"/>
<polygon fill="midnightblue" stroke="midnightblue" points="542.787,-163.303 533.729,-168.799 544.237,-170.151 542.787,-163.303"/>
</g>
<!-- Node7 -->
<g id="node7" class="node"><title>Node7</title>
<g id="a_node7"><a xlink:href="vmhost_8c.html" target="_top" xlink:title="virtual machine host receptor implementation ">
<polygon fill="white" stroke="black" points="128,-56.5 128,-75.5 202,-75.5 202,-56.5 128,-56.5"/>
<text text-anchor="middle" x="165" y="-63.5" font-family="Helvetica,sans-Serif" font-size="10.00">src/vmhost.c</text>
</a>
</g>
</g>
<!-- Node6&#45;&gt;Node7 -->
<g id="edge6" class="edge"><title>Node6&#45;&gt;Node7</title>
<path fill="none" stroke="midnightblue" d="M213.165,-105.82C201.162,-96.1452 186.028,-83.9481 175.961,-75.8339"/>
<polygon fill="midnightblue" stroke="midnightblue" points="211.253,-108.774 221.235,-112.324 215.646,-103.324 211.253,-108.774"/>
</g>
<!-- Node8 -->
<g id="node8" class="node"><title>Node8</title>
<g id="a_node8"><a xlink:href="vmhost__spec_8h.html" target="_top" xlink:title="spec/vmhost_spec.h">
<polygon fill="white" stroke="black" points="220.5,-56.5 220.5,-75.5 327.5,-75.5 327.5,-56.5 220.5,-56.5"/>
<text text-anchor="middle" x="274" y="-63.5" font-family="Helvetica,sans-Serif" font-size="10.00">spec/vmhost_spec.h</text>
</a>
</g>
</g>
<!-- Node6&#45;&gt;Node8 -->
<g id="edge7" class="edge"><title>Node6&#45;&gt;Node8</title>
<path fill="none" stroke="midnightblue" d="M245.11,-104.144C252.428,-94.7357 261.241,-83.4046 267.194,-75.7511"/>
<polygon fill="midnightblue" stroke="midnightblue" points="242.312,-102.041 238.935,-112.083 247.838,-106.338 242.312,-102.041"/>
</g>
<!-- Node9 -->
<g id="node9" class="node"><title>Node9</title>
<g id="a_node9"><a xlink:href="ceptr__specs_8c.html" target="_top" xlink:title="implements a main() entry point for running all the tests ">
<polygon fill="white" stroke="black" points="455,-0.5 455,-19.5 557,-19.5 557,-0.5 455,-0.5"/>
<text text-anchor="middle" x="506" y="-7.5" font-family="Helvetica,sans-Serif" font-size="10.00">spec/ceptr_specs.c</text>
</a>
</g>
</g>
<!-- Node8&#45;&gt;Node9 -->
<g id="edge8" class="edge"><title>Node8&#45;&gt;Node9</title>
<path fill="none" stroke="midnightblue" d="M320.603,-54.1529C364.437,-43.95 429.178,-28.8809 469.411,-19.5164"/>
<polygon fill="midnightblue" stroke="midnightblue" points="319.707,-50.7676 310.761,-56.4435 321.294,-57.5854 319.707,-50.7676"/>
</g>
<!-- Node10&#45;&gt;Node9 -->
<g id="edge10" class="edge"><title>Node10&#45;&gt;Node9</title>
<path fill="none" stroke="midnightblue" d="M419.242,-52.096C440.54,-42.0073 469.542,-28.2697 488.021,-19.5164"/>
<polygon fill="midnightblue" stroke="midnightblue" points="417.603,-48.9995 410.064,-56.4435 420.599,-55.3257 417.603,-48.9995"/>
</g>
<!-- Node11&#45;&gt;Node8 -->
<g id="edge17" class="edge"><title>Node11&#45;&gt;Node8</title>
<path fill="none" stroke="midnightblue" d="M353.19,-107.726C333.747,-97.7271 307.652,-84.3065 290.828,-75.6545"/>
<polygon fill="midnightblue" stroke="midnightblue" points="351.636,-110.863 362.13,-112.324 354.838,-104.638 351.636,-110.863"/>
</g>
<!-- Node11&#45;&gt;Node10 -->
<g id="edge12" class="edge"><title>Node11&#45;&gt;Node10</title>
<path fill="none" stroke="midnightblue" d="M383.55,-102.101C385.708,-93.1357 388.182,-82.8579 389.893,-75.7511"/>
<polygon fill="midnightblue" stroke="midnightblue" points="380.085,-101.542 381.147,-112.083 386.89,-103.18 380.085,-101.542"/>
</g>
<!-- Node11&#45;&gt;Node12 -->
<g id="edge13" class="edge"><title>Node11&#45;&gt;Node12</title>
<path fill="none" stroke="midnightblue" d="M408.391,-108.503C432.2,-98.3795 465.106,-84.388 485.971,-75.5164"/>
<polygon fill="midnightblue" stroke="midnightblue" points="406.957,-105.31 399.124,-112.444 409.696,-111.751 406.957,-105.31"/>
</g>
<!-- Node11&#45;&gt;Node13 -->
<g id="edge15" class="edge"><title>Node11&#45;&gt;Node13</title>
<path fill="none" stroke="midnightblue" d="M428.623,-110.281C475.866,-100.077 546.036,-84.9203 589.572,-75.5164"/>
<polygon fill="midnightblue" stroke="midnightblue" points="427.649,-106.911 418.613,-112.444 429.127,-113.753 427.649,-106.911"/>
</g>
<!-- Node12&#45;&gt;Node9 -->
<g id="edge14" class="edge"><title>Node12&#45;&gt;Node9</title>
<path fill="none" stroke="midnightblue" d="M506,-45.8045C506,-36.9102 506,-26.7798 506,-19.7511"/>
<polygon fill="midnightblue" stroke="midnightblue" points="502.5,-46.083 506,-56.083 509.5,-46.083 502.5,-46.083"/>
</g>
<!-- Node13&#45;&gt;Node9 -->
<g id="edge16" class="edge"><title>Node13&#45;&gt;Node9</title>
<path fill="none" stroke="midnightblue" d="M600.227,-52.3678C577.193,-42.2553 545.516,-28.3486 525.399,-19.5164"/>
<polygon fill="midnightblue" stroke="midnightblue" points="598.947,-55.6283 609.51,-56.4435 601.761,-49.2188 598.947,-55.6283"/>
</g>
<!-- Node14&#45;&gt;Node9 -->
<g id="edge20" class="edge"><title>Node14&#45;&gt;Node9</title>
<path fill="none" stroke="midnightblue" d="M120.384,-55.8478C246.677,-39.723 382.797,-24.4623 454.93,-16.5442"/>
<polygon fill="midnightblue" stroke="midnightblue" points="119.621,-52.4169 110.147,-57.1596 120.51,-59.3601 119.621,-52.4169"/>
</g>
<!-- Node15&#45;&gt;Node9 -->
<g id="edge23" class="edge"><title>Node15&#45;&gt;Node9</title>
<path fill="none" stroke="midnightblue" d="M739.205,-103.544C729.085,-88.6586 712.601,-67.843 693,-56 651.416,-30.8742 596.694,-19.7729 557.202,-14.8706"/>
<polygon fill="midnightblue" stroke="midnightblue" points="736.521,-105.838 744.905,-112.316 742.391,-102.024 736.521,-105.838"/>
</g>
<!-- Node16&#45;&gt;Node9 -->
<g id="edge25" class="edge"><title>Node16&#45;&gt;Node9</title>
<path fill="none" stroke="midnightblue" d="M759.976,-165.48C791.191,-155.135 824.388,-137.602 810,-112 786.548,-70.2703 762.489,-73.6652 718,-56 665.196,-35.0332 600.926,-23.1445 557.088,-16.9192"/>
<polygon fill="midnightblue" stroke="midnightblue" points="758.914,-162.145 750.408,-168.461 760.996,-168.828 758.914,-162.145"/>
</g>
</g>
</svg>
        <g id="navigator" transform="translate(0 0)" fill="#404254">
                <rect fill="#f2f5e9" fill-opacity="0.5" stroke="#606060" stroke-width=".5" x="0" y="0" width="60" height="60"/>
                <use id="zoomplus" xlink:href="#zoomPlus" x="17" y="9" onmousedown="handleZoom(evt,'in')"/>
                <use id="zoomminus" xlink:href="#zoomMin" x="42" y="9" onmousedown="handleZoom(evt,'out')"/>
                <use id="reset" xlink:href="#resetDef" x="30" y="36" onmousedown="handleReset()"/>
                <g id="arrowUp" xlink:href="#dirArrow" transform="translate(30 24)" onmousedown="handlePan(0,-1)">
                  <use xlink:href="#rim" fill="#404040">
                        <set attributeName="fill" to="#808080" begin="arrowUp.mouseover" end="arrowUp.mouseout"/>
                  </use>
                  <path fill="none" stroke="white" stroke-width="1.5" d="M0,-3.0v7 M-2.5,-0.5L0,-3.0L2.5,-0.5"/>
                </g>
                <g id="arrowRight" xlink:href="#dirArrow" transform="rotate(90) translate(36 -43)" onmousedown="handlePan(1,0)">
                  <use xlink:href="#rim" fill="#404040">
                        <set attributeName="fill" to="#808080" begin="arrowRight.mouseover" end="arrowRight.mouseout"/>
                  </use>
                  <path fill="none" stroke="white" stroke-width="1.5" d="M0,-3.0v7 M-2.5,-0.5L0,-3.0L2.5,-0.5"/>
                </g>
                <g id="arrowDown" xlink:href="#dirArrow" transform="rotate(180) translate(-30 -48)" onmousedown="handlePan(0,1)">
                  <use xlink:href="#rim" fill="#404040">
                        <set attributeName="fill" to="#808080" begin="arrowDown.mouseover" end="arrowDown.mouseout"/>
                  </use>
                  <path fill="none" stroke="white" stroke-width="1.5" d="M0,-3.0v7 M-2.5,-0.5L0,-3.0L2.5,-0.5"/>
                </g>
                <g id="arrowLeft" xlink:href="#dirArrow" transform="rotate(270) translate(-36 17)" onmousedown="handlePan(-1,0)">
                  <use xlink:href="#rim" fill="#404040">
                        <set attributeName="fill" to="#808080" begin="arrowLeft.mouseover" end="arrowLeft.mouseout"/>
                  </use>
                  <path fill="none" stroke="white" stroke-width="1.5" d="M0,-3.0v7 M-2.5,-0.5L0,-3.0L2.5,-0.5"/>
                </g>
        </g>
        <svg viewBox="0 0 15 15" width="100%" height="30px" preserveAspectRatio="xMaxYMin meet">
         <g id="arrow_out" transform="scale(0.3 0.3)">
          <a xlink:href="label_8h__dep__incl_org.svg" target="_base">
           <rect id="button" ry="5" rx="5" y="6" x="6" height="38" width="38"
                fill="#f2f5e9" fill-opacity="0.5" stroke="#606060" stroke-width="1.0"/>
           <path id="arrow"
             d="M 11.500037,31.436501 C 11.940474,20.09759 22.043105,11.32322 32.158766,21.979434 L 37.068811,17.246167 C 37.068811,17.246167 37.088388,32 37.088388,32 L 22.160133,31.978069 C 22.160133,31.978069 26.997745,27.140456 26.997745,27.140456 C 18.528582,18.264221 13.291696,25.230495 11.500037,31.436501 z"
             style="fill:#404040;"/>
          </a>
         </g>
        </svg>
</svg>
