<?xml version="1.0" encoding="UTF-8" standalone="no"?>
<!DOCTYPE svg PUBLIC "-//W3C//DTD SVG 1.1//EN"
 "http://www.w3.org/Graphics/SVG/1.1/DTD/svg11.dtd">
<!-- Generated by graphviz version 2.38.0 (20140413.2041)
 -->
<!-- Title: src/label.h Pages: 1 -->
<svg width="1296pt" height="364pt"
 viewBox="0.00 0.00 1295.50 364.00" xmlns="http://www.w3.org/2000/svg" xmlns:xlink="http://www.w3.org/1999/xlink">
<g id="graph0" class="graph" transform="scale(1 1) rotate(0) translate(4 360)">
<title>src/label.h</title>
<polygon fill="white" stroke="none" points="-4,4 -4,-360 1291.5,-360 1291.5,4 -4,4"/>
<!-- Node1 -->
<g id="node1" class="node"><title>Node1</title>
<polygon fill="#bfbfbf" stroke="black" points="1029.5,-336.5 1029.5,-355.5 1091.5,-355.5 1091.5,-336.5 1029.5,-336.5"/>
<text text-anchor="middle" x="1060.5" y="-343.5" font-family="Helvetica,sans-Serif" font-size="10.00">src/label.h</text>
</g>
<!-- Node2 -->
<g id="node2" class="node"><title>Node2</title>
<g id="a_node2"><a xlink:href="receptor_8h.html" target="_top" xlink:title="receptor implementation header file ">
<polygon fill="white" stroke="black" points="805,-280.5 805,-299.5 882,-299.5 882,-280.5 805,-280.5"/>
<text text-anchor="middle" x="843.5" y="-287.5" font-family="Helvetica,sans-Serif" font-size="10.00">src/receptor.h</text>
</a>
</g>
</g>
<!-- Node1&#45;&gt;Node2 -->
<g id="edge1" class="edge"><title>Node1&#45;&gt;Node2</title>
<path fill="none" stroke="midnightblue" d="M1019.47,-334.791C978.481,-324.59 916.181,-309.087 877.755,-299.524"/>
<polygon fill="midnightblue" stroke="midnightblue" points="1018.86,-338.245 1029.41,-337.263 1020.55,-331.452 1018.86,-338.245"/>
</g>
<!-- Node26 -->
<g id="node26" class="node"><title>Node26</title>
<g id="a_node26"><a xlink:href="label_8c.html" target="_top" xlink:title="Implementation of label tabels for semantic reference to parts of semantic trees. ...">
<polygon fill="white" stroke="black" points="1029.5,-280.5 1029.5,-299.5 1091.5,-299.5 1091.5,-280.5 1029.5,-280.5"/>
<text text-anchor="middle" x="1060.5" y="-287.5" font-family="Helvetica,sans-Serif" font-size="10.00">src/label.c</text>
</a>
</g>
</g>
<!-- Node1&#45;&gt;Node26 -->
<g id="edge44" class="edge"><title>Node1&#45;&gt;Node26</title>
<path fill="none" stroke="midnightblue" d="M1060.5,-325.805C1060.5,-316.91 1060.5,-306.78 1060.5,-299.751"/>
<polygon fill="midnightblue" stroke="midnightblue" points="1057,-326.083 1060.5,-336.083 1064,-326.083 1057,-326.083"/>
</g>
<!-- Node27 -->
<g id="node27" class="node"><title>Node27</title>
<g id="a_node27"><a xlink:href="label__spec_8h.html" target="_top" xlink:title="spec/label_spec.h">
<polygon fill="white" stroke="black" points="1175,-280.5 1175,-299.5 1270,-299.5 1270,-280.5 1175,-280.5"/>
<text text-anchor="middle" x="1222.5" y="-287.5" font-family="Helvetica,sans-Serif" font-size="10.00">spec/label_spec.h</text>
</a>
</g>
</g>
<!-- Node1&#45;&gt;Node27 -->
<g id="edge45" class="edge"><title>Node1&#45;&gt;Node27</title>
<path fill="none" stroke="midnightblue" d="M1095.98,-333.172C1126.49,-323.004 1169.74,-308.585 1196.95,-299.516"/>
<polygon fill="midnightblue" stroke="midnightblue" points="1094.55,-329.961 1086.17,-336.444 1096.76,-336.602 1094.55,-329.961"/>
</g>
<!-- Node3 -->
<g id="node3" class="node"><title>Node3</title>
<g id="a_node3"><a xlink:href="vmhost_8h.html" target="_top" xlink:title="vmhost implementation header file ">
<polygon fill="white" stroke="black" points="686.5,-224.5 686.5,-243.5 760.5,-243.5 760.5,-224.5 686.5,-224.5"/>
<text text-anchor="middle" x="723.5" y="-231.5" font-family="Helvetica,sans-Serif" font-size="10.00">src/vmhost.h</text>
</a>
</g>
</g>
<!-- Node2&#45;&gt;Node3 -->
<g id="edge2" class="edge"><title>Node2&#45;&gt;Node3</title>
<path fill="none" stroke="midnightblue" d="M815.127,-276.232C792.68,-266.131 761.965,-252.309 742.425,-243.516"/>
<polygon fill="midnightblue" stroke="midnightblue" points="813.93,-279.532 824.486,-280.444 816.803,-273.148 813.93,-279.532"/>
</g>
<!-- Node5 -->
<g id="node5" class="node"><title>Node5</title>
<g id="a_node5"><a xlink:href="accumulator_8c.html" target="_top" xlink:title="implementation file for accumulator ">
<polygon fill="white" stroke="black" points="0,-112.5 0,-131.5 95,-131.5 95,-112.5 0,-112.5"/>
<text text-anchor="middle" x="47.5" y="-119.5" font-family="Helvetica,sans-Serif" font-size="10.00">src/accumulator.c</text>
</a>
</g>
</g>
<!-- Node2&#45;&gt;Node5 -->
<g id="edge24" class="edge"><title>Node2&#45;&gt;Node5</title>
<path fill="none" stroke="midnightblue" d="M794.503,-288.121C671.645,-285.463 353.13,-275.637 252.5,-244 170.89,-218.343 87.2249,-155.065 58.1866,-131.782"/>
<polygon fill="midnightblue" stroke="midnightblue" points="794.665,-291.625 804.736,-288.336 794.812,-284.627 794.665,-291.625"/>
</g>
<!-- Node11 -->
<g id="node11" class="node"><title>Node11</title>
<g id="a_node11"><a xlink:href="process_8c.html" target="_top" xlink:title="implementation of ceptr processing: instructions and run tree reduction ">
<polygon fill="white" stroke="black" points="113.5,-112.5 113.5,-131.5 189.5,-131.5 189.5,-112.5 113.5,-112.5"/>
<text text-anchor="middle" x="151.5" y="-119.5" font-family="Helvetica,sans-Serif" font-size="10.00">src/process.c</text>
</a>
</g>
</g>
<!-- Node2&#45;&gt;Node11 -->
<g id="edge25" class="edge"><title>Node2&#45;&gt;Node11</title>
<path fill="none" stroke="midnightblue" d="M794.845,-288.901C677.293,-288.049 380.868,-282.072 290.5,-244 229.467,-218.287 176.254,-155.044 158.12,-131.776"/>
<polygon fill="midnightblue" stroke="midnightblue" points="794.967,-292.402 804.989,-288.965 795.011,-285.402 794.967,-292.402"/>
</g>
<!-- Node12 -->
<g id="node12" class="node"><title>Node12</title>
<g id="a_node12"><a xlink:href="receptor_8c.html" target="_top" xlink:title="receptor implementation ">
<polygon fill="white" stroke="black" points="208,-112.5 208,-131.5 285,-131.5 285,-112.5 208,-112.5"/>
<text text-anchor="middle" x="246.5" y="-119.5" font-family="Helvetica,sans-Serif" font-size="10.00">src/receptor.c</text>
</a>
</g>
</g>
<!-- Node2&#45;&gt;Node12 -->
<g id="edge26" class="edge"><title>Node2&#45;&gt;Node12</title>
<path fill="none" stroke="midnightblue" d="M794.736,-287.39C671.833,-282.976 356.327,-269.29 316.5,-244 274.091,-217.07 254.498,-154.578 248.551,-131.642"/>
<polygon fill="midnightblue" stroke="midnightblue" points="794.862,-290.897 804.98,-287.753 795.11,-283.901 794.862,-290.897"/>
</g>
<!-- Node18 -->
<g id="node18" class="node"><title>Node18</title>
<g id="a_node18"><a xlink:href="receptor__spec_8h.html" target="_top" xlink:title="spec/receptor_spec.h">
<polygon fill="white" stroke="black" points="303.5,-112.5 303.5,-131.5 413.5,-131.5 413.5,-112.5 303.5,-112.5"/>
<text text-anchor="middle" x="358.5" y="-119.5" font-family="Helvetica,sans-Serif" font-size="10.00">spec/receptor_spec.h</text>
</a>
</g>
</g>
<!-- Node2&#45;&gt;Node18 -->
<g id="edge39" class="edge"><title>Node2&#45;&gt;Node18</title>
<path fill="none" stroke="midnightblue" d="M794.299,-285.525C712.924,-278.004 547.213,-255.072 425.5,-188 399.099,-173.451 375.693,-145.731 364.867,-131.659"/>
<polygon fill="midnightblue" stroke="midnightblue" points="794.469,-289.054 804.738,-286.448 795.085,-282.081 794.469,-289.054"/>
</g>
<!-- Node19 -->
<g id="node19" class="node"><title>Node19</title>
<g id="a_node19"><a xlink:href="tree_8c.html" target="_top" xlink:title="semantic tree pointer implementation ">
<polygon fill="white" stroke="black" points="325.5,-224.5 325.5,-243.5 383.5,-243.5 383.5,-224.5 325.5,-224.5"/>
<text text-anchor="middle" x="354.5" y="-231.5" font-family="Helvetica,sans-Serif" font-size="10.00">src/tree.c</text>
</a>
</g>
</g>
<!-- Node2&#45;&gt;Node19 -->
<g id="edge27" class="edge"><title>Node2&#45;&gt;Node19</title>
<path fill="none" stroke="midnightblue" d="M794.795,-285.78C712.57,-279.966 541.138,-266.214 397.5,-244 392.978,-243.301 388.213,-242.435 383.568,-241.519"/>
<polygon fill="midnightblue" stroke="midnightblue" points="794.627,-289.277 804.846,-286.483 795.115,-282.294 794.627,-289.277"/>
</g>
<!-- Node20 -->
<g id="node20" class="node"><title>Node20</title>
<g id="a_node20"><a xlink:href="tree__spec_8h.html" target="_top" xlink:title="spec/tree_spec.h">
<polygon fill="white" stroke="black" points="883.5,-112.5 883.5,-131.5 975.5,-131.5 975.5,-112.5 883.5,-112.5"/>
<text text-anchor="middle" x="929.5" y="-119.5" font-family="Helvetica,sans-Serif" font-size="10.00">spec/tree_spec.h</text>
</a>
</g>
</g>
<!-- Node2&#45;&gt;Node20 -->
<g id="edge28" class="edge"><title>Node2&#45;&gt;Node20</title>
<path fill="none" stroke="midnightblue" d="M855.395,-271.974C868.752,-252.358 890.514,-218.856 905.5,-188 914.96,-168.523 922.982,-144.3 926.911,-131.635"/>
<polygon fill="midnightblue" stroke="midnightblue" points="852.371,-270.194 849.58,-280.415 858.135,-274.166 852.371,-270.194"/>
</g>
<!-- Node21 -->
<g id="node21" class="node"><title>Node21</title>
<g id="a_node21"><a xlink:href="http__example_8h.html" target="_top" xlink:title="spec/http_example.h">
<polygon fill="white" stroke="black" points="790,-168.5 790,-187.5 897,-187.5 897,-168.5 790,-168.5"/>
<text text-anchor="middle" x="843.5" y="-175.5" font-family="Helvetica,sans-Serif" font-size="10.00">spec/http_example.h</text>
</a>
</g>
</g>
<!-- Node2&#45;&gt;Node21 -->
<g id="edge30" class="edge"><title>Node2&#45;&gt;Node21</title>
<path fill="none" stroke="midnightblue" d="M843.5,-270.348C843.5,-246.254 843.5,-205.308 843.5,-187.591"/>
<polygon fill="midnightblue" stroke="midnightblue" points="840,-270.368 843.5,-280.368 847,-270.369 840,-270.368"/>
</g>
<!-- Node22 -->
<g id="node22" class="node"><title>Node22</title>
<g id="a_node22"><a xlink:href="mtree__spec_8h.html" target="_top" xlink:title="spec/mtree_spec.h">
<polygon fill="white" stroke="black" points="993.5,-112.5 993.5,-131.5 1093.5,-131.5 1093.5,-112.5 993.5,-112.5"/>
<text text-anchor="middle" x="1043.5" y="-119.5" font-family="Helvetica,sans-Serif" font-size="10.00">spec/mtree_spec.h</text>
</a>
</g>
</g>
<!-- Node2&#45;&gt;Node22 -->
<g id="edge36" class="edge"><title>Node2&#45;&gt;Node22</title>
<path fill="none" stroke="midnightblue" d="M861.11,-273.53C895.718,-243.149 970.305,-177.78 982.5,-168 998.926,-154.827 1018.65,-140.542 1031.13,-131.681"/>
<polygon fill="midnightblue" stroke="midnightblue" points="858.439,-271.217 853.235,-280.446 863.058,-276.477 858.439,-271.217"/>
</g>
<!-- Node23 -->
<g id="node23" class="node"><title>Node23</title>
<g id="a_node23"><a xlink:href="semtrex__spec_8h.html" target="_top" xlink:title="spec/semtrex_spec.h">
<polygon fill="white" stroke="black" points="991.5,-168.5 991.5,-187.5 1101.5,-187.5 1101.5,-168.5 991.5,-168.5"/>
<text text-anchor="middle" x="1046.5" y="-175.5" font-family="Helvetica,sans-Serif" font-size="10.00">spec/semtrex_spec.h</text>
</a>
</g>
</g>
<!-- Node2&#45;&gt;Node23 -->
<g id="edge37" class="edge"><title>Node2&#45;&gt;Node23</title>
<path fill="none" stroke="midnightblue" d="M891.885,-278.176C918.375,-270.947 951.086,-259.825 977.5,-244 1003.48,-228.437 1027.76,-201.667 1039.36,-187.839"/>
<polygon fill="midnightblue" stroke="midnightblue" points="890.845,-274.83 882.063,-280.757 892.624,-281.6 890.845,-274.83"/>
</g>
<!-- Node24 -->
<g id="node24" class="node"><title>Node24</title>
<g id="a_node24"><a xlink:href="scape__spec_8h.html" target="_top" xlink:title="spec/scape_spec.h">
<polygon fill="white" stroke="black" points="1120,-168.5 1120,-187.5 1221,-187.5 1221,-168.5 1120,-168.5"/>
<text text-anchor="middle" x="1170.5" y="-175.5" font-family="Helvetica,sans-Serif" font-size="10.00">spec/scape_spec.h</text>
</a>
</g>
</g>
<!-- Node2&#45;&gt;Node24 -->
<g id="edge40" class="edge"><title>Node2&#45;&gt;Node24</title>
<path fill="none" stroke="midnightblue" d="M888.135,-277.816C920.655,-269.355 965.633,-257.005 1004.5,-244 1058.07,-226.078 1119.62,-200.675 1150.55,-187.565"/>
<polygon fill="midnightblue" stroke="midnightblue" points="886.846,-274.534 878.038,-280.422 888.595,-281.312 886.846,-274.534"/>
</g>
<!-- Node25 -->
<g id="node25" class="node"><title>Node25</title>
<g id="a_node25"><a xlink:href="profile__example_8h.html" target="_top" xlink:title="spec/profile_example.h">
<polygon fill="white" stroke="black" points="1129,-224.5 1129,-243.5 1246,-243.5 1246,-224.5 1129,-224.5"/>
<text text-anchor="middle" x="1187.5" y="-231.5" font-family="Helvetica,sans-Serif" font-size="10.00">spec/profile_example.h</text>
</a>
</g>
</g>
<!-- Node2&#45;&gt;Node25 -->
<g id="edge42" class="edge"><title>Node2&#45;&gt;Node25</title>
<path fill="none" stroke="midnightblue" d="M892.479,-281.311C956.199,-271.309 1067.17,-253.888 1133.34,-243.502"/>
<polygon fill="midnightblue" stroke="midnightblue" points="891.629,-277.902 882.292,-282.91 892.714,-284.817 891.629,-277.902"/>
</g>
<!-- Node4 -->
<g id="node4" class="node"><title>Node4</title>
<g id="a_node4"><a xlink:href="accumulator_8h.html" target="_top" xlink:title="header file for the accumulator ">
<polygon fill="white" stroke="black" points="478,-168.5 478,-187.5 573,-187.5 573,-168.5 478,-168.5"/>
<text text-anchor="middle" x="525.5" y="-175.5" font-family="Helvetica,sans-Serif" font-size="10.00">src/accumulator.h</text>
</a>
</g>
</g>
<!-- Node3&#45;&gt;Node4 -->
<g id="edge3" class="edge"><title>Node3&#45;&gt;Node4</title>
<path fill="none" stroke="midnightblue" d="M682.062,-221.699C644.693,-211.507 590.557,-196.743 556.727,-187.516"/>
<polygon fill="midnightblue" stroke="midnightblue" points="681.558,-225.189 692.126,-224.444 683.4,-218.436 681.558,-225.189"/>
</g>
<!-- Node15 -->
<g id="node15" class="node"><title>Node15</title>
<g id="a_node15"><a xlink:href="vmhost__spec_8h.html" target="_top" xlink:title="spec/vmhost_spec.h">
<polygon fill="white" stroke="black" points="807,-56.5 807,-75.5 914,-75.5 914,-56.5 807,-56.5"/>
<text text-anchor="middle" x="860.5" y="-63.5" font-family="Helvetica,sans-Serif" font-size="10.00">spec/vmhost_spec.h</text>
</a>
</g>
</g>
<!-- Node3&#45;&gt;Node15 -->
<g id="edge23" class="edge"><title>Node3&#45;&gt;Node15</title>
<path fill="none" stroke="midnightblue" d="M737.357,-216.21C766.198,-181.264 831.79,-101.787 853.429,-75.5681"/>
<polygon fill="midnightblue" stroke="midnightblue" points="734.532,-214.135 730.866,-224.075 739.93,-218.59 734.532,-214.135"/>
</g>
<!-- Node16 -->
<g id="node16" class="node"><title>Node16</title>
<g id="a_node16"><a xlink:href="vmhost_8c.html" target="_top" xlink:title="virtual machine host receptor implementation ">
<polygon fill="white" stroke="black" points="715.5,-112.5 715.5,-131.5 789.5,-131.5 789.5,-112.5 715.5,-112.5"/>
<text text-anchor="middle" x="752.5" y="-119.5" font-family="Helvetica,sans-Serif" font-size="10.00">src/vmhost.c</text>
</a>
</g>
</g>
<!-- Node3&#45;&gt;Node16 -->
<g id="edge21" class="edge"><title>Node3&#45;&gt;Node16</title>
<path fill="none" stroke="midnightblue" d="M728.331,-214.674C734.672,-190.625 745.543,-149.388 750.235,-131.591"/>
<polygon fill="midnightblue" stroke="midnightblue" points="724.941,-213.807 725.776,-224.368 731.709,-215.591 724.941,-213.807"/>
</g>
<!-- Node3&#45;&gt;Node18 -->
<g id="edge22" class="edge"><title>Node3&#45;&gt;Node18</title>
<path fill="none" stroke="midnightblue" d="M676.116,-229.736C623.893,-224.984 538.071,-213.726 468.5,-188 429.802,-173.69 389.269,-145.861 369.996,-131.712"/>
<polygon fill="midnightblue" stroke="midnightblue" points="675.833,-233.225 686.098,-230.602 676.438,-226.251 675.833,-233.225"/>
</g>
<!-- Node4&#45;&gt;Node5 -->
<g id="edge4" class="edge"><title>Node4&#45;&gt;Node5</title>
<path fill="none" stroke="midnightblue" d="M467.715,-171.748C386.481,-164.155 233.958,-149.128 104.5,-132 101.421,-131.593 98.2521,-131.152 95.0598,-130.692"/>
<polygon fill="midnightblue" stroke="midnightblue" points="467.458,-175.239 477.739,-172.681 468.107,-168.269 467.458,-175.239"/>
</g>
<!-- Node6 -->
<g id="node6" class="node"><title>Node6</title>
<g id="a_node6"><a xlink:href="ceptr_8c.html" target="_top" xlink:title="implements main() entry point for the ceptr node ">
<polygon fill="white" stroke="black" points="634,-112.5 634,-131.5 697,-131.5 697,-112.5 634,-112.5"/>
<text text-anchor="middle" x="665.5" y="-119.5" font-family="Helvetica,sans-Serif" font-size="10.00">src/ceptr.c</text>
</a>
</g>
</g>
<!-- Node4&#45;&gt;Node6 -->
<g id="edge5" class="edge"><title>Node4&#45;&gt;Node6</title>
<path fill="none" stroke="midnightblue" d="M557.202,-164.772C583.5,-154.629 620.216,-140.467 643.42,-131.516"/>
<polygon fill="midnightblue" stroke="midnightblue" points="555.754,-161.579 547.683,-168.444 558.273,-168.11 555.754,-161.579"/>
</g>
<!-- Node7 -->
<g id="node7" class="node"><title>Node7</title>
<g id="a_node7"><a xlink:href="group_8h.html" target="_top" xlink:title="group communication receptors header file ">
<polygon fill="white" stroke="black" points="432,-112.5 432,-131.5 497,-131.5 497,-112.5 432,-112.5"/>
<text text-anchor="middle" x="464.5" y="-119.5" font-family="Helvetica,sans-Serif" font-size="10.00">src/group.h</text>
</a>
</g>
</g>
<!-- Node4&#45;&gt;Node7 -->
<g id="edge6" class="edge"><title>Node4&#45;&gt;Node7</title>
<path fill="none" stroke="midnightblue" d="M508.033,-161.537C497.156,-151.909 483.556,-139.869 474.479,-131.834"/>
<polygon fill="midnightblue" stroke="midnightblue" points="505.892,-164.316 515.699,-168.324 510.532,-159.075 505.892,-164.316"/>
</g>
<!-- Node4&#45;&gt;Node11 -->
<g id="edge10" class="edge"><title>Node4&#45;&gt;Node11</title>
<path fill="none" stroke="midnightblue" d="M467.889,-170C402.458,-161.835 292.565,-147.468 198.5,-132 195.631,-131.528 192.668,-131.017 189.69,-130.486"/>
<polygon fill="midnightblue" stroke="midnightblue" points="467.644,-173.496 477.999,-171.257 468.507,-166.55 467.644,-173.496"/>
</g>
<!-- Node4&#45;&gt;Node12 -->
<g id="edge11" class="edge"><title>Node4&#45;&gt;Node12</title>
<path fill="none" stroke="midnightblue" d="M471.423,-166.533C416.712,-155.944 333.5,-139.839 285.111,-130.473"/>
<polygon fill="midnightblue" stroke="midnightblue" points="470.809,-169.979 481.292,-168.444 472.139,-163.107 470.809,-169.979"/>
</g>
<!-- Node13 -->
<g id="node13" class="node"><title>Node13</title>
<g id="a_node13"><a xlink:href="shell_8h.html" target="_top" xlink:title="command line shell receptor header files ">
<polygon fill="white" stroke="black" points="553.5,-112.5 553.5,-131.5 615.5,-131.5 615.5,-112.5 553.5,-112.5"/>
<text text-anchor="middle" x="584.5" y="-119.5" font-family="Helvetica,sans-Serif" font-size="10.00">src/shell.h</text>
</a>
</g>
</g>
<!-- Node4&#45;&gt;Node13 -->
<g id="edge12" class="edge"><title>Node4&#45;&gt;Node13</title>
<path fill="none" stroke="midnightblue" d="M542.395,-161.537C552.915,-151.909 566.069,-139.869 574.848,-131.834"/>
<polygon fill="midnightblue" stroke="midnightblue" points="539.993,-158.99 534.979,-168.324 544.719,-164.154 539.993,-158.99"/>
</g>
<!-- Node4&#45;&gt;Node16 -->
<g id="edge16" class="edge"><title>Node4&#45;&gt;Node16</title>
<path fill="none" stroke="midnightblue" d="M571.369,-166.088C614.255,-155.887 677.417,-140.861 716.699,-131.516"/>
<polygon fill="midnightblue" stroke="midnightblue" points="570.387,-162.724 561.469,-168.444 572.007,-169.534 570.387,-162.724"/>
</g>
<!-- Node17 -->
<g id="node17" class="node"><title>Node17</title>
<g id="a_node17"><a xlink:href="accumulator__spec_8h_source.html" target="_top" xlink:title="spec/accumulator_spec.h">
<polygon fill="white" stroke="black" points="581.5,-56.5 581.5,-75.5 709.5,-75.5 709.5,-56.5 581.5,-56.5"/>
<text text-anchor="middle" x="645.5" y="-63.5" font-family="Helvetica,sans-Serif" font-size="10.00">spec/accumulator_spec.h</text>
</a>
</g>
</g>
<!-- Node4&#45;&gt;Node17 -->
<g id="edge17" class="edge"><title>Node4&#45;&gt;Node17</title>
<path fill="none" stroke="midnightblue" d="M526.786,-158.233C528.667,-144.036 533.27,-124.855 544.5,-112 560.665,-93.495 585.915,-82.245 607.124,-75.6213"/>
<polygon fill="midnightblue" stroke="midnightblue" points="523.288,-158.037 525.786,-168.333 530.254,-158.727 523.288,-158.037"/>
</g>
<!-- Node4&#45;&gt;Node18 -->
<g id="edge19" class="edge"><title>Node4&#45;&gt;Node18</title>
<path fill="none" stroke="midnightblue" d="M489.33,-165.304C457.863,-155.129 413.006,-140.625 384.838,-131.516"/>
<polygon fill="midnightblue" stroke="midnightblue" points="488.447,-168.697 499.038,-168.444 490.6,-162.037 488.447,-168.697"/>
</g>
<!-- Node8 -->
<g id="node8" class="node"><title>Node8</title>
<g id="a_node8"><a xlink:href="group_8c.html" target="_top" xlink:title="implementation of some group communication receptors ">
<polygon fill="white" stroke="black" points="498,-56.5 498,-75.5 563,-75.5 563,-56.5 498,-56.5"/>
<text text-anchor="middle" x="530.5" y="-63.5" font-family="Helvetica,sans-Serif" font-size="10.00">src/group.c</text>
</a>
</g>
</g>
<!-- Node7&#45;&gt;Node8 -->
<g id="edge7" class="edge"><title>Node7&#45;&gt;Node8</title>
<path fill="none" stroke="midnightblue" d="M483.054,-105.82C494.878,-96.1452 509.786,-83.9481 519.703,-75.8339"/>
<polygon fill="midnightblue" stroke="midnightblue" points="480.627,-103.283 475.104,-112.324 485.06,-108.7 480.627,-103.283"/>
</g>
<!-- Node9 -->
<g id="node9" class="node"><title>Node9</title>
<g id="a_node9"><a xlink:href="group__spec_8h.html" target="_top" xlink:title="spec/group_spec.h">
<polygon fill="white" stroke="black" points="381,-56.5 381,-75.5 480,-75.5 480,-56.5 381,-56.5"/>
<text text-anchor="middle" x="430.5" y="-63.5" font-family="Helvetica,sans-Serif" font-size="10.00">spec/group_spec.h</text>
</a>
</g>
</g>
<!-- Node7&#45;&gt;Node9 -->
<g id="edge8" class="edge"><title>Node7&#45;&gt;Node9</title>
<path fill="none" stroke="midnightblue" d="M453.523,-103.566C447.673,-94.2747 440.73,-83.2484 436.01,-75.7511"/>
<polygon fill="midnightblue" stroke="midnightblue" points="450.596,-105.486 458.886,-112.083 456.519,-101.756 450.596,-105.486"/>
</g>
<!-- Node10 -->
<g id="node10" class="node"><title>Node10</title>
<g id="a_node10"><a xlink:href="ceptr__specs_8c.html" target="_top" xlink:title="implements a main() entry point for running all the tests ">
<polygon fill="white" stroke="black" points="952.5,-0.5 952.5,-19.5 1054.5,-19.5 1054.5,-0.5 952.5,-0.5"/>
<text text-anchor="middle" x="1003.5" y="-7.5" font-family="Helvetica,sans-Serif" font-size="10.00">spec/ceptr_specs.c</text>
</a>
</g>
</g>
<!-- Node9&#45;&gt;Node10 -->
<g id="edge9" class="edge"><title>Node9&#45;&gt;Node10</title>
<path fill="none" stroke="midnightblue" d="M490.318,-55.8479C665.43,-34.9301 861.239,-20.5181 952.215,-14.3416"/>
<polygon fill="midnightblue" stroke="midnightblue" points="489.653,-52.4026 480.144,-57.0735 490.491,-59.3523 489.653,-52.4026"/>
</g>
<!-- Node14 -->
<g id="node14" class="node"><title>Node14</title>
<g id="a_node14"><a xlink:href="shell_8c.html" target="_top" xlink:title="implementation of a command line shell receptor ">
<polygon fill="white" stroke="black" points="727.5,-56.5 727.5,-75.5 789.5,-75.5 789.5,-56.5 727.5,-56.5"/>
<text text-anchor="middle" x="758.5" y="-63.5" font-family="Helvetica,sans-Serif" font-size="10.00">src/shell.c</text>
</a>
</g>
</g>
<!-- Node13&#45;&gt;Node14 -->
<g id="edge13" class="edge"><title>Node13&#45;&gt;Node14</title>
<path fill="none" stroke="midnightblue" d="M621.761,-109.436C654.567,-99.2551 701.583,-84.664 731.058,-75.5164"/>
<polygon fill="midnightblue" stroke="midnightblue" points="620.584,-106.137 612.071,-112.444 622.659,-112.822 620.584,-106.137"/>
</g>
<!-- Node13&#45;&gt;Node15 -->
<g id="edge14" class="edge"><title>Node13&#45;&gt;Node15</title>
<path fill="none" stroke="midnightblue" d="M625.892,-111.759C696.599,-97.1601 767.836,-83.8473 813.394,-75.5107"/>
<polygon fill="midnightblue" stroke="midnightblue" points="625.002,-108.369 615.922,-113.828 626.424,-115.224 625.002,-108.369"/>
</g>
<!-- Node15&#45;&gt;Node10 -->
<g id="edge15" class="edge"><title>Node15&#45;&gt;Node10</title>
<path fill="none" stroke="midnightblue" d="M892.527,-52.9058C919.412,-42.7536 957.141,-28.5063 980.947,-19.5164"/>
<polygon fill="midnightblue" stroke="midnightblue" points="891.278,-49.6364 883.159,-56.4435 893.75,-56.1851 891.278,-49.6364"/>
</g>
<!-- Node17&#45;&gt;Node10 -->
<g id="edge18" class="edge"><title>Node17&#45;&gt;Node10</title>
<path fill="none" stroke="midnightblue" d="M712.197,-54.9396C781.708,-44.4547 889.125,-28.2521 952.259,-18.729"/>
<polygon fill="midnightblue" stroke="midnightblue" points="711.592,-51.4911 702.226,-56.4435 712.636,-58.4128 711.592,-51.4911"/>
</g>
<!-- Node18&#45;&gt;Node10 -->
<g id="edge20" class="edge"><title>Node18&#45;&gt;Node10</title>
<path fill="none" stroke="midnightblue" d="M356.667,-102.133C356.365,-87.284 358.701,-67.2761 371.5,-56 414.677,-17.9596 809.518,-12.0412 952.288,-11.1482"/>
<polygon fill="midnightblue" stroke="midnightblue" points="353.181,-102.483 357.282,-112.252 360.169,-102.058 353.181,-102.483"/>
</g>
<!-- Node20&#45;&gt;Node10 -->
<g id="edge29" class="edge"><title>Node20&#45;&gt;Node10</title>
<path fill="none" stroke="midnightblue" d="M940.965,-103.957C957.002,-80.1184 985.532,-37.7088 997.72,-19.5914"/>
<polygon fill="midnightblue" stroke="midnightblue" points="937.984,-102.118 935.307,-112.368 943.792,-106.025 937.984,-102.118"/>
</g>
<!-- Node21&#45;&gt;Node15 -->
<g id="edge35" class="edge"><title>Node21&#45;&gt;Node15</title>
<path fill="none" stroke="midnightblue" d="M846.383,-158.348C850.106,-134.254 856.434,-93.3079 859.172,-75.5914"/>
<polygon fill="midnightblue" stroke="midnightblue" points="842.902,-157.951 844.834,-168.368 849.82,-159.02 842.902,-157.951"/>
</g>
<!-- Node21&#45;&gt;Node18 -->
<g id="edge34" class="edge"><title>Node21&#45;&gt;Node18</title>
<path fill="none" stroke="midnightblue" d="M779.965,-170.872C697.475,-162.765 549.078,-147.661 422.5,-132 419.605,-131.642 416.637,-131.264 413.643,-130.873"/>
<polygon fill="midnightblue" stroke="midnightblue" points="779.642,-174.358 789.936,-171.85 780.325,-167.391 779.642,-174.358"/>
</g>
<!-- Node21&#45;&gt;Node20 -->
<g id="edge31" class="edge"><title>Node21&#45;&gt;Node20</title>
<path fill="none" stroke="midnightblue" d="M865.955,-162.901C881.724,-152.999 902.314,-140.071 915.717,-131.655"/>
<polygon fill="midnightblue" stroke="midnightblue" points="863.925,-160.042 857.317,-168.324 867.648,-165.97 863.925,-160.042"/>
</g>
<!-- Node21&#45;&gt;Node22 -->
<g id="edge32" class="edge"><title>Node21&#45;&gt;Node22</title>
<path fill="none" stroke="midnightblue" d="M884.874,-165.829C922.636,-155.633 977.64,-140.782 1011.96,-131.516"/>
<polygon fill="midnightblue" stroke="midnightblue" points="883.933,-162.458 875.191,-168.444 885.757,-169.216 883.933,-162.458"/>
</g>
<!-- Node22&#45;&gt;Node10 -->
<g id="edge33" class="edge"><title>Node22&#45;&gt;Node10</title>
<path fill="none" stroke="midnightblue" d="M1036.84,-102.674C1028.09,-78.6248 1013.1,-37.3881 1006.62,-19.5914"/>
<polygon fill="midnightblue" stroke="midnightblue" points="1033.65,-104.167 1040.36,-112.368 1040.23,-101.774 1033.65,-104.167"/>
</g>
<!-- Node23&#45;&gt;Node10 -->
<g id="edge38" class="edge"><title>Node23&#45;&gt;Node10</title>
<path fill="none" stroke="midnightblue" d="M1072.82,-163.049C1084.16,-155.508 1096.25,-145.046 1102.5,-132 1106.34,-123.984 1105.86,-120.229 1102.5,-112 1085.05,-69.2653 1039.84,-34.8272 1017.05,-19.5472"/>
<polygon fill="midnightblue" stroke="midnightblue" points="1070.69,-160.248 1064,-168.465 1074.35,-166.213 1070.69,-160.248"/>
</g>
<!-- Node24&#45;&gt;Node10 -->
<g id="edge41" class="edge"><title>Node24&#45;&gt;Node10</title>
<path fill="none" stroke="midnightblue" d="M1161.42,-159.19C1147.75,-133.751 1119.8,-86.701 1085.5,-56 1067.47,-39.8616 1042.65,-27.2651 1025.05,-19.5545"/>
<polygon fill="midnightblue" stroke="midnightblue" points="1158.49,-161.144 1166.23,-168.375 1164.69,-157.893 1158.49,-161.144"/>
</g>
<!-- Node25&#45;&gt;Node10 -->
<g id="edge43" class="edge"><title>Node25&#45;&gt;Node10</title>
<path fill="none" stroke="midnightblue" d="M1207.86,-217.783C1222.16,-205.102 1237.42,-186.232 1229.5,-168 1192.85,-83.6535 1083.53,-37.3832 1031.55,-19.6184"/>
<polygon fill="midnightblue" stroke="midnightblue" points="1205.23,-215.419 1199.74,-224.482 1209.68,-220.819 1205.23,-215.419"/>
</g>
<!-- Node27&#45;&gt;Node10 -->
<g id="edge46" class="edge"><title>Node27&#45;&gt;Node10</title>
<path fill="none" stroke="midnightblue" d="M1239.41,-273.045C1258.66,-253.06 1287.5,-216.822 1287.5,-179 1287.5,-179 1287.5,-179 1287.5,-121 1287.5,-71.1655 1133.52,-35.0804 1052.32,-19.5158"/>
<polygon fill="midnightblue" stroke="midnightblue" points="1236.7,-270.801 1232.09,-280.341 1241.64,-275.757 1236.7,-270.801"/>
</g>
</g>
</svg>
