<?xml version="1.0" encoding="UTF-8" standalone="no"?>
<!DOCTYPE svg PUBLIC "-//W3C//DTD SVG 1.1//EN"
 "http://www.w3.org/Graphics/SVG/1.1/DTD/svg11.dtd">
<!-- Generated by graphviz version 2.38.0 (20140413.2041)
 -->
<!-- Title: spec/label_spec.h Pages: 1 -->
<svg width="1007pt" height="420pt"
 viewBox="0.00 0.00 1007.00 420.00" xmlns="http://www.w3.org/2000/svg" xmlns:xlink="http://www.w3.org/1999/xlink">
<g id="graph0" class="graph" transform="scale(1 1) rotate(0) translate(4 416)">
<title>spec/label_spec.h</title>
<polygon fill="white" stroke="none" points="-4,4 -4,-416 1003,-416 1003,4 -4,4"/>
<!-- Node1 -->
<g id="node1" class="node"><title>Node1</title>
<polygon fill="#bfbfbf" stroke="black" points="436.5,-392.5 436.5,-411.5 531.5,-411.5 531.5,-392.5 436.5,-392.5"/>
<text text-anchor="middle" x="484" y="-399.5" font-family="Helvetica,sans-Serif" font-size="10.00">spec/label_spec.h</text>
</g>
<!-- Node2 -->
<g id="node2" class="node"><title>Node2</title>
<g id="a_node2"><a xlink:href="label_8h.html" target="_top" xlink:title="Label tables map human readable text strings to parts of semantic trees. ">
<polygon fill="white" stroke="black" points="305.5,-336.5 305.5,-355.5 376.5,-355.5 376.5,-336.5 305.5,-336.5"/>
<text text-anchor="middle" x="341" y="-343.5" font-family="Helvetica,sans-Serif" font-size="10.00">../src/label.h</text>
</a>
</g>
</g>
<!-- Node1&#45;&gt;Node2 -->
<g id="edge1" class="edge"><title>Node1&#45;&gt;Node2</title>
<path fill="none" stroke="midnightblue" d="M461.341,-392.444C437.598,-383.478 400.091,-369.314 373.262,-359.183"/>
<polygon fill="midnightblue" stroke="midnightblue" points="374.144,-355.775 363.553,-355.516 371.671,-362.324 374.144,-355.775"/>
</g>
<!-- Node11 -->
<g id="node11" class="node"><title>Node11</title>
<g id="a_node11"><a xlink:href="ceptr_8h_source.html" target="_top" xlink:title="../src/ceptr.h">
<polygon fill="white" stroke="black" points="592,-336.5 592,-355.5 664,-355.5 664,-336.5 592,-336.5"/>
<text text-anchor="middle" x="628" y="-343.5" font-family="Helvetica,sans-Serif" font-size="10.00">../src/ceptr.h</text>
</a>
</g>
</g>
<!-- Node1&#45;&gt;Node11 -->
<g id="edge10" class="edge"><title>Node1&#45;&gt;Node11</title>
<path fill="none" stroke="midnightblue" d="M506.817,-392.444C530.832,-383.438 568.829,-369.189 595.869,-359.049"/>
<polygon fill="midnightblue" stroke="midnightblue" points="597.155,-362.305 605.29,-355.516 594.697,-355.751 597.155,-362.305"/>
</g>
<!-- Node3 -->
<g id="node3" class="node"><title>Node3</title>
<g id="a_node3"><a xlink:href="ceptr__types_8h_source.html" target="_top" xlink:title="ceptr_types.h">
<polygon fill="white" stroke="black" points="160,-112.5 160,-131.5 236,-131.5 236,-112.5 160,-112.5"/>
<text text-anchor="middle" x="198" y="-119.5" font-family="Helvetica,sans-Serif" font-size="10.00">ceptr_types.h</text>
</a>
</g>
</g>
<!-- Node2&#45;&gt;Node3 -->
<g id="edge2" class="edge"><title>Node2&#45;&gt;Node3</title>
<path fill="none" stroke="midnightblue" d="M305.486,-345.532C270.048,-343.917 217.211,-335.228 191,-300 155.564,-252.373 177.548,-175.935 190.506,-141.214"/>
<polygon fill="midnightblue" stroke="midnightblue" points="193.783,-142.444 194.164,-131.856 187.264,-139.895 193.783,-142.444"/>
</g>
<!-- Node4 -->
<g id="node4" class="node"><title>Node4</title>
<polygon fill="white" stroke="#bfbfbf" points="176.5,-56.5 176.5,-75.5 225.5,-75.5 225.5,-56.5 176.5,-56.5"/>
<text text-anchor="middle" x="201" y="-63.5" font-family="Helvetica,sans-Serif" font-size="10.00">stdint.h</text>
</g>
<!-- Node3&#45;&gt;Node4 -->
<g id="edge3" class="edge"><title>Node3&#45;&gt;Node4</title>
<path fill="none" stroke="midnightblue" d="M198.495,-112.083C198.889,-105.006 199.452,-94.8611 199.945,-85.9865"/>
<polygon fill="midnightblue" stroke="midnightblue" points="203.454,-85.9299 200.514,-75.7511 196.464,-85.5415 203.454,-85.9299"/>
</g>
<!-- Node5 -->
<g id="node5" class="node"><title>Node5</title>
<polygon fill="white" stroke="#bfbfbf" points="719,-56.5 719,-75.5 765,-75.5 765,-56.5 719,-56.5"/>
<text text-anchor="middle" x="742" y="-63.5" font-family="Helvetica,sans-Serif" font-size="10.00">stdio.h</text>
</g>
<!-- Node3&#45;&gt;Node5 -->
<g id="edge4" class="edge"><title>Node3&#45;&gt;Node5</title>
<path fill="none" stroke="midnightblue" d="M236.253,-117.203C337.889,-107.114 613.403,-79.7651 708.887,-70.2869"/>
<polygon fill="midnightblue" stroke="midnightblue" points="709.243,-73.769 718.848,-69.2982 708.551,-66.8032 709.243,-73.769"/>
</g>
<!-- Node6 -->
<g id="node6" class="node"><title>Node6</title>
<g id="a_node6"><a xlink:href="uthash_8h_source.html" target="_top" xlink:title="uthash.h">
<polygon fill="white" stroke="black" points="66,-56.5 66,-75.5 120,-75.5 120,-56.5 66,-56.5"/>
<text text-anchor="middle" x="93" y="-63.5" font-family="Helvetica,sans-Serif" font-size="10.00">uthash.h</text>
</a>
</g>
</g>
<!-- Node3&#45;&gt;Node6 -->
<g id="edge5" class="edge"><title>Node3&#45;&gt;Node6</title>
<path fill="none" stroke="midnightblue" d="M181.13,-112.324C164.291,-103.664 138.193,-90.2424 118.762,-80.249"/>
<polygon fill="midnightblue" stroke="midnightblue" points="120.322,-77.1155 109.828,-75.6545 117.12,-83.3405 120.322,-77.1155"/>
</g>
<!-- Node7 -->
<g id="node7" class="node"><title>Node7</title>
<polygon fill="white" stroke="#bfbfbf" points="440.5,-0.5 440.5,-19.5 489.5,-19.5 489.5,-0.5 440.5,-0.5"/>
<text text-anchor="middle" x="465" y="-7.5" font-family="Helvetica,sans-Serif" font-size="10.00">string.h</text>
</g>
<!-- Node6&#45;&gt;Node7 -->
<g id="edge6" class="edge"><title>Node6&#45;&gt;Node7</title>
<path fill="none" stroke="midnightblue" d="M120.286,-58.6879C124.852,-57.7243 129.551,-56.7894 134,-56 241.466,-36.9321 369.814,-21.5795 430.26,-14.7849"/>
<polygon fill="midnightblue" stroke="midnightblue" points="430.844,-18.2416 440.395,-13.6546 430.068,-11.2847 430.844,-18.2416"/>
</g>
<!-- Node8 -->
<g id="node8" class="node"><title>Node8</title>
<polygon fill="white" stroke="#bfbfbf" points="149,-0.5 149,-19.5 201,-19.5 201,-0.5 149,-0.5"/>
<text text-anchor="middle" x="175" y="-7.5" font-family="Helvetica,sans-Serif" font-size="10.00">stddef.h</text>
</g>
<!-- Node6&#45;&gt;Node8 -->
<g id="edge7" class="edge"><title>Node6&#45;&gt;Node8</title>
<path fill="none" stroke="midnightblue" d="M106.175,-56.324C118.847,-47.979 138.233,-35.2122 153.206,-25.3524"/>
<polygon fill="midnightblue" stroke="midnightblue" points="155.431,-28.0776 161.858,-19.6545 151.581,-22.2313 155.431,-28.0776"/>
</g>
<!-- Node9 -->
<g id="node9" class="node"><title>Node9</title>
<polygon fill="white" stroke="#bfbfbf" points="5,-0.5 5,-19.5 53,-19.5 53,-0.5 5,-0.5"/>
<text text-anchor="middle" x="29" y="-7.5" font-family="Helvetica,sans-Serif" font-size="10.00">stdlib.h</text>
</g>
<!-- Node6&#45;&gt;Node9 -->
<g id="edge8" class="edge"><title>Node6&#45;&gt;Node9</title>
<path fill="none" stroke="midnightblue" d="M82.7173,-56.324C73.1637,-48.2631 58.7203,-36.0765 47.2157,-26.3695"/>
<polygon fill="midnightblue" stroke="midnightblue" points="49.3698,-23.6076 39.4698,-19.8339 44.8557,-28.9577 49.3698,-23.6076"/>
</g>
<!-- Node10 -->
<g id="node10" class="node"><title>Node10</title>
<polygon fill="white" stroke="#bfbfbf" points="71.5,-0.5 71.5,-19.5 130.5,-19.5 130.5,-0.5 71.5,-0.5"/>
<text text-anchor="middle" x="101" y="-7.5" font-family="Helvetica,sans-Serif" font-size="10.00">inttypes.h</text>
</g>
<!-- Node6&#45;&gt;Node10 -->
<g id="edge9" class="edge"><title>Node6&#45;&gt;Node10</title>
<path fill="none" stroke="midnightblue" d="M94.321,-56.083C95.3811,-48.9272 96.9059,-38.6353 98.2309,-29.6911"/>
<polygon fill="midnightblue" stroke="midnightblue" points="101.7,-30.1561 99.7035,-19.7511 94.7758,-29.1302 101.7,-30.1561"/>
</g>
<!-- Node11&#45;&gt;Node5 -->
<g id="edge12" class="edge"><title>Node11&#45;&gt;Node5</title>
<path fill="none" stroke="midnightblue" d="M652.788,-336.409C689.748,-321.835 755,-288.526 755,-235 755,-235 755,-235 755,-177 755,-144.576 749.361,-107.146 745.51,-85.3688"/>
<polygon fill="midnightblue" stroke="midnightblue" points="748.95,-84.7196 743.7,-75.5172 742.065,-85.9853 748.95,-84.7196"/>
</g>
<!-- Node11&#45;&gt;Node7 -->
<g id="edge11" class="edge"><title>Node11&#45;&gt;Node7</title>
<path fill="none" stroke="midnightblue" d="M664.249,-342.033C757.602,-333.398 999,-304.365 999,-235 999,-235 999,-235 999,-121 999,-18.7697 618.815,-10.743 500.026,-10.7301"/>
<polygon fill="midnightblue" stroke="midnightblue" points="499.678,-7.23062 489.685,-10.7497 499.692,-14.2306 499.678,-7.23062"/>
</g>
<!-- Node11&#45;&gt;Node9 -->
<g id="edge13" class="edge"><title>Node11&#45;&gt;Node9</title>
<path fill="none" stroke="midnightblue" d="M591.88,-344.027C516.527,-341.397 337.408,-332.021 191,-300 103.401,-280.841 0,-324.67 0,-235 0,-235 0,-235 0,-121 0,-87.7163 12.5678,-50.5837 21.1564,-29.0939"/>
<polygon fill="midnightblue" stroke="midnightblue" points="24.4816,-30.2128 25.0889,-19.6354 18.018,-27.5254 24.4816,-30.2128"/>
</g>
<!-- Node12 -->
<g id="node12" class="node"><title>Node12</title>
<g id="a_node12"><a xlink:href="ceptr__error_8h_source.html" target="_top" xlink:title="ceptr_error.h">
<polygon fill="white" stroke="black" points="543.5,-224.5 543.5,-243.5 614.5,-243.5 614.5,-224.5 543.5,-224.5"/>
<text text-anchor="middle" x="579" y="-231.5" font-family="Helvetica,sans-Serif" font-size="10.00">ceptr_error.h</text>
</a>
</g>
</g>
<!-- Node11&#45;&gt;Node12 -->
<g id="edge14" class="edge"><title>Node11&#45;&gt;Node12</title>
<path fill="none" stroke="midnightblue" d="M624.155,-336.368C616.176,-318.456 597.675,-276.923 586.995,-252.948"/>
<polygon fill="midnightblue" stroke="midnightblue" points="590.093,-251.302 582.827,-243.591 583.699,-254.15 590.093,-251.302"/>
</g>
<!-- Node16 -->
<g id="node16" class="node"><title>Node16</title>
<g id="a_node16"><a xlink:href="tree_8h.html" target="_top" xlink:title="semantic trees header file ">
<polygon fill="white" stroke="black" points="494.5,-280.5 494.5,-299.5 535.5,-299.5 535.5,-280.5 494.5,-280.5"/>
<text text-anchor="middle" x="515" y="-287.5" font-family="Helvetica,sans-Serif" font-size="10.00">tree.h</text>
</a>
</g>
</g>
<!-- Node11&#45;&gt;Node16 -->
<g id="edge19" class="edge"><title>Node11&#45;&gt;Node16</title>
<path fill="none" stroke="midnightblue" d="M610.095,-336.444C591.746,-327.675 562.995,-313.935 541.906,-303.858"/>
<polygon fill="midnightblue" stroke="midnightblue" points="543.353,-300.67 532.821,-299.516 540.335,-306.986 543.353,-300.67"/>
</g>
<!-- Node20 -->
<g id="node20" class="node"><title>Node20</title>
<g id="a_node20"><a xlink:href="stream_8h.html" target="_top" xlink:title="streams abstraction header file ">
<polygon fill="white" stroke="black" points="671.5,-224.5 671.5,-243.5 726.5,-243.5 726.5,-224.5 671.5,-224.5"/>
<text text-anchor="middle" x="699" y="-231.5" font-family="Helvetica,sans-Serif" font-size="10.00">stream.h</text>
</a>
</g>
</g>
<!-- Node11&#45;&gt;Node20 -->
<g id="edge40" class="edge"><title>Node11&#45;&gt;Node20</title>
<path fill="none" stroke="midnightblue" d="M633.571,-336.368C645.236,-318.296 672.423,-276.176 687.829,-252.307"/>
<polygon fill="midnightblue" stroke="midnightblue" points="690.972,-253.891 693.455,-243.591 685.091,-250.095 690.972,-253.891"/>
</g>
<!-- Node21 -->
<g id="node21" class="node"><title>Node21</title>
<g id="a_node21"><a xlink:href="mtree_8h.html" target="_top" xlink:title="semantic tree matrix header file `` ">
<polygon fill="white" stroke="black" points="200,-280.5 200,-299.5 250,-299.5 250,-280.5 200,-280.5"/>
<text text-anchor="middle" x="225" y="-287.5" font-family="Helvetica,sans-Serif" font-size="10.00">mtree.h</text>
</a>
</g>
</g>
<!-- Node11&#45;&gt;Node21 -->
<g id="edge32" class="edge"><title>Node11&#45;&gt;Node21</title>
<path fill="none" stroke="midnightblue" d="M591.882,-340.16C515.122,-329.875 336.566,-305.949 260.424,-295.747"/>
<polygon fill="midnightblue" stroke="midnightblue" points="260.758,-292.26 250.381,-294.401 259.828,-299.198 260.758,-292.26"/>
</g>
<!-- Node22 -->
<g id="node22" class="node"><title>Node22</title>
<g id="a_node22"><a xlink:href="util_8h.html" target="_top" xlink:title="util.h">
<polygon fill="white" stroke="black" points="859,-280.5 859,-299.5 897,-299.5 897,-280.5 859,-280.5"/>
<text text-anchor="middle" x="878" y="-287.5" font-family="Helvetica,sans-Serif" font-size="10.00">util.h</text>
</a>
</g>
</g>
<!-- Node11&#45;&gt;Node22 -->
<g id="edge41" class="edge"><title>Node11&#45;&gt;Node22</title>
<path fill="none" stroke="midnightblue" d="M664.085,-337.206C714.014,-326.421 803.182,-307.161 849.026,-297.258"/>
<polygon fill="midnightblue" stroke="midnightblue" points="849.876,-300.656 858.912,-295.123 848.398,-293.813 849.876,-300.656"/>
</g>
<!-- Node25 -->
<g id="node25" class="node"><title>Node25</title>
<g id="a_node25"><a xlink:href="debug_8h.html" target="_top" xlink:title="debug.h">
<polygon fill="white" stroke="black" points="783.5,-112.5 783.5,-131.5 834.5,-131.5 834.5,-112.5 783.5,-112.5"/>
<text text-anchor="middle" x="809" y="-119.5" font-family="Helvetica,sans-Serif" font-size="10.00">debug.h</text>
</a>
</g>
</g>
<!-- Node11&#45;&gt;Node25 -->
<g id="edge45" class="edge"><title>Node11&#45;&gt;Node25</title>
<path fill="none" stroke="midnightblue" d="M664.267,-343.187C696.369,-339.594 742.171,-329.262 769,-300 809.935,-255.354 811.945,-177.932 810.408,-142.148"/>
<polygon fill="midnightblue" stroke="midnightblue" points="813.876,-141.497 809.802,-131.717 806.888,-141.903 813.876,-141.497"/>
</g>
<!-- Node12&#45;&gt;Node5 -->
<g id="edge15" class="edge"><title>Node12&#45;&gt;Node5</title>
<path fill="none" stroke="midnightblue" d="M587.764,-224.075C614.088,-197.267 692.717,-117.19 726.402,-82.8851"/>
<polygon fill="midnightblue" stroke="midnightblue" points="729.078,-85.1556 733.587,-75.5681 724.083,-80.2512 729.078,-85.1556"/>
</g>
<!-- Node13 -->
<g id="node13" class="node"><title>Node13</title>
<polygon fill="white" stroke="#bfbfbf" points="493,-168.5 493,-187.5 543,-187.5 543,-168.5 493,-168.5"/>
<text text-anchor="middle" x="518" y="-175.5" font-family="Helvetica,sans-Serif" font-size="10.00">signal.h</text>
</g>
<!-- Node12&#45;&gt;Node13 -->
<g id="edge16" class="edge"><title>Node12&#45;&gt;Node13</title>
<path fill="none" stroke="midnightblue" d="M569.199,-224.324C560.182,-216.341 546.594,-204.313 535.682,-194.653"/>
<polygon fill="midnightblue" stroke="midnightblue" points="537.787,-191.842 527.979,-187.834 533.147,-197.083 537.787,-191.842"/>
</g>
<!-- Node14 -->
<g id="node14" class="node"><title>Node14</title>
<polygon fill="white" stroke="#bfbfbf" points="561,-168.5 561,-187.5 613,-187.5 613,-168.5 561,-168.5"/>
<text text-anchor="middle" x="587" y="-175.5" font-family="Helvetica,sans-Serif" font-size="10.00">assert.h</text>
</g>
<!-- Node12&#45;&gt;Node14 -->
<g id="edge17" class="edge"><title>Node12&#45;&gt;Node14</title>
<path fill="none" stroke="midnightblue" d="M580.321,-224.083C581.381,-216.927 582.906,-206.635 584.231,-197.691"/>
<polygon fill="midnightblue" stroke="midnightblue" points="587.7,-198.156 585.704,-187.751 580.776,-197.13 587.7,-198.156"/>
</g>
<!-- Node15 -->
<g id="node15" class="node"><title>Node15</title>
<polygon fill="white" stroke="#bfbfbf" points="421,-168.5 421,-187.5 475,-187.5 475,-168.5 421,-168.5"/>
<text text-anchor="middle" x="448" y="-175.5" font-family="Helvetica,sans-Serif" font-size="10.00">setjmp.h</text>
</g>
<!-- Node12&#45;&gt;Node15 -->
<g id="edge18" class="edge"><title>Node12&#45;&gt;Node15</title>
<path fill="none" stroke="midnightblue" d="M558.243,-224.444C536.684,-215.557 502.737,-201.563 478.206,-191.451"/>
<polygon fill="midnightblue" stroke="midnightblue" points="479.239,-188.092 468.66,-187.516 476.572,-194.563 479.239,-188.092"/>
</g>
<!-- Node16&#45;&gt;Node3 -->
<g id="edge29" class="edge"><title>Node16&#45;&gt;Node3</title>
<path fill="none" stroke="midnightblue" d="M508.239,-280.371C497.261,-266.833 474.323,-240.451 450,-224 413.094,-199.038 293.254,-155.859 233.107,-134.985"/>
<polygon fill="midnightblue" stroke="midnightblue" points="233.89,-131.552 223.296,-131.594 231.604,-138.168 233.89,-131.552"/>
</g>
<!-- Node16&#45;&gt;Node7 -->
<g id="edge20" class="edge"><title>Node16&#45;&gt;Node7</title>
<path fill="none" stroke="midnightblue" d="M535.55,-287.097C561.039,-283.51 603.507,-273.239 623,-244 628.961,-235.058 637.202,-203.794 622,-168 594.078,-102.257 524.323,-49.4319 487.922,-25.2677"/>
<polygon fill="midnightblue" stroke="midnightblue" points="489.725,-22.2649 479.432,-19.7513 485.911,-28.1347 489.725,-22.2649"/>
</g>
<!-- Node16&#45;&gt;Node9 -->
<g id="edge21" class="edge"><title>Node16&#45;&gt;Node9</title>
<path fill="none" stroke="midnightblue" d="M511.6,-280.473C505.913,-267.074 493.361,-240.881 476,-224 452.602,-201.249 439.383,-205.755 412,-188 329.36,-134.418 323.842,-96.3587 234,-56 165.679,-25.309 140.045,-37.189 63.2494,-20.1098"/>
<polygon fill="midnightblue" stroke="midnightblue" points="63.6402,-16.6075 53.1076,-17.7539 62.0562,-23.426 63.6402,-16.6075"/>
</g>
<!-- Node16&#45;&gt;Node12 -->
<g id="edge22" class="edge"><title>Node16&#45;&gt;Node12</title>
<path fill="none" stroke="midnightblue" d="M525.283,-280.324C534.836,-272.263 549.28,-260.077 560.784,-250.369"/>
<polygon fill="midnightblue" stroke="midnightblue" points="563.144,-252.958 568.53,-243.834 558.63,-247.608 563.144,-252.958"/>
</g>
<!-- Node17 -->
<g id="node17" class="node"><title>Node17</title>
<g id="a_node17"><a xlink:href="sys__symbols_8h.html" target="_top" xlink:title="Defines hard&#45;coded system defined symbols. ">
<polygon fill="white" stroke="black" points="218.5,-224.5 218.5,-243.5 301.5,-243.5 301.5,-224.5 218.5,-224.5"/>
<text text-anchor="middle" x="260" y="-231.5" font-family="Helvetica,sans-Serif" font-size="10.00">sys_symbols.h</text>
</a>
</g>
</g>
<!-- Node16&#45;&gt;Node17 -->
<g id="edge23" class="edge"><title>Node16&#45;&gt;Node17</title>
<path fill="none" stroke="midnightblue" d="M494.132,-284.581C454.268,-276.139 366.274,-257.505 310.24,-245.639"/>
<polygon fill="midnightblue" stroke="midnightblue" points="310.676,-242.154 300.168,-243.506 309.226,-249.002 310.676,-242.154"/>
</g>
<!-- Node18 -->
<g id="node18" class="node"><title>Node18</title>
<g id="a_node18"><a xlink:href="sys__structures_8h.html" target="_top" xlink:title="Defines hard&#45;coded system defined structures. ">
<polygon fill="white" stroke="black" points="221.5,-168.5 221.5,-187.5 310.5,-187.5 310.5,-168.5 221.5,-168.5"/>
<text text-anchor="middle" x="266" y="-175.5" font-family="Helvetica,sans-Serif" font-size="10.00">sys_structures.h</text>
</a>
</g>
</g>
<!-- Node16&#45;&gt;Node18 -->
<g id="edge27" class="edge"><title>Node16&#45;&gt;Node18</title>
<path fill="none" stroke="midnightblue" d="M504.715,-280.439C487.816,-266.754 452.68,-239.881 419,-224 386.6,-208.723 347.872,-197.394 317.487,-189.924"/>
<polygon fill="midnightblue" stroke="midnightblue" points="318.064,-186.463 307.523,-187.539 316.434,-193.271 318.064,-186.463"/>
</g>
<!-- Node19 -->
<g id="node19" class="node"><title>Node19</title>
<g id="a_node19"><a xlink:href="sys__processes_8h.html" target="_top" xlink:title="Defines hard&#45;coded system defined processes. ">
<polygon fill="white" stroke="black" points="319.5,-224.5 319.5,-243.5 410.5,-243.5 410.5,-224.5 319.5,-224.5"/>
<text text-anchor="middle" x="365" y="-231.5" font-family="Helvetica,sans-Serif" font-size="10.00">sys_processes.h</text>
</a>
</g>
</g>
<!-- Node16&#45;&gt;Node19 -->
<g id="edge28" class="edge"><title>Node16&#45;&gt;Node19</title>
<path fill="none" stroke="midnightblue" d="M494.458,-281.605C469.659,-272.677 427.628,-257.546 398.204,-246.954"/>
<polygon fill="midnightblue" stroke="midnightblue" points="399.347,-243.645 388.752,-243.551 396.976,-250.231 399.347,-243.645"/>
</g>
<!-- Node16&#45;&gt;Node20 -->
<g id="edge30" class="edge"><title>Node16&#45;&gt;Node20</title>
<path fill="none" stroke="midnightblue" d="M535.749,-282.91C566.291,-273.947 623.826,-257.062 661.787,-245.921"/>
<polygon fill="midnightblue" stroke="midnightblue" points="662.851,-249.257 671.461,-243.082 660.88,-242.54 662.851,-249.257"/>
</g>
<!-- Node17&#45;&gt;Node3 -->
<g id="edge26" class="edge"><title>Node17&#45;&gt;Node3</title>
<path fill="none" stroke="midnightblue" d="M246.904,-224.236C235.869,-216.142 220.55,-203.111 212,-188 203.917,-173.715 200.494,-155.246 199.048,-141.648"/>
<polygon fill="midnightblue" stroke="midnightblue" points="202.528,-141.258 198.24,-131.57 195.551,-141.818 202.528,-141.258"/>
</g>
<!-- Node17&#45;&gt;Node18 -->
<g id="edge24" class="edge"><title>Node17&#45;&gt;Node18</title>
<path fill="none" stroke="midnightblue" d="M260.991,-224.083C261.786,-216.927 262.929,-206.635 263.923,-197.691"/>
<polygon fill="midnightblue" stroke="midnightblue" points="267.402,-198.076 265.028,-187.751 260.445,-197.303 267.402,-198.076"/>
</g>
<!-- Node18&#45;&gt;Node3 -->
<g id="edge25" class="edge"><title>Node18&#45;&gt;Node3</title>
<path fill="none" stroke="midnightblue" d="M255.075,-168.324C244.825,-160.185 229.279,-147.839 216.999,-138.087"/>
<polygon fill="midnightblue" stroke="midnightblue" points="219.132,-135.312 209.124,-131.834 214.779,-140.794 219.132,-135.312"/>
</g>
<!-- Node20&#45;&gt;Node5 -->
<g id="edge31" class="edge"><title>Node20&#45;&gt;Node5</title>
<path fill="none" stroke="midnightblue" d="M701.312,-224.075C708.08,-197.945 727.957,-121.211 737.188,-85.577"/>
<polygon fill="midnightblue" stroke="midnightblue" points="740.661,-86.1263 739.781,-75.5681 733.885,-84.3709 740.661,-86.1263"/>
</g>
<!-- Node21&#45;&gt;Node3 -->
<g id="edge39" class="edge"><title>Node21&#45;&gt;Node3</title>
<path fill="none" stroke="midnightblue" d="M219.204,-280.496C213.617,-271.772 205.511,-257.592 202,-244 192.92,-208.848 194.272,-166.044 196.113,-141.919"/>
<polygon fill="midnightblue" stroke="midnightblue" points="199.622,-141.959 197.012,-131.691 192.649,-141.346 199.622,-141.959"/>
</g>
<!-- Node21&#45;&gt;Node7 -->
<g id="edge33" class="edge"><title>Node21&#45;&gt;Node7</title>
<path fill="none" stroke="midnightblue" d="M217.796,-280.065C190.463,-245.107 98.1245,-116.553 167,-56 205.592,-22.0716 360.39,-13.716 430.357,-11.6645"/>
<polygon fill="midnightblue" stroke="midnightblue" points="430.532,-15.1612 440.435,-11.3958 430.345,-8.16372 430.532,-15.1612"/>
</g>
<!-- Node21&#45;&gt;Node9 -->
<g id="edge34" class="edge"><title>Node21&#45;&gt;Node9</title>
<path fill="none" stroke="midnightblue" d="M199.837,-288.874C164.608,-287.348 100.583,-279.459 62,-244 39.3259,-223.162 38,-209.795 38,-179 38,-179 38,-179 38,-121 38,-88.8409 34.1316,-51.5688 31.4671,-29.7107"/>
<polygon fill="midnightblue" stroke="midnightblue" points="34.9074,-29.0183 30.1766,-19.5383 27.9631,-29.8993 34.9074,-29.0183"/>
</g>
<!-- Node21&#45;&gt;Node12 -->
<g id="edge35" class="edge"><title>Node21&#45;&gt;Node12</title>
<path fill="none" stroke="midnightblue" d="M250.175,-285.16C309.313,-276.139 457.786,-253.49 533.325,-241.967"/>
<polygon fill="midnightblue" stroke="midnightblue" points="534.124,-245.386 543.482,-240.418 533.069,-238.466 534.124,-245.386"/>
</g>
<!-- Node21&#45;&gt;Node17 -->
<g id="edge36" class="edge"><title>Node21&#45;&gt;Node17</title>
<path fill="none" stroke="midnightblue" d="M230.78,-280.083C235.672,-272.534 242.827,-261.495 248.833,-252.23"/>
<polygon fill="midnightblue" stroke="midnightblue" points="251.826,-254.046 254.328,-243.751 245.952,-250.239 251.826,-254.046"/>
</g>
<!-- Node21&#45;&gt;Node18 -->
<g id="edge37" class="edge"><title>Node21&#45;&gt;Node18</title>
<path fill="none" stroke="midnightblue" d="M219.195,-280.193C211.494,-267.312 199.877,-242.825 209,-224 215.397,-210.8 227.752,-200.303 239.329,-192.779"/>
<polygon fill="midnightblue" stroke="midnightblue" points="241.155,-195.765 247.918,-187.61 237.546,-189.768 241.155,-195.765"/>
</g>
<!-- Node21&#45;&gt;Node19 -->
<g id="edge38" class="edge"><title>Node21&#45;&gt;Node19</title>
<path fill="none" stroke="midnightblue" d="M247.183,-280.444C270.428,-271.478 307.149,-257.314 333.415,-247.183"/>
<polygon fill="midnightblue" stroke="midnightblue" points="334.85,-250.381 342.92,-243.516 332.331,-243.85 334.85,-250.381"/>
</g>
<!-- Node22&#45;&gt;Node5 -->
<g id="edge43" class="edge"><title>Node22&#45;&gt;Node5</title>
<path fill="none" stroke="midnightblue" d="M897.002,-281.544C912.251,-274.423 932.61,-262.081 942,-244 946.097,-236.111 945.147,-232.313 942,-224 918.476,-161.867 896.564,-151.304 843,-112 822.251,-96.7752 795.536,-85.1554 774.793,-77.5401"/>
<polygon fill="midnightblue" stroke="midnightblue" points="775.737,-74.1615 765.142,-74.1251 773.401,-80.7606 775.737,-74.1615"/>
</g>
<!-- Node23 -->
<g id="node23" class="node"><title>Node23</title>
<polygon fill="white" stroke="#bfbfbf" points="821.5,-224.5 821.5,-243.5 870.5,-243.5 870.5,-224.5 821.5,-224.5"/>
<text text-anchor="middle" x="846" y="-231.5" font-family="Helvetica,sans-Serif" font-size="10.00">ctype.h</text>
</g>
<!-- Node22&#45;&gt;Node23 -->
<g id="edge42" class="edge"><title>Node22&#45;&gt;Node23</title>
<path fill="none" stroke="midnightblue" d="M872.716,-280.083C868.289,-272.613 861.837,-261.724 856.382,-252.52"/>
<polygon fill="midnightblue" stroke="midnightblue" points="859.295,-250.57 851.186,-243.751 853.273,-254.138 859.295,-250.57"/>
</g>
<!-- Node24 -->
<g id="node24" class="node"><title>Node24</title>
<polygon fill="white" stroke="#bfbfbf" points="889,-224.5 889,-243.5 933,-243.5 933,-224.5 889,-224.5"/>
<text text-anchor="middle" x="911" y="-231.5" font-family="Helvetica,sans-Serif" font-size="10.00">time.h</text>
</g>
<!-- Node22&#45;&gt;Node24 -->
<g id="edge44" class="edge"><title>Node22&#45;&gt;Node24</title>
<path fill="none" stroke="midnightblue" d="M883.449,-280.083C888.014,-272.613 894.668,-261.724 900.293,-252.52"/>
<polygon fill="midnightblue" stroke="midnightblue" points="903.424,-254.109 905.652,-243.751 897.451,-250.459 903.424,-254.109"/>
</g>
<!-- Node25&#45;&gt;Node5 -->
<g id="edge46" class="edge"><title>Node25&#45;&gt;Node5</title>
<path fill="none" stroke="midnightblue" d="M798.235,-112.324C788.234,-104.263 773.113,-92.0765 761.07,-82.3695"/>
<polygon fill="midnightblue" stroke="midnightblue" points="762.943,-79.3841 752.961,-75.8339 758.55,-84.8343 762.943,-79.3841"/>
</g>
</g>
</svg>
