<?xml version="1.0" encoding="UTF-8" standalone="no"?>
<!DOCTYPE svg PUBLIC "-//W3C//DTD SVG 1.1//EN"
 "http://www.w3.org/Graphics/SVG/1.1/DTD/svg11.dtd">
<!-- Generated by graphviz version 2.38.0 (20140413.2041)
 -->
<!-- Title: spec/label_spec.h Pages: 1 -->
<svg width="840pt" height="420pt"
 viewBox="0.00 0.00 840.00 420.00" xmlns="http://www.w3.org/2000/svg" xmlns:xlink="http://www.w3.org/1999/xlink">
<g id="graph0" class="graph" transform="scale(1 1) rotate(0) translate(4 416)">
<title>spec/label_spec.h</title>
<polygon fill="white" stroke="none" points="-4,4 -4,-416 836,-416 836,4 -4,4"/>
<!-- Node1 -->
<g id="node1" class="node"><title>Node1</title>
<polygon fill="#bfbfbf" stroke="black" points="381,-392.5 381,-411.5 476,-411.5 476,-392.5 381,-392.5"/>
<text text-anchor="middle" x="428.5" y="-399.5" font-family="Helvetica,sans-Serif" font-size="10.00">spec/label_spec.h</text>
</g>
<!-- Node2 -->
<g id="node2" class="node"><title>Node2</title>
<g id="a_node2"><a xlink:href="label_8h.html" target="_top" xlink:title="Label tables map human readable text strings to parts of semantic trees. ">
<polygon fill="white" stroke="black" points="239,-336.5 239,-355.5 310,-355.5 310,-336.5 239,-336.5"/>
<text text-anchor="middle" x="274.5" y="-343.5" font-family="Helvetica,sans-Serif" font-size="10.00">../src/label.h</text>
</a>
</g>
</g>
<!-- Node1&#45;&gt;Node2 -->
<g id="edge1" class="edge"><title>Node1&#45;&gt;Node2</title>
<path fill="none" stroke="midnightblue" d="M404.098,-392.444C378.303,-383.399 337.423,-369.064 308.482,-358.916"/>
<polygon fill="midnightblue" stroke="midnightblue" points="309.382,-355.523 298.788,-355.516 307.066,-362.128 309.382,-355.523"/>
</g>
<!-- Node10 -->
<g id="node10" class="node"><title>Node10</title>
<g id="a_node10"><a xlink:href="ceptr_8h_source.html" target="_top" xlink:title="../src/ceptr.h">
<polygon fill="white" stroke="black" points="547.5,-336.5 547.5,-355.5 619.5,-355.5 619.5,-336.5 547.5,-336.5"/>
<text text-anchor="middle" x="583.5" y="-343.5" font-family="Helvetica,sans-Serif" font-size="10.00">../src/ceptr.h</text>
</a>
</g>
</g>
<!-- Node1&#45;&gt;Node10 -->
<g id="edge9" class="edge"><title>Node1&#45;&gt;Node10</title>
<path fill="none" stroke="midnightblue" d="M453.06,-392.444C479.023,-383.399 520.168,-369.064 549.297,-358.916"/>
<polygon fill="midnightblue" stroke="midnightblue" points="550.763,-362.112 559.055,-355.516 548.46,-355.501 550.763,-362.112"/>
</g>
<!-- Node3 -->
<g id="node3" class="node"><title>Node3</title>
<g id="a_node3"><a xlink:href="ceptr__types_8h_source.html" target="_top" xlink:title="ceptr_types.h">
<polygon fill="white" stroke="black" points="143.5,-112.5 143.5,-131.5 219.5,-131.5 219.5,-112.5 143.5,-112.5"/>
<text text-anchor="middle" x="181.5" y="-119.5" font-family="Helvetica,sans-Serif" font-size="10.00">ceptr_types.h</text>
</a>
</g>
</g>
<!-- Node2&#45;&gt;Node3 -->
<g id="edge2" class="edge"><title>Node2&#45;&gt;Node3</title>
<path fill="none" stroke="midnightblue" d="M238.754,-340.364C212.325,-335.058 177.427,-323.787 156.5,-300 116.947,-255.041 104.607,-222.462 129.5,-168 135.277,-155.36 146.552,-144.911 157.131,-137.274"/>
<polygon fill="midnightblue" stroke="midnightblue" points="159.349,-140.001 165.717,-131.533 155.458,-134.182 159.349,-140.001"/>
</g>
<!-- Node4 -->
<g id="node4" class="node"><title>Node4</title>
<polygon fill="white" stroke="#bfbfbf" points="157,-56.5 157,-75.5 206,-75.5 206,-56.5 157,-56.5"/>
<text text-anchor="middle" x="181.5" y="-63.5" font-family="Helvetica,sans-Serif" font-size="10.00">stdint.h</text>
</g>
<!-- Node3&#45;&gt;Node4 -->
<g id="edge3" class="edge"><title>Node3&#45;&gt;Node4</title>
<path fill="none" stroke="midnightblue" d="M181.5,-112.083C181.5,-105.006 181.5,-94.8611 181.5,-85.9865"/>
<polygon fill="midnightblue" stroke="midnightblue" points="185,-85.751 181.5,-75.7511 178,-85.7511 185,-85.751"/>
</g>
<!-- Node5 -->
<g id="node5" class="node"><title>Node5</title>
<g id="a_node5"><a xlink:href="uthash_8h_source.html" target="_top" xlink:title="uthash.h">
<polygon fill="white" stroke="black" points="39.5,-56.5 39.5,-75.5 93.5,-75.5 93.5,-56.5 39.5,-56.5"/>
<text text-anchor="middle" x="66.5" y="-63.5" font-family="Helvetica,sans-Serif" font-size="10.00">uthash.h</text>
</a>
</g>
</g>
<!-- Node3&#45;&gt;Node5 -->
<g id="edge4" class="edge"><title>Node3&#45;&gt;Node5</title>
<path fill="none" stroke="midnightblue" d="M163.278,-112.444C144.604,-103.675 115.344,-89.9355 93.8826,-79.8579"/>
<polygon fill="midnightblue" stroke="midnightblue" points="95.1763,-76.5988 84.6368,-75.5164 92.2009,-82.935 95.1763,-76.5988"/>
</g>
<!-- Node6 -->
<g id="node6" class="node"><title>Node6</title>
<polygon fill="white" stroke="#bfbfbf" points="513,-0.5 513,-19.5 562,-19.5 562,-0.5 513,-0.5"/>
<text text-anchor="middle" x="537.5" y="-7.5" font-family="Helvetica,sans-Serif" font-size="10.00">string.h</text>
</g>
<!-- Node5&#45;&gt;Node6 -->
<g id="edge5" class="edge"><title>Node5&#45;&gt;Node6</title>
<path fill="none" stroke="midnightblue" d="M93.7657,-58.5695C98.3348,-57.6201 103.04,-56.7206 107.5,-56 253.343,-32.4372 429.102,-18.5065 502.568,-13.325"/>
<polygon fill="midnightblue" stroke="midnightblue" points="502.917,-16.8093 512.65,-12.6239 502.431,-9.82617 502.917,-16.8093"/>
</g>
<!-- Node7 -->
<g id="node7" class="node"><title>Node7</title>
<polygon fill="white" stroke="#bfbfbf" points="77.5,-0.5 77.5,-19.5 129.5,-19.5 129.5,-0.5 77.5,-0.5"/>
<text text-anchor="middle" x="103.5" y="-7.5" font-family="Helvetica,sans-Serif" font-size="10.00">stddef.h</text>
</g>
<!-- Node5&#45;&gt;Node7 -->
<g id="edge6" class="edge"><title>Node5&#45;&gt;Node7</title>
<path fill="none" stroke="midnightblue" d="M72.6098,-56.083C77.7822,-48.5341 85.3461,-37.4948 91.6944,-28.2298"/>
<polygon fill="midnightblue" stroke="midnightblue" points="94.7388,-29.9787 97.5039,-19.7511 88.9643,-26.0221 94.7388,-29.9787"/>
</g>
<!-- Node8 -->
<g id="node8" class="node"><title>Node8</title>
<polygon fill="white" stroke="#bfbfbf" points="343.5,-0.5 343.5,-19.5 391.5,-19.5 391.5,-0.5 343.5,-0.5"/>
<text text-anchor="middle" x="367.5" y="-7.5" font-family="Helvetica,sans-Serif" font-size="10.00">stdlib.h</text>
</g>
<!-- Node5&#45;&gt;Node8 -->
<g id="edge7" class="edge"><title>Node5&#45;&gt;Node8</title>
<path fill="none" stroke="midnightblue" d="M93.8117,-58.8266C98.3753,-57.8463 103.066,-56.8699 107.5,-56 188.288,-40.15 283.783,-24.3766 333.52,-16.3837"/>
<polygon fill="midnightblue" stroke="midnightblue" points="334.097,-19.836 343.417,-14.7989 332.99,-12.9241 334.097,-19.836"/>
</g>
<!-- Node9 -->
<g id="node9" class="node"><title>Node9</title>
<polygon fill="white" stroke="#bfbfbf" points="0,-0.5 0,-19.5 59,-19.5 59,-0.5 0,-0.5"/>
<text text-anchor="middle" x="29.5" y="-7.5" font-family="Helvetica,sans-Serif" font-size="10.00">inttypes.h</text>
</g>
<!-- Node5&#45;&gt;Node9 -->
<g id="edge8" class="edge"><title>Node5&#45;&gt;Node9</title>
<path fill="none" stroke="midnightblue" d="M60.3902,-56.083C55.2178,-48.5341 47.6539,-37.4948 41.3056,-28.2298"/>
<polygon fill="midnightblue" stroke="midnightblue" points="44.0357,-26.0221 35.4961,-19.7511 38.2612,-29.9787 44.0357,-26.0221"/>
</g>
<!-- Node10&#45;&gt;Node6 -->
<g id="edge10" class="edge"><title>Node10&#45;&gt;Node6</title>
<path fill="none" stroke="midnightblue" d="M604.142,-336.393C619.896,-328.877 641.106,-316.57 654.5,-300 673.859,-276.051 678.5,-265.795 678.5,-235 678.5,-235 678.5,-235 678.5,-121 678.5,-66.9632 613.326,-35.5578 571.598,-20.9881"/>
<polygon fill="midnightblue" stroke="midnightblue" points="572.654,-17.6507 562.06,-17.8056 570.438,-24.2908 572.654,-17.6507"/>
</g>
<!-- Node10&#45;&gt;Node8 -->
<g id="edge12" class="edge"><title>Node10&#45;&gt;Node8</title>
<path fill="none" stroke="midnightblue" d="M586.089,-336.457C597.596,-296.557 639.767,-127.48 551.5,-56 508.216,-20.9478 441.668,-12.5793 401.584,-10.9297"/>
<polygon fill="midnightblue" stroke="midnightblue" points="401.606,-7.42888 391.508,-10.6341 401.401,-14.4259 401.606,-7.42888"/>
</g>
<!-- Node11 -->
<g id="node11" class="node"><title>Node11</title>
<polygon fill="white" stroke="#bfbfbf" points="706.5,-168.5 706.5,-187.5 752.5,-187.5 752.5,-168.5 706.5,-168.5"/>
<text text-anchor="middle" x="729.5" y="-175.5" font-family="Helvetica,sans-Serif" font-size="10.00">stdio.h</text>
</g>
<!-- Node10&#45;&gt;Node11 -->
<g id="edge11" class="edge"><title>Node10&#45;&gt;Node11</title>
<path fill="none" stroke="midnightblue" d="M619.51,-338.454C643.302,-332.345 673.491,-320.901 692.5,-300 718.893,-270.979 726.468,-223.569 728.637,-197.546"/>
<polygon fill="midnightblue" stroke="midnightblue" points="732.132,-197.733 729.287,-187.527 725.146,-197.279 732.132,-197.733"/>
</g>
<!-- Node12 -->
<g id="node12" class="node"><title>Node12</title>
<g id="a_node12"><a xlink:href="ceptr__error_8h_source.html" target="_top" xlink:title="ceptr_error.h">
<polygon fill="white" stroke="black" points="465,-224.5 465,-243.5 536,-243.5 536,-224.5 465,-224.5"/>
<text text-anchor="middle" x="500.5" y="-231.5" font-family="Helvetica,sans-Serif" font-size="10.00">ceptr_error.h</text>
</a>
</g>
</g>
<!-- Node10&#45;&gt;Node12 -->
<g id="edge13" class="edge"><title>Node10&#45;&gt;Node12</title>
<path fill="none" stroke="midnightblue" d="M576.987,-336.368C563.229,-318.135 531.003,-275.426 513.082,-251.675"/>
<polygon fill="midnightblue" stroke="midnightblue" points="515.8,-249.466 506.983,-243.591 510.212,-253.682 515.8,-249.466"/>
</g>
<!-- Node16 -->
<g id="node16" class="node"><title>Node16</title>
<g id="a_node16"><a xlink:href="tree_8h.html" target="_top" xlink:title="semantic trees header file ">
<polygon fill="white" stroke="black" points="166,-280.5 166,-299.5 207,-299.5 207,-280.5 166,-280.5"/>
<text text-anchor="middle" x="186.5" y="-287.5" font-family="Helvetica,sans-Serif" font-size="10.00">tree.h</text>
</a>
</g>
</g>
<!-- Node10&#45;&gt;Node16 -->
<g id="edge18" class="edge"><title>Node10&#45;&gt;Node16</title>
<path fill="none" stroke="midnightblue" d="M547.216,-340.065C469.838,-329.54 289.782,-305.048 217.423,-295.206"/>
<polygon fill="midnightblue" stroke="midnightblue" points="217.54,-291.69 207.159,-293.81 216.596,-298.626 217.54,-291.69"/>
</g>
<!-- Node20 -->
<g id="node20" class="node"><title>Node20</title>
<g id="a_node20"><a xlink:href="mtree_8h.html" target="_top" xlink:title="semantic tree matrix header file `` ">
<polygon fill="white" stroke="black" points="430.5,-280.5 430.5,-299.5 480.5,-299.5 480.5,-280.5 430.5,-280.5"/>
<text text-anchor="middle" x="455.5" y="-287.5" font-family="Helvetica,sans-Serif" font-size="10.00">mtree.h</text>
</a>
</g>
</g>
<!-- Node10&#45;&gt;Node20 -->
<g id="edge29" class="edge"><title>Node10&#45;&gt;Node20</title>
<path fill="none" stroke="midnightblue" d="M563.218,-336.444C542.153,-327.557 508.983,-313.563 485.014,-303.451"/>
<polygon fill="midnightblue" stroke="midnightblue" points="486.261,-300.179 475.687,-299.516 483.54,-306.628 486.261,-300.179"/>
</g>
<!-- Node21 -->
<g id="node21" class="node"><title>Node21</title>
<g id="a_node21"><a xlink:href="util_8h.html" target="_top" xlink:title="util.h">
<polygon fill="white" stroke="black" points="744.5,-280.5 744.5,-299.5 782.5,-299.5 782.5,-280.5 744.5,-280.5"/>
<text text-anchor="middle" x="763.5" y="-287.5" font-family="Helvetica,sans-Serif" font-size="10.00">util.h</text>
</a>
</g>
</g>
<!-- Node10&#45;&gt;Node21 -->
<g id="edge37" class="edge"><title>Node10&#45;&gt;Node21</title>
<path fill="none" stroke="midnightblue" d="M612.022,-336.444C645.621,-326.364 701.117,-309.715 734.796,-299.611"/>
<polygon fill="midnightblue" stroke="midnightblue" points="735.926,-302.926 744.499,-296.7 733.915,-296.221 735.926,-302.926"/>
</g>
<!-- Node12&#45;&gt;Node11 -->
<g id="edge14" class="edge"><title>Node12&#45;&gt;Node11</title>
<path fill="none" stroke="midnightblue" d="M536.281,-224.562C580.209,-214.204 654.098,-196.78 696.644,-186.748"/>
<polygon fill="midnightblue" stroke="midnightblue" points="697.564,-190.127 706.494,-184.425 695.958,-183.314 697.564,-190.127"/>
</g>
<!-- Node13 -->
<g id="node13" class="node"><title>Node13</title>
<polygon fill="white" stroke="#bfbfbf" points="344.5,-168.5 344.5,-187.5 394.5,-187.5 394.5,-168.5 344.5,-168.5"/>
<text text-anchor="middle" x="369.5" y="-175.5" font-family="Helvetica,sans-Serif" font-size="10.00">signal.h</text>
</g>
<!-- Node12&#45;&gt;Node13 -->
<g id="edge15" class="edge"><title>Node12&#45;&gt;Node13</title>
<path fill="none" stroke="midnightblue" d="M479.743,-224.444C458.184,-215.557 424.237,-201.563 399.706,-191.451"/>
<polygon fill="midnightblue" stroke="midnightblue" points="400.739,-188.092 390.16,-187.516 398.072,-194.563 400.739,-188.092"/>
</g>
<!-- Node14 -->
<g id="node14" class="node"><title>Node14</title>
<polygon fill="white" stroke="#bfbfbf" points="412.5,-168.5 412.5,-187.5 464.5,-187.5 464.5,-168.5 412.5,-168.5"/>
<text text-anchor="middle" x="438.5" y="-175.5" font-family="Helvetica,sans-Serif" font-size="10.00">assert.h</text>
</g>
<!-- Node12&#45;&gt;Node14 -->
<g id="edge16" class="edge"><title>Node12&#45;&gt;Node14</title>
<path fill="none" stroke="midnightblue" d="M490.539,-224.324C481.373,-216.341 467.563,-204.313 456.472,-194.653"/>
<polygon fill="midnightblue" stroke="midnightblue" points="458.482,-191.762 448.643,-187.834 453.885,-197.041 458.482,-191.762"/>
</g>
<!-- Node15 -->
<g id="node15" class="node"><title>Node15</title>
<polygon fill="white" stroke="#bfbfbf" points="482.5,-168.5 482.5,-187.5 536.5,-187.5 536.5,-168.5 482.5,-168.5"/>
<text text-anchor="middle" x="509.5" y="-175.5" font-family="Helvetica,sans-Serif" font-size="10.00">setjmp.h</text>
</g>
<!-- Node12&#45;&gt;Node15 -->
<g id="edge17" class="edge"><title>Node12&#45;&gt;Node15</title>
<path fill="none" stroke="midnightblue" d="M501.986,-224.083C503.179,-216.927 504.894,-206.635 506.385,-197.691"/>
<polygon fill="midnightblue" stroke="midnightblue" points="509.85,-198.19 508.041,-187.751 502.945,-197.04 509.85,-198.19"/>
</g>
<!-- Node16&#45;&gt;Node3 -->
<g id="edge28" class="edge"><title>Node16&#45;&gt;Node3</title>
<path fill="none" stroke="midnightblue" d="M180.337,-280.364C168.774,-263.566 144.21,-224.898 135.5,-188 133.458,-179.349 132.053,-176.193 135.5,-168 140.526,-156.053 150.444,-145.692 159.787,-137.934"/>
<polygon fill="midnightblue" stroke="midnightblue" points="161.939,-140.694 167.713,-131.811 157.66,-135.155 161.939,-140.694"/>
</g>
<!-- Node16&#45;&gt;Node6 -->
<g id="edge19" class="edge"><title>Node16&#45;&gt;Node6</title>
<path fill="none" stroke="midnightblue" d="M176.295,-280.357C166.997,-271.961 153.529,-258.401 145.5,-244 104.809,-171.017 85.1654,-111.648 147.5,-56 160.719,-44.1994 409.881,-21.8708 502.882,-13.9099"/>
<polygon fill="midnightblue" stroke="midnightblue" points="503.25,-17.3914 512.916,-13.055 502.655,-10.4167 503.25,-17.3914"/>
</g>
<!-- Node16&#45;&gt;Node8 -->
<g id="edge20" class="edge"><title>Node16&#45;&gt;Node8</title>
<path fill="none" stroke="midnightblue" d="M165.79,-287.878C137.257,-285.152 86.3427,-275.83 59.5,-244 4.9965,-179.37 -25.1849,-119.615 30.5,-56 50.2663,-33.4188 251.304,-18.3161 333.131,-13.0607"/>
<polygon fill="midnightblue" stroke="midnightblue" points="333.645,-16.5353 343.405,-12.4125 333.204,-9.54919 333.645,-16.5353"/>
</g>
<!-- Node16&#45;&gt;Node12 -->
<g id="edge21" class="edge"><title>Node16&#45;&gt;Node12</title>
<path fill="none" stroke="midnightblue" d="M207.102,-285.457C257.066,-276.864 385.65,-254.751 454.83,-242.854"/>
<polygon fill="midnightblue" stroke="midnightblue" points="455.733,-246.25 464.995,-241.106 454.547,-239.351 455.733,-246.25"/>
</g>
<!-- Node17 -->
<g id="node17" class="node"><title>Node17</title>
<g id="a_node17"><a xlink:href="sys__symbols_8h.html" target="_top" xlink:title="Defines hard&#45;coded system defined symbols. ">
<polygon fill="white" stroke="black" points="287,-224.5 287,-243.5 370,-243.5 370,-224.5 287,-224.5"/>
<text text-anchor="middle" x="328.5" y="-231.5" font-family="Helvetica,sans-Serif" font-size="10.00">sys_symbols.h</text>
</a>
</g>
</g>
<!-- Node16&#45;&gt;Node17 -->
<g id="edge22" class="edge"><title>Node16&#45;&gt;Node17</title>
<path fill="none" stroke="midnightblue" d="M207.148,-281.148C230.578,-272.238 269.079,-257.597 296.427,-247.197"/>
<polygon fill="midnightblue" stroke="midnightblue" points="297.847,-250.402 305.949,-243.576 295.358,-243.859 297.847,-250.402"/>
</g>
<!-- Node18 -->
<g id="node18" class="node"><title>Node18</title>
<g id="a_node18"><a xlink:href="sys__structures_8h.html" target="_top" xlink:title="Defines hard&#45;coded system defined structures. ">
<polygon fill="white" stroke="black" points="145,-168.5 145,-187.5 234,-187.5 234,-168.5 145,-168.5"/>
<text text-anchor="middle" x="189.5" y="-175.5" font-family="Helvetica,sans-Serif" font-size="10.00">sys_structures.h</text>
</a>
</g>
</g>
<!-- Node16&#45;&gt;Node18 -->
<g id="edge26" class="edge"><title>Node16&#45;&gt;Node18</title>
<path fill="none" stroke="midnightblue" d="M181.248,-280.241C174.451,-267.824 163.986,-244.348 168.5,-224 170.624,-214.426 175.007,-204.476 179.221,-196.374"/>
<polygon fill="midnightblue" stroke="midnightblue" points="182.322,-197.999 184.116,-187.557 176.202,-194.601 182.322,-197.999"/>
</g>
<!-- Node19 -->
<g id="node19" class="node"><title>Node19</title>
<g id="a_node19"><a xlink:href="sys__processes_8h.html" target="_top" xlink:title="Defines hard&#45;coded system defined processes. ">
<polygon fill="white" stroke="black" points="178,-224.5 178,-243.5 269,-243.5 269,-224.5 178,-224.5"/>
<text text-anchor="middle" x="223.5" y="-231.5" font-family="Helvetica,sans-Serif" font-size="10.00">sys_processes.h</text>
</a>
</g>
</g>
<!-- Node16&#45;&gt;Node19 -->
<g id="edge27" class="edge"><title>Node16&#45;&gt;Node19</title>
<path fill="none" stroke="midnightblue" d="M192.61,-280.083C197.782,-272.534 205.346,-261.495 211.694,-252.23"/>
<polygon fill="midnightblue" stroke="midnightblue" points="214.739,-253.979 217.504,-243.751 208.964,-250.022 214.739,-253.979"/>
</g>
<!-- Node17&#45;&gt;Node3 -->
<g id="edge25" class="edge"><title>Node17&#45;&gt;Node3</title>
<path fill="none" stroke="midnightblue" d="M317.125,-224.336C300.694,-211.837 269.343,-188.044 242.5,-168 228.887,-157.835 213.492,-146.479 201.573,-137.718"/>
<polygon fill="midnightblue" stroke="midnightblue" points="203.356,-134.684 193.224,-131.587 199.213,-140.327 203.356,-134.684"/>
</g>
<!-- Node17&#45;&gt;Node18 -->
<g id="edge23" class="edge"><title>Node17&#45;&gt;Node18</title>
<path fill="none" stroke="midnightblue" d="M306.475,-224.444C283.396,-215.478 246.938,-201.314 220.859,-191.183"/>
<polygon fill="midnightblue" stroke="midnightblue" points="222.011,-187.875 211.422,-187.516 219.476,-194.4 222.011,-187.875"/>
</g>
<!-- Node18&#45;&gt;Node3 -->
<g id="edge24" class="edge"><title>Node18&#45;&gt;Node3</title>
<path fill="none" stroke="midnightblue" d="M188.179,-168.083C187.119,-160.927 185.594,-150.635 184.269,-141.691"/>
<polygon fill="midnightblue" stroke="midnightblue" points="187.724,-141.13 182.796,-131.751 180.8,-142.156 187.724,-141.13"/>
</g>
<!-- Node20&#45;&gt;Node3 -->
<g id="edge36" class="edge"><title>Node20&#45;&gt;Node3</title>
<path fill="none" stroke="midnightblue" d="M451.018,-280.307C443.609,-266.68 427.611,-240.18 407.5,-224 391.238,-210.917 269.519,-159.531 211.756,-135.507"/>
<polygon fill="midnightblue" stroke="midnightblue" points="212.983,-132.227 202.406,-131.625 210.299,-138.692 212.983,-132.227"/>
</g>
<!-- Node20&#45;&gt;Node6 -->
<g id="edge30" class="edge"><title>Node20&#45;&gt;Node6</title>
<path fill="none" stroke="midnightblue" d="M480.67,-286.805C508.722,-282.978 553.425,-272.517 578.5,-244 634.79,-179.983 659.337,-129.7 616.5,-56 606.819,-39.3448 588.414,-28.3423 571.802,-21.3882"/>
<polygon fill="midnightblue" stroke="midnightblue" points="572.899,-18.0603 562.309,-17.7494 570.393,-24.5966 572.899,-18.0603"/>
</g>
<!-- Node20&#45;&gt;Node8 -->
<g id="edge31" class="edge"><title>Node20&#45;&gt;Node8</title>
<path fill="none" stroke="midnightblue" d="M480.835,-282.19C500.815,-275.569 527.981,-263.589 544.5,-244 563.985,-220.894 564.5,-209.225 564.5,-179 564.5,-179 564.5,-179 564.5,-121 564.5,-47.3996 458.38,-22.5822 401.913,-14.5864"/>
<polygon fill="midnightblue" stroke="midnightblue" points="402.026,-11.0714 391.656,-13.2415 401.116,-18.012 402.026,-11.0714"/>
</g>
<!-- Node20&#45;&gt;Node12 -->
<g id="edge32" class="edge"><title>Node20&#45;&gt;Node12</title>
<path fill="none" stroke="midnightblue" d="M462.931,-280.083C469.353,-272.377 478.806,-261.033 486.622,-251.653"/>
<polygon fill="midnightblue" stroke="midnightblue" points="489.494,-253.674 493.207,-243.751 484.117,-249.193 489.494,-253.674"/>
</g>
<!-- Node20&#45;&gt;Node17 -->
<g id="edge33" class="edge"><title>Node20&#45;&gt;Node17</title>
<path fill="none" stroke="midnightblue" d="M435.376,-280.444C414.476,-271.557 381.565,-257.563 357.784,-247.451"/>
<polygon fill="midnightblue" stroke="midnightblue" points="359.102,-244.208 348.529,-243.516 356.362,-250.65 359.102,-244.208"/>
</g>
<!-- Node20&#45;&gt;Node18 -->
<g id="edge34" class="edge"><title>Node20&#45;&gt;Node18</title>
<path fill="none" stroke="midnightblue" d="M447.893,-280.367C435.034,-266.331 407.549,-238.662 378.5,-224 336.208,-202.655 283.434,-191.186 244.408,-185.181"/>
<polygon fill="midnightblue" stroke="midnightblue" points="244.694,-181.686 234.293,-183.699 243.68,-188.612 244.694,-181.686"/>
</g>
<!-- Node20&#45;&gt;Node19 -->
<g id="edge35" class="edge"><title>Node20&#45;&gt;Node19</title>
<path fill="none" stroke="midnightblue" d="M430.23,-283.118C391.856,-274.186 318.262,-257.057 270.032,-245.831"/>
<polygon fill="midnightblue" stroke="midnightblue" points="270.68,-242.388 260.147,-243.53 269.093,-249.206 270.68,-242.388"/>
</g>
<!-- Node21&#45;&gt;Node11 -->
<g id="edge39" class="edge"><title>Node21&#45;&gt;Node11</title>
<path fill="none" stroke="midnightblue" d="M760.832,-280.368C755.32,-262.537 742.573,-221.295 735.148,-197.272"/>
<polygon fill="midnightblue" stroke="midnightblue" points="738.453,-196.112 732.156,-187.591 731.765,-198.179 738.453,-196.112"/>
</g>
<!-- Node22 -->
<g id="node22" class="node"><title>Node22</title>
<polygon fill="white" stroke="#bfbfbf" points="783,-224.5 783,-243.5 832,-243.5 832,-224.5 783,-224.5"/>
<text text-anchor="middle" x="807.5" y="-231.5" font-family="Helvetica,sans-Serif" font-size="10.00">ctype.h</text>
</g>
<!-- Node21&#45;&gt;Node22 -->
<g id="edge38" class="edge"><title>Node21&#45;&gt;Node22</title>
<path fill="none" stroke="midnightblue" d="M770.766,-280.083C777.045,-272.377 786.288,-261.033 793.931,-251.653"/>
<polygon fill="midnightblue" stroke="midnightblue" points="796.766,-253.714 800.369,-243.751 791.339,-249.293 796.766,-253.714"/>
</g>
</g>
</svg>
