<?xml version="1.0" encoding="UTF-8" standalone="no"?>
<!DOCTYPE svg PUBLIC "-//W3C//DTD SVG 1.1//EN"
 "http://www.w3.org/Graphics/SVG/1.1/DTD/svg11.dtd">
<!-- Generated by graphviz version 2.38.0 (20140413.2041)
 -->
<!-- Title: src/label.c Pages: 1 -->
<svg width="689pt" height="364pt"
 viewBox="0.00 0.00 689.00 364.00" xmlns="http://www.w3.org/2000/svg" xmlns:xlink="http://www.w3.org/1999/xlink">
<g id="graph0" class="graph" transform="scale(1 1) rotate(0) translate(4 360)">
<title>src/label.c</title>
<polygon fill="white" stroke="none" points="-4,4 -4,-360 685,-360 685,4 -4,4"/>
<!-- Node1 -->
<g id="node1" class="node"><title>Node1</title>
<polygon fill="#bfbfbf" stroke="black" points="365,-336.5 365,-355.5 427,-355.5 427,-336.5 365,-336.5"/>
<text text-anchor="middle" x="396" y="-343.5" font-family="Helvetica,sans-Serif" font-size="10.00">src/label.c</text>
</g>
<!-- Node2 -->
<g id="node2" class="node"><title>Node2</title>
<g id="a_node2"><a xlink:href="label_8h.html" target="_top" xlink:title="Label tables map human readable text strings to parts of semantic trees. ">
<polygon fill="white" stroke="black" points="308.5,-280.5 308.5,-299.5 353.5,-299.5 353.5,-280.5 308.5,-280.5"/>
<text text-anchor="middle" x="331" y="-287.5" font-family="Helvetica,sans-Serif" font-size="10.00">label.h</text>
</a>
</g>
</g>
<!-- Node1&#45;&gt;Node2 -->
<g id="edge1" class="edge"><title>Node1&#45;&gt;Node2</title>
<path fill="none" stroke="midnightblue" d="M385.557,-336.324C375.854,-328.263 361.185,-316.077 349.5,-306.369"/>
<polygon fill="midnightblue" stroke="midnightblue" points="351.562,-303.532 341.633,-299.834 347.089,-308.916 351.562,-303.532"/>
</g>
<!-- Node11 -->
<g id="node11" class="node"><title>Node11</title>
<g id="a_node11"><a xlink:href="tree_8h.html" target="_top" xlink:title="semantic trees header file ">
<polygon fill="white" stroke="black" points="375.5,-280.5 375.5,-299.5 416.5,-299.5 416.5,-280.5 375.5,-280.5"/>
<text text-anchor="middle" x="396" y="-287.5" font-family="Helvetica,sans-Serif" font-size="10.00">tree.h</text>
</a>
</g>
</g>
<!-- Node1&#45;&gt;Node11 -->
<g id="edge10" class="edge"><title>Node1&#45;&gt;Node11</title>
<path fill="none" stroke="midnightblue" d="M396,-336.083C396,-329.006 396,-318.861 396,-309.986"/>
<polygon fill="midnightblue" stroke="midnightblue" points="399.5,-309.751 396,-299.751 392.5,-309.751 399.5,-309.751"/>
</g>
<!-- Node20 -->
<g id="node20" class="node"><title>Node20</title>
<g id="a_node20"><a xlink:href="hashfn_8h_source.html" target="_top" xlink:title="hashfn.h">
<polygon fill="white" stroke="black" points="627,-112.5 627,-131.5 681,-131.5 681,-112.5 627,-112.5"/>
<text text-anchor="middle" x="654" y="-119.5" font-family="Helvetica,sans-Serif" font-size="10.00">hashfn.h</text>
</a>
</g>
</g>
<!-- Node1&#45;&gt;Node20 -->
<g id="edge27" class="edge"><title>Node1&#45;&gt;Node20</title>
<path fill="none" stroke="midnightblue" d="M427.257,-338.676C474.133,-327.602 562.512,-300.309 613,-244 639.312,-214.654 648.851,-167.745 652.224,-141.797"/>
<polygon fill="midnightblue" stroke="midnightblue" points="655.711,-142.108 653.351,-131.779 648.755,-141.325 655.711,-142.108"/>
</g>
<!-- Node3 -->
<g id="node3" class="node"><title>Node3</title>
<g id="a_node3"><a xlink:href="ceptr__types_8h_source.html" target="_top" xlink:title="ceptr_types.h">
<polygon fill="white" stroke="black" points="370,-112.5 370,-131.5 446,-131.5 446,-112.5 370,-112.5"/>
<text text-anchor="middle" x="408" y="-119.5" font-family="Helvetica,sans-Serif" font-size="10.00">ceptr_types.h</text>
</a>
</g>
</g>
<!-- Node2&#45;&gt;Node3 -->
<g id="edge2" class="edge"><title>Node2&#45;&gt;Node3</title>
<path fill="none" stroke="midnightblue" d="M319.825,-280.446C305.372,-268.272 283.155,-245.082 293,-224 303.546,-201.417 317.191,-204.354 336,-188 355.122,-171.374 376.64,-151.837 391.13,-138.554"/>
<polygon fill="midnightblue" stroke="midnightblue" points="393.784,-140.869 398.779,-131.526 389.047,-135.715 393.784,-140.869"/>
</g>
<!-- Node4 -->
<g id="node4" class="node"><title>Node4</title>
<polygon fill="white" stroke="#bfbfbf" points="491.5,-56.5 491.5,-75.5 540.5,-75.5 540.5,-56.5 491.5,-56.5"/>
<text text-anchor="middle" x="516" y="-63.5" font-family="Helvetica,sans-Serif" font-size="10.00">stdint.h</text>
</g>
<!-- Node3&#45;&gt;Node4 -->
<g id="edge3" class="edge"><title>Node3&#45;&gt;Node4</title>
<path fill="none" stroke="midnightblue" d="M425.352,-112.324C442.672,-103.664 469.515,-90.2424 489.502,-80.249"/>
<polygon fill="midnightblue" stroke="midnightblue" points="491.312,-83.2572 498.691,-75.6545 488.181,-76.9962 491.312,-83.2572"/>
</g>
<!-- Node5 -->
<g id="node5" class="node"><title>Node5</title>
<polygon fill="white" stroke="#bfbfbf" points="89,-56.5 89,-75.5 135,-75.5 135,-56.5 89,-56.5"/>
<text text-anchor="middle" x="112" y="-63.5" font-family="Helvetica,sans-Serif" font-size="10.00">stdio.h</text>
</g>
<!-- Node3&#45;&gt;Node5 -->
<g id="edge4" class="edge"><title>Node3&#45;&gt;Node5</title>
<path fill="none" stroke="midnightblue" d="M369.909,-114.051C311.38,-103.373 200.314,-83.1114 145.008,-73.0218"/>
<polygon fill="midnightblue" stroke="midnightblue" points="145.505,-69.5547 135.039,-71.203 144.248,-76.441 145.505,-69.5547"/>
</g>
<!-- Node6 -->
<g id="node6" class="node"><title>Node6</title>
<g id="a_node6"><a xlink:href="uthash_8h_source.html" target="_top" xlink:title="uthash.h">
<polygon fill="white" stroke="black" points="381,-56.5 381,-75.5 435,-75.5 435,-56.5 381,-56.5"/>
<text text-anchor="middle" x="408" y="-63.5" font-family="Helvetica,sans-Serif" font-size="10.00">uthash.h</text>
</a>
</g>
</g>
<!-- Node3&#45;&gt;Node6 -->
<g id="edge5" class="edge"><title>Node3&#45;&gt;Node6</title>
<path fill="none" stroke="midnightblue" d="M408,-112.083C408,-105.006 408,-94.8611 408,-85.9865"/>
<polygon fill="midnightblue" stroke="midnightblue" points="411.5,-85.751 408,-75.7511 404.5,-85.7511 411.5,-85.751"/>
</g>
<!-- Node7 -->
<g id="node7" class="node"><title>Node7</title>
<polygon fill="white" stroke="#bfbfbf" points="529.5,-0.5 529.5,-19.5 578.5,-19.5 578.5,-0.5 529.5,-0.5"/>
<text text-anchor="middle" x="554" y="-7.5" font-family="Helvetica,sans-Serif" font-size="10.00">string.h</text>
</g>
<!-- Node6&#45;&gt;Node7 -->
<g id="edge6" class="edge"><title>Node6&#45;&gt;Node7</title>
<path fill="none" stroke="midnightblue" d="M431.134,-56.4435C455.482,-47.4381 494.007,-33.1891 521.423,-23.049"/>
<polygon fill="midnightblue" stroke="midnightblue" points="522.809,-26.2681 530.974,-19.5164 520.381,-19.7028 522.809,-26.2681"/>
</g>
<!-- Node8 -->
<g id="node8" class="node"><title>Node8</title>
<polygon fill="white" stroke="#bfbfbf" points="345,-0.5 345,-19.5 397,-19.5 397,-0.5 345,-0.5"/>
<text text-anchor="middle" x="371" y="-7.5" font-family="Helvetica,sans-Serif" font-size="10.00">stddef.h</text>
</g>
<!-- Node6&#45;&gt;Node8 -->
<g id="edge7" class="edge"><title>Node6&#45;&gt;Node8</title>
<path fill="none" stroke="midnightblue" d="M401.89,-56.083C396.718,-48.5341 389.154,-37.4948 382.806,-28.2298"/>
<polygon fill="midnightblue" stroke="midnightblue" points="385.536,-26.0221 376.996,-19.7511 379.761,-29.9787 385.536,-26.0221"/>
</g>
<!-- Node9 -->
<g id="node9" class="node"><title>Node9</title>
<polygon fill="white" stroke="#bfbfbf" points="142,-0.5 142,-19.5 190,-19.5 190,-0.5 142,-0.5"/>
<text text-anchor="middle" x="166" y="-7.5" font-family="Helvetica,sans-Serif" font-size="10.00">stdlib.h</text>
</g>
<!-- Node6&#45;&gt;Node9 -->
<g id="edge8" class="edge"><title>Node6&#45;&gt;Node9</title>
<path fill="none" stroke="midnightblue" d="M380.71,-58.9105C336.373,-49.0171 248.783,-29.4723 200.301,-18.654"/>
<polygon fill="midnightblue" stroke="midnightblue" points="200.816,-15.1828 190.294,-16.4209 199.291,-22.0148 200.816,-15.1828"/>
</g>
<!-- Node10 -->
<g id="node10" class="node"><title>Node10</title>
<polygon fill="white" stroke="#bfbfbf" points="415.5,-0.5 415.5,-19.5 474.5,-19.5 474.5,-0.5 415.5,-0.5"/>
<text text-anchor="middle" x="445" y="-7.5" font-family="Helvetica,sans-Serif" font-size="10.00">inttypes.h</text>
</g>
<!-- Node6&#45;&gt;Node10 -->
<g id="edge9" class="edge"><title>Node6&#45;&gt;Node10</title>
<path fill="none" stroke="midnightblue" d="M414.11,-56.083C419.282,-48.5341 426.846,-37.4948 433.194,-28.2298"/>
<polygon fill="midnightblue" stroke="midnightblue" points="436.239,-29.9787 439.004,-19.7511 430.464,-26.0221 436.239,-29.9787"/>
</g>
<!-- Node11&#45;&gt;Node3 -->
<g id="edge24" class="edge"><title>Node11&#45;&gt;Node3</title>
<path fill="none" stroke="midnightblue" d="M416.84,-288.252C445.405,-285.971 495.812,-277.174 519,-244 538.351,-216.315 537.872,-196.014 519,-168 504.933,-147.118 479.341,-135.923 456.273,-129.922"/>
<polygon fill="midnightblue" stroke="midnightblue" points="456.777,-126.446 446.244,-127.585 455.189,-133.263 456.777,-126.446"/>
</g>
<!-- Node11&#45;&gt;Node7 -->
<g id="edge11" class="edge"><title>Node11&#45;&gt;Node7</title>
<path fill="none" stroke="midnightblue" d="M416.582,-287.464C468.19,-282.381 599,-261.374 599,-179 599,-179 599,-179 599,-121 599,-85.9296 579.163,-48.9386 565.831,-28.037"/>
<polygon fill="midnightblue" stroke="midnightblue" points="568.7,-26.031 560.257,-19.6305 562.866,-29.8991 568.7,-26.031"/>
</g>
<!-- Node11&#45;&gt;Node9 -->
<g id="edge12" class="edge"><title>Node11&#45;&gt;Node9</title>
<path fill="none" stroke="midnightblue" d="M375.223,-283.138C370.874,-282.013 366.302,-280.905 362,-280 198.544,-245.613 0,-346.034 0,-179 0,-179 0,-179 0,-121 0,-58.2217 83.5186,-29.1586 132.074,-17.5668"/>
<polygon fill="midnightblue" stroke="midnightblue" points="132.881,-20.9728 141.862,-15.3525 131.336,-14.1453 132.881,-20.9728"/>
</g>
<!-- Node12 -->
<g id="node12" class="node"><title>Node12</title>
<g id="a_node12"><a xlink:href="ceptr__error_8h_source.html" target="_top" xlink:title="ceptr_error.h">
<polygon fill="white" stroke="black" points="174.5,-224.5 174.5,-243.5 245.5,-243.5 245.5,-224.5 174.5,-224.5"/>
<text text-anchor="middle" x="210" y="-231.5" font-family="Helvetica,sans-Serif" font-size="10.00">ceptr_error.h</text>
</a>
</g>
</g>
<!-- Node11&#45;&gt;Node12 -->
<g id="edge13" class="edge"><title>Node11&#45;&gt;Node12</title>
<path fill="none" stroke="midnightblue" d="M375.384,-283.015C345.082,-274.217 287.948,-257.63 249.426,-246.446"/>
<polygon fill="midnightblue" stroke="midnightblue" points="250.156,-243.014 239.577,-243.587 248.204,-249.736 250.156,-243.014"/>
</g>
<!-- Node16 -->
<g id="node16" class="node"><title>Node16</title>
<g id="a_node16"><a xlink:href="sys__symbols_8h.html" target="_top" xlink:title="Defines hard&#45;coded system defined symbols. ">
<polygon fill="white" stroke="black" points="302.5,-224.5 302.5,-243.5 385.5,-243.5 385.5,-224.5 302.5,-224.5"/>
<text text-anchor="middle" x="344" y="-231.5" font-family="Helvetica,sans-Serif" font-size="10.00">sys_symbols.h</text>
</a>
</g>
</g>
<!-- Node11&#45;&gt;Node16 -->
<g id="edge18" class="edge"><title>Node11&#45;&gt;Node16</title>
<path fill="none" stroke="midnightblue" d="M387.413,-280.083C379.841,-272.22 368.622,-260.569 359.486,-251.081"/>
<polygon fill="midnightblue" stroke="midnightblue" points="361.885,-248.527 352.427,-243.751 356.842,-253.382 361.885,-248.527"/>
</g>
<!-- Node17 -->
<g id="node17" class="node"><title>Node17</title>
<g id="a_node17"><a xlink:href="sys__structures_8h.html" target="_top" xlink:title="Defines hard&#45;coded system defined structures. ">
<polygon fill="white" stroke="black" points="421.5,-168.5 421.5,-187.5 510.5,-187.5 510.5,-168.5 421.5,-168.5"/>
<text text-anchor="middle" x="466" y="-175.5" font-family="Helvetica,sans-Serif" font-size="10.00">sys_structures.h</text>
</a>
</g>
</g>
<!-- Node11&#45;&gt;Node17 -->
<g id="edge22" class="edge"><title>Node11&#45;&gt;Node17</title>
<path fill="none" stroke="midnightblue" d="M416.806,-286.97C442.112,-283.261 483.821,-272.872 503,-244 513.912,-227.573 498.854,-207.76 484.8,-194.36"/>
<polygon fill="midnightblue" stroke="midnightblue" points="487.058,-191.684 477.266,-187.637 482.397,-196.907 487.058,-191.684"/>
</g>
<!-- Node18 -->
<g id="node18" class="node"><title>Node18</title>
<g id="a_node18"><a xlink:href="sys__processes_8h.html" target="_top" xlink:title="Defines hard&#45;coded system defined processes. ">
<polygon fill="white" stroke="black" points="403.5,-224.5 403.5,-243.5 494.5,-243.5 494.5,-224.5 403.5,-224.5"/>
<text text-anchor="middle" x="449" y="-231.5" font-family="Helvetica,sans-Serif" font-size="10.00">sys_processes.h</text>
</a>
</g>
</g>
<!-- Node11&#45;&gt;Node18 -->
<g id="edge23" class="edge"><title>Node11&#45;&gt;Node18</title>
<path fill="none" stroke="midnightblue" d="M404.752,-280.083C412.47,-272.22 423.905,-260.569 433.217,-251.081"/>
<polygon fill="midnightblue" stroke="midnightblue" points="435.904,-253.34 440.411,-243.751 430.908,-248.436 435.904,-253.34"/>
</g>
<!-- Node19 -->
<g id="node19" class="node"><title>Node19</title>
<g id="a_node19"><a xlink:href="stream_8h.html" target="_top" xlink:title="streams abstraction header file ">
<polygon fill="white" stroke="black" points="28.5,-112.5 28.5,-131.5 83.5,-131.5 83.5,-112.5 28.5,-112.5"/>
<text text-anchor="middle" x="56" y="-119.5" font-family="Helvetica,sans-Serif" font-size="10.00">stream.h</text>
</a>
</g>
</g>
<!-- Node11&#45;&gt;Node19 -->
<g id="edge25" class="edge"><title>Node11&#45;&gt;Node19</title>
<path fill="none" stroke="midnightblue" d="M375.205,-283.221C370.857,-282.09 366.291,-280.958 362,-280 275.135,-260.597 243.042,-286.795 165,-244 119.296,-218.938 82.8899,-167.22 66.0931,-140.236"/>
<polygon fill="midnightblue" stroke="midnightblue" points="68.9834,-138.252 60.8112,-131.509 62.9948,-141.876 68.9834,-138.252"/>
</g>
<!-- Node12&#45;&gt;Node5 -->
<g id="edge14" class="edge"><title>Node12&#45;&gt;Node5</title>
<path fill="none" stroke="midnightblue" d="M179.027,-224.42C160.561,-217.632 138.371,-206.197 126,-188 104.966,-157.062 106.317,-111.101 109.16,-85.654"/>
<polygon fill="midnightblue" stroke="midnightblue" points="112.657,-85.9053 110.496,-75.5332 105.717,-84.9891 112.657,-85.9053"/>
</g>
<!-- Node13 -->
<g id="node13" class="node"><title>Node13</title>
<polygon fill="white" stroke="#bfbfbf" points="277,-168.5 277,-187.5 327,-187.5 327,-168.5 277,-168.5"/>
<text text-anchor="middle" x="302" y="-175.5" font-family="Helvetica,sans-Serif" font-size="10.00">signal.h</text>
</g>
<!-- Node12&#45;&gt;Node13 -->
<g id="edge15" class="edge"><title>Node12&#45;&gt;Node13</title>
<path fill="none" stroke="midnightblue" d="M224.781,-224.324C239.267,-215.822 261.573,-202.729 278.493,-192.797"/>
<polygon fill="midnightblue" stroke="midnightblue" points="280.403,-195.735 287.255,-187.655 276.859,-189.698 280.403,-195.735"/>
</g>
<!-- Node14 -->
<g id="node14" class="node"><title>Node14</title>
<polygon fill="white" stroke="#bfbfbf" points="135,-168.5 135,-187.5 187,-187.5 187,-168.5 135,-168.5"/>
<text text-anchor="middle" x="161" y="-175.5" font-family="Helvetica,sans-Serif" font-size="10.00">assert.h</text>
</g>
<!-- Node12&#45;&gt;Node14 -->
<g id="edge16" class="edge"><title>Node12&#45;&gt;Node14</title>
<path fill="none" stroke="midnightblue" d="M201.909,-224.083C194.845,-216.298 184.412,-204.801 175.851,-195.367"/>
<polygon fill="midnightblue" stroke="midnightblue" points="178.253,-192.805 168.941,-187.751 173.069,-197.509 178.253,-192.805"/>
</g>
<!-- Node15 -->
<g id="node15" class="node"><title>Node15</title>
<polygon fill="white" stroke="#bfbfbf" points="205,-168.5 205,-187.5 259,-187.5 259,-168.5 205,-168.5"/>
<text text-anchor="middle" x="232" y="-175.5" font-family="Helvetica,sans-Serif" font-size="10.00">setjmp.h</text>
</g>
<!-- Node12&#45;&gt;Node15 -->
<g id="edge17" class="edge"><title>Node12&#45;&gt;Node15</title>
<path fill="none" stroke="midnightblue" d="M213.633,-224.083C216.612,-216.77 220.926,-206.181 224.625,-197.103"/>
<polygon fill="midnightblue" stroke="midnightblue" points="227.903,-198.333 228.435,-187.751 221.42,-195.691 227.903,-198.333"/>
</g>
<!-- Node16&#45;&gt;Node3 -->
<g id="edge21" class="edge"><title>Node16&#45;&gt;Node3</title>
<path fill="none" stroke="midnightblue" d="M349.022,-224.368C359.537,-206.296 384.043,-164.176 397.93,-140.307"/>
<polygon fill="midnightblue" stroke="midnightblue" points="400.998,-141.995 403.001,-131.591 394.947,-138.475 400.998,-141.995"/>
</g>
<!-- Node16&#45;&gt;Node17 -->
<g id="edge19" class="edge"><title>Node16&#45;&gt;Node17</title>
<path fill="none" stroke="midnightblue" d="M363.331,-224.444C383.32,-215.596 414.743,-201.687 437.564,-191.586"/>
<polygon fill="midnightblue" stroke="midnightblue" points="439.032,-194.764 446.759,-187.516 436.198,-188.363 439.032,-194.764"/>
</g>
<!-- Node17&#45;&gt;Node3 -->
<g id="edge20" class="edge"><title>Node17&#45;&gt;Node3</title>
<path fill="none" stroke="midnightblue" d="M456.681,-168.324C448.107,-160.341 435.188,-148.313 424.812,-138.653"/>
<polygon fill="midnightblue" stroke="midnightblue" points="427.192,-136.086 417.488,-131.834 422.422,-141.21 427.192,-136.086"/>
</g>
<!-- Node19&#45;&gt;Node5 -->
<g id="edge26" class="edge"><title>Node19&#45;&gt;Node5</title>
<path fill="none" stroke="midnightblue" d="M64.9974,-112.324C73.1944,-104.42 85.5055,-92.5482 95.472,-82.9377"/>
<polygon fill="midnightblue" stroke="midnightblue" points="98.0699,-85.2947 102.839,-75.8339 93.211,-80.2558 98.0699,-85.2947"/>
</g>
<!-- Node20&#45;&gt;Node4 -->
<g id="edge28" class="edge"><title>Node20&#45;&gt;Node4</title>
<path fill="none" stroke="midnightblue" d="M632.133,-112.444C609.221,-103.478 573.025,-89.314 547.134,-79.1827"/>
<polygon fill="midnightblue" stroke="midnightblue" points="548.352,-75.9011 537.764,-75.5164 545.801,-82.4198 548.352,-75.9011"/>
</g>
</g>
</svg>
