<?xml version="1.0" encoding="UTF-8" standalone="no"?>
<!DOCTYPE svg PUBLIC "-//W3C//DTD SVG 1.1//EN"
 "http://www.w3.org/Graphics/SVG/1.1/DTD/svg11.dtd">
<!-- Generated by graphviz version 2.38.0 (20140413.2041)
 -->
<!-- Title: spec/label_spec.h Pages: 1 -->
<svg width="712pt" height="420pt"
 viewBox="0.00 0.00 711.50 420.00" xmlns="http://www.w3.org/2000/svg" xmlns:xlink="http://www.w3.org/1999/xlink">
<g id="graph0" class="graph" transform="scale(1 1) rotate(0) translate(4 416)">
<title>spec/label_spec.h</title>
<polygon fill="white" stroke="none" points="-4,4 -4,-416 707.5,-416 707.5,4 -4,4"/>
<!-- Node1 -->
<g id="node1" class="node"><title>Node1</title>
<polygon fill="#bfbfbf" stroke="black" points="366.5,-392.5 366.5,-411.5 461.5,-411.5 461.5,-392.5 366.5,-392.5"/>
<text text-anchor="middle" x="414" y="-399.5" font-family="Helvetica,sans-Serif" font-size="10.00">spec/label_spec.h</text>
</g>
<!-- Node2 -->
<g id="node2" class="node"><title>Node2</title>
<g id="a_node2"><a xlink:href="label_8h.html" target="_top" xlink:title="Label tables map human readable text strings to parts of semantic trees. ">
<polygon fill="white" stroke="black" points="632.5,-280.5 632.5,-299.5 703.5,-299.5 703.5,-280.5 632.5,-280.5"/>
<text text-anchor="middle" x="668" y="-287.5" font-family="Helvetica,sans-Serif" font-size="10.00">../src/label.h</text>
</a>
</g>
</g>
<!-- Node1&#45;&gt;Node2 -->
<g id="edge1" class="edge"><title>Node1&#45;&gt;Node2</title>
<path fill="none" stroke="midnightblue" d="M433.931,-392.368C478.538,-373.051 586.583,-326.259 638.794,-303.648"/>
<polygon fill="midnightblue" stroke="midnightblue" points="640.376,-306.777 648.162,-299.591 637.594,-300.354 640.376,-306.777"/>
</g>
<!-- Node10 -->
<g id="node10" class="node"><title>Node10</title>
<g id="a_node10"><a xlink:href="ceptr_8h_source.html" target="_top" xlink:title="../src/ceptr.h">
<polygon fill="white" stroke="black" points="254,-336.5 254,-355.5 326,-355.5 326,-336.5 254,-336.5"/>
<text text-anchor="middle" x="290" y="-343.5" font-family="Helvetica,sans-Serif" font-size="10.00">../src/ceptr.h</text>
</a>
</g>
</g>
<!-- Node1&#45;&gt;Node10 -->
<g id="edge9" class="edge"><title>Node1&#45;&gt;Node10</title>
<path fill="none" stroke="midnightblue" d="M394.352,-392.444C374.035,-383.596 342.097,-369.687 318.902,-359.586"/>
<polygon fill="midnightblue" stroke="midnightblue" points="320.122,-356.3 309.556,-355.516 317.327,-362.718 320.122,-356.3"/>
</g>
<!-- Node3 -->
<g id="node3" class="node"><title>Node3</title>
<g id="a_node3"><a xlink:href="ceptr__types_8h_source.html" target="_top" xlink:title="ceptr_types.h">
<polygon fill="white" stroke="black" points="384,-112.5 384,-131.5 460,-131.5 460,-112.5 384,-112.5"/>
<text text-anchor="middle" x="422" y="-119.5" font-family="Helvetica,sans-Serif" font-size="10.00">ceptr_types.h</text>
</a>
</g>
</g>
<!-- Node2&#45;&gt;Node3 -->
<g id="edge2" class="edge"><title>Node2&#45;&gt;Node3</title>
<path fill="none" stroke="midnightblue" d="M655.12,-280.309C615.101,-253.304 492.639,-170.667 443.114,-137.248"/>
<polygon fill="midnightblue" stroke="midnightblue" points="444.999,-134.297 434.752,-131.605 441.084,-140.1 444.999,-134.297"/>
</g>
<!-- Node4 -->
<g id="node4" class="node"><title>Node4</title>
<polygon fill="white" stroke="#bfbfbf" points="466.5,-56.5 466.5,-75.5 515.5,-75.5 515.5,-56.5 466.5,-56.5"/>
<text text-anchor="middle" x="491" y="-63.5" font-family="Helvetica,sans-Serif" font-size="10.00">stdint.h</text>
</g>
<!-- Node3&#45;&gt;Node4 -->
<g id="edge3" class="edge"><title>Node3&#45;&gt;Node4</title>
<path fill="none" stroke="midnightblue" d="M433.086,-112.324C443.486,-104.185 459.261,-91.8395 471.722,-82.0874"/>
<polygon fill="midnightblue" stroke="midnightblue" points="473.994,-84.7533 479.712,-75.8339 469.68,-79.2407 473.994,-84.7533"/>
</g>
<!-- Node5 -->
<g id="node5" class="node"><title>Node5</title>
<g id="a_node5"><a xlink:href="uthash_8h_source.html" target="_top" xlink:title="uthash.h">
<polygon fill="white" stroke="black" points="394,-56.5 394,-75.5 448,-75.5 448,-56.5 394,-56.5"/>
<text text-anchor="middle" x="421" y="-63.5" font-family="Helvetica,sans-Serif" font-size="10.00">uthash.h</text>
</a>
</g>
</g>
<!-- Node3&#45;&gt;Node5 -->
<g id="edge4" class="edge"><title>Node3&#45;&gt;Node5</title>
<path fill="none" stroke="midnightblue" d="M421.835,-112.083C421.704,-105.006 421.516,-94.8611 421.352,-85.9865"/>
<polygon fill="midnightblue" stroke="midnightblue" points="424.847,-85.6845 421.162,-75.7511 417.848,-85.8142 424.847,-85.6845"/>
</g>
<!-- Node6 -->
<g id="node6" class="node"><title>Node6</title>
<polygon fill="white" stroke="#bfbfbf" points="215.5,-0.5 215.5,-19.5 264.5,-19.5 264.5,-0.5 215.5,-0.5"/>
<text text-anchor="middle" x="240" y="-7.5" font-family="Helvetica,sans-Serif" font-size="10.00">string.h</text>
</g>
<!-- Node5&#45;&gt;Node6 -->
<g id="edge5" class="edge"><title>Node5&#45;&gt;Node6</title>
<path fill="none" stroke="midnightblue" d="M393.902,-56.9157C362.038,-47.4092 309.1,-31.6155 274.376,-21.2558"/>
<polygon fill="midnightblue" stroke="midnightblue" points="275.246,-17.8631 264.663,-18.358 273.245,-24.5709 275.246,-17.8631"/>
</g>
<!-- Node7 -->
<g id="node7" class="node"><title>Node7</title>
<polygon fill="white" stroke="#bfbfbf" points="358,-0.5 358,-19.5 410,-19.5 410,-0.5 358,-0.5"/>
<text text-anchor="middle" x="384" y="-7.5" font-family="Helvetica,sans-Serif" font-size="10.00">stddef.h</text>
</g>
<!-- Node5&#45;&gt;Node7 -->
<g id="edge6" class="edge"><title>Node5&#45;&gt;Node7</title>
<path fill="none" stroke="midnightblue" d="M414.89,-56.083C409.718,-48.5341 402.154,-37.4948 395.806,-28.2298"/>
<polygon fill="midnightblue" stroke="midnightblue" points="398.536,-26.0221 389.996,-19.7511 392.761,-29.9787 398.536,-26.0221"/>
</g>
<!-- Node8 -->
<g id="node8" class="node"><title>Node8</title>
<polygon fill="white" stroke="#bfbfbf" points="542,-0.5 542,-19.5 590,-19.5 590,-0.5 542,-0.5"/>
<text text-anchor="middle" x="566" y="-7.5" font-family="Helvetica,sans-Serif" font-size="10.00">stdlib.h</text>
</g>
<!-- Node5&#45;&gt;Node8 -->
<g id="edge7" class="edge"><title>Node5&#45;&gt;Node8</title>
<path fill="none" stroke="midnightblue" d="M443.976,-56.4435C468.157,-47.4381 506.418,-33.1891 533.646,-23.049"/>
<polygon fill="midnightblue" stroke="midnightblue" points="534.982,-26.2864 543.132,-19.5164 532.539,-19.7265 534.982,-26.2864"/>
</g>
<!-- Node9 -->
<g id="node9" class="node"><title>Node9</title>
<polygon fill="white" stroke="#bfbfbf" points="428.5,-0.5 428.5,-19.5 487.5,-19.5 487.5,-0.5 428.5,-0.5"/>
<text text-anchor="middle" x="458" y="-7.5" font-family="Helvetica,sans-Serif" font-size="10.00">inttypes.h</text>
</g>
<!-- Node5&#45;&gt;Node9 -->
<g id="edge8" class="edge"><title>Node5&#45;&gt;Node9</title>
<path fill="none" stroke="midnightblue" d="M427.11,-56.083C432.282,-48.5341 439.846,-37.4948 446.194,-28.2298"/>
<polygon fill="midnightblue" stroke="midnightblue" points="449.239,-29.9787 452.004,-19.7511 443.464,-26.0221 449.239,-29.9787"/>
</g>
<!-- Node10&#45;&gt;Node6 -->
<g id="edge10" class="edge"><title>Node10&#45;&gt;Node6</title>
<path fill="none" stroke="midnightblue" d="M253.858,-339.14C176.118,-325.513 0,-288.713 0,-235 0,-235 0,-235 0,-121 0,-31.8104 138.667,-14.6543 205.194,-11.5557"/>
<polygon fill="midnightblue" stroke="midnightblue" points="205.362,-15.0519 215.22,-11.1702 205.093,-8.05711 205.362,-15.0519"/>
</g>
<!-- Node10&#45;&gt;Node8 -->
<g id="edge12" class="edge"><title>Node10&#45;&gt;Node8</title>
<path fill="none" stroke="midnightblue" d="M326.02,-340.169C408.497,-328.1 604,-293.34 604,-235 604,-235 604,-235 604,-121 604,-86.8131 587.4,-49.7639 576.143,-28.5707"/>
<polygon fill="midnightblue" stroke="midnightblue" points="579.181,-26.832 571.284,-19.769 573.053,-30.2151 579.181,-26.832"/>
</g>
<!-- Node11 -->
<g id="node11" class="node"><title>Node11</title>
<polygon fill="white" stroke="#bfbfbf" points="28,-168.5 28,-187.5 74,-187.5 74,-168.5 28,-168.5"/>
<text text-anchor="middle" x="51" y="-175.5" font-family="Helvetica,sans-Serif" font-size="10.00">stdio.h</text>
</g>
<!-- Node10&#45;&gt;Node11 -->
<g id="edge11" class="edge"><title>Node10&#45;&gt;Node11</title>
<path fill="none" stroke="midnightblue" d="M276.384,-336.381C262.088,-327.328 238.957,-312.674 219,-300 179.866,-275.147 168.608,-271.106 131,-244 108.952,-228.108 84.9073,-208.195 68.9955,-194.625"/>
<polygon fill="midnightblue" stroke="midnightblue" points="70.9227,-191.667 61.0567,-187.805 66.3611,-196.976 70.9227,-191.667"/>
</g>
<!-- Node12 -->
<g id="node12" class="node"><title>Node12</title>
<g id="a_node12"><a xlink:href="ceptr__error_8h_source.html" target="_top" xlink:title="ceptr_error.h">
<polygon fill="white" stroke="black" points="140.5,-224.5 140.5,-243.5 211.5,-243.5 211.5,-224.5 140.5,-224.5"/>
<text text-anchor="middle" x="176" y="-231.5" font-family="Helvetica,sans-Serif" font-size="10.00">ceptr_error.h</text>
</a>
</g>
</g>
<!-- Node10&#45;&gt;Node12 -->
<g id="edge13" class="edge"><title>Node10&#45;&gt;Node12</title>
<path fill="none" stroke="midnightblue" d="M281.055,-336.368C261.908,-317.894 216.721,-274.293 192.316,-250.744"/>
<polygon fill="midnightblue" stroke="midnightblue" points="194.53,-248.016 184.904,-243.591 189.67,-253.054 194.53,-248.016"/>
</g>
<!-- Node15 -->
<g id="node15" class="node"><title>Node15</title>
<g id="a_node15"><a xlink:href="tree_8h.html" target="_top" xlink:title="semantic trees header file ">
<polygon fill="white" stroke="black" points="324.5,-280.5 324.5,-299.5 365.5,-299.5 365.5,-280.5 324.5,-280.5"/>
<text text-anchor="middle" x="345" y="-287.5" font-family="Helvetica,sans-Serif" font-size="10.00">tree.h</text>
</a>
</g>
</g>
<!-- Node10&#45;&gt;Node15 -->
<g id="edge17" class="edge"><title>Node10&#45;&gt;Node15</title>
<path fill="none" stroke="midnightblue" d="M299.082,-336.083C307.171,-328.141 319.195,-316.335 328.91,-306.797"/>
<polygon fill="midnightblue" stroke="midnightblue" points="331.403,-309.254 336.087,-299.751 326.499,-304.26 331.403,-309.254"/>
</g>
<!-- Node12&#45;&gt;Node11 -->
<g id="edge14" class="edge"><title>Node12&#45;&gt;Node11</title>
<path fill="none" stroke="midnightblue" d="M156.193,-224.444C135.713,-215.596 103.517,-201.687 80.1353,-191.586"/>
<polygon fill="midnightblue" stroke="midnightblue" points="81.282,-188.269 70.714,-187.516 78.5059,-194.695 81.282,-188.269"/>
</g>
<!-- Node13 -->
<g id="node13" class="node"><title>Node13</title>
<polygon fill="white" stroke="#bfbfbf" points="162,-168.5 162,-187.5 212,-187.5 212,-168.5 162,-168.5"/>
<text text-anchor="middle" x="187" y="-175.5" font-family="Helvetica,sans-Serif" font-size="10.00">signal.h</text>
</g>
<!-- Node12&#45;&gt;Node13 -->
<g id="edge15" class="edge"><title>Node12&#45;&gt;Node13</title>
<path fill="none" stroke="midnightblue" d="M177.816,-224.083C179.274,-216.927 181.371,-206.635 183.193,-197.691"/>
<polygon fill="midnightblue" stroke="midnightblue" points="186.651,-198.248 185.217,-187.751 179.792,-196.851 186.651,-198.248"/>
</g>
<!-- Node14 -->
<g id="node14" class="node"><title>Node14</title>
<polygon fill="white" stroke="#bfbfbf" points="92,-168.5 92,-187.5 144,-187.5 144,-168.5 92,-168.5"/>
<text text-anchor="middle" x="118" y="-175.5" font-family="Helvetica,sans-Serif" font-size="10.00">assert.h</text>
</g>
<!-- Node12&#45;&gt;Node14 -->
<g id="edge16" class="edge"><title>Node12&#45;&gt;Node14</title>
<path fill="none" stroke="midnightblue" d="M166.681,-224.324C158.107,-216.341 145.188,-204.313 134.812,-194.653"/>
<polygon fill="midnightblue" stroke="midnightblue" points="137.192,-192.086 127.488,-187.834 132.422,-197.21 137.192,-192.086"/>
</g>
<!-- Node15&#45;&gt;Node3 -->
<g id="edge27" class="edge"><title>Node15&#45;&gt;Node3</title>
<path fill="none" stroke="midnightblue" d="M351.272,-280.221C357.557,-271.283 367.368,-256.94 375,-244 389.24,-219.858 393.76,-214.091 404,-188 410.016,-172.672 414.854,-154.57 417.993,-141.367"/>
<polygon fill="midnightblue" stroke="midnightblue" points="421.41,-142.125 420.219,-131.597 414.585,-140.57 421.41,-142.125"/>
</g>
<!-- Node15&#45;&gt;Node6 -->
<g id="edge18" class="edge"><title>Node15&#45;&gt;Node6</title>
<path fill="none" stroke="midnightblue" d="M324.26,-283.319C304.68,-276.908 275.877,-264.592 259,-244 239.922,-220.721 240,-209.098 240,-179 240,-179 240,-179 240,-121 240,-88.948 240,-51.6426 240,-29.7489"/>
<polygon fill="midnightblue" stroke="midnightblue" points="243.5,-29.5577 240,-19.5578 236.5,-29.5578 243.5,-29.5577"/>
</g>
<!-- Node15&#45;&gt;Node8 -->
<g id="edge19" class="edge"><title>Node15&#45;&gt;Node8</title>
<path fill="none" stroke="midnightblue" d="M365.534,-287.004C411.292,-282.156 519.679,-268.338 546,-244 568.192,-223.48 566,-209.225 566,-179 566,-179 566,-179 566,-121 566,-88.948 566,-51.6426 566,-29.7489"/>
<polygon fill="midnightblue" stroke="midnightblue" points="569.5,-29.5577 566,-19.5578 562.5,-29.5578 569.5,-29.5577"/>
</g>
<!-- Node15&#45;&gt;Node12 -->
<g id="edge20" class="edge"><title>Node15&#45;&gt;Node12</title>
<path fill="none" stroke="midnightblue" d="M324.277,-282.379C296.44,-273.484 246.527,-257.535 212.364,-246.619"/>
<polygon fill="midnightblue" stroke="midnightblue" points="213.334,-243.255 202.744,-243.545 211.204,-249.923 213.334,-243.255"/>
</g>
<!-- Node16 -->
<g id="node16" class="node"><title>Node16</title>
<g id="a_node16"><a xlink:href="sys__symbols_8h.html" target="_top" xlink:title="Defines hard&#45;coded system defined symbols. ">
<polygon fill="white" stroke="black" points="268.5,-224.5 268.5,-243.5 351.5,-243.5 351.5,-224.5 268.5,-224.5"/>
<text text-anchor="middle" x="310" y="-231.5" font-family="Helvetica,sans-Serif" font-size="10.00">sys_symbols.h</text>
</a>
</g>
</g>
<!-- Node15&#45;&gt;Node16 -->
<g id="edge21" class="edge"><title>Node15&#45;&gt;Node16</title>
<path fill="none" stroke="midnightblue" d="M339.22,-280.083C334.328,-272.534 327.173,-261.495 321.167,-252.23"/>
<polygon fill="midnightblue" stroke="midnightblue" points="324.048,-250.239 315.672,-243.751 318.174,-254.046 324.048,-250.239"/>
</g>
<!-- Node17 -->
<g id="node17" class="node"><title>Node17</title>
<g id="a_node17"><a xlink:href="sys__structures_8h.html" target="_top" xlink:title="Defines hard&#45;coded system defined structures. ">
<polygon fill="white" stroke="black" points="306.5,-168.5 306.5,-187.5 395.5,-187.5 395.5,-168.5 306.5,-168.5"/>
<text text-anchor="middle" x="351" y="-175.5" font-family="Helvetica,sans-Serif" font-size="10.00">sys_structures.h</text>
</a>
</g>
</g>
<!-- Node15&#45;&gt;Node17 -->
<g id="edge25" class="edge"><title>Node15&#45;&gt;Node17</title>
<path fill="none" stroke="midnightblue" d="M348.856,-280.249C352.558,-271.333 357.889,-257.006 360,-244 362.538,-228.362 359.663,-210.533 356.507,-197.508"/>
<polygon fill="midnightblue" stroke="midnightblue" points="359.885,-196.595 353.902,-187.851 353.127,-198.417 359.885,-196.595"/>
</g>
<!-- Node18 -->
<g id="node18" class="node"><title>Node18</title>
<g id="a_node18"><a xlink:href="sys__processes_8h.html" target="_top" xlink:title="Defines hard&#45;coded system defined processes. ">
<polygon fill="white" stroke="black" points="446.5,-224.5 446.5,-243.5 537.5,-243.5 537.5,-224.5 446.5,-224.5"/>
<text text-anchor="middle" x="492" y="-231.5" font-family="Helvetica,sans-Serif" font-size="10.00">sys_processes.h</text>
</a>
</g>
</g>
<!-- Node15&#45;&gt;Node18 -->
<g id="edge26" class="edge"><title>Node15&#45;&gt;Node18</title>
<path fill="none" stroke="midnightblue" d="M365.75,-281.378C389.962,-272.484 430.314,-257.66 458.875,-247.168"/>
<polygon fill="midnightblue" stroke="midnightblue" points="460.259,-250.389 468.439,-243.655 457.846,-243.818 460.259,-250.389"/>
</g>
<!-- Node16&#45;&gt;Node3 -->
<g id="edge24" class="edge"><title>Node16&#45;&gt;Node3</title>
<path fill="none" stroke="midnightblue" d="M304.35,-224.142C296.608,-210.76 284.956,-185.136 297,-168 314.287,-143.403 346.377,-132.188 373.714,-127.104"/>
<polygon fill="midnightblue" stroke="midnightblue" points="374.611,-130.504 383.917,-125.44 373.484,-123.595 374.611,-130.504"/>
</g>
<!-- Node16&#45;&gt;Node17 -->
<g id="edge22" class="edge"><title>Node16&#45;&gt;Node17</title>
<path fill="none" stroke="midnightblue" d="M316.77,-224.083C322.562,-216.455 331.058,-205.264 338.138,-195.941"/>
<polygon fill="midnightblue" stroke="midnightblue" points="341.096,-197.832 344.356,-187.751 335.521,-193.599 341.096,-197.832"/>
</g>
<!-- Node17&#45;&gt;Node3 -->
<g id="edge23" class="edge"><title>Node17&#45;&gt;Node3</title>
<path fill="none" stroke="midnightblue" d="M362.407,-168.324C373.109,-160.185 389.341,-147.839 402.163,-138.087"/>
<polygon fill="midnightblue" stroke="midnightblue" points="404.544,-140.673 410.385,-131.834 400.307,-135.102 404.544,-140.673"/>
</g>
</g>
</svg>
