<?xml version="1.0" encoding="UTF-8" standalone="no"?>
<!DOCTYPE svg PUBLIC "-//W3C//DTD SVG 1.1//EN"
 "http://www.w3.org/Graphics/SVG/1.1/DTD/svg11.dtd">
<!-- Generated by graphviz version 2.38.0 (20140413.2041)
 -->
<!-- Title: src/label.h Pages: 1 -->
<!--zoomable 364 -->
<svg id="main" version="1.1" xmlns="http://www.w3.org/2000/svg" xmlns:xlink="http://www.w3.org/1999/xlink" xml:space="preserve" onload="init(evt)">
<style type="text/css"><![CDATA[
.edge:hover path { stroke: red; }
.edge:hover polygon { stroke: red; fill: red; }
]]></style>
<script type="text/javascript"><![CDATA[
var edges = document.getElementsByTagName('g');
if (edges && edges.length) {
  for (var i=0;i<edges.length;i++) {
    if (edges[i].id.substr(0,4)=='edge') {
      edges[i].setAttribute('class','edge');
    }
  }
}
]]></script>
        <defs>
                <circle id="rim" cx="0" cy="0" r="7"/>
                <circle id="rim2" cx="0" cy="0" r="3.5"/>
                <g id="zoomPlus">
                        <use xlink:href="#rim" fill="#404040">
                                <set attributeName="fill" to="#808080" begin="zoomplus.mouseover" end="zoomplus.mouseout"/>
                        </use>
                        <path d="M-4,0h8M0,-4v8" fill="none" stroke="white" stroke-width="1.5" pointer-events="none"/>
                </g>
                <g id="zoomMin">
                        <use xlink:href="#rim" fill="#404040">
                                <set attributeName="fill" to="#808080" begin="zoomminus.mouseover" end="zoomminus.mouseout"/>
                        </use>
                        <path d="M-4,0h8" fill="none" stroke="white" stroke-width="1.5" pointer-events="none"/>
                </g>
                <g id="dirArrow">
                        <path fill="none" stroke="white" stroke-width="1.5" d="M0,-3.0v7 M-2.5,-0.5L0,-3.0L2.5,-0.5"/>
                </g>
               <g id="resetDef">
                       <use xlink:href="#rim2" fill="#404040">
                               <set attributeName="fill" to="#808080" begin="reset.mouseover" end="reset.mouseout"/>
                       </use>
               </g>
        </defs>

<script type="text/javascript">
var viewWidth = 1910;
var viewHeight = 364;
var sectionId = 'dynsection-1';
</script>
<script xlink:href="svgpan.js"/>
<svg id="graph" class="graph">
<g id="viewport">
<title>src/label.h</title>
<polygon fill="white" stroke="none" points="-4,4 -4,-360 1906,-360 1906,4 -4,4"/>
<!-- Node1 -->
<g id="node1" class="node"><title>Node1</title>
<polygon fill="#bfbfbf" stroke="black" points="1546,-336.5 1546,-355.5 1608,-355.5 1608,-336.5 1546,-336.5"/>
<text text-anchor="middle" x="1577" y="-343.5" font-family="Helvetica,sans-Serif" font-size="10.00">src/label.h</text>
</g>
<!-- Node2 -->
<g id="node2" class="node"><title>Node2</title>
<g id="a_node2"><a xlink:href="receptor_8h.html" target="_top" xlink:title="receptor implementation header file ">
<polygon fill="white" stroke="black" points="1222.5,-280.5 1222.5,-299.5 1299.5,-299.5 1299.5,-280.5 1222.5,-280.5"/>
<text text-anchor="middle" x="1261" y="-287.5" font-family="Helvetica,sans-Serif" font-size="10.00">src/receptor.h</text>
</a>
</g>
</g>
<!-- Node1&#45;&gt;Node2 -->
<g id="edge1" class="edge"><title>Node1&#45;&gt;Node2</title>
<path fill="none" stroke="midnightblue" d="M1535.73,-337.948C1474.31,-327.452 1359.66,-307.86 1299.74,-297.62"/>
<polygon fill="midnightblue" stroke="midnightblue" points="1535.39,-341.44 1545.84,-339.674 1536.57,-334.54 1535.39,-341.44"/>
</g>
<!-- Node34 -->
<g id="node34" class="node"><title>Node34</title>
<g id="a_node34"><a xlink:href="label_8c.html" target="_top" xlink:title="Implementation of label tabels for semantic reference to parts of semantic trees. ...">
<polygon fill="white" stroke="black" points="1546,-280.5 1546,-299.5 1608,-299.5 1608,-280.5 1546,-280.5"/>
<text text-anchor="middle" x="1577" y="-287.5" font-family="Helvetica,sans-Serif" font-size="10.00">src/label.c</text>
</a>
</g>
</g>
<!-- Node1&#45;&gt;Node34 -->
<g id="edge68" class="edge"><title>Node1&#45;&gt;Node34</title>
<path fill="none" stroke="midnightblue" d="M1577,-325.805C1577,-316.91 1577,-306.78 1577,-299.751"/>
<polygon fill="midnightblue" stroke="midnightblue" points="1573.5,-326.083 1577,-336.083 1580.5,-326.083 1573.5,-326.083"/>
</g>
<!-- Node35 -->
<g id="node35" class="node"><title>Node35</title>
<g id="a_node35"><a xlink:href="label__spec_8h.html" target="_top" xlink:title="spec/label_spec.h">
<polygon fill="white" stroke="black" points="1740.5,-280.5 1740.5,-299.5 1835.5,-299.5 1835.5,-280.5 1740.5,-280.5"/>
<text text-anchor="middle" x="1788" y="-287.5" font-family="Helvetica,sans-Serif" font-size="10.00">spec/label_spec.h</text>
</a>
</g>
</g>
<!-- Node1&#45;&gt;Node35 -->
<g id="edge69" class="edge"><title>Node1&#45;&gt;Node35</title>
<path fill="none" stroke="midnightblue" d="M1618.06,-334.492C1657.91,-324.293 1717.64,-309.006 1754.65,-299.536"/>
<polygon fill="midnightblue" stroke="midnightblue" points="1616.95,-331.162 1608.13,-337.032 1618.69,-337.943 1616.95,-331.162"/>
</g>
<!-- Node3 -->
<g id="node3" class="node"><title>Node3</title>
<g id="a_node3"><a xlink:href="vmhost_8h.html" target="_top" xlink:title="vmhost implementation header file ">
<polygon fill="white" stroke="black" points="934,-224.5 934,-243.5 1008,-243.5 1008,-224.5 934,-224.5"/>
<text text-anchor="middle" x="971" y="-231.5" font-family="Helvetica,sans-Serif" font-size="10.00">src/vmhost.h</text>
</a>
</g>
</g>
<!-- Node2&#45;&gt;Node3 -->
<g id="edge2" class="edge"><title>Node2&#45;&gt;Node3</title>
<path fill="none" stroke="midnightblue" d="M1212.55,-279.978C1155.04,-269.27 1060.4,-251.646 1008.29,-241.944"/>
<polygon fill="midnightblue" stroke="midnightblue" points="1212.02,-283.439 1222.49,-281.829 1213.3,-276.558 1212.02,-283.439"/>
</g>
<!-- Node5 -->
<g id="node5" class="node"><title>Node5</title>
<g id="a_node5"><a xlink:href="accumulator_8c.html" target="_top" xlink:title="implementation file for accumulator ">
<polygon fill="white" stroke="black" points="577.5,-112.5 577.5,-131.5 672.5,-131.5 672.5,-112.5 577.5,-112.5"/>
<text text-anchor="middle" x="625" y="-119.5" font-family="Helvetica,sans-Serif" font-size="10.00">src/accumulator.c</text>
</a>
</g>
</g>
<!-- Node2&#45;&gt;Node5 -->
<g id="edge35" class="edge"><title>Node2&#45;&gt;Node5</title>
<path fill="none" stroke="midnightblue" d="M1212.23,-286.301C1146.19,-281.783 1025.06,-270.431 925,-244 812.875,-214.382 686.439,-153.815 641.735,-131.5"/>
<polygon fill="midnightblue" stroke="midnightblue" points="1212.14,-289.803 1222.35,-286.969 1212.6,-282.818 1212.14,-289.803"/>
</g>
<!-- Node14 -->
<g id="node14" class="node"><title>Node14</title>
<g id="a_node14"><a xlink:href="process_8c.html" target="_top" xlink:title="implementation of ceptr processing: instructions and run tree reduction ">
<polygon fill="white" stroke="black" points="388,-112.5 388,-131.5 464,-131.5 464,-112.5 388,-112.5"/>
<text text-anchor="middle" x="426" y="-119.5" font-family="Helvetica,sans-Serif" font-size="10.00">src/process.c</text>
</a>
</g>
</g>
<!-- Node2&#45;&gt;Node14 -->
<g id="edge49" class="edge"><title>Node2&#45;&gt;Node14</title>
<path fill="none" stroke="midnightblue" d="M1212.3,-287.983C1126.07,-285.382 941.263,-276.199 789,-244 654.791,-215.619 500.906,-154.293 446.413,-131.639"/>
<polygon fill="midnightblue" stroke="midnightblue" points="1212.22,-291.483 1222.32,-288.269 1212.42,-284.485 1212.22,-291.483"/>
</g>
<!-- Node15 -->
<g id="node15" class="node"><title>Node15</title>
<g id="a_node15"><a xlink:href="receptor_8c.html" target="_top" xlink:title="receptor implementation ">
<polygon fill="white" stroke="black" points="482.5,-112.5 482.5,-131.5 559.5,-131.5 559.5,-112.5 482.5,-112.5"/>
<text text-anchor="middle" x="521" y="-119.5" font-family="Helvetica,sans-Serif" font-size="10.00">src/receptor.c</text>
</a>
</g>
</g>
<!-- Node2&#45;&gt;Node15 -->
<g id="edge50" class="edge"><title>Node2&#45;&gt;Node15</title>
<path fill="none" stroke="midnightblue" d="M1212.24,-287.123C1136.3,-283.395 985.535,-272.761 861,-244 734.937,-214.886 591.022,-154.01 540.08,-131.557"/>
<polygon fill="midnightblue" stroke="midnightblue" points="1212.3,-290.63 1222.45,-287.605 1212.63,-283.637 1212.3,-290.63"/>
</g>
<!-- Node18 -->
<g id="node18" class="node"><title>Node18</title>
<g id="a_node18"><a xlink:href="http__example_8h.html" target="_top" xlink:title="spec/http_example.h">
<polygon fill="white" stroke="black" points="1006.5,-112.5 1006.5,-131.5 1113.5,-131.5 1113.5,-112.5 1006.5,-112.5"/>
<text text-anchor="middle" x="1060" y="-119.5" font-family="Helvetica,sans-Serif" font-size="10.00">spec/http_example.h</text>
</a>
</g>
</g>
<!-- Node2&#45;&gt;Node18 -->
<g id="edge58" class="edge"><title>Node2&#45;&gt;Node18</title>
<path fill="none" stroke="midnightblue" d="M1212.45,-284.419C1160.95,-278.462 1084.5,-266.108 1066,-244 1038.33,-210.933 1051.13,-153.233 1057.32,-131.556"/>
<polygon fill="midnightblue" stroke="midnightblue" points="1212.06,-287.898 1222.39,-285.526 1212.84,-280.941 1212.06,-287.898"/>
</g>
<!-- Node19 -->
<g id="node19" class="node"><title>Node19</title>
<g id="a_node19"><a xlink:href="tree__spec_8h.html" target="_top" xlink:title="spec/tree_spec.h">
<polygon fill="white" stroke="black" points="1249,-56.5 1249,-75.5 1341,-75.5 1341,-56.5 1249,-56.5"/>
<text text-anchor="middle" x="1295" y="-63.5" font-family="Helvetica,sans-Serif" font-size="10.00">spec/tree_spec.h</text>
</a>
</g>
</g>
<!-- Node2&#45;&gt;Node19 -->
<g id="edge57" class="edge"><title>Node2&#45;&gt;Node19</title>
<path fill="none" stroke="midnightblue" d="M1263.86,-270.295C1270.86,-224.644 1288.59,-108.854 1293.64,-75.8837"/>
<polygon fill="midnightblue" stroke="midnightblue" points="1260.39,-269.883 1262.33,-280.297 1267.31,-270.942 1260.39,-269.883"/>
</g>
<!-- Node20 -->
<g id="node20" class="node"><title>Node20</title>
<g id="a_node20"><a xlink:href="mtree__spec_8h.html" target="_top" xlink:title="spec/mtree_spec.h">
<polygon fill="white" stroke="black" points="1359,-56.5 1359,-75.5 1459,-75.5 1459,-56.5 1359,-56.5"/>
<text text-anchor="middle" x="1409" y="-63.5" font-family="Helvetica,sans-Serif" font-size="10.00">spec/mtree_spec.h</text>
</a>
</g>
</g>
<!-- Node2&#45;&gt;Node20 -->
<g id="edge59" class="edge"><title>Node2&#45;&gt;Node20</title>
<path fill="none" stroke="midnightblue" d="M1272.52,-271.722C1302.26,-227.107 1380.86,-109.203 1403.08,-75.8837"/>
<polygon fill="midnightblue" stroke="midnightblue" points="1269.44,-270.035 1266.8,-280.297 1275.26,-273.918 1269.44,-270.035"/>
</g>
<!-- Node21 -->
<g id="node21" class="node"><title>Node21</title>
<g id="a_node21"><a xlink:href="receptor__spec_8h.html" target="_top" xlink:title="spec/receptor_spec.h">
<polygon fill="white" stroke="black" points="1083,-56.5 1083,-75.5 1193,-75.5 1193,-56.5 1083,-56.5"/>
<text text-anchor="middle" x="1138" y="-63.5" font-family="Helvetica,sans-Serif" font-size="10.00">spec/receptor_spec.h</text>
</a>
</g>
</g>
<!-- Node2&#45;&gt;Node21 -->
<g id="edge62" class="edge"><title>Node2&#45;&gt;Node21</title>
<path fill="none" stroke="midnightblue" d="M1309.76,-287.139C1373.71,-283.556 1480.66,-273.243 1505,-244 1510.69,-237.168 1510.5,-230.985 1505,-224 1462.86,-170.468 1418.97,-214.007 1356,-188 1295.91,-163.18 1288.11,-143.084 1231,-112 1205.95,-98.3654 1176.14,-84.3085 1157.15,-75.6134"/>
<polygon fill="midnightblue" stroke="midnightblue" points="1309.31,-283.658 1299.5,-287.677 1309.67,-290.648 1309.31,-283.658"/>
</g>
<!-- Node23 -->
<g id="node23" class="node"><title>Node23</title>
<g id="a_node23"><a xlink:href="base__defs_8c.html" target="_top" xlink:title="auto&#45;generated system definitions ">
<polygon fill="white" stroke="black" points="0,-112.5 0,-131.5 86,-131.5 86,-112.5 0,-112.5"/>
<text text-anchor="middle" x="43" y="-119.5" font-family="Helvetica,sans-Serif" font-size="10.00">src/base_defs.c</text>
</a>
</g>
</g>
<!-- Node2&#45;&gt;Node23 -->
<g id="edge36" class="edge"><title>Node2&#45;&gt;Node23</title>
<path fill="none" stroke="midnightblue" d="M1211.83,-288.198C1051.94,-285.32 547.837,-274.034 388,-244 258.247,-219.619 111.589,-154.978 61.1535,-131.595"/>
<polygon fill="midnightblue" stroke="midnightblue" points="1212.24,-291.706 1222.3,-288.384 1212.37,-284.707 1212.24,-291.706"/>
</g>
<!-- Node24 -->
<g id="node24" class="node"><title>Node24</title>
<g id="a_node24"><a xlink:href="protocol_8h.html" target="_top" xlink:title="protocol helpers header file ">
<polygon fill="white" stroke="black" points="228,-168.5 228,-187.5 304,-187.5 304,-168.5 228,-168.5"/>
<text text-anchor="middle" x="266" y="-175.5" font-family="Helvetica,sans-Serif" font-size="10.00">src/protocol.h</text>
</a>
</g>
</g>
<!-- Node2&#45;&gt;Node24 -->
<g id="edge37" class="edge"><title>Node2&#45;&gt;Node24</title>
<path fill="none" stroke="midnightblue" d="M1212.1,-287.802C1062.93,-283.896 615.157,-270.244 472,-244 402.467,-231.253 323.644,-202.036 286.91,-187.515"/>
<polygon fill="midnightblue" stroke="midnightblue" points="1212.23,-291.306 1222.32,-288.066 1212.41,-284.309 1212.23,-291.306"/>
</g>
<!-- Node26 -->
<g id="node26" class="node"><title>Node26</title>
<g id="a_node26"><a xlink:href="sys__defs_8c.html" target="_top" xlink:title="definition of system semantic elements for bootstrapping ">
<polygon fill="white" stroke="black" points="1075.5,-224.5 1075.5,-243.5 1156.5,-243.5 1156.5,-224.5 1075.5,-224.5"/>
<text text-anchor="middle" x="1116" y="-231.5" font-family="Helvetica,sans-Serif" font-size="10.00">src/sys_defs.c</text>
</a>
</g>
</g>
<!-- Node2&#45;&gt;Node26 -->
<g id="edge51" class="edge"><title>Node2&#45;&gt;Node26</title>
<path fill="none" stroke="midnightblue" d="M1228.52,-276.906C1201.26,-266.754 1163.01,-252.506 1138.87,-243.516"/>
<polygon fill="midnightblue" stroke="midnightblue" points="1227.43,-280.233 1238.02,-280.444 1229.87,-273.674 1227.43,-280.233"/>
</g>
<!-- Node27 -->
<g id="node27" class="node"><title>Node27</title>
<g id="a_node27"><a xlink:href="tree_8c.html" target="_top" xlink:title="semantic tree pointer implementation ">
<polygon fill="white" stroke="black" points="1175,-224.5 1175,-243.5 1233,-243.5 1233,-224.5 1175,-224.5"/>
<text text-anchor="middle" x="1204" y="-231.5" font-family="Helvetica,sans-Serif" font-size="10.00">src/tree.c</text>
</a>
</g>
</g>
<!-- Node2&#45;&gt;Node27 -->
<g id="edge52" class="edge"><title>Node2&#45;&gt;Node27</title>
<path fill="none" stroke="midnightblue" d="M1244.38,-273.253C1234.27,-263.673 1221.72,-251.791 1213.32,-243.834"/>
<polygon fill="midnightblue" stroke="midnightblue" points="1242.18,-275.987 1251.84,-280.324 1246.99,-270.906 1242.18,-275.987"/>
</g>
<!-- Node28 -->
<g id="node28" class="node"><title>Node28</title>
<g id="a_node28"><a xlink:href="semtable__spec_8h.html" target="_top" xlink:title="spec/semtable_spec.h">
<polygon fill="white" stroke="black" points="1365.5,-168.5 1365.5,-187.5 1480.5,-187.5 1480.5,-168.5 1365.5,-168.5"/>
<text text-anchor="middle" x="1423" y="-175.5" font-family="Helvetica,sans-Serif" font-size="10.00">spec/semtable_spec.h</text>
</a>
</g>
</g>
<!-- Node2&#45;&gt;Node28 -->
<g id="edge53" class="edge"><title>Node2&#45;&gt;Node28</title>
<path fill="none" stroke="midnightblue" d="M1282.04,-274.714C1316.18,-251.535 1382.6,-206.43 1410.35,-187.591"/>
<polygon fill="midnightblue" stroke="midnightblue" points="1280.02,-271.855 1273.71,-280.368 1283.95,-277.647 1280.02,-271.855"/>
</g>
<!-- Node29 -->
<g id="node29" class="node"><title>Node29</title>
<g id="a_node29"><a xlink:href="def__spec_8h.html" target="_top" xlink:title="spec/def_spec.h">
<polygon fill="white" stroke="black" points="1498.5,-168.5 1498.5,-187.5 1587.5,-187.5 1587.5,-168.5 1498.5,-168.5"/>
<text text-anchor="middle" x="1543" y="-175.5" font-family="Helvetica,sans-Serif" font-size="10.00">spec/def_spec.h</text>
</a>
</g>
</g>
<!-- Node2&#45;&gt;Node29 -->
<g id="edge55" class="edge"><title>Node2&#45;&gt;Node29</title>
<path fill="none" stroke="midnightblue" d="M1288.96,-276.134C1307.96,-267.296 1333.62,-255.185 1356,-244 1373.07,-235.469 1376.34,-231.236 1394,-224 1432.01,-208.426 1477.41,-195.482 1508.03,-187.535"/>
<polygon fill="midnightblue" stroke="midnightblue" points="1287.28,-273.054 1279.68,-280.435 1290.22,-279.405 1287.28,-273.054"/>
</g>
<!-- Node30 -->
<g id="node30" class="node"><title>Node30</title>
<g id="a_node30"><a xlink:href="semtrex__spec_8h.html" target="_top" xlink:title="spec/semtrex_spec.h">
<polygon fill="white" stroke="black" points="1606,-168.5 1606,-187.5 1716,-187.5 1716,-168.5 1606,-168.5"/>
<text text-anchor="middle" x="1661" y="-175.5" font-family="Helvetica,sans-Serif" font-size="10.00">spec/semtrex_spec.h</text>
</a>
</g>
</g>
<!-- Node2&#45;&gt;Node30 -->
<g id="edge60" class="edge"><title>Node2&#45;&gt;Node30</title>
<path fill="none" stroke="midnightblue" d="M1309.8,-285.966C1366.25,-281.354 1461.36,-270.161 1539,-244 1581.3,-229.746 1626.54,-201.892 1648.11,-187.725"/>
<polygon fill="midnightblue" stroke="midnightblue" points="1309.43,-282.485 1299.73,-286.752 1309.97,-289.463 1309.43,-282.485"/>
</g>
<!-- Node31 -->
<g id="node31" class="node"><title>Node31</title>
<g id="a_node31"><a xlink:href="scape__spec_8h.html" target="_top" xlink:title="spec/scape_spec.h">
<polygon fill="white" stroke="black" points="1734.5,-168.5 1734.5,-187.5 1835.5,-187.5 1835.5,-168.5 1734.5,-168.5"/>
<text text-anchor="middle" x="1785" y="-175.5" font-family="Helvetica,sans-Serif" font-size="10.00">spec/scape_spec.h</text>
</a>
</g>
</g>
<!-- Node2&#45;&gt;Node31 -->
<g id="edge63" class="edge"><title>Node2&#45;&gt;Node31</title>
<path fill="none" stroke="midnightblue" d="M1309.98,-284.451C1372.31,-278.105 1483.03,-264.957 1576,-244 1644.76,-228.5 1723.61,-201.334 1761.82,-187.547"/>
<polygon fill="midnightblue" stroke="midnightblue" points="1309.27,-281.005 1299.67,-285.484 1309.97,-287.97 1309.27,-281.005"/>
</g>
<!-- Node32 -->
<g id="node32" class="node"><title>Node32</title>
<g id="a_node32"><a xlink:href="profile__example_8h.html" target="_top" xlink:title="spec/profile_example.h">
<polygon fill="white" stroke="black" points="1737.5,-224.5 1737.5,-243.5 1854.5,-243.5 1854.5,-224.5 1737.5,-224.5"/>
<text text-anchor="middle" x="1796" y="-231.5" font-family="Helvetica,sans-Serif" font-size="10.00">spec/profile_example.h</text>
</a>
</g>
</g>
<!-- Node2&#45;&gt;Node32 -->
<g id="edge65" class="edge"><title>Node2&#45;&gt;Node32</title>
<path fill="none" stroke="midnightblue" d="M1309.9,-284.065C1408.48,-274.115 1630.71,-251.683 1737.09,-240.946"/>
<polygon fill="midnightblue" stroke="midnightblue" points="1309.5,-280.586 1299.91,-285.073 1310.21,-287.551 1309.5,-280.586"/>
</g>
<!-- Node33 -->
<g id="node33" class="node"><title>Node33</title>
<g id="a_node33"><a xlink:href="spec__utils_8c.html" target="_top" xlink:title="spec/spec_utils.c">
<polygon fill="white" stroke="black" points="1403.5,-224.5 1403.5,-243.5 1496.5,-243.5 1496.5,-224.5 1403.5,-224.5"/>
<text text-anchor="middle" x="1450" y="-231.5" font-family="Helvetica,sans-Serif" font-size="10.00">spec/spec_utils.c</text>
</a>
</g>
</g>
<!-- Node2&#45;&gt;Node33 -->
<g id="edge67" class="edge"><title>Node2&#45;&gt;Node33</title>
<path fill="none" stroke="midnightblue" d="M1301.01,-277.568C1336.67,-267.381 1388.04,-252.703 1420.19,-243.516"/>
<polygon fill="midnightblue" stroke="midnightblue" points="1299.6,-274.331 1290.95,-280.444 1301.52,-281.062 1299.6,-274.331"/>
</g>
<!-- Node4 -->
<g id="node4" class="node"><title>Node4</title>
<g id="a_node4"><a xlink:href="accumulator_8h.html" target="_top" xlink:title="header file for the accumulator ">
<polygon fill="white" stroke="black" points="847.5,-168.5 847.5,-187.5 942.5,-187.5 942.5,-168.5 847.5,-168.5"/>
<text text-anchor="middle" x="895" y="-175.5" font-family="Helvetica,sans-Serif" font-size="10.00">src/accumulator.h</text>
</a>
</g>
</g>
<!-- Node3&#45;&gt;Node4 -->
<g id="edge3" class="edge"><title>Node3&#45;&gt;Node4</title>
<path fill="none" stroke="midnightblue" d="M950.424,-218.38C936.688,-208.62 919.075,-196.106 907.433,-187.834"/>
<polygon fill="midnightblue" stroke="midnightblue" points="948.61,-221.385 958.789,-224.324 952.665,-215.679 948.61,-221.385"/>
</g>
<!-- Node9 -->
<g id="node9" class="node"><title>Node9</title>
<g id="a_node9"><a xlink:href="vmhost__spec_8h.html" target="_top" xlink:title="spec/vmhost_spec.h">
<polygon fill="white" stroke="black" points="730.5,-56.5 730.5,-75.5 837.5,-75.5 837.5,-56.5 730.5,-56.5"/>
<text text-anchor="middle" x="784" y="-63.5" font-family="Helvetica,sans-Serif" font-size="10.00">spec/vmhost_spec.h</text>
</a>
</g>
</g>
<!-- Node3&#45;&gt;Node9 -->
<g id="edge34" class="edge"><title>Node3&#45;&gt;Node9</title>
<path fill="none" stroke="midnightblue" d="M923.78,-225.235C896.482,-218.862 862.751,-207.578 838,-188 800.833,-158.601 788.516,-98.166 785.122,-75.6799"/>
<polygon fill="midnightblue" stroke="midnightblue" points="923.379,-228.73 933.896,-227.444 924.872,-221.891 923.379,-228.73"/>
</g>
<!-- Node16 -->
<g id="node16" class="node"><title>Node16</title>
<g id="a_node16"><a xlink:href="vmhost_8c.html" target="_top" xlink:title="virtual machine host receptor implementation ">
<polygon fill="white" stroke="black" points="1132,-112.5 1132,-131.5 1206,-131.5 1206,-112.5 1132,-112.5"/>
<text text-anchor="middle" x="1169" y="-119.5" font-family="Helvetica,sans-Serif" font-size="10.00">src/vmhost.c</text>
</a>
</g>
</g>
<!-- Node3&#45;&gt;Node16 -->
<g id="edge31" class="edge"><title>Node3&#45;&gt;Node16</title>
<path fill="none" stroke="midnightblue" d="M995.397,-219.446C1036.7,-196.497 1119.26,-150.631 1153.54,-131.591"/>
<polygon fill="midnightblue" stroke="midnightblue" points="993.579,-216.452 986.537,-224.368 996.978,-222.572 993.579,-216.452"/>
</g>
<!-- Node3&#45;&gt;Node18 -->
<g id="edge32" class="edge"><title>Node3&#45;&gt;Node18</title>
<path fill="none" stroke="midnightblue" d="M974.695,-214.31C978.154,-200.443 984.415,-181.653 995,-168 1007.53,-151.838 1027.49,-139.245 1041.99,-131.542"/>
<polygon fill="midnightblue" stroke="midnightblue" points="971.254,-213.662 972.494,-224.184 978.086,-215.185 971.254,-213.662"/>
</g>
<!-- Node3&#45;&gt;Node21 -->
<g id="edge33" class="edge"><title>Node3&#45;&gt;Node21</title>
<path fill="none" stroke="midnightblue" d="M1018.38,-228.793C1076.17,-220.826 1171.52,-197.875 1215,-132 1231.38,-107.179 1192.05,-86.6599 1163.78,-75.6746"/>
<polygon fill="midnightblue" stroke="midnightblue" points="1017.87,-225.33 1008.39,-230.073 1018.76,-232.273 1017.87,-225.33"/>
</g>
<!-- Node22 -->
<g id="node22" class="node"><title>Node22</title>
<g id="a_node22"><a xlink:href="protocol_8c.html" target="_top" xlink:title="implementation of protocol helpers ">
<polygon fill="white" stroke="black" points="294,-112.5 294,-131.5 370,-131.5 370,-112.5 294,-112.5"/>
<text text-anchor="middle" x="332" y="-119.5" font-family="Helvetica,sans-Serif" font-size="10.00">src/protocol.c</text>
</a>
</g>
</g>
<!-- Node3&#45;&gt;Node22 -->
<g id="edge30" class="edge"><title>Node3&#45;&gt;Node22</title>
<path fill="none" stroke="midnightblue" d="M923.778,-225.277C823.39,-208.784 581.388,-168.638 379,-132 376.139,-131.482 373.181,-130.937 370.207,-130.383"/>
<polygon fill="midnightblue" stroke="midnightblue" points="923.46,-228.771 933.895,-226.937 924.594,-221.864 923.46,-228.771"/>
</g>
<!-- Node4&#45;&gt;Node5 -->
<g id="edge4" class="edge"><title>Node4&#45;&gt;Node5</title>
<path fill="none" stroke="midnightblue" d="M842.367,-166.473C791.339,-156.268 714.897,-140.979 667.582,-131.516"/>
<polygon fill="midnightblue" stroke="midnightblue" points="841.725,-169.914 852.218,-168.444 843.098,-163.05 841.725,-169.914"/>
</g>
<!-- Node6 -->
<g id="node6" class="node"><title>Node6</title>
<g id="a_node6"><a xlink:href="ceptr_8c.html" target="_top" xlink:title="implements main() entry point for the ceptr node ">
<polygon fill="white" stroke="black" points="855.5,-56.5 855.5,-75.5 918.5,-75.5 918.5,-56.5 855.5,-56.5"/>
<text text-anchor="middle" x="887" y="-63.5" font-family="Helvetica,sans-Serif" font-size="10.00">src/ceptr.c</text>
</a>
</g>
</g>
<!-- Node4&#45;&gt;Node6 -->
<g id="edge5" class="edge"><title>Node4&#45;&gt;Node6</title>
<path fill="none" stroke="midnightblue" d="M893.643,-158.348C891.891,-134.254 888.913,-93.3079 887.625,-75.5914"/>
<polygon fill="midnightblue" stroke="midnightblue" points="890.156,-158.649 894.372,-168.368 897.138,-158.141 890.156,-158.649"/>
</g>
<!-- Node7 -->
<g id="node7" class="node"><title>Node7</title>
<g id="a_node7"><a xlink:href="shell_8h.html" target="_top" xlink:title="command line shell receptor header files ">
<polygon fill="white" stroke="black" points="812,-112.5 812,-131.5 874,-131.5 874,-112.5 812,-112.5"/>
<text text-anchor="middle" x="843" y="-119.5" font-family="Helvetica,sans-Serif" font-size="10.00">src/shell.h</text>
</a>
</g>
</g>
<!-- Node4&#45;&gt;Node7 -->
<g id="edge6" class="edge"><title>Node4&#45;&gt;Node7</title>
<path fill="none" stroke="midnightblue" d="M879.321,-160.718C870.155,-151.2 858.947,-139.561 851.427,-131.751"/>
<polygon fill="midnightblue" stroke="midnightblue" points="876.956,-163.308 886.413,-168.083 881.998,-158.452 876.956,-163.308"/>
</g>
<!-- Node11 -->
<g id="node11" class="node"><title>Node11</title>
<g id="a_node11"><a xlink:href="group_8h.html" target="_top" xlink:title="group communication receptors header file ">
<polygon fill="white" stroke="black" points="690.5,-112.5 690.5,-131.5 755.5,-131.5 755.5,-112.5 690.5,-112.5"/>
<text text-anchor="middle" x="723" y="-119.5" font-family="Helvetica,sans-Serif" font-size="10.00">src/group.h</text>
</a>
</g>
</g>
<!-- Node4&#45;&gt;Node11 -->
<g id="edge11" class="edge"><title>Node4&#45;&gt;Node11</title>
<path fill="none" stroke="midnightblue" d="M858.168,-165.436C825.738,-155.255 779.263,-140.664 750.126,-131.516"/>
<polygon fill="midnightblue" stroke="midnightblue" points="857.157,-168.787 867.746,-168.444 859.254,-162.109 857.157,-168.787"/>
</g>
<!-- Node4&#45;&gt;Node14 -->
<g id="edge15" class="edge"><title>Node4&#45;&gt;Node14</title>
<path fill="none" stroke="midnightblue" d="M837.323,-172.376C755.882,-165.501 602.642,-151.291 473,-132 470.124,-131.572 467.156,-131.093 464.174,-130.584"/>
<polygon fill="midnightblue" stroke="midnightblue" points="837.114,-175.871 847.372,-173.218 837.699,-168.895 837.114,-175.871"/>
</g>
<!-- Node4&#45;&gt;Node15 -->
<g id="edge16" class="edge"><title>Node4&#45;&gt;Node15</title>
<path fill="none" stroke="midnightblue" d="M837.389,-170C771.958,-161.835 662.065,-147.468 568,-132 565.295,-131.555 562.506,-131.075 559.7,-130.577"/>
<polygon fill="midnightblue" stroke="midnightblue" points="837.144,-173.496 847.499,-171.257 838.007,-166.55 837.144,-173.496"/>
</g>
<!-- Node4&#45;&gt;Node16 -->
<g id="edge17" class="edge"><title>Node4&#45;&gt;Node16</title>
<path fill="none" stroke="midnightblue" d="M948.502,-166.456C1002.56,-155.802 1084.66,-139.622 1131.94,-130.304"/>
<polygon fill="midnightblue" stroke="midnightblue" points="947.551,-163.076 938.416,-168.444 948.904,-169.944 947.551,-163.076"/>
</g>
<!-- Node17 -->
<g id="node17" class="node"><title>Node17</title>
<g id="a_node17"><a xlink:href="accumulator__spec_8h_source.html" target="_top" xlink:title="spec/accumulator_spec.h">
<polygon fill="white" stroke="black" points="937,-56.5 937,-75.5 1065,-75.5 1065,-56.5 937,-56.5"/>
<text text-anchor="middle" x="1001" y="-63.5" font-family="Helvetica,sans-Serif" font-size="10.00">spec/accumulator_spec.h</text>
</a>
</g>
</g>
<!-- Node4&#45;&gt;Node17 -->
<g id="edge18" class="edge"><title>Node4&#45;&gt;Node17</title>
<path fill="none" stroke="midnightblue" d="M910.518,-160.897C933.306,-137.249 975.031,-93.9493 992.721,-75.5914"/>
<polygon fill="midnightblue" stroke="midnightblue" points="907.736,-158.739 903.318,-168.368 912.777,-163.596 907.736,-158.739"/>
</g>
<!-- Node4&#45;&gt;Node18 -->
<g id="edge20" class="edge"><title>Node4&#45;&gt;Node18</title>
<path fill="none" stroke="midnightblue" d="M930.736,-165.304C961.827,-155.129 1006.15,-140.625 1033.98,-131.516"/>
<polygon fill="midnightblue" stroke="midnightblue" points="929.56,-162.007 921.145,-168.444 931.737,-168.659 929.56,-162.007"/>
</g>
<!-- Node4&#45;&gt;Node21 -->
<g id="edge29" class="edge"><title>Node4&#45;&gt;Node21</title>
<path fill="none" stroke="midnightblue" d="M915.891,-162.78C940.693,-146.06 980.742,-119.617 997,-112 1031.55,-95.811 1073.46,-83.2617 1102.57,-75.5769"/>
<polygon fill="midnightblue" stroke="midnightblue" points="913.836,-159.945 907.515,-168.447 917.758,-165.742 913.836,-159.945"/>
</g>
<!-- Node7&#45;&gt;Node6 -->
<g id="edge7" class="edge"><title>Node7&#45;&gt;Node6</title>
<path fill="none" stroke="midnightblue" d="M856.735,-104.144C864.401,-94.7357 873.633,-83.4046 879.869,-75.7511"/>
<polygon fill="midnightblue" stroke="midnightblue" points="853.869,-102.12 850.266,-112.083 859.296,-106.541 853.869,-102.12"/>
</g>
<!-- Node8 -->
<g id="node8" class="node"><title>Node8</title>
<g id="a_node8"><a xlink:href="shell_8c.html" target="_top" xlink:title="implementation of a command line shell receptor ">
<polygon fill="white" stroke="black" points="500,-56.5 500,-75.5 562,-75.5 562,-56.5 500,-56.5"/>
<text text-anchor="middle" x="531" y="-63.5" font-family="Helvetica,sans-Serif" font-size="10.00">src/shell.c</text>
</a>
</g>
</g>
<!-- Node7&#45;&gt;Node8 -->
<g id="edge8" class="edge"><title>Node7&#45;&gt;Node8</title>
<path fill="none" stroke="midnightblue" d="M801.941,-113.894C738.779,-102.962 619.148,-82.2565 562.394,-72.4336"/>
<polygon fill="midnightblue" stroke="midnightblue" points="801.493,-117.368 811.944,-115.625 802.687,-110.471 801.493,-117.368"/>
</g>
<!-- Node7&#45;&gt;Node9 -->
<g id="edge9" class="edge"><title>Node7&#45;&gt;Node9</title>
<path fill="none" stroke="midnightblue" d="M826.105,-105.537C815.585,-95.9087 802.431,-83.8694 793.652,-75.8339"/>
<polygon fill="midnightblue" stroke="midnightblue" points="823.781,-108.154 833.521,-112.324 828.507,-102.99 823.781,-108.154"/>
</g>
<!-- Node10 -->
<g id="node10" class="node"><title>Node10</title>
<g id="a_node10"><a xlink:href="ceptr__specs_8c.html" target="_top" xlink:title="implements a main() entry point for running all the tests ">
<polygon fill="white" stroke="black" points="1301,-0.5 1301,-19.5 1403,-19.5 1403,-0.5 1301,-0.5"/>
<text text-anchor="middle" x="1352" y="-7.5" font-family="Helvetica,sans-Serif" font-size="10.00">spec/ceptr_specs.c</text>
</a>
</g>
</g>
<!-- Node9&#45;&gt;Node10 -->
<g id="edge10" class="edge"><title>Node9&#45;&gt;Node10</title>
<path fill="none" stroke="midnightblue" d="M847.724,-55.8509C1019.48,-36.0051 1211.24,-21.1294 1300.91,-14.6019"/>
<polygon fill="midnightblue" stroke="midnightblue" points="847.273,-52.3797 837.745,-57.0123 848.082,-59.3328 847.273,-52.3797"/>
</g>
<!-- Node12 -->
<g id="node12" class="node"><title>Node12</title>
<g id="a_node12"><a xlink:href="group_8c.html" target="_top" xlink:title="implementation of some group communication receptors ">
<polygon fill="white" stroke="black" points="351.5,-56.5 351.5,-75.5 416.5,-75.5 416.5,-56.5 351.5,-56.5"/>
<text text-anchor="middle" x="384" y="-63.5" font-family="Helvetica,sans-Serif" font-size="10.00">src/group.c</text>
</a>
</g>
</g>
<!-- Node11&#45;&gt;Node12 -->
<g id="edge12" class="edge"><title>Node11&#45;&gt;Node12</title>
<path fill="none" stroke="midnightblue" d="M680.597,-112.027C578.261,-93.5323 469.71,-78.3949 416.629,-71.2835"/>
<polygon fill="midnightblue" stroke="midnightblue" points="680.014,-115.479 690.479,-113.827 681.269,-108.592 680.014,-115.479"/>
</g>
<!-- Node13 -->
<g id="node13" class="node"><title>Node13</title>
<g id="a_node13"><a xlink:href="group__spec_8h.html" target="_top" xlink:title="spec/group_spec.h">
<polygon fill="white" stroke="black" points="613.5,-56.5 613.5,-75.5 712.5,-75.5 712.5,-56.5 613.5,-56.5"/>
<text text-anchor="middle" x="663" y="-63.5" font-family="Helvetica,sans-Serif" font-size="10.00">spec/group_spec.h</text>
</a>
</g>
</g>
<!-- Node11&#45;&gt;Node13 -->
<g id="edge13" class="edge"><title>Node11&#45;&gt;Node13</title>
<path fill="none" stroke="midnightblue" d="M705.819,-105.537C695.121,-95.9087 681.744,-83.8694 672.815,-75.8339"/>
<polygon fill="midnightblue" stroke="midnightblue" points="703.586,-108.236 713.36,-112.324 708.268,-103.033 703.586,-108.236"/>
</g>
<!-- Node13&#45;&gt;Node10 -->
<g id="edge14" class="edge"><title>Node13&#45;&gt;Node10</title>
<path fill="none" stroke="midnightblue" d="M722.791,-55.8806C943.474,-31.3188 1194.74,-18.1085 1300.75,-13.215"/>
<polygon fill="midnightblue" stroke="midnightblue" points="722.184,-52.4266 712.638,-57.0211 722.966,-59.3828 722.184,-52.4266"/>
</g>
<!-- Node17&#45;&gt;Node10 -->
<g id="edge19" class="edge"><title>Node17&#45;&gt;Node10</title>
<path fill="none" stroke="midnightblue" d="M1066.77,-54.882C1134.62,-44.4428 1239.03,-28.3805 1300.92,-18.8583"/>
<polygon fill="midnightblue" stroke="midnightblue" points="1065.97,-51.4636 1056.62,-56.4435 1067.03,-58.3822 1065.97,-51.4636"/>
</g>
<!-- Node18&#45;&gt;Node9 -->
<g id="edge27" class="edge"><title>Node18&#45;&gt;Node9</title>
<path fill="none" stroke="midnightblue" d="M1006.2,-110.473C954.036,-100.268 875.895,-84.9794 827.528,-75.5164"/>
<polygon fill="midnightblue" stroke="midnightblue" points="1005.78,-113.958 1016.27,-112.444 1007.13,-107.088 1005.78,-113.958"/>
</g>
<!-- Node18&#45;&gt;Node10 -->
<g id="edge28" class="edge"><title>Node18&#45;&gt;Node10</title>
<path fill="none" stroke="midnightblue" d="M1102.14,-109.777C1130.76,-101.638 1169.23,-89.6869 1202,-76 1219.61,-68.6438 1222.68,-64.0126 1240,-56 1270.05,-42.0996 1305.67,-28.2161 1328.54,-19.6236"/>
<polygon fill="midnightblue" stroke="midnightblue" points="1101.13,-106.424 1092.45,-112.493 1103.02,-113.164 1101.13,-106.424"/>
</g>
<!-- Node18&#45;&gt;Node19 -->
<g id="edge21" class="edge"><title>Node18&#45;&gt;Node19</title>
<path fill="none" stroke="midnightblue" d="M1107.21,-110.153C1151.61,-99.95 1217.19,-84.8809 1257.94,-75.5164"/>
<polygon fill="midnightblue" stroke="midnightblue" points="1106.2,-106.793 1097.24,-112.444 1107.77,-113.615 1106.2,-106.793"/>
</g>
<!-- Node18&#45;&gt;Node20 -->
<g id="edge23" class="edge"><title>Node18&#45;&gt;Node20</title>
<path fill="none" stroke="midnightblue" d="M1123.88,-111.117C1191.53,-100.649 1296.93,-84.3399 1358.85,-74.759"/>
<polygon fill="midnightblue" stroke="midnightblue" points="1123.11,-107.693 1113.77,-112.681 1124.18,-114.611 1123.11,-107.693"/>
</g>
<!-- Node18&#45;&gt;Node21 -->
<g id="edge25" class="edge"><title>Node18&#45;&gt;Node21</title>
<path fill="none" stroke="midnightblue" d="M1080.77,-106.622C1095.02,-96.7574 1113.46,-83.9919 1125.5,-75.6545"/>
<polygon fill="midnightblue" stroke="midnightblue" points="1078.76,-103.754 1072.53,-112.324 1082.75,-109.51 1078.76,-103.754"/>
</g>
<!-- Node19&#45;&gt;Node10 -->
<g id="edge22" class="edge"><title>Node19&#45;&gt;Node10</title>
<path fill="none" stroke="midnightblue" d="M1311.62,-49.2533C1321.73,-39.6731 1334.28,-27.7906 1342.68,-19.8339"/>
<polygon fill="midnightblue" stroke="midnightblue" points="1309.01,-46.9056 1304.16,-56.324 1313.82,-51.9873 1309.01,-46.9056"/>
</g>
<!-- Node20&#45;&gt;Node10 -->
<g id="edge24" class="edge"><title>Node20&#45;&gt;Node10</title>
<path fill="none" stroke="midnightblue" d="M1392.38,-49.2533C1382.27,-39.6731 1369.72,-27.7906 1361.32,-19.8339"/>
<polygon fill="midnightblue" stroke="midnightblue" points="1390.18,-51.9873 1399.84,-56.324 1394.99,-46.9056 1390.18,-51.9873"/>
</g>
<!-- Node21&#45;&gt;Node10 -->
<g id="edge26" class="edge"><title>Node21&#45;&gt;Node10</title>
<path fill="none" stroke="midnightblue" d="M1181.76,-53.959C1222.17,-43.7598 1281.37,-28.8217 1318.25,-19.5164"/>
<polygon fill="midnightblue" stroke="midnightblue" points="1180.75,-50.6032 1171.91,-56.4435 1182.46,-57.3904 1180.75,-50.6032"/>
</g>
<!-- Node24&#45;&gt;Node8 -->
<g id="edge43" class="edge"><title>Node24&#45;&gt;Node8</title>
<path fill="none" stroke="midnightblue" d="M241.934,-162.991C221.995,-149.646 199.146,-129.112 214,-112 223.36,-101.217 421.962,-78.7486 499.953,-70.3037"/>
<polygon fill="midnightblue" stroke="midnightblue" points="240.146,-166.002 250.463,-168.409 243.899,-160.093 240.146,-166.002"/>
</g>
<!-- Node24&#45;&gt;Node9 -->
<g id="edge46" class="edge"><title>Node24&#45;&gt;Node9</title>
<path fill="none" stroke="midnightblue" d="M254.659,-159.185C247.018,-144.702 240.273,-124.661 252,-112 287.514,-73.6553 669.047,-81.6987 721,-76 724.075,-75.6627 727.231,-75.2915 730.414,-74.8979"/>
<polygon fill="midnightblue" stroke="midnightblue" points="251.826,-161.277 259.876,-168.165 257.878,-157.76 251.826,-161.277"/>
</g>
<!-- Node24&#45;&gt;Node12 -->
<g id="edge39" class="edge"><title>Node24&#45;&gt;Node12</title>
<path fill="none" stroke="midnightblue" d="M225.403,-165.182C193.533,-153.835 157.41,-135.042 176,-112 197.633,-85.186 298.139,-73.5578 351.116,-69.2203"/>
<polygon fill="midnightblue" stroke="midnightblue" points="224.498,-168.57 235.092,-168.461 226.742,-161.94 224.498,-168.57"/>
</g>
<!-- Node24&#45;&gt;Node14 -->
<g id="edge40" class="edge"><title>Node24&#45;&gt;Node14</title>
<path fill="none" stroke="midnightblue" d="M301.046,-165.172C331.174,-155.004 373.896,-140.585 400.766,-131.516"/>
<polygon fill="midnightblue" stroke="midnightblue" points="299.708,-161.929 291.352,-168.444 301.947,-168.562 299.708,-161.929"/>
</g>
<!-- Node24&#45;&gt;Node15 -->
<g id="edge42" class="edge"><title>Node24&#45;&gt;Node15</title>
<path fill="none" stroke="midnightblue" d="M314.153,-166.803C362.824,-156.496 437.097,-140.768 482.144,-131.228"/>
<polygon fill="midnightblue" stroke="midnightblue" points="313.234,-163.42 304.176,-168.916 314.684,-170.268 313.234,-163.42"/>
</g>
<!-- Node24&#45;&gt;Node18 -->
<g id="edge44" class="edge"><title>Node24&#45;&gt;Node18</title>
<path fill="none" stroke="midnightblue" d="M314.01,-173.735C453.732,-164.232 859.499,-136.636 1006.24,-126.656"/>
<polygon fill="midnightblue" stroke="midnightblue" points="313.768,-170.243 304.029,-174.414 314.243,-177.227 313.768,-170.243"/>
</g>
<!-- Node24&#45;&gt;Node21 -->
<g id="edge45" class="edge"><title>Node24&#45;&gt;Node21</title>
<path fill="none" stroke="midnightblue" d="M265.981,-157.862C267.093,-142.855 271.298,-122.767 285,-112 354.004,-57.7789 986.619,-84.1193 1074,-76 1076.9,-75.7301 1079.88,-75.4222 1082.88,-75.0867"/>
<polygon fill="midnightblue" stroke="midnightblue" points="262.475,-157.994 265.628,-168.109 269.471,-158.235 262.475,-157.994"/>
</g>
<!-- Node24&#45;&gt;Node22 -->
<g id="edge41" class="edge"><title>Node24&#45;&gt;Node22</title>
<path fill="none" stroke="midnightblue" d="M284.554,-161.82C296.378,-152.145 311.286,-139.948 321.203,-131.834"/>
<polygon fill="midnightblue" stroke="midnightblue" points="282.127,-159.283 276.604,-168.324 286.56,-164.7 282.127,-159.283"/>
</g>
<!-- Node24&#45;&gt;Node23 -->
<g id="edge38" class="edge"><title>Node24&#45;&gt;Node23</title>
<path fill="none" stroke="midnightblue" d="M220.939,-166.088C178.809,-155.887 116.76,-140.861 78.1697,-131.516"/>
<polygon fill="midnightblue" stroke="midnightblue" points="220.122,-169.492 230.665,-168.444 221.77,-162.688 220.122,-169.492"/>
</g>
<!-- Node25 -->
<g id="node25" class="node"><title>Node25</title>
<g id="a_node25"><a xlink:href="protocol__spec_8h.html" target="_top" xlink:title="spec/protocol_spec.h">
<polygon fill="white" stroke="black" points="92,-56.5 92,-75.5 202,-75.5 202,-56.5 92,-56.5"/>
<text text-anchor="middle" x="147" y="-63.5" font-family="Helvetica,sans-Serif" font-size="10.00">spec/protocol_spec.h</text>
</a>
</g>
</g>
<!-- Node24&#45;&gt;Node25 -->
<g id="edge47" class="edge"><title>Node24&#45;&gt;Node25</title>
<path fill="none" stroke="midnightblue" d="M219.866,-165.134C201.18,-158.231 180.802,-147.695 167,-132 152.653,-115.686 148.598,-89.2445 147.452,-75.6614"/>
<polygon fill="midnightblue" stroke="midnightblue" points="218.845,-168.484 229.439,-168.422 221.118,-161.864 218.845,-168.484"/>
</g>
<!-- Node25&#45;&gt;Node10 -->
<g id="edge48" class="edge"><title>Node25&#45;&gt;Node10</title>
<path fill="none" stroke="midnightblue" d="M212.433,-61.9539C250.287,-60.1983 298.83,-57.9579 342,-56 709.558,-39.3297 1152.38,-19.7873 1300.76,-13.254"/>
<polygon fill="midnightblue" stroke="midnightblue" points="211.88,-58.4757 202.053,-62.4356 212.205,-65.4682 211.88,-58.4757"/>
</g>
<!-- Node28&#45;&gt;Node10 -->
<g id="edge54" class="edge"><title>Node28&#45;&gt;Node10</title>
<path fill="none" stroke="midnightblue" d="M1438.02,-160.786C1458.72,-136.404 1490.99,-89.5819 1468,-56 1453.36,-34.6116 1426.95,-23.3871 1403.03,-17.4975"/>
<polygon fill="midnightblue" stroke="midnightblue" points="1435.28,-158.601 1431.29,-168.416 1440.53,-163.232 1435.28,-158.601"/>
</g>
<!-- Node29&#45;&gt;Node10 -->
<g id="edge56" class="edge"><title>Node29&#45;&gt;Node10</title>
<path fill="none" stroke="midnightblue" d="M1539.1,-158.411C1532.61,-131.983 1517.11,-83.6922 1486,-56 1462.99,-35.5241 1430.34,-24.3093 1403.03,-18.1964"/>
<polygon fill="midnightblue" stroke="midnightblue" points="1535.71,-159.303 1541.35,-168.275 1542.54,-157.747 1535.71,-159.303"/>
</g>
<!-- Node30&#45;&gt;Node10 -->
<g id="edge61" class="edge"><title>Node30&#45;&gt;Node10</title>
<path fill="none" stroke="midnightblue" d="M1645.54,-161.161C1619.61,-135.469 1564.7,-84.699 1509,-56 1474.34,-38.1441 1431.62,-26.4874 1399.5,-19.5219"/>
<polygon fill="midnightblue" stroke="midnightblue" points="1643.09,-163.66 1652.62,-168.277 1648.05,-158.721 1643.09,-163.66"/>
</g>
<!-- Node31&#45;&gt;Node10 -->
<g id="edge64" class="edge"><title>Node31&#45;&gt;Node10</title>
<path fill="none" stroke="midnightblue" d="M1761.84,-163.356C1719.24,-138.77 1625.03,-86.7338 1540,-56 1493.92,-39.3439 1439.25,-27.0497 1400.78,-19.5595"/>
<polygon fill="midnightblue" stroke="midnightblue" points="1760.19,-166.444 1770.59,-168.443 1763.71,-160.392 1760.19,-166.444"/>
</g>
<!-- Node32&#45;&gt;Node10 -->
<g id="edge66" class="edge"><title>Node32&#45;&gt;Node10</title>
<path fill="none" stroke="midnightblue" d="M1818.83,-218.58C1836.41,-205.604 1855.86,-185.885 1844,-168 1794.15,-92.8051 1518.62,-38.8098 1403.04,-19.1535"/>
<polygon fill="midnightblue" stroke="midnightblue" points="1816.71,-215.79 1810.5,-224.37 1820.7,-221.538 1816.71,-215.79"/>
</g>
<!-- Node35&#45;&gt;Node10 -->
<g id="edge70" class="edge"><title>Node35&#45;&gt;Node10</title>
<path fill="none" stroke="midnightblue" d="M1817.67,-276.07C1851.45,-259.106 1902,-225.885 1902,-179 1902,-179 1902,-179 1902,-121 1902,-19.8495 1539.79,-10.4283 1403.25,-10.4701"/>
<polygon fill="midnightblue" stroke="midnightblue" points="1816.13,-272.926 1808.64,-280.421 1819.17,-279.231 1816.13,-272.926"/>
</g>
</g>
</svg>
        <g id="navigator" transform="translate(0 0)" fill="#404254">
                <rect fill="#f2f5e9" fill-opacity="0.5" stroke="#606060" stroke-width=".5" x="0" y="0" width="60" height="60"/>
                <use id="zoomplus" xlink:href="#zoomPlus" x="17" y="9" onmousedown="handleZoom(evt,'in')"/>
                <use id="zoomminus" xlink:href="#zoomMin" x="42" y="9" onmousedown="handleZoom(evt,'out')"/>
                <use id="reset" xlink:href="#resetDef" x="30" y="36" onmousedown="handleReset()"/>
                <g id="arrowUp" xlink:href="#dirArrow" transform="translate(30 24)" onmousedown="handlePan(0,-1)">
                  <use xlink:href="#rim" fill="#404040">
                        <set attributeName="fill" to="#808080" begin="arrowUp.mouseover" end="arrowUp.mouseout"/>
                  </use>
                  <path fill="none" stroke="white" stroke-width="1.5" d="M0,-3.0v7 M-2.5,-0.5L0,-3.0L2.5,-0.5"/>
                </g>
                <g id="arrowRight" xlink:href="#dirArrow" transform="rotate(90) translate(36 -43)" onmousedown="handlePan(1,0)">
                  <use xlink:href="#rim" fill="#404040">
                        <set attributeName="fill" to="#808080" begin="arrowRight.mouseover" end="arrowRight.mouseout"/>
                  </use>
                  <path fill="none" stroke="white" stroke-width="1.5" d="M0,-3.0v7 M-2.5,-0.5L0,-3.0L2.5,-0.5"/>
                </g>
                <g id="arrowDown" xlink:href="#dirArrow" transform="rotate(180) translate(-30 -48)" onmousedown="handlePan(0,1)">
                  <use xlink:href="#rim" fill="#404040">
                        <set attributeName="fill" to="#808080" begin="arrowDown.mouseover" end="arrowDown.mouseout"/>
                  </use>
                  <path fill="none" stroke="white" stroke-width="1.5" d="M0,-3.0v7 M-2.5,-0.5L0,-3.0L2.5,-0.5"/>
                </g>
                <g id="arrowLeft" xlink:href="#dirArrow" transform="rotate(270) translate(-36 17)" onmousedown="handlePan(-1,0)">
                  <use xlink:href="#rim" fill="#404040">
                        <set attributeName="fill" to="#808080" begin="arrowLeft.mouseover" end="arrowLeft.mouseout"/>
                  </use>
                  <path fill="none" stroke="white" stroke-width="1.5" d="M0,-3.0v7 M-2.5,-0.5L0,-3.0L2.5,-0.5"/>
                </g>
        </g>
        <svg viewBox="0 0 15 15" width="100%" height="30px" preserveAspectRatio="xMaxYMin meet">
         <g id="arrow_out" transform="scale(0.3 0.3)">
          <a xlink:href="label_8h__dep__incl_org.svg" target="_base">
           <rect id="button" ry="5" rx="5" y="6" x="6" height="38" width="38"
                fill="#f2f5e9" fill-opacity="0.5" stroke="#606060" stroke-width="1.0"/>
           <path id="arrow"
             d="M 11.500037,31.436501 C 11.940474,20.09759 22.043105,11.32322 32.158766,21.979434 L 37.068811,17.246167 C 37.068811,17.246167 37.088388,32 37.088388,32 L 22.160133,31.978069 C 22.160133,31.978069 26.997745,27.140456 26.997745,27.140456 C 18.528582,18.264221 13.291696,25.230495 11.500037,31.436501 z"
             style="fill:#404040;"/>
          </a>
         </g>
        </svg>
</svg>
