<?xml version="1.0" encoding="UTF-8" standalone="no"?>
<!DOCTYPE svg PUBLIC "-//W3C//DTD SVG 1.1//EN"
 "http://www.w3.org/Graphics/SVG/1.1/DTD/svg11.dtd">
<!-- Generated by graphviz version 2.38.0 (20140413.2041)
 -->
<!-- Title: src/mtree.h Pages: 1 -->
<svg width="470pt" height="252pt"
 viewBox="0.00 0.00 469.55 252.00" xmlns="http://www.w3.org/2000/svg" xmlns:xlink="http://www.w3.org/1999/xlink">
<g id="graph0" class="graph" transform="scale(1 1) rotate(0) translate(4 248)">
<title>src/mtree.h</title>
<polygon fill="white" stroke="none" points="-4,4 -4,-248 465.546,-248 465.546,4 -4,4"/>
<!-- Node1 -->
<g id="node1" class="node"><title>Node1</title>
<polygon fill="#bfbfbf" stroke="black" points="185.5,-224.5 185.5,-243.5 251.5,-243.5 251.5,-224.5 185.5,-224.5"/>
<text text-anchor="middle" x="218.5" y="-231.5" font-family="Helvetica,sans-Serif" font-size="10.00">src/mtree.h</text>
</g>
<!-- Node2 -->
<g id="node2" class="node"><title>Node2</title>
<polygon fill="white" stroke="#bfbfbf" points="0,-0.5 0,-19.5 49,-19.5 49,-0.5 0,-0.5"/>
<text text-anchor="middle" x="24.5" y="-7.5" font-family="Helvetica,sans-Serif" font-size="10.00">string.h</text>
</g>
<!-- Node1&#45;&gt;Node2 -->
<g id="edge1" class="edge"><title>Node1&#45;&gt;Node2</title>
<path fill="none" stroke="midnightblue" d="M185.237,-224.536C163.377,-217.62 135.268,-205.998 115.5,-188 66.1635,-143.082 39.4798,-65.2191 29.3459,-29.6696"/>
<polygon fill="midnightblue" stroke="midnightblue" points="32.6374,-28.4364 26.6294,-19.7097 25.8841,-30.2783 32.6374,-28.4364"/>
</g>
<!-- Node3 -->
<g id="node3" class="node"><title>Node3</title>
<polygon fill="white" stroke="#bfbfbf" points="332.5,-0.5 332.5,-19.5 380.5,-19.5 380.5,-0.5 332.5,-0.5"/>
<text text-anchor="middle" x="356.5" y="-7.5" font-family="Helvetica,sans-Serif" font-size="10.00">stdlib.h</text>
</g>
<!-- Node1&#45;&gt;Node3 -->
<g id="edge2" class="edge"><title>Node1&#45;&gt;Node3</title>
<path fill="none" stroke="midnightblue" d="M251.609,-230.036C305.104,-223.256 409.128,-201.374 454.5,-132 481.644,-90.496 419.558,-46.3389 382.19,-24.645"/>
<polygon fill="midnightblue" stroke="midnightblue" points="383.721,-21.4905 373.291,-19.6288 380.284,-27.5884 383.721,-21.4905"/>
</g>
<!-- Node4 -->
<g id="node4" class="node"><title>Node4</title>
<g id="a_node4"><a xlink:href="ceptr__error_8h_source.html" target="_top" xlink:title="ceptr_error.h">
<polygon fill="white" stroke="black" points="247,-168.5 247,-187.5 318,-187.5 318,-168.5 247,-168.5"/>
<text text-anchor="middle" x="282.5" y="-175.5" font-family="Helvetica,sans-Serif" font-size="10.00">ceptr_error.h</text>
</a>
</g>
</g>
<!-- Node1&#45;&gt;Node4 -->
<g id="edge3" class="edge"><title>Node1&#45;&gt;Node4</title>
<path fill="none" stroke="midnightblue" d="M228.783,-224.324C238.336,-216.263 252.78,-204.077 264.284,-194.369"/>
<polygon fill="midnightblue" stroke="midnightblue" points="266.644,-196.958 272.03,-187.834 262.13,-191.608 266.644,-196.958"/>
</g>
<!-- Node9 -->
<g id="node9" class="node"><title>Node9</title>
<g id="a_node9"><a xlink:href="sys__defs_8h.html" target="_top" xlink:title="Defines types and vars for system defined semantics. ">
<polygon fill="white" stroke="black" points="125,-168.5 125,-187.5 190,-187.5 190,-168.5 125,-168.5"/>
<text text-anchor="middle" x="157.5" y="-175.5" font-family="Helvetica,sans-Serif" font-size="10.00">sys_defs.h</text>
</a>
</g>
</g>
<!-- Node1&#45;&gt;Node9 -->
<g id="edge8" class="edge"><title>Node1&#45;&gt;Node9</title>
<path fill="none" stroke="midnightblue" d="M208.699,-224.324C199.682,-216.341 186.094,-204.313 175.182,-194.653"/>
<polygon fill="midnightblue" stroke="midnightblue" points="177.287,-191.842 167.479,-187.834 172.647,-197.083 177.287,-191.842"/>
</g>
<!-- Node10 -->
<g id="node10" class="node"><title>Node10</title>
<g id="a_node10"><a xlink:href="ceptr__types_8h_source.html" target="_top" xlink:title="ceptr_types.h">
<polygon fill="white" stroke="black" points="121.5,-112.5 121.5,-131.5 197.5,-131.5 197.5,-112.5 121.5,-112.5"/>
<text text-anchor="middle" x="159.5" y="-119.5" font-family="Helvetica,sans-Serif" font-size="10.00">ceptr_types.h</text>
</a>
</g>
</g>
<!-- Node1&#45;&gt;Node10 -->
<g id="edge18" class="edge"><title>Node1&#45;&gt;Node10</title>
<path fill="none" stroke="midnightblue" d="M216.983,-224.129C214.507,-211.171 208.806,-186.586 198.5,-168 192.634,-157.422 183.984,-147.113 176.32,-139.037"/>
<polygon fill="midnightblue" stroke="midnightblue" points="178.649,-136.416 169.123,-131.778 173.678,-141.344 178.649,-136.416"/>
</g>
<!-- Node5 -->
<g id="node5" class="node"><title>Node5</title>
<polygon fill="white" stroke="#bfbfbf" points="276.5,-56.5 276.5,-75.5 322.5,-75.5 322.5,-56.5 276.5,-56.5"/>
<text text-anchor="middle" x="299.5" y="-63.5" font-family="Helvetica,sans-Serif" font-size="10.00">stdio.h</text>
</g>
<!-- Node4&#45;&gt;Node5 -->
<g id="edge4" class="edge"><title>Node4&#45;&gt;Node5</title>
<path fill="none" stroke="midnightblue" d="M271.292,-168.43C256.8,-156.238 234.536,-133.026 244.5,-112 250.628,-99.0681 262.494,-88.6167 273.641,-81.0528"/>
<polygon fill="midnightblue" stroke="midnightblue" points="275.695,-83.8958 282.302,-75.6136 271.972,-77.9678 275.695,-83.8958"/>
</g>
<!-- Node6 -->
<g id="node6" class="node"><title>Node6</title>
<polygon fill="white" stroke="#bfbfbf" points="325.5,-112.5 325.5,-131.5 375.5,-131.5 375.5,-112.5 325.5,-112.5"/>
<text text-anchor="middle" x="350.5" y="-119.5" font-family="Helvetica,sans-Serif" font-size="10.00">signal.h</text>
</g>
<!-- Node4&#45;&gt;Node6 -->
<g id="edge5" class="edge"><title>Node4&#45;&gt;Node6</title>
<path fill="none" stroke="midnightblue" d="M293.425,-168.324C303.675,-160.185 319.221,-147.839 331.501,-138.087"/>
<polygon fill="midnightblue" stroke="midnightblue" points="333.721,-140.794 339.376,-131.834 329.368,-135.312 333.721,-140.794"/>
</g>
<!-- Node7 -->
<g id="node7" class="node"><title>Node7</title>
<polygon fill="white" stroke="#bfbfbf" points="393.5,-112.5 393.5,-131.5 445.5,-131.5 445.5,-112.5 393.5,-112.5"/>
<text text-anchor="middle" x="419.5" y="-119.5" font-family="Helvetica,sans-Serif" font-size="10.00">assert.h</text>
</g>
<!-- Node4&#45;&gt;Node7 -->
<g id="edge6" class="edge"><title>Node4&#45;&gt;Node7</title>
<path fill="none" stroke="midnightblue" d="M304.208,-168.444C326.855,-159.517 362.572,-145.439 388.252,-135.317"/>
<polygon fill="midnightblue" stroke="midnightblue" points="389.874,-138.44 397.894,-131.516 387.307,-131.927 389.874,-138.44"/>
</g>
<!-- Node8 -->
<g id="node8" class="node"><title>Node8</title>
<polygon fill="white" stroke="#bfbfbf" points="253.5,-112.5 253.5,-131.5 307.5,-131.5 307.5,-112.5 253.5,-112.5"/>
<text text-anchor="middle" x="280.5" y="-119.5" font-family="Helvetica,sans-Serif" font-size="10.00">setjmp.h</text>
</g>
<!-- Node4&#45;&gt;Node8 -->
<g id="edge7" class="edge"><title>Node4&#45;&gt;Node8</title>
<path fill="none" stroke="midnightblue" d="M282.17,-168.083C281.908,-161.006 281.532,-150.861 281.203,-141.986"/>
<polygon fill="midnightblue" stroke="midnightblue" points="284.692,-141.615 280.824,-131.751 277.697,-141.874 284.692,-141.615"/>
</g>
<!-- Node9&#45;&gt;Node10 -->
<g id="edge9" class="edge"><title>Node9&#45;&gt;Node10</title>
<path fill="none" stroke="midnightblue" d="M157.83,-168.083C158.092,-161.006 158.468,-150.861 158.797,-141.986"/>
<polygon fill="midnightblue" stroke="midnightblue" points="162.303,-141.874 159.176,-131.751 155.308,-141.615 162.303,-141.874"/>
</g>
<!-- Node10&#45;&gt;Node5 -->
<g id="edge11" class="edge"><title>Node10&#45;&gt;Node5</title>
<path fill="none" stroke="midnightblue" d="M181.683,-112.444C204.928,-103.478 241.649,-89.314 267.915,-79.1827"/>
<polygon fill="midnightblue" stroke="midnightblue" points="269.35,-82.3807 277.42,-75.5164 266.831,-75.8497 269.35,-82.3807"/>
</g>
<!-- Node11 -->
<g id="node11" class="node"><title>Node11</title>
<polygon fill="white" stroke="#bfbfbf" points="135,-56.5 135,-75.5 184,-75.5 184,-56.5 135,-56.5"/>
<text text-anchor="middle" x="159.5" y="-63.5" font-family="Helvetica,sans-Serif" font-size="10.00">stdint.h</text>
</g>
<!-- Node10&#45;&gt;Node11 -->
<g id="edge10" class="edge"><title>Node10&#45;&gt;Node11</title>
<path fill="none" stroke="midnightblue" d="M159.5,-112.083C159.5,-105.006 159.5,-94.8611 159.5,-85.9865"/>
<polygon fill="midnightblue" stroke="midnightblue" points="163,-85.751 159.5,-75.7511 156,-85.7511 163,-85.751"/>
</g>
<!-- Node12 -->
<g id="node12" class="node"><title>Node12</title>
<g id="a_node12"><a xlink:href="uthash_8h_source.html" target="_top" xlink:title="uthash.h">
<polygon fill="white" stroke="black" points="62.5,-56.5 62.5,-75.5 116.5,-75.5 116.5,-56.5 62.5,-56.5"/>
<text text-anchor="middle" x="89.5" y="-63.5" font-family="Helvetica,sans-Serif" font-size="10.00">uthash.h</text>
</a>
</g>
</g>
<!-- Node10&#45;&gt;Node12 -->
<g id="edge12" class="edge"><title>Node10&#45;&gt;Node12</title>
<path fill="none" stroke="midnightblue" d="M148.253,-112.324C137.703,-104.185 121.699,-91.8395 109.058,-82.0874"/>
<polygon fill="midnightblue" stroke="midnightblue" points="111.007,-79.1707 100.951,-75.8339 106.731,-84.7132 111.007,-79.1707"/>
</g>
<!-- Node15 -->
<g id="node15" class="node"><title>Node15</title>
<polygon fill="white" stroke="#bfbfbf" points="202.5,-56.5 202.5,-75.5 258.5,-75.5 258.5,-56.5 202.5,-56.5"/>
<text text-anchor="middle" x="230.5" y="-63.5" font-family="Helvetica,sans-Serif" font-size="10.00">stdbool.h</text>
</g>
<!-- Node10&#45;&gt;Node15 -->
<g id="edge17" class="edge"><title>Node10&#45;&gt;Node15</title>
<path fill="none" stroke="midnightblue" d="M170.907,-112.324C181.609,-104.185 197.841,-91.8395 210.663,-82.0874"/>
<polygon fill="midnightblue" stroke="midnightblue" points="213.044,-84.6734 218.885,-75.8339 208.807,-79.1018 213.044,-84.6734"/>
</g>
<!-- Node12&#45;&gt;Node2 -->
<g id="edge13" class="edge"><title>Node12&#45;&gt;Node2</title>
<path fill="none" stroke="midnightblue" d="M79.0566,-56.324C69.3538,-48.2631 54.6847,-36.0765 43.0003,-26.3695"/>
<polygon fill="midnightblue" stroke="midnightblue" points="45.0619,-23.532 35.1334,-19.8339 40.5887,-28.9163 45.0619,-23.532"/>
</g>
<!-- Node12&#45;&gt;Node3 -->
<g id="edge15" class="edge"><title>Node12&#45;&gt;Node3</title>
<path fill="none" stroke="midnightblue" d="M116.591,-58.0652C119.591,-57.3454 122.607,-56.6429 125.5,-56 195.25,-40.4987 277.501,-25.1766 322.625,-17.0225"/>
<polygon fill="midnightblue" stroke="midnightblue" points="323.248,-20.4667 332.471,-15.2508 322.009,-13.5773 323.248,-20.4667"/>
</g>
<!-- Node13 -->
<g id="node13" class="node"><title>Node13</title>
<polygon fill="white" stroke="#bfbfbf" points="67.5,-0.5 67.5,-19.5 119.5,-19.5 119.5,-0.5 67.5,-0.5"/>
<text text-anchor="middle" x="93.5" y="-7.5" font-family="Helvetica,sans-Serif" font-size="10.00">stddef.h</text>
</g>
<!-- Node12&#45;&gt;Node13 -->
<g id="edge14" class="edge"><title>Node12&#45;&gt;Node13</title>
<path fill="none" stroke="midnightblue" d="M90.1605,-56.083C90.6848,-49.0059 91.4362,-38.8611 92.0936,-29.9865"/>
<polygon fill="midnightblue" stroke="midnightblue" points="95.6034,-29.9823 92.8518,-19.7511 88.6225,-29.4652 95.6034,-29.9823"/>
</g>
<!-- Node14 -->
<g id="node14" class="node"><title>Node14</title>
<polygon fill="white" stroke="#bfbfbf" points="138,-0.5 138,-19.5 197,-19.5 197,-0.5 138,-0.5"/>
<text text-anchor="middle" x="167.5" y="-7.5" font-family="Helvetica,sans-Serif" font-size="10.00">inttypes.h</text>
</g>
<!-- Node12&#45;&gt;Node14 -->
<g id="edge16" class="edge"><title>Node12&#45;&gt;Node14</title>
<path fill="none" stroke="midnightblue" d="M102.032,-56.324C114.086,-47.979 132.527,-35.2122 146.769,-25.3524"/>
<polygon fill="midnightblue" stroke="midnightblue" points="148.769,-28.2243 154.999,-19.6545 144.785,-22.469 148.769,-28.2243"/>
</g>
</g>
</svg>
