<?xml version="1.0" encoding="UTF-8" standalone="no"?>
<!DOCTYPE svg PUBLIC "-//W3C//DTD SVG 1.1//EN"
 "http://www.w3.org/Graphics/SVG/1.1/DTD/svg11.dtd">
<!-- Generated by graphviz version 2.38.0 (20140413.2041)
 -->
<!-- Title: spec/mtree_spec.h Pages: 1 -->
<svg width="929pt" height="700pt"
 viewBox="0.00 0.00 929.02 700.00" xmlns="http://www.w3.org/2000/svg" xmlns:xlink="http://www.w3.org/1999/xlink">
<g id="graph0" class="graph" transform="scale(1 1) rotate(0) translate(4 696)">
<title>spec/mtree_spec.h</title>
<polygon fill="white" stroke="none" points="-4,4 -4,-696 925.023,-696 925.023,4 -4,4"/>
<!-- Node1 -->
<g id="node1" class="node"><title>Node1</title>
<polygon fill="#bfbfbf" stroke="black" points="303,-672.5 303,-691.5 403,-691.5 403,-672.5 303,-672.5"/>
<text text-anchor="middle" x="353" y="-679.5" font-family="Helvetica,sans-Serif" font-size="10.00">spec/mtree_spec.h</text>
</g>
<!-- Node2 -->
<g id="node2" class="node"><title>Node2</title>
<g id="a_node2"><a xlink:href="ceptr_8h_source.html" target="_top" xlink:title="../src/ceptr.h">
<polygon fill="white" stroke="black" points="663,-392.5 663,-411.5 735,-411.5 735,-392.5 663,-392.5"/>
<text text-anchor="middle" x="699" y="-399.5" font-family="Helvetica,sans-Serif" font-size="10.00">../src/ceptr.h</text>
</a>
</g>
</g>
<!-- Node1&#45;&gt;Node2 -->
<g id="edge1" class="edge"><title>Node1&#45;&gt;Node2</title>
<path fill="none" stroke="midnightblue" d="M403.335,-676.313C502.802,-665.654 715,-635.371 715,-571 715,-571 715,-571 715,-513 715,-480.626 708.129,-443.445 703.393,-421.659"/>
<polygon fill="midnightblue" stroke="midnightblue" points="706.777,-420.759 701.158,-411.777 699.95,-422.303 706.777,-420.759"/>
</g>
<!-- Node27 -->
<g id="node27" class="node"><title>Node27</title>
<g id="a_node27"><a xlink:href="receptor_8h.html" target="_top" xlink:title="receptor implementation header file ">
<polygon fill="white" stroke="black" points="143,-448.5 143,-467.5 229,-467.5 229,-448.5 143,-448.5"/>
<text text-anchor="middle" x="186" y="-455.5" font-family="Helvetica,sans-Serif" font-size="10.00">../src/receptor.h</text>
</a>
</g>
</g>
<!-- Node1&#45;&gt;Node27 -->
<g id="edge48" class="edge"><title>Node1&#45;&gt;Node27</title>
<path fill="none" stroke="midnightblue" d="M317.55,-672.498C257.275,-655.866 136.804,-612.64 90,-524 76.4315,-498.303 108.701,-480.917 139.421,-470.64"/>
<polygon fill="midnightblue" stroke="midnightblue" points="140.785,-473.881 149.281,-467.552 138.692,-467.201 140.785,-473.881"/>
</g>
<!-- Node33 -->
<g id="node33" class="node"><title>Node33</title>
<g id="a_node33"><a xlink:href="http__example_8h.html" target="_top" xlink:title="http_example.h">
<polygon fill="white" stroke="black" points="311.5,-616.5 311.5,-635.5 394.5,-635.5 394.5,-616.5 311.5,-616.5"/>
<text text-anchor="middle" x="353" y="-623.5" font-family="Helvetica,sans-Serif" font-size="10.00">http_example.h</text>
</a>
</g>
</g>
<!-- Node1&#45;&gt;Node33 -->
<g id="edge60" class="edge"><title>Node1&#45;&gt;Node33</title>
<path fill="none" stroke="midnightblue" d="M353,-672.083C353,-665.006 353,-654.861 353,-645.986"/>
<polygon fill="midnightblue" stroke="midnightblue" points="356.5,-645.751 353,-635.751 349.5,-645.751 356.5,-645.751"/>
</g>
<!-- Node3 -->
<g id="node3" class="node"><title>Node3</title>
<polygon fill="white" stroke="#bfbfbf" points="282.5,-0.5 282.5,-19.5 331.5,-19.5 331.5,-0.5 282.5,-0.5"/>
<text text-anchor="middle" x="307" y="-7.5" font-family="Helvetica,sans-Serif" font-size="10.00">string.h</text>
</g>
<!-- Node2&#45;&gt;Node3 -->
<g id="edge2" class="edge"><title>Node2&#45;&gt;Node3</title>
<path fill="none" stroke="midnightblue" d="M735.352,-395.882C788.976,-386.053 883,-359.108 883,-291 883,-291 883,-291 883,-121 883,-90.7745 886.585,-74.9026 863,-56 823.427,-24.2844 458.535,-24.2506 408,-20 386.094,-18.1574 361.527,-15.971 342.108,-14.2145"/>
<polygon fill="midnightblue" stroke="midnightblue" points="342.174,-10.7062 331.898,-13.2879 341.541,-17.6776 342.174,-10.7062"/>
</g>
<!-- Node4 -->
<g id="node4" class="node"><title>Node4</title>
<polygon fill="white" stroke="#bfbfbf" points="661,-56.5 661,-75.5 707,-75.5 707,-56.5 661,-56.5"/>
<text text-anchor="middle" x="684" y="-63.5" font-family="Helvetica,sans-Serif" font-size="10.00">stdio.h</text>
</g>
<!-- Node2&#45;&gt;Node4 -->
<g id="edge3" class="edge"><title>Node2&#45;&gt;Node4</title>
<path fill="none" stroke="midnightblue" d="M708.718,-392.29C735.276,-367.382 805.872,-293.196 787,-224 771.133,-165.823 724.418,-109.748 699.72,-83.1126"/>
<polygon fill="midnightblue" stroke="midnightblue" points="701.959,-80.3873 692.541,-75.5339 696.877,-85.201 701.959,-80.3873"/>
</g>
<!-- Node5 -->
<g id="node5" class="node"><title>Node5</title>
<polygon fill="white" stroke="#bfbfbf" points="417,-0.5 417,-19.5 465,-19.5 465,-0.5 417,-0.5"/>
<text text-anchor="middle" x="441" y="-7.5" font-family="Helvetica,sans-Serif" font-size="10.00">stdlib.h</text>
</g>
<!-- Node2&#45;&gt;Node5 -->
<g id="edge4" class="edge"><title>Node2&#45;&gt;Node5</title>
<path fill="none" stroke="midnightblue" d="M735.105,-396.937C785.443,-390.596 873.22,-376.869 897,-356 920.146,-335.688 921,-321.795 921,-291 921,-291 921,-291 921,-121 921,-90.2048 921.371,-74.8258 897,-56 863.82,-30.369 576.044,-16.4352 475.497,-12.3152"/>
<polygon fill="midnightblue" stroke="midnightblue" points="475.406,-8.8088 465.274,-11.9038 475.125,-15.8031 475.406,-8.8088"/>
</g>
<!-- Node6 -->
<g id="node6" class="node"><title>Node6</title>
<g id="a_node6"><a xlink:href="ceptr__error_8h_source.html" target="_top" xlink:title="ceptr_error.h">
<polygon fill="white" stroke="black" points="365.5,-112.5 365.5,-131.5 436.5,-131.5 436.5,-112.5 365.5,-112.5"/>
<text text-anchor="middle" x="401" y="-119.5" font-family="Helvetica,sans-Serif" font-size="10.00">ceptr_error.h</text>
</a>
</g>
</g>
<!-- Node2&#45;&gt;Node6 -->
<g id="edge5" class="edge"><title>Node2&#45;&gt;Node6</title>
<path fill="none" stroke="midnightblue" d="M699,-392.442C699,-373.936 699,-328.812 699,-291 699,-291 699,-291 699,-233 699,-179.861 530.129,-144.391 446.633,-130.102"/>
<polygon fill="midnightblue" stroke="midnightblue" points="447.091,-126.63 436.65,-128.424 445.932,-133.533 447.091,-126.63"/>
</g>
<!-- Node10 -->
<g id="node10" class="node"><title>Node10</title>
<g id="a_node10"><a xlink:href="semtable_8h.html" target="_top" xlink:title="header file for table for coordinating meaning across a vmhost ">
<polygon fill="white" stroke="black" points="263.5,-168.5 263.5,-187.5 328.5,-187.5 328.5,-168.5 263.5,-168.5"/>
<text text-anchor="middle" x="296" y="-175.5" font-family="Helvetica,sans-Serif" font-size="10.00">semtable.h</text>
</a>
</g>
</g>
<!-- Node2&#45;&gt;Node10 -->
<g id="edge10" class="edge"><title>Node2&#45;&gt;Node10</title>
<path fill="none" stroke="midnightblue" d="M695.53,-392.35C682.327,-359.869 634.382,-245.919 603,-224 561.171,-194.784 413.145,-184.166 338.992,-180.619"/>
<polygon fill="midnightblue" stroke="midnightblue" points="338.758,-177.105 328.609,-180.146 338.439,-184.098 338.758,-177.105"/>
</g>
<!-- Node17 -->
<g id="node17" class="node"><title>Node17</title>
<g id="a_node17"><a xlink:href="tree_8h.html" target="_top" xlink:title="semantic trees header file ">
<polygon fill="white" stroke="black" points="262.5,-336.5 262.5,-355.5 303.5,-355.5 303.5,-336.5 262.5,-336.5"/>
<text text-anchor="middle" x="283" y="-343.5" font-family="Helvetica,sans-Serif" font-size="10.00">tree.h</text>
</a>
</g>
</g>
<!-- Node2&#45;&gt;Node17 -->
<g id="edge21" class="edge"><title>Node2&#45;&gt;Node17</title>
<path fill="none" stroke="midnightblue" d="M662.81,-396.302C582.359,-385.859 389.824,-360.867 314.227,-351.054"/>
<polygon fill="midnightblue" stroke="midnightblue" points="314.317,-347.536 303.949,-349.719 313.415,-354.478 314.317,-347.536"/>
</g>
<!-- Node20 -->
<g id="node20" class="node"><title>Node20</title>
<g id="a_node20"><a xlink:href="stream_8h.html" target="_top" xlink:title="streams abstraction header file ">
<polygon fill="white" stroke="black" points="539.5,-280.5 539.5,-299.5 594.5,-299.5 594.5,-280.5 539.5,-280.5"/>
<text text-anchor="middle" x="567" y="-287.5" font-family="Helvetica,sans-Serif" font-size="10.00">stream.h</text>
</a>
</g>
</g>
<!-- Node2&#45;&gt;Node20 -->
<g id="edge40" class="edge"><title>Node2&#45;&gt;Node20</title>
<path fill="none" stroke="midnightblue" d="M673.554,-392.488C654.236,-385.092 627.869,-372.899 609,-356 594.181,-342.728 582.455,-323.065 575.2,-308.844"/>
<polygon fill="midnightblue" stroke="midnightblue" points="578.24,-307.09 570.728,-299.619 571.941,-310.144 578.24,-307.09"/>
</g>
<!-- Node22 -->
<g id="node22" class="node"><title>Node22</title>
<g id="a_node22"><a xlink:href="mtree_8h.html" target="_top" xlink:title="semantic tree matrix header file `` ">
<polygon fill="white" stroke="black" points="446,-280.5 446,-299.5 496,-299.5 496,-280.5 446,-280.5"/>
<text text-anchor="middle" x="471" y="-287.5" font-family="Helvetica,sans-Serif" font-size="10.00">mtree.h</text>
</a>
</g>
</g>
<!-- Node2&#45;&gt;Node22 -->
<g id="edge34" class="edge"><title>Node2&#45;&gt;Node22</title>
<path fill="none" stroke="midnightblue" d="M675.913,-392.447C653.421,-383.906 618.413,-370.06 589,-356 555.246,-339.865 517.603,-318.515 494.11,-304.768"/>
<polygon fill="midnightblue" stroke="midnightblue" points="495.645,-301.61 485.252,-299.552 492.093,-307.642 495.645,-301.61"/>
</g>
<!-- Node23 -->
<g id="node23" class="node"><title>Node23</title>
<g id="a_node23"><a xlink:href="util_8h.html" target="_top" xlink:title="util.h">
<polygon fill="white" stroke="black" points="814,-112.5 814,-131.5 852,-131.5 852,-112.5 814,-112.5"/>
<text text-anchor="middle" x="833" y="-119.5" font-family="Helvetica,sans-Serif" font-size="10.00">util.h</text>
</a>
</g>
</g>
<!-- Node2&#45;&gt;Node23 -->
<g id="edge41" class="edge"><title>Node2&#45;&gt;Node23</title>
<path fill="none" stroke="midnightblue" d="M735.141,-395.952C762.033,-390.427 797.929,-379.063 821,-356 842.779,-334.228 845,-321.795 845,-291 845,-291 845,-291 845,-233 845,-200.758 839.842,-163.512 836.289,-141.681"/>
<polygon fill="midnightblue" stroke="midnightblue" points="839.69,-140.798 834.569,-131.523 832.788,-141.967 839.69,-140.798"/>
</g>
<!-- Node26 -->
<g id="node26" class="node"><title>Node26</title>
<g id="a_node26"><a xlink:href="debug_8h.html" target="_top" xlink:title="debug.h">
<polygon fill="white" stroke="black" points="727.5,-224.5 727.5,-243.5 778.5,-243.5 778.5,-224.5 727.5,-224.5"/>
<text text-anchor="middle" x="753" y="-231.5" font-family="Helvetica,sans-Serif" font-size="10.00">debug.h</text>
</a>
</g>
</g>
<!-- Node2&#45;&gt;Node26 -->
<g id="edge46" class="edge"><title>Node2&#45;&gt;Node26</title>
<path fill="none" stroke="midnightblue" d="M701.903,-392.075C710.44,-365.832 735.582,-288.545 747.107,-253.117"/>
<polygon fill="midnightblue" stroke="midnightblue" points="750.448,-254.16 750.213,-243.568 743.791,-251.995 750.448,-254.16"/>
</g>
<!-- Node6&#45;&gt;Node4 -->
<g id="edge6" class="edge"><title>Node6&#45;&gt;Node4</title>
<path fill="none" stroke="midnightblue" d="M436.556,-114.216C491.669,-103.699 596.955,-83.6093 650.677,-73.3584"/>
<polygon fill="midnightblue" stroke="midnightblue" points="651.537,-76.7576 660.704,-71.4452 650.225,-69.8816 651.537,-76.7576"/>
</g>
<!-- Node7 -->
<g id="node7" class="node"><title>Node7</title>
<polygon fill="white" stroke="#bfbfbf" points="393,-56.5 393,-75.5 443,-75.5 443,-56.5 393,-56.5"/>
<text text-anchor="middle" x="418" y="-63.5" font-family="Helvetica,sans-Serif" font-size="10.00">signal.h</text>
</g>
<!-- Node6&#45;&gt;Node7 -->
<g id="edge7" class="edge"><title>Node6&#45;&gt;Node7</title>
<path fill="none" stroke="midnightblue" d="M403.807,-112.083C406.085,-104.849 409.371,-94.4087 412.208,-85.3968"/>
<polygon fill="midnightblue" stroke="midnightblue" points="415.581,-86.3406 415.245,-75.7511 408.904,-84.2385 415.581,-86.3406"/>
</g>
<!-- Node8 -->
<g id="node8" class="node"><title>Node8</title>
<polygon fill="white" stroke="#bfbfbf" points="251,-56.5 251,-75.5 303,-75.5 303,-56.5 251,-56.5"/>
<text text-anchor="middle" x="277" y="-63.5" font-family="Helvetica,sans-Serif" font-size="10.00">assert.h</text>
</g>
<!-- Node6&#45;&gt;Node8 -->
<g id="edge8" class="edge"><title>Node6&#45;&gt;Node8</title>
<path fill="none" stroke="midnightblue" d="M381.352,-112.444C361.035,-103.596 329.097,-89.6875 305.902,-79.5865"/>
<polygon fill="midnightblue" stroke="midnightblue" points="307.122,-76.3002 296.556,-75.5164 304.327,-82.7181 307.122,-76.3002"/>
</g>
<!-- Node9 -->
<g id="node9" class="node"><title>Node9</title>
<polygon fill="white" stroke="#bfbfbf" points="321,-56.5 321,-75.5 375,-75.5 375,-56.5 321,-56.5"/>
<text text-anchor="middle" x="348" y="-63.5" font-family="Helvetica,sans-Serif" font-size="10.00">setjmp.h</text>
</g>
<!-- Node6&#45;&gt;Node9 -->
<g id="edge9" class="edge"><title>Node6&#45;&gt;Node9</title>
<path fill="none" stroke="midnightblue" d="M392.248,-112.083C384.53,-104.22 373.095,-92.5688 363.783,-83.0813"/>
<polygon fill="midnightblue" stroke="midnightblue" points="366.092,-80.4363 356.589,-75.7511 361.096,-85.3396 366.092,-80.4363"/>
</g>
<!-- Node10&#45;&gt;Node6 -->
<g id="edge20" class="edge"><title>Node10&#45;&gt;Node6</title>
<path fill="none" stroke="midnightblue" d="M312.87,-168.324C329.709,-159.664 355.807,-146.242 375.238,-136.249"/>
<polygon fill="midnightblue" stroke="midnightblue" points="376.88,-139.341 384.172,-131.655 373.678,-133.116 376.88,-139.341"/>
</g>
<!-- Node11 -->
<g id="node11" class="node"><title>Node11</title>
<g id="a_node11"><a xlink:href="ceptr__types_8h_source.html" target="_top" xlink:title="ceptr_types.h">
<polygon fill="white" stroke="black" points="131,-112.5 131,-131.5 207,-131.5 207,-112.5 131,-112.5"/>
<text text-anchor="middle" x="169" y="-119.5" font-family="Helvetica,sans-Serif" font-size="10.00">ceptr_types.h</text>
</a>
</g>
</g>
<!-- Node10&#45;&gt;Node11 -->
<g id="edge11" class="edge"><title>Node10&#45;&gt;Node11</title>
<path fill="none" stroke="midnightblue" d="M275.876,-168.444C254.976,-159.557 222.065,-145.563 198.284,-135.451"/>
<polygon fill="midnightblue" stroke="midnightblue" points="199.602,-132.208 189.029,-131.516 196.862,-138.65 199.602,-132.208"/>
</g>
<!-- Node11&#45;&gt;Node4 -->
<g id="edge13" class="edge"><title>Node11&#45;&gt;Node4</title>
<path fill="none" stroke="midnightblue" d="M207.223,-118.254C286.586,-112.34 474.931,-97.1955 632,-76 638.049,-75.1837 644.472,-74.1827 650.664,-73.1484"/>
<polygon fill="midnightblue" stroke="midnightblue" points="651.503,-76.5554 660.76,-71.4031 650.31,-69.6577 651.503,-76.5554"/>
</g>
<!-- Node12 -->
<g id="node12" class="node"><title>Node12</title>
<polygon fill="white" stroke="#bfbfbf" points="574.5,-56.5 574.5,-75.5 623.5,-75.5 623.5,-56.5 574.5,-56.5"/>
<text text-anchor="middle" x="599" y="-63.5" font-family="Helvetica,sans-Serif" font-size="10.00">stdint.h</text>
</g>
<!-- Node11&#45;&gt;Node12 -->
<g id="edge12" class="edge"><title>Node11&#45;&gt;Node12</title>
<path fill="none" stroke="midnightblue" d="M207.16,-116.208C289.974,-105.808 485.103,-81.3034 564.494,-71.3334"/>
<polygon fill="midnightblue" stroke="midnightblue" points="564.981,-74.7998 574.466,-70.081 564.108,-67.8543 564.981,-74.7998"/>
</g>
<!-- Node13 -->
<g id="node13" class="node"><title>Node13</title>
<g id="a_node13"><a xlink:href="uthash_8h_source.html" target="_top" xlink:title="uthash.h">
<polygon fill="white" stroke="black" points="14,-56.5 14,-75.5 68,-75.5 68,-56.5 14,-56.5"/>
<text text-anchor="middle" x="41" y="-63.5" font-family="Helvetica,sans-Serif" font-size="10.00">uthash.h</text>
</a>
</g>
</g>
<!-- Node11&#45;&gt;Node13 -->
<g id="edge14" class="edge"><title>Node11&#45;&gt;Node13</title>
<path fill="none" stroke="midnightblue" d="M148.718,-112.444C127.653,-103.557 94.4832,-89.5632 70.5145,-79.4514"/>
<polygon fill="midnightblue" stroke="midnightblue" points="71.7612,-76.1787 61.1871,-75.5164 69.0403,-82.6283 71.7612,-76.1787"/>
</g>
<!-- Node16 -->
<g id="node16" class="node"><title>Node16</title>
<polygon fill="white" stroke="#bfbfbf" points="139,-56.5 139,-75.5 195,-75.5 195,-56.5 139,-56.5"/>
<text text-anchor="middle" x="167" y="-63.5" font-family="Helvetica,sans-Serif" font-size="10.00">stdbool.h</text>
</g>
<!-- Node11&#45;&gt;Node16 -->
<g id="edge19" class="edge"><title>Node11&#45;&gt;Node16</title>
<path fill="none" stroke="midnightblue" d="M168.67,-112.083C168.408,-105.006 168.032,-94.8611 167.703,-85.9865"/>
<polygon fill="midnightblue" stroke="midnightblue" points="171.192,-85.6147 167.324,-75.7511 164.197,-85.8738 171.192,-85.6147"/>
</g>
<!-- Node13&#45;&gt;Node3 -->
<g id="edge15" class="edge"><title>Node13&#45;&gt;Node3</title>
<path fill="none" stroke="midnightblue" d="M68.3318,-58.9259C72.893,-57.9336 77.5779,-56.9275 82,-56 149.316,-41.8814 228.177,-26.3378 272.39,-17.7136"/>
<polygon fill="midnightblue" stroke="midnightblue" points="273.185,-21.1245 282.332,-15.7771 271.847,-14.2537 273.185,-21.1245"/>
</g>
<!-- Node13&#45;&gt;Node5 -->
<g id="edge17" class="edge"><title>Node13&#45;&gt;Node5</title>
<path fill="none" stroke="midnightblue" d="M68.1791,-61.3308C138.882,-51.786 328.468,-26.1918 406.608,-15.6429"/>
<polygon fill="midnightblue" stroke="midnightblue" points="407.428,-19.064 416.87,-14.2575 406.492,-12.1269 407.428,-19.064"/>
</g>
<!-- Node14 -->
<g id="node14" class="node"><title>Node14</title>
<polygon fill="white" stroke="#bfbfbf" points="0,-0.5 0,-19.5 52,-19.5 52,-0.5 0,-0.5"/>
<text text-anchor="middle" x="26" y="-7.5" font-family="Helvetica,sans-Serif" font-size="10.00">stddef.h</text>
</g>
<!-- Node13&#45;&gt;Node14 -->
<g id="edge16" class="edge"><title>Node13&#45;&gt;Node14</title>
<path fill="none" stroke="midnightblue" d="M38.5231,-56.083C36.5135,-48.8486 33.6135,-38.4087 31.1102,-29.3968"/>
<polygon fill="midnightblue" stroke="midnightblue" points="34.4797,-28.4495 28.4309,-19.7511 27.7351,-30.323 34.4797,-28.4495"/>
</g>
<!-- Node15 -->
<g id="node15" class="node"><title>Node15</title>
<polygon fill="white" stroke="#bfbfbf" points="70.5,-0.5 70.5,-19.5 129.5,-19.5 129.5,-0.5 70.5,-0.5"/>
<text text-anchor="middle" x="100" y="-7.5" font-family="Helvetica,sans-Serif" font-size="10.00">inttypes.h</text>
</g>
<!-- Node13&#45;&gt;Node15 -->
<g id="edge18" class="edge"><title>Node13&#45;&gt;Node15</title>
<path fill="none" stroke="midnightblue" d="M50.4794,-56.324C59.2011,-48.3414 72.3435,-36.3128 82.8978,-26.6529"/>
<polygon fill="midnightblue" stroke="midnightblue" points="85.3345,-29.1674 90.3481,-19.8339 80.6083,-24.0036 85.3345,-29.1674"/>
</g>
<!-- Node17&#45;&gt;Node3 -->
<g id="edge22" class="edge"><title>Node17&#45;&gt;Node3</title>
<path fill="none" stroke="midnightblue" d="M262.449,-341.574C235.917,-336.331 189.325,-324.261 157,-300 101.949,-258.682 60.6681,-235.102 76,-168 88.3093,-114.127 87.2132,-90.9731 130,-56 170.84,-22.6181 233.347,-13.6189 272.114,-11.4095"/>
<polygon fill="midnightblue" stroke="midnightblue" points="272.547,-14.8938 282.381,-10.9518 272.235,-7.90075 272.547,-14.8938"/>
</g>
<!-- Node17&#45;&gt;Node5 -->
<g id="edge23" class="edge"><title>Node17&#45;&gt;Node5</title>
<path fill="none" stroke="midnightblue" d="M282.611,-336.113C281.962,-323.543 280.383,-299.886 277,-280 268.55,-230.332 210.548,-95.3585 242,-56 262.273,-30.6302 355.602,-18.5166 406.928,-13.6851"/>
<polygon fill="midnightblue" stroke="midnightblue" points="407.255,-17.17 416.901,-12.7882 406.628,-10.1981 407.255,-17.17"/>
</g>
<!-- Node17&#45;&gt;Node6 -->
<g id="edge24" class="edge"><title>Node17&#45;&gt;Node6</title>
<path fill="none" stroke="midnightblue" d="M294.126,-336.388C304.328,-328.014 319.284,-314.469 329,-300 364.226,-247.544 386.891,-175.164 396.186,-141.545"/>
<polygon fill="midnightblue" stroke="midnightblue" points="399.613,-142.28 398.825,-131.715 392.852,-140.465 399.613,-142.28"/>
</g>
<!-- Node17&#45;&gt;Node11 -->
<g id="edge30" class="edge"><title>Node17&#45;&gt;Node11</title>
<path fill="none" stroke="midnightblue" d="M262.476,-343.504C235.985,-340.346 190.827,-330.526 170,-300 136.713,-251.212 152.845,-175.913 162.953,-141.411"/>
<polygon fill="midnightblue" stroke="midnightblue" points="166.337,-142.315 165.953,-131.727 159.65,-140.244 166.337,-142.315"/>
</g>
<!-- Node18 -->
<g id="node18" class="node"><title>Node18</title>
<g id="a_node18"><a xlink:href="sys__defs_8h.html" target="_top" xlink:title="Defines types and vars for system defined semantics. ">
<polygon fill="white" stroke="black" points="187.5,-224.5 187.5,-243.5 252.5,-243.5 252.5,-224.5 187.5,-224.5"/>
<text text-anchor="middle" x="220" y="-231.5" font-family="Helvetica,sans-Serif" font-size="10.00">sys_defs.h</text>
</a>
</g>
</g>
<!-- Node17&#45;&gt;Node18 -->
<g id="edge25" class="edge"><title>Node17&#45;&gt;Node18</title>
<path fill="none" stroke="midnightblue" d="M280.628,-336.168C276.939,-323.256 269.081,-298.731 258,-280 251.83,-269.571 243.23,-259.155 235.772,-250.975"/>
<polygon fill="midnightblue" stroke="midnightblue" points="238.237,-248.488 228.826,-243.622 233.149,-253.295 238.237,-248.488"/>
</g>
<!-- Node19 -->
<g id="node19" class="node"><title>Node19</title>
<g id="a_node19"><a xlink:href="base__defs_8h.html" target="_top" xlink:title="auto&#45;generated system definitions ">
<polygon fill="white" stroke="black" points="179,-280.5 179,-299.5 249,-299.5 249,-280.5 179,-280.5"/>
<text text-anchor="middle" x="214" y="-287.5" font-family="Helvetica,sans-Serif" font-size="10.00">base_defs.h</text>
</a>
</g>
</g>
<!-- Node17&#45;&gt;Node19 -->
<g id="edge28" class="edge"><title>Node17&#45;&gt;Node19</title>
<path fill="none" stroke="midnightblue" d="M271.914,-336.324C261.514,-328.185 245.739,-315.839 233.278,-306.087"/>
<polygon fill="midnightblue" stroke="midnightblue" points="235.32,-303.241 225.288,-299.834 231.006,-308.753 235.32,-303.241"/>
</g>
<!-- Node17&#45;&gt;Node20 -->
<g id="edge31" class="edge"><title>Node17&#45;&gt;Node20</title>
<path fill="none" stroke="midnightblue" d="M303.883,-341.029C351.473,-331.981 468.53,-309.723 529.188,-298.19"/>
<polygon fill="midnightblue" stroke="midnightblue" points="529.955,-301.607 539.125,-296.3 528.647,-294.73 529.955,-301.607"/>
</g>
<!-- Node18&#45;&gt;Node10 -->
<g id="edge27" class="edge"><title>Node18&#45;&gt;Node10</title>
<path fill="none" stroke="midnightblue" d="M232.211,-224.324C243.776,-216.107 261.375,-203.602 275.161,-193.807"/>
<polygon fill="midnightblue" stroke="midnightblue" points="277.443,-196.479 283.567,-187.834 273.388,-190.773 277.443,-196.479"/>
</g>
<!-- Node18&#45;&gt;Node11 -->
<g id="edge26" class="edge"><title>Node18&#45;&gt;Node11</title>
<path fill="none" stroke="midnightblue" d="M215.998,-224.368C207.693,-206.456 188.437,-164.923 177.321,-140.948"/>
<polygon fill="midnightblue" stroke="midnightblue" points="180.365,-139.192 172.983,-131.591 174.014,-142.136 180.365,-139.192"/>
</g>
<!-- Node19&#45;&gt;Node18 -->
<g id="edge29" class="edge"><title>Node19&#45;&gt;Node18</title>
<path fill="none" stroke="midnightblue" d="M214.991,-280.083C215.786,-272.927 216.929,-262.635 217.923,-253.691"/>
<polygon fill="midnightblue" stroke="midnightblue" points="221.402,-254.076 219.028,-243.751 214.445,-253.303 221.402,-254.076"/>
</g>
<!-- Node20&#45;&gt;Node4 -->
<g id="edge32" class="edge"><title>Node20&#45;&gt;Node4</title>
<path fill="none" stroke="midnightblue" d="M575.144,-280.183C582.941,-271.447 594.711,-257.46 603,-244 636.592,-189.45 664.85,-118.631 677.254,-85.5503"/>
<polygon fill="midnightblue" stroke="midnightblue" points="680.653,-86.4496 680.837,-75.8564 674.087,-84.0225 680.653,-86.4496"/>
</g>
<!-- Node21 -->
<g id="node21" class="node"><title>Node21</title>
<polygon fill="white" stroke="#bfbfbf" points="537.5,-224.5 537.5,-243.5 594.5,-243.5 594.5,-224.5 537.5,-224.5"/>
<text text-anchor="middle" x="566" y="-231.5" font-family="Helvetica,sans-Serif" font-size="10.00">pthread.h</text>
</g>
<!-- Node20&#45;&gt;Node21 -->
<g id="edge33" class="edge"><title>Node20&#45;&gt;Node21</title>
<path fill="none" stroke="midnightblue" d="M566.835,-280.083C566.704,-273.006 566.516,-262.861 566.352,-253.986"/>
<polygon fill="midnightblue" stroke="midnightblue" points="569.847,-253.685 566.162,-243.751 562.848,-253.814 569.847,-253.685"/>
</g>
<!-- Node22&#45;&gt;Node3 -->
<g id="edge35" class="edge"><title>Node22&#45;&gt;Node3</title>
<path fill="none" stroke="midnightblue" d="M471,-280.442C471,-261.936 471,-216.812 471,-179 471,-179 471,-179 471,-121 471,-90.9022 473.106,-77.4576 452,-56 422.813,-26.3265 374.463,-16.1384 341.695,-12.6876"/>
<polygon fill="midnightblue" stroke="midnightblue" points="341.921,-9.19384 331.648,-11.7877 341.296,-16.1659 341.921,-9.19384"/>
</g>
<!-- Node22&#45;&gt;Node5 -->
<g id="edge36" class="edge"><title>Node22&#45;&gt;Node5</title>
<path fill="none" stroke="midnightblue" d="M476.284,-280.231C486.725,-262.043 509,-218.601 509,-179 509,-179 509,-179 509,-121 509,-90.2048 501.46,-82.0269 485,-56 478.024,-44.9704 467.98,-34.4374 459.249,-26.3384"/>
<polygon fill="midnightblue" stroke="midnightblue" points="461.522,-23.6757 451.726,-19.6404 456.867,-28.904 461.522,-23.6757"/>
</g>
<!-- Node22&#45;&gt;Node6 -->
<g id="edge37" class="edge"><title>Node22&#45;&gt;Node6</title>
<path fill="none" stroke="midnightblue" d="M467.236,-280.075C456.17,-253.832 423.579,-176.545 408.64,-141.117"/>
<polygon fill="midnightblue" stroke="midnightblue" points="411.724,-139.422 404.613,-131.568 405.274,-142.142 411.724,-139.422"/>
</g>
<!-- Node22&#45;&gt;Node11 -->
<g id="edge39" class="edge"><title>Node22&#45;&gt;Node11</title>
<path fill="none" stroke="midnightblue" d="M464.153,-280.486C445.926,-258.4 393.725,-198.848 337,-168 299.458,-147.584 252.078,-135.988 217.213,-129.7"/>
<polygon fill="midnightblue" stroke="midnightblue" points="217.724,-126.236 207.275,-127.989 216.536,-133.135 217.724,-126.236"/>
</g>
<!-- Node22&#45;&gt;Node18 -->
<g id="edge38" class="edge"><title>Node22&#45;&gt;Node18</title>
<path fill="none" stroke="midnightblue" d="M445.551,-283.525C402.554,-274.274 315.092,-255.458 262.611,-244.167"/>
<polygon fill="midnightblue" stroke="midnightblue" points="263.117,-240.696 252.605,-242.015 261.645,-247.54 263.117,-240.696"/>
</g>
<!-- Node23&#45;&gt;Node4 -->
<g id="edge43" class="edge"><title>Node23&#45;&gt;Node4</title>
<path fill="none" stroke="midnightblue" d="M813.826,-114.051C789.252,-105.145 746.278,-89.5705 716.54,-78.793"/>
<polygon fill="midnightblue" stroke="midnightblue" points="717.602,-75.4553 707.008,-75.3385 715.217,-82.0365 717.602,-75.4553"/>
</g>
<!-- Node23&#45;&gt;Node12 -->
<g id="edge45" class="edge"><title>Node23&#45;&gt;Node12</title>
<path fill="none" stroke="midnightblue" d="M813.851,-116.581C774.414,-107.48 683.648,-86.5341 633.633,-74.9922"/>
<polygon fill="midnightblue" stroke="midnightblue" points="634.143,-71.518 623.612,-72.6797 632.569,-78.3387 634.143,-71.518"/>
</g>
<!-- Node24 -->
<g id="node24" class="node"><title>Node24</title>
<polygon fill="white" stroke="#bfbfbf" points="805.5,-56.5 805.5,-75.5 854.5,-75.5 854.5,-56.5 805.5,-56.5"/>
<text text-anchor="middle" x="830" y="-63.5" font-family="Helvetica,sans-Serif" font-size="10.00">ctype.h</text>
</g>
<!-- Node23&#45;&gt;Node24 -->
<g id="edge42" class="edge"><title>Node23&#45;&gt;Node24</title>
<path fill="none" stroke="midnightblue" d="M832.505,-112.083C832.111,-105.006 831.548,-94.8611 831.055,-85.9865"/>
<polygon fill="midnightblue" stroke="midnightblue" points="834.536,-85.5415 830.486,-75.7511 827.546,-85.9299 834.536,-85.5415"/>
</g>
<!-- Node25 -->
<g id="node25" class="node"><title>Node25</title>
<polygon fill="white" stroke="#bfbfbf" points="743,-56.5 743,-75.5 787,-75.5 787,-56.5 743,-56.5"/>
<text text-anchor="middle" x="765" y="-63.5" font-family="Helvetica,sans-Serif" font-size="10.00">time.h</text>
</g>
<!-- Node23&#45;&gt;Node25 -->
<g id="edge44" class="edge"><title>Node23&#45;&gt;Node25</title>
<path fill="none" stroke="midnightblue" d="M822.075,-112.324C811.825,-104.185 796.279,-91.8395 783.999,-82.0874"/>
<polygon fill="midnightblue" stroke="midnightblue" points="786.132,-79.3119 776.124,-75.8339 781.779,-84.7937 786.132,-79.3119"/>
</g>
<!-- Node26&#45;&gt;Node4 -->
<g id="edge47" class="edge"><title>Node26&#45;&gt;Node4</title>
<path fill="none" stroke="midnightblue" d="M749.29,-224.075C738.382,-197.832 706.257,-120.545 691.53,-85.1165"/>
<polygon fill="midnightblue" stroke="midnightblue" points="694.632,-83.4588 687.561,-75.5681 688.168,-86.1456 694.632,-83.4588"/>
</g>
<!-- Node27&#45;&gt;Node10 -->
<g id="edge49" class="edge"><title>Node27&#45;&gt;Node10</title>
<path fill="none" stroke="midnightblue" d="M229.189,-455.323C260.833,-451.587 301.96,-440.986 324,-412 373.892,-346.384 327.436,-238.954 305.759,-196.784"/>
<polygon fill="midnightblue" stroke="midnightblue" points="308.744,-194.942 300.97,-187.744 302.558,-198.219 308.744,-194.942"/>
</g>
<!-- Node27&#45;&gt;Node17 -->
<g id="edge50" class="edge"><title>Node27&#45;&gt;Node17</title>
<path fill="none" stroke="midnightblue" d="M181.526,-448.177C175.458,-434.84 166.609,-409.276 178,-392 194.336,-367.226 227.445,-356.039 252.14,-351.02"/>
<polygon fill="midnightblue" stroke="midnightblue" points="252.911,-354.437 262.134,-349.225 251.673,-347.548 252.911,-354.437"/>
</g>
<!-- Node28 -->
<g id="node28" class="node"><title>Node28</title>
<g id="a_node28"><a xlink:href="def_8h.html" target="_top" xlink:title="header file for symbol and structure definition functions ">
<polygon fill="white" stroke="black" points="43,-392.5 43,-411.5 81,-411.5 81,-392.5 43,-392.5"/>
<text text-anchor="middle" x="62" y="-399.5" font-family="Helvetica,sans-Serif" font-size="10.00">def.h</text>
</a>
</g>
</g>
<!-- Node27&#45;&gt;Node28 -->
<g id="edge51" class="edge"><title>Node27&#45;&gt;Node28</title>
<path fill="none" stroke="midnightblue" d="M166.352,-448.444C145.916,-439.544 113.721,-425.524 90.4938,-415.409"/>
<polygon fill="midnightblue" stroke="midnightblue" points="91.7146,-412.123 81.1488,-411.339 88.9197,-418.541 91.7146,-412.123"/>
</g>
<!-- Node30 -->
<g id="node30" class="node"><title>Node30</title>
<g id="a_node30"><a xlink:href="label_8h.html" target="_top" xlink:title="Label tables map human readable text strings to parts of semantic trees. ">
<polygon fill="white" stroke="black" points="85.5,-168.5 85.5,-187.5 130.5,-187.5 130.5,-168.5 85.5,-168.5"/>
<text text-anchor="middle" x="108" y="-175.5" font-family="Helvetica,sans-Serif" font-size="10.00">label.h</text>
</a>
</g>
</g>
<!-- Node27&#45;&gt;Node30 -->
<g id="edge54" class="edge"><title>Node27&#45;&gt;Node30</title>
<path fill="none" stroke="midnightblue" d="M174.913,-448.33C154.491,-431.293 113,-391.236 113,-347 113,-347 113,-347 113,-289 113,-256.915 110.851,-219.62 109.371,-197.737"/>
<polygon fill="midnightblue" stroke="midnightblue" points="112.847,-197.281 108.654,-187.552 105.865,-197.773 112.847,-197.281"/>
</g>
<!-- Node31 -->
<g id="node31" class="node"><title>Node31</title>
<g id="a_node31"><a xlink:href="process_8h.html" target="_top" xlink:title="processing header files ">
<polygon fill="white" stroke="black" points="187.5,-392.5 187.5,-411.5 246.5,-411.5 246.5,-392.5 187.5,-392.5"/>
<text text-anchor="middle" x="217" y="-399.5" font-family="Helvetica,sans-Serif" font-size="10.00">process.h</text>
</a>
</g>
</g>
<!-- Node27&#45;&gt;Node31 -->
<g id="edge56" class="edge"><title>Node27&#45;&gt;Node31</title>
<path fill="none" stroke="midnightblue" d="M191.119,-448.083C195.408,-440.613 201.658,-429.724 206.942,-420.52"/>
<polygon fill="midnightblue" stroke="midnightblue" points="210.033,-422.166 211.976,-411.751 203.962,-418.681 210.033,-422.166"/>
</g>
<!-- Node32 -->
<g id="node32" class="node"><title>Node32</title>
<g id="a_node32"><a xlink:href="scape_8h.html" target="_top" xlink:title="scape header files ">
<polygon fill="white" stroke="black" points="264.5,-392.5 264.5,-411.5 315.5,-411.5 315.5,-392.5 264.5,-392.5"/>
<text text-anchor="middle" x="290" y="-399.5" font-family="Helvetica,sans-Serif" font-size="10.00">scape.h</text>
</a>
</g>
</g>
<!-- Node27&#45;&gt;Node32 -->
<g id="edge58" class="edge"><title>Node27&#45;&gt;Node32</title>
<path fill="none" stroke="midnightblue" d="M202.709,-448.324C219.312,-439.703 245.002,-426.364 264.22,-416.386"/>
<polygon fill="midnightblue" stroke="midnightblue" points="266.07,-419.369 273.332,-411.655 262.844,-413.156 266.07,-419.369"/>
</g>
<!-- Node28&#45;&gt;Node17 -->
<g id="edge52" class="edge"><title>Node28&#45;&gt;Node17</title>
<path fill="none" stroke="midnightblue" d="M81.2257,-396.302C119.693,-386.903 206.394,-365.718 252.624,-354.422"/>
<polygon fill="midnightblue" stroke="midnightblue" points="253.498,-357.812 262.381,-352.038 251.836,-351.012 253.498,-357.812"/>
</g>
<!-- Node29 -->
<g id="node29" class="node"><title>Node29</title>
<polygon fill="white" stroke="#bfbfbf" points="33,-336.5 33,-355.5 85,-355.5 85,-336.5 33,-336.5"/>
<text text-anchor="middle" x="59" y="-343.5" font-family="Helvetica,sans-Serif" font-size="10.00">stdarg.h</text>
</g>
<!-- Node28&#45;&gt;Node29 -->
<g id="edge53" class="edge"><title>Node28&#45;&gt;Node29</title>
<path fill="none" stroke="midnightblue" d="M61.5046,-392.083C61.1114,-385.006 60.5478,-374.861 60.0548,-365.986"/>
<polygon fill="midnightblue" stroke="midnightblue" points="63.5356,-365.542 59.4862,-355.751 56.5464,-365.93 63.5356,-365.542"/>
</g>
<!-- Node30&#45;&gt;Node11 -->
<g id="edge55" class="edge"><title>Node30&#45;&gt;Node11</title>
<path fill="none" stroke="midnightblue" d="M117.801,-168.324C126.818,-160.341 140.406,-148.313 151.318,-138.653"/>
<polygon fill="midnightblue" stroke="midnightblue" points="153.853,-141.083 159.021,-131.834 149.213,-135.842 153.853,-141.083"/>
</g>
<!-- Node31&#45;&gt;Node17 -->
<g id="edge57" class="edge"><title>Node31&#45;&gt;Node17</title>
<path fill="none" stroke="midnightblue" d="M227.604,-392.324C237.456,-384.263 252.351,-372.077 264.215,-362.369"/>
<polygon fill="midnightblue" stroke="midnightblue" points="266.68,-364.875 272.203,-355.834 262.247,-359.457 266.68,-364.875"/>
</g>
<!-- Node32&#45;&gt;Node17 -->
<g id="edge59" class="edge"><title>Node32&#45;&gt;Node17</title>
<path fill="none" stroke="midnightblue" d="M288.844,-392.083C287.916,-384.927 286.582,-374.635 285.423,-365.691"/>
<polygon fill="midnightblue" stroke="midnightblue" points="288.891,-365.218 284.134,-355.751 281.949,-366.118 288.891,-365.218"/>
</g>
<!-- Node33&#45;&gt;Node2 -->
<g id="edge61" class="edge"><title>Node33&#45;&gt;Node2</title>
<path fill="none" stroke="midnightblue" d="M368.922,-616.345C385.009,-607.504 410.491,-593.235 432,-580 525.723,-522.332 634.073,-448.068 678.448,-417.315"/>
<polygon fill="midnightblue" stroke="midnightblue" points="680.464,-420.176 686.683,-411.598 676.472,-414.426 680.464,-420.176"/>
</g>
<!-- Node33&#45;&gt;Node27 -->
<g id="edge62" class="edge"><title>Node33&#45;&gt;Node27</title>
<path fill="none" stroke="midnightblue" d="M336.345,-616.43C321.122,-608.184 298.397,-594.811 281,-580 244.376,-548.82 212.266,-501.627 196.444,-476.382"/>
<polygon fill="midnightblue" stroke="midnightblue" points="199.25,-474.264 191.032,-467.577 193.287,-477.929 199.25,-474.264"/>
</g>
<!-- Node33&#45;&gt;Node28 -->
<g id="edge65" class="edge"><title>Node33&#45;&gt;Node28</title>
<path fill="none" stroke="midnightblue" d="M311.368,-622.893C250.74,-617.316 139.951,-597.09 90,-524 68.5828,-492.662 63.3805,-447.206 62.2202,-421.868"/>
<polygon fill="midnightblue" stroke="midnightblue" points="65.7157,-421.659 61.9277,-411.765 58.7186,-421.862 65.7157,-421.659"/>
</g>
<!-- Node34 -->
<g id="node34" class="node"><title>Node34</title>
<g id="a_node34"><a xlink:href="protocol_8h.html" target="_top" xlink:title="protocol helpers header file ">
<polygon fill="white" stroke="black" points="99.5,-504.5 99.5,-523.5 184.5,-523.5 184.5,-504.5 99.5,-504.5"/>
<text text-anchor="middle" x="142" y="-511.5" font-family="Helvetica,sans-Serif" font-size="10.00">../src/protocol.h</text>
</a>
</g>
</g>
<!-- Node33&#45;&gt;Node34 -->
<g id="edge63" class="edge"><title>Node33&#45;&gt;Node34</title>
<path fill="none" stroke="midnightblue" d="M311.463,-619.385C278.868,-613.504 233.408,-601.937 199,-580 179.69,-567.689 163.15,-546.963 152.938,-532.226"/>
<polygon fill="midnightblue" stroke="midnightblue" points="155.625,-529.947 147.175,-523.556 149.795,-533.821 155.625,-529.947"/>
</g>
<!-- Node35 -->
<g id="node35" class="node"><title>Node35</title>
<g id="a_node35"><a xlink:href="semtrex_8h.html" target="_top" xlink:title="Semantic tree regular expression header file. ">
<polygon fill="white" stroke="black" points="381,-504.5 381,-523.5 467,-523.5 467,-504.5 381,-504.5"/>
<text text-anchor="middle" x="424" y="-511.5" font-family="Helvetica,sans-Serif" font-size="10.00">../src/semtrex.h</text>
</a>
</g>
</g>
<!-- Node33&#45;&gt;Node35 -->
<g id="edge66" class="edge"><title>Node33&#45;&gt;Node35</title>
<path fill="none" stroke="midnightblue" d="M371.314,-616.476C385.361,-608.934 403.989,-596.553 414,-580 422.401,-566.109 424.555,-547.596 424.809,-533.882"/>
<polygon fill="midnightblue" stroke="midnightblue" points="428.307,-533.648 424.672,-523.697 421.307,-533.743 428.307,-533.648"/>
</g>
<!-- Node36 -->
<g id="node36" class="node"><title>Node36</title>
<g id="a_node36"><a xlink:href="spec__utils_8h.html" target="_top" xlink:title="spec_utils.h">
<polygon fill="white" stroke="black" points="617.5,-560.5 617.5,-579.5 686.5,-579.5 686.5,-560.5 617.5,-560.5"/>
<text text-anchor="middle" x="652" y="-567.5" font-family="Helvetica,sans-Serif" font-size="10.00">spec_utils.h</text>
</a>
</g>
</g>
<!-- Node33&#45;&gt;Node36 -->
<g id="edge68" class="edge"><title>Node33&#45;&gt;Node36</title>
<path fill="none" stroke="midnightblue" d="M394.581,-618.018C443.136,-609.786 526.123,-595.473 607.515,-580.049"/>
<polygon fill="midnightblue" stroke="midnightblue" points="608.261,-583.47 617.43,-578.163 606.952,-576.594 608.261,-583.47"/>
</g>
<!-- Node37 -->
<g id="node37" class="node"><title>Node37</title>
<g id="a_node37"><a xlink:href="vmhost_8h.html" target="_top" xlink:title="vmhost implementation header file ">
<polygon fill="white" stroke="black" points="241.5,-504.5 241.5,-523.5 324.5,-523.5 324.5,-504.5 241.5,-504.5"/>
<text text-anchor="middle" x="283" y="-511.5" font-family="Helvetica,sans-Serif" font-size="10.00">../src/vmhost.h</text>
</a>
</g>
</g>
<!-- Node33&#45;&gt;Node37 -->
<g id="edge70" class="edge"><title>Node33&#45;&gt;Node37</title>
<path fill="none" stroke="midnightblue" d="M334.33,-616.363C320.279,-608.829 301.819,-596.515 292,-580 283.722,-566.076 281.863,-547.568 281.846,-533.863"/>
<polygon fill="midnightblue" stroke="midnightblue" points="285.35,-533.791 282.165,-523.686 278.354,-533.572 285.35,-533.791"/>
</g>
<!-- Node38 -->
<g id="node38" class="node"><title>Node38</title>
<g id="a_node38"><a xlink:href="accumulator_8h.html" target="_top" xlink:title="header file for the accumulator ">
<polygon fill="white" stroke="black" points="301,-560.5 301,-579.5 405,-579.5 405,-560.5 301,-560.5"/>
<text text-anchor="middle" x="353" y="-567.5" font-family="Helvetica,sans-Serif" font-size="10.00">../src/accumulator.h</text>
</a>
</g>
</g>
<!-- Node33&#45;&gt;Node38 -->
<g id="edge72" class="edge"><title>Node33&#45;&gt;Node38</title>
<path fill="none" stroke="midnightblue" d="M353,-616.083C353,-609.006 353,-598.861 353,-589.986"/>
<polygon fill="midnightblue" stroke="midnightblue" points="356.5,-589.751 353,-579.751 349.5,-589.751 356.5,-589.751"/>
</g>
<!-- Node39 -->
<g id="node39" class="node"><title>Node39</title>
<polygon fill="white" stroke="#bfbfbf" points="548.5,-560.5 548.5,-579.5 599.5,-579.5 599.5,-560.5 548.5,-560.5"/>
<text text-anchor="middle" x="574" y="-567.5" font-family="Helvetica,sans-Serif" font-size="10.00">unistd.h</text>
</g>
<!-- Node33&#45;&gt;Node39 -->
<g id="edge76" class="edge"><title>Node33&#45;&gt;Node39</title>
<path fill="none" stroke="midnightblue" d="M388.018,-616.444C429.196,-606.382 497.163,-589.775 538.534,-579.666"/>
<polygon fill="midnightblue" stroke="midnightblue" points="539.564,-583.017 548.447,-577.244 537.902,-576.217 539.564,-583.017"/>
</g>
<!-- Node34&#45;&gt;Node27 -->
<g id="edge64" class="edge"><title>Node34&#45;&gt;Node27</title>
<path fill="none" stroke="midnightblue" d="M149.266,-504.083C155.545,-496.377 164.788,-485.033 172.431,-475.653"/>
<polygon fill="midnightblue" stroke="midnightblue" points="175.266,-477.714 178.869,-467.751 169.839,-473.293 175.266,-477.714"/>
</g>
<!-- Node35&#45;&gt;Node17 -->
<g id="edge67" class="edge"><title>Node35&#45;&gt;Node17</title>
<path fill="none" stroke="midnightblue" d="M421.938,-504.303C416.448,-482.79 399.622,-426.349 367,-392 352.238,-376.456 330.901,-365.119 313.426,-357.713"/>
<polygon fill="midnightblue" stroke="midnightblue" points="314.246,-354.271 303.662,-353.804 311.645,-360.77 314.246,-354.271"/>
</g>
<!-- Node36&#45;&gt;Node2 -->
<g id="edge69" class="edge"><title>Node36&#45;&gt;Node2</title>
<path fill="none" stroke="midnightblue" d="M654.527,-560.075C661.925,-533.945 683.651,-457.211 693.74,-421.577"/>
<polygon fill="midnightblue" stroke="midnightblue" points="697.217,-422.143 696.574,-411.568 690.482,-420.236 697.217,-422.143"/>
</g>
<!-- Node37&#45;&gt;Node27 -->
<g id="edge71" class="edge"><title>Node37&#45;&gt;Node27</title>
<path fill="none" stroke="midnightblue" d="M267.415,-504.324C252.001,-495.743 228.188,-482.486 210.29,-472.522"/>
<polygon fill="midnightblue" stroke="midnightblue" points="211.986,-469.461 201.546,-467.655 208.581,-475.577 211.986,-469.461"/>
</g>
<!-- Node38&#45;&gt;Node17 -->
<g id="edge73" class="edge"><title>Node38&#45;&gt;Node17</title>
<path fill="none" stroke="midnightblue" d="M353.273,-560.377C353.772,-533.812 352.753,-451.424 324,-392 318.628,-380.897 309.633,-370.565 301.435,-362.609"/>
<polygon fill="midnightblue" stroke="midnightblue" points="303.7,-359.938 293.964,-355.761 298.971,-365.098 303.7,-359.938"/>
</g>
<!-- Node38&#45;&gt;Node22 -->
<g id="edge74" class="edge"><title>Node38&#45;&gt;Node22</title>
<path fill="none" stroke="midnightblue" d="M405.091,-561.106C429.634,-554.87 457.512,-543.757 476,-524 496.565,-502.024 495,-489.098 495,-459 495,-459 495,-459 495,-401 495,-368.059 484.599,-330.818 477.491,-309.214"/>
<polygon fill="midnightblue" stroke="midnightblue" points="480.785,-308.028 474.237,-299.699 474.162,-310.294 480.785,-308.028"/>
</g>
<!-- Node38&#45;&gt;Node37 -->
<g id="edge75" class="edge"><title>Node38&#45;&gt;Node37</title>
<path fill="none" stroke="midnightblue" d="M341.753,-560.324C331.203,-552.185 315.199,-539.839 302.558,-530.087"/>
<polygon fill="midnightblue" stroke="midnightblue" points="304.507,-527.171 294.451,-523.834 300.231,-532.713 304.507,-527.171"/>
</g>
</g>
</svg>
