<?xml version="1.0" encoding="UTF-8" standalone="no"?>
<!DOCTYPE svg PUBLIC "-//W3C//DTD SVG 1.1//EN"
 "http://www.w3.org/Graphics/SVG/1.1/DTD/svg11.dtd">
<!-- Generated by graphviz version 2.38.0 (20140413.2041)
 -->
<!-- Title: src/mtree.h Pages: 1 -->
<!--zoomable 308 -->
<svg id="main" version="1.1" xmlns="http://www.w3.org/2000/svg" xmlns:xlink="http://www.w3.org/1999/xlink" xml:space="preserve" onload="init(evt)">
<style type="text/css"><![CDATA[
.edge:hover path { stroke: red; }
.edge:hover polygon { stroke: red; fill: red; }
]]></style>
<script type="text/javascript"><![CDATA[
var edges = document.getElementsByTagName('g');
if (edges && edges.length) {
  for (var i=0;i<edges.length;i++) {
    if (edges[i].id.substr(0,4)=='edge') {
      edges[i].setAttribute('class','edge');
    }
  }
}
]]></script>
        <defs>
                <circle id="rim" cx="0" cy="0" r="7"/>
                <circle id="rim2" cx="0" cy="0" r="3.5"/>
                <g id="zoomPlus">
                        <use xlink:href="#rim" fill="#404040">
                                <set attributeName="fill" to="#808080" begin="zoomplus.mouseover" end="zoomplus.mouseout"/>
                        </use>
                        <path d="M-4,0h8M0,-4v8" fill="none" stroke="white" stroke-width="1.5" pointer-events="none"/>
                </g>
                <g id="zoomMin">
                        <use xlink:href="#rim" fill="#404040">
                                <set attributeName="fill" to="#808080" begin="zoomminus.mouseover" end="zoomminus.mouseout"/>
                        </use>
                        <path d="M-4,0h8" fill="none" stroke="white" stroke-width="1.5" pointer-events="none"/>
                </g>
                <g id="dirArrow">
                        <path fill="none" stroke="white" stroke-width="1.5" d="M0,-3.0v7 M-2.5,-0.5L0,-3.0L2.5,-0.5"/>
                </g>
               <g id="resetDef">
                       <use xlink:href="#rim2" fill="#404040">
                               <set attributeName="fill" to="#808080" begin="reset.mouseover" end="reset.mouseout"/>
                       </use>
               </g>
        </defs>

<script type="text/javascript">
var viewWidth = 1971;
var viewHeight = 308;
var sectionId = 'dynsection-1';
</script>
<script xlink:href="svgpan.js"/>
<svg id="graph" class="graph">
<g id="viewport">
<title>src/mtree.h</title>
<polygon fill="white" stroke="none" points="-4,4 -4,-304 1967.23,-304 1967.23,4 -4,4"/>
<!-- Node1 -->
<g id="node1" class="node"><title>Node1</title>
<polygon fill="#bfbfbf" stroke="black" points="416.5,-280.5 416.5,-299.5 482.5,-299.5 482.5,-280.5 416.5,-280.5"/>
<text text-anchor="middle" x="449.5" y="-287.5" font-family="Helvetica,sans-Serif" font-size="10.00">src/mtree.h</text>
</g>
<!-- Node2 -->
<g id="node2" class="node"><title>Node2</title>
<g id="a_node2"><a xlink:href="accumulator_8h.html" target="_top" xlink:title="header file for the accumulator ">
<polygon fill="white" stroke="black" points="402,-168.5 402,-187.5 497,-187.5 497,-168.5 402,-168.5"/>
<text text-anchor="middle" x="449.5" y="-175.5" font-family="Helvetica,sans-Serif" font-size="10.00">src/accumulator.h</text>
</a>
</g>
</g>
<!-- Node1&#45;&gt;Node2 -->
<g id="edge1" class="edge"><title>Node1&#45;&gt;Node2</title>
<path fill="none" stroke="midnightblue" d="M449.5,-270.348C449.5,-246.254 449.5,-205.308 449.5,-187.591"/>
<polygon fill="midnightblue" stroke="midnightblue" points="446,-270.368 449.5,-280.368 453,-270.369 446,-270.368"/>
</g>
<!-- Node3 -->
<g id="node3" class="node"><title>Node3</title>
<g id="a_node3"><a xlink:href="accumulator_8c.html" target="_top" xlink:title="implementation file for accumulator ">
<polygon fill="white" stroke="black" points="0,-112.5 0,-131.5 95,-131.5 95,-112.5 0,-112.5"/>
<text text-anchor="middle" x="47.5" y="-119.5" font-family="Helvetica,sans-Serif" font-size="10.00">src/accumulator.c</text>
</a>
</g>
</g>
<!-- Node1&#45;&gt;Node3 -->
<g id="edge30" class="edge"><title>Node1&#45;&gt;Node3</title>
<path fill="none" stroke="midnightblue" d="M419.477,-276.602C341.652,-244.466 134.848,-159.069 68.3838,-131.624"/>
<polygon fill="midnightblue" stroke="midnightblue" points="418.154,-279.843 428.733,-280.425 420.826,-273.373 418.154,-279.843"/>
</g>
<!-- Node13 -->
<g id="node13" class="node"><title>Node13</title>
<g id="a_node13"><a xlink:href="receptor_8c.html" target="_top" xlink:title="receptor implementation ">
<polygon fill="white" stroke="black" points="152,-112.5 152,-131.5 229,-131.5 229,-112.5 152,-112.5"/>
<text text-anchor="middle" x="190.5" y="-119.5" font-family="Helvetica,sans-Serif" font-size="10.00">src/receptor.c</text>
</a>
</g>
</g>
<!-- Node1&#45;&gt;Node13 -->
<g id="edge63" class="edge"><title>Node1&#45;&gt;Node13</title>
<path fill="none" stroke="midnightblue" d="M427.428,-274.853C375.333,-241.465 245.962,-158.547 203.926,-131.605"/>
<polygon fill="midnightblue" stroke="midnightblue" points="425.632,-277.859 435.94,-280.309 429.409,-271.966 425.632,-277.859"/>
</g>
<!-- Node21 -->
<g id="node21" class="node"><title>Node21</title>
<g id="a_node21"><a xlink:href="ceptr_8h_source.html" target="_top" xlink:title="src/ceptr.h">
<polygon fill="white" stroke="black" points="1150,-224.5 1150,-243.5 1213,-243.5 1213,-224.5 1150,-224.5"/>
<text text-anchor="middle" x="1181.5" y="-231.5" font-family="Helvetica,sans-Serif" font-size="10.00">src/ceptr.h</text>
</a>
</g>
</g>
<!-- Node1&#45;&gt;Node21 -->
<g id="edge31" class="edge"><title>Node1&#45;&gt;Node21</title>
<path fill="none" stroke="midnightblue" d="M493.163,-285.779C627.516,-275.868 1032.72,-245.976 1149.61,-237.352"/>
<polygon fill="midnightblue" stroke="midnightblue" points="492.57,-282.313 482.855,-286.539 493.085,-289.294 492.57,-282.313"/>
</g>
<!-- Node31 -->
<g id="node31" class="node"><title>Node31</title>
<g id="a_node31"><a xlink:href="mtree_8c.html" target="_top" xlink:title="semantic tree matrix implementation ">
<polygon fill="white" stroke="black" points="1231.5,-224.5 1231.5,-243.5 1297.5,-243.5 1297.5,-224.5 1231.5,-224.5"/>
<text text-anchor="middle" x="1264.5" y="-231.5" font-family="Helvetica,sans-Serif" font-size="10.00">src/mtree.c</text>
</a>
</g>
</g>
<!-- Node1&#45;&gt;Node31 -->
<g id="edge62" class="edge"><title>Node1&#45;&gt;Node31</title>
<path fill="none" stroke="midnightblue" d="M492.826,-288.718C610.498,-287.469 945.693,-280.696 1221.5,-244 1224.68,-243.578 1227.97,-243.051 1231.25,-242.467"/>
<polygon fill="midnightblue" stroke="midnightblue" points="492.739,-285.219 482.774,-288.817 492.808,-292.218 492.739,-285.219"/>
</g>
<!-- Node2&#45;&gt;Node3 -->
<g id="edge2" class="edge"><title>Node2&#45;&gt;Node3</title>
<path fill="none" stroke="midnightblue" d="M391.432,-169.2C311.515,-158.465 169.137,-139.339 95.1312,-129.398"/>
<polygon fill="midnightblue" stroke="midnightblue" points="391.43,-172.731 401.807,-170.593 392.362,-165.793 391.43,-172.731"/>
</g>
<!-- Node4 -->
<g id="node4" class="node"><title>Node4</title>
<g id="a_node4"><a xlink:href="ceptr_8c.html" target="_top" xlink:title="implements main() entry point for the ceptr node ">
<polygon fill="white" stroke="black" points="226,-56.5 226,-75.5 289,-75.5 289,-56.5 226,-56.5"/>
<text text-anchor="middle" x="257.5" y="-63.5" font-family="Helvetica,sans-Serif" font-size="10.00">src/ceptr.c</text>
</a>
</g>
</g>
<!-- Node2&#45;&gt;Node4 -->
<g id="edge3" class="edge"><title>Node2&#45;&gt;Node4</title>
<path fill="none" stroke="midnightblue" d="M391.6,-176.036C354.17,-172.362 306.933,-161.536 276.5,-132 260.808,-116.77 257.888,-89.358 257.465,-75.5058"/>
<polygon fill="midnightblue" stroke="midnightblue" points="391.619,-179.55 401.875,-176.893 392.201,-172.574 391.619,-179.55"/>
</g>
<!-- Node5 -->
<g id="node5" class="node"><title>Node5</title>
<g id="a_node5"><a xlink:href="shell_8h.html" target="_top" xlink:title="command line shell receptor header files ">
<polygon fill="white" stroke="black" points="377.5,-112.5 377.5,-131.5 439.5,-131.5 439.5,-112.5 377.5,-112.5"/>
<text text-anchor="middle" x="408.5" y="-119.5" font-family="Helvetica,sans-Serif" font-size="10.00">src/shell.h</text>
</a>
</g>
</g>
<!-- Node2&#45;&gt;Node5 -->
<g id="edge4" class="edge"><title>Node2&#45;&gt;Node5</title>
<path fill="none" stroke="midnightblue" d="M436.483,-159.855C429.383,-150.505 420.896,-139.327 415.144,-131.751"/>
<polygon fill="midnightblue" stroke="midnightblue" points="433.895,-162.235 442.73,-168.083 439.47,-158.002 433.895,-162.235"/>
</g>
<!-- Node9 -->
<g id="node9" class="node"><title>Node9</title>
<g id="a_node9"><a xlink:href="group_8h.html" target="_top" xlink:title="group communication receptors header file ">
<polygon fill="white" stroke="black" points="458,-112.5 458,-131.5 523,-131.5 523,-112.5 458,-112.5"/>
<text text-anchor="middle" x="490.5" y="-119.5" font-family="Helvetica,sans-Serif" font-size="10.00">src/group.h</text>
</a>
</g>
</g>
<!-- Node2&#45;&gt;Node9 -->
<g id="edge9" class="edge"><title>Node2&#45;&gt;Node9</title>
<path fill="none" stroke="midnightblue" d="M462.517,-159.855C469.617,-150.505 478.104,-139.327 483.856,-131.751"/>
<polygon fill="midnightblue" stroke="midnightblue" points="459.53,-158.002 456.27,-168.083 465.105,-162.235 459.53,-158.002"/>
</g>
<!-- Node12 -->
<g id="node12" class="node"><title>Node12</title>
<g id="a_node12"><a xlink:href="process_8c.html" target="_top" xlink:title="implementation of ceptr processing: instructions and run tree reduction ">
<polygon fill="white" stroke="black" points="801.5,-112.5 801.5,-131.5 877.5,-131.5 877.5,-112.5 801.5,-112.5"/>
<text text-anchor="middle" x="839.5" y="-119.5" font-family="Helvetica,sans-Serif" font-size="10.00">src/process.c</text>
</a>
</g>
</g>
<!-- Node2&#45;&gt;Node12 -->
<g id="edge13" class="edge"><title>Node2&#45;&gt;Node12</title>
<path fill="none" stroke="midnightblue" d="M507.329,-168.993C588.127,-157.806 732.586,-137.804 801.239,-128.298"/>
<polygon fill="midnightblue" stroke="midnightblue" points="506.747,-165.54 497.322,-170.379 507.707,-172.474 506.747,-165.54"/>
</g>
<!-- Node2&#45;&gt;Node13 -->
<g id="edge14" class="edge"><title>Node2&#45;&gt;Node13</title>
<path fill="none" stroke="midnightblue" d="M398.556,-166.379C348.839,-156.013 274.291,-140.47 229.232,-131.075"/>
<polygon fill="midnightblue" stroke="midnightblue" points="397.957,-169.829 408.461,-168.444 399.386,-162.976 397.957,-169.829"/>
</g>
<!-- Node14 -->
<g id="node14" class="node"><title>Node14</title>
<g id="a_node14"><a xlink:href="vmhost_8c.html" target="_top" xlink:title="virtual machine host receptor implementation ">
<polygon fill="white" stroke="black" points="285.5,-112.5 285.5,-131.5 359.5,-131.5 359.5,-112.5 285.5,-112.5"/>
<text text-anchor="middle" x="322.5" y="-119.5" font-family="Helvetica,sans-Serif" font-size="10.00">src/vmhost.c</text>
</a>
</g>
</g>
<!-- Node2&#45;&gt;Node14 -->
<g id="edge15" class="edge"><title>Node2&#45;&gt;Node14</title>
<path fill="none" stroke="midnightblue" d="M420.109,-164.503C396.3,-154.38 363.394,-140.388 342.529,-131.516"/>
<polygon fill="midnightblue" stroke="midnightblue" points="418.804,-167.751 429.376,-168.444 421.543,-161.31 418.804,-167.751"/>
</g>
<!-- Node15 -->
<g id="node15" class="node"><title>Node15</title>
<g id="a_node15"><a xlink:href="accumulator__spec_8h_source.html" target="_top" xlink:title="spec/accumulator_spec.h">
<polygon fill="white" stroke="black" points="617.5,-112.5 617.5,-131.5 745.5,-131.5 745.5,-112.5 617.5,-112.5"/>
<text text-anchor="middle" x="681.5" y="-119.5" font-family="Helvetica,sans-Serif" font-size="10.00">spec/accumulator_spec.h</text>
</a>
</g>
</g>
<!-- Node2&#45;&gt;Node15 -->
<g id="edge16" class="edge"><title>Node2&#45;&gt;Node15</title>
<path fill="none" stroke="midnightblue" d="M496.103,-166.153C539.937,-155.95 604.678,-140.881 644.911,-131.516"/>
<polygon fill="midnightblue" stroke="midnightblue" points="495.207,-162.768 486.261,-168.444 496.794,-169.585 495.207,-162.768"/>
</g>
<!-- Node16 -->
<g id="node16" class="node"><title>Node16</title>
<g id="a_node16"><a xlink:href="http__example_8h.html" target="_top" xlink:title="spec/http_example.h">
<polygon fill="white" stroke="black" points="934,-112.5 934,-131.5 1041,-131.5 1041,-112.5 934,-112.5"/>
<text text-anchor="middle" x="987.5" y="-119.5" font-family="Helvetica,sans-Serif" font-size="10.00">spec/http_example.h</text>
</a>
</g>
</g>
<!-- Node2&#45;&gt;Node16 -->
<g id="edge18" class="edge"><title>Node2&#45;&gt;Node16</title>
<path fill="none" stroke="midnightblue" d="M507.328,-171.196C612.199,-160.67 832.285,-138.579 933.938,-128.376"/>
<polygon fill="midnightblue" stroke="midnightblue" points="506.844,-167.727 497.244,-172.208 507.543,-174.692 506.844,-167.727"/>
</g>
<!-- Node20 -->
<g id="node20" class="node"><title>Node20</title>
<g id="a_node20"><a xlink:href="receptor__spec_8h.html" target="_top" xlink:title="spec/receptor_spec.h">
<polygon fill="white" stroke="black" points="829.5,-56.5 829.5,-75.5 939.5,-75.5 939.5,-56.5 829.5,-56.5"/>
<text text-anchor="middle" x="884.5" y="-63.5" font-family="Helvetica,sans-Serif" font-size="10.00">spec/receptor_spec.h</text>
</a>
</g>
</g>
<!-- Node2&#45;&gt;Node20 -->
<g id="edge29" class="edge"><title>Node2&#45;&gt;Node20</title>
<path fill="none" stroke="midnightblue" d="M475.945,-164.015C506.977,-149.295 560.327,-125.584 608.5,-112 683.497,-90.852 772.942,-78.5335 829.24,-72.2857"/>
<polygon fill="midnightblue" stroke="midnightblue" points="474.191,-160.975 466.688,-168.455 477.218,-167.286 474.191,-160.975"/>
</g>
<!-- Node5&#45;&gt;Node4 -->
<g id="edge5" class="edge"><title>Node5&#45;&gt;Node4</title>
<path fill="none" stroke="midnightblue" d="M375.054,-109.039C346.642,-98.8786 306.563,-84.5457 281.314,-75.5164"/>
<polygon fill="midnightblue" stroke="midnightblue" points="373.979,-112.372 384.574,-112.444 376.336,-105.781 373.979,-112.372"/>
</g>
<!-- Node6 -->
<g id="node6" class="node"><title>Node6</title>
<g id="a_node6"><a xlink:href="shell_8c.html" target="_top" xlink:title="implementation of a command line shell receptor ">
<polygon fill="white" stroke="black" points="377.5,-56.5 377.5,-75.5 439.5,-75.5 439.5,-56.5 377.5,-56.5"/>
<text text-anchor="middle" x="408.5" y="-63.5" font-family="Helvetica,sans-Serif" font-size="10.00">src/shell.c</text>
</a>
</g>
</g>
<!-- Node5&#45;&gt;Node6 -->
<g id="edge6" class="edge"><title>Node5&#45;&gt;Node6</title>
<path fill="none" stroke="midnightblue" d="M408.5,-101.805C408.5,-92.9102 408.5,-82.7798 408.5,-75.7511"/>
<polygon fill="midnightblue" stroke="midnightblue" points="405,-102.083 408.5,-112.083 412,-102.083 405,-102.083"/>
</g>
<!-- Node7 -->
<g id="node7" class="node"><title>Node7</title>
<g id="a_node7"><a xlink:href="vmhost__spec_8h.html" target="_top" xlink:title="spec/vmhost_spec.h">
<polygon fill="white" stroke="black" points="663,-56.5 663,-75.5 770,-75.5 770,-56.5 663,-56.5"/>
<text text-anchor="middle" x="716.5" y="-63.5" font-family="Helvetica,sans-Serif" font-size="10.00">spec/vmhost_spec.h</text>
</a>
</g>
</g>
<!-- Node5&#45;&gt;Node7 -->
<g id="edge7" class="edge"><title>Node5&#45;&gt;Node7</title>
<path fill="none" stroke="midnightblue" d="M450.095,-111.768C529.588,-96.3249 610.966,-83.1714 662.953,-75.104"/>
<polygon fill="midnightblue" stroke="midnightblue" points="449.05,-108.406 439.908,-113.762 450.395,-115.276 449.05,-108.406"/>
</g>
<!-- Node8 -->
<g id="node8" class="node"><title>Node8</title>
<g id="a_node8"><a xlink:href="ceptr__specs_8c.html" target="_top" xlink:title="implements a main() entry point for running all the tests ">
<polygon fill="white" stroke="black" points="1288.5,-0.5 1288.5,-19.5 1390.5,-19.5 1390.5,-0.5 1288.5,-0.5"/>
<text text-anchor="middle" x="1339.5" y="-7.5" font-family="Helvetica,sans-Serif" font-size="10.00">spec/ceptr_specs.c</text>
</a>
</g>
</g>
<!-- Node7&#45;&gt;Node8 -->
<g id="edge8" class="edge"><title>Node7&#45;&gt;Node8</title>
<path fill="none" stroke="midnightblue" d="M780.526,-56.6456C782.54,-56.422 784.535,-56.2062 786.5,-56 970.912,-36.6524 1190.67,-20.9573 1288.34,-14.3614"/>
<polygon fill="midnightblue" stroke="midnightblue" points="779.889,-53.1958 770.356,-57.8182 780.691,-60.1497 779.889,-53.1958"/>
</g>
<!-- Node10 -->
<g id="node10" class="node"><title>Node10</title>
<g id="a_node10"><a xlink:href="group_8c.html" target="_top" xlink:title="implementation of some group communication receptors ">
<polygon fill="white" stroke="black" points="458,-56.5 458,-75.5 523,-75.5 523,-56.5 458,-56.5"/>
<text text-anchor="middle" x="490.5" y="-63.5" font-family="Helvetica,sans-Serif" font-size="10.00">src/group.c</text>
</a>
</g>
</g>
<!-- Node9&#45;&gt;Node10 -->
<g id="edge10" class="edge"><title>Node9&#45;&gt;Node10</title>
<path fill="none" stroke="midnightblue" d="M490.5,-101.805C490.5,-92.9102 490.5,-82.7798 490.5,-75.7511"/>
<polygon fill="midnightblue" stroke="midnightblue" points="487,-102.083 490.5,-112.083 494,-102.083 487,-102.083"/>
</g>
<!-- Node11 -->
<g id="node11" class="node"><title>Node11</title>
<g id="a_node11"><a xlink:href="group__spec_8h.html" target="_top" xlink:title="spec/group_spec.h">
<polygon fill="white" stroke="black" points="542,-56.5 542,-75.5 641,-75.5 641,-56.5 542,-56.5"/>
<text text-anchor="middle" x="591.5" y="-63.5" font-family="Helvetica,sans-Serif" font-size="10.00">spec/group_spec.h</text>
</a>
</g>
</g>
<!-- Node9&#45;&gt;Node11 -->
<g id="edge11" class="edge"><title>Node9&#45;&gt;Node11</title>
<path fill="none" stroke="midnightblue" d="M515.583,-107.59C534.257,-97.6052 559.204,-84.2672 575.313,-75.6545"/>
<polygon fill="midnightblue" stroke="midnightblue" points="513.896,-104.522 506.727,-112.324 517.196,-110.696 513.896,-104.522"/>
</g>
<!-- Node11&#45;&gt;Node8 -->
<g id="edge12" class="edge"><title>Node11&#45;&gt;Node8</title>
<path fill="none" stroke="midnightblue" d="M651.235,-56.2437C651.994,-56.1602 652.75,-56.079 653.5,-56 890.006,-31.1161 1173.92,-17.7073 1288.18,-12.9852"/>
<polygon fill="midnightblue" stroke="midnightblue" points="650.72,-52.7801 641.202,-57.4342 651.545,-59.7314 650.72,-52.7801"/>
</g>
<!-- Node15&#45;&gt;Node8 -->
<g id="edge17" class="edge"><title>Node15&#45;&gt;Node8</title>
<path fill="none" stroke="midnightblue" d="M709.303,-108.191C728.715,-99.2268 755.216,-86.9442 778.5,-76 797.211,-67.205 800.549,-61.424 820.5,-56 907.774,-32.2727 1175.45,-18.1535 1288.39,-13.1117"/>
<polygon fill="midnightblue" stroke="midnightblue" points="707.735,-105.061 700.121,-112.429 710.668,-111.416 707.735,-105.061"/>
</g>
<!-- Node16&#45;&gt;Node7 -->
<g id="edge27" class="edge"><title>Node16&#45;&gt;Node7</title>
<path fill="none" stroke="midnightblue" d="M934.672,-110.473C883.455,-100.268 806.73,-84.9794 759.24,-75.5164"/>
<polygon fill="midnightblue" stroke="midnightblue" points="934.068,-113.922 944.559,-112.444 935.436,-107.057 934.068,-113.922"/>
</g>
<!-- Node16&#45;&gt;Node8 -->
<g id="edge28" class="edge"><title>Node16&#45;&gt;Node8</title>
<path fill="none" stroke="midnightblue" d="M981.119,-102.344C977.483,-87.9351 975.564,-68.4192 986.5,-56 1006.12,-33.7156 1195.35,-19.5229 1288.38,-13.8361"/>
<polygon fill="midnightblue" stroke="midnightblue" points="977.837,-103.584 984.05,-112.166 984.544,-101.582 977.837,-103.584"/>
</g>
<!-- Node17 -->
<g id="node17" class="node"><title>Node17</title>
<g id="a_node17"><a xlink:href="tree__spec_8h.html" target="_top" xlink:title="spec/tree_spec.h">
<polygon fill="white" stroke="black" points="1123.5,-56.5 1123.5,-75.5 1215.5,-75.5 1215.5,-56.5 1123.5,-56.5"/>
<text text-anchor="middle" x="1169.5" y="-63.5" font-family="Helvetica,sans-Serif" font-size="10.00">spec/tree_spec.h</text>
</a>
</g>
</g>
<!-- Node16&#45;&gt;Node17 -->
<g id="edge19" class="edge"><title>Node16&#45;&gt;Node17</title>
<path fill="none" stroke="midnightblue" d="M1026.03,-109.568C1060.36,-99.381 1109.83,-84.7034 1140.8,-75.5164"/>
<polygon fill="midnightblue" stroke="midnightblue" points="1024.93,-106.244 1016.34,-112.444 1026.92,-112.954 1024.93,-106.244"/>
</g>
<!-- Node18 -->
<g id="node18" class="node"><title>Node18</title>
<g id="a_node18"><a xlink:href="mtree__spec_8h.html" target="_top" xlink:title="spec/mtree_spec.h">
<polygon fill="white" stroke="black" points="1233.5,-56.5 1233.5,-75.5 1333.5,-75.5 1333.5,-56.5 1233.5,-56.5"/>
<text text-anchor="middle" x="1283.5" y="-63.5" font-family="Helvetica,sans-Serif" font-size="10.00">spec/mtree_spec.h</text>
</a>
</g>
</g>
<!-- Node16&#45;&gt;Node18 -->
<g id="edge21" class="edge"><title>Node16&#45;&gt;Node18</title>
<path fill="none" stroke="midnightblue" d="M1044.5,-110.601C1100.44,-100.395 1184.73,-85.0189 1236.82,-75.5164"/>
<polygon fill="midnightblue" stroke="midnightblue" points="1043.61,-107.206 1034.4,-112.444 1044.87,-114.092 1043.61,-107.206"/>
</g>
<!-- Node19 -->
<g id="node19" class="node"><title>Node19</title>
<g id="a_node19"><a xlink:href="semtrex__spec_8h.html" target="_top" xlink:title="spec/semtrex_spec.h">
<polygon fill="white" stroke="black" points="995.5,-56.5 995.5,-75.5 1105.5,-75.5 1105.5,-56.5 995.5,-56.5"/>
<text text-anchor="middle" x="1050.5" y="-63.5" font-family="Helvetica,sans-Serif" font-size="10.00">spec/semtrex_spec.h</text>
</a>
</g>
</g>
<!-- Node16&#45;&gt;Node19 -->
<g id="edge23" class="edge"><title>Node16&#45;&gt;Node19</title>
<path fill="none" stroke="midnightblue" d="M1005.54,-105.537C1016.77,-95.9087 1030.82,-83.8694 1040.19,-75.8339"/>
<polygon fill="midnightblue" stroke="midnightblue" points="1002.94,-103.159 997.622,-112.324 1007.49,-108.473 1002.94,-103.159"/>
</g>
<!-- Node16&#45;&gt;Node20 -->
<g id="edge25" class="edge"><title>Node16&#45;&gt;Node20</title>
<path fill="none" stroke="midnightblue" d="M961.921,-107.59C942.877,-97.6052 917.436,-84.2672 901.008,-75.6545"/>
<polygon fill="midnightblue" stroke="midnightblue" points="960.469,-110.78 970.951,-112.324 963.72,-104.581 960.469,-110.78"/>
</g>
<!-- Node17&#45;&gt;Node8 -->
<g id="edge20" class="edge"><title>Node17&#45;&gt;Node8</title>
<path fill="none" stroke="midnightblue" d="M1206.32,-53.3044C1238.35,-43.1294 1284.02,-28.6246 1312.69,-19.5164"/>
<polygon fill="midnightblue" stroke="midnightblue" points="1204.91,-50.0803 1196.44,-56.4435 1207.03,-56.7518 1204.91,-50.0803"/>
</g>
<!-- Node18&#45;&gt;Node8 -->
<g id="edge22" class="edge"><title>Node18&#45;&gt;Node8</title>
<path fill="none" stroke="midnightblue" d="M1299.83,-49.2533C1309.76,-39.6731 1322.09,-27.7906 1330.34,-19.8339"/>
<polygon fill="midnightblue" stroke="midnightblue" points="1297.27,-46.8631 1292.5,-56.324 1302.13,-51.902 1297.27,-46.8631"/>
</g>
<!-- Node19&#45;&gt;Node8 -->
<g id="edge24" class="edge"><title>Node19&#45;&gt;Node8</title>
<path fill="none" stroke="midnightblue" d="M1106.16,-54.6007C1160.77,-44.3953 1243.07,-29.0189 1293.92,-19.5164"/>
<polygon fill="midnightblue" stroke="midnightblue" points="1105.48,-51.1663 1096.29,-56.4435 1106.77,-58.0472 1105.48,-51.1663"/>
</g>
<!-- Node20&#45;&gt;Node8 -->
<g id="edge26" class="edge"><title>Node20&#45;&gt;Node8</title>
<path fill="none" stroke="midnightblue" d="M950.145,-56.4161C951.272,-56.2758 952.391,-56.137 953.5,-56 1073.36,-41.1975 1214.32,-25.0946 1288.27,-16.7468"/>
<polygon fill="midnightblue" stroke="midnightblue" points="949.337,-52.9902 939.853,-57.7125 950.212,-59.9353 949.337,-52.9902"/>
</g>
<!-- Node21&#45;&gt;Node4 -->
<g id="edge32" class="edge"><title>Node21&#45;&gt;Node4</title>
<path fill="none" stroke="midnightblue" d="M1139.59,-232.369C953.199,-229.118 205.911,-211.186 142.5,-132 116.768,-99.8669 183.66,-80.8387 225.936,-72.3358"/>
<polygon fill="midnightblue" stroke="midnightblue" points="1139.74,-235.872 1149.8,-232.543 1139.86,-228.873 1139.74,-235.872"/>
</g>
<!-- Node21&#45;&gt;Node7 -->
<g id="edge60" class="edge"><title>Node21&#45;&gt;Node7</title>
<path fill="none" stroke="midnightblue" d="M1139.62,-233.091C1017.24,-232.298 665.266,-222.104 608.5,-132 590.127,-102.838 635.241,-84.9553 672.678,-75.5116"/>
<polygon fill="midnightblue" stroke="midnightblue" points="1139.71,-236.592 1149.72,-233.138 1139.74,-229.592 1139.71,-236.592"/>
</g>
<!-- Node21&#45;&gt;Node8 -->
<g id="edge44" class="edge"><title>Node21&#45;&gt;Node8</title>
<path fill="none" stroke="midnightblue" d="M1223.17,-224.471C1337.62,-215.444 1880.76,-243.482 1933.5,-188 2093.46,-19.7387 1561.9,-9.37243 1390.8,-10.2722"/>
<polygon fill="midnightblue" stroke="midnightblue" points="1222.78,-220.992 1213.19,-225.5 1223.5,-227.955 1222.78,-220.992"/>
</g>
<!-- Node21&#45;&gt;Node15 -->
<g id="edge43" class="edge"><title>Node21&#45;&gt;Node15</title>
<path fill="none" stroke="midnightblue" d="M1139.89,-231.621C1047.37,-228.065 827.445,-216.765 759.5,-188 728.983,-175.08 701.222,-146.081 688.627,-131.587"/>
<polygon fill="midnightblue" stroke="midnightblue" points="1139.87,-235.123 1150,-231.998 1140.14,-228.128 1139.87,-235.123"/>
</g>
<!-- Node21&#45;&gt;Node16 -->
<g id="edge48" class="edge"><title>Node21&#45;&gt;Node16</title>
<path fill="none" stroke="midnightblue" d="M1140.06,-222.959C1114.49,-215.637 1081.68,-204.154 1055.5,-188 1029.93,-172.218 1005.99,-145.544 994.543,-131.788"/>
<polygon fill="midnightblue" stroke="midnightblue" points="1139.26,-226.369 1149.83,-225.655 1141.12,-219.621 1139.26,-226.369"/>
</g>
<!-- Node21&#45;&gt;Node17 -->
<g id="edge47" class="edge"><title>Node21&#45;&gt;Node17</title>
<path fill="none" stroke="midnightblue" d="M1198.37,-217.271C1221.29,-193.905 1257.29,-148.822 1237.5,-112 1228.12,-94.5419 1208.66,-82.7204 1192.95,-75.5916"/>
<polygon fill="midnightblue" stroke="midnightblue" points="1195.87,-214.815 1191.19,-224.32 1200.78,-219.808 1195.87,-214.815"/>
</g>
<!-- Node21&#45;&gt;Node18 -->
<g id="edge49" class="edge"><title>Node21&#45;&gt;Node18</title>
<path fill="none" stroke="midnightblue" d="M1210.98,-220.283C1230.6,-211.616 1256.85,-199.642 1279.5,-188 1295.43,-179.809 1297.93,-174.809 1314.5,-168 1371.94,-144.399 1411.67,-181.242 1449.5,-132 1454.92,-124.951 1454.9,-119.06 1449.5,-112 1441.83,-101.98 1371.95,-85.5783 1325.33,-75.5875"/>
<polygon fill="midnightblue" stroke="midnightblue" points="1209.4,-217.154 1201.64,-224.375 1212.21,-223.565 1209.4,-217.154"/>
</g>
<!-- Node21&#45;&gt;Node19 -->
<g id="edge54" class="edge"><title>Node21&#45;&gt;Node19</title>
<path fill="none" stroke="midnightblue" d="M1140.34,-221.345C1122.21,-214.332 1102.01,-203.651 1088.5,-188 1059.15,-154.001 1052.44,-97.3517 1050.93,-75.7408"/>
<polygon fill="midnightblue" stroke="midnightblue" points="1139.27,-224.678 1149.86,-224.778 1141.64,-218.093 1139.27,-224.678"/>
</g>
<!-- Node21&#45;&gt;Node20 -->
<g id="edge55" class="edge"><title>Node21&#45;&gt;Node20</title>
<path fill="none" stroke="midnightblue" d="M1139.98,-228.545C1048.69,-217.804 835.199,-187.201 792.5,-132 772.398,-106.012 818.301,-86.1403 852.235,-75.5491"/>
<polygon fill="midnightblue" stroke="midnightblue" points="1139.64,-232.028 1149.98,-229.698 1140.45,-225.075 1139.64,-232.028"/>
</g>
<!-- Node22 -->
<g id="node22" class="node"><title>Node22</title>
<g id="a_node22"><a xlink:href="spec__utils_8h.html" target="_top" xlink:title="spec/spec_utils.h">
<polygon fill="white" stroke="black" points="1098,-168.5 1098,-187.5 1191,-187.5 1191,-168.5 1098,-168.5"/>
<text text-anchor="middle" x="1144.5" y="-175.5" font-family="Helvetica,sans-Serif" font-size="10.00">spec/spec_utils.h</text>
</a>
</g>
</g>
<!-- Node21&#45;&gt;Node22 -->
<g id="edge33" class="edge"><title>Node21&#45;&gt;Node22</title>
<path fill="none" stroke="midnightblue" d="M1169.55,-215.566C1163.19,-206.275 1155.63,-195.248 1150.5,-187.751"/>
<polygon fill="midnightblue" stroke="midnightblue" points="1166.85,-217.812 1175.39,-224.083 1172.63,-213.855 1166.85,-217.812"/>
</g>
<!-- Node24 -->
<g id="node24" class="node"><title>Node24</title>
<g id="a_node24"><a xlink:href="profile__example_8h.html" target="_top" xlink:title="spec/profile_example.h">
<polygon fill="white" stroke="black" points="1324,-112.5 1324,-131.5 1441,-131.5 1441,-112.5 1324,-112.5"/>
<text text-anchor="middle" x="1382.5" y="-119.5" font-family="Helvetica,sans-Serif" font-size="10.00">spec/profile_example.h</text>
</a>
</g>
</g>
<!-- Node21&#45;&gt;Node24 -->
<g id="edge61" class="edge"><title>Node21&#45;&gt;Node24</title>
<path fill="none" stroke="midnightblue" d="M1201.67,-218.539C1221.47,-204.673 1252.79,-183.604 1281.5,-168 1307.98,-153.61 1339.97,-139.945 1360.75,-131.528"/>
<polygon fill="midnightblue" stroke="midnightblue" points="1199.58,-215.728 1193.44,-224.357 1203.62,-221.445 1199.58,-215.728"/>
</g>
<!-- Node26 -->
<g id="node26" class="node"><title>Node26</title>
<g id="a_node26"><a xlink:href="test__framework_8h.html" target="_top" xlink:title="implements the testing harness ">
<polygon fill="white" stroke="black" points="1323.5,-168.5 1323.5,-187.5 1439.5,-187.5 1439.5,-168.5 1323.5,-168.5"/>
<text text-anchor="middle" x="1381.5" y="-175.5" font-family="Helvetica,sans-Serif" font-size="10.00">spec/test_framework.h</text>
</a>
</g>
</g>
<!-- Node21&#45;&gt;Node26 -->
<g id="edge45" class="edge"><title>Node21&#45;&gt;Node26</title>
<path fill="none" stroke="midnightblue" d="M1222.87,-221.829C1260.64,-211.633 1315.64,-196.782 1349.96,-187.516"/>
<polygon fill="midnightblue" stroke="midnightblue" points="1221.93,-218.458 1213.19,-224.444 1223.76,-225.216 1221.93,-218.458"/>
</g>
<!-- Node27 -->
<g id="node27" class="node"><title>Node27</title>
<g id="a_node27"><a xlink:href="stream__spec_8h.html" target="_top" xlink:title="spec/stream_spec.h">
<polygon fill="white" stroke="black" points="1458,-168.5 1458,-187.5 1563,-187.5 1563,-168.5 1458,-168.5"/>
<text text-anchor="middle" x="1510.5" y="-175.5" font-family="Helvetica,sans-Serif" font-size="10.00">spec/stream_spec.h</text>
</a>
</g>
</g>
<!-- Node21&#45;&gt;Node27 -->
<g id="edge50" class="edge"><title>Node21&#45;&gt;Node27</title>
<path fill="none" stroke="midnightblue" d="M1223.28,-223.975C1280.5,-213.614 1391.47,-196.771 1457.72,-186.851"/>
<polygon fill="midnightblue" stroke="midnightblue" points="1222.44,-220.571 1213.25,-225.831 1223.71,-227.454 1222.44,-220.571"/>
</g>
<!-- Node28 -->
<g id="node28" class="node"><title>Node28</title>
<g id="a_node28"><a xlink:href="label__spec_8h.html" target="_top" xlink:title="spec/label_spec.h">
<polygon fill="white" stroke="black" points="1581,-168.5 1581,-187.5 1676,-187.5 1676,-168.5 1581,-168.5"/>
<text text-anchor="middle" x="1628.5" y="-175.5" font-family="Helvetica,sans-Serif" font-size="10.00">spec/label_spec.h</text>
</a>
</g>
</g>
<!-- Node21&#45;&gt;Node28 -->
<g id="edge52" class="edge"><title>Node21&#45;&gt;Node28</title>
<path fill="none" stroke="midnightblue" d="M1223.13,-224.081C1378.61,-199.562 1420.64,-207.996 1572.5,-188 1575.23,-187.64 1578.04,-187.251 1580.87,-186.844"/>
<polygon fill="midnightblue" stroke="midnightblue" points="1222.54,-220.631 1213.22,-225.665 1223.64,-227.544 1222.54,-220.631"/>
</g>
<!-- Node29 -->
<g id="node29" class="node"><title>Node29</title>
<g id="a_node29"><a xlink:href="process__spec_8h.html" target="_top" xlink:title="spec/process_spec.h">
<polygon fill="white" stroke="black" points="1694.5,-168.5 1694.5,-187.5 1804.5,-187.5 1804.5,-168.5 1694.5,-168.5"/>
<text text-anchor="middle" x="1749.5" y="-175.5" font-family="Helvetica,sans-Serif" font-size="10.00">spec/process_spec.h</text>
</a>
</g>
</g>
<!-- Node21&#45;&gt;Node29 -->
<g id="edge56" class="edge"><title>Node21&#45;&gt;Node29</title>
<path fill="none" stroke="midnightblue" d="M1223.4,-224.087C1428.45,-194.325 1483.62,-210.021 1685.5,-188 1688.4,-187.684 1691.37,-187.339 1694.37,-186.974"/>
<polygon fill="midnightblue" stroke="midnightblue" points="1222.59,-220.669 1213.2,-225.586 1223.61,-227.594 1222.59,-220.669"/>
</g>
<!-- Node30 -->
<g id="node30" class="node"><title>Node30</title>
<g id="a_node30"><a xlink:href="scape__spec_8h.html" target="_top" xlink:title="spec/scape_spec.h">
<polygon fill="white" stroke="black" points="1823,-168.5 1823,-187.5 1924,-187.5 1924,-168.5 1823,-168.5"/>
<text text-anchor="middle" x="1873.5" y="-175.5" font-family="Helvetica,sans-Serif" font-size="10.00">spec/scape_spec.h</text>
</a>
</g>
</g>
<!-- Node21&#45;&gt;Node30 -->
<g id="edge58" class="edge"><title>Node21&#45;&gt;Node30</title>
<path fill="none" stroke="midnightblue" d="M1223.38,-224.123C1484.91,-188.378 1555.11,-215.195 1813.5,-188 1816.54,-187.68 1819.66,-187.317 1822.8,-186.925"/>
<polygon fill="midnightblue" stroke="midnightblue" points="1222.62,-220.694 1213.2,-225.533 1223.58,-227.628 1222.62,-220.694"/>
</g>
<!-- Node22&#45;&gt;Node12 -->
<g id="edge34" class="edge"><title>Node22&#45;&gt;Node12</title>
<path fill="none" stroke="midnightblue" d="M1087.97,-166.991C1026.8,-156.161 930.929,-139.188 877.938,-129.805"/>
<polygon fill="midnightblue" stroke="midnightblue" points="1087.39,-170.443 1097.85,-168.74 1088.61,-163.55 1087.39,-170.443"/>
</g>
<!-- Node22&#45;&gt;Node16 -->
<g id="edge37" class="edge"><title>Node22&#45;&gt;Node16</title>
<path fill="none" stroke="midnightblue" d="M1110.11,-165.172C1080.55,-155.004 1038.63,-140.585 1012.26,-131.516"/>
<polygon fill="midnightblue" stroke="midnightblue" points="1109.03,-168.501 1119.62,-168.444 1111.3,-161.881 1109.03,-168.501"/>
</g>
<!-- Node22&#45;&gt;Node19 -->
<g id="edge38" class="edge"><title>Node22&#45;&gt;Node19</title>
<path fill="none" stroke="midnightblue" d="M1130.47,-160.586C1110.21,-136.871 1073.46,-93.8691 1057.84,-75.5914"/>
<polygon fill="midnightblue" stroke="midnightblue" points="1127.97,-163.04 1137.12,-168.368 1133.29,-158.492 1127.97,-163.04"/>
</g>
<!-- Node22&#45;&gt;Node20 -->
<g id="edge39" class="edge"><title>Node22&#45;&gt;Node20</title>
<path fill="none" stroke="midnightblue" d="M1087.68,-170.565C1031.52,-163.301 950.362,-150.093 924.5,-132 904.306,-117.872 892.341,-89.9608 887.307,-75.7531"/>
<polygon fill="midnightblue" stroke="midnightblue" points="1087.5,-174.07 1097.86,-171.852 1088.38,-167.125 1087.5,-174.07"/>
</g>
<!-- Node23 -->
<g id="node23" class="node"><title>Node23</title>
<g id="a_node23"><a xlink:href="def__spec_8h.html" target="_top" xlink:title="spec/def_spec.h">
<polygon fill="white" stroke="black" points="1352,-56.5 1352,-75.5 1441,-75.5 1441,-56.5 1352,-56.5"/>
<text text-anchor="middle" x="1396.5" y="-63.5" font-family="Helvetica,sans-Serif" font-size="10.00">spec/def_spec.h</text>
</a>
</g>
</g>
<!-- Node22&#45;&gt;Node23 -->
<g id="edge35" class="edge"><title>Node22&#45;&gt;Node23</title>
<path fill="none" stroke="midnightblue" d="M1173.58,-164.305C1225.46,-141.66 1332.65,-94.8712 1376.82,-75.5914"/>
<polygon fill="midnightblue" stroke="midnightblue" points="1172.04,-161.16 1164.27,-168.368 1174.84,-167.576 1172.04,-161.16"/>
</g>
<!-- Node22&#45;&gt;Node24 -->
<g id="edge40" class="edge"><title>Node22&#45;&gt;Node24</title>
<path fill="none" stroke="midnightblue" d="M1192.02,-166.217C1237,-156.013 1303.6,-140.901 1344.96,-131.516"/>
<polygon fill="midnightblue" stroke="midnightblue" points="1191.19,-162.818 1182.21,-168.444 1192.74,-169.644 1191.19,-162.818"/>
</g>
<!-- Node25 -->
<g id="node25" class="node"><title>Node25</title>
<g id="a_node25"><a xlink:href="spec__utils_8c.html" target="_top" xlink:title="spec/spec_utils.c">
<polygon fill="white" stroke="black" points="1136,-112.5 1136,-131.5 1229,-131.5 1229,-112.5 1136,-112.5"/>
<text text-anchor="middle" x="1182.5" y="-119.5" font-family="Helvetica,sans-Serif" font-size="10.00">spec/spec_utils.c</text>
</a>
</g>
</g>
<!-- Node22&#45;&gt;Node25 -->
<g id="edge42" class="edge"><title>Node22&#45;&gt;Node25</title>
<path fill="none" stroke="midnightblue" d="M1156.56,-159.855C1163.14,-150.505 1171.01,-139.327 1176.34,-131.751"/>
<polygon fill="midnightblue" stroke="midnightblue" points="1153.67,-157.891 1150.77,-168.083 1159.39,-161.919 1153.67,-157.891"/>
</g>
<!-- Node23&#45;&gt;Node8 -->
<g id="edge36" class="edge"><title>Node23&#45;&gt;Node8</title>
<path fill="none" stroke="midnightblue" d="M1379.88,-49.2533C1369.77,-39.6731 1357.22,-27.7906 1348.82,-19.8339"/>
<polygon fill="midnightblue" stroke="midnightblue" points="1377.68,-51.9873 1387.34,-56.324 1382.49,-46.9056 1377.68,-51.9873"/>
</g>
<!-- Node24&#45;&gt;Node8 -->
<g id="edge41" class="edge"><title>Node24&#45;&gt;Node8</title>
<path fill="none" stroke="midnightblue" d="M1412.74,-108.043C1436.48,-95.9363 1463.38,-76.6687 1449.5,-56 1436.22,-36.2138 1412.53,-25.1215 1390.53,-18.9059"/>
<polygon fill="midnightblue" stroke="midnightblue" points="1411.04,-104.975 1403.56,-112.472 1414.08,-111.28 1411.04,-104.975"/>
</g>
<!-- Node26&#45;&gt;Node8 -->
<g id="edge46" class="edge"><title>Node26&#45;&gt;Node8</title>
<path fill="none" stroke="midnightblue" d="M1437.65,-165.126C1455.36,-158.449 1473.02,-148.075 1483.5,-132 1488.35,-124.553 1484.88,-120.782 1483.5,-112 1479.45,-86.1724 1483.69,-74.7795 1465.5,-56 1445.79,-35.6434 1416.24,-24.4692 1390.72,-18.3486"/>
<polygon fill="midnightblue" stroke="midnightblue" points="1436.19,-161.926 1427.86,-168.467 1438.45,-168.552 1436.19,-161.926"/>
</g>
<!-- Node27&#45;&gt;Node8 -->
<g id="edge51" class="edge"><title>Node27&#45;&gt;Node8</title>
<path fill="none" stroke="midnightblue" d="M1512.34,-158.223C1513.82,-131.922 1512.36,-84.1795 1486.5,-56 1462.14,-29.4507 1422.59,-18.3885 1390.65,-13.8625"/>
<polygon fill="midnightblue" stroke="midnightblue" points="1508.83,-158.119 1511.56,-168.358 1515.81,-158.657 1508.83,-158.119"/>
</g>
<!-- Node28&#45;&gt;Node8 -->
<g id="edge53" class="edge"><title>Node28&#45;&gt;Node8</title>
<path fill="none" stroke="midnightblue" d="M1616.36,-160.284C1596.41,-134.061 1554.14,-83.4212 1506.5,-56 1470.72,-35.4047 1425.19,-23.9514 1390.72,-17.761"/>
<polygon fill="midnightblue" stroke="midnightblue" points="1613.67,-162.537 1622.45,-168.464 1619.28,-158.354 1613.67,-162.537"/>
</g>
<!-- Node29&#45;&gt;Node8 -->
<g id="edge57" class="edge"><title>Node29&#45;&gt;Node8</title>
<path fill="none" stroke="midnightblue" d="M1728.42,-162.493C1690.88,-137.292 1609.26,-85.3198 1533.5,-56 1486.58,-37.8423 1430.33,-25.7883 1390.51,-18.7654"/>
<polygon fill="midnightblue" stroke="midnightblue" points="1726.74,-165.584 1736.98,-168.293 1730.66,-159.788 1726.74,-165.584"/>
</g>
<!-- Node30&#45;&gt;Node8 -->
<g id="edge59" class="edge"><title>Node30&#45;&gt;Node8</title>
<path fill="none" stroke="midnightblue" d="M1846.1,-164.087C1793.54,-139.77 1674.46,-86.8642 1569.5,-56 1509.19,-38.265 1437.9,-25.5463 1390.86,-18.2487"/>
<polygon fill="midnightblue" stroke="midnightblue" points="1844.87,-167.374 1855.41,-168.418 1847.82,-161.027 1844.87,-167.374"/>
</g>
</g>
</svg>
        <g id="navigator" transform="translate(0 0)" fill="#404254">
                <rect fill="#f2f5e9" fill-opacity="0.5" stroke="#606060" stroke-width=".5" x="0" y="0" width="60" height="60"/>
                <use id="zoomplus" xlink:href="#zoomPlus" x="17" y="9" onmousedown="handleZoom(evt,'in')"/>
                <use id="zoomminus" xlink:href="#zoomMin" x="42" y="9" onmousedown="handleZoom(evt,'out')"/>
                <use id="reset" xlink:href="#resetDef" x="30" y="36" onmousedown="handleReset()"/>
                <g id="arrowUp" xlink:href="#dirArrow" transform="translate(30 24)" onmousedown="handlePan(0,-1)">
                  <use xlink:href="#rim" fill="#404040">
                        <set attributeName="fill" to="#808080" begin="arrowUp.mouseover" end="arrowUp.mouseout"/>
                  </use>
                  <path fill="none" stroke="white" stroke-width="1.5" d="M0,-3.0v7 M-2.5,-0.5L0,-3.0L2.5,-0.5"/>
                </g>
                <g id="arrowRight" xlink:href="#dirArrow" transform="rotate(90) translate(36 -43)" onmousedown="handlePan(1,0)">
                  <use xlink:href="#rim" fill="#404040">
                        <set attributeName="fill" to="#808080" begin="arrowRight.mouseover" end="arrowRight.mouseout"/>
                  </use>
                  <path fill="none" stroke="white" stroke-width="1.5" d="M0,-3.0v7 M-2.5,-0.5L0,-3.0L2.5,-0.5"/>
                </g>
                <g id="arrowDown" xlink:href="#dirArrow" transform="rotate(180) translate(-30 -48)" onmousedown="handlePan(0,1)">
                  <use xlink:href="#rim" fill="#404040">
                        <set attributeName="fill" to="#808080" begin="arrowDown.mouseover" end="arrowDown.mouseout"/>
                  </use>
                  <path fill="none" stroke="white" stroke-width="1.5" d="M0,-3.0v7 M-2.5,-0.5L0,-3.0L2.5,-0.5"/>
                </g>
                <g id="arrowLeft" xlink:href="#dirArrow" transform="rotate(270) translate(-36 17)" onmousedown="handlePan(-1,0)">
                  <use xlink:href="#rim" fill="#404040">
                        <set attributeName="fill" to="#808080" begin="arrowLeft.mouseover" end="arrowLeft.mouseout"/>
                  </use>
                  <path fill="none" stroke="white" stroke-width="1.5" d="M0,-3.0v7 M-2.5,-0.5L0,-3.0L2.5,-0.5"/>
                </g>
        </g>
        <svg viewBox="0 0 15 15" width="100%" height="30px" preserveAspectRatio="xMaxYMin meet">
         <g id="arrow_out" transform="scale(0.3 0.3)">
          <a xlink:href="mtree_8h__dep__incl_org.svg" target="_base">
           <rect id="button" ry="5" rx="5" y="6" x="6" height="38" width="38"
                fill="#f2f5e9" fill-opacity="0.5" stroke="#606060" stroke-width="1.0"/>
           <path id="arrow"
             d="M 11.500037,31.436501 C 11.940474,20.09759 22.043105,11.32322 32.158766,21.979434 L 37.068811,17.246167 C 37.068811,17.246167 37.088388,32 37.088388,32 L 22.160133,31.978069 C 22.160133,31.978069 26.997745,27.140456 26.997745,27.140456 C 18.528582,18.264221 13.291696,25.230495 11.500037,31.436501 z"
             style="fill:#404040;"/>
          </a>
         </g>
        </svg>
</svg>
