<?xml version="1.0" encoding="UTF-8" standalone="no"?>
<!DOCTYPE svg PUBLIC "-//W3C//DTD SVG 1.1//EN"
 "http://www.w3.org/Graphics/SVG/1.1/DTD/svg11.dtd">
<!-- Generated by graphviz version 2.38.0 (20140413.2041)
 -->
<!-- Title: spec/mtree_spec.h Pages: 1 -->
<svg width="936pt" height="588pt"
 viewBox="0.00 0.00 936.35 588.00" xmlns="http://www.w3.org/2000/svg" xmlns:xlink="http://www.w3.org/1999/xlink">
<g id="graph0" class="graph" transform="scale(1 1) rotate(0) translate(4 584)">
<title>spec/mtree_spec.h</title>
<polygon fill="white" stroke="none" points="-4,4 -4,-584 932.353,-584 932.353,4 -4,4"/>
<!-- Node1 -->
<g id="node1" class="node"><title>Node1</title>
<polygon fill="#bfbfbf" stroke="black" points="517.853,-560.5 517.853,-579.5 617.853,-579.5 617.853,-560.5 517.853,-560.5"/>
<text text-anchor="middle" x="567.853" y="-567.5" font-family="Helvetica,sans-Serif" font-size="10.00">spec/mtree_spec.h</text>
</g>
<!-- Node2 -->
<g id="node2" class="node"><title>Node2</title>
<g id="a_node2"><a xlink:href="ceptr_8h_source.html" target="_top" xlink:title="../src/ceptr.h">
<polygon fill="white" stroke="black" points="334.853,-392.5 334.853,-411.5 406.853,-411.5 406.853,-392.5 334.853,-392.5"/>
<text text-anchor="middle" x="370.853" y="-399.5" font-family="Helvetica,sans-Serif" font-size="10.00">../src/ceptr.h</text>
</a>
</g>
</g>
<!-- Node1&#45;&gt;Node2 -->
<g id="edge1" class="edge"><title>Node1&#45;&gt;Node2</title>
<path fill="none" stroke="midnightblue" d="M545.229,-560.438C510.132,-546.145 442.299,-514.347 400.853,-468 388.955,-454.695 380.965,-435.863 376.243,-421.891"/>
<polygon fill="midnightblue" stroke="midnightblue" points="379.456,-420.437 373.144,-411.927 372.771,-422.515 379.456,-420.437"/>
</g>
<!-- Node27 -->
<g id="node27" class="node"><title>Node27</title>
<g id="a_node27"><a xlink:href="receptor_8h.html" target="_top" xlink:title="receptor implementation header file ">
<polygon fill="white" stroke="black" points="695.853,-448.5 695.853,-467.5 781.853,-467.5 781.853,-448.5 695.853,-448.5"/>
<text text-anchor="middle" x="738.853" y="-455.5" font-family="Helvetica,sans-Serif" font-size="10.00">../src/receptor.h</text>
</a>
</g>
</g>
<!-- Node1&#45;&gt;Node27 -->
<g id="edge48" class="edge"><title>Node1&#45;&gt;Node27</title>
<path fill="none" stroke="midnightblue" d="M581.271,-560.368C610.614,-541.492 680.736,-496.385 716.721,-473.237"/>
<polygon fill="midnightblue" stroke="midnightblue" points="718.98,-475.945 725.497,-467.591 715.193,-470.058 718.98,-475.945"/>
</g>
<!-- Node33 -->
<g id="node33" class="node"><title>Node33</title>
<g id="a_node33"><a xlink:href="http__example_8h.html" target="_top" xlink:title="http_example.h">
<polygon fill="white" stroke="black" points="526.353,-504.5 526.353,-523.5 609.353,-523.5 609.353,-504.5 526.353,-504.5"/>
<text text-anchor="middle" x="567.853" y="-511.5" font-family="Helvetica,sans-Serif" font-size="10.00">http_example.h</text>
</a>
</g>
</g>
<!-- Node1&#45;&gt;Node33 -->
<g id="edge60" class="edge"><title>Node1&#45;&gt;Node33</title>
<path fill="none" stroke="midnightblue" d="M567.853,-560.083C567.853,-553.006 567.853,-542.861 567.853,-533.986"/>
<polygon fill="midnightblue" stroke="midnightblue" points="571.353,-533.751 567.853,-523.751 564.353,-533.751 571.353,-533.751"/>
</g>
<!-- Node3 -->
<g id="node3" class="node"><title>Node3</title>
<polygon fill="white" stroke="#bfbfbf" points="516.353,-0.5 516.353,-19.5 565.353,-19.5 565.353,-0.5 516.353,-0.5"/>
<text text-anchor="middle" x="540.853" y="-7.5" font-family="Helvetica,sans-Serif" font-size="10.00">string.h</text>
</g>
<!-- Node2&#45;&gt;Node3 -->
<g id="edge2" class="edge"><title>Node2&#45;&gt;Node3</title>
<path fill="none" stroke="midnightblue" d="M355.33,-392.353C328.632,-376.203 276.853,-338.729 276.853,-291 276.853,-291 276.853,-291 276.853,-233 276.853,-151.375 174.399,-117.688 227.853,-56 263.489,-14.8733 431.642,-10.4575 505.695,-10.5581"/>
<polygon fill="midnightblue" stroke="midnightblue" points="505.896,-14.0589 515.911,-10.6019 505.926,-7.059 505.896,-14.0589"/>
</g>
<!-- Node4 -->
<g id="node4" class="node"><title>Node4</title>
<polygon fill="white" stroke="#bfbfbf" points="236.853,-56.5 236.853,-75.5 282.853,-75.5 282.853,-56.5 236.853,-56.5"/>
<text text-anchor="middle" x="259.853" y="-63.5" font-family="Helvetica,sans-Serif" font-size="10.00">stdio.h</text>
</g>
<!-- Node2&#45;&gt;Node4 -->
<g id="edge3" class="edge"><title>Node2&#45;&gt;Node4</title>
<path fill="none" stroke="midnightblue" d="M334.8,-394.402C284.898,-382.953 200.853,-354.276 200.853,-291 200.853,-291 200.853,-291 200.853,-233 200.853,-217.698 236.906,-124.882 252.646,-85.0895"/>
<polygon fill="midnightblue" stroke="midnightblue" points="255.903,-86.371 256.339,-75.7851 249.396,-83.7886 255.903,-86.371"/>
</g>
<!-- Node5 -->
<g id="node5" class="node"><title>Node5</title>
<polygon fill="white" stroke="#bfbfbf" points="249.853,-0.5 249.853,-19.5 297.853,-19.5 297.853,-0.5 249.853,-0.5"/>
<text text-anchor="middle" x="273.853" y="-7.5" font-family="Helvetica,sans-Serif" font-size="10.00">stdlib.h</text>
</g>
<!-- Node2&#45;&gt;Node5 -->
<g id="edge4" class="edge"><title>Node2&#45;&gt;Node5</title>
<path fill="none" stroke="midnightblue" d="M334.702,-398.013C241.6,-389.332 0.852613,-360.193 0.852613,-291 0.852613,-291 0.852613,-291 0.852613,-121 0.852613,-90.9022 -2.55784,-76.091 19.8526,-56 51.7686,-27.3872 177.975,-16.4039 239.614,-12.6836"/>
<polygon fill="midnightblue" stroke="midnightblue" points="239.85,-16.1759 249.633,-12.1088 239.449,-9.18738 239.85,-16.1759"/>
</g>
<!-- Node6 -->
<g id="node6" class="node"><title>Node6</title>
<g id="a_node6"><a xlink:href="ceptr__error_8h_source.html" target="_top" xlink:title="ceptr_error.h">
<polygon fill="white" stroke="black" points="505.353,-112.5 505.353,-131.5 576.353,-131.5 576.353,-112.5 505.353,-112.5"/>
<text text-anchor="middle" x="540.853" y="-119.5" font-family="Helvetica,sans-Serif" font-size="10.00">ceptr_error.h</text>
</a>
</g>
</g>
<!-- Node2&#45;&gt;Node6 -->
<g id="edge5" class="edge"><title>Node2&#45;&gt;Node6</title>
<path fill="none" stroke="midnightblue" d="M368.068,-392.125C360.061,-364.832 339.546,-280.572 371.853,-224 399.1,-176.288 458.762,-148.672 499.389,-134.727"/>
<polygon fill="midnightblue" stroke="midnightblue" points="500.619,-138.007 509.021,-131.553 498.428,-131.358 500.619,-138.007"/>
</g>
<!-- Node10 -->
<g id="node10" class="node"><title>Node10</title>
<g id="a_node10"><a xlink:href="semtable_8h.html" target="_top" xlink:title="header file for table for coordinating meaning across a vmhost ">
<polygon fill="white" stroke="black" points="685.353,-168.5 685.353,-187.5 750.353,-187.5 750.353,-168.5 685.353,-168.5"/>
<text text-anchor="middle" x="717.853" y="-175.5" font-family="Helvetica,sans-Serif" font-size="10.00">semtable.h</text>
</a>
</g>
</g>
<!-- Node2&#45;&gt;Node10 -->
<g id="edge10" class="edge"><title>Node2&#45;&gt;Node10</title>
<path fill="none" stroke="midnightblue" d="M388.958,-392.372C407.258,-383.552 436.268,-369.299 460.853,-356 504.299,-332.498 515.706,-327.329 556.853,-300 610.172,-264.586 669.563,-217.947 699.077,-194.245"/>
<polygon fill="midnightblue" stroke="midnightblue" points="701.651,-196.666 707.237,-187.664 697.256,-191.217 701.651,-196.666"/>
</g>
<!-- Node17 -->
<g id="node17" class="node"><title>Node17</title>
<g id="a_node17"><a xlink:href="tree_8h.html" target="_top" xlink:title="semantic trees header file ">
<polygon fill="white" stroke="black" points="673.353,-336.5 673.353,-355.5 714.353,-355.5 714.353,-336.5 673.353,-336.5"/>
<text text-anchor="middle" x="693.853" y="-343.5" font-family="Helvetica,sans-Serif" font-size="10.00">tree.h</text>
</a>
</g>
</g>
<!-- Node2&#45;&gt;Node17 -->
<g id="edge21" class="edge"><title>Node2&#45;&gt;Node17</title>
<path fill="none" stroke="midnightblue" d="M407.242,-397.062C461.144,-390.87 565.48,-377.514 663.524,-355.777"/>
<polygon fill="midnightblue" stroke="midnightblue" points="664.308,-359.188 673.296,-353.578 662.771,-352.359 664.308,-359.188"/>
</g>
<!-- Node20 -->
<g id="node20" class="node"><title>Node20</title>
<g id="a_node20"><a xlink:href="stream_8h.html" target="_top" xlink:title="streams abstraction header file ">
<polygon fill="white" stroke="black" points="401.353,-280.5 401.353,-299.5 456.353,-299.5 456.353,-280.5 401.353,-280.5"/>
<text text-anchor="middle" x="428.853" y="-287.5" font-family="Helvetica,sans-Serif" font-size="10.00">stream.h</text>
</a>
</g>
</g>
<!-- Node2&#45;&gt;Node20 -->
<g id="edge40" class="edge"><title>Node2&#45;&gt;Node20</title>
<path fill="none" stroke="midnightblue" d="M375.404,-392.368C384.891,-374.376 406.944,-332.55 419.559,-308.627"/>
<polygon fill="midnightblue" stroke="midnightblue" points="422.754,-310.07 424.323,-299.591 416.562,-306.805 422.754,-310.07"/>
</g>
<!-- Node22 -->
<g id="node22" class="node"><title>Node22</title>
<g id="a_node22"><a xlink:href="mtree_8h.html" target="_top" xlink:title="semantic tree matrix header file `` ">
<polygon fill="white" stroke="black" points="497.853,-280.5 497.853,-299.5 547.853,-299.5 547.853,-280.5 497.853,-280.5"/>
<text text-anchor="middle" x="522.853" y="-287.5" font-family="Helvetica,sans-Serif" font-size="10.00">mtree.h</text>
</a>
</g>
</g>
<!-- Node2&#45;&gt;Node22 -->
<g id="edge34" class="edge"><title>Node2&#45;&gt;Node22</title>
<path fill="none" stroke="midnightblue" d="M382.78,-392.368C408.752,-373.573 470.664,-328.768 502.77,-305.533"/>
<polygon fill="midnightblue" stroke="midnightblue" points="504.932,-308.29 510.981,-299.591 500.828,-302.619 504.932,-308.29"/>
</g>
<!-- Node23 -->
<g id="node23" class="node"><title>Node23</title>
<g id="a_node23"><a xlink:href="util_8h.html" target="_top" xlink:title="util.h">
<polygon fill="white" stroke="black" points="99.8526,-112.5 99.8526,-131.5 137.853,-131.5 137.853,-112.5 99.8526,-112.5"/>
<text text-anchor="middle" x="118.853" y="-119.5" font-family="Helvetica,sans-Serif" font-size="10.00">util.h</text>
</a>
</g>
</g>
<!-- Node2&#45;&gt;Node23 -->
<g id="edge41" class="edge"><title>Node2&#45;&gt;Node23</title>
<path fill="none" stroke="midnightblue" d="M334.587,-398.365C292.523,-394.118 222.029,-383.256 167.853,-356 128.448,-336.176 92.8526,-335.11 92.8526,-291 92.8526,-291 92.8526,-291 92.8526,-233 92.8526,-199.929 104.12,-162.729 111.82,-141.168"/>
<polygon fill="midnightblue" stroke="midnightblue" points="115.146,-142.268 115.346,-131.675 108.584,-139.831 115.146,-142.268"/>
</g>
<!-- Node26 -->
<g id="node26" class="node"><title>Node26</title>
<g id="a_node26"><a xlink:href="debug_8h.html" target="_top" xlink:title="debug.h">
<polygon fill="white" stroke="black" points="121.353,-224.5 121.353,-243.5 172.353,-243.5 172.353,-224.5 121.353,-224.5"/>
<text text-anchor="middle" x="146.853" y="-231.5" font-family="Helvetica,sans-Serif" font-size="10.00">debug.h</text>
</a>
</g>
</g>
<!-- Node2&#45;&gt;Node26 -->
<g id="edge46" class="edge"><title>Node2&#45;&gt;Node26</title>
<path fill="none" stroke="midnightblue" d="M334.808,-396.373C287.558,-389.62 208.173,-375.691 186.853,-356 157.687,-329.063 149.755,-280.437 147.62,-253.763"/>
<polygon fill="midnightblue" stroke="midnightblue" points="151.097,-253.277 147.002,-243.505 144.11,-253.698 151.097,-253.277"/>
</g>
<!-- Node6&#45;&gt;Node4 -->
<g id="edge6" class="edge"><title>Node6&#45;&gt;Node4</title>
<path fill="none" stroke="midnightblue" d="M505.174,-115.649C458.529,-108.414 374.119,-94.5032 292.761,-76.0286"/>
<polygon fill="midnightblue" stroke="midnightblue" points="293.387,-72.5813 282.857,-73.7531 291.819,-79.4035 293.387,-72.5813"/>
</g>
<!-- Node7 -->
<g id="node7" class="node"><title>Node7</title>
<polygon fill="white" stroke="#bfbfbf" points="444.853,-56.5 444.853,-75.5 494.853,-75.5 494.853,-56.5 444.853,-56.5"/>
<text text-anchor="middle" x="469.853" y="-63.5" font-family="Helvetica,sans-Serif" font-size="10.00">signal.h</text>
</g>
<!-- Node6&#45;&gt;Node7 -->
<g id="edge7" class="edge"><title>Node6&#45;&gt;Node7</title>
<path fill="none" stroke="midnightblue" d="M529.445,-112.324C518.744,-104.185 502.512,-91.8395 489.69,-82.0874"/>
<polygon fill="midnightblue" stroke="midnightblue" points="491.546,-79.1018 481.468,-75.8339 487.308,-84.6734 491.546,-79.1018"/>
</g>
<!-- Node8 -->
<g id="node8" class="node"><title>Node8</title>
<polygon fill="white" stroke="#bfbfbf" points="584.853,-56.5 584.853,-75.5 636.853,-75.5 636.853,-56.5 584.853,-56.5"/>
<text text-anchor="middle" x="610.853" y="-63.5" font-family="Helvetica,sans-Serif" font-size="10.00">assert.h</text>
</g>
<!-- Node6&#45;&gt;Node8 -->
<g id="edge8" class="edge"><title>Node6&#45;&gt;Node8</title>
<path fill="none" stroke="midnightblue" d="M552.099,-112.324C562.65,-104.185 578.653,-91.8395 591.295,-82.0874"/>
<polygon fill="midnightblue" stroke="midnightblue" points="593.621,-84.7132 599.401,-75.8339 589.346,-79.1707 593.621,-84.7132"/>
</g>
<!-- Node9 -->
<g id="node9" class="node"><title>Node9</title>
<polygon fill="white" stroke="#bfbfbf" points="512.853,-56.5 512.853,-75.5 566.853,-75.5 566.853,-56.5 512.853,-56.5"/>
<text text-anchor="middle" x="539.853" y="-63.5" font-family="Helvetica,sans-Serif" font-size="10.00">setjmp.h</text>
</g>
<!-- Node6&#45;&gt;Node9 -->
<g id="edge9" class="edge"><title>Node6&#45;&gt;Node9</title>
<path fill="none" stroke="midnightblue" d="M540.687,-112.083C540.556,-105.006 540.369,-94.8611 540.204,-85.9865"/>
<polygon fill="midnightblue" stroke="midnightblue" points="543.699,-85.6845 540.015,-75.7511 536.701,-85.8142 543.699,-85.6845"/>
</g>
<!-- Node10&#45;&gt;Node6 -->
<g id="edge20" class="edge"><title>Node10&#45;&gt;Node6</title>
<path fill="none" stroke="midnightblue" d="M689.806,-168.444C659.771,-159.28 611.94,-144.688 578.61,-134.519"/>
<polygon fill="midnightblue" stroke="midnightblue" points="579.354,-131.087 568.768,-131.516 577.311,-137.782 579.354,-131.087"/>
</g>
<!-- Node11 -->
<g id="node11" class="node"><title>Node11</title>
<g id="a_node11"><a xlink:href="ceptr__types_8h_source.html" target="_top" xlink:title="ceptr_types.h">
<polygon fill="white" stroke="black" points="682.853,-112.5 682.853,-131.5 758.853,-131.5 758.853,-112.5 682.853,-112.5"/>
<text text-anchor="middle" x="720.853" y="-119.5" font-family="Helvetica,sans-Serif" font-size="10.00">ceptr_types.h</text>
</a>
</g>
</g>
<!-- Node10&#45;&gt;Node11 -->
<g id="edge11" class="edge"><title>Node10&#45;&gt;Node11</title>
<path fill="none" stroke="midnightblue" d="M718.348,-168.083C718.741,-161.006 719.305,-150.861 719.798,-141.986"/>
<polygon fill="midnightblue" stroke="midnightblue" points="723.306,-141.93 720.366,-131.751 716.317,-141.542 723.306,-141.93"/>
</g>
<!-- Node11&#45;&gt;Node4 -->
<g id="edge13" class="edge"><title>Node11&#45;&gt;Node4</title>
<path fill="none" stroke="midnightblue" d="M682.568,-117.824C595.324,-110.455 382.967,-91.7473 293.004,-75.8713"/>
<polygon fill="midnightblue" stroke="midnightblue" points="293.632,-72.4282 283.162,-74.0492 292.358,-79.3112 293.632,-72.4282"/>
</g>
<!-- Node12 -->
<g id="node12" class="node"><title>Node12</title>
<polygon fill="white" stroke="#bfbfbf" points="301.353,-56.5 301.353,-75.5 350.353,-75.5 350.353,-56.5 301.353,-56.5"/>
<text text-anchor="middle" x="325.853" y="-63.5" font-family="Helvetica,sans-Serif" font-size="10.00">stdint.h</text>
</g>
<!-- Node11&#45;&gt;Node12 -->
<g id="edge12" class="edge"><title>Node11&#45;&gt;Node12</title>
<path fill="none" stroke="midnightblue" d="M682.619,-115.773C606.036,-105.304 434.85,-81.901 360.941,-71.7968"/>
<polygon fill="midnightblue" stroke="midnightblue" points="361.146,-68.2925 350.765,-70.4057 360.198,-75.228 361.146,-68.2925"/>
</g>
<!-- Node13 -->
<g id="node13" class="node"><title>Node13</title>
<g id="a_node13"><a xlink:href="uthash_8h_source.html" target="_top" xlink:title="uthash.h">
<polygon fill="white" stroke="black" points="766.853,-56.5 766.853,-75.5 820.853,-75.5 820.853,-56.5 766.853,-56.5"/>
<text text-anchor="middle" x="793.853" y="-63.5" font-family="Helvetica,sans-Serif" font-size="10.00">uthash.h</text>
</a>
</g>
</g>
<!-- Node11&#45;&gt;Node13 -->
<g id="edge14" class="edge"><title>Node11&#45;&gt;Node13</title>
<path fill="none" stroke="midnightblue" d="M732.581,-112.324C743.69,-104.107 760.595,-91.6017 773.836,-81.8069"/>
<polygon fill="midnightblue" stroke="midnightblue" points="775.952,-84.5948 781.91,-75.8339 771.79,-78.9671 775.952,-84.5948"/>
</g>
<!-- Node16 -->
<g id="node16" class="node"><title>Node16</title>
<polygon fill="white" stroke="#bfbfbf" points="692.853,-56.5 692.853,-75.5 748.853,-75.5 748.853,-56.5 692.853,-56.5"/>
<text text-anchor="middle" x="720.853" y="-63.5" font-family="Helvetica,sans-Serif" font-size="10.00">stdbool.h</text>
</g>
<!-- Node11&#45;&gt;Node16 -->
<g id="edge19" class="edge"><title>Node11&#45;&gt;Node16</title>
<path fill="none" stroke="midnightblue" d="M720.853,-112.083C720.853,-105.006 720.853,-94.8611 720.853,-85.9865"/>
<polygon fill="midnightblue" stroke="midnightblue" points="724.353,-85.751 720.853,-75.7511 717.353,-85.7511 724.353,-85.751"/>
</g>
<!-- Node13&#45;&gt;Node3 -->
<g id="edge15" class="edge"><title>Node13&#45;&gt;Node3</title>
<path fill="none" stroke="midnightblue" d="M766.754,-58.1005C763.755,-57.374 760.742,-56.6604 757.853,-56 693.749,-41.3467 618.52,-26.2021 575.592,-17.7533"/>
<polygon fill="midnightblue" stroke="midnightblue" points="576.143,-14.2948 565.656,-15.804 574.796,-21.1638 576.143,-14.2948"/>
</g>
<!-- Node13&#45;&gt;Node5 -->
<g id="edge17" class="edge"><title>Node13&#45;&gt;Node5</title>
<path fill="none" stroke="midnightblue" d="M766.819,-57.7726C763.808,-57.1076 760.774,-56.498 757.853,-56 590.803,-27.5235 388.026,-16.0333 308.352,-12.4023"/>
<polygon fill="midnightblue" stroke="midnightblue" points="308.088,-8.88726 297.943,-11.9412 307.778,-15.8804 308.088,-8.88726"/>
</g>
<!-- Node14 -->
<g id="node14" class="node"><title>Node14</title>
<polygon fill="white" stroke="#bfbfbf" points="730.853,-0.5 730.853,-19.5 782.853,-19.5 782.853,-0.5 730.853,-0.5"/>
<text text-anchor="middle" x="756.853" y="-7.5" font-family="Helvetica,sans-Serif" font-size="10.00">stddef.h</text>
</g>
<!-- Node13&#45;&gt;Node14 -->
<g id="edge16" class="edge"><title>Node13&#45;&gt;Node14</title>
<path fill="none" stroke="midnightblue" d="M787.743,-56.083C782.57,-48.5341 775.006,-37.4948 768.658,-28.2298"/>
<polygon fill="midnightblue" stroke="midnightblue" points="771.388,-26.0221 762.849,-19.7511 765.614,-29.9787 771.388,-26.0221"/>
</g>
<!-- Node15 -->
<g id="node15" class="node"><title>Node15</title>
<polygon fill="white" stroke="#bfbfbf" points="801.353,-0.5 801.353,-19.5 860.353,-19.5 860.353,-0.5 801.353,-0.5"/>
<text text-anchor="middle" x="830.853" y="-7.5" font-family="Helvetica,sans-Serif" font-size="10.00">inttypes.h</text>
</g>
<!-- Node13&#45;&gt;Node15 -->
<g id="edge18" class="edge"><title>Node13&#45;&gt;Node15</title>
<path fill="none" stroke="midnightblue" d="M799.962,-56.083C805.135,-48.5341 812.699,-37.4948 819.047,-28.2298"/>
<polygon fill="midnightblue" stroke="midnightblue" points="822.091,-29.9787 824.857,-19.7511 816.317,-26.0221 822.091,-29.9787"/>
</g>
<!-- Node17&#45;&gt;Node3 -->
<g id="edge22" class="edge"><title>Node17&#45;&gt;Node3</title>
<path fill="none" stroke="midnightblue" d="M692.898,-336.203C687.841,-290.228 663.747,-78.8089 645.853,-56 628.684,-34.1164 598.813,-22.7045 575.311,-16.8585"/>
<polygon fill="midnightblue" stroke="midnightblue" points="575.882,-13.3995 565.357,-14.6129 574.342,-20.2279 575.882,-13.3995"/>
</g>
<!-- Node17&#45;&gt;Node5 -->
<g id="edge23" class="edge"><title>Node17&#45;&gt;Node5</title>
<path fill="none" stroke="midnightblue" d="M673.308,-338.365C670.162,-337.486 666.936,-336.662 663.853,-336 544.627,-310.398 503.378,-349.318 391.853,-300 285.994,-253.188 241.612,-236.976 192.853,-132 178.623,-101.366 175.723,-85.1121 192.853,-56 203.014,-38.7307 222.462,-27.6133 239.755,-20.7496"/>
<polygon fill="midnightblue" stroke="midnightblue" points="241.389,-23.8803 249.601,-17.1855 239.006,-17.2982 241.389,-23.8803"/>
</g>
<!-- Node17&#45;&gt;Node6 -->
<g id="edge24" class="edge"><title>Node17&#45;&gt;Node6</title>
<path fill="none" stroke="midnightblue" d="M672.951,-336.563C649.811,-326.865 614.495,-310.888 604.853,-300 583.268,-275.628 556.509,-181.957 545.709,-141.636"/>
<polygon fill="midnightblue" stroke="midnightblue" points="549.043,-140.553 543.104,-131.78 542.276,-142.342 549.043,-140.553"/>
</g>
<!-- Node17&#45;&gt;Node11 -->
<g id="edge30" class="edge"><title>Node17&#45;&gt;Node11</title>
<path fill="none" stroke="midnightblue" d="M714.402,-343.097C739.891,-339.51 782.36,-329.239 801.853,-300 835.069,-250.176 809.899,-216.555 774.853,-168 766.371,-156.249 754.139,-145.718 743.461,-137.802"/>
<polygon fill="midnightblue" stroke="midnightblue" points="745.158,-134.716 734.973,-131.799 741.116,-140.431 745.158,-134.716"/>
</g>
<!-- Node18 -->
<g id="node18" class="node"><title>Node18</title>
<g id="a_node18"><a xlink:href="sys__defs_8h.html" target="_top" xlink:title="Defines types and vars for system defined semantics. ">
<polygon fill="white" stroke="black" points="723.353,-224.5 723.353,-243.5 788.353,-243.5 788.353,-224.5 723.353,-224.5"/>
<text text-anchor="middle" x="755.853" y="-231.5" font-family="Helvetica,sans-Serif" font-size="10.00">sys_defs.h</text>
</a>
</g>
</g>
<!-- Node17&#45;&gt;Node18 -->
<g id="edge25" class="edge"><title>Node17&#45;&gt;Node18</title>
<path fill="none" stroke="midnightblue" d="M695.279,-336.078C697.643,-323.056 703.206,-298.393 713.853,-280 720.182,-269.066 729.622,-258.634 737.95,-250.572"/>
<polygon fill="midnightblue" stroke="midnightblue" points="740.491,-252.99 745.456,-243.63 735.738,-247.85 740.491,-252.99"/>
</g>
<!-- Node19 -->
<g id="node19" class="node"><title>Node19</title>
<g id="a_node19"><a xlink:href="base__defs_8h.html" target="_top" xlink:title="auto&#45;generated system definitions ">
<polygon fill="white" stroke="black" points="722.853,-280.5 722.853,-299.5 792.853,-299.5 792.853,-280.5 722.853,-280.5"/>
<text text-anchor="middle" x="757.853" y="-287.5" font-family="Helvetica,sans-Serif" font-size="10.00">base_defs.h</text>
</a>
</g>
</g>
<!-- Node17&#45;&gt;Node19 -->
<g id="edge28" class="edge"><title>Node17&#45;&gt;Node19</title>
<path fill="none" stroke="midnightblue" d="M704.135,-336.324C713.689,-328.263 728.132,-316.077 739.637,-306.369"/>
<polygon fill="midnightblue" stroke="midnightblue" points="741.997,-308.958 747.383,-299.834 737.483,-303.608 741.997,-308.958"/>
</g>
<!-- Node17&#45;&gt;Node20 -->
<g id="edge31" class="edge"><title>Node17&#45;&gt;Node20</title>
<path fill="none" stroke="midnightblue" d="M673.272,-338.524C670.131,-337.623 666.916,-336.751 663.853,-336 594.836,-319.086 513.125,-304.684 466.502,-296.988"/>
<polygon fill="midnightblue" stroke="midnightblue" points="466.98,-293.52 456.546,-295.359 465.85,-300.428 466.98,-293.52"/>
</g>
<!-- Node18&#45;&gt;Node10 -->
<g id="edge27" class="edge"><title>Node18&#45;&gt;Node10</title>
<path fill="none" stroke="midnightblue" d="M749.578,-224.083C744.21,-216.455 736.335,-205.264 729.774,-195.941"/>
<polygon fill="midnightblue" stroke="midnightblue" points="732.628,-193.915 724.011,-187.751 726.903,-197.943 732.628,-193.915"/>
</g>
<!-- Node18&#45;&gt;Node11 -->
<g id="edge26" class="edge"><title>Node18&#45;&gt;Node11</title>
<path fill="none" stroke="midnightblue" d="M758.336,-224.264C761.517,-211.474 765.837,-187.097 758.853,-168 754.796,-156.908 746.665,-146.665 738.961,-138.763"/>
<polygon fill="midnightblue" stroke="midnightblue" points="741.215,-136.075 731.567,-131.695 736.378,-141.135 741.215,-136.075"/>
</g>
<!-- Node19&#45;&gt;Node18 -->
<g id="edge29" class="edge"><title>Node19&#45;&gt;Node18</title>
<path fill="none" stroke="midnightblue" d="M757.522,-280.083C757.26,-273.006 756.885,-262.861 756.556,-253.986"/>
<polygon fill="midnightblue" stroke="midnightblue" points="760.045,-253.615 756.177,-243.751 753.049,-253.874 760.045,-253.615"/>
</g>
<!-- Node20&#45;&gt;Node4 -->
<g id="edge32" class="edge"><title>Node20&#45;&gt;Node4</title>
<path fill="none" stroke="midnightblue" d="M414.942,-280.276C402.56,-272.022 384.503,-258.73 371.853,-244 327.89,-192.812 335.087,-167.597 296.853,-112 290.047,-102.104 281.594,-91.7057 274.486,-83.4009"/>
<polygon fill="midnightblue" stroke="midnightblue" points="276.903,-80.8472 267.691,-75.613 271.628,-85.4492 276.903,-80.8472"/>
</g>
<!-- Node21 -->
<g id="node21" class="node"><title>Node21</title>
<polygon fill="white" stroke="#bfbfbf" points="381.353,-224.5 381.353,-243.5 438.353,-243.5 438.353,-224.5 381.353,-224.5"/>
<text text-anchor="middle" x="409.853" y="-231.5" font-family="Helvetica,sans-Serif" font-size="10.00">pthread.h</text>
</g>
<!-- Node20&#45;&gt;Node21 -->
<g id="edge33" class="edge"><title>Node20&#45;&gt;Node21</title>
<path fill="none" stroke="midnightblue" d="M425.715,-280.083C423.17,-272.849 419.496,-262.409 416.326,-253.397"/>
<polygon fill="midnightblue" stroke="midnightblue" points="419.552,-252.023 412.932,-243.751 412.949,-254.346 419.552,-252.023"/>
</g>
<!-- Node22&#45;&gt;Node3 -->
<g id="edge35" class="edge"><title>Node22&#45;&gt;Node3</title>
<path fill="none" stroke="midnightblue" d="M517.567,-280.387C495.036,-243.164 409.349,-96.1933 435.853,-56 451.329,-32.5302 481.859,-21.2545 506.027,-15.8647"/>
<polygon fill="midnightblue" stroke="midnightblue" points="506.806,-19.2784 515.933,-13.8968 505.442,-12.4125 506.806,-19.2784"/>
</g>
<!-- Node22&#45;&gt;Node5 -->
<g id="edge36" class="edge"><title>Node22&#45;&gt;Node5</title>
<path fill="none" stroke="midnightblue" d="M514.494,-280.358C506.117,-271.527 493.039,-257.265 482.853,-244 421.891,-164.612 432.95,-123.293 358.853,-56 343.663,-42.2056 323.471,-31.2857 306.579,-23.659"/>
<polygon fill="midnightblue" stroke="midnightblue" points="307.645,-20.3069 297.077,-19.5523 304.868,-26.7324 307.645,-20.3069"/>
</g>
<!-- Node22&#45;&gt;Node6 -->
<g id="edge37" class="edge"><title>Node22&#45;&gt;Node6</title>
<path fill="none" stroke="midnightblue" d="M523.82,-280.075C526.654,-253.945 534.974,-177.211 538.838,-141.577"/>
<polygon fill="midnightblue" stroke="midnightblue" points="542.325,-141.887 539.924,-131.568 535.366,-141.132 542.325,-141.887"/>
</g>
<!-- Node22&#45;&gt;Node11 -->
<g id="edge39" class="edge"><title>Node22&#45;&gt;Node11</title>
<path fill="none" stroke="midnightblue" d="M533.219,-280.309C565.162,-253.528 662.365,-172.035 702.854,-138.09"/>
<polygon fill="midnightblue" stroke="midnightblue" points="705.174,-140.712 710.589,-131.605 700.677,-135.348 705.174,-140.712"/>
</g>
<!-- Node22&#45;&gt;Node18 -->
<g id="edge38" class="edge"><title>Node22&#45;&gt;Node18</title>
<path fill="none" stroke="midnightblue" d="M548.231,-283.118C587.872,-273.931 664.935,-256.071 713.208,-244.883"/>
<polygon fill="midnightblue" stroke="midnightblue" points="714.097,-248.27 723.048,-242.603 712.516,-241.451 714.097,-248.27"/>
</g>
<!-- Node23&#45;&gt;Node4 -->
<g id="edge43" class="edge"><title>Node23&#45;&gt;Node4</title>
<path fill="none" stroke="midnightblue" d="M137.869,-113.717C160.899,-104.897 200.046,-89.9048 227.775,-79.2852"/>
<polygon fill="midnightblue" stroke="midnightblue" points="229.336,-82.4351 237.423,-75.59 226.833,-75.8981 229.336,-82.4351"/>
</g>
<!-- Node23&#45;&gt;Node12 -->
<g id="edge45" class="edge"><title>Node23&#45;&gt;Node12</title>
<path fill="none" stroke="midnightblue" d="M138.06,-116.033C168.372,-108.187 229.402,-92.3667 291.39,-76.1128"/>
<polygon fill="midnightblue" stroke="midnightblue" points="292.558,-79.4249 301.342,-73.5016 290.781,-72.654 292.558,-79.4249"/>
</g>
<!-- Node24 -->
<g id="node24" class="node"><title>Node24</title>
<polygon fill="white" stroke="#bfbfbf" points="29.3526,-56.5 29.3526,-75.5 78.3526,-75.5 78.3526,-56.5 29.3526,-56.5"/>
<text text-anchor="middle" x="53.8526" y="-63.5" font-family="Helvetica,sans-Serif" font-size="10.00">ctype.h</text>
</g>
<!-- Node23&#45;&gt;Node24 -->
<g id="edge42" class="edge"><title>Node23&#45;&gt;Node24</title>
<path fill="none" stroke="midnightblue" d="M108.409,-112.324C98.7064,-104.263 84.0373,-92.0765 72.3529,-82.3695"/>
<polygon fill="midnightblue" stroke="midnightblue" points="74.4145,-79.532 64.486,-75.8339 69.9414,-84.9163 74.4145,-79.532"/>
</g>
<!-- Node25 -->
<g id="node25" class="node"><title>Node25</title>
<polygon fill="white" stroke="#bfbfbf" points="96.8526,-56.5 96.8526,-75.5 140.853,-75.5 140.853,-56.5 96.8526,-56.5"/>
<text text-anchor="middle" x="118.853" y="-63.5" font-family="Helvetica,sans-Serif" font-size="10.00">time.h</text>
</g>
<!-- Node23&#45;&gt;Node25 -->
<g id="edge44" class="edge"><title>Node23&#45;&gt;Node25</title>
<path fill="none" stroke="midnightblue" d="M118.853,-112.083C118.853,-105.006 118.853,-94.8611 118.853,-85.9865"/>
<polygon fill="midnightblue" stroke="midnightblue" points="122.353,-85.751 118.853,-75.7511 115.353,-85.7511 122.353,-85.751"/>
</g>
<!-- Node26&#45;&gt;Node4 -->
<g id="edge47" class="edge"><title>Node26&#45;&gt;Node4</title>
<path fill="none" stroke="midnightblue" d="M151.834,-224.46C159.213,-211.912 173.608,-187.835 186.853,-168 207.065,-137.73 232.238,-103.626 247.123,-83.8003"/>
<polygon fill="midnightblue" stroke="midnightblue" points="249.958,-85.853 253.183,-75.7607 244.368,-81.6394 249.958,-85.853"/>
</g>
<!-- Node27&#45;&gt;Node10 -->
<g id="edge49" class="edge"><title>Node27&#45;&gt;Node10</title>
<path fill="none" stroke="midnightblue" d="M767.974,-448.441C785.495,-441.62 806.375,-430.141 816.853,-412 821.298,-404.303 817.379,-400.873 816.853,-392 812.4,-316.938 838.422,-286.659 796.853,-224 787.025,-209.186 770.554,-198.697 755.188,-191.595"/>
<polygon fill="midnightblue" stroke="midnightblue" points="756.403,-188.308 745.832,-187.602 753.655,-194.746 756.403,-188.308"/>
</g>
<!-- Node27&#45;&gt;Node17 -->
<g id="edge50" class="edge"><title>Node27&#45;&gt;Node17</title>
<path fill="none" stroke="midnightblue" d="M758.081,-448.423C781.436,-436.76 815.954,-414.733 800.853,-392 784.071,-366.737 750.04,-355.625 724.841,-350.757"/>
<polygon fill="midnightblue" stroke="midnightblue" points="725.103,-347.251 714.658,-349.03 723.932,-354.153 725.103,-347.251"/>
</g>
<!-- Node28 -->
<g id="node28" class="node"><title>Node28</title>
<g id="a_node28"><a xlink:href="def_8h.html" target="_top" xlink:title="header file for symbol and structure definition functions ">
<polygon fill="white" stroke="black" points="607.853,-392.5 607.853,-411.5 645.853,-411.5 645.853,-392.5 607.853,-392.5"/>
<text text-anchor="middle" x="626.853" y="-399.5" font-family="Helvetica,sans-Serif" font-size="10.00">def.h</text>
</a>
</g>
</g>
<!-- Node27&#45;&gt;Node28 -->
<g id="edge51" class="edge"><title>Node27&#45;&gt;Node28</title>
<path fill="none" stroke="midnightblue" d="M720.858,-448.324C702.815,-439.625 674.806,-426.12 654.05,-416.113"/>
<polygon fill="midnightblue" stroke="midnightblue" points="655.33,-412.845 644.803,-411.655 652.29,-419.15 655.33,-412.845"/>
</g>
<!-- Node30 -->
<g id="node30" class="node"><title>Node30</title>
<g id="a_node30"><a xlink:href="label_8h.html" target="_top" xlink:title="Label tables map human readable text strings to parts of semantic trees. ">
<polygon fill="white" stroke="black" points="883.353,-168.5 883.353,-187.5 928.353,-187.5 928.353,-168.5 883.353,-168.5"/>
<text text-anchor="middle" x="905.853" y="-175.5" font-family="Helvetica,sans-Serif" font-size="10.00">label.h</text>
</a>
</g>
</g>
<!-- Node27&#45;&gt;Node30 -->
<g id="edge54" class="edge"><title>Node27&#45;&gt;Node30</title>
<path fill="none" stroke="midnightblue" d="M778.482,-448.468C826.442,-435.542 900.853,-405.983 900.853,-347 900.853,-347 900.853,-347 900.853,-289 900.853,-256.915 903.002,-219.62 904.482,-197.737"/>
<polygon fill="midnightblue" stroke="midnightblue" points="907.988,-197.773 905.199,-187.552 901.005,-197.281 907.988,-197.773"/>
</g>
<!-- Node31 -->
<g id="node31" class="node"><title>Node31</title>
<g id="a_node31"><a xlink:href="process_8h.html" target="_top" xlink:title="processing header files ">
<polygon fill="white" stroke="black" points="664.353,-392.5 664.353,-411.5 723.353,-411.5 723.353,-392.5 664.353,-392.5"/>
<text text-anchor="middle" x="693.853" y="-399.5" font-family="Helvetica,sans-Serif" font-size="10.00">process.h</text>
</a>
</g>
</g>
<!-- Node27&#45;&gt;Node31 -->
<g id="edge56" class="edge"><title>Node27&#45;&gt;Node31</title>
<path fill="none" stroke="midnightblue" d="M731.422,-448.083C725,-440.377 715.547,-429.033 707.73,-419.653"/>
<polygon fill="midnightblue" stroke="midnightblue" points="710.236,-417.193 701.145,-411.751 704.858,-421.674 710.236,-417.193"/>
</g>
<!-- Node32 -->
<g id="node32" class="node"><title>Node32</title>
<g id="a_node32"><a xlink:href="scape_8h.html" target="_top" xlink:title="scape header files ">
<polygon fill="white" stroke="black" points="741.353,-392.5 741.353,-411.5 792.353,-411.5 792.353,-392.5 741.353,-392.5"/>
<text text-anchor="middle" x="766.853" y="-399.5" font-family="Helvetica,sans-Serif" font-size="10.00">scape.h</text>
</a>
</g>
</g>
<!-- Node27&#45;&gt;Node32 -->
<g id="edge58" class="edge"><title>Node27&#45;&gt;Node32</title>
<path fill="none" stroke="midnightblue" d="M743.476,-448.083C747.309,-440.691 752.877,-429.953 757.617,-420.811"/>
<polygon fill="midnightblue" stroke="midnightblue" points="760.819,-422.24 762.315,-411.751 754.605,-419.018 760.819,-422.24"/>
</g>
<!-- Node28&#45;&gt;Node17 -->
<g id="edge52" class="edge"><title>Node28&#45;&gt;Node17</title>
<path fill="none" stroke="midnightblue" d="M637.617,-392.324C647.619,-384.263 662.739,-372.077 674.783,-362.369"/>
<polygon fill="midnightblue" stroke="midnightblue" points="677.302,-364.834 682.892,-355.834 672.91,-359.384 677.302,-364.834"/>
</g>
<!-- Node29 -->
<g id="node29" class="node"><title>Node29</title>
<polygon fill="white" stroke="#bfbfbf" points="602.853,-336.5 602.853,-355.5 654.853,-355.5 654.853,-336.5 602.853,-336.5"/>
<text text-anchor="middle" x="628.853" y="-343.5" font-family="Helvetica,sans-Serif" font-size="10.00">stdarg.h</text>
</g>
<!-- Node28&#45;&gt;Node29 -->
<g id="edge53" class="edge"><title>Node28&#45;&gt;Node29</title>
<path fill="none" stroke="midnightblue" d="M627.183,-392.083C627.445,-385.006 627.821,-374.861 628.149,-365.986"/>
<polygon fill="midnightblue" stroke="midnightblue" points="631.656,-365.874 628.528,-355.751 624.661,-365.615 631.656,-365.874"/>
</g>
<!-- Node30&#45;&gt;Node11 -->
<g id="edge55" class="edge"><title>Node30&#45;&gt;Node11</title>
<path fill="none" stroke="midnightblue" d="M883.168,-170.379C852.565,-161.446 797.587,-145.398 760.178,-134.479"/>
<polygon fill="midnightblue" stroke="midnightblue" points="760.708,-130.988 750.128,-131.545 758.747,-137.707 760.708,-130.988"/>
</g>
<!-- Node31&#45;&gt;Node17 -->
<g id="edge57" class="edge"><title>Node31&#45;&gt;Node17</title>
<path fill="none" stroke="midnightblue" d="M693.853,-392.083C693.853,-385.006 693.853,-374.861 693.853,-365.986"/>
<polygon fill="midnightblue" stroke="midnightblue" points="697.353,-365.751 693.853,-355.751 690.353,-365.751 697.353,-365.751"/>
</g>
<!-- Node32&#45;&gt;Node17 -->
<g id="edge59" class="edge"><title>Node32&#45;&gt;Node17</title>
<path fill="none" stroke="midnightblue" d="M755.124,-392.324C744.015,-384.107 727.11,-371.602 713.869,-361.807"/>
<polygon fill="midnightblue" stroke="midnightblue" points="715.916,-358.967 705.795,-355.834 711.753,-364.595 715.916,-358.967"/>
</g>
<!-- Node33&#45;&gt;Node2 -->
<g id="edge61" class="edge"><title>Node33&#45;&gt;Node2</title>
<path fill="none" stroke="midnightblue" d="M526.072,-505.737C496.8,-499.235 457.731,-487.616 427.853,-468 408.915,-455.567 392.494,-435.199 382.205,-420.575"/>
<polygon fill="midnightblue" stroke="midnightblue" points="384.865,-418.26 376.364,-411.936 379.065,-422.181 384.865,-418.26"/>
</g>
<!-- Node33&#45;&gt;Node27 -->
<g id="edge62" class="edge"><title>Node33&#45;&gt;Node27</title>
<path fill="none" stroke="midnightblue" d="M594.948,-504.444C623.841,-495.32 669.777,-480.813 701.958,-470.651"/>
<polygon fill="midnightblue" stroke="midnightblue" points="703.402,-473.865 711.884,-467.516 701.294,-467.19 703.402,-473.865"/>
</g>
<!-- Node33&#45;&gt;Node28 -->
<g id="edge63" class="edge"><title>Node33&#45;&gt;Node28</title>
<path fill="none" stroke="midnightblue" d="M582.943,-504.404C595.121,-496.588 611.546,-483.865 619.853,-468 627.339,-453.703 628.668,-435.236 628.371,-421.641"/>
<polygon fill="midnightblue" stroke="midnightblue" points="631.862,-421.368 627.838,-411.566 624.871,-421.737 631.862,-421.368"/>
</g>
<!-- Node34 -->
<g id="node34" class="node"><title>Node34</title>
<g id="a_node34"><a xlink:href="semtrex_8h.html" target="_top" xlink:title="Semantic tree regular expression header file. ">
<polygon fill="white" stroke="black" points="524.853,-448.5 524.853,-467.5 610.853,-467.5 610.853,-448.5 524.853,-448.5"/>
<text text-anchor="middle" x="567.853" y="-455.5" font-family="Helvetica,sans-Serif" font-size="10.00">../src/semtrex.h</text>
</a>
</g>
</g>
<!-- Node33&#45;&gt;Node34 -->
<g id="edge64" class="edge"><title>Node33&#45;&gt;Node34</title>
<path fill="none" stroke="midnightblue" d="M567.853,-504.083C567.853,-497.006 567.853,-486.861 567.853,-477.986"/>
<polygon fill="midnightblue" stroke="midnightblue" points="571.353,-477.751 567.853,-467.751 564.353,-477.751 571.353,-477.751"/>
</g>
<!-- Node35 -->
<g id="node35" class="node"><title>Node35</title>
<g id="a_node35"><a xlink:href="spec__utils_8h.html" target="_top" xlink:title="spec_utils.h">
<polygon fill="white" stroke="black" points="437.353,-448.5 437.353,-467.5 506.353,-467.5 506.353,-448.5 437.353,-448.5"/>
<text text-anchor="middle" x="471.853" y="-455.5" font-family="Helvetica,sans-Serif" font-size="10.00">spec_utils.h</text>
</a>
</g>
</g>
<!-- Node33&#45;&gt;Node35 -->
<g id="edge66" class="edge"><title>Node33&#45;&gt;Node35</title>
<path fill="none" stroke="midnightblue" d="M552.429,-504.324C537.313,-495.822 514.037,-482.729 496.381,-472.797"/>
<polygon fill="midnightblue" stroke="midnightblue" points="497.67,-469.507 487.238,-467.655 494.238,-475.608 497.67,-469.507"/>
</g>
<!-- Node34&#45;&gt;Node17 -->
<g id="edge65" class="edge"><title>Node34&#45;&gt;Node17</title>
<path fill="none" stroke="midnightblue" d="M569.964,-448.322C573.676,-434.717 582.565,-408.245 598.853,-392 608.563,-382.315 639.615,-368.492 663.603,-358.728"/>
<polygon fill="midnightblue" stroke="midnightblue" points="665.062,-361.914 673.042,-354.944 662.457,-355.416 665.062,-361.914"/>
</g>
<!-- Node35&#45;&gt;Node2 -->
<g id="edge67" class="edge"><title>Node35&#45;&gt;Node2</title>
<path fill="none" stroke="midnightblue" d="M455.625,-448.324C439.502,-439.703 414.552,-426.364 395.888,-416.386"/>
<polygon fill="midnightblue" stroke="midnightblue" points="397.509,-413.283 387.04,-411.655 394.208,-419.456 397.509,-413.283"/>
</g>
</g>
</svg>
