<?xml version="1.0" encoding="UTF-8" standalone="no"?>
<!DOCTYPE svg PUBLIC "-//W3C//DTD SVG 1.1//EN"
 "http://www.w3.org/Graphics/SVG/1.1/DTD/svg11.dtd">
<!-- Generated by graphviz version 2.38.0 (20140413.2041)
 -->
<!-- Title: spec/mtree_spec.h Pages: 1 -->
<!--zoomable 532 -->
<svg id="main" version="1.1" xmlns="http://www.w3.org/2000/svg" xmlns:xlink="http://www.w3.org/1999/xlink" xml:space="preserve" onload="init(evt)">
<style type="text/css"><![CDATA[
.edge:hover path { stroke: red; }
.edge:hover polygon { stroke: red; fill: red; }
]]></style>
<script type="text/javascript"><![CDATA[
var edges = document.getElementsByTagName('g');
if (edges && edges.length) {
  for (var i=0;i<edges.length;i++) {
    if (edges[i].id.substr(0,4)=='edge') {
      edges[i].setAttribute('class','edge');
    }
  }
}
]]></script>
        <defs>
                <circle id="rim" cx="0" cy="0" r="7"/>
                <circle id="rim2" cx="0" cy="0" r="3.5"/>
                <g id="zoomPlus">
                        <use xlink:href="#rim" fill="#404040">
                                <set attributeName="fill" to="#808080" begin="zoomplus.mouseover" end="zoomplus.mouseout"/>
                        </use>
                        <path d="M-4,0h8M0,-4v8" fill="none" stroke="white" stroke-width="1.5" pointer-events="none"/>
                </g>
                <g id="zoomMin">
                        <use xlink:href="#rim" fill="#404040">
                                <set attributeName="fill" to="#808080" begin="zoomminus.mouseover" end="zoomminus.mouseout"/>
                        </use>
                        <path d="M-4,0h8" fill="none" stroke="white" stroke-width="1.5" pointer-events="none"/>
                </g>
                <g id="dirArrow">
                        <path fill="none" stroke="white" stroke-width="1.5" d="M0,-3.0v7 M-2.5,-0.5L0,-3.0L2.5,-0.5"/>
                </g>
               <g id="resetDef">
                       <use xlink:href="#rim2" fill="#404040">
                               <set attributeName="fill" to="#808080" begin="reset.mouseover" end="reset.mouseout"/>
                       </use>
               </g>
        </defs>

<script type="text/javascript">
var viewWidth = 861;
var viewHeight = 532;
var sectionId = 'dynsection-0';
</script>
<script xlink:href="svgpan.js"/>
<svg id="graph" class="graph">
<g id="viewport">
<title>spec/mtree_spec.h</title>
<polygon fill="white" stroke="none" points="-4,4 -4,-528 856.534,-528 856.534,4 -4,4"/>
<!-- Node1 -->
<g id="node1" class="node"><title>Node1</title>
<polygon fill="#bfbfbf" stroke="black" points="482.034,-504.5 482.034,-523.5 582.034,-523.5 582.034,-504.5 482.034,-504.5"/>
<text text-anchor="middle" x="532.034" y="-511.5" font-family="Helvetica,sans-Serif" font-size="10.00">spec/mtree_spec.h</text>
</g>
<!-- Node2 -->
<g id="node2" class="node"><title>Node2</title>
<g id="a_node2"><a xlink:href="ceptr_8h_source.html" target="_top" xlink:title="../src/ceptr.h">
<polygon fill="white" stroke="black" points="339.034,-336.5 339.034,-355.5 411.034,-355.5 411.034,-336.5 339.034,-336.5"/>
<text text-anchor="middle" x="375.034" y="-343.5" font-family="Helvetica,sans-Serif" font-size="10.00">../src/ceptr.h</text>
</a>
</g>
</g>
<!-- Node1&#45;&gt;Node2 -->
<g id="edge1" class="edge"><title>Node1&#45;&gt;Node2</title>
<path fill="none" stroke="midnightblue" d="M516.291,-504.448C489.464,-489.16 434.637,-454.71 402.034,-412 391.386,-398.051 384.188,-379.297 379.92,-365.519"/>
<polygon fill="midnightblue" stroke="midnightblue" points="383.233,-364.373 377.116,-355.722 376.503,-366.3 383.233,-364.373"/>
</g>
<!-- Node26 -->
<g id="node26" class="node"><title>Node26</title>
<g id="a_node26"><a xlink:href="receptor_8h.html" target="_top" xlink:title="receptor implementation header file ">
<polygon fill="white" stroke="black" points="664.034,-392.5 664.034,-411.5 750.034,-411.5 750.034,-392.5 664.034,-392.5"/>
<text text-anchor="middle" x="707.034" y="-399.5" font-family="Helvetica,sans-Serif" font-size="10.00">../src/receptor.h</text>
</a>
</g>
</g>
<!-- Node1&#45;&gt;Node26 -->
<g id="edge44" class="edge"><title>Node1&#45;&gt;Node26</title>
<path fill="none" stroke="midnightblue" d="M545.766,-504.368C575.924,-485.412 648.17,-440.001 684.853,-416.942"/>
<polygon fill="midnightblue" stroke="midnightblue" points="686.762,-419.876 693.366,-411.591 683.037,-413.95 686.762,-419.876"/>
</g>
<!-- Node32 -->
<g id="node32" class="node"><title>Node32</title>
<g id="a_node32"><a xlink:href="http__example_8h.html" target="_top" xlink:title="http_example.h">
<polygon fill="white" stroke="black" points="490.534,-448.5 490.534,-467.5 573.534,-467.5 573.534,-448.5 490.534,-448.5"/>
<text text-anchor="middle" x="532.034" y="-455.5" font-family="Helvetica,sans-Serif" font-size="10.00">http_example.h</text>
</a>
</g>
</g>
<!-- Node1&#45;&gt;Node32 -->
<g id="edge55" class="edge"><title>Node1&#45;&gt;Node32</title>
<path fill="none" stroke="midnightblue" d="M532.034,-504.083C532.034,-497.006 532.034,-486.861 532.034,-477.986"/>
<polygon fill="midnightblue" stroke="midnightblue" points="535.534,-477.751 532.034,-467.751 528.534,-477.751 535.534,-477.751"/>
</g>
<!-- Node3 -->
<g id="node3" class="node"><title>Node3</title>
<polygon fill="white" stroke="#bfbfbf" points="570.534,-0.5 570.534,-19.5 619.534,-19.5 619.534,-0.5 570.534,-0.5"/>
<text text-anchor="middle" x="595.034" y="-7.5" font-family="Helvetica,sans-Serif" font-size="10.00">string.h</text>
</g>
<!-- Node2&#45;&gt;Node3 -->
<g id="edge2" class="edge"><title>Node2&#45;&gt;Node3</title>
<path fill="none" stroke="midnightblue" d="M393.896,-336.389C423.963,-321.712 482.657,-289.01 515.034,-244 564.907,-174.667 585.651,-71.7265 592.364,-29.7959"/>
<polygon fill="midnightblue" stroke="midnightblue" points="595.83,-30.286 593.868,-19.8743 588.909,-29.2367 595.83,-30.286"/>
</g>
<!-- Node4 -->
<g id="node4" class="node"><title>Node4</title>
<polygon fill="white" stroke="#bfbfbf" points="159.034,-56.5 159.034,-75.5 205.034,-75.5 205.034,-56.5 159.034,-56.5"/>
<text text-anchor="middle" x="182.034" y="-63.5" font-family="Helvetica,sans-Serif" font-size="10.00">stdio.h</text>
</g>
<!-- Node2&#45;&gt;Node4 -->
<g id="edge3" class="edge"><title>Node2&#45;&gt;Node4</title>
<path fill="none" stroke="midnightblue" d="M364.119,-336.236C331.785,-309.569 236.193,-225.497 195.034,-132 188.579,-117.336 185.3,-99.3982 183.652,-86.0838"/>
<polygon fill="midnightblue" stroke="midnightblue" points="187.096,-85.3584 182.585,-75.772 180.133,-86.0793 187.096,-85.3584"/>
</g>
<!-- Node5 -->
<g id="node5" class="node"><title>Node5</title>
<polygon fill="white" stroke="#bfbfbf" points="438.034,-0.5 438.034,-19.5 486.034,-19.5 486.034,-0.5 438.034,-0.5"/>
<text text-anchor="middle" x="462.034" y="-7.5" font-family="Helvetica,sans-Serif" font-size="10.00">stdlib.h</text>
</g>
<!-- Node2&#45;&gt;Node5 -->
<g id="edge4" class="edge"><title>Node2&#45;&gt;Node5</title>
<path fill="none" stroke="midnightblue" d="M338.763,-343.396C264.771,-339.577 99.3339,-328.076 51.0343,-300 19.5241,-281.683 1.0343,-271.447 1.0343,-235 1.0343,-235 1.0343,-235 1.0343,-121 1.0343,-90.9022 -3.10291,-75.2496 20.0343,-56 51.2138,-30.0595 329.537,-16.3677 427.837,-12.3085"/>
<polygon fill="midnightblue" stroke="midnightblue" points="427.995,-15.8051 437.845,-11.903 427.711,-8.81081 427.995,-15.8051"/>
</g>
<!-- Node6 -->
<g id="node6" class="node"><title>Node6</title>
<g id="a_node6"><a xlink:href="ceptr__error_8h_source.html" target="_top" xlink:title="ceptr_error.h">
<polygon fill="white" stroke="black" points="359.534,-168.5 359.534,-187.5 430.534,-187.5 430.534,-168.5 359.534,-168.5"/>
<text text-anchor="middle" x="395.034" y="-175.5" font-family="Helvetica,sans-Serif" font-size="10.00">ceptr_error.h</text>
</a>
</g>
</g>
<!-- Node2&#45;&gt;Node6 -->
<g id="edge5" class="edge"><title>Node2&#45;&gt;Node6</title>
<path fill="none" stroke="midnightblue" d="M376.11,-336.075C379.258,-309.945 388.503,-233.211 392.796,-197.577"/>
<polygon fill="midnightblue" stroke="midnightblue" points="396.281,-197.915 394.002,-187.568 389.331,-197.078 396.281,-197.915"/>
</g>
<!-- Node10 -->
<g id="node10" class="node"><title>Node10</title>
<g id="a_node10"><a xlink:href="tree_8h.html" target="_top" xlink:title="semantic trees header file ">
<polygon fill="white" stroke="black" points="624.534,-280.5 624.534,-299.5 665.534,-299.5 665.534,-280.5 624.534,-280.5"/>
<text text-anchor="middle" x="645.034" y="-287.5" font-family="Helvetica,sans-Serif" font-size="10.00">tree.h</text>
</a>
</g>
</g>
<!-- Node2&#45;&gt;Node10 -->
<g id="edge10" class="edge"><title>Node2&#45;&gt;Node10</title>
<path fill="none" stroke="midnightblue" d="M411.069,-339.468C456.307,-332.257 536.439,-318.599 614.46,-299.912"/>
<polygon fill="midnightblue" stroke="midnightblue" points="615.563,-303.246 624.456,-297.487 613.913,-296.443 615.563,-303.246"/>
</g>
<!-- Node19 -->
<g id="node19" class="node"><title>Node19</title>
<g id="a_node19"><a xlink:href="stream_8h.html" target="_top" xlink:title="streams abstraction header file ">
<polygon fill="white" stroke="black" points="286.534,-224.5 286.534,-243.5 341.534,-243.5 341.534,-224.5 286.534,-224.5"/>
<text text-anchor="middle" x="314.034" y="-231.5" font-family="Helvetica,sans-Serif" font-size="10.00">stream.h</text>
</a>
</g>
</g>
<!-- Node2&#45;&gt;Node19 -->
<g id="edge36" class="edge"><title>Node2&#45;&gt;Node19</title>
<path fill="none" stroke="midnightblue" d="M370.248,-336.368C360.27,-318.376 337.076,-276.55 323.809,-252.627"/>
<polygon fill="midnightblue" stroke="midnightblue" points="326.709,-250.639 318.799,-243.591 320.587,-254.034 326.709,-250.639"/>
</g>
<!-- Node21 -->
<g id="node21" class="node"><title>Node21</title>
<g id="a_node21"><a xlink:href="mtree_8h.html" target="_top" xlink:title="semantic tree matrix header file `` ">
<polygon fill="white" stroke="black" points="456.034,-224.5 456.034,-243.5 506.034,-243.5 506.034,-224.5 456.034,-224.5"/>
<text text-anchor="middle" x="481.034" y="-231.5" font-family="Helvetica,sans-Serif" font-size="10.00">mtree.h</text>
</a>
</g>
</g>
<!-- Node2&#45;&gt;Node21 -->
<g id="edge30" class="edge"><title>Node2&#45;&gt;Node21</title>
<path fill="none" stroke="midnightblue" d="M383.352,-336.368C401.077,-317.974 442.806,-274.671 465.566,-251.052"/>
<polygon fill="midnightblue" stroke="midnightblue" points="468.337,-253.221 472.755,-243.591 463.296,-248.364 468.337,-253.221"/>
</g>
<!-- Node22 -->
<g id="node22" class="node"><title>Node22</title>
<g id="a_node22"><a xlink:href="util_8h.html" target="_top" xlink:title="util.h">
<polygon fill="white" stroke="black" points="37.0343,-112.5 37.0343,-131.5 75.0343,-131.5 75.0343,-112.5 37.0343,-112.5"/>
<text text-anchor="middle" x="56.0343" y="-119.5" font-family="Helvetica,sans-Serif" font-size="10.00">util.h</text>
</a>
</g>
</g>
<!-- Node2&#45;&gt;Node22 -->
<g id="edge37" class="edge"><title>Node2&#45;&gt;Node22</title>
<path fill="none" stroke="midnightblue" d="M338.815,-345.134C265.618,-344.573 103.974,-338.852 68.0343,-300 27.6478,-256.34 41.3609,-177.838 50.5375,-141.898"/>
<polygon fill="midnightblue" stroke="midnightblue" points="54.0307,-142.391 53.2832,-131.822 47.277,-140.55 54.0307,-142.391"/>
</g>
<!-- Node25 -->
<g id="node25" class="node"><title>Node25</title>
<g id="a_node25"><a xlink:href="debug_8h.html" target="_top" xlink:title="debug.h">
<polygon fill="white" stroke="black" points="77.5343,-280.5 77.5343,-299.5 128.534,-299.5 128.534,-280.5 77.5343,-280.5"/>
<text text-anchor="middle" x="103.034" y="-287.5" font-family="Helvetica,sans-Serif" font-size="10.00">debug.h</text>
</a>
</g>
</g>
<!-- Node2&#45;&gt;Node25 -->
<g id="edge42" class="edge"><title>Node2&#45;&gt;Node25</title>
<path fill="none" stroke="midnightblue" d="M338.801,-338.317C293.09,-329.807 212.105,-314.466 143.034,-300 141.597,-299.699 140.132,-299.388 138.653,-299.071"/>
<polygon fill="midnightblue" stroke="midnightblue" points="139.347,-295.64 128.831,-296.922 137.852,-302.478 139.347,-295.64"/>
</g>
<!-- Node6&#45;&gt;Node4 -->
<g id="edge6" class="edge"><title>Node6&#45;&gt;Node4</title>
<path fill="none" stroke="midnightblue" d="M359.466,-169.521C319.14,-160.595 256.355,-145.218 236.034,-132 217.27,-119.795 201.691,-99.0487 192.166,-84.2782"/>
<polygon fill="midnightblue" stroke="midnightblue" points="195.034,-82.2615 186.808,-75.5846 189.075,-85.9341 195.034,-82.2615"/>
</g>
<!-- Node7 -->
<g id="node7" class="node"><title>Node7</title>
<polygon fill="white" stroke="#bfbfbf" points="317.034,-112.5 317.034,-131.5 367.034,-131.5 367.034,-112.5 317.034,-112.5"/>
<text text-anchor="middle" x="342.034" y="-119.5" font-family="Helvetica,sans-Serif" font-size="10.00">signal.h</text>
</g>
<!-- Node6&#45;&gt;Node7 -->
<g id="edge7" class="edge"><title>Node6&#45;&gt;Node7</title>
<path fill="none" stroke="midnightblue" d="M386.282,-168.083C378.565,-160.22 367.13,-148.569 357.818,-139.081"/>
<polygon fill="midnightblue" stroke="midnightblue" points="360.126,-136.436 350.623,-131.751 355.13,-141.34 360.126,-136.436"/>
</g>
<!-- Node8 -->
<g id="node8" class="node"><title>Node8</title>
<polygon fill="white" stroke="#bfbfbf" points="385.034,-112.5 385.034,-131.5 437.034,-131.5 437.034,-112.5 385.034,-112.5"/>
<text text-anchor="middle" x="411.034" y="-119.5" font-family="Helvetica,sans-Serif" font-size="10.00">assert.h</text>
</g>
<!-- Node6&#45;&gt;Node8 -->
<g id="edge8" class="edge"><title>Node6&#45;&gt;Node8</title>
<path fill="none" stroke="midnightblue" d="M397.676,-168.083C399.82,-160.849 402.913,-150.409 405.583,-141.397"/>
<polygon fill="midnightblue" stroke="midnightblue" points="408.956,-142.333 408.441,-131.751 402.245,-140.345 408.956,-142.333"/>
</g>
<!-- Node9 -->
<g id="node9" class="node"><title>Node9</title>
<polygon fill="white" stroke="#bfbfbf" points="245.034,-112.5 245.034,-131.5 299.034,-131.5 299.034,-112.5 245.034,-112.5"/>
<text text-anchor="middle" x="272.034" y="-119.5" font-family="Helvetica,sans-Serif" font-size="10.00">setjmp.h</text>
</g>
<!-- Node6&#45;&gt;Node9 -->
<g id="edge9" class="edge"><title>Node6&#45;&gt;Node9</title>
<path fill="none" stroke="midnightblue" d="M375.545,-168.444C355.392,-159.596 323.711,-145.687 300.703,-135.586"/>
<polygon fill="midnightblue" stroke="midnightblue" points="301.996,-132.332 291.433,-131.516 299.182,-138.741 301.996,-132.332"/>
</g>
<!-- Node10&#45;&gt;Node3 -->
<g id="edge11" class="edge"><title>Node10&#45;&gt;Node3</title>
<path fill="none" stroke="midnightblue" d="M643.483,-280.375C636.527,-241.701 608.127,-83.7937 598.355,-29.4651"/>
<polygon fill="midnightblue" stroke="midnightblue" points="601.782,-28.7467 596.567,-19.5243 594.893,-29.9859 601.782,-28.7467"/>
</g>
<!-- Node10&#45;&gt;Node5 -->
<g id="edge12" class="edge"><title>Node10&#45;&gt;Node5</title>
<path fill="none" stroke="midnightblue" d="M635.296,-280.372C616.937,-263.099 579.034,-222.206 579.034,-179 579.034,-179 579.034,-179 579.034,-121 579.034,-73.5994 527.43,-40.6419 492.765,-23.85"/>
<polygon fill="midnightblue" stroke="midnightblue" points="494.038,-20.5821 483.494,-19.5439 491.089,-26.9307 494.038,-20.5821"/>
</g>
<!-- Node10&#45;&gt;Node6 -->
<g id="edge13" class="edge"><title>Node10&#45;&gt;Node6</title>
<path fill="none" stroke="midnightblue" d="M624.438,-282.584C621.3,-281.675 618.089,-280.784 615.034,-280 541.071,-261.013 511.991,-284.146 447.034,-244 428.278,-232.408 413.407,-211.544 404.454,-196.578"/>
<polygon fill="midnightblue" stroke="midnightblue" points="407.424,-194.721 399.443,-187.752 401.337,-198.177 407.424,-194.721"/>
</g>
<!-- Node11 -->
<g id="node11" class="node"><title>Node11</title>
<g id="a_node11"><a xlink:href="sys__defs_8h.html" target="_top" xlink:title="Defines types and vars for system defined semantics. ">
<polygon fill="white" stroke="black" points="683.534,-168.5 683.534,-187.5 748.534,-187.5 748.534,-168.5 683.534,-168.5"/>
<text text-anchor="middle" x="716.034" y="-175.5" font-family="Helvetica,sans-Serif" font-size="10.00">sys_defs.h</text>
</a>
</g>
</g>
<!-- Node10&#45;&gt;Node11 -->
<g id="edge14" class="edge"><title>Node10&#45;&gt;Node11</title>
<path fill="none" stroke="midnightblue" d="M665.715,-285.184C687.272,-279.985 719.972,-268.371 735.034,-244 744.174,-229.211 736.416,-209.819 728.231,-196.077"/>
<polygon fill="midnightblue" stroke="midnightblue" points="731.092,-194.057 722.699,-187.591 725.228,-197.88 731.092,-194.057"/>
</g>
<!-- Node12 -->
<g id="node12" class="node"><title>Node12</title>
<g id="a_node12"><a xlink:href="ceptr__types_8h_source.html" target="_top" xlink:title="ceptr_types.h">
<polygon fill="white" stroke="black" points="678.034,-112.5 678.034,-131.5 754.034,-131.5 754.034,-112.5 678.034,-112.5"/>
<text text-anchor="middle" x="716.034" y="-119.5" font-family="Helvetica,sans-Serif" font-size="10.00">ceptr_types.h</text>
</a>
</g>
</g>
<!-- Node10&#45;&gt;Node12 -->
<g id="edge26" class="edge"><title>Node10&#45;&gt;Node12</title>
<path fill="none" stroke="midnightblue" d="M665.867,-286.615C690.795,-282.557 731.708,-271.827 752.034,-244 772.001,-216.665 769.258,-199.567 757.034,-168 752.58,-156.498 743.667,-146.131 735.285,-138.255"/>
<polygon fill="midnightblue" stroke="midnightblue" points="737.406,-135.46 727.575,-131.51 732.797,-140.729 737.406,-135.46"/>
</g>
<!-- Node18 -->
<g id="node18" class="node"><title>Node18</title>
<g id="a_node18"><a xlink:href="base__defs_8h.html" target="_top" xlink:title="auto&#45;generated system definitions ">
<polygon fill="white" stroke="black" points="656.034,-224.5 656.034,-243.5 726.034,-243.5 726.034,-224.5 656.034,-224.5"/>
<text text-anchor="middle" x="691.034" y="-231.5" font-family="Helvetica,sans-Serif" font-size="10.00">base_defs.h</text>
</a>
</g>
</g>
<!-- Node10&#45;&gt;Node18 -->
<g id="edge24" class="edge"><title>Node10&#45;&gt;Node18</title>
<path fill="none" stroke="midnightblue" d="M652.63,-280.083C659.262,-272.298 669.055,-260.801 677.092,-251.367"/>
<polygon fill="midnightblue" stroke="midnightblue" points="679.759,-253.633 683.58,-243.751 674.431,-249.094 679.759,-253.633"/>
</g>
<!-- Node10&#45;&gt;Node19 -->
<g id="edge27" class="edge"><title>Node10&#45;&gt;Node19</title>
<path fill="none" stroke="midnightblue" d="M624.48,-282.411C621.335,-281.526 618.112,-280.688 615.034,-280 521.345,-259.056 409.025,-245.174 351.713,-238.88"/>
<polygon fill="midnightblue" stroke="midnightblue" points="351.987,-235.389 341.668,-237.792 351.234,-242.348 351.987,-235.389"/>
</g>
<!-- Node11&#45;&gt;Node12 -->
<g id="edge15" class="edge"><title>Node11&#45;&gt;Node12</title>
<path fill="none" stroke="midnightblue" d="M716.034,-168.083C716.034,-161.006 716.034,-150.861 716.034,-141.986"/>
<polygon fill="midnightblue" stroke="midnightblue" points="719.534,-141.751 716.034,-131.751 712.534,-141.751 719.534,-141.751"/>
</g>
<!-- Node12&#45;&gt;Node4 -->
<g id="edge17" class="edge"><title>Node12&#45;&gt;Node4</title>
<path fill="none" stroke="midnightblue" d="M677.63,-117.116C577.463,-106.987 309.505,-79.8903 215.326,-70.3666"/>
<polygon fill="midnightblue" stroke="midnightblue" points="215.533,-66.8697 205.232,-69.3458 214.829,-73.8342 215.533,-66.8697"/>
</g>
<!-- Node13 -->
<g id="node13" class="node"><title>Node13</title>
<polygon fill="white" stroke="#bfbfbf" points="425.534,-56.5 425.534,-75.5 474.534,-75.5 474.534,-56.5 425.534,-56.5"/>
<text text-anchor="middle" x="450.034" y="-63.5" font-family="Helvetica,sans-Serif" font-size="10.00">stdint.h</text>
</g>
<!-- Node12&#45;&gt;Node13 -->
<g id="edge16" class="edge"><title>Node12&#45;&gt;Node13</title>
<path fill="none" stroke="midnightblue" d="M677.923,-113.263C626.154,-102.754 534.365,-84.1198 484.537,-74.0044"/>
<polygon fill="midnightblue" stroke="midnightblue" points="485.067,-70.5407 474.571,-71.9811 483.675,-77.4007 485.067,-70.5407"/>
</g>
<!-- Node14 -->
<g id="node14" class="node"><title>Node14</title>
<g id="a_node14"><a xlink:href="uthash_8h_source.html" target="_top" xlink:title="uthash.h">
<polygon fill="white" stroke="black" points="752.034,-56.5 752.034,-75.5 806.034,-75.5 806.034,-56.5 752.034,-56.5"/>
<text text-anchor="middle" x="779.034" y="-63.5" font-family="Helvetica,sans-Serif" font-size="10.00">uthash.h</text>
</a>
</g>
</g>
<!-- Node12&#45;&gt;Node14 -->
<g id="edge18" class="edge"><title>Node12&#45;&gt;Node14</title>
<path fill="none" stroke="midnightblue" d="M726.156,-112.324C735.561,-104.263 749.778,-92.0765 761.103,-82.3695"/>
<polygon fill="midnightblue" stroke="midnightblue" points="763.413,-84.9993 768.728,-75.8339 758.858,-79.6844 763.413,-84.9993"/>
</g>
<!-- Node17 -->
<g id="node17" class="node"><title>Node17</title>
<polygon fill="white" stroke="#bfbfbf" points="678.034,-56.5 678.034,-75.5 734.034,-75.5 734.034,-56.5 678.034,-56.5"/>
<text text-anchor="middle" x="706.034" y="-63.5" font-family="Helvetica,sans-Serif" font-size="10.00">stdbool.h</text>
</g>
<!-- Node12&#45;&gt;Node17 -->
<g id="edge23" class="edge"><title>Node12&#45;&gt;Node17</title>
<path fill="none" stroke="midnightblue" d="M714.383,-112.083C713.058,-104.927 711.152,-94.6353 709.496,-85.6911"/>
<polygon fill="midnightblue" stroke="midnightblue" points="712.917,-84.9466 707.655,-75.7511 706.034,-86.2212 712.917,-84.9466"/>
</g>
<!-- Node14&#45;&gt;Node3 -->
<g id="edge19" class="edge"><title>Node14&#45;&gt;Node3</title>
<path fill="none" stroke="midnightblue" d="M751.884,-57.0321C719.403,-47.4995 664.978,-31.5269 629.543,-21.1275"/>
<polygon fill="midnightblue" stroke="midnightblue" points="630.224,-17.68 619.644,-18.2223 628.253,-24.3967 630.224,-17.68"/>
</g>
<!-- Node14&#45;&gt;Node5 -->
<g id="edge21" class="edge"><title>Node14&#45;&gt;Node5</title>
<path fill="none" stroke="midnightblue" d="M751.965,-57.9669C748.96,-57.2655 745.938,-56.5942 743.034,-56 654.732,-37.9268 549.581,-22.7599 496.438,-15.5353"/>
<polygon fill="midnightblue" stroke="midnightblue" points="496.596,-12.0249 486.218,-14.1568 495.66,-18.9621 496.596,-12.0249"/>
</g>
<!-- Node15 -->
<g id="node15" class="node"><title>Node15</title>
<polygon fill="white" stroke="#bfbfbf" points="716.034,-0.5 716.034,-19.5 768.034,-19.5 768.034,-0.5 716.034,-0.5"/>
<text text-anchor="middle" x="742.034" y="-7.5" font-family="Helvetica,sans-Serif" font-size="10.00">stddef.h</text>
</g>
<!-- Node14&#45;&gt;Node15 -->
<g id="edge20" class="edge"><title>Node14&#45;&gt;Node15</title>
<path fill="none" stroke="midnightblue" d="M772.925,-56.083C767.752,-48.5341 760.188,-37.4948 753.84,-28.2298"/>
<polygon fill="midnightblue" stroke="midnightblue" points="756.57,-26.0221 748.03,-19.7511 750.795,-29.9787 756.57,-26.0221"/>
</g>
<!-- Node16 -->
<g id="node16" class="node"><title>Node16</title>
<polygon fill="white" stroke="#bfbfbf" points="786.534,-0.5 786.534,-19.5 845.534,-19.5 845.534,-0.5 786.534,-0.5"/>
<text text-anchor="middle" x="816.034" y="-7.5" font-family="Helvetica,sans-Serif" font-size="10.00">inttypes.h</text>
</g>
<!-- Node14&#45;&gt;Node16 -->
<g id="edge22" class="edge"><title>Node14&#45;&gt;Node16</title>
<path fill="none" stroke="midnightblue" d="M785.144,-56.083C790.317,-48.5341 797.88,-37.4948 804.229,-28.2298"/>
<polygon fill="midnightblue" stroke="midnightblue" points="807.273,-29.9787 810.038,-19.7511 801.499,-26.0221 807.273,-29.9787"/>
</g>
<!-- Node18&#45;&gt;Node11 -->
<g id="edge25" class="edge"><title>Node18&#45;&gt;Node11</title>
<path fill="none" stroke="midnightblue" d="M695.163,-224.083C698.548,-216.77 703.45,-206.181 707.653,-197.103"/>
<polygon fill="midnightblue" stroke="midnightblue" points="710.958,-198.296 711.983,-187.751 704.605,-195.355 710.958,-198.296"/>
</g>
<!-- Node19&#45;&gt;Node4 -->
<g id="edge28" class="edge"><title>Node19&#45;&gt;Node4</title>
<path fill="none" stroke="midnightblue" d="M302.601,-224.428C281.779,-208.323 237.312,-171.584 210.034,-132 200.022,-117.47 192.431,-98.7872 187.696,-85.183"/>
<polygon fill="midnightblue" stroke="midnightblue" points="190.972,-83.941 184.52,-75.5379 184.324,-86.1309 190.972,-83.941"/>
</g>
<!-- Node20 -->
<g id="node20" class="node"><title>Node20</title>
<polygon fill="white" stroke="#bfbfbf" points="284.534,-168.5 284.534,-187.5 341.534,-187.5 341.534,-168.5 284.534,-168.5"/>
<text text-anchor="middle" x="313.034" y="-175.5" font-family="Helvetica,sans-Serif" font-size="10.00">pthread.h</text>
</g>
<!-- Node19&#45;&gt;Node20 -->
<g id="edge29" class="edge"><title>Node19&#45;&gt;Node20</title>
<path fill="none" stroke="midnightblue" d="M313.869,-224.083C313.738,-217.006 313.55,-206.861 313.386,-197.986"/>
<polygon fill="midnightblue" stroke="midnightblue" points="316.881,-197.685 313.196,-187.751 309.882,-197.814 316.881,-197.685"/>
</g>
<!-- Node21&#45;&gt;Node3 -->
<g id="edge31" class="edge"><title>Node21&#45;&gt;Node3</title>
<path fill="none" stroke="midnightblue" d="M482.444,-224.319C487.705,-192.714 506.92,-84.1617 527.034,-56 536.728,-42.4283 551.901,-31.8176 565.457,-24.3169"/>
<polygon fill="midnightblue" stroke="midnightblue" points="567.235,-27.3376 574.497,-19.6229 564.009,-21.1252 567.235,-27.3376"/>
</g>
<!-- Node21&#45;&gt;Node5 -->
<g id="edge32" class="edge"><title>Node21&#45;&gt;Node5</title>
<path fill="none" stroke="midnightblue" d="M479.785,-224.328C476.566,-203.796 466.752,-151.014 446.034,-112 436.266,-93.6053 423.124,-95.5833 416.034,-76 413.008,-67.642 412.588,-64.1934 416.034,-56 421.06,-44.0528 430.978,-33.6922 440.322,-25.9339"/>
<polygon fill="midnightblue" stroke="midnightblue" points="442.474,-28.6944 448.248,-19.8113 438.194,-23.1547 442.474,-28.6944"/>
</g>
<!-- Node21&#45;&gt;Node6 -->
<g id="edge33" class="edge"><title>Node21&#45;&gt;Node6</title>
<path fill="none" stroke="midnightblue" d="M467.217,-224.324C453.801,-215.9 433.21,-202.971 417.449,-193.074"/>
<polygon fill="midnightblue" stroke="midnightblue" points="419.148,-190.008 408.817,-187.655 415.425,-195.936 419.148,-190.008"/>
</g>
<!-- Node21&#45;&gt;Node11 -->
<g id="edge34" class="edge"><title>Node21&#45;&gt;Node11</title>
<path fill="none" stroke="midnightblue" d="M506.183,-227.221C546.089,-218.051 624.387,-200.059 673.242,-188.833"/>
<polygon fill="midnightblue" stroke="midnightblue" points="674.234,-192.196 683.196,-186.546 672.666,-185.374 674.234,-192.196"/>
</g>
<!-- Node21&#45;&gt;Node12 -->
<g id="edge35" class="edge"><title>Node21&#45;&gt;Node12</title>
<path fill="none" stroke="midnightblue" d="M499.474,-224.368C540.573,-205.131 639.878,-158.648 688.408,-135.931"/>
<polygon fill="midnightblue" stroke="midnightblue" points="690.107,-139.001 697.68,-131.591 687.139,-132.661 690.107,-139.001"/>
</g>
<!-- Node22&#45;&gt;Node4 -->
<g id="edge39" class="edge"><title>Node22&#45;&gt;Node4</title>
<path fill="none" stroke="midnightblue" d="M75.171,-112.799C95.7435,-103.982 128.704,-89.8557 152.585,-79.6213"/>
<polygon fill="midnightblue" stroke="midnightblue" points="154.069,-82.793 161.882,-75.6367 151.312,-76.359 154.069,-82.793"/>
</g>
<!-- Node22&#45;&gt;Node13 -->
<g id="edge41" class="edge"><title>Node22&#45;&gt;Node13</title>
<path fill="none" stroke="midnightblue" d="M75.0377,-118.395C137.119,-109.887 334.587,-82.8227 415.227,-71.7705"/>
<polygon fill="midnightblue" stroke="midnightblue" points="415.928,-75.2073 425.36,-70.3818 414.977,-68.2721 415.928,-75.2073"/>
</g>
<!-- Node23 -->
<g id="node23" class="node"><title>Node23</title>
<polygon fill="white" stroke="#bfbfbf" points="29.5343,-56.5 29.5343,-75.5 78.5343,-75.5 78.5343,-56.5 29.5343,-56.5"/>
<text text-anchor="middle" x="54.0343" y="-63.5" font-family="Helvetica,sans-Serif" font-size="10.00">ctype.h</text>
</g>
<!-- Node22&#45;&gt;Node23 -->
<g id="edge38" class="edge"><title>Node22&#45;&gt;Node23</title>
<path fill="none" stroke="midnightblue" d="M55.704,-112.083C55.4419,-105.006 55.0662,-94.8611 54.7375,-85.9865"/>
<polygon fill="midnightblue" stroke="midnightblue" points="58.2262,-85.6147 54.3584,-75.7511 51.231,-85.8738 58.2262,-85.6147"/>
</g>
<!-- Node24 -->
<g id="node24" class="node"><title>Node24</title>
<polygon fill="white" stroke="#bfbfbf" points="97.0343,-56.5 97.0343,-75.5 141.034,-75.5 141.034,-56.5 97.0343,-56.5"/>
<text text-anchor="middle" x="119.034" y="-63.5" font-family="Helvetica,sans-Serif" font-size="10.00">time.h</text>
</g>
<!-- Node22&#45;&gt;Node24 -->
<g id="edge40" class="edge"><title>Node22&#45;&gt;Node24</title>
<path fill="none" stroke="midnightblue" d="M66.1563,-112.324C75.5607,-104.263 89.7784,-92.0765 101.103,-82.3695"/>
<polygon fill="midnightblue" stroke="midnightblue" points="103.413,-84.9993 108.728,-75.8339 98.8577,-79.6844 103.413,-84.9993"/>
</g>
<!-- Node25&#45;&gt;Node4 -->
<g id="edge43" class="edge"><title>Node25&#45;&gt;Node4</title>
<path fill="none" stroke="midnightblue" d="M102.074,-280.196C99.5447,-253.109 94.9452,-169.379 127.034,-112 134.114,-99.3402 146.292,-88.8173 157.391,-81.1387"/>
<polygon fill="midnightblue" stroke="midnightblue" points="159.45,-83.9754 165.944,-75.6039 155.647,-78.0987 159.45,-83.9754"/>
</g>
<!-- Node26&#45;&gt;Node10 -->
<g id="edge45" class="edge"><title>Node26&#45;&gt;Node10</title>
<path fill="none" stroke="midnightblue" d="M696.334,-392.448C686.586,-384.116 672.462,-370.599 664.034,-356 655.677,-341.522 650.742,-323.075 648.006,-309.534"/>
<polygon fill="midnightblue" stroke="midnightblue" points="651.417,-308.728 646.198,-299.508 644.528,-309.971 651.417,-308.728"/>
</g>
<!-- Node27 -->
<g id="node27" class="node"><title>Node27</title>
<g id="a_node27"><a xlink:href="def_8h.html" target="_top" xlink:title="header file for symbol and structure definition functions ">
<polygon fill="white" stroke="black" points="541.034,-336.5 541.034,-355.5 579.034,-355.5 579.034,-336.5 541.034,-336.5"/>
<text text-anchor="middle" x="560.034" y="-343.5" font-family="Helvetica,sans-Serif" font-size="10.00">def.h</text>
</a>
</g>
</g>
<!-- Node26&#45;&gt;Node27 -->
<g id="edge46" class="edge"><title>Node26&#45;&gt;Node27</title>
<path fill="none" stroke="midnightblue" d="M683.742,-392.444C658.073,-383.014 616.756,-367.836 589.014,-357.646"/>
<polygon fill="midnightblue" stroke="midnightblue" points="590.056,-354.3 579.462,-354.137 587.642,-360.87 590.056,-354.3"/>
</g>
<!-- Node29 -->
<g id="node29" class="node"><title>Node29</title>
<g id="a_node29"><a xlink:href="label_8h.html" target="_top" xlink:title="Label tables map human readable text strings to parts of semantic trees. ">
<polygon fill="white" stroke="black" points="807.534,-280.5 807.534,-299.5 852.534,-299.5 852.534,-280.5 807.534,-280.5"/>
<text text-anchor="middle" x="830.034" y="-287.5" font-family="Helvetica,sans-Serif" font-size="10.00">label.h</text>
</a>
</g>
</g>
<!-- Node26&#45;&gt;Node29 -->
<g id="edge49" class="edge"><title>Node26&#45;&gt;Node29</title>
<path fill="none" stroke="midnightblue" d="M746.06,-392.476C767.651,-385.885 793.401,-374.635 810.034,-356 821.449,-343.211 826.349,-324.022 828.453,-309.805"/>
<polygon fill="midnightblue" stroke="midnightblue" points="831.951,-310.02 829.611,-299.687 824.996,-309.224 831.951,-310.02"/>
</g>
<!-- Node30 -->
<g id="node30" class="node"><title>Node30</title>
<g id="a_node30"><a xlink:href="process_8h.html" target="_top" xlink:title="processing header files ">
<polygon fill="white" stroke="black" points="673.534,-336.5 673.534,-355.5 732.534,-355.5 732.534,-336.5 673.534,-336.5"/>
<text text-anchor="middle" x="703.034" y="-343.5" font-family="Helvetica,sans-Serif" font-size="10.00">process.h</text>
</a>
</g>
</g>
<!-- Node26&#45;&gt;Node30 -->
<g id="edge51" class="edge"><title>Node26&#45;&gt;Node30</title>
<path fill="none" stroke="midnightblue" d="M706.374,-392.083C705.85,-385.006 705.098,-374.861 704.441,-365.986"/>
<polygon fill="midnightblue" stroke="midnightblue" points="707.912,-365.465 703.683,-355.751 700.931,-365.982 707.912,-365.465"/>
</g>
<!-- Node31 -->
<g id="node31" class="node"><title>Node31</title>
<g id="a_node31"><a xlink:href="scape_8h.html" target="_top" xlink:title="scape header files ">
<polygon fill="white" stroke="black" points="750.534,-336.5 750.534,-355.5 801.534,-355.5 801.534,-336.5 750.534,-336.5"/>
<text text-anchor="middle" x="776.034" y="-343.5" font-family="Helvetica,sans-Serif" font-size="10.00">scape.h</text>
</a>
</g>
</g>
<!-- Node26&#45;&gt;Node31 -->
<g id="edge53" class="edge"><title>Node26&#45;&gt;Node31</title>
<path fill="none" stroke="midnightblue" d="M718.12,-392.324C728.52,-384.185 744.295,-371.839 756.756,-362.087"/>
<polygon fill="midnightblue" stroke="midnightblue" points="759.029,-364.753 764.747,-355.834 754.714,-359.241 759.029,-364.753"/>
</g>
<!-- Node27&#45;&gt;Node10 -->
<g id="edge47" class="edge"><title>Node27&#45;&gt;Node10</title>
<path fill="none" stroke="midnightblue" d="M573.691,-336.324C586.951,-327.9 607.302,-314.971 622.881,-305.074"/>
<polygon fill="midnightblue" stroke="midnightblue" points="624.848,-307.971 631.411,-299.655 621.094,-302.063 624.848,-307.971"/>
</g>
<!-- Node28 -->
<g id="node28" class="node"><title>Node28</title>
<polygon fill="white" stroke="#bfbfbf" points="554.034,-280.5 554.034,-299.5 606.034,-299.5 606.034,-280.5 554.034,-280.5"/>
<text text-anchor="middle" x="580.034" y="-287.5" font-family="Helvetica,sans-Serif" font-size="10.00">stdarg.h</text>
</g>
<!-- Node27&#45;&gt;Node28 -->
<g id="edge48" class="edge"><title>Node27&#45;&gt;Node28</title>
<path fill="none" stroke="midnightblue" d="M563.337,-336.083C566.016,-328.849 569.883,-318.409 573.221,-309.397"/>
<polygon fill="midnightblue" stroke="midnightblue" points="576.602,-310.344 576.793,-299.751 570.038,-307.913 576.602,-310.344"/>
</g>
<!-- Node29&#45;&gt;Node12 -->
<g id="edge50" class="edge"><title>Node29&#45;&gt;Node12</title>
<path fill="none" stroke="midnightblue" d="M827.692,-280.299C821.707,-259.252 804.23,-204.631 775.034,-168 765.245,-155.717 751.398,-144.927 739.578,-136.994"/>
<polygon fill="midnightblue" stroke="midnightblue" points="741.341,-133.966 731.036,-131.507 737.558,-139.856 741.341,-133.966"/>
</g>
<!-- Node30&#45;&gt;Node10 -->
<g id="edge52" class="edge"><title>Node30&#45;&gt;Node10</title>
<path fill="none" stroke="midnightblue" d="M693.716,-336.324C685.142,-328.341 672.222,-316.313 661.847,-306.653"/>
<polygon fill="midnightblue" stroke="midnightblue" points="664.227,-304.086 654.523,-299.834 659.457,-309.21 664.227,-304.086"/>
</g>
<!-- Node31&#45;&gt;Node10 -->
<g id="edge54" class="edge"><title>Node31&#45;&gt;Node10</title>
<path fill="none" stroke="midnightblue" d="M755.277,-336.444C733.718,-327.557 699.771,-313.563 675.241,-303.451"/>
<polygon fill="midnightblue" stroke="midnightblue" points="676.274,-300.092 665.695,-299.516 673.606,-306.563 676.274,-300.092"/>
</g>
<!-- Node32&#45;&gt;Node2 -->
<g id="edge56" class="edge"><title>Node32&#45;&gt;Node2</title>
<path fill="none" stroke="midnightblue" d="M500.282,-448.417C477.715,-441.235 447.541,-429.345 425.034,-412 408.175,-399.007 393.955,-379.022 385.041,-364.643"/>
<polygon fill="midnightblue" stroke="midnightblue" points="387.868,-362.547 379.751,-355.738 381.85,-366.123 387.868,-362.547"/>
</g>
<!-- Node32&#45;&gt;Node26 -->
<g id="edge57" class="edge"><title>Node32&#45;&gt;Node26</title>
<path fill="none" stroke="midnightblue" d="M559.764,-448.444C589.46,-439.28 636.751,-424.688 669.704,-414.519"/>
<polygon fill="midnightblue" stroke="midnightblue" points="670.911,-417.809 679.435,-411.516 668.847,-411.121 670.911,-417.809"/>
</g>
<!-- Node32&#45;&gt;Node27 -->
<g id="edge58" class="edge"><title>Node32&#45;&gt;Node27</title>
<path fill="none" stroke="midnightblue" d="M534.231,-448.368C538.75,-430.617 549.174,-389.666 555.3,-365.597"/>
<polygon fill="midnightblue" stroke="midnightblue" points="558.772,-366.146 557.847,-355.591 551.989,-364.419 558.772,-366.146"/>
</g>
<!-- Node33 -->
<g id="node33" class="node"><title>Node33</title>
<g id="a_node33"><a xlink:href="semtrex_8h.html" target="_top" xlink:title="Semantic tree regular expression header file. ">
<polygon fill="white" stroke="black" points="560.034,-392.5 560.034,-411.5 646.034,-411.5 646.034,-392.5 560.034,-392.5"/>
<text text-anchor="middle" x="603.034" y="-399.5" font-family="Helvetica,sans-Serif" font-size="10.00">../src/semtrex.h</text>
</a>
</g>
</g>
<!-- Node32&#45;&gt;Node33 -->
<g id="edge59" class="edge"><title>Node32&#45;&gt;Node33</title>
<path fill="none" stroke="midnightblue" d="M543.442,-448.324C554.143,-440.185 570.375,-427.839 583.197,-418.087"/>
<polygon fill="midnightblue" stroke="midnightblue" points="585.579,-420.673 591.419,-411.834 581.341,-415.102 585.579,-420.673"/>
</g>
<!-- Node34 -->
<g id="node34" class="node"><title>Node34</title>
<g id="a_node34"><a xlink:href="spec__utils_8h.html" target="_top" xlink:title="spec_utils.h">
<polygon fill="white" stroke="black" points="434.534,-392.5 434.534,-411.5 503.534,-411.5 503.534,-392.5 434.534,-392.5"/>
<text text-anchor="middle" x="469.034" y="-399.5" font-family="Helvetica,sans-Serif" font-size="10.00">spec_utils.h</text>
</a>
</g>
</g>
<!-- Node32&#45;&gt;Node34 -->
<g id="edge61" class="edge"><title>Node32&#45;&gt;Node34</title>
<path fill="none" stroke="midnightblue" d="M521.912,-448.324C512.508,-440.263 498.29,-428.077 486.965,-418.369"/>
<polygon fill="midnightblue" stroke="midnightblue" points="489.211,-415.684 479.341,-411.834 484.655,-420.999 489.211,-415.684"/>
</g>
<!-- Node33&#45;&gt;Node10 -->
<g id="edge60" class="edge"><title>Node33&#45;&gt;Node10</title>
<path fill="none" stroke="midnightblue" d="M606.33,-392.368C613.169,-374.456 629.027,-332.923 638.181,-308.948"/>
<polygon fill="midnightblue" stroke="midnightblue" points="641.457,-310.182 641.754,-299.591 634.917,-307.685 641.457,-310.182"/>
</g>
<!-- Node34&#45;&gt;Node2 -->
<g id="edge62" class="edge"><title>Node34&#45;&gt;Node2</title>
<path fill="none" stroke="midnightblue" d="M453.932,-392.324C439.131,-383.822 416.34,-370.729 399.052,-360.797"/>
<polygon fill="midnightblue" stroke="midnightblue" points="400.514,-357.601 390.1,-355.655 397.027,-363.671 400.514,-357.601"/>
</g>
</g>
</svg>
        <g id="navigator" transform="translate(0 0)" fill="#404254">
                <rect fill="#f2f5e9" fill-opacity="0.5" stroke="#606060" stroke-width=".5" x="0" y="0" width="60" height="60"/>
                <use id="zoomplus" xlink:href="#zoomPlus" x="17" y="9" onmousedown="handleZoom(evt,'in')"/>
                <use id="zoomminus" xlink:href="#zoomMin" x="42" y="9" onmousedown="handleZoom(evt,'out')"/>
                <use id="reset" xlink:href="#resetDef" x="30" y="36" onmousedown="handleReset()"/>
                <g id="arrowUp" xlink:href="#dirArrow" transform="translate(30 24)" onmousedown="handlePan(0,-1)">
                  <use xlink:href="#rim" fill="#404040">
                        <set attributeName="fill" to="#808080" begin="arrowUp.mouseover" end="arrowUp.mouseout"/>
                  </use>
                  <path fill="none" stroke="white" stroke-width="1.5" d="M0,-3.0v7 M-2.5,-0.5L0,-3.0L2.5,-0.5"/>
                </g>
                <g id="arrowRight" xlink:href="#dirArrow" transform="rotate(90) translate(36 -43)" onmousedown="handlePan(1,0)">
                  <use xlink:href="#rim" fill="#404040">
                        <set attributeName="fill" to="#808080" begin="arrowRight.mouseover" end="arrowRight.mouseout"/>
                  </use>
                  <path fill="none" stroke="white" stroke-width="1.5" d="M0,-3.0v7 M-2.5,-0.5L0,-3.0L2.5,-0.5"/>
                </g>
                <g id="arrowDown" xlink:href="#dirArrow" transform="rotate(180) translate(-30 -48)" onmousedown="handlePan(0,1)">
                  <use xlink:href="#rim" fill="#404040">
                        <set attributeName="fill" to="#808080" begin="arrowDown.mouseover" end="arrowDown.mouseout"/>
                  </use>
                  <path fill="none" stroke="white" stroke-width="1.5" d="M0,-3.0v7 M-2.5,-0.5L0,-3.0L2.5,-0.5"/>
                </g>
                <g id="arrowLeft" xlink:href="#dirArrow" transform="rotate(270) translate(-36 17)" onmousedown="handlePan(-1,0)">
                  <use xlink:href="#rim" fill="#404040">
                        <set attributeName="fill" to="#808080" begin="arrowLeft.mouseover" end="arrowLeft.mouseout"/>
                  </use>
                  <path fill="none" stroke="white" stroke-width="1.5" d="M0,-3.0v7 M-2.5,-0.5L0,-3.0L2.5,-0.5"/>
                </g>
        </g>
        <svg viewBox="0 0 15 15" width="100%" height="30px" preserveAspectRatio="xMaxYMin meet">
         <g id="arrow_out" transform="scale(0.3 0.3)">
          <a xlink:href="mtree__spec_8h__incl_org.svg" target="_base">
           <rect id="button" ry="5" rx="5" y="6" x="6" height="38" width="38"
                fill="#f2f5e9" fill-opacity="0.5" stroke="#606060" stroke-width="1.0"/>
           <path id="arrow"
             d="M 11.500037,31.436501 C 11.940474,20.09759 22.043105,11.32322 32.158766,21.979434 L 37.068811,17.246167 C 37.068811,17.246167 37.088388,32 37.088388,32 L 22.160133,31.978069 C 22.160133,31.978069 26.997745,27.140456 26.997745,27.140456 C 18.528582,18.264221 13.291696,25.230495 11.500037,31.436501 z"
             style="fill:#404040;"/>
          </a>
         </g>
        </svg>
</svg>
