<?xml version="1.0" encoding="UTF-8" standalone="no"?>
<!DOCTYPE svg PUBLIC "-//W3C//DTD SVG 1.1//EN"
 "http://www.w3.org/Graphics/SVG/1.1/DTD/svg11.dtd">
<!-- Generated by graphviz version 2.38.0 (20140413.2041)
 -->
<!-- Title: spec/mtree_spec.h Pages: 1 -->
<!--zoomable 532 -->
<svg id="main" version="1.1" xmlns="http://www.w3.org/2000/svg" xmlns:xlink="http://www.w3.org/1999/xlink" xml:space="preserve" onload="init(evt)">
<style type="text/css"><![CDATA[
.edge:hover path { stroke: red; }
.edge:hover polygon { stroke: red; fill: red; }
]]></style>
<script type="text/javascript"><![CDATA[
var edges = document.getElementsByTagName('g');
if (edges && edges.length) {
  for (var i=0;i<edges.length;i++) {
    if (edges[i].id.substr(0,4)=='edge') {
      edges[i].setAttribute('class','edge');
    }
  }
}
]]></script>
        <defs>
                <circle id="rim" cx="0" cy="0" r="7"/>
                <circle id="rim2" cx="0" cy="0" r="3.5"/>
                <g id="zoomPlus">
                        <use xlink:href="#rim" fill="#404040">
                                <set attributeName="fill" to="#808080" begin="zoomplus.mouseover" end="zoomplus.mouseout"/>
                        </use>
                        <path d="M-4,0h8M0,-4v8" fill="none" stroke="white" stroke-width="1.5" pointer-events="none"/>
                </g>
                <g id="zoomMin">
                        <use xlink:href="#rim" fill="#404040">
                                <set attributeName="fill" to="#808080" begin="zoomminus.mouseover" end="zoomminus.mouseout"/>
                        </use>
                        <path d="M-4,0h8" fill="none" stroke="white" stroke-width="1.5" pointer-events="none"/>
                </g>
                <g id="dirArrow">
                        <path fill="none" stroke="white" stroke-width="1.5" d="M0,-3.0v7 M-2.5,-0.5L0,-3.0L2.5,-0.5"/>
                </g>
               <g id="resetDef">
                       <use xlink:href="#rim2" fill="#404040">
                               <set attributeName="fill" to="#808080" begin="reset.mouseover" end="reset.mouseout"/>
                       </use>
               </g>
        </defs>

<script type="text/javascript">
var viewWidth = 932;
var viewHeight = 532;
var sectionId = 'dynsection-0';
</script>
<script xlink:href="svgpan.js"/>
<svg id="graph" class="graph">
<g id="viewport">
<title>spec/mtree_spec.h</title>
<polygon fill="white" stroke="none" points="-4,4 -4,-528 927.5,-528 927.5,4 -4,4"/>
<!-- Node1 -->
<g id="node1" class="node"><title>Node1</title>
<polygon fill="#bfbfbf" stroke="black" points="480,-504.5 480,-523.5 580,-523.5 580,-504.5 480,-504.5"/>
<text text-anchor="middle" x="530" y="-511.5" font-family="Helvetica,sans-Serif" font-size="10.00">spec/mtree_spec.h</text>
</g>
<!-- Node2 -->
<g id="node2" class="node"><title>Node2</title>
<g id="a_node2"><a xlink:href="ceptr_8h_source.html" target="_top" xlink:title="../src/ceptr.h">
<polygon fill="white" stroke="black" points="333,-336.5 333,-355.5 405,-355.5 405,-336.5 333,-336.5"/>
<text text-anchor="middle" x="369" y="-343.5" font-family="Helvetica,sans-Serif" font-size="10.00">../src/ceptr.h</text>
</a>
</g>
</g>
<!-- Node1&#45;&gt;Node2 -->
<g id="edge1" class="edge"><title>Node1&#45;&gt;Node2</title>
<path fill="none" stroke="midnightblue" d="M504.425,-504.447C468.641,-490.996 404.69,-461.233 375,-412 366.679,-398.201 365.75,-379.679 366.569,-365.937"/>
<polygon fill="midnightblue" stroke="midnightblue" points="370.077,-366.014 367.544,-355.726 363.109,-365.348 370.077,-366.014"/>
</g>
<!-- Node25 -->
<g id="node25" class="node"><title>Node25</title>
<g id="a_node25"><a xlink:href="receptor_8h.html" target="_top" xlink:title="receptor implementation header file ">
<polygon fill="white" stroke="black" points="629,-392.5 629,-411.5 715,-411.5 715,-392.5 629,-392.5"/>
<text text-anchor="middle" x="672" y="-399.5" font-family="Helvetica,sans-Serif" font-size="10.00">../src/receptor.h</text>
</a>
</g>
</g>
<!-- Node1&#45;&gt;Node25 -->
<g id="edge43" class="edge"><title>Node1&#45;&gt;Node25</title>
<path fill="none" stroke="midnightblue" d="M541.143,-504.368C565.302,-485.653 622.751,-441.151 652.853,-417.832"/>
<polygon fill="midnightblue" stroke="midnightblue" points="655.147,-420.482 660.909,-411.591 650.86,-414.949 655.147,-420.482"/>
</g>
<!-- Node31 -->
<g id="node31" class="node"><title>Node31</title>
<g id="a_node31"><a xlink:href="http__example_8h.html" target="_top" xlink:title="http_example.h">
<polygon fill="white" stroke="black" points="488.5,-448.5 488.5,-467.5 571.5,-467.5 571.5,-448.5 488.5,-448.5"/>
<text text-anchor="middle" x="530" y="-455.5" font-family="Helvetica,sans-Serif" font-size="10.00">http_example.h</text>
</a>
</g>
</g>
<!-- Node1&#45;&gt;Node31 -->
<g id="edge54" class="edge"><title>Node1&#45;&gt;Node31</title>
<path fill="none" stroke="midnightblue" d="M530,-504.083C530,-497.006 530,-486.861 530,-477.986"/>
<polygon fill="midnightblue" stroke="midnightblue" points="533.5,-477.751 530,-467.751 526.5,-477.751 533.5,-477.751"/>
</g>
<!-- Node3 -->
<g id="node3" class="node"><title>Node3</title>
<polygon fill="white" stroke="#bfbfbf" points="551.5,-0.5 551.5,-19.5 600.5,-19.5 600.5,-0.5 551.5,-0.5"/>
<text text-anchor="middle" x="576" y="-7.5" font-family="Helvetica,sans-Serif" font-size="10.00">string.h</text>
</g>
<!-- Node2&#45;&gt;Node3 -->
<g id="edge2" class="edge"><title>Node2&#45;&gt;Node3</title>
<path fill="none" stroke="midnightblue" d="M363.287,-336.308C342.365,-303.287 273.894,-183.857 328,-112 379.753,-43.2668 486.292,-21.1267 541.355,-14.1345"/>
<polygon fill="midnightblue" stroke="midnightblue" points="541.808,-17.6055 551.332,-12.963 540.992,-10.6533 541.808,-17.6055"/>
</g>
<!-- Node4 -->
<g id="node4" class="node"><title>Node4</title>
<polygon fill="white" stroke="#bfbfbf" points="197,-56.5 197,-75.5 243,-75.5 243,-56.5 197,-56.5"/>
<text text-anchor="middle" x="220" y="-63.5" font-family="Helvetica,sans-Serif" font-size="10.00">stdio.h</text>
</g>
<!-- Node2&#45;&gt;Node4 -->
<g id="edge3" class="edge"><title>Node2&#45;&gt;Node4</title>
<path fill="none" stroke="midnightblue" d="M332.778,-340.927C283.338,-334.656 198.305,-321.104 176,-300 154.137,-279.314 157,-265.098 157,-235 157,-235 157,-235 157,-177 157,-139.475 184.948,-103.139 203.615,-83.0548"/>
<polygon fill="midnightblue" stroke="midnightblue" points="206.272,-85.3414 210.704,-75.7181 201.238,-80.4771 206.272,-85.3414"/>
</g>
<!-- Node5 -->
<g id="node5" class="node"><title>Node5</title>
<polygon fill="white" stroke="#bfbfbf" points="686,-0.5 686,-19.5 734,-19.5 734,-0.5 686,-0.5"/>
<text text-anchor="middle" x="710" y="-7.5" font-family="Helvetica,sans-Serif" font-size="10.00">stdlib.h</text>
</g>
<!-- Node2&#45;&gt;Node5 -->
<g id="edge4" class="edge"><title>Node2&#45;&gt;Node5</title>
<path fill="none" stroke="midnightblue" d="M394.056,-336.446C432.646,-322.263 507.261,-290.732 556,-244 592.509,-208.994 671.79,-76.2991 699.882,-28.3873"/>
<polygon fill="midnightblue" stroke="midnightblue" points="702.905,-30.1515 704.928,-19.7517 696.861,-26.6197 702.905,-30.1515"/>
</g>
<!-- Node6 -->
<g id="node6" class="node"><title>Node6</title>
<g id="a_node6"><a xlink:href="ceptr__error_8h_source.html" target="_top" xlink:title="ceptr_error.h">
<polygon fill="white" stroke="black" points="406.5,-168.5 406.5,-187.5 477.5,-187.5 477.5,-168.5 406.5,-168.5"/>
<text text-anchor="middle" x="442" y="-175.5" font-family="Helvetica,sans-Serif" font-size="10.00">ceptr_error.h</text>
</a>
</g>
</g>
<!-- Node2&#45;&gt;Node6 -->
<g id="edge5" class="edge"><title>Node2&#45;&gt;Node6</title>
<path fill="none" stroke="midnightblue" d="M372.925,-336.075C384.465,-309.832 418.453,-232.545 434.033,-197.117"/>
<polygon fill="midnightblue" stroke="midnightblue" points="437.41,-198.131 438.232,-187.568 431.003,-195.313 437.41,-198.131"/>
</g>
<!-- Node10 -->
<g id="node10" class="node"><title>Node10</title>
<g id="a_node10"><a xlink:href="tree_8h.html" target="_top" xlink:title="semantic trees header file ">
<polygon fill="white" stroke="black" points="658.5,-280.5 658.5,-299.5 699.5,-299.5 699.5,-280.5 658.5,-280.5"/>
<text text-anchor="middle" x="679" y="-287.5" font-family="Helvetica,sans-Serif" font-size="10.00">tree.h</text>
</a>
</g>
</g>
<!-- Node2&#45;&gt;Node10 -->
<g id="edge10" class="edge"><title>Node2&#45;&gt;Node10</title>
<path fill="none" stroke="midnightblue" d="M405.095,-340.749C456.877,-334.314 555.351,-320.826 648.565,-299.817"/>
<polygon fill="midnightblue" stroke="midnightblue" points="649.471,-303.2 658.439,-297.558 647.91,-296.377 649.471,-303.2"/>
</g>
<!-- Node18 -->
<g id="node18" class="node"><title>Node18</title>
<g id="a_node18"><a xlink:href="stream_8h.html" target="_top" xlink:title="streams abstraction header file ">
<polygon fill="white" stroke="black" points="333.5,-224.5 333.5,-243.5 388.5,-243.5 388.5,-224.5 333.5,-224.5"/>
<text text-anchor="middle" x="361" y="-231.5" font-family="Helvetica,sans-Serif" font-size="10.00">stream.h</text>
</a>
</g>
</g>
<!-- Node2&#45;&gt;Node18 -->
<g id="edge35" class="edge"><title>Node2&#45;&gt;Node18</title>
<path fill="none" stroke="midnightblue" d="M368.372,-336.368C367.081,-318.617 364.103,-277.666 362.353,-253.597"/>
<polygon fill="midnightblue" stroke="midnightblue" points="365.841,-253.311 361.625,-243.591 358.859,-253.819 365.841,-253.311"/>
</g>
<!-- Node20 -->
<g id="node20" class="node"><title>Node20</title>
<g id="a_node20"><a xlink:href="mtree_8h.html" target="_top" xlink:title="semantic tree matrix header file `` ">
<polygon fill="white" stroke="black" points="497,-224.5 497,-243.5 547,-243.5 547,-224.5 497,-224.5"/>
<text text-anchor="middle" x="522" y="-231.5" font-family="Helvetica,sans-Serif" font-size="10.00">mtree.h</text>
</a>
</g>
</g>
<!-- Node2&#45;&gt;Node20 -->
<g id="edge29" class="edge"><title>Node2&#45;&gt;Node20</title>
<path fill="none" stroke="midnightblue" d="M382.264,-336.201C395.675,-327.248 416.941,-312.893 435,-300 458.52,-283.207 485.065,-263.221 502.58,-249.886"/>
<polygon fill="midnightblue" stroke="midnightblue" points="505.028,-252.421 510.852,-243.571 500.78,-246.857 505.028,-252.421"/>
</g>
<!-- Node21 -->
<g id="node21" class="node"><title>Node21</title>
<g id="a_node21"><a xlink:href="util_8h.html" target="_top" xlink:title="util.h">
<polygon fill="white" stroke="black" points="91,-112.5 91,-131.5 129,-131.5 129,-112.5 91,-112.5"/>
<text text-anchor="middle" x="110" y="-119.5" font-family="Helvetica,sans-Serif" font-size="10.00">util.h</text>
</a>
</g>
</g>
<!-- Node2&#45;&gt;Node21 -->
<g id="edge36" class="edge"><title>Node2&#45;&gt;Node21</title>
<path fill="none" stroke="midnightblue" d="M332.954,-342.647C276.026,-338.167 169.077,-326.398 143,-300 100.58,-257.058 103.379,-178.191 107.315,-142.028"/>
<polygon fill="midnightblue" stroke="midnightblue" points="110.815,-142.242 108.577,-131.887 103.869,-141.378 110.815,-142.242"/>
</g>
<!-- Node24 -->
<g id="node24" class="node"><title>Node24</title>
<g id="a_node24"><a xlink:href="debug_8h.html" target="_top" xlink:title="debug.h">
<polygon fill="white" stroke="black" points="185.5,-280.5 185.5,-299.5 236.5,-299.5 236.5,-280.5 185.5,-280.5"/>
<text text-anchor="middle" x="211" y="-287.5" font-family="Helvetica,sans-Serif" font-size="10.00">debug.h</text>
</a>
</g>
</g>
<!-- Node2&#45;&gt;Node24 -->
<g id="edge41" class="edge"><title>Node2&#45;&gt;Node24</title>
<path fill="none" stroke="midnightblue" d="M343.964,-336.444C317.384,-327.359 275.191,-312.939 245.477,-302.783"/>
<polygon fill="midnightblue" stroke="midnightblue" points="246.513,-299.439 235.918,-299.516 244.249,-306.062 246.513,-299.439"/>
</g>
<!-- Node6&#45;&gt;Node4 -->
<g id="edge6" class="edge"><title>Node6&#45;&gt;Node4</title>
<path fill="none" stroke="midnightblue" d="M417.028,-168.495C393.582,-160.197 357.76,-146.703 328,-132 296.724,-116.548 262.521,-95.1361 241.165,-81.1781"/>
<polygon fill="midnightblue" stroke="midnightblue" points="242.853,-78.0991 232.579,-75.5147 238.999,-83.9425 242.853,-78.0991"/>
</g>
<!-- Node7 -->
<g id="node7" class="node"><title>Node7</title>
<polygon fill="white" stroke="#bfbfbf" points="337,-112.5 337,-131.5 387,-131.5 387,-112.5 337,-112.5"/>
<text text-anchor="middle" x="362" y="-119.5" font-family="Helvetica,sans-Serif" font-size="10.00">signal.h</text>
</g>
<!-- Node6&#45;&gt;Node7 -->
<g id="edge7" class="edge"><title>Node6&#45;&gt;Node7</title>
<path fill="none" stroke="midnightblue" d="M429.147,-168.324C416.784,-159.979 397.87,-147.212 383.263,-137.352"/>
<polygon fill="midnightblue" stroke="midnightblue" points="385.068,-134.348 374.821,-131.655 381.152,-140.15 385.068,-134.348"/>
</g>
<!-- Node8 -->
<g id="node8" class="node"><title>Node8</title>
<polygon fill="white" stroke="#bfbfbf" points="405,-112.5 405,-131.5 457,-131.5 457,-112.5 405,-112.5"/>
<text text-anchor="middle" x="431" y="-119.5" font-family="Helvetica,sans-Serif" font-size="10.00">assert.h</text>
</g>
<!-- Node6&#45;&gt;Node8 -->
<g id="edge8" class="edge"><title>Node6&#45;&gt;Node8</title>
<path fill="none" stroke="midnightblue" d="M440.184,-168.083C438.726,-160.927 436.629,-150.635 434.807,-141.691"/>
<polygon fill="midnightblue" stroke="midnightblue" points="438.208,-140.851 432.783,-131.751 431.349,-142.248 438.208,-140.851"/>
</g>
<!-- Node9 -->
<g id="node9" class="node"><title>Node9</title>
<polygon fill="white" stroke="#bfbfbf" points="475,-112.5 475,-131.5 529,-131.5 529,-112.5 475,-112.5"/>
<text text-anchor="middle" x="502" y="-119.5" font-family="Helvetica,sans-Serif" font-size="10.00">setjmp.h</text>
</g>
<!-- Node6&#45;&gt;Node9 -->
<g id="edge9" class="edge"><title>Node6&#45;&gt;Node9</title>
<path fill="none" stroke="midnightblue" d="M451.64,-168.324C460.51,-160.341 473.875,-148.313 484.608,-138.653"/>
<polygon fill="midnightblue" stroke="midnightblue" points="487.093,-141.125 492.185,-131.834 482.41,-135.922 487.093,-141.125"/>
</g>
<!-- Node10&#45;&gt;Node3 -->
<g id="edge11" class="edge"><title>Node10&#45;&gt;Node3</title>
<path fill="none" stroke="midnightblue" d="M695.051,-280.44C708.454,-272.564 727.21,-259.735 739,-244 774.227,-196.984 781.077,-159.128 746,-112 711.661,-65.8642 649.462,-36.8583 610.573,-22.3202"/>
<polygon fill="midnightblue" stroke="midnightblue" points="611.337,-18.8746 600.743,-18.7674 608.958,-25.4579 611.337,-18.8746"/>
</g>
<!-- Node10&#45;&gt;Node5 -->
<g id="edge12" class="edge"><title>Node10&#45;&gt;Node5</title>
<path fill="none" stroke="midnightblue" d="M699.624,-286.006C737.568,-280.03 816.035,-265.337 832,-244 888.141,-168.97 775.864,-64.4961 729.119,-26.0062"/>
<polygon fill="midnightblue" stroke="midnightblue" points="731.185,-23.1758 721.208,-19.6092 726.783,-28.6188 731.185,-23.1758"/>
</g>
<!-- Node10&#45;&gt;Node6 -->
<g id="edge13" class="edge"><title>Node10&#45;&gt;Node6</title>
<path fill="none" stroke="midnightblue" d="M658.398,-282.608C655.26,-281.696 652.051,-280.798 649,-280 578.062,-261.454 549.03,-284.639 488,-244 470.61,-232.42 457.721,-211.86 450.079,-196.958"/>
<polygon fill="midnightblue" stroke="midnightblue" points="453.126,-195.219 445.636,-187.725 446.819,-198.254 453.126,-195.219"/>
</g>
<!-- Node11 -->
<g id="node11" class="node"><title>Node11</title>
<g id="a_node11"><a xlink:href="sys__defs_8h.html" target="_top" xlink:title="Defines types and vars for system defined semantics. ">
<polygon fill="white" stroke="black" points="686.5,-168.5 686.5,-187.5 751.5,-187.5 751.5,-168.5 686.5,-168.5"/>
<text text-anchor="middle" x="719" y="-175.5" font-family="Helvetica,sans-Serif" font-size="10.00">sys_defs.h</text>
</a>
</g>
</g>
<!-- Node10&#45;&gt;Node11 -->
<g id="edge14" class="edge"><title>Node10&#45;&gt;Node11</title>
<path fill="none" stroke="midnightblue" d="M691.781,-280.369C702.394,-272.36 716.731,-259.379 723,-244 729.002,-229.277 727.203,-211.116 724.362,-197.736"/>
<polygon fill="midnightblue" stroke="midnightblue" points="727.7,-196.655 721.88,-187.802 720.909,-198.352 727.7,-196.655"/>
</g>
<!-- Node12 -->
<g id="node12" class="node"><title>Node12</title>
<g id="a_node12"><a xlink:href="ceptr__types_8h_source.html" target="_top" xlink:title="ceptr_types.h">
<polygon fill="white" stroke="black" points="661,-112.5 661,-131.5 737,-131.5 737,-112.5 661,-112.5"/>
<text text-anchor="middle" x="699" y="-119.5" font-family="Helvetica,sans-Serif" font-size="10.00">ceptr_types.h</text>
</a>
</g>
</g>
<!-- Node10&#45;&gt;Node12 -->
<g id="edge25" class="edge"><title>Node10&#45;&gt;Node12</title>
<path fill="none" stroke="midnightblue" d="M666.219,-280.369C655.606,-272.36 641.269,-259.379 635,-244 631.645,-235.769 632.523,-232.537 635,-224 644.632,-190.806 668.807,-158.066 684.534,-139.231"/>
<polygon fill="midnightblue" stroke="midnightblue" points="687.224,-141.471 691.082,-131.604 681.913,-136.911 687.224,-141.471"/>
</g>
<!-- Node17 -->
<g id="node17" class="node"><title>Node17</title>
<g id="a_node17"><a xlink:href="base__defs_8h.html" target="_top" xlink:title="auto&#45;generated system definitions ">
<polygon fill="white" stroke="black" points="644,-224.5 644,-243.5 714,-243.5 714,-224.5 644,-224.5"/>
<text text-anchor="middle" x="679" y="-231.5" font-family="Helvetica,sans-Serif" font-size="10.00">base_defs.h</text>
</a>
</g>
</g>
<!-- Node10&#45;&gt;Node17 -->
<g id="edge23" class="edge"><title>Node10&#45;&gt;Node17</title>
<path fill="none" stroke="midnightblue" d="M679,-280.083C679,-273.006 679,-262.861 679,-253.986"/>
<polygon fill="midnightblue" stroke="midnightblue" points="682.5,-253.751 679,-243.751 675.5,-253.751 682.5,-253.751"/>
</g>
<!-- Node10&#45;&gt;Node18 -->
<g id="edge26" class="edge"><title>Node10&#45;&gt;Node18</title>
<path fill="none" stroke="midnightblue" d="M658.441,-282.43C655.297,-281.542 652.076,-280.698 649,-280 560.215,-259.845 453.985,-245.794 398.677,-239.222"/>
<polygon fill="midnightblue" stroke="midnightblue" points="398.976,-235.733 388.636,-238.045 398.161,-242.685 398.976,-235.733"/>
</g>
<!-- Node11&#45;&gt;Node12 -->
<g id="edge15" class="edge"><title>Node11&#45;&gt;Node12</title>
<path fill="none" stroke="midnightblue" d="M715.697,-168.083C713.018,-160.849 709.151,-150.409 705.814,-141.397"/>
<polygon fill="midnightblue" stroke="midnightblue" points="708.996,-139.913 702.241,-131.751 702.432,-142.344 708.996,-139.913"/>
</g>
<!-- Node12&#45;&gt;Node4 -->
<g id="edge17" class="edge"><title>Node12&#45;&gt;Node4</title>
<path fill="none" stroke="midnightblue" d="M660.611,-116.672C569.079,-106.353 339.239,-80.4424 253.201,-70.7429"/>
<polygon fill="midnightblue" stroke="midnightblue" points="253.535,-67.2585 243.206,-69.6161 252.751,-74.2145 253.535,-67.2585"/>
</g>
<!-- Node13 -->
<g id="node13" class="node"><title>Node13</title>
<polygon fill="white" stroke="#bfbfbf" points="129.5,-56.5 129.5,-75.5 178.5,-75.5 178.5,-56.5 129.5,-56.5"/>
<text text-anchor="middle" x="154" y="-63.5" font-family="Helvetica,sans-Serif" font-size="10.00">stdint.h</text>
</g>
<!-- Node12&#45;&gt;Node13 -->
<g id="edge16" class="edge"><title>Node12&#45;&gt;Node13</title>
<path fill="none" stroke="midnightblue" d="M660.727,-118.482C561.41,-111.816 296.291,-93.1497 188.685,-75.7599"/>
<polygon fill="midnightblue" stroke="midnightblue" points="189.218,-72.3004 178.774,-74.0815 188.049,-79.2022 189.218,-72.3004"/>
</g>
<!-- Node14 -->
<g id="node14" class="node"><title>Node14</title>
<g id="a_node14"><a xlink:href="uthash_8h_source.html" target="_top" xlink:title="uthash.h">
<polygon fill="white" stroke="black" points="830,-56.5 830,-75.5 884,-75.5 884,-56.5 830,-56.5"/>
<text text-anchor="middle" x="857" y="-63.5" font-family="Helvetica,sans-Serif" font-size="10.00">uthash.h</text>
</a>
</g>
</g>
<!-- Node12&#45;&gt;Node14 -->
<g id="edge18" class="edge"><title>Node12&#45;&gt;Node14</title>
<path fill="none" stroke="midnightblue" d="M724.036,-112.444C750.616,-103.359 792.809,-88.9388 822.523,-78.7831"/>
<polygon fill="midnightblue" stroke="midnightblue" points="823.751,-82.0625 832.082,-75.5164 821.487,-75.4386 823.751,-82.0625"/>
</g>
<!-- Node14&#45;&gt;Node3 -->
<g id="edge19" class="edge"><title>Node14&#45;&gt;Node3</title>
<path fill="none" stroke="midnightblue" d="M829.801,-59.7732C778.454,-49.9058 667.326,-28.5502 610.694,-17.6673"/>
<polygon fill="midnightblue" stroke="midnightblue" points="611.262,-14.2123 600.781,-15.7622 609.941,-21.0865 611.262,-14.2123"/>
</g>
<!-- Node14&#45;&gt;Node5 -->
<g id="edge21" class="edge"><title>Node14&#45;&gt;Node5</title>
<path fill="none" stroke="midnightblue" d="M833.707,-56.4435C809.193,-47.4381 770.404,-33.1891 742.8,-23.049"/>
<polygon fill="midnightblue" stroke="midnightblue" points="743.777,-19.6793 733.184,-19.5164 741.363,-26.25 743.777,-19.6793"/>
</g>
<!-- Node15 -->
<g id="node15" class="node"><title>Node15</title>
<polygon fill="white" stroke="#bfbfbf" points="794,-0.5 794,-19.5 846,-19.5 846,-0.5 794,-0.5"/>
<text text-anchor="middle" x="820" y="-7.5" font-family="Helvetica,sans-Serif" font-size="10.00">stddef.h</text>
</g>
<!-- Node14&#45;&gt;Node15 -->
<g id="edge20" class="edge"><title>Node14&#45;&gt;Node15</title>
<path fill="none" stroke="midnightblue" d="M850.89,-56.083C845.718,-48.5341 838.154,-37.4948 831.806,-28.2298"/>
<polygon fill="midnightblue" stroke="midnightblue" points="834.536,-26.0221 825.996,-19.7511 828.761,-29.9787 834.536,-26.0221"/>
</g>
<!-- Node16 -->
<g id="node16" class="node"><title>Node16</title>
<polygon fill="white" stroke="#bfbfbf" points="864.5,-0.5 864.5,-19.5 923.5,-19.5 923.5,-0.5 864.5,-0.5"/>
<text text-anchor="middle" x="894" y="-7.5" font-family="Helvetica,sans-Serif" font-size="10.00">inttypes.h</text>
</g>
<!-- Node14&#45;&gt;Node16 -->
<g id="edge22" class="edge"><title>Node14&#45;&gt;Node16</title>
<path fill="none" stroke="midnightblue" d="M863.11,-56.083C868.282,-48.5341 875.846,-37.4948 882.194,-28.2298"/>
<polygon fill="midnightblue" stroke="midnightblue" points="885.239,-29.9787 888.004,-19.7511 879.464,-26.0221 885.239,-29.9787"/>
</g>
<!-- Node17&#45;&gt;Node11 -->
<g id="edge24" class="edge"><title>Node17&#45;&gt;Node11</title>
<path fill="none" stroke="midnightblue" d="M685.605,-224.083C691.255,-216.455 699.545,-205.264 706.451,-195.941"/>
<polygon fill="midnightblue" stroke="midnightblue" points="709.378,-197.87 712.518,-187.751 703.753,-193.703 709.378,-197.87"/>
</g>
<!-- Node18&#45;&gt;Node4 -->
<g id="edge27" class="edge"><title>Node18&#45;&gt;Node4</title>
<path fill="none" stroke="midnightblue" d="M353.488,-224.403C345.609,-215.37 332.882,-200.731 322,-188 290.183,-150.776 253.228,-106.734 233.712,-83.4097"/>
<polygon fill="midnightblue" stroke="midnightblue" points="236.233,-80.9684 227.133,-75.5424 230.863,-85.4589 236.233,-80.9684"/>
</g>
<!-- Node19 -->
<g id="node19" class="node"><title>Node19</title>
<polygon fill="white" stroke="#bfbfbf" points="331.5,-168.5 331.5,-187.5 388.5,-187.5 388.5,-168.5 331.5,-168.5"/>
<text text-anchor="middle" x="360" y="-175.5" font-family="Helvetica,sans-Serif" font-size="10.00">pthread.h</text>
</g>
<!-- Node18&#45;&gt;Node19 -->
<g id="edge28" class="edge"><title>Node18&#45;&gt;Node19</title>
<path fill="none" stroke="midnightblue" d="M360.835,-224.083C360.704,-217.006 360.516,-206.861 360.352,-197.986"/>
<polygon fill="midnightblue" stroke="midnightblue" points="363.847,-197.685 360.162,-187.751 356.848,-197.814 363.847,-197.685"/>
</g>
<!-- Node20&#45;&gt;Node3 -->
<g id="edge30" class="edge"><title>Node20&#45;&gt;Node3</title>
<path fill="none" stroke="midnightblue" d="M522.635,-224.094C523.637,-211.503 525.905,-187.82 530,-168 540.548,-116.945 559.618,-58.3913 569.567,-29.3386"/>
<polygon fill="midnightblue" stroke="midnightblue" points="572.931,-30.3203 572.897,-19.7255 566.317,-28.0292 572.931,-30.3203"/>
</g>
<!-- Node20&#45;&gt;Node5 -->
<g id="edge31" class="edge"><title>Node20&#45;&gt;Node5</title>
<path fill="none" stroke="midnightblue" d="M527.543,-224.328C544.829,-197.621 600.014,-114.868 657,-56 667.363,-45.2946 680.055,-34.4507 690.42,-26.0909"/>
<polygon fill="midnightblue" stroke="midnightblue" points="692.811,-28.6623 698.478,-19.7104 688.465,-23.1746 692.811,-28.6623"/>
</g>
<!-- Node20&#45;&gt;Node6 -->
<g id="edge32" class="edge"><title>Node20&#45;&gt;Node6</title>
<path fill="none" stroke="midnightblue" d="M509.147,-224.324C496.784,-215.979 477.87,-203.212 463.263,-193.352"/>
<polygon fill="midnightblue" stroke="midnightblue" points="465.068,-190.348 454.821,-187.655 461.152,-196.15 465.068,-190.348"/>
</g>
<!-- Node20&#45;&gt;Node11 -->
<g id="edge33" class="edge"><title>Node20&#45;&gt;Node11</title>
<path fill="none" stroke="midnightblue" d="M547.351,-226.051C580.428,-216.984 638.716,-201.007 678.086,-190.215"/>
<polygon fill="midnightblue" stroke="midnightblue" points="679.19,-193.542 687.909,-187.522 677.339,-186.791 679.19,-193.542"/>
</g>
<!-- Node20&#45;&gt;Node12 -->
<g id="edge34" class="edge"><title>Node20&#45;&gt;Node12</title>
<path fill="none" stroke="midnightblue" d="M535.889,-224.368C566.391,-205.412 639.463,-160.001 676.565,-136.942"/>
<polygon fill="midnightblue" stroke="midnightblue" points="678.53,-139.843 685.176,-131.591 674.835,-133.897 678.53,-139.843"/>
</g>
<!-- Node21&#45;&gt;Node4 -->
<g id="edge38" class="edge"><title>Node21&#45;&gt;Node4</title>
<path fill="none" stroke="midnightblue" d="M127.673,-112.324C145.394,-103.625 172.903,-90.1202 193.288,-80.113"/>
<polygon fill="midnightblue" stroke="midnightblue" points="194.936,-83.2031 202.37,-75.6545 191.851,-76.9195 194.936,-83.2031"/>
</g>
<!-- Node21&#45;&gt;Node13 -->
<g id="edge40" class="edge"><title>Node21&#45;&gt;Node13</title>
<path fill="none" stroke="midnightblue" d="M117.266,-112.083C123.545,-104.377 132.788,-93.0333 140.431,-83.6531"/>
<polygon fill="midnightblue" stroke="midnightblue" points="143.266,-85.7143 146.869,-75.7511 137.839,-81.2926 143.266,-85.7143"/>
</g>
<!-- Node22 -->
<g id="node22" class="node"><title>Node22</title>
<polygon fill="white" stroke="#bfbfbf" points="62.5,-56.5 62.5,-75.5 111.5,-75.5 111.5,-56.5 62.5,-56.5"/>
<text text-anchor="middle" x="87" y="-63.5" font-family="Helvetica,sans-Serif" font-size="10.00">ctype.h</text>
</g>
<!-- Node21&#45;&gt;Node22 -->
<g id="edge37" class="edge"><title>Node21&#45;&gt;Node22</title>
<path fill="none" stroke="midnightblue" d="M106.202,-112.083C103.087,-104.77 98.5772,-94.1814 94.7107,-85.1034"/>
<polygon fill="midnightblue" stroke="midnightblue" points="97.8661,-83.5798 90.7273,-75.7511 91.4259,-86.3229 97.8661,-83.5798"/>
</g>
<!-- Node23 -->
<g id="node23" class="node"><title>Node23</title>
<polygon fill="white" stroke="#bfbfbf" points="0,-56.5 0,-75.5 44,-75.5 44,-56.5 0,-56.5"/>
<text text-anchor="middle" x="22" y="-63.5" font-family="Helvetica,sans-Serif" font-size="10.00">time.h</text>
</g>
<!-- Node21&#45;&gt;Node23 -->
<g id="edge39" class="edge"><title>Node21&#45;&gt;Node23</title>
<path fill="none" stroke="midnightblue" d="M95.8613,-112.324C82.1337,-103.9 61.0637,-90.9709 44.9357,-81.0741"/>
<polygon fill="midnightblue" stroke="midnightblue" points="46.4574,-77.9016 36.1036,-75.6545 42.7963,-83.8678 46.4574,-77.9016"/>
</g>
<!-- Node24&#45;&gt;Node4 -->
<g id="edge42" class="edge"><title>Node24&#45;&gt;Node4</title>
<path fill="none" stroke="midnightblue" d="M211.353,-280.297C212.677,-247.633 217.37,-131.866 219.231,-85.9573"/>
<polygon fill="midnightblue" stroke="midnightblue" points="222.732,-86.0173 219.64,-75.8837 215.738,-85.7337 222.732,-86.0173"/>
</g>
<!-- Node25&#45;&gt;Node10 -->
<g id="edge44" class="edge"><title>Node25&#45;&gt;Node10</title>
<path fill="none" stroke="midnightblue" d="M667.377,-392.168C661.42,-379.664 652.353,-356.084 657,-336 659.23,-326.363 663.821,-316.405 668.236,-308.315"/>
<polygon fill="midnightblue" stroke="midnightblue" points="671.351,-309.922 673.362,-299.519 665.303,-306.397 671.351,-309.922"/>
</g>
<!-- Node26 -->
<g id="node26" class="node"><title>Node26</title>
<g id="a_node26"><a xlink:href="def_8h.html" target="_top" xlink:title="header file for symbol and structure definition functions ">
<polygon fill="white" stroke="black" points="572,-336.5 572,-355.5 610,-355.5 610,-336.5 572,-336.5"/>
<text text-anchor="middle" x="591" y="-343.5" font-family="Helvetica,sans-Serif" font-size="10.00">def.h</text>
</a>
</g>
</g>
<!-- Node25&#45;&gt;Node26 -->
<g id="edge45" class="edge"><title>Node25&#45;&gt;Node26</title>
<path fill="none" stroke="midnightblue" d="M658.986,-392.324C646.468,-383.979 627.318,-371.212 612.529,-361.352"/>
<polygon fill="midnightblue" stroke="midnightblue" points="614.244,-358.289 603.982,-355.655 610.361,-364.114 614.244,-358.289"/>
</g>
<!-- Node28 -->
<g id="node28" class="node"><title>Node28</title>
<g id="a_node28"><a xlink:href="label_8h.html" target="_top" xlink:title="Label tables map human readable text strings to parts of semantic trees. ">
<polygon fill="white" stroke="black" points="778.5,-280.5 778.5,-299.5 823.5,-299.5 823.5,-280.5 778.5,-280.5"/>
<text text-anchor="middle" x="801" y="-287.5" font-family="Helvetica,sans-Serif" font-size="10.00">label.h</text>
</a>
</g>
</g>
<!-- Node25&#45;&gt;Node28 -->
<g id="edge48" class="edge"><title>Node25&#45;&gt;Node28</title>
<path fill="none" stroke="midnightblue" d="M715.311,-398.667C745.293,-394.522 783.23,-383.695 803,-356 812.524,-342.659 810.602,-323.543 807.153,-309.494"/>
<polygon fill="midnightblue" stroke="midnightblue" points="810.405,-308.144 804.25,-299.52 803.684,-310.1 810.405,-308.144"/>
</g>
<!-- Node29 -->
<g id="node29" class="node"><title>Node29</title>
<g id="a_node29"><a xlink:href="process_8h.html" target="_top" xlink:title="processing header files ">
<polygon fill="white" stroke="black" points="666.5,-336.5 666.5,-355.5 725.5,-355.5 725.5,-336.5 666.5,-336.5"/>
<text text-anchor="middle" x="696" y="-343.5" font-family="Helvetica,sans-Serif" font-size="10.00">process.h</text>
</a>
</g>
</g>
<!-- Node25&#45;&gt;Node29 -->
<g id="edge50" class="edge"><title>Node25&#45;&gt;Node29</title>
<path fill="none" stroke="midnightblue" d="M675.963,-392.083C679.213,-384.77 683.919,-374.181 687.954,-365.103"/>
<polygon fill="midnightblue" stroke="midnightblue" points="691.248,-366.311 692.111,-355.751 684.851,-363.468 691.248,-366.311"/>
</g>
<!-- Node30 -->
<g id="node30" class="node"><title>Node30</title>
<g id="a_node30"><a xlink:href="scape_8h.html" target="_top" xlink:title="scape header files ">
<polygon fill="white" stroke="black" points="743.5,-336.5 743.5,-355.5 794.5,-355.5 794.5,-336.5 743.5,-336.5"/>
<text text-anchor="middle" x="769" y="-343.5" font-family="Helvetica,sans-Serif" font-size="10.00">scape.h</text>
</a>
</g>
</g>
<!-- Node25&#45;&gt;Node30 -->
<g id="edge52" class="edge"><title>Node25&#45;&gt;Node30</title>
<path fill="none" stroke="midnightblue" d="M687.585,-392.324C702.999,-383.743 726.812,-370.486 744.71,-360.522"/>
<polygon fill="midnightblue" stroke="midnightblue" points="746.419,-363.577 753.454,-355.655 743.014,-357.461 746.419,-363.577"/>
</g>
<!-- Node26&#45;&gt;Node10 -->
<g id="edge46" class="edge"><title>Node26&#45;&gt;Node10</title>
<path fill="none" stroke="midnightblue" d="M605.139,-336.324C618.866,-327.9 639.936,-314.971 656.064,-305.074"/>
<polygon fill="midnightblue" stroke="midnightblue" points="658.204,-307.868 664.896,-299.655 654.543,-301.902 658.204,-307.868"/>
</g>
<!-- Node27 -->
<g id="node27" class="node"><title>Node27</title>
<polygon fill="white" stroke="#bfbfbf" points="588,-280.5 588,-299.5 640,-299.5 640,-280.5 588,-280.5"/>
<text text-anchor="middle" x="614" y="-287.5" font-family="Helvetica,sans-Serif" font-size="10.00">stdarg.h</text>
</g>
<!-- Node26&#45;&gt;Node27 -->
<g id="edge47" class="edge"><title>Node26&#45;&gt;Node27</title>
<path fill="none" stroke="midnightblue" d="M594.798,-336.083C597.913,-328.77 602.423,-318.181 606.289,-309.103"/>
<polygon fill="midnightblue" stroke="midnightblue" points="609.574,-310.323 610.273,-299.751 603.134,-307.58 609.574,-310.323"/>
</g>
<!-- Node28&#45;&gt;Node12 -->
<g id="edge49" class="edge"><title>Node28&#45;&gt;Node12</title>
<path fill="none" stroke="midnightblue" d="M799.871,-280.264C796.779,-259.139 786.561,-204.357 760,-168 750.72,-155.298 736.808,-144.647 724.611,-136.901"/>
<polygon fill="midnightblue" stroke="midnightblue" points="726.098,-133.711 715.725,-131.558 722.491,-139.71 726.098,-133.711"/>
</g>
<!-- Node29&#45;&gt;Node10 -->
<g id="edge51" class="edge"><title>Node29&#45;&gt;Node10</title>
<path fill="none" stroke="midnightblue" d="M693.193,-336.083C690.915,-328.849 687.629,-318.409 684.792,-309.397"/>
<polygon fill="midnightblue" stroke="midnightblue" points="688.096,-308.239 681.755,-299.751 681.419,-310.341 688.096,-308.239"/>
</g>
<!-- Node30&#45;&gt;Node10 -->
<g id="edge53" class="edge"><title>Node30&#45;&gt;Node10</title>
<path fill="none" stroke="midnightblue" d="M754.54,-336.324C740.5,-327.9 718.952,-314.971 702.457,-305.074"/>
<polygon fill="midnightblue" stroke="midnightblue" points="703.8,-301.798 693.424,-299.655 700.198,-307.801 703.8,-301.798"/>
</g>
<!-- Node31&#45;&gt;Node2 -->
<g id="edge55" class="edge"><title>Node31&#45;&gt;Node2</title>
<path fill="none" stroke="midnightblue" d="M488.317,-453.661C457.345,-449.044 416.106,-438.067 390,-412 377.816,-399.834 372.698,-380.561 370.549,-366.155"/>
<polygon fill="midnightblue" stroke="midnightblue" points="373.988,-365.416 369.385,-355.874 367.032,-366.204 373.988,-365.416"/>
</g>
<!-- Node31&#45;&gt;Node25 -->
<g id="edge56" class="edge"><title>Node31&#45;&gt;Node25</title>
<path fill="none" stroke="midnightblue" d="M552.5,-448.444C576.077,-439.478 613.322,-425.314 639.964,-415.183"/>
<polygon fill="midnightblue" stroke="midnightblue" points="641.502,-418.342 649.605,-411.516 639.014,-411.8 641.502,-418.342"/>
</g>
<!-- Node31&#45;&gt;Node26 -->
<g id="edge57" class="edge"><title>Node31&#45;&gt;Node26</title>
<path fill="none" stroke="midnightblue" d="M544.967,-448.338C557.07,-440.482 573.453,-427.737 582,-412 589.731,-397.765 591.65,-379.291 591.829,-365.678"/>
<polygon fill="midnightblue" stroke="midnightblue" points="595.327,-365.526 591.659,-355.586 588.328,-365.644 595.327,-365.526"/>
</g>
<!-- Node32 -->
<g id="node32" class="node"><title>Node32</title>
<g id="a_node32"><a xlink:href="semtrex_8h.html" target="_top" xlink:title="Semantic tree regular expression header file. ">
<polygon fill="white" stroke="black" points="487,-392.5 487,-411.5 573,-411.5 573,-392.5 487,-392.5"/>
<text text-anchor="middle" x="530" y="-399.5" font-family="Helvetica,sans-Serif" font-size="10.00">../src/semtrex.h</text>
</a>
</g>
</g>
<!-- Node31&#45;&gt;Node32 -->
<g id="edge58" class="edge"><title>Node31&#45;&gt;Node32</title>
<path fill="none" stroke="midnightblue" d="M530,-448.083C530,-441.006 530,-430.861 530,-421.986"/>
<polygon fill="midnightblue" stroke="midnightblue" points="533.5,-421.751 530,-411.751 526.5,-421.751 533.5,-421.751"/>
</g>
<!-- Node33 -->
<g id="node33" class="node"><title>Node33</title>
<g id="a_node33"><a xlink:href="spec__utils_8h.html" target="_top" xlink:title="spec_utils.h">
<polygon fill="white" stroke="black" points="399.5,-392.5 399.5,-411.5 468.5,-411.5 468.5,-392.5 399.5,-392.5"/>
<text text-anchor="middle" x="434" y="-399.5" font-family="Helvetica,sans-Serif" font-size="10.00">spec_utils.h</text>
</a>
</g>
</g>
<!-- Node31&#45;&gt;Node33 -->
<g id="edge60" class="edge"><title>Node31&#45;&gt;Node33</title>
<path fill="none" stroke="midnightblue" d="M514.576,-448.324C499.46,-439.822 476.185,-426.729 458.529,-416.797"/>
<polygon fill="midnightblue" stroke="midnightblue" points="459.817,-413.507 449.386,-411.655 456.386,-419.608 459.817,-413.507"/>
</g>
<!-- Node32&#45;&gt;Node10 -->
<g id="edge59" class="edge"><title>Node32&#45;&gt;Node10</title>
<path fill="none" stroke="midnightblue" d="M532.265,-392.175C536.24,-378.368 545.734,-351.625 563,-336 569.648,-329.984 616.466,-312.843 648.552,-301.538"/>
<polygon fill="midnightblue" stroke="midnightblue" points="650.102,-304.704 658.382,-298.094 647.788,-298.097 650.102,-304.704"/>
</g>
<!-- Node33&#45;&gt;Node2 -->
<g id="edge61" class="edge"><title>Node33&#45;&gt;Node2</title>
<path fill="none" stroke="midnightblue" d="M423.557,-392.324C413.854,-384.263 399.185,-372.077 387.5,-362.369"/>
<polygon fill="midnightblue" stroke="midnightblue" points="389.562,-359.532 379.633,-355.834 385.089,-364.916 389.562,-359.532"/>
</g>
</g>
</svg>
        <g id="navigator" transform="translate(0 0)" fill="#404254">
                <rect fill="#f2f5e9" fill-opacity="0.5" stroke="#606060" stroke-width=".5" x="0" y="0" width="60" height="60"/>
                <use id="zoomplus" xlink:href="#zoomPlus" x="17" y="9" onmousedown="handleZoom(evt,'in')"/>
                <use id="zoomminus" xlink:href="#zoomMin" x="42" y="9" onmousedown="handleZoom(evt,'out')"/>
                <use id="reset" xlink:href="#resetDef" x="30" y="36" onmousedown="handleReset()"/>
                <g id="arrowUp" xlink:href="#dirArrow" transform="translate(30 24)" onmousedown="handlePan(0,-1)">
                  <use xlink:href="#rim" fill="#404040">
                        <set attributeName="fill" to="#808080" begin="arrowUp.mouseover" end="arrowUp.mouseout"/>
                  </use>
                  <path fill="none" stroke="white" stroke-width="1.5" d="M0,-3.0v7 M-2.5,-0.5L0,-3.0L2.5,-0.5"/>
                </g>
                <g id="arrowRight" xlink:href="#dirArrow" transform="rotate(90) translate(36 -43)" onmousedown="handlePan(1,0)">
                  <use xlink:href="#rim" fill="#404040">
                        <set attributeName="fill" to="#808080" begin="arrowRight.mouseover" end="arrowRight.mouseout"/>
                  </use>
                  <path fill="none" stroke="white" stroke-width="1.5" d="M0,-3.0v7 M-2.5,-0.5L0,-3.0L2.5,-0.5"/>
                </g>
                <g id="arrowDown" xlink:href="#dirArrow" transform="rotate(180) translate(-30 -48)" onmousedown="handlePan(0,1)">
                  <use xlink:href="#rim" fill="#404040">
                        <set attributeName="fill" to="#808080" begin="arrowDown.mouseover" end="arrowDown.mouseout"/>
                  </use>
                  <path fill="none" stroke="white" stroke-width="1.5" d="M0,-3.0v7 M-2.5,-0.5L0,-3.0L2.5,-0.5"/>
                </g>
                <g id="arrowLeft" xlink:href="#dirArrow" transform="rotate(270) translate(-36 17)" onmousedown="handlePan(-1,0)">
                  <use xlink:href="#rim" fill="#404040">
                        <set attributeName="fill" to="#808080" begin="arrowLeft.mouseover" end="arrowLeft.mouseout"/>
                  </use>
                  <path fill="none" stroke="white" stroke-width="1.5" d="M0,-3.0v7 M-2.5,-0.5L0,-3.0L2.5,-0.5"/>
                </g>
        </g>
        <svg viewBox="0 0 15 15" width="100%" height="30px" preserveAspectRatio="xMaxYMin meet">
         <g id="arrow_out" transform="scale(0.3 0.3)">
          <a xlink:href="mtree__spec_8h__incl_org.svg" target="_base">
           <rect id="button" ry="5" rx="5" y="6" x="6" height="38" width="38"
                fill="#f2f5e9" fill-opacity="0.5" stroke="#606060" stroke-width="1.0"/>
           <path id="arrow"
             d="M 11.500037,31.436501 C 11.940474,20.09759 22.043105,11.32322 32.158766,21.979434 L 37.068811,17.246167 C 37.068811,17.246167 37.088388,32 37.088388,32 L 22.160133,31.978069 C 22.160133,31.978069 26.997745,27.140456 26.997745,27.140456 C 18.528582,18.264221 13.291696,25.230495 11.500037,31.436501 z"
             style="fill:#404040;"/>
          </a>
         </g>
        </svg>
</svg>
