<?xml version="1.0" encoding="UTF-8" standalone="no"?>
<!DOCTYPE svg PUBLIC "-//W3C//DTD SVG 1.1//EN"
 "http://www.w3.org/Graphics/SVG/1.1/DTD/svg11.dtd">
<!-- Generated by graphviz version 2.38.0 (20140413.2041)
 -->
<!-- Title: src/mtree.h Pages: 1 -->
<svg width="1887pt" height="308pt"
 viewBox="0.00 0.00 1887.00 308.00" xmlns="http://www.w3.org/2000/svg" xmlns:xlink="http://www.w3.org/1999/xlink">
<g id="graph0" class="graph" transform="scale(1 1) rotate(0) translate(4 304)">
<title>src/mtree.h</title>
<polygon fill="white" stroke="none" points="-4,4 -4,-304 1883,-304 1883,4 -4,4"/>
<!-- Node1 -->
<g id="node1" class="node"><title>Node1</title>
<polygon fill="#bfbfbf" stroke="black" points="327.5,-280.5 327.5,-299.5 393.5,-299.5 393.5,-280.5 327.5,-280.5"/>
<text text-anchor="middle" x="360.5" y="-287.5" font-family="Helvetica,sans-Serif" font-size="10.00">src/mtree.h</text>
</g>
<!-- Node2 -->
<g id="node2" class="node"><title>Node2</title>
<g id="a_node2"><a xlink:href="accumulator_8h.html" target="_top" xlink:title="header file for the accumulator ">
<polygon fill="white" stroke="black" points="313,-224.5 313,-243.5 408,-243.5 408,-224.5 313,-224.5"/>
<text text-anchor="middle" x="360.5" y="-231.5" font-family="Helvetica,sans-Serif" font-size="10.00">src/accumulator.h</text>
</a>
</g>
</g>
<!-- Node1&#45;&gt;Node2 -->
<g id="edge1" class="edge"><title>Node1&#45;&gt;Node2</title>
<path fill="none" stroke="midnightblue" d="M360.5,-269.805C360.5,-260.91 360.5,-250.78 360.5,-243.751"/>
<polygon fill="midnightblue" stroke="midnightblue" points="357,-270.083 360.5,-280.083 364,-270.083 357,-270.083"/>
</g>
<!-- Node3 -->
<g id="node3" class="node"><title>Node3</title>
<g id="a_node3"><a xlink:href="accumulator_8c.html" target="_top" xlink:title="implementation file for accumulator ">
<polygon fill="white" stroke="black" points="0,-168.5 0,-187.5 95,-187.5 95,-168.5 0,-168.5"/>
<text text-anchor="middle" x="47.5" y="-175.5" font-family="Helvetica,sans-Serif" font-size="10.00">src/accumulator.c</text>
</a>
</g>
</g>
<!-- Node1&#45;&gt;Node3 -->
<g id="edge19" class="edge"><title>Node1&#45;&gt;Node3</title>
<path fill="none" stroke="midnightblue" d="M326.65,-277.104C263.147,-254.786 127.548,-207.132 72.0005,-187.61"/>
<polygon fill="midnightblue" stroke="midnightblue" points="325.605,-280.446 336.2,-280.46 327.926,-273.842 325.605,-280.446"/>
</g>
<!-- Node10 -->
<g id="node10" class="node"><title>Node10</title>
<g id="a_node10"><a xlink:href="receptor_8c.html" target="_top" xlink:title="receptor implementation ">
<polygon fill="white" stroke="black" points="113,-168.5 113,-187.5 190,-187.5 190,-168.5 113,-168.5"/>
<text text-anchor="middle" x="151.5" y="-175.5" font-family="Helvetica,sans-Serif" font-size="10.00">src/receptor.c</text>
</a>
</g>
</g>
<!-- Node1&#45;&gt;Node10 -->
<g id="edge58" class="edge"><title>Node1&#45;&gt;Node10</title>
<path fill="none" stroke="midnightblue" d="M335.023,-275.591C291.512,-252.691 204.074,-206.671 167.824,-187.591"/>
<polygon fill="midnightblue" stroke="midnightblue" points="333.621,-278.808 344.1,-280.368 336.881,-272.614 333.621,-278.808"/>
</g>
<!-- Node17 -->
<g id="node17" class="node"><title>Node17</title>
<g id="a_node17"><a xlink:href="ceptr_8h_source.html" target="_top" xlink:title="src/ceptr.h">
<polygon fill="white" stroke="black" points="1114,-224.5 1114,-243.5 1177,-243.5 1177,-224.5 1114,-224.5"/>
<text text-anchor="middle" x="1145.5" y="-231.5" font-family="Helvetica,sans-Serif" font-size="10.00">src/ceptr.h</text>
</a>
</g>
</g>
<!-- Node1&#45;&gt;Node17 -->
<g id="edge20" class="edge"><title>Node1&#45;&gt;Node17</title>
<path fill="none" stroke="midnightblue" d="M403.758,-286.024C545.102,-276.301 991.275,-245.609 1113.99,-237.167"/>
<polygon fill="midnightblue" stroke="midnightblue" points="403.465,-282.536 393.729,-286.714 403.946,-289.52 403.465,-282.536"/>
</g>
<!-- Node31 -->
<g id="node31" class="node"><title>Node31</title>
<g id="a_node31"><a xlink:href="mtree_8c.html" target="_top" xlink:title="semantic tree matrix implementation ">
<polygon fill="white" stroke="black" points="1195.5,-224.5 1195.5,-243.5 1261.5,-243.5 1261.5,-224.5 1195.5,-224.5"/>
<text text-anchor="middle" x="1228.5" y="-231.5" font-family="Helvetica,sans-Serif" font-size="10.00">src/mtree.c</text>
</a>
</g>
</g>
<!-- Node1&#45;&gt;Node31 -->
<g id="edge57" class="edge"><title>Node1&#45;&gt;Node31</title>
<path fill="none" stroke="midnightblue" d="M403.874,-289.024C527.019,-288.578 889.112,-283.715 1186.5,-244 1189.31,-243.625 1192.21,-243.163 1195.11,-242.648"/>
<polygon fill="midnightblue" stroke="midnightblue" points="403.713,-285.524 393.723,-289.052 403.733,-292.524 403.713,-285.524"/>
</g>
<!-- Node2&#45;&gt;Node3 -->
<g id="edge2" class="edge"><title>Node2&#45;&gt;Node3</title>
<path fill="none" stroke="midnightblue" d="M302.943,-223.07C243.251,-212.772 151.005,-196.857 95.2282,-187.234"/>
<polygon fill="midnightblue" stroke="midnightblue" points="302.513,-226.547 312.962,-224.799 303.703,-219.649 302.513,-226.547"/>
</g>
<!-- Node4 -->
<g id="node4" class="node"><title>Node4</title>
<g id="a_node4"><a xlink:href="ceptr_8c.html" target="_top" xlink:title="implements main() entry point for the ceptr node ">
<polygon fill="white" stroke="black" points="502,-168.5 502,-187.5 565,-187.5 565,-168.5 502,-168.5"/>
<text text-anchor="middle" x="533.5" y="-175.5" font-family="Helvetica,sans-Serif" font-size="10.00">src/ceptr.c</text>
</a>
</g>
</g>
<!-- Node2&#45;&gt;Node4 -->
<g id="edge3" class="edge"><title>Node2&#45;&gt;Node4</title>
<path fill="none" stroke="midnightblue" d="M397.547,-221.436C430.164,-211.255 476.91,-196.664 506.216,-187.516"/>
<polygon fill="midnightblue" stroke="midnightblue" points="396.415,-218.123 387.912,-224.444 398.501,-224.805 396.415,-218.123"/>
</g>
<!-- Node5 -->
<g id="node5" class="node"><title>Node5</title>
<g id="a_node5"><a xlink:href="group_8h.html" target="_top" xlink:title="group communication receptors header file ">
<polygon fill="white" stroke="black" points="208,-168.5 208,-187.5 273,-187.5 273,-168.5 208,-168.5"/>
<text text-anchor="middle" x="240.5" y="-175.5" font-family="Helvetica,sans-Serif" font-size="10.00">src/group.h</text>
</a>
</g>
</g>
<!-- Node2&#45;&gt;Node5 -->
<g id="edge4" class="edge"><title>Node2&#45;&gt;Node5</title>
<path fill="none" stroke="midnightblue" d="M332.127,-220.232C309.68,-210.131 278.965,-196.309 259.425,-187.516"/>
<polygon fill="midnightblue" stroke="midnightblue" points="330.93,-223.532 341.486,-224.444 333.803,-217.148 330.93,-223.532"/>
</g>
<!-- Node9 -->
<g id="node9" class="node"><title>Node9</title>
<g id="a_node9"><a xlink:href="process_8c.html" target="_top" xlink:title="implementation of ceptr processing: instructions and run tree reduction ">
<polygon fill="white" stroke="black" points="298.5,-112.5 298.5,-131.5 374.5,-131.5 374.5,-112.5 298.5,-112.5"/>
<text text-anchor="middle" x="336.5" y="-119.5" font-family="Helvetica,sans-Serif" font-size="10.00">src/process.c</text>
</a>
</g>
</g>
<!-- Node2&#45;&gt;Node9 -->
<g id="edge8" class="edge"><title>Node2&#45;&gt;Node9</title>
<path fill="none" stroke="midnightblue" d="M341.71,-217.657C333.531,-209.761 324.835,-199.402 320.5,-188 313.066,-168.447 323.996,-144.255 331.141,-131.615"/>
<polygon fill="midnightblue" stroke="midnightblue" points="339.459,-220.34 349.234,-224.427 344.142,-215.137 339.459,-220.34"/>
</g>
<!-- Node2&#45;&gt;Node10 -->
<g id="edge9" class="edge"><title>Node2&#45;&gt;Node10</title>
<path fill="none" stroke="midnightblue" d="M317.516,-221.894C278.048,-211.697 220.4,-196.802 184.462,-187.516"/>
<polygon fill="midnightblue" stroke="midnightblue" points="316.826,-225.331 327.383,-224.444 318.577,-218.553 316.826,-225.331"/>
</g>
<!-- Node11 -->
<g id="node11" class="node"><title>Node11</title>
<g id="a_node11"><a xlink:href="shell_8h.html" target="_top" xlink:title="command line shell receptor header files ">
<polygon fill="white" stroke="black" points="329.5,-168.5 329.5,-187.5 391.5,-187.5 391.5,-168.5 329.5,-168.5"/>
<text text-anchor="middle" x="360.5" y="-175.5" font-family="Helvetica,sans-Serif" font-size="10.00">src/shell.h</text>
</a>
</g>
</g>
<!-- Node2&#45;&gt;Node11 -->
<g id="edge10" class="edge"><title>Node2&#45;&gt;Node11</title>
<path fill="none" stroke="midnightblue" d="M360.5,-213.805C360.5,-204.91 360.5,-194.78 360.5,-187.751"/>
<polygon fill="midnightblue" stroke="midnightblue" points="357,-214.083 360.5,-224.083 364,-214.083 357,-214.083"/>
</g>
<!-- Node14 -->
<g id="node14" class="node"><title>Node14</title>
<g id="a_node14"><a xlink:href="vmhost_8c.html" target="_top" xlink:title="virtual machine host receptor implementation ">
<polygon fill="white" stroke="black" points="409.5,-168.5 409.5,-187.5 483.5,-187.5 483.5,-168.5 409.5,-168.5"/>
<text text-anchor="middle" x="446.5" y="-175.5" font-family="Helvetica,sans-Serif" font-size="10.00">src/vmhost.c</text>
</a>
</g>
</g>
<!-- Node2&#45;&gt;Node14 -->
<g id="edge14" class="edge"><title>Node2&#45;&gt;Node14</title>
<path fill="none" stroke="midnightblue" d="M382.955,-218.901C398.724,-208.999 419.314,-196.071 432.717,-187.655"/>
<polygon fill="midnightblue" stroke="midnightblue" points="380.925,-216.042 374.317,-224.324 384.648,-221.97 380.925,-216.042"/>
</g>
<!-- Node15 -->
<g id="node15" class="node"><title>Node15</title>
<g id="a_node15"><a xlink:href="accumulator__spec_8h_source.html" target="_top" xlink:title="spec/accumulator_spec.h">
<polygon fill="white" stroke="black" points="583.5,-168.5 583.5,-187.5 711.5,-187.5 711.5,-168.5 583.5,-168.5"/>
<text text-anchor="middle" x="647.5" y="-175.5" font-family="Helvetica,sans-Serif" font-size="10.00">spec/accumulator_spec.h</text>
</a>
</g>
</g>
<!-- Node2&#45;&gt;Node15 -->
<g id="edge15" class="edge"><title>Node2&#45;&gt;Node15</title>
<path fill="none" stroke="midnightblue" d="M416.108,-222.537C470.349,-212.332 551.838,-196.999 602.237,-187.516"/>
<polygon fill="midnightblue" stroke="midnightblue" points="415.156,-219.155 405.976,-224.444 416.451,-226.034 415.156,-219.155"/>
</g>
<!-- Node16 -->
<g id="node16" class="node"><title>Node16</title>
<g id="a_node16"><a xlink:href="receptor__spec_8h.html" target="_top" xlink:title="spec/receptor_spec.h">
<polygon fill="white" stroke="black" points="869.5,-56.5 869.5,-75.5 979.5,-75.5 979.5,-56.5 869.5,-56.5"/>
<text text-anchor="middle" x="924.5" y="-63.5" font-family="Helvetica,sans-Serif" font-size="10.00">spec/receptor_spec.h</text>
</a>
</g>
</g>
<!-- Node2&#45;&gt;Node16 -->
<g id="edge17" class="edge"><title>Node2&#45;&gt;Node16</title>
<path fill="none" stroke="midnightblue" d="M418.489,-232.973C491.022,-231.323 618.123,-223.05 720.5,-188 801.143,-160.391 884.751,-98.3181 913.803,-75.5675"/>
<polygon fill="midnightblue" stroke="midnightblue" points="418.124,-229.479 408.193,-233.171 418.259,-236.478 418.124,-229.479"/>
</g>
<!-- Node6 -->
<g id="node6" class="node"><title>Node6</title>
<g id="a_node6"><a xlink:href="group_8c.html" target="_top" xlink:title="implementation of some group communication receptors ">
<polygon fill="white" stroke="black" points="177,-112.5 177,-131.5 242,-131.5 242,-112.5 177,-112.5"/>
<text text-anchor="middle" x="209.5" y="-119.5" font-family="Helvetica,sans-Serif" font-size="10.00">src/group.c</text>
</a>
</g>
</g>
<!-- Node5&#45;&gt;Node6 -->
<g id="edge5" class="edge"><title>Node5&#45;&gt;Node6</title>
<path fill="none" stroke="midnightblue" d="M230.324,-159.275C225.026,-150.045 218.783,-139.17 214.524,-131.751"/>
<polygon fill="midnightblue" stroke="midnightblue" points="227.367,-161.153 235.381,-168.083 233.438,-157.668 227.367,-161.153"/>
</g>
<!-- Node7 -->
<g id="node7" class="node"><title>Node7</title>
<g id="a_node7"><a xlink:href="group__spec_8h.html" target="_top" xlink:title="spec/group_spec.h">
<polygon fill="white" stroke="black" points="371,-56.5 371,-75.5 470,-75.5 470,-56.5 371,-56.5"/>
<text text-anchor="middle" x="420.5" y="-63.5" font-family="Helvetica,sans-Serif" font-size="10.00">spec/group_spec.h</text>
</a>
</g>
</g>
<!-- Node5&#45;&gt;Node7 -->
<g id="edge6" class="edge"><title>Node5&#45;&gt;Node7</title>
<path fill="none" stroke="midnightblue" d="M250.008,-159.055C258.563,-144.493 272.402,-124.41 289.5,-112 314.897,-93.5658 348.443,-82.2321 375.23,-75.55"/>
<polygon fill="midnightblue" stroke="midnightblue" points="246.78,-157.656 244.954,-168.092 252.89,-161.073 246.78,-157.656"/>
</g>
<!-- Node8 -->
<g id="node8" class="node"><title>Node8</title>
<g id="a_node8"><a xlink:href="ceptr__specs_8c.html" target="_top" xlink:title="implements a main() entry point for running all the tests ">
<polygon fill="white" stroke="black" points="1195.5,-0.5 1195.5,-19.5 1297.5,-19.5 1297.5,-0.5 1195.5,-0.5"/>
<text text-anchor="middle" x="1246.5" y="-7.5" font-family="Helvetica,sans-Serif" font-size="10.00">spec/ceptr_specs.c</text>
</a>
</g>
</g>
<!-- Node7&#45;&gt;Node8 -->
<g id="edge7" class="edge"><title>Node7&#45;&gt;Node8</title>
<path fill="none" stroke="midnightblue" d="M480.293,-61.091C635.626,-50.936 1049.92,-23.8512 1195.25,-14.3502"/>
<polygon fill="midnightblue" stroke="midnightblue" points="479.753,-57.6187 470.003,-61.7637 480.21,-64.6038 479.753,-57.6187"/>
</g>
<!-- Node12 -->
<g id="node12" class="node"><title>Node12</title>
<g id="a_node12"><a xlink:href="shell_8c.html" target="_top" xlink:title="implementation of a command line shell receptor ">
<polygon fill="white" stroke="black" points="392.5,-112.5 392.5,-131.5 454.5,-131.5 454.5,-112.5 392.5,-112.5"/>
<text text-anchor="middle" x="423.5" y="-119.5" font-family="Helvetica,sans-Serif" font-size="10.00">src/shell.c</text>
</a>
</g>
</g>
<!-- Node11&#45;&gt;Node12 -->
<g id="edge11" class="edge"><title>Node11&#45;&gt;Node12</title>
<path fill="none" stroke="midnightblue" d="M378.54,-161.537C389.773,-151.909 403.819,-139.869 413.194,-131.834"/>
<polygon fill="midnightblue" stroke="midnightblue" points="375.937,-159.159 370.622,-168.324 380.492,-164.473 375.937,-159.159"/>
</g>
<!-- Node13 -->
<g id="node13" class="node"><title>Node13</title>
<g id="a_node13"><a xlink:href="vmhost__spec_8h.html" target="_top" xlink:title="spec/vmhost_spec.h">
<polygon fill="white" stroke="black" points="744,-56.5 744,-75.5 851,-75.5 851,-56.5 744,-56.5"/>
<text text-anchor="middle" x="797.5" y="-63.5" font-family="Helvetica,sans-Serif" font-size="10.00">spec/vmhost_spec.h</text>
</a>
</g>
</g>
<!-- Node11&#45;&gt;Node13 -->
<g id="edge12" class="edge"><title>Node11&#45;&gt;Node13</title>
<path fill="none" stroke="midnightblue" d="M401.472,-166.687C487.257,-145.093 684.368,-95.4773 763.604,-75.5322"/>
<polygon fill="midnightblue" stroke="midnightblue" points="400.421,-163.342 391.578,-169.177 402.13,-170.13 400.421,-163.342"/>
</g>
<!-- Node13&#45;&gt;Node8 -->
<g id="edge13" class="edge"><title>Node13&#45;&gt;Node8</title>
<path fill="none" stroke="midnightblue" d="M861.343,-55.9212C987.653,-39.6385 1123.21,-24.4414 1195.25,-16.5485"/>
<polygon fill="midnightblue" stroke="midnightblue" points="860.571,-52.4918 851.103,-57.2463 861.47,-59.4339 860.571,-52.4918"/>
</g>
<!-- Node15&#45;&gt;Node8 -->
<g id="edge16" class="edge"><title>Node15&#45;&gt;Node8</title>
<path fill="none" stroke="midnightblue" d="M649.933,-158.186C654.585,-130.667 667.51,-80.0977 701.5,-56 741.242,-27.8248 1067.59,-15.9023 1195.42,-12.2825"/>
<polygon fill="midnightblue" stroke="midnightblue" points="646.419,-158.018 648.408,-168.425 653.343,-159.05 646.419,-158.018"/>
</g>
<!-- Node16&#45;&gt;Node8 -->
<g id="edge18" class="edge"><title>Node16&#45;&gt;Node8</title>
<path fill="none" stroke="midnightblue" d="M985.755,-54.7275C1046.6,-44.523 1138.82,-29.0583 1195.72,-19.5164"/>
<polygon fill="midnightblue" stroke="midnightblue" points="984.805,-51.3377 975.522,-56.4435 985.963,-58.2413 984.805,-51.3377"/>
</g>
<!-- Node17&#45;&gt;Node4 -->
<g id="edge21" class="edge"><title>Node17&#45;&gt;Node4</title>
<path fill="none" stroke="midnightblue" d="M1103.73,-231.674C1009.08,-228.242 771.225,-217.202 574.5,-188 571.472,-187.551 568.335,-187.006 565.204,-186.411"/>
<polygon fill="midnightblue" stroke="midnightblue" points="1103.64,-235.173 1113.76,-232.029 1103.89,-228.178 1103.64,-235.173"/>
</g>
<!-- Node17&#45;&gt;Node8 -->
<g id="edge38" class="edge"><title>Node17&#45;&gt;Node8</title>
<path fill="none" stroke="midnightblue" d="M1103.61,-229.864C978.746,-219.079 624.455,-177.253 735.5,-56 766.138,-22.5453 1071.7,-13.8382 1195.16,-11.6776"/>
<polygon fill="midnightblue" stroke="midnightblue" points="1103.67,-233.381 1113.93,-230.729 1104.26,-226.406 1103.67,-233.381"/>
</g>
<!-- Node17&#45;&gt;Node13 -->
<g id="edge55" class="edge"><title>Node17&#45;&gt;Node13</title>
<path fill="none" stroke="midnightblue" d="M1103.61,-232.974C1053.82,-231.234 969.69,-222.781 907.5,-188 856.457,-159.453 816.334,-98.4989 802.608,-75.7774"/>
<polygon fill="midnightblue" stroke="midnightblue" points="1103.6,-236.475 1113.69,-233.25 1103.79,-229.477 1103.6,-236.475"/>
</g>
<!-- Node17&#45;&gt;Node15 -->
<g id="edge37" class="edge"><title>Node17&#45;&gt;Node15</title>
<path fill="none" stroke="midnightblue" d="M1103.95,-228.495C1017.03,-219.069 815.474,-197.214 711.736,-185.965"/>
<polygon fill="midnightblue" stroke="midnightblue" points="1103.65,-231.983 1113.97,-229.581 1104.41,-225.023 1103.65,-231.983"/>
</g>
<!-- Node17&#45;&gt;Node16 -->
<g id="edge50" class="edge"><title>Node17&#45;&gt;Node16</title>
<path fill="none" stroke="midnightblue" d="M1104.03,-228.427C1049.96,-221.767 959.128,-207.975 932.5,-188 903.451,-166.209 894.315,-147.38 902.5,-112 905.636,-98.4442 913.446,-84.255 918.862,-75.5194"/>
<polygon fill="midnightblue" stroke="midnightblue" points="1103.65,-231.907 1114,-229.626 1104.49,-224.957 1103.65,-231.907"/>
</g>
<!-- Node18 -->
<g id="node18" class="node"><title>Node18</title>
<g id="a_node18"><a xlink:href="spec__utils_8h.html" target="_top" xlink:title="spec/spec_utils.h">
<polygon fill="white" stroke="black" points="941,-168.5 941,-187.5 1034,-187.5 1034,-168.5 941,-168.5"/>
<text text-anchor="middle" x="987.5" y="-175.5" font-family="Helvetica,sans-Serif" font-size="10.00">spec/spec_utils.h</text>
</a>
</g>
</g>
<!-- Node17&#45;&gt;Node18 -->
<g id="edge22" class="edge"><title>Node17&#45;&gt;Node18</title>
<path fill="none" stroke="midnightblue" d="M1110.89,-221.172C1081.14,-211.004 1038.95,-196.585 1012.42,-187.516"/>
<polygon fill="midnightblue" stroke="midnightblue" points="1109.87,-224.521 1120.46,-224.444 1112.13,-217.898 1109.87,-224.521"/>
</g>
<!-- Node20 -->
<g id="node20" class="node"><title>Node20</title>
<g id="a_node20"><a xlink:href="http__example_8h.html" target="_top" xlink:title="spec/http_example.h">
<polygon fill="white" stroke="black" points="1031,-112.5 1031,-131.5 1138,-131.5 1138,-112.5 1031,-112.5"/>
<text text-anchor="middle" x="1084.5" y="-119.5" font-family="Helvetica,sans-Serif" font-size="10.00">spec/http_example.h</text>
</a>
</g>
</g>
<!-- Node17&#45;&gt;Node20 -->
<g id="edge42" class="edge"><title>Node17&#45;&gt;Node20</title>
<path fill="none" stroke="midnightblue" d="M1135.7,-215.32C1122.41,-191.37 1099.22,-149.548 1089.26,-131.591"/>
<polygon fill="midnightblue" stroke="midnightblue" points="1132.8,-217.321 1140.71,-224.368 1138.92,-213.926 1132.8,-217.321"/>
</g>
<!-- Node21 -->
<g id="node21" class="node"><title>Node21</title>
<g id="a_node21"><a xlink:href="tree__spec_8h.html" target="_top" xlink:title="spec/tree_spec.h">
<polygon fill="white" stroke="black" points="1143.5,-56.5 1143.5,-75.5 1235.5,-75.5 1235.5,-56.5 1143.5,-56.5"/>
<text text-anchor="middle" x="1189.5" y="-63.5" font-family="Helvetica,sans-Serif" font-size="10.00">spec/tree_spec.h</text>
</a>
</g>
</g>
<!-- Node17&#45;&gt;Node21 -->
<g id="edge41" class="edge"><title>Node17&#45;&gt;Node21</title>
<path fill="none" stroke="midnightblue" d="M1150.43,-214.395C1159.92,-178.585 1180.4,-101.342 1187.23,-75.5681"/>
<polygon fill="midnightblue" stroke="midnightblue" points="1147.04,-213.512 1147.87,-224.075 1153.81,-215.306 1147.04,-213.512"/>
</g>
<!-- Node22 -->
<g id="node22" class="node"><title>Node22</title>
<g id="a_node22"><a xlink:href="mtree__spec_8h.html" target="_top" xlink:title="spec/mtree_spec.h">
<polygon fill="white" stroke="black" points="1253.5,-56.5 1253.5,-75.5 1353.5,-75.5 1353.5,-56.5 1253.5,-56.5"/>
<text text-anchor="middle" x="1303.5" y="-63.5" font-family="Helvetica,sans-Serif" font-size="10.00">spec/mtree_spec.h</text>
</a>
</g>
</g>
<!-- Node17&#45;&gt;Node22 -->
<g id="edge43" class="edge"><title>Node17&#45;&gt;Node22</title>
<path fill="none" stroke="midnightblue" d="M1186.96,-222.356C1229.29,-209.03 1292.73,-181.674 1321.5,-132 1332.18,-113.558 1318.58,-88.4851 1309.82,-75.5308"/>
<polygon fill="midnightblue" stroke="midnightblue" points="1185.78,-219.056 1177.22,-225.294 1187.8,-225.758 1185.78,-219.056"/>
</g>
<!-- Node23 -->
<g id="node23" class="node"><title>Node23</title>
<g id="a_node23"><a xlink:href="profile__example_8h.html" target="_top" xlink:title="spec/profile_example.h">
<polygon fill="white" stroke="black" points="1195,-112.5 1195,-131.5 1312,-131.5 1312,-112.5 1195,-112.5"/>
<text text-anchor="middle" x="1253.5" y="-119.5" font-family="Helvetica,sans-Serif" font-size="10.00">spec/profile_example.h</text>
</a>
</g>
</g>
<!-- Node17&#45;&gt;Node23 -->
<g id="edge56" class="edge"><title>Node17&#45;&gt;Node23</title>
<path fill="none" stroke="midnightblue" d="M1161.01,-217.205C1184.16,-193.627 1226.96,-150.029 1245.06,-131.591"/>
<polygon fill="midnightblue" stroke="midnightblue" points="1158.48,-214.781 1153.97,-224.368 1163.48,-219.685 1158.48,-214.781"/>
</g>
<!-- Node25 -->
<g id="node25" class="node"><title>Node25</title>
<g id="a_node25"><a xlink:href="test__framework_8h.html" target="_top" xlink:title="implements the testing harness ">
<polygon fill="white" stroke="black" points="1368.5,-112.5 1368.5,-131.5 1484.5,-131.5 1484.5,-112.5 1368.5,-112.5"/>
<text text-anchor="middle" x="1426.5" y="-119.5" font-family="Helvetica,sans-Serif" font-size="10.00">spec/test_framework.h</text>
</a>
</g>
</g>
<!-- Node17&#45;&gt;Node25 -->
<g id="edge39" class="edge"><title>Node17&#45;&gt;Node25</title>
<path fill="none" stroke="midnightblue" d="M1187.31,-223.93C1263.28,-208.957 1289.3,-221.342 1354.5,-188 1382.39,-173.738 1407.76,-145.888 1419.55,-131.723"/>
<polygon fill="midnightblue" stroke="midnightblue" points="1186.36,-220.552 1177.28,-226.007 1187.78,-227.406 1186.36,-220.552"/>
</g>
<!-- Node26 -->
<g id="node26" class="node"><title>Node26</title>
<g id="a_node26"><a xlink:href="stream__spec_8h.html" target="_top" xlink:title="spec/stream_spec.h">
<polygon fill="white" stroke="black" points="1448,-56.5 1448,-75.5 1553,-75.5 1553,-56.5 1448,-56.5"/>
<text text-anchor="middle" x="1500.5" y="-63.5" font-family="Helvetica,sans-Serif" font-size="10.00">spec/stream_spec.h</text>
</a>
</g>
</g>
<!-- Node17&#45;&gt;Node26 -->
<g id="edge44" class="edge"><title>Node17&#45;&gt;Node26</title>
<path fill="none" stroke="midnightblue" d="M1187.14,-223.973C1275.17,-207.14 1301.5,-215.242 1382.5,-188 1434.87,-170.385 1462.05,-177.435 1493.5,-132 1505.26,-115.014 1503.83,-89.3272 1502.03,-75.8959"/>
<polygon fill="midnightblue" stroke="midnightblue" points="1186.4,-220.551 1177.26,-225.915 1187.75,-227.419 1186.4,-220.551"/>
</g>
<!-- Node27 -->
<g id="node27" class="node"><title>Node27</title>
<g id="a_node27"><a xlink:href="label__spec_8h.html" target="_top" xlink:title="spec/label_spec.h">
<polygon fill="white" stroke="black" points="1541,-112.5 1541,-131.5 1636,-131.5 1636,-112.5 1541,-112.5"/>
<text text-anchor="middle" x="1588.5" y="-119.5" font-family="Helvetica,sans-Serif" font-size="10.00">spec/label_spec.h</text>
</a>
</g>
</g>
<!-- Node17&#45;&gt;Node27 -->
<g id="edge46" class="edge"><title>Node17&#45;&gt;Node27</title>
<path fill="none" stroke="midnightblue" d="M1187.34,-224.109C1338.84,-201.997 1393.08,-253.645 1526.5,-188 1552.81,-175.056 1573.91,-146.069 1583.27,-131.582"/>
<polygon fill="midnightblue" stroke="midnightblue" points="1186.57,-220.687 1177.22,-225.675 1187.64,-227.605 1186.57,-220.687"/>
</g>
<!-- Node28 -->
<g id="node28" class="node"><title>Node28</title>
<g id="a_node28"><a xlink:href="semtrex__spec_8h.html" target="_top" xlink:title="spec/semtrex_spec.h">
<polygon fill="white" stroke="black" points="1609.5,-56.5 1609.5,-75.5 1719.5,-75.5 1719.5,-56.5 1609.5,-56.5"/>
<text text-anchor="middle" x="1664.5" y="-63.5" font-family="Helvetica,sans-Serif" font-size="10.00">spec/semtrex_spec.h</text>
</a>
</g>
</g>
<!-- Node17&#45;&gt;Node28 -->
<g id="edge48" class="edge"><title>Node17&#45;&gt;Node28</title>
<path fill="none" stroke="midnightblue" d="M1187.57,-224.061C1350.01,-200.075 1400.53,-238.365 1552.5,-188 1598.3,-172.822 1616.05,-170.216 1645.5,-132 1658.56,-115.051 1662.65,-89.3485 1663.93,-75.9052"/>
<polygon fill="midnightblue" stroke="midnightblue" points="1186.57,-220.673 1177.21,-225.651 1187.63,-227.592 1186.57,-220.673"/>
</g>
<!-- Node29 -->
<g id="node29" class="node"><title>Node29</title>
<g id="a_node29"><a xlink:href="process__spec_8h.html" target="_top" xlink:title="spec/process_spec.h">
<polygon fill="white" stroke="black" points="1692.5,-112.5 1692.5,-131.5 1802.5,-131.5 1802.5,-112.5 1692.5,-112.5"/>
<text text-anchor="middle" x="1747.5" y="-119.5" font-family="Helvetica,sans-Serif" font-size="10.00">spec/process_spec.h</text>
</a>
</g>
</g>
<!-- Node17&#45;&gt;Node29 -->
<g id="edge51" class="edge"><title>Node17&#45;&gt;Node29</title>
<path fill="none" stroke="midnightblue" d="M1187.23,-224.238C1310.33,-209.465 1580.89,-230.923 1678.5,-188 1706.82,-175.545 1730.76,-146.328 1741.48,-131.686"/>
<polygon fill="midnightblue" stroke="midnightblue" points="1186.65,-220.783 1177.2,-225.572 1187.58,-227.722 1186.65,-220.783"/>
</g>
<!-- Node30 -->
<g id="node30" class="node"><title>Node30</title>
<g id="a_node30"><a xlink:href="scape__spec_8h.html" target="_top" xlink:title="spec/scape_spec.h">
<polygon fill="white" stroke="black" points="1778,-56.5 1778,-75.5 1879,-75.5 1879,-56.5 1778,-56.5"/>
<text text-anchor="middle" x="1828.5" y="-63.5" font-family="Helvetica,sans-Serif" font-size="10.00">spec/scape_spec.h</text>
</a>
</g>
</g>
<!-- Node17&#45;&gt;Node30 -->
<g id="edge53" class="edge"><title>Node17&#45;&gt;Node30</title>
<path fill="none" stroke="midnightblue" d="M1187.23,-224.151C1417.77,-192.774 1486.98,-251.014 1706.5,-188 1757.34,-173.407 1778.73,-173.51 1811.5,-132 1824.8,-115.155 1827.76,-88.9456 1828.38,-75.5353"/>
<polygon fill="midnightblue" stroke="midnightblue" points="1186.62,-220.703 1177.2,-225.559 1187.59,-227.635 1186.62,-220.703"/>
</g>
<!-- Node18&#45;&gt;Node9 -->
<g id="edge23" class="edge"><title>Node18&#45;&gt;Node9</title>
<path fill="none" stroke="midnightblue" d="M930.418,-174.933C822.974,-170.559 583.496,-158.51 383.5,-132 380.617,-131.618 377.645,-131.172 374.66,-130.687"/>
<polygon fill="midnightblue" stroke="midnightblue" points="930.574,-178.442 940.706,-175.345 930.854,-171.448 930.574,-178.442"/>
</g>
<!-- Node19 -->
<g id="node19" class="node"><title>Node19</title>
<g id="a_node19"><a xlink:href="def__spec_8h.html" target="_top" xlink:title="spec/def_spec.h">
<polygon fill="white" stroke="black" points="998,-56.5 998,-75.5 1087,-75.5 1087,-56.5 998,-56.5"/>
<text text-anchor="middle" x="1042.5" y="-63.5" font-family="Helvetica,sans-Serif" font-size="10.00">spec/def_spec.h</text>
</a>
</g>
</g>
<!-- Node18&#45;&gt;Node19 -->
<g id="edge24" class="edge"><title>Node18&#45;&gt;Node19</title>
<path fill="none" stroke="midnightblue" d="M953.447,-164.598C926.568,-152.829 895.98,-133.742 911.5,-112 922.258,-96.9293 967.479,-83.7061 1001.81,-75.5613"/>
<polygon fill="midnightblue" stroke="midnightblue" points="952.14,-167.845 962.718,-168.448 954.825,-161.381 952.14,-167.845"/>
</g>
<!-- Node18&#45;&gt;Node20 -->
<g id="edge26" class="edge"><title>Node18&#45;&gt;Node20</title>
<path fill="none" stroke="midnightblue" d="M1011.84,-163.453C1029.74,-153.483 1053.55,-140.228 1068.95,-131.655"/>
<polygon fill="midnightblue" stroke="midnightblue" points="1010.12,-160.402 1003.08,-168.324 1013.52,-166.518 1010.12,-160.402"/>
</g>
<!-- Node18&#45;&gt;Node23 -->
<g id="edge34" class="edge"><title>Node18&#45;&gt;Node23</title>
<path fill="none" stroke="midnightblue" d="M1039.67,-166.41C1089.94,-156.204 1165.03,-140.96 1211.55,-131.516"/>
<polygon fill="midnightblue" stroke="midnightblue" points="1038.75,-163.024 1029.65,-168.444 1040.14,-169.884 1038.75,-163.024"/>
</g>
<!-- Node24 -->
<g id="node24" class="node"><title>Node24</title>
<g id="a_node24"><a xlink:href="spec__utils_8c.html" target="_top" xlink:title="spec/spec_utils.c">
<polygon fill="white" stroke="black" points="920,-112.5 920,-131.5 1013,-131.5 1013,-112.5 920,-112.5"/>
<text text-anchor="middle" x="966.5" y="-119.5" font-family="Helvetica,sans-Serif" font-size="10.00">spec/spec_utils.c</text>
</a>
</g>
</g>
<!-- Node18&#45;&gt;Node24 -->
<g id="edge36" class="edge"><title>Node18&#45;&gt;Node24</title>
<path fill="none" stroke="midnightblue" d="M980.379,-158.69C976.84,-149.589 972.728,-139.014 969.903,-131.751"/>
<polygon fill="midnightblue" stroke="midnightblue" points="977.146,-160.032 984.032,-168.083 983.67,-157.494 977.146,-160.032"/>
</g>
<!-- Node19&#45;&gt;Node8 -->
<g id="edge25" class="edge"><title>Node19&#45;&gt;Node8</title>
<path fill="none" stroke="midnightblue" d="M1084.7,-53.8291C1123.22,-43.6333 1179.32,-28.7823 1214.33,-19.5164"/>
<polygon fill="midnightblue" stroke="midnightblue" points="1083.6,-50.5011 1074.82,-56.4435 1085.39,-57.268 1083.6,-50.5011"/>
</g>
<!-- Node20&#45;&gt;Node8 -->
<g id="edge33" class="edge"><title>Node20&#45;&gt;Node8</title>
<path fill="none" stroke="midnightblue" d="M1094.45,-103.287C1103.33,-88.8648 1117.54,-68.8569 1134.5,-56 1157.8,-38.3421 1188.96,-26.5663 1212.5,-19.5053"/>
<polygon fill="midnightblue" stroke="midnightblue" points="1091.25,-101.83 1089.19,-112.222 1097.28,-105.385 1091.25,-101.83"/>
</g>
<!-- Node20&#45;&gt;Node13 -->
<g id="edge32" class="edge"><title>Node20&#45;&gt;Node13</title>
<path fill="none" stroke="midnightblue" d="M1028.89,-110.537C974.651,-100.332 893.162,-84.9992 842.763,-75.5164"/>
<polygon fill="midnightblue" stroke="midnightblue" points="1028.55,-114.034 1039.02,-112.444 1029.84,-107.155 1028.55,-114.034"/>
</g>
<!-- Node20&#45;&gt;Node16 -->
<g id="edge31" class="edge"><title>Node20&#45;&gt;Node16</title>
<path fill="none" stroke="midnightblue" d="M1049.45,-109.172C1019.33,-99.0039 976.604,-84.5852 949.734,-75.5164"/>
<polygon fill="midnightblue" stroke="midnightblue" points="1048.55,-112.562 1059.15,-112.444 1050.79,-105.929 1048.55,-112.562"/>
</g>
<!-- Node20&#45;&gt;Node21 -->
<g id="edge27" class="edge"><title>Node20&#45;&gt;Node21</title>
<path fill="none" stroke="midnightblue" d="M1110.31,-107.726C1129.75,-97.7271 1155.85,-84.3065 1172.67,-75.6545"/>
<polygon fill="midnightblue" stroke="midnightblue" points="1108.66,-104.638 1101.37,-112.324 1111.86,-110.863 1108.66,-104.638"/>
</g>
<!-- Node20&#45;&gt;Node22 -->
<g id="edge29" class="edge"><title>Node20&#45;&gt;Node22</title>
<path fill="none" stroke="midnightblue" d="M1129.01,-110.024C1170.38,-99.8232 1231.14,-84.8414 1268.96,-75.5164"/>
<polygon fill="midnightblue" stroke="midnightblue" points="1128.07,-106.651 1119.2,-112.444 1129.75,-113.448 1128.07,-106.651"/>
</g>
<!-- Node21&#45;&gt;Node8 -->
<g id="edge28" class="edge"><title>Node21&#45;&gt;Node8</title>
<path fill="none" stroke="midnightblue" d="M1206.12,-49.2533C1216.23,-39.6731 1228.78,-27.7906 1237.18,-19.8339"/>
<polygon fill="midnightblue" stroke="midnightblue" points="1203.51,-46.9056 1198.66,-56.324 1208.32,-51.9873 1203.51,-46.9056"/>
</g>
<!-- Node22&#45;&gt;Node8 -->
<g id="edge30" class="edge"><title>Node22&#45;&gt;Node8</title>
<path fill="none" stroke="midnightblue" d="M1286.88,-49.2533C1276.77,-39.6731 1264.22,-27.7906 1255.82,-19.8339"/>
<polygon fill="midnightblue" stroke="midnightblue" points="1284.68,-51.9873 1294.34,-56.324 1289.49,-46.9056 1284.68,-51.9873"/>
</g>
<!-- Node23&#45;&gt;Node8 -->
<g id="edge35" class="edge"><title>Node23&#45;&gt;Node8</title>
<path fill="none" stroke="midnightblue" d="M1307.48,-109.779C1343.25,-99.6839 1380.53,-82.3389 1362.5,-56 1347.86,-34.6116 1321.45,-23.3871 1297.53,-17.4975"/>
<polygon fill="midnightblue" stroke="midnightblue" points="1306.24,-106.486 1297.47,-112.436 1308.04,-113.251 1306.24,-106.486"/>
</g>
<!-- Node25&#45;&gt;Node8 -->
<g id="edge40" class="edge"><title>Node25&#45;&gt;Node8</title>
<path fill="none" stroke="midnightblue" d="M1417.28,-103.041C1408.95,-88.4708 1395.43,-68.3833 1378.5,-56 1353.2,-37.4864 1319.71,-26.1881 1292.8,-19.5428"/>
<polygon fill="midnightblue" stroke="midnightblue" points="1414.34,-104.966 1422.19,-112.084 1420.49,-101.626 1414.34,-104.966"/>
</g>
<!-- Node26&#45;&gt;Node8 -->
<g id="edge45" class="edge"><title>Node26&#45;&gt;Node8</title>
<path fill="none" stroke="midnightblue" d="M1450.38,-54.3456C1402.38,-44.1405 1330.88,-28.94 1286.56,-19.5164"/>
<polygon fill="midnightblue" stroke="midnightblue" points="1449.74,-57.7874 1460.25,-56.4435 1451.2,-50.9405 1449.74,-57.7874"/>
</g>
<!-- Node27&#45;&gt;Node8 -->
<g id="edge47" class="edge"><title>Node27&#45;&gt;Node8</title>
<path fill="none" stroke="midnightblue" d="M1586.09,-102.054C1583.14,-87.1597 1576.67,-67.1284 1562.5,-56 1522.35,-24.4637 1376.31,-15.0121 1297.59,-12.1914"/>
<polygon fill="midnightblue" stroke="midnightblue" points="1582.68,-102.892 1587.72,-112.21 1589.59,-101.782 1582.68,-102.892"/>
</g>
<!-- Node28&#45;&gt;Node8 -->
<g id="edge49" class="edge"><title>Node28&#45;&gt;Node8</title>
<path fill="none" stroke="midnightblue" d="M1598.85,-56.435C1597.73,-56.2888 1596.61,-56.1437 1595.5,-56 1489.63,-42.2698 1365.67,-26.3161 1297.66,-17.5723"/>
<polygon fill="midnightblue" stroke="midnightblue" points="1598.77,-59.9538 1609.14,-57.7718 1599.67,-53.0122 1598.77,-59.9538"/>
</g>
<!-- Node29&#45;&gt;Node8 -->
<g id="edge52" class="edge"><title>Node29&#45;&gt;Node8</title>
<path fill="none" stroke="midnightblue" d="M1747.38,-102.033C1746.19,-87.1265 1741.94,-67.089 1728.5,-56 1695.8,-29.0254 1415.28,-16.6188 1297.86,-12.5719"/>
<polygon fill="midnightblue" stroke="midnightblue" points="1743.89,-102.352 1747.8,-112.199 1750.88,-102.064 1743.89,-102.352"/>
</g>
<!-- Node30&#45;&gt;Node8 -->
<g id="edge54" class="edge"><title>Node30&#45;&gt;Node8</title>
<path fill="none" stroke="midnightblue" d="M1767.74,-56.7126C1765.64,-56.4656 1763.55,-56.2272 1761.5,-56 1592.01,-37.2218 1390.42,-21.5296 1297.75,-14.6864"/>
<polygon fill="midnightblue" stroke="midnightblue" points="1767.33,-60.1887 1777.68,-57.9218 1768.18,-53.2399 1767.33,-60.1887"/>
</g>
</g>
</svg>
