<?xml version="1.0" encoding="UTF-8" standalone="no"?>
<!DOCTYPE svg PUBLIC "-//W3C//DTD SVG 1.1//EN"
 "http://www.w3.org/Graphics/SVG/1.1/DTD/svg11.dtd">
<!-- Generated by graphviz version 2.38.0 (20140413.2041)
 -->
<!-- Title: src/mtree.h Pages: 1 -->
<svg width="402pt" height="252pt"
 viewBox="0.00 0.00 401.82 252.00" xmlns="http://www.w3.org/2000/svg" xmlns:xlink="http://www.w3.org/1999/xlink">
<g id="graph0" class="graph" transform="scale(1 1) rotate(0) translate(4 248)">
<title>src/mtree.h</title>
<polygon fill="white" stroke="none" points="-4,4 -4,-248 397.817,-248 397.817,4 -4,4"/>
<!-- Node1 -->
<g id="node1" class="node"><title>Node1</title>
<polygon fill="#bfbfbf" stroke="black" points="117.5,-224.5 117.5,-243.5 183.5,-243.5 183.5,-224.5 117.5,-224.5"/>
<text text-anchor="middle" x="150.5" y="-231.5" font-family="Helvetica,sans-Serif" font-size="10.00">src/mtree.h</text>
</g>
<!-- Node2 -->
<g id="node2" class="node"><title>Node2</title>
<polygon fill="white" stroke="#bfbfbf" points="0,-0.5 0,-19.5 49,-19.5 49,-0.5 0,-0.5"/>
<text text-anchor="middle" x="24.5" y="-7.5" font-family="Helvetica,sans-Serif" font-size="10.00">string.h</text>
</g>
<!-- Node1&#45;&gt;Node2 -->
<g id="edge1" class="edge"><title>Node1&#45;&gt;Node2</title>
<path fill="none" stroke="midnightblue" d="M117.247,-226.367C94.5264,-220.162 65.4001,-208.639 47.5,-188 8.01522,-142.475 11.2055,-116.03 16.5,-56 17.2764,-47.1966 18.8915,-37.5357 20.4685,-29.4298"/>
<polygon fill="midnightblue" stroke="midnightblue" points="23.9104,-30.0689 22.5131,-19.5666 17.0561,-28.648 23.9104,-30.0689"/>
</g>
<!-- Node3 -->
<g id="node3" class="node"><title>Node3</title>
<polygon fill="white" stroke="#bfbfbf" points="304.5,-0.5 304.5,-19.5 352.5,-19.5 352.5,-0.5 304.5,-0.5"/>
<text text-anchor="middle" x="328.5" y="-7.5" font-family="Helvetica,sans-Serif" font-size="10.00">stdlib.h</text>
</g>
<!-- Node1&#45;&gt;Node3 -->
<g id="edge2" class="edge"><title>Node1&#45;&gt;Node3</title>
<path fill="none" stroke="midnightblue" d="M183.609,-230.036C237.104,-223.256 341.128,-201.374 386.5,-132 409.741,-96.4636 370.484,-50.1902 345.944,-26.4847"/>
<polygon fill="midnightblue" stroke="midnightblue" points="348.29,-23.8872 338.591,-19.6233 343.514,-29.0049 348.29,-23.8872"/>
</g>
<!-- Node4 -->
<g id="node4" class="node"><title>Node4</title>
<g id="a_node4"><a xlink:href="ceptr__error_8h_source.html" target="_top" xlink:title="ceptr_error.h">
<polygon fill="white" stroke="black" points="179,-168.5 179,-187.5 250,-187.5 250,-168.5 179,-168.5"/>
<text text-anchor="middle" x="214.5" y="-175.5" font-family="Helvetica,sans-Serif" font-size="10.00">ceptr_error.h</text>
</a>
</g>
</g>
<!-- Node1&#45;&gt;Node4 -->
<g id="edge3" class="edge"><title>Node1&#45;&gt;Node4</title>
<path fill="none" stroke="midnightblue" d="M160.783,-224.324C170.336,-216.263 184.78,-204.077 196.284,-194.369"/>
<polygon fill="midnightblue" stroke="midnightblue" points="198.644,-196.958 204.03,-187.834 194.13,-191.608 198.644,-196.958"/>
</g>
<!-- Node9 -->
<g id="node9" class="node"><title>Node9</title>
<g id="a_node9"><a xlink:href="sys__defs_8h.html" target="_top" xlink:title="Defines types and vars for system defined semantics. ">
<polygon fill="white" stroke="black" points="57,-168.5 57,-187.5 122,-187.5 122,-168.5 57,-168.5"/>
<text text-anchor="middle" x="89.5" y="-175.5" font-family="Helvetica,sans-Serif" font-size="10.00">sys_defs.h</text>
</a>
</g>
</g>
<!-- Node1&#45;&gt;Node9 -->
<g id="edge8" class="edge"><title>Node1&#45;&gt;Node9</title>
<path fill="none" stroke="midnightblue" d="M140.699,-224.324C131.682,-216.341 118.094,-204.313 107.182,-194.653"/>
<polygon fill="midnightblue" stroke="midnightblue" points="109.287,-191.842 99.479,-187.834 104.647,-197.083 109.287,-191.842"/>
</g>
<!-- Node10 -->
<g id="node10" class="node"><title>Node10</title>
<g id="a_node10"><a xlink:href="ceptr__types_8h_source.html" target="_top" xlink:title="ceptr_types.h">
<polygon fill="white" stroke="black" points="53.5,-112.5 53.5,-131.5 129.5,-131.5 129.5,-112.5 53.5,-112.5"/>
<text text-anchor="middle" x="91.5" y="-119.5" font-family="Helvetica,sans-Serif" font-size="10.00">ceptr_types.h</text>
</a>
</g>
</g>
<!-- Node1&#45;&gt;Node10 -->
<g id="edge17" class="edge"><title>Node1&#45;&gt;Node10</title>
<path fill="none" stroke="midnightblue" d="M148.983,-224.129C146.507,-211.171 140.806,-186.586 130.5,-168 124.634,-157.422 115.984,-147.113 108.32,-139.037"/>
<polygon fill="midnightblue" stroke="midnightblue" points="110.649,-136.416 101.123,-131.778 105.678,-141.344 110.649,-136.416"/>
</g>
<!-- Node5 -->
<g id="node5" class="node"><title>Node5</title>
<polygon fill="white" stroke="#bfbfbf" points="165.5,-56.5 165.5,-75.5 211.5,-75.5 211.5,-56.5 165.5,-56.5"/>
<text text-anchor="middle" x="188.5" y="-63.5" font-family="Helvetica,sans-Serif" font-size="10.00">stdio.h</text>
</g>
<!-- Node4&#45;&gt;Node5 -->
<g id="edge4" class="edge"><title>Node4&#45;&gt;Node5</title>
<path fill="none" stroke="midnightblue" d="M203.786,-168.305C194.562,-160.069 181.909,-146.789 176.5,-132 170.902,-116.693 175.209,-98.363 180.154,-85.0762"/>
<polygon fill="midnightblue" stroke="midnightblue" points="183.464,-86.2326 184.079,-75.6557 177.002,-83.5402 183.464,-86.2326"/>
</g>
<!-- Node6 -->
<g id="node6" class="node"><title>Node6</title>
<polygon fill="white" stroke="#bfbfbf" points="257.5,-112.5 257.5,-131.5 307.5,-131.5 307.5,-112.5 257.5,-112.5"/>
<text text-anchor="middle" x="282.5" y="-119.5" font-family="Helvetica,sans-Serif" font-size="10.00">signal.h</text>
</g>
<!-- Node4&#45;&gt;Node6 -->
<g id="edge5" class="edge"><title>Node4&#45;&gt;Node6</title>
<path fill="none" stroke="midnightblue" d="M225.425,-168.324C235.675,-160.185 251.221,-147.839 263.501,-138.087"/>
<polygon fill="midnightblue" stroke="midnightblue" points="265.721,-140.794 271.376,-131.834 261.368,-135.312 265.721,-140.794"/>
</g>
<!-- Node7 -->
<g id="node7" class="node"><title>Node7</title>
<polygon fill="white" stroke="#bfbfbf" points="325.5,-112.5 325.5,-131.5 377.5,-131.5 377.5,-112.5 325.5,-112.5"/>
<text text-anchor="middle" x="351.5" y="-119.5" font-family="Helvetica,sans-Serif" font-size="10.00">assert.h</text>
</g>
<!-- Node4&#45;&gt;Node7 -->
<g id="edge6" class="edge"><title>Node4&#45;&gt;Node7</title>
<path fill="none" stroke="midnightblue" d="M236.208,-168.444C258.855,-159.517 294.572,-145.439 320.252,-135.317"/>
<polygon fill="midnightblue" stroke="midnightblue" points="321.874,-138.44 329.894,-131.516 319.307,-131.927 321.874,-138.44"/>
</g>
<!-- Node8 -->
<g id="node8" class="node"><title>Node8</title>
<polygon fill="white" stroke="#bfbfbf" points="185.5,-112.5 185.5,-131.5 239.5,-131.5 239.5,-112.5 185.5,-112.5"/>
<text text-anchor="middle" x="212.5" y="-119.5" font-family="Helvetica,sans-Serif" font-size="10.00">setjmp.h</text>
</g>
<!-- Node4&#45;&gt;Node8 -->
<g id="edge7" class="edge"><title>Node4&#45;&gt;Node8</title>
<path fill="none" stroke="midnightblue" d="M214.17,-168.083C213.908,-161.006 213.532,-150.861 213.203,-141.986"/>
<polygon fill="midnightblue" stroke="midnightblue" points="216.692,-141.615 212.824,-131.751 209.697,-141.874 216.692,-141.615"/>
</g>
<!-- Node9&#45;&gt;Node10 -->
<g id="edge9" class="edge"><title>Node9&#45;&gt;Node10</title>
<path fill="none" stroke="midnightblue" d="M89.8303,-168.083C90.0924,-161.006 90.4681,-150.861 90.7968,-141.986"/>
<polygon fill="midnightblue" stroke="midnightblue" points="94.3033,-141.874 91.1759,-131.751 87.3081,-141.615 94.3033,-141.874"/>
</g>
<!-- Node10&#45;&gt;Node5 -->
<g id="edge11" class="edge"><title>Node10&#45;&gt;Node5</title>
<path fill="none" stroke="midnightblue" d="M107.085,-112.324C122.499,-103.743 146.312,-90.486 164.21,-80.5224"/>
<polygon fill="midnightblue" stroke="midnightblue" points="165.919,-83.5767 172.954,-75.6545 162.514,-77.4606 165.919,-83.5767"/>
</g>
<!-- Node11 -->
<g id="node11" class="node"><title>Node11</title>
<polygon fill="white" stroke="#bfbfbf" points="26,-56.5 26,-75.5 75,-75.5 75,-56.5 26,-56.5"/>
<text text-anchor="middle" x="50.5" y="-63.5" font-family="Helvetica,sans-Serif" font-size="10.00">stdint.h</text>
</g>
<!-- Node10&#45;&gt;Node11 -->
<g id="edge10" class="edge"><title>Node10&#45;&gt;Node11</title>
<path fill="none" stroke="midnightblue" d="M84.7297,-112.083C78.9384,-104.455 70.4415,-93.2645 63.3625,-83.9408"/>
<polygon fill="midnightblue" stroke="midnightblue" points="65.979,-81.5991 57.1443,-75.7511 60.4039,-85.8321 65.979,-81.5991"/>
</g>
<!-- Node12 -->
<g id="node12" class="node"><title>Node12</title>
<g id="a_node12"><a xlink:href="uthash_8h_source.html" target="_top" xlink:title="uthash.h">
<polygon fill="white" stroke="black" points="93.5,-56.5 93.5,-75.5 147.5,-75.5 147.5,-56.5 93.5,-56.5"/>
<text text-anchor="middle" x="120.5" y="-63.5" font-family="Helvetica,sans-Serif" font-size="10.00">uthash.h</text>
</a>
</g>
</g>
<!-- Node10&#45;&gt;Node12 -->
<g id="edge12" class="edge"><title>Node10&#45;&gt;Node12</title>
<path fill="none" stroke="midnightblue" d="M96.2888,-112.083C100.258,-104.691 106.025,-93.9533 110.935,-84.8111"/>
<polygon fill="midnightblue" stroke="midnightblue" points="114.153,-86.217 115.8,-75.7511 107.986,-82.9051 114.153,-86.217"/>
</g>
<!-- Node12&#45;&gt;Node2 -->
<g id="edge13" class="edge"><title>Node12&#45;&gt;Node2</title>
<path fill="none" stroke="midnightblue" d="M105.076,-56.324C89.9605,-47.8215 66.6846,-34.7288 49.0288,-24.7975"/>
<polygon fill="midnightblue" stroke="midnightblue" points="50.3175,-21.5066 39.8858,-19.6545 46.8856,-27.6077 50.3175,-21.5066"/>
</g>
<!-- Node12&#45;&gt;Node3 -->
<g id="edge15" class="edge"><title>Node12&#45;&gt;Node3</title>
<path fill="none" stroke="midnightblue" d="M147.692,-57.9404C185.355,-48.1627 253.381,-30.5021 294.399,-19.8532"/>
<polygon fill="midnightblue" stroke="midnightblue" points="295.411,-23.2066 304.21,-17.306 293.652,-16.4312 295.411,-23.2066"/>
</g>
<!-- Node13 -->
<g id="node13" class="node"><title>Node13</title>
<polygon fill="white" stroke="#bfbfbf" points="80.5,-0.5 80.5,-19.5 132.5,-19.5 132.5,-0.5 80.5,-0.5"/>
<text text-anchor="middle" x="106.5" y="-7.5" font-family="Helvetica,sans-Serif" font-size="10.00">stddef.h</text>
</g>
<!-- Node12&#45;&gt;Node13 -->
<g id="edge14" class="edge"><title>Node12&#45;&gt;Node13</title>
<path fill="none" stroke="midnightblue" d="M118.188,-56.083C116.333,-48.9272 113.665,-38.6353 111.346,-29.6911"/>
<polygon fill="midnightblue" stroke="midnightblue" points="114.666,-28.5527 108.769,-19.7511 107.891,-30.3094 114.666,-28.5527"/>
</g>
<!-- Node14 -->
<g id="node14" class="node"><title>Node14</title>
<polygon fill="white" stroke="#bfbfbf" points="151,-0.5 151,-19.5 210,-19.5 210,-0.5 151,-0.5"/>
<text text-anchor="middle" x="180.5" y="-7.5" font-family="Helvetica,sans-Serif" font-size="10.00">inttypes.h</text>
</g>
<!-- Node12&#45;&gt;Node14 -->
<g id="edge16" class="edge"><title>Node12&#45;&gt;Node14</title>
<path fill="none" stroke="midnightblue" d="M130.14,-56.324C139.01,-48.3414 152.375,-36.3128 163.108,-26.6529"/>
<polygon fill="midnightblue" stroke="midnightblue" points="165.593,-29.1251 170.685,-19.8339 160.91,-23.922 165.593,-29.1251"/>
</g>
</g>
</svg>
