<?xml version="1.0" encoding="UTF-8" standalone="no"?>
<!DOCTYPE svg PUBLIC "-//W3C//DTD SVG 1.1//EN"
 "http://www.w3.org/Graphics/SVG/1.1/DTD/svg11.dtd">
<!-- Generated by graphviz version 2.38.0 (20140413.2041)
 -->
<!-- Title: src/mtree.c Pages: 1 -->
<svg width="621pt" height="476pt"
 viewBox="0.00 0.00 620.97 476.00" xmlns="http://www.w3.org/2000/svg" xmlns:xlink="http://www.w3.org/1999/xlink">
<g id="graph0" class="graph" transform="scale(1 1) rotate(0) translate(4 472)">
<title>src/mtree.c</title>
<polygon fill="white" stroke="none" points="-4,4 -4,-472 616.972,-472 616.972,4 -4,4"/>
<!-- Node1 -->
<g id="node1" class="node"><title>Node1</title>
<polygon fill="#bfbfbf" stroke="black" points="358.972,-448.5 358.972,-467.5 424.972,-467.5 424.972,-448.5 358.972,-448.5"/>
<text text-anchor="middle" x="391.972" y="-455.5" font-family="Helvetica,sans-Serif" font-size="10.00">src/mtree.c</text>
</g>
<!-- Node2 -->
<g id="node2" class="node"><title>Node2</title>
<g id="a_node2"><a xlink:href="mtree_8h.html" target="_top" xlink:title="semantic tree matrix header file `` ">
<polygon fill="white" stroke="black" points="416.972,-280.5 416.972,-299.5 466.972,-299.5 466.972,-280.5 416.972,-280.5"/>
<text text-anchor="middle" x="441.972" y="-287.5" font-family="Helvetica,sans-Serif" font-size="10.00">mtree.h</text>
</a>
</g>
</g>
<!-- Node1&#45;&gt;Node2 -->
<g id="edge1" class="edge"><title>Node1&#45;&gt;Node2</title>
<path fill="none" stroke="midnightblue" d="M394.66,-448.075C402.531,-421.945 425.644,-345.211 436.377,-309.577"/>
<polygon fill="midnightblue" stroke="midnightblue" points="439.858,-310.153 439.391,-299.568 433.156,-308.134 439.858,-310.153"/>
</g>
<!-- Node5 -->
<g id="node5" class="node"><title>Node5</title>
<g id="a_node5"><a xlink:href="ceptr__error_8h_source.html" target="_top" xlink:title="ceptr_error.h">
<polygon fill="white" stroke="black" points="79.472,-112.5 79.472,-131.5 150.472,-131.5 150.472,-112.5 79.472,-112.5"/>
<text text-anchor="middle" x="114.972" y="-119.5" font-family="Helvetica,sans-Serif" font-size="10.00">ceptr_error.h</text>
</a>
</g>
</g>
<!-- Node1&#45;&gt;Node5 -->
<g id="edge23" class="edge"><title>Node1&#45;&gt;Node5</title>
<path fill="none" stroke="midnightblue" d="M358.857,-452.627C277.982,-441.024 76.972,-406.229 76.972,-347 76.972,-347 76.972,-347 76.972,-233 76.972,-198.813 93.5725,-161.764 104.829,-140.571"/>
<polygon fill="midnightblue" stroke="midnightblue" points="107.919,-142.215 109.688,-131.769 101.791,-138.832 107.919,-142.215"/>
</g>
<!-- Node18 -->
<g id="node18" class="node"><title>Node18</title>
<g id="a_node18"><a xlink:href="hashfn_8h_source.html" target="_top" xlink:title="hashfn.h">
<polygon fill="white" stroke="black" points="492.972,-168.5 492.972,-187.5 546.972,-187.5 546.972,-168.5 492.972,-168.5"/>
<text text-anchor="middle" x="519.972" y="-175.5" font-family="Helvetica,sans-Serif" font-size="10.00">hashfn.h</text>
</a>
</g>
</g>
<!-- Node1&#45;&gt;Node18 -->
<g id="edge24" class="edge"><title>Node1&#45;&gt;Node18</title>
<path fill="none" stroke="midnightblue" d="M425.112,-452.366C477.848,-442.918 574.972,-416.133 574.972,-347 574.972,-347 574.972,-347 574.972,-289 574.972,-252.569 550.539,-215.836 534.243,-195.387"/>
<polygon fill="midnightblue" stroke="midnightblue" points="536.926,-193.139 527.852,-187.668 531.534,-197.603 536.926,-193.139"/>
</g>
<!-- Node19 -->
<g id="node19" class="node"><title>Node19</title>
<g id="a_node19"><a xlink:href="def_8h.html" target="_top" xlink:title="header file for symbol and structure definition functions ">
<polygon fill="white" stroke="black" points="345.972,-392.5 345.972,-411.5 383.972,-411.5 383.972,-392.5 345.972,-392.5"/>
<text text-anchor="middle" x="364.972" y="-399.5" font-family="Helvetica,sans-Serif" font-size="10.00">def.h</text>
</a>
</g>
</g>
<!-- Node1&#45;&gt;Node19 -->
<g id="edge26" class="edge"><title>Node1&#45;&gt;Node19</title>
<path fill="none" stroke="midnightblue" d="M387.514,-448.083C383.818,-440.691 378.449,-429.953 373.878,-420.811"/>
<polygon fill="midnightblue" stroke="midnightblue" points="376.95,-419.13 369.348,-411.751 370.689,-422.261 376.95,-419.13"/>
</g>
<!-- Node3 -->
<g id="node3" class="node"><title>Node3</title>
<polygon fill="white" stroke="#bfbfbf" points="561.472,-0.5 561.472,-19.5 610.472,-19.5 610.472,-0.5 561.472,-0.5"/>
<text text-anchor="middle" x="585.972" y="-7.5" font-family="Helvetica,sans-Serif" font-size="10.00">string.h</text>
</g>
<!-- Node2&#45;&gt;Node3 -->
<g id="edge2" class="edge"><title>Node2&#45;&gt;Node3</title>
<path fill="none" stroke="midnightblue" d="M457.122,-280.365C482.205,-265.196 531.97,-231.23 555.972,-188 584.663,-136.325 587.309,-64.0792 586.753,-30.097"/>
<polygon fill="midnightblue" stroke="midnightblue" points="590.243,-29.6661 586.46,-19.7693 583.245,-29.8645 590.243,-29.6661"/>
</g>
<!-- Node4 -->
<g id="node4" class="node"><title>Node4</title>
<polygon fill="white" stroke="#bfbfbf" points="347.972,-0.5 347.972,-19.5 395.972,-19.5 395.972,-0.5 347.972,-0.5"/>
<text text-anchor="middle" x="371.972" y="-7.5" font-family="Helvetica,sans-Serif" font-size="10.00">stdlib.h</text>
</g>
<!-- Node2&#45;&gt;Node4 -->
<g id="edge3" class="edge"><title>Node2&#45;&gt;Node4</title>
<path fill="none" stroke="midnightblue" d="M442.831,-280.133C443.882,-267.587 445.258,-243.959 442.972,-224 437.156,-173.231 433.222,-160.449 416.972,-112 406.887,-81.9332 391.078,-48.6112 381.133,-28.7566"/>
<polygon fill="midnightblue" stroke="midnightblue" points="384.177,-27.0209 376.528,-19.69 377.936,-30.1909 384.177,-27.0209"/>
</g>
<!-- Node2&#45;&gt;Node5 -->
<g id="edge4" class="edge"><title>Node2&#45;&gt;Node5</title>
<path fill="none" stroke="midnightblue" d="M416.719,-284.432C385.065,-278.105 329.663,-265.015 285.972,-244 224.822,-214.587 161.973,-163.773 132.385,-138.378"/>
<polygon fill="midnightblue" stroke="midnightblue" points="134.475,-135.558 124.628,-131.646 129.886,-140.844 134.475,-135.558"/>
</g>
<!-- Node10 -->
<g id="node10" class="node"><title>Node10</title>
<g id="a_node10"><a xlink:href="sys__defs_8h.html" target="_top" xlink:title="Defines types and vars for system defined semantics. ">
<polygon fill="white" stroke="black" points="295.472,-224.5 295.472,-243.5 360.472,-243.5 360.472,-224.5 295.472,-224.5"/>
<text text-anchor="middle" x="327.972" y="-231.5" font-family="Helvetica,sans-Serif" font-size="10.00">sys_defs.h</text>
</a>
</g>
</g>
<!-- Node2&#45;&gt;Node10 -->
<g id="edge9" class="edge"><title>Node2&#45;&gt;Node10</title>
<path fill="none" stroke="midnightblue" d="M423.908,-280.444C405.397,-271.675 376.391,-257.935 355.117,-247.858"/>
<polygon fill="midnightblue" stroke="midnightblue" points="356.487,-244.634 345.951,-243.516 353.49,-250.96 356.487,-244.634"/>
</g>
<!-- Node11 -->
<g id="node11" class="node"><title>Node11</title>
<g id="a_node11"><a xlink:href="ceptr__types_8h_source.html" target="_top" xlink:title="ceptr_types.h">
<polygon fill="white" stroke="black" points="331.972,-112.5 331.972,-131.5 407.972,-131.5 407.972,-112.5 331.972,-112.5"/>
<text text-anchor="middle" x="369.972" y="-119.5" font-family="Helvetica,sans-Serif" font-size="10.00">ceptr_types.h</text>
</a>
</g>
</g>
<!-- Node2&#45;&gt;Node11 -->
<g id="edge22" class="edge"><title>Node2&#45;&gt;Node11</title>
<path fill="none" stroke="midnightblue" d="M440.205,-280.42C435.811,-260.087 423.254,-207.703 402.972,-168 397.858,-157.989 390.601,-147.809 384.193,-139.669"/>
<polygon fill="midnightblue" stroke="midnightblue" points="386.754,-137.271 377.716,-131.742 381.333,-141.7 386.754,-137.271"/>
</g>
<!-- Node6 -->
<g id="node6" class="node"><title>Node6</title>
<polygon fill="white" stroke="#bfbfbf" points="238.972,-56.5 238.972,-75.5 284.972,-75.5 284.972,-56.5 238.972,-56.5"/>
<text text-anchor="middle" x="261.972" y="-63.5" font-family="Helvetica,sans-Serif" font-size="10.00">stdio.h</text>
</g>
<!-- Node5&#45;&gt;Node6 -->
<g id="edge5" class="edge"><title>Node5&#45;&gt;Node6</title>
<path fill="none" stroke="midnightblue" d="M138.265,-112.444C162.779,-103.438 201.568,-89.1891 229.172,-79.049"/>
<polygon fill="midnightblue" stroke="midnightblue" points="230.609,-82.25 238.788,-75.5164 228.195,-75.6793 230.609,-82.25"/>
</g>
<!-- Node7 -->
<g id="node7" class="node"><title>Node7</title>
<polygon fill="white" stroke="#bfbfbf" points="100.972,-56.5 100.972,-75.5 150.972,-75.5 150.972,-56.5 100.972,-56.5"/>
<text text-anchor="middle" x="125.972" y="-63.5" font-family="Helvetica,sans-Serif" font-size="10.00">signal.h</text>
</g>
<!-- Node5&#45;&gt;Node7 -->
<g id="edge6" class="edge"><title>Node5&#45;&gt;Node7</title>
<path fill="none" stroke="midnightblue" d="M116.788,-112.083C118.246,-104.927 120.343,-94.6353 122.165,-85.6911"/>
<polygon fill="midnightblue" stroke="midnightblue" points="125.623,-86.2485 124.189,-75.7511 118.764,-84.8512 125.623,-86.2485"/>
</g>
<!-- Node8 -->
<g id="node8" class="node"><title>Node8</title>
<polygon fill="white" stroke="#bfbfbf" points="168.972,-56.5 168.972,-75.5 220.972,-75.5 220.972,-56.5 168.972,-56.5"/>
<text text-anchor="middle" x="194.972" y="-63.5" font-family="Helvetica,sans-Serif" font-size="10.00">assert.h</text>
</g>
<!-- Node5&#45;&gt;Node8 -->
<g id="edge7" class="edge"><title>Node5&#45;&gt;Node8</title>
<path fill="none" stroke="midnightblue" d="M127.825,-112.324C140.188,-103.979 159.102,-91.2122 173.709,-81.3524"/>
<polygon fill="midnightblue" stroke="midnightblue" points="175.82,-84.1503 182.151,-75.6545 171.904,-78.3483 175.82,-84.1503"/>
</g>
<!-- Node9 -->
<g id="node9" class="node"><title>Node9</title>
<polygon fill="white" stroke="#bfbfbf" points="28.972,-56.5 28.972,-75.5 82.972,-75.5 82.972,-56.5 28.972,-56.5"/>
<text text-anchor="middle" x="55.972" y="-63.5" font-family="Helvetica,sans-Serif" font-size="10.00">setjmp.h</text>
</g>
<!-- Node5&#45;&gt;Node9 -->
<g id="edge8" class="edge"><title>Node5&#45;&gt;Node9</title>
<path fill="none" stroke="midnightblue" d="M105.493,-112.324C96.7709,-104.341 83.6285,-92.3128 73.0742,-82.6529"/>
<polygon fill="midnightblue" stroke="midnightblue" points="75.3637,-80.0036 65.6239,-75.8339 70.6375,-85.1674 75.3637,-80.0036"/>
</g>
<!-- Node10&#45;&gt;Node11 -->
<g id="edge10" class="edge"><title>Node10&#45;&gt;Node11</title>
<path fill="none" stroke="midnightblue" d="M331.268,-224.368C338.107,-206.456 353.965,-164.923 363.119,-140.948"/>
<polygon fill="midnightblue" stroke="midnightblue" points="366.394,-142.182 366.692,-131.591 359.855,-139.685 366.394,-142.182"/>
</g>
<!-- Node17 -->
<g id="node17" class="node"><title>Node17</title>
<g id="a_node17"><a xlink:href="semtable_8h.html" target="_top" xlink:title="header file for table for coordinating meaning across a vmhost ">
<polygon fill="white" stroke="black" points="257.472,-168.5 257.472,-187.5 322.472,-187.5 322.472,-168.5 257.472,-168.5"/>
<text text-anchor="middle" x="289.972" y="-175.5" font-family="Helvetica,sans-Serif" font-size="10.00">semtable.h</text>
</a>
</g>
</g>
<!-- Node10&#45;&gt;Node17 -->
<g id="edge19" class="edge"><title>Node10&#45;&gt;Node17</title>
<path fill="none" stroke="midnightblue" d="M321.697,-224.083C316.33,-216.455 308.454,-205.264 301.893,-195.941"/>
<polygon fill="midnightblue" stroke="midnightblue" points="304.747,-193.915 296.13,-187.751 299.023,-197.943 304.747,-193.915"/>
</g>
<!-- Node11&#45;&gt;Node6 -->
<g id="edge12" class="edge"><title>Node11&#45;&gt;Node6</title>
<path fill="none" stroke="midnightblue" d="M352.62,-112.324C335.3,-103.664 308.457,-90.2424 288.47,-80.249"/>
<polygon fill="midnightblue" stroke="midnightblue" points="289.791,-76.9962 279.281,-75.6545 286.66,-83.2572 289.791,-76.9962"/>
</g>
<!-- Node12 -->
<g id="node12" class="node"><title>Node12</title>
<polygon fill="white" stroke="#bfbfbf" points="497.472,-56.5 497.472,-75.5 546.472,-75.5 546.472,-56.5 497.472,-56.5"/>
<text text-anchor="middle" x="521.972" y="-63.5" font-family="Helvetica,sans-Serif" font-size="10.00">stdint.h</text>
</g>
<!-- Node11&#45;&gt;Node12 -->
<g id="edge11" class="edge"><title>Node11&#45;&gt;Node12</title>
<path fill="none" stroke="midnightblue" d="M394.057,-112.444C419.517,-103.399 459.866,-89.064 488.431,-78.9158"/>
<polygon fill="midnightblue" stroke="midnightblue" points="489.749,-82.1622 498,-75.5164 487.405,-75.5661 489.749,-82.1622"/>
</g>
<!-- Node13 -->
<g id="node13" class="node"><title>Node13</title>
<g id="a_node13"><a xlink:href="uthash_8h_source.html" target="_top" xlink:title="uthash.h">
<polygon fill="white" stroke="black" points="424.972,-56.5 424.972,-75.5 478.972,-75.5 478.972,-56.5 424.972,-56.5"/>
<text text-anchor="middle" x="451.972" y="-63.5" font-family="Helvetica,sans-Serif" font-size="10.00">uthash.h</text>
</a>
</g>
</g>
<!-- Node11&#45;&gt;Node13 -->
<g id="edge13" class="edge"><title>Node11&#45;&gt;Node13</title>
<path fill="none" stroke="midnightblue" d="M383.147,-112.324C395.819,-103.979 415.205,-91.2122 430.178,-81.3524"/>
<polygon fill="midnightblue" stroke="midnightblue" points="432.403,-84.0776 438.83,-75.6545 428.553,-78.2313 432.403,-84.0776"/>
</g>
<!-- Node16 -->
<g id="node16" class="node"><title>Node16</title>
<polygon fill="white" stroke="#bfbfbf" points="312.972,-56.5 312.972,-75.5 368.972,-75.5 368.972,-56.5 312.972,-56.5"/>
<text text-anchor="middle" x="340.972" y="-63.5" font-family="Helvetica,sans-Serif" font-size="10.00">stdbool.h</text>
</g>
<!-- Node11&#45;&gt;Node16 -->
<g id="edge18" class="edge"><title>Node11&#45;&gt;Node16</title>
<path fill="none" stroke="midnightblue" d="M365.183,-112.083C361.214,-104.691 355.447,-93.9533 350.537,-84.8111"/>
<polygon fill="midnightblue" stroke="midnightblue" points="353.486,-82.9051 345.672,-75.7511 347.319,-86.217 353.486,-82.9051"/>
</g>
<!-- Node13&#45;&gt;Node3 -->
<g id="edge14" class="edge"><title>Node13&#45;&gt;Node3</title>
<path fill="none" stroke="midnightblue" d="M473.205,-56.4435C495.356,-47.5171 530.291,-33.4387 555.408,-23.3168"/>
<polygon fill="midnightblue" stroke="midnightblue" points="556.872,-26.5006 564.839,-19.5164 554.255,-20.0079 556.872,-26.5006"/>
</g>
<!-- Node13&#45;&gt;Node4 -->
<g id="edge16" class="edge"><title>Node13&#45;&gt;Node4</title>
<path fill="none" stroke="midnightblue" d="M439.119,-56.324C426.756,-47.979 407.842,-35.2122 393.235,-25.3524"/>
<polygon fill="midnightblue" stroke="midnightblue" points="395.04,-22.3483 384.793,-19.6545 391.124,-28.1503 395.04,-22.3483"/>
</g>
<!-- Node14 -->
<g id="node14" class="node"><title>Node14</title>
<polygon fill="white" stroke="#bfbfbf" points="413.972,-0.5 413.972,-19.5 465.972,-19.5 465.972,-0.5 413.972,-0.5"/>
<text text-anchor="middle" x="439.972" y="-7.5" font-family="Helvetica,sans-Serif" font-size="10.00">stddef.h</text>
</g>
<!-- Node13&#45;&gt;Node14 -->
<g id="edge15" class="edge"><title>Node13&#45;&gt;Node14</title>
<path fill="none" stroke="midnightblue" d="M449.99,-56.083C448.4,-48.9272 446.113,-38.6353 444.126,-29.6911"/>
<polygon fill="midnightblue" stroke="midnightblue" points="447.503,-28.7537 441.917,-19.7511 440.669,-30.2722 447.503,-28.7537"/>
</g>
<!-- Node15 -->
<g id="node15" class="node"><title>Node15</title>
<polygon fill="white" stroke="#bfbfbf" points="484.472,-0.5 484.472,-19.5 543.472,-19.5 543.472,-0.5 484.472,-0.5"/>
<text text-anchor="middle" x="513.972" y="-7.5" font-family="Helvetica,sans-Serif" font-size="10.00">inttypes.h</text>
</g>
<!-- Node13&#45;&gt;Node15 -->
<g id="edge17" class="edge"><title>Node13&#45;&gt;Node15</title>
<path fill="none" stroke="midnightblue" d="M461.933,-56.324C471.099,-48.3414 484.909,-36.3128 496,-26.6529"/>
<polygon fill="midnightblue" stroke="midnightblue" points="498.587,-29.041 503.829,-19.8339 493.99,-23.7624 498.587,-29.041"/>
</g>
<!-- Node17&#45;&gt;Node5 -->
<g id="edge21" class="edge"><title>Node17&#45;&gt;Node5</title>
<path fill="none" stroke="midnightblue" d="M262.243,-168.444C232.546,-159.28 185.256,-144.688 152.303,-134.519"/>
<polygon fill="midnightblue" stroke="midnightblue" points="153.159,-131.121 142.572,-131.516 151.095,-137.809 153.159,-131.121"/>
</g>
<!-- Node17&#45;&gt;Node11 -->
<g id="edge20" class="edge"><title>Node17&#45;&gt;Node11</title>
<path fill="none" stroke="midnightblue" d="M302.825,-168.324C315.188,-159.979 334.102,-147.212 348.709,-137.352"/>
<polygon fill="midnightblue" stroke="midnightblue" points="350.82,-140.15 357.151,-131.655 346.904,-134.348 350.82,-140.15"/>
</g>
<!-- Node18&#45;&gt;Node12 -->
<g id="edge25" class="edge"><title>Node18&#45;&gt;Node12</title>
<path fill="none" stroke="midnightblue" d="M520.129,-168.368C520.452,-150.617 521.196,-109.666 521.634,-85.5974"/>
<polygon fill="midnightblue" stroke="midnightblue" points="525.133,-85.6534 521.816,-75.5914 518.134,-85.5261 525.133,-85.6534"/>
</g>
<!-- Node20 -->
<g id="node20" class="node"><title>Node20</title>
<g id="a_node20"><a xlink:href="tree_8h.html" target="_top" xlink:title="semantic trees header file ">
<polygon fill="white" stroke="black" points="249.472,-336.5 249.472,-355.5 290.472,-355.5 290.472,-336.5 249.472,-336.5"/>
<text text-anchor="middle" x="269.972" y="-343.5" font-family="Helvetica,sans-Serif" font-size="10.00">tree.h</text>
</a>
</g>
</g>
<!-- Node19&#45;&gt;Node20 -->
<g id="edge27" class="edge"><title>Node19&#45;&gt;Node20</title>
<path fill="none" stroke="midnightblue" d="M349.709,-392.324C334.751,-383.822 311.717,-370.729 294.245,-360.797"/>
<polygon fill="midnightblue" stroke="midnightblue" points="295.621,-357.553 285.198,-355.655 292.162,-363.639 295.621,-357.553"/>
</g>
<!-- Node24 -->
<g id="node24" class="node"><title>Node24</title>
<polygon fill="white" stroke="#bfbfbf" points="338.972,-336.5 338.972,-355.5 390.972,-355.5 390.972,-336.5 338.972,-336.5"/>
<text text-anchor="middle" x="364.972" y="-343.5" font-family="Helvetica,sans-Serif" font-size="10.00">stdarg.h</text>
</g>
<!-- Node19&#45;&gt;Node24 -->
<g id="edge38" class="edge"><title>Node19&#45;&gt;Node24</title>
<path fill="none" stroke="midnightblue" d="M364.972,-392.083C364.972,-385.006 364.972,-374.861 364.972,-365.986"/>
<polygon fill="midnightblue" stroke="midnightblue" points="368.472,-365.751 364.972,-355.751 361.472,-365.751 368.472,-365.751"/>
</g>
<!-- Node20&#45;&gt;Node3 -->
<g id="edge28" class="edge"><title>Node20&#45;&gt;Node3</title>
<path fill="none" stroke="midnightblue" d="M290.545,-341.859C335.955,-334.709 443.322,-316.555 475.972,-300 548.428,-263.262 612.972,-260.237 612.972,-179 612.972,-179 612.972,-179 612.972,-121 612.972,-87.8606 601.271,-50.6823 593.275,-29.1445"/>
<polygon fill="midnightblue" stroke="midnightblue" points="596.481,-27.7302 589.613,-19.6622 589.95,-30.2517 596.481,-27.7302"/>
</g>
<!-- Node20&#45;&gt;Node4 -->
<g id="edge29" class="edge"><title>Node20&#45;&gt;Node4</title>
<path fill="none" stroke="midnightblue" d="M249.311,-341.195C186.321,-329.012 0.97201,-288.609 0.97201,-235 0.97201,-235 0.97201,-235 0.97201,-121 0.97201,-90.9022 -2.91603,-75.5452 19.972,-56 67.1789,-15.6878 258.189,-10.9573 337.347,-10.7695"/>
<polygon fill="midnightblue" stroke="midnightblue" points="337.748,-14.2694 347.748,-10.7699 337.748,-7.26944 337.748,-14.2694"/>
</g>
<!-- Node20&#45;&gt;Node5 -->
<g id="edge30" class="edge"><title>Node20&#45;&gt;Node5</title>
<path fill="none" stroke="midnightblue" d="M249.351,-340.999C226.748,-335.559 190.92,-323.663 169.972,-300 128.963,-253.676 118.529,-177.096 115.876,-141.836"/>
<polygon fill="midnightblue" stroke="midnightblue" points="119.352,-141.331 115.242,-131.566 112.365,-141.763 119.352,-141.331"/>
</g>
<!-- Node20&#45;&gt;Node10 -->
<g id="edge31" class="edge"><title>Node20&#45;&gt;Node10</title>
<path fill="none" stroke="midnightblue" d="M269.939,-336.467C270.23,-323.51 272.153,-298.433 281.972,-280 288.165,-268.374 298.411,-257.912 307.663,-250.007"/>
<polygon fill="midnightblue" stroke="midnightblue" points="310.142,-252.505 315.736,-243.507 305.752,-247.053 310.142,-252.505"/>
</g>
<!-- Node20&#45;&gt;Node11 -->
<g id="edge34" class="edge"><title>Node20&#45;&gt;Node11</title>
<path fill="none" stroke="midnightblue" d="M290.717,-342.302C314.517,-337.975 352.502,-327.018 369.972,-300 402.041,-250.403 385.956,-175.51 375.947,-141.26"/>
<polygon fill="midnightblue" stroke="midnightblue" points="379.275,-140.173 372.98,-131.652 372.587,-142.239 379.275,-140.173"/>
</g>
<!-- Node21 -->
<g id="node21" class="node"><title>Node21</title>
<g id="a_node21"><a xlink:href="base__defs_8h.html" target="_top" xlink:title="auto&#45;generated system definitions ">
<polygon fill="white" stroke="black" points="290.972,-280.5 290.972,-299.5 360.972,-299.5 360.972,-280.5 290.972,-280.5"/>
<text text-anchor="middle" x="325.972" y="-287.5" font-family="Helvetica,sans-Serif" font-size="10.00">base_defs.h</text>
</a>
</g>
</g>
<!-- Node20&#45;&gt;Node21 -->
<g id="edge32" class="edge"><title>Node20&#45;&gt;Node21</title>
<path fill="none" stroke="midnightblue" d="M278.969,-336.324C287.166,-328.42 299.478,-316.548 309.444,-306.938"/>
<polygon fill="midnightblue" stroke="midnightblue" points="312.042,-309.295 316.811,-299.834 307.183,-304.256 312.042,-309.295"/>
</g>
<!-- Node22 -->
<g id="node22" class="node"><title>Node22</title>
<g id="a_node22"><a xlink:href="stream_8h.html" target="_top" xlink:title="streams abstraction header file ">
<polygon fill="white" stroke="black" points="179.472,-280.5 179.472,-299.5 234.472,-299.5 234.472,-280.5 179.472,-280.5"/>
<text text-anchor="middle" x="206.972" y="-287.5" font-family="Helvetica,sans-Serif" font-size="10.00">stream.h</text>
</a>
</g>
</g>
<!-- Node20&#45;&gt;Node22 -->
<g id="edge35" class="edge"><title>Node20&#45;&gt;Node22</title>
<path fill="none" stroke="midnightblue" d="M259.85,-336.324C250.446,-328.263 236.228,-316.077 224.903,-306.369"/>
<polygon fill="midnightblue" stroke="midnightblue" points="227.149,-303.684 217.278,-299.834 222.593,-308.999 227.149,-303.684"/>
</g>
<!-- Node21&#45;&gt;Node10 -->
<g id="edge33" class="edge"><title>Node21&#45;&gt;Node10</title>
<path fill="none" stroke="midnightblue" d="M326.302,-280.083C326.564,-273.006 326.94,-262.861 327.269,-253.986"/>
<polygon fill="midnightblue" stroke="midnightblue" points="330.775,-253.874 327.648,-243.751 323.78,-253.615 330.775,-253.874"/>
</g>
<!-- Node22&#45;&gt;Node6 -->
<g id="edge36" class="edge"><title>Node22&#45;&gt;Node6</title>
<path fill="none" stroke="midnightblue" d="M197.416,-280.45C188.884,-272.12 176.983,-258.604 171.972,-244 169.087,-235.592 169.685,-232.59 171.972,-224 186.863,-168.083 226.912,-111.36 248.212,-83.9345"/>
<polygon fill="midnightblue" stroke="midnightblue" points="251.189,-85.8127 254.653,-75.8001 245.701,-81.4672 251.189,-85.8127"/>
</g>
<!-- Node23 -->
<g id="node23" class="node"><title>Node23</title>
<polygon fill="white" stroke="#bfbfbf" points="181.472,-224.5 181.472,-243.5 238.472,-243.5 238.472,-224.5 181.472,-224.5"/>
<text text-anchor="middle" x="209.972" y="-231.5" font-family="Helvetica,sans-Serif" font-size="10.00">pthread.h</text>
</g>
<!-- Node22&#45;&gt;Node23 -->
<g id="edge37" class="edge"><title>Node22&#45;&gt;Node23</title>
<path fill="none" stroke="midnightblue" d="M207.467,-280.083C207.861,-273.006 208.424,-262.861 208.917,-253.986"/>
<polygon fill="midnightblue" stroke="midnightblue" points="212.426,-253.93 209.486,-243.751 205.436,-253.542 212.426,-253.93"/>
</g>
</g>
</svg>
