<?xml version="1.0" encoding="UTF-8" standalone="no"?>
<!DOCTYPE svg PUBLIC "-//W3C//DTD SVG 1.1//EN"
 "http://www.w3.org/Graphics/SVG/1.1/DTD/svg11.dtd">
<!-- Generated by graphviz version 2.38.0 (20140413.2041)
 -->
<!-- Title: spec/mtree_spec.h Pages: 1 -->
<svg width="897pt" height="532pt"
 viewBox="0.00 0.00 896.50 532.00" xmlns="http://www.w3.org/2000/svg" xmlns:xlink="http://www.w3.org/1999/xlink">
<g id="graph0" class="graph" transform="scale(1 1) rotate(0) translate(4 528)">
<title>spec/mtree_spec.h</title>
<polygon fill="white" stroke="none" points="-4,4 -4,-528 892.5,-528 892.5,4 -4,4"/>
<!-- Node1 -->
<g id="node1" class="node"><title>Node1</title>
<polygon fill="#bfbfbf" stroke="black" points="328.5,-504.5 328.5,-523.5 428.5,-523.5 428.5,-504.5 328.5,-504.5"/>
<text text-anchor="middle" x="378.5" y="-511.5" font-family="Helvetica,sans-Serif" font-size="10.00">spec/mtree_spec.h</text>
</g>
<!-- Node2 -->
<g id="node2" class="node"><title>Node2</title>
<g id="a_node2"><a xlink:href="ceptr_8h_source.html" target="_top" xlink:title="../src/ceptr.h">
<polygon fill="white" stroke="black" points="506.5,-336.5 506.5,-355.5 578.5,-355.5 578.5,-336.5 506.5,-336.5"/>
<text text-anchor="middle" x="542.5" y="-343.5" font-family="Helvetica,sans-Serif" font-size="10.00">../src/ceptr.h</text>
</a>
</g>
</g>
<!-- Node1&#45;&gt;Node2 -->
<g id="edge1" class="edge"><title>Node1&#45;&gt;Node2</title>
<path fill="none" stroke="midnightblue" d="M398.422,-504.309C429.52,-489.737 489.451,-457.44 522.5,-412 532.374,-398.423 537.45,-379.876 540.011,-366.068"/>
<polygon fill="midnightblue" stroke="midnightblue" points="543.53,-366.219 541.621,-355.798 536.614,-365.135 543.53,-366.219"/>
</g>
<!-- Node23 -->
<g id="node23" class="node"><title>Node23</title>
<g id="a_node23"><a xlink:href="receptor_8h.html" target="_top" xlink:title="receptor implementation header file ">
<polygon fill="white" stroke="black" points="160.5,-392.5 160.5,-411.5 246.5,-411.5 246.5,-392.5 160.5,-392.5"/>
<text text-anchor="middle" x="203.5" y="-399.5" font-family="Helvetica,sans-Serif" font-size="10.00">../src/receptor.h</text>
</a>
</g>
</g>
<!-- Node1&#45;&gt;Node23 -->
<g id="edge39" class="edge"><title>Node1&#45;&gt;Node23</title>
<path fill="none" stroke="midnightblue" d="M364.768,-504.368C334.61,-485.412 262.365,-440.001 225.681,-416.942"/>
<polygon fill="midnightblue" stroke="midnightblue" points="227.497,-413.95 217.168,-411.591 223.772,-419.876 227.497,-413.95"/>
</g>
<!-- Node29 -->
<g id="node29" class="node"><title>Node29</title>
<g id="a_node29"><a xlink:href="http__example_8h.html" target="_top" xlink:title="http_example.h">
<polygon fill="white" stroke="black" points="337,-448.5 337,-467.5 420,-467.5 420,-448.5 337,-448.5"/>
<text text-anchor="middle" x="378.5" y="-455.5" font-family="Helvetica,sans-Serif" font-size="10.00">http_example.h</text>
</a>
</g>
</g>
<!-- Node1&#45;&gt;Node29 -->
<g id="edge50" class="edge"><title>Node1&#45;&gt;Node29</title>
<path fill="none" stroke="midnightblue" d="M378.5,-504.083C378.5,-497.006 378.5,-486.861 378.5,-477.986"/>
<polygon fill="midnightblue" stroke="midnightblue" points="382,-477.751 378.5,-467.751 375,-477.751 382,-477.751"/>
</g>
<!-- Node3 -->
<g id="node3" class="node"><title>Node3</title>
<polygon fill="white" stroke="#bfbfbf" points="306,-0.5 306,-19.5 355,-19.5 355,-0.5 306,-0.5"/>
<text text-anchor="middle" x="330.5" y="-7.5" font-family="Helvetica,sans-Serif" font-size="10.00">string.h</text>
</g>
<!-- Node2&#45;&gt;Node3 -->
<g id="edge2" class="edge"><title>Node2&#45;&gt;Node3</title>
<path fill="none" stroke="midnightblue" d="M578.598,-344.325C621.848,-341.967 695.033,-332.928 747.5,-300 802.4,-265.546 847.53,-220.486 809.5,-168 755.382,-93.3113 465.63,-35.176 364.977,-16.9719"/>
<polygon fill="midnightblue" stroke="midnightblue" points="365.48,-13.5064 355.02,-15.1902 364.247,-20.397 365.48,-13.5064"/>
</g>
<!-- Node4 -->
<g id="node4" class="node"><title>Node4</title>
<polygon fill="white" stroke="#bfbfbf" points="754.5,-168.5 754.5,-187.5 800.5,-187.5 800.5,-168.5 754.5,-168.5"/>
<text text-anchor="middle" x="777.5" y="-175.5" font-family="Helvetica,sans-Serif" font-size="10.00">stdio.h</text>
</g>
<!-- Node2&#45;&gt;Node4 -->
<g id="edge3" class="edge"><title>Node2&#45;&gt;Node4</title>
<path fill="none" stroke="midnightblue" d="M578.835,-341.1C615.505,-335.944 672.805,-324.468 716.5,-300 747.764,-282.493 759.741,-276.652 774.5,-244 781.043,-229.524 781.303,-211.338 780.208,-197.886"/>
<polygon fill="midnightblue" stroke="midnightblue" points="783.679,-197.429 779.078,-187.886 776.723,-198.215 783.679,-197.429"/>
</g>
<!-- Node5 -->
<g id="node5" class="node"><title>Node5</title>
<polygon fill="white" stroke="#bfbfbf" points="537.5,-0.5 537.5,-19.5 585.5,-19.5 585.5,-0.5 537.5,-0.5"/>
<text text-anchor="middle" x="561.5" y="-7.5" font-family="Helvetica,sans-Serif" font-size="10.00">stdlib.h</text>
</g>
<!-- Node2&#45;&gt;Node5 -->
<g id="edge4" class="edge"><title>Node2&#45;&gt;Node5</title>
<path fill="none" stroke="midnightblue" d="M578.742,-344.495C653.434,-342.742 821.142,-334.917 864.5,-300 888.485,-280.685 888.5,-265.795 888.5,-235 888.5,-235 888.5,-235 888.5,-121 888.5,-59.6827 679.336,-26.0849 595.578,-15.089"/>
<polygon fill="midnightblue" stroke="midnightblue" points="595.909,-11.603 585.545,-13.8018 595.018,-18.546 595.909,-11.603"/>
</g>
<!-- Node6 -->
<g id="node6" class="node"><title>Node6</title>
<g id="a_node6"><a xlink:href="ceptr__error_8h_source.html" target="_top" xlink:title="ceptr_error.h">
<polygon fill="white" stroke="black" points="507,-224.5 507,-243.5 578,-243.5 578,-224.5 507,-224.5"/>
<text text-anchor="middle" x="542.5" y="-231.5" font-family="Helvetica,sans-Serif" font-size="10.00">ceptr_error.h</text>
</a>
</g>
</g>
<!-- Node2&#45;&gt;Node6 -->
<g id="edge5" class="edge"><title>Node2&#45;&gt;Node6</title>
<path fill="none" stroke="midnightblue" d="M542.5,-336.368C542.5,-318.617 542.5,-277.666 542.5,-253.597"/>
<polygon fill="midnightblue" stroke="midnightblue" points="546,-253.591 542.5,-243.591 539,-253.591 546,-253.591"/>
</g>
<!-- Node10 -->
<g id="node10" class="node"><title>Node10</title>
<g id="a_node10"><a xlink:href="tree_8h.html" target="_top" xlink:title="semantic trees header file ">
<polygon fill="white" stroke="black" points="207,-280.5 207,-299.5 248,-299.5 248,-280.5 207,-280.5"/>
<text text-anchor="middle" x="227.5" y="-287.5" font-family="Helvetica,sans-Serif" font-size="10.00">tree.h</text>
</a>
</g>
</g>
<!-- Node2&#45;&gt;Node10 -->
<g id="edge10" class="edge"><title>Node2&#45;&gt;Node10</title>
<path fill="none" stroke="midnightblue" d="M506.365,-338.806C443.839,-328.087 316.56,-306.267 258.103,-296.246"/>
<polygon fill="midnightblue" stroke="midnightblue" points="258.468,-292.758 248.02,-294.518 257.285,-299.657 258.468,-292.758"/>
</g>
<!-- Node19 -->
<g id="node19" class="node"><title>Node19</title>
<g id="a_node19"><a xlink:href="mtree_8h.html" target="_top" xlink:title="semantic tree matrix header file `` ">
<polygon fill="white" stroke="black" points="434.5,-280.5 434.5,-299.5 484.5,-299.5 484.5,-280.5 434.5,-280.5"/>
<text text-anchor="middle" x="459.5" y="-287.5" font-family="Helvetica,sans-Serif" font-size="10.00">mtree.h</text>
</a>
</g>
</g>
<!-- Node2&#45;&gt;Node19 -->
<g id="edge27" class="edge"><title>Node2&#45;&gt;Node19</title>
<path fill="none" stroke="midnightblue" d="M529.165,-336.324C516.338,-327.979 496.715,-315.212 481.56,-305.352"/>
<polygon fill="midnightblue" stroke="midnightblue" points="483.093,-302.174 472.802,-299.655 479.276,-308.042 483.093,-302.174"/>
</g>
<!-- Node20 -->
<g id="node20" class="node"><title>Node20</title>
<g id="a_node20"><a xlink:href="util_8h.html" target="_top" xlink:title="util.h">
<polygon fill="white" stroke="black" points="669.5,-280.5 669.5,-299.5 707.5,-299.5 707.5,-280.5 669.5,-280.5"/>
<text text-anchor="middle" x="688.5" y="-287.5" font-family="Helvetica,sans-Serif" font-size="10.00">util.h</text>
</a>
</g>
</g>
<!-- Node2&#45;&gt;Node20 -->
<g id="edge35" class="edge"><title>Node2&#45;&gt;Node20</title>
<path fill="none" stroke="midnightblue" d="M565.634,-336.444C591.128,-327.014 632.164,-311.836 659.717,-301.646"/>
<polygon fill="midnightblue" stroke="midnightblue" points="661.039,-304.889 669.204,-298.137 658.611,-298.323 661.039,-304.889"/>
</g>
<!-- Node6&#45;&gt;Node4 -->
<g id="edge6" class="edge"><title>Node6&#45;&gt;Node4</title>
<path fill="none" stroke="midnightblue" d="M578.191,-224.799C623.362,-214.419 700.555,-196.681 744.439,-186.597"/>
<polygon fill="midnightblue" stroke="midnightblue" points="745.355,-189.978 754.317,-184.327 743.788,-183.156 745.355,-189.978"/>
</g>
<!-- Node7 -->
<g id="node7" class="node"><title>Node7</title>
<polygon fill="white" stroke="#bfbfbf" points="578.5,-168.5 578.5,-187.5 628.5,-187.5 628.5,-168.5 578.5,-168.5"/>
<text text-anchor="middle" x="603.5" y="-175.5" font-family="Helvetica,sans-Serif" font-size="10.00">signal.h</text>
</g>
<!-- Node6&#45;&gt;Node7 -->
<g id="edge7" class="edge"><title>Node6&#45;&gt;Node7</title>
<path fill="none" stroke="midnightblue" d="M552.301,-224.324C561.318,-216.341 574.906,-204.313 585.818,-194.653"/>
<polygon fill="midnightblue" stroke="midnightblue" points="588.353,-197.083 593.521,-187.834 583.713,-191.842 588.353,-197.083"/>
</g>
<!-- Node8 -->
<g id="node8" class="node"><title>Node8</title>
<polygon fill="white" stroke="#bfbfbf" points="646.5,-168.5 646.5,-187.5 698.5,-187.5 698.5,-168.5 646.5,-168.5"/>
<text text-anchor="middle" x="672.5" y="-175.5" font-family="Helvetica,sans-Serif" font-size="10.00">assert.h</text>
</g>
<!-- Node6&#45;&gt;Node8 -->
<g id="edge8" class="edge"><title>Node6&#45;&gt;Node8</title>
<path fill="none" stroke="midnightblue" d="M563.099,-224.444C584.493,-215.557 618.181,-201.563 642.524,-191.451"/>
<polygon fill="midnightblue" stroke="midnightblue" points="644.105,-194.585 651.997,-187.516 641.42,-188.12 644.105,-194.585"/>
</g>
<!-- Node9 -->
<g id="node9" class="node"><title>Node9</title>
<polygon fill="white" stroke="#bfbfbf" points="506.5,-168.5 506.5,-187.5 560.5,-187.5 560.5,-168.5 506.5,-168.5"/>
<text text-anchor="middle" x="533.5" y="-175.5" font-family="Helvetica,sans-Serif" font-size="10.00">setjmp.h</text>
</g>
<!-- Node6&#45;&gt;Node9 -->
<g id="edge9" class="edge"><title>Node6&#45;&gt;Node9</title>
<path fill="none" stroke="midnightblue" d="M541.014,-224.083C539.821,-216.927 538.106,-206.635 536.615,-197.691"/>
<polygon fill="midnightblue" stroke="midnightblue" points="540.055,-197.04 534.959,-187.751 533.15,-198.19 540.055,-197.04"/>
</g>
<!-- Node10&#45;&gt;Node3 -->
<g id="edge11" class="edge"><title>Node10&#45;&gt;Node3</title>
<path fill="none" stroke="midnightblue" d="M206.918,-286.205C167.229,-280.378 82.3593,-265.651 63.5,-244 8.24388,-180.566 -13.2187,-119.898 41.5,-56 73.8579,-18.2137 225.988,-11.908 295.587,-11.029"/>
<polygon fill="midnightblue" stroke="midnightblue" points="295.66,-14.5286 305.626,-10.933 295.593,-7.52888 295.66,-14.5286"/>
</g>
<!-- Node10&#45;&gt;Node5 -->
<g id="edge12" class="edge"><title>Node10&#45;&gt;Node5</title>
<path fill="none" stroke="midnightblue" d="M206.849,-282.308C189.54,-275.542 165.748,-263.296 153.5,-244 108.681,-173.392 99.0332,-111.606 161.5,-56 188.613,-31.8645 435.203,-17.2641 527.148,-12.6197"/>
<polygon fill="midnightblue" stroke="midnightblue" points="527.505,-16.1064 537.319,-12.1149 527.158,-9.11498 527.505,-16.1064"/>
</g>
<!-- Node10&#45;&gt;Node6 -->
<g id="edge13" class="edge"><title>Node10&#45;&gt;Node6</title>
<path fill="none" stroke="midnightblue" d="M248.168,-285.457C298.291,-276.864 427.284,-254.751 496.684,-242.854"/>
<polygon fill="midnightblue" stroke="midnightblue" points="497.618,-246.245 506.882,-241.106 496.435,-239.346 497.618,-246.245"/>
</g>
<!-- Node11 -->
<g id="node11" class="node"><title>Node11</title>
<g id="a_node11"><a xlink:href="sys__symbols_8h.html" target="_top" xlink:title="Defines hard&#45;coded system defined symbols. ">
<polygon fill="white" stroke="black" points="291,-224.5 291,-243.5 374,-243.5 374,-224.5 291,-224.5"/>
<text text-anchor="middle" x="332.5" y="-231.5" font-family="Helvetica,sans-Serif" font-size="10.00">sys_symbols.h</text>
</a>
</g>
</g>
<!-- Node10&#45;&gt;Node11 -->
<g id="edge14" class="edge"><title>Node10&#45;&gt;Node11</title>
<path fill="none" stroke="midnightblue" d="M244.37,-280.324C261.209,-271.664 287.307,-258.242 306.738,-248.249"/>
<polygon fill="midnightblue" stroke="midnightblue" points="308.38,-251.341 315.672,-243.655 305.178,-245.116 308.38,-251.341"/>
</g>
<!-- Node12 -->
<g id="node12" class="node"><title>Node12</title>
<g id="a_node12"><a xlink:href="sys__structures_8h.html" target="_top" xlink:title="Defines hard&#45;coded system defined structures. ">
<polygon fill="white" stroke="black" points="162,-168.5 162,-187.5 251,-187.5 251,-168.5 162,-168.5"/>
<text text-anchor="middle" x="206.5" y="-175.5" font-family="Helvetica,sans-Serif" font-size="10.00">sys_structures.h</text>
</a>
</g>
</g>
<!-- Node10&#45;&gt;Node12 -->
<g id="edge24" class="edge"><title>Node10&#45;&gt;Node12</title>
<path fill="none" stroke="midnightblue" d="M210.302,-280.386C197.249,-272.794 180.266,-260.389 172.5,-244 164.461,-227.036 176.953,-208.057 188.997,-195.008"/>
<polygon fill="midnightblue" stroke="midnightblue" points="191.677,-197.277 196.251,-187.72 186.715,-192.339 191.677,-197.277"/>
</g>
<!-- Node13 -->
<g id="node13" class="node"><title>Node13</title>
<g id="a_node13"><a xlink:href="ceptr__types_8h_source.html" target="_top" xlink:title="ceptr_types.h">
<polygon fill="white" stroke="black" points="157.5,-112.5 157.5,-131.5 233.5,-131.5 233.5,-112.5 157.5,-112.5"/>
<text text-anchor="middle" x="195.5" y="-119.5" font-family="Helvetica,sans-Serif" font-size="10.00">ceptr_types.h</text>
</a>
</g>
</g>
<!-- Node10&#45;&gt;Node13 -->
<g id="edge26" class="edge"><title>Node10&#45;&gt;Node13</title>
<path fill="none" stroke="midnightblue" d="M209.877,-280.371C196.032,-272.695 177.338,-260.183 166.5,-244 152.225,-222.684 155.635,-213.463 152.5,-188 151.414,-179.178 149.192,-176.25 152.5,-168 157.18,-156.328 166.491,-145.969 175.256,-138.141"/>
<polygon fill="midnightblue" stroke="midnightblue" points="177.552,-140.783 183.003,-131.698 173.076,-135.401 177.552,-140.783"/>
</g>
<!-- Node18 -->
<g id="node18" class="node"><title>Node18</title>
<g id="a_node18"><a xlink:href="sys__processes_8h.html" target="_top" xlink:title="Defines hard&#45;coded system defined processes. ">
<polygon fill="white" stroke="black" points="182,-224.5 182,-243.5 273,-243.5 273,-224.5 182,-224.5"/>
<text text-anchor="middle" x="227.5" y="-231.5" font-family="Helvetica,sans-Serif" font-size="10.00">sys_processes.h</text>
</a>
</g>
</g>
<!-- Node10&#45;&gt;Node18 -->
<g id="edge25" class="edge"><title>Node10&#45;&gt;Node18</title>
<path fill="none" stroke="midnightblue" d="M227.5,-280.083C227.5,-273.006 227.5,-262.861 227.5,-253.986"/>
<polygon fill="midnightblue" stroke="midnightblue" points="231,-253.751 227.5,-243.751 224,-253.751 231,-253.751"/>
</g>
<!-- Node11&#45;&gt;Node12 -->
<g id="edge15" class="edge"><title>Node11&#45;&gt;Node12</title>
<path fill="none" stroke="midnightblue" d="M312.535,-224.444C291.891,-215.596 259.437,-201.687 235.868,-191.586"/>
<polygon fill="midnightblue" stroke="midnightblue" points="236.942,-188.239 226.372,-187.516 234.184,-194.673 236.942,-188.239"/>
</g>
<!-- Node11&#45;&gt;Node13 -->
<g id="edge23" class="edge"><title>Node11&#45;&gt;Node13</title>
<path fill="none" stroke="midnightblue" d="M323.348,-224.231C309.804,-211.4 283.439,-186.972 259.5,-168 245.794,-157.138 229.687,-145.82 217.06,-137.251"/>
<polygon fill="midnightblue" stroke="midnightblue" points="218.817,-134.215 208.565,-131.544 214.913,-140.026 218.817,-134.215"/>
</g>
<!-- Node12&#45;&gt;Node13 -->
<g id="edge16" class="edge"><title>Node12&#45;&gt;Node13</title>
<path fill="none" stroke="midnightblue" d="M204.684,-168.083C203.226,-160.927 201.129,-150.635 199.307,-141.691"/>
<polygon fill="midnightblue" stroke="midnightblue" points="202.708,-140.851 197.283,-131.751 195.849,-142.248 202.708,-140.851"/>
</g>
<!-- Node14 -->
<g id="node14" class="node"><title>Node14</title>
<polygon fill="white" stroke="#bfbfbf" points="171,-56.5 171,-75.5 220,-75.5 220,-56.5 171,-56.5"/>
<text text-anchor="middle" x="195.5" y="-63.5" font-family="Helvetica,sans-Serif" font-size="10.00">stdint.h</text>
</g>
<!-- Node13&#45;&gt;Node14 -->
<g id="edge17" class="edge"><title>Node13&#45;&gt;Node14</title>
<path fill="none" stroke="midnightblue" d="M195.5,-112.083C195.5,-105.006 195.5,-94.8611 195.5,-85.9865"/>
<polygon fill="midnightblue" stroke="midnightblue" points="199,-85.751 195.5,-75.7511 192,-85.7511 199,-85.751"/>
</g>
<!-- Node15 -->
<g id="node15" class="node"><title>Node15</title>
<g id="a_node15"><a xlink:href="uthash_8h_source.html" target="_top" xlink:title="uthash.h">
<polygon fill="white" stroke="black" points="50.5,-56.5 50.5,-75.5 104.5,-75.5 104.5,-56.5 50.5,-56.5"/>
<text text-anchor="middle" x="77.5" y="-63.5" font-family="Helvetica,sans-Serif" font-size="10.00">uthash.h</text>
</a>
</g>
</g>
<!-- Node13&#45;&gt;Node15 -->
<g id="edge18" class="edge"><title>Node13&#45;&gt;Node15</title>
<path fill="none" stroke="midnightblue" d="M176.803,-112.444C157.556,-103.636 127.348,-89.8116 105.3,-79.722"/>
<polygon fill="midnightblue" stroke="midnightblue" points="106.66,-76.4951 96.11,-75.5164 103.747,-82.8603 106.66,-76.4951"/>
</g>
<!-- Node15&#45;&gt;Node3 -->
<g id="edge19" class="edge"><title>Node15&#45;&gt;Node3</title>
<path fill="none" stroke="midnightblue" d="M104.841,-58.9706C109.401,-57.973 114.083,-56.9535 118.5,-56 180.885,-42.532 253.673,-27.1551 295.689,-18.3119"/>
<polygon fill="midnightblue" stroke="midnightblue" points="296.618,-21.6933 305.683,-16.2096 295.177,-14.8432 296.618,-21.6933"/>
</g>
<!-- Node15&#45;&gt;Node5 -->
<g id="edge21" class="edge"><title>Node15&#45;&gt;Node5</title>
<path fill="none" stroke="midnightblue" d="M104.764,-58.5578C109.333,-57.6098 114.038,-56.7139 118.5,-56 269.833,-31.7861 452.452,-18.0881 527.143,-13.1402"/>
<polygon fill="midnightblue" stroke="midnightblue" points="527.613,-16.6171 537.364,-12.4734 527.157,-9.63193 527.613,-16.6171"/>
</g>
<!-- Node16 -->
<g id="node16" class="node"><title>Node16</title>
<polygon fill="white" stroke="#bfbfbf" points="88.5,-0.5 88.5,-19.5 140.5,-19.5 140.5,-0.5 88.5,-0.5"/>
<text text-anchor="middle" x="114.5" y="-7.5" font-family="Helvetica,sans-Serif" font-size="10.00">stddef.h</text>
</g>
<!-- Node15&#45;&gt;Node16 -->
<g id="edge20" class="edge"><title>Node15&#45;&gt;Node16</title>
<path fill="none" stroke="midnightblue" d="M83.6098,-56.083C88.7822,-48.5341 96.3461,-37.4948 102.694,-28.2298"/>
<polygon fill="midnightblue" stroke="midnightblue" points="105.739,-29.9787 108.504,-19.7511 99.9643,-26.0221 105.739,-29.9787"/>
</g>
<!-- Node17 -->
<g id="node17" class="node"><title>Node17</title>
<polygon fill="white" stroke="#bfbfbf" points="11,-0.5 11,-19.5 70,-19.5 70,-0.5 11,-0.5"/>
<text text-anchor="middle" x="40.5" y="-7.5" font-family="Helvetica,sans-Serif" font-size="10.00">inttypes.h</text>
</g>
<!-- Node15&#45;&gt;Node17 -->
<g id="edge22" class="edge"><title>Node15&#45;&gt;Node17</title>
<path fill="none" stroke="midnightblue" d="M71.3902,-56.083C66.2178,-48.5341 58.6539,-37.4948 52.3056,-28.2298"/>
<polygon fill="midnightblue" stroke="midnightblue" points="55.0357,-26.0221 46.4961,-19.7511 49.2612,-29.9787 55.0357,-26.0221"/>
</g>
<!-- Node19&#45;&gt;Node3 -->
<g id="edge28" class="edge"><title>Node19&#45;&gt;Node3</title>
<path fill="none" stroke="midnightblue" d="M462.062,-280.249C467.249,-261.738 478.5,-217.179 478.5,-179 478.5,-179 478.5,-179 478.5,-121 478.5,-64.7172 408.701,-33.8604 364.971,-20.0511"/>
<polygon fill="midnightblue" stroke="midnightblue" points="365.856,-16.6625 355.272,-17.1305 363.838,-23.3652 365.856,-16.6625"/>
</g>
<!-- Node19&#45;&gt;Node5 -->
<g id="edge29" class="edge"><title>Node19&#45;&gt;Node5</title>
<path fill="none" stroke="midnightblue" d="M484.701,-281.17C510.603,-272.868 551.918,-258.915 586.5,-244 604.387,-236.285 607.907,-232.364 625.5,-224 661.447,-206.911 685.736,-221.324 707.5,-188 750.357,-122.38 641.094,-53.0732 588.226,-24.5085"/>
<polygon fill="midnightblue" stroke="midnightblue" points="589.536,-21.2419 579.06,-19.6591 586.262,-27.4293 589.536,-21.2419"/>
</g>
<!-- Node19&#45;&gt;Node6 -->
<g id="edge30" class="edge"><title>Node19&#45;&gt;Node6</title>
<path fill="none" stroke="midnightblue" d="M472.835,-280.324C485.662,-271.979 505.285,-259.212 520.44,-249.352"/>
<polygon fill="midnightblue" stroke="midnightblue" points="522.724,-252.042 529.198,-243.655 518.907,-246.174 522.724,-252.042"/>
</g>
<!-- Node19&#45;&gt;Node11 -->
<g id="edge31" class="edge"><title>Node19&#45;&gt;Node11</title>
<path fill="none" stroke="midnightblue" d="M439.376,-280.444C418.476,-271.557 385.565,-257.563 361.784,-247.451"/>
<polygon fill="midnightblue" stroke="midnightblue" points="363.102,-244.208 352.529,-243.516 360.362,-250.65 363.102,-244.208"/>
</g>
<!-- Node19&#45;&gt;Node12 -->
<g id="edge32" class="edge"><title>Node19&#45;&gt;Node12</title>
<path fill="none" stroke="midnightblue" d="M451.865,-280.421C438.967,-266.463 411.427,-238.902 382.5,-224 344.478,-204.413 297.35,-192.95 261.433,-186.5"/>
<polygon fill="midnightblue" stroke="midnightblue" points="261.592,-182.976 251.144,-184.734 260.408,-189.875 261.592,-182.976"/>
</g>
<!-- Node19&#45;&gt;Node13 -->
<g id="edge34" class="edge"><title>Node19&#45;&gt;Node13</title>
<path fill="none" stroke="midnightblue" d="M454.985,-280.348C447.531,-266.777 431.472,-240.352 411.5,-224 357.338,-179.656 280.488,-149.827 234.553,-134.685"/>
<polygon fill="midnightblue" stroke="midnightblue" points="235.553,-131.331 224.961,-131.589 233.403,-137.992 235.553,-131.331"/>
</g>
<!-- Node19&#45;&gt;Node18 -->
<g id="edge33" class="edge"><title>Node19&#45;&gt;Node18</title>
<path fill="none" stroke="midnightblue" d="M434.23,-283.118C395.856,-274.186 322.262,-257.057 274.032,-245.831"/>
<polygon fill="midnightblue" stroke="midnightblue" points="274.68,-242.388 264.147,-243.53 273.093,-249.206 274.68,-242.388"/>
</g>
<!-- Node20&#45;&gt;Node4 -->
<g id="edge37" class="edge"><title>Node20&#45;&gt;Node4</title>
<path fill="none" stroke="midnightblue" d="M707.142,-280.413C721.875,-272.761 741.977,-260.262 754.5,-244 764.989,-230.38 770.947,-211.586 774.158,-197.709"/>
<polygon fill="midnightblue" stroke="midnightblue" points="777.604,-198.325 776.178,-187.827 770.746,-196.924 777.604,-198.325"/>
</g>
<!-- Node21 -->
<g id="node21" class="node"><title>Node21</title>
<polygon fill="white" stroke="#bfbfbf" points="697,-224.5 697,-243.5 746,-243.5 746,-224.5 697,-224.5"/>
<text text-anchor="middle" x="721.5" y="-231.5" font-family="Helvetica,sans-Serif" font-size="10.00">ctype.h</text>
</g>
<!-- Node20&#45;&gt;Node21 -->
<g id="edge36" class="edge"><title>Node20&#45;&gt;Node21</title>
<path fill="none" stroke="midnightblue" d="M693.949,-280.083C698.514,-272.613 705.168,-261.724 710.793,-252.52"/>
<polygon fill="midnightblue" stroke="midnightblue" points="713.924,-254.109 716.152,-243.751 707.951,-250.459 713.924,-254.109"/>
</g>
<!-- Node22 -->
<g id="node22" class="node"><title>Node22</title>
<polygon fill="white" stroke="#bfbfbf" points="634.5,-224.5 634.5,-243.5 678.5,-243.5 678.5,-224.5 634.5,-224.5"/>
<text text-anchor="middle" x="656.5" y="-231.5" font-family="Helvetica,sans-Serif" font-size="10.00">time.h</text>
</g>
<!-- Node20&#45;&gt;Node22 -->
<g id="edge38" class="edge"><title>Node20&#45;&gt;Node22</title>
<path fill="none" stroke="midnightblue" d="M683.216,-280.083C678.789,-272.613 672.337,-261.724 666.882,-252.52"/>
<polygon fill="midnightblue" stroke="midnightblue" points="669.795,-250.57 661.686,-243.751 663.773,-254.138 669.795,-250.57"/>
</g>
<!-- Node23&#45;&gt;Node10 -->
<g id="edge40" class="edge"><title>Node23&#45;&gt;Node10</title>
<path fill="none" stroke="midnightblue" d="M184.166,-392.41C161.14,-380.899 127.447,-359.213 141.5,-336 153.539,-316.114 177.576,-304.592 197.185,-298.195"/>
<polygon fill="midnightblue" stroke="midnightblue" points="198.356,-301.499 206.948,-295.3 196.366,-294.788 198.356,-301.499"/>
</g>
<!-- Node24 -->
<g id="node24" class="node"><title>Node24</title>
<g id="a_node24"><a xlink:href="def_8h.html" target="_top" xlink:title="header file for symbol and structure definition functions ">
<polygon fill="white" stroke="black" points="335.5,-336.5 335.5,-355.5 373.5,-355.5 373.5,-336.5 335.5,-336.5"/>
<text text-anchor="middle" x="354.5" y="-343.5" font-family="Helvetica,sans-Serif" font-size="10.00">def.h</text>
</a>
</g>
</g>
<!-- Node23&#45;&gt;Node24 -->
<g id="edge41" class="edge"><title>Node23&#45;&gt;Node24</title>
<path fill="none" stroke="midnightblue" d="M227.426,-392.444C254.09,-382.908 297.191,-367.495 325.687,-357.304"/>
<polygon fill="midnightblue" stroke="midnightblue" points="327.229,-360.47 335.467,-353.807 324.872,-353.878 327.229,-360.47"/>
</g>
<!-- Node26 -->
<g id="node26" class="node"><title>Node26</title>
<g id="a_node26"><a xlink:href="label_8h.html" target="_top" xlink:title="Label tables map human readable text strings to parts of semantic trees. ">
<polygon fill="white" stroke="black" points="0,-280.5 0,-299.5 45,-299.5 45,-280.5 0,-280.5"/>
<text text-anchor="middle" x="22.5" y="-287.5" font-family="Helvetica,sans-Serif" font-size="10.00">label.h</text>
</a>
</g>
</g>
<!-- Node23&#45;&gt;Node26 -->
<g id="edge44" class="edge"><title>Node23&#45;&gt;Node26</title>
<path fill="none" stroke="midnightblue" d="M189.297,-392.368C158.105,-373.412 83.3828,-328.001 45.4415,-304.942"/>
<polygon fill="midnightblue" stroke="midnightblue" points="47.0002,-301.794 36.6368,-299.591 43.3647,-307.776 47.0002,-301.794"/>
</g>
<!-- Node27 -->
<g id="node27" class="node"><title>Node27</title>
<g id="a_node27"><a xlink:href="process_8h.html" target="_top" xlink:title="processing header files ">
<polygon fill="white" stroke="black" points="151,-336.5 151,-355.5 210,-355.5 210,-336.5 151,-336.5"/>
<text text-anchor="middle" x="180.5" y="-343.5" font-family="Helvetica,sans-Serif" font-size="10.00">process.h</text>
</a>
</g>
</g>
<!-- Node23&#45;&gt;Node27 -->
<g id="edge46" class="edge"><title>Node23&#45;&gt;Node27</title>
<path fill="none" stroke="midnightblue" d="M199.702,-392.083C196.587,-384.77 192.077,-374.181 188.211,-365.103"/>
<polygon fill="midnightblue" stroke="midnightblue" points="191.366,-363.58 184.227,-355.751 184.926,-366.323 191.366,-363.58"/>
</g>
<!-- Node28 -->
<g id="node28" class="node"><title>Node28</title>
<g id="a_node28"><a xlink:href="scape_8h.html" target="_top" xlink:title="scape header files ">
<polygon fill="white" stroke="black" points="228,-336.5 228,-355.5 279,-355.5 279,-336.5 228,-336.5"/>
<text text-anchor="middle" x="253.5" y="-343.5" font-family="Helvetica,sans-Serif" font-size="10.00">scape.h</text>
</a>
</g>
</g>
<!-- Node23&#45;&gt;Node28 -->
<g id="edge48" class="edge"><title>Node23&#45;&gt;Node28</title>
<path fill="none" stroke="midnightblue" d="M211.756,-392.083C218.965,-384.298 229.61,-372.801 238.346,-363.367"/>
<polygon fill="midnightblue" stroke="midnightblue" points="241.171,-365.467 245.397,-355.751 236.035,-360.711 241.171,-365.467"/>
</g>
<!-- Node24&#45;&gt;Node10 -->
<g id="edge42" class="edge"><title>Node24&#45;&gt;Node10</title>
<path fill="none" stroke="midnightblue" d="M335.487,-336.916C314.809,-328.123 281.483,-313.953 257.317,-303.678"/>
<polygon fill="midnightblue" stroke="midnightblue" points="258.479,-300.369 247.907,-299.677 255.74,-306.811 258.479,-300.369"/>
</g>
<!-- Node25 -->
<g id="node25" class="node"><title>Node25</title>
<polygon fill="white" stroke="#bfbfbf" points="328.5,-280.5 328.5,-299.5 380.5,-299.5 380.5,-280.5 328.5,-280.5"/>
<text text-anchor="middle" x="354.5" y="-287.5" font-family="Helvetica,sans-Serif" font-size="10.00">stdarg.h</text>
</g>
<!-- Node24&#45;&gt;Node25 -->
<g id="edge43" class="edge"><title>Node24&#45;&gt;Node25</title>
<path fill="none" stroke="midnightblue" d="M354.5,-336.083C354.5,-329.006 354.5,-318.861 354.5,-309.986"/>
<polygon fill="midnightblue" stroke="midnightblue" points="358,-309.751 354.5,-299.751 351,-309.751 358,-309.751"/>
</g>
<!-- Node26&#45;&gt;Node13 -->
<g id="edge45" class="edge"><title>Node26&#45;&gt;Node13</title>
<path fill="none" stroke="midnightblue" d="M31.2433,-280.443C51.5539,-260.586 103.544,-209.874 147.5,-168 157.863,-158.128 169.58,-147.14 178.844,-138.493"/>
<polygon fill="midnightblue" stroke="midnightblue" points="181.328,-140.962 186.257,-131.583 176.555,-135.841 181.328,-140.962"/>
</g>
<!-- Node27&#45;&gt;Node10 -->
<g id="edge47" class="edge"><title>Node27&#45;&gt;Node10</title>
<path fill="none" stroke="midnightblue" d="M188.261,-336.083C195.037,-328.298 205.043,-316.801 213.255,-307.367"/>
<polygon fill="midnightblue" stroke="midnightblue" points="215.958,-309.592 219.883,-299.751 210.678,-304.996 215.958,-309.592"/>
</g>
<!-- Node28&#45;&gt;Node10 -->
<g id="edge49" class="edge"><title>Node28&#45;&gt;Node10</title>
<path fill="none" stroke="midnightblue" d="M249.207,-336.083C245.648,-328.691 240.478,-317.953 236.076,-308.811"/>
<polygon fill="midnightblue" stroke="midnightblue" points="239.205,-307.243 231.713,-299.751 232.898,-310.279 239.205,-307.243"/>
</g>
<!-- Node29&#45;&gt;Node2 -->
<g id="edge51" class="edge"><title>Node29&#45;&gt;Node2</title>
<path fill="none" stroke="midnightblue" d="M384.174,-448.299C393.451,-434.662 413.096,-408.147 435.5,-392 455.824,-377.353 481.64,-366.319 502.822,-358.844"/>
<polygon fill="midnightblue" stroke="midnightblue" points="504.153,-362.089 512.497,-355.56 501.903,-355.46 504.153,-362.089"/>
</g>
<!-- Node29&#45;&gt;Node23 -->
<g id="edge52" class="edge"><title>Node29&#45;&gt;Node23</title>
<path fill="none" stroke="midnightblue" d="M350.771,-448.444C321.074,-439.28 273.784,-424.688 240.831,-414.519"/>
<polygon fill="midnightblue" stroke="midnightblue" points="241.687,-411.121 231.1,-411.516 239.623,-417.809 241.687,-411.121"/>
</g>
<!-- Node29&#45;&gt;Node24 -->
<g id="edge53" class="edge"><title>Node29&#45;&gt;Node24</title>
<path fill="none" stroke="midnightblue" d="M376.617,-448.368C372.744,-430.617 363.809,-389.666 358.558,-365.597"/>
<polygon fill="midnightblue" stroke="midnightblue" points="361.926,-364.615 356.374,-355.591 355.087,-366.108 361.926,-364.615"/>
</g>
<!-- Node30 -->
<g id="node30" class="node"><title>Node30</title>
<g id="a_node30"><a xlink:href="semtrex_8h.html" target="_top" xlink:title="Semantic tree regular expression header file. ">
<polygon fill="white" stroke="black" points="264.5,-392.5 264.5,-411.5 350.5,-411.5 350.5,-392.5 264.5,-392.5"/>
<text text-anchor="middle" x="307.5" y="-399.5" font-family="Helvetica,sans-Serif" font-size="10.00">../src/semtrex.h</text>
</a>
</g>
</g>
<!-- Node29&#45;&gt;Node30 -->
<g id="edge54" class="edge"><title>Node29&#45;&gt;Node30</title>
<path fill="none" stroke="midnightblue" d="M367.093,-448.324C356.391,-440.185 340.159,-427.839 327.337,-418.087"/>
<polygon fill="midnightblue" stroke="midnightblue" points="329.193,-415.102 319.115,-411.834 324.956,-420.673 329.193,-415.102"/>
</g>
<!-- Node31 -->
<g id="node31" class="node"><title>Node31</title>
<g id="a_node31"><a xlink:href="spec__utils_8h.html" target="_top" xlink:title="spec_utils.h">
<polygon fill="white" stroke="black" points="445,-392.5 445,-411.5 514,-411.5 514,-392.5 445,-392.5"/>
<text text-anchor="middle" x="479.5" y="-399.5" font-family="Helvetica,sans-Serif" font-size="10.00">spec_utils.h</text>
</a>
</g>
</g>
<!-- Node29&#45;&gt;Node31 -->
<g id="edge56" class="edge"><title>Node29&#45;&gt;Node31</title>
<path fill="none" stroke="midnightblue" d="M394.727,-448.324C410.851,-439.703 435.8,-426.364 454.464,-416.386"/>
<polygon fill="midnightblue" stroke="midnightblue" points="456.144,-419.456 463.313,-411.655 452.844,-413.283 456.144,-419.456"/>
</g>
<!-- Node30&#45;&gt;Node10 -->
<g id="edge55" class="edge"><title>Node30&#45;&gt;Node10</title>
<path fill="none" stroke="midnightblue" d="M306.551,-392.252C304.755,-379.015 299.861,-353.577 287.5,-336 278.547,-323.269 264.874,-312.616 252.84,-304.876"/>
<polygon fill="midnightblue" stroke="midnightblue" points="254.426,-301.744 244.063,-299.539 250.789,-307.725 254.426,-301.744"/>
</g>
<!-- Node31&#45;&gt;Node2 -->
<g id="edge57" class="edge"><title>Node31&#45;&gt;Node2</title>
<path fill="none" stroke="midnightblue" d="M489.622,-392.324C499.026,-384.263 513.244,-372.077 524.569,-362.369"/>
<polygon fill="midnightblue" stroke="midnightblue" points="526.879,-364.999 532.194,-355.834 522.323,-359.684 526.879,-364.999"/>
</g>
</g>
</svg>
