<?xml version="1.0" encoding="UTF-8" standalone="no"?>
<!DOCTYPE svg PUBLIC "-//W3C//DTD SVG 1.1//EN"
 "http://www.w3.org/Graphics/SVG/1.1/DTD/svg11.dtd">
<!-- Generated by graphviz version 2.38.0 (20140413.2041)
 -->
<!-- Title: src/process.h Pages: 1 -->
<!--zoomable 308 -->
<svg id="main" version="1.1" xmlns="http://www.w3.org/2000/svg" xmlns:xlink="http://www.w3.org/1999/xlink" xml:space="preserve" onload="init(evt)">
<style type="text/css"><![CDATA[
.edge:hover path { stroke: red; }
.edge:hover polygon { stroke: red; fill: red; }
]]></style>
<script type="text/javascript"><![CDATA[
var edges = document.getElementsByTagName('g');
if (edges && edges.length) {
  for (var i=0;i<edges.length;i++) {
    if (edges[i].id.substr(0,4)=='edge') {
      edges[i].setAttribute('class','edge');
    }
  }
}
]]></script>
        <defs>
                <circle id="rim" cx="0" cy="0" r="7"/>
                <circle id="rim2" cx="0" cy="0" r="3.5"/>
                <g id="zoomPlus">
                        <use xlink:href="#rim" fill="#404040">
                                <set attributeName="fill" to="#808080" begin="zoomplus.mouseover" end="zoomplus.mouseout"/>
                        </use>
                        <path d="M-4,0h8M0,-4v8" fill="none" stroke="white" stroke-width="1.5" pointer-events="none"/>
                </g>
                <g id="zoomMin">
                        <use xlink:href="#rim" fill="#404040">
                                <set attributeName="fill" to="#808080" begin="zoomminus.mouseover" end="zoomminus.mouseout"/>
                        </use>
                        <path d="M-4,0h8" fill="none" stroke="white" stroke-width="1.5" pointer-events="none"/>
                </g>
                <g id="dirArrow">
                        <path fill="none" stroke="white" stroke-width="1.5" d="M0,-3.0v7 M-2.5,-0.5L0,-3.0L2.5,-0.5"/>
                </g>
               <g id="resetDef">
                       <use xlink:href="#rim2" fill="#404040">
                               <set attributeName="fill" to="#808080" begin="reset.mouseover" end="reset.mouseout"/>
                       </use>
               </g>
        </defs>

<script type="text/javascript">
var viewWidth = 1119;
var viewHeight = 308;
var sectionId = 'dynsection-1';
</script>
<script xlink:href="svgpan.js"/>
<svg id="graph" class="graph">
<g id="viewport">
<title>src/process.h</title>
<polygon fill="white" stroke="none" points="-4,4 -4,-304 1114.5,-304 1114.5,4 -4,4"/>
<!-- Node1 -->
<g id="node1" class="node"><title>Node1</title>
<polygon fill="#bfbfbf" stroke="black" points="711.5,-280.5 711.5,-299.5 787.5,-299.5 787.5,-280.5 711.5,-280.5"/>
<text text-anchor="middle" x="749.5" y="-287.5" font-family="Helvetica,sans-Serif" font-size="10.00">src/process.h</text>
</g>
<!-- Node2 -->
<g id="node2" class="node"><title>Node2</title>
<g id="a_node2"><a xlink:href="receptor_8h.html" target="_top" xlink:title="receptor implementation header file ">
<polygon fill="white" stroke="black" points="626,-224.5 626,-243.5 703,-243.5 703,-224.5 626,-224.5"/>
<text text-anchor="middle" x="664.5" y="-231.5" font-family="Helvetica,sans-Serif" font-size="10.00">src/receptor.h</text>
</a>
</g>
</g>
<!-- Node1&#45;&gt;Node2 -->
<g id="edge1" class="edge"><title>Node1&#45;&gt;Node2</title>
<path fill="none" stroke="midnightblue" d="M727.306,-274.901C711.72,-264.999 691.37,-252.071 678.123,-243.655"/>
<polygon fill="midnightblue" stroke="midnightblue" points="725.526,-277.916 735.843,-280.324 729.279,-272.007 725.526,-277.916"/>
</g>
<!-- Node6 -->
<g id="node6" class="node"><title>Node6</title>
<g id="a_node6"><a xlink:href="receptor_8c.html" target="_top" xlink:title="receptor implementation ">
<polygon fill="white" stroke="black" points="0,-56.5 0,-75.5 77,-75.5 77,-56.5 0,-56.5"/>
<text text-anchor="middle" x="38.5" y="-63.5" font-family="Helvetica,sans-Serif" font-size="10.00">src/receptor.c</text>
</a>
</g>
</g>
<!-- Node1&#45;&gt;Node6 -->
<g id="edge34" class="edge"><title>Node1&#45;&gt;Node6</title>
<path fill="none" stroke="midnightblue" d="M701.081,-289.42C594.746,-288.58 334.894,-276.791 141.5,-188 106.23,-171.807 99.2094,-161.927 74.5,-132 59.552,-113.896 47.6626,-88.6804 42.0381,-75.6155"/>
<polygon fill="midnightblue" stroke="midnightblue" points="701.167,-292.921 711.185,-289.47 701.202,-285.921 701.167,-292.921"/>
</g>
<!-- Node12 -->
<g id="node12" class="node"><title>Node12</title>
<g id="a_node12"><a xlink:href="process_8c.html" target="_top" xlink:title="implementation of ceptr processing: instructions and run tree reduction ">
<polygon fill="white" stroke="black" points="1034.5,-168.5 1034.5,-187.5 1110.5,-187.5 1110.5,-168.5 1034.5,-168.5"/>
<text text-anchor="middle" x="1072.5" y="-175.5" font-family="Helvetica,sans-Serif" font-size="10.00">src/process.c</text>
</a>
</g>
</g>
<!-- Node1&#45;&gt;Node12 -->
<g id="edge33" class="edge"><title>Node1&#45;&gt;Node12</title>
<path fill="none" stroke="midnightblue" d="M789.938,-277.676C820.263,-268.989 862.7,-256.417 899.5,-244 954.677,-225.382 1018.57,-200.491 1051.09,-187.58"/>
<polygon fill="midnightblue" stroke="midnightblue" points="788.802,-274.36 780.145,-280.467 790.721,-281.092 788.802,-274.36"/>
</g>
<!-- Node20 -->
<g id="node20" class="node"><title>Node20</title>
<g id="a_node20"><a xlink:href="process__spec_8h.html" target="_top" xlink:title="spec/process_spec.h">
<polygon fill="white" stroke="black" points="780.5,-224.5 780.5,-243.5 890.5,-243.5 890.5,-224.5 780.5,-224.5"/>
<text text-anchor="middle" x="835.5" y="-231.5" font-family="Helvetica,sans-Serif" font-size="10.00">spec/process_spec.h</text>
</a>
</g>
</g>
<!-- Node1&#45;&gt;Node20 -->
<g id="edge35" class="edge"><title>Node1&#45;&gt;Node20</title>
<path fill="none" stroke="midnightblue" d="M771.955,-274.901C787.724,-264.999 808.314,-252.071 821.717,-243.655"/>
<polygon fill="midnightblue" stroke="midnightblue" points="769.925,-272.042 763.317,-280.324 773.648,-277.97 769.925,-272.042"/>
</g>
<!-- Node3 -->
<g id="node3" class="node"><title>Node3</title>
<g id="a_node3"><a xlink:href="vmhost_8h.html" target="_top" xlink:title="vmhost implementation header file ">
<polygon fill="white" stroke="black" points="188.5,-168.5 188.5,-187.5 262.5,-187.5 262.5,-168.5 188.5,-168.5"/>
<text text-anchor="middle" x="225.5" y="-175.5" font-family="Helvetica,sans-Serif" font-size="10.00">src/vmhost.h</text>
</a>
</g>
</g>
<!-- Node2&#45;&gt;Node3 -->
<g id="edge2" class="edge"><title>Node2&#45;&gt;Node3</title>
<path fill="none" stroke="midnightblue" d="M615.494,-228.256C541.77,-220.907 398.015,-205.753 276.5,-188 271.963,-187.337 267.209,-186.581 262.506,-185.796"/>
<polygon fill="midnightblue" stroke="midnightblue" points="615.555,-231.779 625.852,-229.283 616.246,-224.813 615.555,-231.779"/>
</g>
<!-- Node2&#45;&gt;Node6 -->
<g id="edge15" class="edge"><title>Node2&#45;&gt;Node6</title>
<path fill="none" stroke="midnightblue" d="M615.57,-232.205C508.584,-229.867 257.205,-220.932 179.5,-188 118.021,-161.945 63.776,-98.913 45.2626,-75.7383"/>
<polygon fill="midnightblue" stroke="midnightblue" points="615.695,-235.708 625.766,-232.418 615.841,-228.71 615.695,-235.708"/>
</g>
<!-- Node8 -->
<g id="node8" class="node"><title>Node8</title>
<g id="a_node8"><a xlink:href="receptor__spec_8h.html" target="_top" xlink:title="spec/receptor_spec.h">
<polygon fill="white" stroke="black" points="361.5,-56.5 361.5,-75.5 471.5,-75.5 471.5,-56.5 361.5,-56.5"/>
<text text-anchor="middle" x="416.5" y="-63.5" font-family="Helvetica,sans-Serif" font-size="10.00">spec/receptor_spec.h</text>
</a>
</g>
</g>
<!-- Node2&#45;&gt;Node8 -->
<g id="edge28" class="edge"><title>Node2&#45;&gt;Node8</title>
<path fill="none" stroke="midnightblue" d="M616.041,-225.593C533.067,-211.75 369.771,-179.042 339.5,-132 323.407,-106.99 362.643,-86.5329 390.821,-75.6106"/>
<polygon fill="midnightblue" stroke="midnightblue" points="615.554,-229.06 625.989,-227.226 616.688,-222.152 615.554,-229.06"/>
</g>
<!-- Node2&#45;&gt;Node12 -->
<g id="edge14" class="edge"><title>Node2&#45;&gt;Node12</title>
<path fill="none" stroke="midnightblue" d="M713.336,-226.536C795.546,-215.656 959.878,-193.906 1034.3,-184.055"/>
<polygon fill="midnightblue" stroke="midnightblue" points="712.706,-223.089 703.251,-227.871 713.624,-230.029 712.706,-223.089"/>
</g>
<!-- Node13 -->
<g id="node13" class="node"><title>Node13</title>
<g id="a_node13"><a xlink:href="tree_8c.html" target="_top" xlink:title="semantic tree pointer implementation ">
<polygon fill="white" stroke="black" points="885.5,-168.5 885.5,-187.5 943.5,-187.5 943.5,-168.5 885.5,-168.5"/>
<text text-anchor="middle" x="914.5" y="-175.5" font-family="Helvetica,sans-Serif" font-size="10.00">src/tree.c</text>
</a>
</g>
</g>
<!-- Node2&#45;&gt;Node13 -->
<g id="edge16" class="edge"><title>Node2&#45;&gt;Node13</title>
<path fill="none" stroke="midnightblue" d="M712.912,-222.915C755.711,-213.941 819.814,-200.362 875.5,-188 878.62,-187.307 881.879,-186.573 885.125,-185.834"/>
<polygon fill="midnightblue" stroke="midnightblue" points="712.115,-219.506 703.044,-224.981 713.55,-226.357 712.115,-219.506"/>
</g>
<!-- Node14 -->
<g id="node14" class="node"><title>Node14</title>
<g id="a_node14"><a xlink:href="tree__spec_8h.html" target="_top" xlink:title="spec/tree_spec.h">
<polygon fill="white" stroke="black" points="482.5,-112.5 482.5,-131.5 574.5,-131.5 574.5,-112.5 482.5,-112.5"/>
<text text-anchor="middle" x="528.5" y="-119.5" font-family="Helvetica,sans-Serif" font-size="10.00">spec/tree_spec.h</text>
</a>
</g>
</g>
<!-- Node2&#45;&gt;Node14 -->
<g id="edge17" class="edge"><title>Node2&#45;&gt;Node14</title>
<path fill="none" stroke="midnightblue" d="M646.931,-217.742C631.457,-204.406 608.221,-184.631 587.5,-168 571.426,-155.098 552.397,-140.746 540.387,-131.795"/>
<polygon fill="midnightblue" stroke="midnightblue" points="644.81,-220.534 654.663,-224.427 649.388,-215.239 644.81,-220.534"/>
</g>
<!-- Node15 -->
<g id="node15" class="node"><title>Node15</title>
<g id="a_node15"><a xlink:href="http__example_8h.html" target="_top" xlink:title="spec/http_example.h">
<polygon fill="white" stroke="black" points="472,-168.5 472,-187.5 579,-187.5 579,-168.5 472,-168.5"/>
<text text-anchor="middle" x="525.5" y="-175.5" font-family="Helvetica,sans-Serif" font-size="10.00">spec/http_example.h</text>
</a>
</g>
</g>
<!-- Node2&#45;&gt;Node15 -->
<g id="edge19" class="edge"><title>Node2&#45;&gt;Node15</title>
<path fill="none" stroke="midnightblue" d="M633.024,-220.772C606.915,-210.629 570.461,-196.467 547.422,-187.516"/>
<polygon fill="midnightblue" stroke="midnightblue" points="631.886,-224.085 642.475,-224.444 634.421,-217.56 631.886,-224.085"/>
</g>
<!-- Node16 -->
<g id="node16" class="node"><title>Node16</title>
<g id="a_node16"><a xlink:href="mtree__spec_8h.html" target="_top" xlink:title="spec/mtree_spec.h">
<polygon fill="white" stroke="black" points="592.5,-112.5 592.5,-131.5 692.5,-131.5 692.5,-112.5 592.5,-112.5"/>
<text text-anchor="middle" x="642.5" y="-119.5" font-family="Helvetica,sans-Serif" font-size="10.00">spec/mtree_spec.h</text>
</a>
</g>
</g>
<!-- Node2&#45;&gt;Node16 -->
<g id="edge25" class="edge"><title>Node2&#45;&gt;Node16</title>
<path fill="none" stroke="midnightblue" d="M660.77,-214.348C655.951,-190.254 647.762,-149.308 644.218,-131.591"/>
<polygon fill="midnightblue" stroke="midnightblue" points="657.38,-215.249 662.774,-224.368 664.244,-213.876 657.38,-215.249"/>
</g>
<!-- Node17 -->
<g id="node17" class="node"><title>Node17</title>
<g id="a_node17"><a xlink:href="semtrex__spec_8h.html" target="_top" xlink:title="spec/semtrex_spec.h">
<polygon fill="white" stroke="black" points="710.5,-112.5 710.5,-131.5 820.5,-131.5 820.5,-112.5 710.5,-112.5"/>
<text text-anchor="middle" x="765.5" y="-119.5" font-family="Helvetica,sans-Serif" font-size="10.00">spec/semtrex_spec.h</text>
</a>
</g>
</g>
<!-- Node2&#45;&gt;Node17 -->
<g id="edge26" class="edge"><title>Node2&#45;&gt;Node17</title>
<path fill="none" stroke="midnightblue" d="M673.981,-215.461C681.896,-201.709 694.026,-182.53 707.5,-168 721.019,-153.422 739.599,-139.9 752.052,-131.561"/>
<polygon fill="midnightblue" stroke="midnightblue" points="670.825,-213.935 669.004,-224.373 676.936,-217.348 670.825,-213.935"/>
</g>
<!-- Node18 -->
<g id="node18" class="node"><title>Node18</title>
<g id="a_node18"><a xlink:href="scape__spec_8h.html" target="_top" xlink:title="spec/scape_spec.h">
<polygon fill="white" stroke="black" points="839,-112.5 839,-131.5 940,-131.5 940,-112.5 839,-112.5"/>
<text text-anchor="middle" x="889.5" y="-119.5" font-family="Helvetica,sans-Serif" font-size="10.00">spec/scape_spec.h</text>
</a>
</g>
</g>
<!-- Node2&#45;&gt;Node18 -->
<g id="edge29" class="edge"><title>Node2&#45;&gt;Node18</title>
<path fill="none" stroke="midnightblue" d="M679.56,-216.731C693.934,-202.085 716.851,-180.933 740.5,-168 773.099,-150.173 813.664,-138.514 844.234,-131.54"/>
<polygon fill="midnightblue" stroke="midnightblue" points="676.888,-214.46 672.502,-224.105 681.945,-219.3 676.888,-214.46"/>
</g>
<!-- Node19 -->
<g id="node19" class="node"><title>Node19</title>
<g id="a_node19"><a xlink:href="profile__example_8h.html" target="_top" xlink:title="spec/profile_example.h">
<polygon fill="white" stroke="black" points="750,-168.5 750,-187.5 867,-187.5 867,-168.5 750,-168.5"/>
<text text-anchor="middle" x="808.5" y="-175.5" font-family="Helvetica,sans-Serif" font-size="10.00">spec/profile_example.h</text>
</a>
</g>
</g>
<!-- Node2&#45;&gt;Node19 -->
<g id="edge31" class="edge"><title>Node2&#45;&gt;Node19</title>
<path fill="none" stroke="midnightblue" d="M696.751,-220.906C723.824,-210.754 761.817,-196.506 785.79,-187.516"/>
<polygon fill="midnightblue" stroke="midnightblue" points="695.452,-217.655 687.317,-224.444 697.909,-224.209 695.452,-217.655"/>
</g>
<!-- Node4 -->
<g id="node4" class="node"><title>Node4</title>
<g id="a_node4"><a xlink:href="de_8h.html" target="_top" xlink:title="header file for data engine ">
<polygon fill="white" stroke="black" points="172.5,-112.5 172.5,-131.5 224.5,-131.5 224.5,-112.5 172.5,-112.5"/>
<text text-anchor="middle" x="198.5" y="-119.5" font-family="Helvetica,sans-Serif" font-size="10.00">src/de.h</text>
</a>
</g>
</g>
<!-- Node3&#45;&gt;Node4 -->
<g id="edge3" class="edge"><title>Node3&#45;&gt;Node4</title>
<path fill="none" stroke="midnightblue" d="M216.491,-158.983C211.908,-149.817 206.546,-139.092 202.876,-131.751"/>
<polygon fill="midnightblue" stroke="midnightblue" points="213.439,-160.704 221.041,-168.083 219.7,-157.573 213.439,-160.704"/>
</g>
<!-- Node7 -->
<g id="node7" class="node"><title>Node7</title>
<g id="a_node7"><a xlink:href="vmhost_8c.html" target="_top" xlink:title="virtual machine host receptor implementation ">
<polygon fill="white" stroke="black" points="269.5,-56.5 269.5,-75.5 343.5,-75.5 343.5,-56.5 269.5,-56.5"/>
<text text-anchor="middle" x="306.5" y="-63.5" font-family="Helvetica,sans-Serif" font-size="10.00">src/vmhost.c</text>
</a>
</g>
</g>
<!-- Node3&#45;&gt;Node7 -->
<g id="edge11" class="edge"><title>Node3&#45;&gt;Node7</title>
<path fill="none" stroke="midnightblue" d="M237.818,-160.272C255.327,-136.494 286.774,-93.7889 300.174,-75.5914"/>
<polygon fill="midnightblue" stroke="midnightblue" points="234.967,-158.241 231.856,-168.368 240.604,-162.391 234.967,-158.241"/>
</g>
<!-- Node11 -->
<g id="node11" class="node"><title>Node11</title>
<g id="a_node11"><a xlink:href="vmhost__spec_8h.html" target="_top" xlink:title="spec/vmhost_spec.h">
<polygon fill="white" stroke="black" points="357,-112.5 357,-131.5 464,-131.5 464,-112.5 357,-112.5"/>
<text text-anchor="middle" x="410.5" y="-119.5" font-family="Helvetica,sans-Serif" font-size="10.00">spec/vmhost_spec.h</text>
</a>
</g>
</g>
<!-- Node3&#45;&gt;Node11 -->
<g id="edge12" class="edge"><title>Node3&#45;&gt;Node11</title>
<path fill="none" stroke="midnightblue" d="M264.666,-165.568C299.565,-155.381 349.849,-140.703 381.323,-131.516"/>
<polygon fill="midnightblue" stroke="midnightblue" points="263.433,-162.282 254.814,-168.444 265.394,-169.001 263.433,-162.282"/>
</g>
<!-- Node5 -->
<g id="node5" class="node"><title>Node5</title>
<g id="a_node5"><a xlink:href="de_8c.html" target="_top" xlink:title="implementation file for data engine ">
<polygon fill="white" stroke="black" points="95.5,-56.5 95.5,-75.5 147.5,-75.5 147.5,-56.5 95.5,-56.5"/>
<text text-anchor="middle" x="121.5" y="-63.5" font-family="Helvetica,sans-Serif" font-size="10.00">src/de.c</text>
</a>
</g>
</g>
<!-- Node4&#45;&gt;Node5 -->
<g id="edge4" class="edge"><title>Node4&#45;&gt;Node5</title>
<path fill="none" stroke="midnightblue" d="M177.599,-106.342C163.589,-96.5169 145.617,-83.9132 133.841,-75.6545"/>
<polygon fill="midnightblue" stroke="midnightblue" points="175.932,-109.448 186.129,-112.324 179.951,-103.717 175.932,-109.448"/>
</g>
<!-- Node4&#45;&gt;Node6 -->
<g id="edge5" class="edge"><title>Node4&#45;&gt;Node6</title>
<path fill="none" stroke="midnightblue" d="M163.454,-109.172C133.326,-99.0039 90.6042,-84.5852 63.7339,-75.5164"/>
<polygon fill="midnightblue" stroke="midnightblue" points="162.553,-112.562 173.148,-112.444 164.792,-105.929 162.553,-112.562"/>
</g>
<!-- Node4&#45;&gt;Node7 -->
<g id="edge6" class="edge"><title>Node4&#45;&gt;Node7</title>
<path fill="none" stroke="midnightblue" d="M225.048,-107.726C245.046,-97.7271 271.887,-84.3065 289.191,-75.6545"/>
<polygon fill="midnightblue" stroke="midnightblue" points="223.231,-104.721 215.852,-112.324 226.362,-110.982 223.231,-104.721"/>
</g>
<!-- Node4&#45;&gt;Node8 -->
<g id="edge7" class="edge"><title>Node4&#45;&gt;Node8</title>
<path fill="none" stroke="midnightblue" d="M234.612,-112.055C275.482,-101.931 341.589,-85.5559 381.847,-75.5837"/>
<polygon fill="midnightblue" stroke="midnightblue" points="233.661,-108.685 224.796,-114.486 235.344,-115.479 233.661,-108.685"/>
</g>
<!-- Node10 -->
<g id="node10" class="node"><title>Node10</title>
<g id="a_node10"><a xlink:href="de__spec_8h.html" target="_top" xlink:title="spec/de_spec.h">
<polygon fill="white" stroke="black" points="165.5,-56.5 165.5,-75.5 251.5,-75.5 251.5,-56.5 165.5,-56.5"/>
<text text-anchor="middle" x="208.5" y="-63.5" font-family="Helvetica,sans-Serif" font-size="10.00">spec/de_spec.h</text>
</a>
</g>
</g>
<!-- Node4&#45;&gt;Node10 -->
<g id="edge9" class="edge"><title>Node4&#45;&gt;Node10</title>
<path fill="none" stroke="midnightblue" d="M202,-102.101C203.66,-93.1357 205.563,-82.8579 206.879,-75.7511"/>
<polygon fill="midnightblue" stroke="midnightblue" points="198.531,-101.613 200.151,-112.083 205.414,-102.888 198.531,-101.613"/>
</g>
<!-- Node9 -->
<g id="node9" class="node"><title>Node9</title>
<g id="a_node9"><a xlink:href="ceptr__specs_8c.html" target="_top" xlink:title="implements a main() entry point for running all the tests ">
<polygon fill="white" stroke="black" points="591.5,-0.5 591.5,-19.5 693.5,-19.5 693.5,-0.5 591.5,-0.5"/>
<text text-anchor="middle" x="642.5" y="-7.5" font-family="Helvetica,sans-Serif" font-size="10.00">spec/ceptr_specs.c</text>
</a>
</g>
</g>
<!-- Node8&#45;&gt;Node9 -->
<g id="edge8" class="edge"><title>Node8&#45;&gt;Node9</title>
<path fill="none" stroke="midnightblue" d="M462.167,-54.0884C504.864,-43.8865 567.748,-28.8612 606.857,-19.5164"/>
<polygon fill="midnightblue" stroke="midnightblue" points="461.223,-50.7153 452.31,-56.4435 462.85,-57.5237 461.223,-50.7153"/>
</g>
<!-- Node10&#45;&gt;Node9 -->
<g id="edge10" class="edge"><title>Node10&#45;&gt;Node9</title>
<path fill="none" stroke="midnightblue" d="M261.674,-55.8972C385.93,-38.0401 519.966,-23.5004 591.409,-16.1302"/>
<polygon fill="midnightblue" stroke="midnightblue" points="260.997,-52.4586 251.602,-57.3552 262,-59.3864 260.997,-52.4586"/>
</g>
<!-- Node11&#45;&gt;Node9 -->
<g id="edge13" class="edge"><title>Node11&#45;&gt;Node9</title>
<path fill="none" stroke="midnightblue" d="M437.873,-108.021C485.854,-85.2717 583.886,-38.791 624.38,-19.5914"/>
<polygon fill="midnightblue" stroke="midnightblue" points="436.241,-104.922 428.705,-112.368 439.24,-111.247 436.241,-104.922"/>
</g>
<!-- Node14&#45;&gt;Node9 -->
<g id="edge18" class="edge"><title>Node14&#45;&gt;Node9</title>
<path fill="none" stroke="midnightblue" d="M544.869,-105.205C569.305,-81.6272 614.488,-38.0294 633.596,-19.5914"/>
<polygon fill="midnightblue" stroke="midnightblue" points="542.211,-102.906 537.445,-112.368 547.072,-107.943 542.211,-102.906"/>
</g>
<!-- Node15&#45;&gt;Node8 -->
<g id="edge23" class="edge"><title>Node15&#45;&gt;Node8</title>
<path fill="none" stroke="midnightblue" d="M461.728,-169.177C416.587,-162.177 361.655,-150.179 347.5,-132 329.806,-109.276 368.547,-87.2454 394.834,-75.5792"/>
<polygon fill="midnightblue" stroke="midnightblue" points="461.372,-172.663 471.78,-170.68 462.408,-165.74 461.372,-172.663"/>
</g>
<!-- Node15&#45;&gt;Node11 -->
<g id="edge24" class="edge"><title>Node15&#45;&gt;Node11</title>
<path fill="none" stroke="midnightblue" d="M498.019,-164.096C476.534,-154.007 447.278,-140.27 428.637,-131.516"/>
<polygon fill="midnightblue" stroke="midnightblue" points="496.738,-167.361 507.278,-168.444 499.714,-161.025 496.738,-167.361"/>
</g>
<!-- Node15&#45;&gt;Node14 -->
<g id="edge20" class="edge"><title>Node15&#45;&gt;Node14</title>
<path fill="none" stroke="midnightblue" d="M526.566,-157.805C527.061,-148.91 527.623,-138.78 528.014,-131.751"/>
<polygon fill="midnightblue" stroke="midnightblue" points="523.056,-157.904 525.995,-168.083 530.045,-158.293 523.056,-157.904"/>
</g>
<!-- Node15&#45;&gt;Node16 -->
<g id="edge21" class="edge"><title>Node15&#45;&gt;Node16</title>
<path fill="none" stroke="midnightblue" d="M553.164,-164.232C575.049,-154.131 604.997,-140.309 624.048,-131.516"/>
<polygon fill="midnightblue" stroke="midnightblue" points="551.652,-161.075 544.039,-168.444 554.585,-167.431 551.652,-161.075"/>
</g>
<!-- Node16&#45;&gt;Node9 -->
<g id="edge22" class="edge"><title>Node16&#45;&gt;Node9</title>
<path fill="none" stroke="midnightblue" d="M642.5,-102.348C642.5,-78.2538 642.5,-37.3079 642.5,-19.5914"/>
<polygon fill="midnightblue" stroke="midnightblue" points="639,-102.368 642.5,-112.368 646,-102.369 639,-102.368"/>
</g>
<!-- Node17&#45;&gt;Node9 -->
<g id="edge27" class="edge"><title>Node17&#45;&gt;Node9</title>
<path fill="none" stroke="midnightblue" d="M748.181,-105.512C721.899,-82.0068 672.813,-38.1096 652.107,-19.5914"/>
<polygon fill="midnightblue" stroke="midnightblue" points="746.061,-108.311 755.848,-112.368 750.728,-103.093 746.061,-108.311"/>
</g>
<!-- Node18&#45;&gt;Node9 -->
<g id="edge30" class="edge"><title>Node18&#45;&gt;Node9</title>
<path fill="none" stroke="midnightblue" d="M860.676,-108.163C809.71,-85.4659 704.993,-38.8311 661.792,-19.5914"/>
<polygon fill="midnightblue" stroke="midnightblue" points="859.559,-111.497 870.118,-112.368 862.407,-105.103 859.559,-111.497"/>
</g>
<!-- Node19&#45;&gt;Node9 -->
<g id="edge32" class="edge"><title>Node19&#45;&gt;Node9</title>
<path fill="none" stroke="midnightblue" d="M863.783,-166.185C898.316,-158.18 938.131,-146.224 948.5,-132 953.736,-124.817 953.697,-119.211 948.5,-112 890.111,-30.9893 764.376,-13.8464 693.599,-10.8915"/>
<polygon fill="midnightblue" stroke="midnightblue" points="862.735,-162.833 853.745,-168.439 864.268,-169.663 862.735,-162.833"/>
</g>
<!-- Node20&#45;&gt;Node9 -->
<g id="edge36" class="edge"><title>Node20&#45;&gt;Node9</title>
<path fill="none" stroke="midnightblue" d="M897.586,-221.514C917.722,-214.871 938.463,-204.419 952.5,-188 974.722,-162.008 977.15,-143.77 964.5,-112 951.823,-80.1627 941.747,-72.1074 911.5,-56 874.617,-36.3587 760.724,-22.4104 693.543,-15.6413"/>
<polygon fill="midnightblue" stroke="midnightblue" points="896.341,-218.234 887.782,-224.479 898.367,-224.935 896.341,-218.234"/>
</g>
</g>
</svg>
        <g id="navigator" transform="translate(0 0)" fill="#404254">
                <rect fill="#f2f5e9" fill-opacity="0.5" stroke="#606060" stroke-width=".5" x="0" y="0" width="60" height="60"/>
                <use id="zoomplus" xlink:href="#zoomPlus" x="17" y="9" onmousedown="handleZoom(evt,'in')"/>
                <use id="zoomminus" xlink:href="#zoomMin" x="42" y="9" onmousedown="handleZoom(evt,'out')"/>
                <use id="reset" xlink:href="#resetDef" x="30" y="36" onmousedown="handleReset()"/>
                <g id="arrowUp" xlink:href="#dirArrow" transform="translate(30 24)" onmousedown="handlePan(0,-1)">
                  <use xlink:href="#rim" fill="#404040">
                        <set attributeName="fill" to="#808080" begin="arrowUp.mouseover" end="arrowUp.mouseout"/>
                  </use>
                  <path fill="none" stroke="white" stroke-width="1.5" d="M0,-3.0v7 M-2.5,-0.5L0,-3.0L2.5,-0.5"/>
                </g>
                <g id="arrowRight" xlink:href="#dirArrow" transform="rotate(90) translate(36 -43)" onmousedown="handlePan(1,0)">
                  <use xlink:href="#rim" fill="#404040">
                        <set attributeName="fill" to="#808080" begin="arrowRight.mouseover" end="arrowRight.mouseout"/>
                  </use>
                  <path fill="none" stroke="white" stroke-width="1.5" d="M0,-3.0v7 M-2.5,-0.5L0,-3.0L2.5,-0.5"/>
                </g>
                <g id="arrowDown" xlink:href="#dirArrow" transform="rotate(180) translate(-30 -48)" onmousedown="handlePan(0,1)">
                  <use xlink:href="#rim" fill="#404040">
                        <set attributeName="fill" to="#808080" begin="arrowDown.mouseover" end="arrowDown.mouseout"/>
                  </use>
                  <path fill="none" stroke="white" stroke-width="1.5" d="M0,-3.0v7 M-2.5,-0.5L0,-3.0L2.5,-0.5"/>
                </g>
                <g id="arrowLeft" xlink:href="#dirArrow" transform="rotate(270) translate(-36 17)" onmousedown="handlePan(-1,0)">
                  <use xlink:href="#rim" fill="#404040">
                        <set attributeName="fill" to="#808080" begin="arrowLeft.mouseover" end="arrowLeft.mouseout"/>
                  </use>
                  <path fill="none" stroke="white" stroke-width="1.5" d="M0,-3.0v7 M-2.5,-0.5L0,-3.0L2.5,-0.5"/>
                </g>
        </g>
        <svg viewBox="0 0 15 15" width="100%" height="30px" preserveAspectRatio="xMaxYMin meet">
         <g id="arrow_out" transform="scale(0.3 0.3)">
          <a xlink:href="process_8h__dep__incl_org.svg" target="_base">
           <rect id="button" ry="5" rx="5" y="6" x="6" height="38" width="38"
                fill="#f2f5e9" fill-opacity="0.5" stroke="#606060" stroke-width="1.0"/>
           <path id="arrow"
             d="M 11.500037,31.436501 C 11.940474,20.09759 22.043105,11.32322 32.158766,21.979434 L 37.068811,17.246167 C 37.068811,17.246167 37.088388,32 37.088388,32 L 22.160133,31.978069 C 22.160133,31.978069 26.997745,27.140456 26.997745,27.140456 C 18.528582,18.264221 13.291696,25.230495 11.500037,31.436501 z"
             style="fill:#404040;"/>
          </a>
         </g>
        </svg>
</svg>
