<?xml version="1.0" encoding="UTF-8" standalone="no"?>
<!DOCTYPE svg PUBLIC "-//W3C//DTD SVG 1.1//EN"
 "http://www.w3.org/Graphics/SVG/1.1/DTD/svg11.dtd">
<!-- Generated by graphviz version 2.38.0 (20140413.2041)
 -->
<!-- Title: src/process.h Pages: 1 -->
<!--zoomable 308 -->
<svg id="main" version="1.1" xmlns="http://www.w3.org/2000/svg" xmlns:xlink="http://www.w3.org/1999/xlink" xml:space="preserve" onload="init(evt)">
<style type="text/css"><![CDATA[
.edge:hover path { stroke: red; }
.edge:hover polygon { stroke: red; fill: red; }
]]></style>
<script type="text/javascript"><![CDATA[
var edges = document.getElementsByTagName('g');
if (edges && edges.length) {
  for (var i=0;i<edges.length;i++) {
    if (edges[i].id.substr(0,4)=='edge') {
      edges[i].setAttribute('class','edge');
    }
  }
}
]]></script>
        <defs>
                <circle id="rim" cx="0" cy="0" r="7"/>
                <circle id="rim2" cx="0" cy="0" r="3.5"/>
                <g id="zoomPlus">
                        <use xlink:href="#rim" fill="#404040">
                                <set attributeName="fill" to="#808080" begin="zoomplus.mouseover" end="zoomplus.mouseout"/>
                        </use>
                        <path d="M-4,0h8M0,-4v8" fill="none" stroke="white" stroke-width="1.5" pointer-events="none"/>
                </g>
                <g id="zoomMin">
                        <use xlink:href="#rim" fill="#404040">
                                <set attributeName="fill" to="#808080" begin="zoomminus.mouseover" end="zoomminus.mouseout"/>
                        </use>
                        <path d="M-4,0h8" fill="none" stroke="white" stroke-width="1.5" pointer-events="none"/>
                </g>
                <g id="dirArrow">
                        <path fill="none" stroke="white" stroke-width="1.5" d="M0,-3.0v7 M-2.5,-0.5L0,-3.0L2.5,-0.5"/>
                </g>
               <g id="resetDef">
                       <use xlink:href="#rim2" fill="#404040">
                               <set attributeName="fill" to="#808080" begin="reset.mouseover" end="reset.mouseout"/>
                       </use>
               </g>
        </defs>

<script type="text/javascript">
var viewWidth = 1253;
var viewHeight = 308;
var sectionId = 'dynsection-1';
</script>
<script xlink:href="svgpan.js"/>
<svg id="graph" class="graph">
<g id="viewport">
<title>src/process.h</title>
<polygon fill="white" stroke="none" points="-4,4 -4,-304 1248.5,-304 1248.5,4 -4,4"/>
<!-- Node1 -->
<g id="node1" class="node"><title>Node1</title>
<polygon fill="#bfbfbf" stroke="black" points="845.5,-280.5 845.5,-299.5 921.5,-299.5 921.5,-280.5 845.5,-280.5"/>
<text text-anchor="middle" x="883.5" y="-287.5" font-family="Helvetica,sans-Serif" font-size="10.00">src/process.h</text>
</g>
<!-- Node2 -->
<g id="node2" class="node"><title>Node2</title>
<g id="a_node2"><a xlink:href="receptor_8h.html" target="_top" xlink:title="receptor implementation header file ">
<polygon fill="white" stroke="black" points="760,-224.5 760,-243.5 837,-243.5 837,-224.5 760,-224.5"/>
<text text-anchor="middle" x="798.5" y="-231.5" font-family="Helvetica,sans-Serif" font-size="10.00">src/receptor.h</text>
</a>
</g>
</g>
<!-- Node1&#45;&gt;Node2 -->
<g id="edge1" class="edge"><title>Node1&#45;&gt;Node2</title>
<path fill="none" stroke="midnightblue" d="M861.306,-274.901C845.72,-264.999 825.37,-252.071 812.123,-243.655"/>
<polygon fill="midnightblue" stroke="midnightblue" points="859.526,-277.916 869.843,-280.324 863.279,-272.007 859.526,-277.916"/>
</g>
<!-- Node6 -->
<g id="node6" class="node"><title>Node6</title>
<g id="a_node6"><a xlink:href="receptor_8c.html" target="_top" xlink:title="receptor implementation ">
<polygon fill="white" stroke="black" points="0,-56.5 0,-75.5 77,-75.5 77,-56.5 0,-56.5"/>
<text text-anchor="middle" x="38.5" y="-63.5" font-family="Helvetica,sans-Serif" font-size="10.00">src/receptor.c</text>
</a>
</g>
</g>
<!-- Node1&#45;&gt;Node6 -->
<g id="edge35" class="edge"><title>Node1&#45;&gt;Node6</title>
<path fill="none" stroke="midnightblue" d="M834.989,-285.47C727.495,-276.747 461.893,-250.206 248.5,-188 188.495,-170.508 173.015,-164.29 119.5,-132 91.4029,-115.047 62.3164,-89.3458 47.8484,-75.904"/>
<polygon fill="midnightblue" stroke="midnightblue" points="834.947,-288.978 845.193,-286.283 835.503,-282 834.947,-288.978"/>
</g>
<!-- Node12 -->
<g id="node12" class="node"><title>Node12</title>
<g id="a_node12"><a xlink:href="process_8c.html" target="_top" xlink:title="implementation of ceptr processing: instructions and run tree reduction ">
<polygon fill="white" stroke="black" points="1168.5,-168.5 1168.5,-187.5 1244.5,-187.5 1244.5,-168.5 1168.5,-168.5"/>
<text text-anchor="middle" x="1206.5" y="-175.5" font-family="Helvetica,sans-Serif" font-size="10.00">src/process.c</text>
</a>
</g>
</g>
<!-- Node1&#45;&gt;Node12 -->
<g id="edge34" class="edge"><title>Node1&#45;&gt;Node12</title>
<path fill="none" stroke="midnightblue" d="M923.938,-277.676C954.263,-268.989 996.7,-256.417 1033.5,-244 1088.68,-225.382 1152.57,-200.491 1185.09,-187.58"/>
<polygon fill="midnightblue" stroke="midnightblue" points="922.802,-274.36 914.145,-280.467 924.721,-281.092 922.802,-274.36"/>
</g>
<!-- Node20 -->
<g id="node20" class="node"><title>Node20</title>
<g id="a_node20"><a xlink:href="process__spec_8h.html" target="_top" xlink:title="spec/process_spec.h">
<polygon fill="white" stroke="black" points="914.5,-224.5 914.5,-243.5 1024.5,-243.5 1024.5,-224.5 914.5,-224.5"/>
<text text-anchor="middle" x="969.5" y="-231.5" font-family="Helvetica,sans-Serif" font-size="10.00">spec/process_spec.h</text>
</a>
</g>
</g>
<!-- Node1&#45;&gt;Node20 -->
<g id="edge36" class="edge"><title>Node1&#45;&gt;Node20</title>
<path fill="none" stroke="midnightblue" d="M905.955,-274.901C921.724,-264.999 942.314,-252.071 955.717,-243.655"/>
<polygon fill="midnightblue" stroke="midnightblue" points="903.925,-272.042 897.317,-280.324 907.648,-277.97 903.925,-272.042"/>
</g>
<!-- Node3 -->
<g id="node3" class="node"><title>Node3</title>
<g id="a_node3"><a xlink:href="vmhost_8h.html" target="_top" xlink:title="vmhost implementation header file ">
<polygon fill="white" stroke="black" points="322.5,-168.5 322.5,-187.5 396.5,-187.5 396.5,-168.5 322.5,-168.5"/>
<text text-anchor="middle" x="359.5" y="-175.5" font-family="Helvetica,sans-Serif" font-size="10.00">src/vmhost.h</text>
</a>
</g>
</g>
<!-- Node2&#45;&gt;Node3 -->
<g id="edge2" class="edge"><title>Node2&#45;&gt;Node3</title>
<path fill="none" stroke="midnightblue" d="M749.494,-228.256C675.77,-220.907 532.015,-205.753 410.5,-188 405.963,-187.337 401.209,-186.581 396.506,-185.796"/>
<polygon fill="midnightblue" stroke="midnightblue" points="749.555,-231.779 759.852,-229.283 750.246,-224.813 749.555,-231.779"/>
</g>
<!-- Node2&#45;&gt;Node6 -->
<g id="edge16" class="edge"><title>Node2&#45;&gt;Node6</title>
<path fill="none" stroke="midnightblue" d="M749.731,-233.605C661.297,-233.578 469.213,-228.343 313.5,-188 208.979,-160.92 93.6866,-98.5208 53.3804,-75.6257"/>
<polygon fill="midnightblue" stroke="midnightblue" points="749.746,-237.105 759.739,-233.585 749.732,-230.105 749.746,-237.105"/>
</g>
<!-- Node10 -->
<g id="node10" class="node"><title>Node10</title>
<g id="a_node10"><a xlink:href="receptor__spec_8h.html" target="_top" xlink:title="spec/receptor_spec.h">
<polygon fill="white" stroke="black" points="446.5,-56.5 446.5,-75.5 556.5,-75.5 556.5,-56.5 446.5,-56.5"/>
<text text-anchor="middle" x="501.5" y="-63.5" font-family="Helvetica,sans-Serif" font-size="10.00">spec/receptor_spec.h</text>
</a>
</g>
</g>
<!-- Node2&#45;&gt;Node10 -->
<g id="edge29" class="edge"><title>Node2&#45;&gt;Node10</title>
<path fill="none" stroke="midnightblue" d="M749.905,-225.61C666.695,-211.795 502.927,-179.128 472.5,-132 460.436,-113.314 479.674,-88.77 492.16,-75.8441"/>
<polygon fill="midnightblue" stroke="midnightblue" points="749.447,-229.082 759.88,-227.24 750.576,-222.173 749.447,-229.082"/>
</g>
<!-- Node2&#45;&gt;Node12 -->
<g id="edge15" class="edge"><title>Node2&#45;&gt;Node12</title>
<path fill="none" stroke="midnightblue" d="M847.336,-226.536C929.546,-215.656 1093.88,-193.906 1168.3,-184.055"/>
<polygon fill="midnightblue" stroke="midnightblue" points="846.706,-223.089 837.251,-227.871 847.624,-230.029 846.706,-223.089"/>
</g>
<!-- Node13 -->
<g id="node13" class="node"><title>Node13</title>
<g id="a_node13"><a xlink:href="tree_8c.html" target="_top" xlink:title="semantic tree pointer implementation ">
<polygon fill="white" stroke="black" points="1019.5,-168.5 1019.5,-187.5 1077.5,-187.5 1077.5,-168.5 1019.5,-168.5"/>
<text text-anchor="middle" x="1048.5" y="-175.5" font-family="Helvetica,sans-Serif" font-size="10.00">src/tree.c</text>
</a>
</g>
</g>
<!-- Node2&#45;&gt;Node13 -->
<g id="edge17" class="edge"><title>Node2&#45;&gt;Node13</title>
<path fill="none" stroke="midnightblue" d="M846.912,-222.915C889.711,-213.941 953.814,-200.362 1009.5,-188 1012.62,-187.307 1015.88,-186.573 1019.12,-185.834"/>
<polygon fill="midnightblue" stroke="midnightblue" points="846.115,-219.506 837.044,-224.981 847.55,-226.357 846.115,-219.506"/>
</g>
<!-- Node14 -->
<g id="node14" class="node"><title>Node14</title>
<g id="a_node14"><a xlink:href="tree__spec_8h.html" target="_top" xlink:title="spec/tree_spec.h">
<polygon fill="white" stroke="black" points="616.5,-112.5 616.5,-131.5 708.5,-131.5 708.5,-112.5 616.5,-112.5"/>
<text text-anchor="middle" x="662.5" y="-119.5" font-family="Helvetica,sans-Serif" font-size="10.00">spec/tree_spec.h</text>
</a>
</g>
</g>
<!-- Node2&#45;&gt;Node14 -->
<g id="edge18" class="edge"><title>Node2&#45;&gt;Node14</title>
<path fill="none" stroke="midnightblue" d="M780.931,-217.742C765.457,-204.406 742.221,-184.631 721.5,-168 705.426,-155.098 686.397,-140.746 674.387,-131.795"/>
<polygon fill="midnightblue" stroke="midnightblue" points="778.81,-220.534 788.663,-224.427 783.388,-215.239 778.81,-220.534"/>
</g>
<!-- Node15 -->
<g id="node15" class="node"><title>Node15</title>
<g id="a_node15"><a xlink:href="http__example_8h.html" target="_top" xlink:title="spec/http_example.h">
<polygon fill="white" stroke="black" points="606,-168.5 606,-187.5 713,-187.5 713,-168.5 606,-168.5"/>
<text text-anchor="middle" x="659.5" y="-175.5" font-family="Helvetica,sans-Serif" font-size="10.00">spec/http_example.h</text>
</a>
</g>
</g>
<!-- Node2&#45;&gt;Node15 -->
<g id="edge20" class="edge"><title>Node2&#45;&gt;Node15</title>
<path fill="none" stroke="midnightblue" d="M767.024,-220.772C740.915,-210.629 704.461,-196.467 681.422,-187.516"/>
<polygon fill="midnightblue" stroke="midnightblue" points="765.886,-224.085 776.475,-224.444 768.421,-217.56 765.886,-224.085"/>
</g>
<!-- Node16 -->
<g id="node16" class="node"><title>Node16</title>
<g id="a_node16"><a xlink:href="mtree__spec_8h.html" target="_top" xlink:title="spec/mtree_spec.h">
<polygon fill="white" stroke="black" points="726.5,-112.5 726.5,-131.5 826.5,-131.5 826.5,-112.5 726.5,-112.5"/>
<text text-anchor="middle" x="776.5" y="-119.5" font-family="Helvetica,sans-Serif" font-size="10.00">spec/mtree_spec.h</text>
</a>
</g>
</g>
<!-- Node2&#45;&gt;Node16 -->
<g id="edge26" class="edge"><title>Node2&#45;&gt;Node16</title>
<path fill="none" stroke="midnightblue" d="M794.77,-214.348C789.951,-190.254 781.762,-149.308 778.218,-131.591"/>
<polygon fill="midnightblue" stroke="midnightblue" points="791.38,-215.249 796.774,-224.368 798.244,-213.876 791.38,-215.249"/>
</g>
<!-- Node17 -->
<g id="node17" class="node"><title>Node17</title>
<g id="a_node17"><a xlink:href="semtrex__spec_8h.html" target="_top" xlink:title="spec/semtrex_spec.h">
<polygon fill="white" stroke="black" points="844.5,-112.5 844.5,-131.5 954.5,-131.5 954.5,-112.5 844.5,-112.5"/>
<text text-anchor="middle" x="899.5" y="-119.5" font-family="Helvetica,sans-Serif" font-size="10.00">spec/semtrex_spec.h</text>
</a>
</g>
</g>
<!-- Node2&#45;&gt;Node17 -->
<g id="edge27" class="edge"><title>Node2&#45;&gt;Node17</title>
<path fill="none" stroke="midnightblue" d="M807.981,-215.461C815.896,-201.709 828.026,-182.53 841.5,-168 855.019,-153.422 873.599,-139.9 886.052,-131.561"/>
<polygon fill="midnightblue" stroke="midnightblue" points="804.825,-213.935 803.004,-224.373 810.936,-217.348 804.825,-213.935"/>
</g>
<!-- Node18 -->
<g id="node18" class="node"><title>Node18</title>
<g id="a_node18"><a xlink:href="scape__spec_8h.html" target="_top" xlink:title="spec/scape_spec.h">
<polygon fill="white" stroke="black" points="973,-112.5 973,-131.5 1074,-131.5 1074,-112.5 973,-112.5"/>
<text text-anchor="middle" x="1023.5" y="-119.5" font-family="Helvetica,sans-Serif" font-size="10.00">spec/scape_spec.h</text>
</a>
</g>
</g>
<!-- Node2&#45;&gt;Node18 -->
<g id="edge30" class="edge"><title>Node2&#45;&gt;Node18</title>
<path fill="none" stroke="midnightblue" d="M813.56,-216.731C827.934,-202.085 850.851,-180.933 874.5,-168 907.099,-150.173 947.664,-138.514 978.234,-131.54"/>
<polygon fill="midnightblue" stroke="midnightblue" points="810.888,-214.46 806.502,-224.105 815.945,-219.3 810.888,-214.46"/>
</g>
<!-- Node19 -->
<g id="node19" class="node"><title>Node19</title>
<g id="a_node19"><a xlink:href="profile__example_8h.html" target="_top" xlink:title="spec/profile_example.h">
<polygon fill="white" stroke="black" points="884,-168.5 884,-187.5 1001,-187.5 1001,-168.5 884,-168.5"/>
<text text-anchor="middle" x="942.5" y="-175.5" font-family="Helvetica,sans-Serif" font-size="10.00">spec/profile_example.h</text>
</a>
</g>
</g>
<!-- Node2&#45;&gt;Node19 -->
<g id="edge32" class="edge"><title>Node2&#45;&gt;Node19</title>
<path fill="none" stroke="midnightblue" d="M830.751,-220.906C857.824,-210.754 895.817,-196.506 919.79,-187.516"/>
<polygon fill="midnightblue" stroke="midnightblue" points="829.452,-217.655 821.317,-224.444 831.909,-224.209 829.452,-217.655"/>
</g>
<!-- Node4 -->
<g id="node4" class="node"><title>Node4</title>
<g id="a_node4"><a xlink:href="accumulator_8h.html" target="_top" xlink:title="header file for the accumulator ">
<polygon fill="white" stroke="black" points="225,-112.5 225,-131.5 320,-131.5 320,-112.5 225,-112.5"/>
<text text-anchor="middle" x="272.5" y="-119.5" font-family="Helvetica,sans-Serif" font-size="10.00">src/accumulator.h</text>
</a>
</g>
</g>
<!-- Node3&#45;&gt;Node4 -->
<g id="edge3" class="edge"><title>Node3&#45;&gt;Node4</title>
<path fill="none" stroke="midnightblue" d="M336.784,-162.901C320.831,-152.999 300.003,-140.071 286.443,-131.655"/>
<polygon fill="midnightblue" stroke="midnightblue" points="335.18,-166.024 345.522,-168.324 338.871,-160.077 335.18,-166.024"/>
</g>
<!-- Node7 -->
<g id="node7" class="node"><title>Node7</title>
<g id="a_node7"><a xlink:href="vmhost_8c.html" target="_top" xlink:title="virtual machine host receptor implementation ">
<polygon fill="white" stroke="black" points="354.5,-56.5 354.5,-75.5 428.5,-75.5 428.5,-56.5 354.5,-56.5"/>
<text text-anchor="middle" x="391.5" y="-63.5" font-family="Helvetica,sans-Serif" font-size="10.00">src/vmhost.c</text>
</a>
</g>
</g>
<!-- Node3&#45;&gt;Node7 -->
<g id="edge11" class="edge"><title>Node3&#45;&gt;Node7</title>
<path fill="none" stroke="midnightblue" d="M362.207,-158.322C364.357,-145.194 367.789,-127.313 372.5,-112 376.49,-99.0313 382.914,-84.6954 387.171,-75.7671"/>
<polygon fill="midnightblue" stroke="midnightblue" points="358.71,-158.034 360.646,-168.45 365.628,-159.1 358.71,-158.034"/>
</g>
<!-- Node3&#45;&gt;Node10 -->
<g id="edge12" class="edge"><title>Node3&#45;&gt;Node10</title>
<path fill="none" stroke="midnightblue" d="M369.995,-159.633C379.26,-145.419 393.858,-125.523 410.5,-112 430.607,-95.6612 457.627,-83.2488 476.992,-75.6409"/>
<polygon fill="midnightblue" stroke="midnightblue" points="366.832,-158.088 364.473,-168.417 372.758,-161.814 366.832,-158.088"/>
</g>
<!-- Node11 -->
<g id="node11" class="node"><title>Node11</title>
<g id="a_node11"><a xlink:href="vmhost__spec_8h.html" target="_top" xlink:title="spec/vmhost_spec.h">
<polygon fill="white" stroke="black" points="491,-112.5 491,-131.5 598,-131.5 598,-112.5 491,-112.5"/>
<text text-anchor="middle" x="544.5" y="-119.5" font-family="Helvetica,sans-Serif" font-size="10.00">spec/vmhost_spec.h</text>
</a>
</g>
</g>
<!-- Node3&#45;&gt;Node11 -->
<g id="edge13" class="edge"><title>Node3&#45;&gt;Node11</title>
<path fill="none" stroke="midnightblue" d="M398.666,-165.568C433.565,-155.381 483.849,-140.703 515.323,-131.516"/>
<polygon fill="midnightblue" stroke="midnightblue" points="397.433,-162.282 388.814,-168.444 399.394,-169.001 397.433,-162.282"/>
</g>
<!-- Node5 -->
<g id="node5" class="node"><title>Node5</title>
<g id="a_node5"><a xlink:href="accumulator_8c.html" target="_top" xlink:title="implementation file for accumulator ">
<polygon fill="white" stroke="black" points="95,-56.5 95,-75.5 190,-75.5 190,-56.5 95,-56.5"/>
<text text-anchor="middle" x="142.5" y="-63.5" font-family="Helvetica,sans-Serif" font-size="10.00">src/accumulator.c</text>
</a>
</g>
</g>
<!-- Node4&#45;&gt;Node5 -->
<g id="edge4" class="edge"><title>Node4&#45;&gt;Node5</title>
<path fill="none" stroke="midnightblue" d="M242.415,-108.503C218.043,-98.3795 184.36,-84.388 163.003,-75.5164"/>
<polygon fill="midnightblue" stroke="midnightblue" points="241.323,-111.84 251.901,-112.444 244.009,-105.375 241.323,-111.84"/>
</g>
<!-- Node4&#45;&gt;Node6 -->
<g id="edge5" class="edge"><title>Node4&#45;&gt;Node6</title>
<path fill="none" stroke="midnightblue" d="M225.496,-110.153C181.283,-99.95 115.984,-84.8809 75.4045,-75.5164"/>
<polygon fill="midnightblue" stroke="midnightblue" points="224.891,-113.605 235.422,-112.444 226.465,-106.784 224.891,-113.605"/>
</g>
<!-- Node4&#45;&gt;Node7 -->
<g id="edge6" class="edge"><title>Node4&#45;&gt;Node7</title>
<path fill="none" stroke="midnightblue" d="M300.637,-108.232C322.896,-98.1312 353.356,-84.3091 372.732,-75.5164"/>
<polygon fill="midnightblue" stroke="midnightblue" points="299.016,-105.124 291.356,-112.444 301.909,-111.498 299.016,-105.124"/>
</g>
<!-- Node8 -->
<g id="node8" class="node"><title>Node8</title>
<g id="a_node8"><a xlink:href="accumulator__spec_8h_source.html" target="_top" xlink:title="spec/accumulator_spec.h">
<polygon fill="white" stroke="black" points="208.5,-56.5 208.5,-75.5 336.5,-75.5 336.5,-56.5 208.5,-56.5"/>
<text text-anchor="middle" x="272.5" y="-63.5" font-family="Helvetica,sans-Serif" font-size="10.00">spec/accumulator_spec.h</text>
</a>
</g>
</g>
<!-- Node4&#45;&gt;Node8 -->
<g id="edge7" class="edge"><title>Node4&#45;&gt;Node8</title>
<path fill="none" stroke="midnightblue" d="M272.5,-101.805C272.5,-92.9102 272.5,-82.7798 272.5,-75.7511"/>
<polygon fill="midnightblue" stroke="midnightblue" points="269,-102.083 272.5,-112.083 276,-102.083 269,-102.083"/>
</g>
<!-- Node4&#45;&gt;Node10 -->
<g id="edge9" class="edge"><title>Node4&#45;&gt;Node10</title>
<path fill="none" stroke="midnightblue" d="M318.773,-110.088C362.037,-99.8865 425.755,-84.8612 465.384,-75.5164"/>
<polygon fill="midnightblue" stroke="midnightblue" points="317.715,-106.742 308.786,-112.444 319.322,-113.555 317.715,-106.742"/>
</g>
<!-- Node9 -->
<g id="node9" class="node"><title>Node9</title>
<g id="a_node9"><a xlink:href="ceptr__specs_8c.html" target="_top" xlink:title="implements a main() entry point for running all the tests ">
<polygon fill="white" stroke="black" points="725.5,-0.5 725.5,-19.5 827.5,-19.5 827.5,-0.5 725.5,-0.5"/>
<text text-anchor="middle" x="776.5" y="-7.5" font-family="Helvetica,sans-Serif" font-size="10.00">spec/ceptr_specs.c</text>
</a>
</g>
</g>
<!-- Node8&#45;&gt;Node9 -->
<g id="edge8" class="edge"><title>Node8&#45;&gt;Node9</title>
<path fill="none" stroke="midnightblue" d="M346.882,-55.8607C490.215,-39.6234 646.531,-23.8471 725.38,-16.0262"/>
<polygon fill="midnightblue" stroke="midnightblue" points="346.127,-52.4239 336.586,-57.0304 346.917,-59.3791 346.127,-52.4239"/>
</g>
<!-- Node10&#45;&gt;Node9 -->
<g id="edge10" class="edge"><title>Node10&#45;&gt;Node9</title>
<path fill="none" stroke="midnightblue" d="M555.108,-54.4734C607.081,-44.2678 684.938,-28.9794 733.129,-19.5164"/>
<polygon fill="midnightblue" stroke="midnightblue" points="554.213,-51.0822 545.075,-56.4435 555.562,-57.951 554.213,-51.0822"/>
</g>
<!-- Node11&#45;&gt;Node9 -->
<g id="edge14" class="edge"><title>Node11&#45;&gt;Node9</title>
<path fill="none" stroke="midnightblue" d="M571.873,-108.021C619.854,-85.2717 717.886,-38.791 758.38,-19.5914"/>
<polygon fill="midnightblue" stroke="midnightblue" points="570.241,-104.922 562.705,-112.368 573.24,-111.247 570.241,-104.922"/>
</g>
<!-- Node14&#45;&gt;Node9 -->
<g id="edge19" class="edge"><title>Node14&#45;&gt;Node9</title>
<path fill="none" stroke="midnightblue" d="M678.869,-105.205C703.305,-81.6272 748.488,-38.0294 767.596,-19.5914"/>
<polygon fill="midnightblue" stroke="midnightblue" points="676.211,-102.906 671.445,-112.368 681.072,-107.943 676.211,-102.906"/>
</g>
<!-- Node15&#45;&gt;Node10 -->
<g id="edge24" class="edge"><title>Node15&#45;&gt;Node10</title>
<path fill="none" stroke="midnightblue" d="M595.728,-169.177C550.587,-162.177 495.655,-150.179 481.5,-132 468.298,-115.045 483.976,-89.3449 494.143,-75.9036"/>
<polygon fill="midnightblue" stroke="midnightblue" points="595.372,-172.663 605.78,-170.68 596.408,-165.74 595.372,-172.663"/>
</g>
<!-- Node15&#45;&gt;Node11 -->
<g id="edge25" class="edge"><title>Node15&#45;&gt;Node11</title>
<path fill="none" stroke="midnightblue" d="M632.019,-164.096C610.534,-154.007 581.278,-140.27 562.637,-131.516"/>
<polygon fill="midnightblue" stroke="midnightblue" points="630.738,-167.361 641.278,-168.444 633.714,-161.025 630.738,-167.361"/>
</g>
<!-- Node15&#45;&gt;Node14 -->
<g id="edge21" class="edge"><title>Node15&#45;&gt;Node14</title>
<path fill="none" stroke="midnightblue" d="M660.566,-157.805C661.061,-148.91 661.623,-138.78 662.014,-131.751"/>
<polygon fill="midnightblue" stroke="midnightblue" points="657.056,-157.904 659.995,-168.083 664.045,-158.293 657.056,-157.904"/>
</g>
<!-- Node15&#45;&gt;Node16 -->
<g id="edge22" class="edge"><title>Node15&#45;&gt;Node16</title>
<path fill="none" stroke="midnightblue" d="M687.164,-164.232C709.049,-154.131 738.997,-140.309 758.048,-131.516"/>
<polygon fill="midnightblue" stroke="midnightblue" points="685.652,-161.075 678.039,-168.444 688.585,-167.431 685.652,-161.075"/>
</g>
<!-- Node16&#45;&gt;Node9 -->
<g id="edge23" class="edge"><title>Node16&#45;&gt;Node9</title>
<path fill="none" stroke="midnightblue" d="M776.5,-102.348C776.5,-78.2538 776.5,-37.3079 776.5,-19.5914"/>
<polygon fill="midnightblue" stroke="midnightblue" points="773,-102.368 776.5,-112.368 780,-102.369 773,-102.368"/>
</g>
<!-- Node17&#45;&gt;Node9 -->
<g id="edge28" class="edge"><title>Node17&#45;&gt;Node9</title>
<path fill="none" stroke="midnightblue" d="M882.181,-105.512C855.899,-82.0068 806.813,-38.1096 786.107,-19.5914"/>
<polygon fill="midnightblue" stroke="midnightblue" points="880.061,-108.311 889.848,-112.368 884.728,-103.093 880.061,-108.311"/>
</g>
<!-- Node18&#45;&gt;Node9 -->
<g id="edge31" class="edge"><title>Node18&#45;&gt;Node9</title>
<path fill="none" stroke="midnightblue" d="M994.676,-108.163C943.71,-85.4659 838.993,-38.8311 795.792,-19.5914"/>
<polygon fill="midnightblue" stroke="midnightblue" points="993.559,-111.497 1004.12,-112.368 996.407,-105.103 993.559,-111.497"/>
</g>
<!-- Node19&#45;&gt;Node9 -->
<g id="edge33" class="edge"><title>Node19&#45;&gt;Node9</title>
<path fill="none" stroke="midnightblue" d="M997.783,-166.185C1032.32,-158.18 1072.13,-146.224 1082.5,-132 1087.74,-124.817 1087.7,-119.211 1082.5,-112 1024.11,-30.9893 898.376,-13.8464 827.599,-10.8915"/>
<polygon fill="midnightblue" stroke="midnightblue" points="996.735,-162.833 987.745,-168.439 998.268,-169.663 996.735,-162.833"/>
</g>
<!-- Node20&#45;&gt;Node9 -->
<g id="edge37" class="edge"><title>Node20&#45;&gt;Node9</title>
<path fill="none" stroke="midnightblue" d="M1031.59,-221.514C1051.72,-214.871 1072.46,-204.419 1086.5,-188 1108.72,-162.008 1111.15,-143.77 1098.5,-112 1085.82,-80.1627 1075.75,-72.1074 1045.5,-56 1008.62,-36.3587 894.724,-22.4104 827.543,-15.6413"/>
<polygon fill="midnightblue" stroke="midnightblue" points="1030.34,-218.234 1021.78,-224.479 1032.37,-224.935 1030.34,-218.234"/>
</g>
</g>
</svg>
        <g id="navigator" transform="translate(0 0)" fill="#404254">
                <rect fill="#f2f5e9" fill-opacity="0.5" stroke="#606060" stroke-width=".5" x="0" y="0" width="60" height="60"/>
                <use id="zoomplus" xlink:href="#zoomPlus" x="17" y="9" onmousedown="handleZoom(evt,'in')"/>
                <use id="zoomminus" xlink:href="#zoomMin" x="42" y="9" onmousedown="handleZoom(evt,'out')"/>
                <use id="reset" xlink:href="#resetDef" x="30" y="36" onmousedown="handleReset()"/>
                <g id="arrowUp" xlink:href="#dirArrow" transform="translate(30 24)" onmousedown="handlePan(0,-1)">
                  <use xlink:href="#rim" fill="#404040">
                        <set attributeName="fill" to="#808080" begin="arrowUp.mouseover" end="arrowUp.mouseout"/>
                  </use>
                  <path fill="none" stroke="white" stroke-width="1.5" d="M0,-3.0v7 M-2.5,-0.5L0,-3.0L2.5,-0.5"/>
                </g>
                <g id="arrowRight" xlink:href="#dirArrow" transform="rotate(90) translate(36 -43)" onmousedown="handlePan(1,0)">
                  <use xlink:href="#rim" fill="#404040">
                        <set attributeName="fill" to="#808080" begin="arrowRight.mouseover" end="arrowRight.mouseout"/>
                  </use>
                  <path fill="none" stroke="white" stroke-width="1.5" d="M0,-3.0v7 M-2.5,-0.5L0,-3.0L2.5,-0.5"/>
                </g>
                <g id="arrowDown" xlink:href="#dirArrow" transform="rotate(180) translate(-30 -48)" onmousedown="handlePan(0,1)">
                  <use xlink:href="#rim" fill="#404040">
                        <set attributeName="fill" to="#808080" begin="arrowDown.mouseover" end="arrowDown.mouseout"/>
                  </use>
                  <path fill="none" stroke="white" stroke-width="1.5" d="M0,-3.0v7 M-2.5,-0.5L0,-3.0L2.5,-0.5"/>
                </g>
                <g id="arrowLeft" xlink:href="#dirArrow" transform="rotate(270) translate(-36 17)" onmousedown="handlePan(-1,0)">
                  <use xlink:href="#rim" fill="#404040">
                        <set attributeName="fill" to="#808080" begin="arrowLeft.mouseover" end="arrowLeft.mouseout"/>
                  </use>
                  <path fill="none" stroke="white" stroke-width="1.5" d="M0,-3.0v7 M-2.5,-0.5L0,-3.0L2.5,-0.5"/>
                </g>
        </g>
        <svg viewBox="0 0 15 15" width="100%" height="30px" preserveAspectRatio="xMaxYMin meet">
         <g id="arrow_out" transform="scale(0.3 0.3)">
          <a xlink:href="process_8h__dep__incl_org.svg" target="_base">
           <rect id="button" ry="5" rx="5" y="6" x="6" height="38" width="38"
                fill="#f2f5e9" fill-opacity="0.5" stroke="#606060" stroke-width="1.0"/>
           <path id="arrow"
             d="M 11.500037,31.436501 C 11.940474,20.09759 22.043105,11.32322 32.158766,21.979434 L 37.068811,17.246167 C 37.068811,17.246167 37.088388,32 37.088388,32 L 22.160133,31.978069 C 22.160133,31.978069 26.997745,27.140456 26.997745,27.140456 C 18.528582,18.264221 13.291696,25.230495 11.500037,31.436501 z"
             style="fill:#404040;"/>
          </a>
         </g>
        </svg>
</svg>
