<?xml version="1.0" encoding="UTF-8" standalone="no"?>
<!DOCTYPE svg PUBLIC "-//W3C//DTD SVG 1.1//EN"
 "http://www.w3.org/Graphics/SVG/1.1/DTD/svg11.dtd">
<!-- Generated by graphviz version 2.38.0 (20140413.2041)
 -->
<!-- Title: src/process.h Pages: 1 -->
<!--zoomable 364 -->
<svg id="main" version="1.1" xmlns="http://www.w3.org/2000/svg" xmlns:xlink="http://www.w3.org/1999/xlink" xml:space="preserve" onload="init(evt)">
<style type="text/css"><![CDATA[
.edge:hover path { stroke: red; }
.edge:hover polygon { stroke: red; fill: red; }
]]></style>
<script type="text/javascript"><![CDATA[
var edges = document.getElementsByTagName('g');
if (edges && edges.length) {
  for (var i=0;i<edges.length;i++) {
    if (edges[i].id.substr(0,4)=='edge') {
      edges[i].setAttribute('class','edge');
    }
  }
}
]]></script>
        <defs>
                <circle id="rim" cx="0" cy="0" r="7"/>
                <circle id="rim2" cx="0" cy="0" r="3.5"/>
                <g id="zoomPlus">
                        <use xlink:href="#rim" fill="#404040">
                                <set attributeName="fill" to="#808080" begin="zoomplus.mouseover" end="zoomplus.mouseout"/>
                        </use>
                        <path d="M-4,0h8M0,-4v8" fill="none" stroke="white" stroke-width="1.5" pointer-events="none"/>
                </g>
                <g id="zoomMin">
                        <use xlink:href="#rim" fill="#404040">
                                <set attributeName="fill" to="#808080" begin="zoomminus.mouseover" end="zoomminus.mouseout"/>
                        </use>
                        <path d="M-4,0h8" fill="none" stroke="white" stroke-width="1.5" pointer-events="none"/>
                </g>
                <g id="dirArrow">
                        <path fill="none" stroke="white" stroke-width="1.5" d="M0,-3.0v7 M-2.5,-0.5L0,-3.0L2.5,-0.5"/>
                </g>
               <g id="resetDef">
                       <use xlink:href="#rim2" fill="#404040">
                               <set attributeName="fill" to="#808080" begin="reset.mouseover" end="reset.mouseout"/>
                       </use>
               </g>
        </defs>

<script type="text/javascript">
var viewWidth = 1253;
var viewHeight = 364;
var sectionId = 'dynsection-1';
</script>
<script xlink:href="svgpan.js"/>
<svg id="graph" class="graph">
<g id="viewport">
<title>src/process.h</title>
<polygon fill="white" stroke="none" points="-4,4 -4,-360 1249,-360 1249,4 -4,4"/>
<!-- Node1 -->
<g id="node1" class="node"><title>Node1</title>
<polygon fill="#bfbfbf" stroke="black" points="983,-336.5 983,-355.5 1059,-355.5 1059,-336.5 983,-336.5"/>
<text text-anchor="middle" x="1021" y="-343.5" font-family="Helvetica,sans-Serif" font-size="10.00">src/process.h</text>
</g>
<!-- Node2 -->
<g id="node2" class="node"><title>Node2</title>
<g id="a_node2"><a xlink:href="receptor_8h.html" target="_top" xlink:title="receptor implementation header file ">
<polygon fill="white" stroke="black" points="625.5,-280.5 625.5,-299.5 702.5,-299.5 702.5,-280.5 625.5,-280.5"/>
<text text-anchor="middle" x="664" y="-287.5" font-family="Helvetica,sans-Serif" font-size="10.00">src/receptor.h</text>
</a>
</g>
</g>
<!-- Node1&#45;&gt;Node2 -->
<g id="edge1" class="edge"><title>Node1&#45;&gt;Node2</title>
<path fill="none" stroke="midnightblue" d="M972.695,-337.693C901.129,-326.868 768.343,-306.783 702.741,-296.86"/>
<polygon fill="midnightblue" stroke="midnightblue" points="972.384,-341.186 982.795,-339.221 973.431,-334.265 972.384,-341.186"/>
</g>
<!-- Node7 -->
<g id="node7" class="node"><title>Node7</title>
<g id="a_node7"><a xlink:href="receptor_8c.html" target="_top" xlink:title="receptor implementation ">
<polygon fill="white" stroke="black" points="876.5,-112.5 876.5,-131.5 953.5,-131.5 953.5,-112.5 876.5,-112.5"/>
<text text-anchor="middle" x="915" y="-119.5" font-family="Helvetica,sans-Serif" font-size="10.00">src/receptor.c</text>
</a>
</g>
</g>
<!-- Node1&#45;&gt;Node7 -->
<g id="edge41" class="edge"><title>Node1&#45;&gt;Node7</title>
<path fill="none" stroke="midnightblue" d="M1013.97,-326.737C1002.48,-297.379 979.7,-241.236 967,-224 952.616,-204.477 937.816,-209.176 926,-188 915.85,-169.81 914.573,-144.631 914.682,-131.594"/>
<polygon fill="midnightblue" stroke="midnightblue" points="1010.77,-328.164 1017.65,-336.219 1017.29,-325.63 1010.77,-328.164"/>
</g>
<!-- Node15 -->
<g id="node15" class="node"><title>Node15</title>
<g id="a_node15"><a xlink:href="process_8c.html" target="_top" xlink:title="implementation of ceptr processing: instructions and run tree reduction ">
<polygon fill="white" stroke="black" points="882,-224.5 882,-243.5 958,-243.5 958,-224.5 882,-224.5"/>
<text text-anchor="middle" x="920" y="-231.5" font-family="Helvetica,sans-Serif" font-size="10.00">src/process.c</text>
</a>
</g>
</g>
<!-- Node1&#45;&gt;Node15 -->
<g id="edge40" class="edge"><title>Node1&#45;&gt;Node15</title>
<path fill="none" stroke="midnightblue" d="M1003.09,-329.743C993.531,-321.307 981.757,-310.445 972,-300 954.243,-280.99 935.749,-256.578 926.333,-243.759"/>
<polygon fill="midnightblue" stroke="midnightblue" points="1000.97,-332.54 1010.82,-336.459 1005.57,-327.257 1000.97,-332.54"/>
</g>
<!-- Node23 -->
<g id="node23" class="node"><title>Node23</title>
<g id="a_node23"><a xlink:href="base__defs_8c.html" target="_top" xlink:title="auto&#45;generated system definitions ">
<polygon fill="white" stroke="black" points="1014,-280.5 1014,-299.5 1100,-299.5 1100,-280.5 1014,-280.5"/>
<text text-anchor="middle" x="1057" y="-287.5" font-family="Helvetica,sans-Serif" font-size="10.00">src/base_defs.c</text>
</a>
</g>
</g>
<!-- Node1&#45;&gt;Node23 -->
<g id="edge39" class="edge"><title>Node1&#45;&gt;Node23</title>
<path fill="none" stroke="midnightblue" d="M1032.62,-327.566C1038.82,-318.275 1046.17,-307.248 1051.17,-299.751"/>
<polygon fill="midnightblue" stroke="midnightblue" points="1029.58,-325.821 1026.94,-336.083 1035.4,-329.704 1029.58,-325.821"/>
</g>
<!-- Node24 -->
<g id="node24" class="node"><title>Node24</title>
<g id="a_node24"><a xlink:href="stream_8c.html" target="_top" xlink:title="stream abstraction implementation ">
<polygon fill="white" stroke="black" points="1118.5,-280.5 1118.5,-299.5 1189.5,-299.5 1189.5,-280.5 1118.5,-280.5"/>
<text text-anchor="middle" x="1154" y="-287.5" font-family="Helvetica,sans-Serif" font-size="10.00">src/stream.c</text>
</a>
</g>
</g>
<!-- Node1&#45;&gt;Node24 -->
<g id="edge42" class="edge"><title>Node1&#45;&gt;Node24</title>
<path fill="none" stroke="midnightblue" d="M1051.45,-332.638C1076.41,-322.504 1111.08,-308.427 1133.02,-299.516"/>
<polygon fill="midnightblue" stroke="midnightblue" points="1050.02,-329.439 1042.07,-336.444 1052.66,-335.924 1050.02,-329.439"/>
</g>
<!-- Node25 -->
<g id="node25" class="node"><title>Node25</title>
<g id="a_node25"><a xlink:href="process__spec_8h.html" target="_top" xlink:title="spec/process_spec.h">
<polygon fill="white" stroke="black" points="1135,-224.5 1135,-243.5 1245,-243.5 1245,-224.5 1135,-224.5"/>
<text text-anchor="middle" x="1190" y="-231.5" font-family="Helvetica,sans-Serif" font-size="10.00">spec/process_spec.h</text>
</a>
</g>
</g>
<!-- Node1&#45;&gt;Node25 -->
<g id="edge43" class="edge"><title>Node1&#45;&gt;Node25</title>
<path fill="none" stroke="midnightblue" d="M1069,-339.411C1115.84,-332.853 1182.27,-320.229 1198,-300 1210.84,-283.485 1201.09,-257.131 1194.59,-243.613"/>
<polygon fill="midnightblue" stroke="midnightblue" points="1068.48,-335.95 1059.04,-340.757 1069.42,-342.887 1068.48,-335.95"/>
</g>
<!-- Node3 -->
<g id="node3" class="node"><title>Node3</title>
<g id="a_node3"><a xlink:href="vmhost_8h.html" target="_top" xlink:title="vmhost implementation header file ">
<polygon fill="white" stroke="black" points="432,-224.5 432,-243.5 506,-243.5 506,-224.5 432,-224.5"/>
<text text-anchor="middle" x="469" y="-231.5" font-family="Helvetica,sans-Serif" font-size="10.00">src/vmhost.h</text>
</a>
</g>
</g>
<!-- Node2&#45;&gt;Node3 -->
<g id="edge2" class="edge"><title>Node2&#45;&gt;Node3</title>
<path fill="none" stroke="midnightblue" d="M623.19,-277.699C586.387,-267.507 533.071,-252.743 499.754,-243.516"/>
<polygon fill="midnightblue" stroke="midnightblue" points="622.53,-281.148 633.102,-280.444 624.398,-274.402 622.53,-281.148"/>
</g>
<!-- Node5 -->
<g id="node5" class="node"><title>Node5</title>
<g id="a_node5"><a xlink:href="accumulator_8c.html" target="_top" xlink:title="implementation file for accumulator ">
<polygon fill="white" stroke="black" points="724.5,-112.5 724.5,-131.5 819.5,-131.5 819.5,-112.5 724.5,-112.5"/>
<text text-anchor="middle" x="772" y="-119.5" font-family="Helvetica,sans-Serif" font-size="10.00">src/accumulator.c</text>
</a>
</g>
</g>
<!-- Node2&#45;&gt;Node5 -->
<g id="edge19" class="edge"><title>Node2&#45;&gt;Node5</title>
<path fill="none" stroke="midnightblue" d="M653.98,-271.308C641.136,-246.013 622.999,-199.138 645,-168 662.886,-142.687 696.279,-131.522 724.335,-126.641"/>
<polygon fill="midnightblue" stroke="midnightblue" points="651.062,-273.273 658.868,-280.436 657.233,-269.968 651.062,-273.273"/>
</g>
<!-- Node2&#45;&gt;Node7 -->
<g id="edge21" class="edge"><title>Node2&#45;&gt;Node7</title>
<path fill="none" stroke="midnightblue" d="M676.266,-271.747C686.919,-257.64 703.373,-237.835 721,-224 776.857,-180.16 854.626,-146.475 892.49,-131.502"/>
<polygon fill="midnightblue" stroke="midnightblue" points="673.248,-269.943 670.148,-280.074 678.889,-274.087 673.248,-269.943"/>
</g>
<!-- Node14 -->
<g id="node14" class="node"><title>Node14</title>
<g id="a_node14"><a xlink:href="receptor__spec_8h.html" target="_top" xlink:title="spec/receptor_spec.h">
<polygon fill="white" stroke="black" points="266,-112.5 266,-131.5 376,-131.5 376,-112.5 266,-112.5"/>
<text text-anchor="middle" x="321" y="-119.5" font-family="Helvetica,sans-Serif" font-size="10.00">spec/receptor_spec.h</text>
</a>
</g>
</g>
<!-- Node2&#45;&gt;Node14 -->
<g id="edge34" class="edge"><title>Node2&#45;&gt;Node14</title>
<path fill="none" stroke="midnightblue" d="M615.187,-287.718C564.651,-284.647 484.616,-274.808 423,-244 372.131,-218.566 336.837,-155.151 325.189,-131.807"/>
<polygon fill="midnightblue" stroke="midnightblue" points="615.022,-291.214 625.196,-288.261 615.401,-284.224 615.022,-291.214"/>
</g>
<!-- Node2&#45;&gt;Node15 -->
<g id="edge20" class="edge"><title>Node2&#45;&gt;Node15</title>
<path fill="none" stroke="midnightblue" d="M712.691,-278.729C761.894,-268.351 836.9,-252.529 881.92,-243.033"/>
<polygon fill="midnightblue" stroke="midnightblue" points="711.665,-275.369 702.603,-280.857 713.11,-282.218 711.665,-275.369"/>
</g>
<!-- Node16 -->
<g id="node16" class="node"><title>Node16</title>
<g id="a_node16"><a xlink:href="tree_8c.html" target="_top" xlink:title="semantic tree pointer implementation ">
<polygon fill="white" stroke="black" points="730,-224.5 730,-243.5 788,-243.5 788,-224.5 730,-224.5"/>
<text text-anchor="middle" x="759" y="-231.5" font-family="Helvetica,sans-Serif" font-size="10.00">src/tree.c</text>
</a>
</g>
</g>
<!-- Node2&#45;&gt;Node16 -->
<g id="edge22" class="edge"><title>Node2&#45;&gt;Node16</title>
<path fill="none" stroke="midnightblue" d="M688.318,-275.177C705.799,-265.241 728.83,-252.149 743.774,-243.655"/>
<polygon fill="midnightblue" stroke="midnightblue" points="686.227,-272.339 679.263,-280.324 689.687,-278.425 686.227,-272.339"/>
</g>
<!-- Node17 -->
<g id="node17" class="node"><title>Node17</title>
<g id="a_node17"><a xlink:href="tree__spec_8h.html" target="_top" xlink:title="spec/tree_spec.h">
<polygon fill="white" stroke="black" points="118,-112.5 118,-131.5 210,-131.5 210,-112.5 118,-112.5"/>
<text text-anchor="middle" x="164" y="-119.5" font-family="Helvetica,sans-Serif" font-size="10.00">spec/tree_spec.h</text>
</a>
</g>
</g>
<!-- Node2&#45;&gt;Node17 -->
<g id="edge23" class="edge"><title>Node2&#45;&gt;Node17</title>
<path fill="none" stroke="midnightblue" d="M614.987,-289.27C541.168,-288.341 397.871,-281.307 283,-244 234.552,-228.265 214.726,-227.853 183,-188 169.527,-171.075 165.606,-144.901 164.466,-131.516"/>
<polygon fill="midnightblue" stroke="midnightblue" points="615.331,-292.773 625.363,-289.365 615.395,-285.773 615.331,-292.773"/>
</g>
<!-- Node18 -->
<g id="node18" class="node"><title>Node18</title>
<g id="a_node18"><a xlink:href="http__example_8h.html" target="_top" xlink:title="spec/http_example.h">
<polygon fill="white" stroke="black" points="192.5,-168.5 192.5,-187.5 299.5,-187.5 299.5,-168.5 192.5,-168.5"/>
<text text-anchor="middle" x="246" y="-175.5" font-family="Helvetica,sans-Serif" font-size="10.00">spec/http_example.h</text>
</a>
</g>
</g>
<!-- Node2&#45;&gt;Node18 -->
<g id="edge25" class="edge"><title>Node2&#45;&gt;Node18</title>
<path fill="none" stroke="midnightblue" d="M615.258,-286.485C531.978,-281.571 366.225,-268.929 314,-244 286.292,-230.774 262.607,-201.919 251.98,-187.523"/>
<polygon fill="midnightblue" stroke="midnightblue" points="615.291,-289.993 625.475,-287.073 615.693,-283.004 615.291,-289.993"/>
</g>
<!-- Node19 -->
<g id="node19" class="node"><title>Node19</title>
<g id="a_node19"><a xlink:href="mtree__spec_8h.html" target="_top" xlink:title="spec/mtree_spec.h">
<polygon fill="white" stroke="black" points="0,-112.5 0,-131.5 100,-131.5 100,-112.5 0,-112.5"/>
<text text-anchor="middle" x="50" y="-119.5" font-family="Helvetica,sans-Serif" font-size="10.00">spec/mtree_spec.h</text>
</a>
</g>
</g>
<!-- Node2&#45;&gt;Node19 -->
<g id="edge31" class="edge"><title>Node2&#45;&gt;Node19</title>
<path fill="none" stroke="midnightblue" d="M615.408,-287.151C516.066,-282.868 293.101,-270.541 222,-244 151.196,-217.57 82.4378,-154.77 58.7101,-131.697"/>
<polygon fill="midnightblue" stroke="midnightblue" points="615.34,-290.651 625.478,-287.576 615.635,-283.657 615.34,-290.651"/>
</g>
<!-- Node20 -->
<g id="node20" class="node"><title>Node20</title>
<g id="a_node20"><a xlink:href="semtrex__spec_8h.html" target="_top" xlink:title="spec/semtrex_spec.h">
<polygon fill="white" stroke="black" points="654,-168.5 654,-187.5 764,-187.5 764,-168.5 654,-168.5"/>
<text text-anchor="middle" x="709" y="-175.5" font-family="Helvetica,sans-Serif" font-size="10.00">spec/semtrex_spec.h</text>
</a>
</g>
</g>
<!-- Node2&#45;&gt;Node20 -->
<g id="edge32" class="edge"><title>Node2&#45;&gt;Node20</title>
<path fill="none" stroke="midnightblue" d="M670.262,-270.806C674.888,-257.686 681.488,-239.613 688,-224 693.377,-211.11 700.358,-196.513 704.76,-187.532"/>
<polygon fill="midnightblue" stroke="midnightblue" points="666.87,-269.904 666.886,-280.499 673.481,-272.207 666.87,-269.904"/>
</g>
<!-- Node21 -->
<g id="node21" class="node"><title>Node21</title>
<g id="a_node21"><a xlink:href="scape__spec_8h.html" target="_top" xlink:title="spec/scape_spec.h">
<polygon fill="white" stroke="black" points="935.5,-168.5 935.5,-187.5 1036.5,-187.5 1036.5,-168.5 935.5,-168.5"/>
<text text-anchor="middle" x="986" y="-175.5" font-family="Helvetica,sans-Serif" font-size="10.00">spec/scape_spec.h</text>
</a>
</g>
</g>
<!-- Node2&#45;&gt;Node21 -->
<g id="edge35" class="edge"><title>Node2&#45;&gt;Node21</title>
<path fill="none" stroke="midnightblue" d="M701.858,-277.405C728.691,-268.893 765.395,-256.653 797,-244 816.567,-236.166 820.328,-231.566 840,-224 878.496,-209.194 924.093,-195.772 953.962,-187.515"/>
<polygon fill="midnightblue" stroke="midnightblue" points="700.577,-274.139 692.088,-280.478 702.677,-280.816 700.577,-274.139"/>
</g>
<!-- Node22 -->
<g id="node22" class="node"><title>Node22</title>
<g id="a_node22"><a xlink:href="profile__example_8h.html" target="_top" xlink:title="spec/profile_example.h">
<polygon fill="white" stroke="black" points="1010.5,-56.5 1010.5,-75.5 1127.5,-75.5 1127.5,-56.5 1010.5,-56.5"/>
<text text-anchor="middle" x="1069" y="-63.5" font-family="Helvetica,sans-Serif" font-size="10.00">spec/profile_example.h</text>
</a>
</g>
</g>
<!-- Node2&#45;&gt;Node22 -->
<g id="edge37" class="edge"><title>Node2&#45;&gt;Node22</title>
<path fill="none" stroke="midnightblue" d="M712.379,-278.877C746.625,-271.049 793.329,-259.02 833,-244 851.588,-236.962 854.229,-230.534 873,-224 946.76,-198.324 990.066,-243.515 1045,-188 1075.88,-156.793 1072.69,-97.9746 1070.2,-75.7777"/>
<polygon fill="midnightblue" stroke="midnightblue" points="711.609,-275.463 702.62,-281.072 713.145,-282.292 711.609,-275.463"/>
</g>
<!-- Node4 -->
<g id="node4" class="node"><title>Node4</title>
<g id="a_node4"><a xlink:href="accumulator_8h.html" target="_top" xlink:title="header file for the accumulator ">
<polygon fill="white" stroke="black" points="502.5,-168.5 502.5,-187.5 597.5,-187.5 597.5,-168.5 502.5,-168.5"/>
<text text-anchor="middle" x="550" y="-175.5" font-family="Helvetica,sans-Serif" font-size="10.00">src/accumulator.h</text>
</a>
</g>
</g>
<!-- Node3&#45;&gt;Node4 -->
<g id="edge3" class="edge"><title>Node3&#45;&gt;Node4</title>
<path fill="none" stroke="midnightblue" d="M490.567,-218.622C505.364,-208.757 524.512,-195.992 537.018,-187.655"/>
<polygon fill="midnightblue" stroke="midnightblue" points="488.393,-215.865 482.014,-224.324 492.276,-221.689 488.393,-215.865"/>
</g>
<!-- Node10 -->
<g id="node10" class="node"><title>Node10</title>
<g id="a_node10"><a xlink:href="vmhost__spec_8h.html" target="_top" xlink:title="spec/vmhost_spec.h">
<polygon fill="white" stroke="black" points="387.5,-56.5 387.5,-75.5 494.5,-75.5 494.5,-56.5 387.5,-56.5"/>
<text text-anchor="middle" x="441" y="-63.5" font-family="Helvetica,sans-Serif" font-size="10.00">spec/vmhost_spec.h</text>
</a>
</g>
</g>
<!-- Node3&#45;&gt;Node10 -->
<g id="edge18" class="edge"><title>Node3&#45;&gt;Node10</title>
<path fill="none" stroke="midnightblue" d="M458.272,-215.601C446.924,-196.087 429.746,-163.088 423,-132 418.58,-111.631 429.009,-88.1629 435.774,-75.7528"/>
<polygon fill="midnightblue" stroke="midnightblue" points="455.313,-217.473 463.446,-224.263 461.323,-213.883 455.313,-217.473"/>
</g>
<!-- Node12 -->
<g id="node12" class="node"><title>Node12</title>
<g id="a_node12"><a xlink:href="vmhost_8c.html" target="_top" xlink:title="virtual machine host receptor implementation ">
<polygon fill="white" stroke="black" points="432,-112.5 432,-131.5 506,-131.5 506,-112.5 432,-112.5"/>
<text text-anchor="middle" x="469" y="-119.5" font-family="Helvetica,sans-Serif" font-size="10.00">src/vmhost.c</text>
</a>
</g>
</g>
<!-- Node3&#45;&gt;Node12 -->
<g id="edge16" class="edge"><title>Node3&#45;&gt;Node12</title>
<path fill="none" stroke="midnightblue" d="M469,-214.348C469,-190.254 469,-149.308 469,-131.591"/>
<polygon fill="midnightblue" stroke="midnightblue" points="465.5,-214.368 469,-224.368 472.5,-214.369 465.5,-214.368"/>
</g>
<!-- Node3&#45;&gt;Node14 -->
<g id="edge17" class="edge"><title>Node3&#45;&gt;Node14</title>
<path fill="none" stroke="midnightblue" d="M442.12,-219.737C426.362,-211.47 406.396,-200.123 390,-188 365.916,-170.193 341.202,-144.852 328.926,-131.69"/>
<polygon fill="midnightblue" stroke="midnightblue" points="440.824,-223.007 451.318,-224.466 444.024,-216.781 440.824,-223.007"/>
</g>
<!-- Node4&#45;&gt;Node5 -->
<g id="edge4" class="edge"><title>Node4&#45;&gt;Node5</title>
<path fill="none" stroke="midnightblue" d="M595.125,-166.024C637.06,-155.823 698.652,-140.841 736.988,-131.516"/>
<polygon fill="midnightblue" stroke="midnightblue" points="594.066,-162.679 585.177,-168.444 595.72,-169.481 594.066,-162.679"/>
</g>
<!-- Node6 -->
<g id="node6" class="node"><title>Node6</title>
<g id="a_node6"><a xlink:href="ceptr_8c.html" target="_top" xlink:title="implements main() entry point for the ceptr node ">
<polygon fill="white" stroke="black" points="604.5,-112.5 604.5,-131.5 667.5,-131.5 667.5,-112.5 604.5,-112.5"/>
<text text-anchor="middle" x="636" y="-119.5" font-family="Helvetica,sans-Serif" font-size="10.00">src/ceptr.c</text>
</a>
</g>
</g>
<!-- Node4&#45;&gt;Node6 -->
<g id="edge5" class="edge"><title>Node4&#45;&gt;Node6</title>
<path fill="none" stroke="midnightblue" d="M572.455,-162.901C588.224,-152.999 608.814,-140.071 622.217,-131.655"/>
<polygon fill="midnightblue" stroke="midnightblue" points="570.425,-160.042 563.817,-168.324 574.148,-165.97 570.425,-160.042"/>
</g>
<!-- Node4&#45;&gt;Node7 -->
<g id="edge6" class="edge"><title>Node4&#45;&gt;Node7</title>
<path fill="none" stroke="midnightblue" d="M607.957,-168.426C683.148,-157.301 812.273,-138.198 876.454,-128.703"/>
<polygon fill="midnightblue" stroke="midnightblue" points="607.097,-165.015 597.717,-169.94 608.122,-171.939 607.097,-165.015"/>
</g>
<!-- Node8 -->
<g id="node8" class="node"><title>Node8</title>
<g id="a_node8"><a xlink:href="shell_8h.html" target="_top" xlink:title="command line shell receptor header files ">
<polygon fill="white" stroke="black" points="524,-112.5 524,-131.5 586,-131.5 586,-112.5 524,-112.5"/>
<text text-anchor="middle" x="555" y="-119.5" font-family="Helvetica,sans-Serif" font-size="10.00">src/shell.h</text>
</a>
</g>
</g>
<!-- Node4&#45;&gt;Node8 -->
<g id="edge7" class="edge"><title>Node4&#45;&gt;Node8</title>
<path fill="none" stroke="midnightblue" d="M551.75,-158.101C552.58,-149.136 553.532,-138.858 554.19,-131.751"/>
<polygon fill="midnightblue" stroke="midnightblue" points="548.263,-157.803 550.826,-168.083 555.233,-158.448 548.263,-157.803"/>
</g>
<!-- Node4&#45;&gt;Node12 -->
<g id="edge11" class="edge"><title>Node4&#45;&gt;Node12</title>
<path fill="none" stroke="midnightblue" d="M528.433,-162.622C513.636,-152.757 494.488,-139.992 481.982,-131.655"/>
<polygon fill="midnightblue" stroke="midnightblue" points="526.724,-165.689 536.986,-168.324 530.607,-159.865 526.724,-165.689"/>
</g>
<!-- Node13 -->
<g id="node13" class="node"><title>Node13</title>
<g id="a_node13"><a xlink:href="accumulator__spec_8h_source.html" target="_top" xlink:title="spec/accumulator_spec.h">
<polygon fill="white" stroke="black" points="632,-56.5 632,-75.5 760,-75.5 760,-56.5 632,-56.5"/>
<text text-anchor="middle" x="696" y="-63.5" font-family="Helvetica,sans-Serif" font-size="10.00">spec/accumulator_spec.h</text>
</a>
</g>
</g>
<!-- Node4&#45;&gt;Node13 -->
<g id="edge12" class="edge"><title>Node4&#45;&gt;Node13</title>
<path fill="none" stroke="midnightblue" d="M607.361,-168.235C631.418,-161.862 657.938,-150.885 676,-132 691.016,-116.3 694.778,-89.5898 695.707,-75.807"/>
<polygon fill="midnightblue" stroke="midnightblue" points="606.475,-164.848 597.587,-170.615 608.131,-171.649 606.475,-164.848"/>
</g>
<!-- Node4&#45;&gt;Node14 -->
<g id="edge14" class="edge"><title>Node4&#45;&gt;Node14</title>
<path fill="none" stroke="midnightblue" d="M503.727,-166.088C460.463,-155.887 396.745,-140.861 357.116,-131.516"/>
<polygon fill="midnightblue" stroke="midnightblue" points="503.178,-169.555 513.714,-168.444 504.785,-162.742 503.178,-169.555"/>
</g>
<!-- Node9 -->
<g id="node9" class="node"><title>Node9</title>
<g id="a_node9"><a xlink:href="shell_8c.html" target="_top" xlink:title="implementation of a command line shell receptor ">
<polygon fill="white" stroke="black" points="524,-56.5 524,-75.5 586,-75.5 586,-56.5 524,-56.5"/>
<text text-anchor="middle" x="555" y="-63.5" font-family="Helvetica,sans-Serif" font-size="10.00">src/shell.c</text>
</a>
</g>
</g>
<!-- Node8&#45;&gt;Node9 -->
<g id="edge8" class="edge"><title>Node8&#45;&gt;Node9</title>
<path fill="none" stroke="midnightblue" d="M555,-101.805C555,-92.9102 555,-82.7798 555,-75.7511"/>
<polygon fill="midnightblue" stroke="midnightblue" points="551.5,-102.083 555,-112.083 558.5,-102.083 551.5,-102.083"/>
</g>
<!-- Node8&#45;&gt;Node10 -->
<g id="edge9" class="edge"><title>Node8&#45;&gt;Node10</title>
<path fill="none" stroke="midnightblue" d="M527.758,-108.096C506.46,-98.0073 477.458,-84.2697 458.979,-75.5164"/>
<polygon fill="midnightblue" stroke="midnightblue" points="526.401,-111.326 536.936,-112.444 529.397,-105 526.401,-111.326"/>
</g>
<!-- Node11 -->
<g id="node11" class="node"><title>Node11</title>
<g id="a_node11"><a xlink:href="ceptr__specs_8c.html" target="_top" xlink:title="implements a main() entry point for running all the tests ">
<polygon fill="white" stroke="black" points="645,-0.5 645,-19.5 747,-19.5 747,-0.5 645,-0.5"/>
<text text-anchor="middle" x="696" y="-7.5" font-family="Helvetica,sans-Serif" font-size="10.00">spec/ceptr_specs.c</text>
</a>
</g>
</g>
<!-- Node10&#45;&gt;Node11 -->
<g id="edge10" class="edge"><title>Node10&#45;&gt;Node11</title>
<path fill="none" stroke="midnightblue" d="M491.312,-54.3456C539.503,-44.1405 611.283,-28.94 655.784,-19.5164"/>
<polygon fill="midnightblue" stroke="midnightblue" points="490.463,-50.9477 481.406,-56.4435 491.914,-57.7958 490.463,-50.9477"/>
</g>
<!-- Node13&#45;&gt;Node11 -->
<g id="edge13" class="edge"><title>Node13&#45;&gt;Node11</title>
<path fill="none" stroke="midnightblue" d="M696,-45.8045C696,-36.9102 696,-26.7798 696,-19.7511"/>
<polygon fill="midnightblue" stroke="midnightblue" points="692.5,-46.083 696,-56.083 699.5,-46.083 692.5,-46.083"/>
</g>
<!-- Node14&#45;&gt;Node11 -->
<g id="edge15" class="edge"><title>Node14&#45;&gt;Node11</title>
<path fill="none" stroke="midnightblue" d="M331.247,-103.512C341.165,-88.292 357.664,-66.9969 378,-56 423,-31.6655 566.876,-19.0959 644.759,-13.9281"/>
<polygon fill="midnightblue" stroke="midnightblue" points="328.243,-101.714 325.947,-112.057 334.192,-105.403 328.243,-101.714"/>
</g>
<!-- Node17&#45;&gt;Node11 -->
<g id="edge24" class="edge"><title>Node17&#45;&gt;Node11</title>
<path fill="none" stroke="midnightblue" d="M193.577,-108.596C229.977,-93.8293 293.979,-69.4785 351,-56 453.724,-31.7185 576.964,-19.6185 644.845,-14.3837"/>
<polygon fill="midnightblue" stroke="midnightblue" points="191.998,-105.46 184.071,-112.489 194.651,-111.938 191.998,-105.46"/>
</g>
<!-- Node18&#45;&gt;Node10 -->
<g id="edge30" class="edge"><title>Node18&#45;&gt;Node10</title>
<path fill="none" stroke="midnightblue" d="M244.037,-157.846C243.664,-143.44 245.682,-124.166 257,-112 274.527,-93.1589 339.39,-80.5365 387.162,-73.5708"/>
<polygon fill="midnightblue" stroke="midnightblue" points="240.564,-158.379 244.717,-168.126 247.549,-157.917 240.564,-158.379"/>
</g>
<!-- Node18&#45;&gt;Node14 -->
<g id="edge29" class="edge"><title>Node18&#45;&gt;Node14</title>
<path fill="none" stroke="midnightblue" d="M266.305,-162.38C279.861,-152.62 297.242,-140.106 308.731,-131.834"/>
<polygon fill="midnightblue" stroke="midnightblue" points="264.12,-159.641 258.05,-168.324 268.21,-165.321 264.12,-159.641"/>
</g>
<!-- Node18&#45;&gt;Node17 -->
<g id="edge26" class="edge"><title>Node18&#45;&gt;Node17</title>
<path fill="none" stroke="midnightblue" d="M224.167,-162.622C209.187,-152.757 189.803,-139.992 177.142,-131.655"/>
<polygon fill="midnightblue" stroke="midnightblue" points="222.549,-165.747 232.825,-168.324 226.399,-159.901 222.549,-165.747"/>
</g>
<!-- Node18&#45;&gt;Node19 -->
<g id="edge27" class="edge"><title>Node18&#45;&gt;Node19</title>
<path fill="none" stroke="midnightblue" d="M204.98,-165.699C167.989,-155.507 114.4,-140.743 80.9115,-131.516"/>
<polygon fill="midnightblue" stroke="midnightblue" points="204.373,-169.162 214.943,-168.444 206.232,-162.413 204.373,-169.162"/>
</g>
<!-- Node19&#45;&gt;Node11 -->
<g id="edge28" class="edge"><title>Node19&#45;&gt;Node11</title>
<path fill="none" stroke="midnightblue" d="M84.613,-109.249C129.246,-94.5544 209.519,-69.6712 280,-56 409.97,-30.7897 565.723,-18.6676 644.677,-13.7754"/>
<polygon fill="midnightblue" stroke="midnightblue" points="83.2421,-106.016 74.8532,-112.487 85.4466,-112.66 83.2421,-106.016"/>
</g>
<!-- Node20&#45;&gt;Node11 -->
<g id="edge33" class="edge"><title>Node20&#45;&gt;Node11</title>
<path fill="none" stroke="midnightblue" d="M774.366,-166.113C808.256,-156.933 840.262,-140.545 828,-112 807.386,-64.0119 749.935,-33.3928 718.042,-19.5707"/>
<polygon fill="midnightblue" stroke="midnightblue" points="773.168,-162.805 764.315,-168.626 774.865,-169.596 773.168,-162.805"/>
</g>
<!-- Node21&#45;&gt;Node11 -->
<g id="edge36" class="edge"><title>Node21&#45;&gt;Node11</title>
<path fill="none" stroke="midnightblue" d="M983.312,-157.98C980.362,-143.647 974.293,-124.406 962,-112 903.328,-52.7869 806.425,-27.7516 747.187,-17.5647"/>
<polygon fill="midnightblue" stroke="midnightblue" points="979.925,-158.936 985.07,-168.198 986.824,-157.75 979.925,-158.936"/>
</g>
<!-- Node22&#45;&gt;Node11 -->
<g id="edge38" class="edge"><title>Node22&#45;&gt;Node11</title>
<path fill="none" stroke="midnightblue" d="M1000.26,-55.0481C927.037,-44.4477 812.834,-27.9142 747.156,-18.4059"/>
<polygon fill="midnightblue" stroke="midnightblue" points="999.91,-58.5341 1010.31,-56.5031 1000.91,-51.6063 999.91,-58.5341"/>
</g>
<!-- Node25&#45;&gt;Node11 -->
<g id="edge44" class="edge"><title>Node25&#45;&gt;Node11</title>
<path fill="none" stroke="midnightblue" d="M1190.5,-213.852C1190.33,-176.828 1184.14,-95.5926 1136,-56 1106.5,-31.7333 856.986,-18.0019 747.338,-13.0902"/>
<polygon fill="midnightblue" stroke="midnightblue" points="1187,-214.174 1190.39,-224.21 1194,-214.248 1187,-214.174"/>
</g>
</g>
</svg>
        <g id="navigator" transform="translate(0 0)" fill="#404254">
                <rect fill="#f2f5e9" fill-opacity="0.5" stroke="#606060" stroke-width=".5" x="0" y="0" width="60" height="60"/>
                <use id="zoomplus" xlink:href="#zoomPlus" x="17" y="9" onmousedown="handleZoom(evt,'in')"/>
                <use id="zoomminus" xlink:href="#zoomMin" x="42" y="9" onmousedown="handleZoom(evt,'out')"/>
                <use id="reset" xlink:href="#resetDef" x="30" y="36" onmousedown="handleReset()"/>
                <g id="arrowUp" xlink:href="#dirArrow" transform="translate(30 24)" onmousedown="handlePan(0,-1)">
                  <use xlink:href="#rim" fill="#404040">
                        <set attributeName="fill" to="#808080" begin="arrowUp.mouseover" end="arrowUp.mouseout"/>
                  </use>
                  <path fill="none" stroke="white" stroke-width="1.5" d="M0,-3.0v7 M-2.5,-0.5L0,-3.0L2.5,-0.5"/>
                </g>
                <g id="arrowRight" xlink:href="#dirArrow" transform="rotate(90) translate(36 -43)" onmousedown="handlePan(1,0)">
                  <use xlink:href="#rim" fill="#404040">
                        <set attributeName="fill" to="#808080" begin="arrowRight.mouseover" end="arrowRight.mouseout"/>
                  </use>
                  <path fill="none" stroke="white" stroke-width="1.5" d="M0,-3.0v7 M-2.5,-0.5L0,-3.0L2.5,-0.5"/>
                </g>
                <g id="arrowDown" xlink:href="#dirArrow" transform="rotate(180) translate(-30 -48)" onmousedown="handlePan(0,1)">
                  <use xlink:href="#rim" fill="#404040">
                        <set attributeName="fill" to="#808080" begin="arrowDown.mouseover" end="arrowDown.mouseout"/>
                  </use>
                  <path fill="none" stroke="white" stroke-width="1.5" d="M0,-3.0v7 M-2.5,-0.5L0,-3.0L2.5,-0.5"/>
                </g>
                <g id="arrowLeft" xlink:href="#dirArrow" transform="rotate(270) translate(-36 17)" onmousedown="handlePan(-1,0)">
                  <use xlink:href="#rim" fill="#404040">
                        <set attributeName="fill" to="#808080" begin="arrowLeft.mouseover" end="arrowLeft.mouseout"/>
                  </use>
                  <path fill="none" stroke="white" stroke-width="1.5" d="M0,-3.0v7 M-2.5,-0.5L0,-3.0L2.5,-0.5"/>
                </g>
        </g>
        <svg viewBox="0 0 15 15" width="100%" height="30px" preserveAspectRatio="xMaxYMin meet">
         <g id="arrow_out" transform="scale(0.3 0.3)">
          <a xlink:href="process_8h__dep__incl_org.svg" target="_base">
           <rect id="button" ry="5" rx="5" y="6" x="6" height="38" width="38"
                fill="#f2f5e9" fill-opacity="0.5" stroke="#606060" stroke-width="1.0"/>
           <path id="arrow"
             d="M 11.500037,31.436501 C 11.940474,20.09759 22.043105,11.32322 32.158766,21.979434 L 37.068811,17.246167 C 37.068811,17.246167 37.088388,32 37.088388,32 L 22.160133,31.978069 C 22.160133,31.978069 26.997745,27.140456 26.997745,27.140456 C 18.528582,18.264221 13.291696,25.230495 11.500037,31.436501 z"
             style="fill:#404040;"/>
          </a>
         </g>
        </svg>
</svg>
