<?xml version="1.0" encoding="UTF-8" standalone="no"?>
<!DOCTYPE svg PUBLIC "-//W3C//DTD SVG 1.1//EN"
 "http://www.w3.org/Graphics/SVG/1.1/DTD/svg11.dtd">
<!-- Generated by graphviz version 2.38.0 (20140413.2041)
 -->
<!-- Title: spec/process_spec.h Pages: 1 -->
<!--zoomable 420 -->
<svg id="main" version="1.1" xmlns="http://www.w3.org/2000/svg" xmlns:xlink="http://www.w3.org/1999/xlink" xml:space="preserve" onload="init(evt)">
<style type="text/css"><![CDATA[
.edge:hover path { stroke: red; }
.edge:hover polygon { stroke: red; fill: red; }
]]></style>
<script type="text/javascript"><![CDATA[
var edges = document.getElementsByTagName('g');
if (edges && edges.length) {
  for (var i=0;i<edges.length;i++) {
    if (edges[i].id.substr(0,4)=='edge') {
      edges[i].setAttribute('class','edge');
    }
  }
}
]]></script>
        <defs>
                <circle id="rim" cx="0" cy="0" r="7"/>
                <circle id="rim2" cx="0" cy="0" r="3.5"/>
                <g id="zoomPlus">
                        <use xlink:href="#rim" fill="#404040">
                                <set attributeName="fill" to="#808080" begin="zoomplus.mouseover" end="zoomplus.mouseout"/>
                        </use>
                        <path d="M-4,0h8M0,-4v8" fill="none" stroke="white" stroke-width="1.5" pointer-events="none"/>
                </g>
                <g id="zoomMin">
                        <use xlink:href="#rim" fill="#404040">
                                <set attributeName="fill" to="#808080" begin="zoomminus.mouseover" end="zoomminus.mouseout"/>
                        </use>
                        <path d="M-4,0h8" fill="none" stroke="white" stroke-width="1.5" pointer-events="none"/>
                </g>
                <g id="dirArrow">
                        <path fill="none" stroke="white" stroke-width="1.5" d="M0,-3.0v7 M-2.5,-0.5L0,-3.0L2.5,-0.5"/>
                </g>
               <g id="resetDef">
                       <use xlink:href="#rim2" fill="#404040">
                               <set attributeName="fill" to="#808080" begin="reset.mouseover" end="reset.mouseout"/>
                       </use>
               </g>
        </defs>

<script type="text/javascript">
var viewWidth = 1002;
var viewHeight = 420;
var sectionId = 'dynsection-0';
</script>
<script xlink:href="svgpan.js"/>
<svg id="graph" class="graph">
<g id="viewport">
<title>spec/process_spec.h</title>
<polygon fill="white" stroke="none" points="-4,4 -4,-416 998,-416 998,4 -4,4"/>
<!-- Node1 -->
<g id="node1" class="node"><title>Node1</title>
<polygon fill="#bfbfbf" stroke="black" points="423,-392.5 423,-411.5 533,-411.5 533,-392.5 423,-392.5"/>
<text text-anchor="middle" x="478" y="-399.5" font-family="Helvetica,sans-Serif" font-size="10.00">spec/process_spec.h</text>
</g>
<!-- Node2 -->
<g id="node2" class="node"><title>Node2</title>
<g id="a_node2"><a xlink:href="ceptr_8h_source.html" target="_top" xlink:title="../src/ceptr.h">
<polygon fill="white" stroke="black" points="345,-336.5 345,-355.5 417,-355.5 417,-336.5 345,-336.5"/>
<text text-anchor="middle" x="381" y="-343.5" font-family="Helvetica,sans-Serif" font-size="10.00">../src/ceptr.h</text>
</a>
</g>
</g>
<!-- Node1&#45;&gt;Node2 -->
<g id="edge1" class="edge"><title>Node1&#45;&gt;Node2</title>
<path fill="none" stroke="midnightblue" d="M462.415,-392.324C447.001,-383.743 423.188,-370.486 405.29,-360.522"/>
<polygon fill="midnightblue" stroke="midnightblue" points="406.986,-357.461 396.546,-355.655 403.581,-363.577 406.986,-357.461"/>
</g>
<!-- Node25 -->
<g id="node25" class="node"><title>Node25</title>
<g id="a_node25"><a xlink:href="process_8h.html" target="_top" xlink:title="processing header files ">
<polygon fill="white" stroke="black" points="532.5,-336.5 532.5,-355.5 617.5,-355.5 617.5,-336.5 532.5,-336.5"/>
<text text-anchor="middle" x="575" y="-343.5" font-family="Helvetica,sans-Serif" font-size="10.00">../src/process.h</text>
</a>
</g>
</g>
<!-- Node1&#45;&gt;Node25 -->
<g id="edge45" class="edge"><title>Node1&#45;&gt;Node25</title>
<path fill="none" stroke="midnightblue" d="M493.585,-392.324C508.999,-383.743 532.812,-370.486 550.71,-360.522"/>
<polygon fill="midnightblue" stroke="midnightblue" points="552.419,-363.577 559.454,-355.655 549.014,-357.461 552.419,-363.577"/>
</g>
<!-- Node3 -->
<g id="node3" class="node"><title>Node3</title>
<polygon fill="white" stroke="#bfbfbf" points="492.5,-0.5 492.5,-19.5 541.5,-19.5 541.5,-0.5 492.5,-0.5"/>
<text text-anchor="middle" x="517" y="-7.5" font-family="Helvetica,sans-Serif" font-size="10.00">string.h</text>
</g>
<!-- Node2&#45;&gt;Node3 -->
<g id="edge2" class="edge"><title>Node2&#45;&gt;Node3</title>
<path fill="none" stroke="midnightblue" d="M344.994,-342.248C274.833,-336.474 122.526,-321.799 75,-300 34.9066,-281.61 0,-279.11 0,-235 0,-235 0,-235 0,-121 0,-22.1121 366.431,-11.7639 482.31,-10.9638"/>
<polygon fill="midnightblue" stroke="midnightblue" points="482.429,-14.4633 492.412,-10.9143 482.395,-7.4634 482.429,-14.4633"/>
</g>
<!-- Node4 -->
<g id="node4" class="node"><title>Node4</title>
<polygon fill="white" stroke="#bfbfbf" points="145,-56.5 145,-75.5 191,-75.5 191,-56.5 145,-56.5"/>
<text text-anchor="middle" x="168" y="-63.5" font-family="Helvetica,sans-Serif" font-size="10.00">stdio.h</text>
</g>
<!-- Node2&#45;&gt;Node4 -->
<g id="edge3" class="edge"><title>Node2&#45;&gt;Node4</title>
<path fill="none" stroke="midnightblue" d="M344.748,-338.298C270.486,-323.532 108,-285.46 108,-235 108,-235 108,-235 108,-177 108,-139.883 134.654,-103.378 152.431,-83.1581"/>
<polygon fill="midnightblue" stroke="midnightblue" points="155.237,-85.2762 159.403,-75.5349 150.072,-80.552 155.237,-85.2762"/>
</g>
<!-- Node5 -->
<g id="node5" class="node"><title>Node5</title>
<polygon fill="white" stroke="#bfbfbf" points="936,-0.5 936,-19.5 984,-19.5 984,-0.5 936,-0.5"/>
<text text-anchor="middle" x="960" y="-7.5" font-family="Helvetica,sans-Serif" font-size="10.00">stdlib.h</text>
</g>
<!-- Node2&#45;&gt;Node5 -->
<g id="edge4" class="edge"><title>Node2&#45;&gt;Node5</title>
<path fill="none" stroke="midnightblue" d="M417.057,-342.378C548.458,-332.349 994,-293.995 994,-235 994,-235 994,-235 994,-121 994,-87.1598 979.13,-49.9705 969.058,-28.6613"/>
<polygon fill="midnightblue" stroke="midnightblue" points="972.137,-26.9912 964.585,-19.5604 965.855,-30.0788 972.137,-26.9912"/>
</g>
<!-- Node6 -->
<g id="node6" class="node"><title>Node6</title>
<g id="a_node6"><a xlink:href="ceptr__error_8h_source.html" target="_top" xlink:title="ceptr_error.h">
<polygon fill="white" stroke="black" points="416.5,-224.5 416.5,-243.5 487.5,-243.5 487.5,-224.5 416.5,-224.5"/>
<text text-anchor="middle" x="452" y="-231.5" font-family="Helvetica,sans-Serif" font-size="10.00">ceptr_error.h</text>
</a>
</g>
</g>
<!-- Node2&#45;&gt;Node6 -->
<g id="edge5" class="edge"><title>Node2&#45;&gt;Node6</title>
<path fill="none" stroke="midnightblue" d="M386.571,-336.368C398.236,-318.296 425.423,-276.176 440.829,-252.307"/>
<polygon fill="midnightblue" stroke="midnightblue" points="443.972,-253.891 446.455,-243.591 438.091,-250.095 443.972,-253.891"/>
</g>
<!-- Node10 -->
<g id="node10" class="node"><title>Node10</title>
<g id="a_node10"><a xlink:href="tree_8h.html" target="_top" xlink:title="semantic trees header file ">
<polygon fill="white" stroke="black" points="675.5,-280.5 675.5,-299.5 716.5,-299.5 716.5,-280.5 675.5,-280.5"/>
<text text-anchor="middle" x="696" y="-287.5" font-family="Helvetica,sans-Serif" font-size="10.00">tree.h</text>
</a>
</g>
</g>
<!-- Node2&#45;&gt;Node10 -->
<g id="edge10" class="edge"><title>Node2&#45;&gt;Node10</title>
<path fill="none" stroke="midnightblue" d="M417.135,-338.806C479.661,-328.087 606.94,-306.267 665.397,-296.246"/>
<polygon fill="midnightblue" stroke="midnightblue" points="666.215,-299.657 675.48,-294.518 665.032,-292.758 666.215,-299.657"/>
</g>
<!-- Node19 -->
<g id="node19" class="node"><title>Node19</title>
<g id="a_node19"><a xlink:href="stream_8h.html" target="_top" xlink:title="streams abstraction header file ">
<polygon fill="white" stroke="black" points="304.5,-224.5 304.5,-243.5 359.5,-243.5 359.5,-224.5 304.5,-224.5"/>
<text text-anchor="middle" x="332" y="-231.5" font-family="Helvetica,sans-Serif" font-size="10.00">stream.h</text>
</a>
</g>
</g>
<!-- Node2&#45;&gt;Node19 -->
<g id="edge38" class="edge"><title>Node2&#45;&gt;Node19</title>
<path fill="none" stroke="midnightblue" d="M377.155,-336.368C369.176,-318.456 350.675,-276.923 339.995,-252.948"/>
<polygon fill="midnightblue" stroke="midnightblue" points="343.093,-251.302 335.827,-243.591 336.699,-254.15 343.093,-251.302"/>
</g>
<!-- Node20 -->
<g id="node20" class="node"><title>Node20</title>
<g id="a_node20"><a xlink:href="mtree_8h.html" target="_top" xlink:title="semantic tree matrix header file `` ">
<polygon fill="white" stroke="black" points="510,-280.5 510,-299.5 560,-299.5 560,-280.5 510,-280.5"/>
<text text-anchor="middle" x="535" y="-287.5" font-family="Helvetica,sans-Serif" font-size="10.00">mtree.h</text>
</a>
</g>
</g>
<!-- Node2&#45;&gt;Node20 -->
<g id="edge30" class="edge"><title>Node2&#45;&gt;Node20</title>
<path fill="none" stroke="midnightblue" d="M405.402,-336.444C431.197,-327.399 472.077,-313.064 501.018,-302.916"/>
<polygon fill="midnightblue" stroke="midnightblue" points="502.434,-306.128 510.712,-299.516 500.118,-299.523 502.434,-306.128"/>
</g>
<!-- Node21 -->
<g id="node21" class="node"><title>Node21</title>
<g id="a_node21"><a xlink:href="util_8h.html" target="_top" xlink:title="util.h">
<polygon fill="white" stroke="black" points="212,-280.5 212,-299.5 250,-299.5 250,-280.5 212,-280.5"/>
<text text-anchor="middle" x="231" y="-287.5" font-family="Helvetica,sans-Serif" font-size="10.00">util.h</text>
</a>
</g>
</g>
<!-- Node2&#45;&gt;Node21 -->
<g id="edge39" class="edge"><title>Node2&#45;&gt;Node21</title>
<path fill="none" stroke="midnightblue" d="M357.232,-336.444C330.893,-326.961 288.405,-311.666 260.096,-301.474"/>
<polygon fill="midnightblue" stroke="midnightblue" points="260.958,-298.065 250.364,-297.971 258.587,-304.651 260.958,-298.065"/>
</g>
<!-- Node24 -->
<g id="node24" class="node"><title>Node24</title>
<g id="a_node24"><a xlink:href="debug_8h.html" target="_top" xlink:title="debug.h">
<polygon fill="white" stroke="black" points="28.5,-112.5 28.5,-131.5 79.5,-131.5 79.5,-112.5 28.5,-112.5"/>
<text text-anchor="middle" x="54" y="-119.5" font-family="Helvetica,sans-Serif" font-size="10.00">debug.h</text>
</a>
</g>
</g>
<!-- Node2&#45;&gt;Node24 -->
<g id="edge43" class="edge"><title>Node2&#45;&gt;Node24</title>
<path fill="none" stroke="midnightblue" d="M344.939,-344.241C276.124,-342.03 129.728,-333.42 94,-300 49.3647,-258.248 49.409,-178.126 52.0482,-141.768"/>
<polygon fill="midnightblue" stroke="midnightblue" points="55.5524,-141.874 52.9429,-131.605 48.5793,-141.26 55.5524,-141.874"/>
</g>
<!-- Node6&#45;&gt;Node4 -->
<g id="edge6" class="edge"><title>Node6&#45;&gt;Node4</title>
<path fill="none" stroke="midnightblue" d="M416.339,-226.138C386.159,-219.351 342.445,-207.168 308,-188 256.073,-159.103 206.092,-108.79 182.357,-83.0985"/>
<polygon fill="midnightblue" stroke="midnightblue" points="184.923,-80.719 175.603,-75.6805 179.747,-85.4313 184.923,-80.719"/>
</g>
<!-- Node7 -->
<g id="node7" class="node"><title>Node7</title>
<polygon fill="white" stroke="#bfbfbf" points="459,-168.5 459,-187.5 509,-187.5 509,-168.5 459,-168.5"/>
<text text-anchor="middle" x="484" y="-175.5" font-family="Helvetica,sans-Serif" font-size="10.00">signal.h</text>
</g>
<!-- Node6&#45;&gt;Node7 -->
<g id="edge7" class="edge"><title>Node6&#45;&gt;Node7</title>
<path fill="none" stroke="midnightblue" d="M457.284,-224.083C461.711,-216.613 468.163,-205.724 473.618,-196.52"/>
<polygon fill="midnightblue" stroke="midnightblue" points="476.727,-198.138 478.814,-187.751 470.705,-194.57 476.727,-198.138"/>
</g>
<!-- Node8 -->
<g id="node8" class="node"><title>Node8</title>
<polygon fill="white" stroke="#bfbfbf" points="317,-168.5 317,-187.5 369,-187.5 369,-168.5 317,-168.5"/>
<text text-anchor="middle" x="343" y="-175.5" font-family="Helvetica,sans-Serif" font-size="10.00">assert.h</text>
</g>
<!-- Node6&#45;&gt;Node8 -->
<g id="edge8" class="edge"><title>Node6&#45;&gt;Node8</title>
<path fill="none" stroke="midnightblue" d="M434.487,-224.324C416.928,-215.625 389.669,-202.12 369.469,-192.113"/>
<polygon fill="midnightblue" stroke="midnightblue" points="370.984,-188.958 360.469,-187.655 367.876,-195.23 370.984,-188.958"/>
</g>
<!-- Node9 -->
<g id="node9" class="node"><title>Node9</title>
<polygon fill="white" stroke="#bfbfbf" points="387,-168.5 387,-187.5 441,-187.5 441,-168.5 387,-168.5"/>
<text text-anchor="middle" x="414" y="-175.5" font-family="Helvetica,sans-Serif" font-size="10.00">setjmp.h</text>
</g>
<!-- Node6&#45;&gt;Node9 -->
<g id="edge9" class="edge"><title>Node6&#45;&gt;Node9</title>
<path fill="none" stroke="midnightblue" d="M445.725,-224.083C440.358,-216.455 432.482,-205.264 425.921,-195.941"/>
<polygon fill="midnightblue" stroke="midnightblue" points="428.775,-193.915 420.158,-187.751 423.051,-197.943 428.775,-193.915"/>
</g>
<!-- Node10&#45;&gt;Node3 -->
<g id="edge11" class="edge"><title>Node10&#45;&gt;Node3</title>
<path fill="none" stroke="midnightblue" d="M716.684,-289.174C764.313,-288.608 876.159,-281.27 856,-224 837.679,-171.952 708.379,-65.0202 692,-56 647.232,-31.3453 588.569,-19.8459 551.828,-14.743"/>
<polygon fill="midnightblue" stroke="midnightblue" points="551.991,-11.2348 541.623,-13.4123 551.086,-18.176 551.991,-11.2348"/>
</g>
<!-- Node10&#45;&gt;Node5 -->
<g id="edge12" class="edge"><title>Node10&#45;&gt;Node5</title>
<path fill="none" stroke="midnightblue" d="M716.837,-289.581C778.534,-290.12 956,-282.661 956,-179 956,-179 956,-179 956,-121 956,-88.9268 957.719,-51.628 958.904,-29.7413"/>
<polygon fill="midnightblue" stroke="midnightblue" points="962.409,-29.7349 959.477,-19.5539 955.42,-29.3413 962.409,-29.7349"/>
</g>
<!-- Node10&#45;&gt;Node6 -->
<g id="edge13" class="edge"><title>Node10&#45;&gt;Node6</title>
<path fill="none" stroke="midnightblue" d="M675.197,-284.396C636.004,-275.722 550.404,-256.778 497.338,-245.034"/>
<polygon fill="midnightblue" stroke="midnightblue" points="498.024,-241.601 487.504,-242.857 496.512,-248.436 498.024,-241.601"/>
</g>
<!-- Node11 -->
<g id="node11" class="node"><title>Node11</title>
<g id="a_node11"><a xlink:href="sys__symbols_8h.html" target="_top" xlink:title="Defines hard&#45;coded system defined symbols. ">
<polygon fill="white" stroke="black" points="582.5,-224.5 582.5,-243.5 665.5,-243.5 665.5,-224.5 582.5,-224.5"/>
<text text-anchor="middle" x="624" y="-231.5" font-family="Helvetica,sans-Serif" font-size="10.00">sys_symbols.h</text>
</a>
</g>
</g>
<!-- Node10&#45;&gt;Node11 -->
<g id="edge14" class="edge"><title>Node10&#45;&gt;Node11</title>
<path fill="none" stroke="midnightblue" d="M684.432,-280.324C673.58,-272.185 657.119,-259.839 644.117,-250.087"/>
<polygon fill="midnightblue" stroke="midnightblue" points="645.879,-247.034 635.779,-243.834 641.679,-252.634 645.879,-247.034"/>
</g>
<!-- Node12 -->
<g id="node12" class="node"><title>Node12</title>
<g id="a_node12"><a xlink:href="sys__structures_8h.html" target="_top" xlink:title="Defines hard&#45;coded system defined structures. ">
<polygon fill="white" stroke="black" points="651.5,-168.5 651.5,-187.5 740.5,-187.5 740.5,-168.5 651.5,-168.5"/>
<text text-anchor="middle" x="696" y="-175.5" font-family="Helvetica,sans-Serif" font-size="10.00">sys_structures.h</text>
</a>
</g>
</g>
<!-- Node10&#45;&gt;Node12 -->
<g id="edge25" class="edge"><title>Node10&#45;&gt;Node12</title>
<path fill="none" stroke="midnightblue" d="M716.84,-288.46C745.99,-286.446 798.049,-277.987 822,-244 843.77,-213.108 794.102,-195.89 750.857,-187.056"/>
<polygon fill="midnightblue" stroke="midnightblue" points="751.386,-183.594 740.904,-185.142 750.063,-190.468 751.386,-183.594"/>
</g>
<!-- Node13 -->
<g id="node13" class="node"><title>Node13</title>
<g id="a_node13"><a xlink:href="ceptr__types_8h_source.html" target="_top" xlink:title="ceptr_types.h">
<polygon fill="white" stroke="black" points="621,-112.5 621,-131.5 697,-131.5 697,-112.5 621,-112.5"/>
<text text-anchor="middle" x="659" y="-119.5" font-family="Helvetica,sans-Serif" font-size="10.00">ceptr_types.h</text>
</a>
</g>
</g>
<!-- Node10&#45;&gt;Node13 -->
<g id="edge27" class="edge"><title>Node10&#45;&gt;Node13</title>
<path fill="none" stroke="midnightblue" d="M716.652,-287.924C762.283,-284.66 865.62,-271.916 839,-224 811.554,-174.597 749.607,-147.732 706.087,-134.385"/>
<polygon fill="midnightblue" stroke="midnightblue" points="706.858,-130.964 696.277,-131.508 704.888,-137.681 706.858,-130.964"/>
</g>
<!-- Node18 -->
<g id="node18" class="node"><title>Node18</title>
<g id="a_node18"><a xlink:href="sys__processes_8h.html" target="_top" xlink:title="Defines hard&#45;coded system defined processes. ">
<polygon fill="white" stroke="black" points="722.5,-224.5 722.5,-243.5 813.5,-243.5 813.5,-224.5 722.5,-224.5"/>
<text text-anchor="middle" x="768" y="-231.5" font-family="Helvetica,sans-Serif" font-size="10.00">sys_processes.h</text>
</a>
</g>
</g>
<!-- Node10&#45;&gt;Node18 -->
<g id="edge26" class="edge"><title>Node10&#45;&gt;Node18</title>
<path fill="none" stroke="midnightblue" d="M707.568,-280.324C718.42,-272.185 734.881,-259.839 747.883,-250.087"/>
<polygon fill="midnightblue" stroke="midnightblue" points="750.321,-252.634 756.221,-243.834 746.121,-247.034 750.321,-252.634"/>
</g>
<!-- Node10&#45;&gt;Node19 -->
<g id="edge28" class="edge"><title>Node10&#45;&gt;Node19</title>
<path fill="none" stroke="midnightblue" d="M675.387,-285.942C616.351,-277.184 445.999,-251.912 369.717,-240.595"/>
<polygon fill="midnightblue" stroke="midnightblue" points="370.005,-237.1 359.599,-239.094 368.978,-244.024 370.005,-237.1"/>
</g>
<!-- Node11&#45;&gt;Node12 -->
<g id="edge15" class="edge"><title>Node11&#45;&gt;Node12</title>
<path fill="none" stroke="midnightblue" d="M635.568,-224.324C646.42,-216.185 662.881,-203.839 675.883,-194.087"/>
<polygon fill="midnightblue" stroke="midnightblue" points="678.321,-196.634 684.221,-187.834 674.121,-191.034 678.321,-196.634"/>
</g>
<!-- Node11&#45;&gt;Node13 -->
<g id="edge24" class="edge"><title>Node11&#45;&gt;Node13</title>
<path fill="none" stroke="midnightblue" d="M626.193,-224.092C629.355,-211.498 635.529,-187.813 642,-168 644.921,-159.058 648.562,-149.273 651.725,-141.118"/>
<polygon fill="midnightblue" stroke="midnightblue" points="655.088,-142.131 655.506,-131.544 648.577,-139.559 655.088,-142.131"/>
</g>
<!-- Node12&#45;&gt;Node13 -->
<g id="edge16" class="edge"><title>Node12&#45;&gt;Node13</title>
<path fill="none" stroke="midnightblue" d="M689.89,-168.083C684.718,-160.534 677.154,-149.495 670.806,-140.23"/>
<polygon fill="midnightblue" stroke="midnightblue" points="673.536,-138.022 664.996,-131.751 667.761,-141.979 673.536,-138.022"/>
</g>
<!-- Node13&#45;&gt;Node4 -->
<g id="edge18" class="edge"><title>Node13&#45;&gt;Node4</title>
<path fill="none" stroke="midnightblue" d="M620.881,-116.808C527.562,-106.545 288.878,-80.2941 201.067,-70.6367"/>
<polygon fill="midnightblue" stroke="midnightblue" points="201.449,-67.1577 191.126,-69.5434 200.684,-74.1157 201.449,-67.1577"/>
</g>
<!-- Node14 -->
<g id="node14" class="node"><title>Node14</title>
<polygon fill="white" stroke="#bfbfbf" points="634.5,-56.5 634.5,-75.5 683.5,-75.5 683.5,-56.5 634.5,-56.5"/>
<text text-anchor="middle" x="659" y="-63.5" font-family="Helvetica,sans-Serif" font-size="10.00">stdint.h</text>
</g>
<!-- Node13&#45;&gt;Node14 -->
<g id="edge17" class="edge"><title>Node13&#45;&gt;Node14</title>
<path fill="none" stroke="midnightblue" d="M659,-112.083C659,-105.006 659,-94.8611 659,-85.9865"/>
<polygon fill="midnightblue" stroke="midnightblue" points="662.5,-85.751 659,-75.7511 655.5,-85.7511 662.5,-85.751"/>
</g>
<!-- Node15 -->
<g id="node15" class="node"><title>Node15</title>
<g id="a_node15"><a xlink:href="uthash_8h_source.html" target="_top" xlink:title="uthash.h">
<polygon fill="white" stroke="black" points="866,-56.5 866,-75.5 920,-75.5 920,-56.5 866,-56.5"/>
<text text-anchor="middle" x="893" y="-63.5" font-family="Helvetica,sans-Serif" font-size="10.00">uthash.h</text>
</a>
</g>
</g>
<!-- Node13&#45;&gt;Node15 -->
<g id="edge19" class="edge"><title>Node13&#45;&gt;Node15</title>
<path fill="none" stroke="midnightblue" d="M696.078,-112.444C739.863,-102.339 812.254,-85.6337 856.003,-75.5377"/>
<polygon fill="midnightblue" stroke="midnightblue" points="856.987,-78.9028 865.944,-73.2437 855.413,-72.082 856.987,-78.9028"/>
</g>
<!-- Node15&#45;&gt;Node3 -->
<g id="edge20" class="edge"><title>Node15&#45;&gt;Node3</title>
<path fill="none" stroke="midnightblue" d="M865.715,-58.6818C861.148,-57.7189 856.449,-56.7858 852,-56 743.243,-36.7925 613.34,-21.5056 552.161,-14.7555"/>
<polygon fill="midnightblue" stroke="midnightblue" points="552.225,-11.2417 541.904,-13.633 551.464,-18.2002 552.225,-11.2417"/>
</g>
<!-- Node15&#45;&gt;Node5 -->
<g id="edge22" class="edge"><title>Node15&#45;&gt;Node5</title>
<path fill="none" stroke="midnightblue" d="M903.765,-56.324C913.766,-48.2631 928.887,-36.0765 940.93,-26.3695"/>
<polygon fill="midnightblue" stroke="midnightblue" points="943.45,-28.8343 949.039,-19.8339 939.057,-23.3841 943.45,-28.8343"/>
</g>
<!-- Node16 -->
<g id="node16" class="node"><title>Node16</title>
<polygon fill="white" stroke="#bfbfbf" points="788,-0.5 788,-19.5 840,-19.5 840,-0.5 788,-0.5"/>
<text text-anchor="middle" x="814" y="-7.5" font-family="Helvetica,sans-Serif" font-size="10.00">stddef.h</text>
</g>
<!-- Node15&#45;&gt;Node16 -->
<g id="edge21" class="edge"><title>Node15&#45;&gt;Node16</title>
<path fill="none" stroke="midnightblue" d="M880.307,-56.324C868.099,-47.979 849.422,-35.2122 834.997,-25.3524"/>
<polygon fill="midnightblue" stroke="midnightblue" points="836.892,-22.4082 826.661,-19.6545 832.942,-28.1871 836.892,-22.4082"/>
</g>
<!-- Node17 -->
<g id="node17" class="node"><title>Node17</title>
<polygon fill="white" stroke="#bfbfbf" points="858.5,-0.5 858.5,-19.5 917.5,-19.5 917.5,-0.5 858.5,-0.5"/>
<text text-anchor="middle" x="888" y="-7.5" font-family="Helvetica,sans-Serif" font-size="10.00">inttypes.h</text>
</g>
<!-- Node15&#45;&gt;Node17 -->
<g id="edge23" class="edge"><title>Node15&#45;&gt;Node17</title>
<path fill="none" stroke="midnightblue" d="M892.174,-56.083C891.519,-49.0059 890.58,-38.8611 889.758,-29.9865"/>
<polygon fill="midnightblue" stroke="midnightblue" points="893.217,-29.3858 888.81,-19.7511 886.247,-30.0312 893.217,-29.3858"/>
</g>
<!-- Node19&#45;&gt;Node4 -->
<g id="edge29" class="edge"><title>Node19&#45;&gt;Node4</title>
<path fill="none" stroke="midnightblue" d="M304.315,-224.946C274.522,-215.808 229.695,-200.546 217,-188 188.214,-159.551 175.745,-111.915 170.836,-85.7026"/>
<polygon fill="midnightblue" stroke="midnightblue" points="174.246,-84.8795 169.125,-75.6049 167.345,-86.0491 174.246,-84.8795"/>
</g>
<!-- Node20&#45;&gt;Node3 -->
<g id="edge31" class="edge"><title>Node20&#45;&gt;Node3</title>
<path fill="none" stroke="midnightblue" d="M509.953,-281.638C483.772,-273.611 441.743,-259.784 407,-244 401.247,-241.386 311.184,-193.458 308,-188 260.508,-106.573 411.914,-45.1123 482.641,-21.5269"/>
<polygon fill="midnightblue" stroke="midnightblue" points="484.036,-24.7533 492.457,-18.3241 481.865,-18.0986 484.036,-24.7533"/>
</g>
<!-- Node20&#45;&gt;Node5 -->
<g id="edge32" class="edge"><title>Node20&#45;&gt;Node5</title>
<path fill="none" stroke="midnightblue" d="M535.317,-280.389C537.107,-245.558 548.859,-114.197 625,-56 678.522,-15.0912 859.833,-32.65 926,-20 926.101,-19.9807 926.203,-19.9612 926.304,-19.9415"/>
<polygon fill="midnightblue" stroke="midnightblue" points="926.94,-23.3856 935.95,-17.8111 925.43,-16.5503 926.94,-23.3856"/>
</g>
<!-- Node20&#45;&gt;Node6 -->
<g id="edge33" class="edge"><title>Node20&#45;&gt;Node6</title>
<path fill="none" stroke="midnightblue" d="M521.665,-280.324C508.838,-271.979 489.215,-259.212 474.06,-249.352"/>
<polygon fill="midnightblue" stroke="midnightblue" points="475.593,-246.174 465.302,-243.655 471.776,-252.042 475.593,-246.174"/>
</g>
<!-- Node20&#45;&gt;Node11 -->
<g id="edge34" class="edge"><title>Node20&#45;&gt;Node11</title>
<path fill="none" stroke="midnightblue" d="M549.299,-280.324C563.183,-271.9 584.492,-258.971 600.804,-249.074"/>
<polygon fill="midnightblue" stroke="midnightblue" points="603.002,-251.834 609.736,-243.655 599.371,-245.85 603.002,-251.834"/>
</g>
<!-- Node20&#45;&gt;Node12 -->
<g id="edge35" class="edge"><title>Node20&#45;&gt;Node12</title>
<path fill="none" stroke="midnightblue" d="M560.045,-287.543C590.874,-284.424 642.946,-274.644 674,-244 686.312,-231.851 691.735,-212.575 694.123,-198.164"/>
<polygon fill="midnightblue" stroke="midnightblue" points="697.641,-198.247 695.461,-187.879 690.7,-197.344 697.641,-198.247"/>
</g>
<!-- Node20&#45;&gt;Node13 -->
<g id="edge37" class="edge"><title>Node20&#45;&gt;Node13</title>
<path fill="none" stroke="midnightblue" d="M539.458,-280.289C546.128,-267.528 559.383,-243.188 573,-224 595.509,-192.283 625.745,-158.46 643.718,-139.112"/>
<polygon fill="midnightblue" stroke="midnightblue" points="646.329,-141.444 650.612,-131.754 641.221,-136.658 646.329,-141.444"/>
</g>
<!-- Node20&#45;&gt;Node18 -->
<g id="edge36" class="edge"><title>Node20&#45;&gt;Node18</title>
<path fill="none" stroke="midnightblue" d="M560.379,-283.118C598.918,-274.186 672.83,-257.057 721.267,-245.831"/>
<polygon fill="midnightblue" stroke="midnightblue" points="722.243,-249.197 731.195,-243.53 720.663,-242.378 722.243,-249.197"/>
</g>
<!-- Node21&#45;&gt;Node4 -->
<g id="edge41" class="edge"><title>Node21&#45;&gt;Node4</title>
<path fill="none" stroke="midnightblue" d="M211.737,-281.843C195.989,-274.844 174.785,-262.514 165,-244 137.648,-192.245 152.657,-119.523 162.134,-85.6829"/>
<polygon fill="midnightblue" stroke="midnightblue" points="165.582,-86.3661 165.067,-75.7838 158.87,-84.3777 165.582,-86.3661"/>
</g>
<!-- Node22 -->
<g id="node22" class="node"><title>Node22</title>
<polygon fill="white" stroke="#bfbfbf" points="174.5,-224.5 174.5,-243.5 223.5,-243.5 223.5,-224.5 174.5,-224.5"/>
<text text-anchor="middle" x="199" y="-231.5" font-family="Helvetica,sans-Serif" font-size="10.00">ctype.h</text>
</g>
<!-- Node21&#45;&gt;Node22 -->
<g id="edge40" class="edge"><title>Node21&#45;&gt;Node22</title>
<path fill="none" stroke="midnightblue" d="M225.716,-280.083C221.289,-272.613 214.837,-261.724 209.382,-252.52"/>
<polygon fill="midnightblue" stroke="midnightblue" points="212.295,-250.57 204.186,-243.751 206.273,-254.138 212.295,-250.57"/>
</g>
<!-- Node23 -->
<g id="node23" class="node"><title>Node23</title>
<polygon fill="white" stroke="#bfbfbf" points="242,-224.5 242,-243.5 286,-243.5 286,-224.5 242,-224.5"/>
<text text-anchor="middle" x="264" y="-231.5" font-family="Helvetica,sans-Serif" font-size="10.00">time.h</text>
</g>
<!-- Node21&#45;&gt;Node23 -->
<g id="edge42" class="edge"><title>Node21&#45;&gt;Node23</title>
<path fill="none" stroke="midnightblue" d="M236.449,-280.083C241.014,-272.613 247.668,-261.724 253.293,-252.52"/>
<polygon fill="midnightblue" stroke="midnightblue" points="256.424,-254.109 258.652,-243.751 250.451,-250.459 256.424,-254.109"/>
</g>
<!-- Node24&#45;&gt;Node4 -->
<g id="edge44" class="edge"><title>Node24&#45;&gt;Node4</title>
<path fill="none" stroke="midnightblue" d="M72.0636,-112.444C90.5748,-103.675 119.581,-89.9355 140.855,-79.8579"/>
<polygon fill="midnightblue" stroke="midnightblue" points="142.482,-82.9604 150.021,-75.5164 139.485,-76.6343 142.482,-82.9604"/>
</g>
<!-- Node25&#45;&gt;Node10 -->
<g id="edge46" class="edge"><title>Node25&#45;&gt;Node10</title>
<path fill="none" stroke="midnightblue" d="M594.173,-336.444C613.909,-327.636 644.885,-313.812 667.493,-303.722"/>
<polygon fill="midnightblue" stroke="midnightblue" points="669.211,-306.788 676.917,-299.516 666.359,-300.396 669.211,-306.788"/>
</g>
</g>
</svg>
        <g id="navigator" transform="translate(0 0)" fill="#404254">
                <rect fill="#f2f5e9" fill-opacity="0.5" stroke="#606060" stroke-width=".5" x="0" y="0" width="60" height="60"/>
                <use id="zoomplus" xlink:href="#zoomPlus" x="17" y="9" onmousedown="handleZoom(evt,'in')"/>
                <use id="zoomminus" xlink:href="#zoomMin" x="42" y="9" onmousedown="handleZoom(evt,'out')"/>
                <use id="reset" xlink:href="#resetDef" x="30" y="36" onmousedown="handleReset()"/>
                <g id="arrowUp" xlink:href="#dirArrow" transform="translate(30 24)" onmousedown="handlePan(0,-1)">
                  <use xlink:href="#rim" fill="#404040">
                        <set attributeName="fill" to="#808080" begin="arrowUp.mouseover" end="arrowUp.mouseout"/>
                  </use>
                  <path fill="none" stroke="white" stroke-width="1.5" d="M0,-3.0v7 M-2.5,-0.5L0,-3.0L2.5,-0.5"/>
                </g>
                <g id="arrowRight" xlink:href="#dirArrow" transform="rotate(90) translate(36 -43)" onmousedown="handlePan(1,0)">
                  <use xlink:href="#rim" fill="#404040">
                        <set attributeName="fill" to="#808080" begin="arrowRight.mouseover" end="arrowRight.mouseout"/>
                  </use>
                  <path fill="none" stroke="white" stroke-width="1.5" d="M0,-3.0v7 M-2.5,-0.5L0,-3.0L2.5,-0.5"/>
                </g>
                <g id="arrowDown" xlink:href="#dirArrow" transform="rotate(180) translate(-30 -48)" onmousedown="handlePan(0,1)">
                  <use xlink:href="#rim" fill="#404040">
                        <set attributeName="fill" to="#808080" begin="arrowDown.mouseover" end="arrowDown.mouseout"/>
                  </use>
                  <path fill="none" stroke="white" stroke-width="1.5" d="M0,-3.0v7 M-2.5,-0.5L0,-3.0L2.5,-0.5"/>
                </g>
                <g id="arrowLeft" xlink:href="#dirArrow" transform="rotate(270) translate(-36 17)" onmousedown="handlePan(-1,0)">
                  <use xlink:href="#rim" fill="#404040">
                        <set attributeName="fill" to="#808080" begin="arrowLeft.mouseover" end="arrowLeft.mouseout"/>
                  </use>
                  <path fill="none" stroke="white" stroke-width="1.5" d="M0,-3.0v7 M-2.5,-0.5L0,-3.0L2.5,-0.5"/>
                </g>
        </g>
        <svg viewBox="0 0 15 15" width="100%" height="30px" preserveAspectRatio="xMaxYMin meet">
         <g id="arrow_out" transform="scale(0.3 0.3)">
          <a xlink:href="process__spec_8h__incl_org.svg" target="_base">
           <rect id="button" ry="5" rx="5" y="6" x="6" height="38" width="38"
                fill="#f2f5e9" fill-opacity="0.5" stroke="#606060" stroke-width="1.0"/>
           <path id="arrow"
             d="M 11.500037,31.436501 C 11.940474,20.09759 22.043105,11.32322 32.158766,21.979434 L 37.068811,17.246167 C 37.068811,17.246167 37.088388,32 37.088388,32 L 22.160133,31.978069 C 22.160133,31.978069 26.997745,27.140456 26.997745,27.140456 C 18.528582,18.264221 13.291696,25.230495 11.500037,31.436501 z"
             style="fill:#404040;"/>
          </a>
         </g>
        </svg>
</svg>
