<?xml version="1.0" encoding="UTF-8" standalone="no"?>
<!DOCTYPE svg PUBLIC "-//W3C//DTD SVG 1.1//EN"
 "http://www.w3.org/Graphics/SVG/1.1/DTD/svg11.dtd">
<!-- Generated by graphviz version 2.38.0 (20140413.2041)
 -->
<!-- Title: src/process.c Pages: 1 -->
<svg width="928pt" height="476pt"
 viewBox="0.00 0.00 927.57 476.00" xmlns="http://www.w3.org/2000/svg" xmlns:xlink="http://www.w3.org/1999/xlink">
<g id="graph0" class="graph" transform="scale(1 1) rotate(0) translate(4 472)">
<title>src/process.c</title>
<polygon fill="white" stroke="none" points="-4,4 -4,-472 923.573,-472 923.573,4 -4,4"/>
<!-- Node1 -->
<g id="node1" class="node"><title>Node1</title>
<polygon fill="#bfbfbf" stroke="black" points="305.573,-448.5 305.573,-467.5 381.573,-467.5 381.573,-448.5 305.573,-448.5"/>
<text text-anchor="middle" x="343.573" y="-455.5" font-family="Helvetica,sans-Serif" font-size="10.00">src/process.c</text>
</g>
<!-- Node2 -->
<g id="node2" class="node"><title>Node2</title>
<g id="a_node2"><a xlink:href="process_8h.html" target="_top" xlink:title="processing header files ">
<polygon fill="white" stroke="black" points="314.073,-336.5 314.073,-355.5 373.073,-355.5 373.073,-336.5 314.073,-336.5"/>
<text text-anchor="middle" x="343.573" y="-343.5" font-family="Helvetica,sans-Serif" font-size="10.00">process.h</text>
</a>
</g>
</g>
<!-- Node1&#45;&gt;Node2 -->
<g id="edge1" class="edge"><title>Node1&#45;&gt;Node2</title>
<path fill="none" stroke="midnightblue" d="M343.573,-448.368C343.573,-430.617 343.573,-389.666 343.573,-365.597"/>
<polygon fill="midnightblue" stroke="midnightblue" points="347.073,-365.591 343.573,-355.591 340.073,-365.591 347.073,-365.591"/>
</g>
<!-- Node19 -->
<g id="node19" class="node"><title>Node19</title>
<g id="a_node19"><a xlink:href="def_8h.html" target="_top" xlink:title="header file for symbol and structure definition functions ">
<polygon fill="white" stroke="black" points="112.573,-336.5 112.573,-355.5 150.573,-355.5 150.573,-336.5 112.573,-336.5"/>
<text text-anchor="middle" x="131.573" y="-343.5" font-family="Helvetica,sans-Serif" font-size="10.00">def.h</text>
</a>
</g>
</g>
<!-- Node1&#45;&gt;Node19 -->
<g id="edge23" class="edge"><title>Node1&#45;&gt;Node19</title>
<path fill="none" stroke="midnightblue" d="M307.685,-448.467C280.295,-441.093 242.185,-428.94 211.573,-412 187.264,-398.548 163.017,-377.506 147.697,-363.028"/>
<polygon fill="midnightblue" stroke="midnightblue" points="149.786,-360.179 140.161,-355.749 144.923,-365.214 149.786,-360.179"/>
</g>
<!-- Node20 -->
<g id="node20" class="node"><title>Node20</title>
<polygon fill="white" stroke="#bfbfbf" points="60.5732,-280.5 60.5732,-299.5 112.573,-299.5 112.573,-280.5 60.5732,-280.5"/>
<text text-anchor="middle" x="86.5732" y="-287.5" font-family="Helvetica,sans-Serif" font-size="10.00">stdarg.h</text>
</g>
<!-- Node1&#45;&gt;Node20 -->
<g id="edge28" class="edge"><title>Node1&#45;&gt;Node20</title>
<path fill="none" stroke="midnightblue" d="M305.366,-450.643C271.193,-444.011 220.354,-431.77 179.573,-412 141.819,-393.697 127.118,-390.728 103.573,-356 94.2662,-342.272 90.0535,-323.742 88.1472,-309.979"/>
<polygon fill="midnightblue" stroke="midnightblue" points="91.5948,-309.309 87.0272,-299.749 84.6364,-310.071 91.5948,-309.309"/>
</g>
<!-- Node21 -->
<g id="node21" class="node"><title>Node21</title>
<g id="a_node21"><a xlink:href="semtrex_8h.html" target="_top" xlink:title="Semantic tree regular expression header file. ">
<polygon fill="white" stroke="black" points="371.573,-392.5 371.573,-411.5 431.573,-411.5 431.573,-392.5 371.573,-392.5"/>
<text text-anchor="middle" x="401.573" y="-399.5" font-family="Helvetica,sans-Serif" font-size="10.00">semtrex.h</text>
</a>
</g>
</g>
<!-- Node1&#45;&gt;Node21 -->
<g id="edge26" class="edge"><title>Node1&#45;&gt;Node21</title>
<path fill="none" stroke="midnightblue" d="M352.892,-448.324C361.466,-440.341 374.385,-428.313 384.761,-418.653"/>
<polygon fill="midnightblue" stroke="midnightblue" points="387.151,-421.21 392.085,-411.834 382.381,-416.086 387.151,-421.21"/>
</g>
<!-- Node22 -->
<g id="node22" class="node"><title>Node22</title>
<g id="a_node22"><a xlink:href="receptor_8h.html" target="_top" xlink:title="receptor implementation header file ">
<polygon fill="white" stroke="black" points="220.573,-392.5 220.573,-411.5 280.573,-411.5 280.573,-392.5 220.573,-392.5"/>
<text text-anchor="middle" x="250.573" y="-399.5" font-family="Helvetica,sans-Serif" font-size="10.00">receptor.h</text>
</a>
</g>
</g>
<!-- Node1&#45;&gt;Node22 -->
<g id="edge29" class="edge"><title>Node1&#45;&gt;Node22</title>
<path fill="none" stroke="midnightblue" d="M328.631,-448.324C313.988,-439.822 291.44,-426.729 274.336,-416.797"/>
<polygon fill="midnightblue" stroke="midnightblue" points="275.884,-413.649 265.478,-411.655 272.369,-419.703 275.884,-413.649"/>
</g>
<!-- Node25 -->
<g id="node25" class="node"><title>Node25</title>
<g id="a_node25"><a xlink:href="spec__utils_8h.html" target="_top" xlink:title="../spec/spec_utils.h">
<polygon fill="white" stroke="black" points="464.573,-392.5 464.573,-411.5 566.573,-411.5 566.573,-392.5 464.573,-392.5"/>
<text text-anchor="middle" x="515.573" y="-399.5" font-family="Helvetica,sans-Serif" font-size="10.00">../spec/spec_utils.h</text>
</a>
</g>
</g>
<!-- Node1&#45;&gt;Node25 -->
<g id="edge37" class="edge"><title>Node1&#45;&gt;Node25</title>
<path fill="none" stroke="midnightblue" d="M370.827,-448.444C400.014,-439.28 446.494,-424.688 478.882,-414.519"/>
<polygon fill="midnightblue" stroke="midnightblue" points="479.954,-417.851 488.447,-411.516 477.858,-411.173 479.954,-417.851"/>
</g>
<!-- Node28 -->
<g id="node28" class="node"><title>Node28</title>
<g id="a_node28"><a xlink:href="util_8h.html" target="_top" xlink:title="util.h">
<polygon fill="white" stroke="black" points="769.573,-280.5 769.573,-299.5 807.573,-299.5 807.573,-280.5 769.573,-280.5"/>
<text text-anchor="middle" x="788.573" y="-287.5" font-family="Helvetica,sans-Serif" font-size="10.00">util.h</text>
</a>
</g>
</g>
<!-- Node1&#45;&gt;Node28 -->
<g id="edge56" class="edge"><title>Node1&#45;&gt;Node28</title>
<path fill="none" stroke="midnightblue" d="M381.966,-453.411C428.836,-448.163 509.96,-436.256 575.573,-412 651.328,-383.995 731.904,-330.953 768.46,-305.431"/>
<polygon fill="midnightblue" stroke="midnightblue" points="770.62,-308.191 776.775,-299.568 766.586,-302.47 770.62,-308.191"/>
</g>
<!-- Node3 -->
<g id="node3" class="node"><title>Node3</title>
<g id="a_node3"><a xlink:href="tree_8h.html" target="_top" xlink:title="semantic trees header file ">
<polygon fill="white" stroke="black" points="202.073,-280.5 202.073,-299.5 243.073,-299.5 243.073,-280.5 202.073,-280.5"/>
<text text-anchor="middle" x="222.573" y="-287.5" font-family="Helvetica,sans-Serif" font-size="10.00">tree.h</text>
</a>
</g>
</g>
<!-- Node2&#45;&gt;Node3 -->
<g id="edge2" class="edge"><title>Node2&#45;&gt;Node3</title>
<path fill="none" stroke="midnightblue" d="M324.4,-336.444C304.664,-327.636 273.688,-313.812 251.08,-303.722"/>
<polygon fill="midnightblue" stroke="midnightblue" points="252.215,-300.396 241.656,-299.516 249.362,-306.788 252.215,-300.396"/>
</g>
<!-- Node4 -->
<g id="node4" class="node"><title>Node4</title>
<polygon fill="white" stroke="#bfbfbf" points="329.073,-0.5 329.073,-19.5 378.073,-19.5 378.073,-0.5 329.073,-0.5"/>
<text text-anchor="middle" x="353.573" y="-7.5" font-family="Helvetica,sans-Serif" font-size="10.00">string.h</text>
</g>
<!-- Node3&#45;&gt;Node4 -->
<g id="edge3" class="edge"><title>Node3&#45;&gt;Node4</title>
<path fill="none" stroke="midnightblue" d="M201.887,-283.952C158.897,-273.378 63.4684,-249.425 58.5732,-244 1.982,-181.28 -24.887,-119.723 30.5732,-56 49.338,-34.4396 239.473,-18.8936 318.948,-13.2887"/>
<polygon fill="midnightblue" stroke="midnightblue" points="319.225,-16.778 328.958,-12.5942 318.74,-9.79481 319.225,-16.778"/>
</g>
<!-- Node5 -->
<g id="node5" class="node"><title>Node5</title>
<polygon fill="white" stroke="#bfbfbf" points="486.573,-0.5 486.573,-19.5 534.573,-19.5 534.573,-0.5 486.573,-0.5"/>
<text text-anchor="middle" x="510.573" y="-7.5" font-family="Helvetica,sans-Serif" font-size="10.00">stdlib.h</text>
</g>
<!-- Node3&#45;&gt;Node5 -->
<g id="edge4" class="edge"><title>Node3&#45;&gt;Node5</title>
<path fill="none" stroke="midnightblue" d="M201.94,-282.484C183.869,-275.717 158.265,-263.366 143.573,-244 93.0618,-177.417 85.464,-111.921 147.573,-56 159.747,-45.0394 388.17,-22.5087 476.295,-14.1833"/>
<polygon fill="midnightblue" stroke="midnightblue" points="476.694,-17.6613 486.323,-13.2401 476.039,-10.692 476.694,-17.6613"/>
</g>
<!-- Node6 -->
<g id="node6" class="node"><title>Node6</title>
<g id="a_node6"><a xlink:href="ceptr__error_8h_source.html" target="_top" xlink:title="ceptr_error.h">
<polygon fill="white" stroke="black" points="464.073,-224.5 464.073,-243.5 535.073,-243.5 535.073,-224.5 464.073,-224.5"/>
<text text-anchor="middle" x="499.573" y="-231.5" font-family="Helvetica,sans-Serif" font-size="10.00">ceptr_error.h</text>
</a>
</g>
</g>
<!-- Node3&#45;&gt;Node6 -->
<g id="edge5" class="edge"><title>Node3&#45;&gt;Node6</title>
<path fill="none" stroke="midnightblue" d="M243.393,-284.941C287.876,-276.269 393.078,-255.761 453.933,-243.897"/>
<polygon fill="midnightblue" stroke="midnightblue" points="454.883,-247.278 464.029,-241.929 453.544,-240.407 454.883,-247.278"/>
</g>
<!-- Node11 -->
<g id="node11" class="node"><title>Node11</title>
<g id="a_node11"><a xlink:href="sys__symbols_8h.html" target="_top" xlink:title="Defines hard&#45;coded system defined symbols. ">
<polygon fill="white" stroke="black" points="286.073,-224.5 286.073,-243.5 369.073,-243.5 369.073,-224.5 286.073,-224.5"/>
<text text-anchor="middle" x="327.573" y="-231.5" font-family="Helvetica,sans-Serif" font-size="10.00">sys_symbols.h</text>
</a>
</g>
</g>
<!-- Node3&#45;&gt;Node11 -->
<g id="edge10" class="edge"><title>Node3&#45;&gt;Node11</title>
<path fill="none" stroke="midnightblue" d="M239.443,-280.324C256.282,-271.664 282.38,-258.242 301.811,-248.249"/>
<polygon fill="midnightblue" stroke="midnightblue" points="303.453,-251.341 310.745,-243.655 300.251,-245.116 303.453,-251.341"/>
</g>
<!-- Node12 -->
<g id="node12" class="node"><title>Node12</title>
<g id="a_node12"><a xlink:href="sys__structures_8h.html" target="_top" xlink:title="Defines hard&#45;coded system defined structures. ">
<polygon fill="white" stroke="black" points="145.073,-168.5 145.073,-187.5 234.073,-187.5 234.073,-168.5 145.073,-168.5"/>
<text text-anchor="middle" x="189.573" y="-175.5" font-family="Helvetica,sans-Serif" font-size="10.00">sys_structures.h</text>
</a>
</g>
</g>
<!-- Node3&#45;&gt;Node12 -->
<g id="edge20" class="edge"><title>Node3&#45;&gt;Node12</title>
<path fill="none" stroke="midnightblue" d="M205.375,-280.386C192.322,-272.794 175.34,-260.389 167.573,-244 160.112,-228.255 168.356,-209.286 176.796,-195.915"/>
<polygon fill="midnightblue" stroke="midnightblue" points="179.691,-197.882 182.479,-187.661 173.925,-193.912 179.691,-197.882"/>
</g>
<!-- Node13 -->
<g id="node13" class="node"><title>Node13</title>
<g id="a_node13"><a xlink:href="ceptr__types_8h_source.html" target="_top" xlink:title="ceptr_types.h">
<polygon fill="white" stroke="black" points="143.573,-112.5 143.573,-131.5 219.573,-131.5 219.573,-112.5 143.573,-112.5"/>
<text text-anchor="middle" x="181.573" y="-119.5" font-family="Helvetica,sans-Serif" font-size="10.00">ceptr_types.h</text>
</a>
</g>
</g>
<!-- Node3&#45;&gt;Node13 -->
<g id="edge22" class="edge"><title>Node3&#45;&gt;Node13</title>
<path fill="none" stroke="midnightblue" d="M206.816,-280.424C193.36,-272.451 174.228,-259.492 161.573,-244 144.214,-222.748 141.49,-214.795 135.573,-188 133.656,-179.32 132.126,-176.193 135.573,-168 140.599,-156.053 150.517,-145.692 159.861,-137.934"/>
<polygon fill="midnightblue" stroke="midnightblue" points="162.012,-140.694 167.787,-131.811 157.733,-135.155 162.012,-140.694"/>
</g>
<!-- Node18 -->
<g id="node18" class="node"><title>Node18</title>
<g id="a_node18"><a xlink:href="sys__processes_8h.html" target="_top" xlink:title="Defines hard&#45;coded system defined processes. ">
<polygon fill="white" stroke="black" points="177.073,-224.5 177.073,-243.5 268.073,-243.5 268.073,-224.5 177.073,-224.5"/>
<text text-anchor="middle" x="222.573" y="-231.5" font-family="Helvetica,sans-Serif" font-size="10.00">sys_processes.h</text>
</a>
</g>
</g>
<!-- Node3&#45;&gt;Node18 -->
<g id="edge21" class="edge"><title>Node3&#45;&gt;Node18</title>
<path fill="none" stroke="midnightblue" d="M222.573,-280.083C222.573,-273.006 222.573,-262.861 222.573,-253.986"/>
<polygon fill="midnightblue" stroke="midnightblue" points="226.073,-253.751 222.573,-243.751 219.073,-253.751 226.073,-253.751"/>
</g>
<!-- Node7 -->
<g id="node7" class="node"><title>Node7</title>
<polygon fill="white" stroke="#bfbfbf" points="629.573,-168.5 629.573,-187.5 675.573,-187.5 675.573,-168.5 629.573,-168.5"/>
<text text-anchor="middle" x="652.573" y="-175.5" font-family="Helvetica,sans-Serif" font-size="10.00">stdio.h</text>
</g>
<!-- Node6&#45;&gt;Node7 -->
<g id="edge6" class="edge"><title>Node6&#45;&gt;Node7</title>
<path fill="none" stroke="midnightblue" d="M523.816,-224.444C549.745,-215.292 591.016,-200.726 619.821,-190.559"/>
<polygon fill="midnightblue" stroke="midnightblue" points="621.18,-193.792 629.445,-187.163 618.85,-187.191 621.18,-193.792"/>
</g>
<!-- Node8 -->
<g id="node8" class="node"><title>Node8</title>
<polygon fill="white" stroke="#bfbfbf" points="415.573,-168.5 415.573,-187.5 465.573,-187.5 465.573,-168.5 415.573,-168.5"/>
<text text-anchor="middle" x="440.573" y="-175.5" font-family="Helvetica,sans-Serif" font-size="10.00">signal.h</text>
</g>
<!-- Node6&#45;&gt;Node8 -->
<g id="edge7" class="edge"><title>Node6&#45;&gt;Node8</title>
<path fill="none" stroke="midnightblue" d="M490.094,-224.324C481.372,-216.341 468.23,-204.313 457.675,-194.653"/>
<polygon fill="midnightblue" stroke="midnightblue" points="459.965,-192.004 450.225,-187.834 455.239,-197.167 459.965,-192.004"/>
</g>
<!-- Node9 -->
<g id="node9" class="node"><title>Node9</title>
<polygon fill="white" stroke="#bfbfbf" points="483.573,-168.5 483.573,-187.5 535.573,-187.5 535.573,-168.5 483.573,-168.5"/>
<text text-anchor="middle" x="509.573" y="-175.5" font-family="Helvetica,sans-Serif" font-size="10.00">assert.h</text>
</g>
<!-- Node6&#45;&gt;Node9 -->
<g id="edge8" class="edge"><title>Node6&#45;&gt;Node9</title>
<path fill="none" stroke="midnightblue" d="M501.224,-224.083C502.55,-216.927 504.456,-206.635 506.112,-197.691"/>
<polygon fill="midnightblue" stroke="midnightblue" points="509.573,-198.221 507.953,-187.751 502.69,-196.947 509.573,-198.221"/>
</g>
<!-- Node10 -->
<g id="node10" class="node"><title>Node10</title>
<polygon fill="white" stroke="#bfbfbf" points="343.573,-168.5 343.573,-187.5 397.573,-187.5 397.573,-168.5 343.573,-168.5"/>
<text text-anchor="middle" x="370.573" y="-175.5" font-family="Helvetica,sans-Serif" font-size="10.00">setjmp.h</text>
</g>
<!-- Node6&#45;&gt;Node10 -->
<g id="edge9" class="edge"><title>Node6&#45;&gt;Node10</title>
<path fill="none" stroke="midnightblue" d="M479.133,-224.444C457.903,-215.557 424.474,-201.563 400.318,-191.451"/>
<polygon fill="midnightblue" stroke="midnightblue" points="401.494,-188.149 390.918,-187.516 398.791,-194.606 401.494,-188.149"/>
</g>
<!-- Node11&#45;&gt;Node12 -->
<g id="edge11" class="edge"><title>Node11&#45;&gt;Node12</title>
<path fill="none" stroke="midnightblue" d="M305.707,-224.444C282.794,-215.478 246.598,-201.314 220.707,-191.183"/>
<polygon fill="midnightblue" stroke="midnightblue" points="221.925,-187.901 211.337,-187.516 219.374,-194.42 221.925,-187.901"/>
</g>
<!-- Node11&#45;&gt;Node13 -->
<g id="edge19" class="edge"><title>Node11&#45;&gt;Node13</title>
<path fill="none" stroke="midnightblue" d="M316.346,-224.316C300.125,-211.793 269.161,-187.971 242.573,-168 228.989,-157.797 213.594,-146.441 201.668,-137.69"/>
<polygon fill="midnightblue" stroke="midnightblue" points="203.447,-134.654 193.312,-131.567 199.31,-140.301 203.447,-134.654"/>
</g>
<!-- Node12&#45;&gt;Node13 -->
<g id="edge12" class="edge"><title>Node12&#45;&gt;Node13</title>
<path fill="none" stroke="midnightblue" d="M188.252,-168.083C187.192,-160.927 185.667,-150.635 184.342,-141.691"/>
<polygon fill="midnightblue" stroke="midnightblue" points="187.797,-141.13 182.87,-131.751 180.873,-142.156 187.797,-141.13"/>
</g>
<!-- Node14 -->
<g id="node14" class="node"><title>Node14</title>
<polygon fill="white" stroke="#bfbfbf" points="157.073,-56.5 157.073,-75.5 206.073,-75.5 206.073,-56.5 157.073,-56.5"/>
<text text-anchor="middle" x="181.573" y="-63.5" font-family="Helvetica,sans-Serif" font-size="10.00">stdint.h</text>
</g>
<!-- Node13&#45;&gt;Node14 -->
<g id="edge13" class="edge"><title>Node13&#45;&gt;Node14</title>
<path fill="none" stroke="midnightblue" d="M181.573,-112.083C181.573,-105.006 181.573,-94.8611 181.573,-85.9865"/>
<polygon fill="midnightblue" stroke="midnightblue" points="185.073,-85.751 181.573,-75.7511 178.073,-85.7511 185.073,-85.751"/>
</g>
<!-- Node15 -->
<g id="node15" class="node"><title>Node15</title>
<g id="a_node15"><a xlink:href="uthash_8h_source.html" target="_top" xlink:title="uthash.h">
<polygon fill="white" stroke="black" points="39.5732,-56.5 39.5732,-75.5 93.5732,-75.5 93.5732,-56.5 39.5732,-56.5"/>
<text text-anchor="middle" x="66.5732" y="-63.5" font-family="Helvetica,sans-Serif" font-size="10.00">uthash.h</text>
</a>
</g>
</g>
<!-- Node13&#45;&gt;Node15 -->
<g id="edge14" class="edge"><title>Node13&#45;&gt;Node15</title>
<path fill="none" stroke="midnightblue" d="M163.351,-112.444C144.678,-103.675 115.417,-89.9355 93.9558,-79.8579"/>
<polygon fill="midnightblue" stroke="midnightblue" points="95.2494,-76.5988 84.71,-75.5164 92.2741,-82.935 95.2494,-76.5988"/>
</g>
<!-- Node15&#45;&gt;Node4 -->
<g id="edge15" class="edge"><title>Node15&#45;&gt;Node4</title>
<path fill="none" stroke="midnightblue" d="M93.8921,-58.8631C98.4548,-57.8784 103.144,-56.891 107.573,-56 182.561,-40.9158 270.844,-25.281 318.608,-16.9974"/>
<polygon fill="midnightblue" stroke="midnightblue" points="319.469,-20.4005 328.727,-15.2475 318.276,-13.5028 319.469,-20.4005"/>
</g>
<!-- Node15&#45;&gt;Node5 -->
<g id="edge17" class="edge"><title>Node15&#45;&gt;Node5</title>
<path fill="none" stroke="midnightblue" d="M93.8432,-58.5961C98.4118,-57.6435 103.115,-56.7361 107.573,-56 243.343,-33.5817 406.727,-19.1633 476.404,-13.598"/>
<polygon fill="midnightblue" stroke="midnightblue" points="476.684,-17.0869 486.377,-12.811 476.133,-10.1086 476.684,-17.0869"/>
</g>
<!-- Node16 -->
<g id="node16" class="node"><title>Node16</title>
<polygon fill="white" stroke="#bfbfbf" points="77.5732,-0.5 77.5732,-19.5 129.573,-19.5 129.573,-0.5 77.5732,-0.5"/>
<text text-anchor="middle" x="103.573" y="-7.5" font-family="Helvetica,sans-Serif" font-size="10.00">stddef.h</text>
</g>
<!-- Node15&#45;&gt;Node16 -->
<g id="edge16" class="edge"><title>Node15&#45;&gt;Node16</title>
<path fill="none" stroke="midnightblue" d="M72.683,-56.083C77.8554,-48.5341 85.4193,-37.4948 91.7676,-28.2298"/>
<polygon fill="midnightblue" stroke="midnightblue" points="94.812,-29.9787 97.5771,-19.7511 89.0375,-26.0221 94.812,-29.9787"/>
</g>
<!-- Node17 -->
<g id="node17" class="node"><title>Node17</title>
<polygon fill="white" stroke="#bfbfbf" points="0.0731903,-0.5 0.0731903,-19.5 59.0732,-19.5 59.0732,-0.5 0.0731903,-0.5"/>
<text text-anchor="middle" x="29.5732" y="-7.5" font-family="Helvetica,sans-Serif" font-size="10.00">inttypes.h</text>
</g>
<!-- Node15&#45;&gt;Node17 -->
<g id="edge18" class="edge"><title>Node15&#45;&gt;Node17</title>
<path fill="none" stroke="midnightblue" d="M60.4634,-56.083C55.291,-48.5341 47.7271,-37.4948 41.3788,-28.2298"/>
<polygon fill="midnightblue" stroke="midnightblue" points="44.1089,-26.0221 35.5693,-19.7511 38.3344,-29.9787 44.1089,-26.0221"/>
</g>
<!-- Node19&#45;&gt;Node3 -->
<g id="edge24" class="edge"><title>Node19&#45;&gt;Node3</title>
<path fill="none" stroke="midnightblue" d="M146.194,-336.324C160.522,-327.822 182.586,-314.729 199.322,-304.797"/>
<polygon fill="midnightblue" stroke="midnightblue" points="201.175,-307.768 207.989,-299.655 197.603,-301.748 201.175,-307.768"/>
</g>
<!-- Node19&#45;&gt;Node20 -->
<g id="edge25" class="edge"><title>Node19&#45;&gt;Node20</title>
<path fill="none" stroke="midnightblue" d="M124.142,-336.083C117.721,-328.377 108.268,-317.033 100.451,-307.653"/>
<polygon fill="midnightblue" stroke="midnightblue" points="102.956,-305.193 93.8658,-299.751 97.5789,-309.674 102.956,-305.193"/>
</g>
<!-- Node21&#45;&gt;Node3 -->
<g id="edge27" class="edge"><title>Node21&#45;&gt;Node3</title>
<path fill="none" stroke="midnightblue" d="M401.403,-392.071C400.644,-378.121 397.108,-351.186 381.573,-336 346.993,-302.196 289.017,-293.398 253.446,-291.332"/>
<polygon fill="midnightblue" stroke="midnightblue" points="253.32,-287.824 243.177,-290.887 253.016,-294.817 253.32,-287.824"/>
</g>
<!-- Node22&#45;&gt;Node2 -->
<g id="edge34" class="edge"><title>Node22&#45;&gt;Node2</title>
<path fill="none" stroke="midnightblue" d="M265.515,-392.324C280.158,-383.822 302.707,-370.729 319.811,-360.797"/>
<polygon fill="midnightblue" stroke="midnightblue" points="321.778,-363.703 328.668,-355.655 318.263,-357.649 321.778,-363.703"/>
</g>
<!-- Node22&#45;&gt;Node3 -->
<g id="edge30" class="edge"><title>Node22&#45;&gt;Node3</title>
<path fill="none" stroke="midnightblue" d="M247.376,-392.469C244.095,-383.489 238.997,-368.894 235.573,-356 231.507,-340.687 228.054,-323.046 225.731,-310.009"/>
<polygon fill="midnightblue" stroke="midnightblue" points="229.139,-309.173 223.994,-299.912 222.241,-310.36 229.139,-309.173"/>
</g>
<!-- Node22&#45;&gt;Node19 -->
<g id="edge31" class="edge"><title>Node22&#45;&gt;Node19</title>
<path fill="none" stroke="midnightblue" d="M231.717,-392.444C212.307,-383.636 181.843,-369.812 159.609,-359.722"/>
<polygon fill="midnightblue" stroke="midnightblue" points="160.893,-356.462 150.341,-355.516 158.001,-362.836 160.893,-356.462"/>
</g>
<!-- Node23 -->
<g id="node23" class="node"><title>Node23</title>
<g id="a_node23"><a xlink:href="label_8h.html" target="_top" xlink:title="Label tables map human readable text strings to parts of semantic trees. ">
<polygon fill="white" stroke="black" points="132.073,-280.5 132.073,-299.5 177.073,-299.5 177.073,-280.5 132.073,-280.5"/>
<text text-anchor="middle" x="154.573" y="-287.5" font-family="Helvetica,sans-Serif" font-size="10.00">label.h</text>
</a>
</g>
</g>
<!-- Node22&#45;&gt;Node23 -->
<g id="edge32" class="edge"><title>Node22&#45;&gt;Node23</title>
<path fill="none" stroke="midnightblue" d="M243.04,-392.368C227.057,-374.055 189.525,-331.049 168.853,-307.362"/>
<polygon fill="midnightblue" stroke="midnightblue" points="171.284,-304.824 162.071,-299.591 166.01,-309.427 171.284,-304.824"/>
</g>
<!-- Node24 -->
<g id="node24" class="node"><title>Node24</title>
<g id="a_node24"><a xlink:href="scape_8h.html" target="_top" xlink:title="scape header files ">
<polygon fill="white" stroke="black" points="245.073,-336.5 245.073,-355.5 296.073,-355.5 296.073,-336.5 245.073,-336.5"/>
<text text-anchor="middle" x="270.573" y="-343.5" font-family="Helvetica,sans-Serif" font-size="10.00">scape.h</text>
</a>
</g>
</g>
<!-- Node22&#45;&gt;Node24 -->
<g id="edge35" class="edge"><title>Node22&#45;&gt;Node24</title>
<path fill="none" stroke="midnightblue" d="M253.876,-392.083C256.555,-384.849 260.422,-374.409 263.76,-365.397"/>
<polygon fill="midnightblue" stroke="midnightblue" points="267.141,-366.344 267.332,-355.751 260.577,-363.913 267.141,-366.344"/>
</g>
<!-- Node23&#45;&gt;Node13 -->
<g id="edge33" class="edge"><title>Node23&#45;&gt;Node13</title>
<path fill="none" stroke="midnightblue" d="M136.184,-280.471C122.472,-272.997 104.758,-260.71 96.5732,-244 81.7148,-213.666 79.1504,-196.938 96.5732,-168 105.861,-152.574 122.406,-142.16 138.447,-135.271"/>
<polygon fill="midnightblue" stroke="midnightblue" points="139.743,-138.522 147.774,-131.612 137.187,-132.006 139.743,-138.522"/>
</g>
<!-- Node24&#45;&gt;Node3 -->
<g id="edge36" class="edge"><title>Node24&#45;&gt;Node3</title>
<path fill="none" stroke="midnightblue" d="M262.647,-336.083C255.727,-328.298 245.508,-316.801 237.121,-307.367"/>
<polygon fill="midnightblue" stroke="midnightblue" points="239.612,-304.9 230.352,-299.751 234.38,-309.55 239.612,-304.9"/>
</g>
<!-- Node26 -->
<g id="node26" class="node"><title>Node26</title>
<g id="a_node26"><a xlink:href="ceptr_8h_source.html" target="_top" xlink:title="../src/ceptr.h">
<polygon fill="white" stroke="black" points="491.573,-336.5 491.573,-355.5 563.573,-355.5 563.573,-336.5 491.573,-336.5"/>
<text text-anchor="middle" x="527.573" y="-343.5" font-family="Helvetica,sans-Serif" font-size="10.00">../src/ceptr.h</text>
</a>
</g>
</g>
<!-- Node25&#45;&gt;Node26 -->
<g id="edge38" class="edge"><title>Node25&#45;&gt;Node26</title>
<path fill="none" stroke="midnightblue" d="M517.555,-392.083C519.145,-384.927 521.432,-374.635 523.42,-365.691"/>
<polygon fill="midnightblue" stroke="midnightblue" points="526.876,-366.272 525.629,-355.751 520.042,-364.754 526.876,-366.272"/>
</g>
<!-- Node26&#45;&gt;Node3 -->
<g id="edge43" class="edge"><title>Node26&#45;&gt;Node3</title>
<path fill="none" stroke="midnightblue" d="M491.388,-338.593C430.905,-327.885 310.325,-306.536 253.526,-296.48"/>
<polygon fill="midnightblue" stroke="midnightblue" points="253.829,-292.979 243.372,-294.682 252.609,-299.872 253.829,-292.979"/>
</g>
<!-- Node26&#45;&gt;Node4 -->
<g id="edge39" class="edge"><title>Node26&#45;&gt;Node4</title>
<path fill="none" stroke="midnightblue" d="M563.614,-339.09C615.105,-328.357 703.573,-300.399 703.573,-235 703.573,-235 703.573,-235 703.573,-121 703.573,-55.3564 476.674,-24.1089 388.256,-14.4244"/>
<polygon fill="midnightblue" stroke="midnightblue" points="388.5,-10.9306 378.185,-13.3494 387.757,-17.891 388.5,-10.9306"/>
</g>
<!-- Node26&#45;&gt;Node5 -->
<g id="edge41" class="edge"><title>Node26&#45;&gt;Node5</title>
<path fill="none" stroke="midnightblue" d="M563.86,-340.528C612.419,-333.866 695.051,-319.947 717.573,-300 740.627,-279.583 741.573,-265.795 741.573,-235 741.573,-235 741.573,-235 741.573,-121 741.573,-90.2048 740.815,-76.2033 717.573,-56 692.125,-33.879 596.931,-20.3601 544.962,-14.4696"/>
<polygon fill="midnightblue" stroke="midnightblue" points="545.196,-10.9744 534.873,-13.3605 544.431,-17.9324 545.196,-10.9744"/>
</g>
<!-- Node26&#45;&gt;Node6 -->
<g id="edge42" class="edge"><title>Node26&#45;&gt;Node6</title>
<path fill="none" stroke="midnightblue" d="M525.376,-336.368C520.858,-318.617 510.434,-277.666 504.307,-253.597"/>
<polygon fill="midnightblue" stroke="midnightblue" points="507.619,-252.419 501.76,-243.591 500.835,-254.146 507.619,-252.419"/>
</g>
<!-- Node26&#45;&gt;Node7 -->
<g id="edge40" class="edge"><title>Node26&#45;&gt;Node7</title>
<path fill="none" stroke="midnightblue" d="M536.219,-336.311C552.772,-319.423 589.599,-280.607 615.573,-244 626.351,-228.81 636.667,-210.236 643.655,-196.839"/>
<polygon fill="midnightblue" stroke="midnightblue" points="646.868,-198.242 648.303,-187.745 640.635,-195.057 646.868,-198.242"/>
</g>
<!-- Node27 -->
<g id="node27" class="node"><title>Node27</title>
<g id="a_node27"><a xlink:href="mtree_8h.html" target="_top" xlink:title="semantic tree matrix header file `` ">
<polygon fill="white" stroke="black" points="416.573,-280.5 416.573,-299.5 466.573,-299.5 466.573,-280.5 416.573,-280.5"/>
<text text-anchor="middle" x="441.573" y="-287.5" font-family="Helvetica,sans-Serif" font-size="10.00">mtree.h</text>
</a>
</g>
</g>
<!-- Node26&#45;&gt;Node27 -->
<g id="edge44" class="edge"><title>Node26&#45;&gt;Node27</title>
<path fill="none" stroke="midnightblue" d="M513.756,-336.324C500.34,-327.9 479.749,-314.971 463.988,-305.074"/>
<polygon fill="midnightblue" stroke="midnightblue" points="465.686,-302.008 455.356,-299.655 461.964,-307.936 465.686,-302.008"/>
</g>
<!-- Node26&#45;&gt;Node28 -->
<g id="edge52" class="edge"><title>Node26&#45;&gt;Node28</title>
<path fill="none" stroke="midnightblue" d="M563.679,-338.697C608.777,-330.635 688.209,-315.812 755.573,-300 756.841,-299.702 758.135,-299.39 759.439,-299.066"/>
<polygon fill="midnightblue" stroke="midnightblue" points="760.64,-302.371 769.437,-296.467 758.878,-295.596 760.64,-302.371"/>
</g>
<!-- Node27&#45;&gt;Node4 -->
<g id="edge45" class="edge"><title>Node27&#45;&gt;Node4</title>
<path fill="none" stroke="midnightblue" d="M466.92,-284.093C490.02,-278.337 523.508,-266.562 543.573,-244 563.66,-221.414 563.573,-209.225 563.573,-179 563.573,-179 563.573,-179 563.573,-121 563.573,-42.7656 447.79,-20.0654 388.169,-13.5624"/>
<polygon fill="midnightblue" stroke="midnightblue" points="388.371,-10.0653 378.074,-12.5577 387.678,-17.0309 388.371,-10.0653"/>
</g>
<!-- Node27&#45;&gt;Node5 -->
<g id="edge46" class="edge"><title>Node27&#45;&gt;Node5</title>
<path fill="none" stroke="midnightblue" d="M466.747,-287.155C496.879,-283.644 547.082,-273.467 577.573,-244 599.717,-222.6 601.573,-209.795 601.573,-179 601.573,-179 601.573,-179 601.573,-121 601.573,-90.2048 596.613,-80.2042 577.573,-56 567.156,-42.7568 551.742,-32.026 538.324,-24.3694"/>
<polygon fill="midnightblue" stroke="midnightblue" points="539.901,-21.2432 529.44,-19.5667 536.572,-27.4011 539.901,-21.2432"/>
</g>
<!-- Node27&#45;&gt;Node6 -->
<g id="edge47" class="edge"><title>Node27&#45;&gt;Node6</title>
<path fill="none" stroke="midnightblue" d="M450.892,-280.324C459.466,-272.341 472.385,-260.313 482.761,-250.653"/>
<polygon fill="midnightblue" stroke="midnightblue" points="485.151,-253.21 490.085,-243.834 480.381,-248.086 485.151,-253.21"/>
</g>
<!-- Node27&#45;&gt;Node11 -->
<g id="edge48" class="edge"><title>Node27&#45;&gt;Node11</title>
<path fill="none" stroke="midnightblue" d="M423.51,-280.444C404.998,-271.675 375.992,-257.935 354.718,-247.858"/>
<polygon fill="midnightblue" stroke="midnightblue" points="356.088,-244.634 345.552,-243.516 353.091,-250.96 356.088,-244.634"/>
</g>
<!-- Node27&#45;&gt;Node12 -->
<g id="edge49" class="edge"><title>Node27&#45;&gt;Node12</title>
<path fill="none" stroke="midnightblue" d="M435.588,-280.327C425.385,-266.234 403.223,-238.484 377.573,-224 336.395,-200.747 283.59,-189.459 244.433,-184.009"/>
<polygon fill="midnightblue" stroke="midnightblue" points="244.65,-180.507 234.281,-182.683 243.744,-187.448 244.65,-180.507"/>
</g>
<!-- Node27&#45;&gt;Node13 -->
<g id="edge51" class="edge"><title>Node27&#45;&gt;Node13</title>
<path fill="none" stroke="midnightblue" d="M438.629,-280.287C433.618,-266.634 422.228,-240.098 404.573,-224 389.321,-210.093 268.806,-159.133 211.566,-135.363"/>
<polygon fill="midnightblue" stroke="midnightblue" points="212.877,-132.118 202.299,-131.523 210.197,-138.585 212.877,-132.118"/>
</g>
<!-- Node27&#45;&gt;Node18 -->
<g id="edge50" class="edge"><title>Node27&#45;&gt;Node18</title>
<path fill="none" stroke="midnightblue" d="M416.451,-282.806C379.997,-273.817 311.886,-257.022 266.881,-245.925"/>
<polygon fill="midnightblue" stroke="midnightblue" points="267.637,-242.507 257.089,-243.511 265.961,-249.303 267.637,-242.507"/>
</g>
<!-- Node28&#45;&gt;Node7 -->
<g id="edge54" class="edge"><title>Node28&#45;&gt;Node7</title>
<path fill="none" stroke="midnightblue" d="M777.901,-280.368C754.862,-261.733 700.213,-217.532 671.284,-194.134"/>
<polygon fill="midnightblue" stroke="midnightblue" points="673.171,-191.159 663.195,-187.591 668.769,-196.601 673.171,-191.159"/>
</g>
<!-- Node29 -->
<g id="node29" class="node"><title>Node29</title>
<polygon fill="white" stroke="#bfbfbf" points="808.073,-224.5 808.073,-243.5 857.073,-243.5 857.073,-224.5 808.073,-224.5"/>
<text text-anchor="middle" x="832.573" y="-231.5" font-family="Helvetica,sans-Serif" font-size="10.00">ctype.h</text>
</g>
<!-- Node28&#45;&gt;Node29 -->
<g id="edge53" class="edge"><title>Node28&#45;&gt;Node29</title>
<path fill="none" stroke="midnightblue" d="M795.839,-280.083C802.118,-272.377 811.361,-261.033 819.004,-251.653"/>
<polygon fill="midnightblue" stroke="midnightblue" points="821.839,-253.714 825.443,-243.751 816.413,-249.293 821.839,-253.714"/>
</g>
<!-- Node30 -->
<g id="node30" class="node"><title>Node30</title>
<polygon fill="white" stroke="#bfbfbf" points="875.573,-224.5 875.573,-243.5 919.573,-243.5 919.573,-224.5 875.573,-224.5"/>
<text text-anchor="middle" x="897.573" y="-231.5" font-family="Helvetica,sans-Serif" font-size="10.00">time.h</text>
</g>
<!-- Node28&#45;&gt;Node30 -->
<g id="edge55" class="edge"><title>Node28&#45;&gt;Node30</title>
<path fill="none" stroke="midnightblue" d="M806.086,-280.324C823.646,-271.625 850.905,-258.12 871.104,-248.113"/>
<polygon fill="midnightblue" stroke="midnightblue" points="872.697,-251.23 880.104,-243.655 869.59,-244.958 872.697,-251.23"/>
</g>
</g>
</svg>
