<?xml version="1.0" encoding="UTF-8" standalone="no"?>
<!DOCTYPE svg PUBLIC "-//W3C//DTD SVG 1.1//EN"
 "http://www.w3.org/Graphics/SVG/1.1/DTD/svg11.dtd">
<!-- Generated by graphviz version 2.38.0 (20140413.2041)
 -->
<!-- Title: src/process.c Pages: 1 -->
<!--zoomable 476 -->
<svg id="main" version="1.1" xmlns="http://www.w3.org/2000/svg" xmlns:xlink="http://www.w3.org/1999/xlink" xml:space="preserve" onload="init(evt)">
<style type="text/css"><![CDATA[
.edge:hover path { stroke: red; }
.edge:hover polygon { stroke: red; fill: red; }
]]></style>
<script type="text/javascript"><![CDATA[
var edges = document.getElementsByTagName('g');
if (edges && edges.length) {
  for (var i=0;i<edges.length;i++) {
    if (edges[i].id.substr(0,4)=='edge') {
      edges[i].setAttribute('class','edge');
    }
  }
}
]]></script>
        <defs>
                <circle id="rim" cx="0" cy="0" r="7"/>
                <circle id="rim2" cx="0" cy="0" r="3.5"/>
                <g id="zoomPlus">
                        <use xlink:href="#rim" fill="#404040">
                                <set attributeName="fill" to="#808080" begin="zoomplus.mouseover" end="zoomplus.mouseout"/>
                        </use>
                        <path d="M-4,0h8M0,-4v8" fill="none" stroke="white" stroke-width="1.5" pointer-events="none"/>
                </g>
                <g id="zoomMin">
                        <use xlink:href="#rim" fill="#404040">
                                <set attributeName="fill" to="#808080" begin="zoomminus.mouseover" end="zoomminus.mouseout"/>
                        </use>
                        <path d="M-4,0h8" fill="none" stroke="white" stroke-width="1.5" pointer-events="none"/>
                </g>
                <g id="dirArrow">
                        <path fill="none" stroke="white" stroke-width="1.5" d="M0,-3.0v7 M-2.5,-0.5L0,-3.0L2.5,-0.5"/>
                </g>
               <g id="resetDef">
                       <use xlink:href="#rim2" fill="#404040">
                               <set attributeName="fill" to="#808080" begin="reset.mouseover" end="reset.mouseout"/>
                       </use>
               </g>
        </defs>

<script type="text/javascript">
var viewWidth = 990;
var viewHeight = 476;
var sectionId = 'dynsection-0';
</script>
<script xlink:href="svgpan.js"/>
<svg id="graph" class="graph">
<g id="viewport">
<title>src/process.c</title>
<polygon fill="white" stroke="none" points="-4,4 -4,-472 986,-472 986,4 -4,4"/>
<!-- Node1 -->
<g id="node1" class="node"><title>Node1</title>
<polygon fill="#bfbfbf" stroke="black" points="288,-448.5 288,-467.5 364,-467.5 364,-448.5 288,-448.5"/>
<text text-anchor="middle" x="326" y="-455.5" font-family="Helvetica,sans-Serif" font-size="10.00">src/process.c</text>
</g>
<!-- Node2 -->
<g id="node2" class="node"><title>Node2</title>
<g id="a_node2"><a xlink:href="process_8h.html" target="_top" xlink:title="processing header files ">
<polygon fill="white" stroke="black" points="238.5,-336.5 238.5,-355.5 297.5,-355.5 297.5,-336.5 238.5,-336.5"/>
<text text-anchor="middle" x="268" y="-343.5" font-family="Helvetica,sans-Serif" font-size="10.00">process.h</text>
</a>
</g>
</g>
<!-- Node1&#45;&gt;Node2 -->
<g id="edge1" class="edge"><title>Node1&#45;&gt;Node2</title>
<path fill="none" stroke="midnightblue" d="M316.331,-448.247C307.514,-439.772 294.721,-426.159 287,-412 279.085,-397.485 274.132,-379.303 271.276,-365.862"/>
<polygon fill="midnightblue" stroke="midnightblue" points="274.68,-365.029 269.351,-355.872 267.806,-366.354 274.68,-365.029"/>
</g>
<!-- Node20 -->
<g id="node20" class="node"><title>Node20</title>
<g id="a_node20"><a xlink:href="def_8h.html" target="_top" xlink:title="header file for symbol and structure definition functions ">
<polygon fill="white" stroke="black" points="36,-336.5 36,-355.5 74,-355.5 74,-336.5 36,-336.5"/>
<text text-anchor="middle" x="55" y="-343.5" font-family="Helvetica,sans-Serif" font-size="10.00">def.h</text>
</a>
</g>
</g>
<!-- Node1&#45;&gt;Node20 -->
<g id="edge25" class="edge"><title>Node1&#45;&gt;Node20</title>
<path fill="none" stroke="midnightblue" d="M287.967,-451.617C250.771,-445.402 193.151,-433.204 147,-412 118.595,-398.949 89.7941,-376.855 72.1659,-362.098"/>
<polygon fill="midnightblue" stroke="midnightblue" points="74.337,-359.35 64.4602,-355.516 69.7902,-364.672 74.337,-359.35"/>
</g>
<!-- Node21 -->
<g id="node21" class="node"><title>Node21</title>
<polygon fill="white" stroke="#bfbfbf" points="2,-280.5 2,-299.5 54,-299.5 54,-280.5 2,-280.5"/>
<text text-anchor="middle" x="28" y="-287.5" font-family="Helvetica,sans-Serif" font-size="10.00">stdarg.h</text>
</g>
<!-- Node1&#45;&gt;Node21 -->
<g id="edge30" class="edge"><title>Node1&#45;&gt;Node21</title>
<path fill="none" stroke="midnightblue" d="M287.792,-453.665C243.353,-448.76 168.49,-437.28 109,-412 68.383,-394.74 47.6065,-395.026 27,-356 19.5071,-341.809 20.6461,-323.33 23.1398,-309.704"/>
<polygon fill="midnightblue" stroke="midnightblue" points="26.6325,-310.123 25.3935,-299.601 19.8003,-308.599 26.6325,-310.123"/>
</g>
<!-- Node22 -->
<g id="node22" class="node"><title>Node22</title>
<g id="a_node22"><a xlink:href="semtrex_8h.html" target="_top" xlink:title="Semantic tree regular expression header file. ">
<polygon fill="white" stroke="black" points="296,-392.5 296,-411.5 356,-411.5 356,-392.5 296,-392.5"/>
<text text-anchor="middle" x="326" y="-399.5" font-family="Helvetica,sans-Serif" font-size="10.00">semtrex.h</text>
</a>
</g>
</g>
<!-- Node1&#45;&gt;Node22 -->
<g id="edge28" class="edge"><title>Node1&#45;&gt;Node22</title>
<path fill="none" stroke="midnightblue" d="M326,-448.083C326,-441.006 326,-430.861 326,-421.986"/>
<polygon fill="midnightblue" stroke="midnightblue" points="329.5,-421.751 326,-411.751 322.5,-421.751 329.5,-421.751"/>
</g>
<!-- Node23 -->
<g id="node23" class="node"><title>Node23</title>
<g id="a_node23"><a xlink:href="receptor_8h.html" target="_top" xlink:title="receptor implementation header file ">
<polygon fill="white" stroke="black" points="156,-392.5 156,-411.5 216,-411.5 216,-392.5 156,-392.5"/>
<text text-anchor="middle" x="186" y="-399.5" font-family="Helvetica,sans-Serif" font-size="10.00">receptor.h</text>
</a>
</g>
</g>
<!-- Node1&#45;&gt;Node23 -->
<g id="edge31" class="edge"><title>Node1&#45;&gt;Node23</title>
<path fill="none" stroke="midnightblue" d="M303.817,-448.444C280.572,-439.478 243.851,-425.314 217.585,-415.183"/>
<polygon fill="midnightblue" stroke="midnightblue" points="218.669,-411.85 208.08,-411.516 216.15,-418.381 218.669,-411.85"/>
</g>
<!-- Node26 -->
<g id="node26" class="node"><title>Node26</title>
<g id="a_node26"><a xlink:href="spec__utils_8h.html" target="_top" xlink:title="../spec/spec_utils.h">
<polygon fill="white" stroke="black" points="374,-392.5 374,-411.5 476,-411.5 476,-392.5 374,-392.5"/>
<text text-anchor="middle" x="425" y="-399.5" font-family="Helvetica,sans-Serif" font-size="10.00">../spec/spec_utils.h</text>
</a>
</g>
</g>
<!-- Node1&#45;&gt;Node26 -->
<g id="edge39" class="edge"><title>Node1&#45;&gt;Node26</title>
<path fill="none" stroke="midnightblue" d="M341.906,-448.324C357.638,-439.743 381.942,-426.486 400.209,-416.522"/>
<polygon fill="midnightblue" stroke="midnightblue" points="402.03,-419.516 409.133,-411.655 398.678,-413.37 402.03,-419.516"/>
</g>
<!-- Node29 -->
<g id="node29" class="node"><title>Node29</title>
<g id="a_node29"><a xlink:href="util_8h.html" target="_top" xlink:title="util.h">
<polygon fill="white" stroke="black" points="808,-280.5 808,-299.5 846,-299.5 846,-280.5 808,-280.5"/>
<text text-anchor="middle" x="827" y="-287.5" font-family="Helvetica,sans-Serif" font-size="10.00">util.h</text>
</a>
</g>
</g>
<!-- Node1&#45;&gt;Node29 -->
<g id="edge60" class="edge"><title>Node1&#45;&gt;Node29</title>
<path fill="none" stroke="midnightblue" d="M364.147,-448.89C401.027,-440.728 458.318,-427.197 507,-412 514.376,-409.697 721.321,-331.142 798.418,-301.859"/>
<polygon fill="midnightblue" stroke="midnightblue" points="799.882,-305.047 807.987,-298.224 797.396,-298.503 799.882,-305.047"/>
</g>
<!-- Node32 -->
<g id="node32" class="node"><title>Node32</title>
<g id="a_node32"><a xlink:href="debug_8h.html" target="_top" xlink:title="debug.h">
<polygon fill="white" stroke="black" points="738.5,-280.5 738.5,-299.5 789.5,-299.5 789.5,-280.5 738.5,-280.5"/>
<text text-anchor="middle" x="764" y="-287.5" font-family="Helvetica,sans-Serif" font-size="10.00">debug.h</text>
</a>
</g>
</g>
<!-- Node1&#45;&gt;Node32 -->
<g id="edge61" class="edge"><title>Node1&#45;&gt;Node32</title>
<path fill="none" stroke="midnightblue" d="M364.054,-454.381C398.791,-450.24 449.919,-439.557 485,-412 515.519,-388.026 496.386,-358.511 528,-336 600.147,-284.627 637.223,-317.724 724,-300 725.438,-299.706 726.905,-299.401 728.385,-299.089"/>
<polygon fill="midnightblue" stroke="midnightblue" points="729.179,-302.498 738.212,-296.96 727.697,-295.657 729.179,-302.498"/>
</g>
<!-- Node33 -->
<g id="node33" class="node"><title>Node33</title>
<polygon fill="white" stroke="#bfbfbf" points="570.5,-392.5 570.5,-411.5 617.5,-411.5 617.5,-392.5 570.5,-392.5"/>
<text text-anchor="middle" x="594" y="-399.5" font-family="Helvetica,sans-Serif" font-size="10.00">errno.h</text>
</g>
<!-- Node1&#45;&gt;Node33 -->
<g id="edge62" class="edge"><title>Node1&#45;&gt;Node33</title>
<path fill="none" stroke="midnightblue" d="M364.349,-449.975C410.083,-441.486 488.79,-426.528 556,-412 557.45,-411.687 558.929,-411.361 560.422,-411.028"/>
<polygon fill="midnightblue" stroke="midnightblue" points="561.35,-414.406 570.316,-408.761 559.787,-407.583 561.35,-414.406"/>
</g>
<!-- Node3 -->
<g id="node3" class="node"><title>Node3</title>
<g id="a_node3"><a xlink:href="tree_8h.html" target="_top" xlink:title="semantic trees header file ">
<polygon fill="white" stroke="black" points="173.5,-280.5 173.5,-299.5 214.5,-299.5 214.5,-280.5 173.5,-280.5"/>
<text text-anchor="middle" x="194" y="-287.5" font-family="Helvetica,sans-Serif" font-size="10.00">tree.h</text>
</a>
</g>
</g>
<!-- Node2&#45;&gt;Node3 -->
<g id="edge2" class="edge"><title>Node2&#45;&gt;Node3</title>
<path fill="none" stroke="midnightblue" d="M256.111,-336.324C244.85,-328.107 227.713,-315.602 214.291,-305.807"/>
<polygon fill="midnightblue" stroke="midnightblue" points="216.247,-302.901 206.106,-299.834 212.12,-308.556 216.247,-302.901"/>
</g>
<!-- Node4 -->
<g id="node4" class="node"><title>Node4</title>
<polygon fill="white" stroke="#bfbfbf" points="341.5,-0.5 341.5,-19.5 390.5,-19.5 390.5,-0.5 341.5,-0.5"/>
<text text-anchor="middle" x="366" y="-7.5" font-family="Helvetica,sans-Serif" font-size="10.00">string.h</text>
</g>
<!-- Node3&#45;&gt;Node4 -->
<g id="edge3" class="edge"><title>Node3&#45;&gt;Node4</title>
<path fill="none" stroke="midnightblue" d="M177.096,-280.419C141.752,-261.308 65.6494,-213.343 95,-168 149.267,-84.1653 217.566,-132.372 300,-76 320.228,-62.1673 339.758,-41.7732 352.255,-27.5292"/>
<polygon fill="midnightblue" stroke="midnightblue" points="355.226,-29.4413 359.071,-19.5688 349.909,-24.8887 355.226,-29.4413"/>
</g>
<!-- Node5 -->
<g id="node5" class="node"><title>Node5</title>
<polygon fill="white" stroke="#bfbfbf" points="85,-0.5 85,-19.5 133,-19.5 133,-0.5 85,-0.5"/>
<text text-anchor="middle" x="109" y="-7.5" font-family="Helvetica,sans-Serif" font-size="10.00">stdlib.h</text>
</g>
<!-- Node3&#45;&gt;Node5 -->
<g id="edge4" class="edge"><title>Node3&#45;&gt;Node5</title>
<path fill="none" stroke="midnightblue" d="M173.377,-289.335C138.242,-288.783 66.4659,-282.614 24,-244 1.2158,-223.282 0,-209.795 0,-179 0,-179 0,-179 0,-121 0,-75.1195 48.4374,-41.5267 80.7337,-24.2277"/>
<polygon fill="midnightblue" stroke="midnightblue" points="82.4708,-27.2701 89.7639,-19.5849 79.2701,-21.0447 82.4708,-27.2701"/>
</g>
<!-- Node6 -->
<g id="node6" class="node"><title>Node6</title>
<g id="a_node6"><a xlink:href="ceptr__error_8h_source.html" target="_top" xlink:title="ceptr_error.h">
<polygon fill="white" stroke="black" points="556.5,-168.5 556.5,-187.5 627.5,-187.5 627.5,-168.5 556.5,-168.5"/>
<text text-anchor="middle" x="592" y="-175.5" font-family="Helvetica,sans-Serif" font-size="10.00">ceptr_error.h</text>
</a>
</g>
</g>
<!-- Node3&#45;&gt;Node6 -->
<g id="edge5" class="edge"><title>Node3&#45;&gt;Node6</title>
<path fill="none" stroke="midnightblue" d="M214.554,-287.906C261.027,-284.949 377.284,-274.819 469,-244 506.594,-231.367 546.565,-208.198 570.397,-193.206"/>
<polygon fill="midnightblue" stroke="midnightblue" points="572.451,-196.048 578.992,-187.712 568.681,-190.15 572.451,-196.048"/>
</g>
<!-- Node11 -->
<g id="node11" class="node"><title>Node11</title>
<g id="a_node11"><a xlink:href="sys__defs_8h.html" target="_top" xlink:title="Defines types and vars for system defined semantics. ">
<polygon fill="white" stroke="black" points="206.5,-168.5 206.5,-187.5 271.5,-187.5 271.5,-168.5 206.5,-168.5"/>
<text text-anchor="middle" x="239" y="-175.5" font-family="Helvetica,sans-Serif" font-size="10.00">sys_defs.h</text>
</a>
</g>
</g>
<!-- Node3&#45;&gt;Node11 -->
<g id="edge10" class="edge"><title>Node3&#45;&gt;Node11</title>
<path fill="none" stroke="midnightblue" d="M197.531,-280.368C204.859,-262.456 221.85,-220.923 231.658,-196.948"/>
<polygon fill="midnightblue" stroke="midnightblue" points="234.938,-198.172 235.485,-187.591 228.46,-195.522 234.938,-198.172"/>
</g>
<!-- Node12 -->
<g id="node12" class="node"><title>Node12</title>
<g id="a_node12"><a xlink:href="ceptr__types_8h_source.html" target="_top" xlink:title="ceptr_types.h">
<polygon fill="white" stroke="black" points="237,-112.5 237,-131.5 313,-131.5 313,-112.5 237,-112.5"/>
<text text-anchor="middle" x="275" y="-119.5" font-family="Helvetica,sans-Serif" font-size="10.00">ceptr_types.h</text>
</a>
</g>
</g>
<!-- Node3&#45;&gt;Node12 -->
<g id="edge21" class="edge"><title>Node3&#45;&gt;Node12</title>
<path fill="none" stroke="midnightblue" d="M191.531,-280.304C186.091,-259.269 175.209,-204.672 197,-168 205.862,-153.086 221.697,-142.646 236.795,-135.604"/>
<polygon fill="midnightblue" stroke="midnightblue" points="238.217,-138.803 246.031,-131.649 235.461,-132.368 238.217,-138.803"/>
</g>
<!-- Node17 -->
<g id="node17" class="node"><title>Node17</title>
<g id="a_node17"><a xlink:href="base__defs_8h.html" target="_top" xlink:title="auto&#45;generated system definitions ">
<polygon fill="white" stroke="black" points="244,-224.5 244,-243.5 314,-243.5 314,-224.5 244,-224.5"/>
<text text-anchor="middle" x="279" y="-231.5" font-family="Helvetica,sans-Serif" font-size="10.00">base_defs.h</text>
</a>
</g>
</g>
<!-- Node3&#45;&gt;Node17 -->
<g id="edge19" class="edge"><title>Node3&#45;&gt;Node17</title>
<path fill="none" stroke="midnightblue" d="M207.657,-280.324C220.916,-271.9 241.268,-258.971 256.846,-249.074"/>
<polygon fill="midnightblue" stroke="midnightblue" points="258.813,-251.971 265.377,-243.655 255.06,-246.063 258.813,-251.971"/>
</g>
<!-- Node18 -->
<g id="node18" class="node"><title>Node18</title>
<g id="a_node18"><a xlink:href="stream_8h.html" target="_top" xlink:title="streams abstraction header file ">
<polygon fill="white" stroke="black" points="405.5,-224.5 405.5,-243.5 460.5,-243.5 460.5,-224.5 405.5,-224.5"/>
<text text-anchor="middle" x="433" y="-231.5" font-family="Helvetica,sans-Serif" font-size="10.00">stream.h</text>
</a>
</g>
</g>
<!-- Node3&#45;&gt;Node18 -->
<g id="edge22" class="edge"><title>Node3&#45;&gt;Node18</title>
<path fill="none" stroke="midnightblue" d="M214.739,-284.373C251.07,-276.259 328.589,-258.906 394,-244 394.457,-243.896 394.918,-243.791 395.38,-243.685"/>
<polygon fill="midnightblue" stroke="midnightblue" points="396.342,-247.056 405.307,-241.41 394.778,-240.233 396.342,-247.056"/>
</g>
<!-- Node7 -->
<g id="node7" class="node"><title>Node7</title>
<polygon fill="white" stroke="#bfbfbf" points="696,-56.5 696,-75.5 742,-75.5 742,-56.5 696,-56.5"/>
<text text-anchor="middle" x="719" y="-63.5" font-family="Helvetica,sans-Serif" font-size="10.00">stdio.h</text>
</g>
<!-- Node6&#45;&gt;Node7 -->
<g id="edge6" class="edge"><title>Node6&#45;&gt;Node7</title>
<path fill="none" stroke="midnightblue" d="M618.173,-168.354C637.31,-161.019 662.968,-148.966 681,-132 695.096,-118.737 705.598,-99.073 711.948,-84.8484"/>
<polygon fill="midnightblue" stroke="midnightblue" points="715.178,-86.1963 715.83,-75.6215 708.726,-83.4816 715.178,-86.1963"/>
</g>
<!-- Node8 -->
<g id="node8" class="node"><title>Node8</title>
<polygon fill="white" stroke="#bfbfbf" points="480,-112.5 480,-131.5 530,-131.5 530,-112.5 480,-112.5"/>
<text text-anchor="middle" x="505" y="-119.5" font-family="Helvetica,sans-Serif" font-size="10.00">signal.h</text>
</g>
<!-- Node6&#45;&gt;Node8 -->
<g id="edge7" class="edge"><title>Node6&#45;&gt;Node8</title>
<path fill="none" stroke="midnightblue" d="M578.022,-168.324C564.45,-159.9 543.62,-146.971 527.675,-137.074"/>
<polygon fill="midnightblue" stroke="midnightblue" points="529.286,-133.954 518.943,-131.655 525.594,-139.902 529.286,-133.954"/>
</g>
<!-- Node9 -->
<g id="node9" class="node"><title>Node9</title>
<polygon fill="white" stroke="#bfbfbf" points="548,-112.5 548,-131.5 600,-131.5 600,-112.5 548,-112.5"/>
<text text-anchor="middle" x="574" y="-119.5" font-family="Helvetica,sans-Serif" font-size="10.00">assert.h</text>
</g>
<!-- Node6&#45;&gt;Node9 -->
<g id="edge8" class="edge"><title>Node6&#45;&gt;Node9</title>
<path fill="none" stroke="midnightblue" d="M589.028,-168.083C586.616,-160.849 583.136,-150.409 580.132,-141.397"/>
<polygon fill="midnightblue" stroke="midnightblue" points="583.4,-140.131 576.917,-131.751 576.759,-142.345 583.4,-140.131"/>
</g>
<!-- Node10 -->
<g id="node10" class="node"><title>Node10</title>
<polygon fill="white" stroke="#bfbfbf" points="618,-112.5 618,-131.5 672,-131.5 672,-112.5 618,-112.5"/>
<text text-anchor="middle" x="645" y="-119.5" font-family="Helvetica,sans-Serif" font-size="10.00">setjmp.h</text>
</g>
<!-- Node6&#45;&gt;Node10 -->
<g id="edge9" class="edge"><title>Node6&#45;&gt;Node10</title>
<path fill="none" stroke="midnightblue" d="M600.752,-168.083C608.47,-160.22 619.905,-148.569 629.217,-139.081"/>
<polygon fill="midnightblue" stroke="midnightblue" points="631.904,-141.34 636.411,-131.751 626.908,-136.436 631.904,-141.34"/>
</g>
<!-- Node11&#45;&gt;Node12 -->
<g id="edge11" class="edge"><title>Node11&#45;&gt;Node12</title>
<path fill="none" stroke="midnightblue" d="M244.945,-168.083C249.977,-160.534 257.337,-149.495 263.513,-140.23"/>
<polygon fill="midnightblue" stroke="midnightblue" points="266.531,-142.013 269.166,-131.751 260.707,-138.13 266.531,-142.013"/>
</g>
<!-- Node12&#45;&gt;Node7 -->
<g id="edge13" class="edge"><title>Node12&#45;&gt;Node7</title>
<path fill="none" stroke="midnightblue" d="M313.239,-116.349C398.897,-105.931 604.973,-80.8681 685.735,-71.0458"/>
<polygon fill="midnightblue" stroke="midnightblue" points="686.329,-74.4994 695.833,-69.8176 685.483,-67.5506 686.329,-74.4994"/>
</g>
<!-- Node13 -->
<g id="node13" class="node"><title>Node13</title>
<polygon fill="white" stroke="#bfbfbf" points="416.5,-56.5 416.5,-75.5 465.5,-75.5 465.5,-56.5 416.5,-56.5"/>
<text text-anchor="middle" x="441" y="-63.5" font-family="Helvetica,sans-Serif" font-size="10.00">stdint.h</text>
</g>
<!-- Node12&#45;&gt;Node13 -->
<g id="edge12" class="edge"><title>Node12&#45;&gt;Node13</title>
<path fill="none" stroke="midnightblue" d="M301.303,-112.444C329.846,-103.159 375.523,-88.2996 406.825,-78.117"/>
<polygon fill="midnightblue" stroke="midnightblue" points="408.017,-81.4102 416.443,-74.9883 405.851,-74.7535 408.017,-81.4102"/>
</g>
<!-- Node14 -->
<g id="node14" class="node"><title>Node14</title>
<g id="a_node14"><a xlink:href="uthash_8h_source.html" target="_top" xlink:title="uthash.h">
<polygon fill="white" stroke="black" points="237,-56.5 237,-75.5 291,-75.5 291,-56.5 237,-56.5"/>
<text text-anchor="middle" x="264" y="-63.5" font-family="Helvetica,sans-Serif" font-size="10.00">uthash.h</text>
</a>
</g>
</g>
<!-- Node12&#45;&gt;Node14 -->
<g id="edge14" class="edge"><title>Node12&#45;&gt;Node14</title>
<path fill="none" stroke="midnightblue" d="M273.184,-112.083C271.726,-104.927 269.629,-94.6353 267.807,-85.6911"/>
<polygon fill="midnightblue" stroke="midnightblue" points="271.208,-84.8512 265.783,-75.7511 264.349,-86.2485 271.208,-84.8512"/>
</g>
<!-- Node14&#45;&gt;Node4 -->
<g id="edge15" class="edge"><title>Node14&#45;&gt;Node4</title>
<path fill="none" stroke="midnightblue" d="M280.388,-56.324C296.671,-47.7034 321.867,-34.3643 340.716,-24.3855"/>
<polygon fill="midnightblue" stroke="midnightblue" points="342.452,-27.4267 349.653,-19.6545 339.177,-21.2402 342.452,-27.4267"/>
</g>
<!-- Node14&#45;&gt;Node5 -->
<g id="edge17" class="edge"><title>Node14&#45;&gt;Node5</title>
<path fill="none" stroke="midnightblue" d="M239.44,-56.4435C213.401,-47.372 172.09,-32.9797 142.946,-22.8264"/>
<polygon fill="midnightblue" stroke="midnightblue" points="143.785,-19.4124 133.19,-19.4275 141.482,-26.0227 143.785,-19.4124"/>
</g>
<!-- Node15 -->
<g id="node15" class="node"><title>Node15</title>
<polygon fill="white" stroke="#bfbfbf" points="184,-0.5 184,-19.5 236,-19.5 236,-0.5 184,-0.5"/>
<text text-anchor="middle" x="210" y="-7.5" font-family="Helvetica,sans-Serif" font-size="10.00">stddef.h</text>
</g>
<!-- Node14&#45;&gt;Node15 -->
<g id="edge16" class="edge"><title>Node14&#45;&gt;Node15</title>
<path fill="none" stroke="midnightblue" d="M255.083,-56.083C247.22,-48.2195 235.569,-36.5688 226.081,-27.0813"/>
<polygon fill="midnightblue" stroke="midnightblue" points="228.297,-24.3473 218.751,-19.7511 223.347,-29.2971 228.297,-24.3473"/>
</g>
<!-- Node16 -->
<g id="node16" class="node"><title>Node16</title>
<polygon fill="white" stroke="#bfbfbf" points="254.5,-0.5 254.5,-19.5 313.5,-19.5 313.5,-0.5 254.5,-0.5"/>
<text text-anchor="middle" x="284" y="-7.5" font-family="Helvetica,sans-Serif" font-size="10.00">inttypes.h</text>
</g>
<!-- Node14&#45;&gt;Node16 -->
<g id="edge18" class="edge"><title>Node14&#45;&gt;Node16</title>
<path fill="none" stroke="midnightblue" d="M267.303,-56.083C269.982,-48.8486 273.849,-38.4087 277.186,-29.3968"/>
<polygon fill="midnightblue" stroke="midnightblue" points="280.568,-30.3442 280.759,-19.7511 274.004,-27.9129 280.568,-30.3442"/>
</g>
<!-- Node17&#45;&gt;Node11 -->
<g id="edge20" class="edge"><title>Node17&#45;&gt;Node11</title>
<path fill="none" stroke="midnightblue" d="M272.395,-224.083C266.745,-216.455 258.455,-205.264 251.549,-195.941"/>
<polygon fill="midnightblue" stroke="midnightblue" points="254.247,-193.703 245.482,-187.751 248.622,-197.87 254.247,-193.703"/>
</g>
<!-- Node18&#45;&gt;Node7 -->
<g id="edge23" class="edge"><title>Node18&#45;&gt;Node7</title>
<path fill="none" stroke="midnightblue" d="M443.393,-224.228C452.347,-215.941 464.65,-202.628 470,-188 481.604,-156.275 449.18,-137.788 471,-112 498.13,-79.9351 624.032,-70.6554 685.312,-68.0193"/>
<polygon fill="midnightblue" stroke="midnightblue" points="685.762,-71.5044 695.616,-67.6129 685.486,-64.5099 685.762,-71.5044"/>
</g>
<!-- Node19 -->
<g id="node19" class="node"><title>Node19</title>
<polygon fill="white" stroke="#bfbfbf" points="404.5,-168.5 404.5,-187.5 461.5,-187.5 461.5,-168.5 404.5,-168.5"/>
<text text-anchor="middle" x="433" y="-175.5" font-family="Helvetica,sans-Serif" font-size="10.00">pthread.h</text>
</g>
<!-- Node18&#45;&gt;Node19 -->
<g id="edge24" class="edge"><title>Node18&#45;&gt;Node19</title>
<path fill="none" stroke="midnightblue" d="M433,-224.083C433,-217.006 433,-206.861 433,-197.986"/>
<polygon fill="midnightblue" stroke="midnightblue" points="436.5,-197.751 433,-187.751 429.5,-197.751 436.5,-197.751"/>
</g>
<!-- Node20&#45;&gt;Node3 -->
<g id="edge26" class="edge"><title>Node20&#45;&gt;Node3</title>
<path fill="none" stroke="midnightblue" d="M74.0359,-337.605C97.2131,-328.601 136.635,-313.286 163.931,-302.681"/>
<polygon fill="midnightblue" stroke="midnightblue" points="165.332,-305.892 173.386,-299.008 162.797,-299.367 165.332,-305.892"/>
</g>
<!-- Node20&#45;&gt;Node21 -->
<g id="edge27" class="edge"><title>Node20&#45;&gt;Node21</title>
<path fill="none" stroke="midnightblue" d="M50.5415,-336.083C46.8457,-328.691 41.4766,-317.953 36.9055,-308.811"/>
<polygon fill="midnightblue" stroke="midnightblue" points="39.9782,-307.13 32.3755,-299.751 33.7172,-310.261 39.9782,-307.13"/>
</g>
<!-- Node22&#45;&gt;Node3 -->
<g id="edge29" class="edge"><title>Node22&#45;&gt;Node3</title>
<path fill="none" stroke="midnightblue" d="M325.634,-392.262C324.605,-378.573 320.707,-351.99 306,-336 294.643,-323.652 253.677,-309.146 224.584,-300.012"/>
<polygon fill="midnightblue" stroke="midnightblue" points="225.444,-296.615 214.856,-297.018 223.384,-303.305 225.444,-296.615"/>
</g>
<!-- Node23&#45;&gt;Node2 -->
<g id="edge36" class="edge"><title>Node23&#45;&gt;Node2</title>
<path fill="none" stroke="midnightblue" d="M199.175,-392.324C211.847,-383.979 231.233,-371.212 246.206,-361.352"/>
<polygon fill="midnightblue" stroke="midnightblue" points="248.431,-364.078 254.858,-355.655 244.581,-358.231 248.431,-364.078"/>
</g>
<!-- Node23&#45;&gt;Node3 -->
<g id="edge32" class="edge"><title>Node23&#45;&gt;Node3</title>
<path fill="none" stroke="midnightblue" d="M186.836,-392.379C187.698,-383.325 189.047,-368.67 190,-356 191.167,-340.479 192.236,-322.853 192.974,-309.875"/>
<polygon fill="midnightblue" stroke="midnightblue" points="196.472,-310.015 193.533,-299.837 189.483,-309.627 196.472,-310.015"/>
</g>
<!-- Node23&#45;&gt;Node20 -->
<g id="edge33" class="edge"><title>Node23&#45;&gt;Node20</title>
<path fill="none" stroke="midnightblue" d="M165.243,-392.444C143.303,-383.4 108.535,-369.068 83.9164,-358.92"/>
<polygon fill="midnightblue" stroke="midnightblue" points="84.9583,-355.564 74.3791,-354.988 82.2905,-362.035 84.9583,-355.564"/>
</g>
<!-- Node24 -->
<g id="node24" class="node"><title>Node24</title>
<g id="a_node24"><a xlink:href="label_8h.html" target="_top" xlink:title="Label tables map human readable text strings to parts of semantic trees. ">
<polygon fill="white" stroke="black" points="104.5,-168.5 104.5,-187.5 149.5,-187.5 149.5,-168.5 104.5,-168.5"/>
<text text-anchor="middle" x="127" y="-175.5" font-family="Helvetica,sans-Serif" font-size="10.00">label.h</text>
</a>
</g>
</g>
<!-- Node23&#45;&gt;Node24 -->
<g id="edge34" class="edge"><title>Node23&#45;&gt;Node24</title>
<path fill="none" stroke="midnightblue" d="M164.192,-392.447C149.055,-385.221 130.045,-373.264 121,-356 93.8205,-304.126 110.406,-231.462 120.679,-197.659"/>
<polygon fill="midnightblue" stroke="midnightblue" points="124.129,-198.363 123.848,-187.772 117.463,-196.226 124.129,-198.363"/>
</g>
<!-- Node25 -->
<g id="node25" class="node"><title>Node25</title>
<g id="a_node25"><a xlink:href="scape_8h.html" target="_top" xlink:title="scape header files ">
<polygon fill="white" stroke="black" points="130.5,-336.5 130.5,-355.5 181.5,-355.5 181.5,-336.5 130.5,-336.5"/>
<text text-anchor="middle" x="156" y="-343.5" font-family="Helvetica,sans-Serif" font-size="10.00">scape.h</text>
</a>
</g>
</g>
<!-- Node23&#45;&gt;Node25 -->
<g id="edge37" class="edge"><title>Node23&#45;&gt;Node25</title>
<path fill="none" stroke="midnightblue" d="M181.046,-392.083C176.896,-384.613 170.847,-373.724 165.733,-364.52"/>
<polygon fill="midnightblue" stroke="midnightblue" points="168.778,-362.793 160.862,-355.751 162.659,-366.192 168.778,-362.793"/>
</g>
<!-- Node24&#45;&gt;Node12 -->
<g id="edge35" class="edge"><title>Node24&#45;&gt;Node12</title>
<path fill="none" stroke="midnightblue" d="M149.801,-168.681C174.462,-159.683 214.003,-145.256 242.044,-135.025"/>
<polygon fill="midnightblue" stroke="midnightblue" points="243.245,-138.312 251.439,-131.597 240.845,-131.736 243.245,-138.312"/>
</g>
<!-- Node25&#45;&gt;Node3 -->
<g id="edge38" class="edge"><title>Node25&#45;&gt;Node3</title>
<path fill="none" stroke="midnightblue" d="M162.275,-336.083C167.642,-328.455 175.518,-317.264 182.079,-307.941"/>
<polygon fill="midnightblue" stroke="midnightblue" points="184.949,-309.943 187.842,-299.751 179.225,-305.915 184.949,-309.943"/>
</g>
<!-- Node27 -->
<g id="node27" class="node"><title>Node27</title>
<g id="a_node27"><a xlink:href="ceptr_8h_source.html" target="_top" xlink:title="../src/ceptr.h">
<polygon fill="white" stroke="black" points="402,-336.5 402,-355.5 474,-355.5 474,-336.5 402,-336.5"/>
<text text-anchor="middle" x="438" y="-343.5" font-family="Helvetica,sans-Serif" font-size="10.00">../src/ceptr.h</text>
</a>
</g>
</g>
<!-- Node26&#45;&gt;Node27 -->
<g id="edge40" class="edge"><title>Node26&#45;&gt;Node27</title>
<path fill="none" stroke="midnightblue" d="M427.147,-392.083C428.869,-384.927 431.347,-374.635 433.5,-365.691"/>
<polygon fill="midnightblue" stroke="midnightblue" points="436.955,-366.293 435.893,-355.751 430.15,-364.654 436.955,-366.293"/>
</g>
<!-- Node27&#45;&gt;Node3 -->
<g id="edge45" class="edge"><title>Node27&#45;&gt;Node3</title>
<path fill="none" stroke="midnightblue" d="M401.655,-337.63C359.885,-329.054 289.325,-314.245 229,-300 227.55,-299.658 226.067,-299.301 224.571,-298.936"/>
<polygon fill="midnightblue" stroke="midnightblue" points="225.245,-295.497 214.695,-296.466 223.546,-302.288 225.245,-295.497"/>
</g>
<!-- Node27&#45;&gt;Node4 -->
<g id="edge41" class="edge"><title>Node27&#45;&gt;Node4</title>
<path fill="none" stroke="midnightblue" d="M474.115,-345.406C595.615,-345.815 982,-338.944 982,-235 982,-235 982,-235 982,-121 982,-61.497 530.821,-23.2744 400.722,-13.4897"/>
<polygon fill="midnightblue" stroke="midnightblue" points="400.76,-9.98296 390.528,-12.7321 400.241,-16.9637 400.76,-9.98296"/>
</g>
<!-- Node27&#45;&gt;Node5 -->
<g id="edge43" class="edge"><title>Node27&#45;&gt;Node5</title>
<path fill="none" stroke="midnightblue" d="M409.956,-336.471C334.744,-312.974 131.754,-245.245 95,-188 62.9908,-138.146 86.9366,-63.3812 100.86,-29.2119"/>
<polygon fill="midnightblue" stroke="midnightblue" points="104.244,-30.199 104.945,-19.6274 97.8047,-27.4544 104.244,-30.199"/>
</g>
<!-- Node27&#45;&gt;Node6 -->
<g id="edge44" class="edge"><title>Node27&#45;&gt;Node6</title>
<path fill="none" stroke="midnightblue" d="M446.28,-336.075C471.045,-309.38 544.812,-229.865 576.858,-195.322"/>
<polygon fill="midnightblue" stroke="midnightblue" points="579.816,-197.28 584.051,-187.568 574.684,-192.519 579.816,-197.28"/>
</g>
<!-- Node27&#45;&gt;Node7 -->
<g id="edge42" class="edge"><title>Node27&#45;&gt;Node7</title>
<path fill="none" stroke="midnightblue" d="M455.6,-336.328C503.682,-311.671 637.995,-236.153 703,-132 711.749,-117.982 715.715,-99.4837 717.512,-85.8066"/>
<polygon fill="midnightblue" stroke="midnightblue" points="721.015,-85.9646 718.569,-75.6559 714.053,-85.2396 721.015,-85.9646"/>
</g>
<!-- Node27&#45;&gt;Node18 -->
<g id="edge52" class="edge"><title>Node27&#45;&gt;Node18</title>
<path fill="none" stroke="midnightblue" d="M437.608,-336.368C436.801,-318.617 434.939,-277.666 433.845,-253.597"/>
<polygon fill="midnightblue" stroke="midnightblue" points="437.341,-253.422 433.391,-243.591 430.348,-253.74 437.341,-253.422"/>
</g>
<!-- Node28 -->
<g id="node28" class="node"><title>Node28</title>
<g id="a_node28"><a xlink:href="mtree_8h.html" target="_top" xlink:title="semantic tree matrix header file `` ">
<polygon fill="white" stroke="black" points="335,-224.5 335,-243.5 385,-243.5 385,-224.5 335,-224.5"/>
<text text-anchor="middle" x="360" y="-231.5" font-family="Helvetica,sans-Serif" font-size="10.00">mtree.h</text>
</a>
</g>
</g>
<!-- Node27&#45;&gt;Node28 -->
<g id="edge46" class="edge"><title>Node27&#45;&gt;Node28</title>
<path fill="none" stroke="midnightblue" d="M431.879,-336.368C419.007,-318.215 388.932,-275.802 372.048,-251.99"/>
<polygon fill="midnightblue" stroke="midnightblue" points="374.731,-249.724 366.092,-243.591 369.021,-253.773 374.731,-249.724"/>
</g>
<!-- Node27&#45;&gt;Node29 -->
<g id="edge53" class="edge"><title>Node27&#45;&gt;Node29</title>
<path fill="none" stroke="midnightblue" d="M474.187,-341.299C552.724,-333.132 736.663,-313.243 798,-300 798.1,-299.978 798.2,-299.957 798.3,-299.935"/>
<polygon fill="midnightblue" stroke="midnightblue" points="798.977,-303.375 807.783,-297.484 797.225,-296.598 798.977,-303.375"/>
</g>
<!-- Node27&#45;&gt;Node32 -->
<g id="edge58" class="edge"><title>Node27&#45;&gt;Node32</title>
<path fill="none" stroke="midnightblue" d="M474.071,-338.667C479.409,-337.756 484.846,-336.842 490,-336 593.846,-319.027 620.611,-319.56 724,-300 725.443,-299.727 726.912,-299.44 728.395,-299.142"/>
<polygon fill="midnightblue" stroke="midnightblue" points="729.169,-302.556 738.233,-297.071 727.727,-295.706 729.169,-302.556"/>
</g>
<!-- Node28&#45;&gt;Node4 -->
<g id="edge47" class="edge"><title>Node28&#45;&gt;Node4</title>
<path fill="none" stroke="midnightblue" d="M360.235,-224.297C361.118,-191.633 364.247,-75.8661 365.488,-29.9573"/>
<polygon fill="midnightblue" stroke="midnightblue" points="368.988,-29.9747 365.76,-19.8837 361.991,-29.7855 368.988,-29.9747"/>
</g>
<!-- Node28&#45;&gt;Node5 -->
<g id="edge48" class="edge"><title>Node28&#45;&gt;Node5</title>
<path fill="none" stroke="midnightblue" d="M349.845,-224.328C334.846,-211.617 305.761,-187.338 280,-168 257.52,-151.125 249.506,-150.101 228,-132 187.268,-97.7168 144.749,-51.547 123.259,-27.3509"/>
<polygon fill="midnightblue" stroke="midnightblue" points="125.811,-24.9521 116.573,-19.7644 120.559,-29.5806 125.811,-24.9521"/>
</g>
<!-- Node28&#45;&gt;Node6 -->
<g id="edge49" class="edge"><title>Node28&#45;&gt;Node6</title>
<path fill="none" stroke="midnightblue" d="M385.162,-226.644C388.796,-225.745 392.492,-224.841 396,-224 447.377,-211.681 506.501,-198.202 546.261,-189.239"/>
<polygon fill="midnightblue" stroke="midnightblue" points="547.199,-192.616 556.186,-187.005 545.661,-185.786 547.199,-192.616"/>
</g>
<!-- Node28&#45;&gt;Node11 -->
<g id="edge50" class="edge"><title>Node28&#45;&gt;Node11</title>
<path fill="none" stroke="midnightblue" d="M340.827,-224.444C321.091,-215.636 290.115,-201.812 267.507,-191.722"/>
<polygon fill="midnightblue" stroke="midnightblue" points="268.641,-188.396 258.083,-187.516 265.789,-194.788 268.641,-188.396"/>
</g>
<!-- Node28&#45;&gt;Node12 -->
<g id="edge51" class="edge"><title>Node28&#45;&gt;Node12</title>
<path fill="none" stroke="midnightblue" d="M354.304,-224.393C345.859,-211.762 329.355,-187.582 314,-168 306.345,-158.237 297.297,-147.74 289.844,-139.341"/>
<polygon fill="midnightblue" stroke="midnightblue" points="292.316,-136.855 283.034,-131.747 287.105,-141.528 292.316,-136.855"/>
</g>
<!-- Node29&#45;&gt;Node7 -->
<g id="edge55" class="edge"><title>Node29&#45;&gt;Node7</title>
<path fill="none" stroke="midnightblue" d="M825.765,-280.202C821.637,-253.131 806.416,-169.444 769,-112 761.331,-100.227 749.827,-89.5802 739.786,-81.6019"/>
<polygon fill="midnightblue" stroke="midnightblue" points="741.897,-78.8101 731.813,-75.5616 737.67,-84.3899 741.897,-78.8101"/>
</g>
<!-- Node29&#45;&gt;Node13 -->
<g id="edge57" class="edge"><title>Node29&#45;&gt;Node13</title>
<path fill="none" stroke="midnightblue" d="M807.763,-282.865C752.615,-265.152 594.861,-213.566 547,-188 509.992,-168.231 497.515,-164.517 471,-132 459.72,-118.167 451.655,-99.3992 446.747,-85.586"/>
<polygon fill="midnightblue" stroke="midnightblue" points="449.958,-84.1486 443.488,-75.7593 443.314,-86.3527 449.958,-84.1486"/>
</g>
<!-- Node30 -->
<g id="node30" class="node"><title>Node30</title>
<polygon fill="white" stroke="#bfbfbf" points="904.5,-224.5 904.5,-243.5 953.5,-243.5 953.5,-224.5 904.5,-224.5"/>
<text text-anchor="middle" x="929" y="-231.5" font-family="Helvetica,sans-Serif" font-size="10.00">ctype.h</text>
</g>
<!-- Node29&#45;&gt;Node30 -->
<g id="edge54" class="edge"><title>Node29&#45;&gt;Node30</title>
<path fill="none" stroke="midnightblue" d="M843.388,-280.324C859.671,-271.703 884.867,-258.364 903.716,-248.386"/>
<polygon fill="midnightblue" stroke="midnightblue" points="905.452,-251.427 912.653,-243.655 902.177,-245.24 905.452,-251.427"/>
</g>
<!-- Node31 -->
<g id="node31" class="node"><title>Node31</title>
<polygon fill="white" stroke="#bfbfbf" points="842,-224.5 842,-243.5 886,-243.5 886,-224.5 842,-224.5"/>
<text text-anchor="middle" x="864" y="-231.5" font-family="Helvetica,sans-Serif" font-size="10.00">time.h</text>
</g>
<!-- Node29&#45;&gt;Node31 -->
<g id="edge56" class="edge"><title>Node29&#45;&gt;Node31</title>
<path fill="none" stroke="midnightblue" d="M833.11,-280.083C838.282,-272.534 845.846,-261.495 852.194,-252.23"/>
<polygon fill="midnightblue" stroke="midnightblue" points="855.239,-253.979 858.004,-243.751 849.464,-250.022 855.239,-253.979"/>
</g>
<!-- Node32&#45;&gt;Node7 -->
<g id="edge59" class="edge"><title>Node32&#45;&gt;Node7</title>
<path fill="none" stroke="midnightblue" d="M765.085,-280.174C767.991,-253.703 774.298,-173.042 752,-112 748.192,-101.575 741.183,-91.4685 734.602,-83.4834"/>
<polygon fill="midnightblue" stroke="midnightblue" points="737.027,-80.9411 727.799,-75.7366 731.767,-85.5601 737.027,-80.9411"/>
</g>
</g>
</svg>
        <g id="navigator" transform="translate(0 0)" fill="#404254">
                <rect fill="#f2f5e9" fill-opacity="0.5" stroke="#606060" stroke-width=".5" x="0" y="0" width="60" height="60"/>
                <use id="zoomplus" xlink:href="#zoomPlus" x="17" y="9" onmousedown="handleZoom(evt,'in')"/>
                <use id="zoomminus" xlink:href="#zoomMin" x="42" y="9" onmousedown="handleZoom(evt,'out')"/>
                <use id="reset" xlink:href="#resetDef" x="30" y="36" onmousedown="handleReset()"/>
                <g id="arrowUp" xlink:href="#dirArrow" transform="translate(30 24)" onmousedown="handlePan(0,-1)">
                  <use xlink:href="#rim" fill="#404040">
                        <set attributeName="fill" to="#808080" begin="arrowUp.mouseover" end="arrowUp.mouseout"/>
                  </use>
                  <path fill="none" stroke="white" stroke-width="1.5" d="M0,-3.0v7 M-2.5,-0.5L0,-3.0L2.5,-0.5"/>
                </g>
                <g id="arrowRight" xlink:href="#dirArrow" transform="rotate(90) translate(36 -43)" onmousedown="handlePan(1,0)">
                  <use xlink:href="#rim" fill="#404040">
                        <set attributeName="fill" to="#808080" begin="arrowRight.mouseover" end="arrowRight.mouseout"/>
                  </use>
                  <path fill="none" stroke="white" stroke-width="1.5" d="M0,-3.0v7 M-2.5,-0.5L0,-3.0L2.5,-0.5"/>
                </g>
                <g id="arrowDown" xlink:href="#dirArrow" transform="rotate(180) translate(-30 -48)" onmousedown="handlePan(0,1)">
                  <use xlink:href="#rim" fill="#404040">
                        <set attributeName="fill" to="#808080" begin="arrowDown.mouseover" end="arrowDown.mouseout"/>
                  </use>
                  <path fill="none" stroke="white" stroke-width="1.5" d="M0,-3.0v7 M-2.5,-0.5L0,-3.0L2.5,-0.5"/>
                </g>
                <g id="arrowLeft" xlink:href="#dirArrow" transform="rotate(270) translate(-36 17)" onmousedown="handlePan(-1,0)">
                  <use xlink:href="#rim" fill="#404040">
                        <set attributeName="fill" to="#808080" begin="arrowLeft.mouseover" end="arrowLeft.mouseout"/>
                  </use>
                  <path fill="none" stroke="white" stroke-width="1.5" d="M0,-3.0v7 M-2.5,-0.5L0,-3.0L2.5,-0.5"/>
                </g>
        </g>
        <svg viewBox="0 0 15 15" width="100%" height="30px" preserveAspectRatio="xMaxYMin meet">
         <g id="arrow_out" transform="scale(0.3 0.3)">
          <a xlink:href="process_8c__incl_org.svg" target="_base">
           <rect id="button" ry="5" rx="5" y="6" x="6" height="38" width="38"
                fill="#f2f5e9" fill-opacity="0.5" stroke="#606060" stroke-width="1.0"/>
           <path id="arrow"
             d="M 11.500037,31.436501 C 11.940474,20.09759 22.043105,11.32322 32.158766,21.979434 L 37.068811,17.246167 C 37.068811,17.246167 37.088388,32 37.088388,32 L 22.160133,31.978069 C 22.160133,31.978069 26.997745,27.140456 26.997745,27.140456 C 18.528582,18.264221 13.291696,25.230495 11.500037,31.436501 z"
             style="fill:#404040;"/>
          </a>
         </g>
        </svg>
</svg>
