<?xml version="1.0" encoding="UTF-8" standalone="no"?>
<!DOCTYPE svg PUBLIC "-//W3C//DTD SVG 1.1//EN"
 "http://www.w3.org/Graphics/SVG/1.1/DTD/svg11.dtd">
<!-- Generated by graphviz version 2.38.0 (20140413.2041)
 -->
<!-- Title: spec/process_spec.h Pages: 1 -->
<svg width="839pt" height="420pt"
 viewBox="0.00 0.00 838.87 420.00" xmlns="http://www.w3.org/2000/svg" xmlns:xlink="http://www.w3.org/1999/xlink">
<g id="graph0" class="graph" transform="scale(1 1) rotate(0) translate(4 416)">
<title>spec/process_spec.h</title>
<polygon fill="white" stroke="none" points="-4,4 -4,-416 834.871,-416 834.871,4 -4,4"/>
<!-- Node1 -->
<g id="node1" class="node"><title>Node1</title>
<polygon fill="#bfbfbf" stroke="black" points="388,-392.5 388,-411.5 498,-411.5 498,-392.5 388,-392.5"/>
<text text-anchor="middle" x="443" y="-399.5" font-family="Helvetica,sans-Serif" font-size="10.00">spec/process_spec.h</text>
</g>
<!-- Node2 -->
<g id="node2" class="node"><title>Node2</title>
<g id="a_node2"><a xlink:href="ceptr_8h_source.html" target="_top" xlink:title="../src/ceptr.h">
<polygon fill="white" stroke="black" points="484,-336.5 484,-355.5 556,-355.5 556,-336.5 484,-336.5"/>
<text text-anchor="middle" x="520" y="-343.5" font-family="Helvetica,sans-Serif" font-size="10.00">../src/ceptr.h</text>
</a>
</g>
</g>
<!-- Node1&#45;&gt;Node2 -->
<g id="edge1" class="edge"><title>Node1&#45;&gt;Node2</title>
<path fill="none" stroke="midnightblue" d="M455.371,-392.324C467.158,-384.058 485.132,-371.453 499.136,-361.632"/>
<polygon fill="midnightblue" stroke="midnightblue" points="501.482,-364.262 507.659,-355.655 497.462,-358.531 501.482,-364.262"/>
</g>
<!-- Node26 -->
<g id="node26" class="node"><title>Node26</title>
<g id="a_node26"><a xlink:href="process_8h.html" target="_top" xlink:title="processing header files ">
<polygon fill="white" stroke="black" points="323.5,-336.5 323.5,-355.5 408.5,-355.5 408.5,-336.5 323.5,-336.5"/>
<text text-anchor="middle" x="366" y="-343.5" font-family="Helvetica,sans-Serif" font-size="10.00">../src/process.h</text>
</a>
</g>
</g>
<!-- Node1&#45;&gt;Node26 -->
<g id="edge44" class="edge"><title>Node1&#45;&gt;Node26</title>
<path fill="none" stroke="midnightblue" d="M430.629,-392.324C418.842,-384.058 400.868,-371.453 386.864,-361.632"/>
<polygon fill="midnightblue" stroke="midnightblue" points="388.538,-358.531 378.341,-355.655 384.518,-364.262 388.538,-358.531"/>
</g>
<!-- Node3 -->
<g id="node3" class="node"><title>Node3</title>
<polygon fill="white" stroke="#bfbfbf" points="6.5,-0.5 6.5,-19.5 55.5,-19.5 55.5,-0.5 6.5,-0.5"/>
<text text-anchor="middle" x="31" y="-7.5" font-family="Helvetica,sans-Serif" font-size="10.00">string.h</text>
</g>
<!-- Node2&#45;&gt;Node3 -->
<g id="edge2" class="edge"><title>Node2&#45;&gt;Node3</title>
<path fill="none" stroke="midnightblue" d="M483.847,-341.211C365.923,-328.372 0,-284.54 0,-235 0,-235 0,-235 0,-121 0,-87.4096 13.5575,-50.1397 22.7409,-28.7473"/>
<polygon fill="midnightblue" stroke="midnightblue" points="25.9409,-30.1651 26.8192,-19.6067 19.5483,-27.3128 25.9409,-30.1651"/>
</g>
<!-- Node4 -->
<g id="node4" class="node"><title>Node4</title>
<polygon fill="white" stroke="#bfbfbf" points="626,-56.5 626,-75.5 672,-75.5 672,-56.5 626,-56.5"/>
<text text-anchor="middle" x="649" y="-63.5" font-family="Helvetica,sans-Serif" font-size="10.00">stdio.h</text>
</g>
<!-- Node2&#45;&gt;Node4 -->
<g id="edge3" class="edge"><title>Node2&#45;&gt;Node4</title>
<path fill="none" stroke="midnightblue" d="M528.43,-336.23C553.967,-308.887 629.9,-221.64 649,-132 652.274,-116.634 651.987,-98.7579 651.044,-85.6456"/>
<polygon fill="midnightblue" stroke="midnightblue" points="654.515,-85.1718 650.119,-75.532 647.544,-85.8092 654.515,-85.1718"/>
</g>
<!-- Node5 -->
<g id="node5" class="node"><title>Node5</title>
<polygon fill="white" stroke="#bfbfbf" points="285,-0.5 285,-19.5 333,-19.5 333,-0.5 285,-0.5"/>
<text text-anchor="middle" x="309" y="-7.5" font-family="Helvetica,sans-Serif" font-size="10.00">stdlib.h</text>
</g>
<!-- Node2&#45;&gt;Node5 -->
<g id="edge4" class="edge"><title>Node2&#45;&gt;Node5</title>
<path fill="none" stroke="midnightblue" d="M556.229,-342.187C619.202,-336.75 745.696,-323.237 783,-300 813.259,-281.151 830,-270.65 830,-235 830,-235 830,-235 830,-121 830,-90.7745 833.485,-75.0276 810,-56 773.838,-26.7008 450.49,-14.9935 343.328,-11.8967"/>
<polygon fill="midnightblue" stroke="midnightblue" points="343.167,-8.39086 333.073,-11.6077 342.97,-15.3881 343.167,-8.39086"/>
</g>
<!-- Node6 -->
<g id="node6" class="node"><title>Node6</title>
<g id="a_node6"><a xlink:href="ceptr__error_8h_source.html" target="_top" xlink:title="ceptr_error.h">
<polygon fill="white" stroke="black" points="449.5,-168.5 449.5,-187.5 520.5,-187.5 520.5,-168.5 449.5,-168.5"/>
<text text-anchor="middle" x="485" y="-175.5" font-family="Helvetica,sans-Serif" font-size="10.00">ceptr_error.h</text>
</a>
</g>
</g>
<!-- Node2&#45;&gt;Node6 -->
<g id="edge5" class="edge"><title>Node2&#45;&gt;Node6</title>
<path fill="none" stroke="midnightblue" d="M518.118,-336.075C512.609,-309.945 496.43,-233.211 488.917,-197.577"/>
<polygon fill="midnightblue" stroke="midnightblue" points="492.294,-196.631 486.807,-187.568 485.445,-198.075 492.294,-196.631"/>
</g>
<!-- Node10 -->
<g id="node10" class="node"><title>Node10</title>
<g id="a_node10"><a xlink:href="tree_8h.html" target="_top" xlink:title="semantic trees header file ">
<polygon fill="white" stroke="black" points="285.5,-280.5 285.5,-299.5 326.5,-299.5 326.5,-280.5 285.5,-280.5"/>
<text text-anchor="middle" x="306" y="-287.5" font-family="Helvetica,sans-Serif" font-size="10.00">tree.h</text>
</a>
</g>
</g>
<!-- Node2&#45;&gt;Node10 -->
<g id="edge10" class="edge"><title>Node2&#45;&gt;Node10</title>
<path fill="none" stroke="midnightblue" d="M486.091,-336.444C444.871,-326.042 375.931,-308.646 336.376,-298.665"/>
<polygon fill="midnightblue" stroke="midnightblue" points="337.069,-295.23 326.517,-296.177 335.357,-302.018 337.069,-295.23"/>
</g>
<!-- Node19 -->
<g id="node19" class="node"><title>Node19</title>
<g id="a_node19"><a xlink:href="stream_8h.html" target="_top" xlink:title="streams abstraction header file ">
<polygon fill="white" stroke="black" points="526.5,-224.5 526.5,-243.5 581.5,-243.5 581.5,-224.5 526.5,-224.5"/>
<text text-anchor="middle" x="554" y="-231.5" font-family="Helvetica,sans-Serif" font-size="10.00">stream.h</text>
</a>
</g>
</g>
<!-- Node2&#45;&gt;Node19 -->
<g id="edge36" class="edge"><title>Node2&#45;&gt;Node19</title>
<path fill="none" stroke="midnightblue" d="M522.668,-336.368C528.18,-318.537 540.927,-277.295 548.352,-253.272"/>
<polygon fill="midnightblue" stroke="midnightblue" points="551.735,-254.179 551.344,-243.591 545.047,-252.112 551.735,-254.179"/>
</g>
<!-- Node21 -->
<g id="node21" class="node"><title>Node21</title>
<g id="a_node21"><a xlink:href="mtree_8h.html" target="_top" xlink:title="semantic tree matrix header file `` ">
<polygon fill="white" stroke="black" points="359,-224.5 359,-243.5 409,-243.5 409,-224.5 359,-224.5"/>
<text text-anchor="middle" x="384" y="-231.5" font-family="Helvetica,sans-Serif" font-size="10.00">mtree.h</text>
</a>
</g>
</g>
<!-- Node2&#45;&gt;Node21 -->
<g id="edge30" class="edge"><title>Node2&#45;&gt;Node21</title>
<path fill="none" stroke="midnightblue" d="M509.328,-336.368C486.289,-317.733 431.64,-273.532 402.711,-250.134"/>
<polygon fill="midnightblue" stroke="midnightblue" points="404.598,-247.159 394.622,-243.591 400.196,-252.601 404.598,-247.159"/>
</g>
<!-- Node22 -->
<g id="node22" class="node"><title>Node22</title>
<g id="a_node22"><a xlink:href="util_8h.html" target="_top" xlink:title="util.h">
<polygon fill="white" stroke="black" points="756,-112.5 756,-131.5 794,-131.5 794,-112.5 756,-112.5"/>
<text text-anchor="middle" x="775" y="-119.5" font-family="Helvetica,sans-Serif" font-size="10.00">util.h</text>
</a>
</g>
</g>
<!-- Node2&#45;&gt;Node22 -->
<g id="edge37" class="edge"><title>Node2&#45;&gt;Node22</title>
<path fill="none" stroke="midnightblue" d="M556.482,-343.497C617.255,-340.169 735.208,-329.93 762,-300 801.683,-255.669 788.897,-177.508 780.218,-141.776"/>
<polygon fill="midnightblue" stroke="midnightblue" points="783.519,-140.561 777.616,-131.762 776.744,-142.321 783.519,-140.561"/>
</g>
<!-- Node25 -->
<g id="node25" class="node"><title>Node25</title>
<g id="a_node25"><a xlink:href="debug_8h.html" target="_top" xlink:title="debug.h">
<polygon fill="white" stroke="black" points="702.5,-280.5 702.5,-299.5 753.5,-299.5 753.5,-280.5 702.5,-280.5"/>
<text text-anchor="middle" x="728" y="-287.5" font-family="Helvetica,sans-Serif" font-size="10.00">debug.h</text>
</a>
</g>
</g>
<!-- Node2&#45;&gt;Node25 -->
<g id="edge42" class="edge"><title>Node2&#45;&gt;Node25</title>
<path fill="none" stroke="midnightblue" d="M552.958,-336.444C591.024,-326.561 653.413,-310.364 692.517,-300.212"/>
<polygon fill="midnightblue" stroke="midnightblue" points="693.609,-303.544 702.409,-297.644 691.85,-296.769 693.609,-303.544"/>
</g>
<!-- Node6&#45;&gt;Node4 -->
<g id="edge6" class="edge"><title>Node6&#45;&gt;Node4</title>
<path fill="none" stroke="midnightblue" d="M516.958,-168.487C540.115,-161.281 571.376,-149.331 595,-132 612.854,-118.901 628.427,-98.6528 638.201,-84.239"/>
<polygon fill="midnightblue" stroke="midnightblue" points="641.213,-86.0291 643.753,-75.7434 635.353,-82.1998 641.213,-86.0291"/>
</g>
<!-- Node7 -->
<g id="node7" class="node"><title>Node7</title>
<polygon fill="white" stroke="#bfbfbf" points="536,-112.5 536,-131.5 586,-131.5 586,-112.5 536,-112.5"/>
<text text-anchor="middle" x="561" y="-119.5" font-family="Helvetica,sans-Serif" font-size="10.00">signal.h</text>
</g>
<!-- Node6&#45;&gt;Node7 -->
<g id="edge7" class="edge"><title>Node6&#45;&gt;Node7</title>
<path fill="none" stroke="midnightblue" d="M497.211,-168.324C508.776,-160.107 526.375,-147.602 540.161,-137.807"/>
<polygon fill="midnightblue" stroke="midnightblue" points="542.443,-140.479 548.567,-131.834 538.388,-134.773 542.443,-140.479"/>
</g>
<!-- Node8 -->
<g id="node8" class="node"><title>Node8</title>
<polygon fill="white" stroke="#bfbfbf" points="394,-112.5 394,-131.5 446,-131.5 446,-112.5 394,-112.5"/>
<text text-anchor="middle" x="420" y="-119.5" font-family="Helvetica,sans-Serif" font-size="10.00">assert.h</text>
</g>
<!-- Node6&#45;&gt;Node8 -->
<g id="edge8" class="edge"><title>Node6&#45;&gt;Node8</title>
<path fill="none" stroke="midnightblue" d="M474.557,-168.324C464.854,-160.263 450.185,-148.077 438.5,-138.369"/>
<polygon fill="midnightblue" stroke="midnightblue" points="440.562,-135.532 430.633,-131.834 436.089,-140.916 440.562,-135.532"/>
</g>
<!-- Node9 -->
<g id="node9" class="node"><title>Node9</title>
<polygon fill="white" stroke="#bfbfbf" points="464,-112.5 464,-131.5 518,-131.5 518,-112.5 464,-112.5"/>
<text text-anchor="middle" x="491" y="-119.5" font-family="Helvetica,sans-Serif" font-size="10.00">setjmp.h</text>
</g>
<!-- Node6&#45;&gt;Node9 -->
<g id="edge9" class="edge"><title>Node6&#45;&gt;Node9</title>
<path fill="none" stroke="midnightblue" d="M485.991,-168.083C486.786,-160.927 487.929,-150.635 488.923,-141.691"/>
<polygon fill="midnightblue" stroke="midnightblue" points="492.402,-142.076 490.028,-131.751 485.445,-141.303 492.402,-142.076"/>
</g>
<!-- Node10&#45;&gt;Node3 -->
<g id="edge11" class="edge"><title>Node10&#45;&gt;Node3</title>
<path fill="none" stroke="midnightblue" d="M285.415,-289.809C222.66,-291.114 38,-285.876 38,-179 38,-179 38,-179 38,-121 38,-88.8832 34.9912,-51.5979 32.9189,-29.7258"/>
<polygon fill="midnightblue" stroke="midnightblue" points="36.3796,-29.1543 31.9151,-19.546 29.4133,-29.8412 36.3796,-29.1543"/>
</g>
<!-- Node10&#45;&gt;Node5 -->
<g id="edge12" class="edge"><title>Node10&#45;&gt;Node5</title>
<path fill="none" stroke="midnightblue" d="M285.344,-284.81C242.516,-274.79 148,-245.179 148,-179 148,-179 148,-179 148,-121 148,-90.9022 145.958,-77.5205 167,-56 195.426,-26.927 242.498,-16.5913 274.59,-12.9436"/>
<polygon fill="midnightblue" stroke="midnightblue" points="275.236,-16.3973 284.85,-11.9456 274.559,-9.43023 275.236,-16.3973"/>
</g>
<!-- Node10&#45;&gt;Node6 -->
<g id="edge13" class="edge"><title>Node10&#45;&gt;Node6</title>
<path fill="none" stroke="midnightblue" d="M326.558,-283.378C349.934,-276.406 388.654,-263.065 418,-244 438.903,-230.42 458.875,-209.693 471.488,-195.311"/>
<polygon fill="midnightblue" stroke="midnightblue" points="474.177,-197.552 478.016,-187.677 468.856,-193.003 474.177,-197.552"/>
</g>
<!-- Node11 -->
<g id="node11" class="node"><title>Node11</title>
<g id="a_node11"><a xlink:href="sys__defs_8h.html" target="_top" xlink:title="Defines types and vars for system defined semantics. ">
<polygon fill="white" stroke="black" points="214.5,-168.5 214.5,-187.5 279.5,-187.5 279.5,-168.5 214.5,-168.5"/>
<text text-anchor="middle" x="247" y="-175.5" font-family="Helvetica,sans-Serif" font-size="10.00">sys_defs.h</text>
</a>
</g>
</g>
<!-- Node10&#45;&gt;Node11 -->
<g id="edge14" class="edge"><title>Node10&#45;&gt;Node11</title>
<path fill="none" stroke="midnightblue" d="M294.456,-280.292C284.357,-272.049 270.074,-258.763 262,-244 254.098,-229.552 250.347,-211.102 248.573,-197.552"/>
<polygon fill="midnightblue" stroke="midnightblue" points="252.043,-197.089 247.5,-187.518 245.083,-197.834 252.043,-197.089"/>
</g>
<!-- Node12 -->
<g id="node12" class="node"><title>Node12</title>
<g id="a_node12"><a xlink:href="ceptr__types_8h_source.html" target="_top" xlink:title="ceptr_types.h">
<polygon fill="white" stroke="black" points="209,-112.5 209,-131.5 285,-131.5 285,-112.5 209,-112.5"/>
<text text-anchor="middle" x="247" y="-119.5" font-family="Helvetica,sans-Serif" font-size="10.00">ceptr_types.h</text>
</a>
</g>
</g>
<!-- Node10&#45;&gt;Node12 -->
<g id="edge26" class="edge"><title>Node10&#45;&gt;Node12</title>
<path fill="none" stroke="midnightblue" d="M291.35,-280.458C267.319,-265.426 220.632,-231.658 205,-188 202.004,-179.631 201.74,-176.27 205,-168 209.514,-156.548 218.469,-146.291 226.955,-138.472"/>
<polygon fill="midnightblue" stroke="midnightblue" points="229.469,-140.927 234.786,-131.764 224.915,-135.611 229.469,-140.927"/>
</g>
<!-- Node18 -->
<g id="node18" class="node"><title>Node18</title>
<g id="a_node18"><a xlink:href="base__defs_8h.html" target="_top" xlink:title="auto&#45;generated system definitions ">
<polygon fill="white" stroke="black" points="271,-224.5 271,-243.5 341,-243.5 341,-224.5 271,-224.5"/>
<text text-anchor="middle" x="306" y="-231.5" font-family="Helvetica,sans-Serif" font-size="10.00">base_defs.h</text>
</a>
</g>
</g>
<!-- Node10&#45;&gt;Node18 -->
<g id="edge24" class="edge"><title>Node10&#45;&gt;Node18</title>
<path fill="none" stroke="midnightblue" d="M306,-280.083C306,-273.006 306,-262.861 306,-253.986"/>
<polygon fill="midnightblue" stroke="midnightblue" points="309.5,-253.751 306,-243.751 302.5,-253.751 309.5,-253.751"/>
</g>
<!-- Node10&#45;&gt;Node19 -->
<g id="edge27" class="edge"><title>Node10&#45;&gt;Node19</title>
<path fill="none" stroke="midnightblue" d="M326.718,-284.489C368.518,-275.387 463.47,-254.712 516.466,-243.173"/>
<polygon fill="midnightblue" stroke="midnightblue" points="517.451,-246.54 526.478,-240.993 515.962,-239.701 517.451,-246.54"/>
</g>
<!-- Node11&#45;&gt;Node12 -->
<g id="edge15" class="edge"><title>Node11&#45;&gt;Node12</title>
<path fill="none" stroke="midnightblue" d="M247,-168.083C247,-161.006 247,-150.861 247,-141.986"/>
<polygon fill="midnightblue" stroke="midnightblue" points="250.5,-141.751 247,-131.751 243.5,-141.751 250.5,-141.751"/>
</g>
<!-- Node12&#45;&gt;Node4 -->
<g id="edge17" class="edge"><title>Node12&#45;&gt;Node4</title>
<path fill="none" stroke="midnightblue" d="M285.182,-115.871C363.638,-105.332 541.815,-81.398 615.816,-71.4575"/>
<polygon fill="midnightblue" stroke="midnightblue" points="616.509,-74.8959 625.954,-70.0957 615.577,-67.9583 616.509,-74.8959"/>
</g>
<!-- Node13 -->
<g id="node13" class="node"><title>Node13</title>
<polygon fill="white" stroke="#bfbfbf" points="250.5,-56.5 250.5,-75.5 299.5,-75.5 299.5,-56.5 250.5,-56.5"/>
<text text-anchor="middle" x="275" y="-63.5" font-family="Helvetica,sans-Serif" font-size="10.00">stdint.h</text>
</g>
<!-- Node12&#45;&gt;Node13 -->
<g id="edge16" class="edge"><title>Node12&#45;&gt;Node13</title>
<path fill="none" stroke="midnightblue" d="M251.624,-112.083C255.456,-104.691 261.024,-93.9533 265.765,-84.8111"/>
<polygon fill="midnightblue" stroke="midnightblue" points="268.966,-86.2398 270.462,-75.7511 262.752,-83.0175 268.966,-86.2398"/>
</g>
<!-- Node14 -->
<g id="node14" class="node"><title>Node14</title>
<g id="a_node14"><a xlink:href="uthash_8h_source.html" target="_top" xlink:title="uthash.h">
<polygon fill="white" stroke="black" points="66,-56.5 66,-75.5 120,-75.5 120,-56.5 66,-56.5"/>
<text text-anchor="middle" x="93" y="-63.5" font-family="Helvetica,sans-Serif" font-size="10.00">uthash.h</text>
</a>
</g>
</g>
<!-- Node12&#45;&gt;Node14 -->
<g id="edge18" class="edge"><title>Node12&#45;&gt;Node14</title>
<path fill="none" stroke="midnightblue" d="M222.598,-112.444C196.803,-103.399 155.923,-89.064 126.982,-78.9158"/>
<polygon fill="midnightblue" stroke="midnightblue" points="127.882,-75.5226 117.288,-75.5164 125.566,-82.1283 127.882,-75.5226"/>
</g>
<!-- Node17 -->
<g id="node17" class="node"><title>Node17</title>
<polygon fill="white" stroke="#bfbfbf" points="176,-56.5 176,-75.5 232,-75.5 232,-56.5 176,-56.5"/>
<text text-anchor="middle" x="204" y="-63.5" font-family="Helvetica,sans-Serif" font-size="10.00">stdbool.h</text>
</g>
<!-- Node12&#45;&gt;Node17 -->
<g id="edge23" class="edge"><title>Node12&#45;&gt;Node17</title>
<path fill="none" stroke="midnightblue" d="M239.899,-112.083C233.763,-104.377 224.73,-93.0333 217.261,-83.6531"/>
<polygon fill="midnightblue" stroke="midnightblue" points="219.936,-81.3936 210.968,-75.7511 214.46,-85.7542 219.936,-81.3936"/>
</g>
<!-- Node14&#45;&gt;Node3 -->
<g id="edge19" class="edge"><title>Node14&#45;&gt;Node3</title>
<path fill="none" stroke="midnightblue" d="M83.0386,-56.324C73.8734,-48.3414 60.0628,-36.3128 48.9718,-26.6529"/>
<polygon fill="midnightblue" stroke="midnightblue" points="50.9822,-23.7624 41.1426,-19.8339 46.3847,-29.041 50.9822,-23.7624"/>
</g>
<!-- Node14&#45;&gt;Node5 -->
<g id="edge21" class="edge"><title>Node14&#45;&gt;Node5</title>
<path fill="none" stroke="midnightblue" d="M120.357,-58.1609C159.684,-48.329 232.158,-30.2105 274.917,-19.5208"/>
<polygon fill="midnightblue" stroke="midnightblue" points="276,-22.8578 284.852,-17.0369 274.302,-16.0668 276,-22.8578"/>
</g>
<!-- Node15 -->
<g id="node15" class="node"><title>Node15</title>
<polygon fill="white" stroke="#bfbfbf" points="74,-0.5 74,-19.5 126,-19.5 126,-0.5 74,-0.5"/>
<text text-anchor="middle" x="100" y="-7.5" font-family="Helvetica,sans-Serif" font-size="10.00">stddef.h</text>
</g>
<!-- Node14&#45;&gt;Node15 -->
<g id="edge20" class="edge"><title>Node14&#45;&gt;Node15</title>
<path fill="none" stroke="midnightblue" d="M94.1559,-56.083C95.0835,-48.9272 96.4176,-38.6353 97.5771,-29.6911"/>
<polygon fill="midnightblue" stroke="midnightblue" points="101.051,-30.1181 98.8656,-19.7511 94.109,-29.2181 101.051,-30.1181"/>
</g>
<!-- Node16 -->
<g id="node16" class="node"><title>Node16</title>
<polygon fill="white" stroke="#bfbfbf" points="144.5,-0.5 144.5,-19.5 203.5,-19.5 203.5,-0.5 144.5,-0.5"/>
<text text-anchor="middle" x="174" y="-7.5" font-family="Helvetica,sans-Serif" font-size="10.00">inttypes.h</text>
</g>
<!-- Node14&#45;&gt;Node16 -->
<g id="edge22" class="edge"><title>Node14&#45;&gt;Node16</title>
<path fill="none" stroke="midnightblue" d="M106.014,-56.324C118.532,-47.979 137.682,-35.2122 152.471,-25.3524"/>
<polygon fill="midnightblue" stroke="midnightblue" points="154.639,-28.1137 161.018,-19.6545 150.756,-22.2894 154.639,-28.1137"/>
</g>
<!-- Node18&#45;&gt;Node11 -->
<g id="edge25" class="edge"><title>Node18&#45;&gt;Node11</title>
<path fill="none" stroke="midnightblue" d="M296.521,-224.324C287.799,-216.341 274.657,-204.313 264.102,-194.653"/>
<polygon fill="midnightblue" stroke="midnightblue" points="266.392,-192.004 256.652,-187.834 261.666,-197.167 266.392,-192.004"/>
</g>
<!-- Node19&#45;&gt;Node4 -->
<g id="edge28" class="edge"><title>Node19&#45;&gt;Node4</title>
<path fill="none" stroke="midnightblue" d="M566.672,-224.345C577.849,-216.137 593.889,-202.874 604,-188 626.181,-155.37 639.135,-110.399 645.064,-85.4899"/>
<polygon fill="midnightblue" stroke="midnightblue" points="648.514,-86.0982 647.301,-75.5731 641.686,-84.5575 648.514,-86.0982"/>
</g>
<!-- Node20 -->
<g id="node20" class="node"><title>Node20</title>
<polygon fill="white" stroke="#bfbfbf" points="538.5,-168.5 538.5,-187.5 595.5,-187.5 595.5,-168.5 538.5,-168.5"/>
<text text-anchor="middle" x="567" y="-175.5" font-family="Helvetica,sans-Serif" font-size="10.00">pthread.h</text>
</g>
<!-- Node19&#45;&gt;Node20 -->
<g id="edge29" class="edge"><title>Node19&#45;&gt;Node20</title>
<path fill="none" stroke="midnightblue" d="M556.147,-224.083C557.869,-216.927 560.347,-206.635 562.5,-197.691"/>
<polygon fill="midnightblue" stroke="midnightblue" points="565.955,-198.293 564.893,-187.751 559.15,-196.654 565.955,-198.293"/>
</g>
<!-- Node21&#45;&gt;Node3 -->
<g id="edge31" class="edge"><title>Node21&#45;&gt;Node3</title>
<path fill="none" stroke="midnightblue" d="M381.514,-224.377C372.006,-191.991 337.015,-78.3403 308,-56 224.027,8.65546 174.874,-39.023 65.8447,-19.834"/>
<polygon fill="midnightblue" stroke="midnightblue" points="66.2869,-16.3551 55.8066,-17.9089 64.9684,-23.2298 66.2869,-16.3551"/>
</g>
<!-- Node21&#45;&gt;Node5 -->
<g id="edge32" class="edge"><title>Node21&#45;&gt;Node5</title>
<path fill="none" stroke="midnightblue" d="M383.193,-224.498C380.458,-198.278 370.086,-116.779 342,-56 337.285,-45.7956 330.064,-35.597 323.579,-27.4952"/>
<polygon fill="midnightblue" stroke="midnightblue" points="326.089,-25.0413 316.983,-19.6258 320.724,-29.538 326.089,-25.0413"/>
</g>
<!-- Node21&#45;&gt;Node6 -->
<g id="edge33" class="edge"><title>Node21&#45;&gt;Node6</title>
<path fill="none" stroke="midnightblue" d="M400.227,-224.324C416.351,-215.703 441.3,-202.364 459.964,-192.386"/>
<polygon fill="midnightblue" stroke="midnightblue" points="461.644,-195.456 468.813,-187.655 458.344,-189.283 461.644,-195.456"/>
</g>
<!-- Node21&#45;&gt;Node11 -->
<g id="edge34" class="edge"><title>Node21&#45;&gt;Node11</title>
<path fill="none" stroke="midnightblue" d="M362.292,-224.444C339.645,-215.517 303.928,-201.439 278.248,-191.317"/>
<polygon fill="midnightblue" stroke="midnightblue" points="279.193,-187.927 268.606,-187.516 276.626,-194.44 279.193,-187.927"/>
</g>
<!-- Node21&#45;&gt;Node12 -->
<g id="edge35" class="edge"><title>Node21&#45;&gt;Node12</title>
<path fill="none" stroke="midnightblue" d="M373.25,-224.368C350.041,-205.733 294.99,-161.532 265.849,-138.134"/>
<polygon fill="midnightblue" stroke="midnightblue" points="267.689,-135.123 257.7,-131.591 263.307,-140.581 267.689,-135.123"/>
</g>
<!-- Node22&#45;&gt;Node4 -->
<g id="edge39" class="edge"><title>Node22&#45;&gt;Node4</title>
<path fill="none" stroke="midnightblue" d="M755.863,-112.799C735.291,-103.982 702.33,-89.8557 678.45,-79.6213"/>
<polygon fill="midnightblue" stroke="midnightblue" points="679.723,-76.359 669.152,-75.6367 676.965,-82.793 679.723,-76.359"/>
</g>
<!-- Node22&#45;&gt;Node13 -->
<g id="edge41" class="edge"><title>Node22&#45;&gt;Node13</title>
<path fill="none" stroke="midnightblue" d="M755.706,-118.916C680.63,-110.808 407.345,-81.2932 309.851,-70.7639"/>
<polygon fill="midnightblue" stroke="midnightblue" points="309.965,-67.256 299.647,-69.6619 309.213,-74.2155 309.965,-67.256"/>
</g>
<!-- Node23 -->
<g id="node23" class="node"><title>Node23</title>
<polygon fill="white" stroke="#bfbfbf" points="752.5,-56.5 752.5,-75.5 801.5,-75.5 801.5,-56.5 752.5,-56.5"/>
<text text-anchor="middle" x="777" y="-63.5" font-family="Helvetica,sans-Serif" font-size="10.00">ctype.h</text>
</g>
<!-- Node22&#45;&gt;Node23 -->
<g id="edge38" class="edge"><title>Node22&#45;&gt;Node23</title>
<path fill="none" stroke="midnightblue" d="M775.33,-112.083C775.592,-105.006 775.968,-94.8611 776.297,-85.9865"/>
<polygon fill="midnightblue" stroke="midnightblue" points="779.803,-85.8738 776.676,-75.7511 772.808,-85.6147 779.803,-85.8738"/>
</g>
<!-- Node24 -->
<g id="node24" class="node"><title>Node24</title>
<polygon fill="white" stroke="#bfbfbf" points="690,-56.5 690,-75.5 734,-75.5 734,-56.5 690,-56.5"/>
<text text-anchor="middle" x="712" y="-63.5" font-family="Helvetica,sans-Serif" font-size="10.00">time.h</text>
</g>
<!-- Node22&#45;&gt;Node24 -->
<g id="edge40" class="edge"><title>Node22&#45;&gt;Node24</title>
<path fill="none" stroke="midnightblue" d="M764.878,-112.324C755.474,-104.263 741.256,-92.0765 729.931,-82.3695"/>
<polygon fill="midnightblue" stroke="midnightblue" points="732.177,-79.6844 722.306,-75.8339 727.621,-84.9993 732.177,-79.6844"/>
</g>
<!-- Node25&#45;&gt;Node4 -->
<g id="edge43" class="edge"><title>Node25&#45;&gt;Node4</title>
<path fill="none" stroke="midnightblue" d="M728.961,-280.196C731.49,-253.109 736.089,-169.379 704,-112 696.92,-99.3402 684.743,-88.8173 673.643,-81.1387"/>
<polygon fill="midnightblue" stroke="midnightblue" points="675.388,-78.0987 665.091,-75.6039 671.584,-83.9754 675.388,-78.0987"/>
</g>
<!-- Node26&#45;&gt;Node10 -->
<g id="edge45" class="edge"><title>Node26&#45;&gt;Node10</title>
<path fill="none" stroke="midnightblue" d="M356.36,-336.324C347.49,-328.341 334.125,-316.313 323.392,-306.653"/>
<polygon fill="midnightblue" stroke="midnightblue" points="325.59,-303.922 315.815,-299.834 320.907,-309.125 325.59,-303.922"/>
</g>
</g>
</svg>
