<?xml version="1.0" encoding="UTF-8" standalone="no"?>
<!DOCTYPE svg PUBLIC "-//W3C//DTD SVG 1.1//EN"
 "http://www.w3.org/Graphics/SVG/1.1/DTD/svg11.dtd">
<!-- Generated by graphviz version 2.38.0 (20140413.2041)
 -->
<!-- Title: src/process.c Pages: 1 -->
<!--zoomable 476 -->
<svg id="main" version="1.1" xmlns="http://www.w3.org/2000/svg" xmlns:xlink="http://www.w3.org/1999/xlink" xml:space="preserve" onload="init(evt)">
<style type="text/css"><![CDATA[
.edge:hover path { stroke: red; }
.edge:hover polygon { stroke: red; fill: red; }
]]></style>
<script type="text/javascript"><![CDATA[
var edges = document.getElementsByTagName('g');
if (edges && edges.length) {
  for (var i=0;i<edges.length;i++) {
    if (edges[i].id.substr(0,4)=='edge') {
      edges[i].setAttribute('class','edge');
    }
  }
}
]]></script>
        <defs>
                <circle id="rim" cx="0" cy="0" r="7"/>
                <circle id="rim2" cx="0" cy="0" r="3.5"/>
                <g id="zoomPlus">
                        <use xlink:href="#rim" fill="#404040">
                                <set attributeName="fill" to="#808080" begin="zoomplus.mouseover" end="zoomplus.mouseout"/>
                        </use>
                        <path d="M-4,0h8M0,-4v8" fill="none" stroke="white" stroke-width="1.5" pointer-events="none"/>
                </g>
                <g id="zoomMin">
                        <use xlink:href="#rim" fill="#404040">
                                <set attributeName="fill" to="#808080" begin="zoomminus.mouseover" end="zoomminus.mouseout"/>
                        </use>
                        <path d="M-4,0h8" fill="none" stroke="white" stroke-width="1.5" pointer-events="none"/>
                </g>
                <g id="dirArrow">
                        <path fill="none" stroke="white" stroke-width="1.5" d="M0,-3.0v7 M-2.5,-0.5L0,-3.0L2.5,-0.5"/>
                </g>
               <g id="resetDef">
                       <use xlink:href="#rim2" fill="#404040">
                               <set attributeName="fill" to="#808080" begin="reset.mouseover" end="reset.mouseout"/>
                       </use>
               </g>
        </defs>

<script type="text/javascript">
var viewWidth = 1097;
var viewHeight = 476;
var sectionId = 'dynsection-0';
</script>
<script xlink:href="svgpan.js"/>
<svg id="graph" class="graph">
<g id="viewport">
<title>src/process.c</title>
<polygon fill="white" stroke="none" points="-4,4 -4,-472 1092.5,-472 1092.5,4 -4,4"/>
<!-- Node1 -->
<g id="node1" class="node"><title>Node1</title>
<polygon fill="#bfbfbf" stroke="black" points="409,-448.5 409,-467.5 485,-467.5 485,-448.5 409,-448.5"/>
<text text-anchor="middle" x="447" y="-455.5" font-family="Helvetica,sans-Serif" font-size="10.00">src/process.c</text>
</g>
<!-- Node2 -->
<g id="node2" class="node"><title>Node2</title>
<g id="a_node2"><a xlink:href="process_8h.html" target="_top" xlink:title="processing header files ">
<polygon fill="white" stroke="black" points="359.5,-336.5 359.5,-355.5 418.5,-355.5 418.5,-336.5 359.5,-336.5"/>
<text text-anchor="middle" x="389" y="-343.5" font-family="Helvetica,sans-Serif" font-size="10.00">process.h</text>
</a>
</g>
</g>
<!-- Node1&#45;&gt;Node2 -->
<g id="edge1" class="edge"><title>Node1&#45;&gt;Node2</title>
<path fill="none" stroke="midnightblue" d="M437.331,-448.247C428.514,-439.772 415.721,-426.159 408,-412 400.085,-397.485 395.132,-379.303 392.276,-365.862"/>
<polygon fill="midnightblue" stroke="midnightblue" points="395.68,-365.029 390.351,-355.872 388.806,-366.354 395.68,-365.029"/>
</g>
<!-- Node20 -->
<g id="node20" class="node"><title>Node20</title>
<g id="a_node20"><a xlink:href="def_8h.html" target="_top" xlink:title="header file for symbol and structure definition functions ">
<polygon fill="white" stroke="black" points="54,-336.5 54,-355.5 92,-355.5 92,-336.5 54,-336.5"/>
<text text-anchor="middle" x="73" y="-343.5" font-family="Helvetica,sans-Serif" font-size="10.00">def.h</text>
</a>
</g>
</g>
<!-- Node1&#45;&gt;Node20 -->
<g id="edge26" class="edge"><title>Node1&#45;&gt;Node20</title>
<path fill="none" stroke="midnightblue" d="M408.863,-449.789C368.904,-441.885 304.488,-428.157 250,-412 196.726,-396.203 136.281,-372.778 101.597,-358.785"/>
<polygon fill="midnightblue" stroke="midnightblue" points="102.693,-355.452 92.111,-354.933 100.06,-361.938 102.693,-355.452"/>
</g>
<!-- Node21 -->
<g id="node21" class="node"><title>Node21</title>
<polygon fill="white" stroke="#bfbfbf" points="0,-280.5 0,-299.5 52,-299.5 52,-280.5 0,-280.5"/>
<text text-anchor="middle" x="26" y="-287.5" font-family="Helvetica,sans-Serif" font-size="10.00">stdarg.h</text>
</g>
<!-- Node1&#45;&gt;Node21 -->
<g id="edge31" class="edge"><title>Node1&#45;&gt;Node21</title>
<path fill="none" stroke="midnightblue" d="M408.774,-452.742C318.165,-441.847 94.2377,-409.949 45,-356 33.4931,-343.392 28.9269,-324.178 27.1299,-309.906"/>
<polygon fill="midnightblue" stroke="midnightblue" points="30.5967,-309.382 26.2028,-299.741 23.6256,-310.017 30.5967,-309.382"/>
</g>
<!-- Node22 -->
<g id="node22" class="node"><title>Node22</title>
<g id="a_node22"><a xlink:href="semtrex_8h.html" target="_top" xlink:title="Semantic tree regular expression header file. ">
<polygon fill="white" stroke="black" points="417,-392.5 417,-411.5 477,-411.5 477,-392.5 417,-392.5"/>
<text text-anchor="middle" x="447" y="-399.5" font-family="Helvetica,sans-Serif" font-size="10.00">semtrex.h</text>
</a>
</g>
</g>
<!-- Node1&#45;&gt;Node22 -->
<g id="edge29" class="edge"><title>Node1&#45;&gt;Node22</title>
<path fill="none" stroke="midnightblue" d="M447,-448.083C447,-441.006 447,-430.861 447,-421.986"/>
<polygon fill="midnightblue" stroke="midnightblue" points="450.5,-421.751 447,-411.751 443.5,-421.751 450.5,-421.751"/>
</g>
<!-- Node23 -->
<g id="node23" class="node"><title>Node23</title>
<g id="a_node23"><a xlink:href="receptor_8h.html" target="_top" xlink:title="receptor implementation header file ">
<polygon fill="white" stroke="black" points="259,-392.5 259,-411.5 319,-411.5 319,-392.5 259,-392.5"/>
<text text-anchor="middle" x="289" y="-399.5" font-family="Helvetica,sans-Serif" font-size="10.00">receptor.h</text>
</a>
</g>
</g>
<!-- Node1&#45;&gt;Node23 -->
<g id="edge32" class="edge"><title>Node1&#45;&gt;Node23</title>
<path fill="none" stroke="midnightblue" d="M421.964,-448.444C395.384,-439.359 353.191,-424.939 323.477,-414.783"/>
<polygon fill="midnightblue" stroke="midnightblue" points="324.513,-411.439 313.918,-411.516 322.249,-418.062 324.513,-411.439"/>
</g>
<!-- Node26 -->
<g id="node26" class="node"><title>Node26</title>
<g id="a_node26"><a xlink:href="spec__utils_8h.html" target="_top" xlink:title="../spec/spec_utils.h">
<polygon fill="white" stroke="black" points="554,-392.5 554,-411.5 656,-411.5 656,-392.5 554,-392.5"/>
<text text-anchor="middle" x="605" y="-399.5" font-family="Helvetica,sans-Serif" font-size="10.00">../spec/spec_utils.h</text>
</a>
</g>
</g>
<!-- Node1&#45;&gt;Node26 -->
<g id="edge40" class="edge"><title>Node1&#45;&gt;Node26</title>
<path fill="none" stroke="midnightblue" d="M472.036,-448.444C498.616,-439.359 540.809,-424.939 570.523,-414.783"/>
<polygon fill="midnightblue" stroke="midnightblue" points="571.751,-418.062 580.082,-411.516 569.487,-411.439 571.751,-418.062"/>
</g>
<!-- Node29 -->
<g id="node29" class="node"><title>Node29</title>
<g id="a_node29"><a xlink:href="util_8h.html" target="_top" xlink:title="util.h">
<polygon fill="white" stroke="black" points="971,-280.5 971,-299.5 1009,-299.5 1009,-280.5 971,-280.5"/>
<text text-anchor="middle" x="990" y="-287.5" font-family="Helvetica,sans-Serif" font-size="10.00">util.h</text>
</a>
</g>
</g>
<!-- Node1&#45;&gt;Node29 -->
<g id="edge62" class="edge"><title>Node1&#45;&gt;Node29</title>
<path fill="none" stroke="midnightblue" d="M485.163,-452.808C535.047,-446.735 624.798,-433.77 699,-412 800.147,-382.324 913.863,-328.786 963.946,-304.108"/>
<polygon fill="midnightblue" stroke="midnightblue" points="965.687,-307.151 973.091,-299.573 962.577,-300.88 965.687,-307.151"/>
</g>
<!-- Node32 -->
<g id="node32" class="node"><title>Node32</title>
<g id="a_node32"><a xlink:href="debug_8h.html" target="_top" xlink:title="debug.h">
<polygon fill="white" stroke="black" points="901.5,-280.5 901.5,-299.5 952.5,-299.5 952.5,-280.5 901.5,-280.5"/>
<text text-anchor="middle" x="927" y="-287.5" font-family="Helvetica,sans-Serif" font-size="10.00">debug.h</text>
</a>
</g>
</g>
<!-- Node1&#45;&gt;Node32 -->
<g id="edge63" class="edge"><title>Node1&#45;&gt;Node32</title>
<path fill="none" stroke="midnightblue" d="M485.215,-453.287C529.701,-448.027 604.76,-436.214 665,-412 723.924,-388.315 728.405,-362.755 786,-336 820.604,-319.925 862.505,-307.358 891.594,-299.638"/>
<polygon fill="midnightblue" stroke="midnightblue" points="892.518,-303.014 901.316,-297.112 890.757,-296.239 892.518,-303.014"/>
</g>
<!-- Node33 -->
<g id="node33" class="node"><title>Node33</title>
<polygon fill="white" stroke="#bfbfbf" points="828.5,-392.5 828.5,-411.5 875.5,-411.5 875.5,-392.5 828.5,-392.5"/>
<text text-anchor="middle" x="852" y="-399.5" font-family="Helvetica,sans-Serif" font-size="10.00">errno.h</text>
</g>
<!-- Node1&#45;&gt;Node33 -->
<g id="edge64" class="edge"><title>Node1&#45;&gt;Node33</title>
<path fill="none" stroke="midnightblue" d="M485.248,-453.715C552.21,-447.651 694.894,-433.339 814,-412 815.46,-411.738 816.948,-411.456 818.448,-411.158"/>
<polygon fill="midnightblue" stroke="midnightblue" points="819.328,-414.549 828.368,-409.024 817.855,-407.705 819.328,-414.549"/>
</g>
<!-- Node3 -->
<g id="node3" class="node"><title>Node3</title>
<g id="a_node3"><a xlink:href="tree_8h.html" target="_top" xlink:title="semantic trees header file ">
<polygon fill="white" stroke="black" points="332.5,-280.5 332.5,-299.5 373.5,-299.5 373.5,-280.5 332.5,-280.5"/>
<text text-anchor="middle" x="353" y="-287.5" font-family="Helvetica,sans-Serif" font-size="10.00">tree.h</text>
</a>
</g>
</g>
<!-- Node2&#45;&gt;Node3 -->
<g id="edge2" class="edge"><title>Node2&#45;&gt;Node3</title>
<path fill="none" stroke="midnightblue" d="M383.055,-336.083C378.023,-328.534 370.663,-317.495 364.487,-308.23"/>
<polygon fill="midnightblue" stroke="midnightblue" points="367.293,-306.13 358.834,-299.751 361.469,-310.013 367.293,-306.13"/>
</g>
<!-- Node4 -->
<g id="node4" class="node"><title>Node4</title>
<polygon fill="white" stroke="#bfbfbf" points="141.5,-0.5 141.5,-19.5 190.5,-19.5 190.5,-0.5 141.5,-0.5"/>
<text text-anchor="middle" x="166" y="-7.5" font-family="Helvetica,sans-Serif" font-size="10.00">string.h</text>
</g>
<!-- Node3&#45;&gt;Node4 -->
<g id="edge3" class="edge"><title>Node3&#45;&gt;Node4</title>
<path fill="none" stroke="midnightblue" d="M332.208,-289.14C277.824,-288.223 131.536,-277.225 73,-188 35.8047,-131.304 109.521,-58.0751 146.544,-26.5545"/>
<polygon fill="midnightblue" stroke="midnightblue" points="149.21,-28.8903 154.665,-19.8078 144.737,-23.506 149.21,-28.8903"/>
</g>
<!-- Node5 -->
<g id="node5" class="node"><title>Node5</title>
<polygon fill="white" stroke="#bfbfbf" points="458,-0.5 458,-19.5 506,-19.5 506,-0.5 458,-0.5"/>
<text text-anchor="middle" x="482" y="-7.5" font-family="Helvetica,sans-Serif" font-size="10.00">stdlib.h</text>
</g>
<!-- Node3&#45;&gt;Node5 -->
<g id="edge4" class="edge"><title>Node3&#45;&gt;Node5</title>
<path fill="none" stroke="midnightblue" d="M357.002,-280.375C375.023,-241.54 448.836,-82.4702 473.746,-28.7886"/>
<polygon fill="midnightblue" stroke="midnightblue" points="477.01,-30.0685 478.045,-19.5243 470.66,-27.122 477.01,-30.0685"/>
</g>
<!-- Node6 -->
<g id="node6" class="node"><title>Node6</title>
<g id="a_node6"><a xlink:href="ceptr__error_8h_source.html" target="_top" xlink:title="ceptr_error.h">
<polygon fill="white" stroke="black" points="662.5,-224.5 662.5,-243.5 733.5,-243.5 733.5,-224.5 662.5,-224.5"/>
<text text-anchor="middle" x="698" y="-231.5" font-family="Helvetica,sans-Serif" font-size="10.00">ceptr_error.h</text>
</a>
</g>
</g>
<!-- Node3&#45;&gt;Node6 -->
<g id="edge5" class="edge"><title>Node3&#45;&gt;Node6</title>
<path fill="none" stroke="midnightblue" d="M373.548,-285.784C427.858,-277.283 576.226,-254.06 652.056,-242.191"/>
<polygon fill="midnightblue" stroke="midnightblue" points="652.919,-245.599 662.257,-240.595 651.836,-238.683 652.919,-245.599"/>
</g>
<!-- Node11 -->
<g id="node11" class="node"><title>Node11</title>
<g id="a_node11"><a xlink:href="sys__symbols_8h.html" target="_top" xlink:title="Defines hard&#45;coded system defined symbols. ">
<polygon fill="white" stroke="black" points="222.5,-224.5 222.5,-243.5 305.5,-243.5 305.5,-224.5 222.5,-224.5"/>
<text text-anchor="middle" x="264" y="-231.5" font-family="Helvetica,sans-Serif" font-size="10.00">sys_symbols.h</text>
</a>
</g>
</g>
<!-- Node3&#45;&gt;Node11 -->
<g id="edge10" class="edge"><title>Node3&#45;&gt;Node11</title>
<path fill="none" stroke="midnightblue" d="M338.701,-280.324C324.817,-271.9 303.508,-258.971 287.196,-249.074"/>
<polygon fill="midnightblue" stroke="midnightblue" points="288.629,-245.85 278.264,-243.655 284.998,-251.834 288.629,-245.85"/>
</g>
<!-- Node12 -->
<g id="node12" class="node"><title>Node12</title>
<g id="a_node12"><a xlink:href="sys__structures_8h.html" target="_top" xlink:title="Defines hard&#45;coded system defined structures. ">
<polygon fill="white" stroke="black" points="279.5,-168.5 279.5,-187.5 368.5,-187.5 368.5,-168.5 279.5,-168.5"/>
<text text-anchor="middle" x="324" y="-175.5" font-family="Helvetica,sans-Serif" font-size="10.00">sys_structures.h</text>
</a>
</g>
</g>
<!-- Node3&#45;&gt;Node12 -->
<g id="edge21" class="edge"><title>Node3&#45;&gt;Node12</title>
<path fill="none" stroke="midnightblue" d="M350.724,-280.368C346.023,-262.537 335.151,-221.295 328.817,-197.272"/>
<polygon fill="midnightblue" stroke="midnightblue" points="332.199,-196.369 326.265,-187.591 325.43,-198.153 332.199,-196.369"/>
</g>
<!-- Node13 -->
<g id="node13" class="node"><title>Node13</title>
<g id="a_node13"><a xlink:href="ceptr__types_8h_source.html" target="_top" xlink:title="ceptr_types.h">
<polygon fill="white" stroke="black" points="242,-112.5 242,-131.5 318,-131.5 318,-112.5 242,-112.5"/>
<text text-anchor="middle" x="280" y="-119.5" font-family="Helvetica,sans-Serif" font-size="10.00">ceptr_types.h</text>
</a>
</g>
</g>
<!-- Node3&#45;&gt;Node13 -->
<g id="edge23" class="edge"><title>Node3&#45;&gt;Node13</title>
<path fill="none" stroke="midnightblue" d="M332.314,-289.326C300.562,-288.564 240.596,-281.857 213,-244 187.106,-208.478 232.506,-161.885 260.477,-138.219"/>
<polygon fill="midnightblue" stroke="midnightblue" points="262.982,-140.692 268.5,-131.648 258.546,-135.277 262.982,-140.692"/>
</g>
<!-- Node18 -->
<g id="node18" class="node"><title>Node18</title>
<g id="a_node18"><a xlink:href="sys__processes_8h.html" target="_top" xlink:title="Defines hard&#45;coded system defined processes. ">
<polygon fill="white" stroke="black" points="400.5,-224.5 400.5,-243.5 491.5,-243.5 491.5,-224.5 400.5,-224.5"/>
<text text-anchor="middle" x="446" y="-231.5" font-family="Helvetica,sans-Serif" font-size="10.00">sys_processes.h</text>
</a>
</g>
</g>
<!-- Node3&#45;&gt;Node18 -->
<g id="edge22" class="edge"><title>Node3&#45;&gt;Node18</title>
<path fill="none" stroke="midnightblue" d="M367.942,-280.324C382.585,-271.822 405.134,-258.729 422.238,-248.797"/>
<polygon fill="midnightblue" stroke="midnightblue" points="424.205,-251.703 431.095,-243.655 420.69,-245.649 424.205,-251.703"/>
</g>
<!-- Node19 -->
<g id="node19" class="node"><title>Node19</title>
<g id="a_node19"><a xlink:href="stream_8h.html" target="_top" xlink:title="streams abstraction header file ">
<polygon fill="white" stroke="black" points="751.5,-224.5 751.5,-243.5 806.5,-243.5 806.5,-224.5 751.5,-224.5"/>
<text text-anchor="middle" x="779" y="-231.5" font-family="Helvetica,sans-Serif" font-size="10.00">stream.h</text>
</a>
</g>
</g>
<!-- Node3&#45;&gt;Node19 -->
<g id="edge24" class="edge"><title>Node3&#45;&gt;Node19</title>
<path fill="none" stroke="midnightblue" d="M373.795,-287.503C430.87,-283.205 594.87,-269.575 741.145,-243.939"/>
<polygon fill="midnightblue" stroke="midnightblue" points="741.964,-247.348 751.198,-242.152 740.74,-240.456 741.964,-247.348"/>
</g>
<!-- Node7 -->
<g id="node7" class="node"><title>Node7</title>
<polygon fill="white" stroke="#bfbfbf" points="793,-56.5 793,-75.5 839,-75.5 839,-56.5 793,-56.5"/>
<text text-anchor="middle" x="816" y="-63.5" font-family="Helvetica,sans-Serif" font-size="10.00">stdio.h</text>
</g>
<!-- Node6&#45;&gt;Node7 -->
<g id="edge6" class="edge"><title>Node6&#45;&gt;Node7</title>
<path fill="none" stroke="midnightblue" d="M706.89,-224.478C715.773,-215.741 729.572,-201.551 740,-188 766.74,-153.251 792.784,-108.806 806.347,-84.6179"/>
<polygon fill="midnightblue" stroke="midnightblue" points="809.571,-86.0217 811.361,-75.5792 803.449,-82.626 809.571,-86.0217"/>
</g>
<!-- Node8 -->
<g id="node8" class="node"><title>Node8</title>
<polygon fill="white" stroke="#bfbfbf" points="611,-168.5 611,-187.5 661,-187.5 661,-168.5 611,-168.5"/>
<text text-anchor="middle" x="636" y="-175.5" font-family="Helvetica,sans-Serif" font-size="10.00">signal.h</text>
</g>
<!-- Node6&#45;&gt;Node8 -->
<g id="edge7" class="edge"><title>Node6&#45;&gt;Node8</title>
<path fill="none" stroke="midnightblue" d="M688.039,-224.324C678.873,-216.341 665.063,-204.313 653.972,-194.653"/>
<polygon fill="midnightblue" stroke="midnightblue" points="655.982,-191.762 646.143,-187.834 651.385,-197.041 655.982,-191.762"/>
</g>
<!-- Node9 -->
<g id="node9" class="node"><title>Node9</title>
<polygon fill="white" stroke="#bfbfbf" points="679,-168.5 679,-187.5 731,-187.5 731,-168.5 679,-168.5"/>
<text text-anchor="middle" x="705" y="-175.5" font-family="Helvetica,sans-Serif" font-size="10.00">assert.h</text>
</g>
<!-- Node6&#45;&gt;Node9 -->
<g id="edge8" class="edge"><title>Node6&#45;&gt;Node9</title>
<path fill="none" stroke="midnightblue" d="M699.156,-224.083C700.084,-216.927 701.418,-206.635 702.577,-197.691"/>
<polygon fill="midnightblue" stroke="midnightblue" points="706.051,-198.118 703.866,-187.751 699.109,-197.218 706.051,-198.118"/>
</g>
<!-- Node10 -->
<g id="node10" class="node"><title>Node10</title>
<polygon fill="white" stroke="#bfbfbf" points="539,-168.5 539,-187.5 593,-187.5 593,-168.5 539,-168.5"/>
<text text-anchor="middle" x="566" y="-175.5" font-family="Helvetica,sans-Serif" font-size="10.00">setjmp.h</text>
</g>
<!-- Node6&#45;&gt;Node10 -->
<g id="edge9" class="edge"><title>Node6&#45;&gt;Node10</title>
<path fill="none" stroke="midnightblue" d="M677.084,-224.444C655.264,-215.517 620.85,-201.439 596.108,-191.317"/>
<polygon fill="midnightblue" stroke="midnightblue" points="597.399,-188.063 586.818,-187.516 594.748,-194.542 597.399,-188.063"/>
</g>
<!-- Node11&#45;&gt;Node12 -->
<g id="edge11" class="edge"><title>Node11&#45;&gt;Node12</title>
<path fill="none" stroke="midnightblue" d="M273.64,-224.324C282.51,-216.341 295.875,-204.313 306.608,-194.653"/>
<polygon fill="midnightblue" stroke="midnightblue" points="309.093,-197.125 314.185,-187.834 304.41,-191.922 309.093,-197.125"/>
</g>
<!-- Node11&#45;&gt;Node13 -->
<g id="edge20" class="edge"><title>Node11&#45;&gt;Node13</title>
<path fill="none" stroke="midnightblue" d="M264.462,-224.125C265.197,-211.569 266.879,-187.929 270,-168 271.379,-159.194 273.451,-149.533 275.352,-141.427"/>
<polygon fill="midnightblue" stroke="midnightblue" points="278.788,-142.11 277.757,-131.565 271.987,-140.451 278.788,-142.11"/>
</g>
<!-- Node12&#45;&gt;Node13 -->
<g id="edge12" class="edge"><title>Node12&#45;&gt;Node13</title>
<path fill="none" stroke="midnightblue" d="M316.734,-168.083C310.455,-160.377 301.212,-149.033 293.569,-139.653"/>
<polygon fill="midnightblue" stroke="midnightblue" points="296.161,-137.293 287.131,-131.751 290.734,-141.714 296.161,-137.293"/>
</g>
<!-- Node13&#45;&gt;Node7 -->
<g id="edge14" class="edge"><title>Node13&#45;&gt;Node7</title>
<path fill="none" stroke="midnightblue" d="M318.118,-117.16C418.411,-107.056 688.397,-79.8555 782.835,-70.3412"/>
<polygon fill="midnightblue" stroke="midnightblue" points="783.354,-73.8068 792.952,-69.322 782.652,-66.8421 783.354,-73.8068"/>
</g>
<!-- Node14 -->
<g id="node14" class="node"><title>Node14</title>
<polygon fill="white" stroke="#bfbfbf" points="310.5,-56.5 310.5,-75.5 359.5,-75.5 359.5,-56.5 310.5,-56.5"/>
<text text-anchor="middle" x="335" y="-63.5" font-family="Helvetica,sans-Serif" font-size="10.00">stdint.h</text>
</g>
<!-- Node13&#45;&gt;Node14 -->
<g id="edge13" class="edge"><title>Node13&#45;&gt;Node14</title>
<path fill="none" stroke="midnightblue" d="M289.082,-112.083C297.171,-104.141 309.195,-92.3354 318.91,-82.7973"/>
<polygon fill="midnightblue" stroke="midnightblue" points="321.403,-85.2545 326.087,-75.7511 316.499,-80.2595 321.403,-85.2545"/>
</g>
<!-- Node15 -->
<g id="node15" class="node"><title>Node15</title>
<g id="a_node15"><a xlink:href="uthash_8h_source.html" target="_top" xlink:title="uthash.h">
<polygon fill="white" stroke="black" points="238,-56.5 238,-75.5 292,-75.5 292,-56.5 238,-56.5"/>
<text text-anchor="middle" x="265" y="-63.5" font-family="Helvetica,sans-Serif" font-size="10.00">uthash.h</text>
</a>
</g>
</g>
<!-- Node13&#45;&gt;Node15 -->
<g id="edge15" class="edge"><title>Node13&#45;&gt;Node15</title>
<path fill="none" stroke="midnightblue" d="M277.523,-112.083C275.514,-104.849 272.614,-94.4087 270.11,-85.3968"/>
<polygon fill="midnightblue" stroke="midnightblue" points="273.48,-84.4495 267.431,-75.7511 266.735,-86.323 273.48,-84.4495"/>
</g>
<!-- Node15&#45;&gt;Node4 -->
<g id="edge16" class="edge"><title>Node15&#45;&gt;Node4</title>
<path fill="none" stroke="midnightblue" d="M249.094,-56.324C233.362,-47.7428 209.058,-34.486 190.791,-24.5224"/>
<polygon fill="midnightblue" stroke="midnightblue" points="192.322,-21.3704 181.867,-19.6545 188.97,-27.5157 192.322,-21.3704"/>
</g>
<!-- Node15&#45;&gt;Node5 -->
<g id="edge18" class="edge"><title>Node15&#45;&gt;Node5</title>
<path fill="none" stroke="midnightblue" d="M292.126,-58.2145C295.12,-57.4667 298.125,-56.7169 301,-56 352.186,-43.2387 411.528,-28.4948 447.915,-19.4602"/>
<polygon fill="midnightblue" stroke="midnightblue" points="449.127,-22.7655 457.989,-16.9589 447.441,-15.9717 449.127,-22.7655"/>
</g>
<!-- Node16 -->
<g id="node16" class="node"><title>Node16</title>
<polygon fill="white" stroke="#bfbfbf" points="219,-0.5 219,-19.5 271,-19.5 271,-0.5 219,-0.5"/>
<text text-anchor="middle" x="245" y="-7.5" font-family="Helvetica,sans-Serif" font-size="10.00">stddef.h</text>
</g>
<!-- Node15&#45;&gt;Node16 -->
<g id="edge17" class="edge"><title>Node15&#45;&gt;Node16</title>
<path fill="none" stroke="midnightblue" d="M261.697,-56.083C259.018,-48.8486 255.151,-38.4087 251.814,-29.3968"/>
<polygon fill="midnightblue" stroke="midnightblue" points="254.996,-27.9129 248.241,-19.7511 248.432,-30.3442 254.996,-27.9129"/>
</g>
<!-- Node17 -->
<g id="node17" class="node"><title>Node17</title>
<polygon fill="white" stroke="#bfbfbf" points="289.5,-0.5 289.5,-19.5 348.5,-19.5 348.5,-0.5 289.5,-0.5"/>
<text text-anchor="middle" x="319" y="-7.5" font-family="Helvetica,sans-Serif" font-size="10.00">inttypes.h</text>
</g>
<!-- Node15&#45;&gt;Node17 -->
<g id="edge19" class="edge"><title>Node15&#45;&gt;Node17</title>
<path fill="none" stroke="midnightblue" d="M273.917,-56.083C281.78,-48.2195 293.431,-36.5688 302.919,-27.0813"/>
<polygon fill="midnightblue" stroke="midnightblue" points="305.653,-29.2971 310.249,-19.7511 300.703,-24.3473 305.653,-29.2971"/>
</g>
<!-- Node19&#45;&gt;Node7 -->
<g id="edge25" class="edge"><title>Node19&#45;&gt;Node7</title>
<path fill="none" stroke="midnightblue" d="M780.989,-224.075C786.813,-197.945 803.917,-121.211 811.859,-85.577"/>
<polygon fill="midnightblue" stroke="midnightblue" points="815.331,-86.0901 814.09,-75.5681 808.498,-84.5671 815.331,-86.0901"/>
</g>
<!-- Node20&#45;&gt;Node3 -->
<g id="edge27" class="edge"><title>Node20&#45;&gt;Node3</title>
<path fill="none" stroke="midnightblue" d="M92.2455,-341.288C140.051,-332.069 264.515,-308.065 322.476,-296.887"/>
<polygon fill="midnightblue" stroke="midnightblue" points="323.334,-300.286 332.491,-294.955 322.009,-293.412 323.334,-300.286"/>
</g>
<!-- Node20&#45;&gt;Node21 -->
<g id="edge28" class="edge"><title>Node20&#45;&gt;Node21</title>
<path fill="none" stroke="midnightblue" d="M65.2389,-336.083C58.4632,-328.298 48.4568,-316.801 40.2449,-307.367"/>
<polygon fill="midnightblue" stroke="midnightblue" points="42.822,-304.996 33.6167,-299.751 37.5419,-309.592 42.822,-304.996"/>
</g>
<!-- Node22&#45;&gt;Node3 -->
<g id="edge30" class="edge"><title>Node22&#45;&gt;Node3</title>
<path fill="none" stroke="midnightblue" d="M446.262,-392.097C444.74,-378.656 440.2,-352.956 427,-336 415.711,-321.498 398.333,-310.586 383.254,-303.141"/>
<polygon fill="midnightblue" stroke="midnightblue" points="384.309,-299.773 373.764,-298.747 381.367,-306.125 384.309,-299.773"/>
</g>
<!-- Node23&#45;&gt;Node2 -->
<g id="edge37" class="edge"><title>Node23&#45;&gt;Node2</title>
<path fill="none" stroke="midnightblue" d="M305.067,-392.324C320.958,-383.743 345.507,-370.486 363.958,-360.522"/>
<polygon fill="midnightblue" stroke="midnightblue" points="365.837,-363.486 372.973,-355.655 362.511,-357.326 365.837,-363.486"/>
</g>
<!-- Node23&#45;&gt;Node3 -->
<g id="edge33" class="edge"><title>Node23&#45;&gt;Node3</title>
<path fill="none" stroke="midnightblue" d="M284.866,-392.383C279.244,-379.317 270.969,-354.099 281,-336 289.995,-319.771 307.551,-308.622 323.076,-301.481"/>
<polygon fill="midnightblue" stroke="midnightblue" points="324.538,-304.663 332.384,-297.543 321.811,-298.216 324.538,-304.663"/>
</g>
<!-- Node23&#45;&gt;Node20 -->
<g id="edge34" class="edge"><title>Node23&#45;&gt;Node20</title>
<path fill="none" stroke="midnightblue" d="M258.826,-393.826C222.502,-385.133 159.681,-369.918 106,-356 104.739,-355.673 103.452,-355.336 102.152,-354.993"/>
<polygon fill="midnightblue" stroke="midnightblue" points="102.739,-351.527 92.1731,-352.317 100.925,-358.288 102.739,-351.527"/>
</g>
<!-- Node24 -->
<g id="node24" class="node"><title>Node24</title>
<g id="a_node24"><a xlink:href="label_8h.html" target="_top" xlink:title="Label tables map human readable text strings to parts of semantic trees. ">
<polygon fill="white" stroke="black" points="82.5,-168.5 82.5,-187.5 127.5,-187.5 127.5,-168.5 82.5,-168.5"/>
<text text-anchor="middle" x="105" y="-175.5" font-family="Helvetica,sans-Serif" font-size="10.00">label.h</text>
</a>
</g>
</g>
<!-- Node23&#45;&gt;Node24 -->
<g id="edge35" class="edge"><title>Node23&#45;&gt;Node24</title>
<path fill="none" stroke="midnightblue" d="M258.653,-394.558C215.418,-383.566 137.612,-356.645 104,-300 85.0432,-268.053 92.7523,-222.507 99.3334,-197.393"/>
<polygon fill="midnightblue" stroke="midnightblue" points="102.722,-198.272 102.091,-187.696 95.9891,-196.357 102.722,-198.272"/>
</g>
<!-- Node25 -->
<g id="node25" class="node"><title>Node25</title>
<g id="a_node25"><a xlink:href="scape_8h.html" target="_top" xlink:title="scape header files ">
<polygon fill="white" stroke="black" points="290.5,-336.5 290.5,-355.5 341.5,-355.5 341.5,-336.5 290.5,-336.5"/>
<text text-anchor="middle" x="316" y="-343.5" font-family="Helvetica,sans-Serif" font-size="10.00">scape.h</text>
</a>
</g>
</g>
<!-- Node23&#45;&gt;Node25 -->
<g id="edge38" class="edge"><title>Node23&#45;&gt;Node25</title>
<path fill="none" stroke="midnightblue" d="M293.459,-392.083C297.154,-384.691 302.523,-373.953 307.094,-364.811"/>
<polygon fill="midnightblue" stroke="midnightblue" points="310.283,-366.261 311.624,-355.751 304.022,-363.13 310.283,-366.261"/>
</g>
<!-- Node24&#45;&gt;Node13 -->
<g id="edge36" class="edge"><title>Node24&#45;&gt;Node13</title>
<path fill="none" stroke="midnightblue" d="M127.52,-170.051C156.591,-161.081 207.585,-145.345 242.536,-134.56"/>
<polygon fill="midnightblue" stroke="midnightblue" points="243.857,-137.815 252.381,-131.522 241.793,-131.127 243.857,-137.815"/>
</g>
<!-- Node25&#45;&gt;Node3 -->
<g id="edge39" class="edge"><title>Node25&#45;&gt;Node3</title>
<path fill="none" stroke="midnightblue" d="M322.11,-336.083C327.282,-328.534 334.846,-317.495 341.194,-308.23"/>
<polygon fill="midnightblue" stroke="midnightblue" points="344.239,-309.979 347.004,-299.751 338.464,-306.022 344.239,-309.979"/>
</g>
<!-- Node27 -->
<g id="node27" class="node"><title>Node27</title>
<g id="a_node27"><a xlink:href="ceptr_8h_source.html" target="_top" xlink:title="../src/ceptr.h">
<polygon fill="white" stroke="black" points="662,-336.5 662,-355.5 734,-355.5 734,-336.5 662,-336.5"/>
<text text-anchor="middle" x="698" y="-343.5" font-family="Helvetica,sans-Serif" font-size="10.00">../src/ceptr.h</text>
</a>
</g>
</g>
<!-- Node26&#45;&gt;Node27 -->
<g id="edge41" class="edge"><title>Node26&#45;&gt;Node27</title>
<path fill="none" stroke="midnightblue" d="M619.942,-392.324C634.585,-383.822 657.134,-370.729 674.238,-360.797"/>
<polygon fill="midnightblue" stroke="midnightblue" points="676.205,-363.703 683.095,-355.655 672.69,-357.649 676.205,-363.703"/>
</g>
<!-- Node27&#45;&gt;Node3 -->
<g id="edge46" class="edge"><title>Node27&#45;&gt;Node3</title>
<path fill="none" stroke="midnightblue" d="M661.731,-339.323C593.698,-328.674 448.044,-305.876 384.14,-295.874"/>
<polygon fill="midnightblue" stroke="midnightblue" points="384.322,-292.36 373.901,-294.271 383.239,-299.276 384.322,-292.36"/>
</g>
<!-- Node27&#45;&gt;Node4 -->
<g id="edge42" class="edge"><title>Node27&#45;&gt;Node4</title>
<path fill="none" stroke="midnightblue" d="M661.836,-343.565C557.13,-338.555 257.629,-317.893 202,-244 152.614,-178.401 158.522,-72.5345 163.39,-29.7918"/>
<polygon fill="midnightblue" stroke="midnightblue" points="166.883,-30.0657 164.66,-19.7068 159.938,-29.1913 166.883,-30.0657"/>
</g>
<!-- Node27&#45;&gt;Node5 -->
<g id="edge44" class="edge"><title>Node27&#45;&gt;Node5</title>
<path fill="none" stroke="midnightblue" d="M734.005,-339.22C760.712,-333.322 796.577,-321.81 821,-300 902.38,-227.327 920.653,-137.398 848,-56 826.08,-31.4418 603.143,-17.2983 516.334,-12.6864"/>
<polygon fill="midnightblue" stroke="midnightblue" points="516.375,-9.18385 506.206,-12.159 516.011,-16.1744 516.375,-9.18385"/>
</g>
<!-- Node27&#45;&gt;Node6 -->
<g id="edge45" class="edge"><title>Node27&#45;&gt;Node6</title>
<path fill="none" stroke="midnightblue" d="M698,-336.368C698,-318.617 698,-277.666 698,-253.597"/>
<polygon fill="midnightblue" stroke="midnightblue" points="701.5,-253.591 698,-243.591 694.5,-253.591 701.5,-253.591"/>
</g>
<!-- Node27&#45;&gt;Node7 -->
<g id="edge43" class="edge"><title>Node27&#45;&gt;Node7</title>
<path fill="none" stroke="midnightblue" d="M726.386,-336.424C766.515,-322.338 835,-290.21 835,-235 835,-235 835,-235 835,-177 835,-144.489 826.841,-107.35 821.216,-85.6103"/>
<polygon fill="midnightblue" stroke="midnightblue" points="824.541,-84.498 818.562,-75.7514 817.782,-86.3175 824.541,-84.498"/>
</g>
<!-- Node27&#45;&gt;Node19 -->
<g id="edge55" class="edge"><title>Node27&#45;&gt;Node19</title>
<path fill="none" stroke="midnightblue" d="M704.356,-336.368C717.782,-318.135 749.232,-275.426 766.721,-251.675"/>
<polygon fill="midnightblue" stroke="midnightblue" points="769.562,-253.719 772.674,-243.591 763.926,-249.568 769.562,-253.719"/>
</g>
<!-- Node28 -->
<g id="node28" class="node"><title>Node28</title>
<g id="a_node28"><a xlink:href="mtree_8h.html" target="_top" xlink:title="semantic tree matrix header file `` ">
<polygon fill="white" stroke="black" points="552,-280.5 552,-299.5 602,-299.5 602,-280.5 552,-280.5"/>
<text text-anchor="middle" x="577" y="-287.5" font-family="Helvetica,sans-Serif" font-size="10.00">mtree.h</text>
</a>
</g>
</g>
<!-- Node27&#45;&gt;Node28 -->
<g id="edge47" class="edge"><title>Node27&#45;&gt;Node28</title>
<path fill="none" stroke="midnightblue" d="M678.827,-336.444C659.091,-327.636 628.115,-313.812 605.507,-303.722"/>
<polygon fill="midnightblue" stroke="midnightblue" points="606.641,-300.396 596.083,-299.516 603.789,-306.788 606.641,-300.396"/>
</g>
<!-- Node27&#45;&gt;Node29 -->
<g id="edge56" class="edge"><title>Node27&#45;&gt;Node29</title>
<path fill="none" stroke="midnightblue" d="M734.036,-340.364C784.987,-333.464 880.815,-319.214 961,-300 961.099,-299.976 961.199,-299.952 961.298,-299.928"/>
<polygon fill="midnightblue" stroke="midnightblue" points="962.022,-303.359 970.755,-297.36 960.187,-296.603 962.022,-303.359"/>
</g>
<!-- Node27&#45;&gt;Node32 -->
<g id="edge60" class="edge"><title>Node27&#45;&gt;Node32</title>
<path fill="none" stroke="midnightblue" d="M734.033,-336.503C777.087,-326.351 848.66,-309.473 891.484,-299.375"/>
<polygon fill="midnightblue" stroke="midnightblue" points="892.529,-302.725 901.459,-297.023 890.922,-295.911 892.529,-302.725"/>
</g>
<!-- Node28&#45;&gt;Node4 -->
<g id="edge48" class="edge"><title>Node28&#45;&gt;Node4</title>
<path fill="none" stroke="midnightblue" d="M575.223,-280.389C572.234,-267.329 565.287,-242.121 553,-224 539.577,-204.204 530.732,-204.05 513,-188 448.389,-129.517 445.347,-96.1542 368,-56 360.551,-52.1331 256.344,-29.9338 200.606,-18.2263"/>
<polygon fill="midnightblue" stroke="midnightblue" points="201.302,-14.7963 190.797,-16.1692 199.866,-21.6473 201.302,-14.7963"/>
</g>
<!-- Node28&#45;&gt;Node5 -->
<g id="edge49" class="edge"><title>Node28&#45;&gt;Node5</title>
<path fill="none" stroke="midnightblue" d="M587.269,-280.273C601.029,-267.493 622.369,-243.13 610,-224 588.83,-191.258 555.308,-217.66 530,-188 490.266,-141.432 483.141,-64.9746 482.056,-29.7908"/>
<polygon fill="midnightblue" stroke="midnightblue" points="485.551,-29.4828 481.881,-19.544 478.552,-29.6023 485.551,-29.4828"/>
</g>
<!-- Node28&#45;&gt;Node6 -->
<g id="edge50" class="edge"><title>Node28&#45;&gt;Node6</title>
<path fill="none" stroke="midnightblue" d="M596.173,-280.444C615.909,-271.636 646.885,-257.812 669.493,-247.722"/>
<polygon fill="midnightblue" stroke="midnightblue" points="671.211,-250.788 678.917,-243.516 668.359,-244.396 671.211,-250.788"/>
</g>
<!-- Node28&#45;&gt;Node11 -->
<g id="edge51" class="edge"><title>Node28&#45;&gt;Node11</title>
<path fill="none" stroke="midnightblue" d="M551.915,-284.672C500.792,-275.852 383.644,-255.641 315.58,-243.899"/>
<polygon fill="midnightblue" stroke="midnightblue" points="315.951,-240.411 305.501,-242.16 314.761,-247.309 315.951,-240.411"/>
</g>
<!-- Node28&#45;&gt;Node12 -->
<g id="edge52" class="edge"><title>Node28&#45;&gt;Node12</title>
<path fill="none" stroke="midnightblue" d="M569.365,-280.421C556.467,-266.463 528.927,-238.902 500,-224 478.606,-212.979 420.172,-199.106 376.463,-189.698"/>
<polygon fill="midnightblue" stroke="midnightblue" points="377.052,-186.244 366.542,-187.584 375.593,-193.091 377.052,-186.244"/>
</g>
<!-- Node28&#45;&gt;Node13 -->
<g id="edge54" class="edge"><title>Node28&#45;&gt;Node13</title>
<path fill="none" stroke="midnightblue" d="M572.584,-280.223C565.267,-266.481 549.391,-239.826 529,-224 511.029,-210.051 375.875,-158.719 312.553,-135.072"/>
<polygon fill="midnightblue" stroke="midnightblue" points="313.628,-131.738 303.035,-131.525 311.183,-138.297 313.628,-131.738"/>
</g>
<!-- Node28&#45;&gt;Node18 -->
<g id="edge53" class="edge"><title>Node28&#45;&gt;Node18</title>
<path fill="none" stroke="midnightblue" d="M556.243,-280.444C534.684,-271.557 500.737,-257.563 476.206,-247.451"/>
<polygon fill="midnightblue" stroke="midnightblue" points="477.239,-244.092 466.66,-243.516 474.572,-250.563 477.239,-244.092"/>
</g>
<!-- Node29&#45;&gt;Node7 -->
<g id="edge58" class="edge"><title>Node29&#45;&gt;Node7</title>
<path fill="none" stroke="midnightblue" d="M985.105,-280.334C969.813,-253.644 920.791,-170.935 868,-112 858.167,-101.023 845.727,-90.1693 835.48,-81.8723"/>
<polygon fill="midnightblue" stroke="midnightblue" points="837.509,-79.0144 827.494,-75.5575 833.167,-84.5053 837.509,-79.0144"/>
</g>
<!-- Node30 -->
<g id="node30" class="node"><title>Node30</title>
<polygon fill="white" stroke="#bfbfbf" points="1039.5,-224.5 1039.5,-243.5 1088.5,-243.5 1088.5,-224.5 1039.5,-224.5"/>
<text text-anchor="middle" x="1064" y="-231.5" font-family="Helvetica,sans-Serif" font-size="10.00">ctype.h</text>
</g>
<!-- Node29&#45;&gt;Node30 -->
<g id="edge57" class="edge"><title>Node29&#45;&gt;Node30</title>
<path fill="none" stroke="midnightblue" d="M1001.89,-280.324C1013.15,-272.107 1030.29,-259.602 1043.71,-249.807"/>
<polygon fill="midnightblue" stroke="midnightblue" points="1045.88,-252.556 1051.89,-243.834 1041.75,-246.901 1045.88,-252.556"/>
</g>
<!-- Node31 -->
<g id="node31" class="node"><title>Node31</title>
<polygon fill="white" stroke="#bfbfbf" points="977,-224.5 977,-243.5 1021,-243.5 1021,-224.5 977,-224.5"/>
<text text-anchor="middle" x="999" y="-231.5" font-family="Helvetica,sans-Serif" font-size="10.00">time.h</text>
</g>
<!-- Node29&#45;&gt;Node31 -->
<g id="edge59" class="edge"><title>Node29&#45;&gt;Node31</title>
<path fill="none" stroke="midnightblue" d="M991.486,-280.083C992.679,-272.927 994.394,-262.635 995.885,-253.691"/>
<polygon fill="midnightblue" stroke="midnightblue" points="999.35,-254.19 997.541,-243.751 992.445,-253.04 999.35,-254.19"/>
</g>
<!-- Node32&#45;&gt;Node7 -->
<g id="edge61" class="edge"><title>Node32&#45;&gt;Node7</title>
<path fill="none" stroke="midnightblue" d="M923.903,-280.202C914.45,-253.811 884.447,-173.351 849,-112 843.305,-102.143 835.886,-91.8549 829.525,-83.6073"/>
<polygon fill="midnightblue" stroke="midnightblue" points="832.12,-81.246 823.17,-75.576 826.631,-85.5897 832.12,-81.246"/>
</g>
</g>
</svg>
        <g id="navigator" transform="translate(0 0)" fill="#404254">
                <rect fill="#f2f5e9" fill-opacity="0.5" stroke="#606060" stroke-width=".5" x="0" y="0" width="60" height="60"/>
                <use id="zoomplus" xlink:href="#zoomPlus" x="17" y="9" onmousedown="handleZoom(evt,'in')"/>
                <use id="zoomminus" xlink:href="#zoomMin" x="42" y="9" onmousedown="handleZoom(evt,'out')"/>
                <use id="reset" xlink:href="#resetDef" x="30" y="36" onmousedown="handleReset()"/>
                <g id="arrowUp" xlink:href="#dirArrow" transform="translate(30 24)" onmousedown="handlePan(0,-1)">
                  <use xlink:href="#rim" fill="#404040">
                        <set attributeName="fill" to="#808080" begin="arrowUp.mouseover" end="arrowUp.mouseout"/>
                  </use>
                  <path fill="none" stroke="white" stroke-width="1.5" d="M0,-3.0v7 M-2.5,-0.5L0,-3.0L2.5,-0.5"/>
                </g>
                <g id="arrowRight" xlink:href="#dirArrow" transform="rotate(90) translate(36 -43)" onmousedown="handlePan(1,0)">
                  <use xlink:href="#rim" fill="#404040">
                        <set attributeName="fill" to="#808080" begin="arrowRight.mouseover" end="arrowRight.mouseout"/>
                  </use>
                  <path fill="none" stroke="white" stroke-width="1.5" d="M0,-3.0v7 M-2.5,-0.5L0,-3.0L2.5,-0.5"/>
                </g>
                <g id="arrowDown" xlink:href="#dirArrow" transform="rotate(180) translate(-30 -48)" onmousedown="handlePan(0,1)">
                  <use xlink:href="#rim" fill="#404040">
                        <set attributeName="fill" to="#808080" begin="arrowDown.mouseover" end="arrowDown.mouseout"/>
                  </use>
                  <path fill="none" stroke="white" stroke-width="1.5" d="M0,-3.0v7 M-2.5,-0.5L0,-3.0L2.5,-0.5"/>
                </g>
                <g id="arrowLeft" xlink:href="#dirArrow" transform="rotate(270) translate(-36 17)" onmousedown="handlePan(-1,0)">
                  <use xlink:href="#rim" fill="#404040">
                        <set attributeName="fill" to="#808080" begin="arrowLeft.mouseover" end="arrowLeft.mouseout"/>
                  </use>
                  <path fill="none" stroke="white" stroke-width="1.5" d="M0,-3.0v7 M-2.5,-0.5L0,-3.0L2.5,-0.5"/>
                </g>
        </g>
        <svg viewBox="0 0 15 15" width="100%" height="30px" preserveAspectRatio="xMaxYMin meet">
         <g id="arrow_out" transform="scale(0.3 0.3)">
          <a xlink:href="process_8c__incl_org.svg" target="_base">
           <rect id="button" ry="5" rx="5" y="6" x="6" height="38" width="38"
                fill="#f2f5e9" fill-opacity="0.5" stroke="#606060" stroke-width="1.0"/>
           <path id="arrow"
             d="M 11.500037,31.436501 C 11.940474,20.09759 22.043105,11.32322 32.158766,21.979434 L 37.068811,17.246167 C 37.068811,17.246167 37.088388,32 37.088388,32 L 22.160133,31.978069 C 22.160133,31.978069 26.997745,27.140456 26.997745,27.140456 C 18.528582,18.264221 13.291696,25.230495 11.500037,31.436501 z"
             style="fill:#404040;"/>
          </a>
         </g>
        </svg>
</svg>
