<?xml version="1.0" encoding="UTF-8" standalone="no"?>
<!DOCTYPE svg PUBLIC "-//W3C//DTD SVG 1.1//EN"
 "http://www.w3.org/Graphics/SVG/1.1/DTD/svg11.dtd">
<!-- Generated by graphviz version 2.38.0 (20140413.2041)
 -->
<!-- Title: spec/process_spec.h Pages: 1 -->
<!--zoomable 420 -->
<svg id="main" version="1.1" xmlns="http://www.w3.org/2000/svg" xmlns:xlink="http://www.w3.org/1999/xlink" xml:space="preserve" onload="init(evt)">
<style type="text/css"><![CDATA[
.edge:hover path { stroke: red; }
.edge:hover polygon { stroke: red; fill: red; }
]]></style>
<script type="text/javascript"><![CDATA[
var edges = document.getElementsByTagName('g');
if (edges && edges.length) {
  for (var i=0;i<edges.length;i++) {
    if (edges[i].id.substr(0,4)=='edge') {
      edges[i].setAttribute('class','edge');
    }
  }
}
]]></script>
        <defs>
                <circle id="rim" cx="0" cy="0" r="7"/>
                <circle id="rim2" cx="0" cy="0" r="3.5"/>
                <g id="zoomPlus">
                        <use xlink:href="#rim" fill="#404040">
                                <set attributeName="fill" to="#808080" begin="zoomplus.mouseover" end="zoomplus.mouseout"/>
                        </use>
                        <path d="M-4,0h8M0,-4v8" fill="none" stroke="white" stroke-width="1.5" pointer-events="none"/>
                </g>
                <g id="zoomMin">
                        <use xlink:href="#rim" fill="#404040">
                                <set attributeName="fill" to="#808080" begin="zoomminus.mouseover" end="zoomminus.mouseout"/>
                        </use>
                        <path d="M-4,0h8" fill="none" stroke="white" stroke-width="1.5" pointer-events="none"/>
                </g>
                <g id="dirArrow">
                        <path fill="none" stroke="white" stroke-width="1.5" d="M0,-3.0v7 M-2.5,-0.5L0,-3.0L2.5,-0.5"/>
                </g>
               <g id="resetDef">
                       <use xlink:href="#rim2" fill="#404040">
                               <set attributeName="fill" to="#808080" begin="reset.mouseover" end="reset.mouseout"/>
                       </use>
               </g>
        </defs>

<script type="text/javascript">
var viewWidth = 796;
var viewHeight = 420;
var sectionId = 'dynsection-0';
</script>
<script xlink:href="svgpan.js"/>
<svg id="graph" class="graph">
<g id="viewport">
<title>spec/process_spec.h</title>
<polygon fill="white" stroke="none" points="-4,4 -4,-416 792,-416 792,4 -4,4"/>
<!-- Node1 -->
<g id="node1" class="node"><title>Node1</title>
<polygon fill="#bfbfbf" stroke="black" points="303,-392.5 303,-411.5 413,-411.5 413,-392.5 303,-392.5"/>
<text text-anchor="middle" x="358" y="-399.5" font-family="Helvetica,sans-Serif" font-size="10.00">spec/process_spec.h</text>
</g>
<!-- Node2 -->
<g id="node2" class="node"><title>Node2</title>
<g id="a_node2"><a xlink:href="ceptr_8h_source.html" target="_top" xlink:title="../src/ceptr.h">
<polygon fill="white" stroke="black" points="389,-336.5 389,-355.5 461,-355.5 461,-336.5 389,-336.5"/>
<text text-anchor="middle" x="425" y="-343.5" font-family="Helvetica,sans-Serif" font-size="10.00">../src/ceptr.h</text>
</a>
</g>
</g>
<!-- Node1&#45;&gt;Node2 -->
<g id="edge1" class="edge"><title>Node1&#45;&gt;Node2</title>
<path fill="none" stroke="midnightblue" d="M368.765,-392.324C378.766,-384.263 393.887,-372.077 405.93,-362.369"/>
<polygon fill="midnightblue" stroke="midnightblue" points="408.45,-364.834 414.039,-355.834 404.057,-359.384 408.45,-364.834"/>
</g>
<!-- Node24 -->
<g id="node24" class="node"><title>Node24</title>
<g id="a_node24"><a xlink:href="process_8h.html" target="_top" xlink:title="processing header files ">
<polygon fill="white" stroke="black" points="249.5,-336.5 249.5,-355.5 334.5,-355.5 334.5,-336.5 249.5,-336.5"/>
<text text-anchor="middle" x="292" y="-343.5" font-family="Helvetica,sans-Serif" font-size="10.00">../src/process.h</text>
</a>
</g>
</g>
<!-- Node1&#45;&gt;Node24 -->
<g id="edge42" class="edge"><title>Node1&#45;&gt;Node24</title>
<path fill="none" stroke="midnightblue" d="M347.396,-392.324C337.544,-384.263 322.649,-372.077 310.785,-362.369"/>
<polygon fill="midnightblue" stroke="midnightblue" points="312.753,-359.457 302.797,-355.834 308.32,-364.875 312.753,-359.457"/>
</g>
<!-- Node3 -->
<g id="node3" class="node"><title>Node3</title>
<polygon fill="white" stroke="#bfbfbf" points="10.5,-0.5 10.5,-19.5 59.5,-19.5 59.5,-0.5 10.5,-0.5"/>
<text text-anchor="middle" x="35" y="-7.5" font-family="Helvetica,sans-Serif" font-size="10.00">string.h</text>
</g>
<!-- Node2&#45;&gt;Node3 -->
<g id="edge2" class="edge"><title>Node2&#45;&gt;Node3</title>
<path fill="none" stroke="midnightblue" d="M388.765,-339.497C285.988,-323.4 0,-275.013 0,-235 0,-235 0,-235 0,-121 0,-87.0719 15.3069,-49.9109 25.6752,-28.631"/>
<polygon fill="midnightblue" stroke="midnightblue" points="28.8818,-30.0463 30.2797,-19.544 22.6376,-26.8822 28.8818,-30.0463"/>
</g>
<!-- Node4 -->
<g id="node4" class="node"><title>Node4</title>
<polygon fill="white" stroke="#bfbfbf" points="506,-56.5 506,-75.5 552,-75.5 552,-56.5 506,-56.5"/>
<text text-anchor="middle" x="529" y="-63.5" font-family="Helvetica,sans-Serif" font-size="10.00">stdio.h</text>
</g>
<!-- Node2&#45;&gt;Node4 -->
<g id="edge3" class="edge"><title>Node2&#45;&gt;Node4</title>
<path fill="none" stroke="midnightblue" d="M431.797,-336.327C444.705,-319.465 472.91,-280.692 489,-244 509.695,-196.806 508.4,-182.431 519,-132 522.233,-116.617 524.881,-98.9813 526.638,-85.9641"/>
<polygon fill="midnightblue" stroke="midnightblue" points="530.13,-86.2537 527.945,-75.8866 523.188,-85.3534 530.13,-86.2537"/>
</g>
<!-- Node5 -->
<g id="node5" class="node"><title>Node5</title>
<polygon fill="white" stroke="#bfbfbf" points="225,-0.5 225,-19.5 273,-19.5 273,-0.5 225,-0.5"/>
<text text-anchor="middle" x="249" y="-7.5" font-family="Helvetica,sans-Serif" font-size="10.00">stdlib.h</text>
</g>
<!-- Node2&#45;&gt;Node5 -->
<g id="edge4" class="edge"><title>Node2&#45;&gt;Node5</title>
<path fill="none" stroke="midnightblue" d="M461.308,-341.331C512.959,-335.402 604.057,-322.093 628,-300 650.214,-279.503 648,-265.225 648,-235 648,-235 648,-235 648,-121 648,-90.7745 651.21,-75.3615 628,-56 576.147,-12.7455 366.625,-9.84179 283.361,-10.4553"/>
<polygon fill="midnightblue" stroke="midnightblue" points="283.129,-6.95725 273.163,-10.5531 283.196,-13.9569 283.129,-6.95725"/>
</g>
<!-- Node6 -->
<g id="node6" class="node"><title>Node6</title>
<g id="a_node6"><a xlink:href="ceptr__error_8h_source.html" target="_top" xlink:title="ceptr_error.h">
<polygon fill="white" stroke="black" points="343.5,-168.5 343.5,-187.5 414.5,-187.5 414.5,-168.5 343.5,-168.5"/>
<text text-anchor="middle" x="379" y="-175.5" font-family="Helvetica,sans-Serif" font-size="10.00">ceptr_error.h</text>
</a>
</g>
</g>
<!-- Node2&#45;&gt;Node6 -->
<g id="edge5" class="edge"><title>Node2&#45;&gt;Node6</title>
<path fill="none" stroke="midnightblue" d="M422.527,-336.075C415.286,-309.945 394.022,-233.211 384.148,-197.577"/>
<polygon fill="midnightblue" stroke="midnightblue" points="387.418,-196.27 381.374,-187.568 380.672,-198.14 387.418,-196.27"/>
</g>
<!-- Node10 -->
<g id="node10" class="node"><title>Node10</title>
<g id="a_node10"><a xlink:href="tree_8h.html" target="_top" xlink:title="semantic trees header file ">
<polygon fill="white" stroke="black" points="207.5,-280.5 207.5,-299.5 248.5,-299.5 248.5,-280.5 207.5,-280.5"/>
<text text-anchor="middle" x="228" y="-287.5" font-family="Helvetica,sans-Serif" font-size="10.00">tree.h</text>
</a>
</g>
</g>
<!-- Node2&#45;&gt;Node10 -->
<g id="edge10" class="edge"><title>Node2&#45;&gt;Node10</title>
<path fill="none" stroke="midnightblue" d="M393.785,-336.444C356.596,-326.25 294.896,-309.337 258.173,-299.271"/>
<polygon fill="midnightblue" stroke="midnightblue" points="259.088,-295.893 248.518,-296.624 257.237,-302.644 259.088,-295.893"/>
</g>
<!-- Node18 -->
<g id="node18" class="node"><title>Node18</title>
<g id="a_node18"><a xlink:href="stream_8h.html" target="_top" xlink:title="streams abstraction header file ">
<polygon fill="white" stroke="black" points="425.5,-224.5 425.5,-243.5 480.5,-243.5 480.5,-224.5 425.5,-224.5"/>
<text text-anchor="middle" x="453" y="-231.5" font-family="Helvetica,sans-Serif" font-size="10.00">stream.h</text>
</a>
</g>
</g>
<!-- Node2&#45;&gt;Node18 -->
<g id="edge34" class="edge"><title>Node2&#45;&gt;Node18</title>
<path fill="none" stroke="midnightblue" d="M427.197,-336.368C431.716,-318.617 442.139,-277.666 448.266,-253.597"/>
<polygon fill="midnightblue" stroke="midnightblue" points="451.738,-254.146 450.813,-243.591 444.954,-252.419 451.738,-254.146"/>
</g>
<!-- Node19 -->
<g id="node19" class="node"><title>Node19</title>
<g id="a_node19"><a xlink:href="mtree_8h.html" target="_top" xlink:title="semantic tree matrix header file `` ">
<polygon fill="white" stroke="black" points="281,-224.5 281,-243.5 331,-243.5 331,-224.5 281,-224.5"/>
<text text-anchor="middle" x="306" y="-231.5" font-family="Helvetica,sans-Serif" font-size="10.00">mtree.h</text>
</a>
</g>
</g>
<!-- Node2&#45;&gt;Node19 -->
<g id="edge28" class="edge"><title>Node2&#45;&gt;Node19</title>
<path fill="none" stroke="midnightblue" d="M415.662,-336.368C395.589,-317.814 348.097,-273.913 322.701,-250.438"/>
<polygon fill="midnightblue" stroke="midnightblue" points="325.013,-247.809 315.294,-243.591 320.262,-252.95 325.013,-247.809"/>
</g>
<!-- Node20 -->
<g id="node20" class="node"><title>Node20</title>
<g id="a_node20"><a xlink:href="util_8h.html" target="_top" xlink:title="util.h">
<polygon fill="white" stroke="black" points="676,-112.5 676,-131.5 714,-131.5 714,-112.5 676,-112.5"/>
<text text-anchor="middle" x="695" y="-119.5" font-family="Helvetica,sans-Serif" font-size="10.00">util.h</text>
</a>
</g>
</g>
<!-- Node2&#45;&gt;Node20 -->
<g id="edge35" class="edge"><title>Node2&#45;&gt;Node20</title>
<path fill="none" stroke="midnightblue" d="M461.346,-343C520.639,-338.962 634.357,-327.735 662,-300 704.81,-257.048 701.687,-177.545 697.663,-141.557"/>
<polygon fill="midnightblue" stroke="midnightblue" points="701.118,-140.981 696.383,-131.503 694.174,-141.865 701.118,-140.981"/>
</g>
<!-- Node23 -->
<g id="node23" class="node"><title>Node23</title>
<g id="a_node23"><a xlink:href="debug_8h.html" target="_top" xlink:title="debug.h">
<polygon fill="white" stroke="black" points="568.5,-280.5 568.5,-299.5 619.5,-299.5 619.5,-280.5 568.5,-280.5"/>
<text text-anchor="middle" x="594" y="-287.5" font-family="Helvetica,sans-Serif" font-size="10.00">debug.h</text>
</a>
</g>
</g>
<!-- Node2&#45;&gt;Node23 -->
<g id="edge40" class="edge"><title>Node2&#45;&gt;Node23</title>
<path fill="none" stroke="midnightblue" d="M451.779,-336.444C480.669,-327.212 526.803,-312.471 558.654,-302.294"/>
<polygon fill="midnightblue" stroke="midnightblue" points="559.993,-305.541 568.453,-299.163 557.862,-298.873 559.993,-305.541"/>
</g>
<!-- Node6&#45;&gt;Node4 -->
<g id="edge6" class="edge"><title>Node6&#45;&gt;Node4</title>
<path fill="none" stroke="midnightblue" d="M404.747,-168.472C425.115,-160.928 453.59,-148.546 475,-132 492.521,-118.459 508.153,-98.2897 518.033,-84.0155"/>
<polygon fill="midnightblue" stroke="midnightblue" points="521.002,-85.8722 523.657,-75.6154 515.185,-81.9779 521.002,-85.8722"/>
</g>
<!-- Node7 -->
<g id="node7" class="node"><title>Node7</title>
<polygon fill="white" stroke="#bfbfbf" points="274,-112.5 274,-131.5 324,-131.5 324,-112.5 274,-112.5"/>
<text text-anchor="middle" x="299" y="-119.5" font-family="Helvetica,sans-Serif" font-size="10.00">signal.h</text>
</g>
<!-- Node6&#45;&gt;Node7 -->
<g id="edge7" class="edge"><title>Node6&#45;&gt;Node7</title>
<path fill="none" stroke="midnightblue" d="M366.147,-168.324C353.784,-159.979 334.87,-147.212 320.263,-137.352"/>
<polygon fill="midnightblue" stroke="midnightblue" points="322.068,-134.348 311.821,-131.655 318.152,-140.15 322.068,-134.348"/>
</g>
<!-- Node8 -->
<g id="node8" class="node"><title>Node8</title>
<polygon fill="white" stroke="#bfbfbf" points="342,-112.5 342,-131.5 394,-131.5 394,-112.5 342,-112.5"/>
<text text-anchor="middle" x="368" y="-119.5" font-family="Helvetica,sans-Serif" font-size="10.00">assert.h</text>
</g>
<!-- Node6&#45;&gt;Node8 -->
<g id="edge8" class="edge"><title>Node6&#45;&gt;Node8</title>
<path fill="none" stroke="midnightblue" d="M377.184,-168.083C375.726,-160.927 373.629,-150.635 371.807,-141.691"/>
<polygon fill="midnightblue" stroke="midnightblue" points="375.208,-140.851 369.783,-131.751 368.349,-142.248 375.208,-140.851"/>
</g>
<!-- Node9 -->
<g id="node9" class="node"><title>Node9</title>
<polygon fill="white" stroke="#bfbfbf" points="412,-112.5 412,-131.5 466,-131.5 466,-112.5 412,-112.5"/>
<text text-anchor="middle" x="439" y="-119.5" font-family="Helvetica,sans-Serif" font-size="10.00">setjmp.h</text>
</g>
<!-- Node6&#45;&gt;Node9 -->
<g id="edge9" class="edge"><title>Node6&#45;&gt;Node9</title>
<path fill="none" stroke="midnightblue" d="M388.64,-168.324C397.51,-160.341 410.875,-148.313 421.608,-138.653"/>
<polygon fill="midnightblue" stroke="midnightblue" points="424.093,-141.125 429.185,-131.834 419.41,-135.922 424.093,-141.125"/>
</g>
<!-- Node10&#45;&gt;Node3 -->
<g id="edge11" class="edge"><title>Node10&#45;&gt;Node3</title>
<path fill="none" stroke="midnightblue" d="M207.305,-286.805C158.061,-280.323 38,-256.565 38,-179 38,-179 38,-179 38,-121 38,-88.9361 36.7105,-51.6344 35.8224,-29.7446"/>
<polygon fill="midnightblue" stroke="midnightblue" points="39.311,-29.399 35.3922,-19.5556 32.3172,-29.6944 39.311,-29.399"/>
</g>
<!-- Node10&#45;&gt;Node5 -->
<g id="edge12" class="edge"><title>Node10&#45;&gt;Node5</title>
<path fill="none" stroke="midnightblue" d="M207.369,-281.252C190.44,-273.953 166.91,-261.514 152,-244 113.578,-198.869 107.008,-165.268 133,-112 138.512,-100.703 198.673,-51.3825 230.108,-26.0856"/>
<polygon fill="midnightblue" stroke="midnightblue" points="232.534,-28.6269 238.144,-19.6391 228.153,-23.1668 232.534,-28.6269"/>
</g>
<!-- Node10&#45;&gt;Node6 -->
<g id="edge13" class="edge"><title>Node10&#45;&gt;Node6</title>
<path fill="none" stroke="midnightblue" d="M248.678,-284.904C272.876,-279.232 313.056,-266.982 340,-244 354.825,-231.355 365.547,-211.594 371.953,-197.178"/>
<polygon fill="midnightblue" stroke="midnightblue" points="375.244,-198.381 375.852,-187.804 368.78,-195.693 375.244,-198.381"/>
</g>
<!-- Node11 -->
<g id="node11" class="node"><title>Node11</title>
<g id="a_node11"><a xlink:href="sys__defs_8h.html" target="_top" xlink:title="Defines types and vars for system defined semantics. ">
<polygon fill="white" stroke="black" points="145.5,-168.5 145.5,-187.5 210.5,-187.5 210.5,-168.5 145.5,-168.5"/>
<text text-anchor="middle" x="178" y="-175.5" font-family="Helvetica,sans-Serif" font-size="10.00">sys_defs.h</text>
</a>
</g>
</g>
<!-- Node10&#45;&gt;Node11 -->
<g id="edge14" class="edge"><title>Node10&#45;&gt;Node11</title>
<path fill="none" stroke="midnightblue" d="M215.566,-280.218C205.175,-272.112 190.97,-259.075 184,-244 177.312,-229.535 176.161,-211.348 176.482,-197.893"/>
<polygon fill="midnightblue" stroke="midnightblue" points="179.978,-198.06 177.009,-187.889 172.988,-197.691 179.978,-198.06"/>
</g>
<!-- Node12 -->
<g id="node12" class="node"><title>Node12</title>
<g id="a_node12"><a xlink:href="ceptr__types_8h_source.html" target="_top" xlink:title="ceptr_types.h">
<polygon fill="white" stroke="black" points="142,-112.5 142,-131.5 218,-131.5 218,-112.5 142,-112.5"/>
<text text-anchor="middle" x="180" y="-119.5" font-family="Helvetica,sans-Serif" font-size="10.00">ceptr_types.h</text>
</a>
</g>
</g>
<!-- Node10&#45;&gt;Node12 -->
<g id="edge25" class="edge"><title>Node10&#45;&gt;Node12</title>
<path fill="none" stroke="midnightblue" d="M214.802,-280.413C192.711,-265.072 149.355,-230.544 136,-188 133.338,-179.519 132.645,-176.231 136,-168 140.8,-156.225 150.329,-145.856 159.295,-138.049"/>
<polygon fill="midnightblue" stroke="midnightblue" points="161.65,-140.645 167.219,-131.631 157.245,-135.205 161.65,-140.645"/>
</g>
<!-- Node17 -->
<g id="node17" class="node"><title>Node17</title>
<g id="a_node17"><a xlink:href="base__defs_8h.html" target="_top" xlink:title="auto&#45;generated system definitions ">
<polygon fill="white" stroke="black" points="193,-224.5 193,-243.5 263,-243.5 263,-224.5 193,-224.5"/>
<text text-anchor="middle" x="228" y="-231.5" font-family="Helvetica,sans-Serif" font-size="10.00">base_defs.h</text>
</a>
</g>
</g>
<!-- Node10&#45;&gt;Node17 -->
<g id="edge23" class="edge"><title>Node10&#45;&gt;Node17</title>
<path fill="none" stroke="midnightblue" d="M228,-280.083C228,-273.006 228,-262.861 228,-253.986"/>
<polygon fill="midnightblue" stroke="midnightblue" points="231.5,-253.751 228,-243.751 224.5,-253.751 231.5,-253.751"/>
</g>
<!-- Node10&#45;&gt;Node18 -->
<g id="edge26" class="edge"><title>Node10&#45;&gt;Node18</title>
<path fill="none" stroke="midnightblue" d="M248.764,-284.017C286.67,-274.919 367.571,-255.503 415.392,-244.026"/>
<polygon fill="midnightblue" stroke="midnightblue" points="416.447,-247.372 425.354,-241.635 414.814,-240.565 416.447,-247.372"/>
</g>
<!-- Node11&#45;&gt;Node12 -->
<g id="edge15" class="edge"><title>Node11&#45;&gt;Node12</title>
<path fill="none" stroke="midnightblue" d="M178.33,-168.083C178.592,-161.006 178.968,-150.861 179.297,-141.986"/>
<polygon fill="midnightblue" stroke="midnightblue" points="182.803,-141.874 179.676,-131.751 175.808,-141.615 182.803,-141.874"/>
</g>
<!-- Node12&#45;&gt;Node4 -->
<g id="edge17" class="edge"><title>Node12&#45;&gt;Node4</title>
<path fill="none" stroke="midnightblue" d="M218.013,-115.118C286.794,-104.476 430.789,-82.196 495.842,-72.1304"/>
<polygon fill="midnightblue" stroke="midnightblue" points="496.599,-75.5551 505.946,-70.5671 495.528,-68.6374 496.599,-75.5551"/>
</g>
<!-- Node13 -->
<g id="node13" class="node"><title>Node13</title>
<polygon fill="white" stroke="#bfbfbf" points="570.5,-56.5 570.5,-75.5 619.5,-75.5 619.5,-56.5 570.5,-56.5"/>
<text text-anchor="middle" x="595" y="-63.5" font-family="Helvetica,sans-Serif" font-size="10.00">stdint.h</text>
</g>
<!-- Node12&#45;&gt;Node13 -->
<g id="edge16" class="edge"><title>Node12&#45;&gt;Node13</title>
<path fill="none" stroke="midnightblue" d="M218.292,-116.789C302.6,-107.475 500.89,-85.3255 560.263,-75.7374"/>
<polygon fill="midnightblue" stroke="midnightblue" points="560.964,-79.1679 570.21,-73.9947 559.756,-72.2729 560.964,-79.1679"/>
</g>
<!-- Node14 -->
<g id="node14" class="node"><title>Node14</title>
<g id="a_node14"><a xlink:href="uthash_8h_source.html" target="_top" xlink:title="uthash.h">
<polygon fill="white" stroke="black" points="104,-56.5 104,-75.5 158,-75.5 158,-56.5 104,-56.5"/>
<text text-anchor="middle" x="131" y="-63.5" font-family="Helvetica,sans-Serif" font-size="10.00">uthash.h</text>
</a>
</g>
</g>
<!-- Node12&#45;&gt;Node14 -->
<g id="edge18" class="edge"><title>Node12&#45;&gt;Node14</title>
<path fill="none" stroke="midnightblue" d="M171.909,-112.083C164.845,-104.298 154.412,-92.8015 145.851,-83.3665"/>
<polygon fill="midnightblue" stroke="midnightblue" points="148.253,-80.8047 138.941,-75.7511 143.069,-85.5087 148.253,-80.8047"/>
</g>
<!-- Node14&#45;&gt;Node3 -->
<g id="edge19" class="edge"><title>Node14&#45;&gt;Node3</title>
<path fill="none" stroke="midnightblue" d="M115.576,-56.324C100.46,-47.8215 77.1846,-34.7288 59.5288,-24.7975"/>
<polygon fill="midnightblue" stroke="midnightblue" points="60.8175,-21.5066 50.3858,-19.6545 57.3856,-27.6077 60.8175,-21.5066"/>
</g>
<!-- Node14&#45;&gt;Node5 -->
<g id="edge21" class="edge"><title>Node14&#45;&gt;Node5</title>
<path fill="none" stroke="midnightblue" d="M149.697,-56.4435C168.944,-47.6356 199.152,-33.8116 221.2,-23.722"/>
<polygon fill="midnightblue" stroke="midnightblue" points="222.753,-26.8603 230.39,-19.5164 219.84,-20.4951 222.753,-26.8603"/>
</g>
<!-- Node15 -->
<g id="node15" class="node"><title>Node15</title>
<polygon fill="white" stroke="#bfbfbf" points="155,-0.5 155,-19.5 207,-19.5 207,-0.5 155,-0.5"/>
<text text-anchor="middle" x="181" y="-7.5" font-family="Helvetica,sans-Serif" font-size="10.00">stddef.h</text>
</g>
<!-- Node14&#45;&gt;Node15 -->
<g id="edge20" class="edge"><title>Node14&#45;&gt;Node15</title>
<path fill="none" stroke="midnightblue" d="M139.256,-56.083C146.465,-48.2982 157.11,-36.8015 165.846,-27.3665"/>
<polygon fill="midnightblue" stroke="midnightblue" points="168.671,-29.4666 172.897,-19.7511 163.535,-24.7108 168.671,-29.4666"/>
</g>
<!-- Node16 -->
<g id="node16" class="node"><title>Node16</title>
<polygon fill="white" stroke="#bfbfbf" points="77.5,-0.5 77.5,-19.5 136.5,-19.5 136.5,-0.5 77.5,-0.5"/>
<text text-anchor="middle" x="107" y="-7.5" font-family="Helvetica,sans-Serif" font-size="10.00">inttypes.h</text>
</g>
<!-- Node14&#45;&gt;Node16 -->
<g id="edge22" class="edge"><title>Node14&#45;&gt;Node16</title>
<path fill="none" stroke="midnightblue" d="M127.037,-56.083C123.787,-48.77 119.081,-38.1814 115.046,-29.1034"/>
<polygon fill="midnightblue" stroke="midnightblue" points="118.149,-27.4677 110.889,-19.7511 111.752,-30.3107 118.149,-27.4677"/>
</g>
<!-- Node17&#45;&gt;Node11 -->
<g id="edge24" class="edge"><title>Node17&#45;&gt;Node11</title>
<path fill="none" stroke="midnightblue" d="M219.744,-224.083C212.535,-216.298 201.89,-204.801 193.154,-195.367"/>
<polygon fill="midnightblue" stroke="midnightblue" points="195.465,-192.711 186.103,-187.751 190.329,-197.467 195.465,-192.711"/>
</g>
<!-- Node18&#45;&gt;Node4 -->
<g id="edge27" class="edge"><title>Node18&#45;&gt;Node4</title>
<path fill="none" stroke="midnightblue" d="M457.07,-224.375C465.277,-206.956 484.361,-166.318 500,-132 507.197,-116.207 515.226,-98.1777 521.008,-85.1199"/>
<polygon fill="midnightblue" stroke="midnightblue" points="524.263,-86.4128 525.104,-75.8514 517.861,-83.5831 524.263,-86.4128"/>
</g>
<!-- Node19&#45;&gt;Node3 -->
<g id="edge29" class="edge"><title>Node19&#45;&gt;Node3</title>
<path fill="none" stroke="midnightblue" d="M296.12,-224.333C280.543,-210.976 248.959,-185.116 219,-168 183.022,-147.445 166.155,-156.853 133,-132 93.6809,-102.527 60.789,-53.9018 45.0214,-28.1834"/>
<polygon fill="midnightblue" stroke="midnightblue" points="47.9817,-26.3143 39.839,-19.5359 41.9773,-29.9127 47.9817,-26.3143"/>
</g>
<!-- Node19&#45;&gt;Node5 -->
<g id="edge30" class="edge"><title>Node19&#45;&gt;Node5</title>
<path fill="none" stroke="midnightblue" d="M302.087,-224.193C292.814,-203.198 269.911,-150.57 265,-132 255.642,-96.6144 251.628,-53.8925 250.007,-29.8448"/>
<polygon fill="midnightblue" stroke="midnightblue" points="253.488,-29.424 249.39,-19.6537 246.501,-29.8468 253.488,-29.424"/>
</g>
<!-- Node19&#45;&gt;Node6 -->
<g id="edge31" class="edge"><title>Node19&#45;&gt;Node6</title>
<path fill="none" stroke="midnightblue" d="M317.729,-224.324C328.837,-216.107 345.742,-203.602 358.983,-193.807"/>
<polygon fill="midnightblue" stroke="midnightblue" points="361.1,-196.595 367.058,-187.834 356.937,-190.967 361.1,-196.595"/>
</g>
<!-- Node19&#45;&gt;Node11 -->
<g id="edge32" class="edge"><title>Node19&#45;&gt;Node11</title>
<path fill="none" stroke="midnightblue" d="M285.718,-224.444C264.653,-215.557 231.483,-201.563 207.514,-191.451"/>
<polygon fill="midnightblue" stroke="midnightblue" points="208.761,-188.179 198.187,-187.516 206.04,-194.628 208.761,-188.179"/>
</g>
<!-- Node19&#45;&gt;Node12 -->
<g id="edge33" class="edge"><title>Node19&#45;&gt;Node12</title>
<path fill="none" stroke="midnightblue" d="M300.271,-224.224C291.31,-210.95 272.93,-185.466 253,-168 238.855,-155.604 220.894,-144.484 206.327,-136.4"/>
<polygon fill="midnightblue" stroke="midnightblue" points="207.783,-133.208 197.32,-131.542 204.46,-139.369 207.783,-133.208"/>
</g>
<!-- Node20&#45;&gt;Node4 -->
<g id="edge37" class="edge"><title>Node20&#45;&gt;Node4</title>
<path fill="none" stroke="midnightblue" d="M675.958,-114.806C648.054,-105.728 595.679,-88.6908 561.582,-77.5989"/>
<polygon fill="midnightblue" stroke="midnightblue" points="562.652,-74.2666 552.06,-74.5014 560.487,-80.9232 562.652,-74.2666"/>
</g>
<!-- Node20&#45;&gt;Node13 -->
<g id="edge39" class="edge"><title>Node20&#45;&gt;Node13</title>
<path fill="none" stroke="midnightblue" d="M678.933,-112.324C663.042,-103.743 638.493,-90.486 620.042,-80.5224"/>
<polygon fill="midnightblue" stroke="midnightblue" points="621.489,-77.3264 611.027,-75.6545 618.163,-83.4857 621.489,-77.3264"/>
</g>
<!-- Node21 -->
<g id="node21" class="node"><title>Node21</title>
<polygon fill="white" stroke="#bfbfbf" points="676.5,-56.5 676.5,-75.5 725.5,-75.5 725.5,-56.5 676.5,-56.5"/>
<text text-anchor="middle" x="701" y="-63.5" font-family="Helvetica,sans-Serif" font-size="10.00">ctype.h</text>
</g>
<!-- Node20&#45;&gt;Node21 -->
<g id="edge36" class="edge"><title>Node20&#45;&gt;Node21</title>
<path fill="none" stroke="midnightblue" d="M695.991,-112.083C696.786,-104.927 697.929,-94.6353 698.923,-85.6911"/>
<polygon fill="midnightblue" stroke="midnightblue" points="702.402,-86.0765 700.028,-75.7511 695.445,-85.3034 702.402,-86.0765"/>
</g>
<!-- Node22 -->
<g id="node22" class="node"><title>Node22</title>
<polygon fill="white" stroke="#bfbfbf" points="744,-56.5 744,-75.5 788,-75.5 788,-56.5 744,-56.5"/>
<text text-anchor="middle" x="766" y="-63.5" font-family="Helvetica,sans-Serif" font-size="10.00">time.h</text>
</g>
<!-- Node20&#45;&gt;Node22 -->
<g id="edge38" class="edge"><title>Node20&#45;&gt;Node22</title>
<path fill="none" stroke="midnightblue" d="M706.407,-112.324C717.109,-104.185 733.341,-91.8395 746.163,-82.0874"/>
<polygon fill="midnightblue" stroke="midnightblue" points="748.544,-84.6734 754.385,-75.8339 744.307,-79.1018 748.544,-84.6734"/>
</g>
<!-- Node23&#45;&gt;Node4 -->
<g id="edge41" class="edge"><title>Node23&#45;&gt;Node4</title>
<path fill="none" stroke="midnightblue" d="M595.838,-280.265C601.031,-253.375 613.594,-170.152 584,-112 577.465,-99.1594 565.447,-88.6696 554.308,-81.0579"/>
<polygon fill="midnightblue" stroke="midnightblue" points="556.003,-77.988 545.685,-75.5806 552.25,-83.8968 556.003,-77.988"/>
</g>
<!-- Node24&#45;&gt;Node10 -->
<g id="edge43" class="edge"><title>Node24&#45;&gt;Node10</title>
<path fill="none" stroke="midnightblue" d="M281.717,-336.324C272.164,-328.263 257.72,-316.077 246.216,-306.369"/>
<polygon fill="midnightblue" stroke="midnightblue" points="248.37,-303.608 238.47,-299.834 243.856,-308.958 248.37,-303.608"/>
</g>
</g>
</svg>
        <g id="navigator" transform="translate(0 0)" fill="#404254">
                <rect fill="#f2f5e9" fill-opacity="0.5" stroke="#606060" stroke-width=".5" x="0" y="0" width="60" height="60"/>
                <use id="zoomplus" xlink:href="#zoomPlus" x="17" y="9" onmousedown="handleZoom(evt,'in')"/>
                <use id="zoomminus" xlink:href="#zoomMin" x="42" y="9" onmousedown="handleZoom(evt,'out')"/>
                <use id="reset" xlink:href="#resetDef" x="30" y="36" onmousedown="handleReset()"/>
                <g id="arrowUp" xlink:href="#dirArrow" transform="translate(30 24)" onmousedown="handlePan(0,-1)">
                  <use xlink:href="#rim" fill="#404040">
                        <set attributeName="fill" to="#808080" begin="arrowUp.mouseover" end="arrowUp.mouseout"/>
                  </use>
                  <path fill="none" stroke="white" stroke-width="1.5" d="M0,-3.0v7 M-2.5,-0.5L0,-3.0L2.5,-0.5"/>
                </g>
                <g id="arrowRight" xlink:href="#dirArrow" transform="rotate(90) translate(36 -43)" onmousedown="handlePan(1,0)">
                  <use xlink:href="#rim" fill="#404040">
                        <set attributeName="fill" to="#808080" begin="arrowRight.mouseover" end="arrowRight.mouseout"/>
                  </use>
                  <path fill="none" stroke="white" stroke-width="1.5" d="M0,-3.0v7 M-2.5,-0.5L0,-3.0L2.5,-0.5"/>
                </g>
                <g id="arrowDown" xlink:href="#dirArrow" transform="rotate(180) translate(-30 -48)" onmousedown="handlePan(0,1)">
                  <use xlink:href="#rim" fill="#404040">
                        <set attributeName="fill" to="#808080" begin="arrowDown.mouseover" end="arrowDown.mouseout"/>
                  </use>
                  <path fill="none" stroke="white" stroke-width="1.5" d="M0,-3.0v7 M-2.5,-0.5L0,-3.0L2.5,-0.5"/>
                </g>
                <g id="arrowLeft" xlink:href="#dirArrow" transform="rotate(270) translate(-36 17)" onmousedown="handlePan(-1,0)">
                  <use xlink:href="#rim" fill="#404040">
                        <set attributeName="fill" to="#808080" begin="arrowLeft.mouseover" end="arrowLeft.mouseout"/>
                  </use>
                  <path fill="none" stroke="white" stroke-width="1.5" d="M0,-3.0v7 M-2.5,-0.5L0,-3.0L2.5,-0.5"/>
                </g>
        </g>
        <svg viewBox="0 0 15 15" width="100%" height="30px" preserveAspectRatio="xMaxYMin meet">
         <g id="arrow_out" transform="scale(0.3 0.3)">
          <a xlink:href="process__spec_8h__incl_org.svg" target="_base">
           <rect id="button" ry="5" rx="5" y="6" x="6" height="38" width="38"
                fill="#f2f5e9" fill-opacity="0.5" stroke="#606060" stroke-width="1.0"/>
           <path id="arrow"
             d="M 11.500037,31.436501 C 11.940474,20.09759 22.043105,11.32322 32.158766,21.979434 L 37.068811,17.246167 C 37.068811,17.246167 37.088388,32 37.088388,32 L 22.160133,31.978069 C 22.160133,31.978069 26.997745,27.140456 26.997745,27.140456 C 18.528582,18.264221 13.291696,25.230495 11.500037,31.436501 z"
             style="fill:#404040;"/>
          </a>
         </g>
        </svg>
</svg>
