<?xml version="1.0" encoding="UTF-8" standalone="no"?>
<!DOCTYPE svg PUBLIC "-//W3C//DTD SVG 1.1//EN"
 "http://www.w3.org/Graphics/SVG/1.1/DTD/svg11.dtd">
<!-- Generated by graphviz version 2.38.0 (20140413.2041)
 -->
<!-- Title: spec/process_spec.h Pages: 1 -->
<svg width="648pt" height="420pt"
 viewBox="0.00 0.00 648.00 420.00" xmlns="http://www.w3.org/2000/svg" xmlns:xlink="http://www.w3.org/1999/xlink">
<g id="graph0" class="graph" transform="scale(1 1) rotate(0) translate(4 416)">
<title>spec/process_spec.h</title>
<polygon fill="white" stroke="none" points="-4,4 -4,-416 644,-416 644,4 -4,4"/>
<!-- Node1 -->
<g id="node1" class="node"><title>Node1</title>
<polygon fill="#bfbfbf" stroke="black" points="324,-392.5 324,-411.5 434,-411.5 434,-392.5 324,-392.5"/>
<text text-anchor="middle" x="379" y="-399.5" font-family="Helvetica,sans-Serif" font-size="10.00">spec/process_spec.h</text>
</g>
<!-- Node2 -->
<g id="node2" class="node"><title>Node2</title>
<g id="a_node2"><a xlink:href="ceptr_8h_source.html" target="_top" xlink:title="../src/ceptr.h">
<polygon fill="white" stroke="black" points="395,-336.5 395,-355.5 467,-355.5 467,-336.5 395,-336.5"/>
<text text-anchor="middle" x="431" y="-343.5" font-family="Helvetica,sans-Serif" font-size="10.00">../src/ceptr.h</text>
</a>
</g>
</g>
<!-- Node1&#45;&gt;Node2 -->
<g id="edge1" class="edge"><title>Node1&#45;&gt;Node2</title>
<path fill="none" stroke="midnightblue" d="M387.587,-392.083C395.159,-384.22 406.378,-372.569 415.514,-363.081"/>
<polygon fill="midnightblue" stroke="midnightblue" points="418.158,-365.382 422.573,-355.751 413.115,-360.527 418.158,-365.382"/>
</g>
<!-- Node19 -->
<g id="node19" class="node"><title>Node19</title>
<g id="a_node19"><a xlink:href="process_8h.html" target="_top" xlink:title="processing header files ">
<polygon fill="white" stroke="black" points="284.5,-336.5 284.5,-355.5 369.5,-355.5 369.5,-336.5 284.5,-336.5"/>
<text text-anchor="middle" x="327" y="-343.5" font-family="Helvetica,sans-Serif" font-size="10.00">../src/process.h</text>
</a>
</g>
</g>
<!-- Node1&#45;&gt;Node19 -->
<g id="edge27" class="edge"><title>Node1&#45;&gt;Node19</title>
<path fill="none" stroke="midnightblue" d="M370.413,-392.083C362.841,-384.22 351.622,-372.569 342.486,-363.081"/>
<polygon fill="midnightblue" stroke="midnightblue" points="344.885,-360.527 335.427,-355.751 339.842,-365.382 344.885,-360.527"/>
</g>
<!-- Node3 -->
<g id="node3" class="node"><title>Node3</title>
<polygon fill="white" stroke="#bfbfbf" points="13.5,-0.5 13.5,-19.5 62.5,-19.5 62.5,-0.5 13.5,-0.5"/>
<text text-anchor="middle" x="38" y="-7.5" font-family="Helvetica,sans-Serif" font-size="10.00">string.h</text>
</g>
<!-- Node2&#45;&gt;Node3 -->
<g id="edge2" class="edge"><title>Node2&#45;&gt;Node3</title>
<path fill="none" stroke="midnightblue" d="M394.995,-337.736C291.408,-316.596 0,-255.32 0,-235 0,-235 0,-235 0,-121 0,-86.8131 16.6005,-49.7639 27.8573,-28.5707"/>
<polygon fill="midnightblue" stroke="midnightblue" points="30.9473,-30.2151 32.7163,-19.769 24.8191,-26.832 30.9473,-30.2151"/>
</g>
<!-- Node4 -->
<g id="node4" class="node"><title>Node4</title>
<polygon fill="white" stroke="#bfbfbf" points="566,-168.5 566,-187.5 612,-187.5 612,-168.5 566,-168.5"/>
<text text-anchor="middle" x="589" y="-175.5" font-family="Helvetica,sans-Serif" font-size="10.00">stdio.h</text>
</g>
<!-- Node2&#45;&gt;Node4 -->
<g id="edge3" class="edge"><title>Node2&#45;&gt;Node4</title>
<path fill="none" stroke="midnightblue" d="M439.495,-336.075C465.011,-309.267 541.229,-229.19 573.88,-194.885"/>
<polygon fill="midnightblue" stroke="midnightblue" points="576.486,-197.225 580.845,-187.568 571.415,-192.399 576.486,-197.225"/>
</g>
<!-- Node5 -->
<g id="node5" class="node"><title>Node5</title>
<polygon fill="white" stroke="#bfbfbf" points="304,-0.5 304,-19.5 352,-19.5 352,-0.5 304,-0.5"/>
<text text-anchor="middle" x="328" y="-7.5" font-family="Helvetica,sans-Serif" font-size="10.00">stdlib.h</text>
</g>
<!-- Node2&#45;&gt;Node5 -->
<g id="edge4" class="edge"><title>Node2&#45;&gt;Node5</title>
<path fill="none" stroke="midnightblue" d="M467.405,-342.156C527.285,-335.276 640,-312.087 640,-235 640,-235 640,-235 640,-121 640,-62.6666 443.563,-27.649 362.426,-15.6732"/>
<polygon fill="midnightblue" stroke="midnightblue" points="362.62,-12.165 352.222,-14.1994 361.619,-19.0931 362.62,-12.165"/>
</g>
<!-- Node6 -->
<g id="node6" class="node"><title>Node6</title>
<g id="a_node6"><a xlink:href="ceptr__error_8h_source.html" target="_top" xlink:title="ceptr_error.h">
<polygon fill="white" stroke="black" points="412.5,-224.5 412.5,-243.5 483.5,-243.5 483.5,-224.5 412.5,-224.5"/>
<text text-anchor="middle" x="448" y="-231.5" font-family="Helvetica,sans-Serif" font-size="10.00">ceptr_error.h</text>
</a>
</g>
</g>
<!-- Node2&#45;&gt;Node6 -->
<g id="edge5" class="edge"><title>Node2&#45;&gt;Node6</title>
<path fill="none" stroke="midnightblue" d="M432.334,-336.368C435.077,-318.617 441.406,-277.666 445.126,-253.597"/>
<polygon fill="midnightblue" stroke="midnightblue" points="448.604,-254.009 446.672,-243.591 441.686,-252.94 448.604,-254.009"/>
</g>
<!-- Node10 -->
<g id="node10" class="node"><title>Node10</title>
<g id="a_node10"><a xlink:href="tree_8h.html" target="_top" xlink:title="semantic trees header file ">
<polygon fill="white" stroke="black" points="304.5,-280.5 304.5,-299.5 345.5,-299.5 345.5,-280.5 304.5,-280.5"/>
<text text-anchor="middle" x="325" y="-287.5" font-family="Helvetica,sans-Serif" font-size="10.00">tree.h</text>
</a>
</g>
</g>
<!-- Node2&#45;&gt;Node10 -->
<g id="edge10" class="edge"><title>Node2&#45;&gt;Node10</title>
<path fill="none" stroke="midnightblue" d="M413.969,-336.324C396.97,-327.664 370.624,-314.242 351.007,-304.249"/>
<polygon fill="midnightblue" stroke="midnightblue" points="352.488,-301.075 341.988,-299.655 349.31,-307.312 352.488,-301.075"/>
</g>
<!-- Node6&#45;&gt;Node4 -->
<g id="edge6" class="edge"><title>Node6&#45;&gt;Node4</title>
<path fill="none" stroke="midnightblue" d="M470.342,-224.444C493.753,-215.478 530.736,-201.314 557.19,-191.183"/>
<polygon fill="midnightblue" stroke="midnightblue" points="558.676,-194.361 566.763,-187.516 556.172,-187.824 558.676,-194.361"/>
</g>
<!-- Node7 -->
<g id="node7" class="node"><title>Node7</title>
<polygon fill="white" stroke="#bfbfbf" points="356,-168.5 356,-187.5 406,-187.5 406,-168.5 356,-168.5"/>
<text text-anchor="middle" x="381" y="-175.5" font-family="Helvetica,sans-Serif" font-size="10.00">signal.h</text>
</g>
<!-- Node6&#45;&gt;Node7 -->
<g id="edge7" class="edge"><title>Node6&#45;&gt;Node7</title>
<path fill="none" stroke="midnightblue" d="M437.235,-224.324C427.234,-216.263 412.113,-204.077 400.07,-194.369"/>
<polygon fill="midnightblue" stroke="midnightblue" points="401.943,-191.384 391.961,-187.834 397.55,-196.834 401.943,-191.384"/>
</g>
<!-- Node8 -->
<g id="node8" class="node"><title>Node8</title>
<polygon fill="white" stroke="#bfbfbf" points="424,-168.5 424,-187.5 476,-187.5 476,-168.5 424,-168.5"/>
<text text-anchor="middle" x="450" y="-175.5" font-family="Helvetica,sans-Serif" font-size="10.00">assert.h</text>
</g>
<!-- Node6&#45;&gt;Node8 -->
<g id="edge8" class="edge"><title>Node6&#45;&gt;Node8</title>
<path fill="none" stroke="midnightblue" d="M448.33,-224.083C448.592,-217.006 448.968,-206.861 449.297,-197.986"/>
<polygon fill="midnightblue" stroke="midnightblue" points="452.803,-197.874 449.676,-187.751 445.808,-197.615 452.803,-197.874"/>
</g>
<!-- Node9 -->
<g id="node9" class="node"><title>Node9</title>
<polygon fill="white" stroke="#bfbfbf" points="494,-168.5 494,-187.5 548,-187.5 548,-168.5 494,-168.5"/>
<text text-anchor="middle" x="521" y="-175.5" font-family="Helvetica,sans-Serif" font-size="10.00">setjmp.h</text>
</g>
<!-- Node6&#45;&gt;Node9 -->
<g id="edge9" class="edge"><title>Node6&#45;&gt;Node9</title>
<path fill="none" stroke="midnightblue" d="M459.729,-224.324C470.837,-216.107 487.742,-203.602 500.983,-193.807"/>
<polygon fill="midnightblue" stroke="midnightblue" points="503.1,-196.595 509.058,-187.834 498.937,-190.967 503.1,-196.595"/>
</g>
<!-- Node10&#45;&gt;Node3 -->
<g id="edge11" class="edge"><title>Node10&#45;&gt;Node3</title>
<path fill="none" stroke="midnightblue" d="M304.391,-287.188C252.833,-282.341 119.769,-267.805 83,-244 53.5052,-224.905 38,-214.136 38,-179 38,-179 38,-179 38,-121 38,-88.948 38,-51.6426 38,-29.7489"/>
<polygon fill="midnightblue" stroke="midnightblue" points="41.5001,-29.5577 38,-19.5578 34.5001,-29.5578 41.5001,-29.5577"/>
</g>
<!-- Node10&#45;&gt;Node5 -->
<g id="edge12" class="edge"><title>Node10&#45;&gt;Node5</title>
<path fill="none" stroke="midnightblue" d="M325.093,-280.375C325.51,-241.782 327.207,-84.4539 327.797,-29.8074"/>
<polygon fill="midnightblue" stroke="midnightblue" points="331.3,-29.5615 327.908,-19.5243 324.3,-29.4859 331.3,-29.5615"/>
</g>
<!-- Node10&#45;&gt;Node6 -->
<g id="edge13" class="edge"><title>Node10&#45;&gt;Node6</title>
<path fill="none" stroke="midnightblue" d="M344.49,-280.444C364.642,-271.596 396.323,-257.687 419.331,-247.586"/>
<polygon fill="midnightblue" stroke="midnightblue" points="420.852,-250.741 428.601,-243.516 418.038,-244.332 420.852,-250.741"/>
</g>
<!-- Node11 -->
<g id="node11" class="node"><title>Node11</title>
<g id="a_node11"><a xlink:href="sys__symbols_8h.html" target="_top" xlink:title="Defines hard&#45;coded system defined symbols. ">
<polygon fill="white" stroke="black" points="213.5,-224.5 213.5,-243.5 296.5,-243.5 296.5,-224.5 213.5,-224.5"/>
<text text-anchor="middle" x="255" y="-231.5" font-family="Helvetica,sans-Serif" font-size="10.00">sys_symbols.h</text>
</a>
</g>
</g>
<!-- Node10&#45;&gt;Node11 -->
<g id="edge14" class="edge"><title>Node10&#45;&gt;Node11</title>
<path fill="none" stroke="midnightblue" d="M313.753,-280.324C303.203,-272.185 287.199,-259.839 274.558,-250.087"/>
<polygon fill="midnightblue" stroke="midnightblue" points="276.507,-247.171 266.451,-243.834 272.231,-252.713 276.507,-247.171"/>
</g>
<!-- Node12 -->
<g id="node12" class="node"><title>Node12</title>
<g id="a_node12"><a xlink:href="sys__structures_8h.html" target="_top" xlink:title="Defines hard&#45;coded system defined structures. ">
<polygon fill="white" stroke="black" points="210.5,-168.5 210.5,-187.5 299.5,-187.5 299.5,-168.5 210.5,-168.5"/>
<text text-anchor="middle" x="255" y="-175.5" font-family="Helvetica,sans-Serif" font-size="10.00">sys_structures.h</text>
</a>
</g>
</g>
<!-- Node10&#45;&gt;Node12 -->
<g id="edge24" class="edge"><title>Node10&#45;&gt;Node12</title>
<path fill="none" stroke="midnightblue" d="M323.851,-280.386C321.794,-267.324 316.564,-242.112 305,-224 297.439,-212.157 285.941,-201.507 275.877,-193.544"/>
<polygon fill="midnightblue" stroke="midnightblue" points="277.972,-190.74 267.878,-187.519 273.76,-196.331 277.972,-190.74"/>
</g>
<!-- Node13 -->
<g id="node13" class="node"><title>Node13</title>
<g id="a_node13"><a xlink:href="ceptr__types_8h_source.html" target="_top" xlink:title="ceptr_types.h">
<polygon fill="white" stroke="black" points="144,-112.5 144,-131.5 220,-131.5 220,-112.5 144,-112.5"/>
<text text-anchor="middle" x="182" y="-119.5" font-family="Helvetica,sans-Serif" font-size="10.00">ceptr_types.h</text>
</a>
</g>
</g>
<!-- Node10&#45;&gt;Node13 -->
<g id="edge26" class="edge"><title>Node10&#45;&gt;Node13</title>
<path fill="none" stroke="midnightblue" d="M304.408,-288.187C253.049,-285.685 121.508,-276.197 95,-244 64.6567,-207.145 123.248,-160.559 158.337,-137.415"/>
<polygon fill="midnightblue" stroke="midnightblue" points="160.572,-140.14 167.101,-131.796 156.794,-134.247 160.572,-140.14"/>
</g>
<!-- Node18 -->
<g id="node18" class="node"><title>Node18</title>
<g id="a_node18"><a xlink:href="sys__processes_8h.html" target="_top" xlink:title="Defines hard&#45;coded system defined processes. ">
<polygon fill="white" stroke="black" points="104.5,-224.5 104.5,-243.5 195.5,-243.5 195.5,-224.5 104.5,-224.5"/>
<text text-anchor="middle" x="150" y="-231.5" font-family="Helvetica,sans-Serif" font-size="10.00">sys_processes.h</text>
</a>
</g>
</g>
<!-- Node10&#45;&gt;Node18 -->
<g id="edge25" class="edge"><title>Node10&#45;&gt;Node18</title>
<path fill="none" stroke="midnightblue" d="M304.238,-282.593C275.438,-273.707 222.89,-257.492 187.219,-246.485"/>
<polygon fill="midnightblue" stroke="midnightblue" points="188.226,-243.133 177.639,-243.529 186.162,-249.822 188.226,-243.133"/>
</g>
<!-- Node11&#45;&gt;Node12 -->
<g id="edge15" class="edge"><title>Node11&#45;&gt;Node12</title>
<path fill="none" stroke="midnightblue" d="M255,-224.083C255,-217.006 255,-206.861 255,-197.986"/>
<polygon fill="midnightblue" stroke="midnightblue" points="258.5,-197.751 255,-187.751 251.5,-197.751 258.5,-197.751"/>
</g>
<!-- Node11&#45;&gt;Node13 -->
<g id="edge23" class="edge"><title>Node11&#45;&gt;Node13</title>
<path fill="none" stroke="midnightblue" d="M240.54,-224.435C228.299,-216.469 211.169,-203.514 201,-188 191.836,-174.019 186.99,-155.517 184.493,-141.829"/>
<polygon fill="midnightblue" stroke="midnightblue" points="187.907,-141.007 182.904,-131.668 180.991,-142.088 187.907,-141.007"/>
</g>
<!-- Node12&#45;&gt;Node13 -->
<g id="edge16" class="edge"><title>Node12&#45;&gt;Node13</title>
<path fill="none" stroke="midnightblue" d="M243.271,-168.324C232.163,-160.107 215.258,-147.602 202.017,-137.807"/>
<polygon fill="midnightblue" stroke="midnightblue" points="204.063,-134.967 193.942,-131.834 199.9,-140.595 204.063,-134.967"/>
</g>
<!-- Node14 -->
<g id="node14" class="node"><title>Node14</title>
<polygon fill="white" stroke="#bfbfbf" points="122.5,-56.5 122.5,-75.5 171.5,-75.5 171.5,-56.5 122.5,-56.5"/>
<text text-anchor="middle" x="147" y="-63.5" font-family="Helvetica,sans-Serif" font-size="10.00">stdint.h</text>
</g>
<!-- Node13&#45;&gt;Node14 -->
<g id="edge17" class="edge"><title>Node13&#45;&gt;Node14</title>
<path fill="none" stroke="midnightblue" d="M176.22,-112.083C171.328,-104.534 164.173,-93.4948 158.167,-84.2298"/>
<polygon fill="midnightblue" stroke="midnightblue" points="161.048,-82.239 152.672,-75.7511 155.174,-86.0463 161.048,-82.239"/>
</g>
<!-- Node15 -->
<g id="node15" class="node"><title>Node15</title>
<g id="a_node15"><a xlink:href="uthash_8h_source.html" target="_top" xlink:title="uthash.h">
<polygon fill="white" stroke="black" points="190,-56.5 190,-75.5 244,-75.5 244,-56.5 190,-56.5"/>
<text text-anchor="middle" x="217" y="-63.5" font-family="Helvetica,sans-Serif" font-size="10.00">uthash.h</text>
</a>
</g>
</g>
<!-- Node13&#45;&gt;Node15 -->
<g id="edge18" class="edge"><title>Node13&#45;&gt;Node15</title>
<path fill="none" stroke="midnightblue" d="M187.78,-112.083C192.672,-104.534 199.827,-93.4948 205.833,-84.2298"/>
<polygon fill="midnightblue" stroke="midnightblue" points="208.826,-86.0463 211.328,-75.7511 202.952,-82.239 208.826,-86.0463"/>
</g>
<!-- Node15&#45;&gt;Node3 -->
<g id="edge19" class="edge"><title>Node15&#45;&gt;Node3</title>
<path fill="none" stroke="midnightblue" d="M189.814,-56.7986C158.438,-47.3331 106.777,-31.7485 72.5713,-21.4293"/>
<polygon fill="midnightblue" stroke="midnightblue" points="73.1425,-17.9459 62.5577,-18.4085 71.1207,-24.6476 73.1425,-17.9459"/>
</g>
<!-- Node15&#45;&gt;Node5 -->
<g id="edge21" class="edge"><title>Node15&#45;&gt;Node5</title>
<path fill="none" stroke="midnightblue" d="M234.834,-56.324C252.716,-47.6247 280.475,-34.1202 301.046,-24.113"/>
<polygon fill="midnightblue" stroke="midnightblue" points="302.749,-27.1765 310.21,-19.6545 299.687,-20.8819 302.749,-27.1765"/>
</g>
<!-- Node16 -->
<g id="node16" class="node"><title>Node16</title>
<polygon fill="white" stroke="#bfbfbf" points="136,-0.5 136,-19.5 188,-19.5 188,-0.5 136,-0.5"/>
<text text-anchor="middle" x="162" y="-7.5" font-family="Helvetica,sans-Serif" font-size="10.00">stddef.h</text>
</g>
<!-- Node15&#45;&gt;Node16 -->
<g id="edge20" class="edge"><title>Node15&#45;&gt;Node16</title>
<path fill="none" stroke="midnightblue" d="M207.918,-56.083C199.829,-48.1409 187.805,-36.3354 178.09,-26.7973"/>
<polygon fill="midnightblue" stroke="midnightblue" points="180.501,-24.2595 170.913,-19.7511 175.597,-29.2545 180.501,-24.2595"/>
</g>
<!-- Node17 -->
<g id="node17" class="node"><title>Node17</title>
<polygon fill="white" stroke="#bfbfbf" points="206.5,-0.5 206.5,-19.5 265.5,-19.5 265.5,-0.5 206.5,-0.5"/>
<text text-anchor="middle" x="236" y="-7.5" font-family="Helvetica,sans-Serif" font-size="10.00">inttypes.h</text>
</g>
<!-- Node15&#45;&gt;Node17 -->
<g id="edge22" class="edge"><title>Node15&#45;&gt;Node17</title>
<path fill="none" stroke="midnightblue" d="M220.137,-56.083C222.683,-48.8486 226.356,-38.4087 229.527,-29.3968"/>
<polygon fill="midnightblue" stroke="midnightblue" points="232.903,-30.3459 232.921,-19.7511 226.3,-28.0225 232.903,-30.3459"/>
</g>
<!-- Node19&#45;&gt;Node10 -->
<g id="edge28" class="edge"><title>Node19&#45;&gt;Node10</title>
<path fill="none" stroke="midnightblue" d="M326.67,-336.083C326.408,-329.006 326.032,-318.861 325.703,-309.986"/>
<polygon fill="midnightblue" stroke="midnightblue" points="329.192,-309.615 325.324,-299.751 322.197,-309.874 329.192,-309.615"/>
</g>
</g>
</svg>
