<?xml version="1.0" encoding="UTF-8" standalone="no"?>
<!DOCTYPE svg PUBLIC "-//W3C//DTD SVG 1.1//EN"
 "http://www.w3.org/Graphics/SVG/1.1/DTD/svg11.dtd">
<!-- Generated by graphviz version 2.38.0 (20140413.2041)
 -->
<!-- Title: src/process.h Pages: 1 -->
<!--zoomable 364 -->
<svg id="main" version="1.1" xmlns="http://www.w3.org/2000/svg" xmlns:xlink="http://www.w3.org/1999/xlink" xml:space="preserve" onload="init(evt)">
<style type="text/css"><![CDATA[
.edge:hover path { stroke: red; }
.edge:hover polygon { stroke: red; fill: red; }
]]></style>
<script type="text/javascript"><![CDATA[
var edges = document.getElementsByTagName('g');
if (edges && edges.length) {
  for (var i=0;i<edges.length;i++) {
    if (edges[i].id.substr(0,4)=='edge') {
      edges[i].setAttribute('class','edge');
    }
  }
}
]]></script>
        <defs>
                <circle id="rim" cx="0" cy="0" r="7"/>
                <circle id="rim2" cx="0" cy="0" r="3.5"/>
                <g id="zoomPlus">
                        <use xlink:href="#rim" fill="#404040">
                                <set attributeName="fill" to="#808080" begin="zoomplus.mouseover" end="zoomplus.mouseout"/>
                        </use>
                        <path d="M-4,0h8M0,-4v8" fill="none" stroke="white" stroke-width="1.5" pointer-events="none"/>
                </g>
                <g id="zoomMin">
                        <use xlink:href="#rim" fill="#404040">
                                <set attributeName="fill" to="#808080" begin="zoomminus.mouseover" end="zoomminus.mouseout"/>
                        </use>
                        <path d="M-4,0h8" fill="none" stroke="white" stroke-width="1.5" pointer-events="none"/>
                </g>
                <g id="dirArrow">
                        <path fill="none" stroke="white" stroke-width="1.5" d="M0,-3.0v7 M-2.5,-0.5L0,-3.0L2.5,-0.5"/>
                </g>
               <g id="resetDef">
                       <use xlink:href="#rim2" fill="#404040">
                               <set attributeName="fill" to="#808080" begin="reset.mouseover" end="reset.mouseout"/>
                       </use>
               </g>
        </defs>

<script type="text/javascript">
var viewWidth = 1893;
var viewHeight = 364;
var sectionId = 'dynsection-1';
</script>
<script xlink:href="svgpan.js"/>
<svg id="graph" class="graph">
<g id="viewport">
<title>src/process.h</title>
<polygon fill="white" stroke="none" points="-4,4 -4,-360 1889.19,-360 1889.19,4 -4,4"/>
<!-- Node1 -->
<g id="node1" class="node"><title>Node1</title>
<polygon fill="#bfbfbf" stroke="black" points="1598.5,-336.5 1598.5,-355.5 1674.5,-355.5 1674.5,-336.5 1598.5,-336.5"/>
<text text-anchor="middle" x="1636.5" y="-343.5" font-family="Helvetica,sans-Serif" font-size="10.00">src/process.h</text>
</g>
<!-- Node2 -->
<g id="node2" class="node"><title>Node2</title>
<g id="a_node2"><a xlink:href="receptor_8h.html" target="_top" xlink:title="receptor implementation header file ">
<polygon fill="white" stroke="black" points="626,-280.5 626,-299.5 703,-299.5 703,-280.5 626,-280.5"/>
<text text-anchor="middle" x="664.5" y="-287.5" font-family="Helvetica,sans-Serif" font-size="10.00">src/receptor.h</text>
</a>
</g>
</g>
<!-- Node1&#45;&gt;Node2 -->
<g id="edge1" class="edge"><title>Node1&#45;&gt;Node2</title>
<path fill="none" stroke="midnightblue" d="M1588.31,-342.323C1419.4,-332.939 856.122,-301.646 703.131,-293.146"/>
<polygon fill="midnightblue" stroke="midnightblue" points="1588.22,-345.823 1598.4,-342.883 1588.61,-338.834 1588.22,-345.823"/>
</g>
<!-- Node14 -->
<g id="node14" class="node"><title>Node14</title>
<g id="a_node14"><a xlink:href="process_8c.html" target="_top" xlink:title="implementation of ceptr processing: instructions and run tree reduction ">
<polygon fill="white" stroke="black" points="1580.5,-112.5 1580.5,-131.5 1656.5,-131.5 1656.5,-112.5 1580.5,-112.5"/>
<text text-anchor="middle" x="1618.5" y="-119.5" font-family="Helvetica,sans-Serif" font-size="10.00">src/process.c</text>
</a>
</g>
</g>
<!-- Node1&#45;&gt;Node14 -->
<g id="edge71" class="edge"><title>Node1&#45;&gt;Node14</title>
<path fill="none" stroke="midnightblue" d="M1634.98,-326.295C1631.28,-280.644 1621.89,-164.854 1619.22,-131.884"/>
<polygon fill="midnightblue" stroke="midnightblue" points="1631.5,-326.613 1635.79,-336.297 1638.47,-326.047 1631.5,-326.613"/>
</g>
<!-- Node15 -->
<g id="node15" class="node"><title>Node15</title>
<g id="a_node15"><a xlink:href="receptor_8c.html" target="_top" xlink:title="receptor implementation ">
<polygon fill="white" stroke="black" points="1675,-112.5 1675,-131.5 1752,-131.5 1752,-112.5 1675,-112.5"/>
<text text-anchor="middle" x="1713.5" y="-119.5" font-family="Helvetica,sans-Serif" font-size="10.00">src/receptor.c</text>
</a>
</g>
</g>
<!-- Node1&#45;&gt;Node15 -->
<g id="edge72" class="edge"><title>Node1&#45;&gt;Node15</title>
<path fill="none" stroke="midnightblue" d="M1685.06,-342.805C1747.08,-338.867 1849.19,-328.177 1872.5,-300 1927.8,-233.164 1785.38,-156.875 1732.41,-131.617"/>
<polygon fill="midnightblue" stroke="midnightblue" points="1684.5,-339.333 1674.73,-343.423 1684.92,-346.32 1684.5,-339.333"/>
</g>
<!-- Node24 -->
<g id="node24" class="node"><title>Node24</title>
<g id="a_node24"><a xlink:href="base__defs_8c.html" target="_top" xlink:title="auto&#45;generated system definitions ">
<polygon fill="white" stroke="black" points="340.5,-112.5 340.5,-131.5 426.5,-131.5 426.5,-112.5 340.5,-112.5"/>
<text text-anchor="middle" x="383.5" y="-119.5" font-family="Helvetica,sans-Serif" font-size="10.00">src/base_defs.c</text>
</a>
</g>
</g>
<!-- Node1&#45;&gt;Node24 -->
<g id="edge70" class="edge"><title>Node1&#45;&gt;Node24</title>
<path fill="none" stroke="midnightblue" d="M1588.02,-344.27C1441.35,-341.761 989.536,-331.806 616.5,-300 419.201,-283.178 305.423,-392.557 174.5,-244 168.623,-237.331 169.776,-231.53 174.5,-224 195.489,-190.546 306.851,-149.114 357.898,-131.531"/>
<polygon fill="midnightblue" stroke="midnightblue" points="1588.4,-347.777 1598.45,-344.445 1588.51,-340.778 1588.4,-347.777"/>
</g>
<!-- Node33 -->
<g id="node33" class="node"><title>Node33</title>
<g id="a_node33"><a xlink:href="spec__utils_8c.html" target="_top" xlink:title="spec/spec_utils.c">
<polygon fill="white" stroke="black" points="1515,-224.5 1515,-243.5 1608,-243.5 1608,-224.5 1515,-224.5"/>
<text text-anchor="middle" x="1561.5" y="-231.5" font-family="Helvetica,sans-Serif" font-size="10.00">spec/spec_utils.c</text>
</a>
</g>
</g>
<!-- Node1&#45;&gt;Node33 -->
<g id="edge76" class="edge"><title>Node1&#45;&gt;Node33</title>
<path fill="none" stroke="midnightblue" d="M1624.88,-327.957C1608.63,-304.118 1579.71,-261.709 1567.36,-243.591"/>
<polygon fill="midnightblue" stroke="midnightblue" points="1622.09,-330.078 1630.61,-336.368 1627.87,-326.135 1622.09,-330.078"/>
</g>
<!-- Node34 -->
<g id="node34" class="node"><title>Node34</title>
<g id="a_node34"><a xlink:href="stream_8c.html" target="_top" xlink:title="stream abstraction implementation ">
<polygon fill="white" stroke="black" points="1793,-280.5 1793,-299.5 1864,-299.5 1864,-280.5 1793,-280.5"/>
<text text-anchor="middle" x="1828.5" y="-287.5" font-family="Helvetica,sans-Serif" font-size="10.00">src/stream.c</text>
</a>
</g>
</g>
<!-- Node1&#45;&gt;Node34 -->
<g id="edge73" class="edge"><title>Node1&#45;&gt;Node34</title>
<path fill="none" stroke="midnightblue" d="M1676.68,-333.699C1712.92,-323.507 1765.41,-308.743 1798.22,-299.516"/>
<polygon fill="midnightblue" stroke="midnightblue" points="1675.6,-330.367 1666.92,-336.444 1677.5,-337.105 1675.6,-330.367"/>
</g>
<!-- Node35 -->
<g id="node35" class="node"><title>Node35</title>
<g id="a_node35"><a xlink:href="process__spec_8h.html" target="_top" xlink:title="spec/process_spec.h">
<polygon fill="white" stroke="black" points="1664.5,-280.5 1664.5,-299.5 1774.5,-299.5 1774.5,-280.5 1664.5,-280.5"/>
<text text-anchor="middle" x="1719.5" y="-287.5" font-family="Helvetica,sans-Serif" font-size="10.00">spec/process_spec.h</text>
</a>
</g>
</g>
<!-- Node1&#45;&gt;Node35 -->
<g id="edge74" class="edge"><title>Node1&#45;&gt;Node35</title>
<path fill="none" stroke="midnightblue" d="M1658.6,-330.622C1673.76,-320.757 1693.38,-307.992 1706.2,-299.655"/>
<polygon fill="midnightblue" stroke="midnightblue" points="1656.31,-327.937 1649.84,-336.324 1660.13,-333.804 1656.31,-327.937"/>
</g>
<!-- Node3 -->
<g id="node3" class="node"><title>Node3</title>
<g id="a_node3"><a xlink:href="vmhost_8h.html" target="_top" xlink:title="vmhost implementation header file ">
<polygon fill="white" stroke="black" points="965.5,-224.5 965.5,-243.5 1039.5,-243.5 1039.5,-224.5 965.5,-224.5"/>
<text text-anchor="middle" x="1002.5" y="-231.5" font-family="Helvetica,sans-Serif" font-size="10.00">src/vmhost.h</text>
</a>
</g>
</g>
<!-- Node2&#45;&gt;Node3 -->
<g id="edge2" class="edge"><title>Node2&#45;&gt;Node3</title>
<path fill="none" stroke="midnightblue" d="M713.347,-281.196C781.647,-270.284 904.174,-250.709 965.465,-240.917"/>
<polygon fill="midnightblue" stroke="midnightblue" points="712.595,-277.772 703.273,-282.806 713.7,-284.684 712.595,-277.772"/>
</g>
<!-- Node5 -->
<g id="node5" class="node"><title>Node5</title>
<g id="a_node5"><a xlink:href="accumulator_8c.html" target="_top" xlink:title="implementation file for accumulator ">
<polygon fill="white" stroke="black" points="1467,-112.5 1467,-131.5 1562,-131.5 1562,-112.5 1467,-112.5"/>
<text text-anchor="middle" x="1514.5" y="-119.5" font-family="Helvetica,sans-Serif" font-size="10.00">src/accumulator.c</text>
</a>
</g>
</g>
<!-- Node2&#45;&gt;Node5 -->
<g id="edge37" class="edge"><title>Node2&#45;&gt;Node5</title>
<path fill="none" stroke="midnightblue" d="M713.371,-286.82C823.362,-280.758 1097.69,-259.141 1314.5,-188 1334.91,-181.303 1338.35,-175.441 1358.5,-168 1399.22,-152.963 1447.4,-139.733 1479.33,-131.577"/>
<polygon fill="midnightblue" stroke="midnightblue" points="713.047,-283.333 703.247,-287.36 713.419,-290.323 713.047,-283.333"/>
</g>
<!-- Node2&#45;&gt;Node14 -->
<g id="edge52" class="edge"><title>Node2&#45;&gt;Node14</title>
<path fill="none" stroke="midnightblue" d="M713.274,-287.33C801.006,-283.693 990.973,-272.921 1148.5,-244 1240.13,-227.177 1262.68,-219.094 1350.5,-188 1371.51,-180.56 1375.24,-174.696 1396.5,-168 1413.8,-162.552 1521.47,-141.583 1580.27,-130.295"/>
<polygon fill="midnightblue" stroke="midnightblue" points="712.942,-283.841 703.09,-287.739 713.223,-290.835 712.942,-283.841"/>
</g>
<!-- Node2&#45;&gt;Node15 -->
<g id="edge53" class="edge"><title>Node2&#45;&gt;Node15</title>
<path fill="none" stroke="midnightblue" d="M713.337,-287.678C809.113,-284.49 1028.07,-274.257 1209.5,-244 1345.17,-221.374 1375.66,-199.707 1509.5,-168 1566.85,-154.414 1633.59,-139.944 1674.69,-131.187"/>
<polygon fill="midnightblue" stroke="midnightblue" points="712.976,-284.188 703.094,-288.008 713.201,-291.185 712.976,-284.188"/>
</g>
<!-- Node18 -->
<g id="node18" class="node"><title>Node18</title>
<g id="a_node18"><a xlink:href="http__example_8h.html" target="_top" xlink:title="spec/http_example.h">
<polygon fill="white" stroke="black" points="611,-112.5 611,-131.5 718,-131.5 718,-112.5 611,-112.5"/>
<text text-anchor="middle" x="664.5" y="-119.5" font-family="Helvetica,sans-Serif" font-size="10.00">spec/http_example.h</text>
</a>
</g>
</g>
<!-- Node2&#45;&gt;Node18 -->
<g id="edge61" class="edge"><title>Node2&#45;&gt;Node18</title>
<path fill="none" stroke="midnightblue" d="M664.5,-269.93C664.5,-233.92 664.5,-157.231 664.5,-131.568"/>
<polygon fill="midnightblue" stroke="midnightblue" points="661,-270.075 664.5,-280.075 668,-270.075 661,-270.075"/>
</g>
<!-- Node19 -->
<g id="node19" class="node"><title>Node19</title>
<g id="a_node19"><a xlink:href="tree__spec_8h.html" target="_top" xlink:title="spec/tree_spec.h">
<polygon fill="white" stroke="black" points="1306.5,-56.5 1306.5,-75.5 1398.5,-75.5 1398.5,-56.5 1306.5,-56.5"/>
<text text-anchor="middle" x="1352.5" y="-63.5" font-family="Helvetica,sans-Serif" font-size="10.00">spec/tree_spec.h</text>
</a>
</g>
</g>
<!-- Node2&#45;&gt;Node19 -->
<g id="edge60" class="edge"><title>Node2&#45;&gt;Node19</title>
<path fill="none" stroke="midnightblue" d="M713.205,-287.884C816.593,-284.97 1065.42,-275.058 1271.5,-244 1299.06,-239.847 1743.13,-153.796 1760.5,-132 1810,-69.884 1486.24,-86.4471 1407.5,-76 1404.62,-75.6182 1401.66,-75.2023 1398.68,-74.7655"/>
<polygon fill="midnightblue" stroke="midnightblue" points="712.975,-284.389 703.075,-288.161 713.166,-291.387 712.975,-284.389"/>
</g>
<!-- Node20 -->
<g id="node20" class="node"><title>Node20</title>
<g id="a_node20"><a xlink:href="mtree__spec_8h.html" target="_top" xlink:title="spec/mtree_spec.h">
<polygon fill="white" stroke="black" points="369.5,-56.5 369.5,-75.5 469.5,-75.5 469.5,-56.5 369.5,-56.5"/>
<text text-anchor="middle" x="419.5" y="-63.5" font-family="Helvetica,sans-Serif" font-size="10.00">spec/mtree_spec.h</text>
</a>
</g>
</g>
<!-- Node2&#45;&gt;Node20 -->
<g id="edge62" class="edge"><title>Node2&#45;&gt;Node20</title>
<path fill="none" stroke="midnightblue" d="M615.784,-287.293C540.576,-283.759 400.762,-273.341 361.5,-244 312.79,-207.598 293.088,-163.451 325.5,-112 337.362,-93.1703 359.525,-82.0465 379.353,-75.5706"/>
<polygon fill="midnightblue" stroke="midnightblue" points="615.803,-290.797 625.95,-287.747 616.116,-283.804 615.803,-290.797"/>
</g>
<!-- Node21 -->
<g id="node21" class="node"><title>Node21</title>
<g id="a_node21"><a xlink:href="semtrex__spec_8h.html" target="_top" xlink:title="spec/semtrex_spec.h">
<polygon fill="white" stroke="black" points="487.5,-56.5 487.5,-75.5 597.5,-75.5 597.5,-56.5 487.5,-56.5"/>
<text text-anchor="middle" x="542.5" y="-63.5" font-family="Helvetica,sans-Serif" font-size="10.00">spec/semtrex_spec.h</text>
</a>
</g>
</g>
<!-- Node2&#45;&gt;Node21 -->
<g id="edge63" class="edge"><title>Node2&#45;&gt;Node21</title>
<path fill="none" stroke="midnightblue" d="M615.458,-286.417C545.599,-281.858 421.958,-270.257 386.5,-244 341.933,-210.998 344.048,-186.018 331.5,-132 329.489,-123.342 325.908,-118.91 331.5,-112 341.337,-99.8438 428.131,-84.3978 487.292,-75.1272"/>
<polygon fill="midnightblue" stroke="midnightblue" points="615.572,-289.931 625.772,-287.065 616.011,-282.945 615.572,-289.931"/>
</g>
<!-- Node22 -->
<g id="node22" class="node"><title>Node22</title>
<g id="a_node22"><a xlink:href="receptor__spec_8h.html" target="_top" xlink:title="spec/receptor_spec.h">
<polygon fill="white" stroke="black" points="691.5,-56.5 691.5,-75.5 801.5,-75.5 801.5,-56.5 691.5,-56.5"/>
<text text-anchor="middle" x="746.5" y="-63.5" font-family="Helvetica,sans-Serif" font-size="10.00">spec/receptor_spec.h</text>
</a>
</g>
</g>
<!-- Node2&#45;&gt;Node22 -->
<g id="edge64" class="edge"><title>Node2&#45;&gt;Node22</title>
<path fill="none" stroke="midnightblue" d="M649.282,-272.632C620.38,-239.513 563.672,-163.347 601.5,-112 621.98,-84.2004 659.469,-73.0684 691.197,-68.8253"/>
<polygon fill="midnightblue" stroke="midnightblue" points="646.994,-275.323 656.277,-280.431 652.206,-270.649 646.994,-275.323"/>
</g>
<!-- Node2&#45;&gt;Node24 -->
<g id="edge38" class="edge"><title>Node2&#45;&gt;Node24</title>
<path fill="none" stroke="midnightblue" d="M642.862,-274.735C622.358,-261.331 590.604,-240.867 562.5,-224 503.146,-188.378 430.954,-148.743 399.468,-131.635"/>
<polygon fill="midnightblue" stroke="midnightblue" points="641.156,-277.801 651.437,-280.358 644.994,-271.947 641.156,-277.801"/>
</g>
<!-- Node25 -->
<g id="node25" class="node"><title>Node25</title>
<g id="a_node25"><a xlink:href="protocol_8h.html" target="_top" xlink:title="protocol helpers header file ">
<polygon fill="white" stroke="black" points="803.5,-168.5 803.5,-187.5 879.5,-187.5 879.5,-168.5 803.5,-168.5"/>
<text text-anchor="middle" x="841.5" y="-175.5" font-family="Helvetica,sans-Serif" font-size="10.00">src/protocol.h</text>
</a>
</g>
</g>
<!-- Node2&#45;&gt;Node25 -->
<g id="edge39" class="edge"><title>Node2&#45;&gt;Node25</title>
<path fill="none" stroke="midnightblue" d="M687.013,-275.009C724.167,-251.919 797.233,-206.51 827.676,-187.591"/>
<polygon fill="midnightblue" stroke="midnightblue" points="685.035,-272.117 678.389,-280.368 688.73,-278.063 685.035,-272.117"/>
</g>
<!-- Node27 -->
<g id="node27" class="node"><title>Node27</title>
<g id="a_node27"><a xlink:href="sys__defs_8c.html" target="_top" xlink:title="definition of system semantic elements for bootstrapping ">
<polygon fill="white" stroke="black" points="396,-224.5 396,-243.5 477,-243.5 477,-224.5 396,-224.5"/>
<text text-anchor="middle" x="436.5" y="-231.5" font-family="Helvetica,sans-Serif" font-size="10.00">src/sys_defs.c</text>
</a>
</g>
</g>
<!-- Node2&#45;&gt;Node27 -->
<g id="edge54" class="edge"><title>Node2&#45;&gt;Node27</title>
<path fill="none" stroke="midnightblue" d="M618.429,-278.088C575.354,-267.887 511.914,-252.861 472.458,-243.516"/>
<polygon fill="midnightblue" stroke="midnightblue" points="617.835,-281.545 628.373,-280.444 619.449,-274.733 617.835,-281.545"/>
</g>
<!-- Node28 -->
<g id="node28" class="node"><title>Node28</title>
<g id="a_node28"><a xlink:href="tree_8c.html" target="_top" xlink:title="semantic tree pointer implementation ">
<polygon fill="white" stroke="black" points="495.5,-224.5 495.5,-243.5 553.5,-243.5 553.5,-224.5 495.5,-224.5"/>
<text text-anchor="middle" x="524.5" y="-231.5" font-family="Helvetica,sans-Serif" font-size="10.00">src/tree.c</text>
</a>
</g>
</g>
<!-- Node2&#45;&gt;Node28 -->
<g id="edge55" class="edge"><title>Node2&#45;&gt;Node28</title>
<path fill="none" stroke="midnightblue" d="M632.798,-276.772C606.5,-266.629 569.784,-252.467 546.58,-243.516"/>
<polygon fill="midnightblue" stroke="midnightblue" points="631.727,-280.11 642.317,-280.444 634.246,-273.579 631.727,-280.11"/>
</g>
<!-- Node29 -->
<g id="node29" class="node"><title>Node29</title>
<g id="a_node29"><a xlink:href="semtable__spec_8h.html" target="_top" xlink:title="spec/semtable_spec.h">
<polygon fill="white" stroke="black" points="1670,-168.5 1670,-187.5 1785,-187.5 1785,-168.5 1670,-168.5"/>
<text text-anchor="middle" x="1727.5" y="-175.5" font-family="Helvetica,sans-Serif" font-size="10.00">spec/semtable_spec.h</text>
</a>
</g>
</g>
<!-- Node2&#45;&gt;Node29 -->
<g id="edge56" class="edge"><title>Node2&#45;&gt;Node29</title>
<path fill="none" stroke="midnightblue" d="M713.614,-288.65C864.475,-287.194 1319.56,-279.865 1462.5,-244 1482.94,-238.87 1485.48,-230.584 1505.5,-224 1560.04,-206.066 1624.58,-193.951 1669.97,-186.852"/>
<polygon fill="midnightblue" stroke="midnightblue" points="713.253,-285.153 703.286,-288.745 713.318,-292.152 713.253,-285.153"/>
</g>
<!-- Node30 -->
<g id="node30" class="node"><title>Node30</title>
<g id="a_node30"><a xlink:href="def__spec_8h.html" target="_top" xlink:title="spec/def_spec.h">
<polygon fill="white" stroke="black" points="0,-168.5 0,-187.5 89,-187.5 89,-168.5 0,-168.5"/>
<text text-anchor="middle" x="44.5" y="-175.5" font-family="Helvetica,sans-Serif" font-size="10.00">spec/def_spec.h</text>
</a>
</g>
</g>
<!-- Node2&#45;&gt;Node30 -->
<g id="edge58" class="edge"><title>Node2&#45;&gt;Node30</title>
<path fill="none" stroke="midnightblue" d="M615.81,-287.314C506.185,-283.093 242.99,-270.456 158.5,-244 117.625,-231.201 75.3044,-202.146 55.7053,-187.613"/>
<polygon fill="midnightblue" stroke="midnightblue" points="615.804,-290.817 625.929,-287.697 616.068,-283.822 615.804,-290.817"/>
</g>
<!-- Node31 -->
<g id="node31" class="node"><title>Node31</title>
<g id="a_node31"><a xlink:href="scape__spec_8h.html" target="_top" xlink:title="spec/scape_spec.h">
<polygon fill="white" stroke="black" points="107,-168.5 107,-187.5 208,-187.5 208,-168.5 107,-168.5"/>
<text text-anchor="middle" x="157.5" y="-175.5" font-family="Helvetica,sans-Serif" font-size="10.00">spec/scape_spec.h</text>
</a>
</g>
</g>
<!-- Node2&#45;&gt;Node31 -->
<g id="edge65" class="edge"><title>Node2&#45;&gt;Node31</title>
<path fill="none" stroke="midnightblue" d="M615.493,-287.651C498.027,-283.976 207.666,-272.122 174.5,-244 157.952,-229.969 156.476,-202.014 156.906,-187.775"/>
<polygon fill="midnightblue" stroke="midnightblue" points="615.542,-291.154 625.644,-287.961 615.756,-284.157 615.542,-291.154"/>
</g>
<!-- Node32 -->
<g id="node32" class="node"><title>Node32</title>
<g id="a_node32"><a xlink:href="profile__example_8h.html" target="_top" xlink:title="spec/profile_example.h">
<polygon fill="white" stroke="black" points="184,-224.5 184,-243.5 301,-243.5 301,-224.5 184,-224.5"/>
<text text-anchor="middle" x="242.5" y="-231.5" font-family="Helvetica,sans-Serif" font-size="10.00">spec/profile_example.h</text>
</a>
</g>
</g>
<!-- Node2&#45;&gt;Node32 -->
<g id="edge67" class="edge"><title>Node2&#45;&gt;Node32</title>
<path fill="none" stroke="midnightblue" d="M615.893,-282.78C537.907,-272.801 385.1,-253.247 301.166,-242.507"/>
<polygon fill="midnightblue" stroke="midnightblue" points="615.568,-286.267 625.932,-284.065 616.457,-279.324 615.568,-286.267"/>
</g>
<!-- Node2&#45;&gt;Node33 -->
<g id="edge69" class="edge"><title>Node2&#45;&gt;Node33</title>
<path fill="none" stroke="midnightblue" d="M713.696,-287.944C842.937,-284.826 1202.64,-273.925 1500.5,-244 1505.19,-243.529 1510.06,-242.954 1514.93,-242.325"/>
<polygon fill="midnightblue" stroke="midnightblue" points="713.264,-284.453 703.35,-288.189 713.43,-291.451 713.264,-284.453"/>
</g>
<!-- Node4 -->
<g id="node4" class="node"><title>Node4</title>
<g id="a_node4"><a xlink:href="accumulator_8h.html" target="_top" xlink:title="header file for the accumulator ">
<polygon fill="white" stroke="black" points="1211,-168.5 1211,-187.5 1306,-187.5 1306,-168.5 1211,-168.5"/>
<text text-anchor="middle" x="1258.5" y="-175.5" font-family="Helvetica,sans-Serif" font-size="10.00">src/accumulator.h</text>
</a>
</g>
</g>
<!-- Node3&#45;&gt;Node4 -->
<g id="edge3" class="edge"><title>Node3&#45;&gt;Node4</title>
<path fill="none" stroke="midnightblue" d="M1049.61,-223.063C1097.86,-212.886 1172.09,-197.228 1217.85,-187.576"/>
<polygon fill="midnightblue" stroke="midnightblue" points="1048.79,-219.659 1039.72,-225.148 1050.23,-226.509 1048.79,-219.659"/>
</g>
<!-- Node9 -->
<g id="node9" class="node"><title>Node9</title>
<g id="a_node9"><a xlink:href="vmhost__spec_8h.html" target="_top" xlink:title="spec/vmhost_spec.h">
<polygon fill="white" stroke="black" points="820,-56.5 820,-75.5 927,-75.5 927,-56.5 820,-56.5"/>
<text text-anchor="middle" x="873.5" y="-63.5" font-family="Helvetica,sans-Serif" font-size="10.00">spec/vmhost_spec.h</text>
</a>
</g>
</g>
<!-- Node3&#45;&gt;Node9 -->
<g id="edge36" class="edge"><title>Node3&#45;&gt;Node9</title>
<path fill="none" stroke="midnightblue" d="M1018.18,-216.79C1040.14,-192.086 1074.71,-144.464 1049.5,-112 1041.38,-101.538 968.118,-85.4272 918.713,-75.5876"/>
<polygon fill="midnightblue" stroke="midnightblue" points="1015.52,-214.51 1011.32,-224.235 1020.67,-219.254 1015.52,-214.51"/>
</g>
<!-- Node16 -->
<g id="node16" class="node"><title>Node16</title>
<g id="a_node16"><a xlink:href="vmhost_8c.html" target="_top" xlink:title="virtual machine host receptor implementation ">
<polygon fill="white" stroke="black" points="1096.5,-112.5 1096.5,-131.5 1170.5,-131.5 1170.5,-112.5 1096.5,-112.5"/>
<text text-anchor="middle" x="1133.5" y="-119.5" font-family="Helvetica,sans-Serif" font-size="10.00">src/vmhost.c</text>
</a>
</g>
</g>
<!-- Node3&#45;&gt;Node16 -->
<g id="edge33" class="edge"><title>Node3&#45;&gt;Node16</title>
<path fill="none" stroke="midnightblue" d="M1032.01,-219.905C1047.94,-212.009 1067.37,-200.973 1082.5,-188 1102.32,-171.004 1119.73,-145.321 1128.15,-131.893"/>
<polygon fill="midnightblue" stroke="midnightblue" points="1030.12,-216.928 1022.62,-224.405 1033.15,-223.241 1030.12,-216.928"/>
</g>
<!-- Node3&#45;&gt;Node18 -->
<g id="edge34" class="edge"><title>Node3&#45;&gt;Node18</title>
<path fill="none" stroke="midnightblue" d="M955.13,-233.396C899.097,-232.05 804.363,-223.963 732.5,-188 705.335,-174.406 681.748,-146.253 670.879,-131.873"/>
<polygon fill="midnightblue" stroke="midnightblue" points="955.405,-236.902 965.466,-233.578 955.529,-229.903 955.405,-236.902"/>
</g>
<!-- Node3&#45;&gt;Node22 -->
<g id="edge35" class="edge"><title>Node3&#45;&gt;Node22</title>
<path fill="none" stroke="midnightblue" d="M955.108,-227.947C901.435,-221.347 818.33,-208.198 794.5,-188 758.986,-157.898 749.546,-97.8913 747.214,-75.5994"/>
<polygon fill="midnightblue" stroke="midnightblue" points="954.75,-231.429 965.095,-229.141 955.582,-224.479 954.75,-231.429"/>
</g>
<!-- Node23 -->
<g id="node23" class="node"><title>Node23</title>
<g id="a_node23"><a xlink:href="protocol_8c.html" target="_top" xlink:title="implementation of protocol helpers ">
<polygon fill="white" stroke="black" points="964.5,-112.5 964.5,-131.5 1040.5,-131.5 1040.5,-112.5 964.5,-112.5"/>
<text text-anchor="middle" x="1002.5" y="-119.5" font-family="Helvetica,sans-Serif" font-size="10.00">src/protocol.c</text>
</a>
</g>
</g>
<!-- Node3&#45;&gt;Node23 -->
<g id="edge32" class="edge"><title>Node3&#45;&gt;Node23</title>
<path fill="none" stroke="midnightblue" d="M1002.5,-214.348C1002.5,-190.254 1002.5,-149.308 1002.5,-131.591"/>
<polygon fill="midnightblue" stroke="midnightblue" points="999,-214.368 1002.5,-224.368 1006,-214.369 999,-214.368"/>
</g>
<!-- Node4&#45;&gt;Node5 -->
<g id="edge4" class="edge"><title>Node4&#45;&gt;Node5</title>
<path fill="none" stroke="midnightblue" d="M1309.01,-166.346C1357.39,-156.141 1429.45,-140.94 1474.13,-131.516"/>
<polygon fill="midnightblue" stroke="midnightblue" points="1308.13,-162.955 1299.06,-168.444 1309.57,-169.804 1308.13,-162.955"/>
</g>
<!-- Node6 -->
<g id="node6" class="node"><title>Node6</title>
<g id="a_node6"><a xlink:href="ceptr_8c.html" target="_top" xlink:title="implements main() entry point for the ceptr node ">
<polygon fill="white" stroke="black" points="1025,-56.5 1025,-75.5 1088,-75.5 1088,-56.5 1025,-56.5"/>
<text text-anchor="middle" x="1056.5" y="-63.5" font-family="Helvetica,sans-Serif" font-size="10.00">src/ceptr.c</text>
</a>
</g>
</g>
<!-- Node4&#45;&gt;Node6 -->
<g id="edge5" class="edge"><title>Node4&#45;&gt;Node6</title>
<path fill="none" stroke="midnightblue" d="M1278.04,-161.932C1293.54,-148.168 1310.59,-127.642 1297.5,-112 1268.38,-77.1996 1140.98,-84.9826 1096.5,-76 1093.85,-75.4646 1091.1,-74.8898 1088.35,-74.2991"/>
<polygon fill="midnightblue" stroke="midnightblue" points="1275.67,-159.35 1270.25,-168.451 1280.16,-164.719 1275.67,-159.35"/>
</g>
<!-- Node7 -->
<g id="node7" class="node"><title>Node7</title>
<g id="a_node7"><a xlink:href="shell_8h.html" target="_top" xlink:title="command line shell receptor header files ">
<polygon fill="white" stroke="black" points="1226.5,-112.5 1226.5,-131.5 1288.5,-131.5 1288.5,-112.5 1226.5,-112.5"/>
<text text-anchor="middle" x="1257.5" y="-119.5" font-family="Helvetica,sans-Serif" font-size="10.00">src/shell.h</text>
</a>
</g>
</g>
<!-- Node4&#45;&gt;Node7 -->
<g id="edge6" class="edge"><title>Node4&#45;&gt;Node7</title>
<path fill="none" stroke="midnightblue" d="M1258.14,-157.805C1257.98,-148.91 1257.79,-138.78 1257.66,-131.751"/>
<polygon fill="midnightblue" stroke="midnightblue" points="1254.65,-158.15 1258.33,-168.083 1261.65,-158.02 1254.65,-158.15"/>
</g>
<!-- Node11 -->
<g id="node11" class="node"><title>Node11</title>
<g id="a_node11"><a xlink:href="group_8h.html" target="_top" xlink:title="group communication receptors header file ">
<polygon fill="white" stroke="black" points="1345,-112.5 1345,-131.5 1410,-131.5 1410,-112.5 1345,-112.5"/>
<text text-anchor="middle" x="1377.5" y="-119.5" font-family="Helvetica,sans-Serif" font-size="10.00">src/group.h</text>
</a>
</g>
</g>
<!-- Node4&#45;&gt;Node11 -->
<g id="edge11" class="edge"><title>Node4&#45;&gt;Node11</title>
<path fill="none" stroke="midnightblue" d="M1286.64,-164.232C1308.9,-154.131 1339.36,-140.309 1358.73,-131.516"/>
<polygon fill="midnightblue" stroke="midnightblue" points="1285.02,-161.124 1277.36,-168.444 1287.91,-167.498 1285.02,-161.124"/>
</g>
<!-- Node4&#45;&gt;Node14 -->
<g id="edge15" class="edge"><title>Node4&#45;&gt;Node14</title>
<path fill="none" stroke="midnightblue" d="M1316.26,-169.411C1378.97,-160.998 1482.02,-146.669 1570.5,-132 1573.68,-131.473 1576.97,-130.904 1580.27,-130.318"/>
<polygon fill="midnightblue" stroke="midnightblue" points="1315.62,-165.965 1306.17,-170.76 1316.54,-172.903 1315.62,-165.965"/>
</g>
<!-- Node4&#45;&gt;Node15 -->
<g id="edge16" class="edge"><title>Node4&#45;&gt;Node15</title>
<path fill="none" stroke="midnightblue" d="M1316.51,-171.97C1395.63,-164.795 1541.68,-150.427 1665.5,-132 1668.52,-131.551 1671.64,-131.05 1674.77,-130.521"/>
<polygon fill="midnightblue" stroke="midnightblue" points="1315.92,-168.51 1306.27,-172.893 1316.54,-175.481 1315.92,-168.51"/>
</g>
<!-- Node4&#45;&gt;Node16 -->
<g id="edge17" class="edge"><title>Node4&#45;&gt;Node16</title>
<path fill="none" stroke="midnightblue" d="M1229.26,-164.368C1205.85,-154.255 1173.66,-140.349 1153.21,-131.516"/>
<polygon fill="midnightblue" stroke="midnightblue" points="1228.13,-167.691 1238.69,-168.444 1230.9,-161.265 1228.13,-167.691"/>
</g>
<!-- Node17 -->
<g id="node17" class="node"><title>Node17</title>
<g id="a_node17"><a xlink:href="accumulator__spec_8h_source.html" target="_top" xlink:title="spec/accumulator_spec.h">
<polygon fill="white" stroke="black" points="1416.5,-56.5 1416.5,-75.5 1544.5,-75.5 1544.5,-56.5 1416.5,-56.5"/>
<text text-anchor="middle" x="1480.5" y="-63.5" font-family="Helvetica,sans-Serif" font-size="10.00">spec/accumulator_spec.h</text>
</a>
</g>
</g>
<!-- Node4&#45;&gt;Node17 -->
<g id="edge18" class="edge"><title>Node4&#45;&gt;Node17</title>
<path fill="none" stroke="midnightblue" d="M1316.37,-168.453C1348.18,-161.915 1387.38,-150.724 1418.5,-132 1443.36,-117.047 1464.82,-89.5095 1474.7,-75.568"/>
<polygon fill="midnightblue" stroke="midnightblue" points="1315.46,-165.064 1306.32,-170.416 1316.8,-171.934 1315.46,-165.064"/>
</g>
<!-- Node4&#45;&gt;Node18 -->
<g id="edge20" class="edge"><title>Node4&#45;&gt;Node18</title>
<path fill="none" stroke="midnightblue" d="M1200.89,-171.762C1086.01,-161.319 829.919,-138.038 718.271,-127.888"/>
<polygon fill="midnightblue" stroke="midnightblue" points="1200.62,-175.252 1210.89,-172.672 1201.25,-168.281 1200.62,-175.252"/>
</g>
<!-- Node4&#45;&gt;Node22 -->
<g id="edge31" class="edge"><title>Node4&#45;&gt;Node22</title>
<path fill="none" stroke="midnightblue" d="M1244.2,-160.623C1229.63,-145.161 1205.53,-122.786 1179.5,-112 1027.27,-48.9164 974.123,-95.4775 810.5,-76 807.603,-75.6552 804.635,-75.2875 801.639,-74.9053"/>
<polygon fill="midnightblue" stroke="midnightblue" points="1241.95,-163.346 1251.27,-168.384 1247.12,-158.633 1241.95,-163.346"/>
</g>
<!-- Node7&#45;&gt;Node6 -->
<g id="edge7" class="edge"><title>Node7&#45;&gt;Node6</title>
<path fill="none" stroke="midnightblue" d="M1216.35,-109.945C1178.32,-99.7279 1122.62,-84.7646 1088.02,-75.4672"/>
<polygon fill="midnightblue" stroke="midnightblue" points="1215.53,-113.348 1226.09,-112.562 1217.34,-106.588 1215.53,-113.348"/>
</g>
<!-- Node8 -->
<g id="node8" class="node"><title>Node8</title>
<g id="a_node8"><a xlink:href="shell_8c.html" target="_top" xlink:title="implementation of a command line shell receptor ">
<polygon fill="white" stroke="black" points="944.5,-56.5 944.5,-75.5 1006.5,-75.5 1006.5,-56.5 944.5,-56.5"/>
<text text-anchor="middle" x="975.5" y="-63.5" font-family="Helvetica,sans-Serif" font-size="10.00">src/shell.c</text>
</a>
</g>
</g>
<!-- Node7&#45;&gt;Node8 -->
<g id="edge8" class="edge"><title>Node7&#45;&gt;Node8</title>
<path fill="none" stroke="midnightblue" d="M1215.83,-112.64C1214.71,-112.423 1213.6,-112.21 1212.5,-112 1125.08,-95.2717 1102.71,-93.7726 1015.5,-76 1012.71,-75.4315 1009.82,-74.8209 1006.92,-74.1952"/>
<polygon fill="midnightblue" stroke="midnightblue" points="1215.56,-116.153 1226.04,-114.639 1216.9,-109.284 1215.56,-116.153"/>
</g>
<!-- Node7&#45;&gt;Node9 -->
<g id="edge9" class="edge"><title>Node7&#45;&gt;Node9</title>
<path fill="none" stroke="midnightblue" d="M1215.84,-112.564C1214.72,-112.37 1213.6,-112.181 1212.5,-112 1090.01,-91.8147 1058.49,-92.9176 935.5,-76 932.806,-75.6295 930.047,-75.2454 927.262,-74.8541"/>
<polygon fill="midnightblue" stroke="midnightblue" points="1215.61,-116.08 1226.08,-114.432 1216.87,-109.194 1215.61,-116.08"/>
</g>
<!-- Node10 -->
<g id="node10" class="node"><title>Node10</title>
<g id="a_node10"><a xlink:href="ceptr__specs_8c.html" target="_top" xlink:title="implements a main() entry point for running all the tests ">
<polygon fill="white" stroke="black" points="653.5,-0.5 653.5,-19.5 755.5,-19.5 755.5,-0.5 653.5,-0.5"/>
<text text-anchor="middle" x="704.5" y="-7.5" font-family="Helvetica,sans-Serif" font-size="10.00">spec/ceptr_specs.c</text>
</a>
</g>
</g>
<!-- Node9&#45;&gt;Node10 -->
<g id="edge10" class="edge"><title>Node9&#45;&gt;Node10</title>
<path fill="none" stroke="midnightblue" d="M836.897,-53.3044C805.053,-43.1294 759.658,-28.6246 731.153,-19.5164"/>
<polygon fill="midnightblue" stroke="midnightblue" points="836.131,-56.7337 846.721,-56.4435 838.261,-50.0659 836.131,-56.7337"/>
</g>
<!-- Node12 -->
<g id="node12" class="node"><title>Node12</title>
<g id="a_node12"><a xlink:href="group_8c.html" target="_top" xlink:title="implementation of some group communication receptors ">
<polygon fill="white" stroke="black" points="1106,-56.5 1106,-75.5 1171,-75.5 1171,-56.5 1106,-56.5"/>
<text text-anchor="middle" x="1138.5" y="-63.5" font-family="Helvetica,sans-Serif" font-size="10.00">src/group.c</text>
</a>
</g>
</g>
<!-- Node11&#45;&gt;Node12 -->
<g id="edge12" class="edge"><title>Node11&#45;&gt;Node12</title>
<path fill="none" stroke="midnightblue" d="M1334.92,-111.379C1288.05,-100.79 1213.73,-83.9981 1171.22,-74.3924"/>
<polygon fill="midnightblue" stroke="midnightblue" points="1334.24,-114.815 1344.77,-113.605 1335.79,-107.987 1334.24,-114.815"/>
</g>
<!-- Node13 -->
<g id="node13" class="node"><title>Node13</title>
<g id="a_node13"><a xlink:href="group__spec_8h.html" target="_top" xlink:title="spec/group_spec.h">
<polygon fill="white" stroke="black" points="1189,-56.5 1189,-75.5 1288,-75.5 1288,-56.5 1189,-56.5"/>
<text text-anchor="middle" x="1238.5" y="-63.5" font-family="Helvetica,sans-Serif" font-size="10.00">spec/group_spec.h</text>
</a>
</g>
</g>
<!-- Node11&#45;&gt;Node13 -->
<g id="edge13" class="edge"><title>Node11&#45;&gt;Node13</title>
<path fill="none" stroke="midnightblue" d="M1346.02,-108.772C1319.91,-98.6287 1283.46,-84.4669 1260.42,-75.5164"/>
<polygon fill="midnightblue" stroke="midnightblue" points="1344.89,-112.085 1355.48,-112.444 1347.42,-105.56 1344.89,-112.085"/>
</g>
<!-- Node13&#45;&gt;Node10 -->
<g id="edge14" class="edge"><title>Node13&#45;&gt;Node10</title>
<path fill="none" stroke="midnightblue" d="M1178.88,-55.9934C1018.1,-36.36 840.901,-21.5701 755.566,-14.8786"/>
<polygon fill="midnightblue" stroke="midnightblue" points="1178.6,-59.4856 1188.95,-57.2329 1179.46,-52.538 1178.6,-59.4856"/>
</g>
<!-- Node17&#45;&gt;Node10 -->
<g id="edge19" class="edge"><title>Node17&#45;&gt;Node10</title>
<path fill="none" stroke="midnightblue" d="M1406.42,-55.9533C1156.3,-32.8285 870.346,-18.4948 755.741,-13.2467"/>
<polygon fill="midnightblue" stroke="midnightblue" points="1406.15,-59.4427 1416.43,-56.8849 1406.8,-52.4728 1406.15,-59.4427"/>
</g>
<!-- Node18&#45;&gt;Node9 -->
<g id="edge29" class="edge"><title>Node18&#45;&gt;Node9</title>
<path fill="none" stroke="midnightblue" d="M707.484,-109.894C746.952,-99.6966 804.6,-84.802 840.538,-75.5164"/>
<polygon fill="midnightblue" stroke="midnightblue" points="706.423,-106.553 697.617,-112.444 708.174,-113.331 706.423,-106.553"/>
</g>
<!-- Node18&#45;&gt;Node10 -->
<g id="edge30" class="edge"><title>Node18&#45;&gt;Node10</title>
<path fill="none" stroke="midnightblue" d="M668.615,-102.675C671.806,-89.4917 676.662,-71.3967 682.5,-56 687.433,-42.99 694.794,-28.6644 699.62,-19.7497"/>
<polygon fill="midnightblue" stroke="midnightblue" points="665.204,-101.892 666.341,-112.426 672.021,-103.482 665.204,-101.892"/>
</g>
<!-- Node18&#45;&gt;Node19 -->
<g id="edge21" class="edge"><title>Node18&#45;&gt;Node19</title>
<path fill="none" stroke="midnightblue" d="M728.656,-118.306C843.038,-113.085 1089.61,-99.9436 1296.5,-76 1299.73,-75.6264 1303.05,-75.1996 1306.4,-74.7395"/>
<polygon fill="midnightblue" stroke="midnightblue" points="728.167,-114.824 718.335,-118.772 728.483,-121.817 728.167,-114.824"/>
</g>
<!-- Node18&#45;&gt;Node20 -->
<g id="edge23" class="edge"><title>Node18&#45;&gt;Node20</title>
<path fill="none" stroke="midnightblue" d="M615.87,-110.281C569.571,-100.077 500.805,-84.9203 458.139,-75.5164"/>
<polygon fill="midnightblue" stroke="midnightblue" points="615.16,-113.709 625.679,-112.444 616.667,-106.873 615.16,-113.709"/>
</g>
<!-- Node18&#45;&gt;Node21 -->
<g id="edge25" class="edge"><title>Node18&#45;&gt;Node21</title>
<path fill="none" stroke="midnightblue" d="M635.961,-108.368C613.114,-98.2553 581.695,-84.3486 561.741,-75.5164"/>
<polygon fill="midnightblue" stroke="midnightblue" points="634.608,-111.597 645.169,-112.444 637.441,-105.196 634.608,-111.597"/>
</g>
<!-- Node18&#45;&gt;Node22 -->
<g id="edge27" class="edge"><title>Node18&#45;&gt;Node22</title>
<path fill="none" stroke="midnightblue" d="M686.333,-106.622C701.313,-96.7574 720.697,-83.9919 733.358,-75.6545"/>
<polygon fill="midnightblue" stroke="midnightblue" points="684.101,-103.901 677.675,-112.324 687.951,-109.747 684.101,-103.901"/>
</g>
<!-- Node19&#45;&gt;Node10 -->
<g id="edge22" class="edge"><title>Node19&#45;&gt;Node10</title>
<path fill="none" stroke="midnightblue" d="M1296.26,-56.0863C1089.49,-32.0046 856.844,-18.6018 755.715,-13.4503"/>
<polygon fill="midnightblue" stroke="midnightblue" points="1296.06,-59.5865 1306.4,-57.2781 1296.87,-52.6343 1296.06,-59.5865"/>
</g>
<!-- Node20&#45;&gt;Node10 -->
<g id="edge24" class="edge"><title>Node20&#45;&gt;Node10</title>
<path fill="none" stroke="midnightblue" d="M474.721,-54.5371C528.583,-44.3316 609.504,-28.9992 659.552,-19.5164"/>
<polygon fill="midnightblue" stroke="midnightblue" points="473.833,-51.143 464.659,-56.4435 475.136,-58.0207 473.833,-51.143"/>
</g>
<!-- Node21&#45;&gt;Node10 -->
<g id="edge26" class="edge"><title>Node21&#45;&gt;Node10</title>
<path fill="none" stroke="midnightblue" d="M577.984,-53.172C608.488,-43.0039 651.745,-28.5852 678.951,-19.5164"/>
<polygon fill="midnightblue" stroke="midnightblue" points="576.549,-49.9608 568.169,-56.4435 578.763,-56.6016 576.549,-49.9608"/>
</g>
<!-- Node22&#45;&gt;Node10 -->
<g id="edge28" class="edge"><title>Node22&#45;&gt;Node10</title>
<path fill="none" stroke="midnightblue" d="M733.39,-48.144C726.072,-38.7357 717.259,-27.4046 711.306,-19.7511"/>
<polygon fill="midnightblue" stroke="midnightblue" points="730.662,-50.3383 739.565,-56.083 736.188,-46.0406 730.662,-50.3383"/>
</g>
<!-- Node25&#45;&gt;Node6 -->
<g id="edge41" class="edge"><title>Node25&#45;&gt;Node6</title>
<path fill="none" stroke="midnightblue" d="M857.848,-160.959C873.376,-146.471 897.936,-125.423 922.5,-112 955.449,-93.9951 996.877,-81.438 1024.88,-74.2481"/>
<polygon fill="midnightblue" stroke="midnightblue" points="855.031,-158.809 850.209,-168.243 859.862,-163.875 855.031,-158.809"/>
</g>
<!-- Node25&#45;&gt;Node8 -->
<g id="edge46" class="edge"><title>Node25&#45;&gt;Node8</title>
<path fill="none" stroke="midnightblue" d="M849.974,-159.146C857.447,-144.918 869.476,-125.252 884.5,-112 903.666,-95.0952 930.315,-82.9036 949.821,-75.5094"/>
<polygon fill="midnightblue" stroke="midnightblue" points="846.701,-157.866 845.36,-168.375 852.962,-160.996 846.701,-157.866"/>
</g>
<!-- Node25&#45;&gt;Node9 -->
<g id="edge49" class="edge"><title>Node25&#45;&gt;Node9</title>
<path fill="none" stroke="midnightblue" d="M840.685,-158.134C840.655,-144.92 841.714,-127.013 846.5,-112 850.872,-98.2849 860.132,-84.3579 866.581,-75.705"/>
<polygon fill="midnightblue" stroke="midnightblue" points="837.19,-158.432 840.924,-168.347 844.189,-158.268 837.19,-158.432"/>
</g>
<!-- Node25&#45;&gt;Node12 -->
<g id="edge42" class="edge"><title>Node25&#45;&gt;Node12</title>
<path fill="none" stroke="midnightblue" d="M866.242,-163.57C882.352,-154.748 903.776,-142.87 922.5,-132 937.332,-123.39 939.657,-118.568 955.5,-112 969.327,-106.268 1056.9,-85.7358 1105.72,-74.4923"/>
<polygon fill="midnightblue" stroke="midnightblue" points="864.531,-160.516 857.431,-168.38 867.885,-166.66 864.531,-160.516"/>
</g>
<!-- Node25&#45;&gt;Node14 -->
<g id="edge43" class="edge"><title>Node25&#45;&gt;Node14</title>
<path fill="none" stroke="midnightblue" d="M889.667,-176.085C1006.71,-173.414 1315.2,-163.69 1570.5,-132 1573.7,-131.603 1577,-131.126 1580.31,-130.601"/>
<polygon fill="midnightblue" stroke="midnightblue" points="889.519,-172.587 879.599,-176.308 889.674,-179.585 889.519,-172.587"/>
</g>
<!-- Node25&#45;&gt;Node15 -->
<g id="edge45" class="edge"><title>Node25&#45;&gt;Node15</title>
<path fill="none" stroke="midnightblue" d="M890.062,-176.561C1017.62,-174.931 1372.54,-167.31 1665.5,-132 1668.53,-131.635 1671.66,-131.194 1674.79,-130.707"/>
<polygon fill="midnightblue" stroke="midnightblue" points="889.807,-173.064 879.85,-176.685 889.892,-180.064 889.807,-173.064"/>
</g>
<!-- Node25&#45;&gt;Node18 -->
<g id="edge47" class="edge"><title>Node25&#45;&gt;Node18</title>
<path fill="none" stroke="midnightblue" d="M803.597,-165.436C770.225,-155.255 722.399,-140.664 692.415,-131.516"/>
<polygon fill="midnightblue" stroke="midnightblue" points="802.868,-168.873 813.454,-168.444 804.91,-162.178 802.868,-168.873"/>
</g>
<!-- Node25&#45;&gt;Node22 -->
<g id="edge48" class="edge"><title>Node25&#45;&gt;Node22</title>
<path fill="none" stroke="midnightblue" d="M827.324,-160.586C806.843,-136.871 769.705,-93.8691 753.92,-75.5914"/>
<polygon fill="midnightblue" stroke="midnightblue" points="824.86,-163.088 834.046,-168.368 830.158,-158.513 824.86,-163.088"/>
</g>
<!-- Node25&#45;&gt;Node23 -->
<g id="edge44" class="edge"><title>Node25&#45;&gt;Node23</title>
<path fill="none" stroke="midnightblue" d="M876.765,-165.172C907.081,-155.004 950.07,-140.585 977.108,-131.516"/>
<polygon fill="midnightblue" stroke="midnightblue" points="875.379,-161.945 867.011,-168.444 877.605,-168.582 875.379,-161.945"/>
</g>
<!-- Node25&#45;&gt;Node24 -->
<g id="edge40" class="edge"><title>Node25&#45;&gt;Node24</title>
<path fill="none" stroke="midnightblue" d="M793.101,-172.599C716.872,-165.45 564.257,-150.261 435.5,-132 432.597,-131.588 429.608,-131.139 426.598,-130.668"/>
<polygon fill="midnightblue" stroke="midnightblue" points="793.058,-176.11 803.34,-173.554 793.708,-169.14 793.058,-176.11"/>
</g>
<!-- Node26 -->
<g id="node26" class="node"><title>Node26</title>
<g id="a_node26"><a xlink:href="protocol__spec_8h.html" target="_top" xlink:title="spec/protocol_spec.h">
<polygon fill="white" stroke="black" points="444.5,-112.5 444.5,-131.5 554.5,-131.5 554.5,-112.5 444.5,-112.5"/>
<text text-anchor="middle" x="499.5" y="-119.5" font-family="Helvetica,sans-Serif" font-size="10.00">spec/protocol_spec.h</text>
</a>
</g>
</g>
<!-- Node25&#45;&gt;Node26 -->
<g id="edge50" class="edge"><title>Node25&#45;&gt;Node26</title>
<path fill="none" stroke="midnightblue" d="M793.155,-169.367C729.901,-159.379 619.381,-141.929 553.464,-131.521"/>
<polygon fill="midnightblue" stroke="midnightblue" points="792.84,-172.86 803.264,-170.963 793.932,-165.946 792.84,-172.86"/>
</g>
<!-- Node26&#45;&gt;Node10 -->
<g id="edge51" class="edge"><title>Node26&#45;&gt;Node10</title>
<path fill="none" stroke="midnightblue" d="M532.824,-108.847C554.322,-100.558 582.624,-88.7929 606.5,-76 639.432,-58.355 675.36,-32.7217 693.172,-19.5375"/>
<polygon fill="midnightblue" stroke="midnightblue" points="531.571,-105.579 523.466,-112.402 534.058,-112.123 531.571,-105.579"/>
</g>
<!-- Node29&#45;&gt;Node10 -->
<g id="edge57" class="edge"><title>Node29&#45;&gt;Node10</title>
<path fill="none" stroke="midnightblue" d="M1757.35,-164.071C1781.88,-151.619 1810.23,-131.805 1794.5,-112 1729.12,-29.6861 962.584,-14.212 755.686,-11.5277"/>
<polygon fill="midnightblue" stroke="midnightblue" points="1755.72,-160.971 1748.24,-168.468 1758.76,-167.276 1755.72,-160.971"/>
</g>
<!-- Node30&#45;&gt;Node10 -->
<g id="edge59" class="edge"><title>Node30&#45;&gt;Node10</title>
<path fill="none" stroke="midnightblue" d="M58.7918,-160.731C83.798,-133.531 138.475,-79.4953 197.5,-56 279.396,-23.4006 541.552,-14.2818 653.281,-11.8446"/>
<polygon fill="midnightblue" stroke="midnightblue" points="56.1109,-158.478 52.0118,-168.247 61.3087,-163.166 56.1109,-158.478"/>
</g>
<!-- Node31&#45;&gt;Node10 -->
<g id="edge66" class="edge"><title>Node31&#45;&gt;Node10</title>
<path fill="none" stroke="midnightblue" d="M161.594,-158.495C168.748,-130.985 186.341,-79.9735 222.5,-56 257.83,-32.5758 536.834,-18.1236 653.497,-13.0503"/>
<polygon fill="midnightblue" stroke="midnightblue" points="158.149,-157.854 159.211,-168.396 164.954,-159.493 158.149,-157.854"/>
</g>
<!-- Node32&#45;&gt;Node10 -->
<g id="edge68" class="edge"><title>Node32&#45;&gt;Node10</title>
<path fill="none" stroke="midnightblue" d="M248.298,-214.413C261.276,-176.424 296.648,-90.5617 360.5,-56 409.96,-29.2283 570.321,-17.569 653.46,-13.2201"/>
<polygon fill="midnightblue" stroke="midnightblue" points="244.89,-213.575 245.104,-224.168 251.542,-215.754 244.89,-213.575"/>
</g>
<!-- Node35&#45;&gt;Node10 -->
<g id="edge75" class="edge"><title>Node35&#45;&gt;Node10</title>
<path fill="none" stroke="midnightblue" d="M1738.5,-273.721C1775.45,-242.134 1850.13,-167.925 1811.5,-112 1771.53,-54.1356 1732.37,-70.2691 1663.5,-56 1487.64,-19.5621 928.289,-12.5828 755.708,-11.2865"/>
<polygon fill="midnightblue" stroke="midnightblue" points="1735.85,-271.371 1730.42,-280.465 1740.34,-276.746 1735.85,-271.371"/>
</g>
</g>
</svg>
        <g id="navigator" transform="translate(0 0)" fill="#404254">
                <rect fill="#f2f5e9" fill-opacity="0.5" stroke="#606060" stroke-width=".5" x="0" y="0" width="60" height="60"/>
                <use id="zoomplus" xlink:href="#zoomPlus" x="17" y="9" onmousedown="handleZoom(evt,'in')"/>
                <use id="zoomminus" xlink:href="#zoomMin" x="42" y="9" onmousedown="handleZoom(evt,'out')"/>
                <use id="reset" xlink:href="#resetDef" x="30" y="36" onmousedown="handleReset()"/>
                <g id="arrowUp" xlink:href="#dirArrow" transform="translate(30 24)" onmousedown="handlePan(0,-1)">
                  <use xlink:href="#rim" fill="#404040">
                        <set attributeName="fill" to="#808080" begin="arrowUp.mouseover" end="arrowUp.mouseout"/>
                  </use>
                  <path fill="none" stroke="white" stroke-width="1.5" d="M0,-3.0v7 M-2.5,-0.5L0,-3.0L2.5,-0.5"/>
                </g>
                <g id="arrowRight" xlink:href="#dirArrow" transform="rotate(90) translate(36 -43)" onmousedown="handlePan(1,0)">
                  <use xlink:href="#rim" fill="#404040">
                        <set attributeName="fill" to="#808080" begin="arrowRight.mouseover" end="arrowRight.mouseout"/>
                  </use>
                  <path fill="none" stroke="white" stroke-width="1.5" d="M0,-3.0v7 M-2.5,-0.5L0,-3.0L2.5,-0.5"/>
                </g>
                <g id="arrowDown" xlink:href="#dirArrow" transform="rotate(180) translate(-30 -48)" onmousedown="handlePan(0,1)">
                  <use xlink:href="#rim" fill="#404040">
                        <set attributeName="fill" to="#808080" begin="arrowDown.mouseover" end="arrowDown.mouseout"/>
                  </use>
                  <path fill="none" stroke="white" stroke-width="1.5" d="M0,-3.0v7 M-2.5,-0.5L0,-3.0L2.5,-0.5"/>
                </g>
                <g id="arrowLeft" xlink:href="#dirArrow" transform="rotate(270) translate(-36 17)" onmousedown="handlePan(-1,0)">
                  <use xlink:href="#rim" fill="#404040">
                        <set attributeName="fill" to="#808080" begin="arrowLeft.mouseover" end="arrowLeft.mouseout"/>
                  </use>
                  <path fill="none" stroke="white" stroke-width="1.5" d="M0,-3.0v7 M-2.5,-0.5L0,-3.0L2.5,-0.5"/>
                </g>
        </g>
        <svg viewBox="0 0 15 15" width="100%" height="30px" preserveAspectRatio="xMaxYMin meet">
         <g id="arrow_out" transform="scale(0.3 0.3)">
          <a xlink:href="process_8h__dep__incl_org.svg" target="_base">
           <rect id="button" ry="5" rx="5" y="6" x="6" height="38" width="38"
                fill="#f2f5e9" fill-opacity="0.5" stroke="#606060" stroke-width="1.0"/>
           <path id="arrow"
             d="M 11.500037,31.436501 C 11.940474,20.09759 22.043105,11.32322 32.158766,21.979434 L 37.068811,17.246167 C 37.068811,17.246167 37.088388,32 37.088388,32 L 22.160133,31.978069 C 22.160133,31.978069 26.997745,27.140456 26.997745,27.140456 C 18.528582,18.264221 13.291696,25.230495 11.500037,31.436501 z"
             style="fill:#404040;"/>
          </a>
         </g>
        </svg>
</svg>
