<?xml version="1.0" encoding="UTF-8" standalone="no"?>
<!DOCTYPE svg PUBLIC "-//W3C//DTD SVG 1.1//EN"
 "http://www.w3.org/Graphics/SVG/1.1/DTD/svg11.dtd">
<!-- Generated by graphviz version 2.38.0 (20140413.2041)
 -->
<!-- Title: spec/process_spec.h Pages: 1 -->
<svg width="818pt" height="476pt"
 viewBox="0.00 0.00 817.92 476.00" xmlns="http://www.w3.org/2000/svg" xmlns:xlink="http://www.w3.org/1999/xlink">
<g id="graph0" class="graph" transform="scale(1 1) rotate(0) translate(4 472)">
<title>spec/process_spec.h</title>
<polygon fill="white" stroke="none" points="-4,4 -4,-472 813.92,-472 813.92,4 -4,4"/>
<!-- Node1 -->
<g id="node1" class="node"><title>Node1</title>
<polygon fill="#bfbfbf" stroke="black" points="356,-448.5 356,-467.5 466,-467.5 466,-448.5 356,-448.5"/>
<text text-anchor="middle" x="411" y="-455.5" font-family="Helvetica,sans-Serif" font-size="10.00">spec/process_spec.h</text>
</g>
<!-- Node2 -->
<g id="node2" class="node"><title>Node2</title>
<g id="a_node2"><a xlink:href="ceptr_8h_source.html" target="_top" xlink:title="../src/ceptr.h">
<polygon fill="white" stroke="black" points="424,-392.5 424,-411.5 496,-411.5 496,-392.5 424,-392.5"/>
<text text-anchor="middle" x="460" y="-399.5" font-family="Helvetica,sans-Serif" font-size="10.00">../src/ceptr.h</text>
</a>
</g>
</g>
<!-- Node1&#45;&gt;Node2 -->
<g id="edge1" class="edge"><title>Node1&#45;&gt;Node2</title>
<path fill="none" stroke="midnightblue" d="M419.091,-448.083C426.155,-440.298 436.588,-428.801 445.149,-419.367"/>
<polygon fill="midnightblue" stroke="midnightblue" points="447.931,-421.509 452.059,-411.751 442.747,-416.805 447.931,-421.509"/>
</g>
<!-- Node27 -->
<g id="node27" class="node"><title>Node27</title>
<g id="a_node27"><a xlink:href="process_8h.html" target="_top" xlink:title="processing header files ">
<polygon fill="white" stroke="black" points="320.5,-392.5 320.5,-411.5 405.5,-411.5 405.5,-392.5 320.5,-392.5"/>
<text text-anchor="middle" x="363" y="-399.5" font-family="Helvetica,sans-Serif" font-size="10.00">../src/process.h</text>
</a>
</g>
</g>
<!-- Node1&#45;&gt;Node27 -->
<g id="edge48" class="edge"><title>Node1&#45;&gt;Node27</title>
<path fill="none" stroke="midnightblue" d="M403.074,-448.083C396.154,-440.298 385.935,-428.801 377.548,-419.367"/>
<polygon fill="midnightblue" stroke="midnightblue" points="380.038,-416.9 370.779,-411.751 374.806,-421.55 380.038,-416.9"/>
</g>
<!-- Node3 -->
<g id="node3" class="node"><title>Node3</title>
<polygon fill="white" stroke="#bfbfbf" points="464.5,-0.5 464.5,-19.5 513.5,-19.5 513.5,-0.5 464.5,-0.5"/>
<text text-anchor="middle" x="489" y="-7.5" font-family="Helvetica,sans-Serif" font-size="10.00">string.h</text>
</g>
<!-- Node2&#45;&gt;Node3 -->
<g id="edge2" class="edge"><title>Node2&#45;&gt;Node3</title>
<path fill="none" stroke="midnightblue" d="M496.035,-397.395C585.204,-387.483 809,-356.117 809,-291 809,-291 809,-291 809,-121 809,-90.9022 812.679,-75.7873 790,-56 750.899,-21.8851 594.607,-13.6292 523.972,-11.6342"/>
<polygon fill="midnightblue" stroke="midnightblue" points="523.885,-8.13095 513.798,-11.3738 523.706,-15.1287 523.885,-8.13095"/>
</g>
<!-- Node4 -->
<g id="node4" class="node"><title>Node4</title>
<polygon fill="white" stroke="#bfbfbf" points="538,-56.5 538,-75.5 584,-75.5 584,-56.5 538,-56.5"/>
<text text-anchor="middle" x="561" y="-63.5" font-family="Helvetica,sans-Serif" font-size="10.00">stdio.h</text>
</g>
<!-- Node2&#45;&gt;Node4 -->
<g id="edge3" class="edge"><title>Node2&#45;&gt;Node4</title>
<path fill="none" stroke="midnightblue" d="M496.154,-398.732C557.643,-392.705 676,-370.747 676,-291 676,-291 676,-291 676,-233 676,-167.024 613.859,-108.345 580.935,-81.8859"/>
<polygon fill="midnightblue" stroke="midnightblue" points="582.907,-78.9852 572.874,-75.5823 578.595,-84.4994 582.907,-78.9852"/>
</g>
<!-- Node5 -->
<g id="node5" class="node"><title>Node5</title>
<polygon fill="white" stroke="#bfbfbf" points="33,-0.5 33,-19.5 81,-19.5 81,-0.5 33,-0.5"/>
<text text-anchor="middle" x="57" y="-7.5" font-family="Helvetica,sans-Serif" font-size="10.00">stdlib.h</text>
</g>
<!-- Node2&#45;&gt;Node5 -->
<g id="edge4" class="edge"><title>Node2&#45;&gt;Node5</title>
<path fill="none" stroke="midnightblue" d="M423.905,-393.333C315.464,-370.177 0,-301.88 0,-291 0,-291 0,-291 0,-121 0,-84.3005 25.321,-47.6567 42.2099,-27.2973"/>
<polygon fill="midnightblue" stroke="midnightblue" points="44.9535,-29.475 48.8333,-19.6161 39.6522,-24.9037 44.9535,-29.475"/>
</g>
<!-- Node6 -->
<g id="node6" class="node"><title>Node6</title>
<g id="a_node6"><a xlink:href="ceptr__error_8h_source.html" target="_top" xlink:title="ceptr_error.h">
<polygon fill="white" stroke="black" points="178.5,-112.5 178.5,-131.5 249.5,-131.5 249.5,-112.5 178.5,-112.5"/>
<text text-anchor="middle" x="214" y="-119.5" font-family="Helvetica,sans-Serif" font-size="10.00">ceptr_error.h</text>
</a>
</g>
</g>
<!-- Node2&#45;&gt;Node6 -->
<g id="edge5" class="edge"><title>Node2&#45;&gt;Node6</title>
<path fill="none" stroke="midnightblue" d="M423.905,-392.655C377.463,-381.733 301.378,-363.141 290,-356 234.714,-321.302 224.163,-302.396 195,-244 179.689,-213.342 171.576,-200.645 182,-168 185.341,-157.538 192.1,-147.428 198.549,-139.45"/>
<polygon fill="midnightblue" stroke="midnightblue" points="201.348,-141.564 205.249,-131.714 196.056,-136.981 201.348,-141.564"/>
</g>
<!-- Node10 -->
<g id="node10" class="node"><title>Node10</title>
<g id="a_node10"><a xlink:href="semtable_8h.html" target="_top" xlink:title="header file for table for coordinating meaning across a vmhost ">
<polygon fill="white" stroke="black" points="196.5,-168.5 196.5,-187.5 261.5,-187.5 261.5,-168.5 196.5,-168.5"/>
<text text-anchor="middle" x="229" y="-175.5" font-family="Helvetica,sans-Serif" font-size="10.00">semtable.h</text>
</a>
</g>
</g>
<!-- Node2&#45;&gt;Node10 -->
<g id="edge10" class="edge"><title>Node2&#45;&gt;Node10</title>
<path fill="none" stroke="midnightblue" d="M428.15,-392.498C401.803,-384.819 363.84,-372.239 333,-356 295.558,-336.285 279.217,-335.378 256,-300 235.211,-268.323 230.246,-222.994 229.172,-197.769"/>
<polygon fill="midnightblue" stroke="midnightblue" points="232.67,-197.62 228.91,-187.714 225.672,-197.802 232.67,-197.62"/>
</g>
<!-- Node17 -->
<g id="node17" class="node"><title>Node17</title>
<g id="a_node17"><a xlink:href="tree_8h.html" target="_top" xlink:title="semantic trees header file ">
<polygon fill="white" stroke="black" points="342.5,-336.5 342.5,-355.5 383.5,-355.5 383.5,-336.5 342.5,-336.5"/>
<text text-anchor="middle" x="363" y="-343.5" font-family="Helvetica,sans-Serif" font-size="10.00">tree.h</text>
</a>
</g>
</g>
<!-- Node2&#45;&gt;Node17 -->
<g id="edge21" class="edge"><title>Node2&#45;&gt;Node17</title>
<path fill="none" stroke="midnightblue" d="M444.415,-392.324C429.001,-383.743 405.188,-370.486 387.29,-360.522"/>
<polygon fill="midnightblue" stroke="midnightblue" points="388.986,-357.461 378.546,-355.655 385.581,-363.577 388.986,-357.461"/>
</g>
<!-- Node20 -->
<g id="node20" class="node"><title>Node20</title>
<g id="a_node20"><a xlink:href="stream_8h.html" target="_top" xlink:title="streams abstraction header file ">
<polygon fill="white" stroke="black" points="515.5,-280.5 515.5,-299.5 570.5,-299.5 570.5,-280.5 515.5,-280.5"/>
<text text-anchor="middle" x="543" y="-287.5" font-family="Helvetica,sans-Serif" font-size="10.00">stream.h</text>
</a>
</g>
</g>
<!-- Node2&#45;&gt;Node20 -->
<g id="edge40" class="edge"><title>Node2&#45;&gt;Node20</title>
<path fill="none" stroke="midnightblue" d="M466.513,-392.368C480.271,-374.135 512.497,-331.426 530.418,-307.675"/>
<polygon fill="midnightblue" stroke="midnightblue" points="533.288,-309.682 536.517,-299.591 527.7,-305.466 533.288,-309.682"/>
</g>
<!-- Node22 -->
<g id="node22" class="node"><title>Node22</title>
<g id="a_node22"><a xlink:href="mtree_8h.html" target="_top" xlink:title="semantic tree matrix header file `` ">
<polygon fill="white" stroke="black" points="404,-280.5 404,-299.5 454,-299.5 454,-280.5 404,-280.5"/>
<text text-anchor="middle" x="429" y="-287.5" font-family="Helvetica,sans-Serif" font-size="10.00">mtree.h</text>
</a>
</g>
</g>
<!-- Node2&#45;&gt;Node22 -->
<g id="edge34" class="edge"><title>Node2&#45;&gt;Node22</title>
<path fill="none" stroke="midnightblue" d="M457.567,-392.368C452.542,-374.537 440.92,-333.295 434.149,-309.272"/>
<polygon fill="midnightblue" stroke="midnightblue" points="437.503,-308.267 431.421,-299.591 430.765,-310.166 437.503,-308.267"/>
</g>
<!-- Node23 -->
<g id="node23" class="node"><title>Node23</title>
<g id="a_node23"><a xlink:href="util_8h.html" target="_top" xlink:title="util.h">
<polygon fill="white" stroke="black" points="701,-112.5 701,-131.5 739,-131.5 739,-112.5 701,-112.5"/>
<text text-anchor="middle" x="720" y="-119.5" font-family="Helvetica,sans-Serif" font-size="10.00">util.h</text>
</a>
</g>
</g>
<!-- Node2&#45;&gt;Node23 -->
<g id="edge41" class="edge"><title>Node2&#45;&gt;Node23</title>
<path fill="none" stroke="midnightblue" d="M496.039,-398.031C553.057,-392.675 660.624,-379.689 690,-356 714.486,-336.255 718,-322.455 718,-291 718,-291 718,-291 718,-233 718,-200.943 718.86,-163.639 719.452,-141.747"/>
<polygon fill="midnightblue" stroke="midnightblue" points="722.956,-141.651 719.739,-131.557 715.959,-141.454 722.956,-141.651"/>
</g>
<!-- Node26 -->
<g id="node26" class="node"><title>Node26</title>
<g id="a_node26"><a xlink:href="debug_8h.html" target="_top" xlink:title="debug.h">
<polygon fill="white" stroke="black" points="596.5,-168.5 596.5,-187.5 647.5,-187.5 647.5,-168.5 596.5,-168.5"/>
<text text-anchor="middle" x="622" y="-175.5" font-family="Helvetica,sans-Serif" font-size="10.00">debug.h</text>
</a>
</g>
</g>
<!-- Node2&#45;&gt;Node26 -->
<g id="edge46" class="edge"><title>Node2&#45;&gt;Node26</title>
<path fill="none" stroke="midnightblue" d="M474.704,-392.351C499.702,-376.916 550.538,-342.252 579,-300 600.926,-267.45 613.031,-222.449 618.453,-197.513"/>
<polygon fill="midnightblue" stroke="midnightblue" points="621.909,-198.084 620.485,-187.585 615.051,-196.68 621.909,-198.084"/>
</g>
<!-- Node6&#45;&gt;Node4 -->
<g id="edge6" class="edge"><title>Node6&#45;&gt;Node4</title>
<path fill="none" stroke="midnightblue" d="M249.504,-115.475C316.753,-105.01 461.84,-82.4312 527.505,-72.2125"/>
<polygon fill="midnightblue" stroke="midnightblue" points="528.363,-75.6212 537.706,-70.625 527.286,-68.7044 528.363,-75.6212"/>
</g>
<!-- Node7 -->
<g id="node7" class="node"><title>Node7</title>
<polygon fill="white" stroke="#bfbfbf" points="246,-56.5 246,-75.5 296,-75.5 296,-56.5 246,-56.5"/>
<text text-anchor="middle" x="271" y="-63.5" font-family="Helvetica,sans-Serif" font-size="10.00">signal.h</text>
</g>
<!-- Node6&#45;&gt;Node7 -->
<g id="edge7" class="edge"><title>Node6&#45;&gt;Node7</title>
<path fill="none" stroke="midnightblue" d="M223.158,-112.324C231.501,-104.42 244.032,-92.5482 254.177,-82.9377"/>
<polygon fill="midnightblue" stroke="midnightblue" points="256.823,-85.2522 261.675,-75.8339 252.009,-80.1705 256.823,-85.2522"/>
</g>
<!-- Node8 -->
<g id="node8" class="node"><title>Node8</title>
<polygon fill="white" stroke="#bfbfbf" points="104,-56.5 104,-75.5 156,-75.5 156,-56.5 104,-56.5"/>
<text text-anchor="middle" x="130" y="-63.5" font-family="Helvetica,sans-Serif" font-size="10.00">assert.h</text>
</g>
<!-- Node6&#45;&gt;Node8 -->
<g id="edge8" class="edge"><title>Node6&#45;&gt;Node8</title>
<path fill="none" stroke="midnightblue" d="M200.504,-112.324C187.4,-103.9 167.288,-90.9709 151.893,-81.0741"/>
<polygon fill="midnightblue" stroke="midnightblue" points="153.767,-78.118 143.463,-75.6545 149.982,-84.0063 153.767,-78.118"/>
</g>
<!-- Node9 -->
<g id="node9" class="node"><title>Node9</title>
<polygon fill="white" stroke="#bfbfbf" points="174,-56.5 174,-75.5 228,-75.5 228,-56.5 174,-56.5"/>
<text text-anchor="middle" x="201" y="-63.5" font-family="Helvetica,sans-Serif" font-size="10.00">setjmp.h</text>
</g>
<!-- Node6&#45;&gt;Node9 -->
<g id="edge9" class="edge"><title>Node6&#45;&gt;Node9</title>
<path fill="none" stroke="midnightblue" d="M211.853,-112.083C210.131,-104.927 207.653,-94.6353 205.5,-85.6911"/>
<polygon fill="midnightblue" stroke="midnightblue" points="208.85,-84.6541 203.107,-75.7511 202.045,-86.2925 208.85,-84.6541"/>
</g>
<!-- Node10&#45;&gt;Node6 -->
<g id="edge20" class="edge"><title>Node10&#45;&gt;Node6</title>
<path fill="none" stroke="midnightblue" d="M226.523,-168.083C224.514,-160.849 221.614,-150.409 219.11,-141.397"/>
<polygon fill="midnightblue" stroke="midnightblue" points="222.48,-140.449 216.431,-131.751 215.735,-142.323 222.48,-140.449"/>
</g>
<!-- Node11 -->
<g id="node11" class="node"><title>Node11</title>
<g id="a_node11"><a xlink:href="ceptr__types_8h_source.html" target="_top" xlink:title="ceptr_types.h">
<polygon fill="white" stroke="black" points="353,-112.5 353,-131.5 429,-131.5 429,-112.5 353,-112.5"/>
<text text-anchor="middle" x="391" y="-119.5" font-family="Helvetica,sans-Serif" font-size="10.00">ceptr_types.h</text>
</a>
</g>
</g>
<!-- Node10&#45;&gt;Node11 -->
<g id="edge11" class="edge"><title>Node10&#45;&gt;Node11</title>
<path fill="none" stroke="midnightblue" d="M254.669,-168.444C281.923,-159.359 325.184,-144.939 355.651,-134.783"/>
<polygon fill="midnightblue" stroke="midnightblue" points="357.071,-137.999 365.451,-131.516 354.857,-131.358 357.071,-137.999"/>
</g>
<!-- Node11&#45;&gt;Node4 -->
<g id="edge13" class="edge"><title>Node11&#45;&gt;Node4</title>
<path fill="none" stroke="midnightblue" d="M417.937,-112.444C447.759,-102.971 495.846,-87.6961 527.929,-77.5048"/>
<polygon fill="midnightblue" stroke="midnightblue" points="529.269,-80.7516 537.74,-74.3884 527.15,-74.0801 529.269,-80.7516"/>
</g>
<!-- Node12 -->
<g id="node12" class="node"><title>Node12</title>
<polygon fill="white" stroke="#bfbfbf" points="602.5,-56.5 602.5,-75.5 651.5,-75.5 651.5,-56.5 602.5,-56.5"/>
<text text-anchor="middle" x="627" y="-63.5" font-family="Helvetica,sans-Serif" font-size="10.00">stdint.h</text>
</g>
<!-- Node11&#45;&gt;Node12 -->
<g id="edge12" class="edge"><title>Node11&#45;&gt;Node12</title>
<path fill="none" stroke="midnightblue" d="M429.079,-112.987C467.699,-104.756 529.429,-91.316 592.086,-76.1488"/>
<polygon fill="midnightblue" stroke="midnightblue" points="593.258,-79.4658 602.147,-73.7003 591.602,-72.6644 593.258,-79.4658"/>
</g>
<!-- Node13 -->
<g id="node13" class="node"><title>Node13</title>
<g id="a_node13"><a xlink:href="uthash_8h_source.html" target="_top" xlink:title="uthash.h">
<polygon fill="white" stroke="black" points="314,-56.5 314,-75.5 368,-75.5 368,-56.5 314,-56.5"/>
<text text-anchor="middle" x="341" y="-63.5" font-family="Helvetica,sans-Serif" font-size="10.00">uthash.h</text>
</a>
</g>
</g>
<!-- Node11&#45;&gt;Node13 -->
<g id="edge14" class="edge"><title>Node11&#45;&gt;Node13</title>
<path fill="none" stroke="midnightblue" d="M382.744,-112.083C375.535,-104.298 364.89,-92.8015 356.154,-83.3665"/>
<polygon fill="midnightblue" stroke="midnightblue" points="358.465,-80.7108 349.103,-75.7511 353.329,-85.4666 358.465,-80.7108"/>
</g>
<!-- Node16 -->
<g id="node16" class="node"><title>Node16</title>
<polygon fill="white" stroke="#bfbfbf" points="386,-56.5 386,-75.5 442,-75.5 442,-56.5 386,-56.5"/>
<text text-anchor="middle" x="414" y="-63.5" font-family="Helvetica,sans-Serif" font-size="10.00">stdbool.h</text>
</g>
<!-- Node11&#45;&gt;Node16 -->
<g id="edge19" class="edge"><title>Node11&#45;&gt;Node16</title>
<path fill="none" stroke="midnightblue" d="M394.798,-112.083C397.913,-104.77 402.423,-94.1814 406.289,-85.1034"/>
<polygon fill="midnightblue" stroke="midnightblue" points="409.574,-86.3229 410.273,-75.7511 403.134,-83.5798 409.574,-86.3229"/>
</g>
<!-- Node13&#45;&gt;Node3 -->
<g id="edge15" class="edge"><title>Node13&#45;&gt;Node3</title>
<path fill="none" stroke="midnightblue" d="M364.451,-56.4435C389.133,-47.4381 428.185,-33.1891 455.977,-23.049"/>
<polygon fill="midnightblue" stroke="midnightblue" points="457.464,-26.2321 465.659,-19.5164 455.065,-19.6561 457.464,-26.2321"/>
</g>
<!-- Node13&#45;&gt;Node5 -->
<g id="edge17" class="edge"><title>Node13&#45;&gt;Node5</title>
<path fill="none" stroke="midnightblue" d="M313.918,-58.0275C310.915,-57.3148 307.897,-56.6243 305,-56 229.041,-39.6321 139.138,-24.3201 91.1807,-16.4742"/>
<polygon fill="midnightblue" stroke="midnightblue" points="91.4759,-12.9763 81.0436,-14.825 90.3517,-19.8855 91.4759,-12.9763"/>
</g>
<!-- Node14 -->
<g id="node14" class="node"><title>Node14</title>
<polygon fill="white" stroke="#bfbfbf" points="352,-0.5 352,-19.5 404,-19.5 404,-0.5 352,-0.5"/>
<text text-anchor="middle" x="378" y="-7.5" font-family="Helvetica,sans-Serif" font-size="10.00">stddef.h</text>
</g>
<!-- Node13&#45;&gt;Node14 -->
<g id="edge16" class="edge"><title>Node13&#45;&gt;Node14</title>
<path fill="none" stroke="midnightblue" d="M347.11,-56.083C352.282,-48.5341 359.846,-37.4948 366.194,-28.2298"/>
<polygon fill="midnightblue" stroke="midnightblue" points="369.239,-29.9787 372.004,-19.7511 363.464,-26.0221 369.239,-29.9787"/>
</g>
<!-- Node15 -->
<g id="node15" class="node"><title>Node15</title>
<polygon fill="white" stroke="#bfbfbf" points="274.5,-0.5 274.5,-19.5 333.5,-19.5 333.5,-0.5 274.5,-0.5"/>
<text text-anchor="middle" x="304" y="-7.5" font-family="Helvetica,sans-Serif" font-size="10.00">inttypes.h</text>
</g>
<!-- Node13&#45;&gt;Node15 -->
<g id="edge18" class="edge"><title>Node13&#45;&gt;Node15</title>
<path fill="none" stroke="midnightblue" d="M334.89,-56.083C329.718,-48.5341 322.154,-37.4948 315.806,-28.2298"/>
<polygon fill="midnightblue" stroke="midnightblue" points="318.536,-26.0221 309.996,-19.7511 312.761,-29.9787 318.536,-26.0221"/>
</g>
<!-- Node17&#45;&gt;Node3 -->
<g id="edge22" class="edge"><title>Node17&#45;&gt;Node3</title>
<path fill="none" stroke="midnightblue" d="M383.57,-341.809C406.831,-337.039 443.942,-325.686 463,-300 525.102,-216.302 503.81,-79.1393 493.354,-29.589"/>
<polygon fill="midnightblue" stroke="midnightblue" points="496.736,-28.6752 491.152,-19.6713 489.903,-30.1922 496.736,-28.6752"/>
</g>
<!-- Node17&#45;&gt;Node5 -->
<g id="edge23" class="edge"><title>Node17&#45;&gt;Node5</title>
<path fill="none" stroke="midnightblue" d="M342.311,-342.134C314.567,-337.421 264.883,-325.842 231,-300 135.336,-227.038 132.55,-183.738 79,-76 71.5431,-60.9975 65.6402,-42.8636 61.834,-29.5655"/>
<polygon fill="midnightblue" stroke="midnightblue" points="65.1528,-28.4322 59.142,-19.7074 58.4,-30.2763 65.1528,-28.4322"/>
</g>
<!-- Node17&#45;&gt;Node6 -->
<g id="edge24" class="edge"><title>Node17&#45;&gt;Node6</title>
<path fill="none" stroke="midnightblue" d="M342.462,-340.404C319.305,-334.374 281.558,-321.896 256,-300 211.6,-261.962 202.937,-244.252 187,-188 182.229,-171.16 191.249,-152.816 200.122,-139.923"/>
<polygon fill="midnightblue" stroke="midnightblue" points="203.164,-141.7 206.357,-131.597 197.561,-137.504 203.164,-141.7"/>
</g>
<!-- Node17&#45;&gt;Node11 -->
<g id="edge30" class="edge"><title>Node17&#45;&gt;Node11</title>
<path fill="none" stroke="midnightblue" d="M342.251,-341.648C319.78,-336.789 285.009,-325.412 269,-300 250.996,-271.42 254.624,-254.566 269,-224 288.431,-182.688 333.974,-152.479 363.586,-136.348"/>
<polygon fill="midnightblue" stroke="midnightblue" points="365.369,-139.365 372.587,-131.609 362.108,-133.171 365.369,-139.365"/>
</g>
<!-- Node18 -->
<g id="node18" class="node"><title>Node18</title>
<g id="a_node18"><a xlink:href="sys__defs_8h.html" target="_top" xlink:title="Defines types and vars for system defined semantics. ">
<polygon fill="white" stroke="black" points="278.5,-224.5 278.5,-243.5 343.5,-243.5 343.5,-224.5 278.5,-224.5"/>
<text text-anchor="middle" x="311" y="-231.5" font-family="Helvetica,sans-Serif" font-size="10.00">sys_defs.h</text>
</a>
</g>
</g>
<!-- Node17&#45;&gt;Node18 -->
<g id="edge25" class="edge"><title>Node17&#45;&gt;Node18</title>
<path fill="none" stroke="midnightblue" d="M364.045,-336.085C365.171,-323.071 365.766,-298.419 357,-280 351.356,-268.141 341.194,-257.683 331.855,-249.842"/>
<polygon fill="midnightblue" stroke="midnightblue" points="334.017,-247.089 323.994,-243.654 329.687,-252.589 334.017,-247.089"/>
</g>
<!-- Node19 -->
<g id="node19" class="node"><title>Node19</title>
<g id="a_node19"><a xlink:href="base__defs_8h.html" target="_top" xlink:title="auto&#45;generated system definitions ">
<polygon fill="white" stroke="black" points="278,-280.5 278,-299.5 348,-299.5 348,-280.5 278,-280.5"/>
<text text-anchor="middle" x="313" y="-287.5" font-family="Helvetica,sans-Serif" font-size="10.00">base_defs.h</text>
</a>
</g>
</g>
<!-- Node17&#45;&gt;Node19 -->
<g id="edge28" class="edge"><title>Node17&#45;&gt;Node19</title>
<path fill="none" stroke="midnightblue" d="M354.744,-336.083C347.535,-328.298 336.89,-316.801 328.154,-307.367"/>
<polygon fill="midnightblue" stroke="midnightblue" points="330.465,-304.711 321.103,-299.751 325.329,-309.467 330.465,-304.711"/>
</g>
<!-- Node17&#45;&gt;Node20 -->
<g id="edge31" class="edge"><title>Node17&#45;&gt;Node20</title>
<path fill="none" stroke="midnightblue" d="M383.648,-338.806C413.276,-329.917 468.344,-313.397 505.336,-302.299"/>
<polygon fill="midnightblue" stroke="midnightblue" points="506.682,-305.55 515.254,-299.324 504.67,-298.845 506.682,-305.55"/>
</g>
<!-- Node18&#45;&gt;Node10 -->
<g id="edge27" class="edge"><title>Node18&#45;&gt;Node10</title>
<path fill="none" stroke="midnightblue" d="M297.825,-224.324C285.153,-215.979 265.767,-203.212 250.794,-193.352"/>
<polygon fill="midnightblue" stroke="midnightblue" points="252.419,-190.231 242.142,-187.655 248.569,-196.078 252.419,-190.231"/>
</g>
<!-- Node18&#45;&gt;Node11 -->
<g id="edge26" class="edge"><title>Node18&#45;&gt;Node11</title>
<path fill="none" stroke="midnightblue" d="M317.277,-224.368C330.48,-206.215 361.326,-163.802 378.644,-139.99"/>
<polygon fill="midnightblue" stroke="midnightblue" points="381.701,-141.737 384.752,-131.591 376.039,-137.62 381.701,-141.737"/>
</g>
<!-- Node19&#45;&gt;Node18 -->
<g id="edge29" class="edge"><title>Node19&#45;&gt;Node18</title>
<path fill="none" stroke="midnightblue" d="M312.67,-280.083C312.408,-273.006 312.032,-262.861 311.703,-253.986"/>
<polygon fill="midnightblue" stroke="midnightblue" points="315.192,-253.615 311.324,-243.751 308.197,-253.874 315.192,-253.615"/>
</g>
<!-- Node20&#45;&gt;Node4 -->
<g id="edge32" class="edge"><title>Node20&#45;&gt;Node4</title>
<path fill="none" stroke="midnightblue" d="M553.438,-280.245C562.424,-271.969 574.746,-258.663 580,-244 590.317,-215.207 573.323,-125.132 565.082,-85.7473"/>
<polygon fill="midnightblue" stroke="midnightblue" points="568.485,-84.9239 562.976,-75.8742 561.64,-86.3844 568.485,-84.9239"/>
</g>
<!-- Node21 -->
<g id="node21" class="node"><title>Node21</title>
<polygon fill="white" stroke="#bfbfbf" points="514.5,-224.5 514.5,-243.5 571.5,-243.5 571.5,-224.5 514.5,-224.5"/>
<text text-anchor="middle" x="543" y="-231.5" font-family="Helvetica,sans-Serif" font-size="10.00">pthread.h</text>
</g>
<!-- Node20&#45;&gt;Node21 -->
<g id="edge33" class="edge"><title>Node20&#45;&gt;Node21</title>
<path fill="none" stroke="midnightblue" d="M543,-280.083C543,-273.006 543,-262.861 543,-253.986"/>
<polygon fill="midnightblue" stroke="midnightblue" points="546.5,-253.751 543,-243.751 539.5,-253.751 546.5,-253.751"/>
</g>
<!-- Node22&#45;&gt;Node3 -->
<g id="edge35" class="edge"><title>Node22&#45;&gt;Node3</title>
<path fill="none" stroke="midnightblue" d="M430.861,-280.375C439.208,-241.701 473.289,-83.7937 485.015,-29.4651"/>
<polygon fill="midnightblue" stroke="midnightblue" points="488.472,-30.0376 487.16,-19.5243 481.629,-28.5608 488.472,-30.0376"/>
</g>
<!-- Node22&#45;&gt;Node5 -->
<g id="edge36" class="edge"><title>Node22&#45;&gt;Node5</title>
<path fill="none" stroke="midnightblue" d="M403.994,-284.589C371.732,-278.317 314.366,-265.173 269,-244 171.59,-198.537 156.436,-164.211 95,-76 84.2843,-60.6142 73.647,-42.0638 66.3643,-28.7252"/>
<polygon fill="midnightblue" stroke="midnightblue" points="69.3201,-26.8316 61.5033,-19.6798 63.1541,-30.1453 69.3201,-26.8316"/>
</g>
<!-- Node22&#45;&gt;Node6 -->
<g id="edge37" class="edge"><title>Node22&#45;&gt;Node6</title>
<path fill="none" stroke="midnightblue" d="M419.215,-280.362C404.764,-267.693 376.752,-243.467 352,-224 311.325,-192.01 262.067,-156.761 234.768,-137.521"/>
<polygon fill="midnightblue" stroke="midnightblue" points="236.59,-134.524 226.396,-131.637 232.565,-140.251 236.59,-134.524"/>
</g>
<!-- Node22&#45;&gt;Node11 -->
<g id="edge39" class="edge"><title>Node22&#45;&gt;Node11</title>
<path fill="none" stroke="midnightblue" d="M426.957,-280.075C420.975,-253.945 403.41,-177.211 395.253,-141.577"/>
<polygon fill="midnightblue" stroke="midnightblue" points="398.605,-140.535 392.961,-131.568 391.781,-142.097 398.605,-140.535"/>
</g>
<!-- Node22&#45;&gt;Node18 -->
<g id="edge38" class="edge"><title>Node22&#45;&gt;Node18</title>
<path fill="none" stroke="midnightblue" d="M410.303,-280.444C391.056,-271.636 360.848,-257.812 338.8,-247.722"/>
<polygon fill="midnightblue" stroke="midnightblue" points="340.16,-244.495 329.61,-243.516 337.247,-250.86 340.16,-244.495"/>
</g>
<!-- Node23&#45;&gt;Node4 -->
<g id="edge43" class="edge"><title>Node23&#45;&gt;Node4</title>
<path fill="none" stroke="midnightblue" d="M700.821,-114.486C674.363,-105.501 626.281,-89.1708 593.989,-78.2039"/>
<polygon fill="midnightblue" stroke="midnightblue" points="594.702,-74.7496 584.107,-74.8478 592.451,-81.3778 594.702,-74.7496"/>
</g>
<!-- Node23&#45;&gt;Node12 -->
<g id="edge45" class="edge"><title>Node23&#45;&gt;Node12</title>
<path fill="none" stroke="midnightblue" d="M705.058,-112.324C690.415,-103.822 667.866,-90.7288 650.762,-80.7975"/>
<polygon fill="midnightblue" stroke="midnightblue" points="652.31,-77.6491 641.905,-75.6545 648.795,-83.7027 652.31,-77.6491"/>
</g>
<!-- Node24 -->
<g id="node24" class="node"><title>Node24</title>
<polygon fill="white" stroke="#bfbfbf" points="669.5,-56.5 669.5,-75.5 718.5,-75.5 718.5,-56.5 669.5,-56.5"/>
<text text-anchor="middle" x="694" y="-63.5" font-family="Helvetica,sans-Serif" font-size="10.00">ctype.h</text>
</g>
<!-- Node23&#45;&gt;Node24 -->
<g id="edge42" class="edge"><title>Node23&#45;&gt;Node24</title>
<path fill="none" stroke="midnightblue" d="M715.707,-112.083C712.148,-104.691 706.978,-93.9533 702.576,-84.8111"/>
<polygon fill="midnightblue" stroke="midnightblue" points="705.705,-83.2427 698.213,-75.7511 699.398,-86.2795 705.705,-83.2427"/>
</g>
<!-- Node25 -->
<g id="node25" class="node"><title>Node25</title>
<polygon fill="white" stroke="#bfbfbf" points="737,-56.5 737,-75.5 781,-75.5 781,-56.5 737,-56.5"/>
<text text-anchor="middle" x="759" y="-63.5" font-family="Helvetica,sans-Serif" font-size="10.00">time.h</text>
</g>
<!-- Node23&#45;&gt;Node25 -->
<g id="edge44" class="edge"><title>Node23&#45;&gt;Node25</title>
<path fill="none" stroke="midnightblue" d="M726.44,-112.083C731.949,-104.455 740.031,-93.2645 746.765,-83.9408"/>
<polygon fill="midnightblue" stroke="midnightblue" points="749.662,-85.9071 752.68,-75.7511 743.987,-81.8087 749.662,-85.9071"/>
</g>
<!-- Node26&#45;&gt;Node4 -->
<g id="edge47" class="edge"><title>Node26&#45;&gt;Node4</title>
<path fill="none" stroke="midnightblue" d="M617.213,-168.368C607.236,-150.376 584.042,-108.55 570.775,-84.6267"/>
<polygon fill="midnightblue" stroke="midnightblue" points="573.675,-82.6393 565.764,-75.5914 567.553,-86.0342 573.675,-82.6393"/>
</g>
<!-- Node27&#45;&gt;Node17 -->
<g id="edge49" class="edge"><title>Node27&#45;&gt;Node17</title>
<path fill="none" stroke="midnightblue" d="M363,-392.083C363,-385.006 363,-374.861 363,-365.986"/>
<polygon fill="midnightblue" stroke="midnightblue" points="366.5,-365.751 363,-355.751 359.5,-365.751 366.5,-365.751"/>
</g>
</g>
</svg>
