<?xml version="1.0" encoding="UTF-8" standalone="no"?>
<!DOCTYPE svg PUBLIC "-//W3C//DTD SVG 1.1//EN"
 "http://www.w3.org/Graphics/SVG/1.1/DTD/svg11.dtd">
<!-- Generated by graphviz version 2.38.0 (20140413.2041)
 -->
<!-- Title: src/process.h Pages: 1 -->
<svg width="510pt" height="364pt"
 viewBox="0.00 0.00 509.91 364.00" xmlns="http://www.w3.org/2000/svg" xmlns:xlink="http://www.w3.org/1999/xlink">
<g id="graph0" class="graph" transform="scale(1 1) rotate(0) translate(4 360)">
<title>src/process.h</title>
<polygon fill="white" stroke="none" points="-4,4 -4,-360 505.906,-360 505.906,4 -4,4"/>
<!-- Node1 -->
<g id="node1" class="node"><title>Node1</title>
<polygon fill="#bfbfbf" stroke="black" points="154.5,-336.5 154.5,-355.5 230.5,-355.5 230.5,-336.5 154.5,-336.5"/>
<text text-anchor="middle" x="192.5" y="-343.5" font-family="Helvetica,sans-Serif" font-size="10.00">src/process.h</text>
</g>
<!-- Node2 -->
<g id="node2" class="node"><title>Node2</title>
<g id="a_node2"><a xlink:href="tree_8h.html" target="_top" xlink:title="semantic trees header file ">
<polygon fill="white" stroke="black" points="172,-280.5 172,-299.5 213,-299.5 213,-280.5 172,-280.5"/>
<text text-anchor="middle" x="192.5" y="-287.5" font-family="Helvetica,sans-Serif" font-size="10.00">tree.h</text>
</a>
</g>
</g>
<!-- Node1&#45;&gt;Node2 -->
<g id="edge1" class="edge"><title>Node1&#45;&gt;Node2</title>
<path fill="none" stroke="midnightblue" d="M192.5,-336.083C192.5,-329.006 192.5,-318.861 192.5,-309.986"/>
<polygon fill="midnightblue" stroke="midnightblue" points="196,-309.751 192.5,-299.751 189,-309.751 196,-309.751"/>
</g>
<!-- Node3 -->
<g id="node3" class="node"><title>Node3</title>
<polygon fill="white" stroke="#bfbfbf" points="0,-0.5 0,-19.5 49,-19.5 49,-0.5 0,-0.5"/>
<text text-anchor="middle" x="24.5" y="-7.5" font-family="Helvetica,sans-Serif" font-size="10.00">string.h</text>
</g>
<!-- Node2&#45;&gt;Node3 -->
<g id="edge2" class="edge"><title>Node2&#45;&gt;Node3</title>
<path fill="none" stroke="midnightblue" d="M171.768,-288.288C140.646,-286.104 81.8498,-277.487 47.5,-244 25.6616,-222.71 25.5,-209.499 25.5,-179 25.5,-179 25.5,-179 25.5,-121 25.5,-88.9467 25.0702,-51.6417 24.7741,-29.7484"/>
<polygon fill="midnightblue" stroke="midnightblue" points="28.2712,-29.5073 24.6307,-19.5575 21.2719,-29.6058 28.2712,-29.5073"/>
</g>
<!-- Node4 -->
<g id="node4" class="node"><title>Node4</title>
<polygon fill="white" stroke="#bfbfbf" points="215.5,-0.5 215.5,-19.5 263.5,-19.5 263.5,-0.5 215.5,-0.5"/>
<text text-anchor="middle" x="239.5" y="-7.5" font-family="Helvetica,sans-Serif" font-size="10.00">stdlib.h</text>
</g>
<!-- Node2&#45;&gt;Node4 -->
<g id="edge3" class="edge"><title>Node2&#45;&gt;Node4</title>
<path fill="none" stroke="midnightblue" d="M197.784,-280.231C208.225,-262.043 230.5,-218.601 230.5,-179 230.5,-179 230.5,-179 230.5,-121 230.5,-88.8409 234.368,-51.5688 237.033,-29.7107"/>
<polygon fill="midnightblue" stroke="midnightblue" points="240.537,-29.8993 238.323,-19.5383 233.593,-29.0183 240.537,-29.8993"/>
</g>
<!-- Node5 -->
<g id="node5" class="node"><title>Node5</title>
<g id="a_node5"><a xlink:href="ceptr__error_8h_source.html" target="_top" xlink:title="ceptr_error.h">
<polygon fill="white" stroke="black" points="358,-224.5 358,-243.5 429,-243.5 429,-224.5 358,-224.5"/>
<text text-anchor="middle" x="393.5" y="-231.5" font-family="Helvetica,sans-Serif" font-size="10.00">ceptr_error.h</text>
</a>
</g>
</g>
<!-- Node2&#45;&gt;Node5 -->
<g id="edge4" class="edge"><title>Node2&#45;&gt;Node5</title>
<path fill="none" stroke="midnightblue" d="M213.253,-283.424C245.847,-274.668 309.672,-257.521 351.957,-246.161"/>
<polygon fill="midnightblue" stroke="midnightblue" points="352.934,-249.522 361.684,-243.548 351.118,-242.762 352.934,-249.522"/>
</g>
<!-- Node10 -->
<g id="node10" class="node"><title>Node10</title>
<g id="a_node10"><a xlink:href="sys__defs_8h.html" target="_top" xlink:title="Defines types and vars for system defined semantics. ">
<polygon fill="white" stroke="black" points="99,-168.5 99,-187.5 164,-187.5 164,-168.5 99,-168.5"/>
<text text-anchor="middle" x="131.5" y="-175.5" font-family="Helvetica,sans-Serif" font-size="10.00">sys_defs.h</text>
</a>
</g>
</g>
<!-- Node2&#45;&gt;Node10 -->
<g id="edge9" class="edge"><title>Node2&#45;&gt;Node10</title>
<path fill="none" stroke="midnightblue" d="M187.713,-280.368C177.736,-262.376 154.542,-220.55 141.275,-196.627"/>
<polygon fill="midnightblue" stroke="midnightblue" points="144.175,-194.639 136.264,-187.591 138.053,-198.034 144.175,-194.639"/>
</g>
<!-- Node11 -->
<g id="node11" class="node"><title>Node11</title>
<g id="a_node11"><a xlink:href="ceptr__types_8h_source.html" target="_top" xlink:title="ceptr_types.h">
<polygon fill="white" stroke="black" points="126.5,-112.5 126.5,-131.5 202.5,-131.5 202.5,-112.5 126.5,-112.5"/>
<text text-anchor="middle" x="164.5" y="-119.5" font-family="Helvetica,sans-Serif" font-size="10.00">ceptr_types.h</text>
</a>
</g>
</g>
<!-- Node2&#45;&gt;Node11 -->
<g id="edge20" class="edge"><title>Node2&#45;&gt;Node11</title>
<path fill="none" stroke="midnightblue" d="M191.129,-280.485C187.938,-260.717 179.735,-210.181 172.5,-168 171.006,-159.29 169.298,-149.641 167.844,-141.519"/>
<polygon fill="midnightblue" stroke="midnightblue" points="171.279,-140.844 166.065,-131.621 164.39,-142.083 171.279,-140.844"/>
</g>
<!-- Node16 -->
<g id="node16" class="node"><title>Node16</title>
<g id="a_node16"><a xlink:href="base__defs_8h.html" target="_top" xlink:title="auto&#45;generated system definitions ">
<polygon fill="white" stroke="black" points="56.5,-224.5 56.5,-243.5 126.5,-243.5 126.5,-224.5 56.5,-224.5"/>
<text text-anchor="middle" x="91.5" y="-231.5" font-family="Helvetica,sans-Serif" font-size="10.00">base_defs.h</text>
</a>
</g>
</g>
<!-- Node2&#45;&gt;Node16 -->
<g id="edge18" class="edge"><title>Node2&#45;&gt;Node16</title>
<path fill="none" stroke="midnightblue" d="M176.273,-280.324C160.149,-271.703 135.2,-258.364 116.536,-248.386"/>
<polygon fill="midnightblue" stroke="midnightblue" points="118.156,-245.283 107.687,-243.655 114.856,-251.456 118.156,-245.283"/>
</g>
<!-- Node17 -->
<g id="node17" class="node"><title>Node17</title>
<g id="a_node17"><a xlink:href="stream_8h.html" target="_top" xlink:title="streams abstraction header file ">
<polygon fill="white" stroke="black" points="259,-112.5 259,-131.5 314,-131.5 314,-112.5 259,-112.5"/>
<text text-anchor="middle" x="286.5" y="-119.5" font-family="Helvetica,sans-Serif" font-size="10.00">stream.h</text>
</a>
</g>
</g>
<!-- Node2&#45;&gt;Node17 -->
<g id="edge21" class="edge"><title>Node2&#45;&gt;Node17</title>
<path fill="none" stroke="midnightblue" d="M206.231,-280.191C217.894,-272.069 234.317,-259.021 244.5,-244 266.466,-211.599 278.082,-166.543 283.196,-141.557"/>
<polygon fill="midnightblue" stroke="midnightblue" points="286.658,-142.087 285.102,-131.607 279.783,-140.77 286.658,-142.087"/>
</g>
<!-- Node6 -->
<g id="node6" class="node"><title>Node6</title>
<polygon fill="white" stroke="#bfbfbf" points="263.5,-56.5 263.5,-75.5 309.5,-75.5 309.5,-56.5 263.5,-56.5"/>
<text text-anchor="middle" x="286.5" y="-63.5" font-family="Helvetica,sans-Serif" font-size="10.00">stdio.h</text>
</g>
<!-- Node5&#45;&gt;Node6 -->
<g id="edge5" class="edge"><title>Node5&#45;&gt;Node6</title>
<path fill="none" stroke="midnightblue" d="M429.009,-225.885C466.121,-216.69 516.51,-198.175 497.5,-168 458.173,-105.575 368.403,-80.8857 319.589,-71.8115"/>
<polygon fill="midnightblue" stroke="midnightblue" points="319.994,-68.3294 309.541,-70.0575 318.79,-75.2251 319.994,-68.3294"/>
</g>
<!-- Node7 -->
<g id="node7" class="node"><title>Node7</title>
<polygon fill="white" stroke="#bfbfbf" points="438.5,-168.5 438.5,-187.5 488.5,-187.5 488.5,-168.5 438.5,-168.5"/>
<text text-anchor="middle" x="463.5" y="-175.5" font-family="Helvetica,sans-Serif" font-size="10.00">signal.h</text>
</g>
<!-- Node5&#45;&gt;Node7 -->
<g id="edge6" class="edge"><title>Node5&#45;&gt;Node7</title>
<path fill="none" stroke="midnightblue" d="M404.747,-224.324C415.297,-216.185 431.301,-203.839 443.942,-194.087"/>
<polygon fill="midnightblue" stroke="midnightblue" points="446.269,-196.713 452.049,-187.834 441.993,-191.171 446.269,-196.713"/>
</g>
<!-- Node8 -->
<g id="node8" class="node"><title>Node8</title>
<polygon fill="white" stroke="#bfbfbf" points="296.5,-168.5 296.5,-187.5 348.5,-187.5 348.5,-168.5 296.5,-168.5"/>
<text text-anchor="middle" x="322.5" y="-175.5" font-family="Helvetica,sans-Serif" font-size="10.00">assert.h</text>
</g>
<!-- Node5&#45;&gt;Node8 -->
<g id="edge7" class="edge"><title>Node5&#45;&gt;Node8</title>
<path fill="none" stroke="midnightblue" d="M382.093,-224.324C371.391,-216.185 355.159,-203.839 342.337,-194.087"/>
<polygon fill="midnightblue" stroke="midnightblue" points="344.193,-191.102 334.115,-187.834 339.956,-196.673 344.193,-191.102"/>
</g>
<!-- Node9 -->
<g id="node9" class="node"><title>Node9</title>
<polygon fill="white" stroke="#bfbfbf" points="366.5,-168.5 366.5,-187.5 420.5,-187.5 420.5,-168.5 366.5,-168.5"/>
<text text-anchor="middle" x="393.5" y="-175.5" font-family="Helvetica,sans-Serif" font-size="10.00">setjmp.h</text>
</g>
<!-- Node5&#45;&gt;Node9 -->
<g id="edge8" class="edge"><title>Node5&#45;&gt;Node9</title>
<path fill="none" stroke="midnightblue" d="M393.5,-224.083C393.5,-217.006 393.5,-206.861 393.5,-197.986"/>
<polygon fill="midnightblue" stroke="midnightblue" points="397,-197.751 393.5,-187.751 390,-197.751 397,-197.751"/>
</g>
<!-- Node10&#45;&gt;Node11 -->
<g id="edge10" class="edge"><title>Node10&#45;&gt;Node11</title>
<path fill="none" stroke="midnightblue" d="M136.949,-168.083C141.514,-160.613 148.168,-149.724 153.793,-140.52"/>
<polygon fill="midnightblue" stroke="midnightblue" points="156.924,-142.109 159.152,-131.751 150.951,-138.459 156.924,-142.109"/>
</g>
<!-- Node11&#45;&gt;Node6 -->
<g id="edge12" class="edge"><title>Node11&#45;&gt;Node6</title>
<path fill="none" stroke="midnightblue" d="M183.831,-112.444C203.82,-103.596 235.243,-89.6875 258.064,-79.5865"/>
<polygon fill="midnightblue" stroke="midnightblue" points="259.532,-82.7645 267.259,-75.5164 256.698,-76.3635 259.532,-82.7645"/>
</g>
<!-- Node12 -->
<g id="node12" class="node"><title>Node12</title>
<polygon fill="white" stroke="#bfbfbf" points="71,-56.5 71,-75.5 120,-75.5 120,-56.5 71,-56.5"/>
<text text-anchor="middle" x="95.5" y="-63.5" font-family="Helvetica,sans-Serif" font-size="10.00">stdint.h</text>
</g>
<!-- Node11&#45;&gt;Node12 -->
<g id="edge11" class="edge"><title>Node11&#45;&gt;Node12</title>
<path fill="none" stroke="midnightblue" d="M153.414,-112.324C143.014,-104.185 127.239,-91.8395 114.778,-82.0874"/>
<polygon fill="midnightblue" stroke="midnightblue" points="116.82,-79.2407 106.788,-75.8339 112.506,-84.7533 116.82,-79.2407"/>
</g>
<!-- Node13 -->
<g id="node13" class="node"><title>Node13</title>
<g id="a_node13"><a xlink:href="uthash_8h_source.html" target="_top" xlink:title="uthash.h">
<polygon fill="white" stroke="black" points="138.5,-56.5 138.5,-75.5 192.5,-75.5 192.5,-56.5 138.5,-56.5"/>
<text text-anchor="middle" x="165.5" y="-63.5" font-family="Helvetica,sans-Serif" font-size="10.00">uthash.h</text>
</a>
</g>
</g>
<!-- Node11&#45;&gt;Node13 -->
<g id="edge13" class="edge"><title>Node11&#45;&gt;Node13</title>
<path fill="none" stroke="midnightblue" d="M164.665,-112.083C164.796,-105.006 164.984,-94.8611 165.148,-85.9865"/>
<polygon fill="midnightblue" stroke="midnightblue" points="168.652,-85.8142 165.338,-75.7511 161.653,-85.6845 168.652,-85.8142"/>
</g>
<!-- Node13&#45;&gt;Node3 -->
<g id="edge14" class="edge"><title>Node13&#45;&gt;Node3</title>
<path fill="none" stroke="midnightblue" d="M143.158,-56.4435C119.747,-47.4776 82.7644,-33.314 56.3104,-23.1827"/>
<polygon fill="midnightblue" stroke="midnightblue" points="57.3277,-19.8245 46.7373,-19.5164 54.8241,-26.3615 57.3277,-19.8245"/>
</g>
<!-- Node13&#45;&gt;Node4 -->
<g id="edge16" class="edge"><title>Node13&#45;&gt;Node4</title>
<path fill="none" stroke="midnightblue" d="M177.389,-56.324C188.65,-48.1066 205.787,-35.6017 219.209,-25.8069"/>
<polygon fill="midnightblue" stroke="midnightblue" points="221.38,-28.5559 227.394,-19.8339 217.253,-22.9014 221.38,-28.5559"/>
</g>
<!-- Node14 -->
<g id="node14" class="node"><title>Node14</title>
<polygon fill="white" stroke="#bfbfbf" points="67.5,-0.5 67.5,-19.5 119.5,-19.5 119.5,-0.5 67.5,-0.5"/>
<text text-anchor="middle" x="93.5" y="-7.5" font-family="Helvetica,sans-Serif" font-size="10.00">stddef.h</text>
</g>
<!-- Node13&#45;&gt;Node14 -->
<g id="edge15" class="edge"><title>Node13&#45;&gt;Node14</title>
<path fill="none" stroke="midnightblue" d="M153.932,-56.324C143.08,-48.1849 126.619,-35.8395 113.617,-26.0874"/>
<polygon fill="midnightblue" stroke="midnightblue" points="115.379,-23.0339 105.279,-19.8339 111.179,-28.6339 115.379,-23.0339"/>
</g>
<!-- Node15 -->
<g id="node15" class="node"><title>Node15</title>
<polygon fill="white" stroke="#bfbfbf" points="138,-0.5 138,-19.5 197,-19.5 197,-0.5 138,-0.5"/>
<text text-anchor="middle" x="167.5" y="-7.5" font-family="Helvetica,sans-Serif" font-size="10.00">inttypes.h</text>
</g>
<!-- Node13&#45;&gt;Node15 -->
<g id="edge17" class="edge"><title>Node13&#45;&gt;Node15</title>
<path fill="none" stroke="midnightblue" d="M165.83,-56.083C166.092,-49.0059 166.468,-38.8611 166.797,-29.9865"/>
<polygon fill="midnightblue" stroke="midnightblue" points="170.303,-29.8738 167.176,-19.7511 163.308,-29.6147 170.303,-29.8738"/>
</g>
<!-- Node16&#45;&gt;Node10 -->
<g id="edge19" class="edge"><title>Node16&#45;&gt;Node10</title>
<path fill="none" stroke="midnightblue" d="M98.1052,-224.083C103.755,-216.455 112.045,-205.264 118.951,-195.941"/>
<polygon fill="midnightblue" stroke="midnightblue" points="121.878,-197.87 125.018,-187.751 116.253,-193.703 121.878,-197.87"/>
</g>
<!-- Node17&#45;&gt;Node6 -->
<g id="edge22" class="edge"><title>Node17&#45;&gt;Node6</title>
<path fill="none" stroke="midnightblue" d="M286.5,-112.083C286.5,-105.006 286.5,-94.8611 286.5,-85.9865"/>
<polygon fill="midnightblue" stroke="midnightblue" points="290,-85.751 286.5,-75.7511 283,-85.7511 290,-85.751"/>
</g>
</g>
</svg>
