<?xml version="1.0" encoding="UTF-8" standalone="no"?>
<!DOCTYPE svg PUBLIC "-//W3C//DTD SVG 1.1//EN"
 "http://www.w3.org/Graphics/SVG/1.1/DTD/svg11.dtd">
<!-- Generated by graphviz version 2.38.0 (20140413.2041)
 -->
<!-- Title: src/process.h Pages: 1 -->
<svg width="1750pt" height="364pt"
 viewBox="0.00 0.00 1749.50 364.00" xmlns="http://www.w3.org/2000/svg" xmlns:xlink="http://www.w3.org/1999/xlink">
<g id="graph0" class="graph" transform="scale(1 1) rotate(0) translate(4 360)">
<title>src/process.h</title>
<polygon fill="white" stroke="none" points="-4,4 -4,-360 1745.5,-360 1745.5,4 -4,4"/>
<!-- Node1 -->
<g id="node1" class="node"><title>Node1</title>
<polygon fill="#bfbfbf" stroke="black" points="1399.5,-336.5 1399.5,-355.5 1475.5,-355.5 1475.5,-336.5 1399.5,-336.5"/>
<text text-anchor="middle" x="1437.5" y="-343.5" font-family="Helvetica,sans-Serif" font-size="10.00">src/process.h</text>
</g>
<!-- Node2 -->
<g id="node2" class="node"><title>Node2</title>
<g id="a_node2"><a xlink:href="receptor_8h.html" target="_top" xlink:title="receptor implementation header file ">
<polygon fill="white" stroke="black" points="524,-280.5 524,-299.5 601,-299.5 601,-280.5 524,-280.5"/>
<text text-anchor="middle" x="562.5" y="-287.5" font-family="Helvetica,sans-Serif" font-size="10.00">src/receptor.h</text>
</a>
</g>
</g>
<!-- Node1&#45;&gt;Node2 -->
<g id="edge1" class="edge"><title>Node1&#45;&gt;Node2</title>
<path fill="none" stroke="midnightblue" d="M1389.1,-342.013C1232.75,-332.364 743.178,-302.15 601.357,-293.398"/>
<polygon fill="midnightblue" stroke="midnightblue" points="1389.14,-345.522 1399.34,-342.645 1389.57,-338.536 1389.14,-345.522"/>
</g>
<!-- Node11 -->
<g id="node11" class="node"><title>Node11</title>
<g id="a_node11"><a xlink:href="process_8c.html" target="_top" xlink:title="implementation of ceptr processing: instructions and run tree reduction ">
<polygon fill="white" stroke="black" points="1417.5,-112.5 1417.5,-131.5 1493.5,-131.5 1493.5,-112.5 1417.5,-112.5"/>
<text text-anchor="middle" x="1455.5" y="-119.5" font-family="Helvetica,sans-Serif" font-size="10.00">src/process.c</text>
</a>
</g>
</g>
<!-- Node1&#45;&gt;Node11 -->
<g id="edge60" class="edge"><title>Node1&#45;&gt;Node11</title>
<path fill="none" stroke="midnightblue" d="M1423.57,-328.363C1398.18,-295.88 1349.68,-222.439 1380.5,-168 1390.67,-150.029 1411.21,-138.452 1428.22,-131.547"/>
<polygon fill="midnightblue" stroke="midnightblue" points="1421.04,-330.797 1430.04,-336.389 1426.49,-326.406 1421.04,-330.797"/>
</g>
<!-- Node12 -->
<g id="node12" class="node"><title>Node12</title>
<g id="a_node12"><a xlink:href="receptor_8c.html" target="_top" xlink:title="receptor implementation ">
<polygon fill="white" stroke="black" points="1512,-112.5 1512,-131.5 1589,-131.5 1589,-112.5 1512,-112.5"/>
<text text-anchor="middle" x="1550.5" y="-119.5" font-family="Helvetica,sans-Serif" font-size="10.00">src/receptor.c</text>
</a>
</g>
</g>
<!-- Node1&#45;&gt;Node12 -->
<g id="edge61" class="edge"><title>Node1&#45;&gt;Node12</title>
<path fill="none" stroke="midnightblue" d="M1446.58,-327.157C1469.51,-282.119 1529.09,-165.063 1545.98,-131.884"/>
<polygon fill="midnightblue" stroke="midnightblue" points="1443.35,-325.798 1441.93,-336.297 1449.59,-328.973 1443.35,-325.798"/>
</g>
<!-- Node20 -->
<g id="node20" class="node"><title>Node20</title>
<g id="a_node20"><a xlink:href="base__defs_8c.html" target="_top" xlink:title="auto&#45;generated system definitions ">
<polygon fill="white" stroke="black" points="48.5,-168.5 48.5,-187.5 134.5,-187.5 134.5,-168.5 48.5,-168.5"/>
<text text-anchor="middle" x="91.5" y="-175.5" font-family="Helvetica,sans-Serif" font-size="10.00">src/base_defs.c</text>
</a>
</g>
</g>
<!-- Node1&#45;&gt;Node20 -->
<g id="edge59" class="edge"><title>Node1&#45;&gt;Node20</title>
<path fill="none" stroke="midnightblue" d="M1388.98,-344.062C1251.58,-341.098 848.131,-330.269 514.5,-300 326.513,-282.945 220.032,-384.071 93.5,-244 79.5747,-228.585 84.6338,-201.75 88.5811,-187.875"/>
<polygon fill="midnightblue" stroke="midnightblue" points="1389.1,-347.565 1399.17,-344.278 1389.25,-340.567 1389.1,-347.565"/>
</g>
<!-- Node33 -->
<g id="node33" class="node"><title>Node33</title>
<g id="a_node33"><a xlink:href="stream_8c.html" target="_top" xlink:title="stream abstraction implementation ">
<polygon fill="white" stroke="black" points="1542,-280.5 1542,-299.5 1613,-299.5 1613,-280.5 1542,-280.5"/>
<text text-anchor="middle" x="1577.5" y="-287.5" font-family="Helvetica,sans-Serif" font-size="10.00">src/stream.c</text>
</a>
</g>
</g>
<!-- Node1&#45;&gt;Node33 -->
<g id="edge62" class="edge"><title>Node1&#45;&gt;Node33</title>
<path fill="none" stroke="midnightblue" d="M1469.2,-332.772C1495.5,-322.629 1532.22,-308.467 1555.42,-299.516"/>
<polygon fill="midnightblue" stroke="midnightblue" points="1467.75,-329.579 1459.68,-336.444 1470.27,-336.11 1467.75,-329.579"/>
</g>
<!-- Node34 -->
<g id="node34" class="node"><title>Node34</title>
<g id="a_node34"><a xlink:href="process__spec_8h.html" target="_top" xlink:title="spec/process_spec.h">
<polygon fill="white" stroke="black" points="1631.5,-280.5 1631.5,-299.5 1741.5,-299.5 1741.5,-280.5 1631.5,-280.5"/>
<text text-anchor="middle" x="1686.5" y="-287.5" font-family="Helvetica,sans-Serif" font-size="10.00">spec/process_spec.h</text>
</a>
</g>
</g>
<!-- Node1&#45;&gt;Node34 -->
<g id="edge63" class="edge"><title>Node1&#45;&gt;Node34</title>
<path fill="none" stroke="midnightblue" d="M1485.54,-334.582C1532.58,-324.38 1603.39,-309.024 1647.18,-299.527"/>
<polygon fill="midnightblue" stroke="midnightblue" points="1484.62,-331.2 1475.59,-336.74 1486.1,-338.041 1484.62,-331.2"/>
</g>
<!-- Node3 -->
<g id="node3" class="node"><title>Node3</title>
<g id="a_node3"><a xlink:href="vmhost_8h.html" target="_top" xlink:title="vmhost implementation header file ">
<polygon fill="white" stroke="black" points="942.5,-224.5 942.5,-243.5 1016.5,-243.5 1016.5,-224.5 942.5,-224.5"/>
<text text-anchor="middle" x="979.5" y="-231.5" font-family="Helvetica,sans-Serif" font-size="10.00">src/vmhost.h</text>
</a>
</g>
</g>
<!-- Node2&#45;&gt;Node3 -->
<g id="edge2" class="edge"><title>Node2&#45;&gt;Node3</title>
<path fill="none" stroke="midnightblue" d="M611.368,-283.815C681.651,-276.17 815.279,-260.939 928.5,-244 933.035,-243.322 937.787,-242.556 942.49,-241.766"/>
<polygon fill="midnightblue" stroke="midnightblue" points="610.622,-280.375 601.057,-284.931 611.375,-287.334 610.622,-280.375"/>
</g>
<!-- Node5 -->
<g id="node5" class="node"><title>Node5</title>
<g id="a_node5"><a xlink:href="accumulator_8c.html" target="_top" xlink:title="implementation file for accumulator ">
<polygon fill="white" stroke="black" points="1304,-112.5 1304,-131.5 1399,-131.5 1399,-112.5 1304,-112.5"/>
<text text-anchor="middle" x="1351.5" y="-119.5" font-family="Helvetica,sans-Serif" font-size="10.00">src/accumulator.c</text>
</a>
</g>
</g>
<!-- Node2&#45;&gt;Node5 -->
<g id="edge25" class="edge"><title>Node2&#45;&gt;Node5</title>
<path fill="none" stroke="midnightblue" d="M611.204,-287.971C696.212,-285.356 876.79,-276.158 1025.5,-244 1100.78,-227.721 1117.91,-216.414 1189.5,-188 1209.47,-180.075 1213.68,-176.276 1233.5,-168 1265.87,-154.485 1303.87,-140.286 1327.82,-131.537"/>
<polygon fill="midnightblue" stroke="midnightblue" points="610.97,-284.476 601.076,-288.265 611.173,-291.473 610.97,-284.476"/>
</g>
<!-- Node2&#45;&gt;Node11 -->
<g id="edge34" class="edge"><title>Node2&#45;&gt;Node11</title>
<path fill="none" stroke="midnightblue" d="M611.227,-289.115C703.311,-288.372 908.701,-282.125 1076.5,-244 1145.49,-228.326 1159.93,-214.557 1225.5,-188 1246.16,-179.631 1250.37,-175.118 1271.5,-168 1320.9,-151.357 1379.66,-138.072 1417.26,-130.368"/>
<polygon fill="midnightblue" stroke="midnightblue" points="611.072,-285.616 601.094,-289.178 611.115,-292.615 611.072,-285.616"/>
</g>
<!-- Node2&#45;&gt;Node12 -->
<g id="edge35" class="edge"><title>Node2&#45;&gt;Node12</title>
<path fill="none" stroke="midnightblue" d="M611.487,-288.474C709.527,-286.676 936.506,-278.759 1123.5,-244 1240.61,-222.232 1265.8,-200.132 1380.5,-168 1427.83,-154.74 1482.87,-140.36 1517.2,-131.513"/>
<polygon fill="midnightblue" stroke="midnightblue" points="611.231,-284.978 601.292,-288.647 611.35,-291.977 611.231,-284.978"/>
</g>
<!-- Node18 -->
<g id="node18" class="node"><title>Node18</title>
<g id="a_node18"><a xlink:href="receptor__spec_8h.html" target="_top" xlink:title="spec/receptor_spec.h">
<polygon fill="white" stroke="black" points="800.5,-112.5 800.5,-131.5 910.5,-131.5 910.5,-112.5 800.5,-112.5"/>
<text text-anchor="middle" x="855.5" y="-119.5" font-family="Helvetica,sans-Serif" font-size="10.00">spec/receptor_spec.h</text>
</a>
</g>
</g>
<!-- Node2&#45;&gt;Node18 -->
<g id="edge54" class="edge"><title>Node2&#45;&gt;Node18</title>
<path fill="none" stroke="midnightblue" d="M611.465,-285.918C658.496,-281.438 730.6,-270.515 787.5,-244 823.613,-227.172 840.241,-223.909 857.5,-188 866.401,-169.48 861.635,-144.44 858.136,-131.511"/>
<polygon fill="midnightblue" stroke="midnightblue" points="610.893,-282.455 601.242,-286.827 611.513,-289.427 610.893,-282.455"/>
</g>
<!-- Node2&#45;&gt;Node20 -->
<g id="edge26" class="edge"><title>Node2&#45;&gt;Node20</title>
<path fill="none" stroke="midnightblue" d="M513.523,-287.183C402.917,-282.651 141.03,-269.343 110.5,-244 93.6738,-230.033 91.2682,-202.049 91.2107,-187.789"/>
<polygon fill="midnightblue" stroke="midnightblue" points="513.609,-290.69 523.741,-287.595 513.89,-283.695 513.609,-290.69"/>
</g>
<!-- Node21 -->
<g id="node21" class="node"><title>Node21</title>
<g id="a_node21"><a xlink:href="protocol_8h.html" target="_top" xlink:title="protocol helpers header file ">
<polygon fill="white" stroke="black" points="702.5,-224.5 702.5,-243.5 778.5,-243.5 778.5,-224.5 702.5,-224.5"/>
<text text-anchor="middle" x="740.5" y="-231.5" font-family="Helvetica,sans-Serif" font-size="10.00">src/protocol.h</text>
</a>
</g>
</g>
<!-- Node2&#45;&gt;Node21 -->
<g id="edge27" class="edge"><title>Node2&#45;&gt;Node21</title>
<path fill="none" stroke="midnightblue" d="M600.617,-277.436C634.178,-267.255 682.274,-252.664 712.427,-243.516"/>
<polygon fill="midnightblue" stroke="midnightblue" points="599.258,-274.191 590.705,-280.444 601.29,-280.89 599.258,-274.191"/>
</g>
<!-- Node23 -->
<g id="node23" class="node"><title>Node23</title>
<g id="a_node23"><a xlink:href="sys__defs_8c.html" target="_top" xlink:title="definition of system semantic elements for bootstrapping ">
<polygon fill="white" stroke="black" points="120,-224.5 120,-243.5 201,-243.5 201,-224.5 120,-224.5"/>
<text text-anchor="middle" x="160.5" y="-231.5" font-family="Helvetica,sans-Serif" font-size="10.00">src/sys_defs.c</text>
</a>
</g>
</g>
<!-- Node2&#45;&gt;Node23 -->
<g id="edge36" class="edge"><title>Node2&#45;&gt;Node23</title>
<path fill="none" stroke="midnightblue" d="M513.871,-283.577C445.856,-275.811 318.519,-260.615 210.5,-244 207.449,-243.531 204.297,-243.021 201.13,-242.492"/>
<polygon fill="midnightblue" stroke="midnightblue" points="513.534,-287.061 523.866,-284.713 514.325,-280.106 513.534,-287.061"/>
</g>
<!-- Node24 -->
<g id="node24" class="node"><title>Node24</title>
<g id="a_node24"><a xlink:href="tree_8c.html" target="_top" xlink:title="semantic tree pointer implementation ">
<polygon fill="white" stroke="black" points="219.5,-224.5 219.5,-243.5 277.5,-243.5 277.5,-224.5 219.5,-224.5"/>
<text text-anchor="middle" x="248.5" y="-231.5" font-family="Helvetica,sans-Serif" font-size="10.00">src/tree.c</text>
</a>
</g>
</g>
<!-- Node2&#45;&gt;Node24 -->
<g id="edge37" class="edge"><title>Node2&#45;&gt;Node24</title>
<path fill="none" stroke="midnightblue" d="M513.774,-281.537C459.442,-273.069 369.005,-258.539 291.5,-244 287.002,-243.156 282.251,-242.214 277.612,-241.265"/>
<polygon fill="midnightblue" stroke="midnightblue" points="513.397,-285.02 523.816,-283.097 514.472,-278.103 513.397,-285.02"/>
</g>
<!-- Node25 -->
<g id="node25" class="node"><title>Node25</title>
<g id="a_node25"><a xlink:href="semtable__spec_8h.html" target="_top" xlink:title="spec/semtable_spec.h">
<polygon fill="white" stroke="black" points="1390,-168.5 1390,-187.5 1505,-187.5 1505,-168.5 1390,-168.5"/>
<text text-anchor="middle" x="1447.5" y="-175.5" font-family="Helvetica,sans-Serif" font-size="10.00">spec/semtable_spec.h</text>
</a>
</g>
</g>
<!-- Node2&#45;&gt;Node25 -->
<g id="edge38" class="edge"><title>Node2&#45;&gt;Node25</title>
<path fill="none" stroke="midnightblue" d="M611.18,-288.256C753.693,-285.726 1168.22,-275.765 1299.5,-244 1350.78,-231.592 1406.56,-202.353 1432.57,-187.696"/>
<polygon fill="midnightblue" stroke="midnightblue" points="610.939,-284.76 601.001,-288.432 611.06,-291.758 610.939,-284.76"/>
</g>
<!-- Node26 -->
<g id="node26" class="node"><title>Node26</title>
<g id="a_node26"><a xlink:href="def__spec_8h.html" target="_top" xlink:title="spec/def_spec.h">
<polygon fill="white" stroke="black" points="0,-56.5 0,-75.5 89,-75.5 89,-56.5 0,-56.5"/>
<text text-anchor="middle" x="44.5" y="-63.5" font-family="Helvetica,sans-Serif" font-size="10.00">spec/def_spec.h</text>
</a>
</g>
</g>
<!-- Node2&#45;&gt;Node26 -->
<g id="edge40" class="edge"><title>Node2&#45;&gt;Node26</title>
<path fill="none" stroke="midnightblue" d="M513.492,-288.554C408.753,-286.919 166.681,-279.316 93.5,-244 62.3609,-228.973 52.4405,-220.062 39.5,-188 23.6047,-148.617 35.9073,-96.0481 41.8047,-75.6232"/>
<polygon fill="midnightblue" stroke="midnightblue" points="513.736,-292.058 523.785,-288.702 513.837,-285.058 513.736,-292.058"/>
</g>
<!-- Node27 -->
<g id="node27" class="node"><title>Node27</title>
<g id="a_node27"><a xlink:href="tree__spec_8h.html" target="_top" xlink:title="spec/tree_spec.h">
<polygon fill="white" stroke="black" points="136.5,-112.5 136.5,-131.5 228.5,-131.5 228.5,-112.5 136.5,-112.5"/>
<text text-anchor="middle" x="182.5" y="-119.5" font-family="Helvetica,sans-Serif" font-size="10.00">spec/tree_spec.h</text>
</a>
</g>
</g>
<!-- Node2&#45;&gt;Node27 -->
<g id="edge42" class="edge"><title>Node2&#45;&gt;Node27</title>
<path fill="none" stroke="midnightblue" d="M513.655,-285.172C463.565,-280.056 384.069,-268.598 319.5,-244 303.474,-237.895 301.309,-232.65 286.5,-224 258.319,-207.54 246.025,-210.619 222.5,-188 204.925,-171.102 191.95,-144.916 186.042,-131.523"/>
<polygon fill="midnightblue" stroke="midnightblue" points="513.589,-288.682 523.882,-286.17 514.269,-281.715 513.589,-288.682"/>
</g>
<!-- Node28 -->
<g id="node28" class="node"><title>Node28</title>
<g id="a_node28"><a xlink:href="http__example_8h.html" target="_top" xlink:title="spec/http_example.h">
<polygon fill="white" stroke="black" points="239,-168.5 239,-187.5 346,-187.5 346,-168.5 239,-168.5"/>
<text text-anchor="middle" x="292.5" y="-175.5" font-family="Helvetica,sans-Serif" font-size="10.00">spec/http_example.h</text>
</a>
</g>
</g>
<!-- Node2&#45;&gt;Node28 -->
<g id="edge44" class="edge"><title>Node2&#45;&gt;Node28</title>
<path fill="none" stroke="midnightblue" d="M521.819,-277.557C493.802,-269.259 455.928,-257.21 423.5,-244 380.472,-226.472 332.019,-200.788 307.885,-187.566"/>
<polygon fill="midnightblue" stroke="midnightblue" points="521.086,-280.989 531.667,-280.44 523.053,-274.271 521.086,-280.989"/>
</g>
<!-- Node29 -->
<g id="node29" class="node"><title>Node29</title>
<g id="a_node29"><a xlink:href="mtree__spec_8h.html" target="_top" xlink:title="spec/mtree_spec.h">
<polygon fill="white" stroke="black" points="246.5,-112.5 246.5,-131.5 346.5,-131.5 346.5,-112.5 246.5,-112.5"/>
<text text-anchor="middle" x="296.5" y="-119.5" font-family="Helvetica,sans-Serif" font-size="10.00">spec/mtree_spec.h</text>
</a>
</g>
</g>
<!-- Node2&#45;&gt;Node29 -->
<g id="edge51" class="edge"><title>Node2&#45;&gt;Node29</title>
<path fill="none" stroke="midnightblue" d="M513.988,-279.142C475.96,-270.979 421.898,-258.414 375.5,-244 371.352,-242.711 231.961,-191.579 229.5,-188 213.525,-164.762 250.218,-143.085 275.364,-131.582"/>
<polygon fill="midnightblue" stroke="midnightblue" points="513.272,-282.568 523.781,-281.223 514.727,-275.721 513.272,-282.568"/>
</g>
<!-- Node30 -->
<g id="node30" class="node"><title>Node30</title>
<g id="a_node30"><a xlink:href="semtrex__spec_8h.html" target="_top" xlink:title="spec/semtrex_spec.h">
<polygon fill="white" stroke="black" points="364.5,-168.5 364.5,-187.5 474.5,-187.5 474.5,-168.5 364.5,-168.5"/>
<text text-anchor="middle" x="419.5" y="-175.5" font-family="Helvetica,sans-Serif" font-size="10.00">spec/semtrex_spec.h</text>
</a>
</g>
</g>
<!-- Node2&#45;&gt;Node30 -->
<g id="edge52" class="edge"><title>Node2&#45;&gt;Node30</title>
<path fill="none" stroke="midnightblue" d="M513.928,-282.161C488.283,-276.16 458.143,-264.937 438.5,-244 423.698,-228.224 420.359,-201.547 419.651,-187.789"/>
<polygon fill="midnightblue" stroke="midnightblue" points="513.358,-285.618 523.869,-284.286 514.821,-278.773 513.358,-285.618"/>
</g>
<!-- Node31 -->
<g id="node31" class="node"><title>Node31</title>
<g id="a_node31"><a xlink:href="scape__spec_8h.html" target="_top" xlink:title="spec/scape_spec.h">
<polygon fill="white" stroke="black" points="448,-224.5 448,-243.5 549,-243.5 549,-224.5 448,-224.5"/>
<text text-anchor="middle" x="498.5" y="-231.5" font-family="Helvetica,sans-Serif" font-size="10.00">spec/scape_spec.h</text>
</a>
</g>
</g>
<!-- Node2&#45;&gt;Node31 -->
<g id="edge55" class="edge"><title>Node2&#45;&gt;Node31</title>
<path fill="none" stroke="midnightblue" d="M544.509,-273.82C533.042,-264.145 518.587,-251.948 508.97,-243.834"/>
<polygon fill="midnightblue" stroke="midnightblue" points="542.317,-276.55 552.217,-280.324 546.831,-271.2 542.317,-276.55"/>
</g>
<!-- Node32 -->
<g id="node32" class="node"><title>Node32</title>
<g id="a_node32"><a xlink:href="profile__example_8h.html" target="_top" xlink:title="spec/profile_example.h">
<polygon fill="white" stroke="black" points="567,-224.5 567,-243.5 684,-243.5 684,-224.5 567,-224.5"/>
<text text-anchor="middle" x="625.5" y="-231.5" font-family="Helvetica,sans-Serif" font-size="10.00">spec/profile_example.h</text>
</a>
</g>
</g>
<!-- Node2&#45;&gt;Node32 -->
<g id="edge57" class="edge"><title>Node2&#45;&gt;Node32</title>
<path fill="none" stroke="midnightblue" d="M580.54,-273.537C591.773,-263.909 605.819,-251.869 615.194,-243.834"/>
<polygon fill="midnightblue" stroke="midnightblue" points="577.937,-271.159 572.622,-280.324 582.492,-276.473 577.937,-271.159"/>
</g>
<!-- Node4 -->
<g id="node4" class="node"><title>Node4</title>
<g id="a_node4"><a xlink:href="accumulator_8h.html" target="_top" xlink:title="header file for the accumulator ">
<polygon fill="white" stroke="black" points="1086,-168.5 1086,-187.5 1181,-187.5 1181,-168.5 1086,-168.5"/>
<text text-anchor="middle" x="1133.5" y="-175.5" font-family="Helvetica,sans-Serif" font-size="10.00">src/accumulator.h</text>
</a>
</g>
</g>
<!-- Node3&#45;&gt;Node4 -->
<g id="edge3" class="edge"><title>Node3&#45;&gt;Node4</title>
<path fill="none" stroke="midnightblue" d="M1013.61,-221.039C1042.59,-210.879 1083.46,-196.546 1109.21,-187.516"/>
<polygon fill="midnightblue" stroke="midnightblue" points="1012.18,-217.832 1003.9,-224.444 1014.5,-224.437 1012.18,-217.832"/>
</g>
<!-- Node15 -->
<g id="node15" class="node"><title>Node15</title>
<g id="a_node15"><a xlink:href="vmhost__spec_8h.html" target="_top" xlink:title="spec/vmhost_spec.h">
<polygon fill="white" stroke="black" points="637,-56.5 637,-75.5 744,-75.5 744,-56.5 637,-56.5"/>
<text text-anchor="middle" x="690.5" y="-63.5" font-family="Helvetica,sans-Serif" font-size="10.00">spec/vmhost_spec.h</text>
</a>
</g>
</g>
<!-- Node3&#45;&gt;Node15 -->
<g id="edge24" class="edge"><title>Node3&#45;&gt;Node15</title>
<path fill="none" stroke="midnightblue" d="M954.233,-219.568C906.612,-194.233 806.955,-141.106 791.5,-132 758.982,-112.841 721.957,-88.2812 703.054,-75.5349"/>
<polygon fill="midnightblue" stroke="midnightblue" points="952.817,-222.78 963.289,-224.385 956.104,-216.599 952.817,-222.78"/>
</g>
<!-- Node16 -->
<g id="node16" class="node"><title>Node16</title>
<g id="a_node16"><a xlink:href="vmhost_8c.html" target="_top" xlink:title="virtual machine host receptor implementation ">
<polygon fill="white" stroke="black" points="928.5,-112.5 928.5,-131.5 1002.5,-131.5 1002.5,-112.5 928.5,-112.5"/>
<text text-anchor="middle" x="965.5" y="-119.5" font-family="Helvetica,sans-Serif" font-size="10.00">src/vmhost.c</text>
</a>
</g>
</g>
<!-- Node3&#45;&gt;Node16 -->
<g id="edge22" class="edge"><title>Node3&#45;&gt;Node16</title>
<path fill="none" stroke="midnightblue" d="M977.126,-214.348C974.06,-190.254 968.848,-149.308 966.593,-131.591"/>
<polygon fill="midnightblue" stroke="midnightblue" points="973.667,-214.89 978.401,-224.368 980.611,-214.007 973.667,-214.89"/>
</g>
<!-- Node3&#45;&gt;Node18 -->
<g id="edge23" class="edge"><title>Node3&#45;&gt;Node18</title>
<path fill="none" stroke="midnightblue" d="M968.358,-215.57C958.881,-201.623 944.32,-182.128 928.5,-168 911.51,-152.827 888.753,-139.717 873.192,-131.623"/>
<polygon fill="midnightblue" stroke="midnightblue" points="965.629,-217.789 974.06,-224.205 971.471,-213.932 965.629,-217.789"/>
</g>
<!-- Node19 -->
<g id="node19" class="node"><title>Node19</title>
<g id="a_node19"><a xlink:href="protocol_8c.html" target="_top" xlink:title="implementation of protocol helpers ">
<polygon fill="white" stroke="black" points="772.5,-168.5 772.5,-187.5 848.5,-187.5 848.5,-168.5 772.5,-168.5"/>
<text text-anchor="middle" x="810.5" y="-175.5" font-family="Helvetica,sans-Serif" font-size="10.00">src/protocol.c</text>
</a>
</g>
</g>
<!-- Node3&#45;&gt;Node19 -->
<g id="edge21" class="edge"><title>Node3&#45;&gt;Node19</title>
<path fill="none" stroke="midnightblue" d="M942.897,-221.304C911.053,-211.129 865.658,-196.625 837.153,-187.516"/>
<polygon fill="midnightblue" stroke="midnightblue" points="942.131,-224.734 952.721,-224.444 944.261,-218.066 942.131,-224.734"/>
</g>
<!-- Node4&#45;&gt;Node5 -->
<g id="edge4" class="edge"><title>Node4&#45;&gt;Node5</title>
<path fill="none" stroke="midnightblue" d="M1177.81,-166.024C1218.99,-155.823 1279.47,-140.841 1317.12,-131.516"/>
<polygon fill="midnightblue" stroke="midnightblue" points="1176.91,-162.642 1168.04,-168.444 1178.59,-169.436 1176.91,-162.642"/>
</g>
<!-- Node6 -->
<g id="node6" class="node"><title>Node6</title>
<g id="a_node6"><a xlink:href="ceptr_8c.html" target="_top" xlink:title="implements main() entry point for the ceptr node ">
<polygon fill="white" stroke="black" points="1184,-112.5 1184,-131.5 1247,-131.5 1247,-112.5 1184,-112.5"/>
<text text-anchor="middle" x="1215.5" y="-119.5" font-family="Helvetica,sans-Serif" font-size="10.00">src/ceptr.c</text>
</a>
</g>
</g>
<!-- Node4&#45;&gt;Node6 -->
<g id="edge5" class="edge"><title>Node4&#45;&gt;Node6</title>
<path fill="none" stroke="midnightblue" d="M1155.33,-162.622C1170.31,-152.757 1189.7,-139.992 1202.36,-131.655"/>
<polygon fill="midnightblue" stroke="midnightblue" points="1153.1,-159.901 1146.67,-168.324 1156.95,-165.747 1153.1,-159.901"/>
</g>
<!-- Node7 -->
<g id="node7" class="node"><title>Node7</title>
<g id="a_node7"><a xlink:href="group_8h.html" target="_top" xlink:title="group communication receptors header file ">
<polygon fill="white" stroke="black" points="1101,-112.5 1101,-131.5 1166,-131.5 1166,-112.5 1101,-112.5"/>
<text text-anchor="middle" x="1133.5" y="-119.5" font-family="Helvetica,sans-Serif" font-size="10.00">src/group.h</text>
</a>
</g>
</g>
<!-- Node4&#45;&gt;Node7 -->
<g id="edge6" class="edge"><title>Node4&#45;&gt;Node7</title>
<path fill="none" stroke="midnightblue" d="M1133.5,-157.805C1133.5,-148.91 1133.5,-138.78 1133.5,-131.751"/>
<polygon fill="midnightblue" stroke="midnightblue" points="1130,-158.083 1133.5,-168.083 1137,-158.083 1130,-158.083"/>
</g>
<!-- Node4&#45;&gt;Node11 -->
<g id="edge10" class="edge"><title>Node4&#45;&gt;Node11</title>
<path fill="none" stroke="midnightblue" d="M1191.07,-167.933C1246.56,-159.101 1332.86,-145.125 1407.5,-132 1410.67,-131.442 1413.96,-130.851 1417.26,-130.25"/>
<polygon fill="midnightblue" stroke="midnightblue" points="1190.4,-164.494 1181.07,-169.52 1191.5,-171.408 1190.4,-164.494"/>
</g>
<!-- Node4&#45;&gt;Node12 -->
<g id="edge11" class="edge"><title>Node4&#45;&gt;Node12</title>
<path fill="none" stroke="midnightblue" d="M1191.43,-171.095C1264.23,-163.407 1392.93,-148.936 1502.5,-132 1505.52,-131.534 1508.63,-131.021 1511.76,-130.483"/>
<polygon fill="midnightblue" stroke="midnightblue" points="1190.69,-167.654 1181.11,-172.179 1191.42,-174.615 1190.69,-167.654"/>
</g>
<!-- Node13 -->
<g id="node13" class="node"><title>Node13</title>
<g id="a_node13"><a xlink:href="shell_8h.html" target="_top" xlink:title="command line shell receptor header files ">
<polygon fill="white" stroke="black" points="1020.5,-112.5 1020.5,-131.5 1082.5,-131.5 1082.5,-112.5 1020.5,-112.5"/>
<text text-anchor="middle" x="1051.5" y="-119.5" font-family="Helvetica,sans-Serif" font-size="10.00">src/shell.h</text>
</a>
</g>
</g>
<!-- Node4&#45;&gt;Node13 -->
<g id="edge12" class="edge"><title>Node4&#45;&gt;Node13</title>
<path fill="none" stroke="midnightblue" d="M1111.67,-162.622C1096.69,-152.757 1077.3,-139.992 1064.64,-131.655"/>
<polygon fill="midnightblue" stroke="midnightblue" points="1110.05,-165.747 1120.33,-168.324 1113.9,-159.901 1110.05,-165.747"/>
</g>
<!-- Node4&#45;&gt;Node16 -->
<g id="edge16" class="edge"><title>Node4&#45;&gt;Node16</title>
<path fill="none" stroke="midnightblue" d="M1097.11,-165.304C1065.46,-155.129 1020.33,-140.625 991.996,-131.516"/>
<polygon fill="midnightblue" stroke="midnightblue" points="1096.29,-168.715 1106.88,-168.444 1098.43,-162.051 1096.29,-168.715"/>
</g>
<!-- Node17 -->
<g id="node17" class="node"><title>Node17</title>
<g id="a_node17"><a xlink:href="accumulator__spec_8h_source.html" target="_top" xlink:title="spec/accumulator_spec.h">
<polygon fill="white" stroke="black" points="1206.5,-56.5 1206.5,-75.5 1334.5,-75.5 1334.5,-56.5 1206.5,-56.5"/>
<text text-anchor="middle" x="1270.5" y="-63.5" font-family="Helvetica,sans-Serif" font-size="10.00">spec/accumulator_spec.h</text>
</a>
</g>
</g>
<!-- Node4&#45;&gt;Node17 -->
<g id="edge17" class="edge"><title>Node4&#45;&gt;Node17</title>
<path fill="none" stroke="midnightblue" d="M1190.84,-168.088C1213.94,-161.7 1238.98,-150.751 1255.5,-132 1269.59,-116.009 1271.17,-89.426 1270.95,-75.7379"/>
<polygon fill="midnightblue" stroke="midnightblue" points="1189.92,-164.71 1181.08,-170.556 1191.63,-171.496 1189.92,-164.71"/>
</g>
<!-- Node4&#45;&gt;Node18 -->
<g id="edge19" class="edge"><title>Node4&#45;&gt;Node18</title>
<path fill="none" stroke="midnightblue" d="M1079.31,-166.473C1026.77,-156.268 948.061,-140.979 899.344,-131.516"/>
<polygon fill="midnightblue" stroke="midnightblue" points="1078.97,-169.972 1089.45,-168.444 1080.3,-163.101 1078.97,-169.972"/>
</g>
<!-- Node8 -->
<g id="node8" class="node"><title>Node8</title>
<g id="a_node8"><a xlink:href="group_8c.html" target="_top" xlink:title="implementation of some group communication receptors ">
<polygon fill="white" stroke="black" points="762,-56.5 762,-75.5 827,-75.5 827,-56.5 762,-56.5"/>
<text text-anchor="middle" x="794.5" y="-63.5" font-family="Helvetica,sans-Serif" font-size="10.00">src/group.c</text>
</a>
</g>
</g>
<!-- Node7&#45;&gt;Node8 -->
<g id="edge7" class="edge"><title>Node7&#45;&gt;Node8</title>
<path fill="none" stroke="midnightblue" d="M1091.1,-112.027C988.761,-93.5323 880.21,-78.3949 827.129,-71.2835"/>
<polygon fill="midnightblue" stroke="midnightblue" points="1090.51,-115.479 1100.98,-113.827 1091.77,-108.592 1090.51,-115.479"/>
</g>
<!-- Node9 -->
<g id="node9" class="node"><title>Node9</title>
<g id="a_node9"><a xlink:href="group__spec_8h.html" target="_top" xlink:title="spec/group_spec.h">
<polygon fill="white" stroke="black" points="1084,-56.5 1084,-75.5 1183,-75.5 1183,-56.5 1084,-56.5"/>
<text text-anchor="middle" x="1133.5" y="-63.5" font-family="Helvetica,sans-Serif" font-size="10.00">spec/group_spec.h</text>
</a>
</g>
</g>
<!-- Node7&#45;&gt;Node9 -->
<g id="edge8" class="edge"><title>Node7&#45;&gt;Node9</title>
<path fill="none" stroke="midnightblue" d="M1133.5,-101.805C1133.5,-92.9102 1133.5,-82.7798 1133.5,-75.7511"/>
<polygon fill="midnightblue" stroke="midnightblue" points="1130,-102.083 1133.5,-112.083 1137,-102.083 1130,-102.083"/>
</g>
<!-- Node10 -->
<g id="node10" class="node"><title>Node10</title>
<g id="a_node10"><a xlink:href="ceptr__specs_8c.html" target="_top" xlink:title="implements a main() entry point for running all the tests ">
<polygon fill="white" stroke="black" points="518.5,-0.5 518.5,-19.5 620.5,-19.5 620.5,-0.5 518.5,-0.5"/>
<text text-anchor="middle" x="569.5" y="-7.5" font-family="Helvetica,sans-Serif" font-size="10.00">spec/ceptr_specs.c</text>
</a>
</g>
</g>
<!-- Node9&#45;&gt;Node10 -->
<g id="edge9" class="edge"><title>Node9&#45;&gt;Node10</title>
<path fill="none" stroke="midnightblue" d="M1073.93,-56.0083C901.432,-35.4411 710.016,-20.8344 620.503,-14.4856"/>
<polygon fill="midnightblue" stroke="midnightblue" points="1073.61,-59.4946 1083.96,-57.2128 1074.45,-52.5446 1073.61,-59.4946"/>
</g>
<!-- Node14 -->
<g id="node14" class="node"><title>Node14</title>
<g id="a_node14"><a xlink:href="shell_8c.html" target="_top" xlink:title="implementation of a command line shell receptor ">
<polygon fill="white" stroke="black" points="1003.5,-56.5 1003.5,-75.5 1065.5,-75.5 1065.5,-56.5 1003.5,-56.5"/>
<text text-anchor="middle" x="1034.5" y="-63.5" font-family="Helvetica,sans-Serif" font-size="10.00">src/shell.c</text>
</a>
</g>
</g>
<!-- Node13&#45;&gt;Node14 -->
<g id="edge13" class="edge"><title>Node13&#45;&gt;Node14</title>
<path fill="none" stroke="midnightblue" d="M1045.64,-102.396C1042.8,-93.362 1039.52,-82.936 1037.25,-75.7511"/>
<polygon fill="midnightblue" stroke="midnightblue" points="1042.35,-103.596 1048.69,-112.083 1049.03,-101.493 1042.35,-103.596"/>
</g>
<!-- Node13&#45;&gt;Node15 -->
<g id="edge14" class="edge"><title>Node13&#45;&gt;Node15</title>
<path fill="none" stroke="midnightblue" d="M1010.23,-111.888C895.472,-91.2747 864.416,-91.9007 752.5,-76 749.808,-75.6175 747.05,-75.2239 744.266,-74.825"/>
<polygon fill="midnightblue" stroke="midnightblue" points="1009.64,-115.339 1020.11,-113.677 1010.89,-108.451 1009.64,-115.339"/>
</g>
<!-- Node15&#45;&gt;Node10 -->
<g id="edge15" class="edge"><title>Node15&#45;&gt;Node10</title>
<path fill="none" stroke="midnightblue" d="M662.194,-52.3678C639.535,-42.2553 608.374,-28.3486 588.583,-19.5164"/>
<polygon fill="midnightblue" stroke="midnightblue" points="660.769,-55.5643 671.327,-56.4435 663.622,-49.1719 660.769,-55.5643"/>
</g>
<!-- Node17&#45;&gt;Node10 -->
<g id="edge18" class="edge"><title>Node17&#45;&gt;Node10</title>
<path fill="none" stroke="midnightblue" d="M1196.05,-56.4326C1194.52,-56.2844 1193,-56.14 1191.5,-56 979.938,-36.3045 727.208,-20.3607 620.759,-13.9911"/>
<polygon fill="midnightblue" stroke="midnightblue" points="1195.98,-59.943 1206.28,-57.46 1196.68,-52.978 1195.98,-59.943"/>
</g>
<!-- Node18&#45;&gt;Node10 -->
<g id="edge20" class="edge"><title>Node18&#45;&gt;Node10</title>
<path fill="none" stroke="midnightblue" d="M854.846,-102.272C853.283,-87.5049 848.657,-67.5384 835.5,-56 804.292,-28.6314 688.781,-17.5892 620.668,-13.3854"/>
<polygon fill="midnightblue" stroke="midnightblue" points="851.36,-102.588 855.535,-112.326 858.343,-102.11 851.36,-102.588"/>
</g>
<!-- Node21&#45;&gt;Node8 -->
<g id="edge29" class="edge"><title>Node21&#45;&gt;Node8</title>
<path fill="none" stroke="midnightblue" d="M746.552,-214.395C758.201,-178.585 783.328,-101.342 791.713,-75.5681"/>
<polygon fill="midnightblue" stroke="midnightblue" points="743.168,-213.483 743.403,-224.075 749.825,-215.648 743.168,-213.483"/>
</g>
<!-- Node21&#45;&gt;Node15 -->
<g id="edge31" class="edge"><title>Node21&#45;&gt;Node15</title>
<path fill="none" stroke="midnightblue" d="M734.896,-214.395C724.11,-178.585 700.844,-101.342 693.081,-75.5681"/>
<polygon fill="midnightblue" stroke="midnightblue" points="731.576,-215.509 737.812,-224.075 738.279,-213.491 731.576,-215.509"/>
</g>
<!-- Node21&#45;&gt;Node19 -->
<g id="edge30" class="edge"><title>Node21&#45;&gt;Node19</title>
<path fill="none" stroke="midnightblue" d="M759.814,-218.101C772.412,-208.382 788.428,-196.027 799.049,-187.834"/>
<polygon fill="midnightblue" stroke="midnightblue" points="757.527,-215.445 751.747,-224.324 761.802,-220.987 757.527,-215.445"/>
</g>
<!-- Node21&#45;&gt;Node20 -->
<g id="edge28" class="edge"><title>Node21&#45;&gt;Node20</title>
<path fill="none" stroke="midnightblue" d="M692.301,-224.24C605.919,-214.62 257.688,-190.411 134.694,-181.956"/>
<polygon fill="midnightblue" stroke="midnightblue" points="691.962,-227.725 702.309,-225.445 692.799,-220.775 691.962,-227.725"/>
</g>
<!-- Node22 -->
<g id="node22" class="node"><title>Node22</title>
<g id="a_node22"><a xlink:href="protocol__spec_8h.html" target="_top" xlink:title="spec/protocol_spec.h">
<polygon fill="white" stroke="black" points="568.5,-168.5 568.5,-187.5 678.5,-187.5 678.5,-168.5 568.5,-168.5"/>
<text text-anchor="middle" x="623.5" y="-175.5" font-family="Helvetica,sans-Serif" font-size="10.00">spec/protocol_spec.h</text>
</a>
</g>
</g>
<!-- Node21&#45;&gt;Node22 -->
<g id="edge32" class="edge"><title>Node21&#45;&gt;Node22</title>
<path fill="none" stroke="midnightblue" d="M712.836,-220.232C690.951,-210.131 661.003,-196.309 641.952,-187.516"/>
<polygon fill="midnightblue" stroke="midnightblue" points="711.415,-223.431 721.961,-224.444 714.348,-217.075 711.415,-223.431"/>
</g>
<!-- Node22&#45;&gt;Node10 -->
<g id="edge33" class="edge"><title>Node22&#45;&gt;Node10</title>
<path fill="none" stroke="midnightblue" d="M617.448,-158.395C605.799,-122.585 580.672,-45.3423 572.287,-19.5681"/>
<polygon fill="midnightblue" stroke="midnightblue" points="614.175,-159.648 620.597,-168.075 620.832,-157.483 614.175,-159.648"/>
</g>
<!-- Node25&#45;&gt;Node10 -->
<g id="edge39" class="edge"><title>Node25&#45;&gt;Node10</title>
<path fill="none" stroke="midnightblue" d="M1515.64,-170.09C1567.03,-162.108 1624.42,-145.497 1597.5,-112 1535.68,-35.0705 820.107,-15.7628 620.764,-11.8622"/>
<polygon fill="midnightblue" stroke="midnightblue" points="1514.86,-166.667 1505.47,-171.574 1515.87,-173.594 1514.86,-166.667"/>
</g>
<!-- Node26&#45;&gt;Node10 -->
<g id="edge41" class="edge"><title>Node26&#45;&gt;Node10</title>
<path fill="none" stroke="midnightblue" d="M99.3594,-59.3573C201.435,-48.8581 419.153,-26.4642 518.351,-16.261"/>
<polygon fill="midnightblue" stroke="midnightblue" points="98.8506,-55.8911 89.2612,-60.396 99.5669,-62.8544 98.8506,-55.8911"/>
</g>
<!-- Node27&#45;&gt;Node10 -->
<g id="edge43" class="edge"><title>Node27&#45;&gt;Node10</title>
<path fill="none" stroke="midnightblue" d="M208.828,-107.782C238.817,-93.2109 289.615,-69.9859 335.5,-56 397.034,-37.2439 470.151,-24.6703 518.076,-17.6887"/>
<polygon fill="midnightblue" stroke="midnightblue" points="206.926,-104.817 199.493,-112.366 210.012,-111.1 206.926,-104.817"/>
</g>
<!-- Node28&#45;&gt;Node10 -->
<g id="edge50" class="edge"><title>Node28&#45;&gt;Node10</title>
<path fill="none" stroke="midnightblue" d="M313.094,-162.527C356.036,-132.395 452.494,-64.9682 468.5,-56 494.625,-41.3622 526.415,-27.854 547.265,-19.5343"/>
<polygon fill="midnightblue" stroke="midnightblue" points="310.964,-159.746 304.791,-168.357 314.986,-165.475 310.964,-159.746"/>
</g>
<!-- Node28&#45;&gt;Node15 -->
<g id="edge49" class="edge"><title>Node28&#45;&gt;Node15</title>
<path fill="none" stroke="midnightblue" d="M333.092,-165.781C412.853,-143.737 588.442,-95.2071 659.62,-75.5345"/>
<polygon fill="midnightblue" stroke="midnightblue" points="332.105,-162.422 323.399,-168.46 333.97,-169.17 332.105,-162.422"/>
</g>
<!-- Node28&#45;&gt;Node18 -->
<g id="edge48" class="edge"><title>Node28&#45;&gt;Node18</title>
<path fill="none" stroke="midnightblue" d="M356.113,-167.989C524.175,-148.646 709.822,-133.823 800.283,-127.023"/>
<polygon fill="midnightblue" stroke="midnightblue" points="355.622,-164.522 346.092,-169.15 356.428,-171.476 355.622,-164.522"/>
</g>
<!-- Node28&#45;&gt;Node27 -->
<g id="edge45" class="edge"><title>Node28&#45;&gt;Node27</title>
<path fill="none" stroke="midnightblue" d="M265.738,-163.862C245.341,-153.849 217.834,-140.346 200.13,-131.655"/>
<polygon fill="midnightblue" stroke="midnightblue" points="264.308,-167.059 274.827,-168.324 267.392,-160.775 264.308,-167.059"/>
</g>
<!-- Node28&#45;&gt;Node29 -->
<g id="edge46" class="edge"><title>Node28&#45;&gt;Node29</title>
<path fill="none" stroke="midnightblue" d="M293.9,-158.101C294.564,-149.136 295.325,-138.858 295.852,-131.751"/>
<polygon fill="midnightblue" stroke="midnightblue" points="290.409,-157.852 293.161,-168.083 297.39,-158.369 290.409,-157.852"/>
</g>
<!-- Node29&#45;&gt;Node10 -->
<g id="edge47" class="edge"><title>Node29&#45;&gt;Node10</title>
<path fill="none" stroke="midnightblue" d="M309.84,-104.348C322.748,-89.3868 343.667,-67.9819 366.5,-56 414.287,-30.9229 475.491,-19.7884 518.144,-14.8642"/>
<polygon fill="midnightblue" stroke="midnightblue" points="306.931,-102.372 303.212,-112.293 312.306,-106.856 306.931,-102.372"/>
</g>
<!-- Node30&#45;&gt;Node10 -->
<g id="edge53" class="edge"><title>Node30&#45;&gt;Node10</title>
<path fill="none" stroke="midnightblue" d="M426.204,-158.791C436.37,-133.205 457.807,-86.352 488.5,-56 505.2,-39.4852 529.197,-27.171 546.737,-19.6377"/>
<polygon fill="midnightblue" stroke="midnightblue" points="422.853,-157.754 422.542,-168.345 429.389,-160.259 422.853,-157.754"/>
</g>
<!-- Node31&#45;&gt;Node10 -->
<g id="edge56" class="edge"><title>Node31&#45;&gt;Node10</title>
<path fill="none" stroke="midnightblue" d="M502.214,-214.377C509.029,-181.67 524.844,-112.057 546.5,-56 551.559,-42.9051 559.278,-28.6007 564.357,-19.7139"/>
<polygon fill="midnightblue" stroke="midnightblue" points="498.754,-213.826 500.184,-224.324 505.613,-215.226 498.754,-213.826"/>
</g>
<!-- Node32&#45;&gt;Node10 -->
<g id="edge58" class="edge"><title>Node32&#45;&gt;Node10</title>
<path fill="none" stroke="midnightblue" d="M594.121,-219.833C580.921,-212.533 566.924,-202.047 559.5,-188 529.011,-130.311 555.877,-46.7845 566.013,-19.7764"/>
<polygon fill="midnightblue" stroke="midnightblue" points="592.543,-222.957 603.041,-224.382 595.723,-216.721 592.543,-222.957"/>
</g>
<!-- Node34&#45;&gt;Node10 -->
<g id="edge64" class="edge"><title>Node34&#45;&gt;Node10</title>
<path fill="none" stroke="midnightblue" d="M1684.86,-270.268C1683.08,-248.39 1680.5,-211.1 1680.5,-179 1680.5,-179 1680.5,-179 1680.5,-121 1680.5,-13.0637 839.358,-9.68042 620.858,-10.6224"/>
<polygon fill="midnightblue" stroke="midnightblue" points="1681.39,-270.781 1685.72,-280.451 1688.36,-270.192 1681.39,-270.781"/>
</g>
</g>
</svg>
