<?xml version="1.0" encoding="UTF-8" standalone="no"?>
<!DOCTYPE svg PUBLIC "-//W3C//DTD SVG 1.1//EN"
 "http://www.w3.org/Graphics/SVG/1.1/DTD/svg11.dtd">
<!-- Generated by graphviz version 2.38.0 (20140413.2041)
 -->
<!-- Title: spec/process_spec.h Pages: 1 -->
<svg width="857pt" height="420pt"
 viewBox="0.00 0.00 857.00 420.00" xmlns="http://www.w3.org/2000/svg" xmlns:xlink="http://www.w3.org/1999/xlink">
<g id="graph0" class="graph" transform="scale(1 1) rotate(0) translate(4 416)">
<title>spec/process_spec.h</title>
<polygon fill="white" stroke="none" points="-4,4 -4,-416 853,-416 853,4 -4,4"/>
<!-- Node1 -->
<g id="node1" class="node"><title>Node1</title>
<polygon fill="#bfbfbf" stroke="black" points="406,-392.5 406,-411.5 516,-411.5 516,-392.5 406,-392.5"/>
<text text-anchor="middle" x="461" y="-399.5" font-family="Helvetica,sans-Serif" font-size="10.00">spec/process_spec.h</text>
</g>
<!-- Node2 -->
<g id="node2" class="node"><title>Node2</title>
<g id="a_node2"><a xlink:href="ceptr_8h_source.html" target="_top" xlink:title="../src/ceptr.h">
<polygon fill="white" stroke="black" points="321,-336.5 321,-355.5 393,-355.5 393,-336.5 321,-336.5"/>
<text text-anchor="middle" x="357" y="-343.5" font-family="Helvetica,sans-Serif" font-size="10.00">../src/ceptr.h</text>
</a>
</g>
</g>
<!-- Node1&#45;&gt;Node2 -->
<g id="edge1" class="edge"><title>Node1&#45;&gt;Node2</title>
<path fill="none" stroke="midnightblue" d="M444.291,-392.324C427.688,-383.703 401.998,-370.364 382.78,-360.386"/>
<polygon fill="midnightblue" stroke="midnightblue" points="384.156,-357.156 373.668,-355.655 380.93,-363.369 384.156,-357.156"/>
</g>
<!-- Node23 -->
<g id="node23" class="node"><title>Node23</title>
<g id="a_node23"><a xlink:href="process_8h.html" target="_top" xlink:title="processing header files ">
<polygon fill="white" stroke="black" points="522.5,-336.5 522.5,-355.5 607.5,-355.5 607.5,-336.5 522.5,-336.5"/>
<text text-anchor="middle" x="565" y="-343.5" font-family="Helvetica,sans-Serif" font-size="10.00">../src/process.h</text>
</a>
</g>
</g>
<!-- Node1&#45;&gt;Node23 -->
<g id="edge39" class="edge"><title>Node1&#45;&gt;Node23</title>
<path fill="none" stroke="midnightblue" d="M477.709,-392.324C494.312,-383.703 520.002,-370.364 539.22,-360.386"/>
<polygon fill="midnightblue" stroke="midnightblue" points="541.07,-363.369 548.332,-355.655 537.844,-357.156 541.07,-363.369"/>
</g>
<!-- Node3 -->
<g id="node3" class="node"><title>Node3</title>
<polygon fill="white" stroke="#bfbfbf" points="242.5,-0.5 242.5,-19.5 291.5,-19.5 291.5,-0.5 242.5,-0.5"/>
<text text-anchor="middle" x="267" y="-7.5" font-family="Helvetica,sans-Serif" font-size="10.00">string.h</text>
</g>
<!-- Node2&#45;&gt;Node3 -->
<g id="edge2" class="edge"><title>Node2&#45;&gt;Node3</title>
<path fill="none" stroke="midnightblue" d="M320.804,-341.627C230.045,-332.173 0,-301.638 0,-235 0,-235 0,-235 0,-121 0,-21.8131 159.469,-10.2361 231.923,-10.0949"/>
<polygon fill="midnightblue" stroke="midnightblue" points="232.34,-13.5972 242.36,-10.1532 232.38,-6.59728 232.34,-13.5972"/>
</g>
<!-- Node4 -->
<g id="node4" class="node"><title>Node4</title>
<polygon fill="white" stroke="#bfbfbf" points="150,-168.5 150,-187.5 196,-187.5 196,-168.5 150,-168.5"/>
<text text-anchor="middle" x="173" y="-175.5" font-family="Helvetica,sans-Serif" font-size="10.00">stdio.h</text>
</g>
<!-- Node2&#45;&gt;Node4 -->
<g id="edge3" class="edge"><title>Node2&#45;&gt;Node4</title>
<path fill="none" stroke="midnightblue" d="M344.862,-336.475C321.555,-319.868 269.358,-281.511 230,-244 213.957,-228.71 197.458,-209.434 186.366,-195.857"/>
<polygon fill="midnightblue" stroke="midnightblue" points="188.918,-193.446 179.917,-187.857 183.468,-197.839 188.918,-193.446"/>
</g>
<!-- Node5 -->
<g id="node5" class="node"><title>Node5</title>
<polygon fill="white" stroke="#bfbfbf" points="644,-0.5 644,-19.5 692,-19.5 692,-0.5 644,-0.5"/>
<text text-anchor="middle" x="668" y="-7.5" font-family="Helvetica,sans-Serif" font-size="10.00">stdlib.h</text>
</g>
<!-- Node2&#45;&gt;Node5 -->
<g id="edge4" class="edge"><title>Node2&#45;&gt;Node5</title>
<path fill="none" stroke="midnightblue" d="M393.178,-340.774C506.799,-327.02 849,-281.717 849,-235 849,-235 849,-235 849,-121 849,-52.9152 754.316,-25.7747 701.912,-15.9674"/>
<polygon fill="midnightblue" stroke="midnightblue" points="702.491,-12.5155 692.035,-14.23 701.278,-19.4097 702.491,-12.5155"/>
</g>
<!-- Node6 -->
<g id="node6" class="node"><title>Node6</title>
<g id="a_node6"><a xlink:href="ceptr__error_8h_source.html" target="_top" xlink:title="ceptr_error.h">
<polygon fill="white" stroke="black" points="272.5,-224.5 272.5,-243.5 343.5,-243.5 343.5,-224.5 272.5,-224.5"/>
<text text-anchor="middle" x="308" y="-231.5" font-family="Helvetica,sans-Serif" font-size="10.00">ceptr_error.h</text>
</a>
</g>
</g>
<!-- Node2&#45;&gt;Node6 -->
<g id="edge5" class="edge"><title>Node2&#45;&gt;Node6</title>
<path fill="none" stroke="midnightblue" d="M353.155,-336.368C345.176,-318.456 326.675,-276.923 315.995,-252.948"/>
<polygon fill="midnightblue" stroke="midnightblue" points="319.093,-251.302 311.827,-243.591 312.699,-254.15 319.093,-251.302"/>
</g>
<!-- Node10 -->
<g id="node10" class="node"><title>Node10</title>
<g id="a_node10"><a xlink:href="tree_8h.html" target="_top" xlink:title="semantic trees header file ">
<polygon fill="white" stroke="black" points="606.5,-280.5 606.5,-299.5 647.5,-299.5 647.5,-280.5 606.5,-280.5"/>
<text text-anchor="middle" x="627" y="-287.5" font-family="Helvetica,sans-Serif" font-size="10.00">tree.h</text>
</a>
</g>
</g>
<!-- Node2&#45;&gt;Node10 -->
<g id="edge10" class="edge"><title>Node2&#45;&gt;Node10</title>
<path fill="none" stroke="midnightblue" d="M393.133,-337.773C446.661,-327.068 546.092,-307.182 596.299,-297.14"/>
<polygon fill="midnightblue" stroke="midnightblue" points="597.112,-300.547 606.232,-295.154 595.74,-293.683 597.112,-300.547"/>
</g>
<!-- Node19 -->
<g id="node19" class="node"><title>Node19</title>
<g id="a_node19"><a xlink:href="mtree_8h.html" target="_top" xlink:title="semantic tree matrix header file `` ">
<polygon fill="white" stroke="black" points="366,-280.5 366,-299.5 416,-299.5 416,-280.5 366,-280.5"/>
<text text-anchor="middle" x="391" y="-287.5" font-family="Helvetica,sans-Serif" font-size="10.00">mtree.h</text>
</a>
</g>
</g>
<!-- Node2&#45;&gt;Node19 -->
<g id="edge27" class="edge"><title>Node2&#45;&gt;Node19</title>
<path fill="none" stroke="midnightblue" d="M362.614,-336.083C367.367,-328.534 374.318,-317.495 380.152,-308.23"/>
<polygon fill="midnightblue" stroke="midnightblue" points="383.124,-310.078 385.49,-299.751 377.2,-306.349 383.124,-310.078"/>
</g>
<!-- Node20 -->
<g id="node20" class="node"><title>Node20</title>
<g id="a_node20"><a xlink:href="util_8h.html" target="_top" xlink:title="util.h">
<polygon fill="white" stroke="black" points="118,-280.5 118,-299.5 156,-299.5 156,-280.5 118,-280.5"/>
<text text-anchor="middle" x="137" y="-287.5" font-family="Helvetica,sans-Serif" font-size="10.00">util.h</text>
</a>
</g>
</g>
<!-- Node2&#45;&gt;Node20 -->
<g id="edge35" class="edge"><title>Node2&#45;&gt;Node20</title>
<path fill="none" stroke="midnightblue" d="M322.14,-336.444C278.895,-325.829 205.969,-307.929 165.761,-298.06"/>
<polygon fill="midnightblue" stroke="midnightblue" points="166.592,-294.66 156.046,-295.675 164.923,-301.458 166.592,-294.66"/>
</g>
<!-- Node6&#45;&gt;Node4 -->
<g id="edge6" class="edge"><title>Node6&#45;&gt;Node4</title>
<path fill="none" stroke="midnightblue" d="M286.609,-224.444C264.293,-215.517 229.097,-201.439 203.792,-191.317"/>
<polygon fill="midnightblue" stroke="midnightblue" points="204.876,-187.981 194.291,-187.516 202.276,-194.48 204.876,-187.981"/>
</g>
<!-- Node7 -->
<g id="node7" class="node"><title>Node7</title>
<polygon fill="white" stroke="#bfbfbf" points="324,-168.5 324,-187.5 374,-187.5 374,-168.5 324,-168.5"/>
<text text-anchor="middle" x="349" y="-175.5" font-family="Helvetica,sans-Serif" font-size="10.00">signal.h</text>
</g>
<!-- Node6&#45;&gt;Node7 -->
<g id="edge7" class="edge"><title>Node6&#45;&gt;Node7</title>
<path fill="none" stroke="midnightblue" d="M314.77,-224.083C320.562,-216.455 329.058,-205.264 336.138,-195.941"/>
<polygon fill="midnightblue" stroke="midnightblue" points="339.096,-197.832 342.356,-187.751 333.521,-193.599 339.096,-197.832"/>
</g>
<!-- Node8 -->
<g id="node8" class="node"><title>Node8</title>
<polygon fill="white" stroke="#bfbfbf" points="392,-168.5 392,-187.5 444,-187.5 444,-168.5 392,-168.5"/>
<text text-anchor="middle" x="418" y="-175.5" font-family="Helvetica,sans-Serif" font-size="10.00">assert.h</text>
</g>
<!-- Node6&#45;&gt;Node8 -->
<g id="edge8" class="edge"><title>Node6&#45;&gt;Node8</title>
<path fill="none" stroke="midnightblue" d="M325.673,-224.324C343.394,-215.625 370.903,-202.12 391.288,-192.113"/>
<polygon fill="midnightblue" stroke="midnightblue" points="392.936,-195.203 400.37,-187.655 389.851,-188.919 392.936,-195.203"/>
</g>
<!-- Node9 -->
<g id="node9" class="node"><title>Node9</title>
<polygon fill="white" stroke="#bfbfbf" points="252,-168.5 252,-187.5 306,-187.5 306,-168.5 252,-168.5"/>
<text text-anchor="middle" x="279" y="-175.5" font-family="Helvetica,sans-Serif" font-size="10.00">setjmp.h</text>
</g>
<!-- Node6&#45;&gt;Node9 -->
<g id="edge9" class="edge"><title>Node6&#45;&gt;Node9</title>
<path fill="none" stroke="midnightblue" d="M303.211,-224.083C299.242,-216.691 293.475,-205.953 288.565,-196.811"/>
<polygon fill="midnightblue" stroke="midnightblue" points="291.514,-194.905 283.7,-187.751 285.347,-198.217 291.514,-194.905"/>
</g>
<!-- Node10&#45;&gt;Node3 -->
<g id="edge11" class="edge"><title>Node10&#45;&gt;Node3</title>
<path fill="none" stroke="midnightblue" d="M647.609,-283.869C687.854,-272.477 773,-241.044 773,-179 773,-179 773,-179 773,-121 773,-33.4309 672.102,-76.6412 587,-56 533.455,-43.0129 373.698,-23.4641 302.233,-15.0678"/>
<polygon fill="midnightblue" stroke="midnightblue" points="302.29,-11.5507 291.952,-13.8653 301.477,-18.5033 302.29,-11.5507"/>
</g>
<!-- Node10&#45;&gt;Node5 -->
<g id="edge12" class="edge"><title>Node10&#45;&gt;Node5</title>
<path fill="none" stroke="midnightblue" d="M647.502,-288.914C680.974,-287.668 747.57,-280.412 787,-244 809.624,-223.107 811,-209.795 811,-179 811,-179 811,-179 811,-121 811,-90.2048 808.69,-77.8606 787,-56 764.202,-33.0225 728.509,-21.6055 702.156,-16.0431"/>
<polygon fill="midnightblue" stroke="midnightblue" points="702.689,-12.5815 692.207,-14.1241 701.363,-19.4548 702.689,-12.5815"/>
</g>
<!-- Node10&#45;&gt;Node6 -->
<g id="edge13" class="edge"><title>Node10&#45;&gt;Node6</title>
<path fill="none" stroke="midnightblue" d="M606.07,-285.457C555.074,-276.824 423.461,-254.545 353.42,-242.689"/>
<polygon fill="midnightblue" stroke="midnightblue" points="353.993,-239.236 343.549,-241.018 352.825,-246.138 353.993,-239.236"/>
</g>
<!-- Node11 -->
<g id="node11" class="node"><title>Node11</title>
<g id="a_node11"><a xlink:href="sys__symbols_8h.html" target="_top" xlink:title="Defines hard&#45;coded system defined symbols. ">
<polygon fill="white" stroke="black" points="585.5,-224.5 585.5,-243.5 668.5,-243.5 668.5,-224.5 585.5,-224.5"/>
<text text-anchor="middle" x="627" y="-231.5" font-family="Helvetica,sans-Serif" font-size="10.00">sys_symbols.h</text>
</a>
</g>
</g>
<!-- Node10&#45;&gt;Node11 -->
<g id="edge14" class="edge"><title>Node10&#45;&gt;Node11</title>
<path fill="none" stroke="midnightblue" d="M627,-280.083C627,-273.006 627,-262.861 627,-253.986"/>
<polygon fill="midnightblue" stroke="midnightblue" points="630.5,-253.751 627,-243.751 623.5,-253.751 630.5,-253.751"/>
</g>
<!-- Node12 -->
<g id="node12" class="node"><title>Node12</title>
<g id="a_node12"><a xlink:href="sys__structures_8h.html" target="_top" xlink:title="Defines hard&#45;coded system defined structures. ">
<polygon fill="white" stroke="black" points="582.5,-168.5 582.5,-187.5 671.5,-187.5 671.5,-168.5 582.5,-168.5"/>
<text text-anchor="middle" x="627" y="-175.5" font-family="Helvetica,sans-Serif" font-size="10.00">sys_structures.h</text>
</a>
</g>
</g>
<!-- Node10&#45;&gt;Node12 -->
<g id="edge24" class="edge"><title>Node10&#45;&gt;Node12</title>
<path fill="none" stroke="midnightblue" d="M641.952,-280.474C653.932,-272.702 669.873,-260.002 677,-244 685.632,-224.619 667.271,-205.775 650.418,-193.412"/>
<polygon fill="midnightblue" stroke="midnightblue" points="652.121,-190.336 641.894,-187.568 648.163,-196.109 652.121,-190.336"/>
</g>
<!-- Node13 -->
<g id="node13" class="node"><title>Node13</title>
<g id="a_node13"><a xlink:href="ceptr__types_8h_source.html" target="_top" xlink:title="ceptr_types.h">
<polygon fill="white" stroke="black" points="516,-112.5 516,-131.5 592,-131.5 592,-112.5 516,-112.5"/>
<text text-anchor="middle" x="554" y="-119.5" font-family="Helvetica,sans-Serif" font-size="10.00">ceptr_types.h</text>
</a>
</g>
</g>
<!-- Node10&#45;&gt;Node13 -->
<g id="edge26" class="edge"><title>Node10&#45;&gt;Node13</title>
<path fill="none" stroke="midnightblue" d="M647.526,-281.276C663.126,-274.186 683.474,-262.024 693,-244 703.212,-224.678 690.01,-179.231 680,-168 660.198,-145.781 628.654,-134.531 602.082,-128.835"/>
<polygon fill="midnightblue" stroke="midnightblue" points="602.66,-125.382 592.177,-126.913 601.327,-132.254 602.66,-125.382"/>
</g>
<!-- Node18 -->
<g id="node18" class="node"><title>Node18</title>
<g id="a_node18"><a xlink:href="sys__processes_8h.html" target="_top" xlink:title="Defines hard&#45;coded system defined processes. ">
<polygon fill="white" stroke="black" points="476.5,-224.5 476.5,-243.5 567.5,-243.5 567.5,-224.5 476.5,-224.5"/>
<text text-anchor="middle" x="522" y="-231.5" font-family="Helvetica,sans-Serif" font-size="10.00">sys_processes.h</text>
</a>
</g>
</g>
<!-- Node10&#45;&gt;Node18 -->
<g id="edge25" class="edge"><title>Node10&#45;&gt;Node18</title>
<path fill="none" stroke="midnightblue" d="M610.13,-280.324C593.291,-271.664 567.193,-258.242 547.762,-248.249"/>
<polygon fill="midnightblue" stroke="midnightblue" points="549.322,-245.116 538.828,-243.655 546.12,-251.341 549.322,-245.116"/>
</g>
<!-- Node11&#45;&gt;Node12 -->
<g id="edge15" class="edge"><title>Node11&#45;&gt;Node12</title>
<path fill="none" stroke="midnightblue" d="M627,-224.083C627,-217.006 627,-206.861 627,-197.986"/>
<polygon fill="midnightblue" stroke="midnightblue" points="630.5,-197.751 627,-187.751 623.5,-197.751 630.5,-197.751"/>
</g>
<!-- Node11&#45;&gt;Node13 -->
<g id="edge23" class="edge"><title>Node11&#45;&gt;Node13</title>
<path fill="none" stroke="midnightblue" d="M612.54,-224.435C600.299,-216.469 583.169,-203.514 573,-188 563.836,-174.019 558.99,-155.517 556.493,-141.829"/>
<polygon fill="midnightblue" stroke="midnightblue" points="559.907,-141.007 554.904,-131.668 552.991,-142.088 559.907,-141.007"/>
</g>
<!-- Node12&#45;&gt;Node13 -->
<g id="edge16" class="edge"><title>Node12&#45;&gt;Node13</title>
<path fill="none" stroke="midnightblue" d="M615.271,-168.324C604.163,-160.107 587.258,-147.602 574.017,-137.807"/>
<polygon fill="midnightblue" stroke="midnightblue" points="576.063,-134.967 565.942,-131.834 571.9,-140.595 576.063,-134.967"/>
</g>
<!-- Node14 -->
<g id="node14" class="node"><title>Node14</title>
<polygon fill="white" stroke="#bfbfbf" points="529.5,-56.5 529.5,-75.5 578.5,-75.5 578.5,-56.5 529.5,-56.5"/>
<text text-anchor="middle" x="554" y="-63.5" font-family="Helvetica,sans-Serif" font-size="10.00">stdint.h</text>
</g>
<!-- Node13&#45;&gt;Node14 -->
<g id="edge17" class="edge"><title>Node13&#45;&gt;Node14</title>
<path fill="none" stroke="midnightblue" d="M554,-112.083C554,-105.006 554,-94.8611 554,-85.9865"/>
<polygon fill="midnightblue" stroke="midnightblue" points="557.5,-85.751 554,-75.7511 550.5,-85.7511 557.5,-85.751"/>
</g>
<!-- Node15 -->
<g id="node15" class="node"><title>Node15</title>
<g id="a_node15"><a xlink:href="uthash_8h_source.html" target="_top" xlink:title="uthash.h">
<polygon fill="white" stroke="black" points="390,-56.5 390,-75.5 444,-75.5 444,-56.5 390,-56.5"/>
<text text-anchor="middle" x="417" y="-63.5" font-family="Helvetica,sans-Serif" font-size="10.00">uthash.h</text>
</a>
</g>
</g>
<!-- Node13&#45;&gt;Node15 -->
<g id="edge18" class="edge"><title>Node13&#45;&gt;Node15</title>
<path fill="none" stroke="midnightblue" d="M532.292,-112.444C509.645,-103.517 473.928,-89.4387 448.248,-79.3168"/>
<polygon fill="midnightblue" stroke="midnightblue" points="449.193,-75.9273 438.606,-75.5164 446.626,-82.4397 449.193,-75.9273"/>
</g>
<!-- Node15&#45;&gt;Node3 -->
<g id="edge19" class="edge"><title>Node15&#45;&gt;Node3</title>
<path fill="none" stroke="midnightblue" d="M393.232,-56.4435C368.107,-47.3986 328.289,-33.064 300.1,-22.9158"/>
<polygon fill="midnightblue" stroke="midnightblue" points="301.251,-19.6106 290.657,-19.5164 298.88,-26.1968 301.251,-19.6106"/>
</g>
<!-- Node15&#45;&gt;Node5 -->
<g id="edge21" class="edge"><title>Node15&#45;&gt;Node5</title>
<path fill="none" stroke="midnightblue" d="M444.343,-58.978C448.903,-57.9795 453.584,-56.9577 458,-56 519.977,-42.5573 592.299,-27.1131 633.86,-18.2609"/>
<polygon fill="midnightblue" stroke="midnightblue" points="634.687,-21.6634 643.739,-16.1576 633.23,-14.8168 634.687,-21.6634"/>
</g>
<!-- Node16 -->
<g id="node16" class="node"><title>Node16</title>
<polygon fill="white" stroke="#bfbfbf" points="354,-0.5 354,-19.5 406,-19.5 406,-0.5 354,-0.5"/>
<text text-anchor="middle" x="380" y="-7.5" font-family="Helvetica,sans-Serif" font-size="10.00">stddef.h</text>
</g>
<!-- Node15&#45;&gt;Node16 -->
<g id="edge20" class="edge"><title>Node15&#45;&gt;Node16</title>
<path fill="none" stroke="midnightblue" d="M410.89,-56.083C405.718,-48.5341 398.154,-37.4948 391.806,-28.2298"/>
<polygon fill="midnightblue" stroke="midnightblue" points="394.536,-26.0221 385.996,-19.7511 388.761,-29.9787 394.536,-26.0221"/>
</g>
<!-- Node17 -->
<g id="node17" class="node"><title>Node17</title>
<polygon fill="white" stroke="#bfbfbf" points="424.5,-0.5 424.5,-19.5 483.5,-19.5 483.5,-0.5 424.5,-0.5"/>
<text text-anchor="middle" x="454" y="-7.5" font-family="Helvetica,sans-Serif" font-size="10.00">inttypes.h</text>
</g>
<!-- Node15&#45;&gt;Node17 -->
<g id="edge22" class="edge"><title>Node15&#45;&gt;Node17</title>
<path fill="none" stroke="midnightblue" d="M423.11,-56.083C428.282,-48.5341 435.846,-37.4948 442.194,-28.2298"/>
<polygon fill="midnightblue" stroke="midnightblue" points="445.239,-29.9787 448.004,-19.7511 439.464,-26.0221 445.239,-29.9787"/>
</g>
<!-- Node19&#45;&gt;Node3 -->
<g id="edge28" class="edge"><title>Node19&#45;&gt;Node3</title>
<path fill="none" stroke="midnightblue" d="M365.968,-286.599C337.411,-282.57 291.052,-271.913 263,-244 204.713,-186.001 241.497,-73.2347 259.134,-29.2188"/>
<polygon fill="midnightblue" stroke="midnightblue" points="262.441,-30.3804 263.042,-19.8026 255.976,-27.697 262.441,-30.3804"/>
</g>
<!-- Node19&#45;&gt;Node5 -->
<g id="edge29" class="edge"><title>Node19&#45;&gt;Node5</title>
<path fill="none" stroke="midnightblue" d="M392.649,-280.406C395.444,-267.369 402.011,-242.19 414,-224 426.981,-204.304 438.771,-206.814 453,-188 492.687,-135.527 469.601,-98.2902 520,-56 552.486,-28.7403 601.207,-17.9882 633.774,-13.7507"/>
<polygon fill="midnightblue" stroke="midnightblue" points="634.211,-17.2236 643.739,-12.5912 633.401,-10.2706 634.211,-17.2236"/>
</g>
<!-- Node19&#45;&gt;Node6 -->
<g id="edge30" class="edge"><title>Node19&#45;&gt;Node6</title>
<path fill="none" stroke="midnightblue" d="M377.665,-280.324C364.838,-271.979 345.215,-259.212 330.06,-249.352"/>
<polygon fill="midnightblue" stroke="midnightblue" points="331.593,-246.174 321.302,-243.655 327.776,-252.042 331.593,-246.174"/>
</g>
<!-- Node19&#45;&gt;Node11 -->
<g id="edge31" class="edge"><title>Node19&#45;&gt;Node11</title>
<path fill="none" stroke="midnightblue" d="M416.256,-283.221C455.192,-274.312 530.521,-257.076 579.769,-245.807"/>
<polygon fill="midnightblue" stroke="midnightblue" points="580.589,-249.21 589.556,-243.568 579.027,-242.386 580.589,-249.21"/>
</g>
<!-- Node19&#45;&gt;Node12 -->
<g id="edge32" class="edge"><title>Node19&#45;&gt;Node12</title>
<path fill="none" stroke="midnightblue" d="M398.551,-280.492C411.305,-266.638 438.52,-239.222 467,-224 499.838,-206.449 540.222,-195.158 572.202,-188.276"/>
<polygon fill="midnightblue" stroke="midnightblue" points="573.186,-191.646 582.27,-186.194 571.768,-184.791 573.186,-191.646"/>
</g>
<!-- Node19&#45;&gt;Node13 -->
<g id="edge34" class="edge"><title>Node19&#45;&gt;Node13</title>
<path fill="none" stroke="midnightblue" d="M395.383,-280.257C402.306,-267.026 416.772,-241.596 434,-224 453.665,-203.915 464.217,-205.766 486,-188 505.043,-172.468 525.192,-152.739 538.569,-139.112"/>
<polygon fill="midnightblue" stroke="midnightblue" points="541.145,-141.484 545.602,-131.872 536.124,-136.606 541.145,-141.484"/>
</g>
<!-- Node19&#45;&gt;Node18 -->
<g id="edge33" class="edge"><title>Node19&#45;&gt;Node18</title>
<path fill="none" stroke="midnightblue" d="M411.757,-280.444C433.316,-271.557 467.263,-257.563 491.794,-247.451"/>
<polygon fill="midnightblue" stroke="midnightblue" points="493.428,-250.563 501.34,-243.516 490.761,-244.092 493.428,-250.563"/>
</g>
<!-- Node20&#45;&gt;Node4 -->
<g id="edge37" class="edge"><title>Node20&#45;&gt;Node4</title>
<path fill="none" stroke="midnightblue" d="M139.825,-280.368C145.661,-262.537 159.158,-221.295 167.02,-197.272"/>
<polygon fill="midnightblue" stroke="midnightblue" points="170.404,-198.184 170.188,-187.591 163.751,-196.007 170.404,-198.184"/>
</g>
<!-- Node21 -->
<g id="node21" class="node"><title>Node21</title>
<polygon fill="white" stroke="#bfbfbf" points="90.5,-224.5 90.5,-243.5 139.5,-243.5 139.5,-224.5 90.5,-224.5"/>
<text text-anchor="middle" x="115" y="-231.5" font-family="Helvetica,sans-Serif" font-size="10.00">ctype.h</text>
</g>
<!-- Node20&#45;&gt;Node21 -->
<g id="edge36" class="edge"><title>Node20&#45;&gt;Node21</title>
<path fill="none" stroke="midnightblue" d="M133.367,-280.083C130.388,-272.77 126.074,-262.181 122.375,-253.103"/>
<polygon fill="midnightblue" stroke="midnightblue" points="125.58,-251.691 118.565,-243.751 119.097,-254.333 125.58,-251.691"/>
</g>
<!-- Node22 -->
<g id="node22" class="node"><title>Node22</title>
<polygon fill="white" stroke="#bfbfbf" points="28,-224.5 28,-243.5 72,-243.5 72,-224.5 28,-224.5"/>
<text text-anchor="middle" x="50" y="-231.5" font-family="Helvetica,sans-Serif" font-size="10.00">time.h</text>
</g>
<!-- Node20&#45;&gt;Node22 -->
<g id="edge38" class="edge"><title>Node20&#45;&gt;Node22</title>
<path fill="none" stroke="midnightblue" d="M123.022,-280.324C109.45,-271.9 88.6198,-258.971 72.675,-249.074"/>
<polygon fill="midnightblue" stroke="midnightblue" points="74.2856,-245.954 63.9434,-243.655 70.594,-251.902 74.2856,-245.954"/>
</g>
<!-- Node23&#45;&gt;Node10 -->
<g id="edge40" class="edge"><title>Node23&#45;&gt;Node10</title>
<path fill="none" stroke="midnightblue" d="M574.961,-336.324C584.127,-328.341 597.937,-316.313 609.028,-306.653"/>
<polygon fill="midnightblue" stroke="midnightblue" points="611.615,-309.041 616.857,-299.834 607.018,-303.762 611.615,-309.041"/>
</g>
</g>
</svg>
