<?xml version="1.0" encoding="UTF-8" standalone="no"?>
<!DOCTYPE svg PUBLIC "-//W3C//DTD SVG 1.1//EN"
 "http://www.w3.org/Graphics/SVG/1.1/DTD/svg11.dtd">
<!-- Generated by graphviz version 2.38.0 (20140413.2041)
 -->
<!-- Title: src/process.c Pages: 1 -->
<!--zoomable 476 -->
<svg id="main" version="1.1" xmlns="http://www.w3.org/2000/svg" xmlns:xlink="http://www.w3.org/1999/xlink" xml:space="preserve" onload="init(evt)">
<style type="text/css"><![CDATA[
.edge:hover path { stroke: red; }
.edge:hover polygon { stroke: red; fill: red; }
]]></style>
<script type="text/javascript"><![CDATA[
var edges = document.getElementsByTagName('g');
if (edges && edges.length) {
  for (var i=0;i<edges.length;i++) {
    if (edges[i].id.substr(0,4)=='edge') {
      edges[i].setAttribute('class','edge');
    }
  }
}
]]></script>
        <defs>
                <circle id="rim" cx="0" cy="0" r="7"/>
                <circle id="rim2" cx="0" cy="0" r="3.5"/>
                <g id="zoomPlus">
                        <use xlink:href="#rim" fill="#404040">
                                <set attributeName="fill" to="#808080" begin="zoomplus.mouseover" end="zoomplus.mouseout"/>
                        </use>
                        <path d="M-4,0h8M0,-4v8" fill="none" stroke="white" stroke-width="1.5" pointer-events="none"/>
                </g>
                <g id="zoomMin">
                        <use xlink:href="#rim" fill="#404040">
                                <set attributeName="fill" to="#808080" begin="zoomminus.mouseover" end="zoomminus.mouseout"/>
                        </use>
                        <path d="M-4,0h8" fill="none" stroke="white" stroke-width="1.5" pointer-events="none"/>
                </g>
                <g id="dirArrow">
                        <path fill="none" stroke="white" stroke-width="1.5" d="M0,-3.0v7 M-2.5,-0.5L0,-3.0L2.5,-0.5"/>
                </g>
               <g id="resetDef">
                       <use xlink:href="#rim2" fill="#404040">
                               <set attributeName="fill" to="#808080" begin="reset.mouseover" end="reset.mouseout"/>
                       </use>
               </g>
        </defs>

<script type="text/javascript">
var viewWidth = 971;
var viewHeight = 476;
var sectionId = 'dynsection-0';
</script>
<script xlink:href="svgpan.js"/>
<svg id="graph" class="graph">
<g id="viewport">
<title>src/process.c</title>
<polygon fill="white" stroke="none" points="-4,4 -4,-472 967,-472 967,4 -4,4"/>
<!-- Node1 -->
<g id="node1" class="node"><title>Node1</title>
<polygon fill="#bfbfbf" stroke="black" points="366.5,-448.5 366.5,-467.5 442.5,-467.5 442.5,-448.5 366.5,-448.5"/>
<text text-anchor="middle" x="404.5" y="-455.5" font-family="Helvetica,sans-Serif" font-size="10.00">src/process.c</text>
</g>
<!-- Node2 -->
<g id="node2" class="node"><title>Node2</title>
<g id="a_node2"><a xlink:href="process_8h.html" target="_top" xlink:title="processing header files ">
<polygon fill="white" stroke="black" points="317,-336.5 317,-355.5 376,-355.5 376,-336.5 317,-336.5"/>
<text text-anchor="middle" x="346.5" y="-343.5" font-family="Helvetica,sans-Serif" font-size="10.00">process.h</text>
</a>
</g>
</g>
<!-- Node1&#45;&gt;Node2 -->
<g id="edge1" class="edge"><title>Node1&#45;&gt;Node2</title>
<path fill="none" stroke="midnightblue" d="M394.831,-448.247C386.014,-439.772 373.221,-426.159 365.5,-412 357.585,-397.485 352.632,-379.303 349.776,-365.862"/>
<polygon fill="midnightblue" stroke="midnightblue" points="353.18,-365.029 347.851,-355.872 346.306,-366.354 353.18,-365.029"/>
</g>
<!-- Node19 -->
<g id="node19" class="node"><title>Node19</title>
<g id="a_node19"><a xlink:href="def_8h.html" target="_top" xlink:title="header file for symbol and structure definition functions ">
<polygon fill="white" stroke="black" points="115.5,-336.5 115.5,-355.5 153.5,-355.5 153.5,-336.5 115.5,-336.5"/>
<text text-anchor="middle" x="134.5" y="-343.5" font-family="Helvetica,sans-Serif" font-size="10.00">def.h</text>
</a>
</g>
</g>
<!-- Node1&#45;&gt;Node19 -->
<g id="edge24" class="edge"><title>Node1&#45;&gt;Node19</title>
<path fill="none" stroke="midnightblue" d="M366.39,-453.064C326.768,-447.832 263.77,-436.254 214.5,-412 189.303,-399.596 164.934,-377.973 149.848,-363.095"/>
<polygon fill="midnightblue" stroke="midnightblue" points="151.99,-360.283 142.475,-355.625 147.008,-365.201 151.99,-360.283"/>
</g>
<!-- Node20 -->
<g id="node20" class="node"><title>Node20</title>
<polygon fill="white" stroke="#bfbfbf" points="81.5,-280.5 81.5,-299.5 133.5,-299.5 133.5,-280.5 81.5,-280.5"/>
<text text-anchor="middle" x="107.5" y="-287.5" font-family="Helvetica,sans-Serif" font-size="10.00">stdarg.h</text>
</g>
<!-- Node1&#45;&gt;Node20 -->
<g id="edge29" class="edge"><title>Node1&#45;&gt;Node20</title>
<path fill="none" stroke="midnightblue" d="M366.464,-454.549C320.591,-450.443 241.988,-439.683 180.5,-412 142.891,-395.068 124.866,-392.93 106.5,-356 99.3544,-341.631 100.455,-323.172 102.846,-309.599"/>
<polygon fill="midnightblue" stroke="midnightblue" points="106.327,-310.055 105.005,-299.543 99.4834,-308.586 106.327,-310.055"/>
</g>
<!-- Node21 -->
<g id="node21" class="node"><title>Node21</title>
<g id="a_node21"><a xlink:href="semtrex_8h.html" target="_top" xlink:title="Semantic tree regular expression header file. ">
<polygon fill="white" stroke="black" points="374.5,-392.5 374.5,-411.5 434.5,-411.5 434.5,-392.5 374.5,-392.5"/>
<text text-anchor="middle" x="404.5" y="-399.5" font-family="Helvetica,sans-Serif" font-size="10.00">semtrex.h</text>
</a>
</g>
</g>
<!-- Node1&#45;&gt;Node21 -->
<g id="edge27" class="edge"><title>Node1&#45;&gt;Node21</title>
<path fill="none" stroke="midnightblue" d="M404.5,-448.083C404.5,-441.006 404.5,-430.861 404.5,-421.986"/>
<polygon fill="midnightblue" stroke="midnightblue" points="408,-421.751 404.5,-411.751 401,-421.751 408,-421.751"/>
</g>
<!-- Node22 -->
<g id="node22" class="node"><title>Node22</title>
<g id="a_node22"><a xlink:href="receptor_8h.html" target="_top" xlink:title="receptor implementation header file ">
<polygon fill="white" stroke="black" points="223.5,-392.5 223.5,-411.5 283.5,-411.5 283.5,-392.5 223.5,-392.5"/>
<text text-anchor="middle" x="253.5" y="-399.5" font-family="Helvetica,sans-Serif" font-size="10.00">receptor.h</text>
</a>
</g>
</g>
<!-- Node1&#45;&gt;Node22 -->
<g id="edge30" class="edge"><title>Node1&#45;&gt;Node22</title>
<path fill="none" stroke="midnightblue" d="M380.574,-448.444C355.281,-439.399 315.198,-425.064 286.82,-414.916"/>
<polygon fill="midnightblue" stroke="midnightblue" points="287.909,-411.588 277.314,-411.516 285.552,-418.179 287.909,-411.588"/>
</g>
<!-- Node25 -->
<g id="node25" class="node"><title>Node25</title>
<g id="a_node25"><a xlink:href="spec__utils_8h.html" target="_top" xlink:title="../spec/spec_utils.h">
<polygon fill="white" stroke="black" points="510.5,-392.5 510.5,-411.5 612.5,-411.5 612.5,-392.5 510.5,-392.5"/>
<text text-anchor="middle" x="561.5" y="-399.5" font-family="Helvetica,sans-Serif" font-size="10.00">../spec/spec_utils.h</text>
</a>
</g>
</g>
<!-- Node1&#45;&gt;Node25 -->
<g id="edge38" class="edge"><title>Node1&#45;&gt;Node25</title>
<path fill="none" stroke="midnightblue" d="M429.377,-448.444C455.789,-439.359 497.715,-424.939 527.242,-414.783"/>
<polygon fill="midnightblue" stroke="midnightblue" points="528.421,-418.079 536.739,-411.516 526.145,-411.459 528.421,-418.079"/>
</g>
<!-- Node28 -->
<g id="node28" class="node"><title>Node28</title>
<g id="a_node28"><a xlink:href="util_8h.html" target="_top" xlink:title="util.h">
<polygon fill="white" stroke="black" points="845.5,-280.5 845.5,-299.5 883.5,-299.5 883.5,-280.5 845.5,-280.5"/>
<text text-anchor="middle" x="864.5" y="-287.5" font-family="Helvetica,sans-Serif" font-size="10.00">util.h</text>
</a>
</g>
</g>
<!-- Node1&#45;&gt;Node28 -->
<g id="edge58" class="edge"><title>Node1&#45;&gt;Node28</title>
<path fill="none" stroke="midnightblue" d="M442.547,-453.812C491.247,-448.868 577.671,-437.165 647.5,-412 724.564,-384.228 806.707,-331.074 843.986,-305.478"/>
<polygon fill="midnightblue" stroke="midnightblue" points="846.244,-308.172 852.467,-299.597 842.255,-302.419 846.244,-308.172"/>
</g>
<!-- Node31 -->
<g id="node31" class="node"><title>Node31</title>
<g id="a_node31"><a xlink:href="debug_8h.html" target="_top" xlink:title="debug.h">
<polygon fill="white" stroke="black" points="776,-280.5 776,-299.5 827,-299.5 827,-280.5 776,-280.5"/>
<text text-anchor="middle" x="801.5" y="-287.5" font-family="Helvetica,sans-Serif" font-size="10.00">debug.h</text>
</a>
</g>
</g>
<!-- Node1&#45;&gt;Node31 -->
<g id="edge59" class="edge"><title>Node1&#45;&gt;Node31</title>
<path fill="none" stroke="midnightblue" d="M442.897,-456.499C488.517,-454.299 565.487,-445.4 621.5,-412 659.428,-389.384 649.572,-361.675 685.5,-336 709.797,-318.637 741.682,-306.903 765.873,-299.783"/>
<polygon fill="midnightblue" stroke="midnightblue" points="767.047,-303.088 775.725,-297.011 765.151,-296.35 767.047,-303.088"/>
</g>
<!-- Node32 -->
<g id="node32" class="node"><title>Node32</title>
<polygon fill="white" stroke="#bfbfbf" points="728,-392.5 728,-411.5 775,-411.5 775,-392.5 728,-392.5"/>
<text text-anchor="middle" x="751.5" y="-399.5" font-family="Helvetica,sans-Serif" font-size="10.00">errno.h</text>
</g>
<!-- Node1&#45;&gt;Node32 -->
<g id="edge60" class="edge"><title>Node1&#45;&gt;Node32</title>
<path fill="none" stroke="midnightblue" d="M442.737,-452.53C501.292,-445.438 616.584,-430.497 713.5,-412 714.957,-411.722 716.442,-411.426 717.94,-411.116"/>
<polygon fill="midnightblue" stroke="midnightblue" points="718.836,-414.503 727.852,-408.94 717.334,-407.666 718.836,-414.503"/>
</g>
<!-- Node3 -->
<g id="node3" class="node"><title>Node3</title>
<g id="a_node3"><a xlink:href="tree_8h.html" target="_top" xlink:title="semantic trees header file ">
<polygon fill="white" stroke="black" points="253,-280.5 253,-299.5 294,-299.5 294,-280.5 253,-280.5"/>
<text text-anchor="middle" x="273.5" y="-287.5" font-family="Helvetica,sans-Serif" font-size="10.00">tree.h</text>
</a>
</g>
</g>
<!-- Node2&#45;&gt;Node3 -->
<g id="edge2" class="edge"><title>Node2&#45;&gt;Node3</title>
<path fill="none" stroke="midnightblue" d="M334.771,-336.324C323.663,-328.107 306.758,-315.602 293.517,-305.807"/>
<polygon fill="midnightblue" stroke="midnightblue" points="295.563,-302.967 285.442,-299.834 291.4,-308.595 295.563,-302.967"/>
</g>
<!-- Node4 -->
<g id="node4" class="node"><title>Node4</title>
<polygon fill="white" stroke="#bfbfbf" points="342,-0.5 342,-19.5 391,-19.5 391,-0.5 342,-0.5"/>
<text text-anchor="middle" x="366.5" y="-7.5" font-family="Helvetica,sans-Serif" font-size="10.00">string.h</text>
</g>
<!-- Node3&#45;&gt;Node4 -->
<g id="edge3" class="edge"><title>Node3&#45;&gt;Node4</title>
<path fill="none" stroke="midnightblue" d="M276.385,-280.375C289.35,-241.621 342.369,-83.1325 360.436,-29.1254"/>
<polygon fill="midnightblue" stroke="midnightblue" points="363.795,-30.1181 363.648,-19.5243 357.157,-27.8973 363.795,-30.1181"/>
</g>
<!-- Node5 -->
<g id="node5" class="node"><title>Node5</title>
<polygon fill="white" stroke="#bfbfbf" points="228.5,-0.5 228.5,-19.5 276.5,-19.5 276.5,-0.5 228.5,-0.5"/>
<text text-anchor="middle" x="252.5" y="-7.5" font-family="Helvetica,sans-Serif" font-size="10.00">stdlib.h</text>
</g>
<!-- Node3&#45;&gt;Node5 -->
<g id="edge4" class="edge"><title>Node3&#45;&gt;Node5</title>
<path fill="none" stroke="midnightblue" d="M272.848,-280.375C269.933,-241.782 258.049,-84.4539 253.921,-29.8074"/>
<polygon fill="midnightblue" stroke="midnightblue" points="257.387,-29.2322 253.144,-19.5243 250.407,-29.7595 257.387,-29.2322"/>
</g>
<!-- Node6 -->
<g id="node6" class="node"><title>Node6</title>
<g id="a_node6"><a xlink:href="ceptr__error_8h_source.html" target="_top" xlink:title="ceptr_error.h">
<polygon fill="white" stroke="black" points="437,-168.5 437,-187.5 508,-187.5 508,-168.5 437,-168.5"/>
<text text-anchor="middle" x="472.5" y="-175.5" font-family="Helvetica,sans-Serif" font-size="10.00">ceptr_error.h</text>
</a>
</g>
</g>
<!-- Node3&#45;&gt;Node6 -->
<g id="edge5" class="edge"><title>Node3&#45;&gt;Node6</title>
<path fill="none" stroke="midnightblue" d="M294.074,-283.903C319.33,-277.112 362.935,-263.627 396.5,-244 419.768,-230.394 442.766,-209.385 457.263,-194.956"/>
<polygon fill="midnightblue" stroke="midnightblue" points="459.876,-197.291 464.391,-187.706 454.884,-192.383 459.876,-197.291"/>
</g>
<!-- Node11 -->
<g id="node11" class="node"><title>Node11</title>
<g id="a_node11"><a xlink:href="sys__defs_8h.html" target="_top" xlink:title="Defines types and vars for system defined semantics. ">
<polygon fill="white" stroke="black" points="102,-168.5 102,-187.5 167,-187.5 167,-168.5 102,-168.5"/>
<text text-anchor="middle" x="134.5" y="-175.5" font-family="Helvetica,sans-Serif" font-size="10.00">sys_defs.h</text>
</a>
</g>
</g>
<!-- Node3&#45;&gt;Node11 -->
<g id="edge10" class="edge"><title>Node3&#45;&gt;Node11</title>
<path fill="none" stroke="midnightblue" d="M262.593,-280.368C238.943,-261.653 182.709,-217.151 153.243,-193.832"/>
<polygon fill="midnightblue" stroke="midnightblue" points="155.37,-191.052 145.356,-187.591 151.026,-196.542 155.37,-191.052"/>
</g>
<!-- Node12 -->
<g id="node12" class="node"><title>Node12</title>
<g id="a_node12"><a xlink:href="ceptr__types_8h_source.html" target="_top" xlink:title="ceptr_types.h">
<polygon fill="white" stroke="black" points="96.5,-112.5 96.5,-131.5 172.5,-131.5 172.5,-112.5 96.5,-112.5"/>
<text text-anchor="middle" x="134.5" y="-119.5" font-family="Helvetica,sans-Serif" font-size="10.00">ceptr_types.h</text>
</a>
</g>
</g>
<!-- Node3&#45;&gt;Node12 -->
<g id="edge21" class="edge"><title>Node3&#45;&gt;Node12</title>
<path fill="none" stroke="midnightblue" d="M252.878,-287.006C209.722,-282.363 112.244,-269.254 92.5,-244 71.6954,-217.39 80.1135,-199.425 92.5,-168 97.014,-156.548 105.969,-146.291 114.455,-138.472"/>
<polygon fill="midnightblue" stroke="midnightblue" points="116.969,-140.927 122.286,-131.764 112.415,-135.611 116.969,-140.927"/>
</g>
<!-- Node17 -->
<g id="node17" class="node"><title>Node17</title>
<g id="a_node17"><a xlink:href="base__defs_8h.html" target="_top" xlink:title="auto&#45;generated system definitions ">
<polygon fill="white" stroke="black" points="101.5,-224.5 101.5,-243.5 171.5,-243.5 171.5,-224.5 101.5,-224.5"/>
<text text-anchor="middle" x="136.5" y="-231.5" font-family="Helvetica,sans-Serif" font-size="10.00">base_defs.h</text>
</a>
</g>
</g>
<!-- Node3&#45;&gt;Node17 -->
<g id="edge19" class="edge"><title>Node3&#45;&gt;Node17</title>
<path fill="none" stroke="midnightblue" d="M252.99,-280.916C230.485,-272.045 194.093,-257.701 167.972,-247.405"/>
<polygon fill="midnightblue" stroke="midnightblue" points="169.101,-244.088 158.514,-243.677 166.534,-250.6 169.101,-244.088"/>
</g>
<!-- Node18 -->
<g id="node18" class="node"><title>Node18</title>
<g id="a_node18"><a xlink:href="stream_8h.html" target="_top" xlink:title="streams abstraction header file ">
<polygon fill="white" stroke="black" points="626,-224.5 626,-243.5 681,-243.5 681,-224.5 626,-224.5"/>
<text text-anchor="middle" x="653.5" y="-231.5" font-family="Helvetica,sans-Serif" font-size="10.00">stream.h</text>
</a>
</g>
</g>
<!-- Node3&#45;&gt;Node18 -->
<g id="edge22" class="edge"><title>Node3&#45;&gt;Node18</title>
<path fill="none" stroke="midnightblue" d="M294.2,-286.058C355.491,-277.349 536.681,-251.601 615.812,-240.356"/>
<polygon fill="midnightblue" stroke="midnightblue" points="616.425,-243.804 625.833,-238.932 615.44,-236.873 616.425,-243.804"/>
</g>
<!-- Node7 -->
<g id="node7" class="node"><title>Node7</title>
<polygon fill="white" stroke="#bfbfbf" points="635.5,-56.5 635.5,-75.5 681.5,-75.5 681.5,-56.5 635.5,-56.5"/>
<text text-anchor="middle" x="658.5" y="-63.5" font-family="Helvetica,sans-Serif" font-size="10.00">stdio.h</text>
</g>
<!-- Node6&#45;&gt;Node7 -->
<g id="edge6" class="edge"><title>Node6&#45;&gt;Node7</title>
<path fill="none" stroke="midnightblue" d="M497.342,-168.357C518.988,-160.342 550.841,-147.357 576.5,-132 600.659,-117.541 625.62,-96.7656 641.558,-82.6211"/>
<polygon fill="midnightblue" stroke="midnightblue" points="643.933,-85.1924 649.018,-75.8975 639.246,-79.9927 643.933,-85.1924"/>
</g>
<!-- Node8 -->
<g id="node8" class="node"><title>Node8</title>
<polygon fill="white" stroke="#bfbfbf" points="447.5,-112.5 447.5,-131.5 497.5,-131.5 497.5,-112.5 447.5,-112.5"/>
<text text-anchor="middle" x="472.5" y="-119.5" font-family="Helvetica,sans-Serif" font-size="10.00">signal.h</text>
</g>
<!-- Node6&#45;&gt;Node8 -->
<g id="edge7" class="edge"><title>Node6&#45;&gt;Node8</title>
<path fill="none" stroke="midnightblue" d="M472.5,-168.083C472.5,-161.006 472.5,-150.861 472.5,-141.986"/>
<polygon fill="midnightblue" stroke="midnightblue" points="476,-141.751 472.5,-131.751 469,-141.751 476,-141.751"/>
</g>
<!-- Node9 -->
<g id="node9" class="node"><title>Node9</title>
<polygon fill="white" stroke="#bfbfbf" points="515.5,-112.5 515.5,-131.5 567.5,-131.5 567.5,-112.5 515.5,-112.5"/>
<text text-anchor="middle" x="541.5" y="-119.5" font-family="Helvetica,sans-Serif" font-size="10.00">assert.h</text>
</g>
<!-- Node6&#45;&gt;Node9 -->
<g id="edge8" class="edge"><title>Node6&#45;&gt;Node9</title>
<path fill="none" stroke="midnightblue" d="M483.586,-168.324C493.986,-160.185 509.761,-147.839 522.222,-138.087"/>
<polygon fill="midnightblue" stroke="midnightblue" points="524.494,-140.753 530.212,-131.834 520.18,-135.241 524.494,-140.753"/>
</g>
<!-- Node10 -->
<g id="node10" class="node"><title>Node10</title>
<polygon fill="white" stroke="#bfbfbf" points="375.5,-112.5 375.5,-131.5 429.5,-131.5 429.5,-112.5 375.5,-112.5"/>
<text text-anchor="middle" x="402.5" y="-119.5" font-family="Helvetica,sans-Serif" font-size="10.00">setjmp.h</text>
</g>
<!-- Node6&#45;&gt;Node10 -->
<g id="edge9" class="edge"><title>Node6&#45;&gt;Node10</title>
<path fill="none" stroke="midnightblue" d="M461.253,-168.324C450.703,-160.185 434.699,-147.839 422.058,-138.087"/>
<polygon fill="midnightblue" stroke="midnightblue" points="424.007,-135.171 413.951,-131.834 419.731,-140.713 424.007,-135.171"/>
</g>
<!-- Node11&#45;&gt;Node12 -->
<g id="edge11" class="edge"><title>Node11&#45;&gt;Node12</title>
<path fill="none" stroke="midnightblue" d="M134.5,-168.083C134.5,-161.006 134.5,-150.861 134.5,-141.986"/>
<polygon fill="midnightblue" stroke="midnightblue" points="138,-141.751 134.5,-131.751 131,-141.751 138,-141.751"/>
</g>
<!-- Node12&#45;&gt;Node7 -->
<g id="edge13" class="edge"><title>Node12&#45;&gt;Node7</title>
<path fill="none" stroke="midnightblue" d="M172.607,-117.073C271.025,-106.931 532.479,-79.9869 625.265,-70.425"/>
<polygon fill="midnightblue" stroke="midnightblue" points="625.633,-73.9057 635.222,-69.3989 624.916,-66.9425 625.633,-73.9057"/>
</g>
<!-- Node13 -->
<g id="node13" class="node"><title>Node13</title>
<polygon fill="white" stroke="#bfbfbf" points="156,-56.5 156,-75.5 205,-75.5 205,-56.5 156,-56.5"/>
<text text-anchor="middle" x="180.5" y="-63.5" font-family="Helvetica,sans-Serif" font-size="10.00">stdint.h</text>
</g>
<!-- Node12&#45;&gt;Node13 -->
<g id="edge12" class="edge"><title>Node12&#45;&gt;Node13</title>
<path fill="none" stroke="midnightblue" d="M142.096,-112.083C148.727,-104.298 158.521,-92.8015 166.558,-83.3665"/>
<polygon fill="midnightblue" stroke="midnightblue" points="169.225,-85.6332 173.045,-75.7511 163.896,-81.0939 169.225,-85.6332"/>
</g>
<!-- Node14 -->
<g id="node14" class="node"><title>Node14</title>
<g id="a_node14"><a xlink:href="uthash_8h_source.html" target="_top" xlink:title="uthash.h">
<polygon fill="white" stroke="black" points="83.5,-56.5 83.5,-75.5 137.5,-75.5 137.5,-56.5 83.5,-56.5"/>
<text text-anchor="middle" x="110.5" y="-63.5" font-family="Helvetica,sans-Serif" font-size="10.00">uthash.h</text>
</a>
</g>
</g>
<!-- Node12&#45;&gt;Node14 -->
<g id="edge14" class="edge"><title>Node12&#45;&gt;Node14</title>
<path fill="none" stroke="midnightblue" d="M130.537,-112.083C127.287,-104.77 122.581,-94.1814 118.546,-85.1034"/>
<polygon fill="midnightblue" stroke="midnightblue" points="121.649,-83.4677 114.389,-75.7511 115.252,-86.3107 121.649,-83.4677"/>
</g>
<!-- Node14&#45;&gt;Node4 -->
<g id="edge15" class="edge"><title>Node14&#45;&gt;Node4</title>
<path fill="none" stroke="midnightblue" d="M137.597,-58.0926C140.596,-57.3676 143.61,-56.6565 146.5,-56 211.649,-41.2006 288.16,-26.0499 331.627,-17.65"/>
<polygon fill="midnightblue" stroke="midnightblue" points="332.523,-21.042 341.68,-15.7139 331.199,-14.1683 332.523,-21.042"/>
</g>
<!-- Node14&#45;&gt;Node5 -->
<g id="edge17" class="edge"><title>Node14&#45;&gt;Node5</title>
<path fill="none" stroke="midnightblue" d="M133,-56.4435C156.577,-47.4776 193.822,-33.314 220.464,-23.1827"/>
<polygon fill="midnightblue" stroke="midnightblue" points="222.002,-26.3424 230.105,-19.5164 219.514,-19.7995 222.002,-26.3424"/>
</g>
<!-- Node15 -->
<g id="node15" class="node"><title>Node15</title>
<polygon fill="white" stroke="#bfbfbf" points="121.5,-0.5 121.5,-19.5 173.5,-19.5 173.5,-0.5 121.5,-0.5"/>
<text text-anchor="middle" x="147.5" y="-7.5" font-family="Helvetica,sans-Serif" font-size="10.00">stddef.h</text>
</g>
<!-- Node14&#45;&gt;Node15 -->
<g id="edge16" class="edge"><title>Node14&#45;&gt;Node15</title>
<path fill="none" stroke="midnightblue" d="M116.61,-56.083C121.782,-48.5341 129.346,-37.4948 135.694,-28.2298"/>
<polygon fill="midnightblue" stroke="midnightblue" points="138.739,-29.9787 141.504,-19.7511 132.964,-26.0221 138.739,-29.9787"/>
</g>
<!-- Node16 -->
<g id="node16" class="node"><title>Node16</title>
<polygon fill="white" stroke="#bfbfbf" points="44,-0.5 44,-19.5 103,-19.5 103,-0.5 44,-0.5"/>
<text text-anchor="middle" x="73.5" y="-7.5" font-family="Helvetica,sans-Serif" font-size="10.00">inttypes.h</text>
</g>
<!-- Node14&#45;&gt;Node16 -->
<g id="edge18" class="edge"><title>Node14&#45;&gt;Node16</title>
<path fill="none" stroke="midnightblue" d="M104.39,-56.083C99.2178,-48.5341 91.6539,-37.4948 85.3056,-28.2298"/>
<polygon fill="midnightblue" stroke="midnightblue" points="88.0357,-26.0221 79.4961,-19.7511 82.2612,-29.9787 88.0357,-26.0221"/>
</g>
<!-- Node17&#45;&gt;Node11 -->
<g id="edge20" class="edge"><title>Node17&#45;&gt;Node11</title>
<path fill="none" stroke="midnightblue" d="M136.17,-224.083C135.908,-217.006 135.532,-206.861 135.203,-197.986"/>
<polygon fill="midnightblue" stroke="midnightblue" points="138.692,-197.615 134.824,-187.751 131.697,-197.874 138.692,-197.615"/>
</g>
<!-- Node18&#45;&gt;Node7 -->
<g id="edge23" class="edge"><title>Node18&#45;&gt;Node7</title>
<path fill="none" stroke="midnightblue" d="M653.769,-224.075C654.556,-197.945 656.867,-121.211 657.94,-85.577"/>
<polygon fill="midnightblue" stroke="midnightblue" points="661.439,-85.669 658.242,-75.5681 654.442,-85.4582 661.439,-85.669"/>
</g>
<!-- Node19&#45;&gt;Node3 -->
<g id="edge25" class="edge"><title>Node19&#45;&gt;Node3</title>
<path fill="none" stroke="midnightblue" d="M153.536,-337.605C176.713,-328.601 216.135,-313.286 243.431,-302.681"/>
<polygon fill="midnightblue" stroke="midnightblue" points="244.832,-305.892 252.886,-299.008 242.297,-299.367 244.832,-305.892"/>
</g>
<!-- Node19&#45;&gt;Node20 -->
<g id="edge26" class="edge"><title>Node19&#45;&gt;Node20</title>
<path fill="none" stroke="midnightblue" d="M130.041,-336.083C126.346,-328.691 120.977,-317.953 116.406,-308.811"/>
<polygon fill="midnightblue" stroke="midnightblue" points="119.478,-307.13 111.876,-299.751 113.217,-310.261 119.478,-307.13"/>
</g>
<!-- Node21&#45;&gt;Node3 -->
<g id="edge28" class="edge"><title>Node21&#45;&gt;Node3</title>
<path fill="none" stroke="midnightblue" d="M404.128,-392.267C403.091,-378.586 399.182,-352.013 384.5,-336 363.473,-313.067 329.107,-301.569 304.177,-295.973"/>
<polygon fill="midnightblue" stroke="midnightblue" points="304.636,-292.495 294.137,-293.92 303.234,-299.353 304.636,-292.495"/>
</g>
<!-- Node22&#45;&gt;Node2 -->
<g id="edge35" class="edge"><title>Node22&#45;&gt;Node2</title>
<path fill="none" stroke="midnightblue" d="M268.442,-392.324C283.085,-383.822 305.634,-370.729 322.738,-360.797"/>
<polygon fill="midnightblue" stroke="midnightblue" points="324.705,-363.703 331.595,-355.655 321.19,-357.649 324.705,-363.703"/>
</g>
<!-- Node22&#45;&gt;Node3 -->
<g id="edge31" class="edge"><title>Node22&#45;&gt;Node3</title>
<path fill="none" stroke="midnightblue" d="M248.53,-392.429C241.899,-379.843 231.735,-355.718 238.5,-336 242.219,-325.161 249.733,-314.922 256.849,-306.957"/>
<polygon fill="midnightblue" stroke="midnightblue" points="259.554,-309.192 263.944,-299.55 254.499,-304.35 259.554,-309.192"/>
</g>
<!-- Node22&#45;&gt;Node19 -->
<g id="edge32" class="edge"><title>Node22&#45;&gt;Node19</title>
<path fill="none" stroke="midnightblue" d="M234.644,-392.444C215.234,-383.636 184.77,-369.812 162.535,-359.722"/>
<polygon fill="midnightblue" stroke="midnightblue" points="163.82,-356.462 153.268,-355.516 160.928,-362.836 163.82,-356.462"/>
</g>
<!-- Node23 -->
<g id="node23" class="node"><title>Node23</title>
<g id="a_node23"><a xlink:href="label_8h.html" target="_top" xlink:title="Label tables map human readable text strings to parts of semantic trees. ">
<polygon fill="white" stroke="black" points="0,-168.5 0,-187.5 45,-187.5 45,-168.5 0,-168.5"/>
<text text-anchor="middle" x="22.5" y="-175.5" font-family="Helvetica,sans-Serif" font-size="10.00">label.h</text>
</a>
</g>
</g>
<!-- Node22&#45;&gt;Node23 -->
<g id="edge33" class="edge"><title>Node22&#45;&gt;Node23</title>
<path fill="none" stroke="midnightblue" d="M247.028,-392.212C231.072,-370.973 187.844,-315.956 142.5,-280 116.928,-259.723 103.753,-264.673 78.5,-244 61.2927,-229.913 45.1095,-210.15 34.6082,-196.122"/>
<polygon fill="midnightblue" stroke="midnightblue" points="37.2949,-193.866 28.5742,-187.849 31.6394,-197.991 37.2949,-193.866"/>
</g>
<!-- Node24 -->
<g id="node24" class="node"><title>Node24</title>
<g id="a_node24"><a xlink:href="scape_8h.html" target="_top" xlink:title="scape header files ">
<polygon fill="white" stroke="black" points="248,-336.5 248,-355.5 299,-355.5 299,-336.5 248,-336.5"/>
<text text-anchor="middle" x="273.5" y="-343.5" font-family="Helvetica,sans-Serif" font-size="10.00">scape.h</text>
</a>
</g>
</g>
<!-- Node22&#45;&gt;Node24 -->
<g id="edge36" class="edge"><title>Node22&#45;&gt;Node24</title>
<path fill="none" stroke="midnightblue" d="M256.803,-392.083C259.482,-384.849 263.349,-374.409 266.686,-365.397"/>
<polygon fill="midnightblue" stroke="midnightblue" points="270.068,-366.344 270.259,-355.751 263.504,-363.913 270.068,-366.344"/>
</g>
<!-- Node23&#45;&gt;Node12 -->
<g id="edge34" class="edge"><title>Node23&#45;&gt;Node12</title>
<path fill="none" stroke="midnightblue" d="M40.4947,-168.324C58.5377,-159.625 86.5469,-146.12 107.303,-136.113"/>
<polygon fill="midnightblue" stroke="midnightblue" points="109.062,-139.15 116.55,-131.655 106.022,-132.845 109.062,-139.15"/>
</g>
<!-- Node24&#45;&gt;Node3 -->
<g id="edge37" class="edge"><title>Node24&#45;&gt;Node3</title>
<path fill="none" stroke="midnightblue" d="M273.5,-336.083C273.5,-329.006 273.5,-318.861 273.5,-309.986"/>
<polygon fill="midnightblue" stroke="midnightblue" points="277,-309.751 273.5,-299.751 270,-309.751 277,-309.751"/>
</g>
<!-- Node26 -->
<g id="node26" class="node"><title>Node26</title>
<g id="a_node26"><a xlink:href="ceptr_8h_source.html" target="_top" xlink:title="../src/ceptr.h">
<polygon fill="white" stroke="black" points="561.5,-336.5 561.5,-355.5 633.5,-355.5 633.5,-336.5 561.5,-336.5"/>
<text text-anchor="middle" x="597.5" y="-343.5" font-family="Helvetica,sans-Serif" font-size="10.00">../src/ceptr.h</text>
</a>
</g>
</g>
<!-- Node25&#45;&gt;Node26 -->
<g id="edge39" class="edge"><title>Node25&#45;&gt;Node26</title>
<path fill="none" stroke="midnightblue" d="M567.445,-392.083C572.477,-384.534 579.837,-373.495 586.013,-364.23"/>
<polygon fill="midnightblue" stroke="midnightblue" points="589.031,-366.013 591.666,-355.751 583.207,-362.13 589.031,-366.013"/>
</g>
<!-- Node26&#45;&gt;Node3 -->
<g id="edge44" class="edge"><title>Node26&#45;&gt;Node3</title>
<path fill="none" stroke="midnightblue" d="M561.276,-338.963C497.096,-328.266 364.525,-306.171 304.379,-296.147"/>
<polygon fill="midnightblue" stroke="midnightblue" points="304.799,-292.668 294.359,-294.477 303.648,-299.573 304.799,-292.668"/>
</g>
<!-- Node26&#45;&gt;Node4 -->
<g id="edge40" class="edge"><title>Node26&#45;&gt;Node4</title>
<path fill="none" stroke="midnightblue" d="M617.523,-336.442C649.739,-321.168 709.5,-285.965 709.5,-235 709.5,-235 709.5,-235 709.5,-121 709.5,-90.9022 713.282,-75.6691 690.5,-56 647.788,-19.1237 476.145,-12.3826 401.481,-11.212"/>
<polygon fill="midnightblue" stroke="midnightblue" points="401.241,-7.70865 391.196,-11.0768 401.149,-14.708 401.241,-7.70865"/>
</g>
<!-- Node26&#45;&gt;Node5 -->
<g id="edge42" class="edge"><title>Node26&#45;&gt;Node5</title>
<path fill="none" stroke="midnightblue" d="M599.813,-336.142C608.021,-302.52 632.378,-181.205 576.5,-112 539.47,-66.1375 362.395,-30.2667 286.814,-16.7858"/>
<polygon fill="midnightblue" stroke="midnightblue" points="287.303,-13.3181 276.848,-15.0334 286.091,-20.2124 287.303,-13.3181"/>
</g>
<!-- Node26&#45;&gt;Node6 -->
<g id="edge43" class="edge"><title>Node26&#45;&gt;Node6</title>
<path fill="none" stroke="midnightblue" d="M590.779,-336.075C570.763,-309.493 511.309,-230.538 485.123,-195.763"/>
<polygon fill="midnightblue" stroke="midnightblue" points="487.763,-193.451 478.952,-187.568 482.171,-197.662 487.763,-193.451"/>
</g>
<!-- Node26&#45;&gt;Node7 -->
<g id="edge41" class="edge"><title>Node26&#45;&gt;Node7</title>
<path fill="none" stroke="midnightblue" d="M633.659,-340.48C661.542,-335.211 699.309,-323.934 723.5,-300 745.391,-278.341 747.5,-265.795 747.5,-235 747.5,-235 747.5,-235 747.5,-177 747.5,-134.846 707.51,-99.7791 681.142,-81.2392"/>
<polygon fill="midnightblue" stroke="midnightblue" points="683.044,-78.3003 672.799,-75.5989 679.123,-84.0994 683.044,-78.3003"/>
</g>
<!-- Node26&#45;&gt;Node18 -->
<g id="edge51" class="edge"><title>Node26&#45;&gt;Node18</title>
<path fill="none" stroke="midnightblue" d="M601.894,-336.368C611.054,-318.376 632.347,-276.55 644.526,-252.627"/>
<polygon fill="midnightblue" stroke="midnightblue" points="647.708,-254.091 649.126,-243.591 641.47,-250.915 647.708,-254.091"/>
</g>
<!-- Node27 -->
<g id="node27" class="node"><title>Node27</title>
<g id="a_node27"><a xlink:href="mtree_8h.html" target="_top" xlink:title="semantic tree matrix header file `` ">
<polygon fill="white" stroke="black" points="337.5,-224.5 337.5,-243.5 387.5,-243.5 387.5,-224.5 337.5,-224.5"/>
<text text-anchor="middle" x="362.5" y="-231.5" font-family="Helvetica,sans-Serif" font-size="10.00">mtree.h</text>
</a>
</g>
</g>
<!-- Node26&#45;&gt;Node27 -->
<g id="edge45" class="edge"><title>Node26&#45;&gt;Node27</title>
<path fill="none" stroke="midnightblue" d="M572.672,-336.428C548.917,-327.979 512.255,-314.292 481.5,-300 447.351,-284.131 409.416,-262.716 385.759,-248.88"/>
<polygon fill="midnightblue" stroke="midnightblue" points="387.235,-245.687 376.842,-243.628 383.682,-251.719 387.235,-245.687"/>
</g>
<!-- Node26&#45;&gt;Node28 -->
<g id="edge52" class="edge"><title>Node26&#45;&gt;Node28</title>
<path fill="none" stroke="midnightblue" d="M633.662,-339.481C680.548,-332.025 764.7,-317.619 835.5,-300 835.599,-299.975 835.698,-299.951 835.798,-299.926"/>
<polygon fill="midnightblue" stroke="midnightblue" points="836.539,-303.352 845.243,-297.312 834.672,-296.606 836.539,-303.352"/>
</g>
<!-- Node26&#45;&gt;Node31 -->
<g id="edge56" class="edge"><title>Node26&#45;&gt;Node31</title>
<path fill="none" stroke="midnightblue" d="M629.824,-336.444C666.952,-326.616 727.672,-310.543 766.062,-300.381"/>
<polygon fill="midnightblue" stroke="midnightblue" points="767.015,-303.749 775.786,-297.807 765.223,-296.982 767.015,-303.749"/>
</g>
<!-- Node27&#45;&gt;Node4 -->
<g id="edge46" class="edge"><title>Node27&#45;&gt;Node4</title>
<path fill="none" stroke="midnightblue" d="M362.657,-224.297C363.245,-191.633 365.331,-75.8661 366.158,-29.9573"/>
<polygon fill="midnightblue" stroke="midnightblue" points="369.659,-29.9452 366.34,-19.8837 362.66,-29.819 369.659,-29.9452"/>
</g>
<!-- Node27&#45;&gt;Node5 -->
<g id="edge47" class="edge"><title>Node27&#45;&gt;Node5</title>
<path fill="none" stroke="midnightblue" d="M358.188,-224.297C341.9,-191.425 283.91,-74.3911 261.464,-29.0904"/>
<polygon fill="midnightblue" stroke="midnightblue" points="264.478,-27.2902 256.902,-19.8837 258.206,-30.3981 264.478,-27.2902"/>
</g>
<!-- Node27&#45;&gt;Node6 -->
<g id="edge48" class="edge"><title>Node27&#45;&gt;Node6</title>
<path fill="none" stroke="midnightblue" d="M380.173,-224.324C397.894,-215.625 425.403,-202.12 445.788,-192.113"/>
<polygon fill="midnightblue" stroke="midnightblue" points="447.436,-195.203 454.87,-187.655 444.351,-188.919 447.436,-195.203"/>
</g>
<!-- Node27&#45;&gt;Node11 -->
<g id="edge49" class="edge"><title>Node27&#45;&gt;Node11</title>
<path fill="none" stroke="midnightblue" d="M337.229,-227.015C298.559,-217.856 224.242,-200.255 177.13,-189.097"/>
<polygon fill="midnightblue" stroke="midnightblue" points="177.761,-185.649 167.224,-186.75 176.148,-192.461 177.761,-185.649"/>
</g>
<!-- Node27&#45;&gt;Node12 -->
<g id="edge50" class="edge"><title>Node27&#45;&gt;Node12</title>
<path fill="none" stroke="midnightblue" d="M340.956,-224.367C319.569,-215.657 285.956,-201.589 257.5,-188 222.674,-171.369 183.403,-150.176 158.804,-136.595"/>
<polygon fill="midnightblue" stroke="midnightblue" points="160.271,-133.406 149.828,-131.617 156.876,-139.528 160.271,-133.406"/>
</g>
<!-- Node28&#45;&gt;Node7 -->
<g id="edge54" class="edge"><title>Node28&#45;&gt;Node7</title>
<path fill="none" stroke="midnightblue" d="M866.623,-280.313C869.327,-267.582 872.926,-243.279 866.5,-224 846.824,-164.971 832.493,-149.044 782.5,-112 755.372,-91.8986 718.364,-80.0253 691.854,-73.5698"/>
<polygon fill="midnightblue" stroke="midnightblue" points="692.429,-70.1108 681.899,-71.2788 690.859,-76.9325 692.429,-70.1108"/>
</g>
<!-- Node29 -->
<g id="node29" class="node"><title>Node29</title>
<polygon fill="white" stroke="#bfbfbf" points="914,-224.5 914,-243.5 963,-243.5 963,-224.5 914,-224.5"/>
<text text-anchor="middle" x="938.5" y="-231.5" font-family="Helvetica,sans-Serif" font-size="10.00">ctype.h</text>
</g>
<!-- Node28&#45;&gt;Node29 -->
<g id="edge53" class="edge"><title>Node28&#45;&gt;Node29</title>
<path fill="none" stroke="midnightblue" d="M876.389,-280.324C887.65,-272.107 904.787,-259.602 918.209,-249.807"/>
<polygon fill="midnightblue" stroke="midnightblue" points="920.38,-252.556 926.394,-243.834 916.253,-246.901 920.38,-252.556"/>
</g>
<!-- Node30 -->
<g id="node30" class="node"><title>Node30</title>
<polygon fill="white" stroke="#bfbfbf" points="813.5,-224.5 813.5,-243.5 857.5,-243.5 857.5,-224.5 813.5,-224.5"/>
<text text-anchor="middle" x="835.5" y="-231.5" font-family="Helvetica,sans-Serif" font-size="10.00">time.h</text>
</g>
<!-- Node28&#45;&gt;Node30 -->
<g id="edge55" class="edge"><title>Node28&#45;&gt;Node30</title>
<path fill="none" stroke="midnightblue" d="M859.711,-280.083C855.742,-272.691 849.975,-261.953 845.065,-252.811"/>
<polygon fill="midnightblue" stroke="midnightblue" points="848.014,-250.905 840.2,-243.751 841.847,-254.217 848.014,-250.905"/>
</g>
<!-- Node31&#45;&gt;Node7 -->
<g id="edge57" class="edge"><title>Node31&#45;&gt;Node7</title>
<path fill="none" stroke="midnightblue" d="M802.091,-280.467C803.543,-252.739 804.444,-163.972 761.5,-112 744.038,-90.8669 714.723,-79.3766 691.823,-73.3099"/>
<polygon fill="midnightblue" stroke="midnightblue" points="692.361,-69.8391 681.818,-70.889 690.714,-76.6428 692.361,-69.8391"/>
</g>
</g>
</svg>
        <g id="navigator" transform="translate(0 0)" fill="#404254">
                <rect fill="#f2f5e9" fill-opacity="0.5" stroke="#606060" stroke-width=".5" x="0" y="0" width="60" height="60"/>
                <use id="zoomplus" xlink:href="#zoomPlus" x="17" y="9" onmousedown="handleZoom(evt,'in')"/>
                <use id="zoomminus" xlink:href="#zoomMin" x="42" y="9" onmousedown="handleZoom(evt,'out')"/>
                <use id="reset" xlink:href="#resetDef" x="30" y="36" onmousedown="handleReset()"/>
                <g id="arrowUp" xlink:href="#dirArrow" transform="translate(30 24)" onmousedown="handlePan(0,-1)">
                  <use xlink:href="#rim" fill="#404040">
                        <set attributeName="fill" to="#808080" begin="arrowUp.mouseover" end="arrowUp.mouseout"/>
                  </use>
                  <path fill="none" stroke="white" stroke-width="1.5" d="M0,-3.0v7 M-2.5,-0.5L0,-3.0L2.5,-0.5"/>
                </g>
                <g id="arrowRight" xlink:href="#dirArrow" transform="rotate(90) translate(36 -43)" onmousedown="handlePan(1,0)">
                  <use xlink:href="#rim" fill="#404040">
                        <set attributeName="fill" to="#808080" begin="arrowRight.mouseover" end="arrowRight.mouseout"/>
                  </use>
                  <path fill="none" stroke="white" stroke-width="1.5" d="M0,-3.0v7 M-2.5,-0.5L0,-3.0L2.5,-0.5"/>
                </g>
                <g id="arrowDown" xlink:href="#dirArrow" transform="rotate(180) translate(-30 -48)" onmousedown="handlePan(0,1)">
                  <use xlink:href="#rim" fill="#404040">
                        <set attributeName="fill" to="#808080" begin="arrowDown.mouseover" end="arrowDown.mouseout"/>
                  </use>
                  <path fill="none" stroke="white" stroke-width="1.5" d="M0,-3.0v7 M-2.5,-0.5L0,-3.0L2.5,-0.5"/>
                </g>
                <g id="arrowLeft" xlink:href="#dirArrow" transform="rotate(270) translate(-36 17)" onmousedown="handlePan(-1,0)">
                  <use xlink:href="#rim" fill="#404040">
                        <set attributeName="fill" to="#808080" begin="arrowLeft.mouseover" end="arrowLeft.mouseout"/>
                  </use>
                  <path fill="none" stroke="white" stroke-width="1.5" d="M0,-3.0v7 M-2.5,-0.5L0,-3.0L2.5,-0.5"/>
                </g>
        </g>
        <svg viewBox="0 0 15 15" width="100%" height="30px" preserveAspectRatio="xMaxYMin meet">
         <g id="arrow_out" transform="scale(0.3 0.3)">
          <a xlink:href="process_8c__incl_org.svg" target="_base">
           <rect id="button" ry="5" rx="5" y="6" x="6" height="38" width="38"
                fill="#f2f5e9" fill-opacity="0.5" stroke="#606060" stroke-width="1.0"/>
           <path id="arrow"
             d="M 11.500037,31.436501 C 11.940474,20.09759 22.043105,11.32322 32.158766,21.979434 L 37.068811,17.246167 C 37.068811,17.246167 37.088388,32 37.088388,32 L 22.160133,31.978069 C 22.160133,31.978069 26.997745,27.140456 26.997745,27.140456 C 18.528582,18.264221 13.291696,25.230495 11.500037,31.436501 z"
             style="fill:#404040;"/>
          </a>
         </g>
        </svg>
</svg>
