<?xml version="1.0" encoding="UTF-8" standalone="no"?>
<!DOCTYPE svg PUBLIC "-//W3C//DTD SVG 1.1//EN"
 "http://www.w3.org/Graphics/SVG/1.1/DTD/svg11.dtd">
<!-- Generated by graphviz version 2.38.0 (20140413.2041)
 -->
<!-- Title: spec/profile_example.h Pages: 1 -->
<svg width="839pt" height="476pt"
 viewBox="0.00 0.00 838.52 476.00" xmlns="http://www.w3.org/2000/svg" xmlns:xlink="http://www.w3.org/1999/xlink">
<g id="graph0" class="graph" transform="scale(1 1) rotate(0) translate(4 472)">
<title>spec/profile_example.h</title>
<polygon fill="white" stroke="none" points="-4,4 -4,-472 834.517,-472 834.517,4 -4,4"/>
<!-- Node1 -->
<g id="node1" class="node"><title>Node1</title>
<polygon fill="#bfbfbf" stroke="black" points="545.517,-448.5 545.517,-467.5 662.517,-467.5 662.517,-448.5 545.517,-448.5"/>
<text text-anchor="middle" x="604.017" y="-455.5" font-family="Helvetica,sans-Serif" font-size="10.00">spec/profile_example.h</text>
</g>
<!-- Node2 -->
<g id="node2" class="node"><title>Node2</title>
<g id="a_node2"><a xlink:href="ceptr_8h_source.html" target="_top" xlink:title="../src/ceptr.h">
<polygon fill="white" stroke="black" points="316.017,-336.5 316.017,-355.5 388.017,-355.5 388.017,-336.5 316.017,-336.5"/>
<text text-anchor="middle" x="352.017" y="-343.5" font-family="Helvetica,sans-Serif" font-size="10.00">../src/ceptr.h</text>
</a>
</g>
</g>
<!-- Node1&#45;&gt;Node2 -->
<g id="edge1" class="edge"><title>Node1&#45;&gt;Node2</title>
<path fill="none" stroke="midnightblue" d="M581.561,-448.379C558.845,-439.564 522.788,-425.314 492.017,-412 452.196,-394.771 406.745,-373.335 378.713,-359.905"/>
<polygon fill="midnightblue" stroke="midnightblue" points="380.092,-356.684 369.562,-355.509 377.06,-362.994 380.092,-356.684"/>
</g>
<!-- Node24 -->
<g id="node24" class="node"><title>Node24</title>
<g id="a_node24"><a xlink:href="receptor_8h.html" target="_top" xlink:title="receptor implementation header file ">
<polygon fill="white" stroke="black" points="621.017,-392.5 621.017,-411.5 707.017,-411.5 707.017,-392.5 621.017,-392.5"/>
<text text-anchor="middle" x="664.017" y="-399.5" font-family="Helvetica,sans-Serif" font-size="10.00">../src/receptor.h</text>
</a>
</g>
</g>
<!-- Node1&#45;&gt;Node24 -->
<g id="edge42" class="edge"><title>Node1&#45;&gt;Node24</title>
<path fill="none" stroke="midnightblue" d="M613.657,-448.324C622.526,-440.341 635.891,-428.313 646.625,-418.653"/>
<polygon fill="midnightblue" stroke="midnightblue" points="649.11,-421.125 654.201,-411.834 644.427,-415.922 649.11,-421.125"/>
</g>
<!-- Node25 -->
<g id="node25" class="node"><title>Node25</title>
<g id="a_node25"><a xlink:href="def_8h.html" target="_top" xlink:title="header file for symbol and structure definition functions ">
<polygon fill="white" stroke="black" points="763.017,-336.5 763.017,-355.5 801.017,-355.5 801.017,-336.5 763.017,-336.5"/>
<text text-anchor="middle" x="782.017" y="-343.5" font-family="Helvetica,sans-Serif" font-size="10.00">def.h</text>
</a>
</g>
</g>
<!-- Node1&#45;&gt;Node25 -->
<g id="edge53" class="edge"><title>Node1&#45;&gt;Node25</title>
<path fill="none" stroke="midnightblue" d="M634.59,-448.346C658.043,-440.875 690.599,-428.649 716.017,-412 736.516,-398.572 755.995,-378.101 768.405,-363.728"/>
<polygon fill="midnightblue" stroke="midnightblue" points="771.411,-365.592 775.165,-355.685 766.052,-361.089 771.411,-365.592"/>
</g>
<!-- Node30 -->
<g id="node30" class="node"><title>Node30</title>
<g id="a_node30"><a xlink:href="semtrex_8h.html" target="_top" xlink:title="Semantic tree regular expression header file. ">
<polygon fill="white" stroke="black" points="501.017,-392.5 501.017,-411.5 587.017,-411.5 587.017,-392.5 501.017,-392.5"/>
<text text-anchor="middle" x="544.017" y="-399.5" font-family="Helvetica,sans-Serif" font-size="10.00">../src/semtrex.h</text>
</a>
</g>
</g>
<!-- Node1&#45;&gt;Node30 -->
<g id="edge54" class="edge"><title>Node1&#45;&gt;Node30</title>
<path fill="none" stroke="midnightblue" d="M594.377,-448.324C585.507,-440.341 572.142,-428.313 561.409,-418.653"/>
<polygon fill="midnightblue" stroke="midnightblue" points="563.606,-415.922 553.832,-411.834 558.924,-421.125 563.606,-415.922"/>
</g>
<!-- Node3 -->
<g id="node3" class="node"><title>Node3</title>
<polygon fill="white" stroke="#bfbfbf" points="633.517,-0.5 633.517,-19.5 682.517,-19.5 682.517,-0.5 633.517,-0.5"/>
<text text-anchor="middle" x="658.017" y="-7.5" font-family="Helvetica,sans-Serif" font-size="10.00">string.h</text>
</g>
<!-- Node2&#45;&gt;Node3 -->
<g id="edge2" class="edge"><title>Node2&#45;&gt;Node3</title>
<path fill="none" stroke="midnightblue" d="M374.624,-336.464C410.53,-321.999 481.207,-289.719 527.017,-244 593.191,-177.957 636.342,-71.5612 651.724,-29.2262"/>
<polygon fill="midnightblue" stroke="midnightblue" points="655.06,-30.2904 655.106,-19.6957 648.463,-27.949 655.06,-30.2904"/>
</g>
<!-- Node4 -->
<g id="node4" class="node"><title>Node4</title>
<polygon fill="white" stroke="#bfbfbf" points="226.017,-56.5 226.017,-75.5 272.017,-75.5 272.017,-56.5 226.017,-56.5"/>
<text text-anchor="middle" x="249.017" y="-63.5" font-family="Helvetica,sans-Serif" font-size="10.00">stdio.h</text>
</g>
<!-- Node2&#45;&gt;Node4 -->
<g id="edge3" class="edge"><title>Node2&#45;&gt;Node4</title>
<path fill="none" stroke="midnightblue" d="M315.576,-340.368C260.654,-331.12 163.017,-304.856 163.017,-235 163.017,-235 163.017,-235 163.017,-177 163.017,-135.583 201.323,-100.453 226.805,-81.6658"/>
<polygon fill="midnightblue" stroke="midnightblue" points="229.063,-84.3555 235.199,-75.7187 225.016,-78.6436 229.063,-84.3555"/>
</g>
<!-- Node5 -->
<g id="node5" class="node"><title>Node5</title>
<polygon fill="white" stroke="#bfbfbf" points="408.017,-0.5 408.017,-19.5 456.017,-19.5 456.017,-0.5 408.017,-0.5"/>
<text text-anchor="middle" x="432.017" y="-7.5" font-family="Helvetica,sans-Serif" font-size="10.00">stdlib.h</text>
</g>
<!-- Node2&#45;&gt;Node5 -->
<g id="edge4" class="edge"><title>Node2&#45;&gt;Node5</title>
<path fill="none" stroke="midnightblue" d="M315.775,-341.436C226.096,-331.618 1.01662,-300.456 1.01662,-235 1.01662,-235 1.01662,-235 1.01662,-121 1.01662,-90.9022 -3.04987,-75.3343 20.0166,-56 48.7556,-31.9111 303.893,-17.2141 397.65,-12.5867"/>
<polygon fill="midnightblue" stroke="midnightblue" points="397.931,-16.0773 407.749,-12.0966 397.591,-9.08555 397.931,-16.0773"/>
</g>
<!-- Node6 -->
<g id="node6" class="node"><title>Node6</title>
<g id="a_node6"><a xlink:href="ceptr__error_8h_source.html" target="_top" xlink:title="ceptr_error.h">
<polygon fill="white" stroke="black" points="404.517,-168.5 404.517,-187.5 475.517,-187.5 475.517,-168.5 404.517,-168.5"/>
<text text-anchor="middle" x="440.017" y="-175.5" font-family="Helvetica,sans-Serif" font-size="10.00">ceptr_error.h</text>
</a>
</g>
</g>
<!-- Node2&#45;&gt;Node6 -->
<g id="edge5" class="edge"><title>Node2&#45;&gt;Node6</title>
<path fill="none" stroke="midnightblue" d="M348.547,-336.238C340.772,-315.057 324.343,-260.16 347.017,-224 357.549,-207.203 376.323,-196.522 394.259,-189.807"/>
<polygon fill="midnightblue" stroke="midnightblue" points="395.737,-193.001 404.079,-186.47 393.485,-186.373 395.737,-193.001"/>
</g>
<!-- Node10 -->
<g id="node10" class="node"><title>Node10</title>
<g id="a_node10"><a xlink:href="tree_8h.html" target="_top" xlink:title="semantic trees header file ">
<polygon fill="white" stroke="black" points="587.517,-280.5 587.517,-299.5 628.517,-299.5 628.517,-280.5 587.517,-280.5"/>
<text text-anchor="middle" x="608.017" y="-287.5" font-family="Helvetica,sans-Serif" font-size="10.00">tree.h</text>
</a>
</g>
</g>
<!-- Node2&#45;&gt;Node10 -->
<g id="edge10" class="edge"><title>Node2&#45;&gt;Node10</title>
<path fill="none" stroke="midnightblue" d="M388.152,-337.378C438.765,-326.701 529.88,-307.482 577.361,-297.466"/>
<polygon fill="midnightblue" stroke="midnightblue" points="578.287,-300.848 587.349,-295.36 576.842,-293.999 578.287,-300.848"/>
</g>
<!-- Node18 -->
<g id="node18" class="node"><title>Node18</title>
<g id="a_node18"><a xlink:href="stream_8h.html" target="_top" xlink:title="streams abstraction header file ">
<polygon fill="white" stroke="black" points="356.517,-224.5 356.517,-243.5 411.517,-243.5 411.517,-224.5 356.517,-224.5"/>
<text text-anchor="middle" x="384.017" y="-231.5" font-family="Helvetica,sans-Serif" font-size="10.00">stream.h</text>
</a>
</g>
</g>
<!-- Node2&#45;&gt;Node18 -->
<g id="edge34" class="edge"><title>Node2&#45;&gt;Node18</title>
<path fill="none" stroke="midnightblue" d="M354.528,-336.368C359.715,-318.537 371.713,-277.295 378.701,-253.272"/>
<polygon fill="midnightblue" stroke="midnightblue" points="382.085,-254.171 381.517,-243.591 375.363,-252.216 382.085,-254.171"/>
</g>
<!-- Node19 -->
<g id="node19" class="node"><title>Node19</title>
<g id="a_node19"><a xlink:href="mtree_8h.html" target="_top" xlink:title="semantic tree matrix header file `` ">
<polygon fill="white" stroke="black" points="468.017,-224.5 468.017,-243.5 518.017,-243.5 518.017,-224.5 468.017,-224.5"/>
<text text-anchor="middle" x="493.017" y="-231.5" font-family="Helvetica,sans-Serif" font-size="10.00">mtree.h</text>
</a>
</g>
</g>
<!-- Node2&#45;&gt;Node19 -->
<g id="edge28" class="edge"><title>Node2&#45;&gt;Node19</title>
<path fill="none" stroke="midnightblue" d="M363.081,-336.368C387.07,-317.653 444.114,-273.151 474.004,-249.832"/>
<polygon fill="midnightblue" stroke="midnightblue" points="476.272,-252.502 482.004,-243.591 471.967,-246.983 476.272,-252.502"/>
</g>
<!-- Node20 -->
<g id="node20" class="node"><title>Node20</title>
<g id="a_node20"><a xlink:href="util_8h.html" target="_top" xlink:title="util.h">
<polygon fill="white" stroke="black" points="97.0166,-112.5 97.0166,-131.5 135.017,-131.5 135.017,-112.5 97.0166,-112.5"/>
<text text-anchor="middle" x="116.017" y="-119.5" font-family="Helvetica,sans-Serif" font-size="10.00">util.h</text>
</a>
</g>
</g>
<!-- Node2&#45;&gt;Node20 -->
<g id="edge35" class="edge"><title>Node2&#45;&gt;Node20</title>
<path fill="none" stroke="midnightblue" d="M315.802,-341.724C263.8,-336.258 171.723,-323.488 149.017,-300 107.063,-256.603 109.625,-177.967 113.416,-141.945"/>
<polygon fill="midnightblue" stroke="midnightblue" points="116.912,-142.193 114.636,-131.846 109.962,-141.354 116.912,-142.193"/>
</g>
<!-- Node23 -->
<g id="node23" class="node"><title>Node23</title>
<g id="a_node23"><a xlink:href="debug_8h.html" target="_top" xlink:title="debug.h">
<polygon fill="white" stroke="black" points="191.517,-168.5 191.517,-187.5 242.517,-187.5 242.517,-168.5 191.517,-168.5"/>
<text text-anchor="middle" x="217.017" y="-175.5" font-family="Helvetica,sans-Serif" font-size="10.00">debug.h</text>
</a>
</g>
</g>
<!-- Node2&#45;&gt;Node23 -->
<g id="edge40" class="edge"><title>Node2&#45;&gt;Node23</title>
<path fill="none" stroke="midnightblue" d="M344.758,-336.075C323.14,-309.493 258.93,-230.538 230.649,-195.763"/>
<polygon fill="midnightblue" stroke="midnightblue" points="233.01,-193.118 223.985,-187.568 227.579,-197.535 233.01,-193.118"/>
</g>
<!-- Node6&#45;&gt;Node4 -->
<g id="edge6" class="edge"><title>Node6&#45;&gt;Node4</title>
<path fill="none" stroke="midnightblue" d="M422.912,-168.347C405.623,-159.508 378.221,-145.239 355.017,-132 325.617,-115.226 292.466,-94.6156 271.188,-81.1609"/>
<polygon fill="midnightblue" stroke="midnightblue" points="272.892,-78.0964 262.573,-75.6934 269.141,-84.0068 272.892,-78.0964"/>
</g>
<!-- Node7 -->
<g id="node7" class="node"><title>Node7</title>
<polygon fill="white" stroke="#bfbfbf" points="436.017,-112.5 436.017,-131.5 486.017,-131.5 486.017,-112.5 436.017,-112.5"/>
<text text-anchor="middle" x="461.017" y="-119.5" font-family="Helvetica,sans-Serif" font-size="10.00">signal.h</text>
</g>
<!-- Node6&#45;&gt;Node7 -->
<g id="edge7" class="edge"><title>Node6&#45;&gt;Node7</title>
<path fill="none" stroke="midnightblue" d="M443.484,-168.083C446.328,-160.77 450.446,-150.181 453.976,-141.103"/>
<polygon fill="midnightblue" stroke="midnightblue" points="457.251,-142.34 457.613,-131.751 450.727,-139.803 457.251,-142.34"/>
</g>
<!-- Node8 -->
<g id="node8" class="node"><title>Node8</title>
<polygon fill="white" stroke="#bfbfbf" points="504.017,-112.5 504.017,-131.5 556.017,-131.5 556.017,-112.5 504.017,-112.5"/>
<text text-anchor="middle" x="530.017" y="-119.5" font-family="Helvetica,sans-Serif" font-size="10.00">assert.h</text>
</g>
<!-- Node6&#45;&gt;Node8 -->
<g id="edge8" class="edge"><title>Node6&#45;&gt;Node8</title>
<path fill="none" stroke="midnightblue" d="M454.477,-168.324C468.516,-159.9 490.065,-146.971 506.56,-137.074"/>
<polygon fill="midnightblue" stroke="midnightblue" points="508.818,-139.801 515.592,-131.655 505.217,-133.798 508.818,-139.801"/>
</g>
<!-- Node9 -->
<g id="node9" class="node"><title>Node9</title>
<polygon fill="white" stroke="#bfbfbf" points="364.017,-112.5 364.017,-131.5 418.017,-131.5 418.017,-112.5 364.017,-112.5"/>
<text text-anchor="middle" x="391.017" y="-119.5" font-family="Helvetica,sans-Serif" font-size="10.00">setjmp.h</text>
</g>
<!-- Node6&#45;&gt;Node9 -->
<g id="edge9" class="edge"><title>Node6&#45;&gt;Node9</title>
<path fill="none" stroke="midnightblue" d="M431.925,-168.083C424.861,-160.298 414.429,-148.801 405.868,-139.367"/>
<polygon fill="midnightblue" stroke="midnightblue" points="408.269,-136.805 398.957,-131.751 403.085,-141.509 408.269,-136.805"/>
</g>
<!-- Node10&#45;&gt;Node3 -->
<g id="edge11" class="edge"><title>Node10&#45;&gt;Node3</title>
<path fill="none" stroke="midnightblue" d="M628.728,-288.027C682.791,-284.268 824.017,-266.111 824.017,-179 824.017,-179 824.017,-179 824.017,-121 824.017,-81.0766 794.77,-78.828 762.017,-56 740.559,-41.0449 713.341,-29.4866 692.131,-21.8303"/>
<polygon fill="midnightblue" stroke="midnightblue" points="693.148,-18.4782 682.553,-18.4883 690.842,-25.0875 693.148,-18.4782"/>
</g>
<!-- Node10&#45;&gt;Node5 -->
<g id="edge12" class="edge"><title>Node10&#45;&gt;Node5</title>
<path fill="none" stroke="midnightblue" d="M607.908,-280.466C607.182,-253.462 601.919,-168.348 565.017,-112 538.5,-71.5103 490.012,-40.8794 459.482,-24.4665"/>
<polygon fill="midnightblue" stroke="midnightblue" points="460.736,-21.1724 450.252,-19.6428 457.493,-27.3763 460.736,-21.1724"/>
</g>
<!-- Node10&#45;&gt;Node6 -->
<g id="edge13" class="edge"><title>Node10&#45;&gt;Node6</title>
<path fill="none" stroke="midnightblue" d="M587.333,-288.691C555.343,-287.069 493.922,-279.218 459.017,-244 447.001,-231.876 442.503,-212.597 440.86,-198.178"/>
<polygon fill="midnightblue" stroke="midnightblue" points="444.325,-197.588 440.066,-187.887 437.346,-198.126 444.325,-197.588"/>
</g>
<!-- Node11 -->
<g id="node11" class="node"><title>Node11</title>
<g id="a_node11"><a xlink:href="sys__defs_8h.html" target="_top" xlink:title="Defines types and vars for system defined semantics. ">
<polygon fill="white" stroke="black" points="651.517,-168.5 651.517,-187.5 716.517,-187.5 716.517,-168.5 651.517,-168.5"/>
<text text-anchor="middle" x="684.017" y="-175.5" font-family="Helvetica,sans-Serif" font-size="10.00">sys_defs.h</text>
</a>
</g>
</g>
<!-- Node10&#45;&gt;Node11 -->
<g id="edge14" class="edge"><title>Node10&#45;&gt;Node11</title>
<path fill="none" stroke="midnightblue" d="M611.534,-280.131C616.885,-267.173 627.85,-242.59 641.017,-224 648.494,-213.442 658.384,-202.916 666.793,-194.702"/>
<polygon fill="midnightblue" stroke="midnightblue" points="669.425,-197.029 674.275,-187.609 664.61,-191.949 669.425,-197.029"/>
</g>
<!-- Node12 -->
<g id="node12" class="node"><title>Node12</title>
<g id="a_node12"><a xlink:href="ceptr__types_8h_source.html" target="_top" xlink:title="ceptr_types.h">
<polygon fill="white" stroke="black" points="688.017,-112.5 688.017,-131.5 764.017,-131.5 764.017,-112.5 688.017,-112.5"/>
<text text-anchor="middle" x="726.017" y="-119.5" font-family="Helvetica,sans-Serif" font-size="10.00">ceptr_types.h</text>
</a>
</g>
</g>
<!-- Node10&#45;&gt;Node12 -->
<g id="edge25" class="edge"><title>Node10&#45;&gt;Node12</title>
<path fill="none" stroke="midnightblue" d="M628.529,-288.137C656.644,-285.718 706.248,-276.759 729.017,-244 750.423,-213.2 740.519,-166.524 732.561,-141.086"/>
<polygon fill="midnightblue" stroke="midnightblue" points="735.873,-139.953 729.366,-131.592 729.238,-142.186 735.873,-139.953"/>
</g>
<!-- Node17 -->
<g id="node17" class="node"><title>Node17</title>
<g id="a_node17"><a xlink:href="base__defs_8h.html" target="_top" xlink:title="auto&#45;generated system definitions ">
<polygon fill="white" stroke="black" points="650.017,-224.5 650.017,-243.5 720.017,-243.5 720.017,-224.5 650.017,-224.5"/>
<text text-anchor="middle" x="685.017" y="-231.5" font-family="Helvetica,sans-Serif" font-size="10.00">base_defs.h</text>
</a>
</g>
</g>
<!-- Node10&#45;&gt;Node17 -->
<g id="edge23" class="edge"><title>Node10&#45;&gt;Node17</title>
<path fill="none" stroke="midnightblue" d="M620.388,-280.324C632.175,-272.058 650.149,-259.453 664.152,-249.632"/>
<polygon fill="midnightblue" stroke="midnightblue" points="666.498,-252.262 672.676,-243.655 662.479,-246.531 666.498,-252.262"/>
</g>
<!-- Node10&#45;&gt;Node18 -->
<g id="edge26" class="edge"><title>Node10&#45;&gt;Node18</title>
<path fill="none" stroke="midnightblue" d="M587.345,-284.017C549.607,-274.919 469.066,-255.503 421.458,-244.026"/>
<polygon fill="midnightblue" stroke="midnightblue" points="422.081,-240.576 411.54,-241.635 420.441,-247.381 422.081,-240.576"/>
</g>
<!-- Node11&#45;&gt;Node12 -->
<g id="edge15" class="edge"><title>Node11&#45;&gt;Node12</title>
<path fill="none" stroke="midnightblue" d="M690.952,-168.083C696.946,-160.377 705.768,-149.033 713.064,-139.653"/>
<polygon fill="midnightblue" stroke="midnightblue" points="715.834,-141.793 719.21,-131.751 710.308,-137.496 715.834,-141.793"/>
</g>
<!-- Node12&#45;&gt;Node4 -->
<g id="edge17" class="edge"><title>Node12&#45;&gt;Node4</title>
<path fill="none" stroke="midnightblue" d="M687.788,-116.672C596.638,-106.353 367.758,-80.4424 282.079,-70.7429"/>
<polygon fill="midnightblue" stroke="midnightblue" points="282.456,-67.2633 272.126,-69.6161 281.669,-74.2189 282.456,-67.2633"/>
</g>
<!-- Node13 -->
<g id="node13" class="node"><title>Node13</title>
<polygon fill="white" stroke="#bfbfbf" points="158.517,-56.5 158.517,-75.5 207.517,-75.5 207.517,-56.5 158.517,-56.5"/>
<text text-anchor="middle" x="183.017" y="-63.5" font-family="Helvetica,sans-Serif" font-size="10.00">stdint.h</text>
</g>
<!-- Node12&#45;&gt;Node13 -->
<g id="edge16" class="edge"><title>Node12&#45;&gt;Node13</title>
<path fill="none" stroke="midnightblue" d="M687.893,-118.477C588.965,-111.799 324.884,-93.1052 217.666,-75.7549"/>
<polygon fill="midnightblue" stroke="midnightblue" points="218.235,-72.3015 207.791,-74.0805 217.065,-79.203 218.235,-72.3015"/>
</g>
<!-- Node14 -->
<g id="node14" class="node"><title>Node14</title>
<g id="a_node14"><a xlink:href="uthash_8h_source.html" target="_top" xlink:title="uthash.h">
<polygon fill="white" stroke="black" points="699.017,-56.5 699.017,-75.5 753.017,-75.5 753.017,-56.5 699.017,-56.5"/>
<text text-anchor="middle" x="726.017" y="-63.5" font-family="Helvetica,sans-Serif" font-size="10.00">uthash.h</text>
</a>
</g>
</g>
<!-- Node12&#45;&gt;Node14 -->
<g id="edge18" class="edge"><title>Node12&#45;&gt;Node14</title>
<path fill="none" stroke="midnightblue" d="M726.017,-112.083C726.017,-105.006 726.017,-94.8611 726.017,-85.9865"/>
<polygon fill="midnightblue" stroke="midnightblue" points="729.517,-85.751 726.017,-75.7511 722.517,-85.7511 729.517,-85.751"/>
</g>
<!-- Node14&#45;&gt;Node3 -->
<g id="edge19" class="edge"><title>Node14&#45;&gt;Node3</title>
<path fill="none" stroke="midnightblue" d="M715.091,-56.324C704.842,-48.1849 689.296,-35.8395 677.016,-26.0874"/>
<polygon fill="midnightblue" stroke="midnightblue" points="679.149,-23.3119 669.141,-19.8339 674.795,-28.7937 679.149,-23.3119"/>
</g>
<!-- Node14&#45;&gt;Node5 -->
<g id="edge21" class="edge"><title>Node14&#45;&gt;Node5</title>
<path fill="none" stroke="midnightblue" d="M698.885,-60.0166C645.11,-50.1396 525.117,-28.1002 466.111,-17.2622"/>
<polygon fill="midnightblue" stroke="midnightblue" points="466.637,-13.8004 456.17,-15.4363 465.373,-20.6853 466.637,-13.8004"/>
</g>
<!-- Node15 -->
<g id="node15" class="node"><title>Node15</title>
<polygon fill="white" stroke="#bfbfbf" points="701.017,-0.5 701.017,-19.5 753.017,-19.5 753.017,-0.5 701.017,-0.5"/>
<text text-anchor="middle" x="727.017" y="-7.5" font-family="Helvetica,sans-Serif" font-size="10.00">stddef.h</text>
</g>
<!-- Node14&#45;&gt;Node15 -->
<g id="edge20" class="edge"><title>Node14&#45;&gt;Node15</title>
<path fill="none" stroke="midnightblue" d="M726.182,-56.083C726.313,-49.0059 726.501,-38.8611 726.665,-29.9865"/>
<polygon fill="midnightblue" stroke="midnightblue" points="730.169,-29.8142 726.855,-19.7511 723.17,-29.6845 730.169,-29.8142"/>
</g>
<!-- Node16 -->
<g id="node16" class="node"><title>Node16</title>
<polygon fill="white" stroke="#bfbfbf" points="771.517,-0.5 771.517,-19.5 830.517,-19.5 830.517,-0.5 771.517,-0.5"/>
<text text-anchor="middle" x="801.017" y="-7.5" font-family="Helvetica,sans-Serif" font-size="10.00">inttypes.h</text>
</g>
<!-- Node14&#45;&gt;Node16 -->
<g id="edge22" class="edge"><title>Node14&#45;&gt;Node16</title>
<path fill="none" stroke="midnightblue" d="M738.067,-56.324C749.48,-48.1066 766.848,-35.6017 780.452,-25.8069"/>
<polygon fill="midnightblue" stroke="midnightblue" points="782.677,-28.5174 788.747,-19.8339 778.587,-22.8366 782.677,-28.5174"/>
</g>
<!-- Node17&#45;&gt;Node11 -->
<g id="edge24" class="edge"><title>Node17&#45;&gt;Node11</title>
<path fill="none" stroke="midnightblue" d="M684.851,-224.083C684.72,-217.006 684.533,-206.861 684.368,-197.986"/>
<polygon fill="midnightblue" stroke="midnightblue" points="687.863,-197.685 684.179,-187.751 680.865,-197.814 687.863,-197.685"/>
</g>
<!-- Node18&#45;&gt;Node4 -->
<g id="edge27" class="edge"><title>Node18&#45;&gt;Node4</title>
<path fill="none" stroke="midnightblue" d="M356.161,-224.9C336.691,-217.952 311.351,-206.143 295.017,-188 268.296,-158.32 256.507,-111.541 251.795,-85.7033"/>
<polygon fill="midnightblue" stroke="midnightblue" points="255.23,-85.025 250.142,-75.7317 248.324,-86.1693 255.23,-85.025"/>
</g>
<!-- Node19&#45;&gt;Node3 -->
<g id="edge29" class="edge"><title>Node19&#45;&gt;Node3</title>
<path fill="none" stroke="midnightblue" d="M497.541,-224.234C504.323,-211.406 517.848,-186.983 532.017,-168 544.999,-150.606 551.057,-148.62 565.017,-132 595.254,-96 628.256,-51.7719 645.662,-28.0185"/>
<polygon fill="midnightblue" stroke="midnightblue" points="648.658,-29.8497 651.726,-19.7087 643.004,-25.7232 648.658,-29.8497"/>
</g>
<!-- Node19&#45;&gt;Node5 -->
<g id="edge30" class="edge"><title>Node19&#45;&gt;Node5</title>
<path fill="none" stroke="midnightblue" d="M467.66,-225.444C446.591,-218.262 416.666,-205.887 395.017,-188 371.437,-168.519 364.351,-161.127 355.017,-132 341.44,-89.6354 384.319,-47.4679 411.464,-25.8572"/>
<polygon fill="midnightblue" stroke="midnightblue" points="413.83,-28.4532 419.633,-19.5888 409.569,-22.8997 413.83,-28.4532"/>
</g>
<!-- Node19&#45;&gt;Node6 -->
<g id="edge31" class="edge"><title>Node19&#45;&gt;Node6</title>
<path fill="none" stroke="midnightblue" d="M484.265,-224.083C476.547,-216.22 465.112,-204.569 455.8,-195.081"/>
<polygon fill="midnightblue" stroke="midnightblue" points="458.108,-192.436 448.606,-187.751 453.112,-197.34 458.108,-192.436"/>
</g>
<!-- Node19&#45;&gt;Node11 -->
<g id="edge32" class="edge"><title>Node19&#45;&gt;Node11</title>
<path fill="none" stroke="midnightblue" d="M518.38,-225.829C550.517,-216.743 606.271,-200.98 644.13,-190.277"/>
<polygon fill="midnightblue" stroke="midnightblue" points="645.15,-193.626 653.82,-187.537 643.245,-186.89 645.15,-193.626"/>
</g>
<!-- Node19&#45;&gt;Node12 -->
<g id="edge33" class="edge"><title>Node19&#45;&gt;Node12</title>
<path fill="none" stroke="midnightblue" d="M511.3,-224.368C552.048,-205.131 650.508,-158.648 698.626,-135.931"/>
<polygon fill="midnightblue" stroke="midnightblue" points="700.27,-139.026 707.818,-131.591 697.281,-132.696 700.27,-139.026"/>
</g>
<!-- Node20&#45;&gt;Node4 -->
<g id="edge37" class="edge"><title>Node20&#45;&gt;Node4</title>
<path fill="none" stroke="midnightblue" d="M135.072,-113.263C156.855,-104.419 192.807,-89.8218 218.503,-79.3891"/>
<polygon fill="midnightblue" stroke="midnightblue" points="219.849,-82.6201 227.798,-75.6152 217.215,-76.1343 219.849,-82.6201"/>
</g>
<!-- Node20&#45;&gt;Node13 -->
<g id="edge39" class="edge"><title>Node20&#45;&gt;Node13</title>
<path fill="none" stroke="midnightblue" d="M126.781,-112.324C136.783,-104.263 151.903,-92.0765 163.947,-82.3695"/>
<polygon fill="midnightblue" stroke="midnightblue" points="166.466,-84.8343 172.056,-75.8339 162.074,-79.3841 166.466,-84.8343"/>
</g>
<!-- Node21 -->
<g id="node21" class="node"><title>Node21</title>
<polygon fill="white" stroke="#bfbfbf" points="91.5166,-56.5 91.5166,-75.5 140.517,-75.5 140.517,-56.5 91.5166,-56.5"/>
<text text-anchor="middle" x="116.017" y="-63.5" font-family="Helvetica,sans-Serif" font-size="10.00">ctype.h</text>
</g>
<!-- Node20&#45;&gt;Node21 -->
<g id="edge36" class="edge"><title>Node20&#45;&gt;Node21</title>
<path fill="none" stroke="midnightblue" d="M116.017,-112.083C116.017,-105.006 116.017,-94.8611 116.017,-85.9865"/>
<polygon fill="midnightblue" stroke="midnightblue" points="119.517,-85.751 116.017,-75.7511 112.517,-85.7511 119.517,-85.751"/>
</g>
<!-- Node22 -->
<g id="node22" class="node"><title>Node22</title>
<polygon fill="white" stroke="#bfbfbf" points="29.0166,-56.5 29.0166,-75.5 73.0166,-75.5 73.0166,-56.5 29.0166,-56.5"/>
<text text-anchor="middle" x="51.0166" y="-63.5" font-family="Helvetica,sans-Serif" font-size="10.00">time.h</text>
</g>
<!-- Node20&#45;&gt;Node22 -->
<g id="edge38" class="edge"><title>Node20&#45;&gt;Node22</title>
<path fill="none" stroke="midnightblue" d="M105.573,-112.324C95.8704,-104.263 81.2013,-92.0765 69.5169,-82.3695"/>
<polygon fill="midnightblue" stroke="midnightblue" points="71.5785,-79.532 61.65,-75.8339 67.1054,-84.9163 71.5785,-79.532"/>
</g>
<!-- Node23&#45;&gt;Node4 -->
<g id="edge41" class="edge"><title>Node23&#45;&gt;Node4</title>
<path fill="none" stroke="midnightblue" d="M219.528,-168.368C224.715,-150.537 236.713,-109.295 243.701,-85.2717"/>
<polygon fill="midnightblue" stroke="midnightblue" points="247.085,-86.1711 246.517,-75.5914 240.363,-84.2157 247.085,-86.1711"/>
</g>
<!-- Node24&#45;&gt;Node10 -->
<g id="edge43" class="edge"><title>Node24&#45;&gt;Node10</title>
<path fill="none" stroke="midnightblue" d="M622.966,-392.383C603.056,-385.916 580.923,-374.814 569.017,-356 558.388,-339.205 573.875,-319.603 588.362,-306.352"/>
<polygon fill="midnightblue" stroke="midnightblue" points="590.812,-308.862 596.135,-299.701 586.261,-303.543 590.812,-308.862"/>
</g>
<!-- Node24&#45;&gt;Node25 -->
<g id="edge44" class="edge"><title>Node24&#45;&gt;Node25</title>
<path fill="none" stroke="midnightblue" d="M682.714,-392.444C701.961,-383.636 732.169,-369.812 754.217,-359.722"/>
<polygon fill="midnightblue" stroke="midnightblue" points="755.77,-362.86 763.407,-355.516 752.857,-356.495 755.77,-362.86"/>
</g>
<!-- Node27 -->
<g id="node27" class="node"><title>Node27</title>
<g id="a_node27"><a xlink:href="label_8h.html" target="_top" xlink:title="Label tables map human readable text strings to parts of semantic trees. ">
<polygon fill="white" stroke="black" points="712.517,-280.5 712.517,-299.5 757.517,-299.5 757.517,-280.5 712.517,-280.5"/>
<text text-anchor="middle" x="735.017" y="-287.5" font-family="Helvetica,sans-Serif" font-size="10.00">label.h</text>
</a>
</g>
</g>
<!-- Node24&#45;&gt;Node27 -->
<g id="edge47" class="edge"><title>Node24&#45;&gt;Node27</title>
<path fill="none" stroke="midnightblue" d="M677.61,-392.22C689.129,-384.117 705.283,-371.08 715.017,-356 724.12,-341.895 729.281,-323.406 732.071,-309.755"/>
<polygon fill="midnightblue" stroke="midnightblue" points="735.566,-310.089 733.89,-299.628 728.677,-308.851 735.566,-310.089"/>
</g>
<!-- Node28 -->
<g id="node28" class="node"><title>Node28</title>
<g id="a_node28"><a xlink:href="process_8h.html" target="_top" xlink:title="processing header files ">
<polygon fill="white" stroke="black" points="578.517,-336.5 578.517,-355.5 637.517,-355.5 637.517,-336.5 578.517,-336.5"/>
<text text-anchor="middle" x="608.017" y="-343.5" font-family="Helvetica,sans-Serif" font-size="10.00">process.h</text>
</a>
</g>
</g>
<!-- Node24&#45;&gt;Node28 -->
<g id="edge49" class="edge"><title>Node24&#45;&gt;Node28</title>
<path fill="none" stroke="midnightblue" d="M655.019,-392.324C646.822,-384.42 634.511,-372.548 624.545,-362.938"/>
<polygon fill="midnightblue" stroke="midnightblue" points="626.806,-360.256 617.178,-355.834 621.947,-365.295 626.806,-360.256"/>
</g>
<!-- Node29 -->
<g id="node29" class="node"><title>Node29</title>
<g id="a_node29"><a xlink:href="scape_8h.html" target="_top" xlink:title="scape header files ">
<polygon fill="white" stroke="black" points="655.517,-336.5 655.517,-355.5 706.517,-355.5 706.517,-336.5 655.517,-336.5"/>
<text text-anchor="middle" x="681.017" y="-343.5" font-family="Helvetica,sans-Serif" font-size="10.00">scape.h</text>
</a>
</g>
</g>
<!-- Node24&#45;&gt;Node29 -->
<g id="edge51" class="edge"><title>Node24&#45;&gt;Node29</title>
<path fill="none" stroke="midnightblue" d="M666.824,-392.083C669.101,-384.849 672.388,-374.409 675.225,-365.397"/>
<polygon fill="midnightblue" stroke="midnightblue" points="678.597,-366.341 678.262,-355.751 671.92,-364.239 678.597,-366.341"/>
</g>
<!-- Node25&#45;&gt;Node10 -->
<g id="edge45" class="edge"><title>Node25&#45;&gt;Node10</title>
<path fill="none" stroke="midnightblue" d="M762.731,-339.015C732.692,-329.692 674.468,-311.623 638.642,-300.505"/>
<polygon fill="midnightblue" stroke="midnightblue" points="639.325,-297.052 628.737,-297.43 637.25,-303.737 639.325,-297.052"/>
</g>
<!-- Node26 -->
<g id="node26" class="node"><title>Node26</title>
<polygon fill="white" stroke="#bfbfbf" points="776.017,-280.5 776.017,-299.5 828.017,-299.5 828.017,-280.5 776.017,-280.5"/>
<text text-anchor="middle" x="802.017" y="-287.5" font-family="Helvetica,sans-Serif" font-size="10.00">stdarg.h</text>
</g>
<!-- Node25&#45;&gt;Node26 -->
<g id="edge46" class="edge"><title>Node25&#45;&gt;Node26</title>
<path fill="none" stroke="midnightblue" d="M785.319,-336.083C787.999,-328.849 791.865,-318.409 795.203,-309.397"/>
<polygon fill="midnightblue" stroke="midnightblue" points="798.584,-310.344 798.775,-299.751 792.02,-307.913 798.584,-310.344"/>
</g>
<!-- Node27&#45;&gt;Node12 -->
<g id="edge48" class="edge"><title>Node27&#45;&gt;Node12</title>
<path fill="none" stroke="midnightblue" d="M742.168,-280.364C748.79,-271.763 758.174,-257.873 762.017,-244 771.033,-211.448 773.197,-199.874 762.017,-168 758.231,-157.209 750.65,-147.084 743.417,-139.181"/>
<polygon fill="midnightblue" stroke="midnightblue" points="745.684,-136.494 736.179,-131.815 740.691,-141.4 745.684,-136.494"/>
</g>
<!-- Node28&#45;&gt;Node10 -->
<g id="edge50" class="edge"><title>Node28&#45;&gt;Node10</title>
<path fill="none" stroke="midnightblue" d="M608.017,-336.083C608.017,-329.006 608.017,-318.861 608.017,-309.986"/>
<polygon fill="midnightblue" stroke="midnightblue" points="611.517,-309.751 608.017,-299.751 604.517,-309.751 611.517,-309.751"/>
</g>
<!-- Node29&#45;&gt;Node10 -->
<g id="edge52" class="edge"><title>Node29&#45;&gt;Node10</title>
<path fill="none" stroke="midnightblue" d="M669.288,-336.324C658.179,-328.107 641.274,-315.602 628.033,-305.807"/>
<polygon fill="midnightblue" stroke="midnightblue" points="630.08,-302.967 619.959,-299.834 625.917,-308.595 630.08,-302.967"/>
</g>
<!-- Node30&#45;&gt;Node10 -->
<g id="edge55" class="edge"><title>Node30&#45;&gt;Node10</title>
<path fill="none" stroke="midnightblue" d="M544.944,-392.447C546.656,-379.463 551.183,-354.352 562.017,-336 568.713,-324.657 578.999,-314.216 588.147,-306.254"/>
<polygon fill="midnightblue" stroke="midnightblue" points="590.617,-308.753 596.093,-299.683 586.157,-303.358 590.617,-308.753"/>
</g>
</g>
</svg>
