<?xml version="1.0" encoding="UTF-8" standalone="no"?>
<!DOCTYPE svg PUBLIC "-//W3C//DTD SVG 1.1//EN"
 "http://www.w3.org/Graphics/SVG/1.1/DTD/svg11.dtd">
<!-- Generated by graphviz version 2.38.0 (20140413.2041)
 -->
<!-- Title: spec/profile_example.h Pages: 1 -->
<!--zoomable 476 -->
<svg id="main" version="1.1" xmlns="http://www.w3.org/2000/svg" xmlns:xlink="http://www.w3.org/1999/xlink" xml:space="preserve" onload="init(evt)">
<style type="text/css"><![CDATA[
.edge:hover path { stroke: red; }
.edge:hover polygon { stroke: red; fill: red; }
]]></style>
<script type="text/javascript"><![CDATA[
var edges = document.getElementsByTagName('g');
if (edges && edges.length) {
  for (var i=0;i<edges.length;i++) {
    if (edges[i].id.substr(0,4)=='edge') {
      edges[i].setAttribute('class','edge');
    }
  }
}
]]></script>
        <defs>
                <circle id="rim" cx="0" cy="0" r="7"/>
                <circle id="rim2" cx="0" cy="0" r="3.5"/>
                <g id="zoomPlus">
                        <use xlink:href="#rim" fill="#404040">
                                <set attributeName="fill" to="#808080" begin="zoomplus.mouseover" end="zoomplus.mouseout"/>
                        </use>
                        <path d="M-4,0h8M0,-4v8" fill="none" stroke="white" stroke-width="1.5" pointer-events="none"/>
                </g>
                <g id="zoomMin">
                        <use xlink:href="#rim" fill="#404040">
                                <set attributeName="fill" to="#808080" begin="zoomminus.mouseover" end="zoomminus.mouseout"/>
                        </use>
                        <path d="M-4,0h8" fill="none" stroke="white" stroke-width="1.5" pointer-events="none"/>
                </g>
                <g id="dirArrow">
                        <path fill="none" stroke="white" stroke-width="1.5" d="M0,-3.0v7 M-2.5,-0.5L0,-3.0L2.5,-0.5"/>
                </g>
               <g id="resetDef">
                       <use xlink:href="#rim2" fill="#404040">
                               <set attributeName="fill" to="#808080" begin="reset.mouseover" end="reset.mouseout"/>
                       </use>
               </g>
        </defs>

<script type="text/javascript">
var viewWidth = 824;
var viewHeight = 476;
var sectionId = 'dynsection-0';
</script>
<script xlink:href="svgpan.js"/>
<svg id="graph" class="graph">
<g id="viewport">
<title>spec/profile_example.h</title>
<polygon fill="white" stroke="none" points="-4,4 -4,-472 820.003,-472 820.003,4 -4,4"/>
<!-- Node1 -->
<g id="node1" class="node"><title>Node1</title>
<polygon fill="#bfbfbf" stroke="black" points="530.503,-448.5 530.503,-467.5 647.503,-467.5 647.503,-448.5 530.503,-448.5"/>
<text text-anchor="middle" x="589.003" y="-455.5" font-family="Helvetica,sans-Serif" font-size="10.00">spec/profile_example.h</text>
</g>
<!-- Node2 -->
<g id="node2" class="node"><title>Node2</title>
<g id="a_node2"><a xlink:href="ceptr_8h_source.html" target="_top" xlink:title="../src/ceptr.h">
<polygon fill="white" stroke="black" points="301.003,-336.5 301.003,-355.5 373.003,-355.5 373.003,-336.5 301.003,-336.5"/>
<text text-anchor="middle" x="337.003" y="-343.5" font-family="Helvetica,sans-Serif" font-size="10.00">../src/ceptr.h</text>
</a>
</g>
</g>
<!-- Node1&#45;&gt;Node2 -->
<g id="edge1" class="edge"><title>Node1&#45;&gt;Node2</title>
<path fill="none" stroke="midnightblue" d="M567.395,-448.464C545.135,-439.599 509.486,-425.205 479.003,-412 438.945,-394.647 393.102,-373.409 364.598,-360.038"/>
<polygon fill="midnightblue" stroke="midnightblue" points="365.816,-356.743 355.277,-355.656 362.838,-363.078 365.816,-356.743"/>
</g>
<!-- Node25 -->
<g id="node25" class="node"><title>Node25</title>
<g id="a_node25"><a xlink:href="receptor_8h.html" target="_top" xlink:title="receptor implementation header file ">
<polygon fill="white" stroke="black" points="605.003,-392.5 605.003,-411.5 691.003,-411.5 691.003,-392.5 605.003,-392.5"/>
<text text-anchor="middle" x="648.003" y="-399.5" font-family="Helvetica,sans-Serif" font-size="10.00">../src/receptor.h</text>
</a>
</g>
</g>
<!-- Node1&#45;&gt;Node25 -->
<g id="edge43" class="edge"><title>Node1&#45;&gt;Node25</title>
<path fill="none" stroke="midnightblue" d="M598.483,-448.324C607.204,-440.341 620.347,-428.313 630.901,-418.653"/>
<polygon fill="midnightblue" stroke="midnightblue" points="633.338,-421.167 638.351,-411.834 628.612,-416.004 633.338,-421.167"/>
</g>
<!-- Node26 -->
<g id="node26" class="node"><title>Node26</title>
<g id="a_node26"><a xlink:href="def_8h.html" target="_top" xlink:title="header file for symbol and structure definition functions ">
<polygon fill="white" stroke="black" points="751.003,-336.5 751.003,-355.5 789.003,-355.5 789.003,-336.5 751.003,-336.5"/>
<text text-anchor="middle" x="770.003" y="-343.5" font-family="Helvetica,sans-Serif" font-size="10.00">def.h</text>
</a>
</g>
</g>
<!-- Node1&#45;&gt;Node26 -->
<g id="edge54" class="edge"><title>Node1&#45;&gt;Node26</title>
<path fill="none" stroke="midnightblue" d="M618.211,-448.399C641.443,-440.814 674.215,-428.412 700.003,-412 721.523,-398.304 742.453,-377.601 755.734,-363.256"/>
<polygon fill="midnightblue" stroke="midnightblue" points="758.505,-365.41 762.616,-355.645 753.313,-360.715 758.505,-365.41"/>
</g>
<!-- Node31 -->
<g id="node31" class="node"><title>Node31</title>
<g id="a_node31"><a xlink:href="semtrex_8h.html" target="_top" xlink:title="Semantic tree regular expression header file. ">
<polygon fill="white" stroke="black" points="488.003,-392.5 488.003,-411.5 574.003,-411.5 574.003,-392.5 488.003,-392.5"/>
<text text-anchor="middle" x="531.003" y="-399.5" font-family="Helvetica,sans-Serif" font-size="10.00">../src/semtrex.h</text>
</a>
</g>
</g>
<!-- Node1&#45;&gt;Node31 -->
<g id="edge55" class="edge"><title>Node1&#45;&gt;Node31</title>
<path fill="none" stroke="midnightblue" d="M579.685,-448.324C571.111,-440.341 558.191,-428.313 547.816,-418.653"/>
<polygon fill="midnightblue" stroke="midnightblue" points="550.196,-416.086 540.492,-411.834 545.426,-421.21 550.196,-416.086"/>
</g>
<!-- Node3 -->
<g id="node3" class="node"><title>Node3</title>
<polygon fill="white" stroke="#bfbfbf" points="387.503,-0.5 387.503,-19.5 436.503,-19.5 436.503,-0.5 387.503,-0.5"/>
<text text-anchor="middle" x="412.003" y="-7.5" font-family="Helvetica,sans-Serif" font-size="10.00">string.h</text>
</g>
<!-- Node2&#45;&gt;Node3 -->
<g id="edge2" class="edge"><title>Node2&#45;&gt;Node3</title>
<path fill="none" stroke="midnightblue" d="M301.002,-341.884C236.61,-335.852 104.647,-321.273 64.0033,-300 28.3591,-281.344 1.0033,-275.231 1.0033,-235 1.0033,-235 1.0033,-235 1.0033,-121 1.0033,-90.9022 -3.0099,-75.3977 20.0033,-56 73.5524,-10.8638 291.637,-9.12203 377.26,-10.2495"/>
<polygon fill="midnightblue" stroke="midnightblue" points="377.209,-13.749 387.261,-10.4026 377.316,-6.74986 377.209,-13.749"/>
</g>
<!-- Node4 -->
<g id="node4" class="node"><title>Node4</title>
<polygon fill="white" stroke="#bfbfbf" points="238.003,-56.5 238.003,-75.5 284.003,-75.5 284.003,-56.5 238.003,-56.5"/>
<text text-anchor="middle" x="261.003" y="-63.5" font-family="Helvetica,sans-Serif" font-size="10.00">stdio.h</text>
</g>
<!-- Node2&#45;&gt;Node4 -->
<g id="edge3" class="edge"><title>Node2&#45;&gt;Node4</title>
<path fill="none" stroke="midnightblue" d="M300.923,-344.446C233.692,-341.3 96.0033,-323.996 96.0033,-235 96.0033,-235 96.0033,-235 96.0033,-177 96.0033,-114.294 179.524,-85.1343 227.721,-73.5273"/>
<polygon fill="midnightblue" stroke="midnightblue" points="228.741,-76.8847 237.713,-71.2496 227.185,-70.0598 228.741,-76.8847"/>
</g>
<!-- Node5 -->
<g id="node5" class="node"><title>Node5</title>
<polygon fill="white" stroke="#bfbfbf" points="680.003,-0.5 680.003,-19.5 728.003,-19.5 728.003,-0.5 680.003,-0.5"/>
<text text-anchor="middle" x="704.003" y="-7.5" font-family="Helvetica,sans-Serif" font-size="10.00">stdlib.h</text>
</g>
<!-- Node2&#45;&gt;Node5 -->
<g id="edge4" class="edge"><title>Node2&#45;&gt;Node5</title>
<path fill="none" stroke="midnightblue" d="M373.045,-336.906C449.249,-319.366 623.913,-276.792 675.003,-244 707.339,-223.245 732.003,-217.423 732.003,-179 732.003,-179 732.003,-179 732.003,-121 732.003,-87.7897 719.869,-50.6338 711.576,-29.1196"/>
<polygon fill="midnightblue" stroke="midnightblue" points="714.749,-27.6284 707.78,-19.649 708.252,-30.2333 714.749,-27.6284"/>
</g>
<!-- Node6 -->
<g id="node6" class="node"><title>Node6</title>
<g id="a_node6"><a xlink:href="ceptr__error_8h_source.html" target="_top" xlink:title="ceptr_error.h">
<polygon fill="white" stroke="black" points="244.503,-168.5 244.503,-187.5 315.503,-187.5 315.503,-168.5 244.503,-168.5"/>
<text text-anchor="middle" x="280.003" y="-175.5" font-family="Helvetica,sans-Serif" font-size="10.00">ceptr_error.h</text>
</a>
</g>
</g>
<!-- Node2&#45;&gt;Node6 -->
<g id="edge5" class="edge"><title>Node2&#45;&gt;Node6</title>
<path fill="none" stroke="midnightblue" d="M333.939,-336.075C324.928,-309.832 298.389,-232.545 286.224,-197.117"/>
<polygon fill="midnightblue" stroke="midnightblue" points="289.503,-195.889 282.945,-187.568 282.883,-198.163 289.503,-195.889"/>
</g>
<!-- Node10 -->
<g id="node10" class="node"><title>Node10</title>
<g id="a_node10"><a xlink:href="tree_8h.html" target="_top" xlink:title="semantic trees header file ">
<polygon fill="white" stroke="black" points="610.503,-280.5 610.503,-299.5 651.503,-299.5 651.503,-280.5 610.503,-280.5"/>
<text text-anchor="middle" x="631.003" y="-287.5" font-family="Helvetica,sans-Serif" font-size="10.00">tree.h</text>
</a>
</g>
</g>
<!-- Node2&#45;&gt;Node10 -->
<g id="edge10" class="edge"><title>Node2&#45;&gt;Node10</title>
<path fill="none" stroke="midnightblue" d="M373.212,-339.642C423.448,-331.996 517.029,-316.986 596.003,-300 597.46,-299.687 598.948,-299.354 600.448,-299.008"/>
<polygon fill="midnightblue" stroke="midnightblue" points="601.449,-302.367 610.34,-296.604 599.796,-295.565 601.449,-302.367"/>
</g>
<!-- Node18 -->
<g id="node18" class="node"><title>Node18</title>
<g id="a_node18"><a xlink:href="stream_8h.html" target="_top" xlink:title="streams abstraction header file ">
<polygon fill="white" stroke="black" points="370.503,-224.5 370.503,-243.5 425.503,-243.5 425.503,-224.5 370.503,-224.5"/>
<text text-anchor="middle" x="398.003" y="-231.5" font-family="Helvetica,sans-Serif" font-size="10.00">stream.h</text>
</a>
</g>
</g>
<!-- Node2&#45;&gt;Node18 -->
<g id="edge35" class="edge"><title>Node2&#45;&gt;Node18</title>
<path fill="none" stroke="midnightblue" d="M341.79,-336.368C351.768,-318.376 374.962,-276.55 388.229,-252.627"/>
<polygon fill="midnightblue" stroke="midnightblue" points="391.45,-254.034 393.239,-243.591 385.328,-250.639 391.45,-254.034"/>
</g>
<!-- Node20 -->
<g id="node20" class="node"><title>Node20</title>
<g id="a_node20"><a xlink:href="mtree_8h.html" target="_top" xlink:title="semantic tree matrix header file `` ">
<polygon fill="white" stroke="black" points="488.003,-224.5 488.003,-243.5 538.003,-243.5 538.003,-224.5 488.003,-224.5"/>
<text text-anchor="middle" x="513.003" y="-231.5" font-family="Helvetica,sans-Serif" font-size="10.00">mtree.h</text>
</a>
</g>
</g>
<!-- Node2&#45;&gt;Node20 -->
<g id="edge29" class="edge"><title>Node2&#45;&gt;Node20</title>
<path fill="none" stroke="midnightblue" d="M350.814,-336.368C381.144,-317.412 453.802,-272.001 490.696,-248.942"/>
<polygon fill="midnightblue" stroke="midnightblue" points="492.632,-251.859 499.257,-243.591 488.922,-245.923 492.632,-251.859"/>
</g>
<!-- Node21 -->
<g id="node21" class="node"><title>Node21</title>
<g id="a_node21"><a xlink:href="util_8h.html" target="_top" xlink:title="util.h">
<polygon fill="white" stroke="black" points="30.0033,-112.5 30.0033,-131.5 68.0033,-131.5 68.0033,-112.5 30.0033,-112.5"/>
<text text-anchor="middle" x="49.0033" y="-119.5" font-family="Helvetica,sans-Serif" font-size="10.00">util.h</text>
</a>
</g>
</g>
<!-- Node2&#45;&gt;Node21 -->
<g id="edge36" class="edge"><title>Node2&#45;&gt;Node21</title>
<path fill="none" stroke="midnightblue" d="M300.946,-343.562C238.114,-340.284 112.347,-330.052 82.0033,-300 38.9157,-257.326 42.1821,-177.68 46.2911,-141.606"/>
<polygon fill="midnightblue" stroke="midnightblue" points="49.783,-141.894 47.5971,-131.527 42.841,-140.994 49.783,-141.894"/>
</g>
<!-- Node24 -->
<g id="node24" class="node"><title>Node24</title>
<g id="a_node24"><a xlink:href="debug_8h.html" target="_top" xlink:title="debug.h">
<polygon fill="white" stroke="black" points="175.503,-280.5 175.503,-299.5 226.503,-299.5 226.503,-280.5 175.503,-280.5"/>
<text text-anchor="middle" x="201.003" y="-287.5" font-family="Helvetica,sans-Serif" font-size="10.00">debug.h</text>
</a>
</g>
</g>
<!-- Node2&#45;&gt;Node24 -->
<g id="edge41" class="edge"><title>Node2&#45;&gt;Node24</title>
<path fill="none" stroke="midnightblue" d="M315.454,-336.444C292.972,-327.517 257.516,-313.439 232.023,-303.317"/>
<polygon fill="midnightblue" stroke="midnightblue" points="233.038,-299.954 222.452,-299.516 230.455,-306.46 233.038,-299.954"/>
</g>
<!-- Node6&#45;&gt;Node4 -->
<g id="edge6" class="edge"><title>Node6&#45;&gt;Node4</title>
<path fill="none" stroke="midnightblue" d="M308.366,-168.465C338.557,-157.821 379.844,-137.836 363.003,-112 347.904,-88.8358 317.893,-77.5113 294.315,-72.026"/>
<polygon fill="midnightblue" stroke="midnightblue" points="294.842,-68.5608 284.339,-69.955 293.419,-75.4147 294.842,-68.5608"/>
</g>
<!-- Node7 -->
<g id="node7" class="node"><title>Node7</title>
<polygon fill="white" stroke="#bfbfbf" points="162.003,-112.5 162.003,-131.5 212.003,-131.5 212.003,-112.5 162.003,-112.5"/>
<text text-anchor="middle" x="187.003" y="-119.5" font-family="Helvetica,sans-Serif" font-size="10.00">signal.h</text>
</g>
<!-- Node6&#45;&gt;Node7 -->
<g id="edge7" class="edge"><title>Node6&#45;&gt;Node7</title>
<path fill="none" stroke="midnightblue" d="M265.061,-168.324C250.418,-159.822 227.87,-146.729 210.766,-136.797"/>
<polygon fill="midnightblue" stroke="midnightblue" points="212.314,-133.649 201.908,-131.655 208.799,-139.703 212.314,-133.649"/>
</g>
<!-- Node8 -->
<g id="node8" class="node"><title>Node8</title>
<polygon fill="white" stroke="#bfbfbf" points="230.003,-112.5 230.003,-131.5 282.003,-131.5 282.003,-112.5 230.003,-112.5"/>
<text text-anchor="middle" x="256.003" y="-119.5" font-family="Helvetica,sans-Serif" font-size="10.00">assert.h</text>
</g>
<!-- Node6&#45;&gt;Node8 -->
<g id="edge8" class="edge"><title>Node6&#45;&gt;Node8</title>
<path fill="none" stroke="midnightblue" d="M276.04,-168.083C272.79,-160.77 268.084,-150.181 264.049,-141.103"/>
<polygon fill="midnightblue" stroke="midnightblue" points="267.152,-139.468 259.893,-131.751 260.756,-142.311 267.152,-139.468"/>
</g>
<!-- Node9 -->
<g id="node9" class="node"><title>Node9</title>
<polygon fill="white" stroke="#bfbfbf" points="300.003,-112.5 300.003,-131.5 354.003,-131.5 354.003,-112.5 300.003,-112.5"/>
<text text-anchor="middle" x="327.003" y="-119.5" font-family="Helvetica,sans-Serif" font-size="10.00">setjmp.h</text>
</g>
<!-- Node6&#45;&gt;Node9 -->
<g id="edge9" class="edge"><title>Node6&#45;&gt;Node9</title>
<path fill="none" stroke="midnightblue" d="M287.764,-168.083C294.54,-160.298 304.546,-148.801 312.758,-139.367"/>
<polygon fill="midnightblue" stroke="midnightblue" points="315.461,-141.592 319.387,-131.751 310.181,-136.996 315.461,-141.592"/>
</g>
<!-- Node10&#45;&gt;Node3 -->
<g id="edge11" class="edge"><title>Node10&#45;&gt;Node3</title>
<path fill="none" stroke="midnightblue" d="M610.375,-288.337C578.379,-286.237 516.571,-277.75 479.003,-244 463.96,-230.486 412.969,-95.8295 409.003,-76 405.919,-60.5782 407.077,-42.7066 408.774,-29.6105"/>
<polygon fill="midnightblue" stroke="midnightblue" points="412.267,-29.9259 410.313,-19.5128 405.347,-28.8716 412.267,-29.9259"/>
</g>
<!-- Node10&#45;&gt;Node5 -->
<g id="edge12" class="edge"><title>Node10&#45;&gt;Node5</title>
<path fill="none" stroke="midnightblue" d="M651.904,-287.643C678.879,-284.639 724.852,-274.989 746.003,-244 793.107,-174.987 776.644,-133.735 746.003,-56 741.489,-44.5479 732.534,-34.291 724.049,-26.4724"/>
<polygon fill="midnightblue" stroke="midnightblue" points="726.089,-23.6113 716.217,-19.7638 721.535,-28.9275 726.089,-23.6113"/>
</g>
<!-- Node10&#45;&gt;Node6 -->
<g id="edge13" class="edge"><title>Node10&#45;&gt;Node6</title>
<path fill="none" stroke="midnightblue" d="M610.35,-289.054C563.754,-288.448 447.759,-282.815 361.003,-244 334.935,-232.337 310.117,-210.224 294.981,-195.056"/>
<polygon fill="midnightblue" stroke="midnightblue" points="297.468,-192.592 287.993,-187.85 292.442,-197.465 297.468,-192.592"/>
</g>
<!-- Node11 -->
<g id="node11" class="node"><title>Node11</title>
<g id="a_node11"><a xlink:href="sys__defs_8h.html" target="_top" xlink:title="Defines types and vars for system defined semantics. ">
<polygon fill="white" stroke="black" points="600.503,-168.5 600.503,-187.5 665.503,-187.5 665.503,-168.5 600.503,-168.5"/>
<text text-anchor="middle" x="633.003" y="-175.5" font-family="Helvetica,sans-Serif" font-size="10.00">sys_defs.h</text>
</a>
</g>
</g>
<!-- Node10&#45;&gt;Node11 -->
<g id="edge14" class="edge"><title>Node10&#45;&gt;Node11</title>
<path fill="none" stroke="midnightblue" d="M618.074,-280.401C601.988,-268.54 577.704,-246.107 587.003,-224 592.029,-212.053 601.947,-201.692 611.291,-193.934"/>
<polygon fill="midnightblue" stroke="midnightblue" points="613.443,-196.694 619.217,-187.811 609.163,-191.155 613.443,-196.694"/>
</g>
<!-- Node12 -->
<g id="node12" class="node"><title>Node12</title>
<g id="a_node12"><a xlink:href="ceptr__types_8h_source.html" target="_top" xlink:title="ceptr_types.h">
<polygon fill="white" stroke="black" points="562.003,-112.5 562.003,-131.5 638.003,-131.5 638.003,-112.5 562.003,-112.5"/>
<text text-anchor="middle" x="600.003" y="-119.5" font-family="Helvetica,sans-Serif" font-size="10.00">ceptr_types.h</text>
</a>
</g>
</g>
<!-- Node10&#45;&gt;Node12 -->
<g id="edge25" class="edge"><title>Node10&#45;&gt;Node12</title>
<path fill="none" stroke="midnightblue" d="M643.784,-280.369C654.398,-272.36 668.734,-259.379 675.003,-244 680.403,-230.754 687.633,-191.741 674.003,-168 665.59,-153.345 650.303,-142.885 635.798,-135.761"/>
<polygon fill="midnightblue" stroke="midnightblue" points="637.014,-132.47 626.459,-131.55 634.137,-138.851 637.014,-132.47"/>
</g>
<!-- Node17 -->
<g id="node17" class="node"><title>Node17</title>
<g id="a_node17"><a xlink:href="base__defs_8h.html" target="_top" xlink:title="auto&#45;generated system definitions ">
<polygon fill="white" stroke="black" points="596.003,-224.5 596.003,-243.5 666.003,-243.5 666.003,-224.5 596.003,-224.5"/>
<text text-anchor="middle" x="631.003" y="-231.5" font-family="Helvetica,sans-Serif" font-size="10.00">base_defs.h</text>
</a>
</g>
</g>
<!-- Node10&#45;&gt;Node17 -->
<g id="edge23" class="edge"><title>Node10&#45;&gt;Node17</title>
<path fill="none" stroke="midnightblue" d="M631.003,-280.083C631.003,-273.006 631.003,-262.861 631.003,-253.986"/>
<polygon fill="midnightblue" stroke="midnightblue" points="634.503,-253.751 631.003,-243.751 627.503,-253.751 634.503,-253.751"/>
</g>
<!-- Node10&#45;&gt;Node18 -->
<g id="edge26" class="edge"><title>Node10&#45;&gt;Node18</title>
<path fill="none" stroke="midnightblue" d="M610.326,-284.208C571.126,-275.123 485.485,-255.275 435.777,-243.755"/>
<polygon fill="midnightblue" stroke="midnightblue" points="436.277,-240.278 425.745,-241.43 434.697,-247.097 436.277,-240.278"/>
</g>
<!-- Node11&#45;&gt;Node12 -->
<g id="edge15" class="edge"><title>Node11&#45;&gt;Node12</title>
<path fill="none" stroke="midnightblue" d="M627.554,-168.083C622.989,-160.613 616.335,-149.724 610.71,-140.52"/>
<polygon fill="midnightblue" stroke="midnightblue" points="613.552,-138.459 605.351,-131.751 607.579,-142.109 613.552,-138.459"/>
</g>
<!-- Node12&#45;&gt;Node4 -->
<g id="edge17" class="edge"><title>Node12&#45;&gt;Node4</title>
<path fill="none" stroke="midnightblue" d="M561.775,-114.91C494.826,-104.246 357.477,-82.3675 294.229,-72.2926"/>
<polygon fill="midnightblue" stroke="midnightblue" points="294.45,-68.7838 284.024,-70.667 293.349,-75.6966 294.45,-68.7838"/>
</g>
<!-- Node13 -->
<g id="node13" class="node"><title>Node13</title>
<polygon fill="white" stroke="#bfbfbf" points="418.503,-56.5 418.503,-75.5 467.503,-75.5 467.503,-56.5 418.503,-56.5"/>
<text text-anchor="middle" x="443.003" y="-63.5" font-family="Helvetica,sans-Serif" font-size="10.00">stdint.h</text>
</g>
<!-- Node12&#45;&gt;Node13 -->
<g id="edge16" class="edge"><title>Node12&#45;&gt;Node13</title>
<path fill="none" stroke="midnightblue" d="M575.126,-112.444C548.636,-103.332 506.541,-88.8539 477.001,-78.6936"/>
<polygon fill="midnightblue" stroke="midnightblue" points="478.1,-75.3704 467.506,-75.4275 475.823,-81.9898 478.1,-75.3704"/>
</g>
<!-- Node14 -->
<g id="node14" class="node"><title>Node14</title>
<g id="a_node14"><a xlink:href="uthash_8h_source.html" target="_top" xlink:title="uthash.h">
<polygon fill="white" stroke="black" points="524.003,-56.5 524.003,-75.5 578.003,-75.5 578.003,-56.5 524.003,-56.5"/>
<text text-anchor="middle" x="551.003" y="-63.5" font-family="Helvetica,sans-Serif" font-size="10.00">uthash.h</text>
</a>
</g>
</g>
<!-- Node12&#45;&gt;Node14 -->
<g id="edge18" class="edge"><title>Node12&#45;&gt;Node14</title>
<path fill="none" stroke="midnightblue" d="M591.912,-112.083C584.848,-104.298 574.416,-92.8015 565.854,-83.3665"/>
<polygon fill="midnightblue" stroke="midnightblue" points="568.256,-80.8047 558.944,-75.7511 563.072,-85.5087 568.256,-80.8047"/>
</g>
<!-- Node14&#45;&gt;Node3 -->
<g id="edge19" class="edge"><title>Node14&#45;&gt;Node3</title>
<path fill="none" stroke="midnightblue" d="M528.978,-56.4435C505.899,-47.4776 469.441,-33.314 443.362,-23.1827"/>
<polygon fill="midnightblue" stroke="midnightblue" points="444.514,-19.8753 433.925,-19.5164 441.979,-26.4002 444.514,-19.8753"/>
</g>
<!-- Node14&#45;&gt;Node5 -->
<g id="edge21" class="edge"><title>Node14&#45;&gt;Node5</title>
<path fill="none" stroke="midnightblue" d="M575.247,-56.4435C600.874,-47.3986 641.488,-33.064 670.242,-22.9158"/>
<polygon fill="midnightblue" stroke="midnightblue" points="671.608,-26.1452 679.873,-19.5164 669.279,-19.5442 671.608,-26.1452"/>
</g>
<!-- Node15 -->
<g id="node15" class="node"><title>Node15</title>
<polygon fill="white" stroke="#bfbfbf" points="478.003,-0.5 478.003,-19.5 530.003,-19.5 530.003,-0.5 478.003,-0.5"/>
<text text-anchor="middle" x="504.003" y="-7.5" font-family="Helvetica,sans-Serif" font-size="10.00">stddef.h</text>
</g>
<!-- Node14&#45;&gt;Node15 -->
<g id="edge20" class="edge"><title>Node14&#45;&gt;Node15</title>
<path fill="none" stroke="midnightblue" d="M543.242,-56.083C536.467,-48.2982 526.46,-36.8015 518.248,-27.3665"/>
<polygon fill="midnightblue" stroke="midnightblue" points="520.825,-24.9963 511.62,-19.7511 515.545,-29.592 520.825,-24.9963"/>
</g>
<!-- Node16 -->
<g id="node16" class="node"><title>Node16</title>
<polygon fill="white" stroke="#bfbfbf" points="548.503,-0.5 548.503,-19.5 607.503,-19.5 607.503,-0.5 548.503,-0.5"/>
<text text-anchor="middle" x="578.003" y="-7.5" font-family="Helvetica,sans-Serif" font-size="10.00">inttypes.h</text>
</g>
<!-- Node14&#45;&gt;Node16 -->
<g id="edge22" class="edge"><title>Node14&#45;&gt;Node16</title>
<path fill="none" stroke="midnightblue" d="M555.462,-56.083C559.158,-48.6913 564.527,-37.9533 569.098,-28.8111"/>
<polygon fill="midnightblue" stroke="midnightblue" points="572.286,-30.2606 573.628,-19.7511 566.025,-27.1301 572.286,-30.2606"/>
</g>
<!-- Node17&#45;&gt;Node11 -->
<g id="edge24" class="edge"><title>Node17&#45;&gt;Node11</title>
<path fill="none" stroke="midnightblue" d="M631.334,-224.083C631.596,-217.006 631.971,-206.861 632.3,-197.986"/>
<polygon fill="midnightblue" stroke="midnightblue" points="635.807,-197.874 632.679,-187.751 628.811,-197.615 635.807,-197.874"/>
</g>
<!-- Node18&#45;&gt;Node4 -->
<g id="edge27" class="edge"><title>Node18&#45;&gt;Node4</title>
<path fill="none" stroke="midnightblue" d="M388.448,-224.45C379.915,-216.12 368.014,-202.604 363.003,-188 351.801,-155.35 398.586,-140.426 379.003,-112 360.143,-84.6225 322.228,-73.8896 294.447,-69.6885"/>
<polygon fill="midnightblue" stroke="midnightblue" points="294.724,-66.1952 284.357,-68.3772 293.822,-73.1369 294.724,-66.1952"/>
</g>
<!-- Node19 -->
<g id="node19" class="node"><title>Node19</title>
<polygon fill="white" stroke="#bfbfbf" points="372.503,-168.5 372.503,-187.5 429.503,-187.5 429.503,-168.5 372.503,-168.5"/>
<text text-anchor="middle" x="401.003" y="-175.5" font-family="Helvetica,sans-Serif" font-size="10.00">pthread.h</text>
</g>
<!-- Node18&#45;&gt;Node19 -->
<g id="edge28" class="edge"><title>Node18&#45;&gt;Node19</title>
<path fill="none" stroke="midnightblue" d="M398.499,-224.083C398.892,-217.006 399.455,-206.861 399.948,-197.986"/>
<polygon fill="midnightblue" stroke="midnightblue" points="403.457,-197.93 400.517,-187.751 396.468,-197.542 403.457,-197.93"/>
</g>
<!-- Node20&#45;&gt;Node3 -->
<g id="edge30" class="edge"><title>Node20&#45;&gt;Node3</title>
<path fill="none" stroke="midnightblue" d="M513.334,-224.424C513.966,-197.298 512.762,-111.858 476.003,-56 467.231,-42.6698 453.031,-32.0972 440.233,-24.5586"/>
<polygon fill="midnightblue" stroke="midnightblue" points="441.706,-21.3741 431.26,-19.6095 438.326,-27.5037 441.706,-21.3741"/>
</g>
<!-- Node20&#45;&gt;Node5 -->
<g id="edge31" class="edge"><title>Node20&#45;&gt;Node5</title>
<path fill="none" stroke="midnightblue" d="M513.902,-224.498C516.502,-203.43 525.679,-147.924 553.003,-112 584.979,-69.9611 639.739,-39.7013 673.79,-23.7998"/>
<polygon fill="midnightblue" stroke="midnightblue" points="675.569,-26.8357 683.226,-19.513 672.674,-20.4625 675.569,-26.8357"/>
</g>
<!-- Node20&#45;&gt;Node6 -->
<g id="edge32" class="edge"><title>Node20&#45;&gt;Node6</title>
<path fill="none" stroke="midnightblue" d="M487.625,-227.118C448.754,-218.11 373.904,-200.762 325.496,-189.543"/>
<polygon fill="midnightblue" stroke="midnightblue" points="326.122,-186.096 315.59,-187.248 324.542,-192.915 326.122,-186.096"/>
</g>
<!-- Node20&#45;&gt;Node11 -->
<g id="edge33" class="edge"><title>Node20&#45;&gt;Node11</title>
<path fill="none" stroke="midnightblue" d="M532.018,-224.444C551.591,-215.636 582.311,-201.812 604.732,-191.722"/>
<polygon fill="midnightblue" stroke="midnightblue" points="606.395,-194.812 614.078,-187.516 603.522,-188.428 606.395,-194.812"/>
</g>
<!-- Node20&#45;&gt;Node12 -->
<g id="edge34" class="edge"><title>Node20&#45;&gt;Node12</title>
<path fill="none" stroke="midnightblue" d="M519.83,-224.368C534.251,-206.135 568.03,-163.426 586.815,-139.675"/>
<polygon fill="midnightblue" stroke="midnightblue" points="589.75,-141.606 593.208,-131.591 584.26,-137.264 589.75,-141.606"/>
</g>
<!-- Node21&#45;&gt;Node4 -->
<g id="edge38" class="edge"><title>Node21&#45;&gt;Node4</title>
<path fill="none" stroke="midnightblue" d="M68.1808,-115.7C72.7088,-114.468 77.5226,-113.174 82.0033,-112 132.785,-98.6935 191.879,-83.9888 227.848,-75.1249"/>
<polygon fill="midnightblue" stroke="midnightblue" points="228.92,-78.4657 237.794,-72.6777 227.248,-71.6684 228.92,-78.4657"/>
</g>
<!-- Node21&#45;&gt;Node13 -->
<g id="edge40" class="edge"><title>Node21&#45;&gt;Node13</title>
<path fill="none" stroke="midnightblue" d="M68.0067,-118.395C130.088,-109.887 327.556,-82.8227 408.196,-71.7705"/>
<polygon fill="midnightblue" stroke="midnightblue" points="408.897,-75.2073 418.329,-70.3818 407.946,-68.2721 408.897,-75.2073"/>
</g>
<!-- Node22 -->
<g id="node22" class="node"><title>Node22</title>
<polygon fill="white" stroke="#bfbfbf" points="91.5033,-56.5 91.5033,-75.5 140.503,-75.5 140.503,-56.5 91.5033,-56.5"/>
<text text-anchor="middle" x="116.003" y="-63.5" font-family="Helvetica,sans-Serif" font-size="10.00">ctype.h</text>
</g>
<!-- Node21&#45;&gt;Node22 -->
<g id="edge37" class="edge"><title>Node21&#45;&gt;Node22</title>
<path fill="none" stroke="midnightblue" d="M59.768,-112.324C69.7694,-104.263 84.8898,-92.0765 96.9338,-82.3695"/>
<polygon fill="midnightblue" stroke="midnightblue" points="99.4531,-84.8343 105.043,-75.8339 95.0604,-79.3841 99.4531,-84.8343"/>
</g>
<!-- Node23 -->
<g id="node23" class="node"><title>Node23</title>
<polygon fill="white" stroke="#bfbfbf" points="29.0033,-56.5 29.0033,-75.5 73.0033,-75.5 73.0033,-56.5 29.0033,-56.5"/>
<text text-anchor="middle" x="51.0033" y="-63.5" font-family="Helvetica,sans-Serif" font-size="10.00">time.h</text>
</g>
<!-- Node21&#45;&gt;Node23 -->
<g id="edge39" class="edge"><title>Node21&#45;&gt;Node23</title>
<path fill="none" stroke="midnightblue" d="M49.3336,-112.083C49.5957,-105.006 49.9714,-94.8611 50.3001,-85.9865"/>
<polygon fill="midnightblue" stroke="midnightblue" points="53.8066,-85.8738 50.6792,-75.7511 46.8114,-85.6147 53.8066,-85.8738"/>
</g>
<!-- Node24&#45;&gt;Node4 -->
<g id="edge42" class="edge"><title>Node24&#45;&gt;Node4</title>
<path fill="none" stroke="midnightblue" d="M194.211,-280.472C173.595,-253.489 115.385,-168.427 153.003,-112 169.541,-87.1931 202.618,-76.0394 227.832,-71.0376"/>
<polygon fill="midnightblue" stroke="midnightblue" points="228.496,-74.4746 237.742,-69.3009 227.288,-67.5796 228.496,-74.4746"/>
</g>
<!-- Node25&#45;&gt;Node10 -->
<g id="edge44" class="edge"><title>Node25&#45;&gt;Node10</title>
<path fill="none" stroke="midnightblue" d="M653.373,-392.479C660.562,-379.954 671.678,-355.906 665.003,-336 661.399,-325.251 654.1,-315.02 647.186,-307.038"/>
<polygon fill="midnightblue" stroke="midnightblue" points="649.658,-304.556 640.291,-299.605 644.526,-309.317 649.658,-304.556"/>
</g>
<!-- Node25&#45;&gt;Node26 -->
<g id="edge45" class="edge"><title>Node25&#45;&gt;Node26</title>
<path fill="none" stroke="midnightblue" d="M667.335,-392.444C687.323,-383.596 718.746,-369.687 741.567,-359.586"/>
<polygon fill="midnightblue" stroke="midnightblue" points="743.035,-362.764 750.762,-355.516 740.202,-356.363 743.035,-362.764"/>
</g>
<!-- Node28 -->
<g id="node28" class="node"><title>Node28</title>
<g id="a_node28"><a xlink:href="label_8h.html" target="_top" xlink:title="Label tables map human readable text strings to parts of semantic trees. ">
<polygon fill="white" stroke="black" points="700.503,-280.5 700.503,-299.5 745.503,-299.5 745.503,-280.5 700.503,-280.5"/>
<text text-anchor="middle" x="723.003" y="-287.5" font-family="Helvetica,sans-Serif" font-size="10.00">label.h</text>
</a>
</g>
</g>
<!-- Node25&#45;&gt;Node28 -->
<g id="edge48" class="edge"><title>Node25&#45;&gt;Node28</title>
<path fill="none" stroke="midnightblue" d="M654.482,-392.482C661.25,-383.512 672.1,-368.925 681.003,-356 692.043,-339.974 704.036,-321.275 712.369,-308.058"/>
<polygon fill="midnightblue" stroke="midnightblue" points="715.376,-309.85 717.724,-299.519 709.445,-306.131 715.376,-309.85"/>
</g>
<!-- Node29 -->
<g id="node29" class="node"><title>Node29</title>
<g id="a_node29"><a xlink:href="process_8h.html" target="_top" xlink:title="processing header files ">
<polygon fill="white" stroke="black" points="528.503,-336.5 528.503,-355.5 587.503,-355.5 587.503,-336.5 528.503,-336.5"/>
<text text-anchor="middle" x="558.003" y="-343.5" font-family="Helvetica,sans-Serif" font-size="10.00">process.h</text>
</a>
</g>
</g>
<!-- Node25&#45;&gt;Node29 -->
<g id="edge50" class="edge"><title>Node25&#45;&gt;Node29</title>
<path fill="none" stroke="midnightblue" d="M633.543,-392.324C619.504,-383.9 597.955,-370.971 581.46,-361.074"/>
<polygon fill="midnightblue" stroke="midnightblue" points="582.803,-357.798 572.427,-355.655 579.202,-363.801 582.803,-357.798"/>
</g>
<!-- Node30 -->
<g id="node30" class="node"><title>Node30</title>
<g id="a_node30"><a xlink:href="scape_8h.html" target="_top" xlink:title="scape header files ">
<polygon fill="white" stroke="black" points="605.503,-336.5 605.503,-355.5 656.503,-355.5 656.503,-336.5 605.503,-336.5"/>
<text text-anchor="middle" x="631.003" y="-343.5" font-family="Helvetica,sans-Serif" font-size="10.00">scape.h</text>
</a>
</g>
</g>
<!-- Node25&#45;&gt;Node30 -->
<g id="edge52" class="edge"><title>Node25&#45;&gt;Node30</title>
<path fill="none" stroke="midnightblue" d="M645.196,-392.083C642.919,-384.849 639.632,-374.409 636.795,-365.397"/>
<polygon fill="midnightblue" stroke="midnightblue" points="640.1,-364.239 633.758,-355.751 633.423,-366.341 640.1,-364.239"/>
</g>
<!-- Node26&#45;&gt;Node10 -->
<g id="edge46" class="edge"><title>Node26&#45;&gt;Node10</title>
<path fill="none" stroke="midnightblue" d="M750.967,-337.605C727.79,-328.601 688.368,-313.286 661.072,-302.681"/>
<polygon fill="midnightblue" stroke="midnightblue" points="662.206,-299.367 651.617,-299.008 659.671,-305.892 662.206,-299.367"/>
</g>
<!-- Node27 -->
<g id="node27" class="node"><title>Node27</title>
<polygon fill="white" stroke="#bfbfbf" points="764.003,-280.5 764.003,-299.5 816.003,-299.5 816.003,-280.5 764.003,-280.5"/>
<text text-anchor="middle" x="790.003" y="-287.5" font-family="Helvetica,sans-Serif" font-size="10.00">stdarg.h</text>
</g>
<!-- Node26&#45;&gt;Node27 -->
<g id="edge47" class="edge"><title>Node26&#45;&gt;Node27</title>
<path fill="none" stroke="midnightblue" d="M773.306,-336.083C775.985,-328.849 779.852,-318.409 783.19,-309.397"/>
<polygon fill="midnightblue" stroke="midnightblue" points="786.571,-310.344 786.762,-299.751 780.007,-307.913 786.571,-310.344"/>
</g>
<!-- Node28&#45;&gt;Node12 -->
<g id="edge49" class="edge"><title>Node28&#45;&gt;Node12</title>
<path fill="none" stroke="midnightblue" d="M723.143,-280.297C723.036,-258.773 719.935,-202.305 692.003,-168 679.5,-152.643 660.462,-142.131 642.943,-135.155"/>
<polygon fill="midnightblue" stroke="midnightblue" points="644.011,-131.819 633.417,-131.635 641.584,-138.385 644.011,-131.819"/>
</g>
<!-- Node29&#45;&gt;Node10 -->
<g id="edge51" class="edge"><title>Node29&#45;&gt;Node10</title>
<path fill="none" stroke="midnightblue" d="M569.732,-336.324C580.841,-328.107 597.745,-315.602 610.987,-305.807"/>
<polygon fill="midnightblue" stroke="midnightblue" points="613.103,-308.595 619.061,-299.834 608.94,-302.967 613.103,-308.595"/>
</g>
<!-- Node30&#45;&gt;Node10 -->
<g id="edge53" class="edge"><title>Node30&#45;&gt;Node10</title>
<path fill="none" stroke="midnightblue" d="M631.003,-336.083C631.003,-329.006 631.003,-318.861 631.003,-309.986"/>
<polygon fill="midnightblue" stroke="midnightblue" points="634.503,-309.751 631.003,-299.751 627.503,-309.751 634.503,-309.751"/>
</g>
<!-- Node31&#45;&gt;Node10 -->
<g id="edge56" class="edge"><title>Node31&#45;&gt;Node10</title>
<path fill="none" stroke="midnightblue" d="M525.643,-392.184C518.307,-378.857 507.308,-353.303 519.003,-336 528.451,-322.023 570.321,-307.826 600.091,-299.215"/>
<polygon fill="midnightblue" stroke="midnightblue" points="601.367,-302.492 610.043,-296.412 599.469,-295.754 601.367,-302.492"/>
</g>
</g>
</svg>
        <g id="navigator" transform="translate(0 0)" fill="#404254">
                <rect fill="#f2f5e9" fill-opacity="0.5" stroke="#606060" stroke-width=".5" x="0" y="0" width="60" height="60"/>
                <use id="zoomplus" xlink:href="#zoomPlus" x="17" y="9" onmousedown="handleZoom(evt,'in')"/>
                <use id="zoomminus" xlink:href="#zoomMin" x="42" y="9" onmousedown="handleZoom(evt,'out')"/>
                <use id="reset" xlink:href="#resetDef" x="30" y="36" onmousedown="handleReset()"/>
                <g id="arrowUp" xlink:href="#dirArrow" transform="translate(30 24)" onmousedown="handlePan(0,-1)">
                  <use xlink:href="#rim" fill="#404040">
                        <set attributeName="fill" to="#808080" begin="arrowUp.mouseover" end="arrowUp.mouseout"/>
                  </use>
                  <path fill="none" stroke="white" stroke-width="1.5" d="M0,-3.0v7 M-2.5,-0.5L0,-3.0L2.5,-0.5"/>
                </g>
                <g id="arrowRight" xlink:href="#dirArrow" transform="rotate(90) translate(36 -43)" onmousedown="handlePan(1,0)">
                  <use xlink:href="#rim" fill="#404040">
                        <set attributeName="fill" to="#808080" begin="arrowRight.mouseover" end="arrowRight.mouseout"/>
                  </use>
                  <path fill="none" stroke="white" stroke-width="1.5" d="M0,-3.0v7 M-2.5,-0.5L0,-3.0L2.5,-0.5"/>
                </g>
                <g id="arrowDown" xlink:href="#dirArrow" transform="rotate(180) translate(-30 -48)" onmousedown="handlePan(0,1)">
                  <use xlink:href="#rim" fill="#404040">
                        <set attributeName="fill" to="#808080" begin="arrowDown.mouseover" end="arrowDown.mouseout"/>
                  </use>
                  <path fill="none" stroke="white" stroke-width="1.5" d="M0,-3.0v7 M-2.5,-0.5L0,-3.0L2.5,-0.5"/>
                </g>
                <g id="arrowLeft" xlink:href="#dirArrow" transform="rotate(270) translate(-36 17)" onmousedown="handlePan(-1,0)">
                  <use xlink:href="#rim" fill="#404040">
                        <set attributeName="fill" to="#808080" begin="arrowLeft.mouseover" end="arrowLeft.mouseout"/>
                  </use>
                  <path fill="none" stroke="white" stroke-width="1.5" d="M0,-3.0v7 M-2.5,-0.5L0,-3.0L2.5,-0.5"/>
                </g>
        </g>
        <svg viewBox="0 0 15 15" width="100%" height="30px" preserveAspectRatio="xMaxYMin meet">
         <g id="arrow_out" transform="scale(0.3 0.3)">
          <a xlink:href="profile__example_8h__incl_org.svg" target="_base">
           <rect id="button" ry="5" rx="5" y="6" x="6" height="38" width="38"
                fill="#f2f5e9" fill-opacity="0.5" stroke="#606060" stroke-width="1.0"/>
           <path id="arrow"
             d="M 11.500037,31.436501 C 11.940474,20.09759 22.043105,11.32322 32.158766,21.979434 L 37.068811,17.246167 C 37.068811,17.246167 37.088388,32 37.088388,32 L 22.160133,31.978069 C 22.160133,31.978069 26.997745,27.140456 26.997745,27.140456 C 18.528582,18.264221 13.291696,25.230495 11.500037,31.436501 z"
             style="fill:#404040;"/>
          </a>
         </g>
        </svg>
</svg>
