<?xml version="1.0" encoding="UTF-8" standalone="no"?>
<!DOCTYPE svg PUBLIC "-//W3C//DTD SVG 1.1//EN"
 "http://www.w3.org/Graphics/SVG/1.1/DTD/svg11.dtd">
<!-- Generated by graphviz version 2.38.0 (20140413.2041)
 -->
<!-- Title: src/protocol.h Pages: 1 -->
<svg width="338pt" height="140pt"
 viewBox="0.00 0.00 338.00 140.00" xmlns="http://www.w3.org/2000/svg" xmlns:xlink="http://www.w3.org/1999/xlink">
<g id="graph0" class="graph" transform="scale(1 1) rotate(0) translate(4 136)">
<title>src/protocol.h</title>
<polygon fill="white" stroke="none" points="-4,4 -4,-136 334,-136 334,4 -4,4"/>
<!-- Node1 -->
<g id="node1" class="node"><title>Node1</title>
<polygon fill="#bfbfbf" stroke="black" points="110,-112.5 110,-131.5 186,-131.5 186,-112.5 110,-112.5"/>
<text text-anchor="middle" x="148" y="-119.5" font-family="Helvetica,sans-Serif" font-size="10.00">src/protocol.h</text>
</g>
<!-- Node2 -->
<g id="node2" class="node"><title>Node2</title>
<g id="a_node2"><a xlink:href="protocol_8c.html" target="_top" xlink:title="implementation of protocol helpers ">
<polygon fill="white" stroke="black" points="0,-56.5 0,-75.5 76,-75.5 76,-56.5 0,-56.5"/>
<text text-anchor="middle" x="38" y="-63.5" font-family="Helvetica,sans-Serif" font-size="10.00">src/protocol.c</text>
</a>
</g>
</g>
<!-- Node1&#45;&gt;Node2 -->
<g id="edge1" class="edge"><title>Node1&#45;&gt;Node2</title>
<path fill="none" stroke="midnightblue" d="M121.238,-107.862C100.841,-97.8492 73.3341,-84.3458 55.6295,-75.6545"/>
<polygon fill="midnightblue" stroke="midnightblue" points="119.808,-111.059 130.327,-112.324 122.892,-104.775 119.808,-111.059"/>
</g>
<!-- Node3 -->
<g id="node3" class="node"><title>Node3</title>
<g id="a_node3"><a xlink:href="vmhost__spec_8h.html" target="_top" xlink:title="spec/vmhost_spec.h">
<polygon fill="white" stroke="black" points="94.5,-56.5 94.5,-75.5 201.5,-75.5 201.5,-56.5 94.5,-56.5"/>
<text text-anchor="middle" x="148" y="-63.5" font-family="Helvetica,sans-Serif" font-size="10.00">spec/vmhost_spec.h</text>
</a>
</g>
</g>
<!-- Node1&#45;&gt;Node3 -->
<g id="edge2" class="edge"><title>Node1&#45;&gt;Node3</title>
<path fill="none" stroke="midnightblue" d="M148,-101.805C148,-92.9102 148,-82.7798 148,-75.7511"/>
<polygon fill="midnightblue" stroke="midnightblue" points="144.5,-102.083 148,-112.083 151.5,-102.083 144.5,-102.083"/>
</g>
<!-- Node5 -->
<g id="node5" class="node"><title>Node5</title>
<g id="a_node5"><a xlink:href="protocol__spec_8h.html" target="_top" xlink:title="spec/protocol_spec.h">
<polygon fill="white" stroke="black" points="220,-56.5 220,-75.5 330,-75.5 330,-56.5 220,-56.5"/>
<text text-anchor="middle" x="275" y="-63.5" font-family="Helvetica,sans-Serif" font-size="10.00">spec/protocol_spec.h</text>
</a>
</g>
</g>
<!-- Node1&#45;&gt;Node5 -->
<g id="edge4" class="edge"><title>Node1&#45;&gt;Node5</title>
<path fill="none" stroke="midnightblue" d="M177.391,-108.503C201.2,-98.3795 234.106,-84.388 254.971,-75.5164"/>
<polygon fill="midnightblue" stroke="midnightblue" points="175.957,-105.31 168.124,-112.444 178.696,-111.751 175.957,-105.31"/>
</g>
<!-- Node4 -->
<g id="node4" class="node"><title>Node4</title>
<g id="a_node4"><a xlink:href="ceptr__specs_8c.html" target="_top" xlink:title="implements a main() entry point for running all the tests ">
<polygon fill="white" stroke="black" points="160,-0.5 160,-19.5 262,-19.5 262,-0.5 160,-0.5"/>
<text text-anchor="middle" x="211" y="-7.5" font-family="Helvetica,sans-Serif" font-size="10.00">spec/ceptr_specs.c</text>
</a>
</g>
</g>
<!-- Node3&#45;&gt;Node4 -->
<g id="edge3" class="edge"><title>Node3&#45;&gt;Node4</title>
<path fill="none" stroke="midnightblue" d="M166.04,-49.5372C177.273,-39.9087 191.319,-27.8694 200.694,-19.8339"/>
<polygon fill="midnightblue" stroke="midnightblue" points="163.437,-47.1586 158.122,-56.324 167.992,-52.4734 163.437,-47.1586"/>
</g>
<!-- Node5&#45;&gt;Node4 -->
<g id="edge5" class="edge"><title>Node5&#45;&gt;Node4</title>
<path fill="none" stroke="midnightblue" d="M257.009,-49.8197C245.542,-40.1452 231.087,-27.9481 221.47,-19.8339"/>
<polygon fill="midnightblue" stroke="midnightblue" points="254.817,-52.5502 264.717,-56.324 259.331,-47.2002 254.817,-52.5502"/>
</g>
</g>
</svg>
