<?xml version="1.0" encoding="UTF-8" standalone="no"?>
<!DOCTYPE svg PUBLIC "-//W3C//DTD SVG 1.1//EN"
 "http://www.w3.org/Graphics/SVG/1.1/DTD/svg11.dtd">
<!-- Generated by graphviz version 2.38.0 (20140413.2041)
 -->
<!-- Title: src/scape.h Pages: 1 -->
<!--zoomable 364 -->
<svg id="main" version="1.1" xmlns="http://www.w3.org/2000/svg" xmlns:xlink="http://www.w3.org/1999/xlink" xml:space="preserve" onload="init(evt)">
<style type="text/css"><![CDATA[
.edge:hover path { stroke: red; }
.edge:hover polygon { stroke: red; fill: red; }
]]></style>
<script type="text/javascript"><![CDATA[
var edges = document.getElementsByTagName('g');
if (edges && edges.length) {
  for (var i=0;i<edges.length;i++) {
    if (edges[i].id.substr(0,4)=='edge') {
      edges[i].setAttribute('class','edge');
    }
  }
}
]]></script>
        <defs>
                <circle id="rim" cx="0" cy="0" r="7"/>
                <circle id="rim2" cx="0" cy="0" r="3.5"/>
                <g id="zoomPlus">
                        <use xlink:href="#rim" fill="#404040">
                                <set attributeName="fill" to="#808080" begin="zoomplus.mouseover" end="zoomplus.mouseout"/>
                        </use>
                        <path d="M-4,0h8M0,-4v8" fill="none" stroke="white" stroke-width="1.5" pointer-events="none"/>
                </g>
                <g id="zoomMin">
                        <use xlink:href="#rim" fill="#404040">
                                <set attributeName="fill" to="#808080" begin="zoomminus.mouseover" end="zoomminus.mouseout"/>
                        </use>
                        <path d="M-4,0h8" fill="none" stroke="white" stroke-width="1.5" pointer-events="none"/>
                </g>
                <g id="dirArrow">
                        <path fill="none" stroke="white" stroke-width="1.5" d="M0,-3.0v7 M-2.5,-0.5L0,-3.0L2.5,-0.5"/>
                </g>
               <g id="resetDef">
                       <use xlink:href="#rim2" fill="#404040">
                               <set attributeName="fill" to="#808080" begin="reset.mouseover" end="reset.mouseout"/>
                       </use>
               </g>
        </defs>

<script type="text/javascript">
var viewWidth = 1726;
var viewHeight = 364;
var sectionId = 'dynsection-1';
</script>
<script xlink:href="svgpan.js"/>
<svg id="graph" class="graph">
<g id="viewport">
<title>src/scape.h</title>
<polygon fill="white" stroke="none" points="-4,4 -4,-360 1722.16,-360 1722.16,4 -4,4"/>
<!-- Node1 -->
<g id="node1" class="node"><title>Node1</title>
<polygon fill="#bfbfbf" stroke="black" points="1569.16,-336.5 1569.16,-355.5 1637.16,-355.5 1637.16,-336.5 1569.16,-336.5"/>
<text text-anchor="middle" x="1603.16" y="-343.5" font-family="Helvetica,sans-Serif" font-size="10.00">src/scape.h</text>
</g>
<!-- Node2 -->
<g id="node2" class="node"><title>Node2</title>
<g id="a_node2"><a xlink:href="receptor_8h.html" target="_top" xlink:title="receptor implementation header file ">
<polygon fill="white" stroke="black" points="1159.66,-280.5 1159.66,-299.5 1236.66,-299.5 1236.66,-280.5 1159.66,-280.5"/>
<text text-anchor="middle" x="1198.16" y="-287.5" font-family="Helvetica,sans-Serif" font-size="10.00">src/receptor.h</text>
</a>
</g>
</g>
<!-- Node1&#45;&gt;Node2 -->
<g id="edge1" class="edge"><title>Node1&#45;&gt;Node2</title>
<path fill="none" stroke="midnightblue" d="M1558.76,-339.08C1478.89,-328.43 1312.28,-306.215 1236.8,-296.152"/>
<polygon fill="midnightblue" stroke="midnightblue" points="1558.61,-342.59 1568.98,-340.443 1559.53,-335.652 1558.61,-342.59"/>
</g>
<!-- Node27 -->
<g id="node27" class="node"><title>Node27</title>
<g id="a_node27"><a xlink:href="tree_8c.html" target="_top" xlink:title="semantic tree pointer implementation ">
<polygon fill="white" stroke="black" points="1653.16,-224.5 1653.16,-243.5 1711.16,-243.5 1711.16,-224.5 1653.16,-224.5"/>
<text text-anchor="middle" x="1682.16" y="-231.5" font-family="Helvetica,sans-Serif" font-size="10.00">src/tree.c</text>
</a>
</g>
</g>
<!-- Node1&#45;&gt;Node27 -->
<g id="edge65" class="edge"><title>Node1&#45;&gt;Node27</title>
<path fill="none" stroke="midnightblue" d="M1612.3,-327.113C1619.47,-313.69 1630.06,-295.106 1641.16,-280 1651.05,-266.546 1664.35,-252.558 1673.09,-243.82"/>
<polygon fill="midnightblue" stroke="midnightblue" points="1609.07,-325.744 1607.54,-336.227 1615.27,-328.986 1609.07,-325.744"/>
</g>
<!-- Node31 -->
<g id="node31" class="node"><title>Node31</title>
<g id="a_node31"><a xlink:href="scape__spec_8h.html" target="_top" xlink:title="spec/scape_spec.h">
<polygon fill="white" stroke="black" points="1533.66,-224.5 1533.66,-243.5 1634.66,-243.5 1634.66,-224.5 1533.66,-224.5"/>
<text text-anchor="middle" x="1584.16" y="-231.5" font-family="Helvetica,sans-Serif" font-size="10.00">spec/scape_spec.h</text>
</a>
</g>
</g>
<!-- Node1&#45;&gt;Node31 -->
<g id="edge66" class="edge"><title>Node1&#45;&gt;Node31</title>
<path fill="none" stroke="midnightblue" d="M1599.94,-326.348C1595.78,-302.254 1588.71,-261.308 1585.65,-243.591"/>
<polygon fill="midnightblue" stroke="midnightblue" points="1596.52,-327.11 1601.67,-336.368 1603.42,-325.919 1596.52,-327.11"/>
</g>
<!-- Node33 -->
<g id="node33" class="node"><title>Node33</title>
<g id="a_node33"><a xlink:href="scape_8c.html" target="_top" xlink:title="implementation of scapes ">
<polygon fill="white" stroke="black" points="1650.16,-280.5 1650.16,-299.5 1718.16,-299.5 1718.16,-280.5 1650.16,-280.5"/>
<text text-anchor="middle" x="1684.16" y="-287.5" font-family="Helvetica,sans-Serif" font-size="10.00">src/scape.c</text>
</a>
</g>
</g>
<!-- Node1&#45;&gt;Node33 -->
<g id="edge64" class="edge"><title>Node1&#45;&gt;Node33</title>
<path fill="none" stroke="midnightblue" d="M1624.73,-330.622C1639.53,-320.757 1658.68,-307.992 1671.18,-299.655"/>
<polygon fill="midnightblue" stroke="midnightblue" points="1622.56,-327.865 1616.18,-336.324 1626.44,-333.689 1622.56,-327.865"/>
</g>
<!-- Node3 -->
<g id="node3" class="node"><title>Node3</title>
<g id="a_node3"><a xlink:href="vmhost_8h.html" target="_top" xlink:title="vmhost implementation header file ">
<polygon fill="white" stroke="black" points="728.163,-224.5 728.163,-243.5 802.163,-243.5 802.163,-224.5 728.163,-224.5"/>
<text text-anchor="middle" x="765.163" y="-231.5" font-family="Helvetica,sans-Serif" font-size="10.00">src/vmhost.h</text>
</a>
</g>
</g>
<!-- Node2&#45;&gt;Node3 -->
<g id="edge2" class="edge"><title>Node2&#45;&gt;Node3</title>
<path fill="none" stroke="midnightblue" d="M1149.43,-282.922C1061.98,-272.017 880.309,-249.36 802.188,-239.617"/>
<polygon fill="midnightblue" stroke="midnightblue" points="1149,-286.396 1159.36,-284.16 1149.87,-279.45 1149,-286.396"/>
</g>
<!-- Node5 -->
<g id="node5" class="node"><title>Node5</title>
<g id="a_node5"><a xlink:href="accumulator_8c.html" target="_top" xlink:title="implementation file for accumulator ">
<polygon fill="white" stroke="black" points="1169.66,-112.5 1169.66,-131.5 1264.66,-131.5 1264.66,-112.5 1169.66,-112.5"/>
<text text-anchor="middle" x="1217.16" y="-119.5" font-family="Helvetica,sans-Serif" font-size="10.00">src/accumulator.c</text>
</a>
</g>
</g>
<!-- Node2&#45;&gt;Node5 -->
<g id="edge34" class="edge"><title>Node2&#45;&gt;Node5</title>
<path fill="none" stroke="midnightblue" d="M1197.44,-270.282C1196.86,-246.367 1196.97,-203.785 1203.16,-168 1205.4,-155.101 1210.31,-140.748 1213.68,-131.797"/>
<polygon fill="midnightblue" stroke="midnightblue" points="1193.94,-270.526 1197.76,-280.411 1200.94,-270.306 1193.94,-270.526"/>
</g>
<!-- Node11 -->
<g id="node11" class="node"><title>Node11</title>
<g id="a_node11"><a xlink:href="process_8c.html" target="_top" xlink:title="implementation of ceptr processing: instructions and run tree reduction ">
<polygon fill="white" stroke="black" points="1075.16,-112.5 1075.16,-131.5 1151.16,-131.5 1151.16,-112.5 1075.16,-112.5"/>
<text text-anchor="middle" x="1113.16" y="-119.5" font-family="Helvetica,sans-Serif" font-size="10.00">src/process.c</text>
</a>
</g>
</g>
<!-- Node2&#45;&gt;Node11 -->
<g id="edge46" class="edge"><title>Node2&#45;&gt;Node11</title>
<path fill="none" stroke="midnightblue" d="M1188.87,-270.856C1170.64,-235.252 1130.8,-157.453 1117.55,-131.568"/>
<polygon fill="midnightblue" stroke="midnightblue" points="1185.92,-272.769 1193.59,-280.075 1192.15,-269.579 1185.92,-272.769"/>
</g>
<!-- Node12 -->
<g id="node12" class="node"><title>Node12</title>
<g id="a_node12"><a xlink:href="receptor_8c.html" target="_top" xlink:title="receptor implementation ">
<polygon fill="white" stroke="black" points="363.663,-112.5 363.663,-131.5 440.663,-131.5 440.663,-112.5 363.663,-112.5"/>
<text text-anchor="middle" x="402.163" y="-119.5" font-family="Helvetica,sans-Serif" font-size="10.00">src/receptor.c</text>
</a>
</g>
</g>
<!-- Node2&#45;&gt;Node12 -->
<g id="edge47" class="edge"><title>Node2&#45;&gt;Node12</title>
<path fill="none" stroke="midnightblue" d="M1149.3,-288.533C1061.93,-286.789 873.587,-278.9 719.163,-244 648.533,-228.037 633.827,-213.787 566.163,-188 514.648,-168.368 454.497,-144.208 423.322,-131.594"/>
<polygon fill="midnightblue" stroke="midnightblue" points="1149.39,-292.035 1159.45,-288.716 1149.52,-285.036 1149.39,-292.035"/>
</g>
<!-- Node18 -->
<g id="node18" class="node"><title>Node18</title>
<g id="a_node18"><a xlink:href="http__example_8h.html" target="_top" xlink:title="spec/http_example.h">
<polygon fill="white" stroke="black" points="949.663,-112.5 949.663,-131.5 1056.66,-131.5 1056.66,-112.5 949.663,-112.5"/>
<text text-anchor="middle" x="1003.16" y="-119.5" font-family="Helvetica,sans-Serif" font-size="10.00">spec/http_example.h</text>
</a>
</g>
</g>
<!-- Node2&#45;&gt;Node18 -->
<g id="edge55" class="edge"><title>Node2&#45;&gt;Node18</title>
<path fill="none" stroke="midnightblue" d="M1149.56,-282.623C1103.57,-275.561 1039.13,-262.653 1022.16,-244 992.83,-211.753 998.292,-153.56 1001.63,-131.654"/>
<polygon fill="midnightblue" stroke="midnightblue" points="1149.24,-286.114 1159.65,-284.125 1150.27,-279.191 1149.24,-286.114"/>
</g>
<!-- Node19 -->
<g id="node19" class="node"><title>Node19</title>
<g id="a_node19"><a xlink:href="tree__spec_8h.html" target="_top" xlink:title="spec/tree_spec.h">
<polygon fill="white" stroke="black" points="1031.16,-56.5 1031.16,-75.5 1123.16,-75.5 1123.16,-56.5 1031.16,-56.5"/>
<text text-anchor="middle" x="1077.16" y="-63.5" font-family="Helvetica,sans-Serif" font-size="10.00">spec/tree_spec.h</text>
</a>
</g>
</g>
<!-- Node2&#45;&gt;Node19 -->
<g id="edge54" class="edge"><title>Node2&#45;&gt;Node19</title>
<path fill="none" stroke="midnightblue" d="M1207.36,-270.924C1226.65,-232.832 1269.85,-146.609 1273.16,-132 1275.13,-123.331 1278.7,-118.953 1273.16,-112 1263.81,-100.257 1178.55,-83.9797 1123.6,-74.5623"/>
<polygon fill="midnightblue" stroke="midnightblue" points="1204.01,-269.79 1202.6,-280.292 1210.25,-272.958 1204.01,-269.79"/>
</g>
<!-- Node20 -->
<g id="node20" class="node"><title>Node20</title>
<g id="a_node20"><a xlink:href="mtree__spec_8h.html" target="_top" xlink:title="spec/mtree_spec.h">
<polygon fill="white" stroke="black" points="1141.16,-56.5 1141.16,-75.5 1241.16,-75.5 1241.16,-56.5 1141.16,-56.5"/>
<text text-anchor="middle" x="1191.16" y="-63.5" font-family="Helvetica,sans-Serif" font-size="10.00">spec/mtree_spec.h</text>
</a>
</g>
</g>
<!-- Node2&#45;&gt;Node20 -->
<g id="edge56" class="edge"><title>Node2&#45;&gt;Node20</title>
<path fill="none" stroke="midnightblue" d="M1211.26,-272.132C1217.52,-263.824 1224.98,-253.56 1231.16,-244 1252.23,-211.406 1251.35,-199.395 1274.16,-168 1286.92,-150.441 1299.29,-152.229 1307.16,-132 1310.39,-123.716 1312.18,-119.334 1307.16,-112 1292.34,-90.3442 1265.45,-79.1081 1241.3,-73.2791"/>
<polygon fill="midnightblue" stroke="midnightblue" points="1208.35,-270.183 1205.05,-280.254 1213.91,-274.435 1208.35,-270.183"/>
</g>
<!-- Node21 -->
<g id="node21" class="node"><title>Node21</title>
<g id="a_node21"><a xlink:href="receptor__spec_8h.html" target="_top" xlink:title="spec/receptor_spec.h">
<polygon fill="white" stroke="black" points="309.163,-56.5 309.163,-75.5 419.163,-75.5 419.163,-56.5 309.163,-56.5"/>
<text text-anchor="middle" x="364.163" y="-63.5" font-family="Helvetica,sans-Serif" font-size="10.00">spec/receptor_spec.h</text>
</a>
</g>
</g>
<!-- Node2&#45;&gt;Node21 -->
<g id="edge59" class="edge"><title>Node2&#45;&gt;Node21</title>
<path fill="none" stroke="midnightblue" d="M1149.12,-288.942C981.887,-288.386 434.885,-283.514 264.163,-244 141.582,-215.629 73.3288,-237.105 4.16294,-132 -0.723431,-124.575 -1.71975,-118.664 4.16294,-112 14.1412,-100.697 210.638,-81.1234 309.02,-71.9778"/>
<polygon fill="midnightblue" stroke="midnightblue" points="1149.57,-292.443 1159.58,-288.973 1149.59,-285.443 1149.57,-292.443"/>
</g>
<!-- Node23 -->
<g id="node23" class="node"><title>Node23</title>
<g id="a_node23"><a xlink:href="base__defs_8c.html" target="_top" xlink:title="auto&#45;generated system definitions ">
<polygon fill="white" stroke="black" points="13.1629,-112.5 13.1629,-131.5 99.1629,-131.5 99.1629,-112.5 13.1629,-112.5"/>
<text text-anchor="middle" x="56.1629" y="-119.5" font-family="Helvetica,sans-Serif" font-size="10.00">src/base_defs.c</text>
</a>
</g>
</g>
<!-- Node2&#45;&gt;Node23 -->
<g id="edge35" class="edge"><title>Node2&#45;&gt;Node23</title>
<path fill="none" stroke="midnightblue" d="M1149,-288.514C990.312,-286.62 492.915,-278.05 336.163,-244 228.266,-220.562 110.39,-155.039 70.361,-131.531"/>
<polygon fill="midnightblue" stroke="midnightblue" points="1149.36,-292.019 1159.4,-288.635 1149.44,-285.019 1149.36,-292.019"/>
</g>
<!-- Node24 -->
<g id="node24" class="node"><title>Node24</title>
<g id="a_node24"><a xlink:href="protocol_8h.html" target="_top" xlink:title="protocol helpers header file ">
<polygon fill="white" stroke="black" points="203.163,-168.5 203.163,-187.5 279.163,-187.5 279.163,-168.5 203.163,-168.5"/>
<text text-anchor="middle" x="241.163" y="-175.5" font-family="Helvetica,sans-Serif" font-size="10.00">src/protocol.h</text>
</a>
</g>
</g>
<!-- Node2&#45;&gt;Node24 -->
<g id="edge36" class="edge"><title>Node2&#45;&gt;Node24</title>
<path fill="none" stroke="midnightblue" d="M1149.31,-288.305C999.249,-285.845 546.469,-275.904 403.163,-244 347.552,-231.619 286.252,-202.368 257.61,-187.702"/>
<polygon fill="midnightblue" stroke="midnightblue" points="1149.53,-291.809 1159.59,-288.469 1149.64,-284.81 1149.53,-291.809"/>
</g>
<!-- Node26 -->
<g id="node26" class="node"><title>Node26</title>
<g id="a_node26"><a xlink:href="sys__defs_8c.html" target="_top" xlink:title="definition of system semantic elements for bootstrapping ">
<polygon fill="white" stroke="black" points="1031.66,-224.5 1031.66,-243.5 1112.66,-243.5 1112.66,-224.5 1031.66,-224.5"/>
<text text-anchor="middle" x="1072.16" y="-231.5" font-family="Helvetica,sans-Serif" font-size="10.00">src/sys_defs.c</text>
</a>
</g>
</g>
<!-- Node2&#45;&gt;Node26 -->
<g id="edge48" class="edge"><title>Node2&#45;&gt;Node26</title>
<path fill="none" stroke="midnightblue" d="M1169,-276.503C1145.38,-266.38 1112.73,-252.388 1092.03,-243.516"/>
<polygon fill="midnightblue" stroke="midnightblue" points="1167.63,-279.721 1178.2,-280.444 1170.39,-273.287 1167.63,-279.721"/>
</g>
<!-- Node2&#45;&gt;Node27 -->
<g id="edge49" class="edge"><title>Node2&#45;&gt;Node27</title>
<path fill="none" stroke="midnightblue" d="M1246.81,-286.095C1328.93,-280.742 1500.08,-267.647 1643.16,-244 1646.32,-243.479 1649.6,-242.854 1652.85,-242.18"/>
<polygon fill="midnightblue" stroke="midnightblue" points="1246.53,-282.606 1236.77,-286.739 1246.98,-289.591 1246.53,-282.606"/>
</g>
<!-- Node28 -->
<g id="node28" class="node"><title>Node28</title>
<g id="a_node28"><a xlink:href="semtable__spec_8h.html" target="_top" xlink:title="spec/semtable_spec.h">
<polygon fill="white" stroke="black" points="1557.66,-168.5 1557.66,-187.5 1672.66,-187.5 1672.66,-168.5 1557.66,-168.5"/>
<text text-anchor="middle" x="1615.16" y="-175.5" font-family="Helvetica,sans-Serif" font-size="10.00">spec/semtable_spec.h</text>
</a>
</g>
</g>
<!-- Node2&#45;&gt;Node28 -->
<g id="edge50" class="edge"><title>Node2&#45;&gt;Node28</title>
<path fill="none" stroke="midnightblue" d="M1246.65,-286.109C1304.61,-281.587 1403.95,-270.434 1485.16,-244 1503.69,-237.971 1506.77,-232.762 1524.16,-224 1549.66,-211.157 1579.33,-196.548 1597.68,-187.551"/>
<polygon fill="midnightblue" stroke="midnightblue" points="1246.38,-282.619 1236.67,-286.853 1246.9,-289.599 1246.38,-282.619"/>
</g>
<!-- Node29 -->
<g id="node29" class="node"><title>Node29</title>
<g id="a_node29"><a xlink:href="def__spec_8h.html" target="_top" xlink:title="spec/def_spec.h">
<polygon fill="white" stroke="black" points="1283.66,-168.5 1283.66,-187.5 1372.66,-187.5 1372.66,-168.5 1283.66,-168.5"/>
<text text-anchor="middle" x="1328.16" y="-175.5" font-family="Helvetica,sans-Serif" font-size="10.00">spec/def_spec.h</text>
</a>
</g>
</g>
<!-- Node2&#45;&gt;Node29 -->
<g id="edge52" class="edge"><title>Node2&#45;&gt;Node29</title>
<path fill="none" stroke="midnightblue" d="M1222.95,-275.512C1237.13,-267.269 1254.87,-256.021 1269.16,-244 1290.39,-226.145 1311.26,-200.825 1321.54,-187.678"/>
<polygon fill="midnightblue" stroke="midnightblue" points="1221.19,-272.488 1214.22,-280.473 1224.65,-278.574 1221.19,-272.488"/>
</g>
<!-- Node30 -->
<g id="node30" class="node"><title>Node30</title>
<g id="a_node30"><a xlink:href="semtrex__spec_8h.html" target="_top" xlink:title="spec/semtrex_spec.h">
<polygon fill="white" stroke="black" points="1391.16,-168.5 1391.16,-187.5 1501.16,-187.5 1501.16,-168.5 1391.16,-168.5"/>
<text text-anchor="middle" x="1446.16" y="-175.5" font-family="Helvetica,sans-Serif" font-size="10.00">spec/semtrex_spec.h</text>
</a>
</g>
</g>
<!-- Node2&#45;&gt;Node30 -->
<g id="edge57" class="edge"><title>Node2&#45;&gt;Node30</title>
<path fill="none" stroke="midnightblue" d="M1226.78,-276.305C1277.84,-253.66 1383.33,-206.871 1426.79,-187.591"/>
<polygon fill="midnightblue" stroke="midnightblue" points="1225.35,-273.114 1217.62,-280.368 1228.18,-279.513 1225.35,-273.114"/>
</g>
<!-- Node2&#45;&gt;Node31 -->
<g id="edge60" class="edge"><title>Node2&#45;&gt;Node31</title>
<path fill="none" stroke="midnightblue" d="M1246.87,-282.186C1320.38,-271.902 1459,-252.51 1533.59,-242.075"/>
<polygon fill="midnightblue" stroke="midnightblue" points="1246.36,-278.723 1236.94,-283.575 1247.33,-285.656 1246.36,-278.723"/>
</g>
<!-- Node32 -->
<g id="node32" class="node"><title>Node32</title>
<g id="a_node32"><a xlink:href="profile__example_8h.html" target="_top" xlink:title="spec/profile_example.h">
<polygon fill="white" stroke="black" points="1359.66,-224.5 1359.66,-243.5 1476.66,-243.5 1476.66,-224.5 1359.66,-224.5"/>
<text text-anchor="middle" x="1418.16" y="-231.5" font-family="Helvetica,sans-Serif" font-size="10.00">spec/profile_example.h</text>
</a>
</g>
</g>
<!-- Node2&#45;&gt;Node32 -->
<g id="edge62" class="edge"><title>Node2&#45;&gt;Node32</title>
<path fill="none" stroke="midnightblue" d="M1242.88,-278.024C1284.44,-267.823 1345.48,-252.841 1383.47,-243.516"/>
<polygon fill="midnightblue" stroke="midnightblue" points="1241.9,-274.661 1233.02,-280.444 1243.57,-281.459 1241.9,-274.661"/>
</g>
<!-- Node4 -->
<g id="node4" class="node"><title>Node4</title>
<g id="a_node4"><a xlink:href="accumulator_8h.html" target="_top" xlink:title="header file for the accumulator ">
<polygon fill="white" stroke="black" points="717.663,-168.5 717.663,-187.5 812.663,-187.5 812.663,-168.5 717.663,-168.5"/>
<text text-anchor="middle" x="765.163" y="-175.5" font-family="Helvetica,sans-Serif" font-size="10.00">src/accumulator.h</text>
</a>
</g>
</g>
<!-- Node3&#45;&gt;Node4 -->
<g id="edge3" class="edge"><title>Node3&#45;&gt;Node4</title>
<path fill="none" stroke="midnightblue" d="M765.163,-213.805C765.163,-204.91 765.163,-194.78 765.163,-187.751"/>
<polygon fill="midnightblue" stroke="midnightblue" points="761.663,-214.083 765.163,-224.083 768.663,-214.083 761.663,-214.083"/>
</g>
<!-- Node15 -->
<g id="node15" class="node"><title>Node15</title>
<g id="a_node15"><a xlink:href="vmhost__spec_8h.html" target="_top" xlink:title="spec/vmhost_spec.h">
<polygon fill="white" stroke="black" points="637.663,-56.5 637.663,-75.5 744.663,-75.5 744.663,-56.5 637.663,-56.5"/>
<text text-anchor="middle" x="691.163" y="-63.5" font-family="Helvetica,sans-Serif" font-size="10.00">spec/vmhost_spec.h</text>
</a>
</g>
</g>
<!-- Node3&#45;&gt;Node15 -->
<g id="edge33" class="edge"><title>Node3&#45;&gt;Node15</title>
<path fill="none" stroke="midnightblue" d="M738.174,-219.273C709.477,-202.941 665.843,-172.685 648.163,-132 638.672,-110.159 662.555,-87.6269 678.409,-75.677"/>
<polygon fill="midnightblue" stroke="midnightblue" points="736.824,-222.525 747.274,-224.272 740.195,-216.39 736.824,-222.525"/>
</g>
<!-- Node16 -->
<g id="node16" class="node"><title>Node16</title>
<g id="a_node16"><a xlink:href="vmhost_8c.html" target="_top" xlink:title="virtual machine host receptor implementation ">
<polygon fill="white" stroke="black" points="857.163,-112.5 857.163,-131.5 931.163,-131.5 931.163,-112.5 857.163,-112.5"/>
<text text-anchor="middle" x="894.163" y="-119.5" font-family="Helvetica,sans-Serif" font-size="10.00">src/vmhost.c</text>
</a>
</g>
</g>
<!-- Node3&#45;&gt;Node16 -->
<g id="edge30" class="edge"><title>Node3&#45;&gt;Node16</title>
<path fill="none" stroke="midnightblue" d="M784.473,-217.876C795.358,-209.254 809.142,-198.17 821.163,-188 844.482,-168.271 871.099,-144.151 884.847,-131.568"/>
<polygon fill="midnightblue" stroke="midnightblue" points="782.14,-215.259 776.455,-224.199 786.474,-220.756 782.14,-215.259"/>
</g>
<!-- Node3&#45;&gt;Node18 -->
<g id="edge31" class="edge"><title>Node3&#45;&gt;Node18</title>
<path fill="none" stroke="midnightblue" d="M792.937,-220.163C842.046,-197.466 942.947,-150.831 984.574,-131.591"/>
<polygon fill="midnightblue" stroke="midnightblue" points="791.447,-216.996 783.838,-224.368 794.384,-223.35 791.447,-216.996"/>
</g>
<!-- Node3&#45;&gt;Node21 -->
<g id="edge32" class="edge"><title>Node3&#45;&gt;Node21</title>
<path fill="none" stroke="midnightblue" d="M725.857,-221.494C670.499,-204.717 566.963,-171.229 483.163,-132 467.285,-124.567 464.469,-120.548 449.163,-112 425.692,-98.8926 398.124,-84.4733 380.895,-75.5765"/>
<polygon fill="midnightblue" stroke="midnightblue" points="725.033,-224.901 735.617,-224.43 727.049,-218.197 725.033,-224.901"/>
</g>
<!-- Node22 -->
<g id="node22" class="node"><title>Node22</title>
<g id="a_node22"><a xlink:href="protocol_8c.html" target="_top" xlink:title="implementation of protocol helpers ">
<polygon fill="white" stroke="black" points="269.163,-112.5 269.163,-131.5 345.163,-131.5 345.163,-112.5 269.163,-112.5"/>
<text text-anchor="middle" x="307.163" y="-119.5" font-family="Helvetica,sans-Serif" font-size="10.00">src/protocol.c</text>
</a>
</g>
</g>
<!-- Node3&#45;&gt;Node22 -->
<g id="edge29" class="edge"><title>Node3&#45;&gt;Node22</title>
<path fill="none" stroke="midnightblue" d="M717.552,-230.085C655.972,-225.413 545.852,-213.979 455.163,-188 404.983,-173.625 349.593,-145.826 323.053,-131.698"/>
<polygon fill="midnightblue" stroke="midnightblue" points="717.511,-233.591 727.739,-230.829 718.021,-226.609 717.511,-233.591"/>
</g>
<!-- Node4&#45;&gt;Node5 -->
<g id="edge4" class="edge"><title>Node4&#45;&gt;Node5</title>
<path fill="none" stroke="midnightblue" d="M822.646,-171.237C899.621,-163.341 1040.38,-148.271 1160.16,-132 1163.24,-131.582 1166.41,-131.133 1169.6,-130.667"/>
<polygon fill="midnightblue" stroke="midnightblue" points="822.263,-167.758 812.671,-172.257 822.975,-174.722 822.263,-167.758"/>
</g>
<!-- Node6 -->
<g id="node6" class="node"><title>Node6</title>
<g id="a_node6"><a xlink:href="ceptr_8c.html" target="_top" xlink:title="implements main() entry point for the ceptr node ">
<polygon fill="white" stroke="black" points="775.663,-112.5 775.663,-131.5 838.663,-131.5 838.663,-112.5 775.663,-112.5"/>
<text text-anchor="middle" x="807.163" y="-119.5" font-family="Helvetica,sans-Serif" font-size="10.00">src/ceptr.c</text>
</a>
</g>
</g>
<!-- Node4&#45;&gt;Node6 -->
<g id="edge5" class="edge"><title>Node4&#45;&gt;Node6</title>
<path fill="none" stroke="midnightblue" d="M778.273,-160.144C785.591,-150.736 794.404,-139.405 800.357,-131.751"/>
<polygon fill="midnightblue" stroke="midnightblue" points="775.475,-158.041 772.098,-168.083 781.001,-162.338 775.475,-158.041"/>
</g>
<!-- Node7 -->
<g id="node7" class="node"><title>Node7</title>
<g id="a_node7"><a xlink:href="group_8h.html" target="_top" xlink:title="group communication receptors header file ">
<polygon fill="white" stroke="black" points="535.663,-112.5 535.663,-131.5 600.663,-131.5 600.663,-112.5 535.663,-112.5"/>
<text text-anchor="middle" x="568.163" y="-119.5" font-family="Helvetica,sans-Serif" font-size="10.00">src/group.h</text>
</a>
</g>
</g>
<!-- Node4&#45;&gt;Node7 -->
<g id="edge6" class="edge"><title>Node4&#45;&gt;Node7</title>
<path fill="none" stroke="midnightblue" d="M723.934,-165.699C686.753,-155.507 632.892,-140.743 599.232,-131.516"/>
<polygon fill="midnightblue" stroke="midnightblue" points="723.378,-169.175 733.948,-168.444 725.229,-162.424 723.378,-169.175"/>
</g>
<!-- Node4&#45;&gt;Node11 -->
<g id="edge10" class="edge"><title>Node4&#45;&gt;Node11</title>
<path fill="none" stroke="midnightblue" d="M822.903,-168.976C883.383,-160.422 981.092,-146.182 1065.16,-132 1068.34,-131.464 1071.63,-130.889 1074.93,-130.298"/>
<polygon fill="midnightblue" stroke="midnightblue" points="822.203,-165.54 812.79,-170.403 823.181,-172.472 822.203,-165.54"/>
</g>
<!-- Node4&#45;&gt;Node12 -->
<g id="edge11" class="edge"><title>Node4&#45;&gt;Node12</title>
<path fill="none" stroke="midnightblue" d="M707.149,-168.37C632.385,-157.248 504.455,-138.217 440.673,-128.729"/>
<polygon fill="midnightblue" stroke="midnightblue" points="706.928,-171.875 717.334,-169.885 707.958,-164.952 706.928,-171.875"/>
</g>
<!-- Node13 -->
<g id="node13" class="node"><title>Node13</title>
<g id="a_node13"><a xlink:href="shell_8h.html" target="_top" xlink:title="command line shell receptor header files ">
<polygon fill="white" stroke="black" points="657.163,-112.5 657.163,-131.5 719.163,-131.5 719.163,-112.5 657.163,-112.5"/>
<text text-anchor="middle" x="688.163" y="-119.5" font-family="Helvetica,sans-Serif" font-size="10.00">src/shell.h</text>
</a>
</g>
</g>
<!-- Node4&#45;&gt;Node13 -->
<g id="edge12" class="edge"><title>Node4&#45;&gt;Node13</title>
<path fill="none" stroke="midnightblue" d="M744.262,-162.342C730.252,-152.517 712.28,-139.913 700.504,-131.655"/>
<polygon fill="midnightblue" stroke="midnightblue" points="742.595,-165.448 752.792,-168.324 746.614,-159.717 742.595,-165.448"/>
</g>
<!-- Node4&#45;&gt;Node16 -->
<g id="edge16" class="edge"><title>Node4&#45;&gt;Node16</title>
<path fill="none" stroke="midnightblue" d="M795.017,-164.503C819.201,-154.38 852.625,-140.388 873.818,-131.516"/>
<polygon fill="midnightblue" stroke="midnightblue" points="793.476,-161.354 785.603,-168.444 796.179,-167.811 793.476,-161.354"/>
</g>
<!-- Node17 -->
<g id="node17" class="node"><title>Node17</title>
<g id="a_node17"><a xlink:href="accumulator__spec_8h_source.html" target="_top" xlink:title="spec/accumulator_spec.h">
<polygon fill="white" stroke="black" points="845.163,-56.5 845.163,-75.5 973.163,-75.5 973.163,-56.5 845.163,-56.5"/>
<text text-anchor="middle" x="909.163" y="-63.5" font-family="Helvetica,sans-Serif" font-size="10.00">spec/accumulator_spec.h</text>
</a>
</g>
</g>
<!-- Node4&#45;&gt;Node17 -->
<g id="edge17" class="edge"><title>Node4&#45;&gt;Node17</title>
<path fill="none" stroke="midnightblue" d="M760.057,-158.391C757.362,-144.28 756.369,-125.137 766.163,-112 777.908,-96.2464 825.55,-83.4209 862.655,-75.5502"/>
<polygon fill="midnightblue" stroke="midnightblue" points="756.718,-159.482 762.41,-168.418 763.533,-157.883 756.718,-159.482"/>
</g>
<!-- Node4&#45;&gt;Node18 -->
<g id="edge19" class="edge"><title>Node4&#45;&gt;Node18</title>
<path fill="none" stroke="midnightblue" d="M812.687,-166.217C857.659,-156.013 924.268,-140.901 965.628,-131.516"/>
<polygon fill="midnightblue" stroke="midnightblue" points="811.852,-162.818 802.875,-168.444 813.401,-169.644 811.852,-162.818"/>
</g>
<!-- Node4&#45;&gt;Node21 -->
<g id="edge28" class="edge"><title>Node4&#45;&gt;Node21</title>
<path fill="none" stroke="midnightblue" d="M707.485,-170.245C658.448,-163.535 586.587,-151.404 526.163,-132 506.095,-125.556 502.589,-120.178 483.163,-112 450.795,-98.3744 412.729,-84.3152 388.529,-75.6173"/>
<polygon fill="midnightblue" stroke="midnightblue" points="707.215,-173.74 717.591,-171.595 708.142,-166.802 707.215,-173.74"/>
</g>
<!-- Node8 -->
<g id="node8" class="node"><title>Node8</title>
<g id="a_node8"><a xlink:href="group_8c.html" target="_top" xlink:title="implementation of some group communication receptors ">
<polygon fill="white" stroke="black" points="437.663,-56.5 437.663,-75.5 502.663,-75.5 502.663,-56.5 437.663,-56.5"/>
<text text-anchor="middle" x="470.163" y="-63.5" font-family="Helvetica,sans-Serif" font-size="10.00">src/group.c</text>
</a>
</g>
</g>
<!-- Node7&#45;&gt;Node8 -->
<g id="edge7" class="edge"><title>Node7&#45;&gt;Node8</title>
<path fill="none" stroke="midnightblue" d="M543.577,-107.453C525.485,-97.4835 501.428,-84.2279 485.869,-75.6545"/>
<polygon fill="midnightblue" stroke="midnightblue" points="541.97,-110.563 552.418,-112.324 545.348,-104.432 541.97,-110.563"/>
</g>
<!-- Node9 -->
<g id="node9" class="node"><title>Node9</title>
<g id="a_node9"><a xlink:href="group__spec_8h.html" target="_top" xlink:title="spec/group_spec.h">
<polygon fill="white" stroke="black" points="520.663,-56.5 520.663,-75.5 619.663,-75.5 619.663,-56.5 520.663,-56.5"/>
<text text-anchor="middle" x="570.163" y="-63.5" font-family="Helvetica,sans-Serif" font-size="10.00">spec/group_spec.h</text>
</a>
</g>
</g>
<!-- Node7&#45;&gt;Node9 -->
<g id="edge8" class="edge"><title>Node7&#45;&gt;Node9</title>
<path fill="none" stroke="midnightblue" d="M568.874,-101.805C569.203,-92.9102 569.578,-82.7798 569.839,-75.7511"/>
<polygon fill="midnightblue" stroke="midnightblue" points="565.366,-101.96 568.493,-112.083 572.361,-102.219 565.366,-101.96"/>
</g>
<!-- Node10 -->
<g id="node10" class="node"><title>Node10</title>
<g id="a_node10"><a xlink:href="ceptr__specs_8c.html" target="_top" xlink:title="implements a main() entry point for running all the tests ">
<polygon fill="white" stroke="black" points="1026.16,-0.5 1026.16,-19.5 1128.16,-19.5 1128.16,-0.5 1026.16,-0.5"/>
<text text-anchor="middle" x="1077.16" y="-7.5" font-family="Helvetica,sans-Serif" font-size="10.00">spec/ceptr_specs.c</text>
</a>
</g>
</g>
<!-- Node9&#45;&gt;Node10 -->
<g id="edge9" class="edge"><title>Node9&#45;&gt;Node10</title>
<path fill="none" stroke="midnightblue" d="M630.089,-55.8102C779.543,-36.9704 944.266,-22.1645 1025.88,-15.2309"/>
<polygon fill="midnightblue" stroke="midnightblue" points="629.291,-52.3833 619.812,-57.1152 630.173,-59.3275 629.291,-52.3833"/>
</g>
<!-- Node14 -->
<g id="node14" class="node"><title>Node14</title>
<g id="a_node14"><a xlink:href="shell_8c.html" target="_top" xlink:title="implementation of a command line shell receptor ">
<polygon fill="white" stroke="black" points="762.163,-56.5 762.163,-75.5 824.163,-75.5 824.163,-56.5 762.163,-56.5"/>
<text text-anchor="middle" x="793.163" y="-63.5" font-family="Helvetica,sans-Serif" font-size="10.00">src/shell.c</text>
</a>
</g>
</g>
<!-- Node13&#45;&gt;Node14 -->
<g id="edge13" class="edge"><title>Node13&#45;&gt;Node14</title>
<path fill="none" stroke="midnightblue" d="M713.973,-107.726C733.416,-97.7271 759.511,-84.3065 776.335,-75.6545"/>
<polygon fill="midnightblue" stroke="midnightblue" points="712.325,-104.638 705.033,-112.324 715.527,-110.863 712.325,-104.638"/>
</g>
<!-- Node13&#45;&gt;Node15 -->
<g id="edge14" class="edge"><title>Node13&#45;&gt;Node15</title>
<path fill="none" stroke="midnightblue" d="M689.229,-101.805C689.723,-92.9102 690.286,-82.7798 690.677,-75.7511"/>
<polygon fill="midnightblue" stroke="midnightblue" points="685.719,-101.904 688.658,-112.083 692.708,-102.293 685.719,-101.904"/>
</g>
<!-- Node15&#45;&gt;Node10 -->
<g id="edge15" class="edge"><title>Node15&#45;&gt;Node10</title>
<path fill="none" stroke="midnightblue" d="M755.07,-55.7353C856.799,-41.3104 964.287,-26.4809 1026.08,-17.9956"/>
<polygon fill="midnightblue" stroke="midnightblue" points="754.337,-52.3041 744.929,-57.1747 755.321,-59.2346 754.337,-52.3041"/>
</g>
<!-- Node17&#45;&gt;Node10 -->
<g id="edge18" class="edge"><title>Node17&#45;&gt;Node10</title>
<path fill="none" stroke="midnightblue" d="M945.549,-53.3044C977.205,-43.1294 1022.33,-28.6246 1050.67,-19.5164"/>
<polygon fill="midnightblue" stroke="midnightblue" points="944.232,-50.0513 935.783,-56.4435 946.374,-56.7155 944.232,-50.0513"/>
</g>
<!-- Node18&#45;&gt;Node10 -->
<g id="edge27" class="edge"><title>Node18&#45;&gt;Node10</title>
<path fill="none" stroke="midnightblue" d="M1005.62,-102.147C1008.1,-88.4465 1012.94,-69.9396 1022.16,-56 1032.51,-40.3627 1049.96,-27.4304 1062.43,-19.5037"/>
<polygon fill="midnightblue" stroke="midnightblue" points="1002.12,-101.902 1004.05,-112.319 1009.03,-102.971 1002.12,-101.902"/>
</g>
<!-- Node18&#45;&gt;Node15 -->
<g id="edge26" class="edge"><title>Node18&#45;&gt;Node15</title>
<path fill="none" stroke="midnightblue" d="M943.811,-110.727C884.852,-100.523 795.5,-85.0583 740.369,-75.5164"/>
<polygon fill="midnightblue" stroke="midnightblue" points="943.275,-114.187 953.726,-112.444 944.469,-107.289 943.275,-114.187"/>
</g>
<!-- Node18&#45;&gt;Node19 -->
<g id="edge20" class="edge"><title>Node18&#45;&gt;Node19</title>
<path fill="none" stroke="midnightblue" d="M1023.2,-106.38C1036.57,-96.6204 1053.72,-84.1057 1065.06,-75.8339"/>
<polygon fill="midnightblue" stroke="midnightblue" points="1021.07,-103.602 1015.05,-112.324 1025.19,-109.257 1021.07,-103.602"/>
</g>
<!-- Node18&#45;&gt;Node20 -->
<g id="edge22" class="edge"><title>Node18&#45;&gt;Node20</title>
<path fill="none" stroke="midnightblue" d="M1042.96,-109.568C1078.43,-99.381 1129.53,-84.7034 1161.51,-75.5164"/>
<polygon fill="midnightblue" stroke="midnightblue" points="1041.6,-106.319 1032.95,-112.444 1043.53,-113.047 1041.6,-106.319"/>
</g>
<!-- Node18&#45;&gt;Node21 -->
<g id="edge24" class="edge"><title>Node18&#45;&gt;Node21</title>
<path fill="none" stroke="midnightblue" d="M939.311,-111.994C711.583,-88.1993 651.702,-99.5476 428.163,-76 425.262,-75.6944 422.29,-75.358 419.291,-75.0003"/>
<polygon fill="midnightblue" stroke="midnightblue" points="939.267,-115.509 949.579,-113.079 940.002,-108.547 939.267,-115.509"/>
</g>
<!-- Node19&#45;&gt;Node10 -->
<g id="edge21" class="edge"><title>Node19&#45;&gt;Node10</title>
<path fill="none" stroke="midnightblue" d="M1077.16,-45.8045C1077.16,-36.9102 1077.16,-26.7798 1077.16,-19.7511"/>
<polygon fill="midnightblue" stroke="midnightblue" points="1073.66,-46.083 1077.16,-56.083 1080.66,-46.083 1073.66,-46.083"/>
</g>
<!-- Node20&#45;&gt;Node10 -->
<g id="edge23" class="edge"><title>Node20&#45;&gt;Node10</title>
<path fill="none" stroke="midnightblue" d="M1163.92,-52.096C1142.62,-42.0073 1113.62,-28.2697 1095.14,-19.5164"/>
<polygon fill="midnightblue" stroke="midnightblue" points="1162.56,-55.3257 1173.1,-56.4435 1165.56,-48.9995 1162.56,-55.3257"/>
</g>
<!-- Node21&#45;&gt;Node10 -->
<g id="edge25" class="edge"><title>Node21&#45;&gt;Node10</title>
<path fill="none" stroke="midnightblue" d="M429.464,-55.9356C658.058,-32.2969 918.111,-18.4731 1026.15,-13.3118"/>
<polygon fill="midnightblue" stroke="midnightblue" points="428.874,-52.4781 419.291,-56.9963 429.6,-59.4403 428.874,-52.4781"/>
</g>
<!-- Node24&#45;&gt;Node8 -->
<g id="edge38" class="edge"><title>Node24&#45;&gt;Node8</title>
<path fill="none" stroke="midnightblue" d="M230.16,-159.483C222.723,-145.179 216.088,-125.235 227.163,-112 256.284,-77.1996 383.638,-84.7552 428.163,-76 431.236,-75.3957 434.431,-74.7474 437.626,-74.0859"/>
<polygon fill="midnightblue" stroke="midnightblue" points="227.221,-161.395 235.229,-168.333 233.296,-157.916 227.221,-161.395"/>
</g>
<!-- Node24&#45;&gt;Node12 -->
<g id="edge40" class="edge"><title>Node24&#45;&gt;Node12</title>
<path fill="none" stroke="midnightblue" d="M276.428,-165.172C306.744,-155.004 349.733,-140.585 376.771,-131.516"/>
<polygon fill="midnightblue" stroke="midnightblue" points="275.042,-161.945 266.674,-168.444 277.268,-168.582 275.042,-161.945"/>
</g>
<!-- Node24&#45;&gt;Node15 -->
<g id="edge43" class="edge"><title>Node24&#45;&gt;Node15</title>
<path fill="none" stroke="midnightblue" d="M241.295,-158.049C242.495,-143.151 246.745,-123.119 260.163,-112 323.432,-59.5726 546.583,-85.8126 628.163,-76 631.234,-75.6306 634.388,-75.2343 637.568,-74.8214"/>
<polygon fill="midnightblue" stroke="midnightblue" points="237.792,-158.07 240.871,-168.208 244.785,-158.363 237.792,-158.07"/>
</g>
<!-- Node24&#45;&gt;Node18 -->
<g id="edge41" class="edge"><title>Node24&#45;&gt;Node18</title>
<path fill="none" stroke="midnightblue" d="M289.642,-175.176C403.441,-170.611 696.477,-157.212 940.163,-132 943.24,-131.682 946.398,-131.325 949.582,-130.943"/>
<polygon fill="midnightblue" stroke="midnightblue" points="289.368,-171.684 279.515,-175.578 289.646,-178.678 289.368,-171.684"/>
</g>
<!-- Node24&#45;&gt;Node21 -->
<g id="edge42" class="edge"><title>Node24&#45;&gt;Node21</title>
<path fill="none" stroke="midnightblue" d="M216.943,-162.954C197.459,-149.855 175.417,-129.728 189.163,-112 203.868,-93.035 263.505,-80.6654 309.113,-73.7818"/>
<polygon fill="midnightblue" stroke="midnightblue" points="215.261,-166.032 225.578,-168.444 219.017,-160.125 215.261,-166.032"/>
</g>
<!-- Node24&#45;&gt;Node22 -->
<g id="edge39" class="edge"><title>Node24&#45;&gt;Node22</title>
<path fill="none" stroke="midnightblue" d="M259.717,-161.82C271.541,-152.145 286.449,-139.948 296.366,-131.834"/>
<polygon fill="midnightblue" stroke="midnightblue" points="257.29,-159.283 251.767,-168.324 261.723,-164.7 257.29,-159.283"/>
</g>
<!-- Node24&#45;&gt;Node23 -->
<g id="edge37" class="edge"><title>Node24&#45;&gt;Node23</title>
<path fill="none" stroke="midnightblue" d="M201.997,-165.568C167.098,-155.381 116.814,-140.703 85.3396,-131.516"/>
<polygon fill="midnightblue" stroke="midnightblue" points="201.269,-169.001 211.849,-168.444 203.23,-162.282 201.269,-169.001"/>
</g>
<!-- Node25 -->
<g id="node25" class="node"><title>Node25</title>
<g id="a_node25"><a xlink:href="protocol__spec_8h.html" target="_top" xlink:title="spec/protocol_spec.h">
<polygon fill="white" stroke="black" points="127.163,-56.5 127.163,-75.5 237.163,-75.5 237.163,-56.5 127.163,-56.5"/>
<text text-anchor="middle" x="182.163" y="-63.5" font-family="Helvetica,sans-Serif" font-size="10.00">spec/protocol_spec.h</text>
</a>
</g>
</g>
<!-- Node24&#45;&gt;Node25 -->
<g id="edge44" class="edge"><title>Node24&#45;&gt;Node25</title>
<path fill="none" stroke="midnightblue" d="M194.385,-164.85C177.785,-158.042 160.836,-147.652 151.163,-132 139.332,-112.857 159.464,-88.4986 172.46,-75.7232"/>
<polygon fill="midnightblue" stroke="midnightblue" points="193.468,-168.244 204.061,-168.458 195.913,-161.685 193.468,-168.244"/>
</g>
<!-- Node25&#45;&gt;Node10 -->
<g id="edge45" class="edge"><title>Node25&#45;&gt;Node10</title>
<path fill="none" stroke="midnightblue" d="M247.799,-59.7798C264.846,-58.4827 283.187,-57.1389 300.163,-56 573.508,-37.662 901.253,-20.1448 1025.77,-13.6508"/>
<polygon fill="midnightblue" stroke="midnightblue" points="247.08,-56.3246 237.377,-60.5791 247.615,-63.3041 247.08,-56.3246"/>
</g>
<!-- Node28&#45;&gt;Node10 -->
<g id="edge51" class="edge"><title>Node28&#45;&gt;Node10</title>
<path fill="none" stroke="midnightblue" d="M1610,-158.456C1601.26,-130.894 1580.72,-79.8172 1543.16,-56 1475.38,-13.0157 1234.83,-9.57138 1128.43,-10.2418"/>
<polygon fill="midnightblue" stroke="midnightblue" points="1606.75,-159.792 1612.96,-168.376 1613.46,-157.793 1606.75,-159.792"/>
</g>
<!-- Node29&#45;&gt;Node10 -->
<g id="edge53" class="edge"><title>Node29&#45;&gt;Node10</title>
<path fill="none" stroke="midnightblue" d="M1339.49,-159.627C1346.85,-145.967 1353.64,-126.833 1345.16,-112 1302.12,-36.6636 1193.24,-17.1039 1128.27,-12.2854"/>
<polygon fill="midnightblue" stroke="midnightblue" points="1336.34,-158.082 1334.24,-168.467 1342.36,-161.656 1336.34,-158.082"/>
</g>
<!-- Node30&#45;&gt;Node10 -->
<g id="edge58" class="edge"><title>Node30&#45;&gt;Node10</title>
<path fill="none" stroke="midnightblue" d="M1433.49,-160.21C1412.33,-133.502 1367.1,-81.7336 1316.16,-56 1256.24,-25.7262 1178.56,-15.699 1128.29,-12.4467"/>
<polygon fill="midnightblue" stroke="midnightblue" points="1430.82,-162.478 1439.71,-168.234 1436.35,-158.187 1430.82,-162.478"/>
</g>
<!-- Node31&#45;&gt;Node10 -->
<g id="edge61" class="edge"><title>Node31&#45;&gt;Node10</title>
<path fill="none" stroke="midnightblue" d="M1631.78,-221.467C1661.47,-211.496 1692.12,-194.448 1681.16,-168 1654.22,-102.962 1632.9,-85.8765 1569.16,-56 1491.98,-19.825 1238.09,-12.6966 1128.4,-11.3175"/>
<polygon fill="midnightblue" stroke="midnightblue" points="1630.73,-218.129 1622.23,-224.458 1632.82,-224.809 1630.73,-218.129"/>
</g>
<!-- Node32&#45;&gt;Node10 -->
<g id="edge63" class="edge"><title>Node32&#45;&gt;Node10</title>
<path fill="none" stroke="midnightblue" d="M1461.78,-221.345C1491.59,-210.9 1523.48,-193.299 1510.16,-168 1469.23,-90.2138 1428.67,-88.8957 1347.16,-56 1274.67,-26.7438 1183.86,-16.5056 1128.2,-12.9243"/>
<polygon fill="midnightblue" stroke="midnightblue" points="1460.64,-218.035 1452.23,-224.485 1462.83,-224.684 1460.64,-218.035"/>
</g>
</g>
</svg>
        <g id="navigator" transform="translate(0 0)" fill="#404254">
                <rect fill="#f2f5e9" fill-opacity="0.5" stroke="#606060" stroke-width=".5" x="0" y="0" width="60" height="60"/>
                <use id="zoomplus" xlink:href="#zoomPlus" x="17" y="9" onmousedown="handleZoom(evt,'in')"/>
                <use id="zoomminus" xlink:href="#zoomMin" x="42" y="9" onmousedown="handleZoom(evt,'out')"/>
                <use id="reset" xlink:href="#resetDef" x="30" y="36" onmousedown="handleReset()"/>
                <g id="arrowUp" xlink:href="#dirArrow" transform="translate(30 24)" onmousedown="handlePan(0,-1)">
                  <use xlink:href="#rim" fill="#404040">
                        <set attributeName="fill" to="#808080" begin="arrowUp.mouseover" end="arrowUp.mouseout"/>
                  </use>
                  <path fill="none" stroke="white" stroke-width="1.5" d="M0,-3.0v7 M-2.5,-0.5L0,-3.0L2.5,-0.5"/>
                </g>
                <g id="arrowRight" xlink:href="#dirArrow" transform="rotate(90) translate(36 -43)" onmousedown="handlePan(1,0)">
                  <use xlink:href="#rim" fill="#404040">
                        <set attributeName="fill" to="#808080" begin="arrowRight.mouseover" end="arrowRight.mouseout"/>
                  </use>
                  <path fill="none" stroke="white" stroke-width="1.5" d="M0,-3.0v7 M-2.5,-0.5L0,-3.0L2.5,-0.5"/>
                </g>
                <g id="arrowDown" xlink:href="#dirArrow" transform="rotate(180) translate(-30 -48)" onmousedown="handlePan(0,1)">
                  <use xlink:href="#rim" fill="#404040">
                        <set attributeName="fill" to="#808080" begin="arrowDown.mouseover" end="arrowDown.mouseout"/>
                  </use>
                  <path fill="none" stroke="white" stroke-width="1.5" d="M0,-3.0v7 M-2.5,-0.5L0,-3.0L2.5,-0.5"/>
                </g>
                <g id="arrowLeft" xlink:href="#dirArrow" transform="rotate(270) translate(-36 17)" onmousedown="handlePan(-1,0)">
                  <use xlink:href="#rim" fill="#404040">
                        <set attributeName="fill" to="#808080" begin="arrowLeft.mouseover" end="arrowLeft.mouseout"/>
                  </use>
                  <path fill="none" stroke="white" stroke-width="1.5" d="M0,-3.0v7 M-2.5,-0.5L0,-3.0L2.5,-0.5"/>
                </g>
        </g>
        <svg viewBox="0 0 15 15" width="100%" height="30px" preserveAspectRatio="xMaxYMin meet">
         <g id="arrow_out" transform="scale(0.3 0.3)">
          <a xlink:href="scape_8h__dep__incl_org.svg" target="_base">
           <rect id="button" ry="5" rx="5" y="6" x="6" height="38" width="38"
                fill="#f2f5e9" fill-opacity="0.5" stroke="#606060" stroke-width="1.0"/>
           <path id="arrow"
             d="M 11.500037,31.436501 C 11.940474,20.09759 22.043105,11.32322 32.158766,21.979434 L 37.068811,17.246167 C 37.068811,17.246167 37.088388,32 37.088388,32 L 22.160133,31.978069 C 22.160133,31.978069 26.997745,27.140456 26.997745,27.140456 C 18.528582,18.264221 13.291696,25.230495 11.500037,31.436501 z"
             style="fill:#404040;"/>
          </a>
         </g>
        </svg>
</svg>
