<?xml version="1.0" encoding="UTF-8" standalone="no"?>
<!DOCTYPE svg PUBLIC "-//W3C//DTD SVG 1.1//EN"
 "http://www.w3.org/Graphics/SVG/1.1/DTD/svg11.dtd">
<!-- Generated by graphviz version 2.38.0 (20140413.2041)
 -->
<!-- Title: spec/scape_spec.h Pages: 1 -->
<!--zoomable 476 -->
<svg id="main" version="1.1" xmlns="http://www.w3.org/2000/svg" xmlns:xlink="http://www.w3.org/1999/xlink" xml:space="preserve" onload="init(evt)">
<style type="text/css"><![CDATA[
.edge:hover path { stroke: red; }
.edge:hover polygon { stroke: red; fill: red; }
]]></style>
<script type="text/javascript"><![CDATA[
var edges = document.getElementsByTagName('g');
if (edges && edges.length) {
  for (var i=0;i<edges.length;i++) {
    if (edges[i].id.substr(0,4)=='edge') {
      edges[i].setAttribute('class','edge');
    }
  }
}
]]></script>
        <defs>
                <circle id="rim" cx="0" cy="0" r="7"/>
                <circle id="rim2" cx="0" cy="0" r="3.5"/>
                <g id="zoomPlus">
                        <use xlink:href="#rim" fill="#404040">
                                <set attributeName="fill" to="#808080" begin="zoomplus.mouseover" end="zoomplus.mouseout"/>
                        </use>
                        <path d="M-4,0h8M0,-4v8" fill="none" stroke="white" stroke-width="1.5" pointer-events="none"/>
                </g>
                <g id="zoomMin">
                        <use xlink:href="#rim" fill="#404040">
                                <set attributeName="fill" to="#808080" begin="zoomminus.mouseover" end="zoomminus.mouseout"/>
                        </use>
                        <path d="M-4,0h8" fill="none" stroke="white" stroke-width="1.5" pointer-events="none"/>
                </g>
                <g id="dirArrow">
                        <path fill="none" stroke="white" stroke-width="1.5" d="M0,-3.0v7 M-2.5,-0.5L0,-3.0L2.5,-0.5"/>
                </g>
               <g id="resetDef">
                       <use xlink:href="#rim2" fill="#404040">
                               <set attributeName="fill" to="#808080" begin="reset.mouseover" end="reset.mouseout"/>
                       </use>
               </g>
        </defs>

<script type="text/javascript">
var viewWidth = 938;
var viewHeight = 476;
var sectionId = 'dynsection-0';
</script>
<script xlink:href="svgpan.js"/>
<svg id="graph" class="graph">
<g id="viewport">
<title>spec/scape_spec.h</title>
<polygon fill="white" stroke="none" points="-4,4 -4,-472 933.5,-472 933.5,4 -4,4"/>
<!-- Node1 -->
<g id="node1" class="node"><title>Node1</title>
<polygon fill="#bfbfbf" stroke="black" points="557.5,-448.5 557.5,-467.5 658.5,-467.5 658.5,-448.5 557.5,-448.5"/>
<text text-anchor="middle" x="608" y="-455.5" font-family="Helvetica,sans-Serif" font-size="10.00">spec/scape_spec.h</text>
</g>
<!-- Node2 -->
<g id="node2" class="node"><title>Node2</title>
<g id="a_node2"><a xlink:href="ceptr_8h_source.html" target="_top" xlink:title="../src/ceptr.h">
<polygon fill="white" stroke="black" points="273,-336.5 273,-355.5 345,-355.5 345,-336.5 273,-336.5"/>
<text text-anchor="middle" x="309" y="-343.5" font-family="Helvetica,sans-Serif" font-size="10.00">../src/ceptr.h</text>
</a>
</g>
</g>
<!-- Node1&#45;&gt;Node2 -->
<g id="edge1" class="edge"><title>Node1&#45;&gt;Node2</title>
<path fill="none" stroke="midnightblue" d="M584.538,-448.368C531.592,-428.89 402.72,-381.479 341.86,-359.089"/>
<polygon fill="midnightblue" stroke="midnightblue" points="342.947,-355.759 332.353,-355.591 340.53,-362.329 342.947,-355.759"/>
</g>
<!-- Node22 -->
<g id="node22" class="node"><title>Node22</title>
<g id="a_node22"><a xlink:href="scape_8h.html" target="_top" xlink:title="scape header files ">
<polygon fill="white" stroke="black" points="569.5,-336.5 569.5,-355.5 646.5,-355.5 646.5,-336.5 569.5,-336.5"/>
<text text-anchor="middle" x="608" y="-343.5" font-family="Helvetica,sans-Serif" font-size="10.00">../src/scape.h</text>
</a>
</g>
</g>
<!-- Node1&#45;&gt;Node22 -->
<g id="edge38" class="edge"><title>Node1&#45;&gt;Node22</title>
<path fill="none" stroke="midnightblue" d="M608,-448.368C608,-430.617 608,-389.666 608,-365.597"/>
<polygon fill="midnightblue" stroke="midnightblue" points="611.5,-365.591 608,-355.591 604.5,-365.591 611.5,-365.591"/>
</g>
<!-- Node23 -->
<g id="node23" class="node"><title>Node23</title>
<g id="a_node23"><a xlink:href="receptor_8h.html" target="_top" xlink:title="receptor implementation header file ">
<polygon fill="white" stroke="black" points="663,-392.5 663,-411.5 749,-411.5 749,-392.5 663,-392.5"/>
<text text-anchor="middle" x="706" y="-399.5" font-family="Helvetica,sans-Serif" font-size="10.00">../src/receptor.h</text>
</a>
</g>
</g>
<!-- Node1&#45;&gt;Node23 -->
<g id="edge40" class="edge"><title>Node1&#45;&gt;Node23</title>
<path fill="none" stroke="midnightblue" d="M623.745,-448.324C639.319,-439.743 663.377,-426.486 681.459,-416.522"/>
<polygon fill="midnightblue" stroke="midnightblue" points="683.224,-419.546 690.294,-411.655 679.846,-413.415 683.224,-419.546"/>
</g>
<!-- Node3 -->
<g id="node3" class="node"><title>Node3</title>
<polygon fill="white" stroke="#bfbfbf" points="439.5,-0.5 439.5,-19.5 488.5,-19.5 488.5,-0.5 439.5,-0.5"/>
<text text-anchor="middle" x="464" y="-7.5" font-family="Helvetica,sans-Serif" font-size="10.00">string.h</text>
</g>
<!-- Node2&#45;&gt;Node3 -->
<g id="edge2" class="edge"><title>Node2&#45;&gt;Node3</title>
<path fill="none" stroke="midnightblue" d="M272.949,-339.967C191.438,-327.577 0,-292.371 0,-235 0,-235 0,-235 0,-121 0,-32.7675 321.675,-15.2051 429.355,-11.7978"/>
<polygon fill="midnightblue" stroke="midnightblue" points="429.488,-15.2955 439.381,-11.5025 429.282,-8.29858 429.488,-15.2955"/>
</g>
<!-- Node4 -->
<g id="node4" class="node"><title>Node4</title>
<polygon fill="white" stroke="#bfbfbf" points="28,-168.5 28,-187.5 74,-187.5 74,-168.5 28,-168.5"/>
<text text-anchor="middle" x="51" y="-175.5" font-family="Helvetica,sans-Serif" font-size="10.00">stdio.h</text>
</g>
<!-- Node2&#45;&gt;Node4 -->
<g id="edge3" class="edge"><title>Node2&#45;&gt;Node4</title>
<path fill="none" stroke="midnightblue" d="M272.769,-342.127C236.367,-337.779 179.939,-326.928 139,-300 99.5338,-274.041 71.7309,-223.901 58.9371,-197.036"/>
<polygon fill="midnightblue" stroke="midnightblue" points="61.9951,-195.308 54.6434,-187.679 55.6329,-198.228 61.9951,-195.308"/>
</g>
<!-- Node5 -->
<g id="node5" class="node"><title>Node5</title>
<polygon fill="white" stroke="#bfbfbf" points="806,-0.5 806,-19.5 854,-19.5 854,-0.5 806,-0.5"/>
<text text-anchor="middle" x="830" y="-7.5" font-family="Helvetica,sans-Serif" font-size="10.00">stdlib.h</text>
</g>
<!-- Node2&#45;&gt;Node5 -->
<g id="edge4" class="edge"><title>Node2&#45;&gt;Node5</title>
<path fill="none" stroke="midnightblue" d="M345.28,-343.869C430.486,-340.738 640.933,-330.102 704,-300 773.206,-266.969 827,-255.684 827,-179 827,-179 827,-179 827,-121 827,-88.9361 828.289,-51.6344 829.178,-29.7446"/>
<polygon fill="midnightblue" stroke="midnightblue" points="832.683,-29.6944 829.608,-19.5556 825.689,-29.399 832.683,-29.6944"/>
</g>
<!-- Node6 -->
<g id="node6" class="node"><title>Node6</title>
<g id="a_node6"><a xlink:href="ceptr__error_8h_source.html" target="_top" xlink:title="ceptr_error.h">
<polygon fill="white" stroke="black" points="212.5,-224.5 212.5,-243.5 283.5,-243.5 283.5,-224.5 212.5,-224.5"/>
<text text-anchor="middle" x="248" y="-231.5" font-family="Helvetica,sans-Serif" font-size="10.00">ceptr_error.h</text>
</a>
</g>
</g>
<!-- Node2&#45;&gt;Node6 -->
<g id="edge5" class="edge"><title>Node2&#45;&gt;Node6</title>
<path fill="none" stroke="midnightblue" d="M304.213,-336.368C294.236,-318.376 271.042,-276.55 257.775,-252.627"/>
<polygon fill="midnightblue" stroke="midnightblue" points="260.675,-250.639 252.764,-243.591 254.553,-254.034 260.675,-250.639"/>
</g>
<!-- Node10 -->
<g id="node10" class="node"><title>Node10</title>
<g id="a_node10"><a xlink:href="tree_8h.html" target="_top" xlink:title="semantic trees header file ">
<polygon fill="white" stroke="black" points="654.5,-280.5 654.5,-299.5 695.5,-299.5 695.5,-280.5 654.5,-280.5"/>
<text text-anchor="middle" x="675" y="-287.5" font-family="Helvetica,sans-Serif" font-size="10.00">tree.h</text>
</a>
</g>
</g>
<!-- Node2&#45;&gt;Node10 -->
<g id="edge10" class="edge"><title>Node2&#45;&gt;Node10</title>
<path fill="none" stroke="midnightblue" d="M345.095,-339.674C416.993,-329.067 576.947,-305.467 644.234,-295.539"/>
<polygon fill="midnightblue" stroke="midnightblue" points="644.827,-298.99 654.209,-294.067 643.806,-292.065 644.827,-298.99"/>
</g>
<!-- Node19 -->
<g id="node19" class="node"><title>Node19</title>
<g id="a_node19"><a xlink:href="mtree_8h.html" target="_top" xlink:title="semantic tree matrix header file `` ">
<polygon fill="white" stroke="black" points="344,-280.5 344,-299.5 394,-299.5 394,-280.5 344,-280.5"/>
<text text-anchor="middle" x="369" y="-287.5" font-family="Helvetica,sans-Serif" font-size="10.00">mtree.h</text>
</a>
</g>
</g>
<!-- Node2&#45;&gt;Node19 -->
<g id="edge27" class="edge"><title>Node2&#45;&gt;Node19</title>
<path fill="none" stroke="midnightblue" d="M318.64,-336.324C327.51,-328.341 340.875,-316.313 351.608,-306.653"/>
<polygon fill="midnightblue" stroke="midnightblue" points="354.093,-309.125 359.185,-299.834 349.41,-303.922 354.093,-309.125"/>
</g>
<!-- Node20 -->
<g id="node20" class="node"><title>Node20</title>
<g id="a_node20"><a xlink:href="util_8h.html" target="_top" xlink:title="util.h">
<polygon fill="white" stroke="black" points="148,-280.5 148,-299.5 186,-299.5 186,-280.5 148,-280.5"/>
<text text-anchor="middle" x="167" y="-287.5" font-family="Helvetica,sans-Serif" font-size="10.00">util.h</text>
</a>
</g>
</g>
<!-- Node2&#45;&gt;Node20 -->
<g id="edge35" class="edge"><title>Node2&#45;&gt;Node20</title>
<path fill="none" stroke="midnightblue" d="M286.5,-336.444C261.952,-327.108 222.587,-312.139 195.801,-301.952"/>
<polygon fill="midnightblue" stroke="midnightblue" points="196.798,-298.587 186.207,-298.304 194.31,-305.13 196.798,-298.587"/>
</g>
<!-- Node6&#45;&gt;Node4 -->
<g id="edge6" class="edge"><title>Node6&#45;&gt;Node4</title>
<path fill="none" stroke="midnightblue" d="M216.348,-224.447C185.064,-215.977 135.585,-202.533 83.7653,-188.197"/>
<polygon fill="midnightblue" stroke="midnightblue" points="84.6374,-184.807 74.0659,-185.511 82.769,-191.553 84.6374,-184.807"/>
</g>
<!-- Node7 -->
<g id="node7" class="node"><title>Node7</title>
<polygon fill="white" stroke="#bfbfbf" points="164,-168.5 164,-187.5 214,-187.5 214,-168.5 164,-168.5"/>
<text text-anchor="middle" x="189" y="-175.5" font-family="Helvetica,sans-Serif" font-size="10.00">signal.h</text>
</g>
<!-- Node6&#45;&gt;Node7 -->
<g id="edge7" class="edge"><title>Node6&#45;&gt;Node7</title>
<path fill="none" stroke="midnightblue" d="M238.521,-224.324C229.799,-216.341 216.657,-204.313 206.102,-194.653"/>
<polygon fill="midnightblue" stroke="midnightblue" points="208.392,-192.004 198.652,-187.834 203.666,-197.167 208.392,-192.004"/>
</g>
<!-- Node8 -->
<g id="node8" class="node"><title>Node8</title>
<polygon fill="white" stroke="#bfbfbf" points="232,-168.5 232,-187.5 284,-187.5 284,-168.5 232,-168.5"/>
<text text-anchor="middle" x="258" y="-175.5" font-family="Helvetica,sans-Serif" font-size="10.00">assert.h</text>
</g>
<!-- Node6&#45;&gt;Node8 -->
<g id="edge8" class="edge"><title>Node6&#45;&gt;Node8</title>
<path fill="none" stroke="midnightblue" d="M249.651,-224.083C250.976,-216.927 252.882,-206.635 254.539,-197.691"/>
<polygon fill="midnightblue" stroke="midnightblue" points="258,-198.221 256.379,-187.751 251.117,-196.947 258,-198.221"/>
</g>
<!-- Node9 -->
<g id="node9" class="node"><title>Node9</title>
<polygon fill="white" stroke="#bfbfbf" points="92,-168.5 92,-187.5 146,-187.5 146,-168.5 92,-168.5"/>
<text text-anchor="middle" x="119" y="-175.5" font-family="Helvetica,sans-Serif" font-size="10.00">setjmp.h</text>
</g>
<!-- Node6&#45;&gt;Node9 -->
<g id="edge9" class="edge"><title>Node6&#45;&gt;Node9</title>
<path fill="none" stroke="midnightblue" d="M227.56,-224.444C206.33,-215.557 172.901,-201.563 148.745,-191.451"/>
<polygon fill="midnightblue" stroke="midnightblue" points="149.921,-188.149 139.345,-187.516 147.218,-194.606 149.921,-188.149"/>
</g>
<!-- Node10&#45;&gt;Node3 -->
<g id="edge11" class="edge"><title>Node10&#45;&gt;Node3</title>
<path fill="none" stroke="midnightblue" d="M679.02,-280.134C694.086,-245.432 743.141,-117.709 679,-56 653.622,-31.5848 552.96,-18.9765 498.848,-13.8466"/>
<polygon fill="midnightblue" stroke="midnightblue" points="498.959,-10.3422 488.682,-12.919 498.323,-17.3133 498.959,-10.3422"/>
</g>
<!-- Node10&#45;&gt;Node5 -->
<g id="edge12" class="edge"><title>Node10&#45;&gt;Node5</title>
<path fill="none" stroke="midnightblue" d="M695.695,-286.805C744.939,-280.323 865,-256.565 865,-179 865,-179 865,-179 865,-121 865,-87.0719 849.693,-49.9109 839.325,-28.631"/>
<polygon fill="midnightblue" stroke="midnightblue" points="842.362,-26.8822 834.72,-19.544 836.118,-30.0463 842.362,-26.8822"/>
</g>
<!-- Node10&#45;&gt;Node6 -->
<g id="edge13" class="edge"><title>Node10&#45;&gt;Node6</title>
<path fill="none" stroke="midnightblue" d="M654.405,-286.395C589.118,-278.139 385.674,-252.411 293.82,-240.795"/>
<polygon fill="midnightblue" stroke="midnightblue" points="294.071,-237.299 283.711,-239.516 293.193,-244.243 294.071,-237.299"/>
</g>
<!-- Node11 -->
<g id="node11" class="node"><title>Node11</title>
<g id="a_node11"><a xlink:href="sys__symbols_8h.html" target="_top" xlink:title="Defines hard&#45;coded system defined symbols. ">
<polygon fill="white" stroke="black" points="454.5,-224.5 454.5,-243.5 537.5,-243.5 537.5,-224.5 454.5,-224.5"/>
<text text-anchor="middle" x="496" y="-231.5" font-family="Helvetica,sans-Serif" font-size="10.00">sys_symbols.h</text>
</a>
</g>
</g>
<!-- Node10&#45;&gt;Node11 -->
<g id="edge14" class="edge"><title>Node10&#45;&gt;Node11</title>
<path fill="none" stroke="midnightblue" d="M654.466,-282.806C625.172,-273.968 570.864,-257.585 534.085,-246.489"/>
<polygon fill="midnightblue" stroke="midnightblue" points="534.797,-243.048 524.212,-243.511 532.775,-249.75 534.797,-243.048"/>
</g>
<!-- Node12 -->
<g id="node12" class="node"><title>Node12</title>
<g id="a_node12"><a xlink:href="sys__structures_8h.html" target="_top" xlink:title="Defines hard&#45;coded system defined structures. ">
<polygon fill="white" stroke="black" points="457.5,-168.5 457.5,-187.5 546.5,-187.5 546.5,-168.5 457.5,-168.5"/>
<text text-anchor="middle" x="502" y="-175.5" font-family="Helvetica,sans-Serif" font-size="10.00">sys_structures.h</text>
</a>
</g>
</g>
<!-- Node10&#45;&gt;Node12 -->
<g id="edge24" class="edge"><title>Node10&#45;&gt;Node12</title>
<path fill="none" stroke="midnightblue" d="M674.812,-280.09C674.027,-266.166 670.457,-239.266 655,-224 629.047,-198.368 589.287,-187.2 556.803,-182.398"/>
<polygon fill="midnightblue" stroke="midnightblue" points="556.909,-178.882 546.539,-181.052 555.999,-185.822 556.909,-178.882"/>
</g>
<!-- Node13 -->
<g id="node13" class="node"><title>Node13</title>
<g id="a_node13"><a xlink:href="ceptr__types_8h_source.html" target="_top" xlink:title="ceptr_types.h">
<polygon fill="white" stroke="black" points="608,-112.5 608,-131.5 684,-131.5 684,-112.5 608,-112.5"/>
<text text-anchor="middle" x="646" y="-119.5" font-family="Helvetica,sans-Serif" font-size="10.00">ceptr_types.h</text>
</a>
</g>
</g>
<!-- Node10&#45;&gt;Node13 -->
<g id="edge26" class="edge"><title>Node10&#45;&gt;Node13</title>
<path fill="none" stroke="midnightblue" d="M675.249,-280.374C675.496,-271.316 675.859,-256.659 676,-244 676.099,-235.112 677.279,-232.796 676,-224 671.673,-194.233 660.526,-161.033 653.106,-141.093"/>
<polygon fill="midnightblue" stroke="midnightblue" points="656.366,-139.817 649.528,-131.724 649.826,-142.314 656.366,-139.817"/>
</g>
<!-- Node18 -->
<g id="node18" class="node"><title>Node18</title>
<g id="a_node18"><a xlink:href="sys__processes_8h.html" target="_top" xlink:title="Defines hard&#45;coded system defined processes. ">
<polygon fill="white" stroke="black" points="555.5,-224.5 555.5,-243.5 646.5,-243.5 646.5,-224.5 555.5,-224.5"/>
<text text-anchor="middle" x="601" y="-231.5" font-family="Helvetica,sans-Serif" font-size="10.00">sys_processes.h</text>
</a>
</g>
</g>
<!-- Node10&#45;&gt;Node18 -->
<g id="edge25" class="edge"><title>Node10&#45;&gt;Node18</title>
<path fill="none" stroke="midnightblue" d="M663.111,-280.324C651.85,-272.107 634.713,-259.602 621.291,-249.807"/>
<polygon fill="midnightblue" stroke="midnightblue" points="623.247,-246.901 613.106,-243.834 619.12,-252.556 623.247,-246.901"/>
</g>
<!-- Node11&#45;&gt;Node12 -->
<g id="edge15" class="edge"><title>Node11&#45;&gt;Node12</title>
<path fill="none" stroke="midnightblue" d="M496.991,-224.083C497.786,-216.927 498.929,-206.635 499.923,-197.691"/>
<polygon fill="midnightblue" stroke="midnightblue" points="503.402,-198.076 501.028,-187.751 496.445,-197.303 503.402,-198.076"/>
</g>
<!-- Node11&#45;&gt;Node13 -->
<g id="edge23" class="edge"><title>Node11&#45;&gt;Node13</title>
<path fill="none" stroke="midnightblue" d="M507.77,-224.368C533.401,-205.573 594.498,-160.768 626.182,-137.533"/>
<polygon fill="midnightblue" stroke="midnightblue" points="628.29,-140.328 634.284,-131.591 624.151,-134.683 628.29,-140.328"/>
</g>
<!-- Node12&#45;&gt;Node13 -->
<g id="edge16" class="edge"><title>Node12&#45;&gt;Node13</title>
<path fill="none" stroke="midnightblue" d="M524.817,-168.444C548.832,-159.438 586.829,-145.189 613.869,-135.049"/>
<polygon fill="midnightblue" stroke="midnightblue" points="615.155,-138.305 623.29,-131.516 612.697,-131.751 615.155,-138.305"/>
</g>
<!-- Node14 -->
<g id="node14" class="node"><title>Node14</title>
<polygon fill="white" stroke="#bfbfbf" points="621.5,-56.5 621.5,-75.5 670.5,-75.5 670.5,-56.5 621.5,-56.5"/>
<text text-anchor="middle" x="646" y="-63.5" font-family="Helvetica,sans-Serif" font-size="10.00">stdint.h</text>
</g>
<!-- Node13&#45;&gt;Node14 -->
<g id="edge17" class="edge"><title>Node13&#45;&gt;Node14</title>
<path fill="none" stroke="midnightblue" d="M646,-112.083C646,-105.006 646,-94.8611 646,-85.9865"/>
<polygon fill="midnightblue" stroke="midnightblue" points="649.5,-85.751 646,-75.7511 642.5,-85.7511 649.5,-85.751"/>
</g>
<!-- Node15 -->
<g id="node15" class="node"><title>Node15</title>
<g id="a_node15"><a xlink:href="uthash_8h_source.html" target="_top" xlink:title="uthash.h">
<polygon fill="white" stroke="black" points="739,-56.5 739,-75.5 793,-75.5 793,-56.5 739,-56.5"/>
<text text-anchor="middle" x="766" y="-63.5" font-family="Helvetica,sans-Serif" font-size="10.00">uthash.h</text>
</a>
</g>
</g>
<!-- Node13&#45;&gt;Node15 -->
<g id="edge18" class="edge"><title>Node13&#45;&gt;Node15</title>
<path fill="none" stroke="midnightblue" d="M665.014,-112.444C684.588,-103.636 715.308,-89.8116 737.729,-79.722"/>
<polygon fill="midnightblue" stroke="midnightblue" points="739.392,-82.8119 747.075,-75.5164 736.519,-76.4284 739.392,-82.8119"/>
</g>
<!-- Node15&#45;&gt;Node3 -->
<g id="edge19" class="edge"><title>Node15&#45;&gt;Node3</title>
<path fill="none" stroke="midnightblue" d="M738.689,-58.8242C734.125,-57.8441 729.434,-56.8684 725,-56 644.116,-40.1581 548.54,-24.4388 498.501,-16.4372"/>
<polygon fill="midnightblue" stroke="midnightblue" points="498.963,-12.9666 488.537,-14.8496 497.861,-19.8795 498.963,-12.9666"/>
</g>
<!-- Node15&#45;&gt;Node5 -->
<g id="edge21" class="edge"><title>Node15&#45;&gt;Node5</title>
<path fill="none" stroke="midnightblue" d="M776.283,-56.324C785.836,-48.2631 800.28,-36.0765 811.784,-26.3695"/>
<polygon fill="midnightblue" stroke="midnightblue" points="814.144,-28.9577 819.53,-19.8339 809.63,-23.6076 814.144,-28.9577"/>
</g>
<!-- Node16 -->
<g id="node16" class="node"><title>Node16</title>
<polygon fill="white" stroke="#bfbfbf" points="736,-0.5 736,-19.5 788,-19.5 788,-0.5 736,-0.5"/>
<text text-anchor="middle" x="762" y="-7.5" font-family="Helvetica,sans-Serif" font-size="10.00">stddef.h</text>
</g>
<!-- Node15&#45;&gt;Node16 -->
<g id="edge20" class="edge"><title>Node15&#45;&gt;Node16</title>
<path fill="none" stroke="midnightblue" d="M765.339,-56.083C764.815,-49.0059 764.064,-38.8611 763.406,-29.9865"/>
<polygon fill="midnightblue" stroke="midnightblue" points="766.877,-29.4652 762.648,-19.7511 759.897,-29.9823 766.877,-29.4652"/>
</g>
<!-- Node17 -->
<g id="node17" class="node"><title>Node17</title>
<polygon fill="white" stroke="#bfbfbf" points="658.5,-0.5 658.5,-19.5 717.5,-19.5 717.5,-0.5 658.5,-0.5"/>
<text text-anchor="middle" x="688" y="-7.5" font-family="Helvetica,sans-Serif" font-size="10.00">inttypes.h</text>
</g>
<!-- Node15&#45;&gt;Node17 -->
<g id="edge22" class="edge"><title>Node15&#45;&gt;Node17</title>
<path fill="none" stroke="midnightblue" d="M753.468,-56.324C741.414,-47.979 722.973,-35.2122 708.731,-25.3524"/>
<polygon fill="midnightblue" stroke="midnightblue" points="710.715,-22.469 700.501,-19.6545 706.731,-28.2243 710.715,-22.469"/>
</g>
<!-- Node19&#45;&gt;Node3 -->
<g id="edge28" class="edge"><title>Node19&#45;&gt;Node3</title>
<path fill="none" stroke="midnightblue" d="M360.833,-280.384C345.072,-262.812 312,-220.942 312,-179 312,-179 312,-179 312,-121 312,-90.2048 314.055,-77.6046 336,-56 361.191,-31.2001 400.834,-20.0122 429.328,-14.9996"/>
<polygon fill="midnightblue" stroke="midnightblue" points="429.948,-18.4451 439.274,-13.4185 428.849,-11.5319 429.948,-18.4451"/>
</g>
<!-- Node19&#45;&gt;Node5 -->
<g id="edge29" class="edge"><title>Node19&#45;&gt;Node5</title>
<path fill="none" stroke="midnightblue" d="M366.438,-280.249C361.251,-261.738 350,-217.179 350,-179 350,-179 350,-179 350,-121 350,-22.1461 677.744,-41.8426 795.8,-19.8986"/>
<polygon fill="midnightblue" stroke="midnightblue" points="796.826,-23.2601 805.902,-17.7936 795.398,-16.4074 796.826,-23.2601"/>
</g>
<!-- Node19&#45;&gt;Node6 -->
<g id="edge30" class="edge"><title>Node19&#45;&gt;Node6</title>
<path fill="none" stroke="midnightblue" d="M349.827,-280.444C330.091,-271.636 299.115,-257.812 276.507,-247.722"/>
<polygon fill="midnightblue" stroke="midnightblue" points="277.641,-244.396 267.083,-243.516 274.789,-250.788 277.641,-244.396"/>
</g>
<!-- Node19&#45;&gt;Node11 -->
<g id="edge31" class="edge"><title>Node19&#45;&gt;Node11</title>
<path fill="none" stroke="midnightblue" d="M389.124,-280.444C410.024,-271.557 442.935,-257.563 466.716,-247.451"/>
<polygon fill="midnightblue" stroke="midnightblue" points="468.138,-250.65 475.971,-243.516 465.398,-244.208 468.138,-250.65"/>
</g>
<!-- Node19&#45;&gt;Node12 -->
<g id="edge32" class="edge"><title>Node19&#45;&gt;Node12</title>
<path fill="none" stroke="midnightblue" d="M378.734,-280.462C393.091,-267.916 420.856,-243.842 445,-224 457.451,-213.767 471.68,-202.534 482.806,-193.85"/>
<polygon fill="midnightblue" stroke="midnightblue" points="485.226,-196.402 490.971,-187.501 480.928,-190.876 485.226,-196.402"/>
</g>
<!-- Node19&#45;&gt;Node13 -->
<g id="edge34" class="edge"><title>Node19&#45;&gt;Node13</title>
<path fill="none" stroke="midnightblue" d="M372.009,-280.334C380.275,-257.881 405.579,-197.519 448,-168 492.508,-137.029 555.013,-127.03 597.819,-123.982"/>
<polygon fill="midnightblue" stroke="midnightblue" points="598.217,-127.464 607.985,-123.362 597.79,-120.477 598.217,-127.464"/>
</g>
<!-- Node19&#45;&gt;Node18 -->
<g id="edge33" class="edge"><title>Node19&#45;&gt;Node18</title>
<path fill="none" stroke="midnightblue" d="M394.27,-283.118C432.644,-274.186 506.238,-257.057 554.468,-245.831"/>
<polygon fill="midnightblue" stroke="midnightblue" points="555.407,-249.206 564.353,-243.53 553.82,-242.388 555.407,-249.206"/>
</g>
<!-- Node20&#45;&gt;Node4 -->
<g id="edge37" class="edge"><title>Node20&#45;&gt;Node4</title>
<path fill="none" stroke="midnightblue" d="M157.898,-280.368C138.416,-261.894 92.4358,-218.293 67.6023,-194.744"/>
<polygon fill="midnightblue" stroke="midnightblue" points="69.7246,-191.933 60.06,-187.591 64.908,-197.012 69.7246,-191.933"/>
</g>
<!-- Node21 -->
<g id="node21" class="node"><title>Node21</title>
<polygon fill="white" stroke="#bfbfbf" points="142.5,-224.5 142.5,-243.5 191.5,-243.5 191.5,-224.5 142.5,-224.5"/>
<text text-anchor="middle" x="167" y="-231.5" font-family="Helvetica,sans-Serif" font-size="10.00">ctype.h</text>
</g>
<!-- Node20&#45;&gt;Node21 -->
<g id="edge36" class="edge"><title>Node20&#45;&gt;Node21</title>
<path fill="none" stroke="midnightblue" d="M167,-280.083C167,-273.006 167,-262.861 167,-253.986"/>
<polygon fill="midnightblue" stroke="midnightblue" points="170.5,-253.751 167,-243.751 163.5,-253.751 170.5,-253.751"/>
</g>
<!-- Node22&#45;&gt;Node10 -->
<g id="edge39" class="edge"><title>Node22&#45;&gt;Node10</title>
<path fill="none" stroke="midnightblue" d="M618.765,-336.324C628.766,-328.263 643.887,-316.077 655.93,-306.369"/>
<polygon fill="midnightblue" stroke="midnightblue" points="658.45,-308.834 664.039,-299.834 654.057,-303.384 658.45,-308.834"/>
</g>
<!-- Node23&#45;&gt;Node10 -->
<g id="edge41" class="edge"><title>Node23&#45;&gt;Node10</title>
<path fill="none" stroke="midnightblue" d="M703.567,-392.368C698.542,-374.537 686.92,-333.295 680.149,-309.272"/>
<polygon fill="midnightblue" stroke="midnightblue" points="683.503,-308.267 677.421,-299.591 676.765,-310.166 683.503,-308.267"/>
</g>
<!-- Node23&#45;&gt;Node22 -->
<g id="edge49" class="edge"><title>Node23&#45;&gt;Node22</title>
<path fill="none" stroke="midnightblue" d="M690.255,-392.324C674.681,-383.743 650.623,-370.486 632.541,-360.522"/>
<polygon fill="midnightblue" stroke="midnightblue" points="634.154,-357.415 623.706,-355.655 630.776,-363.546 634.154,-357.415"/>
</g>
<!-- Node24 -->
<g id="node24" class="node"><title>Node24</title>
<g id="a_node24"><a xlink:href="def_8h.html" target="_top" xlink:title="header file for symbol and structure definition functions ">
<polygon fill="white" stroke="black" points="781,-336.5 781,-355.5 819,-355.5 819,-336.5 781,-336.5"/>
<text text-anchor="middle" x="800" y="-343.5" font-family="Helvetica,sans-Serif" font-size="10.00">def.h</text>
</a>
</g>
</g>
<!-- Node23&#45;&gt;Node24 -->
<g id="edge42" class="edge"><title>Node23&#45;&gt;Node24</title>
<path fill="none" stroke="midnightblue" d="M721.103,-392.324C735.903,-383.822 758.694,-370.729 775.982,-360.797"/>
<polygon fill="midnightblue" stroke="midnightblue" points="778.007,-363.671 784.935,-355.655 774.52,-357.601 778.007,-363.671"/>
</g>
<!-- Node26 -->
<g id="node26" class="node"><title>Node26</title>
<g id="a_node26"><a xlink:href="label_8h.html" target="_top" xlink:title="Label tables map human readable text strings to parts of semantic trees. ">
<polygon fill="white" stroke="black" points="884.5,-280.5 884.5,-299.5 929.5,-299.5 929.5,-280.5 884.5,-280.5"/>
<text text-anchor="middle" x="907" y="-287.5" font-family="Helvetica,sans-Serif" font-size="10.00">label.h</text>
</a>
</g>
</g>
<!-- Node23&#45;&gt;Node26 -->
<g id="edge45" class="edge"><title>Node23&#45;&gt;Node26</title>
<path fill="none" stroke="midnightblue" d="M737.863,-392.456C763.262,-384.902 799.216,-372.516 828,-356 851.917,-342.277 875.879,-321.293 891.036,-306.902"/>
<polygon fill="midnightblue" stroke="midnightblue" points="893.75,-309.146 898.495,-299.673 888.878,-304.12 893.75,-309.146"/>
</g>
<!-- Node27 -->
<g id="node27" class="node"><title>Node27</title>
<g id="a_node27"><a xlink:href="process_8h.html" target="_top" xlink:title="processing header files ">
<polygon fill="white" stroke="black" points="703.5,-336.5 703.5,-355.5 762.5,-355.5 762.5,-336.5 703.5,-336.5"/>
<text text-anchor="middle" x="733" y="-343.5" font-family="Helvetica,sans-Serif" font-size="10.00">process.h</text>
</a>
</g>
</g>
<!-- Node23&#45;&gt;Node27 -->
<g id="edge47" class="edge"><title>Node23&#45;&gt;Node27</title>
<path fill="none" stroke="midnightblue" d="M710.459,-392.083C714.154,-384.691 719.523,-373.953 724.094,-364.811"/>
<polygon fill="midnightblue" stroke="midnightblue" points="727.283,-366.261 728.624,-355.751 721.022,-363.13 727.283,-366.261"/>
</g>
<!-- Node24&#45;&gt;Node10 -->
<g id="edge43" class="edge"><title>Node24&#45;&gt;Node10</title>
<path fill="none" stroke="midnightblue" d="M780.743,-336.681C760.278,-327.84 727.681,-313.758 704.085,-303.565"/>
<polygon fill="midnightblue" stroke="midnightblue" points="705.468,-300.349 694.899,-299.597 702.691,-306.775 705.468,-300.349"/>
</g>
<!-- Node25 -->
<g id="node25" class="node"><title>Node25</title>
<polygon fill="white" stroke="#bfbfbf" points="814,-280.5 814,-299.5 866,-299.5 866,-280.5 814,-280.5"/>
<text text-anchor="middle" x="840" y="-287.5" font-family="Helvetica,sans-Serif" font-size="10.00">stdarg.h</text>
</g>
<!-- Node24&#45;&gt;Node25 -->
<g id="edge44" class="edge"><title>Node24&#45;&gt;Node25</title>
<path fill="none" stroke="midnightblue" d="M806.605,-336.083C812.255,-328.455 820.545,-317.264 827.451,-307.941"/>
<polygon fill="midnightblue" stroke="midnightblue" points="830.378,-309.87 833.518,-299.751 824.753,-305.703 830.378,-309.87"/>
</g>
<!-- Node26&#45;&gt;Node13 -->
<g id="edge46" class="edge"><title>Node26&#45;&gt;Node13</title>
<path fill="none" stroke="midnightblue" d="M893.335,-280.309C850.788,-253.248 720.407,-170.324 668.076,-137.041"/>
<polygon fill="midnightblue" stroke="midnightblue" points="669.846,-134.019 659.53,-131.605 666.089,-139.925 669.846,-134.019"/>
</g>
<!-- Node27&#45;&gt;Node10 -->
<g id="edge48" class="edge"><title>Node27&#45;&gt;Node10</title>
<path fill="none" stroke="midnightblue" d="M723.681,-336.324C715.107,-328.341 702.188,-316.313 691.812,-306.653"/>
<polygon fill="midnightblue" stroke="midnightblue" points="694.192,-304.086 684.488,-299.834 689.422,-309.21 694.192,-304.086"/>
</g>
</g>
</svg>
        <g id="navigator" transform="translate(0 0)" fill="#404254">
                <rect fill="#f2f5e9" fill-opacity="0.5" stroke="#606060" stroke-width=".5" x="0" y="0" width="60" height="60"/>
                <use id="zoomplus" xlink:href="#zoomPlus" x="17" y="9" onmousedown="handleZoom(evt,'in')"/>
                <use id="zoomminus" xlink:href="#zoomMin" x="42" y="9" onmousedown="handleZoom(evt,'out')"/>
                <use id="reset" xlink:href="#resetDef" x="30" y="36" onmousedown="handleReset()"/>
                <g id="arrowUp" xlink:href="#dirArrow" transform="translate(30 24)" onmousedown="handlePan(0,-1)">
                  <use xlink:href="#rim" fill="#404040">
                        <set attributeName="fill" to="#808080" begin="arrowUp.mouseover" end="arrowUp.mouseout"/>
                  </use>
                  <path fill="none" stroke="white" stroke-width="1.5" d="M0,-3.0v7 M-2.5,-0.5L0,-3.0L2.5,-0.5"/>
                </g>
                <g id="arrowRight" xlink:href="#dirArrow" transform="rotate(90) translate(36 -43)" onmousedown="handlePan(1,0)">
                  <use xlink:href="#rim" fill="#404040">
                        <set attributeName="fill" to="#808080" begin="arrowRight.mouseover" end="arrowRight.mouseout"/>
                  </use>
                  <path fill="none" stroke="white" stroke-width="1.5" d="M0,-3.0v7 M-2.5,-0.5L0,-3.0L2.5,-0.5"/>
                </g>
                <g id="arrowDown" xlink:href="#dirArrow" transform="rotate(180) translate(-30 -48)" onmousedown="handlePan(0,1)">
                  <use xlink:href="#rim" fill="#404040">
                        <set attributeName="fill" to="#808080" begin="arrowDown.mouseover" end="arrowDown.mouseout"/>
                  </use>
                  <path fill="none" stroke="white" stroke-width="1.5" d="M0,-3.0v7 M-2.5,-0.5L0,-3.0L2.5,-0.5"/>
                </g>
                <g id="arrowLeft" xlink:href="#dirArrow" transform="rotate(270) translate(-36 17)" onmousedown="handlePan(-1,0)">
                  <use xlink:href="#rim" fill="#404040">
                        <set attributeName="fill" to="#808080" begin="arrowLeft.mouseover" end="arrowLeft.mouseout"/>
                  </use>
                  <path fill="none" stroke="white" stroke-width="1.5" d="M0,-3.0v7 M-2.5,-0.5L0,-3.0L2.5,-0.5"/>
                </g>
        </g>
        <svg viewBox="0 0 15 15" width="100%" height="30px" preserveAspectRatio="xMaxYMin meet">
         <g id="arrow_out" transform="scale(0.3 0.3)">
          <a xlink:href="scape__spec_8h__incl_org.svg" target="_base">
           <rect id="button" ry="5" rx="5" y="6" x="6" height="38" width="38"
                fill="#f2f5e9" fill-opacity="0.5" stroke="#606060" stroke-width="1.0"/>
           <path id="arrow"
             d="M 11.500037,31.436501 C 11.940474,20.09759 22.043105,11.32322 32.158766,21.979434 L 37.068811,17.246167 C 37.068811,17.246167 37.088388,32 37.088388,32 L 22.160133,31.978069 C 22.160133,31.978069 26.997745,27.140456 26.997745,27.140456 C 18.528582,18.264221 13.291696,25.230495 11.500037,31.436501 z"
             style="fill:#404040;"/>
          </a>
         </g>
        </svg>
</svg>
