<?xml version="1.0" encoding="UTF-8" standalone="no"?>
<!DOCTYPE svg PUBLIC "-//W3C//DTD SVG 1.1//EN"
 "http://www.w3.org/Graphics/SVG/1.1/DTD/svg11.dtd">
<!-- Generated by graphviz version 2.38.0 (20140413.2041)
 -->
<!-- Title: src/scape.h Pages: 1 -->
<svg width="1604pt" height="364pt"
 viewBox="0.00 0.00 1603.50 364.00" xmlns="http://www.w3.org/2000/svg" xmlns:xlink="http://www.w3.org/1999/xlink">
<g id="graph0" class="graph" transform="scale(1 1) rotate(0) translate(4 360)">
<title>src/scape.h</title>
<polygon fill="white" stroke="none" points="-4,4 -4,-360 1599.5,-360 1599.5,4 -4,4"/>
<!-- Node1 -->
<g id="node1" class="node"><title>Node1</title>
<polygon fill="#bfbfbf" stroke="black" points="1446.5,-336.5 1446.5,-355.5 1514.5,-355.5 1514.5,-336.5 1446.5,-336.5"/>
<text text-anchor="middle" x="1480.5" y="-343.5" font-family="Helvetica,sans-Serif" font-size="10.00">src/scape.h</text>
</g>
<!-- Node2 -->
<g id="node2" class="node"><title>Node2</title>
<g id="a_node2"><a xlink:href="receptor_8h.html" target="_top" xlink:title="receptor implementation header file ">
<polygon fill="white" stroke="black" points="856,-280.5 856,-299.5 933,-299.5 933,-280.5 856,-280.5"/>
<text text-anchor="middle" x="894.5" y="-287.5" font-family="Helvetica,sans-Serif" font-size="10.00">src/receptor.h</text>
</a>
</g>
</g>
<!-- Node1&#45;&gt;Node2 -->
<g id="edge1" class="edge"><title>Node1&#45;&gt;Node2</title>
<path fill="none" stroke="midnightblue" d="M1436.31,-340.928C1325.59,-330.725 1037.7,-304.196 933.158,-294.562"/>
<polygon fill="midnightblue" stroke="midnightblue" points="1436.18,-344.431 1446.46,-341.863 1436.82,-337.46 1436.18,-344.431"/>
</g>
<!-- Node24 -->
<g id="node24" class="node"><title>Node24</title>
<g id="a_node24"><a xlink:href="tree_8c.html" target="_top" xlink:title="semantic tree pointer implementation ">
<polygon fill="white" stroke="black" points="1530.5,-224.5 1530.5,-243.5 1588.5,-243.5 1588.5,-224.5 1530.5,-224.5"/>
<text text-anchor="middle" x="1559.5" y="-231.5" font-family="Helvetica,sans-Serif" font-size="10.00">src/tree.c</text>
</a>
</g>
</g>
<!-- Node1&#45;&gt;Node24 -->
<g id="edge60" class="edge"><title>Node1&#45;&gt;Node24</title>
<path fill="none" stroke="midnightblue" d="M1489.64,-327.113C1496.8,-313.69 1507.39,-295.106 1518.5,-280 1528.39,-266.546 1541.69,-252.558 1550.42,-243.82"/>
<polygon fill="midnightblue" stroke="midnightblue" points="1486.4,-325.744 1484.87,-336.227 1492.61,-328.986 1486.4,-325.744"/>
</g>
<!-- Node31 -->
<g id="node31" class="node"><title>Node31</title>
<g id="a_node31"><a xlink:href="scape__spec_8h.html" target="_top" xlink:title="spec/scape_spec.h">
<polygon fill="white" stroke="black" points="1411,-224.5 1411,-243.5 1512,-243.5 1512,-224.5 1411,-224.5"/>
<text text-anchor="middle" x="1461.5" y="-231.5" font-family="Helvetica,sans-Serif" font-size="10.00">spec/scape_spec.h</text>
</a>
</g>
</g>
<!-- Node1&#45;&gt;Node31 -->
<g id="edge61" class="edge"><title>Node1&#45;&gt;Node31</title>
<path fill="none" stroke="midnightblue" d="M1477.28,-326.348C1473.12,-302.254 1466.04,-261.308 1462.98,-243.591"/>
<polygon fill="midnightblue" stroke="midnightblue" points="1473.86,-327.11 1479.01,-336.368 1480.76,-325.919 1473.86,-327.11"/>
</g>
<!-- Node33 -->
<g id="node33" class="node"><title>Node33</title>
<g id="a_node33"><a xlink:href="scape_8c.html" target="_top" xlink:title="implementation of scapes ">
<polygon fill="white" stroke="black" points="1527.5,-280.5 1527.5,-299.5 1595.5,-299.5 1595.5,-280.5 1527.5,-280.5"/>
<text text-anchor="middle" x="1561.5" y="-287.5" font-family="Helvetica,sans-Serif" font-size="10.00">src/scape.c</text>
</a>
</g>
</g>
<!-- Node1&#45;&gt;Node33 -->
<g id="edge59" class="edge"><title>Node1&#45;&gt;Node33</title>
<path fill="none" stroke="midnightblue" d="M1502.07,-330.622C1516.86,-320.757 1536.01,-307.992 1548.52,-299.655"/>
<polygon fill="midnightblue" stroke="midnightblue" points="1499.89,-327.865 1493.51,-336.324 1503.78,-333.689 1499.89,-327.865"/>
</g>
<!-- Node3 -->
<g id="node3" class="node"><title>Node3</title>
<g id="a_node3"><a xlink:href="vmhost_8h.html" target="_top" xlink:title="vmhost implementation header file ">
<polygon fill="white" stroke="black" points="760.5,-224.5 760.5,-243.5 834.5,-243.5 834.5,-224.5 760.5,-224.5"/>
<text text-anchor="middle" x="797.5" y="-231.5" font-family="Helvetica,sans-Serif" font-size="10.00">src/vmhost.h</text>
</a>
</g>
</g>
<!-- Node2&#45;&gt;Node3 -->
<g id="edge2" class="edge"><title>Node2&#45;&gt;Node3</title>
<path fill="none" stroke="midnightblue" d="M870.165,-275.453C852.257,-265.483 828.446,-252.228 813.046,-243.655"/>
<polygon fill="midnightblue" stroke="midnightblue" points="868.475,-278.518 878.915,-280.324 871.88,-272.402 868.475,-278.518"/>
</g>
<!-- Node5 -->
<g id="node5" class="node"><title>Node5</title>
<g id="a_node5"><a xlink:href="accumulator_8c.html" target="_top" xlink:title="implementation file for accumulator ">
<polygon fill="white" stroke="black" points="1102,-112.5 1102,-131.5 1197,-131.5 1197,-112.5 1102,-112.5"/>
<text text-anchor="middle" x="1149.5" y="-119.5" font-family="Helvetica,sans-Serif" font-size="10.00">src/accumulator.c</text>
</a>
</g>
</g>
<!-- Node2&#45;&gt;Node5 -->
<g id="edge25" class="edge"><title>Node2&#45;&gt;Node5</title>
<path fill="none" stroke="midnightblue" d="M916.551,-274.645C968.048,-241.121 1094.98,-158.491 1136.28,-131.605"/>
<polygon fill="midnightblue" stroke="midnightblue" points="914.322,-271.92 907.851,-280.309 918.141,-277.786 914.322,-271.92"/>
</g>
<!-- Node11 -->
<g id="node11" class="node"><title>Node11</title>
<g id="a_node11"><a xlink:href="process_8c.html" target="_top" xlink:title="implementation of ceptr processing: instructions and run tree reduction ">
<polygon fill="white" stroke="black" points="1215.5,-112.5 1215.5,-131.5 1291.5,-131.5 1291.5,-112.5 1215.5,-112.5"/>
<text text-anchor="middle" x="1253.5" y="-119.5" font-family="Helvetica,sans-Serif" font-size="10.00">src/process.c</text>
</a>
</g>
</g>
<!-- Node2&#45;&gt;Node11 -->
<g id="edge34" class="edge"><title>Node2&#45;&gt;Node11</title>
<path fill="none" stroke="midnightblue" d="M943.441,-284.926C1002.03,-279.258 1102.74,-266.995 1186.5,-244 1218.61,-235.183 1306.86,-215.599 1325.5,-188 1341.71,-163.995 1303.64,-142.904 1276.9,-131.649"/>
<polygon fill="midnightblue" stroke="midnightblue" points="942.984,-281.454 933.356,-285.877 943.64,-288.423 942.984,-281.454"/>
</g>
<!-- Node12 -->
<g id="node12" class="node"><title>Node12</title>
<g id="a_node12"><a xlink:href="receptor_8c.html" target="_top" xlink:title="receptor implementation ">
<polygon fill="white" stroke="black" points="1310,-112.5 1310,-131.5 1387,-131.5 1387,-112.5 1310,-112.5"/>
<text text-anchor="middle" x="1348.5" y="-119.5" font-family="Helvetica,sans-Serif" font-size="10.00">src/receptor.c</text>
</a>
</g>
</g>
<!-- Node2&#45;&gt;Node12 -->
<g id="edge35" class="edge"><title>Node2&#45;&gt;Node12</title>
<path fill="none" stroke="midnightblue" d="M943.343,-287.941C1057.58,-284.958 1334.69,-274.612 1362.5,-244 1391.65,-211.912 1365.14,-153.624 1353.42,-131.673"/>
<polygon fill="midnightblue" stroke="midnightblue" points="943.04,-284.447 933.132,-288.199 943.217,-291.445 943.04,-284.447"/>
</g>
<!-- Node18 -->
<g id="node18" class="node"><title>Node18</title>
<g id="a_node18"><a xlink:href="receptor__spec_8h.html" target="_top" xlink:title="spec/receptor_spec.h">
<polygon fill="white" stroke="black" points="522.5,-112.5 522.5,-131.5 632.5,-131.5 632.5,-112.5 522.5,-112.5"/>
<text text-anchor="middle" x="577.5" y="-119.5" font-family="Helvetica,sans-Serif" font-size="10.00">spec/receptor_spec.h</text>
</a>
</g>
</g>
<!-- Node2&#45;&gt;Node18 -->
<g id="edge54" class="edge"><title>Node2&#45;&gt;Node18</title>
<path fill="none" stroke="midnightblue" d="M845.488,-279.332C789.014,-266.266 695.64,-238.566 630.5,-188 609.337,-171.572 591.216,-145.18 582.697,-131.634"/>
<polygon fill="midnightblue" stroke="midnightblue" points="845.064,-282.824 855.589,-281.603 846.6,-275.994 845.064,-282.824"/>
</g>
<!-- Node20 -->
<g id="node20" class="node"><title>Node20</title>
<g id="a_node20"><a xlink:href="base__defs_8c.html" target="_top" xlink:title="auto&#45;generated system definitions ">
<polygon fill="white" stroke="black" points="1230.5,-168.5 1230.5,-187.5 1316.5,-187.5 1316.5,-168.5 1230.5,-168.5"/>
<text text-anchor="middle" x="1273.5" y="-175.5" font-family="Helvetica,sans-Serif" font-size="10.00">src/base_defs.c</text>
</a>
</g>
</g>
<!-- Node2&#45;&gt;Node20 -->
<g id="edge26" class="edge"><title>Node2&#45;&gt;Node20</title>
<path fill="none" stroke="midnightblue" d="M942.981,-284.924C995.116,-279.518 1079.89,-267.744 1149.5,-244 1192.29,-229.404 1238.36,-201.705 1260.35,-187.648"/>
<polygon fill="midnightblue" stroke="midnightblue" points="942.606,-281.444 933.004,-285.922 943.303,-288.409 942.606,-281.444"/>
</g>
<!-- Node21 -->
<g id="node21" class="node"><title>Node21</title>
<g id="a_node21"><a xlink:href="protocol_8h.html" target="_top" xlink:title="protocol helpers header file ">
<polygon fill="white" stroke="black" points="1064.5,-224.5 1064.5,-243.5 1140.5,-243.5 1140.5,-224.5 1064.5,-224.5"/>
<text text-anchor="middle" x="1102.5" y="-231.5" font-family="Helvetica,sans-Serif" font-size="10.00">src/protocol.h</text>
</a>
</g>
</g>
<!-- Node2&#45;&gt;Node21 -->
<g id="edge27" class="edge"><title>Node2&#45;&gt;Node21</title>
<path fill="none" stroke="midnightblue" d="M937.278,-277.894C976.558,-267.697 1033.93,-252.802 1069.7,-243.516"/>
<polygon fill="midnightblue" stroke="midnightblue" points="936.258,-274.543 927.458,-280.444 938.017,-281.318 936.258,-274.543"/>
</g>
<!-- Node23 -->
<g id="node23" class="node"><title>Node23</title>
<g id="a_node23"><a xlink:href="sys__defs_8c.html" target="_top" xlink:title="definition of system semantic elements for bootstrapping ">
<polygon fill="white" stroke="black" points="1273,-224.5 1273,-243.5 1354,-243.5 1354,-224.5 1273,-224.5"/>
<text text-anchor="middle" x="1313.5" y="-231.5" font-family="Helvetica,sans-Serif" font-size="10.00">src/sys_defs.c</text>
</a>
</g>
</g>
<!-- Node2&#45;&gt;Node23 -->
<g id="edge36" class="edge"><title>Node2&#45;&gt;Node23</title>
<path fill="none" stroke="midnightblue" d="M943.351,-283.577C1013.29,-275.673 1145.94,-260.161 1258.5,-244 1263.19,-243.326 1268.1,-242.581 1272.98,-241.815"/>
<polygon fill="midnightblue" stroke="midnightblue" points="942.633,-280.135 933.088,-284.733 943.416,-287.091 942.633,-280.135"/>
</g>
<!-- Node2&#45;&gt;Node24 -->
<g id="edge37" class="edge"><title>Node2&#45;&gt;Node24</title>
<path fill="none" stroke="midnightblue" d="M943.243,-288.064C1048.96,-285.473 1306.99,-276.111 1520.5,-244 1523.66,-243.525 1526.95,-242.929 1530.21,-242.273"/>
<polygon fill="midnightblue" stroke="midnightblue" points="943.11,-284.566 933.196,-288.301 943.275,-291.564 943.11,-284.566"/>
</g>
<!-- Node25 -->
<g id="node25" class="node"><title>Node25</title>
<g id="a_node25"><a xlink:href="semtable__spec_8h.html" target="_top" xlink:title="spec/semtable_spec.h">
<polygon fill="white" stroke="black" points="0,-168.5 0,-187.5 115,-187.5 115,-168.5 0,-168.5"/>
<text text-anchor="middle" x="57.5" y="-175.5" font-family="Helvetica,sans-Serif" font-size="10.00">spec/semtable_spec.h</text>
</a>
</g>
</g>
<!-- Node2&#45;&gt;Node25 -->
<g id="edge38" class="edge"><title>Node2&#45;&gt;Node25</title>
<path fill="none" stroke="midnightblue" d="M845.567,-287.673C689.66,-283.223 210.964,-267.755 145.5,-244 111.934,-231.82 80.2089,-202.474 65.7235,-187.744"/>
<polygon fill="midnightblue" stroke="midnightblue" points="845.699,-291.178 855.794,-287.963 845.897,-284.181 845.699,-291.178"/>
</g>
<!-- Node26 -->
<g id="node26" class="node"><title>Node26</title>
<g id="a_node26"><a xlink:href="def__spec_8h.html" target="_top" xlink:title="spec/def_spec.h">
<polygon fill="white" stroke="black" points="339,-56.5 339,-75.5 428,-75.5 428,-56.5 339,-56.5"/>
<text text-anchor="middle" x="383.5" y="-63.5" font-family="Helvetica,sans-Serif" font-size="10.00">spec/def_spec.h</text>
</a>
</g>
</g>
<!-- Node2&#45;&gt;Node26 -->
<g id="edge40" class="edge"><title>Node2&#45;&gt;Node26</title>
<path fill="none" stroke="midnightblue" d="M845.825,-287.523C749.034,-283.99 535.996,-273.072 469.5,-244 434.869,-228.859 424.146,-220.877 405.5,-188 384.118,-150.298 382.813,-96.3043 383.189,-75.5635"/>
<polygon fill="midnightblue" stroke="midnightblue" points="845.812,-291.024 855.93,-287.88 846.06,-284.029 845.812,-291.024"/>
</g>
<!-- Node27 -->
<g id="node27" class="node"><title>Node27</title>
<g id="a_node27"><a xlink:href="tree__spec_8h.html" target="_top" xlink:title="spec/tree_spec.h">
<polygon fill="white" stroke="black" points="72.5,-112.5 72.5,-131.5 164.5,-131.5 164.5,-112.5 72.5,-112.5"/>
<text text-anchor="middle" x="118.5" y="-119.5" font-family="Helvetica,sans-Serif" font-size="10.00">spec/tree_spec.h</text>
</a>
</g>
</g>
<!-- Node2&#45;&gt;Node27 -->
<g id="edge42" class="edge"><title>Node2&#45;&gt;Node27</title>
<path fill="none" stroke="midnightblue" d="M845.579,-289.052C718.283,-288.618 379.411,-283.658 275.5,-244 208.948,-218.6 147.373,-155.164 126.239,-131.81"/>
<polygon fill="midnightblue" stroke="midnightblue" points="845.795,-292.553 855.804,-289.079 845.813,-285.553 845.795,-292.553"/>
</g>
<!-- Node28 -->
<g id="node28" class="node"><title>Node28</title>
<g id="a_node28"><a xlink:href="http__example_8h.html" target="_top" xlink:title="spec/http_example.h">
<polygon fill="white" stroke="black" points="251,-168.5 251,-187.5 358,-187.5 358,-168.5 251,-168.5"/>
<text text-anchor="middle" x="304.5" y="-175.5" font-family="Helvetica,sans-Serif" font-size="10.00">spec/http_example.h</text>
</a>
</g>
</g>
<!-- Node2&#45;&gt;Node28 -->
<g id="edge44" class="edge"><title>Node2&#45;&gt;Node28</title>
<path fill="none" stroke="midnightblue" d="M845.704,-288.887C732.678,-287.975 456.197,-281.821 372.5,-244 344.521,-231.357 320.963,-202.228 310.422,-187.646"/>
<polygon fill="midnightblue" stroke="midnightblue" points="845.776,-292.388 855.801,-288.958 845.825,-285.388 845.776,-292.388"/>
</g>
<!-- Node29 -->
<g id="node29" class="node"><title>Node29</title>
<g id="a_node29"><a xlink:href="mtree__spec_8h.html" target="_top" xlink:title="spec/mtree_spec.h">
<polygon fill="white" stroke="black" points="182.5,-112.5 182.5,-131.5 282.5,-131.5 282.5,-112.5 182.5,-112.5"/>
<text text-anchor="middle" x="232.5" y="-119.5" font-family="Helvetica,sans-Serif" font-size="10.00">spec/mtree_spec.h</text>
</a>
</g>
</g>
<!-- Node2&#45;&gt;Node29 -->
<g id="edge51" class="edge"><title>Node2&#45;&gt;Node29</title>
<path fill="none" stroke="midnightblue" d="M845.667,-287.759C728.347,-284.344 433.405,-273.051 339.5,-244 291.576,-229.174 269.602,-229.555 241.5,-188 229.885,-170.825 230.236,-145.217 231.41,-131.848"/>
<polygon fill="midnightblue" stroke="midnightblue" points="845.698,-291.262 855.793,-288.047 845.897,-284.264 845.698,-291.262"/>
</g>
<!-- Node30 -->
<g id="node30" class="node"><title>Node30</title>
<g id="a_node30"><a xlink:href="semtrex__spec_8h.html" target="_top" xlink:title="spec/semtrex_spec.h">
<polygon fill="white" stroke="black" points="414.5,-168.5 414.5,-187.5 524.5,-187.5 524.5,-168.5 414.5,-168.5"/>
<text text-anchor="middle" x="469.5" y="-175.5" font-family="Helvetica,sans-Serif" font-size="10.00">spec/semtrex_spec.h</text>
</a>
</g>
</g>
<!-- Node2&#45;&gt;Node30 -->
<g id="edge52" class="edge"><title>Node2&#45;&gt;Node30</title>
<path fill="none" stroke="midnightblue" d="M845.658,-286.777C742.784,-281.652 511.05,-267.601 484.5,-244 468.4,-229.689 467.777,-201.86 468.64,-187.712"/>
<polygon fill="midnightblue" stroke="midnightblue" points="845.628,-290.28 855.787,-287.274 845.971,-283.288 845.628,-290.28"/>
</g>
<!-- Node2&#45;&gt;Node31 -->
<g id="edge55" class="edge"><title>Node2&#45;&gt;Node31</title>
<path fill="none" stroke="midnightblue" d="M943.463,-285.399C1033.36,-278.612 1230.71,-262.898 1396.5,-244 1401.14,-243.471 1405.96,-242.881 1410.79,-242.262"/>
<polygon fill="midnightblue" stroke="midnightblue" points="943.009,-281.923 933.3,-286.162 943.534,-288.903 943.009,-281.923"/>
</g>
<!-- Node32 -->
<g id="node32" class="node"><title>Node32</title>
<g id="a_node32"><a xlink:href="profile__example_8h.html" target="_top" xlink:title="spec/profile_example.h">
<polygon fill="white" stroke="black" points="494,-224.5 494,-243.5 611,-243.5 611,-224.5 494,-224.5"/>
<text text-anchor="middle" x="552.5" y="-231.5" font-family="Helvetica,sans-Serif" font-size="10.00">spec/profile_example.h</text>
</a>
</g>
</g>
<!-- Node2&#45;&gt;Node32 -->
<g id="edge57" class="edge"><title>Node2&#45;&gt;Node32</title>
<path fill="none" stroke="midnightblue" d="M845.806,-281.311C782.456,-271.309 672.126,-253.888 606.344,-243.502"/>
<polygon fill="midnightblue" stroke="midnightblue" points="845.51,-284.808 855.933,-282.91 846.601,-277.894 845.51,-284.808"/>
</g>
<!-- Node4 -->
<g id="node4" class="node"><title>Node4</title>
<g id="a_node4"><a xlink:href="accumulator_8h.html" target="_top" xlink:title="header file for the accumulator ">
<polygon fill="white" stroke="black" points="819,-168.5 819,-187.5 914,-187.5 914,-168.5 819,-168.5"/>
<text text-anchor="middle" x="866.5" y="-175.5" font-family="Helvetica,sans-Serif" font-size="10.00">src/accumulator.h</text>
</a>
</g>
</g>
<!-- Node3&#45;&gt;Node4 -->
<g id="edge3" class="edge"><title>Node3&#45;&gt;Node4</title>
<path fill="none" stroke="midnightblue" d="M816.538,-218.101C828.956,-208.382 844.743,-196.027 855.212,-187.834"/>
<polygon fill="midnightblue" stroke="midnightblue" points="814.304,-215.405 808.586,-224.324 818.618,-220.917 814.304,-215.405"/>
</g>
<!-- Node15 -->
<g id="node15" class="node"><title>Node15</title>
<g id="a_node15"><a xlink:href="vmhost__spec_8h.html" target="_top" xlink:title="spec/vmhost_spec.h">
<polygon fill="white" stroke="black" points="607,-56.5 607,-75.5 714,-75.5 714,-56.5 607,-56.5"/>
<text text-anchor="middle" x="660.5" y="-63.5" font-family="Helvetica,sans-Serif" font-size="10.00">spec/vmhost_spec.h</text>
</a>
</g>
</g>
<!-- Node3&#45;&gt;Node15 -->
<g id="edge24" class="edge"><title>Node3&#45;&gt;Node15</title>
<path fill="none" stroke="midnightblue" d="M774.053,-218.943C747.309,-201.722 704.11,-170.09 679.5,-132 667.888,-114.027 663.184,-88.7564 661.434,-75.6485"/>
<polygon fill="midnightblue" stroke="midnightblue" points="772.44,-222.063 782.769,-224.42 776.165,-216.136 772.44,-222.063"/>
</g>
<!-- Node16 -->
<g id="node16" class="node"><title>Node16</title>
<g id="a_node16"><a xlink:href="vmhost_8c.html" target="_top" xlink:title="virtual machine host receptor implementation ">
<polygon fill="white" stroke="black" points="688.5,-112.5 688.5,-131.5 762.5,-131.5 762.5,-112.5 688.5,-112.5"/>
<text text-anchor="middle" x="725.5" y="-119.5" font-family="Helvetica,sans-Serif" font-size="10.00">src/vmhost.c</text>
</a>
</g>
</g>
<!-- Node3&#45;&gt;Node16 -->
<g id="edge22" class="edge"><title>Node3&#45;&gt;Node16</title>
<path fill="none" stroke="midnightblue" d="M786.345,-215.957C770.741,-192.118 742.982,-149.709 731.123,-131.591"/>
<polygon fill="midnightblue" stroke="midnightblue" points="783.445,-217.918 791.85,-224.368 789.302,-214.085 783.445,-217.918"/>
</g>
<!-- Node3&#45;&gt;Node18 -->
<g id="edge23" class="edge"><title>Node3&#45;&gt;Node18</title>
<path fill="none" stroke="midnightblue" d="M752.885,-221.726C726.359,-214.102 692.529,-202.734 664.5,-188 633.792,-171.858 602.283,-145.341 586.987,-131.702"/>
<polygon fill="midnightblue" stroke="midnightblue" points="752.093,-225.139 762.666,-224.464 753.98,-218.398 752.093,-225.139"/>
</g>
<!-- Node19 -->
<g id="node19" class="node"><title>Node19</title>
<g id="a_node19"><a xlink:href="protocol_8c.html" target="_top" xlink:title="implementation of protocol helpers ">
<polygon fill="white" stroke="black" points="932.5,-168.5 932.5,-187.5 1008.5,-187.5 1008.5,-168.5 932.5,-168.5"/>
<text text-anchor="middle" x="970.5" y="-175.5" font-family="Helvetica,sans-Serif" font-size="10.00">src/protocol.c</text>
</a>
</g>
</g>
<!-- Node3&#45;&gt;Node19 -->
<g id="edge21" class="edge"><title>Node3&#45;&gt;Node19</title>
<path fill="none" stroke="midnightblue" d="M834.547,-221.436C867.164,-211.255 913.91,-196.664 943.216,-187.516"/>
<polygon fill="midnightblue" stroke="midnightblue" points="833.415,-218.123 824.912,-224.444 835.501,-224.805 833.415,-218.123"/>
</g>
<!-- Node4&#45;&gt;Node5 -->
<g id="edge4" class="edge"><title>Node4&#45;&gt;Node5</title>
<path fill="none" stroke="midnightblue" d="M921.333,-166.537C974.818,-156.332 1055.17,-140.999 1104.87,-131.516"/>
<polygon fill="midnightblue" stroke="midnightblue" points="920.509,-163.131 911.342,-168.444 921.821,-170.007 920.509,-163.131"/>
</g>
<!-- Node6 -->
<g id="node6" class="node"><title>Node6</title>
<g id="a_node6"><a xlink:href="ceptr_8c.html" target="_top" xlink:title="implements main() entry point for the ceptr node ">
<polygon fill="white" stroke="black" points="899,-112.5 899,-131.5 962,-131.5 962,-112.5 899,-112.5"/>
<text text-anchor="middle" x="930.5" y="-119.5" font-family="Helvetica,sans-Serif" font-size="10.00">src/ceptr.c</text>
</a>
</g>
</g>
<!-- Node4&#45;&gt;Node6 -->
<g id="edge5" class="edge"><title>Node4&#45;&gt;Node6</title>
<path fill="none" stroke="midnightblue" d="M884.491,-161.82C895.958,-152.145 910.413,-139.948 920.03,-131.834"/>
<polygon fill="midnightblue" stroke="midnightblue" points="882.169,-159.2 876.783,-168.324 886.683,-164.55 882.169,-159.2"/>
</g>
<!-- Node7 -->
<g id="node7" class="node"><title>Node7</title>
<g id="a_node7"><a xlink:href="group_8h.html" target="_top" xlink:title="group communication receptors header file ">
<polygon fill="white" stroke="black" points="1019,-112.5 1019,-131.5 1084,-131.5 1084,-112.5 1019,-112.5"/>
<text text-anchor="middle" x="1051.5" y="-119.5" font-family="Helvetica,sans-Serif" font-size="10.00">src/group.h</text>
</a>
</g>
</g>
<!-- Node4&#45;&gt;Node7 -->
<g id="edge6" class="edge"><title>Node4&#45;&gt;Node7</title>
<path fill="none" stroke="midnightblue" d="M905.666,-165.568C940.565,-155.381 990.849,-140.703 1022.32,-131.516"/>
<polygon fill="midnightblue" stroke="midnightblue" points="904.433,-162.282 895.814,-168.444 906.394,-169.001 904.433,-162.282"/>
</g>
<!-- Node4&#45;&gt;Node11 -->
<g id="edge10" class="edge"><title>Node4&#45;&gt;Node11</title>
<path fill="none" stroke="midnightblue" d="M924.121,-167.955C1050.27,-150.208 1083.86,-151.152 1205.5,-132 1208.68,-131.499 1211.98,-130.948 1215.28,-130.374"/>
<polygon fill="midnightblue" stroke="midnightblue" points="923.479,-164.511 914.07,-169.381 924.462,-171.442 923.479,-164.511"/>
</g>
<!-- Node4&#45;&gt;Node12 -->
<g id="edge11" class="edge"><title>Node4&#45;&gt;Node12</title>
<path fill="none" stroke="midnightblue" d="M923.991,-168.021C1092.18,-147.183 1137.01,-155.085 1300.5,-132 1303.52,-131.573 1306.64,-131.089 1309.78,-130.571"/>
<polygon fill="midnightblue" stroke="midnightblue" points="923.541,-164.55 914.055,-169.268 924.413,-171.496 923.541,-164.55"/>
</g>
<!-- Node13 -->
<g id="node13" class="node"><title>Node13</title>
<g id="a_node13"><a xlink:href="shell_8h.html" target="_top" xlink:title="command line shell receptor header files ">
<polygon fill="white" stroke="black" points="818.5,-112.5 818.5,-131.5 880.5,-131.5 880.5,-112.5 818.5,-112.5"/>
<text text-anchor="middle" x="849.5" y="-119.5" font-family="Helvetica,sans-Serif" font-size="10.00">src/shell.h</text>
</a>
</g>
</g>
<!-- Node4&#45;&gt;Node13 -->
<g id="edge12" class="edge"><title>Node4&#45;&gt;Node13</title>
<path fill="none" stroke="midnightblue" d="M860.643,-158.396C857.799,-149.362 854.517,-138.936 852.255,-131.751"/>
<polygon fill="midnightblue" stroke="midnightblue" points="857.351,-159.596 863.693,-168.083 864.028,-157.493 857.351,-159.596"/>
</g>
<!-- Node4&#45;&gt;Node16 -->
<g id="edge16" class="edge"><title>Node4&#45;&gt;Node16</title>
<path fill="none" stroke="midnightblue" d="M834.571,-164.772C808.086,-154.629 771.108,-140.467 747.737,-131.516"/>
<polygon fill="midnightblue" stroke="midnightblue" points="833.568,-168.136 844.158,-168.444 836.071,-161.599 833.568,-168.136"/>
</g>
<!-- Node17 -->
<g id="node17" class="node"><title>Node17</title>
<g id="a_node17"><a xlink:href="accumulator__spec_8h_source.html" target="_top" xlink:title="spec/accumulator_spec.h">
<polygon fill="white" stroke="black" points="855.5,-56.5 855.5,-75.5 983.5,-75.5 983.5,-56.5 855.5,-56.5"/>
<text text-anchor="middle" x="919.5" y="-63.5" font-family="Helvetica,sans-Serif" font-size="10.00">spec/accumulator_spec.h</text>
</a>
</g>
</g>
<!-- Node4&#45;&gt;Node17 -->
<g id="edge17" class="edge"><title>Node4&#45;&gt;Node17</title>
<path fill="none" stroke="midnightblue" d="M923.957,-165.295C941.933,-158.637 959.837,-148.232 970.5,-132 984.439,-110.781 954.723,-87.8308 935.055,-75.6873"/>
<polygon fill="midnightblue" stroke="midnightblue" points="922.383,-162.131 914.009,-168.622 924.603,-168.77 922.383,-162.131"/>
</g>
<!-- Node4&#45;&gt;Node18 -->
<g id="edge19" class="edge"><title>Node4&#45;&gt;Node18</title>
<path fill="none" stroke="midnightblue" d="M810.845,-166.601C756.227,-156.395 673.934,-141.019 623.079,-131.516"/>
<polygon fill="midnightblue" stroke="midnightblue" points="810.234,-170.047 820.707,-168.444 811.52,-163.166 810.234,-170.047"/>
</g>
<!-- Node8 -->
<g id="node8" class="node"><title>Node8</title>
<g id="a_node8"><a xlink:href="group_8c.html" target="_top" xlink:title="implementation of some group communication receptors ">
<polygon fill="white" stroke="black" points="1240,-56.5 1240,-75.5 1305,-75.5 1305,-56.5 1240,-56.5"/>
<text text-anchor="middle" x="1272.5" y="-63.5" font-family="Helvetica,sans-Serif" font-size="10.00">src/group.c</text>
</a>
</g>
</g>
<!-- Node7&#45;&gt;Node8 -->
<g id="edge7" class="edge"><title>Node7&#45;&gt;Node8</title>
<path fill="none" stroke="midnightblue" d="M1093.89,-110.643C1136.42,-100.251 1201.01,-84.467 1239.76,-75.0006"/>
<polygon fill="midnightblue" stroke="midnightblue" points="1092.99,-107.258 1084.11,-113.032 1094.65,-114.058 1092.99,-107.258"/>
</g>
<!-- Node9 -->
<g id="node9" class="node"><title>Node9</title>
<g id="a_node9"><a xlink:href="group__spec_8h.html" target="_top" xlink:title="spec/group_spec.h">
<polygon fill="white" stroke="black" points="1002,-56.5 1002,-75.5 1101,-75.5 1101,-56.5 1002,-56.5"/>
<text text-anchor="middle" x="1051.5" y="-63.5" font-family="Helvetica,sans-Serif" font-size="10.00">spec/group_spec.h</text>
</a>
</g>
</g>
<!-- Node7&#45;&gt;Node9 -->
<g id="edge8" class="edge"><title>Node7&#45;&gt;Node9</title>
<path fill="none" stroke="midnightblue" d="M1051.5,-101.805C1051.5,-92.9102 1051.5,-82.7798 1051.5,-75.7511"/>
<polygon fill="midnightblue" stroke="midnightblue" points="1048,-102.083 1051.5,-112.083 1055,-102.083 1048,-102.083"/>
</g>
<!-- Node10 -->
<g id="node10" class="node"><title>Node10</title>
<g id="a_node10"><a xlink:href="ceptr__specs_8c.html" target="_top" xlink:title="implements a main() entry point for running all the tests ">
<polygon fill="white" stroke="black" points="443.5,-0.5 443.5,-19.5 545.5,-19.5 545.5,-0.5 443.5,-0.5"/>
<text text-anchor="middle" x="494.5" y="-7.5" font-family="Helvetica,sans-Serif" font-size="10.00">spec/ceptr_specs.c</text>
</a>
</g>
</g>
<!-- Node9&#45;&gt;Node10 -->
<g id="edge9" class="edge"><title>Node9&#45;&gt;Node10</title>
<path fill="none" stroke="midnightblue" d="M991.834,-55.9947C822.091,-35.6501 634.041,-20.9996 545.509,-14.5725"/>
<polygon fill="midnightblue" stroke="midnightblue" points="991.608,-59.4927 1001.96,-57.2173 992.448,-52.5432 991.608,-59.4927"/>
</g>
<!-- Node14 -->
<g id="node14" class="node"><title>Node14</title>
<g id="a_node14"><a xlink:href="shell_8c.html" target="_top" xlink:title="implementation of a command line shell receptor ">
<polygon fill="white" stroke="black" points="775.5,-56.5 775.5,-75.5 837.5,-75.5 837.5,-56.5 775.5,-56.5"/>
<text text-anchor="middle" x="806.5" y="-63.5" font-family="Helvetica,sans-Serif" font-size="10.00">src/shell.c</text>
</a>
</g>
</g>
<!-- Node13&#45;&gt;Node14 -->
<g id="edge13" class="edge"><title>Node13&#45;&gt;Node14</title>
<path fill="none" stroke="midnightblue" d="M836.078,-104.144C828.586,-94.7357 819.563,-83.4046 813.468,-75.7511"/>
<polygon fill="midnightblue" stroke="midnightblue" points="833.432,-106.44 842.399,-112.083 838.908,-102.08 833.432,-106.44"/>
</g>
<!-- Node13&#45;&gt;Node15 -->
<g id="edge14" class="edge"><title>Node13&#45;&gt;Node15</title>
<path fill="none" stroke="midnightblue" d="M809.487,-109.568C773.833,-99.381 722.462,-84.7034 690.308,-75.5164"/>
<polygon fill="midnightblue" stroke="midnightblue" points="808.976,-113.062 819.552,-112.444 810.899,-106.331 808.976,-113.062"/>
</g>
<!-- Node15&#45;&gt;Node10 -->
<g id="edge15" class="edge"><title>Node15&#45;&gt;Node10</title>
<path fill="none" stroke="midnightblue" d="M624.547,-53.3044C593.268,-43.1294 548.679,-28.6246 520.68,-19.5164"/>
<polygon fill="midnightblue" stroke="midnightblue" points="623.605,-56.6783 634.197,-56.4435 625.77,-50.0217 623.605,-56.6783"/>
</g>
<!-- Node17&#45;&gt;Node10 -->
<g id="edge18" class="edge"><title>Node17&#45;&gt;Node10</title>
<path fill="none" stroke="midnightblue" d="M845.477,-55.5947C759.648,-44.6894 620.433,-27.0009 545.738,-17.5102"/>
<polygon fill="midnightblue" stroke="midnightblue" points="845.052,-59.0687 855.413,-56.8572 845.934,-52.1246 845.052,-59.0687"/>
</g>
<!-- Node18&#45;&gt;Node10 -->
<g id="edge20" class="edge"><title>Node18&#45;&gt;Node10</title>
<path fill="none" stroke="midnightblue" d="M564.878,-104.272C546.937,-80.4942 514.713,-37.7889 500.983,-19.5914"/>
<polygon fill="midnightblue" stroke="midnightblue" points="562.17,-106.494 570.987,-112.368 567.758,-102.278 562.17,-106.494"/>
</g>
<!-- Node21&#45;&gt;Node8 -->
<g id="edge29" class="edge"><title>Node21&#45;&gt;Node8</title>
<path fill="none" stroke="midnightblue" d="M1093.08,-214.805C1087.07,-200.38 1082.3,-180.614 1093.5,-168 1183.25,-66.9199 1305.75,-233.08 1395.5,-132 1424.61,-99.2194 1350.61,-80.2478 1305.08,-71.982"/>
<polygon fill="midnightblue" stroke="midnightblue" points="1090.06,-216.61 1097.46,-224.187 1096.4,-213.646 1090.06,-216.61"/>
</g>
<!-- Node21&#45;&gt;Node15 -->
<g id="edge31" class="edge"><title>Node21&#45;&gt;Node15</title>
<path fill="none" stroke="midnightblue" d="M1054.18,-230.891C981.275,-226.841 847.606,-215.77 809.5,-188 778.98,-165.758 799.231,-137.635 771.5,-112 751.574,-93.5792 723.118,-82.2453 700.007,-75.5597"/>
<polygon fill="midnightblue" stroke="midnightblue" points="1054.31,-234.402 1064.48,-231.439 1054.68,-227.412 1054.31,-234.402"/>
</g>
<!-- Node21&#45;&gt;Node19 -->
<g id="edge30" class="edge"><title>Node21&#45;&gt;Node19</title>
<path fill="none" stroke="midnightblue" d="M1072.28,-220.638C1047.51,-210.504 1013.1,-196.427 991.318,-187.516"/>
<polygon fill="midnightblue" stroke="midnightblue" points="1071,-223.897 1081.58,-224.444 1073.65,-217.418 1071,-223.897"/>
</g>
<!-- Node21&#45;&gt;Node20 -->
<g id="edge28" class="edge"><title>Node21&#45;&gt;Node20</title>
<path fill="none" stroke="midnightblue" d="M1139.54,-221.304C1171.76,-211.129 1217.69,-196.625 1246.53,-187.516"/>
<polygon fill="midnightblue" stroke="midnightblue" points="1138.08,-218.095 1129.6,-224.444 1140.19,-224.77 1138.08,-218.095"/>
</g>
<!-- Node22 -->
<g id="node22" class="node"><title>Node22</title>
<g id="a_node22"><a xlink:href="protocol__spec_8h.html" target="_top" xlink:title="spec/protocol_spec.h">
<polygon fill="white" stroke="black" points="1102.5,-168.5 1102.5,-187.5 1212.5,-187.5 1212.5,-168.5 1102.5,-168.5"/>
<text text-anchor="middle" x="1157.5" y="-175.5" font-family="Helvetica,sans-Serif" font-size="10.00">spec/protocol_spec.h</text>
</a>
</g>
</g>
<!-- Node21&#45;&gt;Node22 -->
<g id="edge32" class="edge"><title>Node21&#45;&gt;Node22</title>
<path fill="none" stroke="midnightblue" d="M1118.79,-217.002C1128.54,-207.433 1140.55,-195.639 1148.59,-187.751"/>
<polygon fill="midnightblue" stroke="midnightblue" points="1116.27,-214.58 1111.58,-224.083 1121.17,-219.575 1116.27,-214.58"/>
</g>
<!-- Node22&#45;&gt;Node10 -->
<g id="edge33" class="edge"><title>Node22&#45;&gt;Node10</title>
<path fill="none" stroke="midnightblue" d="M1222.67,-167.664C1296.46,-156.779 1407.33,-139.344 1413.5,-132 1419.22,-125.192 1417.99,-119.669 1413.5,-112 1387.74,-68.0536 1362.42,-70.2088 1313.5,-56 1168.46,-13.8704 701.459,-10.6621 545.643,-10.7999"/>
<polygon fill="midnightblue" stroke="midnightblue" points="1221.9,-164.239 1212.52,-169.155 1222.92,-171.165 1221.9,-164.239"/>
</g>
<!-- Node25&#45;&gt;Node10 -->
<g id="edge39" class="edge"><title>Node25&#45;&gt;Node10</title>
<path fill="none" stroke="midnightblue" d="M54.2818,-158.354C52.9183,-144.223 53.5063,-125.071 63.5,-112 109.421,-51.9393 339.338,-24.5401 443.304,-15.0746"/>
<polygon fill="midnightblue" stroke="midnightblue" points="50.8324,-158.963 55.6513,-168.398 57.7682,-158.017 50.8324,-158.963"/>
</g>
<!-- Node26&#45;&gt;Node10 -->
<g id="edge41" class="edge"><title>Node26&#45;&gt;Node10</title>
<path fill="none" stroke="midnightblue" d="M410.505,-51.8622C431.088,-41.8492 458.845,-28.3458 476.71,-19.6545"/>
<polygon fill="midnightblue" stroke="midnightblue" points="408.795,-48.8019 401.334,-56.324 411.858,-55.0966 408.795,-48.8019"/>
</g>
<!-- Node27&#45;&gt;Node10 -->
<g id="edge43" class="edge"><title>Node27&#45;&gt;Node10</title>
<path fill="none" stroke="midnightblue" d="M144.111,-107.795C173.289,-93.2351 222.736,-70.0204 267.5,-56 326.544,-37.5072 396.697,-24.9791 443.226,-17.9315"/>
<polygon fill="midnightblue" stroke="midnightblue" points="142.381,-104.747 135.028,-112.375 145.533,-110.997 142.381,-104.747"/>
</g>
<!-- Node28&#45;&gt;Node10 -->
<g id="edge50" class="edge"><title>Node28&#45;&gt;Node10</title>
<path fill="none" stroke="midnightblue" d="M302.78,-158.152C301.471,-131.765 303.274,-83.9191 329.5,-56 358.571,-25.053 406.648,-14.6384 443.428,-11.4739"/>
<polygon fill="midnightblue" stroke="midnightblue" points="299.303,-158.593 303.497,-168.323 306.285,-158.101 299.303,-158.593"/>
</g>
<!-- Node28&#45;&gt;Node15 -->
<g id="edge49" class="edge"><title>Node28&#45;&gt;Node15</title>
<path fill="none" stroke="midnightblue" d="M341.614,-165.403C383.387,-152.362 453.289,-130.579 513.5,-112 554.943,-99.2123 603.003,-84.5272 632.581,-75.5061"/>
<polygon fill="midnightblue" stroke="midnightblue" points="340.378,-162.122 331.875,-168.443 342.464,-168.804 340.378,-162.122"/>
</g>
<!-- Node28&#45;&gt;Node18 -->
<g id="edge48" class="edge"><title>Node28&#45;&gt;Node18</title>
<path fill="none" stroke="midnightblue" d="M357.718,-166.473C409.313,-156.268 486.604,-140.979 534.445,-131.516"/>
<polygon fill="midnightblue" stroke="midnightblue" points="356.888,-163.07 347.758,-168.444 358.247,-169.937 356.888,-163.07"/>
</g>
<!-- Node28&#45;&gt;Node27 -->
<g id="edge45" class="edge"><title>Node28&#45;&gt;Node27</title>
<path fill="none" stroke="midnightblue" d="M265.122,-165.568C230.034,-155.381 179.479,-140.703 147.834,-131.516"/>
<polygon fill="midnightblue" stroke="midnightblue" points="264.448,-169.017 275.028,-168.444 266.4,-162.294 264.448,-169.017"/>
</g>
<!-- Node28&#45;&gt;Node29 -->
<g id="edge46" class="edge"><title>Node28&#45;&gt;Node29</title>
<path fill="none" stroke="midnightblue" d="M284.634,-162.101C271.677,-152.382 255.203,-140.027 244.279,-131.834"/>
<polygon fill="midnightblue" stroke="midnightblue" points="282.832,-165.124 292.932,-168.324 287.032,-159.524 282.832,-165.124"/>
</g>
<!-- Node29&#45;&gt;Node10 -->
<g id="edge47" class="edge"><title>Node29&#45;&gt;Node10</title>
<path fill="none" stroke="midnightblue" d="M244.73,-103.928C256.355,-88.9895 275.191,-67.8724 296.5,-56 342.23,-30.5217 401.531,-19.4601 443.271,-14.6628"/>
<polygon fill="midnightblue" stroke="midnightblue" points="241.659,-102.191 238.467,-112.294 247.262,-106.387 241.659,-102.191"/>
</g>
<!-- Node30&#45;&gt;Node10 -->
<g id="edge53" class="edge"><title>Node30&#45;&gt;Node10</title>
<path fill="none" stroke="midnightblue" d="M469.981,-158.267C470.873,-134.336 473.399,-91.7372 480.5,-56 483.051,-43.16 487.882,-28.7919 491.147,-19.8214"/>
<polygon fill="midnightblue" stroke="midnightblue" points="466.478,-158.298 469.661,-168.403 473.474,-158.518 466.478,-158.298"/>
</g>
<!-- Node31&#45;&gt;Node10 -->
<g id="edge56" class="edge"><title>Node31&#45;&gt;Node10</title>
<path fill="none" stroke="midnightblue" d="M1460.16,-214.363C1457.6,-189.286 1450.26,-144.126 1429.5,-112 1408.06,-78.8295 1397.37,-70.1659 1360.5,-56 1284.61,-26.8411 720.267,-14.8517 545.762,-11.8169"/>
<polygon fill="midnightblue" stroke="midnightblue" points="1456.68,-214.694 1461.03,-224.352 1463.65,-214.086 1456.68,-214.694"/>
</g>
<!-- Node32&#45;&gt;Node10 -->
<g id="edge58" class="edge"><title>Node32&#45;&gt;Node10</title>
<path fill="none" stroke="midnightblue" d="M548.285,-214.589C544.978,-201.364 539.873,-183.255 533.5,-168 526.444,-151.111 519.456,-149.307 513.5,-132 499.592,-91.5847 495.811,-40.0411 494.828,-19.759"/>
<polygon fill="midnightblue" stroke="midnightblue" points="544.896,-215.468 550.628,-224.378 551.704,-213.838 544.896,-215.468"/>
</g>
</g>
</svg>
