<?xml version="1.0" encoding="UTF-8" standalone="no"?>
<!DOCTYPE svg PUBLIC "-//W3C//DTD SVG 1.1//EN"
 "http://www.w3.org/Graphics/SVG/1.1/DTD/svg11.dtd">
<!-- Generated by graphviz version 2.38.0 (20140413.2041)
 -->
<!-- Title: src/scape.h Pages: 1 -->
<svg width="1610pt" height="364pt"
 viewBox="0.00 0.00 1610.00 364.00" xmlns="http://www.w3.org/2000/svg" xmlns:xlink="http://www.w3.org/1999/xlink">
<g id="graph0" class="graph" transform="scale(1 1) rotate(0) translate(4 360)">
<title>src/scape.h</title>
<polygon fill="white" stroke="none" points="-4,4 -4,-360 1606,-360 1606,4 -4,4"/>
<!-- Node1 -->
<g id="node1" class="node"><title>Node1</title>
<polygon fill="#bfbfbf" stroke="black" points="1453,-336.5 1453,-355.5 1521,-355.5 1521,-336.5 1453,-336.5"/>
<text text-anchor="middle" x="1487" y="-343.5" font-family="Helvetica,sans-Serif" font-size="10.00">src/scape.h</text>
</g>
<!-- Node2 -->
<g id="node2" class="node"><title>Node2</title>
<g id="a_node2"><a xlink:href="receptor_8h.html" target="_top" xlink:title="receptor implementation header file ">
<polygon fill="white" stroke="black" points="987.5,-280.5 987.5,-299.5 1064.5,-299.5 1064.5,-280.5 987.5,-280.5"/>
<text text-anchor="middle" x="1026" y="-287.5" font-family="Helvetica,sans-Serif" font-size="10.00">src/receptor.h</text>
</a>
</g>
</g>
<!-- Node1&#45;&gt;Node2 -->
<g id="edge1" class="edge"><title>Node1&#45;&gt;Node2</title>
<path fill="none" stroke="midnightblue" d="M1442.57,-339.796C1352.5,-329.245 1149.72,-305.492 1064.68,-295.531"/>
<polygon fill="midnightblue" stroke="midnightblue" points="1442.39,-343.298 1452.73,-340.985 1443.2,-336.346 1442.39,-343.298"/>
</g>
<!-- Node27 -->
<g id="node27" class="node"><title>Node27</title>
<g id="a_node27"><a xlink:href="tree_8c.html" target="_top" xlink:title="semantic tree pointer implementation ">
<polygon fill="white" stroke="black" points="1537,-224.5 1537,-243.5 1595,-243.5 1595,-224.5 1537,-224.5"/>
<text text-anchor="middle" x="1566" y="-231.5" font-family="Helvetica,sans-Serif" font-size="10.00">src/tree.c</text>
</a>
</g>
</g>
<!-- Node1&#45;&gt;Node27 -->
<g id="edge69" class="edge"><title>Node1&#45;&gt;Node27</title>
<path fill="none" stroke="midnightblue" d="M1496.14,-327.113C1503.3,-313.69 1513.89,-295.106 1525,-280 1534.89,-266.546 1548.19,-252.558 1556.92,-243.82"/>
<polygon fill="midnightblue" stroke="midnightblue" points="1492.9,-325.744 1491.37,-336.227 1499.11,-328.986 1492.9,-325.744"/>
</g>
<!-- Node31 -->
<g id="node31" class="node"><title>Node31</title>
<g id="a_node31"><a xlink:href="scape__spec_8h.html" target="_top" xlink:title="spec/scape_spec.h">
<polygon fill="white" stroke="black" points="1417.5,-224.5 1417.5,-243.5 1518.5,-243.5 1518.5,-224.5 1417.5,-224.5"/>
<text text-anchor="middle" x="1468" y="-231.5" font-family="Helvetica,sans-Serif" font-size="10.00">spec/scape_spec.h</text>
</a>
</g>
</g>
<!-- Node1&#45;&gt;Node31 -->
<g id="edge70" class="edge"><title>Node1&#45;&gt;Node31</title>
<path fill="none" stroke="midnightblue" d="M1483.78,-326.348C1479.62,-302.254 1472.54,-261.308 1469.48,-243.591"/>
<polygon fill="midnightblue" stroke="midnightblue" points="1480.36,-327.11 1485.51,-336.368 1487.26,-325.919 1480.36,-327.11"/>
</g>
<!-- Node34 -->
<g id="node34" class="node"><title>Node34</title>
<g id="a_node34"><a xlink:href="scape_8c.html" target="_top" xlink:title="implementation of scapes ">
<polygon fill="white" stroke="black" points="1534,-280.5 1534,-299.5 1602,-299.5 1602,-280.5 1534,-280.5"/>
<text text-anchor="middle" x="1568" y="-287.5" font-family="Helvetica,sans-Serif" font-size="10.00">src/scape.c</text>
</a>
</g>
</g>
<!-- Node1&#45;&gt;Node34 -->
<g id="edge68" class="edge"><title>Node1&#45;&gt;Node34</title>
<path fill="none" stroke="midnightblue" d="M1508.57,-330.622C1523.36,-320.757 1542.51,-307.992 1555.02,-299.655"/>
<polygon fill="midnightblue" stroke="midnightblue" points="1506.39,-327.865 1500.01,-336.324 1510.28,-333.689 1506.39,-327.865"/>
</g>
<!-- Node3 -->
<g id="node3" class="node"><title>Node3</title>
<g id="a_node3"><a xlink:href="vmhost_8h.html" target="_top" xlink:title="vmhost implementation header file ">
<polygon fill="white" stroke="black" points="304,-224.5 304,-243.5 378,-243.5 378,-224.5 304,-224.5"/>
<text text-anchor="middle" x="341" y="-231.5" font-family="Helvetica,sans-Serif" font-size="10.00">src/vmhost.h</text>
</a>
</g>
</g>
<!-- Node2&#45;&gt;Node3 -->
<g id="edge2" class="edge"><title>Node2&#45;&gt;Node3</title>
<path fill="none" stroke="midnightblue" d="M977.129,-285.147C846.908,-274.882 493.633,-247.032 378.108,-237.925"/>
<polygon fill="midnightblue" stroke="midnightblue" points="976.965,-288.645 987.209,-285.942 977.515,-281.667 976.965,-288.645"/>
</g>
<!-- Node5 -->
<g id="node5" class="node"><title>Node5</title>
<g id="a_node5"><a xlink:href="accumulator_8c.html" target="_top" xlink:title="implementation file for accumulator ">
<polygon fill="white" stroke="black" points="666.5,-112.5 666.5,-131.5 761.5,-131.5 761.5,-112.5 666.5,-112.5"/>
<text text-anchor="middle" x="714" y="-119.5" font-family="Helvetica,sans-Serif" font-size="10.00">src/accumulator.c</text>
</a>
</g>
</g>
<!-- Node2&#45;&gt;Node5 -->
<g id="edge35" class="edge"><title>Node2&#45;&gt;Node5</title>
<path fill="none" stroke="midnightblue" d="M977.34,-279.469C946.395,-272.267 906.074,-260.729 873,-244 809.544,-211.904 745.758,-153.62 722.862,-131.672"/>
<polygon fill="midnightblue" stroke="midnightblue" points="976.926,-282.963 987.451,-281.746 978.464,-276.134 976.926,-282.963"/>
</g>
<!-- Node14 -->
<g id="node14" class="node"><title>Node14</title>
<g id="a_node14"><a xlink:href="process_8c.html" target="_top" xlink:title="implementation of ceptr processing: instructions and run tree reduction ">
<polygon fill="white" stroke="black" points="780,-112.5 780,-131.5 856,-131.5 856,-112.5 780,-112.5"/>
<text text-anchor="middle" x="818" y="-119.5" font-family="Helvetica,sans-Serif" font-size="10.00">src/process.c</text>
</a>
</g>
</g>
<!-- Node2&#45;&gt;Node14 -->
<g id="edge49" class="edge"><title>Node2&#45;&gt;Node14</title>
<path fill="none" stroke="midnightblue" d="M984.181,-277.37C941.061,-263.239 874.926,-235.232 837,-188 823.456,-171.132 819.566,-144.933 818.449,-131.53"/>
<polygon fill="midnightblue" stroke="midnightblue" points="983.225,-280.739 993.815,-280.422 985.339,-274.066 983.225,-280.739"/>
</g>
<!-- Node15 -->
<g id="node15" class="node"><title>Node15</title>
<g id="a_node15"><a xlink:href="receptor_8c.html" target="_top" xlink:title="receptor implementation ">
<polygon fill="white" stroke="black" points="1034.5,-112.5 1034.5,-131.5 1111.5,-131.5 1111.5,-112.5 1034.5,-112.5"/>
<text text-anchor="middle" x="1073" y="-119.5" font-family="Helvetica,sans-Serif" font-size="10.00">src/receptor.c</text>
</a>
</g>
</g>
<!-- Node2&#45;&gt;Node15 -->
<g id="edge50" class="edge"><title>Node2&#45;&gt;Node15</title>
<path fill="none" stroke="midnightblue" d="M1017.96,-270.984C1008.24,-246.338 995.152,-201.365 1012,-168 1020.54,-151.084 1038.78,-138.96 1053.09,-131.59"/>
<polygon fill="midnightblue" stroke="midnightblue" points="1014.73,-272.337 1021.82,-280.21 1021.19,-269.634 1014.73,-272.337"/>
</g>
<!-- Node18 -->
<g id="node18" class="node"><title>Node18</title>
<g id="a_node18"><a xlink:href="http__example_8h.html" target="_top" xlink:title="spec/http_example.h">
<polygon fill="white" stroke="black" points="102.5,-112.5 102.5,-131.5 209.5,-131.5 209.5,-112.5 102.5,-112.5"/>
<text text-anchor="middle" x="156" y="-119.5" font-family="Helvetica,sans-Serif" font-size="10.00">spec/http_example.h</text>
</a>
</g>
</g>
<!-- Node2&#45;&gt;Node18 -->
<g id="edge58" class="edge"><title>Node2&#45;&gt;Node18</title>
<path fill="none" stroke="midnightblue" d="M977.057,-288.844C834.786,-287.942 423.298,-282.025 295,-244 246.532,-229.635 232.398,-223.08 196,-188 178.445,-171.081 165.462,-144.904 159.547,-131.518"/>
<polygon fill="midnightblue" stroke="midnightblue" points="977.204,-292.345 987.224,-288.903 977.244,-285.345 977.204,-292.345"/>
</g>
<!-- Node19 -->
<g id="node19" class="node"><title>Node19</title>
<g id="a_node19"><a xlink:href="tree__spec_8h.html" target="_top" xlink:title="spec/tree_spec.h">
<polygon fill="white" stroke="black" points="0,-56.5 0,-75.5 92,-75.5 92,-56.5 0,-56.5"/>
<text text-anchor="middle" x="46" y="-63.5" font-family="Helvetica,sans-Serif" font-size="10.00">spec/tree_spec.h</text>
</a>
</g>
</g>
<!-- Node2&#45;&gt;Node19 -->
<g id="edge57" class="edge"><title>Node2&#45;&gt;Node19</title>
<path fill="none" stroke="midnightblue" d="M977.064,-288.814C802.088,-287.837 213.887,-281.749 139,-244 71.7361,-210.094 51.6831,-106.491 47.1343,-75.7114"/>
<polygon fill="midnightblue" stroke="midnightblue" points="977.244,-292.315 987.262,-288.868 977.281,-285.315 977.244,-292.315"/>
</g>
<!-- Node20 -->
<g id="node20" class="node"><title>Node20</title>
<g id="a_node20"><a xlink:href="mtree__spec_8h.html" target="_top" xlink:title="spec/mtree_spec.h">
<polygon fill="white" stroke="black" points="110,-56.5 110,-75.5 210,-75.5 210,-56.5 110,-56.5"/>
<text text-anchor="middle" x="160" y="-63.5" font-family="Helvetica,sans-Serif" font-size="10.00">spec/mtree_spec.h</text>
</a>
</g>
</g>
<!-- Node2&#45;&gt;Node20 -->
<g id="edge59" class="edge"><title>Node2&#45;&gt;Node20</title>
<path fill="none" stroke="midnightblue" d="M977.281,-288.076C808.982,-284.654 258.312,-271.453 184,-244 121.955,-221.079 99.7843,-196.691 86,-132 84.1475,-123.306 81.6434,-119.748 86,-112 96.0224,-94.1753 116.281,-82.5891 133.071,-75.6437"/>
<polygon fill="midnightblue" stroke="midnightblue" points="977.274,-291.577 987.342,-288.278 977.414,-284.578 977.274,-291.577"/>
</g>
<!-- Node21 -->
<g id="node21" class="node"><title>Node21</title>
<g id="a_node21"><a xlink:href="receptor__spec_8h.html" target="_top" xlink:title="spec/receptor_spec.h">
<polygon fill="white" stroke="black" points="290,-56.5 290,-75.5 400,-75.5 400,-56.5 290,-56.5"/>
<text text-anchor="middle" x="345" y="-63.5" font-family="Helvetica,sans-Serif" font-size="10.00">spec/receptor_spec.h</text>
</a>
</g>
</g>
<!-- Node2&#45;&gt;Node21 -->
<g id="edge62" class="edge"><title>Node2&#45;&gt;Node21</title>
<path fill="none" stroke="midnightblue" d="M977.277,-287.88C816.324,-283.95 307.963,-269.623 239,-244 162.338,-215.516 129.176,-205.346 93,-132 89.068,-124.028 87.2937,-118.815 93,-112 105.535,-97.028 219.63,-81.4041 289.931,-73.0799"/>
<polygon fill="midnightblue" stroke="midnightblue" points="977.286,-291.381 987.368,-288.124 977.455,-284.383 977.286,-291.381"/>
</g>
<!-- Node23 -->
<g id="node23" class="node"><title>Node23</title>
<g id="a_node23"><a xlink:href="base__defs_8c.html" target="_top" xlink:title="auto&#45;generated system definitions ">
<polygon fill="white" stroke="black" points="1262,-112.5 1262,-131.5 1348,-131.5 1348,-112.5 1262,-112.5"/>
<text text-anchor="middle" x="1305" y="-119.5" font-family="Helvetica,sans-Serif" font-size="10.00">src/base_defs.c</text>
</a>
</g>
</g>
<!-- Node2&#45;&gt;Node23 -->
<g id="edge36" class="edge"><title>Node2&#45;&gt;Node23</title>
<path fill="none" stroke="midnightblue" d="M1022.9,-270.274C1019.65,-243.677 1018.24,-195.181 1045,-168 1045,-168 1187.84,-143.277 1261.77,-130.481"/>
<polygon fill="midnightblue" stroke="midnightblue" points="1019.44,-270.804 1024.32,-280.205 1026.36,-269.809 1019.44,-270.804"/>
</g>
<!-- Node24 -->
<g id="node24" class="node"><title>Node24</title>
<g id="a_node24"><a xlink:href="protocol_8h.html" target="_top" xlink:title="protocol helpers header file ">
<polygon fill="white" stroke="black" points="846,-168.5 846,-187.5 922,-187.5 922,-168.5 846,-168.5"/>
<text text-anchor="middle" x="884" y="-175.5" font-family="Helvetica,sans-Serif" font-size="10.00">src/protocol.h</text>
</a>
</g>
</g>
<!-- Node2&#45;&gt;Node24 -->
<g id="edge37" class="edge"><title>Node2&#45;&gt;Node24</title>
<path fill="none" stroke="midnightblue" d="M1006.79,-274.118C976.647,-250.769 919.203,-206.27 895.091,-187.591"/>
<polygon fill="midnightblue" stroke="midnightblue" points="1004.81,-277.011 1014.86,-280.368 1009.1,-271.478 1004.81,-277.011"/>
</g>
<!-- Node26 -->
<g id="node26" class="node"><title>Node26</title>
<g id="a_node26"><a xlink:href="sys__defs_8c.html" target="_top" xlink:title="definition of system semantic elements for bootstrapping ">
<polygon fill="white" stroke="black" points="1168.5,-224.5 1168.5,-243.5 1249.5,-243.5 1249.5,-224.5 1168.5,-224.5"/>
<text text-anchor="middle" x="1209" y="-231.5" font-family="Helvetica,sans-Serif" font-size="10.00">src/sys_defs.c</text>
</a>
</g>
</g>
<!-- Node2&#45;&gt;Node26 -->
<g id="edge51" class="edge"><title>Node2&#45;&gt;Node26</title>
<path fill="none" stroke="midnightblue" d="M1064.74,-277.568C1099.26,-267.381 1149.01,-252.703 1180.14,-243.516"/>
<polygon fill="midnightblue" stroke="midnightblue" points="1063.6,-274.256 1055,-280.444 1065.58,-280.97 1063.6,-274.256"/>
</g>
<!-- Node2&#45;&gt;Node27 -->
<g id="edge52" class="edge"><title>Node2&#45;&gt;Node27</title>
<path fill="none" stroke="midnightblue" d="M1074.72,-286.848C1164.59,-282.385 1362.34,-270.268 1527,-244 1530.16,-243.496 1533.44,-242.883 1536.7,-242.216"/>
<polygon fill="midnightblue" stroke="midnightblue" points="1074.38,-283.36 1064.56,-287.342 1074.72,-290.352 1074.38,-283.36"/>
</g>
<!-- Node28 -->
<g id="node28" class="node"><title>Node28</title>
<g id="a_node28"><a xlink:href="semtable__spec_8h.html" target="_top" xlink:title="spec/semtable_spec.h">
<polygon fill="white" stroke="black" points="1054.5,-168.5 1054.5,-187.5 1169.5,-187.5 1169.5,-168.5 1054.5,-168.5"/>
<text text-anchor="middle" x="1112" y="-175.5" font-family="Helvetica,sans-Serif" font-size="10.00">spec/semtable_spec.h</text>
</a>
</g>
</g>
<!-- Node2&#45;&gt;Node28 -->
<g id="edge53" class="edge"><title>Node2&#45;&gt;Node28</title>
<path fill="none" stroke="midnightblue" d="M1039.08,-272.272C1057.67,-248.494 1091.06,-205.789 1105.28,-187.591"/>
<polygon fill="midnightblue" stroke="midnightblue" points="1036.15,-270.335 1032.75,-280.368 1041.66,-274.646 1036.15,-270.335"/>
</g>
<!-- Node29 -->
<g id="node29" class="node"><title>Node29</title>
<g id="a_node29"><a xlink:href="def__spec_8h.html" target="_top" xlink:title="spec/def_spec.h">
<polygon fill="white" stroke="black" points="1187.5,-168.5 1187.5,-187.5 1276.5,-187.5 1276.5,-168.5 1187.5,-168.5"/>
<text text-anchor="middle" x="1232" y="-175.5" font-family="Helvetica,sans-Serif" font-size="10.00">spec/def_spec.h</text>
</a>
</g>
</g>
<!-- Node2&#45;&gt;Node29 -->
<g id="edge55" class="edge"><title>Node2&#45;&gt;Node29</title>
<path fill="none" stroke="midnightblue" d="M1045.79,-274.656C1065.52,-260.711 1096.99,-239.434 1126,-224 1153.53,-209.352 1186.87,-195.846 1208.72,-187.529"/>
<polygon fill="midnightblue" stroke="midnightblue" points="1043.7,-271.842 1037.6,-280.5 1047.77,-277.54 1043.7,-271.842"/>
</g>
<!-- Node30 -->
<g id="node30" class="node"><title>Node30</title>
<g id="a_node30"><a xlink:href="semtrex__spec_8h.html" target="_top" xlink:title="spec/semtrex_spec.h">
<polygon fill="white" stroke="black" points="1295,-168.5 1295,-187.5 1405,-187.5 1405,-168.5 1295,-168.5"/>
<text text-anchor="middle" x="1350" y="-175.5" font-family="Helvetica,sans-Serif" font-size="10.00">spec/semtrex_spec.h</text>
</a>
</g>
</g>
<!-- Node2&#45;&gt;Node30 -->
<g id="edge60" class="edge"><title>Node2&#45;&gt;Node30</title>
<path fill="none" stroke="midnightblue" d="M1055.48,-276.283C1075.1,-267.616 1101.35,-255.642 1124,-244 1139.93,-235.809 1142.33,-230.567 1159,-224 1203.53,-206.457 1256.72,-194.615 1295.64,-187.501"/>
<polygon fill="midnightblue" stroke="midnightblue" points="1053.9,-273.154 1046.14,-280.375 1056.71,-279.565 1053.9,-273.154"/>
</g>
<!-- Node2&#45;&gt;Node31 -->
<g id="edge63" class="edge"><title>Node2&#45;&gt;Node31</title>
<path fill="none" stroke="midnightblue" d="M1074.67,-283.486C1146.53,-275.279 1285.23,-259.18 1403,-244 1407.63,-243.403 1412.45,-242.766 1417.27,-242.118"/>
<polygon fill="midnightblue" stroke="midnightblue" points="1074.1,-280.028 1064.56,-284.639 1074.89,-286.983 1074.1,-280.028"/>
</g>
<!-- Node32 -->
<g id="node32" class="node"><title>Node32</title>
<g id="a_node32"><a xlink:href="profile__example_8h.html" target="_top" xlink:title="spec/profile_example.h">
<polygon fill="white" stroke="black" points="1423.5,-168.5 1423.5,-187.5 1540.5,-187.5 1540.5,-168.5 1423.5,-168.5"/>
<text text-anchor="middle" x="1482" y="-175.5" font-family="Helvetica,sans-Serif" font-size="10.00">spec/profile_example.h</text>
</a>
</g>
</g>
<!-- Node2&#45;&gt;Node32 -->
<g id="edge65" class="edge"><title>Node2&#45;&gt;Node32</title>
<path fill="none" stroke="midnightblue" d="M1075.03,-288.522C1142.84,-286.541 1268.29,-278.073 1369,-244 1379.45,-240.464 1439.55,-204.601 1467.59,-187.711"/>
<polygon fill="midnightblue" stroke="midnightblue" points="1074.56,-285.033 1064.65,-288.788 1074.74,-292.031 1074.56,-285.033"/>
</g>
<!-- Node33 -->
<g id="node33" class="node"><title>Node33</title>
<g id="a_node33"><a xlink:href="spec__utils_8c.html" target="_top" xlink:title="spec/spec_utils.c">
<polygon fill="white" stroke="black" points="1267.5,-224.5 1267.5,-243.5 1360.5,-243.5 1360.5,-224.5 1267.5,-224.5"/>
<text text-anchor="middle" x="1314" y="-231.5" font-family="Helvetica,sans-Serif" font-size="10.00">spec/spec_utils.c</text>
</a>
</g>
</g>
<!-- Node2&#45;&gt;Node33 -->
<g id="edge67" class="edge"><title>Node2&#45;&gt;Node33</title>
<path fill="none" stroke="midnightblue" d="M1074.59,-279.889C1128.77,-269.731 1215.71,-253.429 1268.57,-243.518"/>
<polygon fill="midnightblue" stroke="midnightblue" points="1073.73,-276.49 1064.54,-281.773 1075.02,-283.37 1073.73,-276.49"/>
</g>
<!-- Node4 -->
<g id="node4" class="node"><title>Node4</title>
<g id="a_node4"><a xlink:href="accumulator_8h.html" target="_top" xlink:title="header file for the accumulator ">
<polygon fill="white" stroke="black" points="531.5,-168.5 531.5,-187.5 626.5,-187.5 626.5,-168.5 531.5,-168.5"/>
<text text-anchor="middle" x="579" y="-175.5" font-family="Helvetica,sans-Serif" font-size="10.00">src/accumulator.h</text>
</a>
</g>
</g>
<!-- Node3&#45;&gt;Node4 -->
<g id="edge3" class="edge"><title>Node3&#45;&gt;Node4</title>
<path fill="none" stroke="midnightblue" d="M387.981,-222.34C432.895,-212.15 499.749,-196.981 541.288,-187.556"/>
<polygon fill="midnightblue" stroke="midnightblue" points="387.165,-218.937 378.188,-224.562 388.714,-225.763 387.165,-218.937"/>
</g>
<!-- Node9 -->
<g id="node9" class="node"><title>Node9</title>
<g id="a_node9"><a xlink:href="vmhost__spec_8h.html" target="_top" xlink:title="spec/vmhost_spec.h">
<polygon fill="white" stroke="black" points="422.5,-56.5 422.5,-75.5 529.5,-75.5 529.5,-56.5 422.5,-56.5"/>
<text text-anchor="middle" x="476" y="-63.5" font-family="Helvetica,sans-Serif" font-size="10.00">spec/vmhost_spec.h</text>
</a>
</g>
</g>
<!-- Node3&#45;&gt;Node9 -->
<g id="edge34" class="edge"><title>Node3&#45;&gt;Node9</title>
<path fill="none" stroke="midnightblue" d="M325.513,-216.747C303.828,-191.986 269.754,-144.291 295,-112 303.351,-101.318 378.261,-85.3497 429.056,-75.5857"/>
<polygon fill="midnightblue" stroke="midnightblue" points="322.975,-219.159 332.288,-224.21 328.158,-214.454 322.975,-219.159"/>
</g>
<!-- Node16 -->
<g id="node16" class="node"><title>Node16</title>
<g id="a_node16"><a xlink:href="vmhost_8c.html" target="_top" xlink:title="virtual machine host receptor implementation ">
<polygon fill="white" stroke="black" points="304,-112.5 304,-131.5 378,-131.5 378,-112.5 304,-112.5"/>
<text text-anchor="middle" x="341" y="-119.5" font-family="Helvetica,sans-Serif" font-size="10.00">src/vmhost.c</text>
</a>
</g>
</g>
<!-- Node3&#45;&gt;Node16 -->
<g id="edge31" class="edge"><title>Node3&#45;&gt;Node16</title>
<path fill="none" stroke="midnightblue" d="M341,-214.348C341,-190.254 341,-149.308 341,-131.591"/>
<polygon fill="midnightblue" stroke="midnightblue" points="337.5,-214.368 341,-224.368 344.5,-214.369 337.5,-214.368"/>
</g>
<!-- Node3&#45;&gt;Node18 -->
<g id="edge32" class="edge"><title>Node3&#45;&gt;Node18</title>
<path fill="none" stroke="midnightblue" d="M299.528,-221.487C276.264,-213.967 247.321,-202.784 224,-188 198.62,-171.911 174.595,-145.371 163.088,-131.715"/>
<polygon fill="midnightblue" stroke="midnightblue" points="298.529,-224.842 309.118,-224.486 300.618,-218.161 298.529,-224.842"/>
</g>
<!-- Node3&#45;&gt;Node21 -->
<g id="edge33" class="edge"><title>Node3&#45;&gt;Node21</title>
<path fill="none" stroke="midnightblue" d="M301.795,-220.46C286.578,-213.457 270.736,-203.03 262,-188 245.026,-158.797 244.721,-141.024 262,-112 272.984,-93.5496 294.461,-82.1985 312.815,-75.5124"/>
<polygon fill="midnightblue" stroke="midnightblue" points="300.545,-223.731 311.119,-224.387 303.262,-217.28 300.545,-223.731"/>
</g>
<!-- Node22 -->
<g id="node22" class="node"><title>Node22</title>
<g id="a_node22"><a xlink:href="protocol_8c.html" target="_top" xlink:title="implementation of protocol helpers ">
<polygon fill="white" stroke="black" points="1168,-112.5 1168,-131.5 1244,-131.5 1244,-112.5 1168,-112.5"/>
<text text-anchor="middle" x="1206" y="-119.5" font-family="Helvetica,sans-Serif" font-size="10.00">src/protocol.c</text>
</a>
</g>
</g>
<!-- Node3&#45;&gt;Node22 -->
<g id="edge30" class="edge"><title>Node3&#45;&gt;Node22</title>
<path fill="none" stroke="midnightblue" d="M388.318,-232.051C488.851,-229.452 730.909,-220.105 931,-188 967.613,-182.125 975.938,-176.634 1012,-168 1066.3,-154.998 1129.3,-140.492 1168.41,-131.554"/>
<polygon fill="midnightblue" stroke="midnightblue" points="388.094,-228.555 378.184,-232.302 388.268,-235.553 388.094,-228.555"/>
</g>
<!-- Node4&#45;&gt;Node5 -->
<g id="edge4" class="edge"><title>Node4&#45;&gt;Node5</title>
<path fill="none" stroke="midnightblue" d="M609.906,-164.638C635.24,-154.504 670.431,-140.427 692.709,-131.516"/>
<polygon fill="midnightblue" stroke="midnightblue" points="608.376,-161.48 600.391,-168.444 610.976,-167.979 608.376,-161.48"/>
</g>
<!-- Node6 -->
<g id="node6" class="node"><title>Node6</title>
<g id="a_node6"><a xlink:href="ceptr_8c.html" target="_top" xlink:title="implements main() entry point for the ceptr node ">
<polygon fill="white" stroke="black" points="547.5,-56.5 547.5,-75.5 610.5,-75.5 610.5,-56.5 547.5,-56.5"/>
<text text-anchor="middle" x="579" y="-63.5" font-family="Helvetica,sans-Serif" font-size="10.00">src/ceptr.c</text>
</a>
</g>
</g>
<!-- Node4&#45;&gt;Node6 -->
<g id="edge5" class="edge"><title>Node4&#45;&gt;Node6</title>
<path fill="none" stroke="midnightblue" d="M559.69,-161.617C546.319,-148.968 532.072,-130.222 539,-112 544.721,-96.9535 558.034,-83.7254 567.734,-75.5728"/>
<polygon fill="midnightblue" stroke="midnightblue" points="557.476,-164.331 567.295,-168.311 562.1,-159.076 557.476,-164.331"/>
</g>
<!-- Node7 -->
<g id="node7" class="node"><title>Node7</title>
<g id="a_node7"><a xlink:href="shell_8h.html" target="_top" xlink:title="command line shell receptor header files ">
<polygon fill="white" stroke="black" points="548,-112.5 548,-131.5 610,-131.5 610,-112.5 548,-112.5"/>
<text text-anchor="middle" x="579" y="-119.5" font-family="Helvetica,sans-Serif" font-size="10.00">src/shell.h</text>
</a>
</g>
</g>
<!-- Node4&#45;&gt;Node7 -->
<g id="edge6" class="edge"><title>Node4&#45;&gt;Node7</title>
<path fill="none" stroke="midnightblue" d="M579,-157.805C579,-148.91 579,-138.78 579,-131.751"/>
<polygon fill="midnightblue" stroke="midnightblue" points="575.5,-158.083 579,-168.083 582.5,-158.083 575.5,-158.083"/>
</g>
<!-- Node11 -->
<g id="node11" class="node"><title>Node11</title>
<g id="a_node11"><a xlink:href="group_8h.html" target="_top" xlink:title="group communication receptors header file ">
<polygon fill="white" stroke="black" points="912.5,-112.5 912.5,-131.5 977.5,-131.5 977.5,-112.5 912.5,-112.5"/>
<text text-anchor="middle" x="945" y="-119.5" font-family="Helvetica,sans-Serif" font-size="10.00">src/group.h</text>
</a>
</g>
</g>
<!-- Node4&#45;&gt;Node11 -->
<g id="edge11" class="edge"><title>Node4&#45;&gt;Node11</title>
<path fill="none" stroke="midnightblue" d="M636.962,-168.448C714.734,-156.974 850.244,-136.98 912.289,-127.826"/>
<polygon fill="midnightblue" stroke="midnightblue" points="636.23,-165.018 626.848,-169.94 637.252,-171.943 636.23,-165.018"/>
</g>
<!-- Node4&#45;&gt;Node14 -->
<g id="edge15" class="edge"><title>Node4&#45;&gt;Node14</title>
<path fill="none" stroke="midnightblue" d="M626.724,-166.217C671.885,-156.013 738.773,-140.901 780.307,-131.516"/>
<polygon fill="midnightblue" stroke="midnightblue" points="625.853,-162.826 616.87,-168.444 627.396,-169.654 625.853,-162.826"/>
</g>
<!-- Node4&#45;&gt;Node15 -->
<g id="edge16" class="edge"><title>Node4&#45;&gt;Node15</title>
<path fill="none" stroke="midnightblue" d="M636.933,-170.667C738.889,-159.522 947.763,-136.69 1034.21,-127.24"/>
<polygon fill="midnightblue" stroke="midnightblue" points="636.376,-167.207 626.816,-171.773 637.137,-174.166 636.376,-167.207"/>
</g>
<!-- Node4&#45;&gt;Node16 -->
<g id="edge17" class="edge"><title>Node4&#45;&gt;Node16</title>
<path fill="none" stroke="midnightblue" d="M531.446,-166.21C486.332,-155.974 419.464,-140.803 378.144,-131.428"/>
<polygon fill="midnightblue" stroke="midnightblue" points="530.762,-169.644 541.288,-168.444 532.311,-162.818 530.762,-169.644"/>
</g>
<!-- Node17 -->
<g id="node17" class="node"><title>Node17</title>
<g id="a_node17"><a xlink:href="accumulator__spec_8h_source.html" target="_top" xlink:title="spec/accumulator_spec.h">
<polygon fill="white" stroke="black" points="710,-56.5 710,-75.5 838,-75.5 838,-56.5 710,-56.5"/>
<text text-anchor="middle" x="774" y="-63.5" font-family="Helvetica,sans-Serif" font-size="10.00">spec/accumulator_spec.h</text>
</a>
</g>
</g>
<!-- Node4&#45;&gt;Node17 -->
<g id="edge18" class="edge"><title>Node4&#45;&gt;Node17</title>
<path fill="none" stroke="midnightblue" d="M594.769,-161.16C609.739,-146.813 633.401,-125.857 657,-112 684.775,-95.6905 719.54,-83.1986 743.929,-75.5613"/>
<polygon fill="midnightblue" stroke="midnightblue" points="592.104,-158.871 587.402,-168.365 596.999,-163.875 592.104,-158.871"/>
</g>
<!-- Node4&#45;&gt;Node18 -->
<g id="edge20" class="edge"><title>Node4&#45;&gt;Node18</title>
<path fill="none" stroke="midnightblue" d="M521.139,-169.613C438.998,-159.127 289.709,-140.069 209.832,-129.872"/>
<polygon fill="midnightblue" stroke="midnightblue" points="520.936,-173.116 531.299,-170.91 521.823,-166.172 520.936,-173.116"/>
</g>
<!-- Node4&#45;&gt;Node21 -->
<g id="edge29" class="edge"><title>Node4&#45;&gt;Node21</title>
<path fill="none" stroke="midnightblue" d="M526.291,-165.996C496.952,-158.679 460.339,-147.529 430,-132 399.572,-116.426 368.973,-89.6604 354.168,-75.8368"/>
<polygon fill="midnightblue" stroke="midnightblue" points="525.801,-169.479 536.343,-168.425 527.445,-162.674 525.801,-169.479"/>
</g>
<!-- Node7&#45;&gt;Node6 -->
<g id="edge7" class="edge"><title>Node7&#45;&gt;Node6</title>
<path fill="none" stroke="midnightblue" d="M579,-101.805C579,-92.9102 579,-82.7798 579,-75.7511"/>
<polygon fill="midnightblue" stroke="midnightblue" points="575.5,-102.083 579,-112.083 582.5,-102.083 575.5,-102.083"/>
</g>
<!-- Node8 -->
<g id="node8" class="node"><title>Node8</title>
<g id="a_node8"><a xlink:href="shell_8c.html" target="_top" xlink:title="implementation of a command line shell receptor ">
<polygon fill="white" stroke="black" points="630,-56.5 630,-75.5 692,-75.5 692,-56.5 630,-56.5"/>
<text text-anchor="middle" x="661" y="-63.5" font-family="Helvetica,sans-Serif" font-size="10.00">src/shell.c</text>
</a>
</g>
</g>
<!-- Node7&#45;&gt;Node8 -->
<g id="edge8" class="edge"><title>Node7&#45;&gt;Node8</title>
<path fill="none" stroke="midnightblue" d="M600.833,-106.622C615.813,-96.7574 635.197,-83.9919 647.858,-75.6545"/>
<polygon fill="midnightblue" stroke="midnightblue" points="598.601,-103.901 592.175,-112.324 602.451,-109.747 598.601,-103.901"/>
</g>
<!-- Node7&#45;&gt;Node9 -->
<g id="edge9" class="edge"><title>Node7&#45;&gt;Node9</title>
<path fill="none" stroke="midnightblue" d="M553.421,-107.59C534.377,-97.6052 508.936,-84.2672 492.508,-75.6545"/>
<polygon fill="midnightblue" stroke="midnightblue" points="551.969,-110.78 562.451,-112.324 555.22,-104.581 551.969,-110.78"/>
</g>
<!-- Node10 -->
<g id="node10" class="node"><title>Node10</title>
<g id="a_node10"><a xlink:href="ceptr__specs_8c.html" target="_top" xlink:title="implements a main() entry point for running all the tests ">
<polygon fill="white" stroke="black" points="855,-0.5 855,-19.5 957,-19.5 957,-0.5 855,-0.5"/>
<text text-anchor="middle" x="906" y="-7.5" font-family="Helvetica,sans-Serif" font-size="10.00">spec/ceptr_specs.c</text>
</a>
</g>
</g>
<!-- Node9&#45;&gt;Node10 -->
<g id="edge10" class="edge"><title>Node9&#45;&gt;Node10</title>
<path fill="none" stroke="midnightblue" d="M539.722,-55.7917C658.131,-40.0472 785.558,-24.9436 854.755,-16.8978"/>
<polygon fill="midnightblue" stroke="midnightblue" points="539.207,-52.3292 529.758,-57.121 540.133,-59.2678 539.207,-52.3292"/>
</g>
<!-- Node12 -->
<g id="node12" class="node"><title>Node12</title>
<g id="a_node12"><a xlink:href="group_8c.html" target="_top" xlink:title="implementation of some group communication receptors ">
<polygon fill="white" stroke="black" points="973.5,-56.5 973.5,-75.5 1038.5,-75.5 1038.5,-56.5 973.5,-56.5"/>
<text text-anchor="middle" x="1006" y="-63.5" font-family="Helvetica,sans-Serif" font-size="10.00">src/group.c</text>
</a>
</g>
</g>
<!-- Node11&#45;&gt;Node12 -->
<g id="edge12" class="edge"><title>Node11&#45;&gt;Node12</title>
<path fill="none" stroke="midnightblue" d="M962.467,-105.537C973.344,-95.9087 986.944,-83.8694 996.021,-75.8339"/>
<polygon fill="midnightblue" stroke="midnightblue" points="959.968,-103.075 954.801,-112.324 964.608,-108.316 959.968,-103.075"/>
</g>
<!-- Node13 -->
<g id="node13" class="node"><title>Node13</title>
<g id="a_node13"><a xlink:href="group__spec_8h.html" target="_top" xlink:title="spec/group_spec.h">
<polygon fill="white" stroke="black" points="856.5,-56.5 856.5,-75.5 955.5,-75.5 955.5,-56.5 856.5,-56.5"/>
<text text-anchor="middle" x="906" y="-63.5" font-family="Helvetica,sans-Serif" font-size="10.00">spec/group_spec.h</text>
</a>
</g>
</g>
<!-- Node11&#45;&gt;Node13 -->
<g id="edge13" class="edge"><title>Node11&#45;&gt;Node13</title>
<path fill="none" stroke="midnightblue" d="M932.618,-103.855C925.865,-94.5048 917.791,-83.3265 912.32,-75.7511"/>
<polygon fill="midnightblue" stroke="midnightblue" points="929.868,-106.025 938.56,-112.083 935.542,-101.927 929.868,-106.025"/>
</g>
<!-- Node13&#45;&gt;Node10 -->
<g id="edge14" class="edge"><title>Node13&#45;&gt;Node10</title>
<path fill="none" stroke="midnightblue" d="M906,-45.8045C906,-36.9102 906,-26.7798 906,-19.7511"/>
<polygon fill="midnightblue" stroke="midnightblue" points="902.5,-46.083 906,-56.083 909.5,-46.083 902.5,-46.083"/>
</g>
<!-- Node17&#45;&gt;Node10 -->
<g id="edge19" class="edge"><title>Node17&#45;&gt;Node10</title>
<path fill="none" stroke="midnightblue" d="M804.219,-52.6377C828.99,-42.504 863.4,-28.4274 885.182,-19.5164"/>
<polygon fill="midnightblue" stroke="midnightblue" points="802.846,-49.4177 794.916,-56.4435 805.497,-55.8966 802.846,-49.4177"/>
</g>
<!-- Node18&#45;&gt;Node9 -->
<g id="edge27" class="edge"><title>Node18&#45;&gt;Node9</title>
<path fill="none" stroke="midnightblue" d="M216.874,-110.727C277.345,-100.523 368.988,-85.0583 425.532,-75.5164"/>
<polygon fill="midnightblue" stroke="midnightblue" points="215.983,-107.328 206.705,-112.444 217.148,-114.231 215.983,-107.328"/>
</g>
<!-- Node18&#45;&gt;Node10 -->
<g id="edge28" class="edge"><title>Node18&#45;&gt;Node10</title>
<path fill="none" stroke="midnightblue" d="M177.012,-106.637C200.985,-91.0933 241.937,-67.051 281,-56 388.427,-25.6086 725.353,-15.0236 854.717,-12.0212"/>
<polygon fill="midnightblue" stroke="midnightblue" points="174.818,-103.892 168.407,-112.328 178.679,-109.731 174.818,-103.892"/>
</g>
<!-- Node18&#45;&gt;Node19 -->
<g id="edge21" class="edge"><title>Node18&#45;&gt;Node19</title>
<path fill="none" stroke="midnightblue" d="M129.238,-107.862C108.841,-97.8492 81.3341,-84.3458 63.6295,-75.6545"/>
<polygon fill="midnightblue" stroke="midnightblue" points="127.808,-111.059 138.327,-112.324 130.892,-104.775 127.808,-111.059"/>
</g>
<!-- Node18&#45;&gt;Node20 -->
<g id="edge23" class="edge"><title>Node18&#45;&gt;Node20</title>
<path fill="none" stroke="midnightblue" d="M157.4,-102.101C158.064,-93.1357 158.825,-82.8579 159.352,-75.7511"/>
<polygon fill="midnightblue" stroke="midnightblue" points="153.909,-101.852 156.661,-112.083 160.89,-102.369 153.909,-101.852"/>
</g>
<!-- Node18&#45;&gt;Node21 -->
<g id="edge25" class="edge"><title>Node18&#45;&gt;Node21</title>
<path fill="none" stroke="midnightblue" d="M196.013,-109.568C231.667,-99.381 283.038,-84.7034 315.192,-75.5164"/>
<polygon fill="midnightblue" stroke="midnightblue" points="194.601,-106.331 185.948,-112.444 196.524,-113.062 194.601,-106.331"/>
</g>
<!-- Node19&#45;&gt;Node10 -->
<g id="edge22" class="edge"><title>Node19&#45;&gt;Node10</title>
<path fill="none" stroke="midnightblue" d="M102.475,-55.959C392.855,-24.6945 728.993,-14.7695 854.986,-11.9701"/>
<polygon fill="midnightblue" stroke="midnightblue" points="101.728,-52.5196 92.1647,-57.0802 102.485,-59.4785 101.728,-52.5196"/>
</g>
<!-- Node20&#45;&gt;Node10 -->
<g id="edge24" class="edge"><title>Node20&#45;&gt;Node10</title>
<path fill="none" stroke="midnightblue" d="M220.565,-57.8981C227.12,-57.2154 233.697,-56.5672 240,-56 469.113,-35.3824 743.342,-19.6828 854.971,-13.6704"/>
<polygon fill="midnightblue" stroke="midnightblue" points="219.894,-54.4497 210.322,-58.9926 220.638,-61.4101 219.894,-54.4497"/>
</g>
<!-- Node21&#45;&gt;Node10 -->
<g id="edge26" class="edge"><title>Node21&#45;&gt;Node10</title>
<path fill="none" stroke="midnightblue" d="M410.263,-56.3096C411.181,-56.2045 412.094,-56.1013 413,-56 574.006,-38.0046 765.2,-22.1122 854.831,-14.9825"/>
<polygon fill="midnightblue" stroke="midnightblue" points="409.792,-52.8408 400.273,-57.4938 410.616,-59.7922 409.792,-52.8408"/>
</g>
<!-- Node24&#45;&gt;Node8 -->
<g id="edge43" class="edge"><title>Node24&#45;&gt;Node8</title>
<path fill="none" stroke="midnightblue" d="M883.462,-158.029C882.007,-143.415 877.611,-123.778 865,-112 810.462,-61.065 773.847,-92.1905 701,-76 698.082,-75.3514 695.044,-74.6733 692.005,-73.993"/>
<polygon fill="midnightblue" stroke="midnightblue" points="879.994,-158.659 884.1,-168.426 886.981,-158.23 879.994,-158.659"/>
</g>
<!-- Node24&#45;&gt;Node9 -->
<g id="edge46" class="edge"><title>Node24&#45;&gt;Node9</title>
<path fill="none" stroke="midnightblue" d="M835.853,-174.624C753.608,-169.925 589.989,-157.604 539,-132 512.597,-118.742 490.997,-89.9017 481.385,-75.5158"/>
<polygon fill="midnightblue" stroke="midnightblue" points="835.765,-178.124 845.944,-175.186 836.154,-171.135 835.765,-178.124"/>
</g>
<!-- Node24&#45;&gt;Node12 -->
<g id="edge39" class="edge"><title>Node24&#45;&gt;Node12</title>
<path fill="none" stroke="midnightblue" d="M931.695,-165.375C950.894,-158.523 971.805,-147.961 986,-132 1000.44,-115.767 1004.45,-89.2896 1005.57,-75.6804"/>
<polygon fill="midnightblue" stroke="midnightblue" points="930.542,-162.07 922.151,-168.539 932.745,-168.714 930.542,-162.07"/>
</g>
<!-- Node24&#45;&gt;Node14 -->
<g id="edge40" class="edge"><title>Node24&#45;&gt;Node14</title>
<path fill="none" stroke="midnightblue" d="M865.446,-161.82C853.622,-152.145 838.714,-139.948 828.797,-131.834"/>
<polygon fill="midnightblue" stroke="midnightblue" points="863.44,-164.7 873.396,-168.324 867.873,-159.283 863.44,-164.7"/>
</g>
<!-- Node24&#45;&gt;Node15 -->
<g id="edge42" class="edge"><title>Node24&#45;&gt;Node15</title>
<path fill="none" stroke="midnightblue" d="M924.013,-165.568C959.667,-155.381 1011.04,-140.703 1043.19,-131.516"/>
<polygon fill="midnightblue" stroke="midnightblue" points="922.601,-162.331 913.948,-168.444 924.524,-169.062 922.601,-162.331"/>
</g>
<!-- Node24&#45;&gt;Node18 -->
<g id="edge44" class="edge"><title>Node24&#45;&gt;Node18</title>
<path fill="none" stroke="midnightblue" d="M835.8,-173.425C705.363,-163.749 346.121,-137.102 209.598,-126.976"/>
<polygon fill="midnightblue" stroke="midnightblue" points="835.653,-176.923 845.885,-174.173 836.171,-169.943 835.653,-176.923"/>
</g>
<!-- Node24&#45;&gt;Node21 -->
<g id="edge45" class="edge"><title>Node24&#45;&gt;Node21</title>
<path fill="none" stroke="midnightblue" d="M835.886,-175.134C763.982,-171.47 624.673,-160.977 510,-132 454.18,-117.895 391.868,-89.7135 362.333,-75.5466"/>
<polygon fill="midnightblue" stroke="midnightblue" points="835.836,-178.636 845.994,-175.627 836.177,-171.644 835.836,-178.636"/>
</g>
<!-- Node24&#45;&gt;Node22 -->
<g id="edge41" class="edge"><title>Node24&#45;&gt;Node22</title>
<path fill="none" stroke="midnightblue" d="M932.143,-168.654C933.442,-168.433 934.73,-168.215 936,-168 1032.83,-151.626 1057.17,-148.374 1154,-132 1158.52,-131.236 1163.25,-130.427 1167.95,-129.62"/>
<polygon fill="midnightblue" stroke="midnightblue" points="931.317,-165.244 922.05,-170.38 932.496,-172.144 931.317,-165.244"/>
</g>
<!-- Node24&#45;&gt;Node23 -->
<g id="edge38" class="edge"><title>Node24&#45;&gt;Node23</title>
<path fill="none" stroke="midnightblue" d="M932.418,-171.877C1003.04,-164.227 1138.37,-148.898 1253,-132 1255.9,-131.572 1258.89,-131.111 1261.9,-130.631"/>
<polygon fill="midnightblue" stroke="midnightblue" points="931.632,-168.441 922.065,-172.993 932.383,-175.401 931.632,-168.441"/>
</g>
<!-- Node25 -->
<g id="node25" class="node"><title>Node25</title>
<g id="a_node25"><a xlink:href="protocol__spec_8h.html" target="_top" xlink:title="spec/protocol_spec.h">
<polygon fill="white" stroke="black" points="1071,-56.5 1071,-75.5 1181,-75.5 1181,-56.5 1071,-56.5"/>
<text text-anchor="middle" x="1126" y="-63.5" font-family="Helvetica,sans-Serif" font-size="10.00">spec/protocol_spec.h</text>
</a>
</g>
</g>
<!-- Node24&#45;&gt;Node25 -->
<g id="edge47" class="edge"><title>Node24&#45;&gt;Node25</title>
<path fill="none" stroke="midnightblue" d="M932.127,-168.568C1000.22,-156.533 1116.83,-135.493 1120,-132 1134.02,-116.562 1130.98,-89.7371 1128.17,-75.8692"/>
<polygon fill="midnightblue" stroke="midnightblue" points="931.286,-165.162 922.047,-170.346 932.503,-172.055 931.286,-165.162"/>
</g>
<!-- Node25&#45;&gt;Node10 -->
<g id="edge48" class="edge"><title>Node25&#45;&gt;Node10</title>
<path fill="none" stroke="midnightblue" d="M1081.28,-54.0237C1039.72,-43.8232 978.687,-28.8414 940.697,-19.5164"/>
<polygon fill="midnightblue" stroke="midnightblue" points="1080.59,-57.4588 1091.14,-56.4435 1082.26,-50.6606 1080.59,-57.4588"/>
</g>
<!-- Node28&#45;&gt;Node10 -->
<g id="edge54" class="edge"><title>Node28&#45;&gt;Node10</title>
<path fill="none" stroke="midnightblue" d="M1178.71,-166.893C1249.26,-155.883 1351.24,-138.918 1357,-132 1362.69,-125.17 1362.19,-119.216 1357,-112 1310.55,-47.4354 1065.57,-22.2988 957.407,-14.2436"/>
<polygon fill="midnightblue" stroke="midnightblue" points="1177.89,-163.478 1168.55,-168.472 1178.96,-170.395 1177.89,-163.478"/>
</g>
<!-- Node29&#45;&gt;Node10 -->
<g id="edge56" class="edge"><title>Node29&#45;&gt;Node10</title>
<path fill="none" stroke="midnightblue" d="M1286.57,-166.627C1321.93,-158.67 1363.32,-146.591 1374,-132 1379.25,-124.828 1378.19,-119.837 1374,-112 1352.83,-72.4401 1332.11,-71.4836 1290,-56 1230.07,-33.9661 1047.14,-19.8286 957.12,-14.0201"/>
<polygon fill="midnightblue" stroke="midnightblue" points="1285.81,-163.21 1276.79,-168.76 1287.3,-170.049 1285.81,-163.21"/>
</g>
<!-- Node30&#45;&gt;Node10 -->
<g id="edge61" class="edge"><title>Node30&#45;&gt;Node10</title>
<path fill="none" stroke="midnightblue" d="M1369.77,-161.431C1383.4,-148.677 1397.77,-129.879 1390,-112 1375.46,-78.5453 1363.18,-71.1509 1330,-56 1264.68,-26.176 1054.87,-15.7114 957.069,-12.3919"/>
<polygon fill="midnightblue" stroke="midnightblue" points="1367.25,-158.985 1362,-168.19 1371.84,-164.266 1367.25,-158.985"/>
</g>
<!-- Node31&#45;&gt;Node10 -->
<g id="edge64" class="edge"><title>Node31&#45;&gt;Node10</title>
<path fill="none" stroke="midnightblue" d="M1505.69,-220.687C1532.3,-209.704 1561.2,-191.699 1549,-168 1509.76,-91.7984 1472.34,-85.8725 1392,-56 1313.27,-26.7265 1065.02,-15.8054 957.019,-12.3677"/>
<polygon fill="midnightblue" stroke="midnightblue" points="1504.14,-217.537 1496.08,-224.414 1506.66,-224.064 1504.14,-217.537"/>
</g>
<!-- Node32&#45;&gt;Node10 -->
<g id="edge66" class="edge"><title>Node32&#45;&gt;Node10</title>
<path fill="none" stroke="midnightblue" d="M1470.89,-159.74C1452.16,-132.326 1411.47,-79.5304 1362,-56 1291.42,-22.4294 1060.53,-13.882 957.01,-11.7223"/>
<polygon fill="midnightblue" stroke="midnightblue" points="1468.12,-161.902 1476.57,-168.289 1473.95,-158.024 1468.12,-161.902"/>
</g>
</g>
</svg>
