<?xml version="1.0" encoding="UTF-8" standalone="no"?>
<!DOCTYPE svg PUBLIC "-//W3C//DTD SVG 1.1//EN"
 "http://www.w3.org/Graphics/SVG/1.1/DTD/svg11.dtd">
<!-- Generated by graphviz version 2.38.0 (20140413.2041)
 -->
<!-- Title: spec/scape_spec.h Pages: 1 -->
<!--zoomable 476 -->
<svg id="main" version="1.1" xmlns="http://www.w3.org/2000/svg" xmlns:xlink="http://www.w3.org/1999/xlink" xml:space="preserve" onload="init(evt)">
<style type="text/css"><![CDATA[
.edge:hover path { stroke: red; }
.edge:hover polygon { stroke: red; fill: red; }
]]></style>
<script type="text/javascript"><![CDATA[
var edges = document.getElementsByTagName('g');
if (edges && edges.length) {
  for (var i=0;i<edges.length;i++) {
    if (edges[i].id.substr(0,4)=='edge') {
      edges[i].setAttribute('class','edge');
    }
  }
}
]]></script>
        <defs>
                <circle id="rim" cx="0" cy="0" r="7"/>
                <circle id="rim2" cx="0" cy="0" r="3.5"/>
                <g id="zoomPlus">
                        <use xlink:href="#rim" fill="#404040">
                                <set attributeName="fill" to="#808080" begin="zoomplus.mouseover" end="zoomplus.mouseout"/>
                        </use>
                        <path d="M-4,0h8M0,-4v8" fill="none" stroke="white" stroke-width="1.5" pointer-events="none"/>
                </g>
                <g id="zoomMin">
                        <use xlink:href="#rim" fill="#404040">
                                <set attributeName="fill" to="#808080" begin="zoomminus.mouseover" end="zoomminus.mouseout"/>
                        </use>
                        <path d="M-4,0h8" fill="none" stroke="white" stroke-width="1.5" pointer-events="none"/>
                </g>
                <g id="dirArrow">
                        <path fill="none" stroke="white" stroke-width="1.5" d="M0,-3.0v7 M-2.5,-0.5L0,-3.0L2.5,-0.5"/>
                </g>
               <g id="resetDef">
                       <use xlink:href="#rim2" fill="#404040">
                               <set attributeName="fill" to="#808080" begin="reset.mouseover" end="reset.mouseout"/>
                       </use>
               </g>
        </defs>

<script type="text/javascript">
var viewWidth = 1129;
var viewHeight = 476;
var sectionId = 'dynsection-0';
</script>
<script xlink:href="svgpan.js"/>
<svg id="graph" class="graph">
<g id="viewport">
<title>spec/scape_spec.h</title>
<polygon fill="white" stroke="none" points="-4,4 -4,-472 1124.54,-472 1124.54,4 -4,4"/>
<!-- Node1 -->
<g id="node1" class="node"><title>Node1</title>
<polygon fill="#bfbfbf" stroke="black" points="273,-448.5 273,-467.5 374,-467.5 374,-448.5 273,-448.5"/>
<text text-anchor="middle" x="323.5" y="-455.5" font-family="Helvetica,sans-Serif" font-size="10.00">spec/scape_spec.h</text>
</g>
<!-- Node2 -->
<g id="node2" class="node"><title>Node2</title>
<g id="a_node2"><a xlink:href="ceptr_8h_source.html" target="_top" xlink:title="../src/ceptr.h">
<polygon fill="white" stroke="black" points="799.5,-336.5 799.5,-355.5 871.5,-355.5 871.5,-336.5 799.5,-336.5"/>
<text text-anchor="middle" x="835.5" y="-343.5" font-family="Helvetica,sans-Serif" font-size="10.00">../src/ceptr.h</text>
</a>
</g>
</g>
<!-- Node1&#45;&gt;Node2 -->
<g id="edge1" class="edge"><title>Node1&#45;&gt;Node2</title>
<path fill="none" stroke="midnightblue" d="M363.25,-448.46C456.629,-428.398 689.593,-378.347 789.173,-356.953"/>
<polygon fill="midnightblue" stroke="midnightblue" points="790.19,-360.314 799.232,-354.792 788.72,-353.471 790.19,-360.314"/>
</g>
<!-- Node25 -->
<g id="node25" class="node"><title>Node25</title>
<g id="a_node25"><a xlink:href="scape_8h.html" target="_top" xlink:title="scape header files ">
<polygon fill="white" stroke="black" points="160,-336.5 160,-355.5 237,-355.5 237,-336.5 160,-336.5"/>
<text text-anchor="middle" x="198.5" y="-343.5" font-family="Helvetica,sans-Serif" font-size="10.00">../src/scape.h</text>
</a>
</g>
</g>
<!-- Node1&#45;&gt;Node25 -->
<g id="edge45" class="edge"><title>Node1&#45;&gt;Node25</title>
<path fill="none" stroke="midnightblue" d="M313.495,-448.415C302.998,-439.39 286.035,-424.759 271.5,-412 252.524,-395.342 230.945,-376.089 216.2,-362.886"/>
<polygon fill="midnightblue" stroke="midnightblue" points="218.162,-359.944 208.379,-355.876 213.489,-365.157 218.162,-359.944"/>
</g>
<!-- Node26 -->
<g id="node26" class="node"><title>Node26</title>
<g id="a_node26"><a xlink:href="receptor_8h.html" target="_top" xlink:title="receptor implementation header file ">
<polygon fill="white" stroke="black" points="280.5,-392.5 280.5,-411.5 366.5,-411.5 366.5,-392.5 280.5,-392.5"/>
<text text-anchor="middle" x="323.5" y="-399.5" font-family="Helvetica,sans-Serif" font-size="10.00">../src/receptor.h</text>
</a>
</g>
</g>
<!-- Node1&#45;&gt;Node26 -->
<g id="edge47" class="edge"><title>Node1&#45;&gt;Node26</title>
<path fill="none" stroke="midnightblue" d="M323.5,-448.083C323.5,-441.006 323.5,-430.861 323.5,-421.986"/>
<polygon fill="midnightblue" stroke="midnightblue" points="327,-421.751 323.5,-411.751 320,-421.751 327,-421.751"/>
</g>
<!-- Node3 -->
<g id="node3" class="node"><title>Node3</title>
<polygon fill="white" stroke="#bfbfbf" points="392,-0.5 392,-19.5 441,-19.5 441,-0.5 392,-0.5"/>
<text text-anchor="middle" x="416.5" y="-7.5" font-family="Helvetica,sans-Serif" font-size="10.00">string.h</text>
</g>
<!-- Node2&#45;&gt;Node3 -->
<g id="edge2" class="edge"><title>Node2&#45;&gt;Node3</title>
<path fill="none" stroke="midnightblue" d="M871.903,-343.14C935.415,-339.193 1062.92,-327.937 1096.5,-300 1120.17,-280.305 1120.5,-265.795 1120.5,-235 1120.5,-235 1120.5,-235 1120.5,-121 1120.5,-90.2048 1121.17,-74.4299 1096.5,-56 1044.58,-17.2171 583.474,-11.8573 451.592,-11.118"/>
<polygon fill="midnightblue" stroke="midnightblue" points="451.284,-7.61647 441.266,-11.0659 451.248,-14.6164 451.284,-7.61647"/>
</g>
<!-- Node4 -->
<g id="node4" class="node"><title>Node4</title>
<polygon fill="white" stroke="#bfbfbf" points="803.5,-56.5 803.5,-75.5 849.5,-75.5 849.5,-56.5 803.5,-56.5"/>
<text text-anchor="middle" x="826.5" y="-63.5" font-family="Helvetica,sans-Serif" font-size="10.00">stdio.h</text>
</g>
<!-- Node2&#45;&gt;Node4 -->
<g id="edge3" class="edge"><title>Node2&#45;&gt;Node4</title>
<path fill="none" stroke="midnightblue" d="M866.57,-336.377C917.556,-320.394 1011.01,-282.388 986.5,-224 958.589,-157.508 887.257,-105.018 849.985,-81.0963"/>
<polygon fill="midnightblue" stroke="midnightblue" points="851.62,-77.9906 841.29,-75.6389 847.899,-83.9195 851.62,-77.9906"/>
</g>
<!-- Node5 -->
<g id="node5" class="node"><title>Node5</title>
<polygon fill="white" stroke="#bfbfbf" points="266.5,-0.5 266.5,-19.5 314.5,-19.5 314.5,-0.5 266.5,-0.5"/>
<text text-anchor="middle" x="290.5" y="-7.5" font-family="Helvetica,sans-Serif" font-size="10.00">stdlib.h</text>
</g>
<!-- Node2&#45;&gt;Node5 -->
<g id="edge4" class="edge"><title>Node2&#45;&gt;Node5</title>
<path fill="none" stroke="midnightblue" d="M871.68,-344.803C940.287,-342.323 1082.5,-326.185 1082.5,-235 1082.5,-235 1082.5,-235 1082.5,-121 1082.5,-13.8805 672.363,-45.1362 382.5,-20 363.434,-18.3466 342.167,-16.2807 324.888,-14.5453"/>
<polygon fill="midnightblue" stroke="midnightblue" points="325.001,-11.039 314.699,-13.5142 324.296,-18.0034 325.001,-11.039"/>
</g>
<!-- Node6 -->
<g id="node6" class="node"><title>Node6</title>
<g id="a_node6"><a xlink:href="ceptr__error_8h_source.html" target="_top" xlink:title="ceptr_error.h">
<polygon fill="white" stroke="black" points="627,-224.5 627,-243.5 698,-243.5 698,-224.5 627,-224.5"/>
<text text-anchor="middle" x="662.5" y="-231.5" font-family="Helvetica,sans-Serif" font-size="10.00">ceptr_error.h</text>
</a>
</g>
</g>
<!-- Node2&#45;&gt;Node6 -->
<g id="edge5" class="edge"><title>Node2&#45;&gt;Node6</title>
<path fill="none" stroke="midnightblue" d="M821.925,-336.368C792.238,-317.492 721.296,-272.385 684.89,-249.237"/>
<polygon fill="midnightblue" stroke="midnightblue" points="686.329,-246.004 676.012,-243.591 682.573,-251.911 686.329,-246.004"/>
</g>
<!-- Node10 -->
<g id="node10" class="node"><title>Node10</title>
<g id="a_node10"><a xlink:href="tree_8h.html" target="_top" xlink:title="semantic trees header file ">
<polygon fill="white" stroke="black" points="323,-280.5 323,-299.5 364,-299.5 364,-280.5 323,-280.5"/>
<text text-anchor="middle" x="343.5" y="-287.5" font-family="Helvetica,sans-Serif" font-size="10.00">tree.h</text>
</a>
</g>
</g>
<!-- Node2&#45;&gt;Node10 -->
<g id="edge10" class="edge"><title>Node2&#45;&gt;Node10</title>
<path fill="none" stroke="midnightblue" d="M799.292,-342.259C723.683,-336.329 543.588,-321.116 393.5,-300 387.345,-299.134 380.79,-298.063 374.522,-296.965"/>
<polygon fill="midnightblue" stroke="midnightblue" points="374.828,-293.464 364.364,-295.124 373.579,-300.351 374.828,-293.464"/>
</g>
<!-- Node19 -->
<g id="node19" class="node"><title>Node19</title>
<g id="a_node19"><a xlink:href="stream_8h.html" target="_top" xlink:title="streams abstraction header file ">
<polygon fill="white" stroke="black" points="755,-224.5 755,-243.5 810,-243.5 810,-224.5 755,-224.5"/>
<text text-anchor="middle" x="782.5" y="-231.5" font-family="Helvetica,sans-Serif" font-size="10.00">stream.h</text>
</a>
</g>
</g>
<!-- Node2&#45;&gt;Node19 -->
<g id="edge38" class="edge"><title>Node2&#45;&gt;Node19</title>
<path fill="none" stroke="midnightblue" d="M831.341,-336.368C822.672,-318.376 802.52,-276.55 790.993,-252.627"/>
<polygon fill="midnightblue" stroke="midnightblue" points="794.133,-251.081 786.64,-243.591 787.827,-254.119 794.133,-251.081"/>
</g>
<!-- Node20 -->
<g id="node20" class="node"><title>Node20</title>
<g id="a_node20"><a xlink:href="mtree_8h.html" target="_top" xlink:title="semantic tree matrix header file `` ">
<polygon fill="white" stroke="black" points="554.5,-280.5 554.5,-299.5 604.5,-299.5 604.5,-280.5 554.5,-280.5"/>
<text text-anchor="middle" x="579.5" y="-287.5" font-family="Helvetica,sans-Serif" font-size="10.00">mtree.h</text>
</a>
</g>
</g>
<!-- Node2&#45;&gt;Node20 -->
<g id="edge30" class="edge"><title>Node2&#45;&gt;Node20</title>
<path fill="none" stroke="midnightblue" d="M799.364,-337.378C750.314,-327.031 663.225,-308.661 614.676,-298.42"/>
<polygon fill="midnightblue" stroke="midnightblue" points="615.149,-294.943 604.642,-296.303 613.705,-301.792 615.149,-294.943"/>
</g>
<!-- Node21 -->
<g id="node21" class="node"><title>Node21</title>
<g id="a_node21"><a xlink:href="util_8h.html" target="_top" xlink:title="util.h">
<polygon fill="white" stroke="black" points="844.5,-280.5 844.5,-299.5 882.5,-299.5 882.5,-280.5 844.5,-280.5"/>
<text text-anchor="middle" x="863.5" y="-287.5" font-family="Helvetica,sans-Serif" font-size="10.00">util.h</text>
</a>
</g>
</g>
<!-- Node2&#45;&gt;Node21 -->
<g id="edge39" class="edge"><title>Node2&#45;&gt;Node21</title>
<path fill="none" stroke="midnightblue" d="M840.124,-336.083C843.956,-328.691 849.524,-317.953 854.265,-308.811"/>
<polygon fill="midnightblue" stroke="midnightblue" points="857.466,-310.24 858.962,-299.751 851.252,-307.018 857.466,-310.24"/>
</g>
<!-- Node24 -->
<g id="node24" class="node"><title>Node24</title>
<g id="a_node24"><a xlink:href="debug_8h.html" target="_top" xlink:title="debug.h">
<polygon fill="white" stroke="black" points="1003,-112.5 1003,-131.5 1054,-131.5 1054,-112.5 1003,-112.5"/>
<text text-anchor="middle" x="1028.5" y="-119.5" font-family="Helvetica,sans-Serif" font-size="10.00">debug.h</text>
</a>
</g>
</g>
<!-- Node2&#45;&gt;Node24 -->
<g id="edge43" class="edge"><title>Node2&#45;&gt;Node24</title>
<path fill="none" stroke="midnightblue" d="M871.759,-341.29C920.128,-335.524 1001.86,-322.65 1020.5,-300 1058.25,-254.139 1043.6,-176.756 1034.12,-141.499"/>
<polygon fill="midnightblue" stroke="midnightblue" points="1037.42,-140.278 1031.3,-131.625 1030.69,-142.202 1037.42,-140.278"/>
</g>
<!-- Node6&#45;&gt;Node4 -->
<g id="edge6" class="edge"><title>Node6&#45;&gt;Node4</title>
<path fill="none" stroke="midnightblue" d="M626.959,-225.44C592.729,-217.352 544.557,-203.567 533.5,-188 528.353,-180.753 528.339,-175.237 533.5,-168 593.887,-83.3097 730.153,-68.9316 793.264,-66.9681"/>
<polygon fill="midnightblue" stroke="midnightblue" points="793.534,-70.463 803.453,-66.7407 793.378,-63.4648 793.534,-70.463"/>
</g>
<!-- Node7 -->
<g id="node7" class="node"><title>Node7</title>
<polygon fill="white" stroke="#bfbfbf" points="542.5,-168.5 542.5,-187.5 592.5,-187.5 592.5,-168.5 542.5,-168.5"/>
<text text-anchor="middle" x="567.5" y="-175.5" font-family="Helvetica,sans-Serif" font-size="10.00">signal.h</text>
</g>
<!-- Node6&#45;&gt;Node7 -->
<g id="edge7" class="edge"><title>Node6&#45;&gt;Node7</title>
<path fill="none" stroke="midnightblue" d="M647.237,-224.324C632.279,-215.822 609.245,-202.729 591.773,-192.797"/>
<polygon fill="midnightblue" stroke="midnightblue" points="593.149,-189.553 582.726,-187.655 589.69,-195.639 593.149,-189.553"/>
</g>
<!-- Node8 -->
<g id="node8" class="node"><title>Node8</title>
<polygon fill="white" stroke="#bfbfbf" points="610.5,-168.5 610.5,-187.5 662.5,-187.5 662.5,-168.5 610.5,-168.5"/>
<text text-anchor="middle" x="636.5" y="-175.5" font-family="Helvetica,sans-Serif" font-size="10.00">assert.h</text>
</g>
<!-- Node6&#45;&gt;Node8 -->
<g id="edge8" class="edge"><title>Node6&#45;&gt;Node8</title>
<path fill="none" stroke="midnightblue" d="M658.207,-224.083C654.648,-216.691 649.478,-205.953 645.076,-196.811"/>
<polygon fill="midnightblue" stroke="midnightblue" points="648.205,-195.243 640.713,-187.751 641.898,-198.279 648.205,-195.243"/>
</g>
<!-- Node9 -->
<g id="node9" class="node"><title>Node9</title>
<polygon fill="white" stroke="#bfbfbf" points="680.5,-168.5 680.5,-187.5 734.5,-187.5 734.5,-168.5 680.5,-168.5"/>
<text text-anchor="middle" x="707.5" y="-175.5" font-family="Helvetica,sans-Serif" font-size="10.00">setjmp.h</text>
</g>
<!-- Node6&#45;&gt;Node9 -->
<g id="edge9" class="edge"><title>Node6&#45;&gt;Node9</title>
<path fill="none" stroke="midnightblue" d="M669.931,-224.083C676.353,-216.377 685.806,-205.033 693.622,-195.653"/>
<polygon fill="midnightblue" stroke="midnightblue" points="696.494,-197.674 700.207,-187.751 691.117,-193.193 696.494,-197.674"/>
</g>
<!-- Node10&#45;&gt;Node3 -->
<g id="edge11" class="edge"><title>Node10&#45;&gt;Node3</title>
<path fill="none" stroke="midnightblue" d="M322.751,-286.47C274.63,-279.328 159.5,-254.366 159.5,-179 159.5,-179 159.5,-179 159.5,-121 159.5,-73.2208 311.524,-33.8681 381.725,-18.243"/>
<polygon fill="midnightblue" stroke="midnightblue" points="382.837,-21.5826 391.858,-16.0263 381.341,-14.7443 382.837,-21.5826"/>
</g>
<!-- Node10&#45;&gt;Node5 -->
<g id="edge12" class="edge"><title>Node10&#45;&gt;Node5</title>
<path fill="none" stroke="midnightblue" d="M322.686,-286.781C277.412,-281.567 171.929,-267.194 145.5,-244 122.354,-223.688 121.5,-209.795 121.5,-179 121.5,-179 121.5,-179 121.5,-121 121.5,-90.2048 123.157,-77.1933 145.5,-56 175.653,-27.3982 223.669,-16.9582 256.105,-13.1578"/>
<polygon fill="midnightblue" stroke="midnightblue" points="256.864,-16.5988 266.46,-12.1069 256.157,-9.63461 256.864,-16.5988"/>
</g>
<!-- Node10&#45;&gt;Node6 -->
<g id="edge13" class="edge"><title>Node10&#45;&gt;Node6</title>
<path fill="none" stroke="midnightblue" d="M364.411,-285.177C373.365,-283.555 383.941,-281.66 393.5,-280 471.788,-266.406 563.028,-251.298 616.599,-242.502"/>
<polygon fill="midnightblue" stroke="midnightblue" points="617.494,-245.902 626.796,-240.829 616.361,-238.994 617.494,-245.902"/>
</g>
<!-- Node11 -->
<g id="node11" class="node"><title>Node11</title>
<g id="a_node11"><a xlink:href="sys__symbols_8h.html" target="_top" xlink:title="Defines hard&#45;coded system defined symbols. ">
<polygon fill="white" stroke="black" points="302,-224.5 302,-243.5 385,-243.5 385,-224.5 302,-224.5"/>
<text text-anchor="middle" x="343.5" y="-231.5" font-family="Helvetica,sans-Serif" font-size="10.00">sys_symbols.h</text>
</a>
</g>
</g>
<!-- Node10&#45;&gt;Node11 -->
<g id="edge14" class="edge"><title>Node10&#45;&gt;Node11</title>
<path fill="none" stroke="midnightblue" d="M343.5,-280.083C343.5,-273.006 343.5,-262.861 343.5,-253.986"/>
<polygon fill="midnightblue" stroke="midnightblue" points="347,-253.751 343.5,-243.751 340,-253.751 347,-253.751"/>
</g>
<!-- Node12 -->
<g id="node12" class="node"><title>Node12</title>
<g id="a_node12"><a xlink:href="sys__structures_8h.html" target="_top" xlink:title="Defines hard&#45;coded system defined structures. ">
<polygon fill="white" stroke="black" points="264,-168.5 264,-187.5 353,-187.5 353,-168.5 264,-168.5"/>
<text text-anchor="middle" x="308.5" y="-175.5" font-family="Helvetica,sans-Serif" font-size="10.00">sys_structures.h</text>
</a>
</g>
</g>
<!-- Node10&#45;&gt;Node12 -->
<g id="edge25" class="edge"><title>Node10&#45;&gt;Node12</title>
<path fill="none" stroke="midnightblue" d="M327.766,-280.236C315.611,-272.481 299.688,-259.929 292.5,-244 285.643,-228.806 291.493,-210.232 297.963,-196.836"/>
<polygon fill="midnightblue" stroke="midnightblue" points="301.197,-198.211 302.832,-187.743 295.026,-194.907 301.197,-198.211"/>
</g>
<!-- Node13 -->
<g id="node13" class="node"><title>Node13</title>
<g id="a_node13"><a xlink:href="ceptr__types_8h_source.html" target="_top" xlink:title="ceptr_types.h">
<polygon fill="white" stroke="black" points="270.5,-112.5 270.5,-131.5 346.5,-131.5 346.5,-112.5 270.5,-112.5"/>
<text text-anchor="middle" x="308.5" y="-119.5" font-family="Helvetica,sans-Serif" font-size="10.00">ceptr_types.h</text>
</a>
</g>
</g>
<!-- Node10&#45;&gt;Node13 -->
<g id="edge27" class="edge"><title>Node10&#45;&gt;Node13</title>
<path fill="none" stroke="midnightblue" d="M329.295,-280.361C316.663,-272.163 298.268,-258.906 285.5,-244 266.994,-222.394 261.615,-215.544 254.5,-188 252.277,-179.394 250.73,-176.05 254.5,-168 260.545,-155.094 272.312,-144.599 283.323,-137"/>
<polygon fill="midnightblue" stroke="midnightblue" points="285.328,-139.872 291.867,-131.536 281.557,-133.975 285.328,-139.872"/>
</g>
<!-- Node18 -->
<g id="node18" class="node"><title>Node18</title>
<g id="a_node18"><a xlink:href="sys__processes_8h.html" target="_top" xlink:title="Defines hard&#45;coded system defined processes. ">
<polygon fill="white" stroke="black" points="403,-224.5 403,-243.5 494,-243.5 494,-224.5 403,-224.5"/>
<text text-anchor="middle" x="448.5" y="-231.5" font-family="Helvetica,sans-Serif" font-size="10.00">sys_processes.h</text>
</a>
</g>
</g>
<!-- Node10&#45;&gt;Node18 -->
<g id="edge26" class="edge"><title>Node10&#45;&gt;Node18</title>
<path fill="none" stroke="midnightblue" d="M360.37,-280.324C377.209,-271.664 403.307,-258.242 422.738,-248.249"/>
<polygon fill="midnightblue" stroke="midnightblue" points="424.38,-251.341 431.672,-243.655 421.178,-245.116 424.38,-251.341"/>
</g>
<!-- Node10&#45;&gt;Node19 -->
<g id="edge28" class="edge"><title>Node10&#45;&gt;Node19</title>
<path fill="none" stroke="midnightblue" d="M364.373,-284.937C373.32,-283.275 383.902,-281.414 393.5,-280 532.032,-259.586 567.416,-260.234 706.5,-244 718.851,-242.558 732.328,-240.968 744.458,-239.53"/>
<polygon fill="midnightblue" stroke="midnightblue" points="745.19,-242.968 754.708,-238.314 744.365,-236.017 745.19,-242.968"/>
</g>
<!-- Node11&#45;&gt;Node12 -->
<g id="edge15" class="edge"><title>Node11&#45;&gt;Node12</title>
<path fill="none" stroke="midnightblue" d="M337.72,-224.083C332.828,-216.534 325.673,-205.495 319.667,-196.23"/>
<polygon fill="midnightblue" stroke="midnightblue" points="322.548,-194.239 314.172,-187.751 316.674,-198.046 322.548,-194.239"/>
</g>
<!-- Node11&#45;&gt;Node13 -->
<g id="edge24" class="edge"><title>Node11&#45;&gt;Node13</title>
<path fill="none" stroke="midnightblue" d="M349.658,-224.273C357.857,-211.492 370.352,-187.128 361.5,-168 355.58,-155.207 344.032,-144.722 333.222,-137.1"/>
<polygon fill="midnightblue" stroke="midnightblue" points="335.118,-134.158 324.834,-131.613 331.286,-140.016 335.118,-134.158"/>
</g>
<!-- Node12&#45;&gt;Node13 -->
<g id="edge16" class="edge"><title>Node12&#45;&gt;Node13</title>
<path fill="none" stroke="midnightblue" d="M308.5,-168.083C308.5,-161.006 308.5,-150.861 308.5,-141.986"/>
<polygon fill="midnightblue" stroke="midnightblue" points="312,-141.751 308.5,-131.751 305,-141.751 312,-141.751"/>
</g>
<!-- Node13&#45;&gt;Node4 -->
<g id="edge18" class="edge"><title>Node13&#45;&gt;Node4</title>
<path fill="none" stroke="midnightblue" d="M346.59,-117.029C444.017,-106.873 701.073,-80.0754 793.121,-70.4797"/>
<polygon fill="midnightblue" stroke="midnightblue" points="793.675,-73.941 803.258,-69.4229 792.949,-66.9787 793.675,-73.941"/>
</g>
<!-- Node14 -->
<g id="node14" class="node"><title>Node14</title>
<polygon fill="white" stroke="#bfbfbf" points="284,-56.5 284,-75.5 333,-75.5 333,-56.5 284,-56.5"/>
<text text-anchor="middle" x="308.5" y="-63.5" font-family="Helvetica,sans-Serif" font-size="10.00">stdint.h</text>
</g>
<!-- Node13&#45;&gt;Node14 -->
<g id="edge17" class="edge"><title>Node13&#45;&gt;Node14</title>
<path fill="none" stroke="midnightblue" d="M308.5,-112.083C308.5,-105.006 308.5,-94.8611 308.5,-85.9865"/>
<polygon fill="midnightblue" stroke="midnightblue" points="312,-85.751 308.5,-75.7511 305,-85.7511 312,-85.751"/>
</g>
<!-- Node15 -->
<g id="node15" class="node"><title>Node15</title>
<g id="a_node15"><a xlink:href="uthash_8h_source.html" target="_top" xlink:title="uthash.h">
<polygon fill="white" stroke="black" points="39.5,-56.5 39.5,-75.5 93.5,-75.5 93.5,-56.5 39.5,-56.5"/>
<text text-anchor="middle" x="66.5" y="-63.5" font-family="Helvetica,sans-Serif" font-size="10.00">uthash.h</text>
</a>
</g>
</g>
<!-- Node13&#45;&gt;Node15 -->
<g id="edge19" class="edge"><title>Node13&#45;&gt;Node15</title>
<path fill="none" stroke="midnightblue" d="M270.421,-112.503C224.854,-102.335 149.058,-85.4219 103.826,-75.3291"/>
<polygon fill="midnightblue" stroke="midnightblue" points="104.364,-71.863 93.8418,-73.1011 102.84,-78.695 104.364,-71.863"/>
</g>
<!-- Node15&#45;&gt;Node3 -->
<g id="edge20" class="edge"><title>Node15&#45;&gt;Node3</title>
<path fill="none" stroke="midnightblue" d="M93.6727,-60.8076C156.614,-51.0967 312.328,-27.0723 381.925,-16.3344"/>
<polygon fill="midnightblue" stroke="midnightblue" points="382.589,-19.7734 391.939,-14.7895 381.522,-12.8553 382.589,-19.7734"/>
</g>
<!-- Node15&#45;&gt;Node5 -->
<g id="edge22" class="edge"><title>Node15&#45;&gt;Node5</title>
<path fill="none" stroke="midnightblue" d="M93.5196,-58.4863C134.434,-48.6231 212.052,-29.9117 256.666,-19.1565"/>
<polygon fill="midnightblue" stroke="midnightblue" points="257.556,-22.5421 266.457,-16.796 255.916,-15.7371 257.556,-22.5421"/>
</g>
<!-- Node16 -->
<g id="node16" class="node"><title>Node16</title>
<polygon fill="white" stroke="#bfbfbf" points="77.5,-0.5 77.5,-19.5 129.5,-19.5 129.5,-0.5 77.5,-0.5"/>
<text text-anchor="middle" x="103.5" y="-7.5" font-family="Helvetica,sans-Serif" font-size="10.00">stddef.h</text>
</g>
<!-- Node15&#45;&gt;Node16 -->
<g id="edge21" class="edge"><title>Node15&#45;&gt;Node16</title>
<path fill="none" stroke="midnightblue" d="M72.6098,-56.083C77.7822,-48.5341 85.3461,-37.4948 91.6944,-28.2298"/>
<polygon fill="midnightblue" stroke="midnightblue" points="94.7388,-29.9787 97.5039,-19.7511 88.9643,-26.0221 94.7388,-29.9787"/>
</g>
<!-- Node17 -->
<g id="node17" class="node"><title>Node17</title>
<polygon fill="white" stroke="#bfbfbf" points="0,-0.5 0,-19.5 59,-19.5 59,-0.5 0,-0.5"/>
<text text-anchor="middle" x="29.5" y="-7.5" font-family="Helvetica,sans-Serif" font-size="10.00">inttypes.h</text>
</g>
<!-- Node15&#45;&gt;Node17 -->
<g id="edge23" class="edge"><title>Node15&#45;&gt;Node17</title>
<path fill="none" stroke="midnightblue" d="M60.3902,-56.083C55.2178,-48.5341 47.6539,-37.4948 41.3056,-28.2298"/>
<polygon fill="midnightblue" stroke="midnightblue" points="44.0357,-26.0221 35.4961,-19.7511 38.2612,-29.9787 44.0357,-26.0221"/>
</g>
<!-- Node19&#45;&gt;Node4 -->
<g id="edge29" class="edge"><title>Node19&#45;&gt;Node4</title>
<path fill="none" stroke="midnightblue" d="M784.866,-224.075C791.792,-197.945 812.131,-121.211 821.576,-85.577"/>
<polygon fill="midnightblue" stroke="midnightblue" points="825.05,-86.1311 824.229,-75.5681 818.284,-84.3375 825.05,-86.1311"/>
</g>
<!-- Node20&#45;&gt;Node3 -->
<g id="edge31" class="edge"><title>Node20&#45;&gt;Node3</title>
<path fill="none" stroke="midnightblue" d="M577.44,-280.166C574.199,-267.254 567.158,-242.726 556.5,-224 546.198,-205.899 538.693,-204.885 526.5,-188 485.999,-131.911 444.63,-60.8595 426.286,-28.4915"/>
<polygon fill="midnightblue" stroke="midnightblue" points="429.318,-26.7414 421.359,-19.7475 423.219,-30.1778 429.318,-26.7414"/>
</g>
<!-- Node20&#45;&gt;Node5 -->
<g id="edge32" class="edge"><title>Node20&#45;&gt;Node5</title>
<path fill="none" stroke="midnightblue" d="M604.709,-284.998C632.127,-279.598 676.097,-267.778 706.5,-244 736.092,-220.856 765.285,-198.607 743.5,-168 692.855,-96.8474 420.837,-36.8482 324.415,-17.5293"/>
<polygon fill="midnightblue" stroke="midnightblue" points="325.084,-14.0938 314.594,-15.581 323.721,-20.96 325.084,-14.0938"/>
</g>
<!-- Node20&#45;&gt;Node6 -->
<g id="edge33" class="edge"><title>Node20&#45;&gt;Node6</title>
<path fill="none" stroke="midnightblue" d="M592.835,-280.324C605.662,-271.979 625.285,-259.212 640.44,-249.352"/>
<polygon fill="midnightblue" stroke="midnightblue" points="642.724,-252.042 649.198,-243.655 638.907,-246.174 642.724,-252.042"/>
</g>
<!-- Node20&#45;&gt;Node11 -->
<g id="edge34" class="edge"><title>Node20&#45;&gt;Node11</title>
<path fill="none" stroke="midnightblue" d="M554.244,-283.221C515.308,-274.312 439.979,-257.076 390.731,-245.807"/>
<polygon fill="midnightblue" stroke="midnightblue" points="391.473,-242.386 380.944,-243.568 389.911,-249.21 391.473,-242.386"/>
</g>
<!-- Node20&#45;&gt;Node12 -->
<g id="edge35" class="edge"><title>Node20&#45;&gt;Node12</title>
<path fill="none" stroke="midnightblue" d="M571.902,-280.348C559.057,-266.285 531.592,-238.577 502.5,-224 458.566,-201.986 403.618,-190.545 363.428,-184.723"/>
<polygon fill="midnightblue" stroke="midnightblue" points="363.669,-181.223 353.285,-183.327 362.714,-188.158 363.669,-181.223"/>
</g>
<!-- Node20&#45;&gt;Node13 -->
<g id="edge37" class="edge"><title>Node20&#45;&gt;Node13</title>
<path fill="none" stroke="midnightblue" d="M575.15,-280.31C567.95,-266.689 552.357,-240.195 532.5,-224 516.445,-210.906 395.77,-159.525 338.499,-135.505"/>
<polygon fill="midnightblue" stroke="midnightblue" points="339.804,-132.257 329.228,-131.623 337.101,-138.714 339.804,-132.257"/>
</g>
<!-- Node20&#45;&gt;Node18 -->
<g id="edge36" class="edge"><title>Node20&#45;&gt;Node18</title>
<path fill="none" stroke="midnightblue" d="M558.743,-280.444C537.184,-271.557 503.237,-257.563 478.706,-247.451"/>
<polygon fill="midnightblue" stroke="midnightblue" points="479.739,-244.092 469.16,-243.516 477.072,-250.563 479.739,-244.092"/>
</g>
<!-- Node21&#45;&gt;Node4 -->
<g id="edge41" class="edge"><title>Node21&#45;&gt;Node4</title>
<path fill="none" stroke="midnightblue" d="M862.05,-280.297C856.605,-247.633 837.311,-131.866 829.66,-85.9573"/>
<polygon fill="midnightblue" stroke="midnightblue" points="833.077,-85.1723 827.981,-75.8837 826.172,-86.3231 833.077,-85.1723"/>
</g>
<!-- Node22 -->
<g id="node22" class="node"><title>Node22</title>
<polygon fill="white" stroke="#bfbfbf" points="929,-224.5 929,-243.5 978,-243.5 978,-224.5 929,-224.5"/>
<text text-anchor="middle" x="953.5" y="-231.5" font-family="Helvetica,sans-Serif" font-size="10.00">ctype.h</text>
</g>
<!-- Node21&#45;&gt;Node22 -->
<g id="edge40" class="edge"><title>Node21&#45;&gt;Node22</title>
<path fill="none" stroke="midnightblue" d="M877.96,-280.324C892,-271.9 913.548,-258.971 930.043,-249.074"/>
<polygon fill="midnightblue" stroke="midnightblue" points="932.302,-251.801 939.076,-243.655 928.7,-245.798 932.302,-251.801"/>
</g>
<!-- Node23 -->
<g id="node23" class="node"><title>Node23</title>
<polygon fill="white" stroke="#bfbfbf" points="866.5,-224.5 866.5,-243.5 910.5,-243.5 910.5,-224.5 866.5,-224.5"/>
<text text-anchor="middle" x="888.5" y="-231.5" font-family="Helvetica,sans-Serif" font-size="10.00">time.h</text>
</g>
<!-- Node21&#45;&gt;Node23 -->
<g id="edge42" class="edge"><title>Node21&#45;&gt;Node23</title>
<path fill="none" stroke="midnightblue" d="M867.628,-280.083C871.014,-272.77 875.916,-262.181 880.119,-253.103"/>
<polygon fill="midnightblue" stroke="midnightblue" points="883.423,-254.296 884.449,-243.751 877.071,-251.355 883.423,-254.296"/>
</g>
<!-- Node24&#45;&gt;Node4 -->
<g id="edge44" class="edge"><title>Node24&#45;&gt;Node4</title>
<path fill="none" stroke="midnightblue" d="M1002.92,-114.161C966.489,-104.423 899.652,-86.5554 859.526,-75.8287"/>
<polygon fill="midnightblue" stroke="midnightblue" points="860.257,-72.4012 849.692,-73.1998 858.449,-79.1638 860.257,-72.4012"/>
</g>
<!-- Node25&#45;&gt;Node10 -->
<g id="edge46" class="edge"><title>Node25&#45;&gt;Node10</title>
<path fill="none" stroke="midnightblue" d="M221.476,-336.444C246.368,-327.173 286.181,-312.346 313.519,-302.165"/>
<polygon fill="midnightblue" stroke="midnightblue" points="314.827,-305.413 322.976,-298.643 312.383,-298.853 314.827,-305.413"/>
</g>
<!-- Node26&#45;&gt;Node10 -->
<g id="edge48" class="edge"><title>Node26&#45;&gt;Node10</title>
<path fill="none" stroke="midnightblue" d="M334.214,-392.305C343.438,-384.069 356.091,-370.789 361.5,-356 367.269,-340.226 360.922,-321.723 354.226,-308.5"/>
<polygon fill="midnightblue" stroke="midnightblue" points="357.161,-306.578 349.232,-299.551 351.049,-309.989 357.161,-306.578"/>
</g>
<!-- Node26&#45;&gt;Node25 -->
<g id="edge56" class="edge"><title>Node26&#45;&gt;Node25</title>
<path fill="none" stroke="midnightblue" d="M303.693,-392.444C283.213,-383.596 251.017,-369.687 227.635,-359.586"/>
<polygon fill="midnightblue" stroke="midnightblue" points="228.782,-356.269 218.214,-355.516 226.006,-362.695 228.782,-356.269"/>
</g>
<!-- Node27 -->
<g id="node27" class="node"><title>Node27</title>
<g id="a_node27"><a xlink:href="def_8h.html" target="_top" xlink:title="header file for symbol and structure definition functions ">
<polygon fill="white" stroke="black" points="409.5,-336.5 409.5,-355.5 447.5,-355.5 447.5,-336.5 409.5,-336.5"/>
<text text-anchor="middle" x="428.5" y="-343.5" font-family="Helvetica,sans-Serif" font-size="10.00">def.h</text>
</a>
</g>
</g>
<!-- Node26&#45;&gt;Node27 -->
<g id="edge49" class="edge"><title>Node26&#45;&gt;Node27</title>
<path fill="none" stroke="midnightblue" d="M340.37,-392.324C357.209,-383.664 383.307,-370.242 402.738,-360.249"/>
<polygon fill="midnightblue" stroke="midnightblue" points="404.38,-363.341 411.672,-355.655 401.178,-357.116 404.38,-363.341"/>
</g>
<!-- Node29 -->
<g id="node29" class="node"><title>Node29</title>
<g id="a_node29"><a xlink:href="label_8h.html" target="_top" xlink:title="Label tables map human readable text strings to parts of semantic trees. ">
<polygon fill="white" stroke="black" points="209,-280.5 209,-299.5 254,-299.5 254,-280.5 209,-280.5"/>
<text text-anchor="middle" x="231.5" y="-287.5" font-family="Helvetica,sans-Serif" font-size="10.00">label.h</text>
</a>
</g>
</g>
<!-- Node26&#45;&gt;Node29 -->
<g id="edge52" class="edge"><title>Node26&#45;&gt;Node29</title>
<path fill="none" stroke="midnightblue" d="M315.946,-392.439C308.032,-383.435 295.277,-368.82 284.5,-356 270.949,-339.881 255.794,-321.229 245.171,-308.051"/>
<polygon fill="midnightblue" stroke="midnightblue" points="247.612,-305.5 238.617,-299.901 242.156,-309.887 247.612,-305.5"/>
</g>
<!-- Node30 -->
<g id="node30" class="node"><title>Node30</title>
<g id="a_node30"><a xlink:href="process_8h.html" target="_top" xlink:title="processing header files ">
<polygon fill="white" stroke="black" points="294,-336.5 294,-355.5 353,-355.5 353,-336.5 294,-336.5"/>
<text text-anchor="middle" x="323.5" y="-343.5" font-family="Helvetica,sans-Serif" font-size="10.00">process.h</text>
</a>
</g>
</g>
<!-- Node26&#45;&gt;Node30 -->
<g id="edge54" class="edge"><title>Node26&#45;&gt;Node30</title>
<path fill="none" stroke="midnightblue" d="M323.5,-392.083C323.5,-385.006 323.5,-374.861 323.5,-365.986"/>
<polygon fill="midnightblue" stroke="midnightblue" points="327,-365.751 323.5,-355.751 320,-365.751 327,-365.751"/>
</g>
<!-- Node27&#45;&gt;Node10 -->
<g id="edge50" class="edge"><title>Node27&#45;&gt;Node10</title>
<path fill="none" stroke="midnightblue" d="M414.843,-336.324C401.584,-327.9 381.232,-314.971 365.654,-305.074"/>
<polygon fill="midnightblue" stroke="midnightblue" points="367.44,-302.063 357.123,-299.655 363.687,-307.971 367.44,-302.063"/>
</g>
<!-- Node28 -->
<g id="node28" class="node"><title>Node28</title>
<polygon fill="white" stroke="#bfbfbf" points="402.5,-280.5 402.5,-299.5 454.5,-299.5 454.5,-280.5 402.5,-280.5"/>
<text text-anchor="middle" x="428.5" y="-287.5" font-family="Helvetica,sans-Serif" font-size="10.00">stdarg.h</text>
</g>
<!-- Node27&#45;&gt;Node28 -->
<g id="edge51" class="edge"><title>Node27&#45;&gt;Node28</title>
<path fill="none" stroke="midnightblue" d="M428.5,-336.083C428.5,-329.006 428.5,-318.861 428.5,-309.986"/>
<polygon fill="midnightblue" stroke="midnightblue" points="432,-309.751 428.5,-299.751 425,-309.751 432,-309.751"/>
</g>
<!-- Node29&#45;&gt;Node13 -->
<g id="edge53" class="edge"><title>Node29&#45;&gt;Node13</title>
<path fill="none" stroke="midnightblue" d="M230.569,-280.357C228.744,-259.438 226.603,-205.08 248.5,-168 256.256,-154.866 269.477,-144.33 281.537,-136.764"/>
<polygon fill="midnightblue" stroke="midnightblue" points="283.561,-139.635 290.424,-131.563 280.026,-133.593 283.561,-139.635"/>
</g>
<!-- Node30&#45;&gt;Node10 -->
<g id="edge55" class="edge"><title>Node30&#45;&gt;Node10</title>
<path fill="none" stroke="midnightblue" d="M326.803,-336.083C329.482,-328.849 333.349,-318.409 336.686,-309.397"/>
<polygon fill="midnightblue" stroke="midnightblue" points="340.068,-310.344 340.259,-299.751 333.504,-307.913 340.068,-310.344"/>
</g>
</g>
</svg>
        <g id="navigator" transform="translate(0 0)" fill="#404254">
                <rect fill="#f2f5e9" fill-opacity="0.5" stroke="#606060" stroke-width=".5" x="0" y="0" width="60" height="60"/>
                <use id="zoomplus" xlink:href="#zoomPlus" x="17" y="9" onmousedown="handleZoom(evt,'in')"/>
                <use id="zoomminus" xlink:href="#zoomMin" x="42" y="9" onmousedown="handleZoom(evt,'out')"/>
                <use id="reset" xlink:href="#resetDef" x="30" y="36" onmousedown="handleReset()"/>
                <g id="arrowUp" xlink:href="#dirArrow" transform="translate(30 24)" onmousedown="handlePan(0,-1)">
                  <use xlink:href="#rim" fill="#404040">
                        <set attributeName="fill" to="#808080" begin="arrowUp.mouseover" end="arrowUp.mouseout"/>
                  </use>
                  <path fill="none" stroke="white" stroke-width="1.5" d="M0,-3.0v7 M-2.5,-0.5L0,-3.0L2.5,-0.5"/>
                </g>
                <g id="arrowRight" xlink:href="#dirArrow" transform="rotate(90) translate(36 -43)" onmousedown="handlePan(1,0)">
                  <use xlink:href="#rim" fill="#404040">
                        <set attributeName="fill" to="#808080" begin="arrowRight.mouseover" end="arrowRight.mouseout"/>
                  </use>
                  <path fill="none" stroke="white" stroke-width="1.5" d="M0,-3.0v7 M-2.5,-0.5L0,-3.0L2.5,-0.5"/>
                </g>
                <g id="arrowDown" xlink:href="#dirArrow" transform="rotate(180) translate(-30 -48)" onmousedown="handlePan(0,1)">
                  <use xlink:href="#rim" fill="#404040">
                        <set attributeName="fill" to="#808080" begin="arrowDown.mouseover" end="arrowDown.mouseout"/>
                  </use>
                  <path fill="none" stroke="white" stroke-width="1.5" d="M0,-3.0v7 M-2.5,-0.5L0,-3.0L2.5,-0.5"/>
                </g>
                <g id="arrowLeft" xlink:href="#dirArrow" transform="rotate(270) translate(-36 17)" onmousedown="handlePan(-1,0)">
                  <use xlink:href="#rim" fill="#404040">
                        <set attributeName="fill" to="#808080" begin="arrowLeft.mouseover" end="arrowLeft.mouseout"/>
                  </use>
                  <path fill="none" stroke="white" stroke-width="1.5" d="M0,-3.0v7 M-2.5,-0.5L0,-3.0L2.5,-0.5"/>
                </g>
        </g>
        <svg viewBox="0 0 15 15" width="100%" height="30px" preserveAspectRatio="xMaxYMin meet">
         <g id="arrow_out" transform="scale(0.3 0.3)">
          <a xlink:href="scape__spec_8h__incl_org.svg" target="_base">
           <rect id="button" ry="5" rx="5" y="6" x="6" height="38" width="38"
                fill="#f2f5e9" fill-opacity="0.5" stroke="#606060" stroke-width="1.0"/>
           <path id="arrow"
             d="M 11.500037,31.436501 C 11.940474,20.09759 22.043105,11.32322 32.158766,21.979434 L 37.068811,17.246167 C 37.068811,17.246167 37.088388,32 37.088388,32 L 22.160133,31.978069 C 22.160133,31.978069 26.997745,27.140456 26.997745,27.140456 C 18.528582,18.264221 13.291696,25.230495 11.500037,31.436501 z"
             style="fill:#404040;"/>
          </a>
         </g>
        </svg>
</svg>
