<?xml version="1.0" encoding="UTF-8" standalone="no"?>
<!DOCTYPE svg PUBLIC "-//W3C//DTD SVG 1.1//EN"
 "http://www.w3.org/Graphics/SVG/1.1/DTD/svg11.dtd">
<!-- Generated by graphviz version 2.38.0 (20140413.2041)
 -->
<!-- Title: spec/scape_spec.h Pages: 1 -->
<!--zoomable 532 -->
<svg id="main" version="1.1" xmlns="http://www.w3.org/2000/svg" xmlns:xlink="http://www.w3.org/1999/xlink" xml:space="preserve" onload="init(evt)">
<style type="text/css"><![CDATA[
.edge:hover path { stroke: red; }
.edge:hover polygon { stroke: red; fill: red; }
]]></style>
<script type="text/javascript"><![CDATA[
var edges = document.getElementsByTagName('g');
if (edges && edges.length) {
  for (var i=0;i<edges.length;i++) {
    if (edges[i].id.substr(0,4)=='edge') {
      edges[i].setAttribute('class','edge');
    }
  }
}
]]></script>
        <defs>
                <circle id="rim" cx="0" cy="0" r="7"/>
                <circle id="rim2" cx="0" cy="0" r="3.5"/>
                <g id="zoomPlus">
                        <use xlink:href="#rim" fill="#404040">
                                <set attributeName="fill" to="#808080" begin="zoomplus.mouseover" end="zoomplus.mouseout"/>
                        </use>
                        <path d="M-4,0h8M0,-4v8" fill="none" stroke="white" stroke-width="1.5" pointer-events="none"/>
                </g>
                <g id="zoomMin">
                        <use xlink:href="#rim" fill="#404040">
                                <set attributeName="fill" to="#808080" begin="zoomminus.mouseover" end="zoomminus.mouseout"/>
                        </use>
                        <path d="M-4,0h8" fill="none" stroke="white" stroke-width="1.5" pointer-events="none"/>
                </g>
                <g id="dirArrow">
                        <path fill="none" stroke="white" stroke-width="1.5" d="M0,-3.0v7 M-2.5,-0.5L0,-3.0L2.5,-0.5"/>
                </g>
               <g id="resetDef">
                       <use xlink:href="#rim2" fill="#404040">
                               <set attributeName="fill" to="#808080" begin="reset.mouseover" end="reset.mouseout"/>
                       </use>
               </g>
        </defs>

<script type="text/javascript">
var viewWidth = 1001;
var viewHeight = 532;
var sectionId = 'dynsection-0';
</script>
<script xlink:href="svgpan.js"/>
<svg id="graph" class="graph">
<g id="viewport">
<title>spec/scape_spec.h</title>
<polygon fill="white" stroke="none" points="-4,4 -4,-528 996.854,-528 996.854,4 -4,4"/>
<!-- Node1 -->
<g id="node1" class="node"><title>Node1</title>
<polygon fill="#bfbfbf" stroke="black" points="508.354,-504.5 508.354,-523.5 609.354,-523.5 609.354,-504.5 508.354,-504.5"/>
<text text-anchor="middle" x="558.854" y="-511.5" font-family="Helvetica,sans-Serif" font-size="10.00">spec/scape_spec.h</text>
</g>
<!-- Node2 -->
<g id="node2" class="node"><title>Node2</title>
<g id="a_node2"><a xlink:href="ceptr_8h_source.html" target="_top" xlink:title="../src/ceptr.h">
<polygon fill="white" stroke="black" points="428.854,-392.5 428.854,-411.5 500.854,-411.5 500.854,-392.5 428.854,-392.5"/>
<text text-anchor="middle" x="464.854" y="-399.5" font-family="Helvetica,sans-Serif" font-size="10.00">../src/ceptr.h</text>
</a>
</g>
</g>
<!-- Node1&#45;&gt;Node2 -->
<g id="edge1" class="edge"><title>Node1&#45;&gt;Node2</title>
<path fill="none" stroke="midnightblue" d="M551.478,-504.368C535.828,-486.055 499.078,-443.049 478.837,-419.362"/>
<polygon fill="midnightblue" stroke="midnightblue" points="481.353,-416.92 472.196,-411.591 476.032,-421.468 481.353,-416.92"/>
</g>
<!-- Node27 -->
<g id="node27" class="node"><title>Node27</title>
<g id="a_node27"><a xlink:href="scape_8h.html" target="_top" xlink:title="scape header files ">
<polygon fill="white" stroke="black" points="522.354,-392.5 522.354,-411.5 599.354,-411.5 599.354,-392.5 522.354,-392.5"/>
<text text-anchor="middle" x="560.854" y="-399.5" font-family="Helvetica,sans-Serif" font-size="10.00">../src/scape.h</text>
</a>
</g>
</g>
<!-- Node1&#45;&gt;Node27 -->
<g id="edge49" class="edge"><title>Node1&#45;&gt;Node27</title>
<path fill="none" stroke="midnightblue" d="M559.011,-504.368C559.334,-486.617 560.079,-445.666 560.516,-421.597"/>
<polygon fill="midnightblue" stroke="midnightblue" points="564.016,-421.653 560.698,-411.591 557.017,-421.526 564.016,-421.653"/>
</g>
<!-- Node28 -->
<g id="node28" class="node"><title>Node28</title>
<g id="a_node28"><a xlink:href="receptor_8h.html" target="_top" xlink:title="receptor implementation header file ">
<polygon fill="white" stroke="black" points="586.854,-448.5 586.854,-467.5 672.854,-467.5 672.854,-448.5 586.854,-448.5"/>
<text text-anchor="middle" x="629.854" y="-455.5" font-family="Helvetica,sans-Serif" font-size="10.00">../src/receptor.h</text>
</a>
</g>
</g>
<!-- Node1&#45;&gt;Node28 -->
<g id="edge51" class="edge"><title>Node1&#45;&gt;Node28</title>
<path fill="none" stroke="midnightblue" d="M570.262,-504.324C580.963,-496.185 597.195,-483.839 610.017,-474.087"/>
<polygon fill="midnightblue" stroke="midnightblue" points="612.399,-476.673 618.239,-467.834 608.161,-471.102 612.399,-476.673"/>
</g>
<!-- Node3 -->
<g id="node3" class="node"><title>Node3</title>
<polygon fill="white" stroke="#bfbfbf" points="250.354,-0.5 250.354,-19.5 299.354,-19.5 299.354,-0.5 250.354,-0.5"/>
<text text-anchor="middle" x="274.854" y="-7.5" font-family="Helvetica,sans-Serif" font-size="10.00">string.h</text>
</g>
<!-- Node2&#45;&gt;Node3 -->
<g id="edge2" class="edge"><title>Node2&#45;&gt;Node3</title>
<path fill="none" stroke="midnightblue" d="M428.831,-400.158C319.812,-396.645 0.854305,-378.859 0.854305,-291 0.854305,-291 0.854305,-291 0.854305,-121 0.854305,-90.9022 -2.56291,-76.0834 19.8543,-56 51.8227,-27.3597 177.978,-16.4084 240.023,-12.6922"/>
<polygon fill="midnightblue" stroke="midnightblue" points="240.332,-16.1804 250.117,-12.1179 239.934,-9.19171 240.332,-16.1804"/>
</g>
<!-- Node4 -->
<g id="node4" class="node"><title>Node4</title>
<polygon fill="white" stroke="#bfbfbf" points="264.854,-56.5 264.854,-75.5 310.854,-75.5 310.854,-56.5 264.854,-56.5"/>
<text text-anchor="middle" x="287.854" y="-63.5" font-family="Helvetica,sans-Serif" font-size="10.00">stdio.h</text>
</g>
<!-- Node2&#45;&gt;Node4 -->
<g id="edge3" class="edge"><title>Node2&#45;&gt;Node4</title>
<path fill="none" stroke="midnightblue" d="M448.212,-392.46C410.731,-372.278 319.651,-317.74 276.854,-244 247.365,-193.188 257.205,-169.371 269.854,-112 271.892,-102.756 275.615,-92.9462 279.149,-84.8531"/>
<polygon fill="midnightblue" stroke="midnightblue" points="282.365,-86.2377 283.382,-75.6918 276.01,-83.3015 282.365,-86.2377"/>
</g>
<!-- Node5 -->
<g id="node5" class="node"><title>Node5</title>
<polygon fill="white" stroke="#bfbfbf" points="582.854,-0.5 582.854,-19.5 630.854,-19.5 630.854,-0.5 582.854,-0.5"/>
<text text-anchor="middle" x="606.854" y="-7.5" font-family="Helvetica,sans-Serif" font-size="10.00">stdlib.h</text>
</g>
<!-- Node2&#45;&gt;Node5 -->
<g id="edge4" class="edge"><title>Node2&#45;&gt;Node5</title>
<path fill="none" stroke="midnightblue" d="M467.952,-392.492C485.739,-343.641 574.959,-98.6002 600.195,-29.2897"/>
<polygon fill="midnightblue" stroke="midnightblue" points="603.543,-30.3256 603.675,-19.7316 596.965,-27.9306 603.543,-30.3256"/>
</g>
<!-- Node6 -->
<g id="node6" class="node"><title>Node6</title>
<g id="a_node6"><a xlink:href="ceptr__error_8h_source.html" target="_top" xlink:title="ceptr_error.h">
<polygon fill="white" stroke="black" points="807.354,-112.5 807.354,-131.5 878.354,-131.5 878.354,-112.5 807.354,-112.5"/>
<text text-anchor="middle" x="842.854" y="-119.5" font-family="Helvetica,sans-Serif" font-size="10.00">ceptr_error.h</text>
</a>
</g>
</g>
<!-- Node2&#45;&gt;Node6 -->
<g id="edge5" class="edge"><title>Node2&#45;&gt;Node6</title>
<path fill="none" stroke="midnightblue" d="M501.037,-394.086C558.505,-383.02 665.905,-361.971 682.854,-356 701.227,-349.528 704.173,-344.175 721.854,-336 759.837,-318.438 777.83,-328.082 808.854,-300 848.505,-264.11 846.32,-241.081 852.854,-188 854.775,-172.399 851.738,-154.779 848.52,-141.824"/>
<polygon fill="midnightblue" stroke="midnightblue" points="851.792,-140.522 845.765,-131.808 845.042,-142.378 851.792,-140.522"/>
</g>
<!-- Node10 -->
<g id="node10" class="node"><title>Node10</title>
<g id="a_node10"><a xlink:href="semtable_8h.html" target="_top" xlink:title="header file for table for coordinating meaning across a vmhost ">
<polygon fill="white" stroke="black" points="679.354,-168.5 679.354,-187.5 744.354,-187.5 744.354,-168.5 679.354,-168.5"/>
<text text-anchor="middle" x="711.854" y="-175.5" font-family="Helvetica,sans-Serif" font-size="10.00">semtable.h</text>
</a>
</g>
</g>
<!-- Node2&#45;&gt;Node10 -->
<g id="edge10" class="edge"><title>Node2&#45;&gt;Node10</title>
<path fill="none" stroke="midnightblue" d="M479.298,-392.457C531.559,-361.479 708.097,-256.223 714.854,-244 722.703,-229.802 720.802,-211.078 717.62,-197.375"/>
<polygon fill="midnightblue" stroke="midnightblue" points="720.972,-196.364 714.955,-187.643 714.221,-198.213 720.972,-196.364"/>
</g>
<!-- Node17 -->
<g id="node17" class="node"><title>Node17</title>
<g id="a_node17"><a xlink:href="tree_8h.html" target="_top" xlink:title="semantic trees header file ">
<polygon fill="white" stroke="black" points="633.354,-336.5 633.354,-355.5 674.354,-355.5 674.354,-336.5 633.354,-336.5"/>
<text text-anchor="middle" x="653.854" y="-343.5" font-family="Helvetica,sans-Serif" font-size="10.00">tree.h</text>
</a>
</g>
</g>
<!-- Node2&#45;&gt;Node17 -->
<g id="edge21" class="edge"><title>Node2&#45;&gt;Node17</title>
<path fill="none" stroke="midnightblue" d="M494.802,-392.444C529.949,-382.402 587.916,-365.839 623.317,-355.725"/>
<polygon fill="midnightblue" stroke="midnightblue" points="624.443,-359.043 633.097,-352.931 622.52,-352.313 624.443,-359.043"/>
</g>
<!-- Node20 -->
<g id="node20" class="node"><title>Node20</title>
<g id="a_node20"><a xlink:href="stream_8h.html" target="_top" xlink:title="streams abstraction header file ">
<polygon fill="white" stroke="black" points="357.354,-280.5 357.354,-299.5 412.354,-299.5 412.354,-280.5 357.354,-280.5"/>
<text text-anchor="middle" x="384.854" y="-287.5" font-family="Helvetica,sans-Serif" font-size="10.00">stream.h</text>
</a>
</g>
</g>
<!-- Node2&#45;&gt;Node20 -->
<g id="edge41" class="edge"><title>Node2&#45;&gt;Node20</title>
<path fill="none" stroke="midnightblue" d="M458.577,-392.368C445.375,-374.215 414.528,-331.802 397.211,-307.99"/>
<polygon fill="midnightblue" stroke="midnightblue" points="399.815,-305.62 391.103,-299.591 394.154,-309.737 399.815,-305.62"/>
</g>
<!-- Node22 -->
<g id="node22" class="node"><title>Node22</title>
<g id="a_node22"><a xlink:href="mtree_8h.html" target="_top" xlink:title="semantic tree matrix header file `` ">
<polygon fill="white" stroke="black" points="530.854,-280.5 530.854,-299.5 580.854,-299.5 580.854,-280.5 530.854,-280.5"/>
<text text-anchor="middle" x="555.854" y="-287.5" font-family="Helvetica,sans-Serif" font-size="10.00">mtree.h</text>
</a>
</g>
</g>
<!-- Node2&#45;&gt;Node22 -->
<g id="edge35" class="edge"><title>Node2&#45;&gt;Node22</title>
<path fill="none" stroke="midnightblue" d="M471.995,-392.368C487.145,-374.055 522.723,-331.049 542.318,-307.362"/>
<polygon fill="midnightblue" stroke="midnightblue" points="545.069,-309.528 548.747,-299.591 539.676,-305.066 545.069,-309.528"/>
</g>
<!-- Node23 -->
<g id="node23" class="node"><title>Node23</title>
<g id="a_node23"><a xlink:href="util_8h.html" target="_top" xlink:title="util.h">
<polygon fill="white" stroke="black" points="99.8543,-112.5 99.8543,-131.5 137.854,-131.5 137.854,-112.5 99.8543,-112.5"/>
<text text-anchor="middle" x="118.854" y="-119.5" font-family="Helvetica,sans-Serif" font-size="10.00">util.h</text>
</a>
</g>
</g>
<!-- Node2&#45;&gt;Node23 -->
<g id="edge42" class="edge"><title>Node2&#45;&gt;Node23</title>
<path fill="none" stroke="midnightblue" d="M428.665,-399.176C327.455,-393.096 48.8543,-369.253 48.8543,-291 48.8543,-291 48.8543,-291 48.8543,-233 48.8543,-194.232 80.1842,-158.104 100.924,-138.434"/>
<polygon fill="midnightblue" stroke="midnightblue" points="103.494,-140.827 108.526,-131.504 98.7778,-135.655 103.494,-140.827"/>
</g>
<!-- Node26 -->
<g id="node26" class="node"><title>Node26</title>
<g id="a_node26"><a xlink:href="debug_8h.html" target="_top" xlink:title="debug.h">
<polygon fill="white" stroke="black" points="77.3543,-224.5 77.3543,-243.5 128.354,-243.5 128.354,-224.5 77.3543,-224.5"/>
<text text-anchor="middle" x="102.854" y="-231.5" font-family="Helvetica,sans-Serif" font-size="10.00">debug.h</text>
</a>
</g>
</g>
<!-- Node2&#45;&gt;Node26 -->
<g id="edge47" class="edge"><title>Node2&#45;&gt;Node26</title>
<path fill="none" stroke="midnightblue" d="M428.793,-398.928C361.771,-394.493 221.159,-382.272 180.854,-356 142.777,-331.179 119.436,-280.56 109.11,-253.323"/>
<polygon fill="midnightblue" stroke="midnightblue" points="112.37,-252.044 105.682,-243.827 105.786,-254.421 112.37,-252.044"/>
</g>
<!-- Node6&#45;&gt;Node4 -->
<g id="edge6" class="edge"><title>Node6&#45;&gt;Node4</title>
<path fill="none" stroke="midnightblue" d="M807.215,-118.556C725.476,-112.778 518.269,-97.1607 345.854,-76 337.747,-75.005 329.031,-73.7508 320.881,-72.4972"/>
<polygon fill="midnightblue" stroke="midnightblue" points="321.374,-69.0317 310.951,-70.9292 320.282,-75.946 321.374,-69.0317"/>
</g>
<!-- Node7 -->
<g id="node7" class="node"><title>Node7</title>
<polygon fill="white" stroke="#bfbfbf" points="872.854,-56.5 872.854,-75.5 922.854,-75.5 922.854,-56.5 872.854,-56.5"/>
<text text-anchor="middle" x="897.854" y="-63.5" font-family="Helvetica,sans-Serif" font-size="10.00">signal.h</text>
</g>
<!-- Node6&#45;&gt;Node7 -->
<g id="edge7" class="edge"><title>Node6&#45;&gt;Node7</title>
<path fill="none" stroke="midnightblue" d="M851.936,-112.083C860.026,-104.141 872.05,-92.3354 881.764,-82.7973"/>
<polygon fill="midnightblue" stroke="midnightblue" points="884.258,-85.2545 888.941,-75.7511 879.353,-80.2595 884.258,-85.2545"/>
</g>
<!-- Node8 -->
<g id="node8" class="node"><title>Node8</title>
<polygon fill="white" stroke="#bfbfbf" points="940.854,-56.5 940.854,-75.5 992.854,-75.5 992.854,-56.5 940.854,-56.5"/>
<text text-anchor="middle" x="966.854" y="-63.5" font-family="Helvetica,sans-Serif" font-size="10.00">assert.h</text>
</g>
<!-- Node6&#45;&gt;Node8 -->
<g id="edge8" class="edge"><title>Node6&#45;&gt;Node8</title>
<path fill="none" stroke="midnightblue" d="M862.502,-112.444C882.819,-103.596 914.757,-89.6875 937.952,-79.5865"/>
<polygon fill="midnightblue" stroke="midnightblue" points="939.527,-82.7181 947.298,-75.5164 936.732,-76.3002 939.527,-82.7181"/>
</g>
<!-- Node9 -->
<g id="node9" class="node"><title>Node9</title>
<polygon fill="white" stroke="#bfbfbf" points="800.854,-56.5 800.854,-75.5 854.854,-75.5 854.854,-56.5 800.854,-56.5"/>
<text text-anchor="middle" x="827.854" y="-63.5" font-family="Helvetica,sans-Serif" font-size="10.00">setjmp.h</text>
</g>
<!-- Node6&#45;&gt;Node9 -->
<g id="edge9" class="edge"><title>Node6&#45;&gt;Node9</title>
<path fill="none" stroke="midnightblue" d="M840.377,-112.083C838.368,-104.849 835.468,-94.4087 832.965,-85.3968"/>
<polygon fill="midnightblue" stroke="midnightblue" points="836.334,-84.4495 830.285,-75.7511 829.589,-86.323 836.334,-84.4495"/>
</g>
<!-- Node10&#45;&gt;Node6 -->
<g id="edge20" class="edge"><title>Node10&#45;&gt;Node6</title>
<path fill="none" stroke="midnightblue" d="M732.612,-168.444C754.171,-159.557 788.118,-145.563 812.648,-135.451"/>
<polygon fill="midnightblue" stroke="midnightblue" points="814.283,-138.563 822.194,-131.516 811.615,-132.092 814.283,-138.563"/>
</g>
<!-- Node11 -->
<g id="node11" class="node"><title>Node11</title>
<g id="a_node11"><a xlink:href="ceptr__types_8h_source.html" target="_top" xlink:title="ceptr_types.h">
<polygon fill="white" stroke="black" points="384.854,-112.5 384.854,-131.5 460.854,-131.5 460.854,-112.5 384.854,-112.5"/>
<text text-anchor="middle" x="422.854" y="-119.5" font-family="Helvetica,sans-Serif" font-size="10.00">ceptr_types.h</text>
</a>
</g>
</g>
<!-- Node10&#45;&gt;Node11 -->
<g id="edge11" class="edge"><title>Node10&#45;&gt;Node11</title>
<path fill="none" stroke="midnightblue" d="M679.264,-170.91C628.469,-161.419 530.138,-143.046 471.107,-132.016"/>
<polygon fill="midnightblue" stroke="midnightblue" points="471.746,-128.575 461.273,-130.179 470.46,-135.456 471.746,-128.575"/>
</g>
<!-- Node11&#45;&gt;Node4 -->
<g id="edge13" class="edge"><title>Node11&#45;&gt;Node4</title>
<path fill="none" stroke="midnightblue" d="M401.463,-112.444C379.147,-103.517 343.951,-89.4387 318.646,-79.3168"/>
<polygon fill="midnightblue" stroke="midnightblue" points="319.73,-75.9807 309.145,-75.5164 317.13,-82.4801 319.73,-75.9807"/>
</g>
<!-- Node12 -->
<g id="node12" class="node"><title>Node12</title>
<polygon fill="white" stroke="#bfbfbf" points="197.354,-56.5 197.354,-75.5 246.354,-75.5 246.354,-56.5 197.354,-56.5"/>
<text text-anchor="middle" x="221.854" y="-63.5" font-family="Helvetica,sans-Serif" font-size="10.00">stdint.h</text>
</g>
<!-- Node11&#45;&gt;Node12 -->
<g id="edge12" class="edge"><title>Node11&#45;&gt;Node12</title>
<path fill="none" stroke="midnightblue" d="M391.005,-112.444C354.377,-102.603 294.444,-86.5016 256.626,-76.3418"/>
<polygon fill="midnightblue" stroke="midnightblue" points="257.15,-72.8584 246.584,-73.6439 255.334,-79.6186 257.15,-72.8584"/>
</g>
<!-- Node13 -->
<g id="node13" class="node"><title>Node13</title>
<g id="a_node13"><a xlink:href="uthash_8h_source.html" target="_top" xlink:title="uthash.h">
<polygon fill="white" stroke="black" points="492.854,-56.5 492.854,-75.5 546.854,-75.5 546.854,-56.5 492.854,-56.5"/>
<text text-anchor="middle" x="519.854" y="-63.5" font-family="Helvetica,sans-Serif" font-size="10.00">uthash.h</text>
</a>
</g>
</g>
<!-- Node11&#45;&gt;Node13 -->
<g id="edge14" class="edge"><title>Node11&#45;&gt;Node13</title>
<path fill="none" stroke="midnightblue" d="M438.439,-112.324C453.853,-103.743 477.667,-90.486 495.564,-80.5224"/>
<polygon fill="midnightblue" stroke="midnightblue" points="497.273,-83.5767 504.308,-75.6545 493.868,-77.4606 497.273,-83.5767"/>
</g>
<!-- Node16 -->
<g id="node16" class="node"><title>Node16</title>
<polygon fill="white" stroke="#bfbfbf" points="354.854,-56.5 354.854,-75.5 410.854,-75.5 410.854,-56.5 354.854,-56.5"/>
<text text-anchor="middle" x="382.854" y="-63.5" font-family="Helvetica,sans-Serif" font-size="10.00">stdbool.h</text>
</g>
<!-- Node11&#45;&gt;Node16 -->
<g id="edge19" class="edge"><title>Node11&#45;&gt;Node16</title>
<path fill="none" stroke="midnightblue" d="M416.249,-112.083C410.599,-104.455 402.309,-93.2645 395.403,-83.9408"/>
<polygon fill="midnightblue" stroke="midnightblue" points="398.101,-81.7034 389.337,-75.7511 392.476,-85.87 398.101,-81.7034"/>
</g>
<!-- Node13&#45;&gt;Node3 -->
<g id="edge15" class="edge"><title>Node13&#45;&gt;Node3</title>
<path fill="none" stroke="midnightblue" d="M492.699,-59.0147C447.918,-49.1447 358.651,-29.4694 309.427,-18.6201"/>
<polygon fill="midnightblue" stroke="midnightblue" points="310.08,-15.1802 299.561,-16.4457 308.574,-22.0161 310.08,-15.1802"/>
</g>
<!-- Node13&#45;&gt;Node5 -->
<g id="edge17" class="edge"><title>Node13&#45;&gt;Node5</title>
<path fill="none" stroke="midnightblue" d="M533.832,-56.324C547.404,-47.9002 568.235,-34.9709 584.179,-25.0741"/>
<polygon fill="midnightblue" stroke="midnightblue" points="586.26,-27.9019 592.911,-19.6545 582.569,-21.9544 586.26,-27.9019"/>
</g>
<!-- Node14 -->
<g id="node14" class="node"><title>Node14</title>
<polygon fill="white" stroke="#bfbfbf" points="424.854,-0.5 424.854,-19.5 476.854,-19.5 476.854,-0.5 424.854,-0.5"/>
<text text-anchor="middle" x="450.854" y="-7.5" font-family="Helvetica,sans-Serif" font-size="10.00">stddef.h</text>
</g>
<!-- Node13&#45;&gt;Node14 -->
<g id="edge16" class="edge"><title>Node13&#45;&gt;Node14</title>
<path fill="none" stroke="midnightblue" d="M508.768,-56.324C498.368,-48.1849 482.594,-35.8395 470.133,-26.0874"/>
<polygon fill="midnightblue" stroke="midnightblue" points="472.174,-23.2407 462.142,-19.8339 467.86,-28.7533 472.174,-23.2407"/>
</g>
<!-- Node15 -->
<g id="node15" class="node"><title>Node15</title>
<polygon fill="white" stroke="#bfbfbf" points="495.354,-0.5 495.354,-19.5 554.354,-19.5 554.354,-0.5 495.354,-0.5"/>
<text text-anchor="middle" x="524.854" y="-7.5" font-family="Helvetica,sans-Serif" font-size="10.00">inttypes.h</text>
</g>
<!-- Node13&#45;&gt;Node15 -->
<g id="edge18" class="edge"><title>Node13&#45;&gt;Node15</title>
<path fill="none" stroke="midnightblue" d="M520.68,-56.083C521.335,-49.0059 522.275,-38.8611 523.096,-29.9865"/>
<polygon fill="midnightblue" stroke="midnightblue" points="526.607,-30.0312 524.044,-19.7511 519.637,-29.3858 526.607,-30.0312"/>
</g>
<!-- Node17&#45;&gt;Node3 -->
<g id="edge22" class="edge"><title>Node17&#45;&gt;Node3</title>
<path fill="none" stroke="midnightblue" d="M633.186,-345.555C582.375,-346.174 448.204,-343.248 347.854,-300 310.946,-284.094 302.593,-274.866 276.854,-244 217.649,-173.001 139.793,-134.97 187.854,-56 199.298,-37.1976 221.41,-25.9047 240.478,-19.3342"/>
<polygon fill="midnightblue" stroke="midnightblue" points="241.606,-22.6485 250.099,-16.3139 239.509,-15.9698 241.606,-22.6485"/>
</g>
<!-- Node17&#45;&gt;Node5 -->
<g id="edge23" class="edge"><title>Node17&#45;&gt;Node5</title>
<path fill="none" stroke="midnightblue" d="M674.499,-336.793C702.119,-325.65 748.293,-306.391 753.854,-300 773.613,-277.296 772.854,-265.098 772.854,-235 772.854,-235 772.854,-235 772.854,-121 772.854,-58.2217 689.336,-29.1586 640.78,-17.5668"/>
<polygon fill="midnightblue" stroke="midnightblue" points="641.518,-14.1453 630.992,-15.3525 639.973,-20.9728 641.518,-14.1453"/>
</g>
<!-- Node17&#45;&gt;Node6 -->
<g id="edge24" class="edge"><title>Node17&#45;&gt;Node6</title>
<path fill="none" stroke="midnightblue" d="M674.479,-339.137C709.777,-328.942 778.77,-308.246 786.854,-300 830.424,-255.557 840.127,-177.453 842.264,-141.756"/>
<polygon fill="midnightblue" stroke="midnightblue" points="845.761,-141.903 842.726,-131.752 838.769,-141.58 845.761,-141.903"/>
</g>
<!-- Node17&#45;&gt;Node11 -->
<g id="edge30" class="edge"><title>Node17&#45;&gt;Node11</title>
<path fill="none" stroke="midnightblue" d="M633.344,-341.111C606.234,-335.305 557.72,-322.56 521.854,-300 468.959,-266.728 458.398,-246.659 436.854,-188 431.314,-172.915 427.659,-155.013 425.478,-141.82"/>
<polygon fill="midnightblue" stroke="midnightblue" points="428.891,-140.989 423.929,-131.628 421.971,-142.04 428.891,-140.989"/>
</g>
<!-- Node18 -->
<g id="node18" class="node"><title>Node18</title>
<g id="a_node18"><a xlink:href="sys__defs_8h.html" target="_top" xlink:title="Defines types and vars for system defined semantics. ">
<polygon fill="white" stroke="black" points="641.354,-224.5 641.354,-243.5 706.354,-243.5 706.354,-224.5 641.354,-224.5"/>
<text text-anchor="middle" x="673.854" y="-231.5" font-family="Helvetica,sans-Serif" font-size="10.00">sys_defs.h</text>
</a>
</g>
</g>
<!-- Node17&#45;&gt;Node18 -->
<g id="edge25" class="edge"><title>Node17&#45;&gt;Node18</title>
<path fill="none" stroke="midnightblue" d="M655.424,-336.368C658.651,-318.617 666.097,-277.666 670.473,-253.597"/>
<polygon fill="midnightblue" stroke="midnightblue" points="673.947,-254.056 672.292,-243.591 667.06,-252.804 673.947,-254.056"/>
</g>
<!-- Node19 -->
<g id="node19" class="node"><title>Node19</title>
<g id="a_node19"><a xlink:href="base__defs_8h.html" target="_top" xlink:title="auto&#45;generated system definitions ">
<polygon fill="white" stroke="black" points="674.854,-280.5 674.854,-299.5 744.854,-299.5 744.854,-280.5 674.854,-280.5"/>
<text text-anchor="middle" x="709.854" y="-287.5" font-family="Helvetica,sans-Serif" font-size="10.00">base_defs.h</text>
</a>
</g>
</g>
<!-- Node17&#45;&gt;Node19 -->
<g id="edge28" class="edge"><title>Node17&#45;&gt;Node19</title>
<path fill="none" stroke="midnightblue" d="M662.852,-336.324C671.049,-328.42 683.36,-316.548 693.326,-306.938"/>
<polygon fill="midnightblue" stroke="midnightblue" points="695.924,-309.295 700.693,-299.834 691.065,-304.256 695.924,-309.295"/>
</g>
<!-- Node17&#45;&gt;Node20 -->
<g id="edge31" class="edge"><title>Node17&#45;&gt;Node20</title>
<path fill="none" stroke="midnightblue" d="M633.193,-340.852C588.14,-331.808 480.49,-310.198 422.836,-298.625"/>
<polygon fill="midnightblue" stroke="midnightblue" points="423.172,-295.122 412.679,-296.586 421.794,-301.985 423.172,-295.122"/>
</g>
<!-- Node18&#45;&gt;Node10 -->
<g id="edge27" class="edge"><title>Node18&#45;&gt;Node10</title>
<path fill="none" stroke="midnightblue" d="M680.129,-224.083C685.497,-216.455 693.372,-205.264 699.933,-195.941"/>
<polygon fill="midnightblue" stroke="midnightblue" points="702.803,-197.943 705.696,-187.751 697.079,-193.915 702.803,-197.943"/>
</g>
<!-- Node18&#45;&gt;Node11 -->
<g id="edge26" class="edge"><title>Node18&#45;&gt;Node11</title>
<path fill="none" stroke="midnightblue" d="M654.159,-224.368C610.079,-205.051 503.309,-158.259 451.715,-135.648"/>
<polygon fill="midnightblue" stroke="midnightblue" points="453.022,-132.4 442.458,-131.591 450.213,-138.811 453.022,-132.4"/>
</g>
<!-- Node19&#45;&gt;Node18 -->
<g id="edge29" class="edge"><title>Node19&#45;&gt;Node18</title>
<path fill="none" stroke="midnightblue" d="M703.91,-280.083C698.877,-272.534 691.518,-261.495 685.341,-252.23"/>
<polygon fill="midnightblue" stroke="midnightblue" points="688.148,-250.13 679.688,-243.751 682.323,-254.013 688.148,-250.13"/>
</g>
<!-- Node20&#45;&gt;Node4 -->
<g id="edge32" class="edge"><title>Node20&#45;&gt;Node4</title>
<path fill="none" stroke="midnightblue" d="M357.076,-284.099C334.701,-278.537 304.623,-267.049 289.854,-244 258.126,-194.484 272.716,-120.09 282.105,-85.6813"/>
<polygon fill="midnightblue" stroke="midnightblue" points="285.594,-86.218 285.016,-75.6389 278.87,-84.2694 285.594,-86.218"/>
</g>
<!-- Node20&#45;&gt;Node16 -->
<g id="edge34" class="edge"><title>Node20&#45;&gt;Node16</title>
<path fill="none" stroke="midnightblue" d="M383.071,-280.268C380.262,-267.482 374.151,-243.111 364.854,-224 356.333,-206.483 345.676,-206.589 339.854,-188 328.09,-150.436 353.008,-107.13 369.605,-83.8711"/>
<polygon fill="midnightblue" stroke="midnightblue" points="372.503,-85.8394 375.669,-75.7287 366.889,-81.6582 372.503,-85.8394"/>
</g>
<!-- Node21 -->
<g id="node21" class="node"><title>Node21</title>
<polygon fill="white" stroke="#bfbfbf" points="299.354,-224.5 299.354,-243.5 356.354,-243.5 356.354,-224.5 299.354,-224.5"/>
<text text-anchor="middle" x="327.854" y="-231.5" font-family="Helvetica,sans-Serif" font-size="10.00">pthread.h</text>
</g>
<!-- Node20&#45;&gt;Node21 -->
<g id="edge33" class="edge"><title>Node20&#45;&gt;Node21</title>
<path fill="none" stroke="midnightblue" d="M375.696,-280.324C367.353,-272.42 354.822,-260.548 344.677,-250.938"/>
<polygon fill="midnightblue" stroke="midnightblue" points="346.846,-248.171 337.179,-243.834 342.031,-253.252 346.846,-248.171"/>
</g>
<!-- Node22&#45;&gt;Node3 -->
<g id="edge36" class="edge"><title>Node22&#45;&gt;Node3</title>
<path fill="none" stroke="midnightblue" d="M553.805,-280.264C545.016,-244.952 506.921,-111.983 419.854,-56 385.694,-34.035 340.126,-22.2089 309.258,-16.2739"/>
<polygon fill="midnightblue" stroke="midnightblue" points="309.856,-12.8253 299.391,-14.4809 308.604,-19.7125 309.856,-12.8253"/>
</g>
<!-- Node22&#45;&gt;Node5 -->
<g id="edge37" class="edge"><title>Node22&#45;&gt;Node5</title>
<path fill="none" stroke="midnightblue" d="M559.42,-280.258C566.314,-262.961 581.444,-223.011 588.854,-188 600.873,-131.213 604.946,-62.4195 606.262,-29.8466"/>
<polygon fill="midnightblue" stroke="midnightblue" points="609.77,-29.6937 606.632,-19.5742 602.775,-29.4418 609.77,-29.6937"/>
</g>
<!-- Node22&#45;&gt;Node6 -->
<g id="edge38" class="edge"><title>Node22&#45;&gt;Node6</title>
<path fill="none" stroke="midnightblue" d="M563.048,-280.18C583.772,-254.973 643.781,-183.446 669.854,-168 709.101,-144.749 760.314,-133.363 796.812,-127.882"/>
<polygon fill="midnightblue" stroke="midnightblue" points="797.75,-131.285 807.165,-126.426 796.775,-124.353 797.75,-131.285"/>
</g>
<!-- Node22&#45;&gt;Node11 -->
<g id="edge40" class="edge"><title>Node22&#45;&gt;Node11</title>
<path fill="none" stroke="midnightblue" d="M536.694,-280.405C521.159,-272.671 499.512,-260.062 484.854,-244 456.58,-213.016 437.685,-166.744 428.771,-141.338"/>
<polygon fill="midnightblue" stroke="midnightblue" points="431.982,-139.905 425.472,-131.546 425.348,-142.141 431.982,-139.905"/>
</g>
<!-- Node22&#45;&gt;Node18 -->
<g id="edge39" class="edge"><title>Node22&#45;&gt;Node18</title>
<path fill="none" stroke="midnightblue" d="M574.552,-280.444C593.799,-271.636 624.007,-257.812 646.054,-247.722"/>
<polygon fill="midnightblue" stroke="midnightblue" points="647.608,-250.86 655.244,-243.516 644.695,-244.495 647.608,-250.86"/>
</g>
<!-- Node23&#45;&gt;Node4 -->
<g id="edge44" class="edge"><title>Node23&#45;&gt;Node4</title>
<path fill="none" stroke="midnightblue" d="M137.912,-114.91C166.354,-105.823 220.282,-88.5911 255.118,-77.4603"/>
<polygon fill="midnightblue" stroke="midnightblue" points="256.372,-80.7337 264.833,-74.356 254.242,-74.0658 256.372,-80.7337"/>
</g>
<!-- Node23&#45;&gt;Node12 -->
<g id="edge46" class="edge"><title>Node23&#45;&gt;Node12</title>
<path fill="none" stroke="midnightblue" d="M135.403,-112.324C151.846,-103.703 177.289,-90.3643 196.323,-80.3855"/>
<polygon fill="midnightblue" stroke="midnightblue" points="198.115,-83.3977 205.347,-75.6545 194.865,-77.198 198.115,-83.3977"/>
</g>
<!-- Node24 -->
<g id="node24" class="node"><title>Node24</title>
<polygon fill="white" stroke="#bfbfbf" points="29.3543,-56.5 29.3543,-75.5 78.3543,-75.5 78.3543,-56.5 29.3543,-56.5"/>
<text text-anchor="middle" x="53.8543" y="-63.5" font-family="Helvetica,sans-Serif" font-size="10.00">ctype.h</text>
</g>
<!-- Node23&#45;&gt;Node24 -->
<g id="edge43" class="edge"><title>Node23&#45;&gt;Node24</title>
<path fill="none" stroke="midnightblue" d="M108.411,-112.324C98.7081,-104.263 84.039,-92.0765 72.3546,-82.3695"/>
<polygon fill="midnightblue" stroke="midnightblue" points="74.4162,-79.532 64.4877,-75.8339 69.943,-84.9163 74.4162,-79.532"/>
</g>
<!-- Node25 -->
<g id="node25" class="node"><title>Node25</title>
<polygon fill="white" stroke="#bfbfbf" points="96.8543,-56.5 96.8543,-75.5 140.854,-75.5 140.854,-56.5 96.8543,-56.5"/>
<text text-anchor="middle" x="118.854" y="-63.5" font-family="Helvetica,sans-Serif" font-size="10.00">time.h</text>
</g>
<!-- Node23&#45;&gt;Node25 -->
<g id="edge45" class="edge"><title>Node23&#45;&gt;Node25</title>
<path fill="none" stroke="midnightblue" d="M118.854,-112.083C118.854,-105.006 118.854,-94.8611 118.854,-85.9865"/>
<polygon fill="midnightblue" stroke="midnightblue" points="122.354,-85.751 118.854,-75.7511 115.354,-85.7511 122.354,-85.751"/>
</g>
<!-- Node26&#45;&gt;Node4 -->
<g id="edge48" class="edge"><title>Node26&#45;&gt;Node4</title>
<path fill="none" stroke="midnightblue" d="M111.601,-224.211C131.965,-203.864 184.353,-152.195 230.854,-112 242.897,-101.591 256.924,-90.5039 268.05,-81.9395"/>
<polygon fill="midnightblue" stroke="midnightblue" points="270.434,-84.5234 276.258,-75.6729 266.185,-78.9597 270.434,-84.5234"/>
</g>
<!-- Node27&#45;&gt;Node17 -->
<g id="edge50" class="edge"><title>Node27&#45;&gt;Node17</title>
<path fill="none" stroke="midnightblue" d="M575.796,-392.324C590.439,-383.822 612.988,-370.729 630.092,-360.797"/>
<polygon fill="midnightblue" stroke="midnightblue" points="632.059,-363.703 638.949,-355.655 628.544,-357.649 632.059,-363.703"/>
</g>
<!-- Node28&#45;&gt;Node10 -->
<g id="edge52" class="edge"><title>Node28&#45;&gt;Node10</title>
<path fill="none" stroke="midnightblue" d="M673.155,-453.654C706.11,-449.037 750.775,-438.064 780.854,-412 804.9,-391.164 810.854,-378.817 810.854,-347 810.854,-347 810.854,-347 810.854,-289 810.854,-245.183 766.918,-210.928 737.585,-192.941"/>
<polygon fill="midnightblue" stroke="midnightblue" points="739.042,-189.738 728.648,-187.682 735.491,-195.77 739.042,-189.738"/>
</g>
<!-- Node28&#45;&gt;Node17 -->
<g id="edge53" class="edge"><title>Node28&#45;&gt;Node17</title>
<path fill="none" stroke="midnightblue" d="M631.738,-448.368C635.611,-430.617 644.545,-389.666 649.797,-365.597"/>
<polygon fill="midnightblue" stroke="midnightblue" points="653.268,-366.108 651.98,-355.591 646.429,-364.615 653.268,-366.108"/>
</g>
<!-- Node28&#45;&gt;Node27 -->
<g id="edge61" class="edge"><title>Node28&#45;&gt;Node27</title>
<path fill="none" stroke="midnightblue" d="M618.768,-448.324C608.368,-440.185 592.594,-427.839 580.133,-418.087"/>
<polygon fill="midnightblue" stroke="midnightblue" points="582.174,-415.241 572.142,-411.834 577.86,-420.753 582.174,-415.241"/>
</g>
<!-- Node29 -->
<g id="node29" class="node"><title>Node29</title>
<g id="a_node29"><a xlink:href="def_8h.html" target="_top" xlink:title="header file for symbol and structure definition functions ">
<polygon fill="white" stroke="black" points="733.854,-392.5 733.854,-411.5 771.854,-411.5 771.854,-392.5 733.854,-392.5"/>
<text text-anchor="middle" x="752.854" y="-399.5" font-family="Helvetica,sans-Serif" font-size="10.00">def.h</text>
</a>
</g>
</g>
<!-- Node28&#45;&gt;Node29 -->
<g id="edge54" class="edge"><title>Node28&#45;&gt;Node29</title>
<path fill="none" stroke="midnightblue" d="M649.344,-448.444C669.497,-439.596 701.177,-425.687 724.185,-415.586"/>
<polygon fill="midnightblue" stroke="midnightblue" points="725.706,-418.741 733.456,-411.516 722.892,-412.332 725.706,-418.741"/>
</g>
<!-- Node31 -->
<g id="node31" class="node"><title>Node31</title>
<g id="a_node31"><a xlink:href="label_8h.html" target="_top" xlink:title="Label tables map human readable text strings to parts of semantic trees. ">
<polygon fill="white" stroke="black" points="349.354,-168.5 349.354,-187.5 394.354,-187.5 394.354,-168.5 349.354,-168.5"/>
<text text-anchor="middle" x="371.854" y="-175.5" font-family="Helvetica,sans-Serif" font-size="10.00">label.h</text>
</a>
</g>
</g>
<!-- Node28&#45;&gt;Node31 -->
<g id="edge57" class="edge"><title>Node28&#45;&gt;Node31</title>
<path fill="none" stroke="midnightblue" d="M586.566,-453.977C484.046,-445.822 231.235,-419.55 180.854,-356 124.907,-285.429 271.679,-217.513 339.56,-190.85"/>
<polygon fill="midnightblue" stroke="midnightblue" points="340.899,-194.085 348.969,-187.22 338.379,-187.554 340.899,-194.085"/>
</g>
<!-- Node32 -->
<g id="node32" class="node"><title>Node32</title>
<g id="a_node32"><a xlink:href="process_8h.html" target="_top" xlink:title="processing header files ">
<polygon fill="white" stroke="black" points="656.354,-392.5 656.354,-411.5 715.354,-411.5 715.354,-392.5 656.354,-392.5"/>
<text text-anchor="middle" x="685.854" y="-399.5" font-family="Helvetica,sans-Serif" font-size="10.00">process.h</text>
</a>
</g>
</g>
<!-- Node28&#45;&gt;Node32 -->
<g id="edge59" class="edge"><title>Node28&#45;&gt;Node32</title>
<path fill="none" stroke="midnightblue" d="M638.852,-448.324C647.049,-440.42 659.36,-428.548 669.326,-418.938"/>
<polygon fill="midnightblue" stroke="midnightblue" points="671.924,-421.295 676.693,-411.834 667.065,-416.256 671.924,-421.295"/>
</g>
<!-- Node29&#45;&gt;Node17 -->
<g id="edge55" class="edge"><title>Node29&#45;&gt;Node17</title>
<path fill="none" stroke="midnightblue" d="M736.948,-392.324C721.216,-383.743 696.912,-370.486 678.645,-360.522"/>
<polygon fill="midnightblue" stroke="midnightblue" points="680.176,-357.37 669.721,-355.655 676.824,-363.516 680.176,-357.37"/>
</g>
<!-- Node30 -->
<g id="node30" class="node"><title>Node30</title>
<polygon fill="white" stroke="#bfbfbf" points="730.854,-336.5 730.854,-355.5 782.854,-355.5 782.854,-336.5 730.854,-336.5"/>
<text text-anchor="middle" x="756.854" y="-343.5" font-family="Helvetica,sans-Serif" font-size="10.00">stdarg.h</text>
</g>
<!-- Node29&#45;&gt;Node30 -->
<g id="edge56" class="edge"><title>Node29&#45;&gt;Node30</title>
<path fill="none" stroke="midnightblue" d="M753.515,-392.083C754.039,-385.006 754.791,-374.861 755.448,-365.986"/>
<polygon fill="midnightblue" stroke="midnightblue" points="758.958,-365.982 756.206,-355.751 751.977,-365.465 758.958,-365.982"/>
</g>
<!-- Node31&#45;&gt;Node11 -->
<g id="edge58" class="edge"><title>Node31&#45;&gt;Node11</title>
<path fill="none" stroke="midnightblue" d="M380.276,-168.083C387.703,-160.22 398.706,-148.569 407.666,-139.081"/>
<polygon fill="midnightblue" stroke="midnightblue" points="410.268,-141.424 414.589,-131.751 405.179,-136.618 410.268,-141.424"/>
</g>
<!-- Node32&#45;&gt;Node17 -->
<g id="edge60" class="edge"><title>Node32&#45;&gt;Node17</title>
<path fill="none" stroke="midnightblue" d="M680.57,-392.083C676.143,-384.613 669.691,-373.724 664.236,-364.52"/>
<polygon fill="midnightblue" stroke="midnightblue" points="667.149,-362.57 659.04,-355.751 661.127,-366.138 667.149,-362.57"/>
</g>
</g>
</svg>
        <g id="navigator" transform="translate(0 0)" fill="#404254">
                <rect fill="#f2f5e9" fill-opacity="0.5" stroke="#606060" stroke-width=".5" x="0" y="0" width="60" height="60"/>
                <use id="zoomplus" xlink:href="#zoomPlus" x="17" y="9" onmousedown="handleZoom(evt,'in')"/>
                <use id="zoomminus" xlink:href="#zoomMin" x="42" y="9" onmousedown="handleZoom(evt,'out')"/>
                <use id="reset" xlink:href="#resetDef" x="30" y="36" onmousedown="handleReset()"/>
                <g id="arrowUp" xlink:href="#dirArrow" transform="translate(30 24)" onmousedown="handlePan(0,-1)">
                  <use xlink:href="#rim" fill="#404040">
                        <set attributeName="fill" to="#808080" begin="arrowUp.mouseover" end="arrowUp.mouseout"/>
                  </use>
                  <path fill="none" stroke="white" stroke-width="1.5" d="M0,-3.0v7 M-2.5,-0.5L0,-3.0L2.5,-0.5"/>
                </g>
                <g id="arrowRight" xlink:href="#dirArrow" transform="rotate(90) translate(36 -43)" onmousedown="handlePan(1,0)">
                  <use xlink:href="#rim" fill="#404040">
                        <set attributeName="fill" to="#808080" begin="arrowRight.mouseover" end="arrowRight.mouseout"/>
                  </use>
                  <path fill="none" stroke="white" stroke-width="1.5" d="M0,-3.0v7 M-2.5,-0.5L0,-3.0L2.5,-0.5"/>
                </g>
                <g id="arrowDown" xlink:href="#dirArrow" transform="rotate(180) translate(-30 -48)" onmousedown="handlePan(0,1)">
                  <use xlink:href="#rim" fill="#404040">
                        <set attributeName="fill" to="#808080" begin="arrowDown.mouseover" end="arrowDown.mouseout"/>
                  </use>
                  <path fill="none" stroke="white" stroke-width="1.5" d="M0,-3.0v7 M-2.5,-0.5L0,-3.0L2.5,-0.5"/>
                </g>
                <g id="arrowLeft" xlink:href="#dirArrow" transform="rotate(270) translate(-36 17)" onmousedown="handlePan(-1,0)">
                  <use xlink:href="#rim" fill="#404040">
                        <set attributeName="fill" to="#808080" begin="arrowLeft.mouseover" end="arrowLeft.mouseout"/>
                  </use>
                  <path fill="none" stroke="white" stroke-width="1.5" d="M0,-3.0v7 M-2.5,-0.5L0,-3.0L2.5,-0.5"/>
                </g>
        </g>
        <svg viewBox="0 0 15 15" width="100%" height="30px" preserveAspectRatio="xMaxYMin meet">
         <g id="arrow_out" transform="scale(0.3 0.3)">
          <a xlink:href="scape__spec_8h__incl_org.svg" target="_base">
           <rect id="button" ry="5" rx="5" y="6" x="6" height="38" width="38"
                fill="#f2f5e9" fill-opacity="0.5" stroke="#606060" stroke-width="1.0"/>
           <path id="arrow"
             d="M 11.500037,31.436501 C 11.940474,20.09759 22.043105,11.32322 32.158766,21.979434 L 37.068811,17.246167 C 37.068811,17.246167 37.088388,32 37.088388,32 L 22.160133,31.978069 C 22.160133,31.978069 26.997745,27.140456 26.997745,27.140456 C 18.528582,18.264221 13.291696,25.230495 11.500037,31.436501 z"
             style="fill:#404040;"/>
          </a>
         </g>
        </svg>
</svg>
