<?xml version="1.0" encoding="UTF-8" standalone="no"?>
<!DOCTYPE svg PUBLIC "-//W3C//DTD SVG 1.1//EN"
 "http://www.w3.org/Graphics/SVG/1.1/DTD/svg11.dtd">
<!-- Generated by graphviz version 2.38.0 (20140413.2041)
 -->
<!-- Title: src/scape.h Pages: 1 -->
<svg width="1423pt" height="364pt"
 viewBox="0.00 0.00 1422.62 364.00" xmlns="http://www.w3.org/2000/svg" xmlns:xlink="http://www.w3.org/1999/xlink">
<g id="graph0" class="graph" transform="scale(1 1) rotate(0) translate(4 360)">
<title>src/scape.h</title>
<polygon fill="white" stroke="none" points="-4,4 -4,-360 1418.62,-360 1418.62,4 -4,4"/>
<!-- Node1 -->
<g id="node1" class="node"><title>Node1</title>
<polygon fill="#bfbfbf" stroke="black" points="1113,-336.5 1113,-355.5 1181,-355.5 1181,-336.5 1113,-336.5"/>
<text text-anchor="middle" x="1147" y="-343.5" font-family="Helvetica,sans-Serif" font-size="10.00">src/scape.h</text>
</g>
<!-- Node2 -->
<g id="node2" class="node"><title>Node2</title>
<g id="a_node2"><a xlink:href="receptor_8h.html" target="_top" xlink:title="receptor implementation header file ">
<polygon fill="white" stroke="black" points="645.5,-280.5 645.5,-299.5 722.5,-299.5 722.5,-280.5 645.5,-280.5"/>
<text text-anchor="middle" x="684" y="-287.5" font-family="Helvetica,sans-Serif" font-size="10.00">src/receptor.h</text>
</a>
</g>
</g>
<!-- Node1&#45;&gt;Node2 -->
<g id="edge1" class="edge"><title>Node1&#45;&gt;Node2</title>
<path fill="none" stroke="midnightblue" d="M1102.77,-339.842C1012.42,-329.304 807.985,-305.46 722.603,-295.502"/>
<polygon fill="midnightblue" stroke="midnightblue" points="1102.62,-343.347 1112.95,-341.029 1103.43,-336.394 1102.62,-343.347"/>
</g>
<!-- Node24 -->
<g id="node24" class="node"><title>Node24</title>
<g id="a_node24"><a xlink:href="tree_8c.html" target="_top" xlink:title="semantic tree pointer implementation ">
<polygon fill="white" stroke="black" points="1197,-224.5 1197,-243.5 1255,-243.5 1255,-224.5 1197,-224.5"/>
<text text-anchor="middle" x="1226" y="-231.5" font-family="Helvetica,sans-Serif" font-size="10.00">src/tree.c</text>
</a>
</g>
</g>
<!-- Node1&#45;&gt;Node24 -->
<g id="edge59" class="edge"><title>Node1&#45;&gt;Node24</title>
<path fill="none" stroke="midnightblue" d="M1156.14,-327.113C1163.3,-313.69 1173.89,-295.106 1185,-280 1194.89,-266.546 1208.19,-252.558 1216.92,-243.82"/>
<polygon fill="midnightblue" stroke="midnightblue" points="1152.9,-325.744 1151.37,-336.227 1159.11,-328.986 1152.9,-325.744"/>
</g>
<!-- Node31 -->
<g id="node31" class="node"><title>Node31</title>
<g id="a_node31"><a xlink:href="scape__spec_8h.html" target="_top" xlink:title="spec/scape_spec.h">
<polygon fill="white" stroke="black" points="1077.5,-224.5 1077.5,-243.5 1178.5,-243.5 1178.5,-224.5 1077.5,-224.5"/>
<text text-anchor="middle" x="1128" y="-231.5" font-family="Helvetica,sans-Serif" font-size="10.00">spec/scape_spec.h</text>
</a>
</g>
</g>
<!-- Node1&#45;&gt;Node31 -->
<g id="edge60" class="edge"><title>Node1&#45;&gt;Node31</title>
<path fill="none" stroke="midnightblue" d="M1143.78,-326.348C1139.62,-302.254 1132.54,-261.308 1129.48,-243.591"/>
<polygon fill="midnightblue" stroke="midnightblue" points="1140.36,-327.11 1145.51,-336.368 1147.26,-325.919 1140.36,-327.11"/>
</g>
<!-- Node33 -->
<g id="node33" class="node"><title>Node33</title>
<g id="a_node33"><a xlink:href="scape_8c.html" target="_top" xlink:title="implementation of scapes ">
<polygon fill="white" stroke="black" points="1194,-280.5 1194,-299.5 1262,-299.5 1262,-280.5 1194,-280.5"/>
<text text-anchor="middle" x="1228" y="-287.5" font-family="Helvetica,sans-Serif" font-size="10.00">src/scape.c</text>
</a>
</g>
</g>
<!-- Node1&#45;&gt;Node33 -->
<g id="edge58" class="edge"><title>Node1&#45;&gt;Node33</title>
<path fill="none" stroke="midnightblue" d="M1168.57,-330.622C1183.36,-320.757 1202.51,-307.992 1215.02,-299.655"/>
<polygon fill="midnightblue" stroke="midnightblue" points="1166.39,-327.865 1160.01,-336.324 1170.28,-333.689 1166.39,-327.865"/>
</g>
<!-- Node3 -->
<g id="node3" class="node"><title>Node3</title>
<g id="a_node3"><a xlink:href="vmhost_8h.html" target="_top" xlink:title="vmhost implementation header file ">
<polygon fill="white" stroke="black" points="615,-224.5 615,-243.5 689,-243.5 689,-224.5 615,-224.5"/>
<text text-anchor="middle" x="652" y="-231.5" font-family="Helvetica,sans-Serif" font-size="10.00">src/vmhost.h</text>
</a>
</g>
</g>
<!-- Node2&#45;&gt;Node3 -->
<g id="edge2" class="edge"><title>Node2&#45;&gt;Node3</title>
<path fill="none" stroke="midnightblue" d="M673.496,-271.275C668.027,-262.045 661.582,-251.17 657.186,-243.751"/>
<polygon fill="midnightblue" stroke="midnightblue" points="670.607,-273.264 678.716,-280.083 676.629,-269.696 670.607,-273.264"/>
</g>
<!-- Node5 -->
<g id="node5" class="node"><title>Node5</title>
<g id="a_node5"><a xlink:href="accumulator_8c.html" target="_top" xlink:title="implementation file for accumulator ">
<polygon fill="white" stroke="black" points="1205.5,-112.5 1205.5,-131.5 1300.5,-131.5 1300.5,-112.5 1205.5,-112.5"/>
<text text-anchor="middle" x="1253" y="-119.5" font-family="Helvetica,sans-Serif" font-size="10.00">src/accumulator.c</text>
</a>
</g>
</g>
<!-- Node2&#45;&gt;Node5 -->
<g id="edge25" class="edge"><title>Node2&#45;&gt;Node5</title>
<path fill="none" stroke="midnightblue" d="M712.775,-276.168C779.317,-246.564 940.13,-175.447 966,-168 1065.43,-139.377 1093.79,-148.068 1196,-132 1199.07,-131.518 1202.23,-131.02 1205.42,-130.518"/>
<polygon fill="midnightblue" stroke="midnightblue" points="711.016,-273.12 703.304,-280.384 713.863,-279.515 711.016,-273.12"/>
</g>
<!-- Node11 -->
<g id="node11" class="node"><title>Node11</title>
<g id="a_node11"><a xlink:href="process_8c.html" target="_top" xlink:title="implementation of ceptr processing: instructions and run tree reduction ">
<polygon fill="white" stroke="black" points="732,-112.5 732,-131.5 808,-131.5 808,-112.5 732,-112.5"/>
<text text-anchor="middle" x="770" y="-119.5" font-family="Helvetica,sans-Serif" font-size="10.00">src/process.c</text>
</a>
</g>
</g>
<!-- Node2&#45;&gt;Node11 -->
<g id="edge33" class="edge"><title>Node2&#45;&gt;Node11</title>
<path fill="none" stroke="midnightblue" d="M693.4,-270.856C711.845,-235.252 752.151,-157.453 765.561,-131.568"/>
<polygon fill="midnightblue" stroke="midnightblue" points="690.116,-269.586 688.624,-280.075 696.332,-272.806 690.116,-269.586"/>
</g>
<!-- Node12 -->
<g id="node12" class="node"><title>Node12</title>
<g id="a_node12"><a xlink:href="receptor_8c.html" target="_top" xlink:title="receptor implementation ">
<polygon fill="white" stroke="black" points="826.5,-112.5 826.5,-131.5 903.5,-131.5 903.5,-112.5 826.5,-112.5"/>
<text text-anchor="middle" x="865" y="-119.5" font-family="Helvetica,sans-Serif" font-size="10.00">src/receptor.c</text>
</a>
</g>
</g>
<!-- Node2&#45;&gt;Node12 -->
<g id="edge34" class="edge"><title>Node2&#45;&gt;Node12</title>
<path fill="none" stroke="midnightblue" d="M699.173,-272.739C725.964,-244.147 780.819,-186.172 802,-168 818.118,-154.172 838.338,-140.271 851.457,-131.655"/>
<polygon fill="midnightblue" stroke="midnightblue" points="696.393,-270.587 692.119,-280.281 701.506,-275.369 696.393,-270.587"/>
</g>
<!-- Node18 -->
<g id="node18" class="node"><title>Node18</title>
<g id="a_node18"><a xlink:href="receptor__spec_8h.html" target="_top" xlink:title="spec/receptor_spec.h">
<polygon fill="white" stroke="black" points="266,-112.5 266,-131.5 376,-131.5 376,-112.5 266,-112.5"/>
<text text-anchor="middle" x="321" y="-119.5" font-family="Helvetica,sans-Serif" font-size="10.00">spec/receptor_spec.h</text>
</a>
</g>
</g>
<!-- Node2&#45;&gt;Node18 -->
<g id="edge53" class="edge"><title>Node2&#45;&gt;Node18</title>
<path fill="none" stroke="midnightblue" d="M635.05,-288.755C579.576,-286.709 487.692,-277.87 417,-244 383.215,-227.813 376.879,-217.665 354,-188 339.933,-169.761 329.188,-144.602 324.152,-131.582"/>
<polygon fill="midnightblue" stroke="midnightblue" points="635.203,-292.262 645.306,-289.071 635.419,-285.265 635.203,-292.262"/>
</g>
<!-- Node20 -->
<g id="node20" class="node"><title>Node20</title>
<g id="a_node20"><a xlink:href="base__defs_8c.html" target="_top" xlink:title="auto&#45;generated system definitions ">
<polygon fill="white" stroke="black" points="261,-224.5 261,-243.5 347,-243.5 347,-224.5 261,-224.5"/>
<text text-anchor="middle" x="304" y="-231.5" font-family="Helvetica,sans-Serif" font-size="10.00">src/base_defs.c</text>
</a>
</g>
</g>
<!-- Node2&#45;&gt;Node20 -->
<g id="edge26" class="edge"><title>Node2&#45;&gt;Node20</title>
<path fill="none" stroke="midnightblue" d="M635.094,-282.468C571.79,-273.949 458.081,-258.426 361,-244 356.541,-243.337 351.888,-242.63 347.247,-241.913"/>
<polygon fill="midnightblue" stroke="midnightblue" points="634.809,-285.961 645.186,-283.824 635.742,-279.024 634.809,-285.961"/>
</g>
<!-- Node21 -->
<g id="node21" class="node"><title>Node21</title>
<g id="a_node21"><a xlink:href="protocol_8h.html" target="_top" xlink:title="protocol helpers header file ">
<polygon fill="white" stroke="black" points="508,-112.5 508,-131.5 584,-131.5 584,-112.5 508,-112.5"/>
<text text-anchor="middle" x="546" y="-119.5" font-family="Helvetica,sans-Serif" font-size="10.00">src/protocol.h</text>
</a>
</g>
</g>
<!-- Node2&#45;&gt;Node21 -->
<g id="edge27" class="edge"><title>Node2&#45;&gt;Node21</title>
<path fill="none" stroke="midnightblue" d="M652.571,-276.144C637.054,-268.581 618.939,-257.78 606,-244 573.258,-209.129 554.598,-152.998 548.368,-131.633"/>
<polygon fill="midnightblue" stroke="midnightblue" points="651.281,-279.404 661.826,-280.431 654.224,-273.052 651.281,-279.404"/>
</g>
<!-- Node23 -->
<g id="node23" class="node"><title>Node23</title>
<g id="a_node23"><a xlink:href="sys__defs_8c.html" target="_top" xlink:title="definition of system semantic elements for bootstrapping ">
<polygon fill="white" stroke="black" points="426.5,-224.5 426.5,-243.5 507.5,-243.5 507.5,-224.5 426.5,-224.5"/>
<text text-anchor="middle" x="467" y="-231.5" font-family="Helvetica,sans-Serif" font-size="10.00">src/sys_defs.c</text>
</a>
</g>
</g>
<!-- Node2&#45;&gt;Node23 -->
<g id="edge35" class="edge"><title>Node2&#45;&gt;Node23</title>
<path fill="none" stroke="midnightblue" d="M639.892,-278.024C598.9,-267.823 538.696,-252.841 501.223,-243.516"/>
<polygon fill="midnightblue" stroke="midnightblue" points="639.066,-281.425 649.616,-280.444 640.757,-274.632 639.066,-281.425"/>
</g>
<!-- Node2&#45;&gt;Node24 -->
<g id="edge36" class="edge"><title>Node2&#45;&gt;Node24</title>
<path fill="none" stroke="midnightblue" d="M732.917,-286.862C823.148,-282.423 1021.68,-270.342 1187,-244 1190.16,-243.497 1193.44,-242.884 1196.7,-242.217"/>
<polygon fill="midnightblue" stroke="midnightblue" points="732.537,-283.376 722.717,-287.354 732.874,-290.368 732.537,-283.376"/>
</g>
<!-- Node25 -->
<g id="node25" class="node"><title>Node25</title>
<g id="a_node25"><a xlink:href="semtable__spec_8h.html" target="_top" xlink:title="spec/semtable_spec.h">
<polygon fill="white" stroke="black" points="1157.5,-168.5 1157.5,-187.5 1272.5,-187.5 1272.5,-168.5 1157.5,-168.5"/>
<text text-anchor="middle" x="1215" y="-175.5" font-family="Helvetica,sans-Serif" font-size="10.00">spec/semtable_spec.h</text>
</a>
</g>
</g>
<!-- Node2&#45;&gt;Node25 -->
<g id="edge37" class="edge"><title>Node2&#45;&gt;Node25</title>
<path fill="none" stroke="midnightblue" d="M732.986,-284.552C792.178,-278.493 894.477,-265.821 980,-244 1005.2,-237.569 1010.13,-231.609 1035,-224 1083.05,-209.3 1139.38,-195.806 1176.06,-187.506"/>
<polygon fill="midnightblue" stroke="midnightblue" points="732.405,-281.093 722.804,-285.573 733.103,-288.058 732.405,-281.093"/>
</g>
<!-- Node26 -->
<g id="node26" class="node"><title>Node26</title>
<g id="a_node26"><a xlink:href="def__spec_8h.html" target="_top" xlink:title="spec/def_spec.h">
<polygon fill="white" stroke="black" points="1313.5,-168.5 1313.5,-187.5 1402.5,-187.5 1402.5,-168.5 1313.5,-168.5"/>
<text text-anchor="middle" x="1358" y="-175.5" font-family="Helvetica,sans-Serif" font-size="10.00">spec/def_spec.h</text>
</a>
</g>
</g>
<!-- Node2&#45;&gt;Node26 -->
<g id="edge39" class="edge"><title>Node2&#45;&gt;Node26</title>
<path fill="none" stroke="midnightblue" d="M732.895,-286.747C799.394,-282.726 921.575,-271.928 1022,-244 1043.48,-238.027 1046.59,-230.204 1068,-224 1113.14,-210.919 1243.85,-193.319 1313.34,-184.509"/>
<polygon fill="midnightblue" stroke="midnightblue" points="732.493,-283.264 722.712,-287.335 732.897,-290.252 732.493,-283.264"/>
</g>
<!-- Node27 -->
<g id="node27" class="node"><title>Node27</title>
<g id="a_node27"><a xlink:href="tree__spec_8h.html" target="_top" xlink:title="spec/tree_spec.h">
<polygon fill="white" stroke="black" points="0,-112.5 0,-131.5 92,-131.5 92,-112.5 0,-112.5"/>
<text text-anchor="middle" x="46" y="-119.5" font-family="Helvetica,sans-Serif" font-size="10.00">spec/tree_spec.h</text>
</a>
</g>
</g>
<!-- Node2&#45;&gt;Node27 -->
<g id="edge41" class="edge"><title>Node2&#45;&gt;Node27</title>
<path fill="none" stroke="midnightblue" d="M635.178,-287.162C527.091,-282.674 270.627,-269.603 188,-244 139.344,-228.923 125.139,-222.864 88,-188 69.976,-171.08 56.1642,-144.904 49.8208,-131.518"/>
<polygon fill="midnightblue" stroke="midnightblue" points="635.336,-290.671 645.471,-287.582 635.622,-283.677 635.336,-290.671"/>
</g>
<!-- Node28 -->
<g id="node28" class="node"><title>Node28</title>
<g id="a_node28"><a xlink:href="http__example_8h.html" target="_top" xlink:title="spec/http_example.h">
<polygon fill="white" stroke="black" points="97.5,-168.5 97.5,-187.5 204.5,-187.5 204.5,-168.5 97.5,-168.5"/>
<text text-anchor="middle" x="151" y="-175.5" font-family="Helvetica,sans-Serif" font-size="10.00">spec/http_example.h</text>
</a>
</g>
</g>
<!-- Node2&#45;&gt;Node28 -->
<g id="edge43" class="edge"><title>Node2&#45;&gt;Node28</title>
<path fill="none" stroke="midnightblue" d="M635.135,-288.282C531.29,-286.113 292.157,-277.521 219,-244 191.088,-231.21 167.499,-202.151 156.936,-187.615"/>
<polygon fill="midnightblue" stroke="midnightblue" points="635.276,-291.785 645.344,-288.484 635.415,-284.787 635.276,-291.785"/>
</g>
<!-- Node29 -->
<g id="node29" class="node"><title>Node29</title>
<g id="a_node29"><a xlink:href="mtree__spec_8h.html" target="_top" xlink:title="spec/mtree_spec.h">
<polygon fill="white" stroke="black" points="148,-112.5 148,-131.5 248,-131.5 248,-112.5 148,-112.5"/>
<text text-anchor="middle" x="198" y="-119.5" font-family="Helvetica,sans-Serif" font-size="10.00">spec/mtree_spec.h</text>
</a>
</g>
</g>
<!-- Node2&#45;&gt;Node29 -->
<g id="edge50" class="edge"><title>Node2&#45;&gt;Node29</title>
<path fill="none" stroke="midnightblue" d="M635.361,-289.879C535.599,-290.747 312.137,-287.609 252,-244 242.13,-236.843 211.574,-158.559 201.363,-131.86"/>
<polygon fill="midnightblue" stroke="midnightblue" points="635.513,-293.378 645.476,-289.773 635.44,-286.378 635.513,-293.378"/>
</g>
<!-- Node30 -->
<g id="node30" class="node"><title>Node30</title>
<g id="a_node30"><a xlink:href="semtrex__spec_8h.html" target="_top" xlink:title="spec/semtrex_spec.h">
<polygon fill="white" stroke="black" points="392,-168.5 392,-187.5 502,-187.5 502,-168.5 392,-168.5"/>
<text text-anchor="middle" x="447" y="-175.5" font-family="Helvetica,sans-Serif" font-size="10.00">spec/semtrex_spec.h</text>
</a>
</g>
</g>
<!-- Node2&#45;&gt;Node30 -->
<g id="edge51" class="edge"><title>Node2&#45;&gt;Node30</title>
<path fill="none" stroke="midnightblue" d="M646.55,-277.302C621.588,-269.047 588.293,-257.149 560,-244 522.441,-226.544 480.837,-200.83 460.163,-187.584"/>
<polygon fill="midnightblue" stroke="midnightblue" points="645.766,-280.727 656.358,-280.5 647.936,-274.072 645.766,-280.727"/>
</g>
<!-- Node2&#45;&gt;Node31 -->
<g id="edge54" class="edge"><title>Node2&#45;&gt;Node31</title>
<path fill="none" stroke="midnightblue" d="M732.929,-283.498C805.173,-275.304 944.612,-259.223 1063,-244 1067.63,-243.404 1072.45,-242.769 1077.27,-242.121"/>
<polygon fill="midnightblue" stroke="midnightblue" points="732.311,-280.045 722.768,-284.648 733.099,-287.001 732.311,-280.045"/>
</g>
<!-- Node32 -->
<g id="node32" class="node"><title>Node32</title>
<g id="a_node32"><a xlink:href="profile__example_8h.html" target="_top" xlink:title="spec/profile_example.h">
<polygon fill="white" stroke="black" points="975.5,-168.5 975.5,-187.5 1092.5,-187.5 1092.5,-168.5 975.5,-168.5"/>
<text text-anchor="middle" x="1034" y="-175.5" font-family="Helvetica,sans-Serif" font-size="10.00">spec/profile_example.h</text>
</a>
</g>
</g>
<!-- Node2&#45;&gt;Node32 -->
<g id="edge56" class="edge"><title>Node2&#45;&gt;Node32</title>
<path fill="none" stroke="midnightblue" d="M733.078,-287.678C787.836,-284.637 878.051,-274.881 949,-244 980.683,-230.21 1011.2,-202.146 1025.52,-187.829"/>
<polygon fill="midnightblue" stroke="midnightblue" points="732.759,-284.19 722.947,-288.186 733.11,-291.181 732.759,-284.19"/>
</g>
<!-- Node4 -->
<g id="node4" class="node"><title>Node4</title>
<g id="a_node4"><a xlink:href="accumulator_8h.html" target="_top" xlink:title="header file for the accumulator ">
<polygon fill="white" stroke="black" points="811.5,-168.5 811.5,-187.5 906.5,-187.5 906.5,-168.5 811.5,-168.5"/>
<text text-anchor="middle" x="859" y="-175.5" font-family="Helvetica,sans-Serif" font-size="10.00">src/accumulator.h</text>
</a>
</g>
</g>
<!-- Node3&#45;&gt;Node4 -->
<g id="edge3" class="edge"><title>Node3&#45;&gt;Node4</title>
<path fill="none" stroke="midnightblue" d="M694.822,-221.829C733.906,-211.633 790.835,-196.782 826.354,-187.516"/>
<polygon fill="midnightblue" stroke="midnightblue" points="693.592,-218.533 684.8,-224.444 695.359,-225.306 693.592,-218.533"/>
</g>
<!-- Node15 -->
<g id="node15" class="node"><title>Node15</title>
<g id="a_node15"><a xlink:href="vmhost__spec_8h.html" target="_top" xlink:title="spec/vmhost_spec.h">
<polygon fill="white" stroke="black" points="654.5,-56.5 654.5,-75.5 761.5,-75.5 761.5,-56.5 654.5,-56.5"/>
<text text-anchor="middle" x="708" y="-63.5" font-family="Helvetica,sans-Serif" font-size="10.00">spec/vmhost_spec.h</text>
</a>
</g>
</g>
<!-- Node3&#45;&gt;Node15 -->
<g id="edge24" class="edge"><title>Node3&#45;&gt;Node15</title>
<path fill="none" stroke="midnightblue" d="M642.166,-215.488C629.725,-190.772 612.067,-144.994 631,-112 641.404,-93.8701 662.248,-82.3475 679.628,-75.5053"/>
<polygon fill="midnightblue" stroke="midnightblue" points="639.124,-217.222 646.902,-224.416 645.308,-213.941 639.124,-217.222"/>
</g>
<!-- Node16 -->
<g id="node16" class="node"><title>Node16</title>
<g id="a_node16"><a xlink:href="vmhost_8c.html" target="_top" xlink:title="virtual machine host receptor implementation ">
<polygon fill="white" stroke="black" points="640,-112.5 640,-131.5 714,-131.5 714,-112.5 640,-112.5"/>
<text text-anchor="middle" x="677" y="-119.5" font-family="Helvetica,sans-Serif" font-size="10.00">src/vmhost.c</text>
</a>
</g>
</g>
<!-- Node3&#45;&gt;Node16 -->
<g id="edge22" class="edge"><title>Node3&#45;&gt;Node16</title>
<path fill="none" stroke="midnightblue" d="M656.239,-214.348C661.715,-190.254 671.021,-149.308 675.047,-131.591"/>
<polygon fill="midnightblue" stroke="midnightblue" points="652.765,-213.841 653.962,-224.368 659.591,-215.393 652.765,-213.841"/>
</g>
<!-- Node3&#45;&gt;Node18 -->
<g id="edge23" class="edge"><title>Node3&#45;&gt;Node18</title>
<path fill="none" stroke="midnightblue" d="M604.507,-228.694C537.875,-222.04 420.578,-207.917 383,-188 357.371,-174.416 336.255,-146.258 326.623,-131.875"/>
<polygon fill="midnightblue" stroke="midnightblue" points="604.453,-232.205 614.746,-229.697 605.135,-225.238 604.453,-232.205"/>
</g>
<!-- Node19 -->
<g id="node19" class="node"><title>Node19</title>
<g id="a_node19"><a xlink:href="protocol_8c.html" target="_top" xlink:title="implementation of protocol helpers ">
<polygon fill="white" stroke="black" points="432,-56.5 432,-75.5 508,-75.5 508,-56.5 432,-56.5"/>
<text text-anchor="middle" x="470" y="-63.5" font-family="Helvetica,sans-Serif" font-size="10.00">src/protocol.c</text>
</a>
</g>
</g>
<!-- Node3&#45;&gt;Node19 -->
<g id="edge21" class="edge"><title>Node3&#45;&gt;Node19</title>
<path fill="none" stroke="midnightblue" d="M622.955,-220.098C589.219,-203.836 533.761,-172.979 499,-132 484.452,-114.85 475.932,-89.2319 472.222,-75.8546"/>
<polygon fill="midnightblue" stroke="midnightblue" points="621.732,-223.391 632.27,-224.483 624.713,-217.057 621.732,-223.391"/>
</g>
<!-- Node4&#45;&gt;Node5 -->
<g id="edge4" class="edge"><title>Node4&#45;&gt;Node5</title>
<path fill="none" stroke="midnightblue" d="M917.049,-168.548C918.379,-168.363 919.697,-168.18 921,-168 1043.11,-151.146 1074,-149.614 1196,-132 1199.07,-131.556 1202.24,-131.088 1205.43,-130.608"/>
<polygon fill="midnightblue" stroke="midnightblue" points="916.131,-165.143 906.718,-170.005 917.109,-172.074 916.131,-165.143"/>
</g>
<!-- Node6 -->
<g id="node6" class="node"><title>Node6</title>
<g id="a_node6"><a xlink:href="ceptr_8c.html" target="_top" xlink:title="implements main() entry point for the ceptr node ">
<polygon fill="white" stroke="black" points="1124.5,-112.5 1124.5,-131.5 1187.5,-131.5 1187.5,-112.5 1124.5,-112.5"/>
<text text-anchor="middle" x="1156" y="-119.5" font-family="Helvetica,sans-Serif" font-size="10.00">src/ceptr.c</text>
</a>
</g>
</g>
<!-- Node4&#45;&gt;Node6 -->
<g id="edge5" class="edge"><title>Node4&#45;&gt;Node6</title>
<path fill="none" stroke="midnightblue" d="M916.843,-166.897C967.747,-157.943 1043.85,-144.4 1110,-132 1114.64,-131.13 1119.54,-130.193 1124.34,-129.263"/>
<polygon fill="midnightblue" stroke="midnightblue" points="915.936,-163.503 906.692,-168.681 917.147,-170.397 915.936,-163.503"/>
</g>
<!-- Node7 -->
<g id="node7" class="node"><title>Node7</title>
<g id="a_node7"><a xlink:href="group_8h.html" target="_top" xlink:title="group communication receptors header file ">
<polygon fill="white" stroke="black" points="1002.5,-112.5 1002.5,-131.5 1067.5,-131.5 1067.5,-112.5 1002.5,-112.5"/>
<text text-anchor="middle" x="1035" y="-119.5" font-family="Helvetica,sans-Serif" font-size="10.00">src/group.h</text>
</a>
</g>
</g>
<!-- Node4&#45;&gt;Node7 -->
<g id="edge6" class="edge"><title>Node4&#45;&gt;Node7</title>
<path fill="none" stroke="midnightblue" d="M896.689,-165.436C929.872,-155.255 977.428,-140.664 1007.24,-131.516"/>
<polygon fill="midnightblue" stroke="midnightblue" points="895.421,-162.164 886.888,-168.444 897.475,-168.856 895.421,-162.164"/>
</g>
<!-- Node4&#45;&gt;Node11 -->
<g id="edge10" class="edge"><title>Node4&#45;&gt;Node11</title>
<path fill="none" stroke="midnightblue" d="M835.762,-162.901C819.442,-152.999 798.135,-140.071 784.264,-131.655"/>
<polygon fill="midnightblue" stroke="midnightblue" points="834.336,-166.129 844.701,-168.324 837.967,-160.144 834.336,-166.129"/>
</g>
<!-- Node4&#45;&gt;Node12 -->
<g id="edge11" class="edge"><title>Node4&#45;&gt;Node12</title>
<path fill="none" stroke="midnightblue" d="M861.1,-158.101C862.096,-149.136 863.238,-138.858 864.028,-131.751"/>
<polygon fill="midnightblue" stroke="midnightblue" points="857.617,-157.758 859.991,-168.083 864.574,-158.531 857.617,-157.758"/>
</g>
<!-- Node13 -->
<g id="node13" class="node"><title>Node13</title>
<g id="a_node13"><a xlink:href="shell_8h.html" target="_top" xlink:title="command line shell receptor header files ">
<polygon fill="white" stroke="black" points="922,-112.5 922,-131.5 984,-131.5 984,-112.5 922,-112.5"/>
<text text-anchor="middle" x="953" y="-119.5" font-family="Helvetica,sans-Serif" font-size="10.00">src/shell.h</text>
</a>
</g>
</g>
<!-- Node4&#45;&gt;Node13 -->
<g id="edge12" class="edge"><title>Node4&#45;&gt;Node13</title>
<path fill="none" stroke="midnightblue" d="M883.062,-163.177C900.359,-153.241 923.148,-140.149 937.935,-131.655"/>
<polygon fill="midnightblue" stroke="midnightblue" points="881.03,-160.308 874.103,-168.324 884.517,-166.378 881.03,-160.308"/>
</g>
<!-- Node4&#45;&gt;Node16 -->
<g id="edge16" class="edge"><title>Node4&#45;&gt;Node16</title>
<path fill="none" stroke="midnightblue" d="M820.469,-165.568C786.136,-155.381 736.667,-140.703 705.704,-131.516"/>
<polygon fill="midnightblue" stroke="midnightblue" points="819.579,-168.954 830.162,-168.444 821.57,-162.244 819.579,-168.954"/>
</g>
<!-- Node17 -->
<g id="node17" class="node"><title>Node17</title>
<g id="a_node17"><a xlink:href="accumulator__spec_8h_source.html" target="_top" xlink:title="spec/accumulator_spec.h">
<polygon fill="white" stroke="black" points="1061,-56.5 1061,-75.5 1189,-75.5 1189,-56.5 1061,-56.5"/>
<text text-anchor="middle" x="1125" y="-63.5" font-family="Helvetica,sans-Serif" font-size="10.00">spec/accumulator_spec.h</text>
</a>
</g>
</g>
<!-- Node4&#45;&gt;Node17 -->
<g id="edge17" class="edge"><title>Node4&#45;&gt;Node17</title>
<path fill="none" stroke="midnightblue" d="M916.73,-167.195C976.367,-156.723 1062.6,-140.491 1076,-132 1098.21,-117.934 1114.01,-89.9946 1120.99,-75.7669"/>
<polygon fill="midnightblue" stroke="midnightblue" points="915.915,-163.785 906.666,-168.952 917.119,-170.68 915.915,-163.785"/>
</g>
<!-- Node4&#45;&gt;Node18 -->
<g id="edge19" class="edge"><title>Node4&#45;&gt;Node18</title>
<path fill="none" stroke="midnightblue" d="M801.225,-171.201C696.933,-160.733 478.565,-138.815 376.19,-128.54"/>
<polygon fill="midnightblue" stroke="midnightblue" points="800.957,-174.692 811.256,-172.208 801.656,-167.727 800.957,-174.692"/>
</g>
<!-- Node8 -->
<g id="node8" class="node"><title>Node8</title>
<g id="a_node8"><a xlink:href="group_8c.html" target="_top" xlink:title="implementation of some group communication receptors ">
<polygon fill="white" stroke="black" points="779.5,-56.5 779.5,-75.5 844.5,-75.5 844.5,-56.5 779.5,-56.5"/>
<text text-anchor="middle" x="812" y="-63.5" font-family="Helvetica,sans-Serif" font-size="10.00">src/group.c</text>
</a>
</g>
</g>
<!-- Node7&#45;&gt;Node8 -->
<g id="edge7" class="edge"><title>Node7&#45;&gt;Node8</title>
<path fill="none" stroke="midnightblue" d="M992.199,-110.636C949.152,-100.212 883.718,-84.3668 844.676,-74.9126"/>
<polygon fill="midnightblue" stroke="midnightblue" points="991.553,-114.08 1002.1,-113.032 993.2,-107.277 991.553,-114.08"/>
</g>
<!-- Node9 -->
<g id="node9" class="node"><title>Node9</title>
<g id="a_node9"><a xlink:href="group__spec_8h.html" target="_top" xlink:title="spec/group_spec.h">
<polygon fill="white" stroke="black" points="943.5,-56.5 943.5,-75.5 1042.5,-75.5 1042.5,-56.5 943.5,-56.5"/>
<text text-anchor="middle" x="993" y="-63.5" font-family="Helvetica,sans-Serif" font-size="10.00">spec/group_spec.h</text>
</a>
</g>
</g>
<!-- Node7&#45;&gt;Node9 -->
<g id="edge8" class="edge"><title>Node7&#45;&gt;Node9</title>
<path fill="none" stroke="midnightblue" d="M1021.89,-104.144C1014.57,-94.7357 1005.76,-83.4046 999.806,-75.7511"/>
<polygon fill="midnightblue" stroke="midnightblue" points="1019.16,-106.338 1028.06,-112.083 1024.69,-102.041 1019.16,-106.338"/>
</g>
<!-- Node10 -->
<g id="node10" class="node"><title>Node10</title>
<g id="a_node10"><a xlink:href="ceptr__specs_8c.html" target="_top" xlink:title="implements a main() entry point for running all the tests ">
<polygon fill="white" stroke="black" points="657,-0.5 657,-19.5 759,-19.5 759,-0.5 657,-0.5"/>
<text text-anchor="middle" x="708" y="-7.5" font-family="Helvetica,sans-Serif" font-size="10.00">spec/ceptr_specs.c</text>
</a>
</g>
</g>
<!-- Node9&#45;&gt;Node10 -->
<g id="edge9" class="edge"><title>Node9&#45;&gt;Node10</title>
<path fill="none" stroke="midnightblue" d="M937.779,-54.5371C883.917,-44.3316 802.996,-28.9992 752.948,-19.5164"/>
<polygon fill="midnightblue" stroke="midnightblue" points="937.364,-58.0207 947.841,-56.4435 938.667,-51.143 937.364,-58.0207"/>
</g>
<!-- Node14 -->
<g id="node14" class="node"><title>Node14</title>
<g id="a_node14"><a xlink:href="shell_8c.html" target="_top" xlink:title="implementation of a command line shell receptor ">
<polygon fill="white" stroke="black" points="863,-56.5 863,-75.5 925,-75.5 925,-56.5 863,-56.5"/>
<text text-anchor="middle" x="894" y="-63.5" font-family="Helvetica,sans-Serif" font-size="10.00">src/shell.c</text>
</a>
</g>
</g>
<!-- Node13&#45;&gt;Node14 -->
<g id="edge13" class="edge"><title>Node13&#45;&gt;Node14</title>
<path fill="none" stroke="midnightblue" d="M936.105,-105.537C925.585,-95.9087 912.431,-83.8694 903.652,-75.8339"/>
<polygon fill="midnightblue" stroke="midnightblue" points="933.781,-108.154 943.521,-112.324 938.507,-102.99 933.781,-108.154"/>
</g>
<!-- Node13&#45;&gt;Node15 -->
<g id="edge14" class="edge"><title>Node13&#45;&gt;Node15</title>
<path fill="none" stroke="midnightblue" d="M912.041,-111.972C866.046,-101.835 791.954,-85.5041 746.842,-75.5611"/>
<polygon fill="midnightblue" stroke="midnightblue" points="911.452,-115.426 921.971,-114.161 912.958,-108.59 911.452,-115.426"/>
</g>
<!-- Node15&#45;&gt;Node10 -->
<g id="edge15" class="edge"><title>Node15&#45;&gt;Node10</title>
<path fill="none" stroke="midnightblue" d="M708,-45.8045C708,-36.9102 708,-26.7798 708,-19.7511"/>
<polygon fill="midnightblue" stroke="midnightblue" points="704.5,-46.083 708,-56.083 711.5,-46.083 704.5,-46.083"/>
</g>
<!-- Node17&#45;&gt;Node10 -->
<g id="edge18" class="edge"><title>Node17&#45;&gt;Node10</title>
<path fill="none" stroke="midnightblue" d="M1050.77,-55.3879C966.783,-44.5115 832.203,-27.0839 759.167,-17.6259"/>
<polygon fill="midnightblue" stroke="midnightblue" points="1050.39,-58.8675 1060.76,-56.6808 1051.29,-51.9255 1050.39,-58.8675"/>
</g>
<!-- Node18&#45;&gt;Node10 -->
<g id="edge20" class="edge"><title>Node18&#45;&gt;Node10</title>
<path fill="none" stroke="midnightblue" d="M333.893,-103.934C346.436,-88.683 366.937,-67.0856 390,-56 436.045,-33.8672 579.113,-20.3627 656.708,-14.4747"/>
<polygon fill="midnightblue" stroke="midnightblue" points="330.929,-102.039 327.467,-112.053 336.418,-106.383 330.929,-102.039"/>
</g>
<!-- Node21&#45;&gt;Node8 -->
<g id="edge28" class="edge"><title>Node21&#45;&gt;Node8</title>
<path fill="none" stroke="midnightblue" d="M593.938,-111.555C639.318,-102.569 709.34,-88.5918 770,-76 773.067,-75.3634 776.258,-74.6935 779.449,-74.0182"/>
<polygon fill="midnightblue" stroke="midnightblue" points="593.21,-108.131 584.079,-113.505 594.568,-114.998 593.21,-108.131"/>
</g>
<!-- Node21&#45;&gt;Node15 -->
<g id="edge30" class="edge"><title>Node21&#45;&gt;Node15</title>
<path fill="none" stroke="midnightblue" d="M581.484,-109.172C611.988,-99.0039 655.245,-84.5852 682.451,-75.5164"/>
<polygon fill="midnightblue" stroke="midnightblue" points="580.049,-105.961 571.669,-112.444 582.263,-112.602 580.049,-105.961"/>
</g>
<!-- Node21&#45;&gt;Node19 -->
<g id="edge29" class="edge"><title>Node21&#45;&gt;Node19</title>
<path fill="none" stroke="midnightblue" d="M525.424,-106.38C511.688,-96.6204 494.075,-84.1057 482.433,-75.8339"/>
<polygon fill="midnightblue" stroke="midnightblue" points="523.61,-109.385 533.789,-112.324 527.665,-103.679 523.61,-109.385"/>
</g>
<!-- Node22 -->
<g id="node22" class="node"><title>Node22</title>
<g id="a_node22"><a xlink:href="protocol__spec_8h.html" target="_top" xlink:title="spec/protocol_spec.h">
<polygon fill="white" stroke="black" points="526,-56.5 526,-75.5 636,-75.5 636,-56.5 526,-56.5"/>
<text text-anchor="middle" x="581" y="-63.5" font-family="Helvetica,sans-Serif" font-size="10.00">spec/protocol_spec.h</text>
</a>
</g>
</g>
<!-- Node21&#45;&gt;Node22 -->
<g id="edge31" class="edge"><title>Node21&#45;&gt;Node22</title>
<path fill="none" stroke="midnightblue" d="M557.3,-103.566C563.322,-94.2747 570.469,-83.2484 575.328,-75.7511"/>
<polygon fill="midnightblue" stroke="midnightblue" points="554.281,-101.788 551.78,-112.083 560.156,-105.595 554.281,-101.788"/>
</g>
<!-- Node22&#45;&gt;Node10 -->
<g id="edge32" class="edge"><title>Node22&#45;&gt;Node10</title>
<path fill="none" stroke="midnightblue" d="M610.391,-52.503C634.2,-42.3795 667.106,-28.388 687.971,-19.5164"/>
<polygon fill="midnightblue" stroke="midnightblue" points="608.957,-49.3096 601.124,-56.4435 611.696,-55.7515 608.957,-49.3096"/>
</g>
<!-- Node25&#45;&gt;Node10 -->
<g id="edge38" class="edge"><title>Node25&#45;&gt;Node10</title>
<path fill="none" stroke="midnightblue" d="M1277.86,-165.292C1296.13,-158.656 1314.08,-148.266 1325,-132 1355.47,-86.6098 1291.31,-70.4359 1255,-56 1165.68,-20.489 877.413,-13.0009 759.249,-11.4219"/>
<polygon fill="midnightblue" stroke="midnightblue" points="1276.72,-161.982 1268.32,-168.431 1278.91,-168.631 1276.72,-161.982"/>
</g>
<!-- Node26&#45;&gt;Node10 -->
<g id="edge40" class="edge"><title>Node26&#45;&gt;Node10</title>
<path fill="none" stroke="midnightblue" d="M1356.13,-158.128C1354.21,-144.683 1350.42,-126.499 1343,-112 1327.94,-82.5567 1323.57,-70.8095 1294,-56 1246.84,-32.3832 893.64,-17.562 759.485,-12.7334"/>
<polygon fill="midnightblue" stroke="midnightblue" points="1352.66,-158.613 1357.33,-168.122 1359.61,-157.776 1352.66,-158.613"/>
</g>
<!-- Node27&#45;&gt;Node10 -->
<g id="edge42" class="edge"><title>Node27&#45;&gt;Node10</title>
<path fill="none" stroke="midnightblue" d="M56.5008,-103.671C66.9365,-88.1906 84.4706,-66.3998 106,-56 154.955,-32.3521 520.055,-17.4753 656.637,-12.6871"/>
<polygon fill="midnightblue" stroke="midnightblue" points="53.3967,-102.028 50.9482,-112.336 59.2905,-105.805 53.3967,-102.028"/>
</g>
<!-- Node28&#45;&gt;Node10 -->
<g id="edge49" class="edge"><title>Node28&#45;&gt;Node10</title>
<path fill="none" stroke="midnightblue" d="M140.961,-159.02C134.628,-145.02 129.302,-125.726 139,-112 181.99,-51.1522 224.373,-72.61 297,-56 424.353,-26.8742 578.358,-16.4172 656.752,-12.8054"/>
<polygon fill="midnightblue" stroke="midnightblue" points="137.923,-160.769 145.551,-168.122 144.174,-157.617 137.923,-160.769"/>
</g>
<!-- Node28&#45;&gt;Node15 -->
<g id="edge48" class="edge"><title>Node28&#45;&gt;Node15</title>
<path fill="none" stroke="midnightblue" d="M205.941,-166.573C253.378,-157.536 323.738,-144.055 385,-132 486.024,-112.122 604.669,-88.0622 666.211,-75.5289"/>
<polygon fill="midnightblue" stroke="midnightblue" points="205.051,-163.179 195.882,-168.488 206.36,-170.056 205.051,-163.179"/>
</g>
<!-- Node28&#45;&gt;Node18 -->
<g id="edge47" class="edge"><title>Node28&#45;&gt;Node18</title>
<path fill="none" stroke="midnightblue" d="M187.819,-165.304C219.852,-155.129 265.515,-140.625 294.189,-131.516"/>
<polygon fill="midnightblue" stroke="midnightblue" points="186.408,-162.08 177.937,-168.444 188.527,-168.752 186.408,-162.08"/>
</g>
<!-- Node28&#45;&gt;Node27 -->
<g id="edge44" class="edge"><title>Node28&#45;&gt;Node27</title>
<path fill="none" stroke="midnightblue" d="M125.19,-163.726C105.747,-153.727 79.6516,-140.307 62.8282,-131.655"/>
<polygon fill="midnightblue" stroke="midnightblue" points="123.636,-166.863 134.13,-168.324 126.838,-160.638 123.636,-166.863"/>
</g>
<!-- Node28&#45;&gt;Node29 -->
<g id="edge45" class="edge"><title>Node28&#45;&gt;Node29</title>
<path fill="none" stroke="midnightblue" d="M165.421,-160.431C173.658,-150.967 183.654,-139.483 190.383,-131.751"/>
<polygon fill="midnightblue" stroke="midnightblue" points="162.686,-158.242 158.761,-168.083 167.966,-162.838 162.686,-158.242"/>
</g>
<!-- Node29&#45;&gt;Node10 -->
<g id="edge46" class="edge"><title>Node29&#45;&gt;Node10</title>
<path fill="none" stroke="midnightblue" d="M224.215,-107.981C255.507,-93.0191 309.794,-68.878 359,-56 462.723,-28.8542 588.253,-17.779 656.944,-13.4979"/>
<polygon fill="midnightblue" stroke="midnightblue" points="222.375,-104.983 214.899,-112.49 225.425,-111.283 222.375,-104.983"/>
</g>
<!-- Node30&#45;&gt;Node10 -->
<g id="edge52" class="edge"><title>Node30&#45;&gt;Node10</title>
<path fill="none" stroke="midnightblue" d="M435.74,-159.848C420.436,-134.17 397.71,-85.5964 423,-56 452.491,-21.4876 583.085,-13.2879 656.836,-11.442"/>
<polygon fill="midnightblue" stroke="midnightblue" points="432.863,-161.849 441.126,-168.481 438.802,-158.144 432.863,-161.849"/>
</g>
<!-- Node31&#45;&gt;Node10 -->
<g id="edge55" class="edge"><title>Node31&#45;&gt;Node10</title>
<path fill="none" stroke="midnightblue" d="M1188.54,-223.867C1271.13,-211.339 1409.19,-190.12 1411,-188 1416.77,-181.239 1413.93,-176.393 1411,-168 1390.05,-107.969 1378.21,-85.7117 1322,-56 1272.86,-30.0273 898.238,-16.5532 759.481,-12.4135"/>
<polygon fill="midnightblue" stroke="midnightblue" points="1187.87,-220.429 1178.51,-225.388 1188.92,-227.35 1187.87,-220.429"/>
</g>
<!-- Node32&#45;&gt;Node10 -->
<g id="edge57" class="edge"><title>Node32&#45;&gt;Node10</title>
<path fill="none" stroke="midnightblue" d="M1102.9,-170.36C1179.95,-162.225 1295.75,-147.591 1309,-132 1314.76,-125.226 1313.66,-119.57 1309,-112 1251.6,-18.7448 894.077,-10.2645 759.317,-10.4347"/>
<polygon fill="midnightblue" stroke="midnightblue" points="1102.35,-166.898 1092.77,-171.416 1103.08,-173.86 1102.35,-166.898"/>
</g>
</g>
</svg>
