<?xml version="1.0" encoding="UTF-8" standalone="no"?>
<!DOCTYPE svg PUBLIC "-//W3C//DTD SVG 1.1//EN"
 "http://www.w3.org/Graphics/SVG/1.1/DTD/svg11.dtd">
<!-- Generated by graphviz version 2.38.0 (20140413.2041)
 -->
<!-- Title: spec/scape_spec.h Pages: 1 -->
<svg width="701pt" height="476pt"
 viewBox="0.00 0.00 700.50 476.00" xmlns="http://www.w3.org/2000/svg" xmlns:xlink="http://www.w3.org/1999/xlink">
<g id="graph0" class="graph" transform="scale(1 1) rotate(0) translate(4 472)">
<title>spec/scape_spec.h</title>
<polygon fill="white" stroke="none" points="-4,4 -4,-472 696.5,-472 696.5,4 -4,4"/>
<!-- Node1 -->
<g id="node1" class="node"><title>Node1</title>
<polygon fill="#bfbfbf" stroke="black" points="283.5,-448.5 283.5,-467.5 384.5,-467.5 384.5,-448.5 283.5,-448.5"/>
<text text-anchor="middle" x="334" y="-455.5" font-family="Helvetica,sans-Serif" font-size="10.00">spec/scape_spec.h</text>
</g>
<!-- Node2 -->
<g id="node2" class="node"><title>Node2</title>
<g id="a_node2"><a xlink:href="ceptr_8h_source.html" target="_top" xlink:title="../src/ceptr.h">
<polygon fill="white" stroke="black" points="186,-336.5 186,-355.5 258,-355.5 258,-336.5 186,-336.5"/>
<text text-anchor="middle" x="222" y="-343.5" font-family="Helvetica,sans-Serif" font-size="10.00">../src/ceptr.h</text>
</a>
</g>
</g>
<!-- Node1&#45;&gt;Node2 -->
<g id="edge1" class="edge"><title>Node1&#45;&gt;Node2</title>
<path fill="none" stroke="midnightblue" d="M325.212,-448.368C306.401,-429.894 262.007,-386.293 238.03,-362.744"/>
<polygon fill="midnightblue" stroke="midnightblue" points="240.335,-360.101 230.748,-355.591 235.43,-365.096 240.335,-360.101"/>
</g>
<!-- Node19 -->
<g id="node19" class="node"><title>Node19</title>
<g id="a_node19"><a xlink:href="scape_8h.html" target="_top" xlink:title="scape header files ">
<polygon fill="white" stroke="black" points="295.5,-336.5 295.5,-355.5 372.5,-355.5 372.5,-336.5 295.5,-336.5"/>
<text text-anchor="middle" x="334" y="-343.5" font-family="Helvetica,sans-Serif" font-size="10.00">../src/scape.h</text>
</a>
</g>
</g>
<!-- Node1&#45;&gt;Node19 -->
<g id="edge27" class="edge"><title>Node1&#45;&gt;Node19</title>
<path fill="none" stroke="midnightblue" d="M334,-448.368C334,-430.617 334,-389.666 334,-365.597"/>
<polygon fill="midnightblue" stroke="midnightblue" points="337.5,-365.591 334,-355.591 330.5,-365.591 337.5,-365.591"/>
</g>
<!-- Node20 -->
<g id="node20" class="node"><title>Node20</title>
<g id="a_node20"><a xlink:href="receptor_8h.html" target="_top" xlink:title="receptor implementation header file ">
<polygon fill="white" stroke="black" points="389,-392.5 389,-411.5 475,-411.5 475,-392.5 389,-392.5"/>
<text text-anchor="middle" x="432" y="-399.5" font-family="Helvetica,sans-Serif" font-size="10.00">../src/receptor.h</text>
</a>
</g>
</g>
<!-- Node1&#45;&gt;Node20 -->
<g id="edge29" class="edge"><title>Node1&#45;&gt;Node20</title>
<path fill="none" stroke="midnightblue" d="M349.745,-448.324C365.319,-439.743 389.377,-426.486 407.459,-416.522"/>
<polygon fill="midnightblue" stroke="midnightblue" points="409.224,-419.546 416.294,-411.655 405.846,-413.415 409.224,-419.546"/>
</g>
<!-- Node3 -->
<g id="node3" class="node"><title>Node3</title>
<polygon fill="white" stroke="#bfbfbf" points="489.5,-0.5 489.5,-19.5 538.5,-19.5 538.5,-0.5 489.5,-0.5"/>
<text text-anchor="middle" x="514" y="-7.5" font-family="Helvetica,sans-Serif" font-size="10.00">string.h</text>
</g>
<!-- Node2&#45;&gt;Node3 -->
<g id="edge2" class="edge"><title>Node2&#45;&gt;Node3</title>
<path fill="none" stroke="midnightblue" d="M236.46,-336.442C261.901,-320.165 312,-282.129 312,-235 312,-235 312,-235 312,-177 312,-104.184 385.114,-122.679 441,-76 460.597,-59.6314 482.377,-40.049 497.003,-26.6857"/>
<polygon fill="midnightblue" stroke="midnightblue" points="499.715,-28.9471 504.717,-19.6075 494.982,-23.7892 499.715,-28.9471"/>
</g>
<!-- Node4 -->
<g id="node4" class="node"><title>Node4</title>
<polygon fill="white" stroke="#bfbfbf" points="28,-168.5 28,-187.5 74,-187.5 74,-168.5 28,-168.5"/>
<text text-anchor="middle" x="51" y="-175.5" font-family="Helvetica,sans-Serif" font-size="10.00">stdio.h</text>
</g>
<!-- Node2&#45;&gt;Node4 -->
<g id="edge3" class="edge"><title>Node2&#45;&gt;Node4</title>
<path fill="none" stroke="midnightblue" d="M212.806,-336.075C185.19,-309.267 102.702,-229.19 67.3636,-194.885"/>
<polygon fill="midnightblue" stroke="midnightblue" points="69.4393,-192.022 59.8262,-187.568 64.5635,-197.045 69.4393,-192.022"/>
</g>
<!-- Node5 -->
<g id="node5" class="node"><title>Node5</title>
<polygon fill="white" stroke="#bfbfbf" points="276,-0.5 276,-19.5 324,-19.5 324,-0.5 276,-0.5"/>
<text text-anchor="middle" x="300" y="-7.5" font-family="Helvetica,sans-Serif" font-size="10.00">stdlib.h</text>
</g>
<!-- Node2&#45;&gt;Node5 -->
<g id="edge4" class="edge"><title>Node2&#45;&gt;Node5</title>
<path fill="none" stroke="midnightblue" d="M185.838,-343.174C122.931,-337.843 0,-316.941 0,-235 0,-235 0,-235 0,-121 0,-64.8568 187.549,-28.7275 266.067,-16.0618"/>
<polygon fill="midnightblue" stroke="midnightblue" points="266.626,-19.517 275.957,-14.498 265.533,-12.6029 266.626,-19.517"/>
</g>
<!-- Node6 -->
<g id="node6" class="node"><title>Node6</title>
<g id="a_node6"><a xlink:href="ceptr__error_8h_source.html" target="_top" xlink:title="ceptr_error.h">
<polygon fill="white" stroke="black" points="155.5,-224.5 155.5,-243.5 226.5,-243.5 226.5,-224.5 155.5,-224.5"/>
<text text-anchor="middle" x="191" y="-231.5" font-family="Helvetica,sans-Serif" font-size="10.00">ceptr_error.h</text>
</a>
</g>
</g>
<!-- Node2&#45;&gt;Node6 -->
<g id="edge5" class="edge"><title>Node2&#45;&gt;Node6</title>
<path fill="none" stroke="midnightblue" d="M219.567,-336.368C214.542,-318.537 202.92,-277.295 196.149,-253.272"/>
<polygon fill="midnightblue" stroke="midnightblue" points="199.503,-252.267 193.421,-243.591 192.765,-254.166 199.503,-252.267"/>
</g>
<!-- Node10 -->
<g id="node10" class="node"><title>Node10</title>
<g id="a_node10"><a xlink:href="tree_8h.html" target="_top" xlink:title="semantic trees header file ">
<polygon fill="white" stroke="black" points="385.5,-280.5 385.5,-299.5 426.5,-299.5 426.5,-280.5 385.5,-280.5"/>
<text text-anchor="middle" x="406" y="-287.5" font-family="Helvetica,sans-Serif" font-size="10.00">tree.h</text>
</a>
</g>
</g>
<!-- Node2&#45;&gt;Node10 -->
<g id="edge10" class="edge"><title>Node2&#45;&gt;Node10</title>
<path fill="none" stroke="midnightblue" d="M251.155,-336.444C285.042,-326.499 340.718,-310.159 375.265,-300.02"/>
<polygon fill="midnightblue" stroke="midnightblue" points="376.651,-303.261 385.261,-297.086 374.68,-296.544 376.651,-303.261"/>
</g>
<!-- Node6&#45;&gt;Node4 -->
<g id="edge6" class="edge"><title>Node6&#45;&gt;Node4</title>
<path fill="none" stroke="midnightblue" d="M168.817,-224.444C145.572,-215.478 108.851,-201.314 82.5848,-191.183"/>
<polygon fill="midnightblue" stroke="midnightblue" points="83.6692,-187.85 73.0796,-187.516 81.1501,-194.381 83.6692,-187.85"/>
</g>
<!-- Node7 -->
<g id="node7" class="node"><title>Node7</title>
<polygon fill="white" stroke="#bfbfbf" points="92,-168.5 92,-187.5 142,-187.5 142,-168.5 92,-168.5"/>
<text text-anchor="middle" x="117" y="-175.5" font-family="Helvetica,sans-Serif" font-size="10.00">signal.h</text>
</g>
<!-- Node6&#45;&gt;Node7 -->
<g id="edge7" class="edge"><title>Node6&#45;&gt;Node7</title>
<path fill="none" stroke="midnightblue" d="M179.111,-224.324C167.85,-216.107 150.713,-203.602 137.291,-193.807"/>
<polygon fill="midnightblue" stroke="midnightblue" points="139.247,-190.901 129.106,-187.834 135.12,-196.556 139.247,-190.901"/>
</g>
<!-- Node8 -->
<g id="node8" class="node"><title>Node8</title>
<polygon fill="white" stroke="#bfbfbf" points="160,-168.5 160,-187.5 212,-187.5 212,-168.5 160,-168.5"/>
<text text-anchor="middle" x="186" y="-175.5" font-family="Helvetica,sans-Serif" font-size="10.00">assert.h</text>
</g>
<!-- Node6&#45;&gt;Node8 -->
<g id="edge8" class="edge"><title>Node6&#45;&gt;Node8</title>
<path fill="none" stroke="midnightblue" d="M190.174,-224.083C189.519,-217.006 188.58,-206.861 187.758,-197.986"/>
<polygon fill="midnightblue" stroke="midnightblue" points="191.217,-197.386 186.81,-187.751 184.247,-198.031 191.217,-197.386"/>
</g>
<!-- Node9 -->
<g id="node9" class="node"><title>Node9</title>
<polygon fill="white" stroke="#bfbfbf" points="230,-168.5 230,-187.5 284,-187.5 284,-168.5 230,-168.5"/>
<text text-anchor="middle" x="257" y="-175.5" font-family="Helvetica,sans-Serif" font-size="10.00">setjmp.h</text>
</g>
<!-- Node6&#45;&gt;Node9 -->
<g id="edge9" class="edge"><title>Node6&#45;&gt;Node9</title>
<path fill="none" stroke="midnightblue" d="M201.604,-224.324C211.456,-216.263 226.351,-204.077 238.215,-194.369"/>
<polygon fill="midnightblue" stroke="midnightblue" points="240.68,-196.875 246.203,-187.834 236.247,-191.457 240.68,-196.875"/>
</g>
<!-- Node10&#45;&gt;Node3 -->
<g id="edge11" class="edge"><title>Node10&#45;&gt;Node3</title>
<path fill="none" stroke="midnightblue" d="M426.563,-287.029C476.043,-281.963 600.151,-267.23 634,-244 662.162,-224.673 675,-213.156 675,-179 675,-179 675,-179 675,-121 675,-60.2889 595.986,-30.6554 548.664,-18.3518"/>
<polygon fill="midnightblue" stroke="midnightblue" points="549.351,-14.9163 538.803,-15.918 547.673,-21.7123 549.351,-14.9163"/>
</g>
<!-- Node10&#45;&gt;Node5 -->
<g id="edge12" class="edge"><title>Node10&#45;&gt;Node5</title>
<path fill="none" stroke="midnightblue" d="M397.977,-280.358C382.492,-262.738 350,-220.788 350,-179 350,-179 350,-179 350,-121 350,-85.1842 327.76,-48.214 312.945,-27.5601"/>
<polygon fill="midnightblue" stroke="midnightblue" points="315.735,-25.4456 306.952,-19.5193 310.122,-29.6289 315.735,-25.4456"/>
</g>
<!-- Node10&#45;&gt;Node6 -->
<g id="edge13" class="edge"><title>Node10&#45;&gt;Node6</title>
<path fill="none" stroke="midnightblue" d="M385.385,-283.822C350.892,-275.159 280.754,-257.543 234.838,-246.011"/>
<polygon fill="midnightblue" stroke="midnightblue" points="235.413,-242.546 224.862,-243.505 233.708,-249.335 235.413,-242.546"/>
</g>
<!-- Node11 -->
<g id="node11" class="node"><title>Node11</title>
<g id="a_node11"><a xlink:href="sys__symbols_8h.html" target="_top" xlink:title="Defines hard&#45;coded system defined symbols. ">
<polygon fill="white" stroke="black" points="525.5,-224.5 525.5,-243.5 608.5,-243.5 608.5,-224.5 525.5,-224.5"/>
<text text-anchor="middle" x="567" y="-231.5" font-family="Helvetica,sans-Serif" font-size="10.00">sys_symbols.h</text>
</a>
</g>
</g>
<!-- Node10&#45;&gt;Node11 -->
<g id="edge14" class="edge"><title>Node10&#45;&gt;Node11</title>
<path fill="none" stroke="midnightblue" d="M426.718,-282.051C453.234,-273.158 499.574,-257.615 531.702,-246.839"/>
<polygon fill="midnightblue" stroke="midnightblue" points="533.222,-250.021 541.59,-243.522 530.996,-243.384 533.222,-250.021"/>
</g>
<!-- Node12 -->
<g id="node12" class="node"><title>Node12</title>
<g id="a_node12"><a xlink:href="sys__structures_8h.html" target="_top" xlink:title="Defines hard&#45;coded system defined structures. ">
<polygon fill="white" stroke="black" points="549.5,-168.5 549.5,-187.5 638.5,-187.5 638.5,-168.5 549.5,-168.5"/>
<text text-anchor="middle" x="594" y="-175.5" font-family="Helvetica,sans-Serif" font-size="10.00">sys_structures.h</text>
</a>
</g>
</g>
<!-- Node10&#45;&gt;Node12 -->
<g id="edge24" class="edge"><title>Node10&#45;&gt;Node12</title>
<path fill="none" stroke="midnightblue" d="M426.719,-286.077C477.509,-278.705 604.954,-258.886 617,-244 628.349,-229.975 618.363,-209.934 608.229,-195.822"/>
<polygon fill="midnightblue" stroke="midnightblue" points="610.985,-193.664 602.09,-187.908 605.454,-197.955 610.985,-193.664"/>
</g>
<!-- Node13 -->
<g id="node13" class="node"><title>Node13</title>
<g id="a_node13"><a xlink:href="ceptr__types_8h_source.html" target="_top" xlink:title="ceptr_types.h">
<polygon fill="white" stroke="black" points="483,-112.5 483,-131.5 559,-131.5 559,-112.5 483,-112.5"/>
<text text-anchor="middle" x="521" y="-119.5" font-family="Helvetica,sans-Serif" font-size="10.00">ceptr_types.h</text>
</a>
</g>
</g>
<!-- Node10&#45;&gt;Node13 -->
<g id="edge26" class="edge"><title>Node10&#45;&gt;Node13</title>
<path fill="none" stroke="midnightblue" d="M403.97,-280.096C401.471,-267.096 398.52,-242.461 407,-224 425.444,-183.846 468.385,-153.078 495.982,-136.552"/>
<polygon fill="midnightblue" stroke="midnightblue" points="497.8,-139.544 504.695,-131.5 494.289,-133.488 497.8,-139.544"/>
</g>
<!-- Node18 -->
<g id="node18" class="node"><title>Node18</title>
<g id="a_node18"><a xlink:href="sys__processes_8h.html" target="_top" xlink:title="Defines hard&#45;coded system defined processes. ">
<polygon fill="white" stroke="black" points="416.5,-224.5 416.5,-243.5 507.5,-243.5 507.5,-224.5 416.5,-224.5"/>
<text text-anchor="middle" x="462" y="-231.5" font-family="Helvetica,sans-Serif" font-size="10.00">sys_processes.h</text>
</a>
</g>
</g>
<!-- Node10&#45;&gt;Node18 -->
<g id="edge25" class="edge"><title>Node10&#45;&gt;Node18</title>
<path fill="none" stroke="midnightblue" d="M414.997,-280.324C423.194,-272.42 435.506,-260.548 445.472,-250.938"/>
<polygon fill="midnightblue" stroke="midnightblue" points="448.07,-253.295 452.839,-243.834 443.211,-248.256 448.07,-253.295"/>
</g>
<!-- Node11&#45;&gt;Node12 -->
<g id="edge15" class="edge"><title>Node11&#45;&gt;Node12</title>
<path fill="none" stroke="midnightblue" d="M571.459,-224.083C575.154,-216.691 580.523,-205.953 585.094,-196.811"/>
<polygon fill="midnightblue" stroke="midnightblue" points="588.283,-198.261 589.624,-187.751 582.022,-195.13 588.283,-198.261"/>
</g>
<!-- Node11&#45;&gt;Node13 -->
<g id="edge23" class="edge"><title>Node11&#45;&gt;Node13</title>
<path fill="none" stroke="midnightblue" d="M560.922,-224.396C554.929,-215.595 545.843,-201.355 540,-188 533.373,-172.853 528.294,-154.733 525.061,-141.477"/>
<polygon fill="midnightblue" stroke="midnightblue" points="528.453,-140.611 522.787,-131.658 521.634,-142.19 528.453,-140.611"/>
</g>
<!-- Node12&#45;&gt;Node13 -->
<g id="edge16" class="edge"><title>Node12&#45;&gt;Node13</title>
<path fill="none" stroke="midnightblue" d="M582.271,-168.324C571.163,-160.107 554.258,-147.602 541.017,-137.807"/>
<polygon fill="midnightblue" stroke="midnightblue" points="543.063,-134.967 532.942,-131.834 538.9,-140.595 543.063,-134.967"/>
</g>
<!-- Node14 -->
<g id="node14" class="node"><title>Node14</title>
<polygon fill="white" stroke="#bfbfbf" points="496.5,-56.5 496.5,-75.5 545.5,-75.5 545.5,-56.5 496.5,-56.5"/>
<text text-anchor="middle" x="521" y="-63.5" font-family="Helvetica,sans-Serif" font-size="10.00">stdint.h</text>
</g>
<!-- Node13&#45;&gt;Node14 -->
<g id="edge17" class="edge"><title>Node13&#45;&gt;Node14</title>
<path fill="none" stroke="midnightblue" d="M521,-112.083C521,-105.006 521,-94.8611 521,-85.9865"/>
<polygon fill="midnightblue" stroke="midnightblue" points="524.5,-85.751 521,-75.7511 517.5,-85.7511 524.5,-85.751"/>
</g>
<!-- Node15 -->
<g id="node15" class="node"><title>Node15</title>
<g id="a_node15"><a xlink:href="uthash_8h_source.html" target="_top" xlink:title="uthash.h">
<polygon fill="white" stroke="black" points="378,-56.5 378,-75.5 432,-75.5 432,-56.5 378,-56.5"/>
<text text-anchor="middle" x="405" y="-63.5" font-family="Helvetica,sans-Serif" font-size="10.00">uthash.h</text>
</a>
</g>
</g>
<!-- Node13&#45;&gt;Node15 -->
<g id="edge18" class="edge"><title>Node13&#45;&gt;Node15</title>
<path fill="none" stroke="midnightblue" d="M502.619,-112.444C483.784,-103.675 454.269,-89.9355 432.621,-79.8579"/>
<polygon fill="midnightblue" stroke="midnightblue" points="433.838,-76.5637 423.295,-75.5164 430.883,-82.9098 433.838,-76.5637"/>
</g>
<!-- Node15&#45;&gt;Node3 -->
<g id="edge19" class="edge"><title>Node15&#45;&gt;Node3</title>
<path fill="none" stroke="midnightblue" d="M422.513,-56.324C440.072,-47.6247 467.331,-34.1202 487.531,-24.113"/>
<polygon fill="midnightblue" stroke="midnightblue" points="489.124,-27.23 496.531,-19.6545 486.016,-20.9575 489.124,-27.23"/>
</g>
<!-- Node15&#45;&gt;Node5 -->
<g id="edge21" class="edge"><title>Node15&#45;&gt;Node5</title>
<path fill="none" stroke="midnightblue" d="M388.13,-56.324C371.291,-47.6641 345.193,-34.2424 325.762,-24.249"/>
<polygon fill="midnightblue" stroke="midnightblue" points="327.322,-21.1155 316.828,-19.6545 324.12,-27.3405 327.322,-21.1155"/>
</g>
<!-- Node16 -->
<g id="node16" class="node"><title>Node16</title>
<polygon fill="white" stroke="#bfbfbf" points="342,-0.5 342,-19.5 394,-19.5 394,-0.5 342,-0.5"/>
<text text-anchor="middle" x="368" y="-7.5" font-family="Helvetica,sans-Serif" font-size="10.00">stddef.h</text>
</g>
<!-- Node15&#45;&gt;Node16 -->
<g id="edge20" class="edge"><title>Node15&#45;&gt;Node16</title>
<path fill="none" stroke="midnightblue" d="M398.89,-56.083C393.718,-48.5341 386.154,-37.4948 379.806,-28.2298"/>
<polygon fill="midnightblue" stroke="midnightblue" points="382.536,-26.0221 373.996,-19.7511 376.761,-29.9787 382.536,-26.0221"/>
</g>
<!-- Node17 -->
<g id="node17" class="node"><title>Node17</title>
<polygon fill="white" stroke="#bfbfbf" points="412.5,-0.5 412.5,-19.5 471.5,-19.5 471.5,-0.5 412.5,-0.5"/>
<text text-anchor="middle" x="442" y="-7.5" font-family="Helvetica,sans-Serif" font-size="10.00">inttypes.h</text>
</g>
<!-- Node15&#45;&gt;Node17 -->
<g id="edge22" class="edge"><title>Node15&#45;&gt;Node17</title>
<path fill="none" stroke="midnightblue" d="M411.11,-56.083C416.282,-48.5341 423.846,-37.4948 430.194,-28.2298"/>
<polygon fill="midnightblue" stroke="midnightblue" points="433.239,-29.9787 436.004,-19.7511 427.464,-26.0221 433.239,-29.9787"/>
</g>
<!-- Node19&#45;&gt;Node10 -->
<g id="edge28" class="edge"><title>Node19&#45;&gt;Node10</title>
<path fill="none" stroke="midnightblue" d="M345.568,-336.324C356.42,-328.185 372.881,-315.839 385.883,-306.087"/>
<polygon fill="midnightblue" stroke="midnightblue" points="388.321,-308.634 394.221,-299.834 384.121,-303.034 388.321,-308.634"/>
</g>
<!-- Node20&#45;&gt;Node10 -->
<g id="edge30" class="edge"><title>Node20&#45;&gt;Node10</title>
<path fill="none" stroke="midnightblue" d="M429.575,-392.405C427.058,-383.372 423.067,-368.734 420,-356 416.278,-340.55 412.511,-322.919 409.823,-309.921"/>
<polygon fill="midnightblue" stroke="midnightblue" points="413.199,-308.959 407.767,-299.862 406.34,-310.361 413.199,-308.959"/>
</g>
<!-- Node20&#45;&gt;Node19 -->
<g id="edge38" class="edge"><title>Node20&#45;&gt;Node19</title>
<path fill="none" stroke="midnightblue" d="M416.255,-392.324C400.681,-383.743 376.623,-370.486 358.541,-360.522"/>
<polygon fill="midnightblue" stroke="midnightblue" points="360.154,-357.415 349.706,-355.655 356.776,-363.546 360.154,-357.415"/>
</g>
<!-- Node21 -->
<g id="node21" class="node"><title>Node21</title>
<g id="a_node21"><a xlink:href="def_8h.html" target="_top" xlink:title="header file for symbol and structure definition functions ">
<polygon fill="white" stroke="black" points="507,-336.5 507,-355.5 545,-355.5 545,-336.5 507,-336.5"/>
<text text-anchor="middle" x="526" y="-343.5" font-family="Helvetica,sans-Serif" font-size="10.00">def.h</text>
</a>
</g>
</g>
<!-- Node20&#45;&gt;Node21 -->
<g id="edge31" class="edge"><title>Node20&#45;&gt;Node21</title>
<path fill="none" stroke="midnightblue" d="M447.103,-392.324C461.903,-383.822 484.694,-370.729 501.982,-360.797"/>
<polygon fill="midnightblue" stroke="midnightblue" points="504.007,-363.671 510.935,-355.655 500.52,-357.601 504.007,-363.671"/>
</g>
<!-- Node23 -->
<g id="node23" class="node"><title>Node23</title>
<g id="a_node23"><a xlink:href="label_8h.html" target="_top" xlink:title="Label tables map human readable text strings to parts of semantic trees. ">
<polygon fill="white" stroke="black" points="647.5,-280.5 647.5,-299.5 692.5,-299.5 692.5,-280.5 647.5,-280.5"/>
<text text-anchor="middle" x="670" y="-287.5" font-family="Helvetica,sans-Serif" font-size="10.00">label.h</text>
</a>
</g>
</g>
<!-- Node20&#45;&gt;Node23 -->
<g id="edge34" class="edge"><title>Node20&#45;&gt;Node23</title>
<path fill="none" stroke="midnightblue" d="M459.147,-392.356C484.202,-384.058 522.224,-370.653 554,-356 587.718,-340.452 624.857,-318.783 647.808,-304.822"/>
<polygon fill="midnightblue" stroke="midnightblue" points="649.747,-307.739 656.441,-299.527 646.086,-301.772 649.747,-307.739"/>
</g>
<!-- Node24 -->
<g id="node24" class="node"><title>Node24</title>
<g id="a_node24"><a xlink:href="process_8h.html" target="_top" xlink:title="processing header files ">
<polygon fill="white" stroke="black" points="429.5,-336.5 429.5,-355.5 488.5,-355.5 488.5,-336.5 429.5,-336.5"/>
<text text-anchor="middle" x="459" y="-343.5" font-family="Helvetica,sans-Serif" font-size="10.00">process.h</text>
</a>
</g>
</g>
<!-- Node20&#45;&gt;Node24 -->
<g id="edge36" class="edge"><title>Node20&#45;&gt;Node24</title>
<path fill="none" stroke="midnightblue" d="M436.459,-392.083C440.154,-384.691 445.523,-373.953 450.094,-364.811"/>
<polygon fill="midnightblue" stroke="midnightblue" points="453.283,-366.261 454.624,-355.751 447.022,-363.13 453.283,-366.261"/>
</g>
<!-- Node21&#45;&gt;Node10 -->
<g id="edge32" class="edge"><title>Node21&#45;&gt;Node10</title>
<path fill="none" stroke="midnightblue" d="M506.986,-336.444C487.412,-327.636 456.692,-313.812 434.271,-303.722"/>
<polygon fill="midnightblue" stroke="midnightblue" points="435.481,-300.428 424.925,-299.516 432.608,-306.812 435.481,-300.428"/>
</g>
<!-- Node22 -->
<g id="node22" class="node"><title>Node22</title>
<polygon fill="white" stroke="#bfbfbf" points="500,-280.5 500,-299.5 552,-299.5 552,-280.5 500,-280.5"/>
<text text-anchor="middle" x="526" y="-287.5" font-family="Helvetica,sans-Serif" font-size="10.00">stdarg.h</text>
</g>
<!-- Node21&#45;&gt;Node22 -->
<g id="edge33" class="edge"><title>Node21&#45;&gt;Node22</title>
<path fill="none" stroke="midnightblue" d="M526,-336.083C526,-329.006 526,-318.861 526,-309.986"/>
<polygon fill="midnightblue" stroke="midnightblue" points="529.5,-309.751 526,-299.751 522.5,-309.751 529.5,-309.751"/>
</g>
<!-- Node23&#45;&gt;Node13 -->
<g id="edge35" class="edge"><title>Node23&#45;&gt;Node13</title>
<path fill="none" stroke="midnightblue" d="M671.019,-280.472C673.104,-258.862 675.5,-201.306 647,-168 627.582,-145.308 595.886,-134.059 569.143,-128.482"/>
<polygon fill="midnightblue" stroke="midnightblue" points="569.646,-125.016 559.172,-126.611 568.355,-131.896 569.646,-125.016"/>
</g>
<!-- Node24&#45;&gt;Node10 -->
<g id="edge37" class="edge"><title>Node24&#45;&gt;Node10</title>
<path fill="none" stroke="midnightblue" d="M450.248,-336.083C442.53,-328.22 431.095,-316.569 421.783,-307.081"/>
<polygon fill="midnightblue" stroke="midnightblue" points="424.092,-304.436 414.589,-299.751 419.096,-309.34 424.092,-304.436"/>
</g>
</g>
</svg>
