<?xml version="1.0" encoding="UTF-8" standalone="no"?>
<!DOCTYPE svg PUBLIC "-//W3C//DTD SVG 1.1//EN"
 "http://www.w3.org/Graphics/SVG/1.1/DTD/svg11.dtd">
<!-- Generated by graphviz version 2.38.0 (20140413.2041)
 -->
<!-- Title: spec/semtrex_spec.h Pages: 1 -->
<!--zoomable 476 -->
<svg id="main" version="1.1" xmlns="http://www.w3.org/2000/svg" xmlns:xlink="http://www.w3.org/1999/xlink" xml:space="preserve" onload="init(evt)">
<style type="text/css"><![CDATA[
.edge:hover path { stroke: red; }
.edge:hover polygon { stroke: red; fill: red; }
]]></style>
<script type="text/javascript"><![CDATA[
var edges = document.getElementsByTagName('g');
if (edges && edges.length) {
  for (var i=0;i<edges.length;i++) {
    if (edges[i].id.substr(0,4)=='edge') {
      edges[i].setAttribute('class','edge');
    }
  }
}
]]></script>
        <defs>
                <circle id="rim" cx="0" cy="0" r="7"/>
                <circle id="rim2" cx="0" cy="0" r="3.5"/>
                <g id="zoomPlus">
                        <use xlink:href="#rim" fill="#404040">
                                <set attributeName="fill" to="#808080" begin="zoomplus.mouseover" end="zoomplus.mouseout"/>
                        </use>
                        <path d="M-4,0h8M0,-4v8" fill="none" stroke="white" stroke-width="1.5" pointer-events="none"/>
                </g>
                <g id="zoomMin">
                        <use xlink:href="#rim" fill="#404040">
                                <set attributeName="fill" to="#808080" begin="zoomminus.mouseover" end="zoomminus.mouseout"/>
                        </use>
                        <path d="M-4,0h8" fill="none" stroke="white" stroke-width="1.5" pointer-events="none"/>
                </g>
                <g id="dirArrow">
                        <path fill="none" stroke="white" stroke-width="1.5" d="M0,-3.0v7 M-2.5,-0.5L0,-3.0L2.5,-0.5"/>
                </g>
               <g id="resetDef">
                       <use xlink:href="#rim2" fill="#404040">
                               <set attributeName="fill" to="#808080" begin="reset.mouseover" end="reset.mouseout"/>
                       </use>
               </g>
        </defs>

<script type="text/javascript">
var viewWidth = 673;
var viewHeight = 476;
var sectionId = 'dynsection-0';
</script>
<script xlink:href="svgpan.js"/>
<svg id="graph" class="graph">
<g id="viewport">
<title>spec/semtrex_spec.h</title>
<polygon fill="white" stroke="none" points="-4,4 -4,-472 668.685,-472 668.685,4 -4,4"/>
<!-- Node1 -->
<g id="node1" class="node"><title>Node1</title>
<polygon fill="#bfbfbf" stroke="black" points="346.685,-448.5 346.685,-467.5 456.685,-467.5 456.685,-448.5 346.685,-448.5"/>
<text text-anchor="middle" x="401.685" y="-455.5" font-family="Helvetica,sans-Serif" font-size="10.00">spec/semtrex_spec.h</text>
</g>
<!-- Node2 -->
<g id="node2" class="node"><title>Node2</title>
<g id="a_node2"><a xlink:href="ceptr_8h_source.html" target="_top" xlink:title="../src/ceptr.h">
<polygon fill="white" stroke="black" points="446.685,-336.5 446.685,-355.5 518.685,-355.5 518.685,-336.5 446.685,-336.5"/>
<text text-anchor="middle" x="482.685" y="-343.5" font-family="Helvetica,sans-Serif" font-size="10.00">../src/ceptr.h</text>
</a>
</g>
</g>
<!-- Node1&#45;&gt;Node2 -->
<g id="edge1" class="edge"><title>Node1&#45;&gt;Node2</title>
<path fill="none" stroke="midnightblue" d="M408.041,-448.368C421.468,-430.135 452.917,-387.426 470.406,-363.675"/>
<polygon fill="midnightblue" stroke="midnightblue" points="473.248,-365.719 476.359,-355.591 467.611,-361.568 473.248,-365.719"/>
</g>
<!-- Node18 -->
<g id="node18" class="node"><title>Node18</title>
<g id="a_node18"><a xlink:href="hashfn_8h_source.html" target="_top" xlink:title="../src/hashfn.h">
<polygon fill="white" stroke="black" points="466.685,-112.5 466.685,-131.5 546.685,-131.5 546.685,-112.5 466.685,-112.5"/>
<text text-anchor="middle" x="506.685" y="-119.5" font-family="Helvetica,sans-Serif" font-size="10.00">../src/hashfn.h</text>
</a>
</g>
</g>
<!-- Node1&#45;&gt;Node18 -->
<g id="edge26" class="edge"><title>Node1&#45;&gt;Node18</title>
<path fill="none" stroke="midnightblue" d="M456.819,-457.251C533.939,-454.378 664.685,-436.334 664.685,-347 664.685,-347 664.685,-347 664.685,-233 664.685,-178.393 600.332,-148.683 553.766,-134.334"/>
<polygon fill="midnightblue" stroke="midnightblue" points="554.71,-130.963 544.129,-131.501 552.736,-137.679 554.71,-130.963"/>
</g>
<!-- Node19 -->
<g id="node19" class="node"><title>Node19</title>
<g id="a_node19"><a xlink:href="semtrex_8h.html" target="_top" xlink:title="Semantic tree regular expression header file. ">
<polygon fill="white" stroke="black" points="197.685,-392.5 197.685,-411.5 283.685,-411.5 283.685,-392.5 197.685,-392.5"/>
<text text-anchor="middle" x="240.685" y="-399.5" font-family="Helvetica,sans-Serif" font-size="10.00">../src/semtrex.h</text>
</a>
</g>
</g>
<!-- Node1&#45;&gt;Node19 -->
<g id="edge28" class="edge"><title>Node1&#45;&gt;Node19</title>
<path fill="none" stroke="midnightblue" d="M376.174,-448.444C349.089,-439.359 306.095,-424.939 275.816,-414.783"/>
<polygon fill="midnightblue" stroke="midnightblue" points="276.671,-411.378 266.077,-411.516 274.445,-418.015 276.671,-411.378"/>
</g>
<!-- Node20 -->
<g id="node20" class="node"><title>Node20</title>
<g id="a_node20"><a xlink:href="receptor_8h.html" target="_top" xlink:title="receptor implementation header file ">
<polygon fill="white" stroke="black" points="308.685,-392.5 308.685,-411.5 394.685,-411.5 394.685,-392.5 308.685,-392.5"/>
<text text-anchor="middle" x="351.685" y="-399.5" font-family="Helvetica,sans-Serif" font-size="10.00">../src/receptor.h</text>
</a>
</g>
</g>
<!-- Node1&#45;&gt;Node20 -->
<g id="edge30" class="edge"><title>Node1&#45;&gt;Node20</title>
<path fill="none" stroke="midnightblue" d="M393.429,-448.083C386.22,-440.298 375.575,-428.801 366.839,-419.367"/>
<polygon fill="midnightblue" stroke="midnightblue" points="369.15,-416.711 359.788,-411.751 364.014,-421.467 369.15,-416.711"/>
</g>
<!-- Node3 -->
<g id="node3" class="node"><title>Node3</title>
<polygon fill="white" stroke="#bfbfbf" points="400.185,-0.5 400.185,-19.5 449.185,-19.5 449.185,-0.5 400.185,-0.5"/>
<text text-anchor="middle" x="424.685" y="-7.5" font-family="Helvetica,sans-Serif" font-size="10.00">string.h</text>
</g>
<!-- Node2&#45;&gt;Node3 -->
<g id="edge2" class="edge"><title>Node2&#45;&gt;Node3</title>
<path fill="none" stroke="midnightblue" d="M513.931,-336.415C556.283,-322.655 626.685,-291.313 626.685,-235 626.685,-235 626.685,-235 626.685,-121 626.685,-45.8154 517.419,-21.722 459.611,-14.2363"/>
<polygon fill="midnightblue" stroke="midnightblue" points="459.799,-10.7339 449.454,-13.0233 458.969,-17.6845 459.799,-10.7339"/>
</g>
<!-- Node4 -->
<g id="node4" class="node"><title>Node4</title>
<polygon fill="white" stroke="#bfbfbf" points="552.685,-168.5 552.685,-187.5 598.685,-187.5 598.685,-168.5 552.685,-168.5"/>
<text text-anchor="middle" x="575.685" y="-175.5" font-family="Helvetica,sans-Serif" font-size="10.00">stdio.h</text>
</g>
<!-- Node2&#45;&gt;Node4 -->
<g id="edge3" class="edge"><title>Node2&#45;&gt;Node4</title>
<path fill="none" stroke="midnightblue" d="M487.685,-336.075C502.451,-309.719 546.061,-231.878 565.791,-196.661"/>
<polygon fill="midnightblue" stroke="midnightblue" points="569.051,-198.003 570.885,-187.568 562.944,-194.582 569.051,-198.003"/>
</g>
<!-- Node5 -->
<g id="node5" class="node"><title>Node5</title>
<polygon fill="white" stroke="#bfbfbf" points="273.685,-0.5 273.685,-19.5 321.685,-19.5 321.685,-0.5 273.685,-0.5"/>
<text text-anchor="middle" x="297.685" y="-7.5" font-family="Helvetica,sans-Serif" font-size="10.00">stdlib.h</text>
</g>
<!-- Node2&#45;&gt;Node5 -->
<g id="edge4" class="edge"><title>Node2&#45;&gt;Node5</title>
<path fill="none" stroke="midnightblue" d="M466.833,-336.439C439.566,-320.425 386.685,-283.16 386.685,-235 386.685,-235 386.685,-235 386.685,-121 386.685,-90.7745 384.873,-80.1405 366.685,-56 356.476,-42.4502 340.913,-31.7953 327.149,-24.262"/>
<polygon fill="midnightblue" stroke="midnightblue" points="328.489,-21.0151 317.996,-19.5481 325.284,-27.2383 328.489,-21.0151"/>
</g>
<!-- Node6 -->
<g id="node6" class="node"><title>Node6</title>
<g id="a_node6"><a xlink:href="ceptr__error_8h_source.html" target="_top" xlink:title="ceptr_error.h">
<polygon fill="white" stroke="black" points="447.185,-224.5 447.185,-243.5 518.185,-243.5 518.185,-224.5 447.185,-224.5"/>
<text text-anchor="middle" x="482.685" y="-231.5" font-family="Helvetica,sans-Serif" font-size="10.00">ceptr_error.h</text>
</a>
</g>
</g>
<!-- Node2&#45;&gt;Node6 -->
<g id="edge5" class="edge"><title>Node2&#45;&gt;Node6</title>
<path fill="none" stroke="midnightblue" d="M482.685,-336.368C482.685,-318.617 482.685,-277.666 482.685,-253.597"/>
<polygon fill="midnightblue" stroke="midnightblue" points="486.185,-253.591 482.685,-243.591 479.185,-253.591 486.185,-253.591"/>
</g>
<!-- Node9 -->
<g id="node9" class="node"><title>Node9</title>
<g id="a_node9"><a xlink:href="tree_8h.html" target="_top" xlink:title="semantic trees header file ">
<polygon fill="white" stroke="black" points="271.185,-280.5 271.185,-299.5 312.185,-299.5 312.185,-280.5 271.185,-280.5"/>
<text text-anchor="middle" x="291.685" y="-287.5" font-family="Helvetica,sans-Serif" font-size="10.00">tree.h</text>
</a>
</g>
</g>
<!-- Node2&#45;&gt;Node9 -->
<g id="edge9" class="edge"><title>Node2&#45;&gt;Node9</title>
<path fill="none" stroke="midnightblue" d="M452.421,-336.444C416.806,-326.374 358.005,-309.75 322.257,-299.643"/>
<polygon fill="midnightblue" stroke="midnightblue" points="322.964,-296.206 312.389,-296.854 321.06,-302.942 322.964,-296.206"/>
</g>
<!-- Node6&#45;&gt;Node4 -->
<g id="edge6" class="edge"><title>Node6&#45;&gt;Node4</title>
<path fill="none" stroke="midnightblue" d="M497.627,-224.324C512.27,-215.822 534.819,-202.729 551.923,-192.797"/>
<polygon fill="midnightblue" stroke="midnightblue" points="553.89,-195.703 560.78,-187.655 550.375,-189.649 553.89,-195.703"/>
</g>
<!-- Node7 -->
<g id="node7" class="node"><title>Node7</title>
<polygon fill="white" stroke="#bfbfbf" points="414.685,-168.5 414.685,-187.5 464.685,-187.5 464.685,-168.5 414.685,-168.5"/>
<text text-anchor="middle" x="439.685" y="-175.5" font-family="Helvetica,sans-Serif" font-size="10.00">signal.h</text>
</g>
<!-- Node6&#45;&gt;Node7 -->
<g id="edge7" class="edge"><title>Node6&#45;&gt;Node7</title>
<path fill="none" stroke="midnightblue" d="M475.585,-224.083C469.448,-216.377 460.415,-205.033 452.946,-195.653"/>
<polygon fill="midnightblue" stroke="midnightblue" points="455.621,-193.394 446.654,-187.751 450.145,-197.754 455.621,-193.394"/>
</g>
<!-- Node8 -->
<g id="node8" class="node"><title>Node8</title>
<polygon fill="white" stroke="#bfbfbf" points="482.685,-168.5 482.685,-187.5 534.685,-187.5 534.685,-168.5 482.685,-168.5"/>
<text text-anchor="middle" x="508.685" y="-175.5" font-family="Helvetica,sans-Serif" font-size="10.00">assert.h</text>
</g>
<!-- Node6&#45;&gt;Node8 -->
<g id="edge8" class="edge"><title>Node6&#45;&gt;Node8</title>
<path fill="none" stroke="midnightblue" d="M486.978,-224.083C490.537,-216.691 495.708,-205.953 500.109,-196.811"/>
<polygon fill="midnightblue" stroke="midnightblue" points="503.287,-198.279 504.472,-187.751 496.98,-195.243 503.287,-198.279"/>
</g>
<!-- Node9&#45;&gt;Node3 -->
<g id="edge10" class="edge"><title>Node9&#45;&gt;Node3</title>
<path fill="none" stroke="midnightblue" d="M295.811,-280.375C314.391,-241.54 390.493,-82.4702 416.175,-28.7886"/>
<polygon fill="midnightblue" stroke="midnightblue" points="419.448,-30.0556 420.607,-19.5243 413.134,-27.0345 419.448,-30.0556"/>
</g>
<!-- Node9&#45;&gt;Node5 -->
<g id="edge11" class="edge"><title>Node9&#45;&gt;Node5</title>
<path fill="none" stroke="midnightblue" d="M291.871,-280.375C292.704,-241.782 296.1,-84.4539 297.279,-29.8074"/>
<polygon fill="midnightblue" stroke="midnightblue" points="300.784,-29.5975 297.501,-19.5243 293.786,-29.4464 300.784,-29.5975"/>
</g>
<!-- Node9&#45;&gt;Node6 -->
<g id="edge12" class="edge"><title>Node9&#45;&gt;Node6</title>
<path fill="none" stroke="midnightblue" d="M312.489,-283.118C343.685,-274.298 403.154,-257.485 442.871,-246.256"/>
<polygon fill="midnightblue" stroke="midnightblue" points="443.844,-249.619 452.514,-243.53 441.939,-242.883 443.844,-249.619"/>
</g>
<!-- Node10 -->
<g id="node10" class="node"><title>Node10</title>
<g id="a_node10"><a xlink:href="sys__symbols_8h.html" target="_top" xlink:title="Defines hard&#45;coded system defined symbols. ">
<polygon fill="white" stroke="black" points="161.185,-224.5 161.185,-243.5 244.185,-243.5 244.185,-224.5 161.185,-224.5"/>
<text text-anchor="middle" x="202.685" y="-231.5" font-family="Helvetica,sans-Serif" font-size="10.00">sys_symbols.h</text>
</a>
</g>
</g>
<!-- Node9&#45;&gt;Node10 -->
<g id="edge13" class="edge"><title>Node9&#45;&gt;Node10</title>
<path fill="none" stroke="midnightblue" d="M277.386,-280.324C263.502,-271.9 242.193,-258.971 225.881,-249.074"/>
<polygon fill="midnightblue" stroke="midnightblue" points="227.314,-245.85 216.949,-243.655 223.683,-251.834 227.314,-245.85"/>
</g>
<!-- Node11 -->
<g id="node11" class="node"><title>Node11</title>
<g id="a_node11"><a xlink:href="sys__structures_8h.html" target="_top" xlink:title="Defines hard&#45;coded system defined structures. ">
<polygon fill="white" stroke="black" points="108.185,-168.5 108.185,-187.5 197.185,-187.5 197.185,-168.5 108.185,-168.5"/>
<text text-anchor="middle" x="152.685" y="-175.5" font-family="Helvetica,sans-Serif" font-size="10.00">sys_structures.h</text>
</a>
</g>
</g>
<!-- Node9&#45;&gt;Node11 -->
<g id="edge23" class="edge"><title>Node9&#45;&gt;Node11</title>
<path fill="none" stroke="midnightblue" d="M271.137,-285.425C235.801,-278.813 165.935,-263.548 151.685,-244 142.033,-230.759 143.65,-211.63 146.86,-197.55"/>
<polygon fill="midnightblue" stroke="midnightblue" points="150.332,-198.119 149.589,-187.55 143.579,-196.276 150.332,-198.119"/>
</g>
<!-- Node12 -->
<g id="node12" class="node"><title>Node12</title>
<g id="a_node12"><a xlink:href="ceptr__types_8h_source.html" target="_top" xlink:title="ceptr_types.h">
<polygon fill="white" stroke="black" points="187.685,-112.5 187.685,-131.5 263.685,-131.5 263.685,-112.5 187.685,-112.5"/>
<text text-anchor="middle" x="225.685" y="-119.5" font-family="Helvetica,sans-Serif" font-size="10.00">ceptr_types.h</text>
</a>
</g>
</g>
<!-- Node9&#45;&gt;Node12 -->
<g id="edge25" class="edge"><title>Node9&#45;&gt;Node12</title>
<path fill="none" stroke="midnightblue" d="M288.137,-280.075C277.703,-253.832 246.974,-176.545 232.888,-141.117"/>
<polygon fill="midnightblue" stroke="midnightblue" points="236.039,-139.567 229.092,-131.568 229.534,-142.154 236.039,-139.567"/>
</g>
<!-- Node17 -->
<g id="node17" class="node"><title>Node17</title>
<g id="a_node17"><a xlink:href="sys__processes_8h.html" target="_top" xlink:title="Defines hard&#45;coded system defined processes. ">
<polygon fill="white" stroke="black" points="13.1851,-224.5 13.1851,-243.5 104.185,-243.5 104.185,-224.5 13.1851,-224.5"/>
<text text-anchor="middle" x="58.6851" y="-231.5" font-family="Helvetica,sans-Serif" font-size="10.00">sys_processes.h</text>
</a>
</g>
</g>
<!-- Node9&#45;&gt;Node17 -->
<g id="edge24" class="edge"><title>Node9&#45;&gt;Node17</title>
<path fill="none" stroke="midnightblue" d="M271.008,-284.208C234.122,-275.659 156.118,-257.581 105.623,-245.878"/>
<polygon fill="midnightblue" stroke="midnightblue" points="106.133,-242.404 95.6006,-243.556 104.552,-249.223 106.133,-242.404"/>
</g>
<!-- Node10&#45;&gt;Node11 -->
<g id="edge14" class="edge"><title>Node10&#45;&gt;Node11</title>
<path fill="none" stroke="midnightblue" d="M194.429,-224.083C187.22,-216.298 176.575,-204.801 167.839,-195.367"/>
<polygon fill="midnightblue" stroke="midnightblue" points="170.15,-192.711 160.788,-187.751 165.014,-197.467 170.15,-192.711"/>
</g>
<!-- Node10&#45;&gt;Node12 -->
<g id="edge22" class="edge"><title>Node10&#45;&gt;Node12</title>
<path fill="none" stroke="midnightblue" d="M204.49,-224.368C208.202,-206.617 216.764,-165.666 221.797,-141.597"/>
<polygon fill="midnightblue" stroke="midnightblue" points="225.268,-142.096 223.889,-131.591 218.416,-140.663 225.268,-142.096"/>
</g>
<!-- Node11&#45;&gt;Node12 -->
<g id="edge15" class="edge"><title>Node11&#45;&gt;Node12</title>
<path fill="none" stroke="midnightblue" d="M164.414,-168.324C175.522,-160.107 192.427,-147.602 205.668,-137.807"/>
<polygon fill="midnightblue" stroke="midnightblue" points="207.785,-140.595 213.743,-131.834 203.622,-134.967 207.785,-140.595"/>
</g>
<!-- Node13 -->
<g id="node13" class="node"><title>Node13</title>
<polygon fill="white" stroke="#bfbfbf" points="309.185,-56.5 309.185,-75.5 358.185,-75.5 358.185,-56.5 309.185,-56.5"/>
<text text-anchor="middle" x="333.685" y="-63.5" font-family="Helvetica,sans-Serif" font-size="10.00">stdint.h</text>
</g>
<!-- Node12&#45;&gt;Node13 -->
<g id="edge16" class="edge"><title>Node12&#45;&gt;Node13</title>
<path fill="none" stroke="midnightblue" d="M243.037,-112.324C260.357,-103.664 287.2,-90.2424 307.187,-80.249"/>
<polygon fill="midnightblue" stroke="midnightblue" points="308.997,-83.2572 316.376,-75.6545 305.867,-76.9962 308.997,-83.2572"/>
</g>
<!-- Node14 -->
<g id="node14" class="node"><title>Node14</title>
<g id="a_node14"><a xlink:href="uthash_8h_source.html" target="_top" xlink:title="uthash.h">
<polygon fill="white" stroke="black" points="198.685,-56.5 198.685,-75.5 252.685,-75.5 252.685,-56.5 198.685,-56.5"/>
<text text-anchor="middle" x="225.685" y="-63.5" font-family="Helvetica,sans-Serif" font-size="10.00">uthash.h</text>
</a>
</g>
</g>
<!-- Node12&#45;&gt;Node14 -->
<g id="edge17" class="edge"><title>Node12&#45;&gt;Node14</title>
<path fill="none" stroke="midnightblue" d="M225.685,-112.083C225.685,-105.006 225.685,-94.8611 225.685,-85.9865"/>
<polygon fill="midnightblue" stroke="midnightblue" points="229.185,-85.751 225.685,-75.7511 222.185,-85.7511 229.185,-85.751"/>
</g>
<!-- Node14&#45;&gt;Node3 -->
<g id="edge18" class="edge"><title>Node14&#45;&gt;Node3</title>
<path fill="none" stroke="midnightblue" d="M252.938,-57.6048C288.604,-47.9265 351.141,-30.9567 390.105,-20.3834"/>
<polygon fill="midnightblue" stroke="midnightblue" points="391.216,-23.7087 399.951,-17.7119 389.383,-16.953 391.216,-23.7087"/>
</g>
<!-- Node14&#45;&gt;Node5 -->
<g id="edge20" class="edge"><title>Node14&#45;&gt;Node5</title>
<path fill="none" stroke="midnightblue" d="M237.253,-56.324C248.105,-48.1849 264.566,-35.8395 277.569,-26.0874"/>
<polygon fill="midnightblue" stroke="midnightblue" points="280.007,-28.6339 285.907,-19.8339 275.807,-23.0339 280.007,-28.6339"/>
</g>
<!-- Node15 -->
<g id="node15" class="node"><title>Node15</title>
<polygon fill="white" stroke="#bfbfbf" points="125.685,-0.5 125.685,-19.5 177.685,-19.5 177.685,-0.5 125.685,-0.5"/>
<text text-anchor="middle" x="151.685" y="-7.5" font-family="Helvetica,sans-Serif" font-size="10.00">stddef.h</text>
</g>
<!-- Node14&#45;&gt;Node15 -->
<g id="edge19" class="edge"><title>Node14&#45;&gt;Node15</title>
<path fill="none" stroke="midnightblue" d="M213.796,-56.324C202.535,-48.1066 185.399,-35.6017 171.976,-25.8069"/>
<polygon fill="midnightblue" stroke="midnightblue" points="173.932,-22.9014 163.791,-19.8339 169.806,-28.5559 173.932,-22.9014"/>
</g>
<!-- Node16 -->
<g id="node16" class="node"><title>Node16</title>
<polygon fill="white" stroke="#bfbfbf" points="196.185,-0.5 196.185,-19.5 255.185,-19.5 255.185,-0.5 196.185,-0.5"/>
<text text-anchor="middle" x="225.685" y="-7.5" font-family="Helvetica,sans-Serif" font-size="10.00">inttypes.h</text>
</g>
<!-- Node14&#45;&gt;Node16 -->
<g id="edge21" class="edge"><title>Node14&#45;&gt;Node16</title>
<path fill="none" stroke="midnightblue" d="M225.685,-56.083C225.685,-49.0059 225.685,-38.8611 225.685,-29.9865"/>
<polygon fill="midnightblue" stroke="midnightblue" points="229.185,-29.751 225.685,-19.7511 222.185,-29.7511 229.185,-29.751"/>
</g>
<!-- Node18&#45;&gt;Node13 -->
<g id="edge27" class="edge"><title>Node18&#45;&gt;Node13</title>
<path fill="none" stroke="midnightblue" d="M479.273,-112.444C449.139,-103.038 400.678,-87.9112 368.033,-77.7212"/>
<polygon fill="midnightblue" stroke="midnightblue" points="369.035,-74.3677 358.447,-74.729 366.95,-81.0497 369.035,-74.3677"/>
</g>
<!-- Node19&#45;&gt;Node9 -->
<g id="edge29" class="edge"><title>Node19&#45;&gt;Node9</title>
<path fill="none" stroke="midnightblue" d="M240.863,-392.137C241.436,-379.187 243.732,-354.614 252.685,-336 257.928,-325.1 266.525,-314.763 274.315,-306.752"/>
<polygon fill="midnightblue" stroke="midnightblue" points="276.957,-309.065 281.682,-299.582 272.074,-304.049 276.957,-309.065"/>
</g>
<!-- Node20&#45;&gt;Node9 -->
<g id="edge31" class="edge"><title>Node20&#45;&gt;Node9</title>
<path fill="none" stroke="midnightblue" d="M365.936,-392.325C384.32,-380.007 412.401,-356.647 398.685,-336 381.903,-310.737 347.872,-299.625 322.674,-294.757"/>
<polygon fill="midnightblue" stroke="midnightblue" points="322.935,-291.251 312.491,-293.03 321.765,-298.153 322.935,-291.251"/>
</g>
<!-- Node21 -->
<g id="node21" class="node"><title>Node21</title>
<g id="a_node21"><a xlink:href="def_8h.html" target="_top" xlink:title="header file for symbol and structure definition functions ">
<polygon fill="white" stroke="black" points="167.685,-336.5 167.685,-355.5 205.685,-355.5 205.685,-336.5 167.685,-336.5"/>
<text text-anchor="middle" x="186.685" y="-343.5" font-family="Helvetica,sans-Serif" font-size="10.00">def.h</text>
</a>
</g>
</g>
<!-- Node20&#45;&gt;Node21 -->
<g id="edge32" class="edge"><title>Node20&#45;&gt;Node21</title>
<path fill="none" stroke="midnightblue" d="M325.54,-392.444C295.66,-382.664 246.886,-366.702 215.812,-356.532"/>
<polygon fill="midnightblue" stroke="midnightblue" points="216.598,-353.107 206.005,-353.323 214.421,-359.76 216.598,-353.107"/>
</g>
<!-- Node23 -->
<g id="node23" class="node"><title>Node23</title>
<g id="a_node23"><a xlink:href="label_8h.html" target="_top" xlink:title="Label tables map human readable text strings to parts of semantic trees. ">
<polygon fill="white" stroke="black" points="5.18511,-280.5 5.18511,-299.5 50.1851,-299.5 50.1851,-280.5 5.18511,-280.5"/>
<text text-anchor="middle" x="27.6851" y="-287.5" font-family="Helvetica,sans-Serif" font-size="10.00">label.h</text>
</a>
</g>
</g>
<!-- Node20&#45;&gt;Node23 -->
<g id="edge35" class="edge"><title>Node20&#45;&gt;Node23</title>
<path fill="none" stroke="midnightblue" d="M308.318,-393.862C268.652,-386.639 208.713,-373.969 158.685,-356 119.488,-341.921 76.7349,-319.196 51.0778,-304.686"/>
<polygon fill="midnightblue" stroke="midnightblue" points="52.5424,-301.491 42.1247,-299.562 49.0655,-307.567 52.5424,-301.491"/>
</g>
<!-- Node24 -->
<g id="node24" class="node"><title>Node24</title>
<g id="a_node24"><a xlink:href="process_8h.html" target="_top" xlink:title="processing header files ">
<polygon fill="white" stroke="black" points="262.185,-336.5 262.185,-355.5 321.185,-355.5 321.185,-336.5 262.185,-336.5"/>
<text text-anchor="middle" x="291.685" y="-343.5" font-family="Helvetica,sans-Serif" font-size="10.00">process.h</text>
</a>
</g>
</g>
<!-- Node20&#45;&gt;Node24 -->
<g id="edge37" class="edge"><title>Node20&#45;&gt;Node24</title>
<path fill="none" stroke="midnightblue" d="M342.045,-392.324C333.176,-384.341 319.81,-372.313 309.077,-362.653"/>
<polygon fill="midnightblue" stroke="midnightblue" points="311.275,-359.922 301.501,-355.834 306.592,-365.125 311.275,-359.922"/>
</g>
<!-- Node25 -->
<g id="node25" class="node"><title>Node25</title>
<g id="a_node25"><a xlink:href="scape_8h.html" target="_top" xlink:title="scape header files ">
<polygon fill="white" stroke="black" points="339.185,-336.5 339.185,-355.5 390.185,-355.5 390.185,-336.5 339.185,-336.5"/>
<text text-anchor="middle" x="364.685" y="-343.5" font-family="Helvetica,sans-Serif" font-size="10.00">scape.h</text>
</a>
</g>
</g>
<!-- Node20&#45;&gt;Node25 -->
<g id="edge39" class="edge"><title>Node20&#45;&gt;Node25</title>
<path fill="none" stroke="midnightblue" d="M353.832,-392.083C355.554,-384.927 358.032,-374.635 360.185,-365.691"/>
<polygon fill="midnightblue" stroke="midnightblue" points="363.641,-366.293 362.578,-355.751 356.835,-364.654 363.641,-366.293"/>
</g>
<!-- Node21&#45;&gt;Node9 -->
<g id="edge33" class="edge"><title>Node21&#45;&gt;Node9</title>
<path fill="none" stroke="midnightblue" d="M203.555,-336.324C220.394,-327.664 246.492,-314.242 265.923,-304.249"/>
<polygon fill="midnightblue" stroke="midnightblue" points="267.565,-307.341 274.857,-299.655 264.363,-301.116 267.565,-307.341"/>
</g>
<!-- Node22 -->
<g id="node22" class="node"><title>Node22</title>
<polygon fill="white" stroke="#bfbfbf" points="160.685,-280.5 160.685,-299.5 212.685,-299.5 212.685,-280.5 160.685,-280.5"/>
<text text-anchor="middle" x="186.685" y="-287.5" font-family="Helvetica,sans-Serif" font-size="10.00">stdarg.h</text>
</g>
<!-- Node21&#45;&gt;Node22 -->
<g id="edge34" class="edge"><title>Node21&#45;&gt;Node22</title>
<path fill="none" stroke="midnightblue" d="M186.685,-336.083C186.685,-329.006 186.685,-318.861 186.685,-309.986"/>
<polygon fill="midnightblue" stroke="midnightblue" points="190.185,-309.751 186.685,-299.751 183.185,-309.751 190.185,-309.751"/>
</g>
<!-- Node23&#45;&gt;Node12 -->
<g id="edge36" class="edge"><title>Node23&#45;&gt;Node12</title>
<path fill="none" stroke="midnightblue" d="M19.7552,-280.186C9.17256,-267.298 -7.05642,-242.801 3.68511,-224 38.9096,-162.347 123.244,-138.128 177.236,-128.755"/>
<polygon fill="midnightblue" stroke="midnightblue" points="177.967,-132.182 187.275,-127.121 176.843,-125.273 177.967,-132.182"/>
</g>
<!-- Node24&#45;&gt;Node9 -->
<g id="edge38" class="edge"><title>Node24&#45;&gt;Node9</title>
<path fill="none" stroke="midnightblue" d="M291.685,-336.083C291.685,-329.006 291.685,-318.861 291.685,-309.986"/>
<polygon fill="midnightblue" stroke="midnightblue" points="295.185,-309.751 291.685,-299.751 288.185,-309.751 295.185,-309.751"/>
</g>
<!-- Node25&#45;&gt;Node9 -->
<g id="edge40" class="edge"><title>Node25&#45;&gt;Node9</title>
<path fill="none" stroke="midnightblue" d="M352.956,-336.324C341.848,-328.107 324.943,-315.602 311.702,-305.807"/>
<polygon fill="midnightblue" stroke="midnightblue" points="313.748,-302.967 303.627,-299.834 309.585,-308.595 313.748,-302.967"/>
</g>
</g>
</svg>
        <g id="navigator" transform="translate(0 0)" fill="#404254">
                <rect fill="#f2f5e9" fill-opacity="0.5" stroke="#606060" stroke-width=".5" x="0" y="0" width="60" height="60"/>
                <use id="zoomplus" xlink:href="#zoomPlus" x="17" y="9" onmousedown="handleZoom(evt,'in')"/>
                <use id="zoomminus" xlink:href="#zoomMin" x="42" y="9" onmousedown="handleZoom(evt,'out')"/>
                <use id="reset" xlink:href="#resetDef" x="30" y="36" onmousedown="handleReset()"/>
                <g id="arrowUp" xlink:href="#dirArrow" transform="translate(30 24)" onmousedown="handlePan(0,-1)">
                  <use xlink:href="#rim" fill="#404040">
                        <set attributeName="fill" to="#808080" begin="arrowUp.mouseover" end="arrowUp.mouseout"/>
                  </use>
                  <path fill="none" stroke="white" stroke-width="1.5" d="M0,-3.0v7 M-2.5,-0.5L0,-3.0L2.5,-0.5"/>
                </g>
                <g id="arrowRight" xlink:href="#dirArrow" transform="rotate(90) translate(36 -43)" onmousedown="handlePan(1,0)">
                  <use xlink:href="#rim" fill="#404040">
                        <set attributeName="fill" to="#808080" begin="arrowRight.mouseover" end="arrowRight.mouseout"/>
                  </use>
                  <path fill="none" stroke="white" stroke-width="1.5" d="M0,-3.0v7 M-2.5,-0.5L0,-3.0L2.5,-0.5"/>
                </g>
                <g id="arrowDown" xlink:href="#dirArrow" transform="rotate(180) translate(-30 -48)" onmousedown="handlePan(0,1)">
                  <use xlink:href="#rim" fill="#404040">
                        <set attributeName="fill" to="#808080" begin="arrowDown.mouseover" end="arrowDown.mouseout"/>
                  </use>
                  <path fill="none" stroke="white" stroke-width="1.5" d="M0,-3.0v7 M-2.5,-0.5L0,-3.0L2.5,-0.5"/>
                </g>
                <g id="arrowLeft" xlink:href="#dirArrow" transform="rotate(270) translate(-36 17)" onmousedown="handlePan(-1,0)">
                  <use xlink:href="#rim" fill="#404040">
                        <set attributeName="fill" to="#808080" begin="arrowLeft.mouseover" end="arrowLeft.mouseout"/>
                  </use>
                  <path fill="none" stroke="white" stroke-width="1.5" d="M0,-3.0v7 M-2.5,-0.5L0,-3.0L2.5,-0.5"/>
                </g>
        </g>
        <svg viewBox="0 0 15 15" width="100%" height="30px" preserveAspectRatio="xMaxYMin meet">
         <g id="arrow_out" transform="scale(0.3 0.3)">
          <a xlink:href="semtrex__spec_8h__incl_org.svg" target="_base">
           <rect id="button" ry="5" rx="5" y="6" x="6" height="38" width="38"
                fill="#f2f5e9" fill-opacity="0.5" stroke="#606060" stroke-width="1.0"/>
           <path id="arrow"
             d="M 11.500037,31.436501 C 11.940474,20.09759 22.043105,11.32322 32.158766,21.979434 L 37.068811,17.246167 C 37.068811,17.246167 37.088388,32 37.088388,32 L 22.160133,31.978069 C 22.160133,31.978069 26.997745,27.140456 26.997745,27.140456 C 18.528582,18.264221 13.291696,25.230495 11.500037,31.436501 z"
             style="fill:#404040;"/>
          </a>
         </g>
        </svg>
</svg>
