<?xml version="1.0" encoding="UTF-8" standalone="no"?>
<!DOCTYPE svg PUBLIC "-//W3C//DTD SVG 1.1//EN"
 "http://www.w3.org/Graphics/SVG/1.1/DTD/svg11.dtd">
<!-- Generated by graphviz version 2.38.0 (20140413.2041)
 -->
<!-- Title: spec/semtrex_spec.h Pages: 1 -->
<svg width="1114pt" height="476pt"
 viewBox="0.00 0.00 1114.00 476.00" xmlns="http://www.w3.org/2000/svg" xmlns:xlink="http://www.w3.org/1999/xlink">
<g id="graph0" class="graph" transform="scale(1 1) rotate(0) translate(4 472)">
<title>spec/semtrex_spec.h</title>
<polygon fill="white" stroke="none" points="-4,4 -4,-472 1110,-472 1110,4 -4,4"/>
<!-- Node1 -->
<g id="node1" class="node"><title>Node1</title>
<polygon fill="#bfbfbf" stroke="black" points="686,-448.5 686,-467.5 796,-467.5 796,-448.5 686,-448.5"/>
<text text-anchor="middle" x="741" y="-455.5" font-family="Helvetica,sans-Serif" font-size="10.00">spec/semtrex_spec.h</text>
</g>
<!-- Node2 -->
<g id="node2" class="node"><title>Node2</title>
<g id="a_node2"><a xlink:href="ceptr_8h_source.html" target="_top" xlink:title="../src/ceptr.h">
<polygon fill="white" stroke="black" points="300,-336.5 300,-355.5 372,-355.5 372,-336.5 300,-336.5"/>
<text text-anchor="middle" x="336" y="-343.5" font-family="Helvetica,sans-Serif" font-size="10.00">../src/ceptr.h</text>
</a>
</g>
</g>
<!-- Node1&#45;&gt;Node2 -->
<g id="edge1" class="edge"><title>Node1&#45;&gt;Node2</title>
<path fill="none" stroke="midnightblue" d="M709.557,-448.46C637.107,-428.782 458.43,-380.252 377.283,-358.213"/>
<polygon fill="midnightblue" stroke="midnightblue" points="377.99,-354.778 367.423,-355.535 376.156,-361.533 377.99,-354.778"/>
</g>
<!-- Node25 -->
<g id="node25" class="node"><title>Node25</title>
<g id="a_node25"><a xlink:href="hashfn_8h_source.html" target="_top" xlink:title="../src/hashfn.h">
<polygon fill="white" stroke="black" points="1026,-112.5 1026,-131.5 1106,-131.5 1106,-112.5 1026,-112.5"/>
<text text-anchor="middle" x="1066" y="-119.5" font-family="Helvetica,sans-Serif" font-size="10.00">../src/hashfn.h</text>
</a>
</g>
</g>
<!-- Node1&#45;&gt;Node25 -->
<g id="edge45" class="edge"><title>Node1&#45;&gt;Node25</title>
<path fill="none" stroke="midnightblue" d="M796.065,-449.029C885.146,-434.569 1051,-400.467 1051,-347 1051,-347 1051,-347 1051,-233 1051,-200.502 1057.51,-163.095 1061.95,-141.343"/>
<polygon fill="midnightblue" stroke="midnightblue" points="1065.39,-142.013 1064.04,-131.504 1058.54,-140.559 1065.39,-142.013"/>
</g>
<!-- Node26 -->
<g id="node26" class="node"><title>Node26</title>
<g id="a_node26"><a xlink:href="semtrex_8h.html" target="_top" xlink:title="Semantic tree regular expression header file. ">
<polygon fill="white" stroke="black" points="638,-392.5 638,-411.5 724,-411.5 724,-392.5 638,-392.5"/>
<text text-anchor="middle" x="681" y="-399.5" font-family="Helvetica,sans-Serif" font-size="10.00">../src/semtrex.h</text>
</a>
</g>
</g>
<!-- Node1&#45;&gt;Node26 -->
<g id="edge47" class="edge"><title>Node1&#45;&gt;Node26</title>
<path fill="none" stroke="midnightblue" d="M731.36,-448.324C722.49,-440.341 709.125,-428.313 698.392,-418.653"/>
<polygon fill="midnightblue" stroke="midnightblue" points="700.59,-415.922 690.815,-411.834 695.907,-421.125 700.59,-415.922"/>
</g>
<!-- Node27 -->
<g id="node27" class="node"><title>Node27</title>
<g id="a_node27"><a xlink:href="receptor_8h.html" target="_top" xlink:title="receptor implementation header file ">
<polygon fill="white" stroke="black" points="758,-392.5 758,-411.5 844,-411.5 844,-392.5 758,-392.5"/>
<text text-anchor="middle" x="801" y="-399.5" font-family="Helvetica,sans-Serif" font-size="10.00">../src/receptor.h</text>
</a>
</g>
</g>
<!-- Node1&#45;&gt;Node27 -->
<g id="edge49" class="edge"><title>Node1&#45;&gt;Node27</title>
<path fill="none" stroke="midnightblue" d="M750.64,-448.324C759.51,-440.341 772.875,-428.313 783.608,-418.653"/>
<polygon fill="midnightblue" stroke="midnightblue" points="786.093,-421.125 791.185,-411.834 781.41,-415.922 786.093,-421.125"/>
</g>
<!-- Node3 -->
<g id="node3" class="node"><title>Node3</title>
<polygon fill="white" stroke="#bfbfbf" points="694.5,-0.5 694.5,-19.5 743.5,-19.5 743.5,-0.5 694.5,-0.5"/>
<text text-anchor="middle" x="719" y="-7.5" font-family="Helvetica,sans-Serif" font-size="10.00">string.h</text>
</g>
<!-- Node2&#45;&gt;Node3 -->
<g id="edge2" class="edge"><title>Node2&#45;&gt;Node3</title>
<path fill="none" stroke="midnightblue" d="M336.55,-336.476C338.762,-308.776 349.259,-220.083 395,-168 474.674,-77.2793 618.582,-34.0777 684.425,-18.3357"/>
<polygon fill="midnightblue" stroke="midnightblue" points="685.351,-21.7138 694.3,-16.0419 683.767,-14.8953 685.351,-21.7138"/>
</g>
<!-- Node4 -->
<g id="node4" class="node"><title>Node4</title>
<polygon fill="white" stroke="#bfbfbf" points="171,-56.5 171,-75.5 217,-75.5 217,-56.5 171,-56.5"/>
<text text-anchor="middle" x="194" y="-63.5" font-family="Helvetica,sans-Serif" font-size="10.00">stdio.h</text>
</g>
<!-- Node2&#45;&gt;Node4 -->
<g id="edge3" class="edge"><title>Node2&#45;&gt;Node4</title>
<path fill="none" stroke="midnightblue" d="M299.757,-339.478C220.34,-326.356 38,-290.217 38,-235 38,-235 38,-235 38,-177 38,-146.902 36.0715,-133.63 57,-112 84.329,-83.7545 129.661,-73.2287 160.637,-69.3118"/>
<polygon fill="midnightblue" stroke="midnightblue" points="161.383,-72.7512 170.942,-68.1838 160.621,-65.7928 161.383,-72.7512"/>
</g>
<!-- Node5 -->
<g id="node5" class="node"><title>Node5</title>
<polygon fill="white" stroke="#bfbfbf" points="490,-0.5 490,-19.5 538,-19.5 538,-0.5 490,-0.5"/>
<text text-anchor="middle" x="514" y="-7.5" font-family="Helvetica,sans-Serif" font-size="10.00">stdlib.h</text>
</g>
<!-- Node2&#45;&gt;Node5 -->
<g id="edge4" class="edge"><title>Node2&#45;&gt;Node5</title>
<path fill="none" stroke="midnightblue" d="M299.629,-344.502C248.024,-342.529 151.646,-334.107 78,-300 37.0522,-281.036 0,-280.126 0,-235 0,-235 0,-235 0,-121 0,-22.6495 364.39,-11.935 479.552,-11.0046"/>
<polygon fill="midnightblue" stroke="midnightblue" points="479.919,-14.5026 489.898,-10.9425 479.877,-7.50268 479.919,-14.5026"/>
</g>
<!-- Node6 -->
<g id="node6" class="node"><title>Node6</title>
<g id="a_node6"><a xlink:href="ceptr__error_8h_source.html" target="_top" xlink:title="ceptr_error.h">
<polygon fill="white" stroke="black" points="421.5,-224.5 421.5,-243.5 492.5,-243.5 492.5,-224.5 421.5,-224.5"/>
<text text-anchor="middle" x="457" y="-231.5" font-family="Helvetica,sans-Serif" font-size="10.00">ceptr_error.h</text>
</a>
</g>
</g>
<!-- Node2&#45;&gt;Node6 -->
<g id="edge5" class="edge"><title>Node2&#45;&gt;Node6</title>
<path fill="none" stroke="midnightblue" d="M345.495,-336.368C365.905,-317.814 414.196,-273.913 440.019,-250.438"/>
<polygon fill="midnightblue" stroke="midnightblue" points="442.504,-252.908 447.549,-243.591 437.796,-247.728 442.504,-252.908"/>
</g>
<!-- Node10 -->
<g id="node10" class="node"><title>Node10</title>
<g id="a_node10"><a xlink:href="tree_8h.html" target="_top" xlink:title="semantic trees header file ">
<polygon fill="white" stroke="black" points="751.5,-280.5 751.5,-299.5 792.5,-299.5 792.5,-280.5 751.5,-280.5"/>
<text text-anchor="middle" x="772" y="-287.5" font-family="Helvetica,sans-Serif" font-size="10.00">tree.h</text>
</a>
</g>
</g>
<!-- Node2&#45;&gt;Node10 -->
<g id="edge10" class="edge"><title>Node2&#45;&gt;Node10</title>
<path fill="none" stroke="midnightblue" d="M372.051,-340.535C455.84,-330.157 662.535,-304.558 741.058,-294.832"/>
<polygon fill="midnightblue" stroke="midnightblue" points="741.767,-298.271 751.261,-293.569 740.906,-291.324 741.767,-298.271"/>
</g>
<!-- Node19 -->
<g id="node19" class="node"><title>Node19</title>
<g id="a_node19"><a xlink:href="stream_8h.html" target="_top" xlink:title="streams abstraction header file ">
<polygon fill="white" stroke="black" points="271.5,-224.5 271.5,-243.5 326.5,-243.5 326.5,-224.5 271.5,-224.5"/>
<text text-anchor="middle" x="299" y="-231.5" font-family="Helvetica,sans-Serif" font-size="10.00">stream.h</text>
</a>
</g>
</g>
<!-- Node2&#45;&gt;Node19 -->
<g id="edge38" class="edge"><title>Node2&#45;&gt;Node19</title>
<path fill="none" stroke="midnightblue" d="M333.097,-336.368C327.099,-318.537 313.227,-277.295 305.146,-253.272"/>
<polygon fill="midnightblue" stroke="midnightblue" points="308.395,-251.954 301.89,-243.591 301.761,-254.185 308.395,-251.954"/>
</g>
<!-- Node20 -->
<g id="node20" class="node"><title>Node20</title>
<g id="a_node20"><a xlink:href="mtree_8h.html" target="_top" xlink:title="semantic tree matrix header file `` ">
<polygon fill="white" stroke="black" points="515,-280.5 515,-299.5 565,-299.5 565,-280.5 515,-280.5"/>
<text text-anchor="middle" x="540" y="-287.5" font-family="Helvetica,sans-Serif" font-size="10.00">mtree.h</text>
</a>
</g>
</g>
<!-- Node2&#45;&gt;Node20 -->
<g id="edge30" class="edge"><title>Node2&#45;&gt;Node20</title>
<path fill="none" stroke="midnightblue" d="M368.324,-336.444C405.658,-326.561 466.848,-310.364 505.2,-300.212"/>
<polygon fill="midnightblue" stroke="midnightblue" points="506.13,-303.586 514.901,-297.644 504.338,-296.819 506.13,-303.586"/>
</g>
<!-- Node21 -->
<g id="node21" class="node"><title>Node21</title>
<g id="a_node21"><a xlink:href="util_8h.html" target="_top" xlink:title="util.h">
<polygon fill="white" stroke="black" points="177,-280.5 177,-299.5 215,-299.5 215,-280.5 177,-280.5"/>
<text text-anchor="middle" x="196" y="-287.5" font-family="Helvetica,sans-Serif" font-size="10.00">util.h</text>
</a>
</g>
</g>
<!-- Node2&#45;&gt;Node21 -->
<g id="edge39" class="edge"><title>Node2&#45;&gt;Node21</title>
<path fill="none" stroke="midnightblue" d="M313.817,-336.444C289.751,-327.161 251.242,-312.308 224.844,-302.125"/>
<polygon fill="midnightblue" stroke="midnightblue" points="225.964,-298.806 215.374,-298.473 223.445,-305.337 225.964,-298.806"/>
</g>
<!-- Node24 -->
<g id="node24" class="node"><title>Node24</title>
<g id="a_node24"><a xlink:href="debug_8h.html" target="_top" xlink:title="debug.h">
<polygon fill="white" stroke="black" points="66.5,-112.5 66.5,-131.5 117.5,-131.5 117.5,-112.5 66.5,-112.5"/>
<text text-anchor="middle" x="92" y="-119.5" font-family="Helvetica,sans-Serif" font-size="10.00">debug.h</text>
</a>
</g>
</g>
<!-- Node2&#45;&gt;Node24 -->
<g id="edge43" class="edge"><title>Node2&#45;&gt;Node24</title>
<path fill="none" stroke="midnightblue" d="M299.917,-341.894C263.977,-337.368 208.469,-326.387 168,-300 113.164,-264.245 97.7522,-179.681 93.5353,-141.856"/>
<polygon fill="midnightblue" stroke="midnightblue" points="97.0018,-141.34 92.5548,-131.724 90.0344,-142.014 97.0018,-141.34"/>
</g>
<!-- Node6&#45;&gt;Node4 -->
<g id="edge6" class="edge"><title>Node6&#45;&gt;Node4</title>
<path fill="none" stroke="midnightblue" d="M492.853,-224.462C534.425,-214.203 598.164,-197.224 605,-188 610.293,-180.859 610.484,-174.995 605,-168 557.897,-107.92 316.454,-78.828 227.21,-70.0033"/>
<polygon fill="midnightblue" stroke="midnightblue" points="227.395,-66.5049 217.105,-69.0269 226.722,-73.4725 227.395,-66.5049"/>
</g>
<!-- Node7 -->
<g id="node7" class="node"><title>Node7</title>
<polygon fill="white" stroke="#bfbfbf" points="476,-168.5 476,-187.5 526,-187.5 526,-168.5 476,-168.5"/>
<text text-anchor="middle" x="501" y="-175.5" font-family="Helvetica,sans-Serif" font-size="10.00">signal.h</text>
</g>
<!-- Node6&#45;&gt;Node7 -->
<g id="edge7" class="edge"><title>Node6&#45;&gt;Node7</title>
<path fill="none" stroke="midnightblue" d="M464.266,-224.083C470.545,-216.377 479.788,-205.033 487.431,-195.653"/>
<polygon fill="midnightblue" stroke="midnightblue" points="490.266,-197.714 493.869,-187.751 484.839,-193.293 490.266,-197.714"/>
</g>
<!-- Node8 -->
<g id="node8" class="node"><title>Node8</title>
<polygon fill="white" stroke="#bfbfbf" points="544,-168.5 544,-187.5 596,-187.5 596,-168.5 544,-168.5"/>
<text text-anchor="middle" x="570" y="-175.5" font-family="Helvetica,sans-Serif" font-size="10.00">assert.h</text>
</g>
<!-- Node6&#45;&gt;Node8 -->
<g id="edge8" class="edge"><title>Node6&#45;&gt;Node8</title>
<path fill="none" stroke="midnightblue" d="M474.905,-224.444C493.254,-215.675 522.005,-201.935 543.094,-191.858"/>
<polygon fill="midnightblue" stroke="midnightblue" points="544.665,-194.986 552.179,-187.516 541.647,-188.67 544.665,-194.986"/>
</g>
<!-- Node9 -->
<g id="node9" class="node"><title>Node9</title>
<polygon fill="white" stroke="#bfbfbf" points="404,-168.5 404,-187.5 458,-187.5 458,-168.5 404,-168.5"/>
<text text-anchor="middle" x="431" y="-175.5" font-family="Helvetica,sans-Serif" font-size="10.00">setjmp.h</text>
</g>
<!-- Node6&#45;&gt;Node9 -->
<g id="edge9" class="edge"><title>Node6&#45;&gt;Node9</title>
<path fill="none" stroke="midnightblue" d="M452.707,-224.083C449.148,-216.691 443.978,-205.953 439.576,-196.811"/>
<polygon fill="midnightblue" stroke="midnightblue" points="442.705,-195.243 435.213,-187.751 436.398,-198.279 442.705,-195.243"/>
</g>
<!-- Node10&#45;&gt;Node3 -->
<g id="edge11" class="edge"><title>Node10&#45;&gt;Node3</title>
<path fill="none" stroke="midnightblue" d="M792.553,-286.934C825.043,-282.916 889.36,-271.856 936,-244 970.275,-223.529 998,-218.923 998,-179 998,-179 998,-179 998,-121 998,-75.5318 959.844,-75.9774 919,-56 864.884,-29.5314 794.895,-18.3916 753.681,-13.8814"/>
<polygon fill="midnightblue" stroke="midnightblue" points="753.907,-10.3863 743.602,-12.8486 753.193,-17.3498 753.907,-10.3863"/>
</g>
<!-- Node10&#45;&gt;Node5 -->
<g id="edge12" class="edge"><title>Node10&#45;&gt;Node5</title>
<path fill="none" stroke="midnightblue" d="M792.788,-284.013C813.522,-277.975 844.83,-265.795 863,-244 900.619,-198.875 909.04,-155.901 870,-112 826.742,-63.3554 628.886,-28.4348 548.301,-15.9929"/>
<polygon fill="midnightblue" stroke="midnightblue" points="548.593,-12.4972 538.181,-14.4538 547.541,-19.4176 548.593,-12.4972"/>
</g>
<!-- Node10&#45;&gt;Node6 -->
<g id="edge13" class="edge"><title>Node10&#45;&gt;Node6</title>
<path fill="none" stroke="midnightblue" d="M751.332,-285.457C701.209,-276.864 572.216,-254.751 502.816,-242.854"/>
<polygon fill="midnightblue" stroke="midnightblue" points="503.065,-239.346 492.618,-241.106 501.882,-246.245 503.065,-239.346"/>
</g>
<!-- Node11 -->
<g id="node11" class="node"><title>Node11</title>
<g id="a_node11"><a xlink:href="sys__symbols_8h.html" target="_top" xlink:title="Defines hard&#45;coded system defined symbols. ">
<polygon fill="white" stroke="black" points="625.5,-224.5 625.5,-243.5 708.5,-243.5 708.5,-224.5 625.5,-224.5"/>
<text text-anchor="middle" x="667" y="-231.5" font-family="Helvetica,sans-Serif" font-size="10.00">sys_symbols.h</text>
</a>
</g>
</g>
<!-- Node10&#45;&gt;Node11 -->
<g id="edge14" class="edge"><title>Node10&#45;&gt;Node11</title>
<path fill="none" stroke="midnightblue" d="M755.13,-280.324C738.291,-271.664 712.193,-258.242 692.762,-248.249"/>
<polygon fill="midnightblue" stroke="midnightblue" points="694.322,-245.116 683.828,-243.655 691.12,-251.341 694.322,-245.116"/>
</g>
<!-- Node12 -->
<g id="node12" class="node"><title>Node12</title>
<g id="a_node12"><a xlink:href="sys__structures_8h.html" target="_top" xlink:title="Defines hard&#45;coded system defined structures. ">
<polygon fill="white" stroke="black" points="766.5,-168.5 766.5,-187.5 855.5,-187.5 855.5,-168.5 766.5,-168.5"/>
<text text-anchor="middle" x="811" y="-175.5" font-family="Helvetica,sans-Serif" font-size="10.00">sys_structures.h</text>
</a>
</g>
</g>
<!-- Node10&#45;&gt;Node12 -->
<g id="edge25" class="edge"><title>Node10&#45;&gt;Node12</title>
<path fill="none" stroke="midnightblue" d="M788.633,-280.464C801.488,-272.841 818.339,-260.356 826,-244 833.046,-228.956 827.487,-210.365 821.236,-196.924"/>
<polygon fill="midnightblue" stroke="midnightblue" points="824.219,-195.071 816.519,-187.793 818,-198.284 824.219,-195.071"/>
</g>
<!-- Node13 -->
<g id="node13" class="node"><title>Node13</title>
<g id="a_node13"><a xlink:href="ceptr__types_8h_source.html" target="_top" xlink:title="ceptr_types.h">
<polygon fill="white" stroke="black" points="785,-112.5 785,-131.5 861,-131.5 861,-112.5 785,-112.5"/>
<text text-anchor="middle" x="823" y="-119.5" font-family="Helvetica,sans-Serif" font-size="10.00">ceptr_types.h</text>
</a>
</g>
</g>
<!-- Node10&#45;&gt;Node13 -->
<g id="edge27" class="edge"><title>Node10&#45;&gt;Node13</title>
<path fill="none" stroke="midnightblue" d="M791.94,-280.404C807.451,-272.821 828.532,-260.421 842,-244 858.957,-223.324 859.024,-214.274 864,-188 865.654,-179.266 867.21,-176.289 864,-168 859.546,-156.498 850.632,-146.131 842.251,-138.255"/>
<polygon fill="midnightblue" stroke="midnightblue" points="844.372,-135.46 834.541,-131.51 839.763,-140.729 844.372,-135.46"/>
</g>
<!-- Node18 -->
<g id="node18" class="node"><title>Node18</title>
<g id="a_node18"><a xlink:href="sys__processes_8h.html" target="_top" xlink:title="Defines hard&#45;coded system defined processes. ">
<polygon fill="white" stroke="black" points="726.5,-224.5 726.5,-243.5 817.5,-243.5 817.5,-224.5 726.5,-224.5"/>
<text text-anchor="middle" x="772" y="-231.5" font-family="Helvetica,sans-Serif" font-size="10.00">sys_processes.h</text>
</a>
</g>
</g>
<!-- Node10&#45;&gt;Node18 -->
<g id="edge26" class="edge"><title>Node10&#45;&gt;Node18</title>
<path fill="none" stroke="midnightblue" d="M772,-280.083C772,-273.006 772,-262.861 772,-253.986"/>
<polygon fill="midnightblue" stroke="midnightblue" points="775.5,-253.751 772,-243.751 768.5,-253.751 775.5,-253.751"/>
</g>
<!-- Node10&#45;&gt;Node19 -->
<g id="edge28" class="edge"><title>Node10&#45;&gt;Node19</title>
<path fill="none" stroke="midnightblue" d="M751.372,-286.645C678.361,-278.31 431.511,-250.128 336.606,-239.293"/>
<polygon fill="midnightblue" stroke="midnightblue" points="336.923,-235.807 326.59,-238.15 336.129,-242.762 336.923,-235.807"/>
</g>
<!-- Node11&#45;&gt;Node12 -->
<g id="edge15" class="edge"><title>Node11&#45;&gt;Node12</title>
<path fill="none" stroke="midnightblue" d="M689.817,-224.444C713.832,-215.438 751.829,-201.189 778.869,-191.049"/>
<polygon fill="midnightblue" stroke="midnightblue" points="780.155,-194.305 788.29,-187.516 777.697,-187.751 780.155,-194.305"/>
</g>
<!-- Node11&#45;&gt;Node13 -->
<g id="edge24" class="edge"><title>Node11&#45;&gt;Node13</title>
<path fill="none" stroke="midnightblue" d="M678.578,-224.485C695.644,-211.968 728.603,-187.93 757,-168 771.941,-157.514 788.966,-145.914 801.982,-137.119"/>
<polygon fill="midnightblue" stroke="midnightblue" points="803.943,-140.018 810.277,-131.526 800.029,-134.214 803.943,-140.018"/>
</g>
<!-- Node12&#45;&gt;Node13 -->
<g id="edge16" class="edge"><title>Node12&#45;&gt;Node13</title>
<path fill="none" stroke="midnightblue" d="M812.982,-168.083C814.572,-160.927 816.859,-150.635 818.846,-141.691"/>
<polygon fill="midnightblue" stroke="midnightblue" points="822.303,-142.272 821.055,-131.751 815.469,-140.754 822.303,-142.272"/>
</g>
<!-- Node13&#45;&gt;Node4 -->
<g id="edge18" class="edge"><title>Node13&#45;&gt;Node4</title>
<path fill="none" stroke="midnightblue" d="M784.6,-117.703C670.491,-107.907 334.737,-79.0824 227.401,-69.8675"/>
<polygon fill="midnightblue" stroke="midnightblue" points="227.431,-66.3573 217.168,-68.989 226.832,-73.3316 227.431,-66.3573"/>
</g>
<!-- Node14 -->
<g id="node14" class="node"><title>Node14</title>
<polygon fill="white" stroke="#bfbfbf" points="1033.5,-56.5 1033.5,-75.5 1082.5,-75.5 1082.5,-56.5 1033.5,-56.5"/>
<text text-anchor="middle" x="1058" y="-63.5" font-family="Helvetica,sans-Serif" font-size="10.00">stdint.h</text>
</g>
<!-- Node13&#45;&gt;Node14 -->
<g id="edge17" class="edge"><title>Node13&#45;&gt;Node14</title>
<path fill="none" stroke="midnightblue" d="M860.236,-112.444C905.048,-102.147 979.692,-84.9941 1023.33,-74.9673"/>
<polygon fill="midnightblue" stroke="midnightblue" points="1024.23,-78.351 1033.19,-72.7003 1022.66,-71.5288 1024.23,-78.351"/>
</g>
<!-- Node15 -->
<g id="node15" class="node"><title>Node15</title>
<g id="a_node15"><a xlink:href="uthash_8h_source.html" target="_top" xlink:title="uthash.h">
<polygon fill="white" stroke="black" points="856,-56.5 856,-75.5 910,-75.5 910,-56.5 856,-56.5"/>
<text text-anchor="middle" x="883" y="-63.5" font-family="Helvetica,sans-Serif" font-size="10.00">uthash.h</text>
</a>
</g>
</g>
<!-- Node13&#45;&gt;Node15 -->
<g id="edge19" class="edge"><title>Node13&#45;&gt;Node15</title>
<path fill="none" stroke="midnightblue" d="M832.64,-112.324C841.51,-104.341 854.875,-92.3128 865.608,-82.6529"/>
<polygon fill="midnightblue" stroke="midnightblue" points="868.093,-85.1251 873.185,-75.8339 863.41,-79.922 868.093,-85.1251"/>
</g>
<!-- Node15&#45;&gt;Node3 -->
<g id="edge20" class="edge"><title>Node15&#45;&gt;Node3</title>
<path fill="none" stroke="midnightblue" d="M857.014,-56.4435C828.896,-47.1854 783.948,-32.3854 753.031,-22.2054"/>
<polygon fill="midnightblue" stroke="midnightblue" points="754.118,-18.8786 743.525,-19.0755 751.929,-25.5275 754.118,-18.8786"/>
</g>
<!-- Node15&#45;&gt;Node5 -->
<g id="edge22" class="edge"><title>Node15&#45;&gt;Node5</title>
<path fill="none" stroke="midnightblue" d="M855.713,-58.6926C851.147,-57.7284 846.448,-56.7921 842,-56 735.502,-37.0368 608.32,-21.6349 548.423,-14.8069"/>
<polygon fill="midnightblue" stroke="midnightblue" points="548.711,-11.3172 538.381,-13.6708 547.924,-18.2729 548.711,-11.3172"/>
</g>
<!-- Node16 -->
<g id="node16" class="node"><title>Node16</title>
<polygon fill="white" stroke="#bfbfbf" points="820,-0.5 820,-19.5 872,-19.5 872,-0.5 820,-0.5"/>
<text text-anchor="middle" x="846" y="-7.5" font-family="Helvetica,sans-Serif" font-size="10.00">stddef.h</text>
</g>
<!-- Node15&#45;&gt;Node16 -->
<g id="edge21" class="edge"><title>Node15&#45;&gt;Node16</title>
<path fill="none" stroke="midnightblue" d="M876.89,-56.083C871.718,-48.5341 864.154,-37.4948 857.806,-28.2298"/>
<polygon fill="midnightblue" stroke="midnightblue" points="860.536,-26.0221 851.996,-19.7511 854.761,-29.9787 860.536,-26.0221"/>
</g>
<!-- Node17 -->
<g id="node17" class="node"><title>Node17</title>
<polygon fill="white" stroke="#bfbfbf" points="890.5,-0.5 890.5,-19.5 949.5,-19.5 949.5,-0.5 890.5,-0.5"/>
<text text-anchor="middle" x="920" y="-7.5" font-family="Helvetica,sans-Serif" font-size="10.00">inttypes.h</text>
</g>
<!-- Node15&#45;&gt;Node17 -->
<g id="edge23" class="edge"><title>Node15&#45;&gt;Node17</title>
<path fill="none" stroke="midnightblue" d="M889.11,-56.083C894.282,-48.5341 901.846,-37.4948 908.194,-28.2298"/>
<polygon fill="midnightblue" stroke="midnightblue" points="911.239,-29.9787 914.004,-19.7511 905.464,-26.0221 911.239,-29.9787"/>
</g>
<!-- Node19&#45;&gt;Node4 -->
<g id="edge29" class="edge"><title>Node19&#45;&gt;Node4</title>
<path fill="none" stroke="midnightblue" d="M293.355,-224.075C276.612,-197.606 227.024,-119.209 204.886,-84.2097"/>
<polygon fill="midnightblue" stroke="midnightblue" points="207.723,-82.1484 199.42,-75.5681 201.807,-85.8904 207.723,-82.1484"/>
</g>
<!-- Node20&#45;&gt;Node3 -->
<g id="edge31" class="edge"><title>Node20&#45;&gt;Node3</title>
<path fill="none" stroke="midnightblue" d="M540.868,-280.07C542.588,-266.594 547.511,-240.849 561,-224 580.674,-199.424 600.097,-210.611 622,-188 668.859,-139.625 700.032,-64.1188 712.66,-29.4876"/>
<polygon fill="midnightblue" stroke="midnightblue" points="716.064,-30.361 716.105,-19.7662 709.466,-28.023 716.064,-30.361"/>
</g>
<!-- Node20&#45;&gt;Node5 -->
<g id="edge32" class="edge"><title>Node20&#45;&gt;Node5</title>
<path fill="none" stroke="midnightblue" d="M514.982,-286.87C486.219,-283.092 439.451,-272.667 412,-244 394.011,-225.214 398.819,-213.729 395,-188 384.581,-117.809 456.445,-53.5192 493.24,-25.6287"/>
<polygon fill="midnightblue" stroke="midnightblue" points="495.387,-28.3941 501.353,-19.6384 491.229,-22.7628 495.387,-28.3941"/>
</g>
<!-- Node20&#45;&gt;Node6 -->
<g id="edge33" class="edge"><title>Node20&#45;&gt;Node6</title>
<path fill="none" stroke="midnightblue" d="M526.665,-280.324C513.838,-271.979 494.215,-259.212 479.06,-249.352"/>
<polygon fill="midnightblue" stroke="midnightblue" points="480.593,-246.174 470.302,-243.655 476.776,-252.042 480.593,-246.174"/>
</g>
<!-- Node20&#45;&gt;Node11 -->
<g id="edge34" class="edge"><title>Node20&#45;&gt;Node11</title>
<path fill="none" stroke="midnightblue" d="M560.124,-280.444C581.024,-271.557 613.935,-257.563 637.716,-247.451"/>
<polygon fill="midnightblue" stroke="midnightblue" points="639.138,-250.65 646.971,-243.516 636.398,-244.208 639.138,-250.65"/>
</g>
<!-- Node20&#45;&gt;Node12 -->
<g id="edge35" class="edge"><title>Node20&#45;&gt;Node12</title>
<path fill="none" stroke="midnightblue" d="M547.472,-280.34C560.112,-266.267 587.167,-238.544 616,-224 660.326,-201.641 715.922,-190.223 756.397,-184.497"/>
<polygon fill="midnightblue" stroke="midnightblue" points="756.9,-187.961 766.345,-183.161 755.968,-181.023 756.9,-187.961"/>
</g>
<!-- Node20&#45;&gt;Node13 -->
<g id="edge37" class="edge"><title>Node20&#45;&gt;Node13</title>
<path fill="none" stroke="midnightblue" d="M543.689,-280.172C549.878,-266.361 563.608,-239.613 583,-224 617.524,-196.205 635.054,-204.967 676,-188 717.689,-170.725 765.369,-149.337 794.835,-135.926"/>
<polygon fill="midnightblue" stroke="midnightblue" points="796.449,-139.036 804.094,-131.701 793.543,-132.668 796.449,-139.036"/>
</g>
<!-- Node20&#45;&gt;Node18 -->
<g id="edge36" class="edge"><title>Node20&#45;&gt;Node18</title>
<path fill="none" stroke="midnightblue" d="M565.27,-283.118C603.644,-274.186 677.238,-257.057 725.468,-245.831"/>
<polygon fill="midnightblue" stroke="midnightblue" points="726.407,-249.206 735.353,-243.53 724.82,-242.388 726.407,-249.206"/>
</g>
<!-- Node21&#45;&gt;Node4 -->
<g id="edge41" class="edge"><title>Node21&#45;&gt;Node4</title>
<path fill="none" stroke="midnightblue" d="M176.985,-281.32C162.003,-274.13 142.164,-261.808 133,-244 104.315,-188.26 153.475,-116.044 179.467,-83.8149"/>
<polygon fill="midnightblue" stroke="midnightblue" points="182.401,-85.7603 186.099,-75.832 177.016,-81.2869 182.401,-85.7603"/>
</g>
<!-- Node22 -->
<g id="node22" class="node"><title>Node22</title>
<polygon fill="white" stroke="#bfbfbf" points="204.5,-224.5 204.5,-243.5 253.5,-243.5 253.5,-224.5 204.5,-224.5"/>
<text text-anchor="middle" x="229" y="-231.5" font-family="Helvetica,sans-Serif" font-size="10.00">ctype.h</text>
</g>
<!-- Node21&#45;&gt;Node22 -->
<g id="edge40" class="edge"><title>Node21&#45;&gt;Node22</title>
<path fill="none" stroke="midnightblue" d="M201.449,-280.083C206.014,-272.613 212.668,-261.724 218.293,-252.52"/>
<polygon fill="midnightblue" stroke="midnightblue" points="221.424,-254.109 223.652,-243.751 215.451,-250.459 221.424,-254.109"/>
</g>
<!-- Node23 -->
<g id="node23" class="node"><title>Node23</title>
<polygon fill="white" stroke="#bfbfbf" points="142,-224.5 142,-243.5 186,-243.5 186,-224.5 142,-224.5"/>
<text text-anchor="middle" x="164" y="-231.5" font-family="Helvetica,sans-Serif" font-size="10.00">time.h</text>
</g>
<!-- Node21&#45;&gt;Node23 -->
<g id="edge42" class="edge"><title>Node21&#45;&gt;Node23</title>
<path fill="none" stroke="midnightblue" d="M190.716,-280.083C186.289,-272.613 179.837,-261.724 174.382,-252.52"/>
<polygon fill="midnightblue" stroke="midnightblue" points="177.295,-250.57 169.186,-243.751 171.273,-254.138 177.295,-250.57"/>
</g>
<!-- Node24&#45;&gt;Node4 -->
<g id="edge44" class="edge"><title>Node24&#45;&gt;Node4</title>
<path fill="none" stroke="midnightblue" d="M108.388,-112.324C124.671,-103.703 149.867,-90.3643 168.716,-80.3855"/>
<polygon fill="midnightblue" stroke="midnightblue" points="170.452,-83.4267 177.653,-75.6545 167.177,-77.2402 170.452,-83.4267"/>
</g>
<!-- Node25&#45;&gt;Node14 -->
<g id="edge46" class="edge"><title>Node25&#45;&gt;Node14</title>
<path fill="none" stroke="midnightblue" d="M1064.68,-112.083C1063.62,-104.927 1062.09,-94.6353 1060.77,-85.6911"/>
<polygon fill="midnightblue" stroke="midnightblue" points="1064.22,-85.1302 1059.3,-75.7511 1057.3,-86.1561 1064.22,-85.1302"/>
</g>
<!-- Node26&#45;&gt;Node10 -->
<g id="edge48" class="edge"><title>Node26&#45;&gt;Node10</title>
<path fill="none" stroke="midnightblue" d="M678.639,-392.192C675.612,-378.875 671.969,-353.336 683,-336 695.962,-315.631 721.208,-304.101 741.512,-297.824"/>
<polygon fill="midnightblue" stroke="midnightblue" points="742.615,-301.149 751.296,-295.075 740.722,-294.41 742.615,-301.149"/>
</g>
<!-- Node27&#45;&gt;Node10 -->
<g id="edge50" class="edge"><title>Node27&#45;&gt;Node10</title>
<path fill="none" stroke="midnightblue" d="M798.724,-392.368C794.023,-374.537 783.151,-333.295 776.817,-309.272"/>
<polygon fill="midnightblue" stroke="midnightblue" points="780.199,-308.369 774.265,-299.591 773.43,-310.153 780.199,-308.369"/>
</g>
<!-- Node28 -->
<g id="node28" class="node"><title>Node28</title>
<g id="a_node28"><a xlink:href="def_8h.html" target="_top" xlink:title="header file for symbol and structure definition functions ">
<polygon fill="white" stroke="black" points="878,-336.5 878,-355.5 916,-355.5 916,-336.5 878,-336.5"/>
<text text-anchor="middle" x="897" y="-343.5" font-family="Helvetica,sans-Serif" font-size="10.00">def.h</text>
</a>
</g>
</g>
<!-- Node27&#45;&gt;Node28 -->
<g id="edge51" class="edge"><title>Node27&#45;&gt;Node28</title>
<path fill="none" stroke="midnightblue" d="M816.424,-392.324C831.54,-383.822 854.815,-370.729 872.471,-360.797"/>
<polygon fill="midnightblue" stroke="midnightblue" points="874.614,-363.608 881.614,-355.655 871.183,-357.507 874.614,-363.608"/>
</g>
<!-- Node30 -->
<g id="node30" class="node"><title>Node30</title>
<g id="a_node30"><a xlink:href="label_8h.html" target="_top" xlink:title="Label tables map human readable text strings to parts of semantic trees. ">
<polygon fill="white" stroke="black" points="937.5,-280.5 937.5,-299.5 982.5,-299.5 982.5,-280.5 937.5,-280.5"/>
<text text-anchor="middle" x="960" y="-287.5" font-family="Helvetica,sans-Serif" font-size="10.00">label.h</text>
</a>
</g>
</g>
<!-- Node27&#45;&gt;Node30 -->
<g id="edge54" class="edge"><title>Node27&#45;&gt;Node30</title>
<path fill="none" stroke="midnightblue" d="M844.287,-393.392C870.115,-387.022 902.21,-375.687 925,-356 939.221,-343.715 948.633,-324.18 954.08,-309.729"/>
<polygon fill="midnightblue" stroke="midnightblue" points="957.528,-310.469 957.487,-299.874 950.912,-308.182 957.528,-310.469"/>
</g>
<!-- Node31 -->
<g id="node31" class="node"><title>Node31</title>
<g id="a_node31"><a xlink:href="process_8h.html" target="_top" xlink:title="processing header files ">
<polygon fill="white" stroke="black" points="800.5,-336.5 800.5,-355.5 859.5,-355.5 859.5,-336.5 800.5,-336.5"/>
<text text-anchor="middle" x="830" y="-343.5" font-family="Helvetica,sans-Serif" font-size="10.00">process.h</text>
</a>
</g>
</g>
<!-- Node27&#45;&gt;Node31 -->
<g id="edge56" class="edge"><title>Node27&#45;&gt;Node31</title>
<path fill="none" stroke="midnightblue" d="M805.789,-392.083C809.758,-384.691 815.525,-373.953 820.435,-364.811"/>
<polygon fill="midnightblue" stroke="midnightblue" points="823.653,-366.217 825.3,-355.751 817.486,-362.905 823.653,-366.217"/>
</g>
<!-- Node32 -->
<g id="node32" class="node"><title>Node32</title>
<g id="a_node32"><a xlink:href="scape_8h.html" target="_top" xlink:title="scape header files ">
<polygon fill="white" stroke="black" points="692.5,-336.5 692.5,-355.5 743.5,-355.5 743.5,-336.5 692.5,-336.5"/>
<text text-anchor="middle" x="718" y="-343.5" font-family="Helvetica,sans-Serif" font-size="10.00">scape.h</text>
</a>
</g>
</g>
<!-- Node27&#45;&gt;Node32 -->
<g id="edge58" class="edge"><title>Node27&#45;&gt;Node32</title>
<path fill="none" stroke="midnightblue" d="M787.665,-392.324C774.838,-383.979 755.215,-371.212 740.06,-361.352"/>
<polygon fill="midnightblue" stroke="midnightblue" points="741.593,-358.174 731.302,-355.655 737.776,-364.042 741.593,-358.174"/>
</g>
<!-- Node28&#45;&gt;Node10 -->
<g id="edge52" class="edge"><title>Node28&#45;&gt;Node10</title>
<path fill="none" stroke="midnightblue" d="M877.743,-336.681C857.278,-327.84 824.681,-313.758 801.085,-303.565"/>
<polygon fill="midnightblue" stroke="midnightblue" points="802.468,-300.349 791.899,-299.597 799.691,-306.775 802.468,-300.349"/>
</g>
<!-- Node29 -->
<g id="node29" class="node"><title>Node29</title>
<polygon fill="white" stroke="#bfbfbf" points="867,-280.5 867,-299.5 919,-299.5 919,-280.5 867,-280.5"/>
<text text-anchor="middle" x="893" y="-287.5" font-family="Helvetica,sans-Serif" font-size="10.00">stdarg.h</text>
</g>
<!-- Node28&#45;&gt;Node29 -->
<g id="edge53" class="edge"><title>Node28&#45;&gt;Node29</title>
<path fill="none" stroke="midnightblue" d="M896.339,-336.083C895.815,-329.006 895.064,-318.861 894.406,-309.986"/>
<polygon fill="midnightblue" stroke="midnightblue" points="897.877,-309.465 893.648,-299.751 890.897,-309.982 897.877,-309.465"/>
</g>
<!-- Node30&#45;&gt;Node13 -->
<g id="edge55" class="edge"><title>Node30&#45;&gt;Node13</title>
<path fill="none" stroke="midnightblue" d="M955.481,-280.453C944.29,-259.749 913.674,-205.83 879,-168 868.627,-156.682 855.282,-145.844 844.221,-137.642"/>
<polygon fill="midnightblue" stroke="midnightblue" points="846.099,-134.68 835.941,-131.669 842.004,-140.358 846.099,-134.68"/>
</g>
<!-- Node31&#45;&gt;Node10 -->
<g id="edge57" class="edge"><title>Node31&#45;&gt;Node10</title>
<path fill="none" stroke="midnightblue" d="M820.681,-336.324C812.107,-328.341 799.188,-316.313 788.812,-306.653"/>
<polygon fill="midnightblue" stroke="midnightblue" points="791.192,-304.086 781.488,-299.834 786.422,-309.21 791.192,-304.086"/>
</g>
<!-- Node32&#45;&gt;Node10 -->
<g id="edge59" class="edge"><title>Node32&#45;&gt;Node10</title>
<path fill="none" stroke="midnightblue" d="M726.917,-336.083C734.78,-328.22 746.431,-316.569 755.919,-307.081"/>
<polygon fill="midnightblue" stroke="midnightblue" points="758.653,-309.297 763.249,-299.751 753.703,-304.347 758.653,-309.297"/>
</g>
</g>
</svg>
