<?xml version="1.0" encoding="UTF-8" standalone="no"?>
<!DOCTYPE svg PUBLIC "-//W3C//DTD SVG 1.1//EN"
 "http://www.w3.org/Graphics/SVG/1.1/DTD/svg11.dtd">
<!-- Generated by graphviz version 2.38.0 (20140413.2041)
 -->
<!-- Title: src/semtrex.h Pages: 1 -->
<svg width="1037pt" height="196pt"
 viewBox="0.00 0.00 1037.00 196.00" xmlns="http://www.w3.org/2000/svg" xmlns:xlink="http://www.w3.org/1999/xlink">
<g id="graph0" class="graph" transform="scale(1 1) rotate(0) translate(4 192)">
<title>src/semtrex.h</title>
<polygon fill="white" stroke="none" points="-4,4 -4,-192 1033,-192 1033,4 -4,4"/>
<!-- Node1 -->
<g id="node1" class="node"><title>Node1</title>
<polygon fill="#bfbfbf" stroke="black" points="420,-168.5 420,-187.5 497,-187.5 497,-168.5 420,-168.5"/>
<text text-anchor="middle" x="458.5" y="-175.5" font-family="Helvetica,sans-Serif" font-size="10.00">src/semtrex.h</text>
</g>
<!-- Node2 -->
<g id="node2" class="node"><title>Node2</title>
<g id="a_node2"><a xlink:href="accumulator_8c.html" target="_top" xlink:title="implementation file for accumulator ">
<polygon fill="white" stroke="black" points="0,-112.5 0,-131.5 95,-131.5 95,-112.5 0,-112.5"/>
<text text-anchor="middle" x="47.5" y="-119.5" font-family="Helvetica,sans-Serif" font-size="10.00">src/accumulator.c</text>
</a>
</g>
</g>
<!-- Node1&#45;&gt;Node2 -->
<g id="edge1" class="edge"><title>Node1&#45;&gt;Node2</title>
<path fill="none" stroke="midnightblue" d="M409.773,-171.343C341.296,-163.276 212.732,-147.696 103.5,-132 100.771,-131.608 97.9688,-131.194 95.1425,-130.767"/>
<polygon fill="midnightblue" stroke="midnightblue" points="409.493,-174.835 419.833,-172.526 410.31,-167.882 409.493,-174.835"/>
</g>
<!-- Node3 -->
<g id="node3" class="node"><title>Node3</title>
<g id="a_node3"><a xlink:href="def_8c.html" target="_top" xlink:title="implementation file for symbol and structure definition functions ">
<polygon fill="white" stroke="black" points="113,-112.5 113,-131.5 168,-131.5 168,-112.5 113,-112.5"/>
<text text-anchor="middle" x="140.5" y="-119.5" font-family="Helvetica,sans-Serif" font-size="10.00">src/def.c</text>
</a>
</g>
</g>
<!-- Node1&#45;&gt;Node3 -->
<g id="edge2" class="edge"><title>Node1&#45;&gt;Node3</title>
<path fill="none" stroke="midnightblue" d="M409.655,-170.385C353.434,-162.491 258.433,-148.297 177.5,-132 174.519,-131.4 171.414,-130.725 168.327,-130.021"/>
<polygon fill="midnightblue" stroke="midnightblue" points="409.302,-173.869 419.689,-171.784 410.269,-166.936 409.302,-173.869"/>
</g>
<!-- Node4 -->
<g id="node4" class="node"><title>Node4</title>
<g id="a_node4"><a xlink:href="process_8c.html" target="_top" xlink:title="implementation of ceptr processing: instructions and run tree reduction ">
<polygon fill="white" stroke="black" points="186.5,-112.5 186.5,-131.5 262.5,-131.5 262.5,-112.5 186.5,-112.5"/>
<text text-anchor="middle" x="224.5" y="-119.5" font-family="Helvetica,sans-Serif" font-size="10.00">src/process.c</text>
</a>
</g>
</g>
<!-- Node1&#45;&gt;Node4 -->
<g id="edge3" class="edge"><title>Node1&#45;&gt;Node4</title>
<path fill="none" stroke="midnightblue" d="M411.496,-166.153C367.283,-155.95 301.984,-140.881 261.405,-131.516"/>
<polygon fill="midnightblue" stroke="midnightblue" points="410.891,-169.605 421.422,-168.444 412.465,-162.784 410.891,-169.605"/>
</g>
<!-- Node5 -->
<g id="node5" class="node"><title>Node5</title>
<g id="a_node5"><a xlink:href="receptor_8c.html" target="_top" xlink:title="receptor implementation ">
<polygon fill="white" stroke="black" points="281,-112.5 281,-131.5 358,-131.5 358,-112.5 281,-112.5"/>
<text text-anchor="middle" x="319.5" y="-119.5" font-family="Helvetica,sans-Serif" font-size="10.00">src/receptor.c</text>
</a>
</g>
</g>
<!-- Node1&#45;&gt;Node5 -->
<g id="edge4" class="edge"><title>Node1&#45;&gt;Node5</title>
<path fill="none" stroke="midnightblue" d="M427.024,-164.772C400.915,-154.629 364.461,-140.467 341.422,-131.516"/>
<polygon fill="midnightblue" stroke="midnightblue" points="425.886,-168.085 436.475,-168.444 428.421,-161.56 425.886,-168.085"/>
</g>
<!-- Node6 -->
<g id="node6" class="node"><title>Node6</title>
<g id="a_node6"><a xlink:href="semtrex_8c.html" target="_top" xlink:title="semtrex implementation ">
<polygon fill="white" stroke="black" points="376,-112.5 376,-131.5 453,-131.5 453,-112.5 376,-112.5"/>
<text text-anchor="middle" x="414.5" y="-119.5" font-family="Helvetica,sans-Serif" font-size="10.00">src/semtrex.c</text>
</a>
</g>
</g>
<!-- Node1&#45;&gt;Node6 -->
<g id="edge5" class="edge"><title>Node1&#45;&gt;Node6</title>
<path fill="none" stroke="midnightblue" d="M444.765,-160.144C437.099,-150.736 427.867,-139.405 421.631,-131.751"/>
<polygon fill="midnightblue" stroke="midnightblue" points="442.204,-162.541 451.234,-168.083 447.631,-158.12 442.204,-162.541"/>
</g>
<!-- Node7 -->
<g id="node7" class="node"><title>Node7</title>
<g id="a_node7"><a xlink:href="shell_8c.html" target="_top" xlink:title="implementation of a command line shell receptor ">
<polygon fill="white" stroke="black" points="471.5,-112.5 471.5,-131.5 533.5,-131.5 533.5,-112.5 471.5,-112.5"/>
<text text-anchor="middle" x="502.5" y="-119.5" font-family="Helvetica,sans-Serif" font-size="10.00">src/shell.c</text>
</a>
</g>
</g>
<!-- Node1&#45;&gt;Node7 -->
<g id="edge6" class="edge"><title>Node1&#45;&gt;Node7</title>
<path fill="none" stroke="midnightblue" d="M472.235,-160.144C479.901,-150.736 489.133,-139.405 495.369,-131.751"/>
<polygon fill="midnightblue" stroke="midnightblue" points="469.369,-158.12 465.766,-168.083 474.796,-162.541 469.369,-158.12"/>
</g>
<!-- Node8 -->
<g id="node8" class="node"><title>Node8</title>
<g id="a_node8"><a xlink:href="http__example_8h.html" target="_top" xlink:title="spec/http_example.h">
<polygon fill="white" stroke="black" points="551,-112.5 551,-131.5 658,-131.5 658,-112.5 551,-112.5"/>
<text text-anchor="middle" x="604.5" y="-119.5" font-family="Helvetica,sans-Serif" font-size="10.00">spec/http_example.h</text>
</a>
</g>
</g>
<!-- Node1&#45;&gt;Node8 -->
<g id="edge7" class="edge"><title>Node1&#45;&gt;Node8</title>
<path fill="none" stroke="midnightblue" d="M491.199,-164.906C518.648,-154.754 557.168,-140.506 581.474,-131.516"/>
<polygon fill="midnightblue" stroke="midnightblue" points="489.799,-161.692 481.634,-168.444 492.227,-168.257 489.799,-161.692"/>
</g>
<!-- Node14 -->
<g id="node14" class="node"><title>Node14</title>
<g id="a_node14"><a xlink:href="def__spec_8h.html" target="_top" xlink:title="spec/def_spec.h">
<polygon fill="white" stroke="black" points="676,-56.5 676,-75.5 765,-75.5 765,-56.5 676,-56.5"/>
<text text-anchor="middle" x="720.5" y="-63.5" font-family="Helvetica,sans-Serif" font-size="10.00">spec/def_spec.h</text>
</a>
</g>
</g>
<!-- Node1&#45;&gt;Node14 -->
<g id="edge16" class="edge"><title>Node1&#45;&gt;Node14</title>
<path fill="none" stroke="midnightblue" d="M507.174,-175.567C551.83,-172.253 618.311,-162.118 667.5,-132 690.597,-117.858 708.11,-89.953 715.96,-75.7499"/>
<polygon fill="midnightblue" stroke="midnightblue" points="506.904,-172.077 497.154,-176.224 507.361,-179.062 506.904,-172.077"/>
</g>
<!-- Node15 -->
<g id="node15" class="node"><title>Node15</title>
<g id="a_node15"><a xlink:href="semtrex__spec_8h.html" target="_top" xlink:title="spec/semtrex_spec.h">
<polygon fill="white" stroke="black" points="783.5,-56.5 783.5,-75.5 893.5,-75.5 893.5,-56.5 783.5,-56.5"/>
<text text-anchor="middle" x="838.5" y="-63.5" font-family="Helvetica,sans-Serif" font-size="10.00">spec/semtrex_spec.h</text>
</a>
</g>
</g>
<!-- Node1&#45;&gt;Node15 -->
<g id="edge18" class="edge"><title>Node1&#45;&gt;Node15</title>
<path fill="none" stroke="midnightblue" d="M507.361,-170.927C555.264,-164.202 629.992,-151.639 692.5,-132 741.469,-116.614 795.909,-89.5206 822.339,-75.6756"/>
<polygon fill="midnightblue" stroke="midnightblue" points="506.696,-167.486 497.265,-172.314 507.648,-174.421 506.696,-167.486"/>
</g>
<!-- Node16 -->
<g id="node16" class="node"><title>Node16</title>
<g id="a_node16"><a xlink:href="profile__example_8h.html" target="_top" xlink:title="spec/profile_example.h">
<polygon fill="white" stroke="black" points="912,-56.5 912,-75.5 1029,-75.5 1029,-56.5 912,-56.5"/>
<text text-anchor="middle" x="970.5" y="-63.5" font-family="Helvetica,sans-Serif" font-size="10.00">spec/profile_example.h</text>
</a>
</g>
</g>
<!-- Node1&#45;&gt;Node16 -->
<g id="edge20" class="edge"><title>Node1&#45;&gt;Node16</title>
<path fill="none" stroke="midnightblue" d="M507.48,-170.521C562.523,-162.877 654.402,-149.03 732.5,-132 809.503,-115.209 898.765,-88.9761 942.884,-75.5481"/>
<polygon fill="midnightblue" stroke="midnightblue" points="506.739,-167.09 497.31,-171.921 507.694,-174.024 506.739,-167.09"/>
</g>
<!-- Node9 -->
<g id="node9" class="node"><title>Node9</title>
<g id="a_node9"><a xlink:href="tree__spec_8h.html" target="_top" xlink:title="spec/tree_spec.h">
<polygon fill="white" stroke="black" points="194.5,-56.5 194.5,-75.5 286.5,-75.5 286.5,-56.5 194.5,-56.5"/>
<text text-anchor="middle" x="240.5" y="-63.5" font-family="Helvetica,sans-Serif" font-size="10.00">spec/tree_spec.h</text>
</a>
</g>
</g>
<!-- Node8&#45;&gt;Node9 -->
<g id="edge8" class="edge"><title>Node8&#45;&gt;Node9</title>
<path fill="none" stroke="midnightblue" d="M540.933,-111.772C454.039,-99.153 307.498,-77.8551 295.5,-76 292.631,-75.5565 289.68,-75.0933 286.704,-74.6211"/>
<polygon fill="midnightblue" stroke="midnightblue" points="540.563,-115.255 550.962,-113.228 541.569,-108.327 540.563,-115.255"/>
</g>
<!-- Node11 -->
<g id="node11" class="node"><title>Node11</title>
<g id="a_node11"><a xlink:href="mtree__spec_8h.html" target="_top" xlink:title="spec/mtree_spec.h">
<polygon fill="white" stroke="black" points="304.5,-56.5 304.5,-75.5 404.5,-75.5 404.5,-56.5 304.5,-56.5"/>
<text text-anchor="middle" x="354.5" y="-63.5" font-family="Helvetica,sans-Serif" font-size="10.00">spec/mtree_spec.h</text>
</a>
</g>
</g>
<!-- Node8&#45;&gt;Node11 -->
<g id="edge10" class="edge"><title>Node8&#45;&gt;Node11</title>
<path fill="none" stroke="midnightblue" d="M554.877,-110.281C507.634,-100.077 437.464,-84.9203 393.928,-75.5164"/>
<polygon fill="midnightblue" stroke="midnightblue" points="554.373,-113.753 564.887,-112.444 555.851,-106.911 554.373,-113.753"/>
</g>
<!-- Node12 -->
<g id="node12" class="node"><title>Node12</title>
<g id="a_node12"><a xlink:href="receptor__spec_8h.html" target="_top" xlink:title="spec/receptor_spec.h">
<polygon fill="white" stroke="black" points="422.5,-56.5 422.5,-75.5 532.5,-75.5 532.5,-56.5 422.5,-56.5"/>
<text text-anchor="middle" x="477.5" y="-63.5" font-family="Helvetica,sans-Serif" font-size="10.00">spec/receptor_spec.h</text>
</a>
</g>
</g>
<!-- Node8&#45;&gt;Node12 -->
<g id="edge12" class="edge"><title>Node8&#45;&gt;Node12</title>
<path fill="none" stroke="midnightblue" d="M575.109,-108.503C551.3,-98.3795 518.394,-84.388 497.529,-75.5164"/>
<polygon fill="midnightblue" stroke="midnightblue" points="573.804,-111.751 584.376,-112.444 576.543,-105.31 573.804,-111.751"/>
</g>
<!-- Node13 -->
<g id="node13" class="node"><title>Node13</title>
<g id="a_node13"><a xlink:href="vmhost__spec_8h.html" target="_top" xlink:title="spec/vmhost_spec.h">
<polygon fill="white" stroke="black" points="551,-56.5 551,-75.5 658,-75.5 658,-56.5 551,-56.5"/>
<text text-anchor="middle" x="604.5" y="-63.5" font-family="Helvetica,sans-Serif" font-size="10.00">spec/vmhost_spec.h</text>
</a>
</g>
</g>
<!-- Node8&#45;&gt;Node13 -->
<g id="edge14" class="edge"><title>Node8&#45;&gt;Node13</title>
<path fill="none" stroke="midnightblue" d="M604.5,-101.805C604.5,-92.9102 604.5,-82.7798 604.5,-75.7511"/>
<polygon fill="midnightblue" stroke="midnightblue" points="601,-102.083 604.5,-112.083 608,-102.083 601,-102.083"/>
</g>
<!-- Node10 -->
<g id="node10" class="node"><title>Node10</title>
<g id="a_node10"><a xlink:href="ceptr__specs_8c.html" target="_top" xlink:title="implements a main() entry point for running all the tests ">
<polygon fill="white" stroke="black" points="553.5,-0.5 553.5,-19.5 655.5,-19.5 655.5,-0.5 553.5,-0.5"/>
<text text-anchor="middle" x="604.5" y="-7.5" font-family="Helvetica,sans-Serif" font-size="10.00">spec/ceptr_specs.c</text>
</a>
</g>
</g>
<!-- Node9&#45;&gt;Node10 -->
<g id="edge9" class="edge"><title>Node9&#45;&gt;Node10</title>
<path fill="none" stroke="midnightblue" d="M296.632,-55.846C393.155,-40.9806 494.053,-26.541 553.337,-18.1701"/>
<polygon fill="midnightblue" stroke="midnightblue" points="296.053,-52.3938 286.704,-57.3789 297.121,-59.3118 296.053,-52.3938"/>
</g>
<!-- Node11&#45;&gt;Node10 -->
<g id="edge11" class="edge"><title>Node11&#45;&gt;Node10</title>
<path fill="none" stroke="midnightblue" d="M404.123,-54.2815C451.366,-44.0769 521.536,-28.9203 565.072,-19.5164"/>
<polygon fill="midnightblue" stroke="midnightblue" points="403.149,-50.9111 394.113,-56.4435 404.627,-57.7533 403.149,-50.9111"/>
</g>
<!-- Node12&#45;&gt;Node10 -->
<g id="edge13" class="edge"><title>Node12&#45;&gt;Node10</title>
<path fill="none" stroke="midnightblue" d="M506.891,-52.503C530.7,-42.3795 563.606,-28.388 584.471,-19.5164"/>
<polygon fill="midnightblue" stroke="midnightblue" points="505.457,-49.3096 497.624,-56.4435 508.196,-55.7515 505.457,-49.3096"/>
</g>
<!-- Node13&#45;&gt;Node10 -->
<g id="edge15" class="edge"><title>Node13&#45;&gt;Node10</title>
<path fill="none" stroke="midnightblue" d="M604.5,-45.8045C604.5,-36.9102 604.5,-26.7798 604.5,-19.7511"/>
<polygon fill="midnightblue" stroke="midnightblue" points="601,-46.083 604.5,-56.083 608,-46.083 601,-46.083"/>
</g>
<!-- Node14&#45;&gt;Node10 -->
<g id="edge17" class="edge"><title>Node14&#45;&gt;Node10</title>
<path fill="none" stroke="midnightblue" d="M692.78,-52.096C671.108,-42.0073 641.598,-28.2697 622.795,-19.5164"/>
<polygon fill="midnightblue" stroke="midnightblue" points="691.577,-55.3962 702.119,-56.4435 694.531,-49.0501 691.577,-55.3962"/>
</g>
<!-- Node15&#45;&gt;Node10 -->
<g id="edge19" class="edge"><title>Node15&#45;&gt;Node10</title>
<path fill="none" stroke="midnightblue" d="M791.496,-54.1529C747.283,-43.95 681.984,-28.8809 641.405,-19.5164"/>
<polygon fill="midnightblue" stroke="midnightblue" points="790.891,-57.6052 801.422,-56.4435 792.465,-50.7845 790.891,-57.6052"/>
</g>
<!-- Node16&#45;&gt;Node10 -->
<g id="edge21" class="edge"><title>Node16&#45;&gt;Node10</title>
<path fill="none" stroke="midnightblue" d="M902.252,-54.9307C830.759,-44.3825 720.091,-28.0544 655.726,-18.558"/>
<polygon fill="midnightblue" stroke="midnightblue" points="902.102,-58.4464 912.506,-56.4435 903.124,-51.5213 902.102,-58.4464"/>
</g>
</g>
</svg>
