<?xml version="1.0" encoding="UTF-8" standalone="no"?>
<!DOCTYPE svg PUBLIC "-//W3C//DTD SVG 1.1//EN"
 "http://www.w3.org/Graphics/SVG/1.1/DTD/svg11.dtd">
<!-- Generated by graphviz version 2.38.0 (20140413.2041)
 -->
<!-- Title: src/semtrex.h Pages: 1 -->
<svg width="620pt" height="420pt"
 viewBox="0.00 0.00 619.50 420.00" xmlns="http://www.w3.org/2000/svg" xmlns:xlink="http://www.w3.org/1999/xlink">
<g id="graph0" class="graph" transform="scale(1 1) rotate(0) translate(4 416)">
<title>src/semtrex.h</title>
<polygon fill="white" stroke="none" points="-4,4 -4,-416 615.5,-416 615.5,4 -4,4"/>
<!-- Node1 -->
<g id="node1" class="node"><title>Node1</title>
<polygon fill="#bfbfbf" stroke="black" points="236.5,-392.5 236.5,-411.5 313.5,-411.5 313.5,-392.5 236.5,-392.5"/>
<text text-anchor="middle" x="275" y="-399.5" font-family="Helvetica,sans-Serif" font-size="10.00">src/semtrex.h</text>
</g>
<!-- Node2 -->
<g id="node2" class="node"><title>Node2</title>
<g id="a_node2"><a xlink:href="tree_8h.html" target="_top" xlink:title="semantic trees header file ">
<polygon fill="white" stroke="black" points="254.5,-336.5 254.5,-355.5 295.5,-355.5 295.5,-336.5 254.5,-336.5"/>
<text text-anchor="middle" x="275" y="-343.5" font-family="Helvetica,sans-Serif" font-size="10.00">tree.h</text>
</a>
</g>
</g>
<!-- Node1&#45;&gt;Node2 -->
<g id="edge1" class="edge"><title>Node1&#45;&gt;Node2</title>
<path fill="none" stroke="midnightblue" d="M275,-392.083C275,-385.006 275,-374.861 275,-365.986"/>
<polygon fill="midnightblue" stroke="midnightblue" points="278.5,-365.751 275,-355.751 271.5,-365.751 278.5,-365.751"/>
</g>
<!-- Node3 -->
<g id="node3" class="node"><title>Node3</title>
<polygon fill="white" stroke="#bfbfbf" points="69.5,-0.5 69.5,-19.5 118.5,-19.5 118.5,-0.5 69.5,-0.5"/>
<text text-anchor="middle" x="94" y="-7.5" font-family="Helvetica,sans-Serif" font-size="10.00">string.h</text>
</g>
<!-- Node2&#45;&gt;Node3 -->
<g id="edge2" class="edge"><title>Node2&#45;&gt;Node3</title>
<path fill="none" stroke="midnightblue" d="M254.446,-345.46C212.847,-345.461 117.034,-340.657 51,-300 19.7316,-280.748 0,-271.72 0,-235 0,-235 0,-235 0,-121 0,-77.9325 42.1599,-43.2143 70.01,-24.9784"/>
<polygon fill="midnightblue" stroke="midnightblue" points="71.8801,-27.9369 78.4778,-19.6471 68.1505,-22.0132 71.8801,-27.9369"/>
</g>
<!-- Node4 -->
<g id="node4" class="node"><title>Node4</title>
<polygon fill="white" stroke="#bfbfbf" points="250,-0.5 250,-19.5 298,-19.5 298,-0.5 250,-0.5"/>
<text text-anchor="middle" x="274" y="-7.5" font-family="Helvetica,sans-Serif" font-size="10.00">stdlib.h</text>
</g>
<!-- Node2&#45;&gt;Node4 -->
<g id="edge3" class="edge"><title>Node2&#45;&gt;Node4</title>
<path fill="none" stroke="midnightblue" d="M254.382,-344.837C196.722,-343.192 38,-330.033 38,-235 38,-235 38,-235 38,-121 38,-90.9022 34.8845,-76.4153 57,-56 83.2391,-31.7782 185.518,-19.0232 239.768,-13.841"/>
<polygon fill="midnightblue" stroke="midnightblue" points="240.304,-17.3065 249.941,-12.9043 239.662,-10.336 240.304,-17.3065"/>
</g>
<!-- Node5 -->
<g id="node5" class="node"><title>Node5</title>
<g id="a_node5"><a xlink:href="ceptr__error_8h_source.html" target="_top" xlink:title="ceptr_error.h">
<polygon fill="white" stroke="black" points="185.5,-112.5 185.5,-131.5 256.5,-131.5 256.5,-112.5 185.5,-112.5"/>
<text text-anchor="middle" x="221" y="-119.5" font-family="Helvetica,sans-Serif" font-size="10.00">ceptr_error.h</text>
</a>
</g>
</g>
<!-- Node2&#45;&gt;Node5 -->
<g id="edge4" class="edge"><title>Node2&#45;&gt;Node5</title>
<path fill="none" stroke="midnightblue" d="M262.433,-336.278C251.956,-328.211 237.701,-315.196 231,-300 207.451,-246.594 213.304,-175.182 217.92,-141.748"/>
<polygon fill="midnightblue" stroke="midnightblue" points="221.421,-142.008 219.452,-131.598 214.499,-140.964 221.421,-142.008"/>
</g>
<!-- Node10 -->
<g id="node10" class="node"><title>Node10</title>
<g id="a_node10"><a xlink:href="sys__defs_8h.html" target="_top" xlink:title="Defines types and vars for system defined semantics. ">
<polygon fill="white" stroke="black" points="263.5,-224.5 263.5,-243.5 328.5,-243.5 328.5,-224.5 263.5,-224.5"/>
<text text-anchor="middle" x="296" y="-231.5" font-family="Helvetica,sans-Serif" font-size="10.00">sys_defs.h</text>
</a>
</g>
</g>
<!-- Node2&#45;&gt;Node10 -->
<g id="edge9" class="edge"><title>Node2&#45;&gt;Node10</title>
<path fill="none" stroke="midnightblue" d="M287.781,-336.369C298.394,-328.36 312.731,-315.379 319,-300 325.545,-283.944 317.321,-265.249 308.945,-252.041"/>
<polygon fill="midnightblue" stroke="midnightblue" points="311.603,-249.732 303.028,-243.509 305.851,-253.721 311.603,-249.732"/>
</g>
<!-- Node11 -->
<g id="node11" class="node"><title>Node11</title>
<g id="a_node11"><a xlink:href="ceptr__types_8h_source.html" target="_top" xlink:title="ceptr_types.h">
<polygon fill="white" stroke="black" points="327,-112.5 327,-131.5 403,-131.5 403,-112.5 327,-112.5"/>
<text text-anchor="middle" x="365" y="-119.5" font-family="Helvetica,sans-Serif" font-size="10.00">ceptr_types.h</text>
</a>
</g>
</g>
<!-- Node2&#45;&gt;Node11 -->
<g id="edge24" class="edge"><title>Node2&#45;&gt;Node11</title>
<path fill="none" stroke="midnightblue" d="M292.95,-336.361C306.73,-328.754 325.035,-316.342 335,-300 365.918,-249.298 367.431,-176.02 366.183,-141.858"/>
<polygon fill="midnightblue" stroke="midnightblue" points="369.661,-141.321 365.671,-131.506 362.67,-141.667 369.661,-141.321"/>
</g>
<!-- Node18 -->
<g id="node18" class="node"><title>Node18</title>
<g id="a_node18"><a xlink:href="base__defs_8h.html" target="_top" xlink:title="auto&#45;generated system definitions ">
<polygon fill="white" stroke="black" points="240,-280.5 240,-299.5 310,-299.5 310,-280.5 240,-280.5"/>
<text text-anchor="middle" x="275" y="-287.5" font-family="Helvetica,sans-Serif" font-size="10.00">base_defs.h</text>
</a>
</g>
</g>
<!-- Node2&#45;&gt;Node18 -->
<g id="edge22" class="edge"><title>Node2&#45;&gt;Node18</title>
<path fill="none" stroke="midnightblue" d="M275,-336.083C275,-329.006 275,-318.861 275,-309.986"/>
<polygon fill="midnightblue" stroke="midnightblue" points="278.5,-309.751 275,-299.751 271.5,-309.751 278.5,-309.751"/>
</g>
<!-- Node19 -->
<g id="node19" class="node"><title>Node19</title>
<g id="a_node19"><a xlink:href="stream_8h.html" target="_top" xlink:title="streams abstraction header file ">
<polygon fill="white" stroke="black" points="450.5,-112.5 450.5,-131.5 505.5,-131.5 505.5,-112.5 450.5,-112.5"/>
<text text-anchor="middle" x="478" y="-119.5" font-family="Helvetica,sans-Serif" font-size="10.00">stream.h</text>
</a>
</g>
</g>
<!-- Node2&#45;&gt;Node19 -->
<g id="edge25" class="edge"><title>Node2&#45;&gt;Node19</title>
<path fill="none" stroke="midnightblue" d="M295.413,-336.444C312.382,-328.652 336.496,-315.943 354,-300 407.545,-251.232 450.842,-175.374 468.903,-141.007"/>
<polygon fill="midnightblue" stroke="midnightblue" points="472.205,-142.241 473.681,-131.749 465.984,-139.03 472.205,-142.241"/>
</g>
<!-- Node6 -->
<g id="node6" class="node"><title>Node6</title>
<polygon fill="white" stroke="#bfbfbf" points="276,-56.5 276,-75.5 322,-75.5 322,-56.5 276,-56.5"/>
<text text-anchor="middle" x="299" y="-63.5" font-family="Helvetica,sans-Serif" font-size="10.00">stdio.h</text>
</g>
<!-- Node5&#45;&gt;Node6 -->
<g id="edge5" class="edge"><title>Node5&#45;&gt;Node6</title>
<path fill="none" stroke="midnightblue" d="M233.532,-112.324C245.586,-103.979 264.027,-91.2122 278.269,-81.3524"/>
<polygon fill="midnightblue" stroke="midnightblue" points="280.269,-84.2243 286.499,-75.6545 276.285,-78.469 280.269,-84.2243"/>
</g>
<!-- Node7 -->
<g id="node7" class="node"><title>Node7</title>
<polygon fill="white" stroke="#bfbfbf" points="66,-56.5 66,-75.5 116,-75.5 116,-56.5 66,-56.5"/>
<text text-anchor="middle" x="91" y="-63.5" font-family="Helvetica,sans-Serif" font-size="10.00">signal.h</text>
</g>
<!-- Node5&#45;&gt;Node7 -->
<g id="edge6" class="edge"><title>Node5&#45;&gt;Node7</title>
<path fill="none" stroke="midnightblue" d="M200.401,-112.444C179.007,-103.557 145.319,-89.5632 120.976,-79.4514"/>
<polygon fill="midnightblue" stroke="midnightblue" points="122.08,-76.1203 111.503,-75.5164 119.395,-82.5848 122.08,-76.1203"/>
</g>
<!-- Node8 -->
<g id="node8" class="node"><title>Node8</title>
<polygon fill="white" stroke="#bfbfbf" points="134,-56.5 134,-75.5 186,-75.5 186,-56.5 134,-56.5"/>
<text text-anchor="middle" x="160" y="-63.5" font-family="Helvetica,sans-Serif" font-size="10.00">assert.h</text>
</g>
<!-- Node5&#45;&gt;Node8 -->
<g id="edge7" class="edge"><title>Node5&#45;&gt;Node8</title>
<path fill="none" stroke="midnightblue" d="M211.199,-112.324C202.182,-104.341 188.594,-92.3128 177.682,-82.6529"/>
<polygon fill="midnightblue" stroke="midnightblue" points="179.787,-79.8416 169.979,-75.8339 175.147,-85.083 179.787,-79.8416"/>
</g>
<!-- Node9 -->
<g id="node9" class="node"><title>Node9</title>
<polygon fill="white" stroke="#bfbfbf" points="204,-56.5 204,-75.5 258,-75.5 258,-56.5 204,-56.5"/>
<text text-anchor="middle" x="231" y="-63.5" font-family="Helvetica,sans-Serif" font-size="10.00">setjmp.h</text>
</g>
<!-- Node5&#45;&gt;Node9 -->
<g id="edge8" class="edge"><title>Node5&#45;&gt;Node9</title>
<path fill="none" stroke="midnightblue" d="M222.651,-112.083C223.976,-104.927 225.882,-94.6353 227.539,-85.6911"/>
<polygon fill="midnightblue" stroke="midnightblue" points="231,-86.2212 229.379,-75.7511 224.117,-84.9466 231,-86.2212"/>
</g>
<!-- Node10&#45;&gt;Node11 -->
<g id="edge10" class="edge"><title>Node10&#45;&gt;Node11</title>
<path fill="none" stroke="midnightblue" d="M301.414,-224.368C312.751,-206.296 339.171,-164.176 354.144,-140.307"/>
<polygon fill="midnightblue" stroke="midnightblue" points="357.262,-141.923 359.611,-131.591 351.332,-138.203 357.262,-141.923"/>
</g>
<!-- Node17 -->
<g id="node17" class="node"><title>Node17</title>
<g id="a_node17"><a xlink:href="semtable_8h.html" target="_top" xlink:title="header file for table for coordinating meaning across a vmhost ">
<polygon fill="white" stroke="black" points="244.5,-168.5 244.5,-187.5 309.5,-187.5 309.5,-168.5 244.5,-168.5"/>
<text text-anchor="middle" x="277" y="-175.5" font-family="Helvetica,sans-Serif" font-size="10.00">semtable.h</text>
</a>
</g>
</g>
<!-- Node10&#45;&gt;Node17 -->
<g id="edge19" class="edge"><title>Node10&#45;&gt;Node17</title>
<path fill="none" stroke="midnightblue" d="M292.863,-224.083C290.317,-216.849 286.644,-206.409 283.473,-197.397"/>
<polygon fill="midnightblue" stroke="midnightblue" points="286.7,-196.023 280.079,-187.751 280.097,-198.346 286.7,-196.023"/>
</g>
<!-- Node11&#45;&gt;Node6 -->
<g id="edge12" class="edge"><title>Node11&#45;&gt;Node6</title>
<path fill="none" stroke="midnightblue" d="M354.396,-112.324C344.544,-104.263 329.649,-92.0765 317.785,-82.3695"/>
<polygon fill="midnightblue" stroke="midnightblue" points="319.753,-79.4575 309.797,-75.8339 315.32,-84.8752 319.753,-79.4575"/>
</g>
<!-- Node12 -->
<g id="node12" class="node"><title>Node12</title>
<polygon fill="white" stroke="#bfbfbf" points="340.5,-56.5 340.5,-75.5 389.5,-75.5 389.5,-56.5 340.5,-56.5"/>
<text text-anchor="middle" x="365" y="-63.5" font-family="Helvetica,sans-Serif" font-size="10.00">stdint.h</text>
</g>
<!-- Node11&#45;&gt;Node12 -->
<g id="edge11" class="edge"><title>Node11&#45;&gt;Node12</title>
<path fill="none" stroke="midnightblue" d="M365,-112.083C365,-105.006 365,-94.8611 365,-85.9865"/>
<polygon fill="midnightblue" stroke="midnightblue" points="368.5,-85.751 365,-75.7511 361.5,-85.7511 368.5,-85.751"/>
</g>
<!-- Node13 -->
<g id="node13" class="node"><title>Node13</title>
<g id="a_node13"><a xlink:href="uthash_8h_source.html" target="_top" xlink:title="uthash.h">
<polygon fill="white" stroke="black" points="408,-56.5 408,-75.5 462,-75.5 462,-56.5 408,-56.5"/>
<text text-anchor="middle" x="435" y="-63.5" font-family="Helvetica,sans-Serif" font-size="10.00">uthash.h</text>
</a>
</g>
</g>
<!-- Node11&#45;&gt;Node13 -->
<g id="edge13" class="edge"><title>Node11&#45;&gt;Node13</title>
<path fill="none" stroke="midnightblue" d="M376.247,-112.324C386.797,-104.185 402.801,-91.8395 415.442,-82.0874"/>
<polygon fill="midnightblue" stroke="midnightblue" points="417.769,-84.7132 423.549,-75.8339 413.493,-79.1707 417.769,-84.7132"/>
</g>
<!-- Node16 -->
<g id="node16" class="node"><title>Node16</title>
<polygon fill="white" stroke="#bfbfbf" points="480,-56.5 480,-75.5 536,-75.5 536,-56.5 480,-56.5"/>
<text text-anchor="middle" x="508" y="-63.5" font-family="Helvetica,sans-Serif" font-size="10.00">stdbool.h</text>
</g>
<!-- Node11&#45;&gt;Node16 -->
<g id="edge18" class="edge"><title>Node11&#45;&gt;Node16</title>
<path fill="none" stroke="midnightblue" d="M387.659,-112.444C411.402,-103.478 448.909,-89.314 475.738,-79.1827"/>
<polygon fill="midnightblue" stroke="midnightblue" points="477.329,-82.3235 485.447,-75.5164 474.856,-75.7749 477.329,-82.3235"/>
</g>
<!-- Node13&#45;&gt;Node3 -->
<g id="edge14" class="edge"><title>Node13&#45;&gt;Node3</title>
<path fill="none" stroke="midnightblue" d="M407.985,-58.1261C404.633,-57.3625 401.244,-56.6333 398,-56 301.088,-37.0819 185.416,-21.9982 128.759,-15.0923"/>
<polygon fill="midnightblue" stroke="midnightblue" points="128.908,-11.5849 118.561,-13.8601 128.069,-18.5344 128.908,-11.5849"/>
</g>
<!-- Node13&#45;&gt;Node4 -->
<g id="edge16" class="edge"><title>Node13&#45;&gt;Node4</title>
<path fill="none" stroke="midnightblue" d="M409.489,-56.4435C382.006,-47.2255 338.142,-32.5135 307.804,-22.3379"/>
<polygon fill="midnightblue" stroke="midnightblue" points="308.671,-18.9371 298.077,-19.0755 306.445,-25.5738 308.671,-18.9371"/>
</g>
<!-- Node14 -->
<g id="node14" class="node"><title>Node14</title>
<polygon fill="white" stroke="#bfbfbf" points="372,-0.5 372,-19.5 424,-19.5 424,-0.5 372,-0.5"/>
<text text-anchor="middle" x="398" y="-7.5" font-family="Helvetica,sans-Serif" font-size="10.00">stddef.h</text>
</g>
<!-- Node13&#45;&gt;Node14 -->
<g id="edge15" class="edge"><title>Node13&#45;&gt;Node14</title>
<path fill="none" stroke="midnightblue" d="M428.89,-56.083C423.718,-48.5341 416.154,-37.4948 409.806,-28.2298"/>
<polygon fill="midnightblue" stroke="midnightblue" points="412.536,-26.0221 403.996,-19.7511 406.761,-29.9787 412.536,-26.0221"/>
</g>
<!-- Node15 -->
<g id="node15" class="node"><title>Node15</title>
<polygon fill="white" stroke="#bfbfbf" points="442.5,-0.5 442.5,-19.5 501.5,-19.5 501.5,-0.5 442.5,-0.5"/>
<text text-anchor="middle" x="472" y="-7.5" font-family="Helvetica,sans-Serif" font-size="10.00">inttypes.h</text>
</g>
<!-- Node13&#45;&gt;Node15 -->
<g id="edge17" class="edge"><title>Node13&#45;&gt;Node15</title>
<path fill="none" stroke="midnightblue" d="M441.11,-56.083C446.282,-48.5341 453.846,-37.4948 460.194,-28.2298"/>
<polygon fill="midnightblue" stroke="midnightblue" points="463.239,-29.9787 466.004,-19.7511 457.464,-26.0221 463.239,-29.9787"/>
</g>
<!-- Node17&#45;&gt;Node5 -->
<g id="edge21" class="edge"><title>Node17&#45;&gt;Node5</title>
<path fill="none" stroke="midnightblue" d="M268.003,-168.324C259.806,-160.42 247.494,-148.548 237.528,-138.938"/>
<polygon fill="midnightblue" stroke="midnightblue" points="239.789,-136.256 230.161,-131.834 234.93,-141.295 239.789,-136.256"/>
</g>
<!-- Node17&#45;&gt;Node11 -->
<g id="edge20" class="edge"><title>Node17&#45;&gt;Node11</title>
<path fill="none" stroke="midnightblue" d="M291.139,-168.324C304.866,-159.9 325.936,-146.971 342.064,-137.074"/>
<polygon fill="midnightblue" stroke="midnightblue" points="344.204,-139.868 350.896,-131.655 340.543,-133.902 344.204,-139.868"/>
</g>
<!-- Node18&#45;&gt;Node10 -->
<g id="edge23" class="edge"><title>Node18&#45;&gt;Node10</title>
<path fill="none" stroke="midnightblue" d="M278.468,-280.083C281.312,-272.77 285.429,-262.181 288.96,-253.103"/>
<polygon fill="midnightblue" stroke="midnightblue" points="292.234,-254.34 292.597,-243.751 285.71,-251.803 292.234,-254.34"/>
</g>
<!-- Node19&#45;&gt;Node6 -->
<g id="edge26" class="edge"><title>Node19&#45;&gt;Node6</title>
<path fill="none" stroke="midnightblue" d="M450.424,-112.681C418.518,-103.056 366.018,-87.2178 331.98,-76.9493"/>
<polygon fill="midnightblue" stroke="midnightblue" points="332.637,-73.4918 322.053,-73.9544 330.615,-80.1935 332.637,-73.4918"/>
</g>
<!-- Node19&#45;&gt;Node16 -->
<g id="edge28" class="edge"><title>Node19&#45;&gt;Node16</title>
<path fill="none" stroke="midnightblue" d="M482.954,-112.083C487.104,-104.613 493.153,-93.7244 498.267,-84.5199"/>
<polygon fill="midnightblue" stroke="midnightblue" points="501.341,-86.1924 503.138,-75.7511 495.222,-82.7929 501.341,-86.1924"/>
</g>
<!-- Node20 -->
<g id="node20" class="node"><title>Node20</title>
<polygon fill="white" stroke="#bfbfbf" points="554.5,-56.5 554.5,-75.5 611.5,-75.5 611.5,-56.5 554.5,-56.5"/>
<text text-anchor="middle" x="583" y="-63.5" font-family="Helvetica,sans-Serif" font-size="10.00">pthread.h</text>
</g>
<!-- Node19&#45;&gt;Node20 -->
<g id="edge27" class="edge"><title>Node19&#45;&gt;Node20</title>
<path fill="none" stroke="midnightblue" d="M494.87,-112.324C511.709,-103.664 537.807,-90.2424 557.238,-80.249"/>
<polygon fill="midnightblue" stroke="midnightblue" points="558.88,-83.3405 566.172,-75.6545 555.678,-77.1155 558.88,-83.3405"/>
</g>
</g>
</svg>
