<?xml version="1.0" encoding="UTF-8" standalone="no"?>
<!DOCTYPE svg PUBLIC "-//W3C//DTD SVG 1.1//EN"
 "http://www.w3.org/Graphics/SVG/1.1/DTD/svg11.dtd">
<!-- Generated by graphviz version 2.38.0 (20140413.2041)
 -->
<!-- Title: spec/semtrex_spec.h Pages: 1 -->
<!--zoomable 532 -->
<svg id="main" version="1.1" xmlns="http://www.w3.org/2000/svg" xmlns:xlink="http://www.w3.org/1999/xlink" xml:space="preserve" onload="init(evt)">
<style type="text/css"><![CDATA[
.edge:hover path { stroke: red; }
.edge:hover polygon { stroke: red; fill: red; }
]]></style>
<script type="text/javascript"><![CDATA[
var edges = document.getElementsByTagName('g');
if (edges && edges.length) {
  for (var i=0;i<edges.length;i++) {
    if (edges[i].id.substr(0,4)=='edge') {
      edges[i].setAttribute('class','edge');
    }
  }
}
]]></script>
        <defs>
                <circle id="rim" cx="0" cy="0" r="7"/>
                <circle id="rim2" cx="0" cy="0" r="3.5"/>
                <g id="zoomPlus">
                        <use xlink:href="#rim" fill="#404040">
                                <set attributeName="fill" to="#808080" begin="zoomplus.mouseover" end="zoomplus.mouseout"/>
                        </use>
                        <path d="M-4,0h8M0,-4v8" fill="none" stroke="white" stroke-width="1.5" pointer-events="none"/>
                </g>
                <g id="zoomMin">
                        <use xlink:href="#rim" fill="#404040">
                                <set attributeName="fill" to="#808080" begin="zoomminus.mouseover" end="zoomminus.mouseout"/>
                        </use>
                        <path d="M-4,0h8" fill="none" stroke="white" stroke-width="1.5" pointer-events="none"/>
                </g>
                <g id="dirArrow">
                        <path fill="none" stroke="white" stroke-width="1.5" d="M0,-3.0v7 M-2.5,-0.5L0,-3.0L2.5,-0.5"/>
                </g>
               <g id="resetDef">
                       <use xlink:href="#rim2" fill="#404040">
                               <set attributeName="fill" to="#808080" begin="reset.mouseover" end="reset.mouseout"/>
                       </use>
               </g>
        </defs>

<script type="text/javascript">
var viewWidth = 936;
var viewHeight = 532;
var sectionId = 'dynsection-0';
</script>
<script xlink:href="svgpan.js"/>
<svg id="graph" class="graph">
<g id="viewport">
<title>spec/semtrex_spec.h</title>
<polygon fill="white" stroke="none" points="-4,4 -4,-528 932.42,-528 932.42,4 -4,4"/>
<!-- Node1 -->
<g id="node1" class="node"><title>Node1</title>
<polygon fill="#bfbfbf" stroke="black" points="454.92,-504.5 454.92,-523.5 564.92,-523.5 564.92,-504.5 454.92,-504.5"/>
<text text-anchor="middle" x="509.92" y="-511.5" font-family="Helvetica,sans-Serif" font-size="10.00">spec/semtrex_spec.h</text>
</g>
<!-- Node2 -->
<g id="node2" class="node"><title>Node2</title>
<g id="a_node2"><a xlink:href="ceptr_8h_source.html" target="_top" xlink:title="../src/ceptr.h">
<polygon fill="white" stroke="black" points="251.92,-392.5 251.92,-411.5 323.92,-411.5 323.92,-392.5 251.92,-392.5"/>
<text text-anchor="middle" x="287.92" y="-399.5" font-family="Helvetica,sans-Serif" font-size="10.00">../src/ceptr.h</text>
</a>
</g>
</g>
<!-- Node1&#45;&gt;Node2 -->
<g id="edge1" class="edge"><title>Node1&#45;&gt;Node2</title>
<path fill="none" stroke="midnightblue" d="M492.5,-504.368C453.756,-485.171 360.255,-438.842 314.305,-416.074"/>
<polygon fill="midnightblue" stroke="midnightblue" points="315.773,-412.895 305.259,-411.591 312.665,-419.167 315.773,-412.895"/>
</g>
<!-- Node27 -->
<g id="node27" class="node"><title>Node27</title>
<g id="a_node27"><a xlink:href="hashfn_8h_source.html" target="_top" xlink:title="../src/hashfn.h">
<polygon fill="white" stroke="black" points="255.92,-168.5 255.92,-187.5 335.92,-187.5 335.92,-168.5 255.92,-168.5"/>
<text text-anchor="middle" x="295.92" y="-175.5" font-family="Helvetica,sans-Serif" font-size="10.00">../src/hashfn.h</text>
</a>
</g>
</g>
<!-- Node1&#45;&gt;Node27 -->
<g id="edge48" class="edge"><title>Node1&#45;&gt;Node27</title>
<path fill="none" stroke="midnightblue" d="M504.415,-504.408C475.973,-460.018 345.511,-256.399 306.786,-195.96"/>
<polygon fill="midnightblue" stroke="midnightblue" points="309.73,-194.067 301.388,-187.535 303.836,-197.843 309.73,-194.067"/>
</g>
<!-- Node28 -->
<g id="node28" class="node"><title>Node28</title>
<g id="a_node28"><a xlink:href="semtrex_8h.html" target="_top" xlink:title="Semantic tree regular expression header file. ">
<polygon fill="white" stroke="black" points="516.92,-448.5 516.92,-467.5 602.92,-467.5 602.92,-448.5 516.92,-448.5"/>
<text text-anchor="middle" x="559.92" y="-455.5" font-family="Helvetica,sans-Serif" font-size="10.00">../src/semtrex.h</text>
</a>
</g>
</g>
<!-- Node1&#45;&gt;Node28 -->
<g id="edge50" class="edge"><title>Node1&#45;&gt;Node28</title>
<path fill="none" stroke="midnightblue" d="M518.176,-504.083C525.384,-496.298 536.03,-484.801 544.766,-475.367"/>
<polygon fill="midnightblue" stroke="midnightblue" points="547.591,-477.467 551.817,-467.751 542.455,-472.711 547.591,-477.467"/>
</g>
<!-- Node29 -->
<g id="node29" class="node"><title>Node29</title>
<g id="a_node29"><a xlink:href="receptor_8h.html" target="_top" xlink:title="receptor implementation header file ">
<polygon fill="white" stroke="black" points="627.92,-448.5 627.92,-467.5 713.92,-467.5 713.92,-448.5 627.92,-448.5"/>
<text text-anchor="middle" x="670.92" y="-455.5" font-family="Helvetica,sans-Serif" font-size="10.00">../src/receptor.h</text>
</a>
</g>
</g>
<!-- Node1&#45;&gt;Node29 -->
<g id="edge52" class="edge"><title>Node1&#45;&gt;Node29</title>
<path fill="none" stroke="midnightblue" d="M535.431,-504.444C562.516,-495.359 605.51,-480.939 635.789,-470.783"/>
<polygon fill="midnightblue" stroke="midnightblue" points="637.16,-474.015 645.528,-467.516 634.934,-467.378 637.16,-474.015"/>
</g>
<!-- Node3 -->
<g id="node3" class="node"><title>Node3</title>
<polygon fill="white" stroke="#bfbfbf" points="673.42,-0.5 673.42,-19.5 722.42,-19.5 722.42,-0.5 673.42,-0.5"/>
<text text-anchor="middle" x="697.92" y="-7.5" font-family="Helvetica,sans-Serif" font-size="10.00">string.h</text>
</g>
<!-- Node2&#45;&gt;Node3 -->
<g id="edge2" class="edge"><title>Node2&#45;&gt;Node3</title>
<path fill="none" stroke="midnightblue" d="M288.187,-392.256C288.729,-366.016 288.464,-285.933 267.92,-224 262.088,-206.419 251.754,-205.881 246.92,-188 244.6,-179.419 244.786,-176.629 246.92,-168 260.426,-113.383 259.489,-87.7737 305.92,-56 363.59,-16.5353 578.32,-11.3927 663.136,-10.9313"/>
<polygon fill="midnightblue" stroke="midnightblue" points="663.296,-14.4308 673.284,-10.8954 663.271,-7.43088 663.296,-14.4308"/>
</g>
<!-- Node4 -->
<g id="node4" class="node"><title>Node4</title>
<polygon fill="white" stroke="#bfbfbf" points="162.92,-56.5 162.92,-75.5 208.92,-75.5 208.92,-56.5 162.92,-56.5"/>
<text text-anchor="middle" x="185.92" y="-63.5" font-family="Helvetica,sans-Serif" font-size="10.00">stdio.h</text>
</g>
<!-- Node2&#45;&gt;Node4 -->
<g id="edge3" class="edge"><title>Node2&#45;&gt;Node4</title>
<path fill="none" stroke="midnightblue" d="M251.565,-397.916C192.427,-390.69 81.9198,-367.019 81.9198,-291 81.9198,-291 81.9198,-291 81.9198,-233 81.9198,-168.963 138.185,-109.321 167.945,-82.2535"/>
<polygon fill="midnightblue" stroke="midnightblue" points="170.4,-84.7552 175.568,-75.5062 165.76,-79.5137 170.4,-84.7552"/>
</g>
<!-- Node5 -->
<g id="node5" class="node"><title>Node5</title>
<polygon fill="white" stroke="#bfbfbf" points="296.92,-0.5 296.92,-19.5 344.92,-19.5 344.92,-0.5 296.92,-0.5"/>
<text text-anchor="middle" x="320.92" y="-7.5" font-family="Helvetica,sans-Serif" font-size="10.00">stdlib.h</text>
</g>
<!-- Node2&#45;&gt;Node5 -->
<g id="edge4" class="edge"><title>Node2&#45;&gt;Node5</title>
<path fill="none" stroke="midnightblue" d="M251.84,-397.531C193.424,-391.376 81.3064,-377.167 47.9198,-356 17.8112,-336.911 0.919767,-326.65 0.919767,-291 0.919767,-291 0.919767,-291 0.919767,-121 0.919767,-90.9022 -2.7593,-75.7873 19.9198,-56 59.1151,-21.8025 216.071,-13.5894 286.46,-11.6199"/>
<polygon fill="midnightblue" stroke="midnightblue" points="286.68,-15.1155 296.588,-11.3632 286.502,-8.11774 286.68,-15.1155"/>
</g>
<!-- Node6 -->
<g id="node6" class="node"><title>Node6</title>
<g id="a_node6"><a xlink:href="ceptr__error_8h_source.html" target="_top" xlink:title="ceptr_error.h">
<polygon fill="white" stroke="black" points="452.42,-112.5 452.42,-131.5 523.42,-131.5 523.42,-112.5 452.42,-112.5"/>
<text text-anchor="middle" x="487.92" y="-119.5" font-family="Helvetica,sans-Serif" font-size="10.00">ceptr_error.h</text>
</a>
</g>
</g>
<!-- Node2&#45;&gt;Node6 -->
<g id="edge5" class="edge"><title>Node2&#45;&gt;Node6</title>
<path fill="none" stroke="midnightblue" d="M294.125,-392.375C322.239,-353.297 437.936,-192.477 475.837,-139.794"/>
<polygon fill="midnightblue" stroke="midnightblue" points="478.788,-141.686 481.787,-131.524 473.106,-137.598 478.788,-141.686"/>
</g>
<!-- Node10 -->
<g id="node10" class="node"><title>Node10</title>
<g id="a_node10"><a xlink:href="semtable_8h.html" target="_top" xlink:title="header file for table for coordinating meaning across a vmhost ">
<polygon fill="white" stroke="black" points="635.42,-168.5 635.42,-187.5 700.42,-187.5 700.42,-168.5 635.42,-168.5"/>
<text text-anchor="middle" x="667.92" y="-175.5" font-family="Helvetica,sans-Serif" font-size="10.00">semtable.h</text>
</a>
</g>
</g>
<!-- Node2&#45;&gt;Node10 -->
<g id="edge10" class="edge"><title>Node2&#45;&gt;Node10</title>
<path fill="none" stroke="midnightblue" d="M310.409,-392.455C333.15,-383.699 369.227,-369.495 399.92,-356 452.694,-332.797 468.106,-330.67 516.92,-300 569.25,-267.121 624.348,-219.01 651.212,-194.539"/>
<polygon fill="midnightblue" stroke="midnightblue" points="653.61,-197.088 658.608,-187.746 648.875,-191.933 653.61,-197.088"/>
</g>
<!-- Node17 -->
<g id="node17" class="node"><title>Node17</title>
<g id="a_node17"><a xlink:href="tree_8h.html" target="_top" xlink:title="semantic trees header file ">
<polygon fill="white" stroke="black" points="650.42,-336.5 650.42,-355.5 691.42,-355.5 691.42,-336.5 650.42,-336.5"/>
<text text-anchor="middle" x="670.92" y="-343.5" font-family="Helvetica,sans-Serif" font-size="10.00">tree.h</text>
</a>
</g>
</g>
<!-- Node2&#45;&gt;Node17 -->
<g id="edge21" class="edge"><title>Node2&#45;&gt;Node17</title>
<path fill="none" stroke="midnightblue" d="M323.951,-395.92C398.875,-385.356 570.308,-361.186 640.302,-351.317"/>
<polygon fill="midnightblue" stroke="midnightblue" points="640.839,-354.776 650.253,-349.914 639.862,-347.844 640.839,-354.776"/>
</g>
<!-- Node20 -->
<g id="node20" class="node"><title>Node20</title>
<g id="a_node20"><a xlink:href="stream_8h.html" target="_top" xlink:title="streams abstraction header file ">
<polygon fill="white" stroke="black" points="203.42,-280.5 203.42,-299.5 258.42,-299.5 258.42,-280.5 203.42,-280.5"/>
<text text-anchor="middle" x="230.92" y="-287.5" font-family="Helvetica,sans-Serif" font-size="10.00">stream.h</text>
</a>
</g>
</g>
<!-- Node2&#45;&gt;Node20 -->
<g id="edge40" class="edge"><title>Node2&#45;&gt;Node20</title>
<path fill="none" stroke="midnightblue" d="M283.447,-392.368C274.124,-374.376 252.45,-332.55 240.054,-308.627"/>
<polygon fill="midnightblue" stroke="midnightblue" points="243.08,-306.86 235.372,-299.591 236.865,-310.081 243.08,-306.86"/>
</g>
<!-- Node22 -->
<g id="node22" class="node"><title>Node22</title>
<g id="a_node22"><a xlink:href="mtree_8h.html" target="_top" xlink:title="semantic tree matrix header file `` ">
<polygon fill="white" stroke="black" points="457.92,-280.5 457.92,-299.5 507.92,-299.5 507.92,-280.5 457.92,-280.5"/>
<text text-anchor="middle" x="482.92" y="-287.5" font-family="Helvetica,sans-Serif" font-size="10.00">mtree.h</text>
</a>
</g>
</g>
<!-- Node2&#45;&gt;Node22 -->
<g id="edge34" class="edge"><title>Node2&#45;&gt;Node22</title>
<path fill="none" stroke="midnightblue" d="M303.221,-392.368C337.039,-373.292 418.353,-327.422 458.978,-304.505"/>
<polygon fill="midnightblue" stroke="midnightblue" points="460.699,-307.553 467.69,-299.591 457.26,-301.456 460.699,-307.553"/>
</g>
<!-- Node23 -->
<g id="node23" class="node"><title>Node23</title>
<g id="a_node23"><a xlink:href="util_8h.html" target="_top" xlink:title="util.h">
<polygon fill="white" stroke="black" points="30.9198,-112.5 30.9198,-131.5 68.9198,-131.5 68.9198,-112.5 30.9198,-112.5"/>
<text text-anchor="middle" x="49.9198" y="-119.5" font-family="Helvetica,sans-Serif" font-size="10.00">util.h</text>
</a>
</g>
</g>
<!-- Node2&#45;&gt;Node23 -->
<g id="edge41" class="edge"><title>Node2&#45;&gt;Node23</title>
<path fill="none" stroke="midnightblue" d="M251.509,-397.823C196.327,-392.318 95.0589,-379.3 67.9198,-356 44.5544,-335.94 43.9198,-321.795 43.9198,-291 43.9198,-291 43.9198,-291 43.9198,-233 43.9198,-200.9 46.4987,-163.61 48.275,-141.732"/>
<polygon fill="midnightblue" stroke="midnightblue" points="51.781,-141.808 49.1354,-131.549 44.8058,-141.219 51.781,-141.808"/>
</g>
<!-- Node26 -->
<g id="node26" class="node"><title>Node26</title>
<g id="a_node26"><a xlink:href="debug_8h.html" target="_top" xlink:title="debug.h">
<polygon fill="white" stroke="black" points="110.42,-168.5 110.42,-187.5 161.42,-187.5 161.42,-168.5 110.42,-168.5"/>
<text text-anchor="middle" x="135.92" y="-175.5" font-family="Helvetica,sans-Serif" font-size="10.00">debug.h</text>
</a>
</g>
</g>
<!-- Node2&#45;&gt;Node26 -->
<g id="edge46" class="edge"><title>Node2&#45;&gt;Node26</title>
<path fill="none" stroke="midnightblue" d="M278.089,-392.344C259.746,-375.814 219.822,-338.004 193.92,-300 170.834,-266.128 152.082,-221.654 142.613,-197.155"/>
<polygon fill="midnightblue" stroke="midnightblue" points="145.845,-195.806 139.035,-187.69 139.297,-198.281 145.845,-195.806"/>
</g>
<!-- Node6&#45;&gt;Node4 -->
<g id="edge6" class="edge"><title>Node6&#45;&gt;Node4</title>
<path fill="none" stroke="midnightblue" d="M452.388,-114.647C393.528,-104.122 276.604,-83.2151 219.237,-72.9574"/>
<polygon fill="midnightblue" stroke="midnightblue" points="219.706,-69.4858 209.246,-71.1709 218.474,-76.3765 219.706,-69.4858"/>
</g>
<!-- Node7 -->
<g id="node7" class="node"><title>Node7</title>
<polygon fill="white" stroke="#bfbfbf" points="420.92,-56.5 420.92,-75.5 470.92,-75.5 470.92,-56.5 420.92,-56.5"/>
<text text-anchor="middle" x="445.92" y="-63.5" font-family="Helvetica,sans-Serif" font-size="10.00">signal.h</text>
</g>
<!-- Node6&#45;&gt;Node7 -->
<g id="edge7" class="edge"><title>Node6&#45;&gt;Node7</title>
<path fill="none" stroke="midnightblue" d="M480.984,-112.083C474.991,-104.377 466.168,-93.0333 458.872,-83.6531"/>
<polygon fill="midnightblue" stroke="midnightblue" points="461.628,-81.4958 452.726,-75.7511 456.103,-85.7934 461.628,-81.4958"/>
</g>
<!-- Node8 -->
<g id="node8" class="node"><title>Node8</title>
<polygon fill="white" stroke="#bfbfbf" points="488.92,-56.5 488.92,-75.5 540.92,-75.5 540.92,-56.5 488.92,-56.5"/>
<text text-anchor="middle" x="514.92" y="-63.5" font-family="Helvetica,sans-Serif" font-size="10.00">assert.h</text>
</g>
<!-- Node6&#45;&gt;Node8 -->
<g id="edge8" class="edge"><title>Node6&#45;&gt;Node8</title>
<path fill="none" stroke="midnightblue" d="M492.378,-112.083C496.074,-104.691 501.443,-93.9533 506.014,-84.8111"/>
<polygon fill="midnightblue" stroke="midnightblue" points="509.203,-86.2606 510.544,-75.7511 502.942,-83.1301 509.203,-86.2606"/>
</g>
<!-- Node9 -->
<g id="node9" class="node"><title>Node9</title>
<polygon fill="white" stroke="#bfbfbf" points="558.92,-56.5 558.92,-75.5 612.92,-75.5 612.92,-56.5 558.92,-56.5"/>
<text text-anchor="middle" x="585.92" y="-63.5" font-family="Helvetica,sans-Serif" font-size="10.00">setjmp.h</text>
</g>
<!-- Node6&#45;&gt;Node9 -->
<g id="edge9" class="edge"><title>Node6&#45;&gt;Node9</title>
<path fill="none" stroke="midnightblue" d="M503.665,-112.324C519.238,-103.743 543.297,-90.486 561.379,-80.5224"/>
<polygon fill="midnightblue" stroke="midnightblue" points="563.144,-83.546 570.213,-75.6545 559.766,-77.4152 563.144,-83.546"/>
</g>
<!-- Node10&#45;&gt;Node6 -->
<g id="edge20" class="edge"><title>Node10&#45;&gt;Node6</title>
<path fill="none" stroke="midnightblue" d="M639.398,-168.444C608.853,-159.28 560.212,-144.688 526.317,-134.519"/>
<polygon fill="midnightblue" stroke="midnightblue" points="526.892,-131.038 516.308,-131.516 524.88,-137.742 526.892,-131.038"/>
</g>
<!-- Node11 -->
<g id="node11" class="node"><title>Node11</title>
<g id="a_node11"><a xlink:href="ceptr__types_8h_source.html" target="_top" xlink:title="ceptr_types.h">
<polygon fill="white" stroke="black" points="674.92,-112.5 674.92,-131.5 750.92,-131.5 750.92,-112.5 674.92,-112.5"/>
<text text-anchor="middle" x="712.92" y="-119.5" font-family="Helvetica,sans-Serif" font-size="10.00">ceptr_types.h</text>
</a>
</g>
</g>
<!-- Node10&#45;&gt;Node11 -->
<g id="edge11" class="edge"><title>Node10&#45;&gt;Node11</title>
<path fill="none" stroke="midnightblue" d="M675.351,-168.083C681.772,-160.377 691.225,-149.033 699.042,-139.653"/>
<polygon fill="midnightblue" stroke="midnightblue" points="701.914,-141.674 705.627,-131.751 696.537,-137.193 701.914,-141.674"/>
</g>
<!-- Node11&#45;&gt;Node4 -->
<g id="edge13" class="edge"><title>Node11&#45;&gt;Node4</title>
<path fill="none" stroke="midnightblue" d="M674.595,-117.073C575.499,-106.919 312.056,-79.9248 219.024,-70.392"/>
<polygon fill="midnightblue" stroke="midnightblue" points="219.351,-66.9073 209.046,-69.3697 218.637,-73.8708 219.351,-66.9073"/>
</g>
<!-- Node12 -->
<g id="node12" class="node"><title>Node12</title>
<polygon fill="white" stroke="#bfbfbf" points="315.42,-56.5 315.42,-75.5 364.42,-75.5 364.42,-56.5 315.42,-56.5"/>
<text text-anchor="middle" x="339.92" y="-63.5" font-family="Helvetica,sans-Serif" font-size="10.00">stdint.h</text>
</g>
<!-- Node11&#45;&gt;Node12 -->
<g id="edge12" class="edge"><title>Node11&#45;&gt;Node12</title>
<path fill="none" stroke="midnightblue" d="M674.755,-115.475C601.993,-104.941 444.457,-82.1341 374.545,-72.0128"/>
<polygon fill="midnightblue" stroke="midnightblue" points="374.893,-68.5267 364.495,-70.5578 373.89,-75.4545 374.893,-68.5267"/>
</g>
<!-- Node13 -->
<g id="node13" class="node"><title>Node13</title>
<g id="a_node13"><a xlink:href="uthash_8h_source.html" target="_top" xlink:title="uthash.h">
<polygon fill="white" stroke="black" points="834.92,-56.5 834.92,-75.5 888.92,-75.5 888.92,-56.5 834.92,-56.5"/>
<text text-anchor="middle" x="861.92" y="-63.5" font-family="Helvetica,sans-Serif" font-size="10.00">uthash.h</text>
</a>
</g>
</g>
<!-- Node11&#45;&gt;Node13 -->
<g id="edge14" class="edge"><title>Node11&#45;&gt;Node13</title>
<path fill="none" stroke="midnightblue" d="M736.529,-112.444C761.378,-103.438 800.694,-89.1891 828.673,-79.049"/>
<polygon fill="midnightblue" stroke="midnightblue" points="830.212,-82.2144 838.421,-75.5164 827.827,-75.6332 830.212,-82.2144"/>
</g>
<!-- Node16 -->
<g id="node16" class="node"><title>Node16</title>
<polygon fill="white" stroke="#bfbfbf" points="684.92,-56.5 684.92,-75.5 740.92,-75.5 740.92,-56.5 684.92,-56.5"/>
<text text-anchor="middle" x="712.92" y="-63.5" font-family="Helvetica,sans-Serif" font-size="10.00">stdbool.h</text>
</g>
<!-- Node11&#45;&gt;Node16 -->
<g id="edge19" class="edge"><title>Node11&#45;&gt;Node16</title>
<path fill="none" stroke="midnightblue" d="M712.92,-112.083C712.92,-105.006 712.92,-94.8611 712.92,-85.9865"/>
<polygon fill="midnightblue" stroke="midnightblue" points="716.42,-85.751 712.92,-75.7511 709.42,-85.7511 716.42,-85.751"/>
</g>
<!-- Node13&#45;&gt;Node3 -->
<g id="edge15" class="edge"><title>Node13&#45;&gt;Node3</title>
<path fill="none" stroke="midnightblue" d="M835.933,-56.4435C807.816,-47.1854 762.868,-32.3854 731.951,-22.2054"/>
<polygon fill="midnightblue" stroke="midnightblue" points="733.038,-18.8786 722.445,-19.0755 730.849,-25.5275 733.038,-18.8786"/>
</g>
<!-- Node13&#45;&gt;Node5 -->
<g id="edge17" class="edge"><title>Node13&#45;&gt;Node5</title>
<path fill="none" stroke="midnightblue" d="M834.721,-62.2851C744.481,-53.2778 455.051,-24.3884 355.184,-14.4201"/>
<polygon fill="midnightblue" stroke="midnightblue" points="355.339,-10.9183 345.041,-13.4077 354.644,-17.8837 355.339,-10.9183"/>
</g>
<!-- Node14 -->
<g id="node14" class="node"><title>Node14</title>
<polygon fill="white" stroke="#bfbfbf" points="798.92,-0.5 798.92,-19.5 850.92,-19.5 850.92,-0.5 798.92,-0.5"/>
<text text-anchor="middle" x="824.92" y="-7.5" font-family="Helvetica,sans-Serif" font-size="10.00">stddef.h</text>
</g>
<!-- Node13&#45;&gt;Node14 -->
<g id="edge16" class="edge"><title>Node13&#45;&gt;Node14</title>
<path fill="none" stroke="midnightblue" d="M855.81,-56.083C850.638,-48.5341 843.074,-37.4948 836.725,-28.2298"/>
<polygon fill="midnightblue" stroke="midnightblue" points="839.456,-26.0221 830.916,-19.7511 833.681,-29.9787 839.456,-26.0221"/>
</g>
<!-- Node15 -->
<g id="node15" class="node"><title>Node15</title>
<polygon fill="white" stroke="#bfbfbf" points="869.42,-0.5 869.42,-19.5 928.42,-19.5 928.42,-0.5 869.42,-0.5"/>
<text text-anchor="middle" x="898.92" y="-7.5" font-family="Helvetica,sans-Serif" font-size="10.00">inttypes.h</text>
</g>
<!-- Node13&#45;&gt;Node15 -->
<g id="edge18" class="edge"><title>Node13&#45;&gt;Node15</title>
<path fill="none" stroke="midnightblue" d="M868.03,-56.083C873.202,-48.5341 880.766,-37.4948 887.114,-28.2298"/>
<polygon fill="midnightblue" stroke="midnightblue" points="890.159,-29.9787 892.924,-19.7511 884.384,-26.0221 890.159,-29.9787"/>
</g>
<!-- Node17&#45;&gt;Node3 -->
<g id="edge22" class="edge"><title>Node17&#45;&gt;Node3</title>
<path fill="none" stroke="midnightblue" d="M691.479,-342C734.397,-334.488 832.777,-310.46 871.92,-244 924.33,-155.014 781.888,-59.4706 722.524,-24.665"/>
<polygon fill="midnightblue" stroke="midnightblue" points="724.164,-21.5707 713.752,-19.6107 720.669,-27.6359 724.164,-21.5707"/>
</g>
<!-- Node17&#45;&gt;Node5 -->
<g id="edge23" class="edge"><title>Node17&#45;&gt;Node5</title>
<path fill="none" stroke="midnightblue" d="M650.187,-342.877C601.55,-337.572 481.753,-322.525 448.92,-300 400.222,-266.591 322.472,-132.689 305.92,-76 301.361,-60.3857 306.319,-42.3391 311.724,-29.2292"/>
<polygon fill="midnightblue" stroke="midnightblue" points="315.008,-30.4645 315.982,-19.9145 308.641,-27.5547 315.008,-30.4645"/>
</g>
<!-- Node17&#45;&gt;Node6 -->
<g id="edge24" class="edge"><title>Node17&#45;&gt;Node6</title>
<path fill="none" stroke="midnightblue" d="M663.746,-336.297C636.363,-303.079 538.136,-183.918 501.673,-139.684"/>
<polygon fill="midnightblue" stroke="midnightblue" points="504.304,-137.374 495.243,-131.884 498.903,-141.826 504.304,-137.374"/>
</g>
<!-- Node17&#45;&gt;Node11 -->
<g id="edge30" class="edge"><title>Node17&#45;&gt;Node11</title>
<path fill="none" stroke="midnightblue" d="M691.457,-337.993C709.212,-330.962 734.399,-318.502 749.92,-300 766.905,-279.753 765.409,-270.041 769.92,-244 776.913,-203.626 747.184,-161.422 728.034,-139.092"/>
<polygon fill="midnightblue" stroke="midnightblue" points="730.579,-136.687 721.312,-131.553 725.355,-141.346 730.579,-136.687"/>
</g>
<!-- Node18 -->
<g id="node18" class="node"><title>Node18</title>
<g id="a_node18"><a xlink:href="sys__defs_8h.html" target="_top" xlink:title="Defines types and vars for system defined semantics. ">
<polygon fill="white" stroke="black" points="696.42,-224.5 696.42,-243.5 761.42,-243.5 761.42,-224.5 696.42,-224.5"/>
<text text-anchor="middle" x="728.92" y="-231.5" font-family="Helvetica,sans-Serif" font-size="10.00">sys_defs.h</text>
</a>
</g>
</g>
<!-- Node17&#45;&gt;Node18 -->
<g id="edge25" class="edge"><title>Node17&#45;&gt;Node18</title>
<path fill="none" stroke="midnightblue" d="M691.142,-336.495C705.691,-329.168 724.221,-317.063 732.92,-300 740.295,-285.535 738.136,-266.844 734.82,-253.22"/>
<polygon fill="midnightblue" stroke="midnightblue" points="738.174,-252.219 732.072,-243.558 731.441,-254.134 738.174,-252.219"/>
</g>
<!-- Node19 -->
<g id="node19" class="node"><title>Node19</title>
<g id="a_node19"><a xlink:href="base__defs_8h.html" target="_top" xlink:title="auto&#45;generated system definitions ">
<polygon fill="white" stroke="black" points="653.92,-280.5 653.92,-299.5 723.92,-299.5 723.92,-280.5 653.92,-280.5"/>
<text text-anchor="middle" x="688.92" y="-287.5" font-family="Helvetica,sans-Serif" font-size="10.00">base_defs.h</text>
</a>
</g>
</g>
<!-- Node17&#45;&gt;Node19 -->
<g id="edge28" class="edge"><title>Node17&#45;&gt;Node19</title>
<path fill="none" stroke="midnightblue" d="M673.892,-336.083C676.304,-328.849 679.784,-318.409 682.788,-309.397"/>
<polygon fill="midnightblue" stroke="midnightblue" points="686.161,-310.345 686.003,-299.751 679.52,-308.131 686.161,-310.345"/>
</g>
<!-- Node17&#45;&gt;Node20 -->
<g id="edge31" class="edge"><title>Node17&#45;&gt;Node20</title>
<path fill="none" stroke="midnightblue" d="M650.288,-342.468C581.32,-334.004 358.107,-306.609 268.58,-295.622"/>
<polygon fill="midnightblue" stroke="midnightblue" points="268.944,-292.14 258.592,-294.396 268.091,-299.088 268.944,-292.14"/>
</g>
<!-- Node18&#45;&gt;Node10 -->
<g id="edge27" class="edge"><title>Node18&#45;&gt;Node10</title>
<path fill="none" stroke="midnightblue" d="M719.119,-224.324C710.102,-216.341 696.514,-204.313 685.602,-194.653"/>
<polygon fill="midnightblue" stroke="midnightblue" points="687.706,-191.842 677.899,-187.834 683.066,-197.083 687.706,-191.842"/>
</g>
<!-- Node18&#45;&gt;Node11 -->
<g id="edge26" class="edge"><title>Node18&#45;&gt;Node11</title>
<path fill="none" stroke="midnightblue" d="M727.664,-224.368C725.082,-206.617 719.126,-165.666 715.625,-141.597"/>
<polygon fill="midnightblue" stroke="midnightblue" points="719.072,-140.983 714.169,-131.591 712.145,-141.991 719.072,-140.983"/>
</g>
<!-- Node19&#45;&gt;Node18 -->
<g id="edge29" class="edge"><title>Node19&#45;&gt;Node18</title>
<path fill="none" stroke="midnightblue" d="M695.525,-280.083C701.175,-272.455 709.465,-261.264 716.371,-251.941"/>
<polygon fill="midnightblue" stroke="midnightblue" points="719.298,-253.87 722.437,-243.751 713.673,-249.703 719.298,-253.87"/>
</g>
<!-- Node20&#45;&gt;Node4 -->
<g id="edge32" class="edge"><title>Node20&#45;&gt;Node4</title>
<path fill="none" stroke="midnightblue" d="M220.344,-280.252C211.213,-271.982 198.62,-258.679 192.92,-244 171.809,-189.634 178.134,-118.685 182.831,-85.5548"/>
<polygon fill="midnightblue" stroke="midnightblue" points="186.317,-85.9187 184.378,-75.5028 179.398,-84.8545 186.317,-85.9187"/>
</g>
<!-- Node21 -->
<g id="node21" class="node"><title>Node21</title>
<polygon fill="white" stroke="#bfbfbf" points="202.42,-224.5 202.42,-243.5 259.42,-243.5 259.42,-224.5 202.42,-224.5"/>
<text text-anchor="middle" x="230.92" y="-231.5" font-family="Helvetica,sans-Serif" font-size="10.00">pthread.h</text>
</g>
<!-- Node20&#45;&gt;Node21 -->
<g id="edge33" class="edge"><title>Node20&#45;&gt;Node21</title>
<path fill="none" stroke="midnightblue" d="M230.92,-280.083C230.92,-273.006 230.92,-262.861 230.92,-253.986"/>
<polygon fill="midnightblue" stroke="midnightblue" points="234.42,-253.751 230.92,-243.751 227.42,-253.751 234.42,-253.751"/>
</g>
<!-- Node22&#45;&gt;Node3 -->
<g id="edge35" class="edge"><title>Node22&#45;&gt;Node3</title>
<path fill="none" stroke="midnightblue" d="M489.19,-280.083C498.093,-267.478 514.979,-243.779 529.92,-224 585.923,-149.861 655.381,-63.495 684.298,-27.776"/>
<polygon fill="midnightblue" stroke="midnightblue" points="687.165,-29.7968 690.743,-19.8244 681.727,-25.389 687.165,-29.7968"/>
</g>
<!-- Node22&#45;&gt;Node5 -->
<g id="edge36" class="edge"><title>Node22&#45;&gt;Node5</title>
<path fill="none" stroke="midnightblue" d="M480.265,-280.257C470.191,-248.022 431.879,-133.676 372.92,-56 364.235,-44.5587 352.228,-33.9323 341.94,-25.8819"/>
<polygon fill="midnightblue" stroke="midnightblue" points="343.907,-22.9818 333.813,-19.7641 339.697,-28.5745 343.907,-22.9818"/>
</g>
<!-- Node22&#45;&gt;Node6 -->
<g id="edge37" class="edge"><title>Node22&#45;&gt;Node6</title>
<path fill="none" stroke="midnightblue" d="M483.189,-280.075C483.976,-253.945 486.287,-177.211 487.36,-141.577"/>
<polygon fill="midnightblue" stroke="midnightblue" points="490.859,-141.669 487.662,-131.568 483.862,-141.458 490.859,-141.669"/>
</g>
<!-- Node22&#45;&gt;Node11 -->
<g id="edge39" class="edge"><title>Node22&#45;&gt;Node11</title>
<path fill="none" stroke="midnightblue" d="M491.715,-280.31C513.284,-259.289 571.055,-204.719 625.92,-168 644.402,-155.631 666.706,-144.155 684.103,-135.888"/>
<polygon fill="midnightblue" stroke="midnightblue" points="685.625,-139.04 693.208,-131.641 682.666,-132.697 685.625,-139.04"/>
</g>
<!-- Node22&#45;&gt;Node18 -->
<g id="edge38" class="edge"><title>Node22&#45;&gt;Node18</title>
<path fill="none" stroke="midnightblue" d="M508.32,-283.424C550.441,-274.178 635.182,-255.577 686.501,-244.311"/>
<polygon fill="midnightblue" stroke="midnightblue" points="687.28,-247.724 696.297,-242.161 685.779,-240.887 687.28,-247.724"/>
</g>
<!-- Node23&#45;&gt;Node4 -->
<g id="edge43" class="edge"><title>Node23&#45;&gt;Node4</title>
<path fill="none" stroke="midnightblue" d="M69.1168,-113.378C91.3212,-104.561 128.199,-89.9185 154.578,-79.4444"/>
<polygon fill="midnightblue" stroke="midnightblue" points="156.12,-82.5983 164.122,-75.655 153.536,-76.0924 156.12,-82.5983"/>
</g>
<!-- Node23&#45;&gt;Node12 -->
<g id="edge45" class="edge"><title>Node23&#45;&gt;Node12</title>
<path fill="none" stroke="midnightblue" d="M68.9475,-117.457C116.952,-108.518 243.539,-84.9468 305.19,-73.4669"/>
<polygon fill="midnightblue" stroke="midnightblue" points="306.02,-76.8726 315.21,-71.6011 304.738,-69.9909 306.02,-76.8726"/>
</g>
<!-- Node24 -->
<g id="node24" class="node"><title>Node24</title>
<polygon fill="white" stroke="#bfbfbf" points="91.4198,-56.5 91.4198,-75.5 140.42,-75.5 140.42,-56.5 91.4198,-56.5"/>
<text text-anchor="middle" x="115.92" y="-63.5" font-family="Helvetica,sans-Serif" font-size="10.00">ctype.h</text>
</g>
<!-- Node23&#45;&gt;Node24 -->
<g id="edge42" class="edge"><title>Node23&#45;&gt;Node24</title>
<path fill="none" stroke="midnightblue" d="M60.5238,-112.324C70.376,-104.263 85.2707,-92.0765 97.1349,-82.3695"/>
<polygon fill="midnightblue" stroke="midnightblue" points="99.5995,-84.8752 105.123,-75.8339 95.1668,-79.4575 99.5995,-84.8752"/>
</g>
<!-- Node25 -->
<g id="node25" class="node"><title>Node25</title>
<polygon fill="white" stroke="#bfbfbf" points="28.9198,-56.5 28.9198,-75.5 72.9198,-75.5 72.9198,-56.5 28.9198,-56.5"/>
<text text-anchor="middle" x="50.9198" y="-63.5" font-family="Helvetica,sans-Serif" font-size="10.00">time.h</text>
</g>
<!-- Node23&#45;&gt;Node25 -->
<g id="edge44" class="edge"><title>Node23&#45;&gt;Node25</title>
<path fill="none" stroke="midnightblue" d="M50.0849,-112.083C50.216,-105.006 50.4038,-94.8611 50.5682,-85.9865"/>
<polygon fill="midnightblue" stroke="midnightblue" points="54.0719,-85.8142 50.7577,-75.7511 47.0731,-85.6845 54.0719,-85.8142"/>
</g>
<!-- Node26&#45;&gt;Node4 -->
<g id="edge47" class="edge"><title>Node26&#45;&gt;Node4</title>
<path fill="none" stroke="midnightblue" d="M139.843,-168.368C147.985,-150.456 166.864,-108.923 177.762,-84.9482"/>
<polygon fill="midnightblue" stroke="midnightblue" points="181.063,-86.1434 182.015,-75.5914 174.69,-83.2468 181.063,-86.1434"/>
</g>
<!-- Node27&#45;&gt;Node12 -->
<g id="edge49" class="edge"><title>Node27&#45;&gt;Node12</title>
<path fill="none" stroke="midnightblue" d="M299.372,-168.368C306.537,-150.456 323.15,-108.923 332.741,-84.9482"/>
<polygon fill="midnightblue" stroke="midnightblue" points="336.019,-86.1761 336.483,-75.5914 329.52,-83.5763 336.019,-86.1761"/>
</g>
<!-- Node28&#45;&gt;Node17 -->
<g id="edge51" class="edge"><title>Node28&#45;&gt;Node17</title>
<path fill="none" stroke="midnightblue" d="M568.63,-448.368C587.272,-429.894 631.27,-386.293 655.033,-362.744"/>
<polygon fill="midnightblue" stroke="midnightblue" points="657.611,-365.117 662.25,-355.591 652.684,-360.144 657.611,-365.117"/>
</g>
<!-- Node29&#45;&gt;Node10 -->
<g id="edge53" class="edge"><title>Node29&#45;&gt;Node10</title>
<path fill="none" stroke="midnightblue" d="M658.139,-448.369C647.525,-440.36 633.189,-427.379 626.92,-412 595.969,-336.075 638.218,-236.883 658.327,-196.876"/>
<polygon fill="midnightblue" stroke="midnightblue" points="661.522,-198.318 663.012,-187.829 655.306,-195.099 661.522,-198.318"/>
</g>
<!-- Node29&#45;&gt;Node17 -->
<g id="edge54" class="edge"><title>Node29&#45;&gt;Node17</title>
<path fill="none" stroke="midnightblue" d="M659.503,-448.282C645.294,-436.286 623.825,-413.701 631.92,-392 636.093,-380.812 644.439,-370.56 652.344,-362.676"/>
<polygon fill="midnightblue" stroke="midnightblue" points="654.981,-365.003 659.93,-355.635 650.219,-359.872 654.981,-365.003"/>
</g>
<!-- Node30 -->
<g id="node30" class="node"><title>Node30</title>
<g id="a_node30"><a xlink:href="def_8h.html" target="_top" xlink:title="header file for symbol and structure definition functions ">
<polygon fill="white" stroke="black" points="787.92,-392.5 787.92,-411.5 825.92,-411.5 825.92,-392.5 787.92,-392.5"/>
<text text-anchor="middle" x="806.92" y="-399.5" font-family="Helvetica,sans-Serif" font-size="10.00">def.h</text>
</a>
</g>
</g>
<!-- Node29&#45;&gt;Node30 -->
<g id="edge55" class="edge"><title>Node29&#45;&gt;Node30</title>
<path fill="none" stroke="midnightblue" d="M692.469,-448.444C715.612,-439.255 752.504,-424.606 778.122,-414.434"/>
<polygon fill="midnightblue" stroke="midnightblue" points="779.667,-417.587 787.67,-410.643 777.084,-411.081 779.667,-417.587"/>
</g>
<!-- Node32 -->
<g id="node32" class="node"><title>Node32</title>
<g id="a_node32"><a xlink:href="label_8h.html" target="_top" xlink:title="Label tables map human readable text strings to parts of semantic trees. ">
<polygon fill="white" stroke="black" points="818.42,-224.5 818.42,-243.5 863.42,-243.5 863.42,-224.5 818.42,-224.5"/>
<text text-anchor="middle" x="840.92" y="-231.5" font-family="Helvetica,sans-Serif" font-size="10.00">label.h</text>
</a>
</g>
</g>
<!-- Node29&#45;&gt;Node32 -->
<g id="edge58" class="edge"><title>Node29&#45;&gt;Node32</title>
<path fill="none" stroke="midnightblue" d="M714.221,-450.975C757.597,-443.964 820.007,-430.884 834.92,-412 871.717,-365.405 856.415,-288.395 846.675,-253.366"/>
<polygon fill="midnightblue" stroke="midnightblue" points="849.969,-252.16 843.781,-243.56 843.255,-254.141 849.969,-252.16"/>
</g>
<!-- Node33 -->
<g id="node33" class="node"><title>Node33</title>
<g id="a_node33"><a xlink:href="process_8h.html" target="_top" xlink:title="processing header files ">
<polygon fill="white" stroke="black" points="641.42,-392.5 641.42,-411.5 700.42,-411.5 700.42,-392.5 641.42,-392.5"/>
<text text-anchor="middle" x="670.92" y="-399.5" font-family="Helvetica,sans-Serif" font-size="10.00">process.h</text>
</a>
</g>
</g>
<!-- Node29&#45;&gt;Node33 -->
<g id="edge60" class="edge"><title>Node29&#45;&gt;Node33</title>
<path fill="none" stroke="midnightblue" d="M670.92,-448.083C670.92,-441.006 670.92,-430.861 670.92,-421.986"/>
<polygon fill="midnightblue" stroke="midnightblue" points="674.42,-421.751 670.92,-411.751 667.42,-421.751 674.42,-421.751"/>
</g>
<!-- Node34 -->
<g id="node34" class="node"><title>Node34</title>
<g id="a_node34"><a xlink:href="scape_8h.html" target="_top" xlink:title="scape header files ">
<polygon fill="white" stroke="black" points="718.42,-392.5 718.42,-411.5 769.42,-411.5 769.42,-392.5 718.42,-392.5"/>
<text text-anchor="middle" x="743.92" y="-399.5" font-family="Helvetica,sans-Serif" font-size="10.00">scape.h</text>
</a>
</g>
</g>
<!-- Node29&#45;&gt;Node34 -->
<g id="edge62" class="edge"><title>Node29&#45;&gt;Node34</title>
<path fill="none" stroke="midnightblue" d="M682.648,-448.324C693.757,-440.107 710.662,-427.602 723.903,-417.807"/>
<polygon fill="midnightblue" stroke="midnightblue" points="726.02,-420.595 731.978,-411.834 721.857,-414.967 726.02,-420.595"/>
</g>
<!-- Node30&#45;&gt;Node17 -->
<g id="edge56" class="edge"><title>Node30&#45;&gt;Node17</title>
<path fill="none" stroke="midnightblue" d="M787.723,-393.378C765.259,-384.458 727.776,-369.575 701.34,-359.079"/>
<polygon fill="midnightblue" stroke="midnightblue" points="702.389,-355.729 691.803,-355.292 699.806,-362.235 702.389,-355.729"/>
</g>
<!-- Node31 -->
<g id="node31" class="node"><title>Node31</title>
<polygon fill="white" stroke="#bfbfbf" points="773.92,-336.5 773.92,-355.5 825.92,-355.5 825.92,-336.5 773.92,-336.5"/>
<text text-anchor="middle" x="799.92" y="-343.5" font-family="Helvetica,sans-Serif" font-size="10.00">stdarg.h</text>
</g>
<!-- Node30&#45;&gt;Node31 -->
<g id="edge57" class="edge"><title>Node30&#45;&gt;Node31</title>
<path fill="none" stroke="midnightblue" d="M805.764,-392.083C804.836,-384.927 803.502,-374.635 802.343,-365.691"/>
<polygon fill="midnightblue" stroke="midnightblue" points="805.811,-365.218 801.054,-355.751 798.869,-366.118 805.811,-365.218"/>
</g>
<!-- Node32&#45;&gt;Node11 -->
<g id="edge59" class="edge"><title>Node32&#45;&gt;Node11</title>
<path fill="none" stroke="midnightblue" d="M837.91,-224.358C832.81,-210.801 821.299,-184.395 803.92,-168 788.56,-153.509 767.644,-142.726 749.738,-135.353"/>
<polygon fill="midnightblue" stroke="midnightblue" points="750.743,-131.988 740.155,-131.606 748.194,-138.507 750.743,-131.988"/>
</g>
<!-- Node33&#45;&gt;Node17 -->
<g id="edge61" class="edge"><title>Node33&#45;&gt;Node17</title>
<path fill="none" stroke="midnightblue" d="M670.92,-392.083C670.92,-385.006 670.92,-374.861 670.92,-365.986"/>
<polygon fill="midnightblue" stroke="midnightblue" points="674.42,-365.751 670.92,-355.751 667.42,-365.751 674.42,-365.751"/>
</g>
<!-- Node34&#45;&gt;Node17 -->
<g id="edge63" class="edge"><title>Node34&#45;&gt;Node17</title>
<path fill="none" stroke="midnightblue" d="M732.191,-392.324C721.082,-384.107 704.178,-371.602 690.936,-361.807"/>
<polygon fill="midnightblue" stroke="midnightblue" points="692.983,-358.967 682.862,-355.834 688.82,-364.595 692.983,-358.967"/>
</g>
</g>
</svg>
        <g id="navigator" transform="translate(0 0)" fill="#404254">
                <rect fill="#f2f5e9" fill-opacity="0.5" stroke="#606060" stroke-width=".5" x="0" y="0" width="60" height="60"/>
                <use id="zoomplus" xlink:href="#zoomPlus" x="17" y="9" onmousedown="handleZoom(evt,'in')"/>
                <use id="zoomminus" xlink:href="#zoomMin" x="42" y="9" onmousedown="handleZoom(evt,'out')"/>
                <use id="reset" xlink:href="#resetDef" x="30" y="36" onmousedown="handleReset()"/>
                <g id="arrowUp" xlink:href="#dirArrow" transform="translate(30 24)" onmousedown="handlePan(0,-1)">
                  <use xlink:href="#rim" fill="#404040">
                        <set attributeName="fill" to="#808080" begin="arrowUp.mouseover" end="arrowUp.mouseout"/>
                  </use>
                  <path fill="none" stroke="white" stroke-width="1.5" d="M0,-3.0v7 M-2.5,-0.5L0,-3.0L2.5,-0.5"/>
                </g>
                <g id="arrowRight" xlink:href="#dirArrow" transform="rotate(90) translate(36 -43)" onmousedown="handlePan(1,0)">
                  <use xlink:href="#rim" fill="#404040">
                        <set attributeName="fill" to="#808080" begin="arrowRight.mouseover" end="arrowRight.mouseout"/>
                  </use>
                  <path fill="none" stroke="white" stroke-width="1.5" d="M0,-3.0v7 M-2.5,-0.5L0,-3.0L2.5,-0.5"/>
                </g>
                <g id="arrowDown" xlink:href="#dirArrow" transform="rotate(180) translate(-30 -48)" onmousedown="handlePan(0,1)">
                  <use xlink:href="#rim" fill="#404040">
                        <set attributeName="fill" to="#808080" begin="arrowDown.mouseover" end="arrowDown.mouseout"/>
                  </use>
                  <path fill="none" stroke="white" stroke-width="1.5" d="M0,-3.0v7 M-2.5,-0.5L0,-3.0L2.5,-0.5"/>
                </g>
                <g id="arrowLeft" xlink:href="#dirArrow" transform="rotate(270) translate(-36 17)" onmousedown="handlePan(-1,0)">
                  <use xlink:href="#rim" fill="#404040">
                        <set attributeName="fill" to="#808080" begin="arrowLeft.mouseover" end="arrowLeft.mouseout"/>
                  </use>
                  <path fill="none" stroke="white" stroke-width="1.5" d="M0,-3.0v7 M-2.5,-0.5L0,-3.0L2.5,-0.5"/>
                </g>
        </g>
        <svg viewBox="0 0 15 15" width="100%" height="30px" preserveAspectRatio="xMaxYMin meet">
         <g id="arrow_out" transform="scale(0.3 0.3)">
          <a xlink:href="semtrex__spec_8h__incl_org.svg" target="_base">
           <rect id="button" ry="5" rx="5" y="6" x="6" height="38" width="38"
                fill="#f2f5e9" fill-opacity="0.5" stroke="#606060" stroke-width="1.0"/>
           <path id="arrow"
             d="M 11.500037,31.436501 C 11.940474,20.09759 22.043105,11.32322 32.158766,21.979434 L 37.068811,17.246167 C 37.068811,17.246167 37.088388,32 37.088388,32 L 22.160133,31.978069 C 22.160133,31.978069 26.997745,27.140456 26.997745,27.140456 C 18.528582,18.264221 13.291696,25.230495 11.500037,31.436501 z"
             style="fill:#404040;"/>
          </a>
         </g>
        </svg>
</svg>
