<?xml version="1.0" encoding="UTF-8" standalone="no"?>
<!DOCTYPE svg PUBLIC "-//W3C//DTD SVG 1.1//EN"
 "http://www.w3.org/Graphics/SVG/1.1/DTD/svg11.dtd">
<!-- Generated by graphviz version 2.38.0 (20140413.2041)
 -->
<!-- Title: src/semtable.c Pages: 1 -->
<svg width="548pt" height="476pt"
 viewBox="0.00 0.00 548.00 476.00" xmlns="http://www.w3.org/2000/svg" xmlns:xlink="http://www.w3.org/1999/xlink">
<g id="graph0" class="graph" transform="scale(1 1) rotate(0) translate(4 472)">
<title>src/semtable.c</title>
<polygon fill="white" stroke="none" points="-4,4 -4,-472 544,-472 544,4 -4,4"/>
<!-- Node1 -->
<g id="node1" class="node"><title>Node1</title>
<polygon fill="#bfbfbf" stroke="black" points="170.5,-448.5 170.5,-467.5 251.5,-467.5 251.5,-448.5 170.5,-448.5"/>
<text text-anchor="middle" x="211" y="-455.5" font-family="Helvetica,sans-Serif" font-size="10.00">src/semtable.c</text>
</g>
<!-- Node2 -->
<g id="node2" class="node"><title>Node2</title>
<g id="a_node2"><a xlink:href="semtable_8h.html" target="_top" xlink:title="header file for table for coordinating meaning across a vmhost ">
<polygon fill="white" stroke="black" points="203.5,-168.5 203.5,-187.5 268.5,-187.5 268.5,-168.5 203.5,-168.5"/>
<text text-anchor="middle" x="236" y="-175.5" font-family="Helvetica,sans-Serif" font-size="10.00">semtable.h</text>
</a>
</g>
</g>
<!-- Node1&#45;&gt;Node2 -->
<g id="edge1" class="edge"><title>Node1&#45;&gt;Node2</title>
<path fill="none" stroke="midnightblue" d="M211.776,-448.375C215.246,-409.782 229.394,-252.454 234.309,-197.807"/>
<polygon fill="midnightblue" stroke="midnightblue" points="237.824,-197.798 235.233,-187.524 230.852,-197.171 237.824,-197.798"/>
</g>
<!-- Node16 -->
<g id="node16" class="node"><title>Node16</title>
<g id="a_node16"><a xlink:href="def_8h.html" target="_top" xlink:title="header file for symbol and structure definition functions ">
<polygon fill="white" stroke="black" points="293,-392.5 293,-411.5 331,-411.5 331,-392.5 293,-392.5"/>
<text text-anchor="middle" x="312" y="-399.5" font-family="Helvetica,sans-Serif" font-size="10.00">def.h</text>
</a>
</g>
</g>
<!-- Node1&#45;&gt;Node16 -->
<g id="edge16" class="edge"><title>Node1&#45;&gt;Node16</title>
<path fill="none" stroke="midnightblue" d="M227.227,-448.324C243.351,-439.703 268.3,-426.364 286.964,-416.386"/>
<polygon fill="midnightblue" stroke="midnightblue" points="288.644,-419.456 295.813,-411.655 285.344,-413.283 288.644,-419.456"/>
</g>
<!-- Node3 -->
<g id="node3" class="node"><title>Node3</title>
<g id="a_node3"><a xlink:href="ceptr__types_8h_source.html" target="_top" xlink:title="ceptr_types.h">
<polygon fill="white" stroke="black" points="267,-112.5 267,-131.5 343,-131.5 343,-112.5 267,-112.5"/>
<text text-anchor="middle" x="305" y="-119.5" font-family="Helvetica,sans-Serif" font-size="10.00">ceptr_types.h</text>
</a>
</g>
</g>
<!-- Node2&#45;&gt;Node3 -->
<g id="edge2" class="edge"><title>Node2&#45;&gt;Node3</title>
<path fill="none" stroke="midnightblue" d="M247.086,-168.324C257.486,-160.185 273.261,-147.839 285.722,-138.087"/>
<polygon fill="midnightblue" stroke="midnightblue" points="287.994,-140.753 293.712,-131.834 283.68,-135.241 287.994,-140.753"/>
</g>
<!-- Node12 -->
<g id="node12" class="node"><title>Node12</title>
<g id="a_node12"><a xlink:href="ceptr__error_8h_source.html" target="_top" xlink:title="ceptr_error.h">
<polygon fill="white" stroke="black" points="132.5,-112.5 132.5,-131.5 203.5,-131.5 203.5,-112.5 132.5,-112.5"/>
<text text-anchor="middle" x="168" y="-119.5" font-family="Helvetica,sans-Serif" font-size="10.00">ceptr_error.h</text>
</a>
</g>
</g>
<!-- Node2&#45;&gt;Node12 -->
<g id="edge11" class="edge"><title>Node2&#45;&gt;Node12</title>
<path fill="none" stroke="midnightblue" d="M225.075,-168.324C214.825,-160.185 199.279,-147.839 186.999,-138.087"/>
<polygon fill="midnightblue" stroke="midnightblue" points="189.132,-135.312 179.124,-131.834 184.779,-140.794 189.132,-135.312"/>
</g>
<!-- Node4 -->
<g id="node4" class="node"><title>Node4</title>
<polygon fill="white" stroke="#bfbfbf" points="420.5,-56.5 420.5,-75.5 469.5,-75.5 469.5,-56.5 420.5,-56.5"/>
<text text-anchor="middle" x="445" y="-63.5" font-family="Helvetica,sans-Serif" font-size="10.00">stdint.h</text>
</g>
<!-- Node3&#45;&gt;Node4 -->
<g id="edge3" class="edge"><title>Node3&#45;&gt;Node4</title>
<path fill="none" stroke="midnightblue" d="M327.183,-112.444C350.428,-103.478 387.149,-89.314 413.415,-79.1827"/>
<polygon fill="midnightblue" stroke="midnightblue" points="414.85,-82.3807 422.92,-75.5164 412.331,-75.8497 414.85,-82.3807"/>
</g>
<!-- Node5 -->
<g id="node5" class="node"><title>Node5</title>
<polygon fill="white" stroke="#bfbfbf" points="282,-56.5 282,-75.5 328,-75.5 328,-56.5 282,-56.5"/>
<text text-anchor="middle" x="305" y="-63.5" font-family="Helvetica,sans-Serif" font-size="10.00">stdio.h</text>
</g>
<!-- Node3&#45;&gt;Node5 -->
<g id="edge4" class="edge"><title>Node3&#45;&gt;Node5</title>
<path fill="none" stroke="midnightblue" d="M305,-112.083C305,-105.006 305,-94.8611 305,-85.9865"/>
<polygon fill="midnightblue" stroke="midnightblue" points="308.5,-85.751 305,-75.7511 301.5,-85.7511 308.5,-85.751"/>
</g>
<!-- Node6 -->
<g id="node6" class="node"><title>Node6</title>
<g id="a_node6"><a xlink:href="uthash_8h_source.html" target="_top" xlink:title="uthash.h">
<polygon fill="white" stroke="black" points="210,-56.5 210,-75.5 264,-75.5 264,-56.5 210,-56.5"/>
<text text-anchor="middle" x="237" y="-63.5" font-family="Helvetica,sans-Serif" font-size="10.00">uthash.h</text>
</a>
</g>
</g>
<!-- Node3&#45;&gt;Node6 -->
<g id="edge5" class="edge"><title>Node3&#45;&gt;Node6</title>
<path fill="none" stroke="midnightblue" d="M294.075,-112.324C283.825,-104.185 268.279,-91.8395 255.999,-82.0874"/>
<polygon fill="midnightblue" stroke="midnightblue" points="258.132,-79.3119 248.124,-75.8339 253.779,-84.7937 258.132,-79.3119"/>
</g>
<!-- Node11 -->
<g id="node11" class="node"><title>Node11</title>
<polygon fill="white" stroke="#bfbfbf" points="346,-56.5 346,-75.5 402,-75.5 402,-56.5 346,-56.5"/>
<text text-anchor="middle" x="374" y="-63.5" font-family="Helvetica,sans-Serif" font-size="10.00">stdbool.h</text>
</g>
<!-- Node3&#45;&gt;Node11 -->
<g id="edge10" class="edge"><title>Node3&#45;&gt;Node11</title>
<path fill="none" stroke="midnightblue" d="M316.086,-112.324C326.486,-104.185 342.261,-91.8395 354.722,-82.0874"/>
<polygon fill="midnightblue" stroke="midnightblue" points="356.994,-84.7533 362.712,-75.8339 352.68,-79.2407 356.994,-84.7533"/>
</g>
<!-- Node7 -->
<g id="node7" class="node"><title>Node7</title>
<polygon fill="white" stroke="#bfbfbf" points="344.5,-0.5 344.5,-19.5 393.5,-19.5 393.5,-0.5 344.5,-0.5"/>
<text text-anchor="middle" x="369" y="-7.5" font-family="Helvetica,sans-Serif" font-size="10.00">string.h</text>
</g>
<!-- Node6&#45;&gt;Node7 -->
<g id="edge6" class="edge"><title>Node6&#45;&gt;Node7</title>
<path fill="none" stroke="midnightblue" d="M257.916,-56.4435C279.736,-47.5171 314.15,-33.4387 338.892,-23.3168"/>
<polygon fill="midnightblue" stroke="midnightblue" points="340.252,-26.5422 348.182,-19.5164 337.601,-20.0634 340.252,-26.5422"/>
</g>
<!-- Node8 -->
<g id="node8" class="node"><title>Node8</title>
<polygon fill="white" stroke="#bfbfbf" points="157,-0.5 157,-19.5 209,-19.5 209,-0.5 157,-0.5"/>
<text text-anchor="middle" x="183" y="-7.5" font-family="Helvetica,sans-Serif" font-size="10.00">stddef.h</text>
</g>
<!-- Node6&#45;&gt;Node8 -->
<g id="edge7" class="edge"><title>Node6&#45;&gt;Node8</title>
<path fill="none" stroke="midnightblue" d="M228.083,-56.083C220.22,-48.2195 208.569,-36.5688 199.081,-27.0813"/>
<polygon fill="midnightblue" stroke="midnightblue" points="201.297,-24.3473 191.751,-19.7511 196.347,-29.2971 201.297,-24.3473"/>
</g>
<!-- Node9 -->
<g id="node9" class="node"><title>Node9</title>
<polygon fill="white" stroke="#bfbfbf" points="492,-0.5 492,-19.5 540,-19.5 540,-0.5 492,-0.5"/>
<text text-anchor="middle" x="516" y="-7.5" font-family="Helvetica,sans-Serif" font-size="10.00">stdlib.h</text>
</g>
<!-- Node6&#45;&gt;Node9 -->
<g id="edge8" class="edge"><title>Node6&#45;&gt;Node9</title>
<path fill="none" stroke="midnightblue" d="M264.085,-58.0381C267.087,-57.3233 270.104,-56.6295 273,-56 347.058,-39.9017 434.609,-24.5945 481.773,-16.6511"/>
<polygon fill="midnightblue" stroke="midnightblue" points="482.474,-20.0826 491.758,-14.978 481.317,-13.1788 482.474,-20.0826"/>
</g>
<!-- Node10 -->
<g id="node10" class="node"><title>Node10</title>
<polygon fill="white" stroke="#bfbfbf" points="227.5,-0.5 227.5,-19.5 286.5,-19.5 286.5,-0.5 227.5,-0.5"/>
<text text-anchor="middle" x="257" y="-7.5" font-family="Helvetica,sans-Serif" font-size="10.00">inttypes.h</text>
</g>
<!-- Node6&#45;&gt;Node10 -->
<g id="edge9" class="edge"><title>Node6&#45;&gt;Node10</title>
<path fill="none" stroke="midnightblue" d="M240.303,-56.083C242.982,-48.8486 246.849,-38.4087 250.186,-29.3968"/>
<polygon fill="midnightblue" stroke="midnightblue" points="253.568,-30.3442 253.759,-19.7511 247.004,-27.9129 253.568,-30.3442"/>
</g>
<!-- Node12&#45;&gt;Node5 -->
<g id="edge12" class="edge"><title>Node12&#45;&gt;Node5</title>
<path fill="none" stroke="midnightblue" d="M189.708,-112.444C212.355,-103.517 248.072,-89.4387 273.752,-79.3168"/>
<polygon fill="midnightblue" stroke="midnightblue" points="275.374,-82.4397 283.394,-75.5164 272.807,-75.9273 275.374,-82.4397"/>
</g>
<!-- Node13 -->
<g id="node13" class="node"><title>Node13</title>
<polygon fill="white" stroke="#bfbfbf" points="72,-56.5 72,-75.5 122,-75.5 122,-56.5 72,-56.5"/>
<text text-anchor="middle" x="97" y="-63.5" font-family="Helvetica,sans-Serif" font-size="10.00">signal.h</text>
</g>
<!-- Node12&#45;&gt;Node13 -->
<g id="edge13" class="edge"><title>Node12&#45;&gt;Node13</title>
<path fill="none" stroke="midnightblue" d="M156.593,-112.324C145.891,-104.185 129.659,-91.8395 116.837,-82.0874"/>
<polygon fill="midnightblue" stroke="midnightblue" points="118.693,-79.1018 108.615,-75.8339 114.456,-84.6734 118.693,-79.1018"/>
</g>
<!-- Node14 -->
<g id="node14" class="node"><title>Node14</title>
<polygon fill="white" stroke="#bfbfbf" points="140,-56.5 140,-75.5 192,-75.5 192,-56.5 140,-56.5"/>
<text text-anchor="middle" x="166" y="-63.5" font-family="Helvetica,sans-Serif" font-size="10.00">assert.h</text>
</g>
<!-- Node12&#45;&gt;Node14 -->
<g id="edge14" class="edge"><title>Node12&#45;&gt;Node14</title>
<path fill="none" stroke="midnightblue" d="M167.67,-112.083C167.408,-105.006 167.032,-94.8611 166.703,-85.9865"/>
<polygon fill="midnightblue" stroke="midnightblue" points="170.192,-85.6147 166.324,-75.7511 163.197,-85.8738 170.192,-85.6147"/>
</g>
<!-- Node15 -->
<g id="node15" class="node"><title>Node15</title>
<polygon fill="white" stroke="#bfbfbf" points="0,-56.5 0,-75.5 54,-75.5 54,-56.5 0,-56.5"/>
<text text-anchor="middle" x="27" y="-63.5" font-family="Helvetica,sans-Serif" font-size="10.00">setjmp.h</text>
</g>
<!-- Node12&#45;&gt;Node15 -->
<g id="edge15" class="edge"><title>Node12&#45;&gt;Node15</title>
<path fill="none" stroke="midnightblue" d="M145.658,-112.444C122.247,-103.478 85.2644,-89.314 58.8104,-79.1827"/>
<polygon fill="midnightblue" stroke="midnightblue" points="59.8277,-75.8245 49.2373,-75.5164 57.3241,-82.3615 59.8277,-75.8245"/>
</g>
<!-- Node17 -->
<g id="node17" class="node"><title>Node17</title>
<g id="a_node17"><a xlink:href="tree_8h.html" target="_top" xlink:title="semantic trees header file ">
<polygon fill="white" stroke="black" points="291.5,-336.5 291.5,-355.5 332.5,-355.5 332.5,-336.5 291.5,-336.5"/>
<text text-anchor="middle" x="312" y="-343.5" font-family="Helvetica,sans-Serif" font-size="10.00">tree.h</text>
</a>
</g>
</g>
<!-- Node16&#45;&gt;Node17 -->
<g id="edge17" class="edge"><title>Node16&#45;&gt;Node17</title>
<path fill="none" stroke="midnightblue" d="M312,-392.083C312,-385.006 312,-374.861 312,-365.986"/>
<polygon fill="midnightblue" stroke="midnightblue" points="315.5,-365.751 312,-355.751 308.5,-365.751 315.5,-365.751"/>
</g>
<!-- Node22 -->
<g id="node22" class="node"><title>Node22</title>
<polygon fill="white" stroke="#bfbfbf" points="351,-336.5 351,-355.5 403,-355.5 403,-336.5 351,-336.5"/>
<text text-anchor="middle" x="377" y="-343.5" font-family="Helvetica,sans-Serif" font-size="10.00">stdarg.h</text>
</g>
<!-- Node16&#45;&gt;Node22 -->
<g id="edge30" class="edge"><title>Node16&#45;&gt;Node22</title>
<path fill="none" stroke="midnightblue" d="M322.443,-392.324C332.146,-384.263 346.815,-372.077 358.5,-362.369"/>
<polygon fill="midnightblue" stroke="midnightblue" points="360.911,-364.916 366.367,-355.834 356.438,-359.532 360.911,-364.916"/>
</g>
<!-- Node17&#45;&gt;Node3 -->
<g id="edge26" class="edge"><title>Node17&#45;&gt;Node3</title>
<path fill="none" stroke="midnightblue" d="M315.344,-336.197C318.554,-327.24 323.176,-312.883 325,-300 333.142,-242.481 318.566,-174.07 310.228,-141.723"/>
<polygon fill="midnightblue" stroke="midnightblue" points="313.555,-140.616 307.587,-131.863 306.794,-142.428 313.555,-140.616"/>
</g>
<!-- Node17&#45;&gt;Node7 -->
<g id="edge18" class="edge"><title>Node17&#45;&gt;Node7</title>
<path fill="none" stroke="midnightblue" d="M332.645,-338.86C363.373,-329.506 419.411,-311.558 437,-300 470.11,-278.244 498,-274.618 498,-235 498,-235 498,-235 498,-121 498,-90.7745 498.356,-78.3433 478,-56 458.577,-34.68 427.523,-23.1975 403.52,-17.1816"/>
<polygon fill="midnightblue" stroke="midnightblue" points="404.25,-13.7582 393.72,-14.9254 402.68,-20.5797 404.25,-13.7582"/>
</g>
<!-- Node17&#45;&gt;Node9 -->
<g id="edge19" class="edge"><title>Node17&#45;&gt;Node9</title>
<path fill="none" stroke="midnightblue" d="M332.645,-338.762C335.777,-337.828 338.972,-336.883 342,-336 435.318,-308.778 536,-332.207 536,-235 536,-235 536,-235 536,-121 536,-88.4377 527.412,-51.3152 521.491,-29.5922"/>
<polygon fill="midnightblue" stroke="midnightblue" points="524.793,-28.4076 518.697,-19.7419 518.058,-30.3175 524.793,-28.4076"/>
</g>
<!-- Node17&#45;&gt;Node12 -->
<g id="edge20" class="edge"><title>Node17&#45;&gt;Node12</title>
<path fill="none" stroke="midnightblue" d="M291.378,-338.481C272.899,-331.65 246.271,-319.204 230,-300 189.721,-252.461 175.016,-177.088 170.158,-142.059"/>
<polygon fill="midnightblue" stroke="midnightblue" points="173.591,-141.308 168.865,-131.825 166.646,-142.185 173.591,-141.308"/>
</g>
<!-- Node18 -->
<g id="node18" class="node"><title>Node18</title>
<g id="a_node18"><a xlink:href="sys__defs_8h.html" target="_top" xlink:title="Defines types and vars for system defined semantics. ">
<polygon fill="white" stroke="black" points="243.5,-224.5 243.5,-243.5 308.5,-243.5 308.5,-224.5 243.5,-224.5"/>
<text text-anchor="middle" x="276" y="-231.5" font-family="Helvetica,sans-Serif" font-size="10.00">sys_defs.h</text>
</a>
</g>
</g>
<!-- Node17&#45;&gt;Node18 -->
<g id="edge21" class="edge"><title>Node17&#45;&gt;Node18</title>
<path fill="none" stroke="midnightblue" d="M291.256,-338.953C273.322,-332.5 248.522,-320.349 237,-300 227.207,-282.704 242.544,-263.192 256.767,-250.099"/>
<polygon fill="midnightblue" stroke="midnightblue" points="259.091,-252.716 264.388,-243.54 254.525,-247.411 259.091,-252.716"/>
</g>
<!-- Node19 -->
<g id="node19" class="node"><title>Node19</title>
<g id="a_node19"><a xlink:href="base__defs_8h.html" target="_top" xlink:title="auto&#45;generated system definitions ">
<polygon fill="white" stroke="black" points="246,-280.5 246,-299.5 316,-299.5 316,-280.5 246,-280.5"/>
<text text-anchor="middle" x="281" y="-287.5" font-family="Helvetica,sans-Serif" font-size="10.00">base_defs.h</text>
</a>
</g>
</g>
<!-- Node17&#45;&gt;Node19 -->
<g id="edge24" class="edge"><title>Node17&#45;&gt;Node19</title>
<path fill="none" stroke="midnightblue" d="M306.881,-336.083C302.592,-328.613 296.342,-317.724 291.058,-308.52"/>
<polygon fill="midnightblue" stroke="midnightblue" points="294.038,-306.681 286.024,-299.751 287.967,-310.166 294.038,-306.681"/>
</g>
<!-- Node20 -->
<g id="node20" class="node"><title>Node20</title>
<g id="a_node20"><a xlink:href="stream_8h.html" target="_top" xlink:title="streams abstraction header file ">
<polygon fill="white" stroke="black" points="373.5,-280.5 373.5,-299.5 428.5,-299.5 428.5,-280.5 373.5,-280.5"/>
<text text-anchor="middle" x="401" y="-287.5" font-family="Helvetica,sans-Serif" font-size="10.00">stream.h</text>
</a>
</g>
</g>
<!-- Node17&#45;&gt;Node20 -->
<g id="edge27" class="edge"><title>Node17&#45;&gt;Node20</title>
<path fill="none" stroke="midnightblue" d="M326.299,-336.324C340.183,-327.9 361.492,-314.971 377.804,-305.074"/>
<polygon fill="midnightblue" stroke="midnightblue" points="380.002,-307.834 386.736,-299.655 376.371,-301.85 380.002,-307.834"/>
</g>
<!-- Node18&#45;&gt;Node2 -->
<g id="edge23" class="edge"><title>Node18&#45;&gt;Node2</title>
<path fill="none" stroke="midnightblue" d="M269.395,-224.083C263.745,-216.455 255.455,-205.264 248.549,-195.941"/>
<polygon fill="midnightblue" stroke="midnightblue" points="251.247,-193.703 242.482,-187.751 245.622,-197.87 251.247,-193.703"/>
</g>
<!-- Node18&#45;&gt;Node3 -->
<g id="edge22" class="edge"><title>Node18&#45;&gt;Node3</title>
<path fill="none" stroke="midnightblue" d="M278.276,-224.368C282.977,-206.537 293.849,-165.295 300.183,-141.272"/>
<polygon fill="midnightblue" stroke="midnightblue" points="303.57,-142.153 302.735,-131.591 296.801,-140.369 303.57,-142.153"/>
</g>
<!-- Node19&#45;&gt;Node18 -->
<g id="edge25" class="edge"><title>Node19&#45;&gt;Node18</title>
<path fill="none" stroke="midnightblue" d="M280.174,-280.083C279.519,-273.006 278.58,-262.861 277.758,-253.986"/>
<polygon fill="midnightblue" stroke="midnightblue" points="281.217,-253.386 276.81,-243.751 274.247,-254.031 281.217,-253.386"/>
</g>
<!-- Node20&#45;&gt;Node5 -->
<g id="edge28" class="edge"><title>Node20&#45;&gt;Node5</title>
<path fill="none" stroke="midnightblue" d="M411.438,-280.245C420.424,-271.969 432.746,-258.663 438,-244 440.998,-235.632 440.859,-232.417 438,-224 416.683,-161.236 356.394,-106.975 324.828,-81.8646"/>
<polygon fill="midnightblue" stroke="midnightblue" points="326.784,-78.9519 316.743,-75.5723 322.485,-84.4761 326.784,-78.9519"/>
</g>
<!-- Node21 -->
<g id="node21" class="node"><title>Node21</title>
<polygon fill="white" stroke="#bfbfbf" points="372.5,-224.5 372.5,-243.5 429.5,-243.5 429.5,-224.5 372.5,-224.5"/>
<text text-anchor="middle" x="401" y="-231.5" font-family="Helvetica,sans-Serif" font-size="10.00">pthread.h</text>
</g>
<!-- Node20&#45;&gt;Node21 -->
<g id="edge29" class="edge"><title>Node20&#45;&gt;Node21</title>
<path fill="none" stroke="midnightblue" d="M401,-280.083C401,-273.006 401,-262.861 401,-253.986"/>
<polygon fill="midnightblue" stroke="midnightblue" points="404.5,-253.751 401,-243.751 397.5,-253.751 404.5,-253.751"/>
</g>
</g>
</svg>
