<?xml version="1.0" encoding="UTF-8" standalone="no"?>
<!DOCTYPE svg PUBLIC "-//W3C//DTD SVG 1.1//EN"
 "http://www.w3.org/Graphics/SVG/1.1/DTD/svg11.dtd">
<!-- Generated by graphviz version 2.38.0 (20140413.2041)
 -->
<!-- Title: spec/semtrex_spec.h Pages: 1 -->
<!--zoomable 476 -->
<svg id="main" version="1.1" xmlns="http://www.w3.org/2000/svg" xmlns:xlink="http://www.w3.org/1999/xlink" xml:space="preserve" onload="init(evt)">
<style type="text/css"><![CDATA[
.edge:hover path { stroke: red; }
.edge:hover polygon { stroke: red; fill: red; }
]]></style>
<script type="text/javascript"><![CDATA[
var edges = document.getElementsByTagName('g');
if (edges && edges.length) {
  for (var i=0;i<edges.length;i++) {
    if (edges[i].id.substr(0,4)=='edge') {
      edges[i].setAttribute('class','edge');
    }
  }
}
]]></script>
        <defs>
                <circle id="rim" cx="0" cy="0" r="7"/>
                <circle id="rim2" cx="0" cy="0" r="3.5"/>
                <g id="zoomPlus">
                        <use xlink:href="#rim" fill="#404040">
                                <set attributeName="fill" to="#808080" begin="zoomplus.mouseover" end="zoomplus.mouseout"/>
                        </use>
                        <path d="M-4,0h8M0,-4v8" fill="none" stroke="white" stroke-width="1.5" pointer-events="none"/>
                </g>
                <g id="zoomMin">
                        <use xlink:href="#rim" fill="#404040">
                                <set attributeName="fill" to="#808080" begin="zoomminus.mouseover" end="zoomminus.mouseout"/>
                        </use>
                        <path d="M-4,0h8" fill="none" stroke="white" stroke-width="1.5" pointer-events="none"/>
                </g>
                <g id="dirArrow">
                        <path fill="none" stroke="white" stroke-width="1.5" d="M0,-3.0v7 M-2.5,-0.5L0,-3.0L2.5,-0.5"/>
                </g>
               <g id="resetDef">
                       <use xlink:href="#rim2" fill="#404040">
                               <set attributeName="fill" to="#808080" begin="reset.mouseover" end="reset.mouseout"/>
                       </use>
               </g>
        </defs>

<script type="text/javascript">
var viewWidth = 905;
var viewHeight = 476;
var sectionId = 'dynsection-0';
</script>
<script xlink:href="svgpan.js"/>
<svg id="graph" class="graph">
<g id="viewport">
<title>spec/semtrex_spec.h</title>
<polygon fill="white" stroke="none" points="-4,4 -4,-472 900.5,-472 900.5,4 -4,4"/>
<!-- Node1 -->
<g id="node1" class="node"><title>Node1</title>
<polygon fill="#bfbfbf" stroke="black" points="337,-448.5 337,-467.5 447,-467.5 447,-448.5 337,-448.5"/>
<text text-anchor="middle" x="392" y="-455.5" font-family="Helvetica,sans-Serif" font-size="10.00">spec/semtrex_spec.h</text>
</g>
<!-- Node2 -->
<g id="node2" class="node"><title>Node2</title>
<g id="a_node2"><a xlink:href="ceptr_8h_source.html" target="_top" xlink:title="../src/ceptr.h">
<polygon fill="white" stroke="black" points="255,-336.5 255,-355.5 327,-355.5 327,-336.5 255,-336.5"/>
<text text-anchor="middle" x="291" y="-343.5" font-family="Helvetica,sans-Serif" font-size="10.00">../src/ceptr.h</text>
</a>
</g>
</g>
<!-- Node1&#45;&gt;Node2 -->
<g id="edge1" class="edge"><title>Node1&#45;&gt;Node2</title>
<path fill="none" stroke="midnightblue" d="M384.075,-448.368C367.186,-429.974 327.425,-386.671 305.739,-363.052"/>
<polygon fill="midnightblue" stroke="midnightblue" points="308.23,-360.59 298.888,-355.591 303.074,-365.325 308.23,-360.59"/>
</g>
<!-- Node23 -->
<g id="node23" class="node"><title>Node23</title>
<g id="a_node23"><a xlink:href="hashfn_8h_source.html" target="_top" xlink:title="../src/hashfn.h">
<polygon fill="white" stroke="black" points="212,-112.5 212,-131.5 292,-131.5 292,-112.5 212,-112.5"/>
<text text-anchor="middle" x="252" y="-119.5" font-family="Helvetica,sans-Serif" font-size="10.00">../src/hashfn.h</text>
</a>
</g>
</g>
<!-- Node1&#45;&gt;Node23 -->
<g id="edge39" class="edge"><title>Node1&#45;&gt;Node23</title>
<path fill="none" stroke="midnightblue" d="M336.688,-451.397C237.125,-439.766 38,-408.783 38,-347 38,-347 38,-347 38,-233 38,-159.695 138.553,-135.201 201.806,-127.045"/>
<polygon fill="midnightblue" stroke="midnightblue" points="202.484,-130.489 211.999,-125.829 201.655,-123.538 202.484,-130.489"/>
</g>
<!-- Node24 -->
<g id="node24" class="node"><title>Node24</title>
<g id="a_node24"><a xlink:href="semtrex_8h.html" target="_top" xlink:title="Semantic tree regular expression header file. ">
<polygon fill="white" stroke="black" points="423,-392.5 423,-411.5 509,-411.5 509,-392.5 423,-392.5"/>
<text text-anchor="middle" x="466" y="-399.5" font-family="Helvetica,sans-Serif" font-size="10.00">../src/semtrex.h</text>
</a>
</g>
</g>
<!-- Node1&#45;&gt;Node24 -->
<g id="edge41" class="edge"><title>Node1&#45;&gt;Node24</title>
<path fill="none" stroke="midnightblue" d="M403.889,-448.324C415.15,-440.107 432.287,-427.602 445.709,-417.807"/>
<polygon fill="midnightblue" stroke="midnightblue" points="447.88,-420.556 453.894,-411.834 443.753,-414.901 447.88,-420.556"/>
</g>
<!-- Node25 -->
<g id="node25" class="node"><title>Node25</title>
<g id="a_node25"><a xlink:href="receptor_8h.html" target="_top" xlink:title="receptor implementation header file ">
<polygon fill="white" stroke="black" points="638,-392.5 638,-411.5 724,-411.5 724,-392.5 638,-392.5"/>
<text text-anchor="middle" x="681" y="-399.5" font-family="Helvetica,sans-Serif" font-size="10.00">../src/receptor.h</text>
</a>
</g>
</g>
<!-- Node1&#45;&gt;Node25 -->
<g id="edge43" class="edge"><title>Node1&#45;&gt;Node25</title>
<path fill="none" stroke="midnightblue" d="M437.793,-448.444C489.379,-438.805 573.113,-423.159 627.623,-412.974"/>
<polygon fill="midnightblue" stroke="midnightblue" points="628.594,-416.353 637.781,-411.075 627.309,-409.472 628.594,-416.353"/>
</g>
<!-- Node3 -->
<g id="node3" class="node"><title>Node3</title>
<polygon fill="white" stroke="#bfbfbf" points="370.5,-0.5 370.5,-19.5 419.5,-19.5 419.5,-0.5 370.5,-0.5"/>
<text text-anchor="middle" x="395" y="-7.5" font-family="Helvetica,sans-Serif" font-size="10.00">string.h</text>
</g>
<!-- Node2&#45;&gt;Node3 -->
<g id="edge2" class="edge"><title>Node2&#45;&gt;Node3</title>
<path fill="none" stroke="midnightblue" d="M254.733,-339.164C176.725,-325.584 0,-288.875 0,-235 0,-235 0,-235 0,-121 0,-46.5541 263.676,-20.3282 360.167,-13.2233"/>
<polygon fill="midnightblue" stroke="midnightblue" points="360.564,-16.7039 370.291,-12.5033 360.068,-9.72157 360.564,-16.7039"/>
</g>
<!-- Node4 -->
<g id="node4" class="node"><title>Node4</title>
<polygon fill="white" stroke="#bfbfbf" points="208,-168.5 208,-187.5 254,-187.5 254,-168.5 208,-168.5"/>
<text text-anchor="middle" x="231" y="-175.5" font-family="Helvetica,sans-Serif" font-size="10.00">stdio.h</text>
</g>
<!-- Node2&#45;&gt;Node4 -->
<g id="edge3" class="edge"><title>Node2&#45;&gt;Node4</title>
<path fill="none" stroke="midnightblue" d="M254.768,-338.717C207.725,-328.35 127.771,-302.646 95,-244 71.739,-202.373 150.496,-187.073 197.825,-181.712"/>
<polygon fill="midnightblue" stroke="midnightblue" points="198.382,-185.173 207.967,-180.659 197.659,-178.211 198.382,-185.173"/>
</g>
<!-- Node5 -->
<g id="node5" class="node"><title>Node5</title>
<polygon fill="white" stroke="#bfbfbf" points="588,-0.5 588,-19.5 636,-19.5 636,-0.5 588,-0.5"/>
<text text-anchor="middle" x="612" y="-7.5" font-family="Helvetica,sans-Serif" font-size="10.00">stdlib.h</text>
</g>
<!-- Node2&#45;&gt;Node5 -->
<g id="edge4" class="edge"><title>Node2&#45;&gt;Node5</title>
<path fill="none" stroke="midnightblue" d="M292.033,-336.346C294.836,-308.986 300.068,-222.93 263,-168 245.604,-142.222 218.322,-159.062 203,-132 198.62,-124.265 197.796,-119.206 203,-112 247.335,-50.6041 487.569,-22.4477 577.761,-13.9289"/>
<polygon fill="midnightblue" stroke="midnightblue" points="578.357,-17.389 587.993,-12.9864 577.715,-10.4185 578.357,-17.389"/>
</g>
<!-- Node6 -->
<g id="node6" class="node"><title>Node6</title>
<g id="a_node6"><a xlink:href="ceptr__error_8h_source.html" target="_top" xlink:title="ceptr_error.h">
<polygon fill="white" stroke="black" points="386.5,-224.5 386.5,-243.5 457.5,-243.5 457.5,-224.5 386.5,-224.5"/>
<text text-anchor="middle" x="422" y="-231.5" font-family="Helvetica,sans-Serif" font-size="10.00">ceptr_error.h</text>
</a>
</g>
</g>
<!-- Node2&#45;&gt;Node6 -->
<g id="edge5" class="edge"><title>Node2&#45;&gt;Node6</title>
<path fill="none" stroke="midnightblue" d="M301.279,-336.368C323.472,-317.733 376.111,-273.532 403.977,-250.134"/>
<polygon fill="midnightblue" stroke="midnightblue" points="406.361,-252.702 411.768,-243.591 401.859,-247.342 406.361,-252.702"/>
</g>
<!-- Node10 -->
<g id="node10" class="node"><title>Node10</title>
<g id="a_node10"><a xlink:href="tree_8h.html" target="_top" xlink:title="semantic trees header file ">
<polygon fill="white" stroke="black" points="651.5,-280.5 651.5,-299.5 692.5,-299.5 692.5,-280.5 651.5,-280.5"/>
<text text-anchor="middle" x="672" y="-287.5" font-family="Helvetica,sans-Serif" font-size="10.00">tree.h</text>
</a>
</g>
</g>
<!-- Node2&#45;&gt;Node10 -->
<g id="edge10" class="edge"><title>Node2&#45;&gt;Node10</title>
<path fill="none" stroke="midnightblue" d="M327.187,-339.871C401.769,-329.3 571.433,-305.254 641.181,-295.368"/>
<polygon fill="midnightblue" stroke="midnightblue" points="642.078,-298.776 651.488,-293.907 641.096,-291.845 642.078,-298.776"/>
</g>
<!-- Node19 -->
<g id="node19" class="node"><title>Node19</title>
<g id="a_node19"><a xlink:href="mtree_8h.html" target="_top" xlink:title="semantic tree matrix header file `` ">
<polygon fill="white" stroke="black" points="429,-280.5 429,-299.5 479,-299.5 479,-280.5 429,-280.5"/>
<text text-anchor="middle" x="454" y="-287.5" font-family="Helvetica,sans-Serif" font-size="10.00">mtree.h</text>
</a>
</g>
</g>
<!-- Node2&#45;&gt;Node19 -->
<g id="edge27" class="edge"><title>Node2&#45;&gt;Node19</title>
<path fill="none" stroke="midnightblue" d="M316.828,-336.444C344.411,-327.306 388.29,-312.769 418.972,-302.604"/>
<polygon fill="midnightblue" stroke="midnightblue" points="420.437,-305.806 428.829,-299.339 418.235,-299.161 420.437,-305.806"/>
</g>
<!-- Node20 -->
<g id="node20" class="node"><title>Node20</title>
<g id="a_node20"><a xlink:href="util_8h.html" target="_top" xlink:title="util.h">
<polygon fill="white" stroke="black" points="195,-280.5 195,-299.5 233,-299.5 233,-280.5 195,-280.5"/>
<text text-anchor="middle" x="214" y="-287.5" font-family="Helvetica,sans-Serif" font-size="10.00">util.h</text>
</a>
</g>
</g>
<!-- Node2&#45;&gt;Node20 -->
<g id="edge35" class="edge"><title>Node2&#45;&gt;Node20</title>
<path fill="none" stroke="midnightblue" d="M278.629,-336.324C266.842,-328.058 248.868,-315.453 234.864,-305.632"/>
<polygon fill="midnightblue" stroke="midnightblue" points="236.538,-302.531 226.341,-299.655 232.518,-308.262 236.538,-302.531"/>
</g>
<!-- Node6&#45;&gt;Node4 -->
<g id="edge6" class="edge"><title>Node6&#45;&gt;Node4</title>
<path fill="none" stroke="midnightblue" d="M391.735,-224.444C356.982,-214.618 300.151,-198.551 264.206,-188.388"/>
<polygon fill="midnightblue" stroke="midnightblue" points="264.789,-184.916 254.214,-185.563 262.884,-191.652 264.789,-184.916"/>
</g>
<!-- Node7 -->
<g id="node7" class="node"><title>Node7</title>
<polygon fill="white" stroke="#bfbfbf" points="528,-168.5 528,-187.5 578,-187.5 578,-168.5 528,-168.5"/>
<text text-anchor="middle" x="553" y="-175.5" font-family="Helvetica,sans-Serif" font-size="10.00">signal.h</text>
</g>
<!-- Node6&#45;&gt;Node7 -->
<g id="edge7" class="edge"><title>Node6&#45;&gt;Node7</title>
<path fill="none" stroke="midnightblue" d="M442.757,-224.444C464.316,-215.557 498.263,-201.563 522.794,-191.451"/>
<polygon fill="midnightblue" stroke="midnightblue" points="524.428,-194.563 532.34,-187.516 521.761,-188.092 524.428,-194.563"/>
</g>
<!-- Node8 -->
<g id="node8" class="node"><title>Node8</title>
<polygon fill="white" stroke="#bfbfbf" points="386,-168.5 386,-187.5 438,-187.5 438,-168.5 386,-168.5"/>
<text text-anchor="middle" x="412" y="-175.5" font-family="Helvetica,sans-Serif" font-size="10.00">assert.h</text>
</g>
<!-- Node6&#45;&gt;Node8 -->
<g id="edge8" class="edge"><title>Node6&#45;&gt;Node8</title>
<path fill="none" stroke="midnightblue" d="M420.349,-224.083C419.024,-216.927 417.118,-206.635 415.461,-197.691"/>
<polygon fill="midnightblue" stroke="midnightblue" points="418.883,-196.947 413.621,-187.751 412,-198.221 418.883,-196.947"/>
</g>
<!-- Node9 -->
<g id="node9" class="node"><title>Node9</title>
<polygon fill="white" stroke="#bfbfbf" points="456,-168.5 456,-187.5 510,-187.5 510,-168.5 456,-168.5"/>
<text text-anchor="middle" x="483" y="-175.5" font-family="Helvetica,sans-Serif" font-size="10.00">setjmp.h</text>
</g>
<!-- Node6&#45;&gt;Node9 -->
<g id="edge9" class="edge"><title>Node6&#45;&gt;Node9</title>
<path fill="none" stroke="midnightblue" d="M431.801,-224.324C440.818,-216.341 454.406,-204.313 465.318,-194.653"/>
<polygon fill="midnightblue" stroke="midnightblue" points="467.853,-197.083 473.021,-187.834 463.213,-191.842 467.853,-197.083"/>
</g>
<!-- Node10&#45;&gt;Node3 -->
<g id="edge11" class="edge"><title>Node10&#45;&gt;Node3</title>
<path fill="none" stroke="midnightblue" d="M692.536,-285.327C727.46,-278.616 796.013,-263.273 810,-244 830.157,-216.226 896.885,-229.034 799,-112 751.253,-54.912 519.008,-24.3228 429.901,-14.5335"/>
<polygon fill="midnightblue" stroke="midnightblue" points="430.083,-11.033 419.766,-13.4424 429.334,-17.9928 430.083,-11.033"/>
</g>
<!-- Node10&#45;&gt;Node5 -->
<g id="edge12" class="edge"><title>Node10&#45;&gt;Node5</title>
<path fill="none" stroke="midnightblue" d="M692.801,-284.677C741.15,-274.555 857.506,-249.738 864,-244 887.078,-223.61 888,-209.795 888,-179 888,-179 888,-179 888,-121 888,-81.6849 862.208,-75.3773 828,-56 769.837,-23.0534 690.599,-14.114 646.046,-11.7611"/>
<polygon fill="midnightblue" stroke="midnightblue" points="646.175,-8.26347 636.028,-11.3133 645.862,-15.2565 646.175,-8.26347"/>
</g>
<!-- Node10&#45;&gt;Node6 -->
<g id="edge13" class="edge"><title>Node10&#45;&gt;Node6</title>
<path fill="none" stroke="midnightblue" d="M651.115,-284.489C610.985,-275.821 522.256,-256.655 467.748,-244.881"/>
<polygon fill="midnightblue" stroke="midnightblue" points="468.171,-241.392 457.657,-242.702 466.693,-248.234 468.171,-241.392"/>
</g>
<!-- Node11 -->
<g id="node11" class="node"><title>Node11</title>
<g id="a_node11"><a xlink:href="sys__symbols_8h.html" target="_top" xlink:title="Defines hard&#45;coded system defined symbols. ">
<polygon fill="white" stroke="black" points="700.5,-224.5 700.5,-243.5 783.5,-243.5 783.5,-224.5 700.5,-224.5"/>
<text text-anchor="middle" x="742" y="-231.5" font-family="Helvetica,sans-Serif" font-size="10.00">sys_symbols.h</text>
</a>
</g>
</g>
<!-- Node10&#45;&gt;Node11 -->
<g id="edge14" class="edge"><title>Node10&#45;&gt;Node11</title>
<path fill="none" stroke="midnightblue" d="M683.247,-280.324C693.797,-272.185 709.801,-259.839 722.442,-250.087"/>
<polygon fill="midnightblue" stroke="midnightblue" points="724.769,-252.713 730.549,-243.834 720.493,-247.171 724.769,-252.713"/>
</g>
<!-- Node12 -->
<g id="node12" class="node"><title>Node12</title>
<g id="a_node12"><a xlink:href="sys__structures_8h.html" target="_top" xlink:title="Defines hard&#45;coded system defined structures. ">
<polygon fill="white" stroke="black" points="634.5,-168.5 634.5,-187.5 723.5,-187.5 723.5,-168.5 634.5,-168.5"/>
<text text-anchor="middle" x="679" y="-175.5" font-family="Helvetica,sans-Serif" font-size="10.00">sys_structures.h</text>
</a>
</g>
</g>
<!-- Node10&#45;&gt;Node12 -->
<g id="edge24" class="edge"><title>Node10&#45;&gt;Node12</title>
<path fill="none" stroke="midnightblue" d="M672.549,-280.368C673.679,-262.617 676.285,-221.666 677.817,-197.597"/>
<polygon fill="midnightblue" stroke="midnightblue" points="681.311,-197.794 678.453,-187.591 674.325,-197.349 681.311,-197.794"/>
</g>
<!-- Node13 -->
<g id="node13" class="node"><title>Node13</title>
<g id="a_node13"><a xlink:href="ceptr__types_8h_source.html" target="_top" xlink:title="ceptr_types.h">
<polygon fill="white" stroke="black" points="714,-112.5 714,-131.5 790,-131.5 790,-112.5 714,-112.5"/>
<text text-anchor="middle" x="752" y="-119.5" font-family="Helvetica,sans-Serif" font-size="10.00">ceptr_types.h</text>
</a>
</g>
</g>
<!-- Node10&#45;&gt;Node13 -->
<g id="edge26" class="edge"><title>Node10&#45;&gt;Node13</title>
<path fill="none" stroke="midnightblue" d="M692.624,-284.254C723.758,-276.625 780.372,-260.779 792,-244 814.785,-211.122 785.436,-164.332 766.226,-139.679"/>
<polygon fill="midnightblue" stroke="midnightblue" points="768.742,-137.224 759.723,-131.665 763.306,-141.635 768.742,-137.224"/>
</g>
<!-- Node18 -->
<g id="node18" class="node"><title>Node18</title>
<g id="a_node18"><a xlink:href="sys__processes_8h.html" target="_top" xlink:title="Defines hard&#45;coded system defined processes. ">
<polygon fill="white" stroke="black" points="552.5,-224.5 552.5,-243.5 643.5,-243.5 643.5,-224.5 552.5,-224.5"/>
<text text-anchor="middle" x="598" y="-231.5" font-family="Helvetica,sans-Serif" font-size="10.00">sys_processes.h</text>
</a>
</g>
</g>
<!-- Node10&#45;&gt;Node18 -->
<g id="edge25" class="edge"><title>Node10&#45;&gt;Node18</title>
<path fill="none" stroke="midnightblue" d="M660.111,-280.324C648.85,-272.107 631.713,-259.602 618.291,-249.807"/>
<polygon fill="midnightblue" stroke="midnightblue" points="620.247,-246.901 610.106,-243.834 616.12,-252.556 620.247,-246.901"/>
</g>
<!-- Node11&#45;&gt;Node12 -->
<g id="edge15" class="edge"><title>Node11&#45;&gt;Node12</title>
<path fill="none" stroke="midnightblue" d="M731.878,-224.324C722.474,-216.263 708.256,-204.077 696.931,-194.369"/>
<polygon fill="midnightblue" stroke="midnightblue" points="699.177,-191.684 689.306,-187.834 694.621,-196.999 699.177,-191.684"/>
</g>
<!-- Node11&#45;&gt;Node13 -->
<g id="edge23" class="edge"><title>Node11&#45;&gt;Node13</title>
<path fill="none" stroke="midnightblue" d="M742.785,-224.368C744.398,-206.617 748.121,-165.666 750.309,-141.597"/>
<polygon fill="midnightblue" stroke="midnightblue" points="753.799,-141.867 751.219,-131.591 746.828,-141.233 753.799,-141.867"/>
</g>
<!-- Node12&#45;&gt;Node13 -->
<g id="edge16" class="edge"><title>Node12&#45;&gt;Node13</title>
<path fill="none" stroke="midnightblue" d="M690.729,-168.324C701.837,-160.107 718.742,-147.602 731.983,-137.807"/>
<polygon fill="midnightblue" stroke="midnightblue" points="734.1,-140.595 740.058,-131.834 729.937,-134.967 734.1,-140.595"/>
</g>
<!-- Node14 -->
<g id="node14" class="node"><title>Node14</title>
<polygon fill="white" stroke="#bfbfbf" points="543.5,-56.5 543.5,-75.5 592.5,-75.5 592.5,-56.5 543.5,-56.5"/>
<text text-anchor="middle" x="568" y="-63.5" font-family="Helvetica,sans-Serif" font-size="10.00">stdint.h</text>
</g>
<!-- Node13&#45;&gt;Node14 -->
<g id="edge17" class="edge"><title>Node13&#45;&gt;Node14</title>
<path fill="none" stroke="midnightblue" d="M722.845,-112.444C690.103,-102.835 637.02,-87.2558 602.308,-77.0686"/>
<polygon fill="midnightblue" stroke="midnightblue" points="603.183,-73.678 592.603,-74.2203 601.212,-80.3948 603.183,-73.678"/>
</g>
<!-- Node15 -->
<g id="node15" class="node"><title>Node15</title>
<g id="a_node15"><a xlink:href="uthash_8h_source.html" target="_top" xlink:title="uthash.h">
<polygon fill="white" stroke="black" points="765,-56.5 765,-75.5 819,-75.5 819,-56.5 765,-56.5"/>
<text text-anchor="middle" x="792" y="-63.5" font-family="Helvetica,sans-Serif" font-size="10.00">uthash.h</text>
</a>
</g>
</g>
<!-- Node13&#45;&gt;Node15 -->
<g id="edge18" class="edge"><title>Node13&#45;&gt;Node15</title>
<path fill="none" stroke="midnightblue" d="M758.605,-112.083C764.255,-104.455 772.545,-93.2645 779.451,-83.9408"/>
<polygon fill="midnightblue" stroke="midnightblue" points="782.378,-85.87 785.518,-75.7511 776.753,-81.7034 782.378,-85.87"/>
</g>
<!-- Node15&#45;&gt;Node3 -->
<g id="edge19" class="edge"><title>Node15&#45;&gt;Node3</title>
<path fill="none" stroke="midnightblue" d="M764.721,-58.6519C760.153,-57.6926 755.452,-56.7685 751,-56 634.065,-35.8175 494.051,-20.7557 430.042,-14.3681"/>
<polygon fill="midnightblue" stroke="midnightblue" points="430.011,-10.848 419.715,-13.3472 429.322,-17.8141 430.011,-10.848"/>
</g>
<!-- Node15&#45;&gt;Node5 -->
<g id="edge21" class="edge"><title>Node15&#45;&gt;Node5</title>
<path fill="none" stroke="midnightblue" d="M764.662,-56.7986C732.795,-47.2386 680.122,-31.4367 645.739,-21.1218"/>
<polygon fill="midnightblue" stroke="midnightblue" points="646.714,-17.76 636.13,-18.2389 644.702,-24.4648 646.714,-17.76"/>
</g>
<!-- Node16 -->
<g id="node16" class="node"><title>Node16</title>
<polygon fill="white" stroke="#bfbfbf" points="729,-0.5 729,-19.5 781,-19.5 781,-0.5 729,-0.5"/>
<text text-anchor="middle" x="755" y="-7.5" font-family="Helvetica,sans-Serif" font-size="10.00">stddef.h</text>
</g>
<!-- Node15&#45;&gt;Node16 -->
<g id="edge20" class="edge"><title>Node15&#45;&gt;Node16</title>
<path fill="none" stroke="midnightblue" d="M785.89,-56.083C780.718,-48.5341 773.154,-37.4948 766.806,-28.2298"/>
<polygon fill="midnightblue" stroke="midnightblue" points="769.536,-26.0221 760.996,-19.7511 763.761,-29.9787 769.536,-26.0221"/>
</g>
<!-- Node17 -->
<g id="node17" class="node"><title>Node17</title>
<polygon fill="white" stroke="#bfbfbf" points="799.5,-0.5 799.5,-19.5 858.5,-19.5 858.5,-0.5 799.5,-0.5"/>
<text text-anchor="middle" x="829" y="-7.5" font-family="Helvetica,sans-Serif" font-size="10.00">inttypes.h</text>
</g>
<!-- Node15&#45;&gt;Node17 -->
<g id="edge22" class="edge"><title>Node15&#45;&gt;Node17</title>
<path fill="none" stroke="midnightblue" d="M798.11,-56.083C803.282,-48.5341 810.846,-37.4948 817.194,-28.2298"/>
<polygon fill="midnightblue" stroke="midnightblue" points="820.239,-29.9787 823.004,-19.7511 814.464,-26.0221 820.239,-29.9787"/>
</g>
<!-- Node19&#45;&gt;Node3 -->
<g id="edge28" class="edge"><title>Node19&#45;&gt;Node3</title>
<path fill="none" stroke="midnightblue" d="M428.899,-286.627C402.701,-282.661 362.861,-272.095 344,-244 297.427,-174.628 309.631,-132.16 344,-56 349.616,-43.5553 360.563,-33.1723 370.879,-25.5273"/>
<polygon fill="midnightblue" stroke="midnightblue" points="373.006,-28.3123 379.266,-19.7643 369.042,-22.5431 373.006,-28.3123"/>
</g>
<!-- Node19&#45;&gt;Node5 -->
<g id="edge29" class="edge"><title>Node19&#45;&gt;Node5</title>
<path fill="none" stroke="midnightblue" d="M429.843,-280.485C412.746,-273.277 390.535,-261.327 377,-244 358.472,-220.281 358,-209.098 358,-179 358,-179 358,-179 358,-121 358,-26.3836 508.249,-12.2397 577.631,-10.7524"/>
<polygon fill="midnightblue" stroke="midnightblue" points="577.695,-14.2519 587.645,-10.6142 577.598,-7.25261 577.695,-14.2519"/>
</g>
<!-- Node19&#45;&gt;Node6 -->
<g id="edge30" class="edge"><title>Node19&#45;&gt;Node6</title>
<path fill="none" stroke="midnightblue" d="M448.716,-280.083C444.289,-272.613 437.837,-261.724 432.382,-252.52"/>
<polygon fill="midnightblue" stroke="midnightblue" points="435.295,-250.57 427.186,-243.751 429.273,-254.138 435.295,-250.57"/>
</g>
<!-- Node19&#45;&gt;Node11 -->
<g id="edge31" class="edge"><title>Node19&#45;&gt;Node11</title>
<path fill="none" stroke="midnightblue" d="M479.054,-284.302C525.983,-275.503 627.998,-256.375 690.261,-244.701"/>
<polygon fill="midnightblue" stroke="midnightblue" points="691.09,-248.107 700.274,-242.824 689.8,-241.227 691.09,-248.107"/>
</g>
<!-- Node19&#45;&gt;Node12 -->
<g id="edge32" class="edge"><title>Node19&#45;&gt;Node12</title>
<path fill="none" stroke="midnightblue" d="M463.731,-280.289C479.413,-266.639 511.695,-240.106 543,-224 571.728,-209.22 606.32,-197.852 633.427,-190.24"/>
<polygon fill="midnightblue" stroke="midnightblue" points="634.699,-193.521 643.422,-187.507 632.853,-186.769 634.699,-193.521"/>
</g>
<!-- Node19&#45;&gt;Node13 -->
<g id="edge34" class="edge"><title>Node19&#45;&gt;Node13</title>
<path fill="none" stroke="midnightblue" d="M459.322,-280.357C468.039,-266.8 486.552,-240.392 508,-224 538.656,-200.57 552.358,-204.992 587,-188 604.135,-179.595 607.516,-175.651 625,-168 654.513,-155.085 689.026,-143.042 714.619,-134.671"/>
<polygon fill="midnightblue" stroke="midnightblue" points="715.869,-137.945 724.307,-131.538 713.715,-131.285 715.869,-137.945"/>
</g>
<!-- Node19&#45;&gt;Node18 -->
<g id="edge33" class="edge"><title>Node19&#45;&gt;Node18</title>
<path fill="none" stroke="midnightblue" d="M476.817,-280.444C500.832,-271.438 538.829,-257.189 565.869,-247.049"/>
<polygon fill="midnightblue" stroke="midnightblue" points="567.155,-250.305 575.29,-243.516 564.697,-243.751 567.155,-250.305"/>
</g>
<!-- Node20&#45;&gt;Node4 -->
<g id="edge37" class="edge"><title>Node20&#45;&gt;Node4</title>
<path fill="none" stroke="midnightblue" d="M216.49,-280.452C219.015,-271.457 222.848,-256.85 225,-244 227.576,-228.612 229.117,-210.976 229.991,-197.961"/>
<polygon fill="midnightblue" stroke="midnightblue" points="233.49,-198.077 230.596,-187.885 226.503,-197.657 233.49,-198.077"/>
</g>
<!-- Node21 -->
<g id="node21" class="node"><title>Node21</title>
<polygon fill="white" stroke="#bfbfbf" points="104.5,-224.5 104.5,-243.5 153.5,-243.5 153.5,-224.5 104.5,-224.5"/>
<text text-anchor="middle" x="129" y="-231.5" font-family="Helvetica,sans-Serif" font-size="10.00">ctype.h</text>
</g>
<!-- Node20&#45;&gt;Node21 -->
<g id="edge36" class="edge"><title>Node20&#45;&gt;Node21</title>
<path fill="none" stroke="midnightblue" d="M200.343,-280.324C187.084,-271.9 166.732,-258.971 151.154,-249.074"/>
<polygon fill="midnightblue" stroke="midnightblue" points="152.94,-246.063 142.623,-243.655 149.187,-251.971 152.94,-246.063"/>
</g>
<!-- Node22 -->
<g id="node22" class="node"><title>Node22</title>
<polygon fill="white" stroke="#bfbfbf" points="172,-224.5 172,-243.5 216,-243.5 216,-224.5 172,-224.5"/>
<text text-anchor="middle" x="194" y="-231.5" font-family="Helvetica,sans-Serif" font-size="10.00">time.h</text>
</g>
<!-- Node20&#45;&gt;Node22 -->
<g id="edge38" class="edge"><title>Node20&#45;&gt;Node22</title>
<path fill="none" stroke="midnightblue" d="M210.697,-280.083C208.018,-272.849 204.151,-262.409 200.814,-253.397"/>
<polygon fill="midnightblue" stroke="midnightblue" points="203.996,-251.913 197.241,-243.751 197.432,-254.344 203.996,-251.913"/>
</g>
<!-- Node23&#45;&gt;Node14 -->
<g id="edge40" class="edge"><title>Node23&#45;&gt;Node14</title>
<path fill="none" stroke="midnightblue" d="M292.022,-114.161C354.533,-103.479 474.287,-83.0142 533.335,-72.9238"/>
<polygon fill="midnightblue" stroke="midnightblue" points="534.021,-76.3574 543.288,-71.2229 532.842,-69.4574 534.021,-76.3574"/>
</g>
<!-- Node24&#45;&gt;Node10 -->
<g id="edge42" class="edge"><title>Node24&#45;&gt;Node10</title>
<path fill="none" stroke="midnightblue" d="M474.076,-392.237C487.147,-378.514 514.283,-351.884 542,-336 573.788,-317.783 614.159,-305.24 641.412,-298.112"/>
<polygon fill="midnightblue" stroke="midnightblue" points="642.333,-301.49 651.17,-295.645 640.617,-294.703 642.333,-301.49"/>
</g>
<!-- Node25&#45;&gt;Node10 -->
<g id="edge44" class="edge"><title>Node25&#45;&gt;Node10</title>
<path fill="none" stroke="midnightblue" d="M683.51,-392.119C686.708,-379.557 691.434,-355.909 688,-336 686.432,-326.91 683.205,-317.222 680.057,-309.173"/>
<polygon fill="midnightblue" stroke="midnightblue" points="683.194,-307.602 676.111,-299.723 676.735,-310.299 683.194,-307.602"/>
</g>
<!-- Node26 -->
<g id="node26" class="node"><title>Node26</title>
<g id="a_node26"><a xlink:href="def_8h.html" target="_top" xlink:title="header file for symbol and structure definition functions ">
<polygon fill="white" stroke="black" points="736,-336.5 736,-355.5 774,-355.5 774,-336.5 736,-336.5"/>
<text text-anchor="middle" x="755" y="-343.5" font-family="Helvetica,sans-Serif" font-size="10.00">def.h</text>
</a>
</g>
</g>
<!-- Node25&#45;&gt;Node26 -->
<g id="edge45" class="edge"><title>Node25&#45;&gt;Node26</title>
<path fill="none" stroke="midnightblue" d="M692.889,-392.324C704.15,-384.107 721.287,-371.602 734.709,-361.807"/>
<polygon fill="midnightblue" stroke="midnightblue" points="736.88,-364.556 742.894,-355.834 732.753,-358.901 736.88,-364.556"/>
</g>
<!-- Node28 -->
<g id="node28" class="node"><title>Node28</title>
<g id="a_node28"><a xlink:href="label_8h.html" target="_top" xlink:title="Label tables map human readable text strings to parts of semantic trees. ">
<polygon fill="white" stroke="black" points="851.5,-280.5 851.5,-299.5 896.5,-299.5 896.5,-280.5 851.5,-280.5"/>
<text text-anchor="middle" x="874" y="-287.5" font-family="Helvetica,sans-Serif" font-size="10.00">label.h</text>
</a>
</g>
</g>
<!-- Node25&#45;&gt;Node28 -->
<g id="edge48" class="edge"><title>Node25&#45;&gt;Node28</title>
<path fill="none" stroke="midnightblue" d="M703.93,-392.449C725.039,-384.215 756.933,-370.851 783,-356 809.529,-340.885 837.806,-319.811 855.671,-305.803"/>
<polygon fill="midnightblue" stroke="midnightblue" points="857.893,-308.508 863.552,-299.551 853.543,-303.024 857.893,-308.508"/>
</g>
<!-- Node29 -->
<g id="node29" class="node"><title>Node29</title>
<g id="a_node29"><a xlink:href="process_8h.html" target="_top" xlink:title="processing header files ">
<polygon fill="white" stroke="black" points="551.5,-336.5 551.5,-355.5 610.5,-355.5 610.5,-336.5 551.5,-336.5"/>
<text text-anchor="middle" x="581" y="-343.5" font-family="Helvetica,sans-Serif" font-size="10.00">process.h</text>
</a>
</g>
</g>
<!-- Node25&#45;&gt;Node29 -->
<g id="edge50" class="edge"><title>Node25&#45;&gt;Node29</title>
<path fill="none" stroke="midnightblue" d="M664.933,-392.324C649.042,-383.743 624.493,-370.486 606.042,-360.522"/>
<polygon fill="midnightblue" stroke="midnightblue" points="607.489,-357.326 597.027,-355.655 604.163,-363.486 607.489,-357.326"/>
</g>
<!-- Node30 -->
<g id="node30" class="node"><title>Node30</title>
<g id="a_node30"><a xlink:href="scape_8h.html" target="_top" xlink:title="scape header files ">
<polygon fill="white" stroke="black" points="628.5,-336.5 628.5,-355.5 679.5,-355.5 679.5,-336.5 628.5,-336.5"/>
<text text-anchor="middle" x="654" y="-343.5" font-family="Helvetica,sans-Serif" font-size="10.00">scape.h</text>
</a>
</g>
</g>
<!-- Node25&#45;&gt;Node30 -->
<g id="edge52" class="edge"><title>Node25&#45;&gt;Node30</title>
<path fill="none" stroke="midnightblue" d="M676.541,-392.083C672.846,-384.691 667.477,-373.953 662.906,-364.811"/>
<polygon fill="midnightblue" stroke="midnightblue" points="665.978,-363.13 658.376,-355.751 659.717,-366.261 665.978,-363.13"/>
</g>
<!-- Node26&#45;&gt;Node10 -->
<g id="edge46" class="edge"><title>Node26&#45;&gt;Node10</title>
<path fill="none" stroke="midnightblue" d="M741.665,-336.324C728.838,-327.979 709.215,-315.212 694.06,-305.352"/>
<polygon fill="midnightblue" stroke="midnightblue" points="695.593,-302.174 685.302,-299.655 691.776,-308.042 695.593,-302.174"/>
</g>
<!-- Node27 -->
<g id="node27" class="node"><title>Node27</title>
<polygon fill="white" stroke="#bfbfbf" points="729,-280.5 729,-299.5 781,-299.5 781,-280.5 729,-280.5"/>
<text text-anchor="middle" x="755" y="-287.5" font-family="Helvetica,sans-Serif" font-size="10.00">stdarg.h</text>
</g>
<!-- Node26&#45;&gt;Node27 -->
<g id="edge47" class="edge"><title>Node26&#45;&gt;Node27</title>
<path fill="none" stroke="midnightblue" d="M755,-336.083C755,-329.006 755,-318.861 755,-309.986"/>
<polygon fill="midnightblue" stroke="midnightblue" points="758.5,-309.751 755,-299.751 751.5,-309.751 758.5,-309.751"/>
</g>
<!-- Node28&#45;&gt;Node13 -->
<g id="edge49" class="edge"><title>Node28&#45;&gt;Node13</title>
<path fill="none" stroke="midnightblue" d="M870.278,-280.47C861.016,-259.805 835.396,-205.966 804,-168 794.727,-156.787 782.498,-146.051 772.229,-137.88"/>
<polygon fill="midnightblue" stroke="midnightblue" points="774.227,-135.001 764.172,-131.665 769.952,-140.544 774.227,-135.001"/>
</g>
<!-- Node29&#45;&gt;Node10 -->
<g id="edge51" class="edge"><title>Node29&#45;&gt;Node10</title>
<path fill="none" stroke="midnightblue" d="M595.621,-336.324C609.949,-327.822 632.013,-314.729 648.749,-304.797"/>
<polygon fill="midnightblue" stroke="midnightblue" points="650.602,-307.768 657.416,-299.655 647.03,-301.748 650.602,-307.768"/>
</g>
<!-- Node30&#45;&gt;Node10 -->
<g id="edge53" class="edge"><title>Node30&#45;&gt;Node10</title>
<path fill="none" stroke="midnightblue" d="M656.972,-336.083C659.384,-328.849 662.864,-318.409 665.868,-309.397"/>
<polygon fill="midnightblue" stroke="midnightblue" points="669.241,-310.345 669.083,-299.751 662.6,-308.131 669.241,-310.345"/>
</g>
</g>
</svg>
        <g id="navigator" transform="translate(0 0)" fill="#404254">
                <rect fill="#f2f5e9" fill-opacity="0.5" stroke="#606060" stroke-width=".5" x="0" y="0" width="60" height="60"/>
                <use id="zoomplus" xlink:href="#zoomPlus" x="17" y="9" onmousedown="handleZoom(evt,'in')"/>
                <use id="zoomminus" xlink:href="#zoomMin" x="42" y="9" onmousedown="handleZoom(evt,'out')"/>
                <use id="reset" xlink:href="#resetDef" x="30" y="36" onmousedown="handleReset()"/>
                <g id="arrowUp" xlink:href="#dirArrow" transform="translate(30 24)" onmousedown="handlePan(0,-1)">
                  <use xlink:href="#rim" fill="#404040">
                        <set attributeName="fill" to="#808080" begin="arrowUp.mouseover" end="arrowUp.mouseout"/>
                  </use>
                  <path fill="none" stroke="white" stroke-width="1.5" d="M0,-3.0v7 M-2.5,-0.5L0,-3.0L2.5,-0.5"/>
                </g>
                <g id="arrowRight" xlink:href="#dirArrow" transform="rotate(90) translate(36 -43)" onmousedown="handlePan(1,0)">
                  <use xlink:href="#rim" fill="#404040">
                        <set attributeName="fill" to="#808080" begin="arrowRight.mouseover" end="arrowRight.mouseout"/>
                  </use>
                  <path fill="none" stroke="white" stroke-width="1.5" d="M0,-3.0v7 M-2.5,-0.5L0,-3.0L2.5,-0.5"/>
                </g>
                <g id="arrowDown" xlink:href="#dirArrow" transform="rotate(180) translate(-30 -48)" onmousedown="handlePan(0,1)">
                  <use xlink:href="#rim" fill="#404040">
                        <set attributeName="fill" to="#808080" begin="arrowDown.mouseover" end="arrowDown.mouseout"/>
                  </use>
                  <path fill="none" stroke="white" stroke-width="1.5" d="M0,-3.0v7 M-2.5,-0.5L0,-3.0L2.5,-0.5"/>
                </g>
                <g id="arrowLeft" xlink:href="#dirArrow" transform="rotate(270) translate(-36 17)" onmousedown="handlePan(-1,0)">
                  <use xlink:href="#rim" fill="#404040">
                        <set attributeName="fill" to="#808080" begin="arrowLeft.mouseover" end="arrowLeft.mouseout"/>
                  </use>
                  <path fill="none" stroke="white" stroke-width="1.5" d="M0,-3.0v7 M-2.5,-0.5L0,-3.0L2.5,-0.5"/>
                </g>
        </g>
        <svg viewBox="0 0 15 15" width="100%" height="30px" preserveAspectRatio="xMaxYMin meet">
         <g id="arrow_out" transform="scale(0.3 0.3)">
          <a xlink:href="semtrex__spec_8h__incl_org.svg" target="_base">
           <rect id="button" ry="5" rx="5" y="6" x="6" height="38" width="38"
                fill="#f2f5e9" fill-opacity="0.5" stroke="#606060" stroke-width="1.0"/>
           <path id="arrow"
             d="M 11.500037,31.436501 C 11.940474,20.09759 22.043105,11.32322 32.158766,21.979434 L 37.068811,17.246167 C 37.068811,17.246167 37.088388,32 37.088388,32 L 22.160133,31.978069 C 22.160133,31.978069 26.997745,27.140456 26.997745,27.140456 C 18.528582,18.264221 13.291696,25.230495 11.500037,31.436501 z"
             style="fill:#404040;"/>
          </a>
         </g>
        </svg>
</svg>
