<?xml version="1.0" encoding="UTF-8" standalone="no"?>
<!DOCTYPE svg PUBLIC "-//W3C//DTD SVG 1.1//EN"
 "http://www.w3.org/Graphics/SVG/1.1/DTD/svg11.dtd">
<!-- Generated by graphviz version 2.38.0 (20140413.2041)
 -->
<!-- Title: spec/semtrex_spec.h Pages: 1 -->
<svg width="994pt" height="476pt"
 viewBox="0.00 0.00 994.00 476.00" xmlns="http://www.w3.org/2000/svg" xmlns:xlink="http://www.w3.org/1999/xlink">
<g id="graph0" class="graph" transform="scale(1 1) rotate(0) translate(4 472)">
<title>spec/semtrex_spec.h</title>
<polygon fill="white" stroke="none" points="-4,4 -4,-472 990,-472 990,4 -4,4"/>
<!-- Node1 -->
<g id="node1" class="node"><title>Node1</title>
<polygon fill="#bfbfbf" stroke="black" points="166,-448.5 166,-467.5 276,-467.5 276,-448.5 166,-448.5"/>
<text text-anchor="middle" x="221" y="-455.5" font-family="Helvetica,sans-Serif" font-size="10.00">spec/semtrex_spec.h</text>
</g>
<!-- Node2 -->
<g id="node2" class="node"><title>Node2</title>
<g id="a_node2"><a xlink:href="ceptr_8h_source.html" target="_top" xlink:title="../src/ceptr.h">
<polygon fill="white" stroke="black" points="520,-336.5 520,-355.5 592,-355.5 592,-336.5 520,-336.5"/>
<text text-anchor="middle" x="556" y="-343.5" font-family="Helvetica,sans-Serif" font-size="10.00">../src/ceptr.h</text>
</a>
</g>
</g>
<!-- Node1&#45;&gt;Node2 -->
<g id="edge1" class="edge"><title>Node1&#45;&gt;Node2</title>
<path fill="none" stroke="midnightblue" d="M247.008,-448.46C306.375,-428.966 451.97,-381.159 519.945,-358.839"/>
<polygon fill="midnightblue" stroke="midnightblue" points="521.368,-362.055 529.777,-355.61 519.185,-355.405 521.368,-362.055"/>
</g>
<!-- Node24 -->
<g id="node24" class="node"><title>Node24</title>
<g id="a_node24"><a xlink:href="hashfn_8h_source.html" target="_top" xlink:title="../src/hashfn.h">
<polygon fill="white" stroke="black" points="0,-392.5 0,-411.5 80,-411.5 80,-392.5 0,-392.5"/>
<text text-anchor="middle" x="40" y="-399.5" font-family="Helvetica,sans-Serif" font-size="10.00">../src/hashfn.h</text>
</a>
</g>
</g>
<!-- Node1&#45;&gt;Node24 -->
<g id="edge41" class="edge"><title>Node1&#45;&gt;Node24</title>
<path fill="none" stroke="midnightblue" d="M192.32,-448.444C161.473,-439.241 112.272,-424.562 78.1707,-414.388"/>
<polygon fill="midnightblue" stroke="midnightblue" points="79.1291,-411.021 68.5458,-411.516 77.1278,-417.729 79.1291,-411.021"/>
</g>
<!-- Node25 -->
<g id="node25" class="node"><title>Node25</title>
<g id="a_node25"><a xlink:href="semtrex_8h.html" target="_top" xlink:title="Semantic tree regular expression header file. ">
<polygon fill="white" stroke="black" points="126,-392.5 126,-411.5 212,-411.5 212,-392.5 126,-392.5"/>
<text text-anchor="middle" x="169" y="-399.5" font-family="Helvetica,sans-Serif" font-size="10.00">../src/semtrex.h</text>
</a>
</g>
</g>
<!-- Node1&#45;&gt;Node25 -->
<g id="edge43" class="edge"><title>Node1&#45;&gt;Node25</title>
<path fill="none" stroke="midnightblue" d="M212.413,-448.083C204.841,-440.22 193.622,-428.569 184.486,-419.081"/>
<polygon fill="midnightblue" stroke="midnightblue" points="186.885,-416.527 177.427,-411.751 181.842,-421.382 186.885,-416.527"/>
</g>
<!-- Node26 -->
<g id="node26" class="node"><title>Node26</title>
<g id="a_node26"><a xlink:href="receptor_8h.html" target="_top" xlink:title="receptor implementation header file ">
<polygon fill="white" stroke="black" points="230,-392.5 230,-411.5 316,-411.5 316,-392.5 230,-392.5"/>
<text text-anchor="middle" x="273" y="-399.5" font-family="Helvetica,sans-Serif" font-size="10.00">../src/receptor.h</text>
</a>
</g>
</g>
<!-- Node1&#45;&gt;Node26 -->
<g id="edge45" class="edge"><title>Node1&#45;&gt;Node26</title>
<path fill="none" stroke="midnightblue" d="M229.587,-448.083C237.159,-440.22 248.378,-428.569 257.514,-419.081"/>
<polygon fill="midnightblue" stroke="midnightblue" points="260.158,-421.382 264.573,-411.751 255.115,-416.527 260.158,-421.382"/>
</g>
<!-- Node3 -->
<g id="node3" class="node"><title>Node3</title>
<polygon fill="white" stroke="#bfbfbf" points="267.5,-0.5 267.5,-19.5 316.5,-19.5 316.5,-0.5 267.5,-0.5"/>
<text text-anchor="middle" x="292" y="-7.5" font-family="Helvetica,sans-Serif" font-size="10.00">string.h</text>
</g>
<!-- Node2&#45;&gt;Node3 -->
<g id="edge2" class="edge"><title>Node2&#45;&gt;Node3</title>
<path fill="none" stroke="midnightblue" d="M519.698,-342.564C458.643,-336.283 342,-313.952 342,-235 342,-235 342,-235 342,-177 342,-147.414 312.513,-65.3723 298.828,-28.8889"/>
<polygon fill="midnightblue" stroke="midnightblue" points="302.092,-27.6259 295.281,-19.5109 295.545,-30.1024 302.092,-27.6259"/>
</g>
<!-- Node4 -->
<g id="node4" class="node"><title>Node4</title>
<polygon fill="white" stroke="#bfbfbf" points="700,-56.5 700,-75.5 746,-75.5 746,-56.5 700,-56.5"/>
<text text-anchor="middle" x="723" y="-63.5" font-family="Helvetica,sans-Serif" font-size="10.00">stdio.h</text>
</g>
<!-- Node2&#45;&gt;Node4 -->
<g id="edge3" class="edge"><title>Node2&#45;&gt;Node4</title>
<path fill="none" stroke="midnightblue" d="M592.488,-343.291C655.961,-338.146 780,-317.534 780,-235 780,-235 780,-235 780,-177 780,-140.3 754.679,-103.657 737.79,-83.2973"/>
<polygon fill="midnightblue" stroke="midnightblue" points="740.348,-80.9037 731.167,-75.6161 735.046,-85.475 740.348,-80.9037"/>
</g>
<!-- Node5 -->
<g id="node5" class="node"><title>Node5</title>
<polygon fill="white" stroke="#bfbfbf" points="375,-0.5 375,-19.5 423,-19.5 423,-0.5 375,-0.5"/>
<text text-anchor="middle" x="399" y="-7.5" font-family="Helvetica,sans-Serif" font-size="10.00">stdlib.h</text>
</g>
<!-- Node2&#45;&gt;Node5 -->
<g id="edge4" class="edge"><title>Node2&#45;&gt;Node5</title>
<path fill="none" stroke="midnightblue" d="M592.291,-343.478C695.958,-338.15 986,-316.006 986,-235 986,-235 986,-235 986,-121 986,-64.3926 558.827,-24.3155 433.295,-13.7603"/>
<polygon fill="midnightblue" stroke="midnightblue" points="433.361,-10.2538 423.105,-12.9129 432.781,-17.2297 433.361,-10.2538"/>
</g>
<!-- Node6 -->
<g id="node6" class="node"><title>Node6</title>
<g id="a_node6"><a xlink:href="ceptr__error_8h_source.html" target="_top" xlink:title="ceptr_error.h">
<polygon fill="white" stroke="black" points="496.5,-168.5 496.5,-187.5 567.5,-187.5 567.5,-168.5 496.5,-168.5"/>
<text text-anchor="middle" x="532" y="-175.5" font-family="Helvetica,sans-Serif" font-size="10.00">ceptr_error.h</text>
</a>
</g>
</g>
<!-- Node2&#45;&gt;Node6 -->
<g id="edge5" class="edge"><title>Node2&#45;&gt;Node6</title>
<path fill="none" stroke="midnightblue" d="M554.71,-336.075C550.932,-309.945 539.838,-233.211 534.686,-197.577"/>
<polygon fill="midnightblue" stroke="midnightblue" points="538.134,-196.964 533.239,-187.568 531.206,-197.966 538.134,-196.964"/>
</g>
<!-- Node10 -->
<g id="node10" class="node"><title>Node10</title>
<g id="a_node10"><a xlink:href="tree_8h.html" target="_top" xlink:title="semantic trees header file ">
<polygon fill="white" stroke="black" points="245.5,-280.5 245.5,-299.5 286.5,-299.5 286.5,-280.5 245.5,-280.5"/>
<text text-anchor="middle" x="266" y="-287.5" font-family="Helvetica,sans-Serif" font-size="10.00">tree.h</text>
</a>
</g>
</g>
<!-- Node2&#45;&gt;Node10 -->
<g id="edge10" class="edge"><title>Node2&#45;&gt;Node10</title>
<path fill="none" stroke="midnightblue" d="M519.858,-338.27C462.208,-327.535 350.456,-306.726 296.547,-296.688"/>
<polygon fill="midnightblue" stroke="midnightblue" points="297.042,-293.22 286.57,-294.83 295.76,-300.102 297.042,-293.22"/>
</g>
<!-- Node18 -->
<g id="node18" class="node"><title>Node18</title>
<g id="a_node18"><a xlink:href="stream_8h.html" target="_top" xlink:title="streams abstraction header file ">
<polygon fill="white" stroke="black" points="560.5,-224.5 560.5,-243.5 615.5,-243.5 615.5,-224.5 560.5,-224.5"/>
<text text-anchor="middle" x="588" y="-231.5" font-family="Helvetica,sans-Serif" font-size="10.00">stream.h</text>
</a>
</g>
</g>
<!-- Node2&#45;&gt;Node18 -->
<g id="edge34" class="edge"><title>Node2&#45;&gt;Node18</title>
<path fill="none" stroke="midnightblue" d="M558.511,-336.368C563.698,-318.537 575.696,-277.295 582.685,-253.272"/>
<polygon fill="midnightblue" stroke="midnightblue" points="586.068,-254.171 585.501,-243.591 579.347,-252.216 586.068,-254.171"/>
</g>
<!-- Node19 -->
<g id="node19" class="node"><title>Node19</title>
<g id="a_node19"><a xlink:href="mtree_8h.html" target="_top" xlink:title="semantic tree matrix header file `` ">
<polygon fill="white" stroke="black" points="382,-224.5 382,-243.5 432,-243.5 432,-224.5 382,-224.5"/>
<text text-anchor="middle" x="407" y="-231.5" font-family="Helvetica,sans-Serif" font-size="10.00">mtree.h</text>
</a>
</g>
</g>
<!-- Node2&#45;&gt;Node19 -->
<g id="edge28" class="edge"><title>Node2&#45;&gt;Node19</title>
<path fill="none" stroke="midnightblue" d="M544.308,-336.368C518.849,-317.573 458.159,-272.768 426.686,-249.533"/>
<polygon fill="midnightblue" stroke="midnightblue" points="428.761,-246.715 418.637,-243.591 424.604,-252.347 428.761,-246.715"/>
</g>
<!-- Node20 -->
<g id="node20" class="node"><title>Node20</title>
<g id="a_node20"><a xlink:href="util_8h.html" target="_top" xlink:title="util.h">
<polygon fill="white" stroke="black" points="830,-280.5 830,-299.5 868,-299.5 868,-280.5 830,-280.5"/>
<text text-anchor="middle" x="849" y="-287.5" font-family="Helvetica,sans-Serif" font-size="10.00">util.h</text>
</a>
</g>
</g>
<!-- Node2&#45;&gt;Node20 -->
<g id="edge35" class="edge"><title>Node2&#45;&gt;Node20</title>
<path fill="none" stroke="midnightblue" d="M592.221,-338.324C651.073,-327.478 766.281,-306.245 820.06,-296.334"/>
<polygon fill="midnightblue" stroke="midnightblue" points="820.762,-299.763 829.962,-294.509 819.493,-292.879 820.762,-299.763"/>
</g>
<!-- Node23 -->
<g id="node23" class="node"><title>Node23</title>
<g id="a_node23"><a xlink:href="debug_8h.html" target="_top" xlink:title="debug.h">
<polygon fill="white" stroke="black" points="700.5,-168.5 700.5,-187.5 751.5,-187.5 751.5,-168.5 700.5,-168.5"/>
<text text-anchor="middle" x="726" y="-175.5" font-family="Helvetica,sans-Serif" font-size="10.00">debug.h</text>
</a>
</g>
</g>
<!-- Node2&#45;&gt;Node23 -->
<g id="edge39" class="edge"><title>Node2&#45;&gt;Node23</title>
<path fill="none" stroke="midnightblue" d="M565.14,-336.075C592.594,-309.267 674.6,-229.19 709.732,-194.885"/>
<polygon fill="midnightblue" stroke="midnightblue" points="712.516,-197.059 717.225,-187.568 707.625,-192.05 712.516,-197.059"/>
</g>
<!-- Node6&#45;&gt;Node4 -->
<g id="edge6" class="edge"><title>Node6&#45;&gt;Node4</title>
<path fill="none" stroke="midnightblue" d="M561.604,-168.445C585.604,-160.811 619.789,-148.321 647,-132 670.115,-118.136 693.145,-97.1818 707.692,-82.8362"/>
<polygon fill="midnightblue" stroke="midnightblue" points="710.283,-85.1944 714.848,-75.6333 705.317,-80.261 710.283,-85.1944"/>
</g>
<!-- Node7 -->
<g id="node7" class="node"><title>Node7</title>
<polygon fill="white" stroke="#bfbfbf" points="588,-112.5 588,-131.5 638,-131.5 638,-112.5 588,-112.5"/>
<text text-anchor="middle" x="613" y="-119.5" font-family="Helvetica,sans-Serif" font-size="10.00">signal.h</text>
</g>
<!-- Node6&#45;&gt;Node7 -->
<g id="edge7" class="edge"><title>Node6&#45;&gt;Node7</title>
<path fill="none" stroke="midnightblue" d="M545.014,-168.324C557.532,-159.979 576.682,-147.212 591.471,-137.352"/>
<polygon fill="midnightblue" stroke="midnightblue" points="593.639,-140.114 600.018,-131.655 589.756,-134.289 593.639,-140.114"/>
</g>
<!-- Node8 -->
<g id="node8" class="node"><title>Node8</title>
<polygon fill="white" stroke="#bfbfbf" points="446,-112.5 446,-131.5 498,-131.5 498,-112.5 446,-112.5"/>
<text text-anchor="middle" x="472" y="-119.5" font-family="Helvetica,sans-Serif" font-size="10.00">assert.h</text>
</g>
<!-- Node6&#45;&gt;Node8 -->
<g id="edge8" class="edge"><title>Node6&#45;&gt;Node8</title>
<path fill="none" stroke="midnightblue" d="M522.36,-168.324C513.49,-160.341 500.125,-148.313 489.392,-138.653"/>
<polygon fill="midnightblue" stroke="midnightblue" points="491.59,-135.922 481.815,-131.834 486.907,-141.125 491.59,-135.922"/>
</g>
<!-- Node9 -->
<g id="node9" class="node"><title>Node9</title>
<polygon fill="white" stroke="#bfbfbf" points="516,-112.5 516,-131.5 570,-131.5 570,-112.5 516,-112.5"/>
<text text-anchor="middle" x="543" y="-119.5" font-family="Helvetica,sans-Serif" font-size="10.00">setjmp.h</text>
</g>
<!-- Node6&#45;&gt;Node9 -->
<g id="edge9" class="edge"><title>Node6&#45;&gt;Node9</title>
<path fill="none" stroke="midnightblue" d="M533.816,-168.083C535.274,-160.927 537.371,-150.635 539.193,-141.691"/>
<polygon fill="midnightblue" stroke="midnightblue" points="542.651,-142.248 541.217,-131.751 535.792,-140.851 542.651,-142.248"/>
</g>
<!-- Node10&#45;&gt;Node3 -->
<g id="edge11" class="edge"><title>Node10&#45;&gt;Node3</title>
<path fill="none" stroke="midnightblue" d="M266,-280.442C266,-261.936 266,-216.812 266,-179 266,-179 266,-179 266,-121 266,-87.9292 277.268,-50.7291 284.968,-29.1685"/>
<polygon fill="midnightblue" stroke="midnightblue" points="288.293,-30.2679 288.494,-19.675 281.731,-27.8308 288.293,-30.2679"/>
</g>
<!-- Node10&#45;&gt;Node5 -->
<g id="edge12" class="edge"><title>Node10&#45;&gt;Node5</title>
<path fill="none" stroke="midnightblue" d="M270.126,-280.375C288.706,-241.54 364.807,-82.4702 390.49,-28.7886"/>
<polygon fill="midnightblue" stroke="midnightblue" points="393.763,-30.0556 394.922,-19.5243 387.449,-27.0345 393.763,-30.0556"/>
</g>
<!-- Node10&#45;&gt;Node6 -->
<g id="edge13" class="edge"><title>Node10&#45;&gt;Node6</title>
<path fill="none" stroke="midnightblue" d="M286.505,-286.232C320.062,-281.162 388.251,-268.574 441,-244 469.131,-230.895 497.61,-208.814 515.035,-194.075"/>
<polygon fill="midnightblue" stroke="midnightblue" points="517.368,-196.685 522.652,-187.501 512.795,-191.386 517.368,-196.685"/>
</g>
<!-- Node11 -->
<g id="node11" class="node"><title>Node11</title>
<g id="a_node11"><a xlink:href="sys__defs_8h.html" target="_top" xlink:title="Defines types and vars for system defined semantics. ">
<polygon fill="white" stroke="black" points="134.5,-168.5 134.5,-187.5 199.5,-187.5 199.5,-168.5 134.5,-168.5"/>
<text text-anchor="middle" x="167" y="-175.5" font-family="Helvetica,sans-Serif" font-size="10.00">sys_defs.h</text>
</a>
</g>
</g>
<!-- Node10&#45;&gt;Node11 -->
<g id="edge14" class="edge"><title>Node10&#45;&gt;Node11</title>
<path fill="none" stroke="midnightblue" d="M258.342,-280.092C247.48,-267.497 226.924,-243.811 209,-224 200.198,-214.271 190.179,-203.525 182.135,-194.974"/>
<polygon fill="midnightblue" stroke="midnightblue" points="184.541,-192.424 175.132,-187.553 179.45,-197.228 184.541,-192.424"/>
</g>
<!-- Node12 -->
<g id="node12" class="node"><title>Node12</title>
<g id="a_node12"><a xlink:href="ceptr__types_8h_source.html" target="_top" xlink:title="ceptr_types.h">
<polygon fill="white" stroke="black" points="129,-112.5 129,-131.5 205,-131.5 205,-112.5 129,-112.5"/>
<text text-anchor="middle" x="167" y="-119.5" font-family="Helvetica,sans-Serif" font-size="10.00">ceptr_types.h</text>
</a>
</g>
</g>
<!-- Node10&#45;&gt;Node12 -->
<g id="edge25" class="edge"><title>Node10&#45;&gt;Node12</title>
<path fill="none" stroke="midnightblue" d="M245.305,-285.64C208.913,-279.262 135.891,-264.213 121,-244 113.677,-234.06 110.41,-201.465 125,-168 129.984,-156.568 139.152,-146.207 147.654,-138.316"/>
<polygon fill="midnightblue" stroke="midnightblue" points="150.186,-140.753 155.443,-131.554 145.597,-135.467 150.186,-140.753"/>
</g>
<!-- Node17 -->
<g id="node17" class="node"><title>Node17</title>
<g id="a_node17"><a xlink:href="base__defs_8h.html" target="_top" xlink:title="auto&#45;generated system definitions ">
<polygon fill="white" stroke="black" points="130,-224.5 130,-243.5 200,-243.5 200,-224.5 130,-224.5"/>
<text text-anchor="middle" x="165" y="-231.5" font-family="Helvetica,sans-Serif" font-size="10.00">base_defs.h</text>
</a>
</g>
</g>
<!-- Node10&#45;&gt;Node17 -->
<g id="edge23" class="edge"><title>Node10&#45;&gt;Node17</title>
<path fill="none" stroke="midnightblue" d="M249.773,-280.324C233.649,-271.703 208.7,-258.364 190.036,-248.386"/>
<polygon fill="midnightblue" stroke="midnightblue" points="191.656,-245.283 181.187,-243.655 188.356,-251.456 191.656,-245.283"/>
</g>
<!-- Node10&#45;&gt;Node18 -->
<g id="edge26" class="edge"><title>Node10&#45;&gt;Node18</title>
<path fill="none" stroke="midnightblue" d="M286.632,-285.54C339.84,-276.617 482.298,-252.726 550.544,-241.281"/>
<polygon fill="midnightblue" stroke="midnightblue" points="551.162,-244.727 560.445,-239.621 550.004,-237.823 551.162,-244.727"/>
</g>
<!-- Node11&#45;&gt;Node12 -->
<g id="edge15" class="edge"><title>Node11&#45;&gt;Node12</title>
<path fill="none" stroke="midnightblue" d="M167,-168.083C167,-161.006 167,-150.861 167,-141.986"/>
<polygon fill="midnightblue" stroke="midnightblue" points="170.5,-141.751 167,-131.751 163.5,-141.751 170.5,-141.751"/>
</g>
<!-- Node12&#45;&gt;Node4 -->
<g id="edge17" class="edge"><title>Node12&#45;&gt;Node4</title>
<path fill="none" stroke="midnightblue" d="M205.216,-117.288C308.558,-107.252 592.3,-79.6939 689.679,-70.2362"/>
<polygon fill="midnightblue" stroke="midnightblue" points="690.211,-73.7011 699.825,-69.2508 689.534,-66.7339 690.211,-73.7011"/>
</g>
<!-- Node13 -->
<g id="node13" class="node"><title>Node13</title>
<polygon fill="white" stroke="#bfbfbf" points="59.5,-56.5 59.5,-75.5 108.5,-75.5 108.5,-56.5 59.5,-56.5"/>
<text text-anchor="middle" x="84" y="-63.5" font-family="Helvetica,sans-Serif" font-size="10.00">stdint.h</text>
</g>
<!-- Node12&#45;&gt;Node13 -->
<g id="edge16" class="edge"><title>Node12&#45;&gt;Node13</title>
<path fill="none" stroke="midnightblue" d="M153.665,-112.324C140.838,-103.979 121.215,-91.2122 106.06,-81.3524"/>
<polygon fill="midnightblue" stroke="midnightblue" points="107.593,-78.1742 97.3023,-75.6545 103.776,-84.0417 107.593,-78.1742"/>
</g>
<!-- Node14 -->
<g id="node14" class="node"><title>Node14</title>
<g id="a_node14"><a xlink:href="uthash_8h_source.html" target="_top" xlink:title="uthash.h">
<polygon fill="white" stroke="black" points="184,-56.5 184,-75.5 238,-75.5 238,-56.5 184,-56.5"/>
<text text-anchor="middle" x="211" y="-63.5" font-family="Helvetica,sans-Serif" font-size="10.00">uthash.h</text>
</a>
</g>
</g>
<!-- Node12&#45;&gt;Node14 -->
<g id="edge18" class="edge"><title>Node12&#45;&gt;Node14</title>
<path fill="none" stroke="midnightblue" d="M174.266,-112.083C180.545,-104.377 189.788,-93.0333 197.431,-83.6531"/>
<polygon fill="midnightblue" stroke="midnightblue" points="200.266,-85.7143 203.869,-75.7511 194.839,-81.2926 200.266,-85.7143"/>
</g>
<!-- Node14&#45;&gt;Node3 -->
<g id="edge19" class="edge"><title>Node14&#45;&gt;Node3</title>
<path fill="none" stroke="midnightblue" d="M224.014,-56.324C236.532,-47.979 255.682,-35.2122 270.471,-25.3524"/>
<polygon fill="midnightblue" stroke="midnightblue" points="272.639,-28.1137 279.018,-19.6545 268.756,-22.2894 272.639,-28.1137"/>
</g>
<!-- Node14&#45;&gt;Node5 -->
<g id="edge21" class="edge"><title>Node14&#45;&gt;Node5</title>
<path fill="none" stroke="midnightblue" d="M238.337,-57.1479C271.941,-47.4956 328.964,-31.1168 365.261,-20.6909"/>
<polygon fill="midnightblue" stroke="midnightblue" points="366.268,-24.0434 374.913,-17.9187 364.335,-17.3155 366.268,-24.0434"/>
</g>
<!-- Node15 -->
<g id="node15" class="node"><title>Node15</title>
<polygon fill="white" stroke="#bfbfbf" points="191,-0.5 191,-19.5 243,-19.5 243,-0.5 191,-0.5"/>
<text text-anchor="middle" x="217" y="-7.5" font-family="Helvetica,sans-Serif" font-size="10.00">stddef.h</text>
</g>
<!-- Node14&#45;&gt;Node15 -->
<g id="edge20" class="edge"><title>Node14&#45;&gt;Node15</title>
<path fill="none" stroke="midnightblue" d="M211.991,-56.083C212.786,-48.9272 213.929,-38.6353 214.923,-29.6911"/>
<polygon fill="midnightblue" stroke="midnightblue" points="218.402,-30.0765 216.028,-19.7511 211.445,-29.3034 218.402,-30.0765"/>
</g>
<!-- Node16 -->
<g id="node16" class="node"><title>Node16</title>
<polygon fill="white" stroke="#bfbfbf" points="113.5,-0.5 113.5,-19.5 172.5,-19.5 172.5,-0.5 113.5,-0.5"/>
<text text-anchor="middle" x="143" y="-7.5" font-family="Helvetica,sans-Serif" font-size="10.00">inttypes.h</text>
</g>
<!-- Node14&#45;&gt;Node16 -->
<g id="edge22" class="edge"><title>Node14&#45;&gt;Node16</title>
<path fill="none" stroke="midnightblue" d="M200.075,-56.324C189.825,-48.1849 174.279,-35.8395 161.999,-26.0874"/>
<polygon fill="midnightblue" stroke="midnightblue" points="164.132,-23.3119 154.124,-19.8339 159.779,-28.7937 164.132,-23.3119"/>
</g>
<!-- Node17&#45;&gt;Node11 -->
<g id="edge24" class="edge"><title>Node17&#45;&gt;Node11</title>
<path fill="none" stroke="midnightblue" d="M165.33,-224.083C165.592,-217.006 165.968,-206.861 166.297,-197.986"/>
<polygon fill="midnightblue" stroke="midnightblue" points="169.803,-197.874 166.676,-187.751 162.808,-197.615 169.803,-197.874"/>
</g>
<!-- Node18&#45;&gt;Node4 -->
<g id="edge27" class="edge"><title>Node18&#45;&gt;Node4</title>
<path fill="none" stroke="midnightblue" d="M595.909,-224.272C611.472,-207 646.994,-167.092 675,-132 687.798,-115.965 701.639,-97.0367 711.154,-83.7548"/>
<polygon fill="midnightblue" stroke="midnightblue" points="714.036,-85.7426 716.985,-75.5666 708.333,-81.6822 714.036,-85.7426"/>
</g>
<!-- Node19&#45;&gt;Node3 -->
<g id="edge29" class="edge"><title>Node19&#45;&gt;Node3</title>
<path fill="none" stroke="midnightblue" d="M403.89,-224.267C396.564,-204.04 377.234,-152.604 356,-112 339.889,-81.1925 317.467,-47.4674 303.886,-27.8273"/>
<polygon fill="midnightblue" stroke="midnightblue" points="306.753,-25.8198 298.159,-19.6233 301.013,-29.8266 306.753,-25.8198"/>
</g>
<!-- Node19&#45;&gt;Node5 -->
<g id="edge30" class="edge"><title>Node19&#45;&gt;Node5</title>
<path fill="none" stroke="midnightblue" d="M406.686,-224.297C405.509,-191.633 401.338,-75.8661 399.683,-29.9573"/>
<polygon fill="midnightblue" stroke="midnightblue" points="403.178,-29.7512 399.32,-19.8837 396.183,-30.0033 403.178,-29.7512"/>
</g>
<!-- Node19&#45;&gt;Node6 -->
<g id="edge31" class="edge"><title>Node19&#45;&gt;Node6</title>
<path fill="none" stroke="midnightblue" d="M426.807,-224.444C447.287,-215.596 479.483,-201.687 502.865,-191.586"/>
<polygon fill="midnightblue" stroke="midnightblue" points="504.494,-194.695 512.286,-187.516 501.718,-188.269 504.494,-194.695"/>
</g>
<!-- Node19&#45;&gt;Node11 -->
<g id="edge32" class="edge"><title>Node19&#45;&gt;Node11</title>
<path fill="none" stroke="midnightblue" d="M381.769,-227.323C340.898,-218.127 259.758,-199.87 209.75,-188.619"/>
<polygon fill="midnightblue" stroke="midnightblue" points="210.405,-185.179 199.88,-186.398 208.868,-192.008 210.405,-185.179"/>
</g>
<!-- Node19&#45;&gt;Node12 -->
<g id="edge33" class="edge"><title>Node19&#45;&gt;Node12</title>
<path fill="none" stroke="midnightblue" d="M388.168,-224.368C346.107,-205.091 244.353,-158.454 194.904,-135.789"/>
<polygon fill="midnightblue" stroke="midnightblue" points="196.294,-132.576 185.745,-131.591 193.377,-138.94 196.294,-132.576"/>
</g>
<!-- Node20&#45;&gt;Node4 -->
<g id="edge37" class="edge"><title>Node20&#45;&gt;Node4</title>
<path fill="none" stroke="midnightblue" d="M846.681,-280.317C837.645,-246.671 804.761,-126.051 794,-112 783.445,-98.2189 767.371,-87.5294 753.185,-80.0337"/>
<polygon fill="midnightblue" stroke="midnightblue" points="754.725,-76.8903 744.212,-75.5687 751.606,-83.1573 754.725,-76.8903"/>
</g>
<!-- Node21 -->
<g id="node21" class="node"><title>Node21</title>
<polygon fill="white" stroke="#bfbfbf" points="846.5,-224.5 846.5,-243.5 895.5,-243.5 895.5,-224.5 846.5,-224.5"/>
<text text-anchor="middle" x="871" y="-231.5" font-family="Helvetica,sans-Serif" font-size="10.00">ctype.h</text>
</g>
<!-- Node20&#45;&gt;Node21 -->
<g id="edge36" class="edge"><title>Node20&#45;&gt;Node21</title>
<path fill="none" stroke="midnightblue" d="M852.633,-280.083C855.612,-272.77 859.926,-262.181 863.625,-253.103"/>
<polygon fill="midnightblue" stroke="midnightblue" points="866.903,-254.333 867.435,-243.751 860.42,-251.691 866.903,-254.333"/>
</g>
<!-- Node22 -->
<g id="node22" class="node"><title>Node22</title>
<polygon fill="white" stroke="#bfbfbf" points="914,-224.5 914,-243.5 958,-243.5 958,-224.5 914,-224.5"/>
<text text-anchor="middle" x="936" y="-231.5" font-family="Helvetica,sans-Serif" font-size="10.00">time.h</text>
</g>
<!-- Node20&#45;&gt;Node22 -->
<g id="edge38" class="edge"><title>Node20&#45;&gt;Node22</title>
<path fill="none" stroke="midnightblue" d="M862.978,-280.324C876.55,-271.9 897.38,-258.971 913.325,-249.074"/>
<polygon fill="midnightblue" stroke="midnightblue" points="915.406,-251.902 922.057,-243.655 911.714,-245.954 915.406,-251.902"/>
</g>
<!-- Node23&#45;&gt;Node4 -->
<g id="edge40" class="edge"><title>Node23&#45;&gt;Node4</title>
<path fill="none" stroke="midnightblue" d="M725.765,-168.368C725.28,-150.617 724.164,-109.666 723.507,-85.5974"/>
<polygon fill="midnightblue" stroke="midnightblue" points="727.006,-85.4922 723.234,-75.5914 720.008,-85.6832 727.006,-85.4922"/>
</g>
<!-- Node24&#45;&gt;Node13 -->
<g id="edge42" class="edge"><title>Node24&#45;&gt;Node13</title>
<path fill="none" stroke="midnightblue" d="M38.1697,-392.489C34.3749,-374.075 26,-329.118 26,-291 26,-291 26,-291 26,-177 26,-140.163 51.7652,-103.565 68.9504,-83.2515"/>
<polygon fill="midnightblue" stroke="midnightblue" points="71.7134,-85.4097 75.69,-75.5894 66.4573,-80.7864 71.7134,-85.4097"/>
</g>
<!-- Node25&#45;&gt;Node10 -->
<g id="edge44" class="edge"><title>Node25&#45;&gt;Node10</title>
<path fill="none" stroke="midnightblue" d="M176.611,-392.368C192.761,-374.055 230.684,-331.049 251.571,-307.362"/>
<polygon fill="midnightblue" stroke="midnightblue" points="254.435,-309.407 258.424,-299.591 249.185,-304.777 254.435,-309.407"/>
</g>
<!-- Node26&#45;&gt;Node10 -->
<g id="edge46" class="edge"><title>Node26&#45;&gt;Node10</title>
<path fill="none" stroke="midnightblue" d="M272.451,-392.368C271.321,-374.617 268.715,-333.666 267.183,-309.597"/>
<polygon fill="midnightblue" stroke="midnightblue" points="270.675,-309.349 266.547,-299.591 263.689,-309.794 270.675,-309.349"/>
</g>
<!-- Node27 -->
<g id="node27" class="node"><title>Node27</title>
<g id="a_node27"><a xlink:href="def_8h.html" target="_top" xlink:title="header file for symbol and structure definition functions ">
<polygon fill="white" stroke="black" points="152,-336.5 152,-355.5 190,-355.5 190,-336.5 152,-336.5"/>
<text text-anchor="middle" x="171" y="-343.5" font-family="Helvetica,sans-Serif" font-size="10.00">def.h</text>
</a>
</g>
</g>
<!-- Node26&#45;&gt;Node27 -->
<g id="edge47" class="edge"><title>Node26&#45;&gt;Node27</title>
<path fill="none" stroke="midnightblue" d="M256.612,-392.324C240.329,-383.703 215.133,-370.364 196.284,-360.386"/>
<polygon fill="midnightblue" stroke="midnightblue" points="197.823,-357.24 187.347,-355.655 194.548,-363.427 197.823,-357.24"/>
</g>
<!-- Node29 -->
<g id="node29" class="node"><title>Node29</title>
<g id="a_node29"><a xlink:href="label_8h.html" target="_top" xlink:title="Label tables map human readable text strings to parts of semantic trees. ">
<polygon fill="white" stroke="black" points="72.5,-280.5 72.5,-299.5 117.5,-299.5 117.5,-280.5 72.5,-280.5"/>
<text text-anchor="middle" x="95" y="-287.5" font-family="Helvetica,sans-Serif" font-size="10.00">label.h</text>
</a>
</g>
</g>
<!-- Node26&#45;&gt;Node29 -->
<g id="edge50" class="edge"><title>Node26&#45;&gt;Node29</title>
<path fill="none" stroke="midnightblue" d="M229.833,-392.923C202.938,-386.313 168.688,-374.887 143,-356 126.103,-343.577 112.572,-323.496 104.237,-308.938"/>
<polygon fill="midnightblue" stroke="midnightblue" points="107.175,-307.014 99.3199,-299.904 101.026,-310.361 107.175,-307.014"/>
</g>
<!-- Node30 -->
<g id="node30" class="node"><title>Node30</title>
<g id="a_node30"><a xlink:href="process_8h.html" target="_top" xlink:title="processing header files ">
<polygon fill="white" stroke="black" points="284.5,-336.5 284.5,-355.5 343.5,-355.5 343.5,-336.5 284.5,-336.5"/>
<text text-anchor="middle" x="314" y="-343.5" font-family="Helvetica,sans-Serif" font-size="10.00">process.h</text>
</a>
</g>
</g>
<!-- Node26&#45;&gt;Node30 -->
<g id="edge52" class="edge"><title>Node26&#45;&gt;Node30</title>
<path fill="none" stroke="midnightblue" d="M279.77,-392.083C285.562,-384.455 294.058,-373.264 301.138,-363.941"/>
<polygon fill="midnightblue" stroke="midnightblue" points="304.096,-365.832 307.356,-355.751 298.521,-361.599 304.096,-365.832"/>
</g>
<!-- Node31 -->
<g id="node31" class="node"><title>Node31</title>
<g id="a_node31"><a xlink:href="scape_8h.html" target="_top" xlink:title="scape header files ">
<polygon fill="white" stroke="black" points="361.5,-336.5 361.5,-355.5 412.5,-355.5 412.5,-336.5 361.5,-336.5"/>
<text text-anchor="middle" x="387" y="-343.5" font-family="Helvetica,sans-Serif" font-size="10.00">scape.h</text>
</a>
</g>
</g>
<!-- Node26&#45;&gt;Node31 -->
<g id="edge54" class="edge"><title>Node26&#45;&gt;Node31</title>
<path fill="none" stroke="midnightblue" d="M291.064,-392.444C309.575,-383.675 338.581,-369.935 359.855,-359.858"/>
<polygon fill="midnightblue" stroke="midnightblue" points="361.482,-362.96 369.021,-355.516 358.485,-356.634 361.482,-362.96"/>
</g>
<!-- Node27&#45;&gt;Node10 -->
<g id="edge48" class="edge"><title>Node27&#45;&gt;Node10</title>
<path fill="none" stroke="midnightblue" d="M186.263,-336.324C201.221,-327.822 224.255,-314.729 241.727,-304.797"/>
<polygon fill="midnightblue" stroke="midnightblue" points="243.81,-307.639 250.774,-299.655 240.351,-301.553 243.81,-307.639"/>
</g>
<!-- Node28 -->
<g id="node28" class="node"><title>Node28</title>
<polygon fill="white" stroke="#bfbfbf" points="145,-280.5 145,-299.5 197,-299.5 197,-280.5 145,-280.5"/>
<text text-anchor="middle" x="171" y="-287.5" font-family="Helvetica,sans-Serif" font-size="10.00">stdarg.h</text>
</g>
<!-- Node27&#45;&gt;Node28 -->
<g id="edge49" class="edge"><title>Node27&#45;&gt;Node28</title>
<path fill="none" stroke="midnightblue" d="M171,-336.083C171,-329.006 171,-318.861 171,-309.986"/>
<polygon fill="midnightblue" stroke="midnightblue" points="174.5,-309.751 171,-299.751 167.5,-309.751 174.5,-309.751"/>
</g>
<!-- Node29&#45;&gt;Node12 -->
<g id="edge51" class="edge"><title>Node29&#45;&gt;Node12</title>
<path fill="none" stroke="midnightblue" d="M91.464,-280.337C83.5137,-259.376 66.5348,-204.93 88,-168 96.7362,-152.97 112.578,-142.543 127.795,-135.54"/>
<polygon fill="midnightblue" stroke="midnightblue" points="129.262,-138.72 137.119,-131.613 126.545,-132.269 129.262,-138.72"/>
</g>
<!-- Node30&#45;&gt;Node10 -->
<g id="edge53" class="edge"><title>Node30&#45;&gt;Node10</title>
<path fill="none" stroke="midnightblue" d="M306.074,-336.083C299.154,-328.298 288.935,-316.801 280.548,-307.367"/>
<polygon fill="midnightblue" stroke="midnightblue" points="283.038,-304.9 273.779,-299.751 277.806,-309.55 283.038,-304.9"/>
</g>
<!-- Node31&#45;&gt;Node10 -->
<g id="edge55" class="edge"><title>Node31&#45;&gt;Node10</title>
<path fill="none" stroke="midnightblue" d="M367.827,-336.444C348.091,-327.636 317.115,-313.812 294.507,-303.722"/>
<polygon fill="midnightblue" stroke="midnightblue" points="295.641,-300.396 285.083,-299.516 292.789,-306.788 295.641,-300.396"/>
</g>
</g>
</svg>
