<?xml version="1.0" encoding="UTF-8" standalone="no"?>
<!DOCTYPE svg PUBLIC "-//W3C//DTD SVG 1.1//EN"
 "http://www.w3.org/Graphics/SVG/1.1/DTD/svg11.dtd">
<!-- Generated by graphviz version 2.38.0 (20140413.2041)
 -->
<!-- Title: src/shell.h Pages: 1 -->
<svg width="195pt" height="140pt"
 viewBox="0.00 0.00 194.50 140.00" xmlns="http://www.w3.org/2000/svg" xmlns:xlink="http://www.w3.org/1999/xlink">
<g id="graph0" class="graph" transform="scale(1 1) rotate(0) translate(4 136)">
<title>src/shell.h</title>
<polygon fill="white" stroke="none" points="-4,4 -4,-136 190.5,-136 190.5,4 -4,4"/>
<!-- Node1 -->
<g id="node1" class="node"><title>Node1</title>
<polygon fill="#bfbfbf" stroke="black" points="51,-112.5 51,-131.5 113,-131.5 113,-112.5 51,-112.5"/>
<text text-anchor="middle" x="82" y="-119.5" font-family="Helvetica,sans-Serif" font-size="10.00">src/shell.h</text>
</g>
<!-- Node2 -->
<g id="node2" class="node"><title>Node2</title>
<g id="a_node2"><a xlink:href="shell_8c.html" target="_top" xlink:title="implementation of a command line shell receptor ">
<polygon fill="white" stroke="black" points="-3.55271e-15,-56.5 -3.55271e-15,-75.5 62,-75.5 62,-56.5 -3.55271e-15,-56.5"/>
<text text-anchor="middle" x="31" y="-63.5" font-family="Helvetica,sans-Serif" font-size="10.00">src/shell.c</text>
</a>
</g>
</g>
<!-- Node1&#45;&gt;Node2 -->
<g id="edge1" class="edge"><title>Node1&#45;&gt;Node2</title>
<path fill="none" stroke="midnightblue" d="M66.6221,-104.718C57.6331,-95.1997 46.6408,-83.5608 39.2649,-75.7511"/>
<polygon fill="midnightblue" stroke="midnightblue" points="64.1676,-107.216 73.5784,-112.083 69.2567,-102.41 64.1676,-107.216"/>
</g>
<!-- Node3 -->
<g id="node3" class="node"><title>Node3</title>
<g id="a_node3"><a xlink:href="vmhost__spec_8h.html" target="_top" xlink:title="spec/vmhost_spec.h">
<polygon fill="white" stroke="black" points="79.5,-56.5 79.5,-75.5 186.5,-75.5 186.5,-56.5 79.5,-56.5"/>
<text text-anchor="middle" x="133" y="-63.5" font-family="Helvetica,sans-Serif" font-size="10.00">spec/vmhost_spec.h</text>
</a>
</g>
</g>
<!-- Node1&#45;&gt;Node3 -->
<g id="edge2" class="edge"><title>Node1&#45;&gt;Node3</title>
<path fill="none" stroke="midnightblue" d="M97.3779,-104.718C106.367,-95.1997 117.359,-83.5608 124.735,-75.7511"/>
<polygon fill="midnightblue" stroke="midnightblue" points="94.7433,-102.41 90.4216,-112.083 99.8324,-107.216 94.7433,-102.41"/>
</g>
<!-- Node4 -->
<g id="node4" class="node"><title>Node4</title>
<g id="a_node4"><a xlink:href="ceptr__specs_8c.html" target="_top" xlink:title="implements a main() entry point for running all the tests ">
<polygon fill="white" stroke="black" points="82,-0.5 82,-19.5 184,-19.5 184,-0.5 82,-0.5"/>
<text text-anchor="middle" x="133" y="-7.5" font-family="Helvetica,sans-Serif" font-size="10.00">spec/ceptr_specs.c</text>
</a>
</g>
</g>
<!-- Node3&#45;&gt;Node4 -->
<g id="edge3" class="edge"><title>Node3&#45;&gt;Node4</title>
<path fill="none" stroke="midnightblue" d="M133,-45.8045C133,-36.9102 133,-26.7798 133,-19.7511"/>
<polygon fill="midnightblue" stroke="midnightblue" points="129.5,-46.083 133,-56.083 136.5,-46.083 129.5,-46.083"/>
</g>
</g>
</svg>
