<?xml version="1.0" encoding="UTF-8" standalone="no"?>
<!DOCTYPE svg PUBLIC "-//W3C//DTD SVG 1.1//EN"
 "http://www.w3.org/Graphics/SVG/1.1/DTD/svg11.dtd">
<!-- Generated by graphviz version 2.38.0 (20140413.2041)
 -->
<!-- Title: src/shell.c Pages: 1 -->
<svg width="659pt" height="700pt"
 viewBox="0.00 0.00 658.50 700.00" xmlns="http://www.w3.org/2000/svg" xmlns:xlink="http://www.w3.org/1999/xlink">
<g id="graph0" class="graph" transform="scale(1 1) rotate(0) translate(4 696)">
<title>src/shell.c</title>
<polygon fill="white" stroke="none" points="-4,4 -4,-696 654.5,-696 654.5,4 -4,4"/>
<!-- Node1 -->
<g id="node1" class="node"><title>Node1</title>
<polygon fill="#bfbfbf" stroke="black" points="430,-672.5 430,-691.5 492,-691.5 492,-672.5 430,-672.5"/>
<text text-anchor="middle" x="461" y="-679.5" font-family="Helvetica,sans-Serif" font-size="10.00">src/shell.c</text>
</g>
<!-- Node2 -->
<g id="node2" class="node"><title>Node2</title>
<g id="a_node2"><a xlink:href="shell_8h.html" target="_top" xlink:title="command line shell receptor header files ">
<polygon fill="white" stroke="black" points="404.5,-616.5 404.5,-635.5 449.5,-635.5 449.5,-616.5 404.5,-616.5"/>
<text text-anchor="middle" x="427" y="-623.5" font-family="Helvetica,sans-Serif" font-size="10.00">shell.h</text>
</a>
</g>
</g>
<!-- Node1&#45;&gt;Node2 -->
<g id="edge1" class="edge"><title>Node1&#45;&gt;Node2</title>
<path fill="none" stroke="midnightblue" d="M455.386,-672.083C450.633,-664.534 443.682,-653.495 437.848,-644.23"/>
<polygon fill="midnightblue" stroke="midnightblue" points="440.8,-642.349 432.51,-635.751 434.876,-646.078 440.8,-642.349"/>
</g>
<!-- Node31 -->
<g id="node31" class="node"><title>Node31</title>
<g id="a_node31"><a xlink:href="semtrex_8h.html" target="_top" xlink:title="Semantic tree regular expression header file. ">
<polygon fill="white" stroke="black" points="507,-560.5 507,-579.5 567,-579.5 567,-560.5 507,-560.5"/>
<text text-anchor="middle" x="537" y="-567.5" font-family="Helvetica,sans-Serif" font-size="10.00">semtrex.h</text>
</a>
</g>
</g>
<!-- Node1&#45;&gt;Node31 -->
<g id="edge49" class="edge"><title>Node1&#45;&gt;Node31</title>
<path fill="none" stroke="midnightblue" d="M466.964,-672.368C479.506,-654.215 508.81,-611.802 525.261,-587.99"/>
<polygon fill="midnightblue" stroke="midnightblue" points="528.259,-589.808 531.064,-579.591 522.5,-585.829 528.259,-589.808"/>
</g>
<!-- Node3 -->
<g id="node3" class="node"><title>Node3</title>
<g id="a_node3"><a xlink:href="accumulator_8h.html" target="_top" xlink:title="header file for the accumulator ">
<polygon fill="white" stroke="black" points="379,-560.5 379,-579.5 457,-579.5 457,-560.5 379,-560.5"/>
<text text-anchor="middle" x="418" y="-567.5" font-family="Helvetica,sans-Serif" font-size="10.00">accumulator.h</text>
</a>
</g>
</g>
<!-- Node2&#45;&gt;Node3 -->
<g id="edge2" class="edge"><title>Node2&#45;&gt;Node3</title>
<path fill="none" stroke="midnightblue" d="M425.514,-616.083C424.321,-608.927 422.606,-598.635 421.115,-589.691"/>
<polygon fill="midnightblue" stroke="midnightblue" points="424.555,-589.04 419.459,-579.751 417.65,-590.19 424.555,-589.04"/>
</g>
<!-- Node4 -->
<g id="node4" class="node"><title>Node4</title>
<g id="a_node4"><a xlink:href="tree_8h.html" target="_top" xlink:title="semantic trees header file ">
<polygon fill="white" stroke="black" points="373.5,-336.5 373.5,-355.5 414.5,-355.5 414.5,-336.5 373.5,-336.5"/>
<text text-anchor="middle" x="394" y="-343.5" font-family="Helvetica,sans-Serif" font-size="10.00">tree.h</text>
</a>
</g>
</g>
<!-- Node3&#45;&gt;Node4 -->
<g id="edge3" class="edge"><title>Node3&#45;&gt;Node4</title>
<path fill="none" stroke="midnightblue" d="M426.898,-560.368C453.211,-533.774 526.535,-451.313 489,-392 481.548,-380.224 449.175,-366.482 424.269,-357.312"/>
<polygon fill="midnightblue" stroke="midnightblue" points="425.416,-354.005 414.821,-353.917 423.048,-360.593 425.416,-354.005"/>
</g>
<!-- Node23 -->
<g id="node23" class="node"><title>Node23</title>
<g id="a_node23"><a xlink:href="mtree_8h.html" target="_top" xlink:title="semantic tree matrix header file `` ">
<polygon fill="white" stroke="black" points="100,-280.5 100,-299.5 150,-299.5 150,-280.5 100,-280.5"/>
<text text-anchor="middle" x="125" y="-287.5" font-family="Helvetica,sans-Serif" font-size="10.00">mtree.h</text>
</a>
</g>
</g>
<!-- Node3&#45;&gt;Node23 -->
<g id="edge30" class="edge"><title>Node3&#45;&gt;Node23</title>
<path fill="none" stroke="midnightblue" d="M378.794,-569.485C306.16,-568.117 158,-553.717 158,-459 158,-459 158,-459 158,-401 158,-367.245 143.568,-330.028 133.792,-308.691"/>
<polygon fill="midnightblue" stroke="midnightblue" points="136.911,-307.099 129.451,-299.576 130.591,-310.11 136.911,-307.099"/>
</g>
<!-- Node24 -->
<g id="node24" class="node"><title>Node24</title>
<g id="a_node24"><a xlink:href="vmhost_8h.html" target="_top" xlink:title="vmhost implementation header file ">
<polygon fill="white" stroke="black" points="381.5,-504.5 381.5,-523.5 438.5,-523.5 438.5,-504.5 381.5,-504.5"/>
<text text-anchor="middle" x="410" y="-511.5" font-family="Helvetica,sans-Serif" font-size="10.00">vmhost.h</text>
</a>
</g>
</g>
<!-- Node3&#45;&gt;Node24 -->
<g id="edge36" class="edge"><title>Node3&#45;&gt;Node24</title>
<path fill="none" stroke="midnightblue" d="M416.679,-560.083C415.619,-552.927 414.094,-542.635 412.769,-533.691"/>
<polygon fill="midnightblue" stroke="midnightblue" points="416.224,-533.13 411.296,-523.751 409.3,-534.156 416.224,-533.13"/>
</g>
<!-- Node5 -->
<g id="node5" class="node"><title>Node5</title>
<polygon fill="white" stroke="#bfbfbf" points="13.5,-0.5 13.5,-19.5 62.5,-19.5 62.5,-0.5 13.5,-0.5"/>
<text text-anchor="middle" x="38" y="-7.5" font-family="Helvetica,sans-Serif" font-size="10.00">string.h</text>
</g>
<!-- Node4&#45;&gt;Node5 -->
<g id="edge4" class="edge"><title>Node4&#45;&gt;Node5</title>
<path fill="none" stroke="midnightblue" d="M373.372,-343.758C292.303,-338.323 0,-313.298 0,-235 0,-235 0,-235 0,-121 0,-86.8131 16.6005,-49.7639 27.8573,-28.5707"/>
<polygon fill="midnightblue" stroke="midnightblue" points="30.9473,-30.2151 32.7163,-19.769 24.8191,-26.832 30.9473,-30.2151"/>
</g>
<!-- Node6 -->
<g id="node6" class="node"><title>Node6</title>
<polygon fill="white" stroke="#bfbfbf" points="455,-0.5 455,-19.5 503,-19.5 503,-0.5 455,-0.5"/>
<text text-anchor="middle" x="479" y="-7.5" font-family="Helvetica,sans-Serif" font-size="10.00">stdlib.h</text>
</g>
<!-- Node4&#45;&gt;Node6 -->
<g id="edge5" class="edge"><title>Node4&#45;&gt;Node6</title>
<path fill="none" stroke="midnightblue" d="M414.704,-339.368C467.315,-323.666 602,-274.175 602,-179 602,-179 602,-179 602,-121 602,-90.9022 602.923,-78.5599 583,-56 573.242,-44.951 539.272,-31.4178 512.779,-22.0948"/>
<polygon fill="midnightblue" stroke="midnightblue" points="513.652,-18.6938 503.057,-18.7418 511.37,-25.3112 513.652,-18.6938"/>
</g>
<!-- Node7 -->
<g id="node7" class="node"><title>Node7</title>
<g id="a_node7"><a xlink:href="ceptr__error_8h_source.html" target="_top" xlink:title="ceptr_error.h">
<polygon fill="white" stroke="black" points="165.5,-112.5 165.5,-131.5 236.5,-131.5 236.5,-112.5 165.5,-112.5"/>
<text text-anchor="middle" x="201" y="-119.5" font-family="Helvetica,sans-Serif" font-size="10.00">ceptr_error.h</text>
</a>
</g>
</g>
<!-- Node4&#45;&gt;Node7 -->
<g id="edge6" class="edge"><title>Node4&#45;&gt;Node7</title>
<path fill="none" stroke="midnightblue" d="M373.08,-341.867C347.224,-337.02 303.199,-325.457 275,-300 227.26,-256.902 209.437,-178.114 203.561,-141.999"/>
<polygon fill="midnightblue" stroke="midnightblue" points="206.987,-141.247 202.05,-131.873 200.064,-142.28 206.987,-141.247"/>
</g>
<!-- Node12 -->
<g id="node12" class="node"><title>Node12</title>
<g id="a_node12"><a xlink:href="sys__defs_8h.html" target="_top" xlink:title="Defines types and vars for system defined semantics. ">
<polygon fill="white" stroke="black" points="256.5,-224.5 256.5,-243.5 321.5,-243.5 321.5,-224.5 256.5,-224.5"/>
<text text-anchor="middle" x="289" y="-231.5" font-family="Helvetica,sans-Serif" font-size="10.00">sys_defs.h</text>
</a>
</g>
</g>
<!-- Node4&#45;&gt;Node12 -->
<g id="edge11" class="edge"><title>Node4&#45;&gt;Node12</title>
<path fill="none" stroke="midnightblue" d="M373.267,-343.16C347.549,-339.639 304.694,-329.438 285,-300 275.972,-286.505 278.331,-267.696 282.143,-253.781"/>
<polygon fill="midnightblue" stroke="midnightblue" points="285.602,-254.458 285.322,-243.867 278.936,-252.321 285.602,-254.458"/>
</g>
<!-- Node13 -->
<g id="node13" class="node"><title>Node13</title>
<g id="a_node13"><a xlink:href="ceptr__types_8h_source.html" target="_top" xlink:title="ceptr_types.h">
<polygon fill="white" stroke="black" points="378,-112.5 378,-131.5 454,-131.5 454,-112.5 378,-112.5"/>
<text text-anchor="middle" x="416" y="-119.5" font-family="Helvetica,sans-Serif" font-size="10.00">ceptr_types.h</text>
</a>
</g>
</g>
<!-- Node4&#45;&gt;Node13 -->
<g id="edge26" class="edge"><title>Node4&#45;&gt;Node13</title>
<path fill="none" stroke="midnightblue" d="M409.783,-336.467C422.203,-328.769 438.605,-316.179 446,-300 470.785,-245.774 441.777,-173.754 425.53,-140.813"/>
<polygon fill="midnightblue" stroke="midnightblue" points="428.465,-138.865 420.788,-131.563 422.236,-142.059 428.465,-138.865"/>
</g>
<!-- Node20 -->
<g id="node20" class="node"><title>Node20</title>
<g id="a_node20"><a xlink:href="base__defs_8h.html" target="_top" xlink:title="auto&#45;generated system definitions ">
<polygon fill="white" stroke="black" points="294,-280.5 294,-299.5 364,-299.5 364,-280.5 294,-280.5"/>
<text text-anchor="middle" x="329" y="-287.5" font-family="Helvetica,sans-Serif" font-size="10.00">base_defs.h</text>
</a>
</g>
</g>
<!-- Node4&#45;&gt;Node20 -->
<g id="edge24" class="edge"><title>Node4&#45;&gt;Node20</title>
<path fill="none" stroke="midnightblue" d="M383.557,-336.324C373.854,-328.263 359.185,-316.077 347.5,-306.369"/>
<polygon fill="midnightblue" stroke="midnightblue" points="349.562,-303.532 339.633,-299.834 345.089,-308.916 349.562,-303.532"/>
</g>
<!-- Node21 -->
<g id="node21" class="node"><title>Node21</title>
<g id="a_node21"><a xlink:href="stream_8h.html" target="_top" xlink:title="streams abstraction header file ">
<polygon fill="white" stroke="black" points="382.5,-280.5 382.5,-299.5 437.5,-299.5 437.5,-280.5 382.5,-280.5"/>
<text text-anchor="middle" x="410" y="-287.5" font-family="Helvetica,sans-Serif" font-size="10.00">stream.h</text>
</a>
</g>
</g>
<!-- Node4&#45;&gt;Node21 -->
<g id="edge27" class="edge"><title>Node4&#45;&gt;Node21</title>
<path fill="none" stroke="midnightblue" d="M396.642,-336.083C398.786,-328.849 401.879,-318.409 404.549,-309.397"/>
<polygon fill="midnightblue" stroke="midnightblue" points="407.922,-310.333 407.407,-299.751 401.21,-308.345 407.922,-310.333"/>
</g>
<!-- Node8 -->
<g id="node8" class="node"><title>Node8</title>
<polygon fill="white" stroke="#bfbfbf" points="314,-56.5 314,-75.5 360,-75.5 360,-56.5 314,-56.5"/>
<text text-anchor="middle" x="337" y="-63.5" font-family="Helvetica,sans-Serif" font-size="10.00">stdio.h</text>
</g>
<!-- Node7&#45;&gt;Node8 -->
<g id="edge7" class="edge"><title>Node7&#45;&gt;Node8</title>
<path fill="none" stroke="midnightblue" d="M222.55,-112.444C245.031,-103.517 280.488,-89.4387 305.98,-79.3168"/>
<polygon fill="midnightblue" stroke="midnightblue" points="307.549,-82.4598 315.551,-75.5164 304.965,-75.9539 307.549,-82.4598"/>
</g>
<!-- Node9 -->
<g id="node9" class="node"><title>Node9</title>
<polygon fill="white" stroke="#bfbfbf" points="176,-56.5 176,-75.5 226,-75.5 226,-56.5 176,-56.5"/>
<text text-anchor="middle" x="201" y="-63.5" font-family="Helvetica,sans-Serif" font-size="10.00">signal.h</text>
</g>
<!-- Node7&#45;&gt;Node9 -->
<g id="edge8" class="edge"><title>Node7&#45;&gt;Node9</title>
<path fill="none" stroke="midnightblue" d="M201,-112.083C201,-105.006 201,-94.8611 201,-85.9865"/>
<polygon fill="midnightblue" stroke="midnightblue" points="204.5,-85.751 201,-75.7511 197.5,-85.7511 204.5,-85.751"/>
</g>
<!-- Node10 -->
<g id="node10" class="node"><title>Node10</title>
<polygon fill="white" stroke="#bfbfbf" points="244,-56.5 244,-75.5 296,-75.5 296,-56.5 244,-56.5"/>
<text text-anchor="middle" x="270" y="-63.5" font-family="Helvetica,sans-Serif" font-size="10.00">assert.h</text>
</g>
<!-- Node7&#45;&gt;Node10 -->
<g id="edge9" class="edge"><title>Node7&#45;&gt;Node10</title>
<path fill="none" stroke="midnightblue" d="M212.086,-112.324C222.486,-104.185 238.261,-91.8395 250.722,-82.0874"/>
<polygon fill="midnightblue" stroke="midnightblue" points="252.994,-84.7533 258.712,-75.8339 248.68,-79.2407 252.994,-84.7533"/>
</g>
<!-- Node11 -->
<g id="node11" class="node"><title>Node11</title>
<polygon fill="white" stroke="#bfbfbf" points="104,-56.5 104,-75.5 158,-75.5 158,-56.5 104,-56.5"/>
<text text-anchor="middle" x="131" y="-63.5" font-family="Helvetica,sans-Serif" font-size="10.00">setjmp.h</text>
</g>
<!-- Node7&#45;&gt;Node11 -->
<g id="edge10" class="edge"><title>Node7&#45;&gt;Node11</title>
<path fill="none" stroke="midnightblue" d="M189.753,-112.324C179.203,-104.185 163.199,-91.8395 150.558,-82.0874"/>
<polygon fill="midnightblue" stroke="midnightblue" points="152.507,-79.1707 142.451,-75.8339 148.231,-84.7132 152.507,-79.1707"/>
</g>
<!-- Node12&#45;&gt;Node13 -->
<g id="edge12" class="edge"><title>Node12&#45;&gt;Node13</title>
<path fill="none" stroke="midnightblue" d="M298.965,-224.368C320.388,-205.814 371.073,-161.913 398.177,-138.438"/>
<polygon fill="midnightblue" stroke="midnightblue" points="400.813,-140.784 406.081,-131.591 396.23,-135.493 400.813,-140.784"/>
</g>
<!-- Node19 -->
<g id="node19" class="node"><title>Node19</title>
<g id="a_node19"><a xlink:href="semtable_8h.html" target="_top" xlink:title="header file for table for coordinating meaning across a vmhost ">
<polygon fill="white" stroke="black" points="237.5,-168.5 237.5,-187.5 302.5,-187.5 302.5,-168.5 237.5,-168.5"/>
<text text-anchor="middle" x="270" y="-175.5" font-family="Helvetica,sans-Serif" font-size="10.00">semtable.h</text>
</a>
</g>
</g>
<!-- Node12&#45;&gt;Node19 -->
<g id="edge21" class="edge"><title>Node12&#45;&gt;Node19</title>
<path fill="none" stroke="midnightblue" d="M285.863,-224.083C283.317,-216.849 279.644,-206.409 276.473,-197.397"/>
<polygon fill="midnightblue" stroke="midnightblue" points="279.7,-196.023 273.079,-187.751 273.097,-198.346 279.7,-196.023"/>
</g>
<!-- Node13&#45;&gt;Node8 -->
<g id="edge14" class="edge"><title>Node13&#45;&gt;Node8</title>
<path fill="none" stroke="midnightblue" d="M403.307,-112.324C391.099,-103.979 372.422,-91.2122 357.997,-81.3524"/>
<polygon fill="midnightblue" stroke="midnightblue" points="359.892,-78.4082 349.661,-75.6545 355.942,-84.1871 359.892,-78.4082"/>
</g>
<!-- Node14 -->
<g id="node14" class="node"><title>Node14</title>
<polygon fill="white" stroke="#bfbfbf" points="452.5,-56.5 452.5,-75.5 501.5,-75.5 501.5,-56.5 452.5,-56.5"/>
<text text-anchor="middle" x="477" y="-63.5" font-family="Helvetica,sans-Serif" font-size="10.00">stdint.h</text>
</g>
<!-- Node13&#45;&gt;Node14 -->
<g id="edge13" class="edge"><title>Node13&#45;&gt;Node14</title>
<path fill="none" stroke="midnightblue" d="M425.801,-112.324C434.818,-104.341 448.406,-92.3128 459.318,-82.6529"/>
<polygon fill="midnightblue" stroke="midnightblue" points="461.853,-85.083 467.021,-75.8339 457.213,-79.8416 461.853,-85.083"/>
</g>
<!-- Node15 -->
<g id="node15" class="node"><title>Node15</title>
<g id="a_node15"><a xlink:href="uthash_8h_source.html" target="_top" xlink:title="uthash.h">
<polygon fill="white" stroke="black" points="520,-56.5 520,-75.5 574,-75.5 574,-56.5 520,-56.5"/>
<text text-anchor="middle" x="547" y="-63.5" font-family="Helvetica,sans-Serif" font-size="10.00">uthash.h</text>
</a>
</g>
</g>
<!-- Node13&#45;&gt;Node15 -->
<g id="edge15" class="edge"><title>Node13&#45;&gt;Node15</title>
<path fill="none" stroke="midnightblue" d="M436.757,-112.444C458.316,-103.557 492.263,-89.5632 516.794,-79.4514"/>
<polygon fill="midnightblue" stroke="midnightblue" points="518.428,-82.5634 526.34,-75.5164 515.761,-76.0917 518.428,-82.5634"/>
</g>
<!-- Node18 -->
<g id="node18" class="node"><title>Node18</title>
<polygon fill="white" stroke="#bfbfbf" points="378,-56.5 378,-75.5 434,-75.5 434,-56.5 378,-56.5"/>
<text text-anchor="middle" x="406" y="-63.5" font-family="Helvetica,sans-Serif" font-size="10.00">stdbool.h</text>
</g>
<!-- Node13&#45;&gt;Node18 -->
<g id="edge20" class="edge"><title>Node13&#45;&gt;Node18</title>
<path fill="none" stroke="midnightblue" d="M414.349,-112.083C413.024,-104.927 411.118,-94.6353 409.461,-85.6911"/>
<polygon fill="midnightblue" stroke="midnightblue" points="412.883,-84.9466 407.621,-75.7511 406,-86.2212 412.883,-84.9466"/>
</g>
<!-- Node15&#45;&gt;Node5 -->
<g id="edge16" class="edge"><title>Node15&#45;&gt;Node5</title>
<path fill="none" stroke="midnightblue" d="M519.612,-57.8742C516.386,-57.1727 513.129,-56.5269 510,-56 347.969,-28.7147 151.652,-16.6207 73.0288,-12.6166"/>
<polygon fill="midnightblue" stroke="midnightblue" points="72.8932,-9.10564 62.7317,-12.1046 72.5455,-16.097 72.8932,-9.10564"/>
</g>
<!-- Node15&#45;&gt;Node6 -->
<g id="edge18" class="edge"><title>Node15&#45;&gt;Node6</title>
<path fill="none" stroke="midnightblue" d="M536.075,-56.324C525.825,-48.1849 510.279,-35.8395 497.999,-26.0874"/>
<polygon fill="midnightblue" stroke="midnightblue" points="500.132,-23.3119 490.124,-19.8339 495.779,-28.7937 500.132,-23.3119"/>
</g>
<!-- Node16 -->
<g id="node16" class="node"><title>Node16</title>
<polygon fill="white" stroke="#bfbfbf" points="521,-0.5 521,-19.5 573,-19.5 573,-0.5 521,-0.5"/>
<text text-anchor="middle" x="547" y="-7.5" font-family="Helvetica,sans-Serif" font-size="10.00">stddef.h</text>
</g>
<!-- Node15&#45;&gt;Node16 -->
<g id="edge17" class="edge"><title>Node15&#45;&gt;Node16</title>
<path fill="none" stroke="midnightblue" d="M547,-56.083C547,-49.0059 547,-38.8611 547,-29.9865"/>
<polygon fill="midnightblue" stroke="midnightblue" points="550.5,-29.751 547,-19.7511 543.5,-29.7511 550.5,-29.751"/>
</g>
<!-- Node17 -->
<g id="node17" class="node"><title>Node17</title>
<polygon fill="white" stroke="#bfbfbf" points="591.5,-0.5 591.5,-19.5 650.5,-19.5 650.5,-0.5 591.5,-0.5"/>
<text text-anchor="middle" x="621" y="-7.5" font-family="Helvetica,sans-Serif" font-size="10.00">inttypes.h</text>
</g>
<!-- Node15&#45;&gt;Node17 -->
<g id="edge19" class="edge"><title>Node15&#45;&gt;Node17</title>
<path fill="none" stroke="midnightblue" d="M558.889,-56.324C570.15,-48.1066 587.287,-35.6017 600.709,-25.8069"/>
<polygon fill="midnightblue" stroke="midnightblue" points="602.88,-28.5559 608.894,-19.8339 598.753,-22.9014 602.88,-28.5559"/>
</g>
<!-- Node19&#45;&gt;Node7 -->
<g id="edge23" class="edge"><title>Node19&#45;&gt;Node7</title>
<path fill="none" stroke="midnightblue" d="M258.914,-168.324C248.514,-160.185 232.739,-147.839 220.278,-138.087"/>
<polygon fill="midnightblue" stroke="midnightblue" points="222.32,-135.241 212.288,-131.834 218.006,-140.753 222.32,-135.241"/>
</g>
<!-- Node19&#45;&gt;Node13 -->
<g id="edge22" class="edge"><title>Node19&#45;&gt;Node13</title>
<path fill="none" stroke="midnightblue" d="M293.134,-168.444C317.482,-159.438 356.007,-145.189 383.423,-135.049"/>
<polygon fill="midnightblue" stroke="midnightblue" points="384.809,-138.268 392.974,-131.516 382.381,-131.703 384.809,-138.268"/>
</g>
<!-- Node20&#45;&gt;Node12 -->
<g id="edge25" class="edge"><title>Node20&#45;&gt;Node12</title>
<path fill="none" stroke="midnightblue" d="M322.395,-280.083C316.745,-272.455 308.455,-261.264 301.549,-251.941"/>
<polygon fill="midnightblue" stroke="midnightblue" points="304.247,-249.703 295.482,-243.751 298.622,-253.87 304.247,-249.703"/>
</g>
<!-- Node21&#45;&gt;Node8 -->
<g id="edge28" class="edge"><title>Node21&#45;&gt;Node8</title>
<path fill="none" stroke="midnightblue" d="M400.02,-280.407C390.985,-272.045 378.043,-258.509 371,-244 345.086,-190.617 338.907,-119.194 337.446,-85.7528"/>
<polygon fill="midnightblue" stroke="midnightblue" points="340.938,-85.4755 337.101,-75.6001 333.942,-85.7133 340.938,-85.4755"/>
</g>
<!-- Node22 -->
<g id="node22" class="node"><title>Node22</title>
<polygon fill="white" stroke="#bfbfbf" points="380.5,-224.5 380.5,-243.5 437.5,-243.5 437.5,-224.5 380.5,-224.5"/>
<text text-anchor="middle" x="409" y="-231.5" font-family="Helvetica,sans-Serif" font-size="10.00">pthread.h</text>
</g>
<!-- Node21&#45;&gt;Node22 -->
<g id="edge29" class="edge"><title>Node21&#45;&gt;Node22</title>
<path fill="none" stroke="midnightblue" d="M409.835,-280.083C409.704,-273.006 409.516,-262.861 409.352,-253.986"/>
<polygon fill="midnightblue" stroke="midnightblue" points="412.847,-253.685 409.162,-243.751 405.848,-253.814 412.847,-253.685"/>
</g>
<!-- Node23&#45;&gt;Node5 -->
<g id="edge31" class="edge"><title>Node23&#45;&gt;Node5</title>
<path fill="none" stroke="midnightblue" d="M107.834,-280.486C93.762,-272.72 74.2357,-260.024 62,-244 43.3111,-219.524 38,-209.795 38,-179 38,-179 38,-179 38,-121 38,-88.948 38,-51.6426 38,-29.7489"/>
<polygon fill="midnightblue" stroke="midnightblue" points="41.5001,-29.5577 38,-19.5578 34.5001,-29.5578 41.5001,-29.5577"/>
</g>
<!-- Node23&#45;&gt;Node6 -->
<g id="edge32" class="edge"><title>Node23&#45;&gt;Node6</title>
<path fill="none" stroke="midnightblue" d="M118.187,-280.458C104.723,-262.688 76,-219.976 76,-179 76,-179 76,-179 76,-121 76,-90.9022 72.0097,-75.4248 95,-56 147.365,-11.7561 360.64,-9.46769 444.705,-10.3498"/>
<polygon fill="midnightblue" stroke="midnightblue" points="444.716,-13.8501 454.759,-10.4773 444.805,-6.85066 444.716,-13.8501"/>
</g>
<!-- Node23&#45;&gt;Node7 -->
<g id="edge33" class="edge"><title>Node23&#45;&gt;Node7</title>
<path fill="none" stroke="midnightblue" d="M123.659,-280.35C120.866,-259.418 116.363,-205.032 138,-168 145.912,-154.459 159.699,-143.913 172.362,-136.445"/>
<polygon fill="midnightblue" stroke="midnightblue" points="174.199,-139.43 181.284,-131.553 170.833,-133.292 174.199,-139.43"/>
</g>
<!-- Node23&#45;&gt;Node12 -->
<g id="edge34" class="edge"><title>Node23&#45;&gt;Node12</title>
<path fill="none" stroke="midnightblue" d="M150.266,-280.681C177.912,-271.578 222.436,-256.917 253.566,-246.667"/>
<polygon fill="midnightblue" stroke="midnightblue" points="254.761,-249.959 263.164,-243.507 252.571,-243.31 254.761,-249.959"/>
</g>
<!-- Node23&#45;&gt;Node13 -->
<g id="edge35" class="edge"><title>Node23&#45;&gt;Node13</title>
<path fill="none" stroke="midnightblue" d="M129.709,-280.357C142.383,-257.958 179.559,-197.717 228,-168 270.764,-141.766 327.689,-130.826 367.656,-126.263"/>
<polygon fill="midnightblue" stroke="midnightblue" points="368.107,-129.735 377.687,-125.211 367.376,-122.774 368.107,-129.735"/>
</g>
<!-- Node25 -->
<g id="node25" class="node"><title>Node25</title>
<g id="a_node25"><a xlink:href="receptor_8h.html" target="_top" xlink:title="receptor implementation header file ">
<polygon fill="white" stroke="black" points="364,-448.5 364,-467.5 424,-467.5 424,-448.5 364,-448.5"/>
<text text-anchor="middle" x="394" y="-455.5" font-family="Helvetica,sans-Serif" font-size="10.00">receptor.h</text>
</a>
</g>
</g>
<!-- Node24&#45;&gt;Node25 -->
<g id="edge37" class="edge"><title>Node24&#45;&gt;Node25</title>
<path fill="none" stroke="midnightblue" d="M407.358,-504.083C405.214,-496.849 402.121,-486.409 399.451,-477.397"/>
<polygon fill="midnightblue" stroke="midnightblue" points="402.79,-476.345 396.593,-467.751 396.078,-478.333 402.79,-476.345"/>
</g>
<!-- Node25&#45;&gt;Node4 -->
<g id="edge39" class="edge"><title>Node25&#45;&gt;Node4</title>
<path fill="none" stroke="midnightblue" d="M382.583,-448.282C368.374,-436.286 346.905,-413.701 355,-392 359.173,-380.812 367.52,-370.56 375.424,-362.676"/>
<polygon fill="midnightblue" stroke="midnightblue" points="378.062,-365.003 383.01,-355.635 373.299,-359.872 378.062,-365.003"/>
</g>
<!-- Node25&#45;&gt;Node19 -->
<g id="edge38" class="edge"><title>Node25&#45;&gt;Node19</title>
<path fill="none" stroke="midnightblue" d="M363.811,-455.915C330.697,-453.088 278.129,-443.526 247,-412 225.853,-390.583 228,-377.098 228,-347 228,-347 228,-347 228,-289 228,-254.412 246.348,-217.492 258.79,-196.432"/>
<polygon fill="midnightblue" stroke="midnightblue" points="261.907,-198.045 264.16,-187.692 255.943,-194.38 261.907,-198.045"/>
</g>
<!-- Node26 -->
<g id="node26" class="node"><title>Node26</title>
<g id="a_node26"><a xlink:href="def_8h.html" target="_top" xlink:title="header file for symbol and structure definition functions ">
<polygon fill="white" stroke="black" points="442,-392.5 442,-411.5 480,-411.5 480,-392.5 442,-392.5"/>
<text text-anchor="middle" x="461" y="-399.5" font-family="Helvetica,sans-Serif" font-size="10.00">def.h</text>
</a>
</g>
</g>
<!-- Node25&#45;&gt;Node26 -->
<g id="edge40" class="edge"><title>Node25&#45;&gt;Node26</title>
<path fill="none" stroke="midnightblue" d="M404.765,-448.324C414.766,-440.263 429.887,-428.077 441.93,-418.369"/>
<polygon fill="midnightblue" stroke="midnightblue" points="444.45,-420.834 450.039,-411.834 440.057,-415.384 444.45,-420.834"/>
</g>
<!-- Node28 -->
<g id="node28" class="node"><title>Node28</title>
<g id="a_node28"><a xlink:href="label_8h.html" target="_top" xlink:title="Label tables map human readable text strings to parts of semantic trees. ">
<polygon fill="white" stroke="black" points="511.5,-168.5 511.5,-187.5 556.5,-187.5 556.5,-168.5 511.5,-168.5"/>
<text text-anchor="middle" x="534" y="-175.5" font-family="Helvetica,sans-Serif" font-size="10.00">label.h</text>
</a>
</g>
</g>
<!-- Node25&#45;&gt;Node28 -->
<g id="edge43" class="edge"><title>Node25&#45;&gt;Node28</title>
<path fill="none" stroke="midnightblue" d="M424.291,-450.36C445.627,-444.084 473.119,-432.479 489,-412 539.647,-346.689 538.551,-240.659 535.705,-197.832"/>
<polygon fill="midnightblue" stroke="midnightblue" points="539.184,-197.424 534.917,-187.726 532.205,-197.968 539.184,-197.424"/>
</g>
<!-- Node29 -->
<g id="node29" class="node"><title>Node29</title>
<g id="a_node29"><a xlink:href="process_8h.html" target="_top" xlink:title="processing header files ">
<polygon fill="white" stroke="black" points="364.5,-392.5 364.5,-411.5 423.5,-411.5 423.5,-392.5 364.5,-392.5"/>
<text text-anchor="middle" x="394" y="-399.5" font-family="Helvetica,sans-Serif" font-size="10.00">process.h</text>
</a>
</g>
</g>
<!-- Node25&#45;&gt;Node29 -->
<g id="edge45" class="edge"><title>Node25&#45;&gt;Node29</title>
<path fill="none" stroke="midnightblue" d="M394,-448.083C394,-441.006 394,-430.861 394,-421.986"/>
<polygon fill="midnightblue" stroke="midnightblue" points="397.5,-421.751 394,-411.751 390.5,-421.751 397.5,-421.751"/>
</g>
<!-- Node30 -->
<g id="node30" class="node"><title>Node30</title>
<g id="a_node30"><a xlink:href="scape_8h.html" target="_top" xlink:title="scape header files ">
<polygon fill="white" stroke="black" points="256.5,-392.5 256.5,-411.5 307.5,-411.5 307.5,-392.5 256.5,-392.5"/>
<text text-anchor="middle" x="282" y="-399.5" font-family="Helvetica,sans-Serif" font-size="10.00">scape.h</text>
</a>
</g>
</g>
<!-- Node25&#45;&gt;Node30 -->
<g id="edge47" class="edge"><title>Node25&#45;&gt;Node30</title>
<path fill="none" stroke="midnightblue" d="M376.005,-448.324C357.962,-439.625 329.953,-426.12 309.197,-416.113"/>
<polygon fill="midnightblue" stroke="midnightblue" points="310.478,-412.845 299.95,-411.655 307.438,-419.15 310.478,-412.845"/>
</g>
<!-- Node26&#45;&gt;Node4 -->
<g id="edge41" class="edge"><title>Node26&#45;&gt;Node4</title>
<path fill="none" stroke="midnightblue" d="M450.235,-392.324C440.234,-384.263 425.113,-372.077 413.07,-362.369"/>
<polygon fill="midnightblue" stroke="midnightblue" points="414.943,-359.384 404.961,-355.834 410.55,-364.834 414.943,-359.384"/>
</g>
<!-- Node27 -->
<g id="node27" class="node"><title>Node27</title>
<polygon fill="white" stroke="#bfbfbf" points="435,-336.5 435,-355.5 487,-355.5 487,-336.5 435,-336.5"/>
<text text-anchor="middle" x="461" y="-343.5" font-family="Helvetica,sans-Serif" font-size="10.00">stdarg.h</text>
</g>
<!-- Node26&#45;&gt;Node27 -->
<g id="edge42" class="edge"><title>Node26&#45;&gt;Node27</title>
<path fill="none" stroke="midnightblue" d="M461,-392.083C461,-385.006 461,-374.861 461,-365.986"/>
<polygon fill="midnightblue" stroke="midnightblue" points="464.5,-365.751 461,-355.751 457.5,-365.751 464.5,-365.751"/>
</g>
<!-- Node28&#45;&gt;Node13 -->
<g id="edge44" class="edge"><title>Node28&#45;&gt;Node13</title>
<path fill="none" stroke="midnightblue" d="M515.303,-168.444C496.056,-159.636 465.848,-145.812 443.8,-135.722"/>
<polygon fill="midnightblue" stroke="midnightblue" points="445.16,-132.495 434.61,-131.516 442.247,-138.86 445.16,-132.495"/>
</g>
<!-- Node29&#45;&gt;Node4 -->
<g id="edge46" class="edge"><title>Node29&#45;&gt;Node4</title>
<path fill="none" stroke="midnightblue" d="M394,-392.083C394,-385.006 394,-374.861 394,-365.986"/>
<polygon fill="midnightblue" stroke="midnightblue" points="397.5,-365.751 394,-355.751 390.5,-365.751 397.5,-365.751"/>
</g>
<!-- Node30&#45;&gt;Node4 -->
<g id="edge48" class="edge"><title>Node30&#45;&gt;Node4</title>
<path fill="none" stroke="midnightblue" d="M299.995,-392.324C318.038,-383.625 346.047,-370.12 366.803,-360.113"/>
<polygon fill="midnightblue" stroke="midnightblue" points="368.562,-363.15 376.05,-355.655 365.522,-356.845 368.562,-363.15"/>
</g>
<!-- Node31&#45;&gt;Node4 -->
<g id="edge50" class="edge"><title>Node31&#45;&gt;Node4</title>
<path fill="none" stroke="midnightblue" d="M538.292,-560.459C541.99,-532.707 549.829,-443.873 508,-392 502.456,-385.125 456.151,-368.239 424.29,-357.22"/>
<polygon fill="midnightblue" stroke="midnightblue" points="425.117,-353.803 414.522,-353.868 422.845,-360.425 425.117,-353.803"/>
</g>
</g>
</svg>
