<?xml version="1.0" encoding="UTF-8" standalone="no"?>
<!DOCTYPE svg PUBLIC "-//W3C//DTD SVG 1.1//EN"
 "http://www.w3.org/Graphics/SVG/1.1/DTD/svg11.dtd">
<!-- Generated by graphviz version 2.38.0 (20140413.2041)
 -->
<!-- Title: spec/spec_utils.h Pages: 1 -->
<svg width="631pt" height="196pt"
 viewBox="0.00 0.00 630.78 196.00" xmlns="http://www.w3.org/2000/svg" xmlns:xlink="http://www.w3.org/1999/xlink">
<g id="graph0" class="graph" transform="scale(1 1) rotate(0) translate(4 192)">
<title>spec/spec_utils.h</title>
<polygon fill="white" stroke="none" points="-4,4 -4,-192 626.781,-192 626.781,4 -4,4"/>
<!-- Node1 -->
<g id="node1" class="node"><title>Node1</title>
<polygon fill="#bfbfbf" stroke="black" points="259,-168.5 259,-187.5 352,-187.5 352,-168.5 259,-168.5"/>
<text text-anchor="middle" x="305.5" y="-175.5" font-family="Helvetica,sans-Serif" font-size="10.00">spec/spec_utils.h</text>
</g>
<!-- Node2 -->
<g id="node2" class="node"><title>Node2</title>
<g id="a_node2"><a xlink:href="process_8c.html" target="_top" xlink:title="implementation of ceptr processing: instructions and run tree reduction ">
<polygon fill="white" stroke="black" points="119.5,-112.5 119.5,-131.5 195.5,-131.5 195.5,-112.5 119.5,-112.5"/>
<text text-anchor="middle" x="157.5" y="-119.5" font-family="Helvetica,sans-Serif" font-size="10.00">src/process.c</text>
</a>
</g>
</g>
<!-- Node1&#45;&gt;Node2 -->
<g id="edge1" class="edge"><title>Node1&#45;&gt;Node2</title>
<path fill="none" stroke="midnightblue" d="M272.353,-164.906C244.528,-154.754 205.48,-140.506 180.841,-131.516"/>
<polygon fill="midnightblue" stroke="midnightblue" points="271.455,-168.304 282.049,-168.444 273.854,-161.728 271.455,-168.304"/>
</g>
<!-- Node3 -->
<g id="node3" class="node"><title>Node3</title>
<g id="a_node3"><a xlink:href="def__spec_8h.html" target="_top" xlink:title="spec/def_spec.h">
<polygon fill="white" stroke="black" points="0,-56.5 0,-75.5 89,-75.5 89,-56.5 0,-56.5"/>
<text text-anchor="middle" x="44.5" y="-63.5" font-family="Helvetica,sans-Serif" font-size="10.00">spec/def_spec.h</text>
</a>
</g>
</g>
<!-- Node1&#45;&gt;Node3 -->
<g id="edge2" class="edge"><title>Node1&#45;&gt;Node3</title>
<path fill="none" stroke="midnightblue" d="M286.535,-162.329C266.941,-147.78 235.004,-125.732 204.5,-112 166.61,-94.9429 120.722,-82.8368 87.8212,-75.5087"/>
<polygon fill="midnightblue" stroke="midnightblue" points="284.529,-165.199 294.62,-168.428 288.745,-159.611 284.529,-165.199"/>
</g>
<!-- Node5 -->
<g id="node5" class="node"><title>Node5</title>
<g id="a_node5"><a xlink:href="http__example_8h.html" target="_top" xlink:title="spec/http_example.h">
<polygon fill="white" stroke="black" points="252,-112.5 252,-131.5 359,-131.5 359,-112.5 252,-112.5"/>
<text text-anchor="middle" x="305.5" y="-119.5" font-family="Helvetica,sans-Serif" font-size="10.00">spec/http_example.h</text>
</a>
</g>
</g>
<!-- Node1&#45;&gt;Node5 -->
<g id="edge4" class="edge"><title>Node1&#45;&gt;Node5</title>
<path fill="none" stroke="midnightblue" d="M305.5,-157.805C305.5,-148.91 305.5,-138.78 305.5,-131.751"/>
<polygon fill="midnightblue" stroke="midnightblue" points="302,-158.083 305.5,-168.083 309,-158.083 302,-158.083"/>
</g>
<!-- Node10 -->
<g id="node10" class="node"><title>Node10</title>
<g id="a_node10"><a xlink:href="profile__example_8h.html" target="_top" xlink:title="spec/profile_example.h">
<polygon fill="white" stroke="black" points="377,-112.5 377,-131.5 494,-131.5 494,-112.5 377,-112.5"/>
<text text-anchor="middle" x="435.5" y="-119.5" font-family="Helvetica,sans-Serif" font-size="10.00">spec/profile_example.h</text>
</a>
</g>
</g>
<!-- Node1&#45;&gt;Node10 -->
<g id="edge14" class="edge"><title>Node1&#45;&gt;Node10</title>
<path fill="none" stroke="midnightblue" d="M335.585,-164.503C359.957,-154.38 393.64,-140.388 414.997,-131.516"/>
<polygon fill="midnightblue" stroke="midnightblue" points="333.991,-161.375 326.099,-168.444 336.677,-167.84 333.991,-161.375"/>
</g>
<!-- Node11 -->
<g id="node11" class="node"><title>Node11</title>
<g id="a_node11"><a xlink:href="spec__utils_8c.html" target="_top" xlink:title="spec/spec_utils.c">
<polygon fill="white" stroke="black" points="512,-112.5 512,-131.5 605,-131.5 605,-112.5 512,-112.5"/>
<text text-anchor="middle" x="558.5" y="-119.5" font-family="Helvetica,sans-Serif" font-size="10.00">spec/spec_utils.c</text>
</a>
</g>
</g>
<!-- Node1&#45;&gt;Node11 -->
<g id="edge16" class="edge"><title>Node1&#45;&gt;Node11</title>
<path fill="none" stroke="midnightblue" d="M355.418,-166.346C403.231,-156.141 474.448,-140.94 518.599,-131.516"/>
<polygon fill="midnightblue" stroke="midnightblue" points="354.638,-162.933 345.589,-168.444 356.099,-169.779 354.638,-162.933"/>
</g>
<!-- Node4 -->
<g id="node4" class="node"><title>Node4</title>
<g id="a_node4"><a xlink:href="ceptr__specs_8c.html" target="_top" xlink:title="implements a main() entry point for running all the tests ">
<polygon fill="white" stroke="black" points="254.5,-0.5 254.5,-19.5 356.5,-19.5 356.5,-0.5 254.5,-0.5"/>
<text text-anchor="middle" x="305.5" y="-7.5" font-family="Helvetica,sans-Serif" font-size="10.00">spec/ceptr_specs.c</text>
</a>
</g>
</g>
<!-- Node3&#45;&gt;Node4 -->
<g id="edge3" class="edge"><title>Node3&#45;&gt;Node4</title>
<path fill="none" stroke="midnightblue" d="M95.6871,-54.4096C145.013,-44.2042 218.695,-28.9597 264.337,-19.5164"/>
<polygon fill="midnightblue" stroke="midnightblue" points="94.9397,-50.99 85.8562,-56.4435 96.358,-57.8448 94.9397,-50.99"/>
</g>
<!-- Node5&#45;&gt;Node4 -->
<g id="edge13" class="edge"><title>Node5&#45;&gt;Node4</title>
<path fill="none" stroke="midnightblue" d="M241.889,-112.219C199.616,-104.93 149.561,-92.9939 136.5,-76 103.168,-32.6313 193.221,-18.1885 254.33,-13.3858"/>
<polygon fill="midnightblue" stroke="midnightblue" points="241.444,-115.693 251.883,-113.882 242.593,-108.788 241.444,-115.693"/>
</g>
<!-- Node6 -->
<g id="node6" class="node"><title>Node6</title>
<g id="a_node6"><a xlink:href="tree__spec_8h.html" target="_top" xlink:title="spec/tree_spec.h">
<polygon fill="white" stroke="black" points="145.5,-56.5 145.5,-75.5 237.5,-75.5 237.5,-56.5 145.5,-56.5"/>
<text text-anchor="middle" x="191.5" y="-63.5" font-family="Helvetica,sans-Serif" font-size="10.00">spec/tree_spec.h</text>
</a>
</g>
</g>
<!-- Node5&#45;&gt;Node6 -->
<g id="edge5" class="edge"><title>Node5&#45;&gt;Node6</title>
<path fill="none" stroke="midnightblue" d="M278.258,-108.096C256.96,-98.0073 227.958,-84.2697 209.479,-75.5164"/>
<polygon fill="midnightblue" stroke="midnightblue" points="276.901,-111.326 287.436,-112.444 279.897,-105 276.901,-111.326"/>
</g>
<!-- Node7 -->
<g id="node7" class="node"><title>Node7</title>
<g id="a_node7"><a xlink:href="mtree__spec_8h.html" target="_top" xlink:title="spec/mtree_spec.h">
<polygon fill="white" stroke="black" points="255.5,-56.5 255.5,-75.5 355.5,-75.5 355.5,-56.5 255.5,-56.5"/>
<text text-anchor="middle" x="305.5" y="-63.5" font-family="Helvetica,sans-Serif" font-size="10.00">spec/mtree_spec.h</text>
</a>
</g>
</g>
<!-- Node5&#45;&gt;Node7 -->
<g id="edge7" class="edge"><title>Node5&#45;&gt;Node7</title>
<path fill="none" stroke="midnightblue" d="M305.5,-101.805C305.5,-92.9102 305.5,-82.7798 305.5,-75.7511"/>
<polygon fill="midnightblue" stroke="midnightblue" points="302,-102.083 305.5,-112.083 309,-102.083 302,-102.083"/>
</g>
<!-- Node8 -->
<g id="node8" class="node"><title>Node8</title>
<g id="a_node8"><a xlink:href="receptor__spec_8h.html" target="_top" xlink:title="spec/receptor_spec.h">
<polygon fill="white" stroke="black" points="373.5,-56.5 373.5,-75.5 483.5,-75.5 483.5,-56.5 373.5,-56.5"/>
<text text-anchor="middle" x="428.5" y="-63.5" font-family="Helvetica,sans-Serif" font-size="10.00">spec/receptor_spec.h</text>
</a>
</g>
</g>
<!-- Node5&#45;&gt;Node8 -->
<g id="edge9" class="edge"><title>Node5&#45;&gt;Node8</title>
<path fill="none" stroke="midnightblue" d="M334.273,-108.368C357.307,-98.2553 388.984,-84.3486 409.101,-75.5164"/>
<polygon fill="midnightblue" stroke="midnightblue" points="332.739,-105.219 324.99,-112.444 335.553,-111.628 332.739,-105.219"/>
</g>
<!-- Node9 -->
<g id="node9" class="node"><title>Node9</title>
<g id="a_node9"><a xlink:href="vmhost__spec_8h.html" target="_top" xlink:title="spec/vmhost_spec.h">
<polygon fill="white" stroke="black" points="502,-56.5 502,-75.5 609,-75.5 609,-56.5 502,-56.5"/>
<text text-anchor="middle" x="555.5" y="-63.5" font-family="Helvetica,sans-Serif" font-size="10.00">spec/vmhost_spec.h</text>
</a>
</g>
</g>
<!-- Node5&#45;&gt;Node9 -->
<g id="edge11" class="edge"><title>Node5&#45;&gt;Node9</title>
<path fill="none" stroke="midnightblue" d="M355.123,-110.281C402.366,-100.077 472.536,-84.9203 516.072,-75.5164"/>
<polygon fill="midnightblue" stroke="midnightblue" points="354.149,-106.911 345.113,-112.444 355.627,-113.753 354.149,-106.911"/>
</g>
<!-- Node6&#45;&gt;Node4 -->
<g id="edge6" class="edge"><title>Node6&#45;&gt;Node4</title>
<path fill="none" stroke="midnightblue" d="M218.742,-52.096C240.04,-42.0073 269.042,-28.2697 287.521,-19.5164"/>
<polygon fill="midnightblue" stroke="midnightblue" points="217.103,-48.9995 209.564,-56.4435 220.099,-55.3257 217.103,-48.9995"/>
</g>
<!-- Node7&#45;&gt;Node4 -->
<g id="edge8" class="edge"><title>Node7&#45;&gt;Node4</title>
<path fill="none" stroke="midnightblue" d="M305.5,-45.8045C305.5,-36.9102 305.5,-26.7798 305.5,-19.7511"/>
<polygon fill="midnightblue" stroke="midnightblue" points="302,-46.083 305.5,-56.083 309,-46.083 302,-46.083"/>
</g>
<!-- Node8&#45;&gt;Node4 -->
<g id="edge10" class="edge"><title>Node8&#45;&gt;Node4</title>
<path fill="none" stroke="midnightblue" d="M399.727,-52.3678C376.693,-42.2553 345.016,-28.3486 324.899,-19.5164"/>
<polygon fill="midnightblue" stroke="midnightblue" points="398.447,-55.6283 409.01,-56.4435 401.261,-49.2188 398.447,-55.6283"/>
</g>
<!-- Node9&#45;&gt;Node4 -->
<g id="edge12" class="edge"><title>Node9&#45;&gt;Node4</title>
<path fill="none" stroke="midnightblue" d="M505.877,-54.2815C458.634,-44.0769 388.464,-28.9203 344.928,-19.5164"/>
<polygon fill="midnightblue" stroke="midnightblue" points="505.373,-57.7533 515.887,-56.4435 506.851,-50.9111 505.373,-57.7533"/>
</g>
<!-- Node10&#45;&gt;Node4 -->
<g id="edge15" class="edge"><title>Node10&#45;&gt;Node4</title>
<path fill="none" stroke="midnightblue" d="M492.852,-110.556C543.517,-100.748 610.576,-86.1085 618.5,-76 623.984,-69.0043 624.321,-62.7178 618.5,-56 585.245,-17.622 436.595,-11.2117 356.699,-10.6081"/>
<polygon fill="midnightblue" stroke="midnightblue" points="492.123,-107.132 482.96,-112.45 493.439,-114.007 492.123,-107.132"/>
</g>
</g>
</svg>
