<?xml version="1.0" encoding="UTF-8" standalone="no"?>
<!DOCTYPE svg PUBLIC "-//W3C//DTD SVG 1.1//EN"
 "http://www.w3.org/Graphics/SVG/1.1/DTD/svg11.dtd">
<!-- Generated by graphviz version 2.38.0 (20140413.2041)
 -->
<!-- Title: spec/spec_utils.h Pages: 1 -->
<svg width="736pt" height="196pt"
 viewBox="0.00 0.00 735.77 196.00" xmlns="http://www.w3.org/2000/svg" xmlns:xlink="http://www.w3.org/1999/xlink">
<g id="graph0" class="graph" transform="scale(1 1) rotate(0) translate(4 192)">
<title>spec/spec_utils.h</title>
<polygon fill="white" stroke="none" points="-4,4 -4,-192 731.771,-192 731.771,4 -4,4"/>
<!-- Node1 -->
<g id="node1" class="node"><title>Node1</title>
<polygon fill="#bfbfbf" stroke="black" points="386.771,-168.5 386.771,-187.5 479.771,-187.5 479.771,-168.5 386.771,-168.5"/>
<text text-anchor="middle" x="433.271" y="-175.5" font-family="Helvetica,sans-Serif" font-size="10.00">spec/spec_utils.h</text>
</g>
<!-- Node2 -->
<g id="node2" class="node"><title>Node2</title>
<g id="a_node2"><a xlink:href="process_8c.html" target="_top" xlink:title="implementation of ceptr processing: instructions and run tree reduction ">
<polygon fill="white" stroke="black" points="85.2706,-112.5 85.2706,-131.5 161.271,-131.5 161.271,-112.5 85.2706,-112.5"/>
<text text-anchor="middle" x="123.271" y="-119.5" font-family="Helvetica,sans-Serif" font-size="10.00">src/process.c</text>
</a>
</g>
</g>
<!-- Node1&#45;&gt;Node2 -->
<g id="edge1" class="edge"><title>Node1&#45;&gt;Node2</title>
<path fill="none" stroke="midnightblue" d="M376.728,-167.657C323.43,-158.771 241.353,-144.886 170.271,-132 167.409,-131.481 164.452,-130.936 161.478,-130.382"/>
<polygon fill="midnightblue" stroke="midnightblue" points="376.225,-171.121 386.664,-169.311 377.375,-164.216 376.225,-171.121"/>
</g>
<!-- Node3 -->
<g id="node3" class="node"><title>Node3</title>
<g id="a_node3"><a xlink:href="def__spec_8h.html" target="_top" xlink:title="spec/def_spec.h">
<polygon fill="white" stroke="black" points="179.771,-112.5 179.771,-131.5 268.771,-131.5 268.771,-112.5 179.771,-112.5"/>
<text text-anchor="middle" x="224.271" y="-119.5" font-family="Helvetica,sans-Serif" font-size="10.00">spec/def_spec.h</text>
</a>
</g>
</g>
<!-- Node1&#45;&gt;Node3 -->
<g id="edge2" class="edge"><title>Node1&#45;&gt;Node3</title>
<path fill="none" stroke="midnightblue" d="M390.287,-165.894C350.818,-155.697 293.171,-140.802 257.232,-131.516"/>
<polygon fill="midnightblue" stroke="midnightblue" points="389.596,-169.331 400.154,-168.444 391.347,-162.553 389.596,-169.331"/>
</g>
<!-- Node5 -->
<g id="node5" class="node"><title>Node5</title>
<g id="a_node5"><a xlink:href="http__example_8h.html" target="_top" xlink:title="spec/http_example.h">
<polygon fill="white" stroke="black" points="286.771,-112.5 286.771,-131.5 393.771,-131.5 393.771,-112.5 286.771,-112.5"/>
<text text-anchor="middle" x="340.271" y="-119.5" font-family="Helvetica,sans-Serif" font-size="10.00">spec/http_example.h</text>
</a>
</g>
</g>
<!-- Node1&#45;&gt;Node5 -->
<g id="edge4" class="edge"><title>Node1&#45;&gt;Node5</title>
<path fill="none" stroke="midnightblue" d="M409.465,-163.177C392.352,-153.241 369.805,-140.149 355.176,-131.655"/>
<polygon fill="midnightblue" stroke="midnightblue" points="407.923,-166.329 418.329,-168.324 411.438,-160.276 407.923,-166.329"/>
</g>
<!-- Node8 -->
<g id="node8" class="node"><title>Node8</title>
<g id="a_node8"><a xlink:href="semtrex__spec_8h.html" target="_top" xlink:title="spec/semtrex_spec.h">
<polygon fill="white" stroke="black" points="400.271,-56.5 400.271,-75.5 510.271,-75.5 510.271,-56.5 400.271,-56.5"/>
<text text-anchor="middle" x="455.271" y="-63.5" font-family="Helvetica,sans-Serif" font-size="10.00">spec/semtrex_spec.h</text>
</a>
</g>
</g>
<!-- Node1&#45;&gt;Node8 -->
<g id="edge16" class="edge"><title>Node1&#45;&gt;Node8</title>
<path fill="none" stroke="midnightblue" d="M437.001,-158.348C441.82,-134.254 450.009,-93.3079 453.552,-75.5914"/>
<polygon fill="midnightblue" stroke="midnightblue" points="433.526,-157.876 434.997,-168.368 440.39,-159.249 433.526,-157.876"/>
</g>
<!-- Node9 -->
<g id="node9" class="node"><title>Node9</title>
<g id="a_node9"><a xlink:href="receptor__spec_8h.html" target="_top" xlink:title="spec/receptor_spec.h">
<polygon fill="white" stroke="black" points="528.271,-56.5 528.271,-75.5 638.271,-75.5 638.271,-56.5 528.271,-56.5"/>
<text text-anchor="middle" x="583.271" y="-63.5" font-family="Helvetica,sans-Serif" font-size="10.00">spec/receptor_spec.h</text>
</a>
</g>
</g>
<!-- Node1&#45;&gt;Node9 -->
<g id="edge17" class="edge"><title>Node1&#45;&gt;Node9</title>
<path fill="none" stroke="midnightblue" d="M445.366,-160.11C456.176,-145.914 473.078,-125.789 491.271,-112 512.384,-95.9968 540.086,-83.3781 559.555,-75.6254"/>
<polygon fill="midnightblue" stroke="midnightblue" points="442.325,-158.336 439.191,-168.456 447.952,-162.5 442.325,-158.336"/>
</g>
<!-- Node11 -->
<g id="node11" class="node"><title>Node11</title>
<g id="a_node11"><a xlink:href="profile__example_8h.html" target="_top" xlink:title="spec/profile_example.h">
<polygon fill="white" stroke="black" points="499.771,-112.5 499.771,-131.5 616.771,-131.5 616.771,-112.5 499.771,-112.5"/>
<text text-anchor="middle" x="558.271" y="-119.5" font-family="Helvetica,sans-Serif" font-size="10.00">spec/profile_example.h</text>
</a>
</g>
</g>
<!-- Node1&#45;&gt;Node11 -->
<g id="edge18" class="edge"><title>Node1&#45;&gt;Node11</title>
<path fill="none" stroke="midnightblue" d="M462.512,-164.368C485.92,-154.255 518.112,-140.349 538.557,-131.516"/>
<polygon fill="midnightblue" stroke="midnightblue" points="460.869,-161.265 453.077,-168.444 463.645,-167.691 460.869,-161.265"/>
</g>
<!-- Node12 -->
<g id="node12" class="node"><title>Node12</title>
<g id="a_node12"><a xlink:href="spec__utils_8c.html" target="_top" xlink:title="spec/spec_utils.c">
<polygon fill="white" stroke="black" points="634.771,-112.5 634.771,-131.5 727.771,-131.5 727.771,-112.5 634.771,-112.5"/>
<text text-anchor="middle" x="681.271" y="-119.5" font-family="Helvetica,sans-Serif" font-size="10.00">spec/spec_utils.c</text>
</a>
</g>
</g>
<!-- Node1&#45;&gt;Node12 -->
<g id="edge20" class="edge"><title>Node1&#45;&gt;Node12</title>
<path fill="none" stroke="midnightblue" d="M482.496,-166.281C529.362,-156.077 598.97,-140.92 642.158,-131.516"/>
<polygon fill="midnightblue" stroke="midnightblue" points="481.593,-162.896 472.567,-168.444 483.083,-169.736 481.593,-162.896"/>
</g>
<!-- Node4 -->
<g id="node4" class="node"><title>Node4</title>
<g id="a_node4"><a xlink:href="ceptr__specs_8c.html" target="_top" xlink:title="implements a main() entry point for running all the tests ">
<polygon fill="white" stroke="black" points="216.271,-0.5 216.271,-19.5 318.271,-19.5 318.271,-0.5 216.271,-0.5"/>
<text text-anchor="middle" x="267.271" y="-7.5" font-family="Helvetica,sans-Serif" font-size="10.00">spec/ceptr_specs.c</text>
</a>
</g>
</g>
<!-- Node3&#45;&gt;Node4 -->
<g id="edge3" class="edge"><title>Node3&#45;&gt;Node4</title>
<path fill="none" stroke="midnightblue" d="M169.729,-111.612C106.306,-100.435 9.54987,-82.4685 4.27057,-76 -1.34987,-69.1136 -1.46035,-62.7948 4.27057,-56 30.8139,-24.5293 147.29,-15.0665 216.015,-12.2219"/>
<polygon fill="midnightblue" stroke="midnightblue" points="169.148,-115.063 179.603,-113.345 170.358,-108.169 169.148,-115.063"/>
</g>
<!-- Node5&#45;&gt;Node4 -->
<g id="edge15" class="edge"><title>Node5&#45;&gt;Node4</title>
<path fill="none" stroke="midnightblue" d="M276.715,-111.821C188.15,-98.9928 38.2491,-77.1346 37.2706,-76 31.4652,-69.2687 31.6207,-62.8623 37.2706,-56 59.4789,-29.0254 155.412,-17.9905 216.151,-13.6489"/>
<polygon fill="midnightblue" stroke="midnightblue" points="276.271,-115.293 286.669,-113.262 277.274,-108.365 276.271,-115.293"/>
</g>
<!-- Node6 -->
<g id="node6" class="node"><title>Node6</title>
<g id="a_node6"><a xlink:href="tree__spec_8h.html" target="_top" xlink:title="spec/tree_spec.h">
<polygon fill="white" stroke="black" points="46.2706,-56.5 46.2706,-75.5 138.271,-75.5 138.271,-56.5 46.2706,-56.5"/>
<text text-anchor="middle" x="92.2706" y="-63.5" font-family="Helvetica,sans-Serif" font-size="10.00">spec/tree_spec.h</text>
</a>
</g>
</g>
<!-- Node5&#45;&gt;Node6 -->
<g id="edge5" class="edge"><title>Node5&#45;&gt;Node6</title>
<path fill="none" stroke="midnightblue" d="M291.045,-110.281C244.18,-100.077 174.571,-84.9203 131.383,-75.5164"/>
<polygon fill="midnightblue" stroke="midnightblue" points="290.458,-113.736 300.974,-112.444 291.948,-106.896 290.458,-113.736"/>
</g>
<!-- Node7 -->
<g id="node7" class="node"><title>Node7</title>
<g id="a_node7"><a xlink:href="mtree__spec_8h.html" target="_top" xlink:title="spec/mtree_spec.h">
<polygon fill="white" stroke="black" points="156.271,-56.5 156.271,-75.5 256.271,-75.5 256.271,-56.5 156.271,-56.5"/>
<text text-anchor="middle" x="206.271" y="-63.5" font-family="Helvetica,sans-Serif" font-size="10.00">spec/mtree_spec.h</text>
</a>
</g>
</g>
<!-- Node5&#45;&gt;Node7 -->
<g id="edge7" class="edge"><title>Node5&#45;&gt;Node7</title>
<path fill="none" stroke="midnightblue" d="M309.594,-108.638C284.447,-98.504 249.516,-84.4274 227.404,-75.5164"/>
<polygon fill="midnightblue" stroke="midnightblue" points="308.454,-111.952 319.038,-112.444 311.071,-105.459 308.454,-111.952"/>
</g>
<!-- Node5&#45;&gt;Node8 -->
<g id="edge9" class="edge"><title>Node5&#45;&gt;Node8</title>
<path fill="none" stroke="midnightblue" d="M367.751,-108.096C389.236,-98.0073 418.492,-84.2697 437.134,-75.5164"/>
<polygon fill="midnightblue" stroke="midnightblue" points="366.057,-105.025 358.493,-112.444 369.032,-111.361 366.057,-105.025"/>
</g>
<!-- Node5&#45;&gt;Node9 -->
<g id="edge11" class="edge"><title>Node5&#45;&gt;Node9</title>
<path fill="none" stroke="midnightblue" d="M388.793,-110.217C434.71,-100.013 502.718,-84.9006 544.947,-75.5164"/>
<polygon fill="midnightblue" stroke="midnightblue" points="387.777,-106.858 378.775,-112.444 389.296,-113.691 387.777,-106.858"/>
</g>
<!-- Node10 -->
<g id="node10" class="node"><title>Node10</title>
<g id="a_node10"><a xlink:href="vmhost__spec_8h.html" target="_top" xlink:title="spec/vmhost_spec.h">
<polygon fill="white" stroke="black" points="274.771,-56.5 274.771,-75.5 381.771,-75.5 381.771,-56.5 274.771,-56.5"/>
<text text-anchor="middle" x="328.271" y="-63.5" font-family="Helvetica,sans-Serif" font-size="10.00">spec/vmhost_spec.h</text>
</a>
</g>
</g>
<!-- Node5&#45;&gt;Node10 -->
<g id="edge13" class="edge"><title>Node5&#45;&gt;Node10</title>
<path fill="none" stroke="midnightblue" d="M336.071,-102.101C334.079,-93.1357 331.795,-82.8579 330.215,-75.7511"/>
<polygon fill="midnightblue" stroke="midnightblue" points="332.703,-103.08 338.289,-112.083 339.536,-101.562 332.703,-103.08"/>
</g>
<!-- Node6&#45;&gt;Node4 -->
<g id="edge6" class="edge"><title>Node6&#45;&gt;Node4</title>
<path fill="none" stroke="midnightblue" d="M129.745,-53.4363C162.74,-43.2551 210.026,-28.664 239.671,-19.5164"/>
<polygon fill="midnightblue" stroke="midnightblue" points="128.523,-50.1505 120,-56.4435 130.587,-56.8393 128.523,-50.1505"/>
</g>
<!-- Node7&#45;&gt;Node4 -->
<g id="edge8" class="edge"><title>Node7&#45;&gt;Node4</title>
<path fill="none" stroke="midnightblue" d="M223.738,-49.5372C234.614,-39.9087 248.214,-27.8694 257.292,-19.8339"/>
<polygon fill="midnightblue" stroke="midnightblue" points="221.239,-47.0749 216.071,-56.324 225.879,-52.3162 221.239,-47.0749"/>
</g>
<!-- Node8&#45;&gt;Node4 -->
<g id="edge10" class="edge"><title>Node8&#45;&gt;Node4</title>
<path fill="none" stroke="midnightblue" d="M415.469,-53.5677C380.004,-43.381 328.905,-28.7034 296.92,-19.5164"/>
<polygon fill="midnightblue" stroke="midnightblue" points="414.904,-57.0467 425.481,-56.4435 416.836,-50.3188 414.904,-57.0467"/>
</g>
<!-- Node9&#45;&gt;Node4 -->
<g id="edge12" class="edge"><title>Node9&#45;&gt;Node4</title>
<path fill="none" stroke="midnightblue" d="M523.157,-54.7275C463.442,-44.523 372.945,-29.0583 317.107,-19.5164"/>
<polygon fill="midnightblue" stroke="midnightblue" points="522.753,-58.209 533.199,-56.4435 523.932,-51.309 522.753,-58.209"/>
</g>
<!-- Node10&#45;&gt;Node4 -->
<g id="edge14" class="edge"><title>Node10&#45;&gt;Node4</title>
<path fill="none" stroke="midnightblue" d="M310.803,-49.5372C299.927,-39.9087 286.327,-27.8694 277.25,-19.8339"/>
<polygon fill="midnightblue" stroke="midnightblue" points="308.662,-52.3162 318.47,-56.324 313.302,-47.0749 308.662,-52.3162"/>
</g>
<!-- Node11&#45;&gt;Node4 -->
<g id="edge19" class="edge"><title>Node11&#45;&gt;Node4</title>
<path fill="none" stroke="midnightblue" d="M597.836,-109.078C629.987,-97.4258 667.023,-78.2297 647.271,-56 625.786,-31.8214 417.073,-18.3874 318.43,-13.3431"/>
<polygon fill="midnightblue" stroke="midnightblue" points="596.393,-105.874 588.083,-112.447 598.678,-112.49 596.393,-105.874"/>
</g>
</g>
</svg>
