<?xml version="1.0" encoding="UTF-8" standalone="no"?>
<!DOCTYPE svg PUBLIC "-//W3C//DTD SVG 1.1//EN"
 "http://www.w3.org/Graphics/SVG/1.1/DTD/svg11.dtd">
<!-- Generated by graphviz version 2.38.0 (20140413.2041)
 -->
<!-- Title: spec/stream_spec.h Pages: 1 -->
<svg width="803pt" height="420pt"
 viewBox="0.00 0.00 803.00 420.00" xmlns="http://www.w3.org/2000/svg" xmlns:xlink="http://www.w3.org/1999/xlink">
<g id="graph0" class="graph" transform="scale(1 1) rotate(0) translate(4 416)">
<title>spec/stream_spec.h</title>
<polygon fill="white" stroke="none" points="-4,4 -4,-416 799.002,-416 799.002,4 -4,4"/>
<!-- Node1 -->
<g id="node1" class="node"><title>Node1</title>
<polygon fill="#bfbfbf" stroke="black" points="527.5,-392.5 527.5,-411.5 632.5,-411.5 632.5,-392.5 527.5,-392.5"/>
<text text-anchor="middle" x="580" y="-399.5" font-family="Helvetica,sans-Serif" font-size="10.00">spec/stream_spec.h</text>
</g>
<!-- Node2 -->
<g id="node2" class="node"><title>Node2</title>
<g id="a_node2"><a xlink:href="ceptr_8h_source.html" target="_top" xlink:title="../src/ceptr.h">
<polygon fill="white" stroke="black" points="480,-336.5 480,-355.5 552,-355.5 552,-336.5 480,-336.5"/>
<text text-anchor="middle" x="516" y="-343.5" font-family="Helvetica,sans-Serif" font-size="10.00">../src/ceptr.h</text>
</a>
</g>
</g>
<!-- Node1&#45;&gt;Node2 -->
<g id="edge1" class="edge"><title>Node1&#45;&gt;Node2</title>
<path fill="none" stroke="midnightblue" d="M569.717,-392.324C560.164,-384.263 545.72,-372.077 534.216,-362.369"/>
<polygon fill="midnightblue" stroke="midnightblue" points="536.37,-359.608 526.47,-355.834 531.856,-364.958 536.37,-359.608"/>
</g>
<!-- Node19 -->
<g id="node19" class="node"><title>Node19</title>
<g id="a_node19"><a xlink:href="stream_8h.html" target="_top" xlink:title="streams abstraction header file ">
<polygon fill="white" stroke="black" points="532.5,-224.5 532.5,-243.5 587.5,-243.5 587.5,-224.5 532.5,-224.5"/>
<text text-anchor="middle" x="560" y="-231.5" font-family="Helvetica,sans-Serif" font-size="10.00">stream.h</text>
</a>
</g>
</g>
<!-- Node1&#45;&gt;Node19 -->
<g id="edge44" class="edge"><title>Node1&#45;&gt;Node19</title>
<path fill="none" stroke="midnightblue" d="M578.925,-392.075C575.777,-365.945 566.531,-289.211 562.238,-253.577"/>
<polygon fill="midnightblue" stroke="midnightblue" points="565.703,-253.078 561.032,-243.568 558.754,-253.915 565.703,-253.078"/>
</g>
<!-- Node26 -->
<g id="node26" class="node"><title>Node26</title>
<polygon fill="white" stroke="#bfbfbf" points="608.5,-336.5 608.5,-355.5 659.5,-355.5 659.5,-336.5 608.5,-336.5"/>
<text text-anchor="middle" x="634" y="-343.5" font-family="Helvetica,sans-Serif" font-size="10.00">unistd.h</text>
</g>
<!-- Node1&#45;&gt;Node26 -->
<g id="edge45" class="edge"><title>Node1&#45;&gt;Node26</title>
<path fill="none" stroke="midnightblue" d="M588.917,-392.083C596.78,-384.22 608.431,-372.569 617.919,-363.081"/>
<polygon fill="midnightblue" stroke="midnightblue" points="620.653,-365.297 625.249,-355.751 615.703,-360.347 620.653,-365.297"/>
</g>
<!-- Node3 -->
<g id="node3" class="node"><title>Node3</title>
<polygon fill="white" stroke="#bfbfbf" points="360.5,-0.5 360.5,-19.5 409.5,-19.5 409.5,-0.5 360.5,-0.5"/>
<text text-anchor="middle" x="385" y="-7.5" font-family="Helvetica,sans-Serif" font-size="10.00">string.h</text>
</g>
<!-- Node2&#45;&gt;Node3 -->
<g id="edge2" class="edge"><title>Node2&#45;&gt;Node3</title>
<path fill="none" stroke="midnightblue" d="M552.263,-339.675C604.06,-331.659 696.261,-315.747 726,-300 762.948,-280.436 794,-276.808 794,-235 794,-235 794,-235 794,-121 794,-90.9022 798.008,-75.4043 775,-56 721.788,-11.1214 505.198,-9.21114 419.828,-10.272"/>
<polygon fill="midnightblue" stroke="midnightblue" points="419.565,-6.77538 409.617,-10.4213 419.667,-13.7746 419.565,-6.77538"/>
</g>
<!-- Node4 -->
<g id="node4" class="node"><title>Node4</title>
<polygon fill="white" stroke="#bfbfbf" points="522,-56.5 522,-75.5 568,-75.5 568,-56.5 522,-56.5"/>
<text text-anchor="middle" x="545" y="-63.5" font-family="Helvetica,sans-Serif" font-size="10.00">stdio.h</text>
</g>
<!-- Node2&#45;&gt;Node4 -->
<g id="edge3" class="edge"><title>Node2&#45;&gt;Node4</title>
<path fill="none" stroke="midnightblue" d="M533.303,-336.455C562.404,-320.722 618,-284.223 618,-235 618,-235 618,-235 618,-177 618,-137.776 585.377,-101.836 563.747,-82.3184"/>
<polygon fill="midnightblue" stroke="midnightblue" points="565.933,-79.5813 556.087,-75.6696 561.345,-84.8678 565.933,-79.5813"/>
</g>
<!-- Node5 -->
<g id="node5" class="node"><title>Node5</title>
<polygon fill="white" stroke="#bfbfbf" points="20,-0.5 20,-19.5 68,-19.5 68,-0.5 20,-0.5"/>
<text text-anchor="middle" x="44" y="-7.5" font-family="Helvetica,sans-Serif" font-size="10.00">stdlib.h</text>
</g>
<!-- Node2&#45;&gt;Node5 -->
<g id="edge4" class="edge"><title>Node2&#45;&gt;Node5</title>
<path fill="none" stroke="midnightblue" d="M479.716,-345.01C362.263,-344.077 0,-333.237 0,-235 0,-235 0,-235 0,-121 0,-86.0403 19.3959,-49.013 32.4323,-28.0745"/>
<polygon fill="midnightblue" stroke="midnightblue" points="35.3884,-29.9487 37.882,-19.6515 29.5112,-26.1462 35.3884,-29.9487"/>
</g>
<!-- Node6 -->
<g id="node6" class="node"><title>Node6</title>
<g id="a_node6"><a xlink:href="ceptr__error_8h_source.html" target="_top" xlink:title="ceptr_error.h">
<polygon fill="white" stroke="black" points="366.5,-168.5 366.5,-187.5 437.5,-187.5 437.5,-168.5 366.5,-168.5"/>
<text text-anchor="middle" x="402" y="-175.5" font-family="Helvetica,sans-Serif" font-size="10.00">ceptr_error.h</text>
</a>
</g>
</g>
<!-- Node2&#45;&gt;Node6 -->
<g id="edge5" class="edge"><title>Node2&#45;&gt;Node6</title>
<path fill="none" stroke="midnightblue" d="M509.871,-336.075C491.693,-309.606 437.854,-231.209 413.819,-196.21"/>
<polygon fill="midnightblue" stroke="midnightblue" points="416.43,-193.83 407.884,-187.568 410.66,-197.793 416.43,-193.83"/>
</g>
<!-- Node10 -->
<g id="node10" class="node"><title>Node10</title>
<g id="a_node10"><a xlink:href="tree_8h.html" target="_top" xlink:title="semantic trees header file ">
<polygon fill="white" stroke="black" points="336.5,-280.5 336.5,-299.5 377.5,-299.5 377.5,-280.5 336.5,-280.5"/>
<text text-anchor="middle" x="357" y="-287.5" font-family="Helvetica,sans-Serif" font-size="10.00">tree.h</text>
</a>
</g>
</g>
<!-- Node2&#45;&gt;Node10 -->
<g id="edge10" class="edge"><title>Node2&#45;&gt;Node10</title>
<path fill="none" stroke="midnightblue" d="M490.806,-336.444C462.641,-326.878 417.058,-311.397 387.055,-301.207"/>
<polygon fill="midnightblue" stroke="midnightblue" points="388.12,-297.873 377.526,-297.971 385.869,-304.501 388.12,-297.873"/>
</g>
<!-- Node2&#45;&gt;Node19 -->
<g id="edge36" class="edge"><title>Node2&#45;&gt;Node19</title>
<path fill="none" stroke="midnightblue" d="M519.453,-336.368C526.617,-318.456 543.231,-276.923 552.821,-252.948"/>
<polygon fill="midnightblue" stroke="midnightblue" points="556.099,-254.176 556.563,-243.591 549.6,-251.576 556.099,-254.176"/>
</g>
<!-- Node21 -->
<g id="node21" class="node"><title>Node21</title>
<g id="a_node21"><a xlink:href="mtree_8h.html" target="_top" xlink:title="semantic tree matrix header file `` ">
<polygon fill="white" stroke="black" points="132,-224.5 132,-243.5 182,-243.5 182,-224.5 132,-224.5"/>
<text text-anchor="middle" x="157" y="-231.5" font-family="Helvetica,sans-Serif" font-size="10.00">mtree.h</text>
</a>
</g>
</g>
<!-- Node2&#45;&gt;Node21 -->
<g id="edge30" class="edge"><title>Node2&#45;&gt;Node21</title>
<path fill="none" stroke="midnightblue" d="M479.739,-337.847C441.409,-329.943 379.371,-316.17 327,-300 276.793,-284.498 220.078,-261.708 186.497,-247.639"/>
<polygon fill="midnightblue" stroke="midnightblue" points="187.425,-244.232 176.851,-243.571 184.705,-250.682 187.425,-244.232"/>
</g>
<!-- Node22 -->
<g id="node22" class="node"><title>Node22</title>
<g id="a_node22"><a xlink:href="util_8h.html" target="_top" xlink:title="util.h">
<polygon fill="white" stroke="black" points="684,-112.5 684,-131.5 722,-131.5 722,-112.5 684,-112.5"/>
<text text-anchor="middle" x="703" y="-119.5" font-family="Helvetica,sans-Serif" font-size="10.00">util.h</text>
</a>
</g>
</g>
<!-- Node2&#45;&gt;Node22 -->
<g id="edge37" class="edge"><title>Node2&#45;&gt;Node22</title>
<path fill="none" stroke="midnightblue" d="M552.119,-341.694C601.787,-336.316 687.181,-323.797 706,-300 742.813,-253.45 722.383,-176.417 710.121,-141.374"/>
<polygon fill="midnightblue" stroke="midnightblue" points="713.249,-139.739 706.51,-131.564 706.68,-142.157 713.249,-139.739"/>
</g>
<!-- Node25 -->
<g id="node25" class="node"><title>Node25</title>
<g id="a_node25"><a xlink:href="debug_8h.html" target="_top" xlink:title="debug.h">
<polygon fill="white" stroke="black" points="646.5,-280.5 646.5,-299.5 697.5,-299.5 697.5,-280.5 646.5,-280.5"/>
<text text-anchor="middle" x="672" y="-287.5" font-family="Helvetica,sans-Serif" font-size="10.00">debug.h</text>
</a>
</g>
</g>
<!-- Node2&#45;&gt;Node25 -->
<g id="edge42" class="edge"><title>Node2&#45;&gt;Node25</title>
<path fill="none" stroke="midnightblue" d="M540.719,-336.444C566.848,-327.399 608.259,-313.064 637.576,-302.916"/>
<polygon fill="midnightblue" stroke="midnightblue" points="639.092,-306.095 647.397,-299.516 636.802,-299.48 639.092,-306.095"/>
</g>
<!-- Node6&#45;&gt;Node4 -->
<g id="edge6" class="edge"><title>Node6&#45;&gt;Node4</title>
<path fill="none" stroke="midnightblue" d="M413.221,-168.368C437.551,-149.653 495.404,-105.151 525.718,-81.8324"/>
<polygon fill="midnightblue" stroke="midnightblue" points="528.039,-84.4628 533.831,-75.5914 523.771,-78.9144 528.039,-84.4628"/>
</g>
<!-- Node7 -->
<g id="node7" class="node"><title>Node7</title>
<polygon fill="white" stroke="#bfbfbf" points="378,-112.5 378,-131.5 428,-131.5 428,-112.5 378,-112.5"/>
<text text-anchor="middle" x="403" y="-119.5" font-family="Helvetica,sans-Serif" font-size="10.00">signal.h</text>
</g>
<!-- Node6&#45;&gt;Node7 -->
<g id="edge7" class="edge"><title>Node6&#45;&gt;Node7</title>
<path fill="none" stroke="midnightblue" d="M402.165,-168.083C402.296,-161.006 402.484,-150.861 402.648,-141.986"/>
<polygon fill="midnightblue" stroke="midnightblue" points="406.152,-141.814 402.838,-131.751 399.153,-141.685 406.152,-141.814"/>
</g>
<!-- Node8 -->
<g id="node8" class="node"><title>Node8</title>
<polygon fill="white" stroke="#bfbfbf" points="236,-112.5 236,-131.5 288,-131.5 288,-112.5 236,-112.5"/>
<text text-anchor="middle" x="262" y="-119.5" font-family="Helvetica,sans-Serif" font-size="10.00">assert.h</text>
</g>
<!-- Node6&#45;&gt;Node8 -->
<g id="edge8" class="edge"><title>Node6&#45;&gt;Node8</title>
<path fill="none" stroke="midnightblue" d="M379.817,-168.444C356.572,-159.478 319.851,-145.314 293.585,-135.183"/>
<polygon fill="midnightblue" stroke="midnightblue" points="294.669,-131.85 284.08,-131.516 292.15,-138.381 294.669,-131.85"/>
</g>
<!-- Node9 -->
<g id="node9" class="node"><title>Node9</title>
<polygon fill="white" stroke="#bfbfbf" points="306,-112.5 306,-131.5 360,-131.5 360,-112.5 306,-112.5"/>
<text text-anchor="middle" x="333" y="-119.5" font-family="Helvetica,sans-Serif" font-size="10.00">setjmp.h</text>
</g>
<!-- Node6&#45;&gt;Node9 -->
<g id="edge9" class="edge"><title>Node6&#45;&gt;Node9</title>
<path fill="none" stroke="midnightblue" d="M390.914,-168.324C380.514,-160.185 364.739,-147.839 352.278,-138.087"/>
<polygon fill="midnightblue" stroke="midnightblue" points="354.32,-135.241 344.288,-131.834 350.006,-140.753 354.32,-135.241"/>
</g>
<!-- Node10&#45;&gt;Node3 -->
<g id="edge11" class="edge"><title>Node10&#45;&gt;Node3</title>
<path fill="none" stroke="midnightblue" d="M368.89,-280.358C389.32,-264.68 430.391,-229.322 446,-188 468.057,-129.607 422.693,-59.2162 398.65,-27.6889"/>
<polygon fill="midnightblue" stroke="midnightblue" points="401.172,-25.2337 392.238,-19.5375 395.67,-29.5613 401.172,-25.2337"/>
</g>
<!-- Node10&#45;&gt;Node5 -->
<g id="edge12" class="edge"><title>Node10&#45;&gt;Node5</title>
<path fill="none" stroke="midnightblue" d="M336.335,-288.191C294.35,-285.881 196.801,-277.083 123,-244 79.6032,-224.546 38,-226.558 38,-179 38,-179 38,-179 38,-121 38,-88.9004 40.5789,-51.6098 42.3553,-29.7319"/>
<polygon fill="midnightblue" stroke="midnightblue" points="45.8612,-29.8083 43.2156,-19.5491 38.886,-29.2189 45.8612,-29.8083"/>
</g>
<!-- Node10&#45;&gt;Node6 -->
<g id="edge13" class="edge"><title>Node10&#45;&gt;Node6</title>
<path fill="none" stroke="midnightblue" d="M360.531,-280.368C367.859,-262.456 384.85,-220.923 394.658,-196.948"/>
<polygon fill="midnightblue" stroke="midnightblue" points="397.938,-198.172 398.485,-187.591 391.46,-195.522 397.938,-198.172"/>
</g>
<!-- Node11 -->
<g id="node11" class="node"><title>Node11</title>
<g id="a_node11"><a xlink:href="sys__defs_8h.html" target="_top" xlink:title="Defines types and vars for system defined semantics. ">
<polygon fill="white" stroke="black" points="184.5,-168.5 184.5,-187.5 249.5,-187.5 249.5,-168.5 184.5,-168.5"/>
<text text-anchor="middle" x="217" y="-175.5" font-family="Helvetica,sans-Serif" font-size="10.00">sys_defs.h</text>
</a>
</g>
</g>
<!-- Node10&#45;&gt;Node11 -->
<g id="edge14" class="edge"><title>Node10&#45;&gt;Node11</title>
<path fill="none" stroke="midnightblue" d="M336.153,-287.62C307.964,-284.59 258.109,-274.911 231,-244 219.949,-231.399 216.93,-212.184 216.387,-197.91"/>
<polygon fill="midnightblue" stroke="midnightblue" points="219.887,-197.739 216.376,-187.743 212.887,-197.747 219.887,-197.739"/>
</g>
<!-- Node12 -->
<g id="node12" class="node"><title>Node12</title>
<g id="a_node12"><a xlink:href="ceptr__types_8h_source.html" target="_top" xlink:title="ceptr_types.h">
<polygon fill="white" stroke="black" points="142,-112.5 142,-131.5 218,-131.5 218,-112.5 142,-112.5"/>
<text text-anchor="middle" x="180" y="-119.5" font-family="Helvetica,sans-Serif" font-size="10.00">ceptr_types.h</text>
</a>
</g>
</g>
<!-- Node10&#45;&gt;Node12 -->
<g id="edge26" class="edge"><title>Node10&#45;&gt;Node12</title>
<path fill="none" stroke="midnightblue" d="M353.053,-280.489C346.839,-267.56 333.933,-242.52 319,-224 295.899,-195.35 287.673,-189.771 258,-168 241.716,-156.053 222.004,-144.704 206.47,-136.392"/>
<polygon fill="midnightblue" stroke="midnightblue" points="207.887,-133.182 197.406,-131.631 204.631,-139.38 207.887,-133.182"/>
</g>
<!-- Node18 -->
<g id="node18" class="node"><title>Node18</title>
<g id="a_node18"><a xlink:href="base__defs_8h.html" target="_top" xlink:title="auto&#45;generated system definitions ">
<polygon fill="white" stroke="black" points="240,-224.5 240,-243.5 310,-243.5 310,-224.5 240,-224.5"/>
<text text-anchor="middle" x="275" y="-231.5" font-family="Helvetica,sans-Serif" font-size="10.00">base_defs.h</text>
</a>
</g>
</g>
<!-- Node10&#45;&gt;Node18 -->
<g id="edge24" class="edge"><title>Node10&#45;&gt;Node18</title>
<path fill="none" stroke="midnightblue" d="M343.825,-280.324C331.153,-271.979 311.767,-259.212 296.794,-249.352"/>
<polygon fill="midnightblue" stroke="midnightblue" points="298.419,-246.231 288.142,-243.655 294.569,-252.078 298.419,-246.231"/>
</g>
<!-- Node10&#45;&gt;Node19 -->
<g id="edge27" class="edge"><title>Node10&#45;&gt;Node19</title>
<path fill="none" stroke="midnightblue" d="M377.582,-283.525C411.549,-274.489 479.826,-256.327 522.534,-244.966"/>
<polygon fill="midnightblue" stroke="midnightblue" points="523.518,-248.326 532.282,-242.373 521.719,-241.562 523.518,-248.326"/>
</g>
<!-- Node11&#45;&gt;Node12 -->
<g id="edge15" class="edge"><title>Node11&#45;&gt;Node12</title>
<path fill="none" stroke="midnightblue" d="M210.89,-168.083C205.718,-160.534 198.154,-149.495 191.806,-140.23"/>
<polygon fill="midnightblue" stroke="midnightblue" points="194.536,-138.022 185.996,-131.751 188.761,-141.979 194.536,-138.022"/>
</g>
<!-- Node12&#45;&gt;Node4 -->
<g id="edge17" class="edge"><title>Node12&#45;&gt;Node4</title>
<path fill="none" stroke="midnightblue" d="M218.192,-113.526C221.169,-112.992 224.132,-112.477 227,-112 330.559,-94.768 453.801,-78.5419 511.756,-71.1632"/>
<polygon fill="midnightblue" stroke="midnightblue" points="512.318,-74.6201 521.799,-69.8902 511.438,-67.6757 512.318,-74.6201"/>
</g>
<!-- Node13 -->
<g id="node13" class="node"><title>Node13</title>
<polygon fill="white" stroke="#bfbfbf" points="586.5,-56.5 586.5,-75.5 635.5,-75.5 635.5,-56.5 586.5,-56.5"/>
<text text-anchor="middle" x="611" y="-63.5" font-family="Helvetica,sans-Serif" font-size="10.00">stdint.h</text>
</g>
<!-- Node12&#45;&gt;Node13 -->
<g id="edge16" class="edge"><title>Node12&#45;&gt;Node13</title>
<path fill="none" stroke="midnightblue" d="M218.173,-113.404C221.154,-112.898 224.123,-112.423 227,-112 378.543,-89.7397 421.42,-103.501 576.339,-75.8318"/>
<polygon fill="midnightblue" stroke="midnightblue" points="577.004,-79.2683 586.219,-74.0387 575.754,-72.3808 577.004,-79.2683"/>
</g>
<!-- Node14 -->
<g id="node14" class="node"><title>Node14</title>
<g id="a_node14"><a xlink:href="uthash_8h_source.html" target="_top" xlink:title="uthash.h">
<polygon fill="white" stroke="black" points="104,-56.5 104,-75.5 158,-75.5 158,-56.5 104,-56.5"/>
<text text-anchor="middle" x="131" y="-63.5" font-family="Helvetica,sans-Serif" font-size="10.00">uthash.h</text>
</a>
</g>
</g>
<!-- Node12&#45;&gt;Node14 -->
<g id="edge18" class="edge"><title>Node12&#45;&gt;Node14</title>
<path fill="none" stroke="midnightblue" d="M171.909,-112.083C164.845,-104.298 154.412,-92.8015 145.851,-83.3665"/>
<polygon fill="midnightblue" stroke="midnightblue" points="148.253,-80.8047 138.941,-75.7511 143.069,-85.5087 148.253,-80.8047"/>
</g>
<!-- Node17 -->
<g id="node17" class="node"><title>Node17</title>
<polygon fill="white" stroke="#bfbfbf" points="214,-56.5 214,-75.5 270,-75.5 270,-56.5 214,-56.5"/>
<text text-anchor="middle" x="242" y="-63.5" font-family="Helvetica,sans-Serif" font-size="10.00">stdbool.h</text>
</g>
<!-- Node12&#45;&gt;Node17 -->
<g id="edge23" class="edge"><title>Node12&#45;&gt;Node17</title>
<path fill="none" stroke="midnightblue" d="M189.961,-112.324C199.127,-104.341 212.937,-92.3128 224.028,-82.6529"/>
<polygon fill="midnightblue" stroke="midnightblue" points="226.615,-85.041 231.857,-75.8339 222.018,-79.7624 226.615,-85.041"/>
</g>
<!-- Node14&#45;&gt;Node3 -->
<g id="edge19" class="edge"><title>Node14&#45;&gt;Node3</title>
<path fill="none" stroke="midnightblue" d="M158.341,-58.967C162.901,-57.9698 167.583,-56.9514 172,-56 234.844,-42.4644 308.204,-27.0507 350.366,-18.2295"/>
<polygon fill="midnightblue" stroke="midnightblue" points="351.316,-21.6067 360.388,-16.134 349.883,-14.7549 351.316,-21.6067"/>
</g>
<!-- Node14&#45;&gt;Node5 -->
<g id="edge21" class="edge"><title>Node14&#45;&gt;Node5</title>
<path fill="none" stroke="midnightblue" d="M117.022,-56.324C103.45,-47.9002 82.6198,-34.9709 66.675,-25.0741"/>
<polygon fill="midnightblue" stroke="midnightblue" points="68.2856,-21.9544 57.9434,-19.6545 64.594,-27.9019 68.2856,-21.9544"/>
</g>
<!-- Node15 -->
<g id="node15" class="node"><title>Node15</title>
<polygon fill="white" stroke="#bfbfbf" points="98,-0.5 98,-19.5 150,-19.5 150,-0.5 98,-0.5"/>
<text text-anchor="middle" x="124" y="-7.5" font-family="Helvetica,sans-Serif" font-size="10.00">stddef.h</text>
</g>
<!-- Node14&#45;&gt;Node15 -->
<g id="edge20" class="edge"><title>Node14&#45;&gt;Node15</title>
<path fill="none" stroke="midnightblue" d="M129.844,-56.083C128.916,-48.9272 127.582,-38.6353 126.423,-29.6911"/>
<polygon fill="midnightblue" stroke="midnightblue" points="129.891,-29.2181 125.134,-19.7511 122.949,-30.1181 129.891,-29.2181"/>
</g>
<!-- Node16 -->
<g id="node16" class="node"><title>Node16</title>
<polygon fill="white" stroke="#bfbfbf" points="168.5,-0.5 168.5,-19.5 227.5,-19.5 227.5,-0.5 168.5,-0.5"/>
<text text-anchor="middle" x="198" y="-7.5" font-family="Helvetica,sans-Serif" font-size="10.00">inttypes.h</text>
</g>
<!-- Node14&#45;&gt;Node16 -->
<g id="edge22" class="edge"><title>Node14&#45;&gt;Node16</title>
<path fill="none" stroke="midnightblue" d="M141.765,-56.324C151.766,-48.2631 166.887,-36.0765 178.93,-26.3695"/>
<polygon fill="midnightblue" stroke="midnightblue" points="181.45,-28.8343 187.039,-19.8339 177.057,-23.3841 181.45,-28.8343"/>
</g>
<!-- Node18&#45;&gt;Node11 -->
<g id="edge25" class="edge"><title>Node18&#45;&gt;Node11</title>
<path fill="none" stroke="midnightblue" d="M265.681,-224.324C257.107,-216.341 244.188,-204.313 233.812,-194.653"/>
<polygon fill="midnightblue" stroke="midnightblue" points="236.192,-192.086 226.488,-187.834 231.422,-197.21 236.192,-192.086"/>
</g>
<!-- Node19&#45;&gt;Node4 -->
<g id="edge28" class="edge"><title>Node19&#45;&gt;Node4</title>
<path fill="none" stroke="midnightblue" d="M549.562,-224.245C540.576,-215.969 528.254,-202.663 523,-188 510.389,-152.807 525.32,-109.153 536.017,-85.0739"/>
<polygon fill="midnightblue" stroke="midnightblue" points="539.308,-86.3009 540.385,-75.761 532.97,-83.3284 539.308,-86.3009"/>
</g>
<!-- Node20 -->
<g id="node20" class="node"><title>Node20</title>
<polygon fill="white" stroke="#bfbfbf" points="532.5,-168.5 532.5,-187.5 589.5,-187.5 589.5,-168.5 532.5,-168.5"/>
<text text-anchor="middle" x="561" y="-175.5" font-family="Helvetica,sans-Serif" font-size="10.00">pthread.h</text>
</g>
<!-- Node19&#45;&gt;Node20 -->
<g id="edge29" class="edge"><title>Node19&#45;&gt;Node20</title>
<path fill="none" stroke="midnightblue" d="M560.165,-224.083C560.296,-217.006 560.484,-206.861 560.648,-197.986"/>
<polygon fill="midnightblue" stroke="midnightblue" points="564.152,-197.814 560.838,-187.751 557.153,-197.685 564.152,-197.814"/>
</g>
<!-- Node21&#45;&gt;Node3 -->
<g id="edge31" class="edge"><title>Node21&#45;&gt;Node3</title>
<path fill="none" stroke="midnightblue" d="M151.71,-224.307C139.924,-203.732 113.993,-150.862 133,-112 141.906,-93.7913 186.775,-64.8716 205,-56 252.317,-32.9672 312.549,-21.0053 349.942,-15.3644"/>
<polygon fill="midnightblue" stroke="midnightblue" points="350.912,-18.761 360.313,-13.8742 349.917,-11.8322 350.912,-18.761"/>
</g>
<!-- Node21&#45;&gt;Node5 -->
<g id="edge32" class="edge"><title>Node21&#45;&gt;Node5</title>
<path fill="none" stroke="midnightblue" d="M141.56,-224.405C128.707,-216.506 110.82,-203.665 100,-188 81.789,-161.634 58.0833,-69.4435 48.4051,-29.5889"/>
<polygon fill="midnightblue" stroke="midnightblue" points="51.7525,-28.5385 46.0156,-19.6314 44.9458,-30.172 51.7525,-28.5385"/>
</g>
<!-- Node21&#45;&gt;Node6 -->
<g id="edge33" class="edge"><title>Node21&#45;&gt;Node6</title>
<path fill="none" stroke="midnightblue" d="M182.297,-227.424C223.33,-218.38 304.974,-200.385 356.355,-189.06"/>
<polygon fill="midnightblue" stroke="midnightblue" points="357.195,-192.46 366.207,-186.889 355.688,-185.624 357.195,-192.46"/>
</g>
<!-- Node21&#45;&gt;Node11 -->
<g id="edge34" class="edge"><title>Node21&#45;&gt;Node11</title>
<path fill="none" stroke="midnightblue" d="M166.64,-224.324C175.51,-216.341 188.875,-204.313 199.608,-194.653"/>
<polygon fill="midnightblue" stroke="midnightblue" points="202.093,-197.125 207.185,-187.834 197.41,-191.922 202.093,-197.125"/>
</g>
<!-- Node21&#45;&gt;Node12 -->
<g id="edge35" class="edge"><title>Node21&#45;&gt;Node12</title>
<path fill="none" stroke="midnightblue" d="M158.805,-224.368C162.516,-206.617 171.079,-165.666 176.111,-141.597"/>
<polygon fill="midnightblue" stroke="midnightblue" points="179.583,-142.096 178.204,-131.591 172.731,-140.663 179.583,-142.096"/>
</g>
<!-- Node22&#45;&gt;Node4 -->
<g id="edge39" class="edge"><title>Node22&#45;&gt;Node4</title>
<path fill="none" stroke="midnightblue" d="M683.942,-114.486C657.724,-105.526 610.139,-89.2627 578.053,-78.2967"/>
<polygon fill="midnightblue" stroke="midnightblue" points="578.822,-74.8606 568.227,-74.9384 576.558,-81.4845 578.822,-74.8606"/>
</g>
<!-- Node22&#45;&gt;Node13 -->
<g id="edge41" class="edge"><title>Node22&#45;&gt;Node13</title>
<path fill="none" stroke="midnightblue" d="M688.219,-112.324C673.733,-103.822 651.427,-90.7288 634.507,-80.7975"/>
<polygon fill="midnightblue" stroke="midnightblue" points="636.141,-77.6981 625.745,-75.6545 632.597,-83.735 636.141,-77.6981"/>
</g>
<!-- Node23 -->
<g id="node23" class="node"><title>Node23</title>
<polygon fill="white" stroke="#bfbfbf" points="716.5,-56.5 716.5,-75.5 765.5,-75.5 765.5,-56.5 716.5,-56.5"/>
<text text-anchor="middle" x="741" y="-63.5" font-family="Helvetica,sans-Serif" font-size="10.00">ctype.h</text>
</g>
<!-- Node22&#45;&gt;Node23 -->
<g id="edge38" class="edge"><title>Node22&#45;&gt;Node23</title>
<path fill="none" stroke="midnightblue" d="M709.275,-112.083C714.642,-104.455 722.518,-93.2645 729.079,-83.9408"/>
<polygon fill="midnightblue" stroke="midnightblue" points="731.949,-85.9434 734.842,-75.7511 726.225,-81.9149 731.949,-85.9434"/>
</g>
<!-- Node24 -->
<g id="node24" class="node"><title>Node24</title>
<polygon fill="white" stroke="#bfbfbf" points="654,-56.5 654,-75.5 698,-75.5 698,-56.5 654,-56.5"/>
<text text-anchor="middle" x="676" y="-63.5" font-family="Helvetica,sans-Serif" font-size="10.00">time.h</text>
</g>
<!-- Node22&#45;&gt;Node24 -->
<g id="edge40" class="edge"><title>Node22&#45;&gt;Node24</title>
<path fill="none" stroke="midnightblue" d="M698.541,-112.083C694.846,-104.691 689.477,-93.9533 684.906,-84.8111"/>
<polygon fill="midnightblue" stroke="midnightblue" points="687.978,-83.1301 680.376,-75.7511 681.717,-86.2606 687.978,-83.1301"/>
</g>
<!-- Node25&#45;&gt;Node4 -->
<g id="edge43" class="edge"><title>Node25&#45;&gt;Node4</title>
<path fill="none" stroke="midnightblue" d="M672.466,-280.191C673.474,-252.371 673.028,-165.1 632,-112 618.516,-94.5485 596.365,-83.2298 577.79,-76.309"/>
<polygon fill="midnightblue" stroke="midnightblue" points="578.787,-72.9506 568.192,-72.9936 576.502,-79.5669 578.787,-72.9506"/>
</g>
</g>
</svg>
