<?xml version="1.0" encoding="UTF-8" standalone="no"?>
<!DOCTYPE svg PUBLIC "-//W3C//DTD SVG 1.1//EN"
 "http://www.w3.org/Graphics/SVG/1.1/DTD/svg11.dtd">
<!-- Generated by graphviz version 2.38.0 (20140413.2041)
 -->
<!-- Title: src/stream.c Pages: 1 -->
<svg width="938pt" height="476pt"
 viewBox="0.00 0.00 938.00 476.00" xmlns="http://www.w3.org/2000/svg" xmlns:xlink="http://www.w3.org/1999/xlink">
<g id="graph0" class="graph" transform="scale(1 1) rotate(0) translate(4 472)">
<title>src/stream.c</title>
<polygon fill="white" stroke="none" points="-4,4 -4,-472 934,-472 934,4 -4,4"/>
<!-- Node1 -->
<g id="node1" class="node"><title>Node1</title>
<polygon fill="#bfbfbf" stroke="black" points="419.5,-448.5 419.5,-467.5 490.5,-467.5 490.5,-448.5 419.5,-448.5"/>
<text text-anchor="middle" x="455" y="-455.5" font-family="Helvetica,sans-Serif" font-size="10.00">src/stream.c</text>
</g>
<!-- Node2 -->
<g id="node2" class="node"><title>Node2</title>
<g id="a_node2"><a xlink:href="stream_8h.html" target="_top" xlink:title="streams abstraction header file ">
<polygon fill="white" stroke="black" points="212.5,-280.5 212.5,-299.5 267.5,-299.5 267.5,-280.5 212.5,-280.5"/>
<text text-anchor="middle" x="240" y="-287.5" font-family="Helvetica,sans-Serif" font-size="10.00">stream.h</text>
</a>
</g>
</g>
<!-- Node1&#45;&gt;Node2 -->
<g id="edge1" class="edge"><title>Node1&#45;&gt;Node2</title>
<path fill="none" stroke="midnightblue" d="M419.424,-455.183C332.77,-450.394 116.285,-436.111 95,-412 54.6748,-366.32 149.312,-323.196 204.212,-302.99"/>
<polygon fill="midnightblue" stroke="midnightblue" points="205.407,-306.28 213.633,-299.603 203.039,-299.692 205.407,-306.28"/>
</g>
<!-- Node3 -->
<g id="node3" class="node"><title>Node3</title>
<polygon fill="white" stroke="#bfbfbf" points="552,-56.5 552,-75.5 598,-75.5 598,-56.5 552,-56.5"/>
<text text-anchor="middle" x="575" y="-63.5" font-family="Helvetica,sans-Serif" font-size="10.00">stdio.h</text>
</g>
<!-- Node1&#45;&gt;Node3 -->
<g id="edge14" class="edge"><title>Node1&#45;&gt;Node3</title>
<path fill="none" stroke="midnightblue" d="M490.738,-454.896C573.956,-449.632 775.133,-434.67 795,-412 800.859,-405.315 795.176,-400.887 795,-392 794.111,-347.085 791,-335.924 791,-291 791,-291 791,-291 791,-177 791,-96.0138 668.936,-74.6263 608.328,-68.9984"/>
<polygon fill="midnightblue" stroke="midnightblue" points="608.372,-65.49 598.116,-68.1456 607.79,-72.4657 608.372,-65.49"/>
</g>
<!-- Node6 -->
<g id="node6" class="node"><title>Node6</title>
<polygon fill="white" stroke="#bfbfbf" points="52,-0.5 52,-19.5 100,-19.5 100,-0.5 52,-0.5"/>
<text text-anchor="middle" x="76" y="-7.5" font-family="Helvetica,sans-Serif" font-size="10.00">stdlib.h</text>
</g>
<!-- Node1&#45;&gt;Node6 -->
<g id="edge5" class="edge"><title>Node1&#45;&gt;Node6</title>
<path fill="none" stroke="midnightblue" d="M419.23,-456.514C332.554,-454.787 113.809,-446.986 51,-412 18.9211,-394.131 0,-383.72 0,-347 0,-347 0,-347 0,-121 0,-81.2757 33.9641,-45.5045 56.4821,-26.1536"/>
<polygon fill="midnightblue" stroke="midnightblue" points="58.9755,-28.6337 64.4572,-19.5672 54.518,-23.2364 58.9755,-28.6337"/>
</g>
<!-- Node7 -->
<g id="node7" class="node"><title>Node7</title>
<polygon fill="white" stroke="#bfbfbf" points="104.5,-392.5 104.5,-411.5 151.5,-411.5 151.5,-392.5 104.5,-392.5"/>
<text text-anchor="middle" x="128" y="-399.5" font-family="Helvetica,sans-Serif" font-size="10.00">errno.h</text>
</g>
<!-- Node1&#45;&gt;Node7 -->
<g id="edge6" class="edge"><title>Node1&#45;&gt;Node7</title>
<path fill="none" stroke="midnightblue" d="M419.464,-452.894C365.741,-446.396 260.502,-432.543 161.574,-411.901"/>
<polygon fill="midnightblue" stroke="midnightblue" points="162.222,-408.46 151.714,-409.816 160.773,-415.309 162.222,-408.46"/>
</g>
<!-- Node8 -->
<g id="node8" class="node"><title>Node8</title>
<polygon fill="white" stroke="#bfbfbf" points="170,-392.5 170,-411.5 238,-411.5 238,-392.5 170,-392.5"/>
<text text-anchor="middle" x="204" y="-399.5" font-family="Helvetica,sans-Serif" font-size="10.00">sys/types.h</text>
</g>
<!-- Node1&#45;&gt;Node8 -->
<g id="edge7" class="edge"><title>Node1&#45;&gt;Node8</title>
<path fill="none" stroke="midnightblue" d="M419.304,-449.32C374.321,-439.643 297.013,-423.011 248.302,-412.531"/>
<polygon fill="midnightblue" stroke="midnightblue" points="248.876,-409.075 238.364,-410.393 247.404,-415.918 248.876,-409.075"/>
</g>
<!-- Node9 -->
<g id="node9" class="node"><title>Node9</title>
<polygon fill="white" stroke="#bfbfbf" points="256.5,-392.5 256.5,-411.5 329.5,-411.5 329.5,-392.5 256.5,-392.5"/>
<text text-anchor="middle" x="293" y="-399.5" font-family="Helvetica,sans-Serif" font-size="10.00">sys/socket.h</text>
</g>
<!-- Node1&#45;&gt;Node9 -->
<g id="edge8" class="edge"><title>Node1&#45;&gt;Node9</title>
<path fill="none" stroke="midnightblue" d="M429.331,-448.444C402.077,-439.359 358.816,-424.939 328.349,-414.783"/>
<polygon fill="midnightblue" stroke="midnightblue" points="329.143,-411.358 318.549,-411.516 326.929,-417.999 329.143,-411.358"/>
</g>
<!-- Node10 -->
<g id="node10" class="node"><title>Node10</title>
<polygon fill="white" stroke="#bfbfbf" points="347.5,-392.5 347.5,-411.5 412.5,-411.5 412.5,-392.5 347.5,-392.5"/>
<text text-anchor="middle" x="380" y="-399.5" font-family="Helvetica,sans-Serif" font-size="10.00">netinet/in.h</text>
</g>
<!-- Node1&#45;&gt;Node10 -->
<g id="edge9" class="edge"><title>Node1&#45;&gt;Node10</title>
<path fill="none" stroke="midnightblue" d="M442.95,-448.324C431.537,-440.107 414.169,-427.602 400.565,-417.807"/>
<polygon fill="midnightblue" stroke="midnightblue" points="402.43,-414.837 392.269,-411.834 398.34,-420.517 402.43,-414.837"/>
</g>
<!-- Node11 -->
<g id="node11" class="node"><title>Node11</title>
<polygon fill="white" stroke="#bfbfbf" points="430.5,-392.5 430.5,-411.5 479.5,-411.5 479.5,-392.5 430.5,-392.5"/>
<text text-anchor="middle" x="455" y="-399.5" font-family="Helvetica,sans-Serif" font-size="10.00">netdb.h</text>
</g>
<!-- Node1&#45;&gt;Node11 -->
<g id="edge10" class="edge"><title>Node1&#45;&gt;Node11</title>
<path fill="none" stroke="midnightblue" d="M455,-448.083C455,-441.006 455,-430.861 455,-421.986"/>
<polygon fill="midnightblue" stroke="midnightblue" points="458.5,-421.751 455,-411.751 451.5,-421.751 458.5,-421.751"/>
</g>
<!-- Node12 -->
<g id="node12" class="node"><title>Node12</title>
<polygon fill="white" stroke="#bfbfbf" points="498,-392.5 498,-411.5 560,-411.5 560,-392.5 498,-392.5"/>
<text text-anchor="middle" x="529" y="-399.5" font-family="Helvetica,sans-Serif" font-size="10.00">arpa/inet.h</text>
</g>
<!-- Node1&#45;&gt;Node12 -->
<g id="edge11" class="edge"><title>Node1&#45;&gt;Node12</title>
<path fill="none" stroke="midnightblue" d="M466.889,-448.324C478.15,-440.107 495.287,-427.602 508.709,-417.807"/>
<polygon fill="midnightblue" stroke="midnightblue" points="510.88,-420.556 516.894,-411.834 506.753,-414.901 510.88,-420.556"/>
</g>
<!-- Node13 -->
<g id="node13" class="node"><title>Node13</title>
<polygon fill="white" stroke="#bfbfbf" points="578,-392.5 578,-411.5 640,-411.5 640,-392.5 578,-392.5"/>
<text text-anchor="middle" x="609" y="-399.5" font-family="Helvetica,sans-Serif" font-size="10.00">sys/wait.h</text>
</g>
<!-- Node1&#45;&gt;Node13 -->
<g id="edge12" class="edge"><title>Node1&#45;&gt;Node13</title>
<path fill="none" stroke="midnightblue" d="M479.402,-448.444C505.197,-439.399 546.077,-425.064 575.018,-414.916"/>
<polygon fill="midnightblue" stroke="midnightblue" points="576.434,-418.128 584.712,-411.516 574.118,-411.523 576.434,-418.128"/>
</g>
<!-- Node14 -->
<g id="node14" class="node"><title>Node14</title>
<polygon fill="white" stroke="#bfbfbf" points="142,-56.5 142,-75.5 192,-75.5 192,-56.5 142,-56.5"/>
<text text-anchor="middle" x="167" y="-63.5" font-family="Helvetica,sans-Serif" font-size="10.00">signal.h</text>
</g>
<!-- Node1&#45;&gt;Node14 -->
<g id="edge13" class="edge"><title>Node1&#45;&gt;Node14</title>
<path fill="none" stroke="midnightblue" d="M419.415,-456.411C337.467,-454.475 138.166,-446.273 82,-412 52.2211,-393.829 38,-381.885 38,-347 38,-347 38,-347 38,-233 38,-164.36 107.617,-106.984 144.567,-81.3653"/>
<polygon fill="midnightblue" stroke="midnightblue" points="146.859,-84.0408 153.195,-75.5487 142.947,-78.2365 146.859,-84.0408"/>
</g>
<!-- Node15 -->
<g id="node15" class="node"><title>Node15</title>
<polygon fill="white" stroke="#bfbfbf" points="735.5,-392.5 735.5,-411.5 786.5,-411.5 786.5,-392.5 735.5,-392.5"/>
<text text-anchor="middle" x="761" y="-399.5" font-family="Helvetica,sans-Serif" font-size="10.00">unistd.h</text>
</g>
<!-- Node1&#45;&gt;Node15 -->
<g id="edge15" class="edge"><title>Node1&#45;&gt;Node15</title>
<path fill="none" stroke="midnightblue" d="M490.697,-452.085C540.876,-444.955 635.299,-430.734 725.595,-411.92"/>
<polygon fill="midnightblue" stroke="midnightblue" points="726.382,-415.331 735.446,-409.845 724.94,-408.481 726.382,-415.331"/>
</g>
<!-- Node16 -->
<g id="node16" class="node"><title>Node16</title>
<g id="a_node16"><a xlink:href="process_8h.html" target="_top" xlink:title="processing header files ">
<polygon fill="white" stroke="black" points="658.5,-392.5 658.5,-411.5 717.5,-411.5 717.5,-392.5 658.5,-392.5"/>
<text text-anchor="middle" x="688" y="-399.5" font-family="Helvetica,sans-Serif" font-size="10.00">process.h</text>
</a>
</g>
</g>
<!-- Node1&#45;&gt;Node16 -->
<g id="edge16" class="edge"><title>Node1&#45;&gt;Node16</title>
<path fill="none" stroke="midnightblue" d="M490.641,-448.74C533.218,-438.872 604.227,-422.415 648.457,-412.164"/>
<polygon fill="midnightblue" stroke="midnightblue" points="649.328,-415.555 658.28,-409.888 647.748,-408.736 649.328,-415.555"/>
</g>
<!-- Node30 -->
<g id="node30" class="node"><title>Node30</title>
<g id="a_node30"><a xlink:href="debug_8h.html" target="_top" xlink:title="debug.h">
<polygon fill="white" stroke="black" points="819.5,-336.5 819.5,-355.5 870.5,-355.5 870.5,-336.5 819.5,-336.5"/>
<text text-anchor="middle" x="845" y="-343.5" font-family="Helvetica,sans-Serif" font-size="10.00">debug.h</text>
</a>
</g>
</g>
<!-- Node1&#45;&gt;Node30 -->
<g id="edge42" class="edge"><title>Node1&#45;&gt;Node30</title>
<path fill="none" stroke="midnightblue" d="M490.679,-457.676C574.263,-458.502 779.419,-455.89 829,-412 841.898,-400.583 845.224,-380.597 845.738,-365.792"/>
<polygon fill="midnightblue" stroke="midnightblue" points="849.238,-365.693 845.696,-355.708 842.238,-365.723 849.238,-365.693"/>
</g>
<!-- Node31 -->
<g id="node31" class="node"><title>Node31</title>
<g id="a_node31"><a xlink:href="util_8h.html" target="_top" xlink:title="util.h">
<polygon fill="white" stroke="black" points="857,-112.5 857,-131.5 895,-131.5 895,-112.5 857,-112.5"/>
<text text-anchor="middle" x="876" y="-119.5" font-family="Helvetica,sans-Serif" font-size="10.00">util.h</text>
</a>
</g>
</g>
<!-- Node1&#45;&gt;Node31 -->
<g id="edge44" class="edge"><title>Node1&#45;&gt;Node31</title>
<path fill="none" stroke="midnightblue" d="M490.645,-456.488C575.915,-454.707 789.1,-446.799 850,-412 881.411,-394.051 899,-383.178 899,-347 899,-347 899,-347 899,-233 899,-200.12 889.032,-162.86 882.221,-141.235"/>
<polygon fill="midnightblue" stroke="midnightblue" points="885.54,-140.125 879.102,-131.711 878.888,-142.303 885.54,-140.125"/>
</g>
<!-- Node2&#45;&gt;Node3 -->
<g id="edge2" class="edge"><title>Node2&#45;&gt;Node3</title>
<path fill="none" stroke="midnightblue" d="M246.461,-280.105C267.879,-251.268 339.813,-159.488 421,-112 459.292,-89.6021 509.543,-77.656 542.053,-71.826"/>
<polygon fill="midnightblue" stroke="midnightblue" points="542.676,-75.2704 551.947,-70.1425 541.501,-68.3696 542.676,-75.2704"/>
</g>
<!-- Node4 -->
<g id="node4" class="node"><title>Node4</title>
<polygon fill="white" stroke="#bfbfbf" points="154.5,-224.5 154.5,-243.5 211.5,-243.5 211.5,-224.5 154.5,-224.5"/>
<text text-anchor="middle" x="183" y="-231.5" font-family="Helvetica,sans-Serif" font-size="10.00">pthread.h</text>
</g>
<!-- Node2&#45;&gt;Node4 -->
<g id="edge3" class="edge"><title>Node2&#45;&gt;Node4</title>
<path fill="none" stroke="midnightblue" d="M230.842,-280.324C222.499,-272.42 209.968,-260.548 199.823,-250.938"/>
<polygon fill="midnightblue" stroke="midnightblue" points="201.991,-248.171 192.325,-243.834 197.177,-253.252 201.991,-248.171"/>
</g>
<!-- Node5 -->
<g id="node5" class="node"><title>Node5</title>
<polygon fill="white" stroke="#bfbfbf" points="210,-56.5 210,-75.5 266,-75.5 266,-56.5 210,-56.5"/>
<text text-anchor="middle" x="238" y="-63.5" font-family="Helvetica,sans-Serif" font-size="10.00">stdbool.h</text>
</g>
<!-- Node2&#45;&gt;Node5 -->
<g id="edge4" class="edge"><title>Node2&#45;&gt;Node5</title>
<path fill="none" stroke="midnightblue" d="M239.922,-280.297C239.627,-247.633 238.584,-131.866 238.171,-85.9573"/>
<polygon fill="midnightblue" stroke="midnightblue" points="241.67,-85.8518 238.08,-75.8837 234.67,-85.9149 241.67,-85.8518"/>
</g>
<!-- Node17 -->
<g id="node17" class="node"><title>Node17</title>
<g id="a_node17"><a xlink:href="tree_8h.html" target="_top" xlink:title="semantic trees header file ">
<polygon fill="white" stroke="black" points="304.5,-336.5 304.5,-355.5 345.5,-355.5 345.5,-336.5 304.5,-336.5"/>
<text text-anchor="middle" x="325" y="-343.5" font-family="Helvetica,sans-Serif" font-size="10.00">tree.h</text>
</a>
</g>
</g>
<!-- Node16&#45;&gt;Node17 -->
<g id="edge17" class="edge"><title>Node16&#45;&gt;Node17</title>
<path fill="none" stroke="midnightblue" d="M658.246,-393.847C655.132,-393.184 652.007,-392.555 649,-392 541.968,-372.258 413.607,-356.855 355.837,-350.358"/>
<polygon fill="midnightblue" stroke="midnightblue" points="355.898,-346.844 345.572,-349.215 355.122,-353.801 355.898,-346.844"/>
</g>
<!-- Node17&#45;&gt;Node2 -->
<g id="edge41" class="edge"><title>Node17&#45;&gt;Node2</title>
<path fill="none" stroke="midnightblue" d="M311.343,-336.324C298.084,-327.9 277.732,-314.971 262.154,-305.074"/>
<polygon fill="midnightblue" stroke="midnightblue" points="263.94,-302.063 253.623,-299.655 260.187,-307.971 263.94,-302.063"/>
</g>
<!-- Node17&#45;&gt;Node6 -->
<g id="edge19" class="edge"><title>Node17&#45;&gt;Node6</title>
<path fill="none" stroke="midnightblue" d="M304.199,-345.238C244.354,-344.736 76,-334.481 76,-235 76,-235 76,-235 76,-121 76,-88.948 76,-51.6426 76,-29.7489"/>
<polygon fill="midnightblue" stroke="midnightblue" points="79.5001,-29.5577 76,-19.5578 72.5001,-29.5578 79.5001,-29.5577"/>
</g>
<!-- Node18 -->
<g id="node18" class="node"><title>Node18</title>
<polygon fill="white" stroke="#bfbfbf" points="239.5,-0.5 239.5,-19.5 288.5,-19.5 288.5,-0.5 239.5,-0.5"/>
<text text-anchor="middle" x="264" y="-7.5" font-family="Helvetica,sans-Serif" font-size="10.00">string.h</text>
</g>
<!-- Node17&#45;&gt;Node18 -->
<g id="edge18" class="edge"><title>Node17&#45;&gt;Node18</title>
<path fill="none" stroke="midnightblue" d="M304.384,-343.821C251.291,-339.564 114,-320.307 114,-235 114,-235 114,-235 114,-121 114,-90.9022 112.218,-77.7713 133,-56 158.214,-29.5857 199.608,-18.6744 229.115,-14.1683"/>
<polygon fill="midnightblue" stroke="midnightblue" points="229.955,-17.5868 239.397,-12.781 229.019,-10.6497 229.955,-17.5868"/>
</g>
<!-- Node19 -->
<g id="node19" class="node"><title>Node19</title>
<g id="a_node19"><a xlink:href="ceptr__error_8h_source.html" target="_top" xlink:title="ceptr_error.h">
<polygon fill="white" stroke="black" points="270.5,-112.5 270.5,-131.5 341.5,-131.5 341.5,-112.5 270.5,-112.5"/>
<text text-anchor="middle" x="306" y="-119.5" font-family="Helvetica,sans-Serif" font-size="10.00">ceptr_error.h</text>
</a>
</g>
</g>
<!-- Node17&#45;&gt;Node19 -->
<g id="edge20" class="edge"><title>Node17&#45;&gt;Node19</title>
<path fill="none" stroke="midnightblue" d="M324.255,-336.297C321.46,-303.633 311.552,-187.866 307.622,-141.957"/>
<polygon fill="midnightblue" stroke="midnightblue" points="311.1,-141.549 306.76,-131.884 304.126,-142.146 311.1,-141.549"/>
</g>
<!-- Node22 -->
<g id="node22" class="node"><title>Node22</title>
<g id="a_node22"><a xlink:href="sys__defs_8h.html" target="_top" xlink:title="Defines types and vars for system defined semantics. ">
<polygon fill="white" stroke="black" points="374.5,-224.5 374.5,-243.5 439.5,-243.5 439.5,-224.5 374.5,-224.5"/>
<text text-anchor="middle" x="407" y="-231.5" font-family="Helvetica,sans-Serif" font-size="10.00">sys_defs.h</text>
</a>
</g>
</g>
<!-- Node17&#45;&gt;Node22 -->
<g id="edge25" class="edge"><title>Node17&#45;&gt;Node22</title>
<path fill="none" stroke="midnightblue" d="M329.286,-336.162C335.741,-323.243 348.731,-298.708 363,-280 371.016,-269.49 381.281,-258.865 389.88,-250.58"/>
<polygon fill="midnightblue" stroke="midnightblue" points="392.309,-253.1 397.196,-243.7 387.513,-248.001 392.309,-253.1"/>
</g>
<!-- Node23 -->
<g id="node23" class="node"><title>Node23</title>
<g id="a_node23"><a xlink:href="ceptr__types_8h_source.html" target="_top" xlink:title="ceptr_types.h">
<polygon fill="white" stroke="black" points="430,-112.5 430,-131.5 506,-131.5 506,-112.5 430,-112.5"/>
<text text-anchor="middle" x="468" y="-119.5" font-family="Helvetica,sans-Serif" font-size="10.00">ceptr_types.h</text>
</a>
</g>
</g>
<!-- Node17&#45;&gt;Node23 -->
<g id="edge40" class="edge"><title>Node17&#45;&gt;Node23</title>
<path fill="none" stroke="midnightblue" d="M345.68,-343.932C374.147,-341.27 424.847,-332.024 451,-300 488.707,-253.829 479.202,-176.604 472.254,-141.443"/>
<polygon fill="midnightblue" stroke="midnightblue" points="475.663,-140.646 470.152,-131.598 468.818,-142.108 475.663,-140.646"/>
</g>
<!-- Node29 -->
<g id="node29" class="node"><title>Node29</title>
<g id="a_node29"><a xlink:href="base__defs_8h.html" target="_top" xlink:title="auto&#45;generated system definitions ">
<polygon fill="white" stroke="black" points="372,-280.5 372,-299.5 442,-299.5 442,-280.5 372,-280.5"/>
<text text-anchor="middle" x="407" y="-287.5" font-family="Helvetica,sans-Serif" font-size="10.00">base_defs.h</text>
</a>
</g>
</g>
<!-- Node17&#45;&gt;Node29 -->
<g id="edge38" class="edge"><title>Node17&#45;&gt;Node29</title>
<path fill="none" stroke="midnightblue" d="M338.175,-336.324C350.847,-327.979 370.233,-315.212 385.206,-305.352"/>
<polygon fill="midnightblue" stroke="midnightblue" points="387.431,-308.078 393.858,-299.655 383.581,-302.231 387.431,-308.078"/>
</g>
<!-- Node19&#45;&gt;Node3 -->
<g id="edge21" class="edge"><title>Node19&#45;&gt;Node3</title>
<path fill="none" stroke="midnightblue" d="M341.721,-113.829C394.134,-103.308 491.147,-83.833 541.978,-73.629"/>
<polygon fill="midnightblue" stroke="midnightblue" points="542.68,-77.0579 551.796,-71.6581 541.303,-70.1948 542.68,-77.0579"/>
</g>
<!-- Node19&#45;&gt;Node14 -->
<g id="edge22" class="edge"><title>Node19&#45;&gt;Node14</title>
<path fill="none" stroke="midnightblue" d="M283.975,-112.444C260.896,-103.478 224.438,-89.314 198.359,-79.1827"/>
<polygon fill="midnightblue" stroke="midnightblue" points="199.511,-75.8753 188.922,-75.5164 196.976,-82.4002 199.511,-75.8753"/>
</g>
<!-- Node20 -->
<g id="node20" class="node"><title>Node20</title>
<polygon fill="white" stroke="#bfbfbf" points="284,-56.5 284,-75.5 336,-75.5 336,-56.5 284,-56.5"/>
<text text-anchor="middle" x="310" y="-63.5" font-family="Helvetica,sans-Serif" font-size="10.00">assert.h</text>
</g>
<!-- Node19&#45;&gt;Node20 -->
<g id="edge23" class="edge"><title>Node19&#45;&gt;Node20</title>
<path fill="none" stroke="midnightblue" d="M306.661,-112.083C307.185,-105.006 307.936,-94.8611 308.594,-85.9865"/>
<polygon fill="midnightblue" stroke="midnightblue" points="312.103,-85.9823 309.352,-75.7511 305.123,-85.4652 312.103,-85.9823"/>
</g>
<!-- Node21 -->
<g id="node21" class="node"><title>Node21</title>
<polygon fill="white" stroke="#bfbfbf" points="354,-56.5 354,-75.5 408,-75.5 408,-56.5 354,-56.5"/>
<text text-anchor="middle" x="381" y="-63.5" font-family="Helvetica,sans-Serif" font-size="10.00">setjmp.h</text>
</g>
<!-- Node19&#45;&gt;Node21 -->
<g id="edge24" class="edge"><title>Node19&#45;&gt;Node21</title>
<path fill="none" stroke="midnightblue" d="M318.05,-112.324C329.463,-104.107 346.831,-91.6017 360.435,-81.8069"/>
<polygon fill="midnightblue" stroke="midnightblue" points="362.66,-84.5174 368.731,-75.8339 358.57,-78.8366 362.66,-84.5174"/>
</g>
<!-- Node22&#45;&gt;Node23 -->
<g id="edge26" class="edge"><title>Node22&#45;&gt;Node23</title>
<path fill="none" stroke="midnightblue" d="M417.139,-224.32C426.389,-215.897 439.826,-202.319 448,-188 456.231,-173.581 461.454,-155.389 464.49,-141.921"/>
<polygon fill="midnightblue" stroke="midnightblue" points="467.964,-142.404 466.544,-131.905 461.107,-140.998 467.964,-142.404"/>
</g>
<!-- Node28 -->
<g id="node28" class="node"><title>Node28</title>
<g id="a_node28"><a xlink:href="semtable_8h.html" target="_top" xlink:title="header file for table for coordinating meaning across a vmhost ">
<polygon fill="white" stroke="black" points="374.5,-168.5 374.5,-187.5 439.5,-187.5 439.5,-168.5 374.5,-168.5"/>
<text text-anchor="middle" x="407" y="-175.5" font-family="Helvetica,sans-Serif" font-size="10.00">semtable.h</text>
</a>
</g>
</g>
<!-- Node22&#45;&gt;Node28 -->
<g id="edge35" class="edge"><title>Node22&#45;&gt;Node28</title>
<path fill="none" stroke="midnightblue" d="M407,-224.083C407,-217.006 407,-206.861 407,-197.986"/>
<polygon fill="midnightblue" stroke="midnightblue" points="410.5,-197.751 407,-187.751 403.5,-197.751 410.5,-197.751"/>
</g>
<!-- Node23&#45;&gt;Node3 -->
<g id="edge28" class="edge"><title>Node23&#45;&gt;Node3</title>
<path fill="none" stroke="midnightblue" d="M485.191,-112.324C502.351,-103.664 528.946,-90.2424 548.747,-80.249"/>
<polygon fill="midnightblue" stroke="midnightblue" points="550.501,-83.2847 557.851,-75.6545 547.347,-77.0354 550.501,-83.2847"/>
</g>
<!-- Node23&#45;&gt;Node5 -->
<g id="edge34" class="edge"><title>Node23&#45;&gt;Node5</title>
<path fill="none" stroke="midnightblue" d="M430.976,-112.478C394.155,-103.978 335.786,-90.4382 276.229,-76.2772"/>
<polygon fill="midnightblue" stroke="midnightblue" points="276.814,-72.8186 266.275,-73.9071 275.192,-79.6282 276.814,-72.8186"/>
</g>
<!-- Node24 -->
<g id="node24" class="node"><title>Node24</title>
<polygon fill="white" stroke="#bfbfbf" points="706.5,-56.5 706.5,-75.5 755.5,-75.5 755.5,-56.5 706.5,-56.5"/>
<text text-anchor="middle" x="731" y="-63.5" font-family="Helvetica,sans-Serif" font-size="10.00">stdint.h</text>
</g>
<!-- Node23&#45;&gt;Node24 -->
<g id="edge27" class="edge"><title>Node23&#45;&gt;Node24</title>
<path fill="none" stroke="midnightblue" d="M506.242,-113.148C557.449,-102.634 647.527,-84.1389 696.663,-74.0501"/>
<polygon fill="midnightblue" stroke="midnightblue" points="697.407,-77.4706 706.498,-72.0308 695.999,-70.6136 697.407,-77.4706"/>
</g>
<!-- Node25 -->
<g id="node25" class="node"><title>Node25</title>
<g id="a_node25"><a xlink:href="uthash_8h_source.html" target="_top" xlink:title="uthash.h">
<polygon fill="white" stroke="black" points="426,-56.5 426,-75.5 480,-75.5 480,-56.5 426,-56.5"/>
<text text-anchor="middle" x="453" y="-63.5" font-family="Helvetica,sans-Serif" font-size="10.00">uthash.h</text>
</a>
</g>
</g>
<!-- Node23&#45;&gt;Node25 -->
<g id="edge29" class="edge"><title>Node23&#45;&gt;Node25</title>
<path fill="none" stroke="midnightblue" d="M465.523,-112.083C463.514,-104.849 460.614,-94.4087 458.11,-85.3968"/>
<polygon fill="midnightblue" stroke="midnightblue" points="461.48,-84.4495 455.431,-75.7511 454.735,-86.323 461.48,-84.4495"/>
</g>
<!-- Node25&#45;&gt;Node6 -->
<g id="edge32" class="edge"><title>Node25&#45;&gt;Node6</title>
<path fill="none" stroke="midnightblue" d="M425.946,-57.886C422.939,-57.1997 419.911,-56.5541 417,-56 305.769,-34.828 172.235,-20.3319 110.46,-14.2375"/>
<polygon fill="midnightblue" stroke="midnightblue" points="110.421,-10.7173 100.129,-13.231 109.742,-17.6843 110.421,-10.7173"/>
</g>
<!-- Node25&#45;&gt;Node18 -->
<g id="edge30" class="edge"><title>Node25&#45;&gt;Node18</title>
<path fill="none" stroke="midnightblue" d="M425.921,-57.2631C392.333,-47.6667 335.036,-31.2959 298.379,-20.8224"/>
<polygon fill="midnightblue" stroke="midnightblue" points="299.2,-17.4173 288.624,-18.0353 297.277,-24.1479 299.2,-17.4173"/>
</g>
<!-- Node26 -->
<g id="node26" class="node"><title>Node26</title>
<polygon fill="white" stroke="#bfbfbf" points="390,-0.5 390,-19.5 442,-19.5 442,-0.5 390,-0.5"/>
<text text-anchor="middle" x="416" y="-7.5" font-family="Helvetica,sans-Serif" font-size="10.00">stddef.h</text>
</g>
<!-- Node25&#45;&gt;Node26 -->
<g id="edge31" class="edge"><title>Node25&#45;&gt;Node26</title>
<path fill="none" stroke="midnightblue" d="M446.89,-56.083C441.718,-48.5341 434.154,-37.4948 427.806,-28.2298"/>
<polygon fill="midnightblue" stroke="midnightblue" points="430.536,-26.0221 421.996,-19.7511 424.761,-29.9787 430.536,-26.0221"/>
</g>
<!-- Node27 -->
<g id="node27" class="node"><title>Node27</title>
<polygon fill="white" stroke="#bfbfbf" points="460.5,-0.5 460.5,-19.5 519.5,-19.5 519.5,-0.5 460.5,-0.5"/>
<text text-anchor="middle" x="490" y="-7.5" font-family="Helvetica,sans-Serif" font-size="10.00">inttypes.h</text>
</g>
<!-- Node25&#45;&gt;Node27 -->
<g id="edge33" class="edge"><title>Node25&#45;&gt;Node27</title>
<path fill="none" stroke="midnightblue" d="M459.11,-56.083C464.282,-48.5341 471.846,-37.4948 478.194,-28.2298"/>
<polygon fill="midnightblue" stroke="midnightblue" points="481.239,-29.9787 484.004,-19.7511 475.464,-26.0221 481.239,-29.9787"/>
</g>
<!-- Node28&#45;&gt;Node19 -->
<g id="edge37" class="edge"><title>Node28&#45;&gt;Node19</title>
<path fill="none" stroke="midnightblue" d="M390.773,-168.324C374.649,-159.703 349.7,-146.364 331.036,-136.386"/>
<polygon fill="midnightblue" stroke="midnightblue" points="332.656,-133.283 322.187,-131.655 329.356,-139.456 332.656,-133.283"/>
</g>
<!-- Node28&#45;&gt;Node23 -->
<g id="edge36" class="edge"><title>Node28&#45;&gt;Node23</title>
<path fill="none" stroke="midnightblue" d="M416.801,-168.324C425.818,-160.341 439.406,-148.313 450.318,-138.653"/>
<polygon fill="midnightblue" stroke="midnightblue" points="452.853,-141.083 458.021,-131.834 448.213,-135.842 452.853,-141.083"/>
</g>
<!-- Node29&#45;&gt;Node22 -->
<g id="edge39" class="edge"><title>Node29&#45;&gt;Node22</title>
<path fill="none" stroke="midnightblue" d="M407,-280.083C407,-273.006 407,-262.861 407,-253.986"/>
<polygon fill="midnightblue" stroke="midnightblue" points="410.5,-253.751 407,-243.751 403.5,-253.751 410.5,-253.751"/>
</g>
<!-- Node30&#45;&gt;Node3 -->
<g id="edge43" class="edge"><title>Node30&#45;&gt;Node3</title>
<path fill="none" stroke="midnightblue" d="M842.842,-336.223C838.475,-317.663 829,-273.017 829,-235 829,-235 829,-235 829,-177 829,-146.205 828.451,-131.96 805,-112 775.819,-87.1631 665.063,-74.5134 608.573,-69.5627"/>
<polygon fill="midnightblue" stroke="midnightblue" points="608.623,-66.0545 598.364,-68.7003 608.033,-73.0297 608.623,-66.0545"/>
</g>
<!-- Node31&#45;&gt;Node3 -->
<g id="edge46" class="edge"><title>Node31&#45;&gt;Node3</title>
<path fill="none" stroke="midnightblue" d="M856.885,-115.439C852.355,-114.218 847.524,-112.994 843,-112 759.112,-93.5661 659.004,-78.5931 608.169,-71.4809"/>
<polygon fill="midnightblue" stroke="midnightblue" points="608.478,-67.9904 598.092,-70.0841 607.517,-74.9241 608.478,-67.9904"/>
</g>
<!-- Node31&#45;&gt;Node24 -->
<g id="edge48" class="edge"><title>Node31&#45;&gt;Node24</title>
<path fill="none" stroke="midnightblue" d="M856.745,-113.829C833.039,-105.001 792.407,-89.869 763.758,-79.1994"/>
<polygon fill="midnightblue" stroke="midnightblue" points="764.764,-75.8394 754.171,-75.6293 762.321,-82.3992 764.764,-75.8394"/>
</g>
<!-- Node32 -->
<g id="node32" class="node"><title>Node32</title>
<polygon fill="white" stroke="#bfbfbf" points="818.5,-56.5 818.5,-75.5 867.5,-75.5 867.5,-56.5 818.5,-56.5"/>
<text text-anchor="middle" x="843" y="-63.5" font-family="Helvetica,sans-Serif" font-size="10.00">ctype.h</text>
</g>
<!-- Node31&#45;&gt;Node32 -->
<g id="edge45" class="edge"><title>Node31&#45;&gt;Node32</title>
<path fill="none" stroke="midnightblue" d="M870.551,-112.083C865.986,-104.613 859.332,-93.7244 853.707,-84.5199"/>
<polygon fill="midnightblue" stroke="midnightblue" points="856.549,-82.4588 848.348,-75.7511 850.576,-86.109 856.549,-82.4588"/>
</g>
<!-- Node33 -->
<g id="node33" class="node"><title>Node33</title>
<polygon fill="white" stroke="#bfbfbf" points="886,-56.5 886,-75.5 930,-75.5 930,-56.5 886,-56.5"/>
<text text-anchor="middle" x="908" y="-63.5" font-family="Helvetica,sans-Serif" font-size="10.00">time.h</text>
</g>
<!-- Node31&#45;&gt;Node33 -->
<g id="edge47" class="edge"><title>Node31&#45;&gt;Node33</title>
<path fill="none" stroke="midnightblue" d="M881.284,-112.083C885.711,-104.613 892.163,-93.7244 897.618,-84.5199"/>
<polygon fill="midnightblue" stroke="midnightblue" points="900.727,-86.1383 902.814,-75.7511 894.705,-82.5697 900.727,-86.1383"/>
</g>
</g>
</svg>
