<?xml version="1.0" encoding="UTF-8" standalone="no"?>
<!DOCTYPE svg PUBLIC "-//W3C//DTD SVG 1.1//EN"
 "http://www.w3.org/Graphics/SVG/1.1/DTD/svg11.dtd">
<!-- Generated by graphviz version 2.38.0 (20140413.2041)
 -->
<!-- Title: SemTable Pages: 1 -->
<svg width="197pt" height="307pt"
 viewBox="0.00 0.00 197.00 307.00" xmlns="http://www.w3.org/2000/svg" xmlns:xlink="http://www.w3.org/1999/xlink">
<g id="graph0" class="graph" transform="scale(1 1) rotate(0) translate(4 303)">
<title>SemTable</title>
<polygon fill="white" stroke="none" points="-4,4 -4,-303 193,-303 193,4 -4,4"/>
<!-- Node1 -->
<g id="node1" class="node"><title>Node1</title>
<polygon fill="#bfbfbf" stroke="black" points="6.5,-0.5 6.5,-19.5 67.5,-19.5 67.5,-0.5 6.5,-0.5"/>
<text text-anchor="middle" x="37" y="-7.5" font-family="Helvetica,sans-Serif" font-size="10.00">SemTable</text>
</g>
<!-- Node2 -->
<g id="node2" class="node"><title>Node2</title>
<g id="a_node2"><a xlink:href="structContextStore.html" target="_top" xlink:title="ContextStore">
<polygon fill="white" stroke="black" points="0,-67.5 0,-86.5 74,-86.5 74,-67.5 0,-67.5"/>
<text text-anchor="middle" x="37" y="-74.5" font-family="Helvetica,sans-Serif" font-size="10.00">ContextStore</text>
</a>
</g>
</g>
<!-- Node2&#45;&gt;Node1 -->
<g id="edge1" class="edge"><title>Node2&#45;&gt;Node1</title>
<path fill="none" stroke="#9a32cd" stroke-dasharray="5,2" d="M37,-57.037C37,-44.6703 37,-29.1198 37,-19.6273"/>
<polygon fill="#9a32cd" stroke="#9a32cd" points="33.5001,-57.2338 37,-67.2338 40.5001,-57.2338 33.5001,-57.2338"/>
<text text-anchor="middle" x="52.5" y="-41" font-family="Helvetica,sans-Serif" font-size="10.00"> stores</text>
</g>
<!-- Node3 -->
<g id="node3" class="node"><title>Node3</title>
<g id="a_node3"><a xlink:href="structT.html" target="_top" xlink:title="T">
<polygon fill="white" stroke="black" points="93.5,-145.5 93.5,-164.5 122.5,-164.5 122.5,-145.5 93.5,-145.5"/>
<text text-anchor="middle" x="108" y="-152.5" font-family="Helvetica,sans-Serif" font-size="10.00">T</text>
</a>
</g>
</g>
<!-- Node3&#45;&gt;Node2 -->
<g id="edge2" class="edge"><title>Node3&#45;&gt;Node2</title>
<path fill="none" stroke="#9a32cd" stroke-dasharray="5,2" d="M83.7224,-147.954C71.9825,-143.861 58.6049,-137.274 50,-127 40.2799,-115.395 37.7528,-97.2646 37.1409,-86.6163"/>
<polygon fill="#9a32cd" stroke="#9a32cd" points="82.87,-151.354 93.4567,-150.94 84.9224,-144.661 82.87,-151.354"/>
<text text-anchor="middle" x="74" y="-113.5" font-family="Helvetica,sans-Serif" font-size="10.00"> definitions</text>
</g>
<!-- Node4 -->
<g id="node4" class="node"><title>Node4</title>
<g id="a_node4"><a xlink:href="structTstruct.html" target="_top" xlink:title="Tstruct">
<polygon fill="white" stroke="black" points="116.5,-67.5 116.5,-86.5 163.5,-86.5 163.5,-67.5 116.5,-67.5"/>
<text text-anchor="middle" x="140" y="-74.5" font-family="Helvetica,sans-Serif" font-size="10.00">Tstruct</text>
</a>
</g>
</g>
<!-- Node3&#45;&gt;Node4 -->
<g id="edge4" class="edge"><title>Node3&#45;&gt;Node4</title>
<path fill="none" stroke="#9a32cd" stroke-dasharray="5,2" d="M102.571,-135.155C100.87,-125.661 100.46,-114.236 105,-105 108.792,-97.2863 115.965,-91.1541 122.835,-86.6961"/>
<polygon fill="#9a32cd" stroke="#9a32cd" points="99.2316,-136.241 104.941,-145.166 106.043,-134.628 99.2316,-136.241"/>
<text text-anchor="middle" x="122" y="-119" font-family="Helvetica,sans-Serif" font-size="10.00"> parent</text>
<text text-anchor="middle" x="122" y="-108" font-family="Helvetica,sans-Serif" font-size="10.00">children</text>
</g>
<!-- Node4&#45;&gt;Node3 -->
<g id="edge3" class="edge"><title>Node4&#45;&gt;Node3</title>
<path fill="none" stroke="#9a32cd" stroke-dasharray="5,2" d="M145.429,-96.8455C147.13,-106.339 147.54,-117.764 143,-127 138.734,-135.678 130.189,-142.354 122.61,-146.897"/>
<polygon fill="#9a32cd" stroke="#9a32cd" points="148.768,-95.759 143.059,-86.8343 141.957,-97.3716 148.768,-95.759"/>
<text text-anchor="middle" x="168" y="-113.5" font-family="Helvetica,sans-Serif" font-size="10.00"> structure</text>
</g>
<!-- Node5 -->
<g id="node5" class="node"><title>Node5</title>
<g id="a_node5"><a xlink:href="structTcontext.html" target="_top" xlink:title="Tcontext">
<polygon fill="white" stroke="black" points="47.5,-212.5 47.5,-231.5 102.5,-231.5 102.5,-212.5 47.5,-212.5"/>
<text text-anchor="middle" x="75" y="-219.5" font-family="Helvetica,sans-Serif" font-size="10.00">Tcontext</text>
</a>
</g>
</g>
<!-- Node5&#45;&gt;Node3 -->
<g id="edge5" class="edge"><title>Node5&#45;&gt;Node3</title>
<path fill="none" stroke="#9a32cd" stroke-dasharray="5,2" d="M77.4705,-202.554C78.8166,-196.12 80.8736,-189.011 84,-183 87.5884,-176.101 93.3314,-169.55 98.2998,-164.63"/>
<polygon fill="#9a32cd" stroke="#9a32cd" points="74.0165,-201.989 75.813,-212.43 80.9199,-203.147 74.0165,-201.989"/>
<text text-anchor="middle" x="102" y="-186" font-family="Helvetica,sans-Serif" font-size="10.00"> context</text>
</g>
<!-- Node6 -->
<g id="node6" class="node"><title>Node6</title>
<g id="a_node6"><a xlink:href="structTcontents.html" target="_top" xlink:title="Tcontents">
<polygon fill="white" stroke="black" points="121,-212.5 121,-231.5 181,-231.5 181,-212.5 121,-212.5"/>
<text text-anchor="middle" x="151" y="-219.5" font-family="Helvetica,sans-Serif" font-size="10.00">Tcontents</text>
</a>
</g>
</g>
<!-- Node6&#45;&gt;Node3 -->
<g id="edge6" class="edge"><title>Node6&#45;&gt;Node3</title>
<path fill="none" stroke="#9a32cd" stroke-dasharray="5,2" d="M139.446,-203.535C131.121,-190.95 120.243,-174.507 113.707,-164.627"/>
<polygon fill="#9a32cd" stroke="#9a32cd" points="136.764,-205.825 145.201,-212.234 142.603,-201.963 136.764,-205.825"/>
<text text-anchor="middle" x="153.5" y="-186" font-family="Helvetica,sans-Serif" font-size="10.00"> contents</text>
</g>
<!-- Node7 -->
<g id="node7" class="node"><title>Node7</title>
<g id="a_node7"><a xlink:href="structSemanticID.html" target="_top" xlink:title="SemanticID">
<polygon fill="white" stroke="black" points="117,-279.5 117,-298.5 185,-298.5 185,-279.5 117,-279.5"/>
<text text-anchor="middle" x="151" y="-286.5" font-family="Helvetica,sans-Serif" font-size="10.00">SemanticID</text>
</a>
</g>
</g>
<!-- Node7&#45;&gt;Node6 -->
<g id="edge7" class="edge"><title>Node7&#45;&gt;Node6</title>
<path fill="none" stroke="#9a32cd" stroke-dasharray="5,2" d="M151,-269.037C151,-256.67 151,-241.12 151,-231.627"/>
<polygon fill="#9a32cd" stroke="#9a32cd" points="147.5,-269.234 151,-279.234 154.5,-269.234 147.5,-269.234"/>
<text text-anchor="middle" x="168.5" y="-253" font-family="Helvetica,sans-Serif" font-size="10.00"> symbol</text>
</g>
</g>
</svg>
