<?xml version="1.0" encoding="UTF-8" standalone="no"?>
<!DOCTYPE svg PUBLIC "-//W3C//DTD SVG 1.1//EN"
 "http://www.w3.org/Graphics/SVG/1.1/DTD/svg11.dtd">
<!-- Generated by graphviz version 2.38.0 (20140413.2041)
 -->
<!-- Title: VMHost Pages: 1 -->
<svg width="926pt" height="604pt"
 viewBox="0.00 0.00 925.50 604.00" xmlns="http://www.w3.org/2000/svg" xmlns:xlink="http://www.w3.org/1999/xlink">
<g id="graph0" class="graph" transform="scale(1 1) rotate(0) translate(4 600)">
<title>VMHost</title>
<polygon fill="white" stroke="none" points="-4,4 -4,-600 921.5,-600 921.5,4 -4,4"/>
<!-- Node1 -->
<g id="node1" class="node"><title>Node1</title>
<polygon fill="#bfbfbf" stroke="black" points="182.5,-0.5 182.5,-19.5 235.5,-19.5 235.5,-0.5 182.5,-0.5"/>
<text text-anchor="middle" x="209" y="-7.5" font-family="Helvetica,sans-Serif" font-size="10.00">VMHost</text>
</g>
<!-- Node2 -->
<g id="node2" class="node"><title>Node2</title>
<g id="a_node2"><a xlink:href="structScape.html" target="_top" xlink:title="Scape">
<polygon fill="white" stroke="black" points="4,-226.5 4,-245.5 48,-245.5 48,-226.5 4,-226.5"/>
<text text-anchor="middle" x="26" y="-233.5" font-family="Helvetica,sans-Serif" font-size="10.00">Scape</text>
</a>
</g>
</g>
<!-- Node2&#45;&gt;Node1 -->
<g id="edge1" class="edge"><title>Node2&#45;&gt;Node1</title>
<path fill="none" stroke="#9a32cd" stroke-dasharray="5,2" d="M20.9461,-216.345C15.362,-191.656 9.31139,-147.574 27,-116 59.9837,-57.1243 140.342,-28.508 182.378,-17.1636"/>
<polygon fill="#9a32cd" stroke="#9a32cd" points="17.5881,-217.346 23.392,-226.209 24.3823,-215.661 17.5881,-217.346"/>
<text text-anchor="middle" x="69.5" y="-119" font-family="Helvetica,sans-Serif" font-size="10.00"> installed_receptors</text>
</g>
<!-- Node3 -->
<g id="node3" class="node"><title>Node3</title>
<g id="a_node3"><a xlink:href="structSemanticID.html" target="_top" xlink:title="SemanticID">
<polygon fill="white" stroke="black" points="329,-576.5 329,-595.5 397,-595.5 397,-576.5 329,-576.5"/>
<text text-anchor="middle" x="363" y="-583.5" font-family="Helvetica,sans-Serif" font-size="10.00">SemanticID</text>
</a>
</g>
</g>
<!-- Node3&#45;&gt;Node2 -->
<g id="edge2" class="edge"><title>Node3&#45;&gt;Node2</title>
<path fill="none" stroke="#9a32cd" stroke-dasharray="5,2" d="M318.787,-581.65C222.012,-573.722 0,-552.044 0,-520 0,-520 0,-520 0,-337 0,-302.2 14.9313,-262.716 22.1636,-245.632"/>
<polygon fill="#9a32cd" stroke="#9a32cd" points="318.601,-585.146 328.85,-582.461 319.164,-578.168 318.601,-585.146"/>
<text text-anchor="middle" x="27" y="-454" font-family="Helvetica,sans-Serif" font-size="10.00"> key_source</text>
<text text-anchor="middle" x="27" y="-443" font-family="Helvetica,sans-Serif" font-size="10.00">data_source</text>
</g>
<!-- Node5 -->
<g id="node5" class="node"><title>Node5</title>
<g id="a_node5"><a xlink:href="structXaddr.html" target="_top" xlink:title="Xaddr">
<polygon fill="white" stroke="black" points="105,-441.5 105,-460.5 147,-460.5 147,-441.5 105,-441.5"/>
<text text-anchor="middle" x="126" y="-448.5" font-family="Helvetica,sans-Serif" font-size="10.00">Xaddr</text>
</a>
</g>
</g>
<!-- Node3&#45;&gt;Node5 -->
<g id="edge5" class="edge"><title>Node3&#45;&gt;Node5</title>
<path fill="none" stroke="#9a32cd" stroke-dasharray="5,2" d="M338.93,-571.492C290.311,-544.208 181.607,-483.206 141.366,-460.623"/>
<polygon fill="#9a32cd" stroke="#9a32cd" points="337.381,-574.636 347.814,-576.478 340.806,-568.532 337.381,-574.636"/>
<text text-anchor="middle" x="278.5" y="-516.5" font-family="Helvetica,sans-Serif" font-size="10.00"> symbol</text>
</g>
<!-- Node11 -->
<g id="node11" class="node"><title>Node11</title>
<g id="a_node11"><a xlink:href="structinstances__elem.html" target="_top" xlink:title="instances_elem">
<polygon fill="white" stroke="black" points="421.5,-226.5 421.5,-245.5 506.5,-245.5 506.5,-226.5 421.5,-226.5"/>
<text text-anchor="middle" x="464" y="-233.5" font-family="Helvetica,sans-Serif" font-size="10.00">instances_elem</text>
</a>
</g>
</g>
<!-- Node3&#45;&gt;Node11 -->
<g id="edge25" class="edge"><title>Node3&#45;&gt;Node11</title>
<path fill="none" stroke="#9a32cd" stroke-dasharray="5,2" d="M407.043,-574.829C434.25,-565.642 464,-548.971 464,-520 464,-520 464,-520 464,-337 464,-303.146 464,-262.845 464,-245.561"/>
<polygon fill="#9a32cd" stroke="#9a32cd" points="405.708,-571.579 397.194,-577.885 407.782,-578.265 405.708,-571.579"/>
<text text-anchor="middle" x="468.5" y="-448.5" font-family="Helvetica,sans-Serif" font-size="10.00"> s</text>
</g>
<!-- Node16 -->
<g id="node16" class="node"><title>Node16</title>
<g id="a_node16"><a xlink:href="structTcontents.html" target="_top" xlink:title="Tcontents">
<polygon fill="white" stroke="black" points="512,-509.5 512,-528.5 572,-528.5 572,-509.5 512,-509.5"/>
<text text-anchor="middle" x="542" y="-516.5" font-family="Helvetica,sans-Serif" font-size="10.00">Tcontents</text>
</a>
</g>
</g>
<!-- Node3&#45;&gt;Node16 -->
<g id="edge24" class="edge"><title>Node3&#45;&gt;Node16</title>
<path fill="none" stroke="#9a32cd" stroke-dasharray="5,2" d="M407.034,-577.933C428.866,-573.615 455.34,-567.135 478,-558 497.176,-550.27 517.382,-537.358 529.84,-528.762"/>
<polygon fill="#9a32cd" stroke="#9a32cd" points="406.219,-574.525 397.045,-579.824 407.521,-581.403 406.219,-574.525"/>
<text text-anchor="middle" x="518.5" y="-550" font-family="Helvetica,sans-Serif" font-size="10.00"> symbol</text>
</g>
<!-- Node4 -->
<g id="node4" class="node"><title>Node4</title>
<g id="a_node4"><a xlink:href="structscape__elem.html" target="_top" xlink:title="scape_elem">
<polygon fill="white" stroke="black" points="28.5,-328.5 28.5,-347.5 97.5,-347.5 97.5,-328.5 28.5,-328.5"/>
<text text-anchor="middle" x="63" y="-335.5" font-family="Helvetica,sans-Serif" font-size="10.00">scape_elem</text>
</a>
</g>
</g>
<!-- Node4&#45;&gt;Node2 -->
<g id="edge3" class="edge"><title>Node4&#45;&gt;Node2</title>
<path fill="none" stroke="#9a32cd" stroke-dasharray="5,2" d="M56.373,-319.089C48.3437,-297.388 35.1476,-261.723 29.1466,-245.504"/>
<polygon fill="#9a32cd" stroke="#9a32cd" points="53.0927,-320.31 59.8454,-328.474 59.6578,-317.881 53.0927,-320.31"/>
<text text-anchor="middle" x="64" y="-284.5" font-family="Helvetica,sans-Serif" font-size="10.00"> data</text>
</g>
<!-- Node5&#45;&gt;Node4 -->
<g id="edge4" class="edge"><title>Node5&#45;&gt;Node4</title>
<path fill="none" stroke="#9a32cd" stroke-dasharray="5,2" d="M99.3301,-435.891C93.9482,-432.005 88.7877,-427.358 85,-422 68.4778,-398.628 64.3639,-363.627 63.3396,-347.587"/>
<polygon fill="#9a32cd" stroke="#9a32cd" points="97.5046,-438.878 107.804,-441.362 101.302,-432.998 97.5046,-438.878"/>
<text text-anchor="middle" x="98.5" y="-392" font-family="Helvetica,sans-Serif" font-size="10.00"> value</text>
</g>
<!-- Node23 -->
<g id="node23" class="node"><title>Node23</title>
<g id="a_node23"><a xlink:href="structActiveReceptor.html" target="_top" xlink:title="ActiveReceptor">
<polygon fill="white" stroke="black" points="118,-78.5 118,-97.5 202,-97.5 202,-78.5 118,-78.5"/>
<text text-anchor="middle" x="160" y="-85.5" font-family="Helvetica,sans-Serif" font-size="10.00">ActiveReceptor</text>
</a>
</g>
</g>
<!-- Node5&#45;&gt;Node23 -->
<g id="edge39" class="edge"><title>Node5&#45;&gt;Node23</title>
<path fill="none" stroke="#9a32cd" stroke-dasharray="5,2" d="M126,-431.081C126,-408.988 126,-371.343 126,-339 126,-339 126,-339 126,-160.5 126,-135.759 142.809,-110.461 152.789,-97.6216"/>
<polygon fill="#9a32cd" stroke="#9a32cd" points="122.5,-431.364 126,-441.364 129.5,-431.364 122.5,-431.364"/>
<text text-anchor="middle" x="130.5" y="-233.5" font-family="Helvetica,sans-Serif" font-size="10.00"> x</text>
</g>
<!-- Node6 -->
<g id="node6" class="node"><title>Node6</title>
<g id="a_node6"><a xlink:href="structUT__hash__handle.html" target="_top" xlink:title="UT_hash_handle">
<polygon fill="white" stroke="black" points="275,-441.5 275,-460.5 365,-460.5 365,-441.5 275,-441.5"/>
<text text-anchor="middle" x="320" y="-448.5" font-family="Helvetica,sans-Serif" font-size="10.00">UT_hash_handle</text>
</a>
</g>
</g>
<!-- Node6&#45;&gt;Node4 -->
<g id="edge6" class="edge"><title>Node6&#45;&gt;Node4</title>
<path fill="none" stroke="#9a32cd" stroke-dasharray="5,2" d="M264.752,-449.9C232.272,-447.602 191.529,-440.671 160,-422 133.064,-406.049 140.122,-386.951 116,-367 106.377,-359.041 94.1302,-352.391 83.8336,-347.572"/>
<polygon fill="#9a32cd" stroke="#9a32cd" points="264.8,-453.409 274.986,-450.493 265.205,-446.42 264.8,-453.409"/>
<text text-anchor="middle" x="167" y="-392" font-family="Helvetica,sans-Serif" font-size="10.00"> hh</text>
</g>
<!-- Node6&#45;&gt;Node6 -->
<g id="edge7" class="edge"><title>Node6&#45;&gt;Node6</title>
<path fill="none" stroke="#9a32cd" stroke-dasharray="5,2" d="M375.264,-455.98C380.026,-454.922 383,-453.262 383,-451 383,-447.381 375.386,-445.303 365.02,-444.765"/>
<polygon fill="#9a32cd" stroke="#9a32cd" points="374.521,-452.545 365.02,-457.235 375.372,-459.493 374.521,-452.545"/>
<text text-anchor="middle" x="402" y="-454" font-family="Helvetica,sans-Serif" font-size="10.00"> hh_prev</text>
<text text-anchor="middle" x="402" y="-443" font-family="Helvetica,sans-Serif" font-size="10.00">hh_next</text>
</g>
<!-- Node7 -->
<g id="node7" class="node"><title>Node7</title>
<g id="a_node7"><a xlink:href="structUT__hash__table.html" target="_top" xlink:title="UT_hash_table">
<polygon fill="white" stroke="black" points="278.5,-226.5 278.5,-245.5 361.5,-245.5 361.5,-226.5 278.5,-226.5"/>
<text text-anchor="middle" x="320" y="-233.5" font-family="Helvetica,sans-Serif" font-size="10.00">UT_hash_table</text>
</a>
</g>
</g>
<!-- Node6&#45;&gt;Node7 -->
<g id="edge11" class="edge"><title>Node6&#45;&gt;Node7</title>
<path fill="none" stroke="#9a32cd" stroke-dasharray="5,2" d="M320,-431.201C320,-387.031 320,-277.951 320,-245.957"/>
<polygon fill="#9a32cd" stroke="#9a32cd" points="316.5,-431.386 320,-441.386 323.5,-431.386 316.5,-431.386"/>
<text text-anchor="middle" x="328" y="-335.5" font-family="Helvetica,sans-Serif" font-size="10.00"> tail</text>
</g>
<!-- Node8 -->
<g id="node8" class="node"><title>Node8</title>
<g id="a_node8"><a xlink:href="structUT__hash__bucket.html" target="_top" xlink:title="UT_hash_bucket">
<polygon fill="white" stroke="black" points="192.5,-328.5 192.5,-347.5 283.5,-347.5 283.5,-328.5 192.5,-328.5"/>
<text text-anchor="middle" x="238" y="-335.5" font-family="Helvetica,sans-Serif" font-size="10.00">UT_hash_bucket</text>
</a>
</g>
</g>
<!-- Node6&#45;&gt;Node8 -->
<g id="edge10" class="edge"><title>Node6&#45;&gt;Node8</title>
<path fill="none" stroke="#9a32cd" stroke-dasharray="5,2" d="M285.184,-436.964C278.095,-433.027 271.221,-428.087 266,-422 246.992,-399.836 240.746,-364.231 238.811,-347.813"/>
<polygon fill="#9a32cd" stroke="#9a32cd" points="283.655,-440.113 294.168,-441.426 286.769,-433.843 283.655,-440.113"/>
<text text-anchor="middle" x="286" y="-392" font-family="Helvetica,sans-Serif" font-size="10.00"> hh_head</text>
</g>
<!-- Node10 -->
<g id="node10" class="node"><title>Node10</title>
<g id="a_node10"><a xlink:href="structtable__elem.html" target="_top" xlink:title="table_elem">
<polygon fill="white" stroke="black" points="146,-277.5 146,-296.5 210,-296.5 210,-277.5 146,-277.5"/>
<text text-anchor="middle" x="178" y="-284.5" font-family="Helvetica,sans-Serif" font-size="10.00">table_elem</text>
</a>
</g>
</g>
<!-- Node6&#45;&gt;Node10 -->
<g id="edge14" class="edge"><title>Node6&#45;&gt;Node10</title>
<path fill="none" stroke="#9a32cd" stroke-dasharray="5,2" d="M264.576,-441.249C250.635,-437.103 236.408,-430.995 225,-422 195.606,-398.824 194.131,-384.738 183,-349 177.376,-330.942 177.155,-308.505 177.543,-296.509"/>
<polygon fill="#9a32cd" stroke="#9a32cd" points="264.068,-444.736 274.633,-443.935 265.874,-437.973 264.068,-444.736"/>
<text text-anchor="middle" x="232" y="-392" font-family="Helvetica,sans-Serif" font-size="10.00"> hh</text>
</g>
<!-- Node6&#45;&gt;Node11 -->
<g id="edge16" class="edge"><title>Node6&#45;&gt;Node11</title>
<path fill="none" stroke="#9a32cd" stroke-dasharray="5,2" d="M340.969,-435.271C345.886,-431.283 350.886,-426.746 355,-422 381.739,-391.157 442.498,-277.697 459.503,-245.544"/>
<polygon fill="#9a32cd" stroke="#9a32cd" points="338.763,-432.551 332.941,-441.403 343.013,-438.114 338.763,-432.551"/>
<text text-anchor="middle" x="422" y="-335.5" font-family="Helvetica,sans-Serif" font-size="10.00"> hh</text>
</g>
<!-- Node12 -->
<g id="node12" class="node"><title>Node12</title>
<g id="a_node12"><a xlink:href="structinstance__elem.html" target="_top" xlink:title="instance_elem">
<polygon fill="white" stroke="black" points="492,-328.5 492,-347.5 572,-347.5 572,-328.5 492,-328.5"/>
<text text-anchor="middle" x="532" y="-335.5" font-family="Helvetica,sans-Serif" font-size="10.00">instance_elem</text>
</a>
</g>
</g>
<!-- Node6&#45;&gt;Node12 -->
<g id="edge18" class="edge"><title>Node6&#45;&gt;Node12</title>
<path fill="none" stroke="#9a32cd" stroke-dasharray="5,2" d="M368.109,-438.657C382.882,-434.35 398.942,-428.804 413,-422 456.985,-400.713 502.645,-364.024 522.181,-347.501"/>
<polygon fill="#9a32cd" stroke="#9a32cd" points="366.819,-435.383 358.128,-441.442 368.7,-442.126 366.819,-435.383"/>
<text text-anchor="middle" x="504" y="-392" font-family="Helvetica,sans-Serif" font-size="10.00"> hh</text>
</g>
<!-- Node7&#45;&gt;Node6 -->
<g id="edge8" class="edge"><title>Node7&#45;&gt;Node6</title>
<path fill="none" stroke="#9a32cd" stroke-dasharray="5,2" d="M330.19,-254.984C331.683,-258.236 333.039,-261.657 334,-265 353.288,-332.059 352.802,-354.803 334,-422 332.125,-428.699 328.625,-435.699 325.594,-441.025"/>
<polygon fill="#9a32cd" stroke="#9a32cd" points="333.247,-253.275 325.558,-245.986 327.023,-256.479 333.247,-253.275"/>
<text text-anchor="middle" x="356" y="-335.5" font-family="Helvetica,sans-Serif" font-size="10.00"> tbl</text>
</g>
<!-- Node8&#45;&gt;Node7 -->
<g id="edge9" class="edge"><title>Node8&#45;&gt;Node7</title>
<path fill="none" stroke="#9a32cd" stroke-dasharray="5,2" d="M242.05,-318.337C246.274,-302.567 254.25,-280.186 268,-265 275.708,-256.487 286.624,-250.064 296.467,-245.531"/>
<polygon fill="#9a32cd" stroke="#9a32cd" points="238.553,-317.911 239.609,-328.453 245.357,-319.553 238.553,-317.911"/>
<text text-anchor="middle" x="287" y="-284.5" font-family="Helvetica,sans-Serif" font-size="10.00"> buckets</text>
</g>
<!-- Node9 -->
<g id="node9" class="node"><title>Node9</title>
<g id="a_node9"><a xlink:href="structReceptor.html" target="_top" xlink:title="Receptor">
<polygon fill="white" stroke="black" points="436,-152 436,-171 492,-171 492,-152 436,-152"/>
<text text-anchor="middle" x="464" y="-159" font-family="Helvetica,sans-Serif" font-size="10.00">Receptor</text>
</a>
</g>
</g>
<!-- Node9&#45;&gt;Node1 -->
<g id="edge12" class="edge"><title>Node9&#45;&gt;Node1</title>
<path fill="none" stroke="#9a32cd" stroke-dasharray="5,2" d="M448.772,-144.732C422.742,-118.682 366.961,-66.6903 310,-38 286.333,-26.0793 256.81,-18.9737 235.809,-15.0683"/>
<polygon fill="#9a32cd" stroke="#9a32cd" points="446.352,-147.263 455.864,-151.929 451.338,-142.35 446.352,-147.263"/>
<text text-anchor="middle" x="399.5" y="-85.5" font-family="Helvetica,sans-Serif" font-size="10.00"> r</text>
</g>
<!-- Node18 -->
<g id="node18" class="node"><title>Node18</title>
<g id="a_node18"><a xlink:href="structQ.html" target="_top" xlink:title="Q">
<polygon fill="white" stroke="black" points="479.5,-78.5 479.5,-97.5 508.5,-97.5 508.5,-78.5 479.5,-78.5"/>
<text text-anchor="middle" x="494" y="-85.5" font-family="Helvetica,sans-Serif" font-size="10.00">Q</text>
</a>
</g>
</g>
<!-- Node9&#45;&gt;Node18 -->
<g id="edge35" class="edge"><title>Node9&#45;&gt;Node18</title>
<path fill="none" stroke="#9a32cd" stroke-dasharray="5,2" d="M462.945,-141.767C463.161,-133.537 464.369,-123.957 468,-116 471.296,-108.777 477.355,-102.307 482.796,-97.5117"/>
<polygon fill="#9a32cd" stroke="#9a32cd" points="459.448,-141.94 463.132,-151.873 466.447,-141.81 459.448,-141.94"/>
<text text-anchor="middle" x="471.5" y="-119" font-family="Helvetica,sans-Serif" font-size="10.00"> r</text>
</g>
<!-- Node9&#45;&gt;Node23 -->
<g id="edge40" class="edge"><title>Node9&#45;&gt;Node23</title>
<path fill="none" stroke="#9a32cd" stroke-dasharray="5,2" d="M425.927,-151.545C366.952,-137.674 254.288,-111.176 196.368,-97.5536"/>
<polygon fill="#9a32cd" stroke="#9a32cd" points="425.41,-155.019 435.945,-153.902 427.012,-148.205 425.41,-155.019"/>
<text text-anchor="middle" x="325.5" y="-119" font-family="Helvetica,sans-Serif" font-size="10.00"> r</text>
</g>
<!-- Node10&#45;&gt;Node9 -->
<g id="edge13" class="edge"><title>Node10&#45;&gt;Node9</title>
<path fill="none" stroke="#9a32cd" stroke-dasharray="5,2" d="M191.901,-269.375C204.255,-255.61 223.493,-236.509 244,-225 307.365,-189.438 392.558,-172.781 435.992,-166.173"/>
<polygon fill="#9a32cd" stroke="#9a32cd" points="189.07,-267.297 185.149,-277.14 194.352,-271.891 189.07,-267.297"/>
<text text-anchor="middle" x="256.5" y="-233.5" font-family="Helvetica,sans-Serif" font-size="10.00"> table</text>
</g>
<!-- Node11&#45;&gt;Node9 -->
<g id="edge15" class="edge"><title>Node11&#45;&gt;Node9</title>
<path fill="none" stroke="#9a32cd" stroke-dasharray="5,2" d="M464,-216.025C464,-201.481 464,-182.095 464,-171.09"/>
<polygon fill="#9a32cd" stroke="#9a32cd" points="460.5,-216.399 464,-226.399 467.5,-216.399 460.5,-216.399"/>
<text text-anchor="middle" x="487" y="-199" font-family="Helvetica,sans-Serif" font-size="10.00"> instances</text>
</g>
<!-- Node12&#45;&gt;Node11 -->
<g id="edge17" class="edge"><title>Node12&#45;&gt;Node11</title>
<path fill="none" stroke="#9a32cd" stroke-dasharray="5,2" d="M520.419,-319.969C505.728,-298.365 480.962,-261.944 469.783,-245.504"/>
<polygon fill="#9a32cd" stroke="#9a32cd" points="517.685,-322.173 526.202,-328.474 523.473,-318.237 517.685,-322.173"/>
<text text-anchor="middle" x="535" y="-284.5" font-family="Helvetica,sans-Serif" font-size="10.00"> instances</text>
</g>
<!-- Node13 -->
<g id="node13" class="node"><title>Node13</title>
<g id="a_node13"><a xlink:href="structT.html" target="_top" xlink:title="T">
<polygon fill="white" stroke="black" points="623.5,-441.5 623.5,-460.5 652.5,-460.5 652.5,-441.5 623.5,-441.5"/>
<text text-anchor="middle" x="638" y="-448.5" font-family="Helvetica,sans-Serif" font-size="10.00">T</text>
</a>
</g>
</g>
<!-- Node13&#45;&gt;Node9 -->
<g id="edge36" class="edge"><title>Node13&#45;&gt;Node9</title>
<path fill="none" stroke="#9a32cd" stroke-dasharray="5,2" d="M630.499,-432.202C619.248,-405.476 597.361,-353.375 579,-309 570.922,-289.477 571.002,-283.611 561,-265 543.435,-232.316 540.338,-222.137 514,-196 503.913,-185.99 490.432,-177.161 480.01,-171.084"/>
<polygon fill="#9a32cd" stroke="#9a32cd" points="627.277,-433.569 634.384,-441.426 633.728,-430.852 627.277,-433.569"/>
<text text-anchor="middle" x="623" y="-301" font-family="Helvetica,sans-Serif" font-size="10.00"> pending_responses</text>
<text text-anchor="middle" x="623" y="-290" font-family="Helvetica,sans-Serif" font-size="10.00">root</text>
<text text-anchor="middle" x="623" y="-279" font-family="Helvetica,sans-Serif" font-size="10.00">pending_signals</text>
<text text-anchor="middle" x="623" y="-268" font-family="Helvetica,sans-Serif" font-size="10.00">flux</text>
</g>
<!-- Node13&#45;&gt;Node12 -->
<g id="edge19" class="edge"><title>Node13&#45;&gt;Node12</title>
<path fill="none" stroke="#9a32cd" stroke-dasharray="5,2" d="M613.261,-449.344C592.214,-447.391 562.804,-441.112 546,-422 527.28,-400.709 528.893,-364.022 530.772,-347.501"/>
<polygon fill="#9a32cd" stroke="#9a32cd" points="613.184,-452.846 623.393,-450.016 613.647,-445.862 613.184,-452.846"/>
<text text-anchor="middle" x="566" y="-392" font-family="Helvetica,sans-Serif" font-size="10.00"> instance</text>
</g>
<!-- Node14 -->
<g id="node14" class="node"><title>Node14</title>
<g id="a_node14"><a xlink:href="structTstruct.html" target="_top" xlink:title="Tstruct">
<polygon fill="white" stroke="black" points="787.5,-328.5 787.5,-347.5 834.5,-347.5 834.5,-328.5 787.5,-328.5"/>
<text text-anchor="middle" x="811" y="-335.5" font-family="Helvetica,sans-Serif" font-size="10.00">Tstruct</text>
</a>
</g>
</g>
<!-- Node13&#45;&gt;Node14 -->
<g id="edge21" class="edge"><title>Node13&#45;&gt;Node14</title>
<path fill="none" stroke="#9a32cd" stroke-dasharray="5,2" d="M662.943,-447.492C695.976,-443.694 751.833,-435.464 767,-422 786.341,-404.832 772.909,-389.304 786,-367 790.222,-359.806 796.472,-352.806 801.667,-347.605"/>
<polygon fill="#9a32cd" stroke="#9a32cd" points="662.268,-444.045 652.707,-448.612 663.029,-451.004 662.268,-444.045"/>
<text text-anchor="middle" x="803" y="-397.5" font-family="Helvetica,sans-Serif" font-size="10.00"> parent</text>
<text text-anchor="middle" x="803" y="-386.5" font-family="Helvetica,sans-Serif" font-size="10.00">children</text>
</g>
<!-- Node17 -->
<g id="node17" class="node"><title>Node17</title>
<g id="a_node17"><a xlink:href="structDefs.html" target="_top" xlink:title="Defs">
<polygon fill="white" stroke="black" points="676,-277.5 676,-296.5 714,-296.5 714,-277.5 676,-277.5"/>
<text text-anchor="middle" x="695" y="-284.5" font-family="Helvetica,sans-Serif" font-size="10.00">Defs</text>
</a>
</g>
</g>
<!-- Node13&#45;&gt;Node17 -->
<g id="edge27" class="edge"><title>Node13&#45;&gt;Node17</title>
<path fill="none" stroke="#9a32cd" stroke-dasharray="5,2" d="M633.69,-431.612C630.502,-414.429 627.829,-388.299 635,-367 645.002,-337.294 671.108,-309.897 685.365,-296.54"/>
<polygon fill="#9a32cd" stroke="#9a32cd" points="630.28,-432.405 635.761,-441.472 637.131,-430.966 630.28,-432.405"/>
<text text-anchor="middle" x="659.5" y="-414" font-family="Helvetica,sans-Serif" font-size="10.00"> processes</text>
<text text-anchor="middle" x="659.5" y="-403" font-family="Helvetica,sans-Serif" font-size="10.00">structures</text>
<text text-anchor="middle" x="659.5" y="-392" font-family="Helvetica,sans-Serif" font-size="10.00">symbols</text>
<text text-anchor="middle" x="659.5" y="-381" font-family="Helvetica,sans-Serif" font-size="10.00">scapes</text>
<text text-anchor="middle" x="659.5" y="-370" font-family="Helvetica,sans-Serif" font-size="10.00">protocols</text>
</g>
<!-- Node20 -->
<g id="node20" class="node"><title>Node20</title>
<g id="a_node20"><a xlink:href="structR.html" target="_top" xlink:title="R">
<polygon fill="white" stroke="black" points="695.5,-328.5 695.5,-347.5 724.5,-347.5 724.5,-328.5 695.5,-328.5"/>
<text text-anchor="middle" x="710" y="-335.5" font-family="Helvetica,sans-Serif" font-size="10.00">R</text>
</a>
</g>
</g>
<!-- Node13&#45;&gt;Node20 -->
<g id="edge33" class="edge"><title>Node13&#45;&gt;Node20</title>
<path fill="none" stroke="#9a32cd" stroke-dasharray="5,2" d="M662.116,-441.303C671.421,-436.842 681.393,-430.519 688,-422 705.542,-399.384 709.146,-364.004 709.852,-347.728"/>
<polygon fill="#9a32cd" stroke="#9a32cd" points="660.638,-438.129 652.83,-445.291 663.4,-444.561 660.638,-438.129"/>
<text text-anchor="middle" x="737" y="-403" font-family="Helvetica,sans-Serif" font-size="10.00"> run_tree</text>
<text text-anchor="middle" x="737" y="-392" font-family="Helvetica,sans-Serif" font-size="10.00">node_pointer</text>
<text text-anchor="middle" x="737" y="-381" font-family="Helvetica,sans-Serif" font-size="10.00">parent</text>
</g>
<!-- Node14&#45;&gt;Node13 -->
<g id="edge20" class="edge"><title>Node14&#45;&gt;Node13</title>
<path fill="none" stroke="#9a32cd" stroke-dasharray="5,2" d="M821.067,-356.822C830.016,-375.314 839.494,-403.999 824,-422 801.792,-447.802 692.378,-450.148 652.541,-450.131"/>
<polygon fill="#9a32cd" stroke="#9a32cd" points="824.047,-354.969 816.311,-347.73 817.844,-358.213 824.047,-354.969"/>
<text text-anchor="middle" x="853" y="-392" font-family="Helvetica,sans-Serif" font-size="10.00"> structure</text>
</g>
<!-- Node15 -->
<g id="node15" class="node"><title>Node15</title>
<g id="a_node15"><a xlink:href="structTcontext.html" target="_top" xlink:title="Tcontext">
<polygon fill="white" stroke="black" points="610.5,-509.5 610.5,-528.5 665.5,-528.5 665.5,-509.5 610.5,-509.5"/>
<text text-anchor="middle" x="638" y="-516.5" font-family="Helvetica,sans-Serif" font-size="10.00">Tcontext</text>
</a>
</g>
</g>
<!-- Node15&#45;&gt;Node13 -->
<g id="edge22" class="edge"><title>Node15&#45;&gt;Node13</title>
<path fill="none" stroke="#9a32cd" stroke-dasharray="5,2" d="M638,-499.041C638,-486.472 638,-470.563 638,-460.841"/>
<polygon fill="#9a32cd" stroke="#9a32cd" points="634.5,-499.372 638,-509.372 641.5,-499.372 634.5,-499.372"/>
<text text-anchor="middle" x="656" y="-483" font-family="Helvetica,sans-Serif" font-size="10.00"> context</text>
</g>
<!-- Node16&#45;&gt;Node13 -->
<g id="edge23" class="edge"><title>Node16&#45;&gt;Node13</title>
<path fill="none" stroke="#9a32cd" stroke-dasharray="5,2" d="M561.12,-503.16C570.577,-495.974 582.244,-487.335 593,-480 603.035,-473.157 614.685,-465.927 623.617,-460.528"/>
<polygon fill="#9a32cd" stroke="#9a32cd" points="558.954,-500.411 553.146,-509.272 563.212,-505.966 558.954,-500.411"/>
<text text-anchor="middle" x="613.5" y="-483" font-family="Helvetica,sans-Serif" font-size="10.00"> contents</text>
</g>
<!-- Node17&#45;&gt;Node9 -->
<g id="edge26" class="edge"><title>Node17&#45;&gt;Node9</title>
<path fill="none" stroke="#9a32cd" stroke-dasharray="5,2" d="M681.678,-269.516C664.326,-249.158 632.043,-214.908 597,-196 563.576,-177.965 520.172,-169.399 492.2,-165.504"/>
<polygon fill="#9a32cd" stroke="#9a32cd" points="679.076,-271.861 688.165,-277.306 684.455,-267.382 679.076,-271.861"/>
<text text-anchor="middle" x="672" y="-233.5" font-family="Helvetica,sans-Serif" font-size="10.00"> defs</text>
</g>
<!-- Node18&#45;&gt;Node9 -->
<g id="edge28" class="edge"><title>Node18&#45;&gt;Node9</title>
<path fill="none" stroke="#9a32cd" stroke-dasharray="5,2" d="M486.379,-107.163C480.39,-121.436 472.312,-140.69 467.679,-151.733"/>
<polygon fill="#9a32cd" stroke="#9a32cd" points="489.65,-108.414 490.291,-97.839 483.195,-105.706 489.65,-108.414"/>
<text text-anchor="middle" x="487.5" y="-119" font-family="Helvetica,sans-Serif" font-size="10.00"> q</text>
</g>
<!-- Node19 -->
<g id="node19" class="node"><title>Node19</title>
<g id="a_node19"><a xlink:href="structQe.html" target="_top" xlink:title="Qe">
<polygon fill="white" stroke="black" points="722.5,-226.5 722.5,-245.5 751.5,-245.5 751.5,-226.5 722.5,-226.5"/>
<text text-anchor="middle" x="737" y="-233.5" font-family="Helvetica,sans-Serif" font-size="10.00">Qe</text>
</a>
</g>
</g>
<!-- Node19&#45;&gt;Node18 -->
<g id="edge29" class="edge"><title>Node19&#45;&gt;Node18</title>
<path fill="none" stroke="#9a32cd" stroke-dasharray="5,2" d="M713.784,-221.051C664.143,-191.226 548.907,-121.989 508.397,-97.6502"/>
<polygon fill="#9a32cd" stroke="#9a32cd" points="712.153,-224.154 722.527,-226.304 715.758,-218.154 712.153,-224.154"/>
<text text-anchor="middle" x="663" y="-170" font-family="Helvetica,sans-Serif" font-size="10.00"> active</text>
<text text-anchor="middle" x="663" y="-159" font-family="Helvetica,sans-Serif" font-size="10.00">blocked</text>
<text text-anchor="middle" x="663" y="-148" font-family="Helvetica,sans-Serif" font-size="10.00">completed</text>
</g>
<!-- Node19&#45;&gt;Node19 -->
<g id="edge30" class="edge"><title>Node19&#45;&gt;Node19</title>
<path fill="none" stroke="#9a32cd" stroke-dasharray="5,2" d="M762.048,-241.981C766.441,-241.187 769.5,-239.194 769.5,-236 769.5,-230.621 760.824,-228.646 751.706,-230.075"/>
<polygon fill="#9a32cd" stroke="#9a32cd" points="761.725,-238.48 751.706,-241.925 761.687,-245.479 761.725,-238.48"/>
<text text-anchor="middle" x="780.5" y="-239" font-family="Helvetica,sans-Serif" font-size="10.00"> prev</text>
<text text-anchor="middle" x="780.5" y="-228" font-family="Helvetica,sans-Serif" font-size="10.00">next</text>
</g>
<!-- Node20&#45;&gt;Node19 -->
<g id="edge31" class="edge"><title>Node20&#45;&gt;Node19</title>
<path fill="none" stroke="#9a32cd" stroke-dasharray="5,2" d="M714.916,-318.792C720.783,-297.064 730.345,-261.649 734.704,-245.504"/>
<polygon fill="#9a32cd" stroke="#9a32cd" points="711.53,-317.907 712.302,-328.474 718.288,-319.732 711.53,-317.907"/>
<text text-anchor="middle" x="748" y="-284.5" font-family="Helvetica,sans-Serif" font-size="10.00"> context</text>
</g>
<!-- Node20&#45;&gt;Node20 -->
<g id="edge32" class="edge"><title>Node20&#45;&gt;Node20</title>
<path fill="none" stroke="#9a32cd" stroke-dasharray="5,2" d="M735.048,-346.796C739.441,-345.629 742.5,-342.697 742.5,-338 742.5,-330.09 733.824,-327.185 724.706,-329.286"/>
<polygon fill="#9a32cd" stroke="#9a32cd" points="734.734,-343.293 724.706,-346.714 734.678,-350.293 734.734,-343.293"/>
<text text-anchor="middle" x="756" y="-341" font-family="Helvetica,sans-Serif" font-size="10.00"> caller</text>
<text text-anchor="middle" x="756" y="-330" font-family="Helvetica,sans-Serif" font-size="10.00">callee</text>
</g>
<!-- Node21 -->
<g id="node21" class="node"><title>Node21</title>
<g id="a_node21"><a xlink:href="structAccounting.html" target="_top" xlink:title="Accounting">
<polygon fill="white" stroke="black" points="852.5,-328.5 852.5,-347.5 917.5,-347.5 917.5,-328.5 852.5,-328.5"/>
<text text-anchor="middle" x="885" y="-335.5" font-family="Helvetica,sans-Serif" font-size="10.00">Accounting</text>
</a>
</g>
</g>
<!-- Node21&#45;&gt;Node19 -->
<g id="edge34" class="edge"><title>Node21&#45;&gt;Node19</title>
<path fill="none" stroke="#9a32cd" stroke-dasharray="5,2" d="M863.959,-322.783C832.713,-301.671 775.009,-262.682 749.586,-245.504"/>
<polygon fill="#9a32cd" stroke="#9a32cd" points="862.136,-325.776 872.382,-328.474 866.055,-319.975 862.136,-325.776"/>
<text text-anchor="middle" x="862.5" y="-284.5" font-family="Helvetica,sans-Serif" font-size="10.00"> accounts</text>
</g>
<!-- Node22 -->
<g id="node22" class="node"><title>Node22</title>
<g id="a_node22"><a xlink:href="structthread.html" target="_top" xlink:title="thread">
<polygon fill="white" stroke="black" points="237,-78.5 237,-97.5 281,-97.5 281,-78.5 237,-78.5"/>
<text text-anchor="middle" x="259" y="-85.5" font-family="Helvetica,sans-Serif" font-size="10.00">thread</text>
</a>
</g>
</g>
<!-- Node22&#45;&gt;Node1 -->
<g id="edge37" class="edge"><title>Node22&#45;&gt;Node1</title>
<path fill="none" stroke="#9a32cd" stroke-dasharray="5,2" d="M252.732,-68.7506C248.966,-59.1322 243.617,-47.4114 237,-38 232.184,-31.1499 225.464,-24.6011 219.815,-19.6689"/>
<polygon fill="#9a32cd" stroke="#9a32cd" points="249.452,-69.9715 256.183,-78.1535 256.023,-67.5599 249.452,-69.9715"/>
<text text-anchor="middle" x="278" y="-52" font-family="Helvetica,sans-Serif" font-size="10.00"> vm_thread</text>
<text text-anchor="middle" x="278" y="-41" font-family="Helvetica,sans-Serif" font-size="10.00">clock_thread</text>
</g>
<!-- Node23&#45;&gt;Node1 -->
<g id="edge38" class="edge"><title>Node23&#45;&gt;Node1</title>
<path fill="none" stroke="#9a32cd" stroke-dasharray="5,2" d="M156.157,-68.144C155.19,-58.4882 155.66,-46.9204 161,-38 165.96,-29.7143 174.478,-23.7638 182.974,-19.5957"/>
<polygon fill="#9a32cd" stroke="#9a32cd" points="152.746,-68.9875 157.747,-78.3277 159.662,-67.9074 152.746,-68.9875"/>
<text text-anchor="middle" x="199" y="-46.5" font-family="Helvetica,sans-Serif" font-size="10.00"> active_receptors</text>
</g>
</g>
</svg>
