<?xml version="1.0" encoding="UTF-8" standalone="no"?>
<!DOCTYPE svg PUBLIC "-//W3C//DTD SVG 1.1//EN"
 "http://www.w3.org/Graphics/SVG/1.1/DTD/svg11.dtd">
<!-- Generated by graphviz version 2.38.0 (20140413.2041)
 -->
<!-- Title: Q Pages: 1 -->
<svg width="335pt" height="442pt"
 viewBox="0.00 0.00 334.70 442.00" xmlns="http://www.w3.org/2000/svg" xmlns:xlink="http://www.w3.org/1999/xlink">
<g id="graph0" class="graph" transform="scale(1 1) rotate(0) translate(4 438)">
<title>Q</title>
<polygon fill="white" stroke="none" points="-4,4 -4,-438 330.696,-438 330.696,4 -4,4"/>
<!-- Node1 -->
<g id="node1" class="node"><title>Node1</title>
<polygon fill="#bfbfbf" stroke="black" points="84.1962,-0.5 84.1962,-19.5 113.196,-19.5 113.196,-0.5 84.1962,-0.5"/>
<text text-anchor="middle" x="98.6962" y="-7.5" font-family="Helvetica,sans-Serif" font-size="10.00">Q</text>
</g>
<!-- Node2 -->
<g id="node2" class="node"><title>Node2</title>
<g id="a_node2"><a xlink:href="structQe.html" target="_top" xlink:title="Qe">
<polygon fill="white" stroke="black" points="84.1962,-90.5 84.1962,-109.5 113.196,-109.5 113.196,-90.5 84.1962,-90.5"/>
<text text-anchor="middle" x="98.6962" y="-97.5" font-family="Helvetica,sans-Serif" font-size="10.00">Qe</text>
</a>
</g>
</g>
<!-- Node2&#45;&gt;Node1 -->
<g id="edge1" class="edge"><title>Node2&#45;&gt;Node1</title>
<path fill="none" stroke="#9a32cd" stroke-dasharray="5,2" d="M98.6962,-79.9784C98.6962,-61.3096 98.6962,-33.6696 98.6962,-19.7241"/>
<polygon fill="#9a32cd" stroke="#9a32cd" points="95.1963,-80.2405 98.6962,-90.2405 102.196,-80.2405 95.1963,-80.2405"/>
<text text-anchor="middle" x="121.696" y="-63" font-family="Helvetica,sans-Serif" font-size="10.00"> active</text>
<text text-anchor="middle" x="121.696" y="-52" font-family="Helvetica,sans-Serif" font-size="10.00">blocked</text>
<text text-anchor="middle" x="121.696" y="-41" font-family="Helvetica,sans-Serif" font-size="10.00">completed</text>
</g>
<!-- Node2&#45;&gt;Node2 -->
<g id="edge2" class="edge"><title>Node2&#45;&gt;Node2</title>
<path fill="none" stroke="#9a32cd" stroke-dasharray="5,2" d="M123.744,-106.685C128.137,-105.798 131.196,-103.569 131.196,-100 131.196,-93.9883 122.52,-91.7809 113.403,-93.3777"/>
<polygon fill="#9a32cd" stroke="#9a32cd" points="123.424,-103.183 113.403,-106.622 123.381,-110.183 123.424,-103.183"/>
<text text-anchor="middle" x="142.196" y="-103" font-family="Helvetica,sans-Serif" font-size="10.00"> prev</text>
<text text-anchor="middle" x="142.196" y="-92" font-family="Helvetica,sans-Serif" font-size="10.00">next</text>
</g>
<!-- Node3 -->
<g id="node3" class="node"><title>Node3</title>
<g id="a_node3"><a xlink:href="structA.html" target="_top" xlink:title="A">
<polygon fill="white" stroke="black" points="66.1962,-168.5 66.1962,-187.5 95.1962,-187.5 95.1962,-168.5 66.1962,-168.5"/>
<text text-anchor="middle" x="80.6962" y="-175.5" font-family="Helvetica,sans-Serif" font-size="10.00">A</text>
</a>
</g>
</g>
<!-- Node3&#45;&gt;Node2 -->
<g id="edge3" class="edge"><title>Node3&#45;&gt;Node2</title>
<path fill="none" stroke="#9a32cd" stroke-dasharray="5,2" d="M78.8477,-158.13C78.5298,-149.142 78.9773,-138.341 81.6962,-129 83.7305,-122.011 87.9805,-115.011 91.7219,-109.758"/>
<polygon fill="#9a32cd" stroke="#9a32cd" points="75.369,-158.563 79.5463,-168.299 82.3526,-158.083 75.369,-158.563"/>
<text text-anchor="middle" x="103.196" y="-136.5" font-family="Helvetica,sans-Serif" font-size="10.00"> accounts</text>
</g>
<!-- Node4 -->
<g id="node4" class="node"><title>Node4</title>
<g id="a_node4"><a xlink:href="structR.html" target="_top" xlink:title="R">
<polygon fill="white" stroke="black" points="113.196,-168.5 113.196,-187.5 142.196,-187.5 142.196,-168.5 113.196,-168.5"/>
<text text-anchor="middle" x="127.696" y="-175.5" font-family="Helvetica,sans-Serif" font-size="10.00">R</text>
</a>
</g>
</g>
<!-- Node4&#45;&gt;Node2 -->
<g id="edge4" class="edge"><title>Node4&#45;&gt;Node2</title>
<path fill="none" stroke="#9a32cd" stroke-dasharray="5,2" d="M129.404,-158.419C129.545,-149.225 128.629,-138.164 124.696,-129 121.452,-121.441 115.251,-114.635 109.718,-109.627"/>
<polygon fill="#9a32cd" stroke="#9a32cd" points="125.906,-158.272 128.838,-168.453 132.895,-158.666 125.906,-158.272"/>
<text text-anchor="middle" x="147.696" y="-136.5" font-family="Helvetica,sans-Serif" font-size="10.00"> context</text>
</g>
<!-- Node4&#45;&gt;Node4 -->
<g id="edge5" class="edge"><title>Node4&#45;&gt;Node4</title>
<path fill="none" stroke="#9a32cd" stroke-dasharray="5,2" d="M152.744,-184.685C157.137,-183.798 160.196,-181.569 160.196,-178 160.196,-171.988 151.52,-169.781 142.403,-171.378"/>
<polygon fill="#9a32cd" stroke="#9a32cd" points="152.424,-181.183 142.403,-184.622 152.381,-188.183 152.424,-181.183"/>
<text text-anchor="middle" x="173.696" y="-181" font-family="Helvetica,sans-Serif" font-size="10.00"> caller</text>
<text text-anchor="middle" x="173.696" y="-170" font-family="Helvetica,sans-Serif" font-size="10.00">callee</text>
</g>
<!-- Node5 -->
<g id="node5" class="node"><title>Node5</title>
<g id="a_node5"><a xlink:href="structT.html" target="_top" xlink:title="T">
<polygon fill="white" stroke="black" points="149.196,-280.5 149.196,-299.5 178.196,-299.5 178.196,-280.5 149.196,-280.5"/>
<text text-anchor="middle" x="163.696" y="-287.5" font-family="Helvetica,sans-Serif" font-size="10.00">T</text>
</a>
</g>
</g>
<!-- Node5&#45;&gt;Node1 -->
<g id="edge14" class="edge"><title>Node5&#45;&gt;Node1</title>
<path fill="none" stroke="#9a32cd" stroke-dasharray="5,2" d="M138.985,-286.522C119.337,-283.485 92.0331,-276.771 72.6962,-262 25.748,-226.139 18.8696,-205.821 2.69619,-149 -13.3636,-92.5787 54.9767,-39.6836 85.0829,-19.5595"/>
<polygon fill="#9a32cd" stroke="#9a32cd" points="138.639,-290.007 149.014,-287.859 139.564,-283.068 138.639,-290.007"/>
<text text-anchor="middle" x="39.1962" y="-136.5" font-family="Helvetica,sans-Serif" font-size="10.00"> pending_signals</text>
</g>
<!-- Node5&#45;&gt;Node4 -->
<g id="edge6" class="edge"><title>Node5&#45;&gt;Node4</title>
<path fill="none" stroke="#9a32cd" stroke-dasharray="5,2" d="M138.822,-287.667C120.83,-285.246 97.6605,-278.802 85.6962,-262 71.5175,-242.088 74.1619,-228.552 85.6962,-207 91.4027,-196.337 103.162,-189.034 112.789,-184.566"/>
<polygon fill="#9a32cd" stroke="#9a32cd" points="138.648,-291.168 148.95,-288.694 139.354,-284.203 138.648,-291.168"/>
<text text-anchor="middle" x="113.696" y="-243" font-family="Helvetica,sans-Serif" font-size="10.00"> run_tree</text>
<text text-anchor="middle" x="113.696" y="-232" font-family="Helvetica,sans-Serif" font-size="10.00">node_pointer</text>
<text text-anchor="middle" x="113.696" y="-221" font-family="Helvetica,sans-Serif" font-size="10.00">parent</text>
</g>
<!-- Node6 -->
<g id="node6" class="node"><title>Node6</title>
<g id="a_node6"><a xlink:href="structTstruct.html" target="_top" xlink:title="Tstruct">
<polygon fill="white" stroke="black" points="205.196,-168.5 205.196,-187.5 252.196,-187.5 252.196,-168.5 205.196,-168.5"/>
<text text-anchor="middle" x="228.696" y="-175.5" font-family="Helvetica,sans-Serif" font-size="10.00">Tstruct</text>
</a>
</g>
</g>
<!-- Node5&#45;&gt;Node6 -->
<g id="edge8" class="edge"><title>Node5&#45;&gt;Node6</title>
<path fill="none" stroke="#9a32cd" stroke-dasharray="5,2" d="M187.772,-278.197C194.757,-274.028 201.81,-268.637 206.696,-262 223.665,-238.95 227.556,-203.788 228.44,-187.647"/>
<polygon fill="#9a32cd" stroke="#9a32cd" points="185.685,-275.343 178.498,-283.128 188.971,-281.524 185.685,-275.343"/>
<text text-anchor="middle" x="243.696" y="-237.5" font-family="Helvetica,sans-Serif" font-size="10.00"> parent</text>
<text text-anchor="middle" x="243.696" y="-226.5" font-family="Helvetica,sans-Serif" font-size="10.00">children</text>
</g>
<!-- Node10 -->
<g id="node10" class="node"><title>Node10</title>
<g id="a_node10"><a xlink:href="structDefs.html" target="_top" xlink:title="Defs">
<polygon fill="white" stroke="black" points="226.696,-129.5 226.696,-148.5 264.696,-148.5 264.696,-129.5 226.696,-129.5"/>
<text text-anchor="middle" x="245.696" y="-136.5" font-family="Helvetica,sans-Serif" font-size="10.00">Defs</text>
</a>
</g>
</g>
<!-- Node5&#45;&gt;Node10 -->
<g id="edge13" class="edge"><title>Node5&#45;&gt;Node10</title>
<path fill="none" stroke="#9a32cd" stroke-dasharray="5,2" d="M188.665,-285.737C215.215,-281.695 254.615,-273.858 263.696,-262 289.38,-228.462 272.815,-207.468 260.696,-167 258.727,-160.425 254.977,-153.675 251.719,-148.569"/>
<polygon fill="#9a32cd" stroke="#9a32cd" points="187.937,-282.306 178.537,-287.192 188.933,-289.235 187.937,-282.306"/>
<text text-anchor="middle" x="302.196" y="-254" font-family="Helvetica,sans-Serif" font-size="10.00"> processes</text>
<text text-anchor="middle" x="302.196" y="-243" font-family="Helvetica,sans-Serif" font-size="10.00">structures</text>
<text text-anchor="middle" x="302.196" y="-232" font-family="Helvetica,sans-Serif" font-size="10.00">symbols</text>
<text text-anchor="middle" x="302.196" y="-221" font-family="Helvetica,sans-Serif" font-size="10.00">scapes</text>
<text text-anchor="middle" x="302.196" y="-210" font-family="Helvetica,sans-Serif" font-size="10.00">protocols</text>
</g>
<!-- Node6&#45;&gt;Node5 -->
<g id="edge7" class="edge"><title>Node6&#45;&gt;Node5</title>
<path fill="none" stroke="#9a32cd" stroke-dasharray="5,2" d="M195.369,-189.826C181.871,-194.939 168.551,-201.184 164.696,-207 149.595,-229.785 156.583,-264.518 161.021,-280.46"/>
<polygon fill="#9a32cd" stroke="#9a32cd" points="196.872,-193.005 205.096,-186.325 194.501,-186.419 196.872,-193.005"/>
<text text-anchor="middle" x="185.696" y="-232" font-family="Helvetica,sans-Serif" font-size="10.00"> structure</text>
</g>
<!-- Node7 -->
<g id="node7" class="node"><title>Node7</title>
<g id="a_node7"><a xlink:href="structTcontext.html" target="_top" xlink:title="Tcontext">
<polygon fill="white" stroke="black" points="103.196,-347.5 103.196,-366.5 158.196,-366.5 158.196,-347.5 103.196,-347.5"/>
<text text-anchor="middle" x="130.696" y="-354.5" font-family="Helvetica,sans-Serif" font-size="10.00">Tcontext</text>
</a>
</g>
</g>
<!-- Node7&#45;&gt;Node5 -->
<g id="edge9" class="edge"><title>Node7&#45;&gt;Node5</title>
<path fill="none" stroke="#9a32cd" stroke-dasharray="5,2" d="M133.167,-337.554C134.513,-331.12 136.57,-324.011 139.696,-318 143.285,-311.101 149.028,-304.55 153.996,-299.63"/>
<polygon fill="#9a32cd" stroke="#9a32cd" points="129.713,-336.989 131.509,-347.43 136.616,-338.147 129.713,-336.989"/>
<text text-anchor="middle" x="157.696" y="-321" font-family="Helvetica,sans-Serif" font-size="10.00"> context</text>
</g>
<!-- Node8 -->
<g id="node8" class="node"><title>Node8</title>
<g id="a_node8"><a xlink:href="structTcontents.html" target="_top" xlink:title="Tcontents">
<polygon fill="white" stroke="black" points="176.696,-347.5 176.696,-366.5 236.696,-366.5 236.696,-347.5 176.696,-347.5"/>
<text text-anchor="middle" x="206.696" y="-354.5" font-family="Helvetica,sans-Serif" font-size="10.00">Tcontents</text>
</a>
</g>
</g>
<!-- Node8&#45;&gt;Node5 -->
<g id="edge10" class="edge"><title>Node8&#45;&gt;Node5</title>
<path fill="none" stroke="#9a32cd" stroke-dasharray="5,2" d="M195.142,-338.535C186.817,-325.95 175.939,-309.507 169.403,-299.627"/>
<polygon fill="#9a32cd" stroke="#9a32cd" points="192.461,-340.825 200.897,-347.234 198.299,-336.963 192.461,-340.825"/>
<text text-anchor="middle" x="209.196" y="-321" font-family="Helvetica,sans-Serif" font-size="10.00"> contents</text>
</g>
<!-- Node9 -->
<g id="node9" class="node"><title>Node9</title>
<g id="a_node9"><a xlink:href="structSemanticID.html" target="_top" xlink:title="SemanticID">
<polygon fill="white" stroke="black" points="172.696,-414.5 172.696,-433.5 240.696,-433.5 240.696,-414.5 172.696,-414.5"/>
<text text-anchor="middle" x="206.696" y="-421.5" font-family="Helvetica,sans-Serif" font-size="10.00">SemanticID</text>
</a>
</g>
</g>
<!-- Node9&#45;&gt;Node8 -->
<g id="edge11" class="edge"><title>Node9&#45;&gt;Node8</title>
<path fill="none" stroke="#9a32cd" stroke-dasharray="5,2" d="M206.696,-404.037C206.696,-391.67 206.696,-376.12 206.696,-366.627"/>
<polygon fill="#9a32cd" stroke="#9a32cd" points="203.196,-404.234 206.696,-414.234 210.196,-404.234 203.196,-404.234"/>
<text text-anchor="middle" x="224.196" y="-388" font-family="Helvetica,sans-Serif" font-size="10.00"> symbol</text>
</g>
<!-- Node10&#45;&gt;Node1 -->
<g id="edge12" class="edge"><title>Node10&#45;&gt;Node1</title>
<path fill="none" stroke="#9a32cd" stroke-dasharray="5,2" d="M232.551,-121.619C215.014,-100.478 182.258,-63.4016 148.696,-38 137.683,-29.6648 123.762,-22.3713 113.407,-17.4729"/>
<polygon fill="#9a32cd" stroke="#9a32cd" points="229.856,-123.852 238.895,-129.377 235.275,-119.42 229.856,-123.852"/>
<text text-anchor="middle" x="234.696" y="-97.5" font-family="Helvetica,sans-Serif" font-size="10.00"> defs</text>
</g>
</g>
</svg>
