<?xml version="1.0" encoding="UTF-8" standalone="no"?>
<!DOCTYPE svg PUBLIC "-//W3C//DTD SVG 1.1//EN"
 "http://www.w3.org/Graphics/SVG/1.1/DTD/svg11.dtd">
<!-- Generated by graphviz version 2.38.0 (20140413.2041)
 -->
<!-- Title: VMHost Pages: 1 -->
<!--zoomable 584 -->
<svg id="main" version="1.1" xmlns="http://www.w3.org/2000/svg" xmlns:xlink="http://www.w3.org/1999/xlink" xml:space="preserve" onload="init(evt)">
<style type="text/css"><![CDATA[
.edge:hover path { stroke: red; }
.edge:hover polygon { stroke: red; fill: red; }
]]></style>
<script type="text/javascript"><![CDATA[
var edges = document.getElementsByTagName('g');
if (edges && edges.length) {
  for (var i=0;i<edges.length;i++) {
    if (edges[i].id.substr(0,4)=='edge') {
      edges[i].setAttribute('class','edge');
    }
  }
}
]]></script>
        <defs>
                <circle id="rim" cx="0" cy="0" r="7"/>
                <circle id="rim2" cx="0" cy="0" r="3.5"/>
                <g id="zoomPlus">
                        <use xlink:href="#rim" fill="#404040">
                                <set attributeName="fill" to="#808080" begin="zoomplus.mouseover" end="zoomplus.mouseout"/>
                        </use>
                        <path d="M-4,0h8M0,-4v8" fill="none" stroke="white" stroke-width="1.5" pointer-events="none"/>
                </g>
                <g id="zoomMin">
                        <use xlink:href="#rim" fill="#404040">
                                <set attributeName="fill" to="#808080" begin="zoomminus.mouseover" end="zoomminus.mouseout"/>
                        </use>
                        <path d="M-4,0h8" fill="none" stroke="white" stroke-width="1.5" pointer-events="none"/>
                </g>
                <g id="dirArrow">
                        <path fill="none" stroke="white" stroke-width="1.5" d="M0,-3.0v7 M-2.5,-0.5L0,-3.0L2.5,-0.5"/>
                </g>
               <g id="resetDef">
                       <use xlink:href="#rim2" fill="#404040">
                               <set attributeName="fill" to="#808080" begin="reset.mouseover" end="reset.mouseout"/>
                       </use>
               </g>
        </defs>

<script type="text/javascript">
var viewWidth = 956;
var viewHeight = 584;
var sectionId = 'dynsection-0';
</script>
<script xlink:href="svgpan.js"/>
<svg id="graph" class="graph">
<g id="viewport">
<title>VMHost</title>
<polygon fill="white" stroke="none" points="-4,4 -4,-580 951.5,-580 951.5,4 -4,4"/>
<!-- Node1 -->
<g id="node1" class="node"><title>Node1</title>
<polygon fill="#bfbfbf" stroke="black" points="444.5,-0.5 444.5,-19.5 497.5,-19.5 497.5,-0.5 444.5,-0.5"/>
<text text-anchor="middle" x="471" y="-7.5" font-family="Helvetica,sans-Serif" font-size="10.00">VMHost</text>
</g>
<!-- Node2 -->
<g id="node2" class="node"><title>Node2</title>
<g id="a_node2"><a xlink:href="structScape.html" target="_top" xlink:title="Scape">
<polygon fill="white" stroke="black" points="4,-228.5 4,-247.5 48,-247.5 48,-228.5 4,-228.5"/>
<text text-anchor="middle" x="26" y="-235.5" font-family="Helvetica,sans-Serif" font-size="10.00">Scape</text>
</a>
</g>
</g>
<!-- Node2&#45;&gt;Node1 -->
<g id="edge1" class="edge"><title>Node2&#45;&gt;Node1</title>
<path fill="none" stroke="#9a32cd" stroke-dasharray="5,2" d="M19.8144,-218.481C12.5482,-192.924 4.16187,-146.746 27,-118 79.96,-51.3391 356.509,-21.2218 444.256,-13.2468"/>
<polygon fill="#9a32cd" stroke="#9a32cd" points="16.5669,-219.828 22.8618,-228.35 23.2553,-217.762 16.5669,-219.828"/>
<text text-anchor="middle" x="69.5" y="-121" font-family="Helvetica,sans-Serif" font-size="10.00"> installed_receptors</text>
</g>
<!-- Node3 -->
<g id="node3" class="node"><title>Node3</title>
<g id="a_node3"><a xlink:href="structSemanticID.html" target="_top" xlink:title="SemanticID">
<polygon fill="white" stroke="black" points="396,-556.5 396,-575.5 464,-575.5 464,-556.5 396,-556.5"/>
<text text-anchor="middle" x="430" y="-563.5" font-family="Helvetica,sans-Serif" font-size="10.00">SemanticID</text>
</a>
</g>
</g>
<!-- Node3&#45;&gt;Node2 -->
<g id="edge2" class="edge"><title>Node3&#45;&gt;Node2</title>
<path fill="none" stroke="#9a32cd" stroke-dasharray="5,2" d="M385.815,-562.907C276.095,-557.122 0,-538.719 0,-500 0,-500 0,-500 0,-339 0,-304.2 14.9313,-264.716 22.1636,-247.632"/>
<polygon fill="#9a32cd" stroke="#9a32cd" points="385.732,-566.407 395.899,-563.428 386.093,-559.417 385.732,-566.407"/>
<text text-anchor="middle" x="27" y="-434" font-family="Helvetica,sans-Serif" font-size="10.00"> key_source</text>
<text text-anchor="middle" x="27" y="-423" font-family="Helvetica,sans-Serif" font-size="10.00">data_source</text>
</g>
<!-- Node5 -->
<g id="node5" class="node"><title>Node5</title>
<g id="a_node5"><a xlink:href="structXaddr.html" target="_top" xlink:title="Xaddr">
<polygon fill="white" stroke="black" points="105,-421.5 105,-440.5 147,-440.5 147,-421.5 105,-421.5"/>
<text text-anchor="middle" x="126" y="-428.5" font-family="Helvetica,sans-Serif" font-size="10.00">Xaddr</text>
</a>
</g>
</g>
<!-- Node3&#45;&gt;Node5 -->
<g id="edge5" class="edge"><title>Node3&#45;&gt;Node5</title>
<path fill="none" stroke="#9a32cd" stroke-dasharray="5,2" d="M401.048,-552.334C339.676,-525.483 197.865,-463.441 145.71,-440.623"/>
<polygon fill="#9a32cd" stroke="#9a32cd" points="399.957,-555.676 410.521,-556.478 402.762,-549.263 399.957,-555.676"/>
<text text-anchor="middle" x="316.5" y="-496.5" font-family="Helvetica,sans-Serif" font-size="10.00"> symbol</text>
</g>
<!-- Node14 -->
<g id="node14" class="node"><title>Node14</title>
<g id="a_node14"><a xlink:href="structTcontents.html" target="_top" xlink:title="Tcontents">
<polygon fill="white" stroke="black" points="581,-489.5 581,-508.5 641,-508.5 641,-489.5 581,-489.5"/>
<text text-anchor="middle" x="611" y="-496.5" font-family="Helvetica,sans-Serif" font-size="10.00">Tcontents</text>
</a>
</g>
</g>
<!-- Node3&#45;&gt;Node14 -->
<g id="edge19" class="edge"><title>Node3&#45;&gt;Node14</title>
<path fill="none" stroke="#9a32cd" stroke-dasharray="5,2" d="M474.411,-562.073C502.166,-558.862 538.015,-552.126 567,-538 581.699,-530.837 595.414,-517.522 603.505,-508.71"/>
<polygon fill="#9a32cd" stroke="#9a32cd" points="473.783,-558.62 464.201,-563.14 474.51,-565.582 473.783,-558.62"/>
<text text-anchor="middle" x="601.5" y="-530" font-family="Helvetica,sans-Serif" font-size="10.00"> symbol</text>
</g>
<!-- Node18 -->
<g id="node18" class="node"><title>Node18</title>
<g id="a_node18"><a xlink:href="structinstances__elem.html" target="_top" xlink:title="instances_elem">
<polygon fill="white" stroke="black" points="455.5,-228.5 455.5,-247.5 540.5,-247.5 540.5,-228.5 455.5,-228.5"/>
<text text-anchor="middle" x="498" y="-235.5" font-family="Helvetica,sans-Serif" font-size="10.00">instances_elem</text>
</a>
</g>
</g>
<!-- Node3&#45;&gt;Node18 -->
<g id="edge30" class="edge"><title>Node3&#45;&gt;Node18</title>
<path fill="none" stroke="#9a32cd" stroke-dasharray="5,2" d="M444.558,-548.642C468.508,-520.738 515.87,-461.195 539,-402 560.886,-345.991 578.407,-318.879 548,-267 542.818,-258.159 533.712,-251.9 524.678,-247.576"/>
<polygon fill="#9a32cd" stroke="#9a32cd" points="441.859,-546.411 437.929,-556.25 447.137,-551.009 441.859,-546.411"/>
<text text-anchor="middle" x="535.5" y="-428.5" font-family="Helvetica,sans-Serif" font-size="10.00"> s</text>
</g>
<!-- Node4 -->
<g id="node4" class="node"><title>Node4</title>
<g id="a_node4"><a xlink:href="structscape__elem.html" target="_top" xlink:title="scape_elem">
<polygon fill="white" stroke="black" points="28.5,-330.5 28.5,-349.5 97.5,-349.5 97.5,-330.5 28.5,-330.5"/>
<text text-anchor="middle" x="63" y="-337.5" font-family="Helvetica,sans-Serif" font-size="10.00">scape_elem</text>
</a>
</g>
</g>
<!-- Node4&#45;&gt;Node2 -->
<g id="edge3" class="edge"><title>Node4&#45;&gt;Node2</title>
<path fill="none" stroke="#9a32cd" stroke-dasharray="5,2" d="M56.373,-321.089C48.3437,-299.388 35.1476,-263.723 29.1466,-247.504"/>
<polygon fill="#9a32cd" stroke="#9a32cd" points="53.0927,-322.31 59.8454,-330.474 59.6578,-319.881 53.0927,-322.31"/>
<text text-anchor="middle" x="64" y="-286.5" font-family="Helvetica,sans-Serif" font-size="10.00"> data</text>
</g>
<!-- Node5&#45;&gt;Node4 -->
<g id="edge4" class="edge"><title>Node5&#45;&gt;Node4</title>
<path fill="none" stroke="#9a32cd" stroke-dasharray="5,2" d="M94.7621,-427.261C77.9538,-424.011 58.5577,-417.007 48,-402 36.705,-385.945 48.7094,-362.31 56.8324,-349.691"/>
<polygon fill="#9a32cd" stroke="#9a32cd" points="94.3689,-430.742 104.791,-428.838 95.456,-423.827 94.3689,-430.742"/>
<text text-anchor="middle" x="61.5" y="-383" font-family="Helvetica,sans-Serif" font-size="10.00"> value</text>
</g>
<!-- Node25 -->
<g id="node25" class="node"><title>Node25</title>
<g id="a_node25"><a xlink:href="structActiveReceptor.html" target="_top" xlink:title="ActiveReceptor">
<polygon fill="white" stroke="black" points="338,-79.5 338,-98.5 422,-98.5 422,-79.5 338,-79.5"/>
<text text-anchor="middle" x="380" y="-86.5" font-family="Helvetica,sans-Serif" font-size="10.00">ActiveReceptor</text>
</a>
</g>
</g>
<!-- Node5&#45;&gt;Node25 -->
<g id="edge42" class="edge"><title>Node5&#45;&gt;Node25</title>
<path fill="none" stroke="#9a32cd" stroke-dasharray="5,2" d="M126,-411.394C126,-393.388 126,-365.324 126,-341 126,-341 126,-341 126,-162.5 126,-118.992 265.546,-100.15 337.772,-93.3118"/>
<polygon fill="#9a32cd" stroke="#9a32cd" points="122.5,-411.408 126,-421.408 129.5,-411.408 122.5,-411.408"/>
<text text-anchor="middle" x="130.5" y="-235.5" font-family="Helvetica,sans-Serif" font-size="10.00"> x</text>
</g>
<!-- Node6 -->
<g id="node6" class="node"><title>Node6</title>
<g id="a_node6"><a xlink:href="structUT__hash__handle.html" target="_top" xlink:title="UT_hash_handle">
<polygon fill="white" stroke="black" points="221,-421.5 221,-440.5 311,-440.5 311,-421.5 221,-421.5"/>
<text text-anchor="middle" x="266" y="-428.5" font-family="Helvetica,sans-Serif" font-size="10.00">UT_hash_handle</text>
</a>
</g>
</g>
<!-- Node6&#45;&gt;Node4 -->
<g id="edge6" class="edge"><title>Node6&#45;&gt;Node4</title>
<path fill="none" stroke="#9a32cd" stroke-dasharray="5,2" d="M210.863,-424.997C185.796,-421.114 156.365,-414.223 132,-402 105.703,-388.808 81.5625,-363.067 70.0635,-349.631"/>
<polygon fill="#9a32cd" stroke="#9a32cd" points="210.556,-428.489 220.95,-426.437 211.545,-421.559 210.556,-428.489"/>
<text text-anchor="middle" x="139" y="-383" font-family="Helvetica,sans-Serif" font-size="10.00"> hh</text>
</g>
<!-- Node6&#45;&gt;Node6 -->
<g id="edge7" class="edge"><title>Node6&#45;&gt;Node6</title>
<path fill="none" stroke="#9a32cd" stroke-dasharray="5,2" d="M321.264,-435.98C326.026,-434.922 329,-433.262 329,-431 329,-427.381 321.386,-425.303 311.02,-424.765"/>
<polygon fill="#9a32cd" stroke="#9a32cd" points="320.521,-432.545 311.02,-437.235 321.372,-439.493 320.521,-432.545"/>
<text text-anchor="middle" x="348" y="-434" font-family="Helvetica,sans-Serif" font-size="10.00"> hh_prev</text>
<text text-anchor="middle" x="348" y="-423" font-family="Helvetica,sans-Serif" font-size="10.00">hh_next</text>
</g>
<!-- Node7 -->
<g id="node7" class="node"><title>Node7</title>
<g id="a_node7"><a xlink:href="structUT__hash__table.html" target="_top" xlink:title="UT_hash_table">
<polygon fill="white" stroke="black" points="325.5,-228.5 325.5,-247.5 408.5,-247.5 408.5,-228.5 325.5,-228.5"/>
<text text-anchor="middle" x="367" y="-235.5" font-family="Helvetica,sans-Serif" font-size="10.00">UT_hash_table</text>
</a>
</g>
</g>
<!-- Node6&#45;&gt;Node7 -->
<g id="edge11" class="edge"><title>Node6&#45;&gt;Node7</title>
<path fill="none" stroke="#9a32cd" stroke-dasharray="5,2" d="M258.177,-411.968C250.416,-391.628 240.66,-357.651 248,-329 255.8,-298.556 257.836,-287.094 282,-267 289.944,-260.394 312.576,-253.094 332.491,-247.605"/>
<polygon fill="#9a32cd" stroke="#9a32cd" points="254.946,-413.313 261.953,-421.26 261.431,-410.678 254.946,-413.313"/>
<text text-anchor="middle" x="256" y="-337.5" font-family="Helvetica,sans-Serif" font-size="10.00"> tail</text>
</g>
<!-- Node8 -->
<g id="node8" class="node"><title>Node8</title>
<g id="a_node8"><a xlink:href="structUT__hash__bucket.html" target="_top" xlink:title="UT_hash_bucket">
<polygon fill="white" stroke="black" points="298.5,-330.5 298.5,-349.5 389.5,-349.5 389.5,-330.5 298.5,-330.5"/>
<text text-anchor="middle" x="344" y="-337.5" font-family="Helvetica,sans-Serif" font-size="10.00">UT_hash_bucket</text>
</a>
</g>
</g>
<!-- Node6&#45;&gt;Node8 -->
<g id="edge10" class="edge"><title>Node6&#45;&gt;Node8</title>
<path fill="none" stroke="#9a32cd" stroke-dasharray="5,2" d="M280.285,-413.7C296.83,-394.822 323.468,-364.427 336.429,-349.639"/>
<polygon fill="#9a32cd" stroke="#9a32cd" points="277.438,-411.639 273.479,-421.466 282.702,-416.253 277.438,-411.639"/>
<text text-anchor="middle" x="339" y="-383" font-family="Helvetica,sans-Serif" font-size="10.00"> hh_head</text>
</g>
<!-- Node17 -->
<g id="node17" class="node"><title>Node17</title>
<g id="a_node17"><a xlink:href="structtable__elem.html" target="_top" xlink:title="table_elem">
<polygon fill="white" stroke="black" points="141,-279.5 141,-298.5 205,-298.5 205,-279.5 141,-279.5"/>
<text text-anchor="middle" x="173" y="-286.5" font-family="Helvetica,sans-Serif" font-size="10.00">table_elem</text>
</a>
</g>
</g>
<!-- Node6&#45;&gt;Node17 -->
<g id="edge24" class="edge"><title>Node6&#45;&gt;Node17</title>
<path fill="none" stroke="#9a32cd" stroke-dasharray="5,2" d="M211.37,-420.088C201.648,-415.982 192.549,-410.185 186,-402 161.296,-371.126 167.484,-319.242 171.194,-298.727"/>
<polygon fill="#9a32cd" stroke="#9a32cd" points="210.225,-423.396 220.819,-423.528 212.62,-416.818 210.225,-423.396"/>
<text text-anchor="middle" x="193" y="-383" font-family="Helvetica,sans-Serif" font-size="10.00"> hh</text>
</g>
<!-- Node6&#45;&gt;Node18 -->
<g id="edge26" class="edge"><title>Node6&#45;&gt;Node18</title>
<path fill="none" stroke="#9a32cd" stroke-dasharray="5,2" d="M321.182,-420.186C335.549,-416.038 350.492,-410.195 363,-402 396.346,-380.15 470.161,-278.224 491.877,-247.675"/>
<polygon fill="#9a32cd" stroke="#9a32cd" points="320.13,-416.844 311.364,-422.795 321.928,-423.609 320.13,-416.844"/>
<text text-anchor="middle" x="437" y="-337.5" font-family="Helvetica,sans-Serif" font-size="10.00"> hh</text>
</g>
<!-- Node19 -->
<g id="node19" class="node"><title>Node19</title>
<g id="a_node19"><a xlink:href="structinstance__elem.html" target="_top" xlink:title="instance_elem">
<polygon fill="white" stroke="black" points="458,-330.5 458,-349.5 538,-349.5 538,-330.5 458,-330.5"/>
<text text-anchor="middle" x="498" y="-337.5" font-family="Helvetica,sans-Serif" font-size="10.00">instance_elem</text>
</a>
</g>
</g>
<!-- Node6&#45;&gt;Node19 -->
<g id="edge28" class="edge"><title>Node6&#45;&gt;Node19</title>
<path fill="none" stroke="#9a32cd" stroke-dasharray="5,2" d="M321.231,-429.69C356.388,-427.455 401.928,-420.666 438,-402 462.275,-389.439 482.651,-363.422 492.192,-349.781"/>
<polygon fill="#9a32cd" stroke="#9a32cd" points="320.942,-426.201 311.142,-430.226 321.313,-433.191 320.942,-426.201"/>
<text text-anchor="middle" x="484" y="-383" font-family="Helvetica,sans-Serif" font-size="10.00"> hh</text>
</g>
<!-- Node7&#45;&gt;Node6 -->
<g id="edge8" class="edge"><title>Node7&#45;&gt;Node6</title>
<path fill="none" stroke="#9a32cd" stroke-dasharray="5,2" d="M345.054,-253.344C323.114,-269.034 290.477,-296.348 275,-329 260.146,-360.338 262.824,-403.255 264.847,-421.372"/>
<polygon fill="#9a32cd" stroke="#9a32cd" points="347.211,-256.107 353.44,-247.537 343.226,-250.352 347.211,-256.107"/>
<text text-anchor="middle" x="282" y="-337.5" font-family="Helvetica,sans-Serif" font-size="10.00"> tbl</text>
</g>
<!-- Node8&#45;&gt;Node7 -->
<g id="edge9" class="edge"><title>Node8&#45;&gt;Node7</title>
<path fill="none" stroke="#9a32cd" stroke-dasharray="5,2" d="M348.256,-320.494C353.259,-298.741 361.348,-263.576 365.044,-247.504"/>
<polygon fill="#9a32cd" stroke="#9a32cd" points="344.792,-319.944 345.961,-330.474 351.613,-321.513 344.792,-319.944"/>
<text text-anchor="middle" x="380" y="-286.5" font-family="Helvetica,sans-Serif" font-size="10.00"> buckets</text>
</g>
<!-- Node9 -->
<g id="node9" class="node"><title>Node9</title>
<g id="a_node9"><a xlink:href="structSemTable.html" target="_top" xlink:title="SemTable">
<polygon fill="white" stroke="black" points="671.5,-228.5 671.5,-247.5 732.5,-247.5 732.5,-228.5 671.5,-228.5"/>
<text text-anchor="middle" x="702" y="-235.5" font-family="Helvetica,sans-Serif" font-size="10.00">SemTable</text>
</a>
</g>
</g>
<!-- Node9&#45;&gt;Node1 -->
<g id="edge12" class="edge"><title>Node9&#45;&gt;Node1</title>
<path fill="none" stroke="#9a32cd" stroke-dasharray="5,2" d="M698.765,-218.21C692.591,-186.657 676.725,-122.15 644,-78 609.189,-31.0363 536.779,-16.9875 497.582,-12.788"/>
<polygon fill="#9a32cd" stroke="#9a32cd" points="695.36,-219.045 700.614,-228.245 702.244,-217.777 695.36,-219.045"/>
<text text-anchor="middle" x="683" y="-121" font-family="Helvetica,sans-Serif" font-size="10.00"> sem</text>
</g>
<!-- Node15 -->
<g id="node15" class="node"><title>Node15</title>
<g id="a_node15"><a xlink:href="structReceptor.html" target="_top" xlink:title="Receptor">
<polygon fill="white" stroke="black" points="470,-154 470,-173 526,-173 526,-154 470,-154"/>
<text text-anchor="middle" x="498" y="-161" font-family="Helvetica,sans-Serif" font-size="10.00">Receptor</text>
</a>
</g>
</g>
<!-- Node9&#45;&gt;Node15 -->
<g id="edge22" class="edge"><title>Node9&#45;&gt;Node15</title>
<path fill="none" stroke="#9a32cd" stroke-dasharray="5,2" d="M683.286,-222.118C672.152,-213.925 657.422,-204.192 643,-198 604.302,-181.384 556.099,-172.347 526.184,-167.973"/>
<polygon fill="#9a32cd" stroke="#9a32cd" points="681.291,-224.997 691.37,-228.261 685.526,-219.424 681.291,-224.997"/>
<text text-anchor="middle" x="675" y="-201" font-family="Helvetica,sans-Serif" font-size="10.00"> sem</text>
</g>
<!-- Node10 -->
<g id="node10" class="node"><title>Node10</title>
<g id="a_node10"><a xlink:href="structContextStore.html" target="_top" xlink:title="ContextStore">
<polygon fill="white" stroke="black" points="698,-330.5 698,-349.5 772,-349.5 772,-330.5 698,-330.5"/>
<text text-anchor="middle" x="735" y="-337.5" font-family="Helvetica,sans-Serif" font-size="10.00">ContextStore</text>
</a>
</g>
</g>
<!-- Node10&#45;&gt;Node9 -->
<g id="edge13" class="edge"><title>Node10&#45;&gt;Node9</title>
<path fill="none" stroke="#9a32cd" stroke-dasharray="5,2" d="M733.443,-320.243C731.719,-305.351 728.17,-284.24 721,-267 718.113,-260.057 713.363,-253.057 709.334,-247.793"/>
<polygon fill="#9a32cd" stroke="#9a32cd" points="729.966,-320.646 734.436,-330.252 736.932,-319.955 729.966,-320.646"/>
<text text-anchor="middle" x="748.5" y="-286.5" font-family="Helvetica,sans-Serif" font-size="10.00"> stores</text>
</g>
<!-- Node11 -->
<g id="node11" class="node"><title>Node11</title>
<g id="a_node11"><a xlink:href="structT.html" target="_top" xlink:title="T">
<polygon fill="white" stroke="black" points="650.5,-421.5 650.5,-440.5 679.5,-440.5 679.5,-421.5 650.5,-421.5"/>
<text text-anchor="middle" x="665" y="-428.5" font-family="Helvetica,sans-Serif" font-size="10.00">T</text>
</a>
</g>
</g>
<!-- Node11&#45;&gt;Node10 -->
<g id="edge14" class="edge"><title>Node11&#45;&gt;Node10</title>
<path fill="none" stroke="#9a32cd" stroke-dasharray="5,2" d="M688.573,-419.533C696.541,-415.065 704.944,-409.199 711,-402 724.188,-386.325 730.695,-362.535 733.397,-349.792"/>
<polygon fill="#9a32cd" stroke="#9a32cd" points="686.892,-416.461 679.585,-424.132 690.081,-422.693 686.892,-416.461"/>
<text text-anchor="middle" x="753" y="-383" font-family="Helvetica,sans-Serif" font-size="10.00"> definitions</text>
</g>
<!-- Node12 -->
<g id="node12" class="node"><title>Node12</title>
<g id="a_node12"><a xlink:href="structTstruct.html" target="_top" xlink:title="Tstruct">
<polygon fill="white" stroke="black" points="594.5,-330.5 594.5,-349.5 641.5,-349.5 641.5,-330.5 594.5,-330.5"/>
<text text-anchor="middle" x="618" y="-337.5" font-family="Helvetica,sans-Serif" font-size="10.00">Tstruct</text>
</a>
</g>
</g>
<!-- Node11&#45;&gt;Node12 -->
<g id="edge16" class="edge"><title>Node11&#45;&gt;Node12</title>
<path fill="none" stroke="#9a32cd" stroke-dasharray="5,2" d="M640.019,-427.727C623.119,-424.74 601.952,-417.853 591,-402 582.664,-389.933 585.511,-382.601 591,-369 594.083,-361.36 600.36,-354.643 606.086,-349.704"/>
<polygon fill="#9a32cd" stroke="#9a32cd" points="639.969,-431.254 650.359,-429.181 640.944,-424.322 639.969,-431.254"/>
<text text-anchor="middle" x="608" y="-388.5" font-family="Helvetica,sans-Serif" font-size="10.00"> parent</text>
<text text-anchor="middle" x="608" y="-377.5" font-family="Helvetica,sans-Serif" font-size="10.00">children</text>
</g>
<!-- Node11&#45;&gt;Node15 -->
<g id="edge39" class="edge"><title>Node11&#45;&gt;Node15</title>
<path fill="none" stroke="#9a32cd" stroke-dasharray="5,2" d="M680.45,-412.892C682.729,-409.495 684.734,-405.797 686,-402 690.638,-388.086 691.255,-382.693 686,-369 677.431,-346.67 667.116,-345.706 650,-329 641.203,-320.413 637.307,-320.061 629,-311 587.241,-265.454 592.379,-240.998 548,-198 537.794,-188.112 524.321,-179.275 513.932,-173.164"/>
<polygon fill="#9a32cd" stroke="#9a32cd" points="677.481,-411.007 674.092,-421.045 683.001,-415.312 677.481,-411.007"/>
<text text-anchor="middle" x="673" y="-303" font-family="Helvetica,sans-Serif" font-size="10.00"> pending_responses</text>
<text text-anchor="middle" x="673" y="-292" font-family="Helvetica,sans-Serif" font-size="10.00">root</text>
<text text-anchor="middle" x="673" y="-281" font-family="Helvetica,sans-Serif" font-size="10.00">pending_signals</text>
<text text-anchor="middle" x="673" y="-270" font-family="Helvetica,sans-Serif" font-size="10.00">flux</text>
</g>
<!-- Node11&#45;&gt;Node19 -->
<g id="edge29" class="edge"><title>Node11&#45;&gt;Node19</title>
<path fill="none" stroke="#9a32cd" stroke-dasharray="5,2" d="M640.183,-429.422C613.811,-427.716 571.878,-421.784 542,-402 521.967,-388.735 508.001,-363.026 501.73,-349.614"/>
<polygon fill="#9a32cd" stroke="#9a32cd" points="640.294,-432.931 650.452,-429.922 640.634,-425.939 640.294,-432.931"/>
<text text-anchor="middle" x="562" y="-383" font-family="Helvetica,sans-Serif" font-size="10.00"> instance</text>
</g>
<!-- Node22 -->
<g id="node22" class="node"><title>Node22</title>
<g id="a_node22"><a xlink:href="structR.html" target="_top" xlink:title="R">
<polygon fill="white" stroke="black" points="790.5,-330.5 790.5,-349.5 819.5,-349.5 819.5,-330.5 790.5,-330.5"/>
<text text-anchor="middle" x="805" y="-337.5" font-family="Helvetica,sans-Serif" font-size="10.00">R</text>
</a>
</g>
</g>
<!-- Node11&#45;&gt;Node22 -->
<g id="edge36" class="edge"><title>Node11&#45;&gt;Node22</title>
<path fill="none" stroke="#9a32cd" stroke-dasharray="5,2" d="M689.839,-430.375C715.591,-429.447 755.571,-424.141 781,-402 796.621,-388.399 802.161,-363.305 804.059,-349.935"/>
<polygon fill="#9a32cd" stroke="#9a32cd" points="689.699,-426.876 679.758,-430.54 689.814,-433.875 689.699,-426.876"/>
<text text-anchor="middle" x="828" y="-394" font-family="Helvetica,sans-Serif" font-size="10.00"> run_tree</text>
<text text-anchor="middle" x="828" y="-383" font-family="Helvetica,sans-Serif" font-size="10.00">node_pointer</text>
<text text-anchor="middle" x="828" y="-372" font-family="Helvetica,sans-Serif" font-size="10.00">parent</text>
</g>
<!-- Node12&#45;&gt;Node11 -->
<g id="edge15" class="edge"><title>Node12&#45;&gt;Node11</title>
<path fill="none" stroke="#9a32cd" stroke-dasharray="5,2" d="M624.454,-359.25C629.16,-371.667 636.081,-388.271 644,-402 647.886,-408.737 653.136,-415.737 657.415,-421.053"/>
<polygon fill="#9a32cd" stroke="#9a32cd" points="627.643,-357.782 620.919,-349.594 621.07,-360.188 627.643,-357.782"/>
<text text-anchor="middle" x="665" y="-383" font-family="Helvetica,sans-Serif" font-size="10.00"> structure</text>
</g>
<!-- Node13 -->
<g id="node13" class="node"><title>Node13</title>
<g id="a_node13"><a xlink:href="structTcontext.html" target="_top" xlink:title="Tcontext">
<polygon fill="white" stroke="black" points="659.5,-489.5 659.5,-508.5 714.5,-508.5 714.5,-489.5 659.5,-489.5"/>
<text text-anchor="middle" x="687" y="-496.5" font-family="Helvetica,sans-Serif" font-size="10.00">Tcontext</text>
</a>
</g>
</g>
<!-- Node13&#45;&gt;Node11 -->
<g id="edge17" class="edge"><title>Node13&#45;&gt;Node11</title>
<path fill="none" stroke="#9a32cd" stroke-dasharray="5,2" d="M680.936,-479.807C676.708,-467.124 671.254,-450.762 667.947,-440.841"/>
<polygon fill="#9a32cd" stroke="#9a32cd" points="677.641,-480.992 684.124,-489.372 684.282,-478.778 677.641,-480.992"/>
<text text-anchor="middle" x="696" y="-463" font-family="Helvetica,sans-Serif" font-size="10.00"> context</text>
</g>
<!-- Node14&#45;&gt;Node11 -->
<g id="edge18" class="edge"><title>Node14&#45;&gt;Node11</title>
<path fill="none" stroke="#9a32cd" stroke-dasharray="5,2" d="M618.186,-479.715C621.264,-473.125 625.253,-465.872 630,-460 636.066,-452.496 644.467,-445.692 651.518,-440.671"/>
<polygon fill="#9a32cd" stroke="#9a32cd" points="614.831,-478.66 614.121,-489.231 621.268,-481.41 614.831,-478.66"/>
<text text-anchor="middle" x="650.5" y="-463" font-family="Helvetica,sans-Serif" font-size="10.00"> contents</text>
</g>
<!-- Node15&#45;&gt;Node1 -->
<g id="edge20" class="edge"><title>Node15&#45;&gt;Node1</title>
<path fill="none" stroke="#9a32cd" stroke-dasharray="5,2" d="M491.771,-144.149C487.817,-131.806 482.912,-115.093 480,-100 474.381,-70.8745 472.136,-35.6673 471.359,-19.6664"/>
<polygon fill="#9a32cd" stroke="#9a32cd" points="488.472,-145.321 494.928,-153.721 495.12,-143.128 488.472,-145.321"/>
<text text-anchor="middle" x="508" y="-92" font-family="Helvetica,sans-Serif" font-size="10.00"> r</text>
<text text-anchor="middle" x="508" y="-81" font-family="Helvetica,sans-Serif" font-size="10.00">routing_table</text>
</g>
<!-- Node20 -->
<g id="node20" class="node"><title>Node20</title>
<g id="a_node20"><a xlink:href="structQ.html" target="_top" xlink:title="Q">
<polygon fill="white" stroke="black" points="606.5,-79.5 606.5,-98.5 635.5,-98.5 635.5,-79.5 606.5,-79.5"/>
<text text-anchor="middle" x="621" y="-86.5" font-family="Helvetica,sans-Serif" font-size="10.00">Q</text>
</a>
</g>
</g>
<!-- Node15&#45;&gt;Node20 -->
<g id="edge38" class="edge"><title>Node15&#45;&gt;Node20</title>
<path fill="none" stroke="#9a32cd" stroke-dasharray="5,2" d="M522.389,-148.875C533.057,-142.858 545.693,-135.653 557,-129 574.27,-118.838 593.922,-106.789 606.841,-98.8007"/>
<polygon fill="#9a32cd" stroke="#9a32cd" points="520.605,-145.863 513.603,-153.814 524.035,-151.965 520.605,-145.863"/>
<text text-anchor="middle" x="578.5" y="-121" font-family="Helvetica,sans-Serif" font-size="10.00"> r</text>
</g>
<!-- Node15&#45;&gt;Node25 -->
<g id="edge43" class="edge"><title>Node15&#45;&gt;Node25</title>
<path fill="none" stroke="#9a32cd" stroke-dasharray="5,2" d="M475.185,-148.482C451.136,-133.706 414.02,-110.902 393.981,-98.5902"/>
<polygon fill="#9a32cd" stroke="#9a32cd" points="473.648,-151.646 484,-153.899 477.312,-145.682 473.648,-151.646"/>
<text text-anchor="middle" x="446.5" y="-121" font-family="Helvetica,sans-Serif" font-size="10.00"> r</text>
</g>
<!-- Node16 -->
<g id="node16" class="node"><title>Node16</title>
<g id="a_node16"><a xlink:href="structReceptorAddress.html" target="_top" xlink:title="ReceptorAddress">
<polygon fill="white" stroke="black" points="215,-228.5 215,-247.5 307,-247.5 307,-228.5 215,-228.5"/>
<text text-anchor="middle" x="261" y="-235.5" font-family="Helvetica,sans-Serif" font-size="10.00">ReceptorAddress</text>
</a>
</g>
</g>
<!-- Node16&#45;&gt;Node15 -->
<g id="edge21" class="edge"><title>Node16&#45;&gt;Node15</title>
<path fill="none" stroke="#9a32cd" stroke-dasharray="5,2" d="M298.761,-225.449C346.436,-210.864 427.357,-186.11 469.919,-173.09"/>
<polygon fill="#9a32cd" stroke="#9a32cd" points="297.656,-222.126 289.118,-228.399 299.704,-228.82 297.656,-222.126"/>
<text text-anchor="middle" x="398" y="-201" font-family="Helvetica,sans-Serif" font-size="10.00"> addr</text>
</g>
<!-- Node17&#45;&gt;Node15 -->
<g id="edge23" class="edge"><title>Node17&#45;&gt;Node15</title>
<path fill="none" stroke="#9a32cd" stroke-dasharray="5,2" d="M170.178,-269.119C169.295,-255.668 170.612,-238.078 181,-227 220.329,-185.059 399.947,-170.211 469.952,-165.959"/>
<polygon fill="#9a32cd" stroke="#9a32cd" points="166.715,-269.652 171.286,-279.21 173.673,-268.888 166.715,-269.652"/>
<text text-anchor="middle" x="193.5" y="-235.5" font-family="Helvetica,sans-Serif" font-size="10.00"> table</text>
</g>
<!-- Node18&#45;&gt;Node15 -->
<g id="edge25" class="edge"><title>Node18&#45;&gt;Node15</title>
<path fill="none" stroke="#9a32cd" stroke-dasharray="5,2" d="M498,-218.025C498,-203.481 498,-184.095 498,-173.09"/>
<polygon fill="#9a32cd" stroke="#9a32cd" points="494.5,-218.399 498,-228.399 501.5,-218.399 494.5,-218.399"/>
<text text-anchor="middle" x="521" y="-201" font-family="Helvetica,sans-Serif" font-size="10.00"> instances</text>
</g>
<!-- Node19&#45;&gt;Node18 -->
<g id="edge27" class="edge"><title>Node19&#45;&gt;Node18</title>
<path fill="none" stroke="#9a32cd" stroke-dasharray="5,2" d="M498,-320.194C498,-298.419 498,-263.502 498,-247.504"/>
<polygon fill="#9a32cd" stroke="#9a32cd" points="494.5,-320.474 498,-330.474 501.5,-320.474 494.5,-320.474"/>
<text text-anchor="middle" x="521" y="-286.5" font-family="Helvetica,sans-Serif" font-size="10.00"> instances</text>
</g>
<!-- Node20&#45;&gt;Node15 -->
<g id="edge31" class="edge"><title>Node20&#45;&gt;Node15</title>
<path fill="none" stroke="#9a32cd" stroke-dasharray="5,2" d="M596.945,-100.11C574.131,-108.273 566.001,-107.297 548,-118 531.219,-127.977 514.93,-144.024 505.714,-153.877"/>
<polygon fill="#9a32cd" stroke="#9a32cd" points="598.357,-103.318 606.459,-96.4909 595.868,-96.7755 598.357,-103.318"/>
<text text-anchor="middle" x="552.5" y="-121" font-family="Helvetica,sans-Serif" font-size="10.00"> q</text>
</g>
<!-- Node21 -->
<g id="node21" class="node"><title>Node21</title>
<g id="a_node21"><a xlink:href="structQe.html" target="_top" xlink:title="Qe">
<polygon fill="white" stroke="black" points="790.5,-228.5 790.5,-247.5 819.5,-247.5 819.5,-228.5 790.5,-228.5"/>
<text text-anchor="middle" x="805" y="-235.5" font-family="Helvetica,sans-Serif" font-size="10.00">Qe</text>
</a>
</g>
</g>
<!-- Node21&#45;&gt;Node20 -->
<g id="edge32" class="edge"><title>Node21&#45;&gt;Node20</title>
<path fill="none" stroke="#9a32cd" stroke-dasharray="5,2" d="M786.05,-221.861C747.675,-191.202 661.861,-122.644 631.717,-98.5623"/>
<polygon fill="#9a32cd" stroke="#9a32cd" points="784.315,-224.954 794.312,-228.461 788.684,-219.485 784.315,-224.954"/>
<text text-anchor="middle" x="755" y="-172" font-family="Helvetica,sans-Serif" font-size="10.00"> active</text>
<text text-anchor="middle" x="755" y="-161" font-family="Helvetica,sans-Serif" font-size="10.00">blocked</text>
<text text-anchor="middle" x="755" y="-150" font-family="Helvetica,sans-Serif" font-size="10.00">completed</text>
</g>
<!-- Node21&#45;&gt;Node21 -->
<g id="edge33" class="edge"><title>Node21&#45;&gt;Node21</title>
<path fill="none" stroke="#9a32cd" stroke-dasharray="5,2" d="M830.048,-243.981C834.441,-243.187 837.5,-241.194 837.5,-238 837.5,-232.621 828.824,-230.646 819.706,-232.075"/>
<polygon fill="#9a32cd" stroke="#9a32cd" points="829.725,-240.48 819.706,-243.925 829.687,-247.479 829.725,-240.48"/>
<text text-anchor="middle" x="848.5" y="-241" font-family="Helvetica,sans-Serif" font-size="10.00"> prev</text>
<text text-anchor="middle" x="848.5" y="-230" font-family="Helvetica,sans-Serif" font-size="10.00">next</text>
</g>
<!-- Node22&#45;&gt;Node21 -->
<g id="edge34" class="edge"><title>Node22&#45;&gt;Node21</title>
<path fill="none" stroke="#9a32cd" stroke-dasharray="5,2" d="M805,-320.194C805,-298.419 805,-263.502 805,-247.504"/>
<polygon fill="#9a32cd" stroke="#9a32cd" points="801.5,-320.474 805,-330.474 808.5,-320.474 801.5,-320.474"/>
<text text-anchor="middle" x="823" y="-286.5" font-family="Helvetica,sans-Serif" font-size="10.00"> context</text>
</g>
<!-- Node22&#45;&gt;Node22 -->
<g id="edge35" class="edge"><title>Node22&#45;&gt;Node22</title>
<path fill="none" stroke="#9a32cd" stroke-dasharray="5,2" d="M830.048,-347.74C834.441,-346.713 837.5,-344.133 837.5,-340 837.5,-333.039 828.824,-330.483 819.706,-332.332"/>
<polygon fill="#9a32cd" stroke="#9a32cd" points="829.731,-344.238 819.706,-347.668 829.682,-351.238 829.731,-344.238"/>
<text text-anchor="middle" x="851" y="-343" font-family="Helvetica,sans-Serif" font-size="10.00"> caller</text>
<text text-anchor="middle" x="851" y="-332" font-family="Helvetica,sans-Serif" font-size="10.00">callee</text>
</g>
<!-- Node23 -->
<g id="node23" class="node"><title>Node23</title>
<g id="a_node23"><a xlink:href="structAccounting.html" target="_top" xlink:title="Accounting">
<polygon fill="white" stroke="black" points="882.5,-330.5 882.5,-349.5 947.5,-349.5 947.5,-330.5 882.5,-330.5"/>
<text text-anchor="middle" x="915" y="-337.5" font-family="Helvetica,sans-Serif" font-size="10.00">Accounting</text>
</a>
</g>
</g>
<!-- Node23&#45;&gt;Node21 -->
<g id="edge37" class="edge"><title>Node23&#45;&gt;Node21</title>
<path fill="none" stroke="#9a32cd" stroke-dasharray="5,2" d="M900.585,-322.473C886.968,-307.287 865.612,-284.542 845,-267 836.737,-259.968 826.737,-252.968 818.803,-247.726"/>
<polygon fill="#9a32cd" stroke="#9a32cd" points="898.049,-324.888 907.3,-330.051 903.288,-320.246 898.049,-324.888"/>
<text text-anchor="middle" x="911.5" y="-286.5" font-family="Helvetica,sans-Serif" font-size="10.00"> accounts</text>
</g>
<!-- Node24 -->
<g id="node24" class="node"><title>Node24</title>
<g id="a_node24"><a xlink:href="structthread.html" target="_top" xlink:title="thread">
<polygon fill="white" stroke="black" points="545,-79.5 545,-98.5 589,-98.5 589,-79.5 545,-79.5"/>
<text text-anchor="middle" x="567" y="-86.5" font-family="Helvetica,sans-Serif" font-size="10.00">thread</text>
</a>
</g>
</g>
<!-- Node24&#45;&gt;Node1 -->
<g id="edge40" class="edge"><title>Node24&#45;&gt;Node1</title>
<path fill="none" stroke="#9a32cd" stroke-dasharray="5,2" d="M548.345,-73.037C528.498,-57.1185 497.791,-32.489 481.688,-19.5728"/>
<polygon fill="#9a32cd" stroke="#9a32cd" points="546.369,-75.9388 556.36,-79.4655 550.749,-70.4783 546.369,-75.9388"/>
<text text-anchor="middle" x="559" y="-52" font-family="Helvetica,sans-Serif" font-size="10.00"> vm_thread</text>
<text text-anchor="middle" x="559" y="-41" font-family="Helvetica,sans-Serif" font-size="10.00">clock_thread</text>
</g>
<!-- Node25&#45;&gt;Node1 -->
<g id="edge41" class="edge"><title>Node25&#45;&gt;Node1</title>
<path fill="none" stroke="#9a32cd" stroke-dasharray="5,2" d="M375.402,-69.229C374.035,-59.0204 374.366,-46.7327 381,-38 395.605,-18.7751 423.403,-12.7549 444.259,-11.0969"/>
<polygon fill="#9a32cd" stroke="#9a32cd" points="372,-70.0699 377.334,-79.2238 378.873,-68.7412 372,-70.0699"/>
<text text-anchor="middle" x="419" y="-46.5" font-family="Helvetica,sans-Serif" font-size="10.00"> active_receptors</text>
</g>
</g>
</svg>
        <g id="navigator" transform="translate(0 0)" fill="#404254">
                <rect fill="#f2f5e9" fill-opacity="0.5" stroke="#606060" stroke-width=".5" x="0" y="0" width="60" height="60"/>
                <use id="zoomplus" xlink:href="#zoomPlus" x="17" y="9" onmousedown="handleZoom(evt,'in')"/>
                <use id="zoomminus" xlink:href="#zoomMin" x="42" y="9" onmousedown="handleZoom(evt,'out')"/>
                <use id="reset" xlink:href="#resetDef" x="30" y="36" onmousedown="handleReset()"/>
                <g id="arrowUp" xlink:href="#dirArrow" transform="translate(30 24)" onmousedown="handlePan(0,-1)">
                  <use xlink:href="#rim" fill="#404040">
                        <set attributeName="fill" to="#808080" begin="arrowUp.mouseover" end="arrowUp.mouseout"/>
                  </use>
                  <path fill="none" stroke="white" stroke-width="1.5" d="M0,-3.0v7 M-2.5,-0.5L0,-3.0L2.5,-0.5"/>
                </g>
                <g id="arrowRight" xlink:href="#dirArrow" transform="rotate(90) translate(36 -43)" onmousedown="handlePan(1,0)">
                  <use xlink:href="#rim" fill="#404040">
                        <set attributeName="fill" to="#808080" begin="arrowRight.mouseover" end="arrowRight.mouseout"/>
                  </use>
                  <path fill="none" stroke="white" stroke-width="1.5" d="M0,-3.0v7 M-2.5,-0.5L0,-3.0L2.5,-0.5"/>
                </g>
                <g id="arrowDown" xlink:href="#dirArrow" transform="rotate(180) translate(-30 -48)" onmousedown="handlePan(0,1)">
                  <use xlink:href="#rim" fill="#404040">
                        <set attributeName="fill" to="#808080" begin="arrowDown.mouseover" end="arrowDown.mouseout"/>
                  </use>
                  <path fill="none" stroke="white" stroke-width="1.5" d="M0,-3.0v7 M-2.5,-0.5L0,-3.0L2.5,-0.5"/>
                </g>
                <g id="arrowLeft" xlink:href="#dirArrow" transform="rotate(270) translate(-36 17)" onmousedown="handlePan(-1,0)">
                  <use xlink:href="#rim" fill="#404040">
                        <set attributeName="fill" to="#808080" begin="arrowLeft.mouseover" end="arrowLeft.mouseout"/>
                  </use>
                  <path fill="none" stroke="white" stroke-width="1.5" d="M0,-3.0v7 M-2.5,-0.5L0,-3.0L2.5,-0.5"/>
                </g>
        </g>
        <svg viewBox="0 0 15 15" width="100%" height="30px" preserveAspectRatio="xMaxYMin meet">
         <g id="arrow_out" transform="scale(0.3 0.3)">
          <a xlink:href="structVMHost__coll__graph_org.svg" target="_base">
           <rect id="button" ry="5" rx="5" y="6" x="6" height="38" width="38"
                fill="#f2f5e9" fill-opacity="0.5" stroke="#606060" stroke-width="1.0"/>
           <path id="arrow"
             d="M 11.500037,31.436501 C 11.940474,20.09759 22.043105,11.32322 32.158766,21.979434 L 37.068811,17.246167 C 37.068811,17.246167 37.088388,32 37.088388,32 L 22.160133,31.978069 C 22.160133,31.978069 26.997745,27.140456 26.997745,27.140456 C 18.528582,18.264221 13.291696,25.230495 11.500037,31.436501 z"
             style="fill:#404040;"/>
          </a>
         </g>
        </svg>
</svg>
