<?xml version="1.0" encoding="UTF-8" standalone="no"?>
<!DOCTYPE svg PUBLIC "-//W3C//DTD SVG 1.1//EN"
 "http://www.w3.org/Graphics/SVG/1.1/DTD/svg11.dtd">
<!-- Generated by graphviz version 2.38.0 (20140413.2041)
 -->
<!-- Title: VMHost Pages: 1 -->
<!--zoomable 648 -->
<svg id="main" version="1.1" xmlns="http://www.w3.org/2000/svg" xmlns:xlink="http://www.w3.org/1999/xlink" xml:space="preserve" onload="init(evt)">
<style type="text/css"><![CDATA[
.edge:hover path { stroke: red; }
.edge:hover polygon { stroke: red; fill: red; }
]]></style>
<script type="text/javascript"><![CDATA[
var edges = document.getElementsByTagName('g');
if (edges && edges.length) {
  for (var i=0;i<edges.length;i++) {
    if (edges[i].id.substr(0,4)=='edge') {
      edges[i].setAttribute('class','edge');
    }
  }
}
]]></script>
        <defs>
                <circle id="rim" cx="0" cy="0" r="7"/>
                <circle id="rim2" cx="0" cy="0" r="3.5"/>
                <g id="zoomPlus">
                        <use xlink:href="#rim" fill="#404040">
                                <set attributeName="fill" to="#808080" begin="zoomplus.mouseover" end="zoomplus.mouseout"/>
                        </use>
                        <path d="M-4,0h8M0,-4v8" fill="none" stroke="white" stroke-width="1.5" pointer-events="none"/>
                </g>
                <g id="zoomMin">
                        <use xlink:href="#rim" fill="#404040">
                                <set attributeName="fill" to="#808080" begin="zoomminus.mouseover" end="zoomminus.mouseout"/>
                        </use>
                        <path d="M-4,0h8" fill="none" stroke="white" stroke-width="1.5" pointer-events="none"/>
                </g>
                <g id="dirArrow">
                        <path fill="none" stroke="white" stroke-width="1.5" d="M0,-3.0v7 M-2.5,-0.5L0,-3.0L2.5,-0.5"/>
                </g>
               <g id="resetDef">
                       <use xlink:href="#rim2" fill="#404040">
                               <set attributeName="fill" to="#808080" begin="reset.mouseover" end="reset.mouseout"/>
                       </use>
               </g>
        </defs>

<script type="text/javascript">
var viewWidth = 924;
var viewHeight = 648;
var sectionId = 'dynsection-0';
</script>
<script xlink:href="svgpan.js"/>
<svg id="graph" class="graph">
<g id="viewport">
<title>VMHost</title>
<polygon fill="white" stroke="none" points="-4,4 -4,-644 919.503,-644 919.503,4 -4,4"/>
<!-- Node1 -->
<g id="node1" class="node"><title>Node1</title>
<polygon fill="#bfbfbf" stroke="black" points="481.003,-0.5 481.003,-19.5 534.003,-19.5 534.003,-0.5 481.003,-0.5"/>
<text text-anchor="middle" x="507.503" y="-7.5" font-family="Helvetica,sans-Serif" font-size="10.00">VMHost</text>
</g>
<!-- Node2 -->
<g id="node2" class="node"><title>Node2</title>
<g id="a_node2"><a xlink:href="structScape.html" target="_top" xlink:title="Scape">
<polygon fill="white" stroke="black" points="670.503,-383.5 670.503,-402.5 714.503,-402.5 714.503,-383.5 670.503,-383.5"/>
<text text-anchor="middle" x="692.503" y="-390.5" font-family="Helvetica,sans-Serif" font-size="10.00">Scape</text>
</a>
</g>
</g>
<!-- Node2&#45;&gt;Node1 -->
<g id="edge1" class="edge"><title>Node2&#45;&gt;Node1</title>
<path fill="none" stroke="#9a32cd" stroke-dasharray="5,2" d="M692.933,-373.074C693.521,-345.545 694.503,-292.848 694.503,-248 694.503,-248 694.503,-248 694.503,-87 694.503,-64.3508 697.476,-52.9968 680.503,-38 659.261,-19.231 577.152,-13.4792 534.135,-11.7394"/>
<polygon fill="#9a32cd" stroke="#9a32cd" points="689.431,-373.16 692.71,-383.234 696.429,-373.314 689.431,-373.16"/>
<text text-anchor="middle" x="737.003" y="-175.5" font-family="Helvetica,sans-Serif" font-size="10.00"> installed_receptors</text>
</g>
<!-- Node3 -->
<g id="node3" class="node"><title>Node3</title>
<g id="a_node3"><a xlink:href="structSemanticID.html" target="_top" xlink:title="SemanticID">
<polygon fill="white" stroke="black" points="497.503,-620.5 497.503,-639.5 565.503,-639.5 565.503,-620.5 497.503,-620.5"/>
<text text-anchor="middle" x="531.503" y="-627.5" font-family="Helvetica,sans-Serif" font-size="10.00">SemanticID</text>
</a>
</g>
</g>
<!-- Node3&#45;&gt;Node2 -->
<g id="edge2" class="edge"><title>Node3&#45;&gt;Node2</title>
<path fill="none" stroke="#9a32cd" stroke-dasharray="5,2" d="M564.61,-616.468C597.863,-601.93 647.39,-574.513 670.503,-533 694.987,-489.026 694.313,-425.817 693.115,-402.804"/>
<polygon fill="#9a32cd" stroke="#9a32cd" points="563.137,-613.29 555.279,-620.397 565.854,-619.741 563.137,-613.29"/>
<text text-anchor="middle" x="707.503" y="-525" font-family="Helvetica,sans-Serif" font-size="10.00"> key_source</text>
<text text-anchor="middle" x="707.503" y="-514" font-family="Helvetica,sans-Serif" font-size="10.00">data_source</text>
</g>
<!-- Node5 -->
<g id="node5" class="node"><title>Node5</title>
<g id="a_node5"><a xlink:href="structXaddr.html" target="_top" xlink:title="Xaddr">
<polygon fill="white" stroke="black" points="545.503,-552.5 545.503,-571.5 587.503,-571.5 587.503,-552.5 545.503,-552.5"/>
<text text-anchor="middle" x="566.503" y="-559.5" font-family="Helvetica,sans-Serif" font-size="10.00">Xaddr</text>
</a>
</g>
</g>
<!-- Node3&#45;&gt;Node5 -->
<g id="edge5" class="edge"><title>Node3&#45;&gt;Node5</title>
<path fill="none" stroke="#9a32cd" stroke-dasharray="5,2" d="M540.95,-611.186C547.703,-598.452 556.501,-581.861 561.815,-571.841"/>
<polygon fill="#9a32cd" stroke="#9a32cd" points="537.672,-609.897 536.079,-620.372 543.856,-613.177 537.672,-609.897"/>
<text text-anchor="middle" x="569.003" y="-594" font-family="Helvetica,sans-Serif" font-size="10.00"> symbol</text>
</g>
<!-- Node14 -->
<g id="node14" class="node"><title>Node14</title>
<g id="a_node14"><a xlink:href="structTcontents.html" target="_top" xlink:title="Tcontents">
<polygon fill="white" stroke="black" points="378.503,-552.5 378.503,-571.5 438.503,-571.5 438.503,-552.5 378.503,-552.5"/>
<text text-anchor="middle" x="408.503" y="-559.5" font-family="Helvetica,sans-Serif" font-size="10.00">Tcontents</text>
</a>
</g>
</g>
<!-- Node3&#45;&gt;Node14 -->
<g id="edge19" class="edge"><title>Node3&#45;&gt;Node14</title>
<path fill="none" stroke="#9a32cd" stroke-dasharray="5,2" d="M493.384,-617.076C482.164,-612.942 470.071,-607.853 459.503,-602 443.902,-593.359 427.88,-580.285 418.058,-571.694"/>
<polygon fill="#9a32cd" stroke="#9a32cd" points="492.364,-620.427 502.959,-620.457 494.695,-613.827 492.364,-620.427"/>
<text text-anchor="middle" x="477.003" y="-594" font-family="Helvetica,sans-Serif" font-size="10.00"> symbol</text>
</g>
<!-- Node15 -->
<g id="node15" class="node"><title>Node15</title>
<g id="a_node15"><a xlink:href="structReceptorRoute.html" target="_top" xlink:title="ReceptorRoute">
<polygon fill="white" stroke="black" points="380.003,-78.5 380.003,-97.5 463.003,-97.5 463.003,-78.5 380.003,-78.5"/>
<text text-anchor="middle" x="421.503" y="-85.5" font-family="Helvetica,sans-Serif" font-size="10.00">ReceptorRoute</text>
</a>
</g>
</g>
<!-- Node3&#45;&gt;Node15 -->
<g id="edge35" class="edge"><title>Node3&#45;&gt;Node15</title>
<path fill="none" stroke="#9a32cd" stroke-dasharray="5,2" d="M521.676,-611.217C515.426,-598.251 508.503,-580.043 508.503,-563 508.503,-563 508.503,-563 508.503,-313.5 508.503,-223.63 447.139,-126.365 427.483,-97.5153"/>
<polygon fill="#9a32cd" stroke="#9a32cd" points="518.702,-613.086 526.399,-620.368 524.923,-609.876 518.702,-613.086"/>
<text text-anchor="middle" x="513.003" y="-390.5" font-family="Helvetica,sans-Serif" font-size="10.00"> s</text>
</g>
<!-- Node4 -->
<g id="node4" class="node"><title>Node4</title>
<g id="a_node4"><a xlink:href="structscape__elem.html" target="_top" xlink:title="scape_elem">
<polygon fill="white" stroke="black" points="595.003,-473.5 595.003,-492.5 664.003,-492.5 664.003,-473.5 595.003,-473.5"/>
<text text-anchor="middle" x="629.503" y="-480.5" font-family="Helvetica,sans-Serif" font-size="10.00">scape_elem</text>
</a>
</g>
</g>
<!-- Node4&#45;&gt;Node2 -->
<g id="edge3" class="edge"><title>Node4&#45;&gt;Node2</title>
<path fill="none" stroke="#9a32cd" stroke-dasharray="5,2" d="M637.938,-464.304C642.833,-454.703 649.422,-442.825 656.503,-433 664.585,-421.787 675.555,-410.325 683.255,-402.755"/>
<polygon fill="#9a32cd" stroke="#9a32cd" points="634.784,-462.787 633.499,-473.303 641.061,-465.883 634.784,-462.787"/>
<text text-anchor="middle" x="667.503" y="-441.5" font-family="Helvetica,sans-Serif" font-size="10.00"> data</text>
</g>
<!-- Node5&#45;&gt;Node4 -->
<g id="edge4" class="edge"><title>Node5&#45;&gt;Node4</title>
<path fill="none" stroke="#9a32cd" stroke-dasharray="5,2" d="M579.129,-544.264C586.639,-534.449 596.44,-521.88 605.503,-511 610.641,-504.832 616.641,-498.082 621.357,-492.874"/>
<polygon fill="#9a32cd" stroke="#9a32cd" points="576.229,-542.296 572.964,-552.375 581.802,-546.532 576.229,-542.296"/>
<text text-anchor="middle" x="619.003" y="-519.5" font-family="Helvetica,sans-Serif" font-size="10.00"> value</text>
</g>
<!-- Node24 -->
<g id="node24" class="node"><title>Node24</title>
<g id="a_node24"><a xlink:href="structActiveReceptor.html" target="_top" xlink:title="ActiveReceptor">
<polygon fill="white" stroke="black" points="581.503,-78.5 581.503,-97.5 665.503,-97.5 665.503,-78.5 581.503,-78.5"/>
<text text-anchor="middle" x="623.503" y="-85.5" font-family="Helvetica,sans-Serif" font-size="10.00">ActiveReceptor</text>
</a>
</g>
</g>
<!-- Node5&#45;&gt;Node24 -->
<g id="edge39" class="edge"><title>Node5&#45;&gt;Node24</title>
<path fill="none" stroke="#9a32cd" stroke-dasharray="5,2" d="M566.503,-542.083C566.503,-526.496 566.503,-503.814 566.503,-484 566.503,-484 566.503,-484 566.503,-177 566.503,-143.143 596.593,-112.03 613.048,-97.5463"/>
<polygon fill="#9a32cd" stroke="#9a32cd" points="563.003,-542.454 566.503,-552.454 570.003,-542.454 563.003,-542.454"/>
<text text-anchor="middle" x="571.003" y="-312" font-family="Helvetica,sans-Serif" font-size="10.00"> x</text>
</g>
<!-- Node6 -->
<g id="node6" class="node"><title>Node6</title>
<g id="a_node6"><a xlink:href="structUT__hash__handle.html" target="_top" xlink:title="UT_hash_handle">
<polygon fill="white" stroke="black" points="769.503,-552.5 769.503,-571.5 859.503,-571.5 859.503,-552.5 769.503,-552.5"/>
<text text-anchor="middle" x="814.503" y="-559.5" font-family="Helvetica,sans-Serif" font-size="10.00">UT_hash_handle</text>
</a>
</g>
</g>
<!-- Node6&#45;&gt;Node4 -->
<g id="edge6" class="edge"><title>Node6&#45;&gt;Node4</title>
<path fill="none" stroke="#9a32cd" stroke-dasharray="5,2" d="M759.33,-556.286C720.541,-552.04 672.774,-544.648 656.503,-533 642.761,-523.163 635.226,-504.061 631.809,-492.834"/>
<polygon fill="#9a32cd" stroke="#9a32cd" points="759.175,-559.788 769.485,-557.349 759.904,-552.826 759.175,-559.788"/>
<text text-anchor="middle" x="663.503" y="-519.5" font-family="Helvetica,sans-Serif" font-size="10.00"> hh</text>
</g>
<!-- Node6&#45;&gt;Node6 -->
<g id="edge7" class="edge"><title>Node6&#45;&gt;Node6</title>
<path fill="none" stroke="#9a32cd" stroke-dasharray="5,2" d="M869.767,-566.98C874.529,-565.922 877.503,-564.262 877.503,-562 877.503,-558.381 869.889,-556.303 859.524,-555.765"/>
<polygon fill="#9a32cd" stroke="#9a32cd" points="869.024,-563.545 859.524,-568.235 869.875,-570.493 869.024,-563.545"/>
<text text-anchor="middle" x="896.503" y="-565" font-family="Helvetica,sans-Serif" font-size="10.00"> hh_prev</text>
<text text-anchor="middle" x="896.503" y="-554" font-family="Helvetica,sans-Serif" font-size="10.00">hh_next</text>
</g>
<!-- Node7 -->
<g id="node7" class="node"><title>Node7</title>
<g id="a_node7"><a xlink:href="structUT__hash__table.html" target="_top" xlink:title="UT_hash_table">
<polygon fill="white" stroke="black" points="807.003,-383.5 807.003,-402.5 890.003,-402.5 890.003,-383.5 807.003,-383.5"/>
<text text-anchor="middle" x="848.503" y="-390.5" font-family="Helvetica,sans-Serif" font-size="10.00">UT_hash_table</text>
</a>
</g>
</g>
<!-- Node6&#45;&gt;Node7 -->
<g id="edge11" class="edge"><title>Node6&#45;&gt;Node7</title>
<path fill="none" stroke="#9a32cd" stroke-dasharray="5,2" d="M828.5,-544.333C830.865,-540.78 833.029,-536.913 834.503,-533 852.033,-486.472 850.465,-425.328 849.145,-402.812"/>
<polygon fill="#9a32cd" stroke="#9a32cd" points="825.676,-542.265 822.481,-552.367 831.278,-546.462 825.676,-542.265"/>
<text text-anchor="middle" x="856.503" y="-480.5" font-family="Helvetica,sans-Serif" font-size="10.00"> tail</text>
</g>
<!-- Node8 -->
<g id="node8" class="node"><title>Node8</title>
<g id="a_node8"><a xlink:href="structUT__hash__bucket.html" target="_top" xlink:title="UT_hash_bucket">
<polygon fill="white" stroke="black" points="721.003,-473.5 721.003,-492.5 812.003,-492.5 812.003,-473.5 721.003,-473.5"/>
<text text-anchor="middle" x="766.503" y="-480.5" font-family="Helvetica,sans-Serif" font-size="10.00">UT_hash_bucket</text>
</a>
</g>
</g>
<!-- Node6&#45;&gt;Node8 -->
<g id="edge10" class="edge"><title>Node6&#45;&gt;Node8</title>
<path fill="none" stroke="#9a32cd" stroke-dasharray="5,2" d="M801.975,-544.04C799.434,-540.441 796.829,-536.631 794.503,-533 785.73,-519.304 776.562,-502.767 771.199,-492.832"/>
<polygon fill="#9a32cd" stroke="#9a32cd" points="799.271,-546.275 807.965,-552.33 804.945,-542.175 799.271,-546.275"/>
<text text-anchor="middle" x="814.503" y="-519.5" font-family="Helvetica,sans-Serif" font-size="10.00"> hh_head</text>
</g>
<!-- Node7&#45;&gt;Node6 -->
<g id="edge8" class="edge"><title>Node7&#45;&gt;Node6</title>
<path fill="none" stroke="#9a32cd" stroke-dasharray="5,2" d="M857.074,-411.869C869.287,-440.197 887.596,-495.99 862.503,-533 856.656,-541.624 847.199,-547.955 838.22,-552.393"/>
<polygon fill="#9a32cd" stroke="#9a32cd" points="860.261,-410.422 852.942,-402.761 853.886,-413.313 860.261,-410.422"/>
<text text-anchor="middle" x="882.503" y="-480.5" font-family="Helvetica,sans-Serif" font-size="10.00"> tbl</text>
</g>
<!-- Node8&#45;&gt;Node7 -->
<g id="edge9" class="edge"><title>Node8&#45;&gt;Node7</title>
<path fill="none" stroke="#9a32cd" stroke-dasharray="5,2" d="M775.121,-464.466C780.468,-454.597 787.943,-442.406 796.503,-433 807.592,-420.815 822.946,-409.843 834.094,-402.664"/>
<polygon fill="#9a32cd" stroke="#9a32cd" points="772,-462.881 770.521,-473.372 778.22,-466.093 772,-462.881"/>
<text text-anchor="middle" x="815.503" y="-441.5" font-family="Helvetica,sans-Serif" font-size="10.00"> buckets</text>
</g>
<!-- Node9 -->
<g id="node9" class="node"><title>Node9</title>
<g id="a_node9"><a xlink:href="structSemTable.html" target="_top" xlink:title="SemTable">
<polygon fill="white" stroke="black" points="419.003,-237.5 419.003,-256.5 480.003,-256.5 480.003,-237.5 419.003,-237.5"/>
<text text-anchor="middle" x="449.503" y="-244.5" font-family="Helvetica,sans-Serif" font-size="10.00">SemTable</text>
</a>
</g>
</g>
<!-- Node9&#45;&gt;Node1 -->
<g id="edge12" class="edge"><title>Node9&#45;&gt;Node1</title>
<path fill="none" stroke="#9a32cd" stroke-dasharray="5,2" d="M454.069,-227.499C465.814,-179.914 496.744,-54.592 505.289,-19.9721"/>
<polygon fill="#9a32cd" stroke="#9a32cd" points="450.634,-226.81 451.636,-237.358 457.43,-228.488 450.634,-226.81"/>
<text text-anchor="middle" x="492.503" y="-130" font-family="Helvetica,sans-Serif" font-size="10.00"> sem</text>
</g>
<!-- Node16 -->
<g id="node16" class="node"><title>Node16</title>
<g id="a_node16"><a xlink:href="structReceptor.html" target="_top" xlink:title="Receptor">
<polygon fill="white" stroke="black" points="326.503,-168.5 326.503,-187.5 382.503,-187.5 382.503,-168.5 326.503,-168.5"/>
<text text-anchor="middle" x="354.503" y="-175.5" font-family="Helvetica,sans-Serif" font-size="10.00">Receptor</text>
</a>
</g>
</g>
<!-- Node9&#45;&gt;Node16 -->
<g id="edge23" class="edge"><title>Node9&#45;&gt;Node16</title>
<path fill="none" stroke="#9a32cd" stroke-dasharray="5,2" d="M428.775,-231.381C409.772,-217.979 382.281,-198.591 366.625,-187.549"/>
<polygon fill="#9a32cd" stroke="#9a32cd" points="426.894,-234.338 437.084,-237.241 430.929,-228.617 426.894,-234.338"/>
<text text-anchor="middle" x="419.503" y="-210" font-family="Helvetica,sans-Serif" font-size="10.00"> sem</text>
</g>
<!-- Node10 -->
<g id="node10" class="node"><title>Node10</title>
<g id="a_node10"><a xlink:href="structContextStore.html" target="_top" xlink:title="ContextStore">
<polygon fill="white" stroke="black" points="373.503,-383.5 373.503,-402.5 447.503,-402.5 447.503,-383.5 373.503,-383.5"/>
<text text-anchor="middle" x="410.503" y="-390.5" font-family="Helvetica,sans-Serif" font-size="10.00">ContextStore</text>
</a>
</g>
</g>
<!-- Node10&#45;&gt;Node9 -->
<g id="edge13" class="edge"><title>Node10&#45;&gt;Node9</title>
<path fill="none" stroke="#9a32cd" stroke-dasharray="5,2" d="M415.546,-373.38C424.054,-341.966 440.937,-279.628 447.143,-256.714"/>
<polygon fill="#9a32cd" stroke="#9a32cd" points="412.062,-372.856 412.826,-383.423 418.818,-374.686 412.062,-372.856"/>
<text text-anchor="middle" x="457.003" y="-312" font-family="Helvetica,sans-Serif" font-size="10.00"> stores</text>
</g>
<!-- Node11 -->
<g id="node11" class="node"><title>Node11</title>
<g id="a_node11"><a xlink:href="structT.html" target="_top" xlink:title="T">
<polygon fill="white" stroke="black" points="209.003,-473.5 209.003,-492.5 238.003,-492.5 238.003,-473.5 209.003,-473.5"/>
<text text-anchor="middle" x="223.503" y="-480.5" font-family="Helvetica,sans-Serif" font-size="10.00">T</text>
</a>
</g>
</g>
<!-- Node11&#45;&gt;Node10 -->
<g id="edge14" class="edge"><title>Node11&#45;&gt;Node10</title>
<path fill="none" stroke="#9a32cd" stroke-dasharray="5,2" d="M247.887,-473.553C261.725,-468.554 279.272,-461.871 294.503,-455 331.63,-438.253 373.55,-415.102 395.409,-402.691"/>
<polygon fill="#9a32cd" stroke="#9a32cd" points="246.377,-470.375 238.126,-477.022 248.721,-476.971 246.377,-470.375"/>
<text text-anchor="middle" x="361.503" y="-441.5" font-family="Helvetica,sans-Serif" font-size="10.00"> definitions</text>
</g>
<!-- Node12 -->
<g id="node12" class="node"><title>Node12</title>
<g id="a_node12"><a xlink:href="structTstruct.html" target="_top" xlink:title="Tstruct">
<polygon fill="white" stroke="black" points="197.003,-383.5 197.003,-402.5 244.003,-402.5 244.003,-383.5 197.003,-383.5"/>
<text text-anchor="middle" x="220.503" y="-390.5" font-family="Helvetica,sans-Serif" font-size="10.00">Tstruct</text>
</a>
</g>
</g>
<!-- Node11&#45;&gt;Node12 -->
<g id="edge16" class="edge"><title>Node11&#45;&gt;Node12</title>
<path fill="none" stroke="#9a32cd" stroke-dasharray="5,2" d="M199.92,-470.95C193.788,-466.855 187.944,-461.567 184.503,-455 174.459,-435.829 195.241,-414.186 209.211,-402.532"/>
<polygon fill="#9a32cd" stroke="#9a32cd" points="198.451,-474.144 208.863,-476.108 201.949,-468.08 198.451,-474.144"/>
<text text-anchor="middle" x="201.503" y="-447" font-family="Helvetica,sans-Serif" font-size="10.00"> parent</text>
<text text-anchor="middle" x="201.503" y="-436" font-family="Helvetica,sans-Serif" font-size="10.00">children</text>
</g>
<!-- Node11&#45;&gt;Node16 -->
<g id="edge34" class="edge"><title>Node11&#45;&gt;Node16</title>
<path fill="none" stroke="#9a32cd" stroke-dasharray="5,2" d="M247.232,-471.974C254.506,-467.765 261.817,-462.155 266.503,-455 320.433,-372.656 255.932,-324.264 299.503,-236 309.608,-215.531 329.734,-197.641 342.636,-187.592"/>
<polygon fill="#9a32cd" stroke="#9a32cd" points="245.555,-468.9 238.241,-476.565 248.738,-475.134 245.555,-468.9"/>
<text text-anchor="middle" x="331.503" y="-345" font-family="Helvetica,sans-Serif" font-size="10.00"> pending_responses</text>
<text text-anchor="middle" x="331.503" y="-334" font-family="Helvetica,sans-Serif" font-size="10.00">root</text>
<text text-anchor="middle" x="331.503" y="-323" font-family="Helvetica,sans-Serif" font-size="10.00">conversations</text>
<text text-anchor="middle" x="331.503" y="-312" font-family="Helvetica,sans-Serif" font-size="10.00">pending_signals</text>
<text text-anchor="middle" x="331.503" y="-301" font-family="Helvetica,sans-Serif" font-size="10.00">instances</text>
<text text-anchor="middle" x="331.503" y="-290" font-family="Helvetica,sans-Serif" font-size="10.00">flux</text>
<text text-anchor="middle" x="331.503" y="-279" font-family="Helvetica,sans-Serif" font-size="10.00">edge</text>
</g>
<!-- Node20 -->
<g id="node20" class="node"><title>Node20</title>
<g id="a_node20"><a xlink:href="structR.html" target="_top" xlink:title="R">
<polygon fill="white" stroke="black" points="95.0031,-237.5 95.0031,-256.5 124.003,-256.5 124.003,-237.5 95.0031,-237.5"/>
<text text-anchor="middle" x="109.503" y="-244.5" font-family="Helvetica,sans-Serif" font-size="10.00">R</text>
</a>
</g>
</g>
<!-- Node11&#45;&gt;Node20 -->
<g id="edge31" class="edge"><title>Node11&#45;&gt;Node20</title>
<path fill="none" stroke="#9a32cd" stroke-dasharray="5,2" d="M198.988,-478.316C147.267,-469.956 30.0441,-447.701 9.5031,-415 -28.065,-355.192 62.3605,-281.73 96.8299,-256.772"/>
<polygon fill="#9a32cd" stroke="#9a32cd" points="198.549,-481.79 208.972,-479.888 199.638,-474.875 198.549,-481.79"/>
<text text-anchor="middle" x="37.5031" y="-407" font-family="Helvetica,sans-Serif" font-size="10.00"> run_tree</text>
<text text-anchor="middle" x="37.5031" y="-396" font-family="Helvetica,sans-Serif" font-size="10.00">node_pointer</text>
<text text-anchor="middle" x="37.5031" y="-385" font-family="Helvetica,sans-Serif" font-size="10.00">parent</text>
<text text-anchor="middle" x="37.5031" y="-374" font-family="Helvetica,sans-Serif" font-size="10.00">sem_map</text>
</g>
<!-- Node21 -->
<g id="node21" class="node"><title>Node21</title>
<g id="a_node21"><a xlink:href="structConversationState.html" target="_top" xlink:title="ConversationState">
<polygon fill="white" stroke="black" points="74.5031,-383.5 74.5031,-402.5 172.503,-402.5 172.503,-383.5 74.5031,-383.5"/>
<text text-anchor="middle" x="123.503" y="-390.5" font-family="Helvetica,sans-Serif" font-size="10.00">ConversationState</text>
</a>
</g>
</g>
<!-- Node11&#45;&gt;Node21 -->
<g id="edge30" class="edge"><title>Node11&#45;&gt;Node21</title>
<path fill="none" stroke="#9a32cd" stroke-dasharray="5,2" d="M198.559,-480.135C166.233,-477.139 112.567,-470 100.503,-455 87.7349,-439.125 104.293,-415.417 115.249,-402.739"/>
<polygon fill="#9a32cd" stroke="#9a32cd" points="198.351,-483.63 208.613,-480.997 198.949,-476.655 198.351,-483.63"/>
<text text-anchor="middle" x="139.503" y="-447" font-family="Helvetica,sans-Serif" font-size="10.00"> converse_pointer</text>
<text text-anchor="middle" x="139.503" y="-436" font-family="Helvetica,sans-Serif" font-size="10.00">id</text>
</g>
<!-- Node12&#45;&gt;Node11 -->
<g id="edge15" class="edge"><title>Node12&#45;&gt;Node11</title>
<path fill="none" stroke="#9a32cd" stroke-dasharray="5,2" d="M221.15,-412.974C221.786,-431.628 222.728,-459.272 223.204,-473.241"/>
<polygon fill="#9a32cd" stroke="#9a32cd" points="224.639,-412.599 220.801,-402.724 217.643,-412.838 224.639,-412.599"/>
<text text-anchor="middle" x="244.503" y="-441.5" font-family="Helvetica,sans-Serif" font-size="10.00"> structure</text>
</g>
<!-- Node13 -->
<g id="node13" class="node"><title>Node13</title>
<g id="a_node13"><a xlink:href="structTcontext.html" target="_top" xlink:title="Tcontext">
<polygon fill="white" stroke="black" points="196.003,-552.5 196.003,-571.5 251.003,-571.5 251.003,-552.5 196.003,-552.5"/>
<text text-anchor="middle" x="223.503" y="-559.5" font-family="Helvetica,sans-Serif" font-size="10.00">Tcontext</text>
</a>
</g>
</g>
<!-- Node13&#45;&gt;Node11 -->
<g id="edge17" class="edge"><title>Node13&#45;&gt;Node11</title>
<path fill="none" stroke="#9a32cd" stroke-dasharray="5,2" d="M223.503,-542.315C223.503,-526.592 223.503,-504.808 223.503,-492.809"/>
<polygon fill="#9a32cd" stroke="#9a32cd" points="220.003,-542.465 223.503,-552.465 227.003,-542.465 220.003,-542.465"/>
<text text-anchor="middle" x="241.503" y="-519.5" font-family="Helvetica,sans-Serif" font-size="10.00"> context</text>
</g>
<!-- Node14&#45;&gt;Node11 -->
<g id="edge18" class="edge"><title>Node14&#45;&gt;Node11</title>
<path fill="none" stroke="#9a32cd" stroke-dasharray="5,2" d="M378.714,-548.601C338.566,-531.891 268.632,-502.783 238.271,-490.147"/>
<polygon fill="#9a32cd" stroke="#9a32cd" points="377.421,-551.854 387.998,-552.465 380.111,-545.391 377.421,-551.854"/>
<text text-anchor="middle" x="359.003" y="-519.5" font-family="Helvetica,sans-Serif" font-size="10.00"> contents</text>
</g>
<!-- Node15&#45;&gt;Node1 -->
<g id="edge20" class="edge"><title>Node15&#45;&gt;Node1</title>
<path fill="none" stroke="#9a32cd" stroke-dasharray="5,2" d="M415.036,-68.6729C412.736,-58.6901 412.09,-46.647 418.503,-38 432.738,-18.8054 460.261,-12.7804 480.949,-11.113"/>
<polygon fill="#9a32cd" stroke="#9a32cd" points="411.732,-69.8424 417.926,-78.4384 418.444,-67.8563 411.732,-69.8424"/>
<text text-anchor="middle" x="448.003" y="-46.5" font-family="Helvetica,sans-Serif" font-size="10.00"> routing_table</text>
</g>
<!-- Node16&#45;&gt;Node1 -->
<g id="edge36" class="edge"><title>Node16&#45;&gt;Node1</title>
<path fill="none" stroke="#9a32cd" stroke-dasharray="5,2" d="M352.227,-158.435C350.545,-137.65 350.438,-103.539 363.503,-78 385.668,-34.6729 445.719,-19.2416 480.879,-13.8358"/>
<polygon fill="#9a32cd" stroke="#9a32cd" points="348.754,-158.878 353.25,-168.472 355.718,-158.168 348.754,-158.878"/>
<text text-anchor="middle" x="367.003" y="-85.5" font-family="Helvetica,sans-Serif" font-size="10.00"> r</text>
</g>
<!-- Node16&#45;&gt;Node15 -->
<g id="edge21" class="edge"><title>Node16&#45;&gt;Node15</title>
<path fill="none" stroke="#9a32cd" stroke-dasharray="5,2" d="M367.406,-160.052C381.596,-141.415 403.843,-112.196 414.861,-97.7241"/>
<polygon fill="#9a32cd" stroke="#9a32cd" points="364.445,-158.164 361.172,-168.241 370.015,-162.404 364.445,-158.164"/>
<text text-anchor="middle" x="404.003" y="-130" font-family="Helvetica,sans-Serif" font-size="10.00"> r</text>
</g>
<!-- Node18 -->
<g id="node18" class="node"><title>Node18</title>
<g id="a_node18"><a xlink:href="structQ.html" target="_top" xlink:title="Q">
<polygon fill="white" stroke="black" points="286.003,-78.5 286.003,-97.5 315.003,-97.5 315.003,-78.5 286.003,-78.5"/>
<text text-anchor="middle" x="300.503" y="-85.5" font-family="Helvetica,sans-Serif" font-size="10.00">Q</text>
</a>
</g>
</g>
<!-- Node16&#45;&gt;Node18 -->
<g id="edge33" class="edge"><title>Node16&#45;&gt;Node18</title>
<path fill="none" stroke="#9a32cd" stroke-dasharray="5,2" d="M318.593,-163.496C312.643,-159.693 307.212,-154.925 303.503,-149 293.542,-133.087 296.105,-109.889 298.505,-97.5171"/>
<polygon fill="#9a32cd" stroke="#9a32cd" points="317.091,-166.664 327.543,-168.4 320.455,-160.525 317.091,-166.664"/>
<text text-anchor="middle" x="307.003" y="-130" font-family="Helvetica,sans-Serif" font-size="10.00"> r</text>
</g>
<!-- Node16&#45;&gt;Node24 -->
<g id="edge40" class="edge"><title>Node16&#45;&gt;Node24</title>
<path fill="none" stroke="#9a32cd" stroke-dasharray="5,2" d="M392.875,-177.657C427.572,-176.637 478.972,-170.993 517.503,-149 534.208,-139.465 529.63,-126.864 545.503,-116 557.565,-107.744 572.398,-101.781 585.878,-97.594"/>
<polygon fill="#9a32cd" stroke="#9a32cd" points="392.612,-174.161 382.676,-177.837 392.736,-181.159 392.612,-174.161"/>
<text text-anchor="middle" x="549.003" y="-130" font-family="Helvetica,sans-Serif" font-size="10.00"> r</text>
</g>
<!-- Node17 -->
<g id="node17" class="node"><title>Node17</title>
<g id="a_node17"><a xlink:href="structReceptorAddress.html" target="_top" xlink:title="ReceptorAddress">
<polygon fill="white" stroke="black" points="308.503,-237.5 308.503,-256.5 400.503,-256.5 400.503,-237.5 308.503,-237.5"/>
<text text-anchor="middle" x="354.503" y="-244.5" font-family="Helvetica,sans-Serif" font-size="10.00">ReceptorAddress</text>
</a>
</g>
</g>
<!-- Node17&#45;&gt;Node16 -->
<g id="edge22" class="edge"><title>Node17&#45;&gt;Node16</title>
<path fill="none" stroke="#9a32cd" stroke-dasharray="5,2" d="M354.503,-227.018C354.503,-214.034 354.503,-197.442 354.503,-187.549"/>
<polygon fill="#9a32cd" stroke="#9a32cd" points="351.003,-227.241 354.503,-237.241 358.003,-227.241 351.003,-227.241"/>
<text text-anchor="middle" x="365.503" y="-210" font-family="Helvetica,sans-Serif" font-size="10.00"> addr</text>
</g>
<!-- Node18&#45;&gt;Node16 -->
<g id="edge24" class="edge"><title>Node18&#45;&gt;Node16</title>
<path fill="none" stroke="#9a32cd" stroke-dasharray="5,2" d="M308.582,-107.011C314.352,-119.225 322.637,-135.535 331.503,-149 335.931,-155.725 341.681,-162.725 346.324,-168.044"/>
<polygon fill="#9a32cd" stroke="#9a32cd" points="311.732,-105.484 304.368,-97.8666 305.374,-108.414 311.732,-105.484"/>
<text text-anchor="middle" x="336.003" y="-130" font-family="Helvetica,sans-Serif" font-size="10.00"> q</text>
</g>
<!-- Node19 -->
<g id="node19" class="node"><title>Node19</title>
<g id="a_node19"><a xlink:href="structQe.html" target="_top" xlink:title="Qe">
<polygon fill="white" stroke="black" points="205.003,-168.5 205.003,-187.5 234.003,-187.5 234.003,-168.5 205.003,-168.5"/>
<text text-anchor="middle" x="219.503" y="-175.5" font-family="Helvetica,sans-Serif" font-size="10.00">Qe</text>
</a>
</g>
</g>
<!-- Node19&#45;&gt;Node18 -->
<g id="edge25" class="edge"><title>Node19&#45;&gt;Node18</title>
<path fill="none" stroke="#9a32cd" stroke-dasharray="5,2" d="M224.027,-158.615C228.066,-145.412 235.136,-127.914 246.503,-116 257.356,-104.625 274.03,-97.3102 285.978,-93.203"/>
<polygon fill="#9a32cd" stroke="#9a32cd" points="220.592,-157.909 221.32,-168.479 227.342,-159.762 220.592,-157.909"/>
<text text-anchor="middle" x="269.503" y="-141" font-family="Helvetica,sans-Serif" font-size="10.00"> active</text>
<text text-anchor="middle" x="269.503" y="-130" font-family="Helvetica,sans-Serif" font-size="10.00">blocked</text>
<text text-anchor="middle" x="269.503" y="-119" font-family="Helvetica,sans-Serif" font-size="10.00">completed</text>
</g>
<!-- Node19&#45;&gt;Node19 -->
<g id="edge26" class="edge"><title>Node19&#45;&gt;Node19</title>
<path fill="none" stroke="#9a32cd" stroke-dasharray="5,2" d="M244.551,-183.981C248.944,-183.187 252.003,-181.194 252.003,-178 252.003,-172.621 243.327,-170.646 234.21,-172.075"/>
<polygon fill="#9a32cd" stroke="#9a32cd" points="244.228,-180.48 234.21,-183.925 244.19,-187.479 244.228,-180.48"/>
<text text-anchor="middle" x="263.003" y="-181" font-family="Helvetica,sans-Serif" font-size="10.00"> prev</text>
<text text-anchor="middle" x="263.003" y="-170" font-family="Helvetica,sans-Serif" font-size="10.00">next</text>
</g>
<!-- Node20&#45;&gt;Node19 -->
<g id="edge27" class="edge"><title>Node20&#45;&gt;Node19</title>
<path fill="none" stroke="#9a32cd" stroke-dasharray="5,2" d="M132.614,-231.923C154.641,-218.507 187.093,-198.741 205.467,-187.549"/>
<polygon fill="#9a32cd" stroke="#9a32cd" points="130.603,-229.05 123.884,-237.241 134.245,-235.028 130.603,-229.05"/>
<text text-anchor="middle" x="189.503" y="-210" font-family="Helvetica,sans-Serif" font-size="10.00"> context</text>
</g>
<!-- Node20&#45;&gt;Node20 -->
<g id="edge28" class="edge"><title>Node20&#45;&gt;Node20</title>
<path fill="none" stroke="#9a32cd" stroke-dasharray="5,2" d="M134.551,-252.981C138.944,-252.187 142.003,-250.194 142.003,-247 142.003,-241.621 133.327,-239.646 124.21,-241.075"/>
<polygon fill="#9a32cd" stroke="#9a32cd" points="134.228,-249.48 124.21,-252.925 134.19,-256.479 134.228,-249.48"/>
<text text-anchor="middle" x="155.503" y="-250" font-family="Helvetica,sans-Serif" font-size="10.00"> caller</text>
<text text-anchor="middle" x="155.503" y="-239" font-family="Helvetica,sans-Serif" font-size="10.00">callee</text>
</g>
<!-- Node21&#45;&gt;Node20 -->
<g id="edge29" class="edge"><title>Node21&#45;&gt;Node20</title>
<path fill="none" stroke="#9a32cd" stroke-dasharray="5,2" d="M121.693,-373.38C118.639,-341.966 112.578,-279.628 110.35,-256.714"/>
<polygon fill="#9a32cd" stroke="#9a32cd" points="118.218,-373.809 122.669,-383.423 125.185,-373.132 118.218,-373.809"/>
<text text-anchor="middle" x="149.003" y="-312" font-family="Helvetica,sans-Serif" font-size="10.00"> conversation</text>
</g>
<!-- Node22 -->
<g id="node22" class="node"><title>Node22</title>
<g id="a_node22"><a xlink:href="structAccounting.html" target="_top" xlink:title="Accounting">
<polygon fill="white" stroke="black" points="187.003,-237.5 187.003,-256.5 252.003,-256.5 252.003,-237.5 187.003,-237.5"/>
<text text-anchor="middle" x="219.503" y="-244.5" font-family="Helvetica,sans-Serif" font-size="10.00">Accounting</text>
</a>
</g>
</g>
<!-- Node22&#45;&gt;Node19 -->
<g id="edge32" class="edge"><title>Node22&#45;&gt;Node19</title>
<path fill="none" stroke="#9a32cd" stroke-dasharray="5,2" d="M219.503,-227.018C219.503,-214.034 219.503,-197.442 219.503,-187.549"/>
<polygon fill="#9a32cd" stroke="#9a32cd" points="216.003,-227.241 219.503,-237.241 223.003,-227.241 216.003,-227.241"/>
<text text-anchor="middle" x="241.003" y="-210" font-family="Helvetica,sans-Serif" font-size="10.00"> accounts</text>
</g>
<!-- Node23 -->
<g id="node23" class="node"><title>Node23</title>
<g id="a_node23"><a xlink:href="structthread.html" target="_top" xlink:title="thread">
<polygon fill="white" stroke="black" points="519.503,-78.5 519.503,-97.5 563.503,-97.5 563.503,-78.5 519.503,-78.5"/>
<text text-anchor="middle" x="541.503" y="-85.5" font-family="Helvetica,sans-Serif" font-size="10.00">thread</text>
</a>
</g>
</g>
<!-- Node23&#45;&gt;Node1 -->
<g id="edge37" class="edge"><title>Node23&#45;&gt;Node1</title>
<path fill="none" stroke="#9a32cd" stroke-dasharray="5,2" d="M530.528,-69.5341C528.748,-66.4122 526.999,-63.1498 525.503,-60 518.97,-46.2475 513.26,-29.4426 510.106,-19.5143"/>
<polygon fill="#9a32cd" stroke="#9a32cd" points="527.599,-71.454 535.748,-78.2247 533.599,-67.85 527.599,-71.454"/>
<text text-anchor="middle" x="553.503" y="-52" font-family="Helvetica,sans-Serif" font-size="10.00"> vm_thread</text>
<text text-anchor="middle" x="553.503" y="-41" font-family="Helvetica,sans-Serif" font-size="10.00">clock_thread</text>
</g>
<!-- Node24&#45;&gt;Node1 -->
<g id="edge38" class="edge"><title>Node24&#45;&gt;Node1</title>
<path fill="none" stroke="#9a32cd" stroke-dasharray="5,2" d="M610.397,-69.9222C600.74,-57.6998 588.173,-42.6219 581.503,-38 567.228,-28.1072 548.904,-21.385 534.062,-17.1222"/>
<polygon fill="#9a32cd" stroke="#9a32cd" points="607.881,-72.3886 616.787,-78.127 613.404,-68.0871 607.881,-72.3886"/>
<text text-anchor="middle" x="639.503" y="-46.5" font-family="Helvetica,sans-Serif" font-size="10.00"> active_receptors</text>
</g>
</g>
</svg>
        <g id="navigator" transform="translate(0 0)" fill="#404254">
                <rect fill="#f2f5e9" fill-opacity="0.5" stroke="#606060" stroke-width=".5" x="0" y="0" width="60" height="60"/>
                <use id="zoomplus" xlink:href="#zoomPlus" x="17" y="9" onmousedown="handleZoom(evt,'in')"/>
                <use id="zoomminus" xlink:href="#zoomMin" x="42" y="9" onmousedown="handleZoom(evt,'out')"/>
                <use id="reset" xlink:href="#resetDef" x="30" y="36" onmousedown="handleReset()"/>
                <g id="arrowUp" xlink:href="#dirArrow" transform="translate(30 24)" onmousedown="handlePan(0,-1)">
                  <use xlink:href="#rim" fill="#404040">
                        <set attributeName="fill" to="#808080" begin="arrowUp.mouseover" end="arrowUp.mouseout"/>
                  </use>
                  <path fill="none" stroke="white" stroke-width="1.5" d="M0,-3.0v7 M-2.5,-0.5L0,-3.0L2.5,-0.5"/>
                </g>
                <g id="arrowRight" xlink:href="#dirArrow" transform="rotate(90) translate(36 -43)" onmousedown="handlePan(1,0)">
                  <use xlink:href="#rim" fill="#404040">
                        <set attributeName="fill" to="#808080" begin="arrowRight.mouseover" end="arrowRight.mouseout"/>
                  </use>
                  <path fill="none" stroke="white" stroke-width="1.5" d="M0,-3.0v7 M-2.5,-0.5L0,-3.0L2.5,-0.5"/>
                </g>
                <g id="arrowDown" xlink:href="#dirArrow" transform="rotate(180) translate(-30 -48)" onmousedown="handlePan(0,1)">
                  <use xlink:href="#rim" fill="#404040">
                        <set attributeName="fill" to="#808080" begin="arrowDown.mouseover" end="arrowDown.mouseout"/>
                  </use>
                  <path fill="none" stroke="white" stroke-width="1.5" d="M0,-3.0v7 M-2.5,-0.5L0,-3.0L2.5,-0.5"/>
                </g>
                <g id="arrowLeft" xlink:href="#dirArrow" transform="rotate(270) translate(-36 17)" onmousedown="handlePan(-1,0)">
                  <use xlink:href="#rim" fill="#404040">
                        <set attributeName="fill" to="#808080" begin="arrowLeft.mouseover" end="arrowLeft.mouseout"/>
                  </use>
                  <path fill="none" stroke="white" stroke-width="1.5" d="M0,-3.0v7 M-2.5,-0.5L0,-3.0L2.5,-0.5"/>
                </g>
        </g>
        <svg viewBox="0 0 15 15" width="100%" height="30px" preserveAspectRatio="xMaxYMin meet">
         <g id="arrow_out" transform="scale(0.3 0.3)">
          <a xlink:href="structVMHost__coll__graph_org.svg" target="_base">
           <rect id="button" ry="5" rx="5" y="6" x="6" height="38" width="38"
                fill="#f2f5e9" fill-opacity="0.5" stroke="#606060" stroke-width="1.0"/>
           <path id="arrow"
             d="M 11.500037,31.436501 C 11.940474,20.09759 22.043105,11.32322 32.158766,21.979434 L 37.068811,17.246167 C 37.068811,17.246167 37.088388,32 37.088388,32 L 22.160133,31.978069 C 22.160133,31.978069 26.997745,27.140456 26.997745,27.140456 C 18.528582,18.264221 13.291696,25.230495 11.500037,31.436501 z"
             style="fill:#404040;"/>
          </a>
         </g>
        </svg>
</svg>
