<?xml version="1.0" encoding="UTF-8" standalone="no"?>
<!DOCTYPE svg PUBLIC "-//W3C//DTD SVG 1.1//EN"
 "http://www.w3.org/Graphics/SVG/1.1/DTD/svg11.dtd">
<!-- Generated by graphviz version 2.38.0 (20140413.2041)
 -->
<!-- Title: instances_elem Pages: 1 -->
<svg width="467pt" height="309pt"
 viewBox="0.00 0.00 466.50 309.00" xmlns="http://www.w3.org/2000/svg" xmlns:xlink="http://www.w3.org/1999/xlink">
<g id="graph0" class="graph" transform="scale(1 1) rotate(0) translate(4 305)">
<title>instances_elem</title>
<polygon fill="white" stroke="none" points="-4,4 -4,-305 462.5,-305 462.5,4 -4,4"/>
<!-- Node1 -->
<g id="node1" class="node"><title>Node1</title>
<polygon fill="#bfbfbf" stroke="black" points="231,-0.5 231,-19.5 316,-19.5 316,-0.5 231,-0.5"/>
<text text-anchor="middle" x="273.5" y="-7.5" font-family="Helvetica,sans-Serif" font-size="10.00">instances_elem</text>
</g>
<!-- Node2 -->
<g id="node2" class="node"><title>Node2</title>
<g id="a_node2"><a xlink:href="structUT__hash__handle.html" target="_top" xlink:title="UT_hash_handle">
<polygon fill="white" stroke="black" points="74.5,-146.5 74.5,-165.5 164.5,-165.5 164.5,-146.5 74.5,-146.5"/>
<text text-anchor="middle" x="119.5" y="-153.5" font-family="Helvetica,sans-Serif" font-size="10.00">UT_hash_handle</text>
</a>
</g>
</g>
<!-- Node2&#45;&gt;Node1 -->
<g id="edge1" class="edge"><title>Node2&#45;&gt;Node1</title>
<path fill="none" stroke="#9a32cd" stroke-dasharray="5,2" d="M144.48,-141.167C150.993,-137.022 157.782,-132.185 163.5,-127 188.594,-104.246 187.303,-91.6852 210.5,-67 227.536,-48.8708 249.728,-30.1246 262.715,-19.5755"/>
<polygon fill="#9a32cd" stroke="#9a32cd" points="142.641,-138.189 135.897,-146.359 146.265,-144.178 142.641,-138.189"/>
<text text-anchor="middle" x="217.5" y="-74.5" font-family="Helvetica,sans-Serif" font-size="10.00"> hh</text>
</g>
<!-- Node2&#45;&gt;Node2 -->
<g id="edge2" class="edge"><title>Node2&#45;&gt;Node2</title>
<path fill="none" stroke="#9a32cd" stroke-dasharray="5,2" d="M174.764,-160.98C179.526,-159.922 182.5,-158.262 182.5,-156 182.5,-152.381 174.886,-150.303 164.52,-149.765"/>
<polygon fill="#9a32cd" stroke="#9a32cd" points="174.021,-157.545 164.52,-162.235 174.872,-164.493 174.021,-157.545"/>
<text text-anchor="middle" x="201.5" y="-159" font-family="Helvetica,sans-Serif" font-size="10.00"> hh_prev</text>
<text text-anchor="middle" x="201.5" y="-148" font-family="Helvetica,sans-Serif" font-size="10.00">hh_next</text>
</g>
<!-- Node3 -->
<g id="node3" class="node"><title>Node3</title>
<g id="a_node3"><a xlink:href="structUT__hash__table.html" target="_top" xlink:title="UT_hash_table">
<polygon fill="white" stroke="black" points="0,-0.5 0,-19.5 83,-19.5 83,-0.5 0,-0.5"/>
<text text-anchor="middle" x="41.5" y="-7.5" font-family="Helvetica,sans-Serif" font-size="10.00">UT_hash_table</text>
</a>
</g>
</g>
<!-- Node2&#45;&gt;Node3 -->
<g id="edge6" class="edge"><title>Node2&#45;&gt;Node3</title>
<path fill="none" stroke="#9a32cd" stroke-dasharray="5,2" d="M85.0011,-142.327C62.0361,-131.65 34.3405,-113.771 24.5,-87 15.8237,-63.396 28.7293,-33.9717 36.4358,-19.6451"/>
<polygon fill="#9a32cd" stroke="#9a32cd" points="83.6003,-145.534 94.1649,-146.335 86.4052,-139.121 83.6003,-145.534"/>
<text text-anchor="middle" x="32.5" y="-74.5" font-family="Helvetica,sans-Serif" font-size="10.00"> tail</text>
</g>
<!-- Node4 -->
<g id="node4" class="node"><title>Node4</title>
<g id="a_node4"><a xlink:href="structUT__hash__bucket.html" target="_top" xlink:title="UT_hash_bucket">
<polygon fill="white" stroke="black" points="74,-67.5 74,-86.5 165,-86.5 165,-67.5 74,-67.5"/>
<text text-anchor="middle" x="119.5" y="-74.5" font-family="Helvetica,sans-Serif" font-size="10.00">UT_hash_bucket</text>
</a>
</g>
</g>
<!-- Node2&#45;&gt;Node4 -->
<g id="edge5" class="edge"><title>Node2&#45;&gt;Node4</title>
<path fill="none" stroke="#9a32cd" stroke-dasharray="5,2" d="M119.5,-136.315C119.5,-120.592 119.5,-98.8079 119.5,-86.8094"/>
<polygon fill="#9a32cd" stroke="#9a32cd" points="116,-136.465 119.5,-146.465 123,-136.465 116,-136.465"/>
<text text-anchor="middle" x="139.5" y="-113.5" font-family="Helvetica,sans-Serif" font-size="10.00"> hh_head</text>
</g>
<!-- Node5 -->
<g id="node5" class="node"><title>Node5</title>
<g id="a_node5"><a xlink:href="structinstance__elem.html" target="_top" xlink:title="instance_elem">
<polygon fill="white" stroke="black" points="233.5,-67.5 233.5,-86.5 313.5,-86.5 313.5,-67.5 233.5,-67.5"/>
<text text-anchor="middle" x="273.5" y="-74.5" font-family="Helvetica,sans-Serif" font-size="10.00">instance_elem</text>
</a>
</g>
</g>
<!-- Node2&#45;&gt;Node5 -->
<g id="edge8" class="edge"><title>Node2&#45;&gt;Node5</title>
<path fill="none" stroke="#9a32cd" stroke-dasharray="5,2" d="M170.828,-143.678C185.1,-139.484 200.296,-133.995 213.5,-127 233.941,-116.171 253.999,-97.7743 264.962,-86.8671"/>
<polygon fill="#9a32cd" stroke="#9a32cd" points="169.827,-140.324 161.131,-146.377 171.704,-147.067 169.827,-140.324"/>
<text text-anchor="middle" x="252.5" y="-113.5" font-family="Helvetica,sans-Serif" font-size="10.00"> hh</text>
</g>
<!-- Node3&#45;&gt;Node2 -->
<g id="edge3" class="edge"><title>Node3&#45;&gt;Node2</title>
<path fill="none" stroke="#9a32cd" stroke-dasharray="5,2" d="M40.3426,-30.198C40.1597,-46.1849 41.7556,-69.1393 50.5,-87 63.2943,-113.133 90.3072,-135 106.479,-146.432"/>
<polygon fill="#9a32cd" stroke="#9a32cd" points="43.849,-30.0811 40.7133,-19.961 36.8536,-29.8277 43.849,-30.0811"/>
<text text-anchor="middle" x="57.5" y="-74.5" font-family="Helvetica,sans-Serif" font-size="10.00"> tbl</text>
</g>
<!-- Node4&#45;&gt;Node3 -->
<g id="edge4" class="edge"><title>Node4&#45;&gt;Node3</title>
<path fill="none" stroke="#9a32cd" stroke-dasharray="5,2" d="M101.156,-60.7134C85.7884,-47.907 64.4061,-30.0884 51.8528,-19.6273"/>
<polygon fill="#9a32cd" stroke="#9a32cd" points="99.0577,-63.5207 108.981,-67.2338 103.539,-58.1431 99.0577,-63.5207"/>
<text text-anchor="middle" x="104.5" y="-41" font-family="Helvetica,sans-Serif" font-size="10.00"> buckets</text>
</g>
<!-- Node5&#45;&gt;Node1 -->
<g id="edge7" class="edge"><title>Node5&#45;&gt;Node1</title>
<path fill="none" stroke="#9a32cd" stroke-dasharray="5,2" d="M273.5,-57.037C273.5,-44.6703 273.5,-29.1198 273.5,-19.6273"/>
<polygon fill="#9a32cd" stroke="#9a32cd" points="270,-57.2338 273.5,-67.2338 277,-57.2338 270,-57.2338"/>
<text text-anchor="middle" x="296.5" y="-41" font-family="Helvetica,sans-Serif" font-size="10.00"> instances</text>
</g>
<!-- Node6 -->
<g id="node6" class="node"><title>Node6</title>
<g id="a_node6"><a xlink:href="structT.html" target="_top" xlink:title="T">
<polygon fill="white" stroke="black" points="321,-146.5 321,-165.5 350,-165.5 350,-146.5 321,-146.5"/>
<text text-anchor="middle" x="335.5" y="-153.5" font-family="Helvetica,sans-Serif" font-size="10.00">T</text>
</a>
</g>
</g>
<!-- Node6&#45;&gt;Node5 -->
<g id="edge9" class="edge"><title>Node6&#45;&gt;Node5</title>
<path fill="none" stroke="#9a32cd" stroke-dasharray="5,2" d="M311.774,-145.712C303.038,-141.235 293.759,-135.057 287.5,-127 278.272,-115.123 275.126,-97.4121 274.054,-86.853"/>
<polygon fill="#9a32cd" stroke="#9a32cd" points="310.324,-148.898 320.871,-149.911 313.258,-142.542 310.324,-148.898"/>
<text text-anchor="middle" x="307.5" y="-113.5" font-family="Helvetica,sans-Serif" font-size="10.00"> instance</text>
</g>
<!-- Node7 -->
<g id="node7" class="node"><title>Node7</title>
<g id="a_node7"><a xlink:href="structTstruct.html" target="_top" xlink:title="Tstruct">
<polygon fill="white" stroke="black" points="354,-67.5 354,-86.5 401,-86.5 401,-67.5 354,-67.5"/>
<text text-anchor="middle" x="377.5" y="-74.5" font-family="Helvetica,sans-Serif" font-size="10.00">Tstruct</text>
</a>
</g>
</g>
<!-- Node6&#45;&gt;Node7 -->
<g id="edge11" class="edge"><title>Node6&#45;&gt;Node7</title>
<path fill="none" stroke="#9a32cd" stroke-dasharray="5,2" d="M359.566,-144.997C366.997,-140.63 374.32,-134.709 378.5,-127 385.394,-114.284 382.691,-96.8483 380.097,-86.569"/>
<polygon fill="#9a32cd" stroke="#9a32cd" points="357.638,-142.052 350.324,-149.717 360.822,-148.286 357.638,-142.052"/>
<text text-anchor="middle" x="400.5" y="-119" font-family="Helvetica,sans-Serif" font-size="10.00"> parent</text>
<text text-anchor="middle" x="400.5" y="-108" font-family="Helvetica,sans-Serif" font-size="10.00">children</text>
</g>
<!-- Node7&#45;&gt;Node6 -->
<g id="edge10" class="edge"><title>Node7&#45;&gt;Node6</title>
<path fill="none" stroke="#9a32cd" stroke-dasharray="5,2" d="M348.069,-92.1657C343.444,-95.7051 339.279,-99.963 336.5,-105 329.369,-117.923 331.268,-135.732 333.348,-146.238"/>
<polygon fill="#9a32cd" stroke="#9a32cd" points="350.218,-94.9432 356.693,-86.5575 346.402,-89.0748 350.218,-94.9432"/>
<text text-anchor="middle" x="357.5" y="-113.5" font-family="Helvetica,sans-Serif" font-size="10.00"> structure</text>
</g>
<!-- Node8 -->
<g id="node8" class="node"><title>Node8</title>
<g id="a_node8"><a xlink:href="structTcontext.html" target="_top" xlink:title="Tcontext">
<polygon fill="white" stroke="black" points="288,-214.5 288,-233.5 343,-233.5 343,-214.5 288,-214.5"/>
<text text-anchor="middle" x="315.5" y="-221.5" font-family="Helvetica,sans-Serif" font-size="10.00">Tcontext</text>
</a>
</g>
</g>
<!-- Node8&#45;&gt;Node6 -->
<g id="edge12" class="edge"><title>Node8&#45;&gt;Node6</title>
<path fill="none" stroke="#9a32cd" stroke-dasharray="5,2" d="M319.362,-204.351C320.794,-198.144 322.55,-191.227 324.5,-185 326.56,-178.421 329.42,-171.182 331.708,-165.713"/>
<polygon fill="#9a32cd" stroke="#9a32cd" points="315.87,-203.939 317.162,-214.455 322.709,-205.428 315.87,-203.939"/>
<text text-anchor="middle" x="342.5" y="-188" font-family="Helvetica,sans-Serif" font-size="10.00"> context</text>
</g>
<!-- Node9 -->
<g id="node9" class="node"><title>Node9</title>
<g id="a_node9"><a xlink:href="structTcontents.html" target="_top" xlink:title="Tcontents">
<polygon fill="white" stroke="black" points="361.5,-214.5 361.5,-233.5 421.5,-233.5 421.5,-214.5 361.5,-214.5"/>
<text text-anchor="middle" x="391.5" y="-221.5" font-family="Helvetica,sans-Serif" font-size="10.00">Tcontents</text>
</a>
</g>
</g>
<!-- Node9&#45;&gt;Node6 -->
<g id="edge13" class="edge"><title>Node9&#45;&gt;Node6</title>
<path fill="none" stroke="#9a32cd" stroke-dasharray="5,2" d="M378.425,-206.648C372.954,-199.891 366.485,-192.012 360.5,-185 354.915,-178.457 348.443,-171.217 343.483,-165.739"/>
<polygon fill="#9a32cd" stroke="#9a32cd" points="375.715,-208.863 384.712,-214.459 381.168,-204.474 375.715,-208.863"/>
<text text-anchor="middle" x="390" y="-188" font-family="Helvetica,sans-Serif" font-size="10.00"> contents</text>
</g>
<!-- Node10 -->
<g id="node10" class="node"><title>Node10</title>
<g id="a_node10"><a xlink:href="structSemanticID.html" target="_top" xlink:title="SemanticID">
<polygon fill="white" stroke="black" points="388.5,-281.5 388.5,-300.5 456.5,-300.5 456.5,-281.5 388.5,-281.5"/>
<text text-anchor="middle" x="422.5" y="-288.5" font-family="Helvetica,sans-Serif" font-size="10.00">SemanticID</text>
</a>
</g>
</g>
<!-- Node10&#45;&gt;Node1 -->
<g id="edge15" class="edge"><title>Node10&#45;&gt;Node1</title>
<path fill="none" stroke="#9a32cd" stroke-dasharray="5,2" d="M434.068,-272.662C441.396,-260.007 449.5,-242.138 449.5,-225 449.5,-225 449.5,-225 449.5,-76 449.5,-47.6617 368.192,-27.8174 316.105,-18.0121"/>
<polygon fill="#9a32cd" stroke="#9a32cd" points="431.054,-270.881 428.762,-281.225 437.005,-274.568 431.054,-270.881"/>
<text text-anchor="middle" x="454" y="-153.5" font-family="Helvetica,sans-Serif" font-size="10.00"> s</text>
</g>
<!-- Node10&#45;&gt;Node9 -->
<g id="edge14" class="edge"><title>Node10&#45;&gt;Node9</title>
<path fill="none" stroke="#9a32cd" stroke-dasharray="5,2" d="M407.036,-273.355C404.573,-270.094 402.262,-266.572 400.5,-263 395.822,-253.514 393.504,-241.478 392.406,-233.523"/>
<polygon fill="#9a32cd" stroke="#9a32cd" points="404.526,-275.81 413.629,-281.231 409.894,-271.317 404.526,-275.81"/>
<text text-anchor="middle" x="418" y="-255" font-family="Helvetica,sans-Serif" font-size="10.00"> symbol</text>
</g>
</g>
</svg>
