<?xml version="1.0" encoding="UTF-8" standalone="no"?>
<!DOCTYPE svg PUBLIC "-//W3C//DTD SVG 1.1//EN"
 "http://www.w3.org/Graphics/SVG/1.1/DTD/svg11.dtd">
<!-- Generated by graphviz version 2.38.0 (20140413.2041)
 -->
<!-- Title: VMHost Pages: 1 -->
<svg width="1028pt" height="604pt"
 viewBox="0.00 0.00 1028.00 604.00" xmlns="http://www.w3.org/2000/svg" xmlns:xlink="http://www.w3.org/1999/xlink">
<g id="graph0" class="graph" transform="scale(1 1) rotate(0) translate(4 600)">
<title>VMHost</title>
<polygon fill="white" stroke="none" points="-4,4 -4,-600 1024,-600 1024,4 -4,4"/>
<!-- Node1 -->
<g id="node1" class="node"><title>Node1</title>
<polygon fill="#bfbfbf" stroke="black" points="318.5,-0.5 318.5,-19.5 371.5,-19.5 371.5,-0.5 318.5,-0.5"/>
<text text-anchor="middle" x="345" y="-7.5" font-family="Helvetica,sans-Serif" font-size="10.00">VMHost</text>
</g>
<!-- Node2 -->
<g id="node2" class="node"><title>Node2</title>
<g id="a_node2"><a xlink:href="structScape.html" target="_top" xlink:title="Scape">
<polygon fill="white" stroke="black" points="4,-226.5 4,-245.5 48,-245.5 48,-226.5 4,-226.5"/>
<text text-anchor="middle" x="26" y="-233.5" font-family="Helvetica,sans-Serif" font-size="10.00">Scape</text>
</a>
</g>
</g>
<!-- Node2&#45;&gt;Node1 -->
<g id="edge1" class="edge"><title>Node2&#45;&gt;Node1</title>
<path fill="none" stroke="#9a32cd" stroke-dasharray="5,2" d="M20.1562,-216.441C13.4341,-191.199 5.83784,-145.781 27,-116 95.1961,-20.0287 254.478,-10.1879 318.075,-10.2662"/>
<polygon fill="#9a32cd" stroke="#9a32cd" points="16.841,-217.576 22.987,-226.206 23.5642,-215.627 16.841,-217.576"/>
<text text-anchor="middle" x="69.5" y="-119" font-family="Helvetica,sans-Serif" font-size="10.00"> installed_receptors</text>
</g>
<!-- Node3 -->
<g id="node3" class="node"><title>Node3</title>
<g id="a_node3"><a xlink:href="structSemanticID.html" target="_top" xlink:title="SemanticID">
<polygon fill="white" stroke="black" points="208,-576.5 208,-595.5 276,-595.5 276,-576.5 208,-576.5"/>
<text text-anchor="middle" x="242" y="-583.5" font-family="Helvetica,sans-Serif" font-size="10.00">SemanticID</text>
</a>
</g>
</g>
<!-- Node3&#45;&gt;Node2 -->
<g id="edge2" class="edge"><title>Node3&#45;&gt;Node2</title>
<path fill="none" stroke="#9a32cd" stroke-dasharray="5,2" d="M197.562,-582.149C127.687,-576.431 0,-560.448 0,-520 0,-520 0,-520 0,-337 0,-302.2 14.9313,-262.716 22.1636,-245.632"/>
<polygon fill="#9a32cd" stroke="#9a32cd" points="197.599,-585.662 207.841,-582.95 198.143,-578.683 197.599,-585.662"/>
<text text-anchor="middle" x="27" y="-454" font-family="Helvetica,sans-Serif" font-size="10.00"> key_source</text>
<text text-anchor="middle" x="27" y="-443" font-family="Helvetica,sans-Serif" font-size="10.00">data_source</text>
</g>
<!-- Node5 -->
<g id="node5" class="node"><title>Node5</title>
<g id="a_node5"><a xlink:href="structXaddr.html" target="_top" xlink:title="Xaddr">
<polygon fill="white" stroke="black" points="105,-441.5 105,-460.5 147,-460.5 147,-441.5 105,-441.5"/>
<text text-anchor="middle" x="126" y="-448.5" font-family="Helvetica,sans-Serif" font-size="10.00">Xaddr</text>
</a>
</g>
</g>
<!-- Node3&#45;&gt;Node5 -->
<g id="edge5" class="edge"><title>Node3&#45;&gt;Node5</title>
<path fill="none" stroke="#9a32cd" stroke-dasharray="5,2" d="M227.528,-568.407C202.608,-539.835 152.448,-482.324 133.488,-460.586"/>
<polygon fill="#9a32cd" stroke="#9a32cd" points="225.178,-571.038 234.389,-576.273 230.454,-566.437 225.178,-571.038"/>
<text text-anchor="middle" x="209.5" y="-516.5" font-family="Helvetica,sans-Serif" font-size="10.00"> symbol</text>
</g>
<!-- Node14 -->
<g id="node14" class="node"><title>Node14</title>
<g id="a_node14"><a xlink:href="structTcontents.html" target="_top" xlink:title="Tcontents">
<polygon fill="white" stroke="black" points="345,-509.5 345,-528.5 405,-528.5 405,-509.5 345,-509.5"/>
<text text-anchor="middle" x="375" y="-516.5" font-family="Helvetica,sans-Serif" font-size="10.00">Tcontents</text>
</a>
</g>
</g>
<!-- Node3&#45;&gt;Node14 -->
<g id="edge19" class="edge"><title>Node3&#45;&gt;Node14</title>
<path fill="none" stroke="#9a32cd" stroke-dasharray="5,2" d="M268.715,-571.944C295.059,-559.069 334.574,-539.757 357.266,-528.667"/>
<polygon fill="#9a32cd" stroke="#9a32cd" points="267.109,-568.833 259.661,-576.369 270.183,-575.122 267.109,-568.833"/>
<text text-anchor="middle" x="334.5" y="-550" font-family="Helvetica,sans-Serif" font-size="10.00"> symbol</text>
</g>
<!-- Node17 -->
<g id="node17" class="node"><title>Node17</title>
<g id="a_node17"><a xlink:href="structinstances__elem.html" target="_top" xlink:title="instances_elem">
<polygon fill="white" stroke="black" points="635.5,-226.5 635.5,-245.5 720.5,-245.5 720.5,-226.5 635.5,-226.5"/>
<text text-anchor="middle" x="678" y="-233.5" font-family="Helvetica,sans-Serif" font-size="10.00">instances_elem</text>
</a>
</g>
</g>
<!-- Node3&#45;&gt;Node17 -->
<g id="edge29" class="edge"><title>Node3&#45;&gt;Node17</title>
<path fill="none" stroke="#9a32cd" stroke-dasharray="5,2" d="M286.409,-585.592C384.327,-584.17 617.925,-565.197 717,-422 730.324,-402.742 721.208,-289.813 709,-265 705.158,-257.191 698.106,-250.551 691.698,-245.699"/>
<polygon fill="#9a32cd" stroke="#9a32cd" points="286.227,-582.094 276.259,-585.683 286.29,-589.093 286.227,-582.094"/>
<text text-anchor="middle" x="707.5" y="-448.5" font-family="Helvetica,sans-Serif" font-size="10.00"> s</text>
</g>
<!-- Node4 -->
<g id="node4" class="node"><title>Node4</title>
<g id="a_node4"><a xlink:href="structscape__elem.html" target="_top" xlink:title="scape_elem">
<polygon fill="white" stroke="black" points="28.5,-328.5 28.5,-347.5 97.5,-347.5 97.5,-328.5 28.5,-328.5"/>
<text text-anchor="middle" x="63" y="-335.5" font-family="Helvetica,sans-Serif" font-size="10.00">scape_elem</text>
</a>
</g>
</g>
<!-- Node4&#45;&gt;Node2 -->
<g id="edge3" class="edge"><title>Node4&#45;&gt;Node2</title>
<path fill="none" stroke="#9a32cd" stroke-dasharray="5,2" d="M56.373,-319.089C48.3437,-297.388 35.1476,-261.723 29.1466,-245.504"/>
<polygon fill="#9a32cd" stroke="#9a32cd" points="53.0927,-320.31 59.8454,-328.474 59.6578,-317.881 53.0927,-320.31"/>
<text text-anchor="middle" x="64" y="-284.5" font-family="Helvetica,sans-Serif" font-size="10.00"> data</text>
</g>
<!-- Node5&#45;&gt;Node4 -->
<g id="edge4" class="edge"><title>Node5&#45;&gt;Node4</title>
<path fill="none" stroke="#9a32cd" stroke-dasharray="5,2" d="M99.3301,-435.891C93.9482,-432.005 88.7877,-427.358 85,-422 68.4778,-398.628 64.3639,-363.627 63.3396,-347.587"/>
<polygon fill="#9a32cd" stroke="#9a32cd" points="97.5046,-438.878 107.804,-441.362 101.302,-432.998 97.5046,-438.878"/>
<text text-anchor="middle" x="98.5" y="-392" font-family="Helvetica,sans-Serif" font-size="10.00"> value</text>
</g>
<!-- Node25 -->
<g id="node25" class="node"><title>Node25</title>
<g id="a_node25"><a xlink:href="structActiveReceptor.html" target="_top" xlink:title="ActiveReceptor">
<polygon fill="white" stroke="black" points="212,-78.5 212,-97.5 296,-97.5 296,-78.5 212,-78.5"/>
<text text-anchor="middle" x="254" y="-85.5" font-family="Helvetica,sans-Serif" font-size="10.00">ActiveReceptor</text>
</a>
</g>
</g>
<!-- Node5&#45;&gt;Node25 -->
<g id="edge43" class="edge"><title>Node5&#45;&gt;Node25</title>
<path fill="none" stroke="#9a32cd" stroke-dasharray="5,2" d="M126,-431.081C126,-408.988 126,-371.343 126,-339 126,-339 126,-339 126,-160.5 126,-120.41 174.45,-102.586 211.733,-94.8045"/>
<polygon fill="#9a32cd" stroke="#9a32cd" points="122.5,-431.364 126,-441.364 129.5,-431.364 122.5,-431.364"/>
<text text-anchor="middle" x="130.5" y="-233.5" font-family="Helvetica,sans-Serif" font-size="10.00"> x</text>
</g>
<!-- Node6 -->
<g id="node6" class="node"><title>Node6</title>
<g id="a_node6"><a xlink:href="structUT__hash__handle.html" target="_top" xlink:title="UT_hash_handle">
<polygon fill="white" stroke="black" points="766,-441.5 766,-460.5 856,-460.5 856,-441.5 766,-441.5"/>
<text text-anchor="middle" x="811" y="-448.5" font-family="Helvetica,sans-Serif" font-size="10.00">UT_hash_handle</text>
</a>
</g>
</g>
<!-- Node6&#45;&gt;Node4 -->
<g id="edge6" class="edge"><title>Node6&#45;&gt;Node4</title>
<path fill="none" stroke="#9a32cd" stroke-dasharray="5,2" d="M755.937,-441.671C751.899,-441.094 747.887,-440.531 744,-440 711.83,-435.603 624.23,-442.438 599,-422 578.904,-405.721 600.747,-382.44 580,-367 560.596,-352.56 169.107,-350.966 145,-349 129.419,-347.73 112.241,-345.728 97.6498,-343.849"/>
<polygon fill="#9a32cd" stroke="#9a32cd" points="755.574,-445.154 765.972,-443.124 756.577,-438.227 755.574,-445.154"/>
<text text-anchor="middle" x="606" y="-392" font-family="Helvetica,sans-Serif" font-size="10.00"> hh</text>
</g>
<!-- Node6&#45;&gt;Node6 -->
<g id="edge7" class="edge"><title>Node6&#45;&gt;Node6</title>
<path fill="none" stroke="#9a32cd" stroke-dasharray="5,2" d="M866.264,-455.98C871.026,-454.922 874,-453.262 874,-451 874,-447.381 866.386,-445.303 856.02,-444.765"/>
<polygon fill="#9a32cd" stroke="#9a32cd" points="865.521,-452.545 856.02,-457.235 866.372,-459.493 865.521,-452.545"/>
<text text-anchor="middle" x="893" y="-454" font-family="Helvetica,sans-Serif" font-size="10.00"> hh_prev</text>
<text text-anchor="middle" x="893" y="-443" font-family="Helvetica,sans-Serif" font-size="10.00">hh_next</text>
</g>
<!-- Node7 -->
<g id="node7" class="node"><title>Node7</title>
<g id="a_node7"><a xlink:href="structUT__hash__table.html" target="_top" xlink:title="UT_hash_table">
<polygon fill="white" stroke="black" points="925.5,-226.5 925.5,-245.5 1008.5,-245.5 1008.5,-226.5 925.5,-226.5"/>
<text text-anchor="middle" x="967" y="-233.5" font-family="Helvetica,sans-Serif" font-size="10.00">UT_hash_table</text>
</a>
</g>
</g>
<!-- Node6&#45;&gt;Node7 -->
<g id="edge11" class="edge"><title>Node6&#45;&gt;Node7</title>
<path fill="none" stroke="#9a32cd" stroke-dasharray="5,2" d="M866.298,-443.677C881.916,-439.583 897.926,-432.896 910,-422 963.894,-373.366 967.421,-275.098 967.207,-245.576"/>
<polygon fill="#9a32cd" stroke="#9a32cd" points="865.099,-440.361 856.137,-446.011 866.667,-447.184 865.099,-440.361"/>
<text text-anchor="middle" x="967" y="-335.5" font-family="Helvetica,sans-Serif" font-size="10.00"> tail</text>
</g>
<!-- Node8 -->
<g id="node8" class="node"><title>Node8</title>
<g id="a_node8"><a xlink:href="structUT__hash__bucket.html" target="_top" xlink:title="UT_hash_bucket">
<polygon fill="white" stroke="black" points="839.5,-328.5 839.5,-347.5 930.5,-347.5 930.5,-328.5 839.5,-328.5"/>
<text text-anchor="middle" x="885" y="-335.5" font-family="Helvetica,sans-Serif" font-size="10.00">UT_hash_bucket</text>
</a>
</g>
</g>
<!-- Node6&#45;&gt;Node8 -->
<g id="edge10" class="edge"><title>Node6&#45;&gt;Node8</title>
<path fill="none" stroke="#9a32cd" stroke-dasharray="5,2" d="M822.465,-432.802C838.502,-408.747 867.032,-365.952 879.22,-347.67"/>
<polygon fill="#9a32cd" stroke="#9a32cd" points="819.442,-431.028 816.807,-441.29 825.266,-434.911 819.442,-431.028"/>
<text text-anchor="middle" x="886" y="-392" font-family="Helvetica,sans-Serif" font-size="10.00"> hh_head</text>
</g>
<!-- Node16 -->
<g id="node16" class="node"><title>Node16</title>
<g id="a_node16"><a xlink:href="structtable__elem.html" target="_top" xlink:title="table_elem">
<polygon fill="white" stroke="black" points="784,-277.5 784,-296.5 848,-296.5 848,-277.5 784,-277.5"/>
<text text-anchor="middle" x="816" y="-284.5" font-family="Helvetica,sans-Serif" font-size="10.00">table_elem</text>
</a>
</g>
</g>
<!-- Node6&#45;&gt;Node16 -->
<g id="edge23" class="edge"><title>Node6&#45;&gt;Node16</title>
<path fill="none" stroke="#9a32cd" stroke-dasharray="5,2" d="M811.38,-431.126C811.737,-414.302 812.317,-389.007 813,-367 813.792,-341.483 815.017,-311.342 815.627,-296.766"/>
<polygon fill="#9a32cd" stroke="#9a32cd" points="807.878,-431.205 811.17,-441.276 814.877,-431.35 807.878,-431.205"/>
<text text-anchor="middle" x="820" y="-392" font-family="Helvetica,sans-Serif" font-size="10.00"> hh</text>
</g>
<!-- Node6&#45;&gt;Node17 -->
<g id="edge25" class="edge"><title>Node6&#45;&gt;Node17</title>
<path fill="none" stroke="#9a32cd" stroke-dasharray="5,2" d="M808.166,-431.312C801.752,-394.938 782.946,-313.916 737,-265 728.772,-256.24 717.242,-249.934 706.556,-245.551"/>
<polygon fill="#9a32cd" stroke="#9a32cd" points="804.758,-432.155 809.832,-441.456 811.665,-431.021 804.758,-432.155"/>
<text text-anchor="middle" x="793" y="-335.5" font-family="Helvetica,sans-Serif" font-size="10.00"> hh</text>
</g>
<!-- Node18 -->
<g id="node18" class="node"><title>Node18</title>
<g id="a_node18"><a xlink:href="structinstance__elem.html" target="_top" xlink:title="instance_elem">
<polygon fill="white" stroke="black" points="615,-328.5 615,-347.5 695,-347.5 695,-328.5 615,-328.5"/>
<text text-anchor="middle" x="655" y="-335.5" font-family="Helvetica,sans-Serif" font-size="10.00">instance_elem</text>
</a>
</g>
</g>
<!-- Node6&#45;&gt;Node18 -->
<g id="edge27" class="edge"><title>Node6&#45;&gt;Node18</title>
<path fill="none" stroke="#9a32cd" stroke-dasharray="5,2" d="M772.919,-437.849C762.174,-433.616 750.761,-428.313 741,-422 723.576,-410.732 680.887,-366.411 663.044,-347.56"/>
<polygon fill="#9a32cd" stroke="#9a32cd" points="771.939,-441.219 782.531,-441.435 774.385,-434.661 771.939,-441.219"/>
<text text-anchor="middle" x="748" y="-392" font-family="Helvetica,sans-Serif" font-size="10.00"> hh</text>
</g>
<!-- Node7&#45;&gt;Node6 -->
<g id="edge8" class="edge"><title>Node7&#45;&gt;Node6</title>
<path fill="none" stroke="#9a32cd" stroke-dasharray="5,2" d="M977.19,-254.984C978.683,-258.236 980.039,-261.657 981,-265 1000.29,-332.059 1028.3,-370.697 981,-422 964.578,-439.814 900.863,-446.294 856.287,-448.652"/>
<polygon fill="#9a32cd" stroke="#9a32cd" points="980.247,-253.275 972.558,-245.986 974.023,-256.479 980.247,-253.275"/>
<text text-anchor="middle" x="1013" y="-335.5" font-family="Helvetica,sans-Serif" font-size="10.00"> tbl</text>
</g>
<!-- Node8&#45;&gt;Node7 -->
<g id="edge9" class="edge"><title>Node8&#45;&gt;Node7</title>
<path fill="none" stroke="#9a32cd" stroke-dasharray="5,2" d="M889.05,-318.337C893.274,-302.567 901.25,-280.186 915,-265 922.708,-256.487 933.624,-250.064 943.467,-245.531"/>
<polygon fill="#9a32cd" stroke="#9a32cd" points="885.553,-317.911 886.609,-328.453 892.357,-319.553 885.553,-317.911"/>
<text text-anchor="middle" x="934" y="-284.5" font-family="Helvetica,sans-Serif" font-size="10.00"> buckets</text>
</g>
<!-- Node9 -->
<g id="node9" class="node"><title>Node9</title>
<g id="a_node9"><a xlink:href="structSemTable.html" target="_top" xlink:title="SemTable">
<polygon fill="white" stroke="black" points="404.5,-226.5 404.5,-245.5 465.5,-245.5 465.5,-226.5 404.5,-226.5"/>
<text text-anchor="middle" x="435" y="-233.5" font-family="Helvetica,sans-Serif" font-size="10.00">SemTable</text>
</a>
</g>
</g>
<!-- Node9&#45;&gt;Node1 -->
<g id="edge12" class="edge"><title>Node9&#45;&gt;Node1</title>
<path fill="none" stroke="#9a32cd" stroke-dasharray="5,2" d="M414.644,-220.318C391.063,-201.775 353.921,-167.368 342,-127 330.589,-88.3585 338.839,-39.2936 342.994,-19.6767"/>
<polygon fill="#9a32cd" stroke="#9a32cd" points="412.571,-223.139 422.647,-226.414 416.813,-217.57 412.571,-223.139"/>
<text text-anchor="middle" x="353" y="-119" font-family="Helvetica,sans-Serif" font-size="10.00"> sem</text>
</g>
<!-- Node15 -->
<g id="node15" class="node"><title>Node15</title>
<g id="a_node15"><a xlink:href="structReceptor.html" target="_top" xlink:title="Receptor">
<polygon fill="white" stroke="black" points="469,-152 469,-171 525,-171 525,-152 469,-152"/>
<text text-anchor="middle" x="497" y="-159" font-family="Helvetica,sans-Serif" font-size="10.00">Receptor</text>
</a>
</g>
</g>
<!-- Node9&#45;&gt;Node15 -->
<g id="edge21" class="edge"><title>Node9&#45;&gt;Node15</title>
<path fill="none" stroke="#9a32cd" stroke-dasharray="5,2" d="M445.407,-217.534C449.867,-210.572 455.346,-202.649 461,-196 468.853,-186.764 479.071,-177.467 486.613,-171.019"/>
<polygon fill="#9a32cd" stroke="#9a32cd" points="442.317,-215.877 440.038,-226.223 448.272,-219.556 442.317,-215.877"/>
<text text-anchor="middle" x="472" y="-199" font-family="Helvetica,sans-Serif" font-size="10.00"> sem</text>
</g>
<!-- Node10 -->
<g id="node10" class="node"><title>Node10</title>
<g id="a_node10"><a xlink:href="structContextStore.html" target="_top" xlink:title="ContextStore">
<polygon fill="white" stroke="black" points="395,-328.5 395,-347.5 469,-347.5 469,-328.5 395,-328.5"/>
<text text-anchor="middle" x="432" y="-335.5" font-family="Helvetica,sans-Serif" font-size="10.00">ContextStore</text>
</a>
</g>
</g>
<!-- Node10&#45;&gt;Node9 -->
<g id="edge13" class="edge"><title>Node10&#45;&gt;Node9</title>
<path fill="none" stroke="#9a32cd" stroke-dasharray="5,2" d="M432.564,-318.194C433.217,-296.419 434.265,-261.502 434.745,-245.504"/>
<polygon fill="#9a32cd" stroke="#9a32cd" points="429.057,-318.374 432.256,-328.474 436.054,-318.584 429.057,-318.374"/>
<text text-anchor="middle" x="450.5" y="-284.5" font-family="Helvetica,sans-Serif" font-size="10.00"> stores</text>
</g>
<!-- Node11 -->
<g id="node11" class="node"><title>Node11</title>
<g id="a_node11"><a xlink:href="structT.html" target="_top" xlink:title="T">
<polygon fill="white" stroke="black" points="360.5,-441.5 360.5,-460.5 389.5,-460.5 389.5,-441.5 360.5,-441.5"/>
<text text-anchor="middle" x="375" y="-448.5" font-family="Helvetica,sans-Serif" font-size="10.00">T</text>
</a>
</g>
</g>
<!-- Node11&#45;&gt;Node10 -->
<g id="edge14" class="edge"><title>Node11&#45;&gt;Node10</title>
<path fill="none" stroke="#9a32cd" stroke-dasharray="5,2" d="M384.161,-432.159C396.572,-407.991 418.243,-365.79 427.548,-347.67"/>
<polygon fill="#9a32cd" stroke="#9a32cd" points="380.927,-430.796 379.473,-441.29 387.154,-433.993 380.927,-430.796"/>
<text text-anchor="middle" x="441" y="-392" font-family="Helvetica,sans-Serif" font-size="10.00"> definitions</text>
</g>
<!-- Node12 -->
<g id="node12" class="node"><title>Node12</title>
<g id="a_node12"><a xlink:href="structTstruct.html" target="_top" xlink:title="Tstruct">
<polygon fill="white" stroke="black" points="154.5,-328.5 154.5,-347.5 201.5,-347.5 201.5,-328.5 154.5,-328.5"/>
<text text-anchor="middle" x="178" y="-335.5" font-family="Helvetica,sans-Serif" font-size="10.00">Tstruct</text>
</a>
</g>
</g>
<!-- Node11&#45;&gt;Node12 -->
<g id="edge16" class="edge"><title>Node11&#45;&gt;Node12</title>
<path fill="none" stroke="#9a32cd" stroke-dasharray="5,2" d="M350.36,-450.93C322.777,-450.648 278.253,-446.055 250,-422 229.954,-404.932 245.368,-386.786 228,-367 220.584,-358.551 209.972,-352.105 200.432,-347.541"/>
<polygon fill="#9a32cd" stroke="#9a32cd" points="350.4,-454.43 360.372,-450.85 350.344,-447.43 350.4,-454.43"/>
<text text-anchor="middle" x="267" y="-397.5" font-family="Helvetica,sans-Serif" font-size="10.00"> parent</text>
<text text-anchor="middle" x="267" y="-386.5" font-family="Helvetica,sans-Serif" font-size="10.00">children</text>
</g>
<!-- Node11&#45;&gt;Node15 -->
<g id="edge40" class="edge"><title>Node11&#45;&gt;Node15</title>
<path fill="none" stroke="#9a32cd" stroke-dasharray="5,2" d="M399.819,-449.743C421.496,-448.087 452.069,-442.021 469,-422 485.569,-402.408 494.737,-214.345 496.63,-171.263"/>
<polygon fill="#9a32cd" stroke="#9a32cd" points="399.514,-446.253 389.702,-450.25 399.865,-453.245 399.514,-446.253"/>
<text text-anchor="middle" x="536" y="-301" font-family="Helvetica,sans-Serif" font-size="10.00"> pending_responses</text>
<text text-anchor="middle" x="536" y="-290" font-family="Helvetica,sans-Serif" font-size="10.00">root</text>
<text text-anchor="middle" x="536" y="-279" font-family="Helvetica,sans-Serif" font-size="10.00">pending_signals</text>
<text text-anchor="middle" x="536" y="-268" font-family="Helvetica,sans-Serif" font-size="10.00">flux</text>
</g>
<!-- Node11&#45;&gt;Node18 -->
<g id="edge28" class="edge"><title>Node11&#45;&gt;Node18</title>
<path fill="none" stroke="#9a32cd" stroke-dasharray="5,2" d="M400.036,-450.217C454.843,-450.206 583.246,-447.392 617,-422 638.174,-406.072 628.62,-390.927 640,-367 643.127,-360.426 647.017,-353.187 650.052,-347.717"/>
<polygon fill="#9a32cd" stroke="#9a32cd" points="399.822,-446.716 389.812,-450.185 399.801,-453.716 399.822,-446.716"/>
<text text-anchor="middle" x="660" y="-392" font-family="Helvetica,sans-Serif" font-size="10.00"> instance</text>
</g>
<!-- Node19 -->
<g id="node19" class="node"><title>Node19</title>
<g id="a_node19"><a xlink:href="structDefs.html" target="_top" xlink:title="Defs">
<polygon fill="white" stroke="black" points="590,-277.5 590,-296.5 628,-296.5 628,-277.5 590,-277.5"/>
<text text-anchor="middle" x="609" y="-284.5" font-family="Helvetica,sans-Serif" font-size="10.00">Defs</text>
</a>
</g>
</g>
<!-- Node11&#45;&gt;Node19 -->
<g id="edge31" class="edge"><title>Node11&#45;&gt;Node19</title>
<path fill="none" stroke="#9a32cd" stroke-dasharray="5,2" d="M399.752,-447.696C433.668,-444.063 492.192,-435.944 508,-422 527.395,-404.892 513.081,-388.797 527,-367 532.293,-358.711 578.907,-315.572 599.402,-296.773"/>
<polygon fill="#9a32cd" stroke="#9a32cd" points="399.284,-444.225 389.69,-448.719 399.993,-451.189 399.284,-444.225"/>
<text text-anchor="middle" x="551.5" y="-414" font-family="Helvetica,sans-Serif" font-size="10.00"> processes</text>
<text text-anchor="middle" x="551.5" y="-403" font-family="Helvetica,sans-Serif" font-size="10.00">structures</text>
<text text-anchor="middle" x="551.5" y="-392" font-family="Helvetica,sans-Serif" font-size="10.00">symbols</text>
<text text-anchor="middle" x="551.5" y="-381" font-family="Helvetica,sans-Serif" font-size="10.00">scapes</text>
<text text-anchor="middle" x="551.5" y="-370" font-family="Helvetica,sans-Serif" font-size="10.00">protocols</text>
</g>
<!-- Node22 -->
<g id="node22" class="node"><title>Node22</title>
<g id="a_node22"><a xlink:href="structR.html" target="_top" xlink:title="R">
<polygon fill="white" stroke="black" points="219.5,-328.5 219.5,-347.5 248.5,-347.5 248.5,-328.5 219.5,-328.5"/>
<text text-anchor="middle" x="234" y="-335.5" font-family="Helvetica,sans-Serif" font-size="10.00">R</text>
</a>
</g>
</g>
<!-- Node11&#45;&gt;Node22 -->
<g id="edge37" class="edge"><title>Node11&#45;&gt;Node22</title>
<path fill="none" stroke="#9a32cd" stroke-dasharray="5,2" d="M351.274,-436.964C344.385,-432.648 337.085,-427.522 331,-422 308.023,-401.147 311.875,-386.818 288,-367 276.136,-357.153 260.241,-349.43 248.771,-344.612"/>
<polygon fill="#9a32cd" stroke="#9a32cd" points="349.876,-440.206 360.26,-442.31 353.455,-434.189 349.876,-440.206"/>
<text text-anchor="middle" x="359" y="-403" font-family="Helvetica,sans-Serif" font-size="10.00"> run_tree</text>
<text text-anchor="middle" x="359" y="-392" font-family="Helvetica,sans-Serif" font-size="10.00">node_pointer</text>
<text text-anchor="middle" x="359" y="-381" font-family="Helvetica,sans-Serif" font-size="10.00">parent</text>
</g>
<!-- Node12&#45;&gt;Node11 -->
<g id="edge15" class="edge"><title>Node12&#45;&gt;Node11</title>
<path fill="none" stroke="#9a32cd" stroke-dasharray="5,2" d="M173.877,-357.682C170.925,-376.485 169.904,-405.061 186,-422 209.821,-447.067 320.21,-449.876 360.354,-450.055"/>
<polygon fill="#9a32cd" stroke="#9a32cd" points="177.352,-358.142 175.776,-347.665 170.475,-356.838 177.352,-358.142"/>
<text text-anchor="middle" x="207" y="-392" font-family="Helvetica,sans-Serif" font-size="10.00"> structure</text>
</g>
<!-- Node13 -->
<g id="node13" class="node"><title>Node13</title>
<g id="a_node13"><a xlink:href="structTcontext.html" target="_top" xlink:title="Tcontext">
<polygon fill="white" stroke="black" points="271.5,-509.5 271.5,-528.5 326.5,-528.5 326.5,-509.5 271.5,-509.5"/>
<text text-anchor="middle" x="299" y="-516.5" font-family="Helvetica,sans-Serif" font-size="10.00">Tcontext</text>
</a>
</g>
</g>
<!-- Node13&#45;&gt;Node11 -->
<g id="edge17" class="edge"><title>Node13&#45;&gt;Node11</title>
<path fill="none" stroke="#9a32cd" stroke-dasharray="5,2" d="M313.019,-501.789C319.42,-494.769 327.283,-486.654 335,-480 343.217,-472.914 353.217,-465.914 361.163,-460.686"/>
<polygon fill="#9a32cd" stroke="#9a32cd" points="310.304,-499.575 306.273,-509.373 315.534,-504.227 310.304,-499.575"/>
<text text-anchor="middle" x="353" y="-483" font-family="Helvetica,sans-Serif" font-size="10.00"> context</text>
</g>
<!-- Node14&#45;&gt;Node11 -->
<g id="edge18" class="edge"><title>Node14&#45;&gt;Node11</title>
<path fill="none" stroke="#9a32cd" stroke-dasharray="5,2" d="M375,-499.041C375,-486.472 375,-470.563 375,-460.841"/>
<polygon fill="#9a32cd" stroke="#9a32cd" points="371.5,-499.372 375,-509.372 378.5,-499.372 371.5,-499.372"/>
<text text-anchor="middle" x="395.5" y="-483" font-family="Helvetica,sans-Serif" font-size="10.00"> contents</text>
</g>
<!-- Node15&#45;&gt;Node1 -->
<g id="edge20" class="edge"><title>Node15&#45;&gt;Node1</title>
<path fill="none" stroke="#9a32cd" stroke-dasharray="5,2" d="M494.104,-141.972C492.626,-133.901 490.586,-124.389 488,-116 475.726,-76.1849 471.229,-60.2445 436,-38 416.353,-25.5944 390.743,-18.6636 371.698,-14.9402"/>
<polygon fill="#9a32cd" stroke="#9a32cd" points="490.655,-142.565 495.772,-151.842 497.557,-141.399 490.655,-142.565"/>
<text text-anchor="middle" x="486.5" y="-85.5" font-family="Helvetica,sans-Serif" font-size="10.00"> r</text>
</g>
<!-- Node20 -->
<g id="node20" class="node"><title>Node20</title>
<g id="a_node20"><a xlink:href="structQ.html" target="_top" xlink:title="Q">
<polygon fill="white" stroke="black" points="434.5,-78.5 434.5,-97.5 463.5,-97.5 463.5,-78.5 434.5,-78.5"/>
<text text-anchor="middle" x="449" y="-85.5" font-family="Helvetica,sans-Serif" font-size="10.00">Q</text>
</a>
</g>
</g>
<!-- Node15&#45;&gt;Node20 -->
<g id="edge39" class="edge"><title>Node15&#45;&gt;Node20</title>
<path fill="none" stroke="#9a32cd" stroke-dasharray="5,2" d="M473.804,-145.455C467.488,-140.309 461.23,-134.048 457,-127 451.588,-117.982 449.801,-105.844 449.231,-97.7371"/>
<polygon fill="#9a32cd" stroke="#9a32cd" points="472.155,-148.591 482.268,-151.751 476.333,-142.974 472.155,-148.591"/>
<text text-anchor="middle" x="460.5" y="-119" font-family="Helvetica,sans-Serif" font-size="10.00"> r</text>
</g>
<!-- Node15&#45;&gt;Node25 -->
<g id="edge44" class="edge"><title>Node15&#45;&gt;Node25</title>
<path fill="none" stroke="#9a32cd" stroke-dasharray="5,2" d="M463.215,-148.56C459.767,-147.353 456.314,-146.149 453,-145 415.287,-131.924 406.354,-127.057 368,-116 343.669,-108.986 316.041,-102.408 294.077,-97.5012"/>
<polygon fill="#9a32cd" stroke="#9a32cd" points="462.213,-151.918 472.808,-151.929 464.533,-145.313 462.213,-151.918"/>
<text text-anchor="middle" x="406.5" y="-119" font-family="Helvetica,sans-Serif" font-size="10.00"> r</text>
</g>
<!-- Node16&#45;&gt;Node15 -->
<g id="edge22" class="edge"><title>Node16&#45;&gt;Node15</title>
<path fill="none" stroke="#9a32cd" stroke-dasharray="5,2" d="M796.612,-271.28C779.304,-258.415 753.05,-239.569 729,-225 705.027,-210.478 699.489,-205.161 673,-196 622.439,-178.514 560.37,-169.403 525.081,-165.306"/>
<polygon fill="#9a32cd" stroke="#9a32cd" points="794.686,-274.211 804.787,-277.407 798.885,-268.609 794.686,-274.211"/>
<text text-anchor="middle" x="775.5" y="-233.5" font-family="Helvetica,sans-Serif" font-size="10.00"> table</text>
</g>
<!-- Node17&#45;&gt;Node15 -->
<g id="edge24" class="edge"><title>Node17&#45;&gt;Node15</title>
<path fill="none" stroke="#9a32cd" stroke-dasharray="5,2" d="M653.052,-221.771C637.464,-213.774 616.841,-203.677 598,-196 573.877,-186.171 545.688,-177.006 525.229,-170.756"/>
<polygon fill="#9a32cd" stroke="#9a32cd" points="651.558,-224.939 662.046,-226.438 654.782,-218.726 651.558,-224.939"/>
<text text-anchor="middle" x="646" y="-199" font-family="Helvetica,sans-Serif" font-size="10.00"> instances</text>
</g>
<!-- Node18&#45;&gt;Node17 -->
<g id="edge26" class="edge"><title>Node18&#45;&gt;Node17</title>
<path fill="none" stroke="#9a32cd" stroke-dasharray="5,2" d="M655.154,-318.009C655.737,-303.255 657.582,-282.438 663,-265 665.094,-258.259 668.844,-251.259 672.071,-245.944"/>
<polygon fill="#9a32cd" stroke="#9a32cd" points="651.647,-318.283 654.913,-328.362 658.645,-318.446 651.647,-318.283"/>
<text text-anchor="middle" x="686" y="-284.5" font-family="Helvetica,sans-Serif" font-size="10.00"> instances</text>
</g>
<!-- Node19&#45;&gt;Node15 -->
<g id="edge30" class="edge"><title>Node19&#45;&gt;Node15</title>
<path fill="none" stroke="#9a32cd" stroke-dasharray="5,2" d="M593.98,-269.438C569.92,-242.907 523.556,-191.783 504.982,-171.301"/>
<polygon fill="#9a32cd" stroke="#9a32cd" points="591.635,-272.062 600.945,-277.118 596.82,-267.359 591.635,-272.062"/>
<text text-anchor="middle" x="583" y="-233.5" font-family="Helvetica,sans-Serif" font-size="10.00"> defs</text>
</g>
<!-- Node20&#45;&gt;Node15 -->
<g id="edge32" class="edge"><title>Node20&#45;&gt;Node15</title>
<path fill="none" stroke="#9a32cd" stroke-dasharray="5,2" d="M460.639,-106.337C470.271,-120.685 483.557,-140.476 491.114,-151.733"/>
<polygon fill="#9a32cd" stroke="#9a32cd" points="463.414,-104.191 454.934,-97.839 457.602,-108.092 463.414,-104.191"/>
<text text-anchor="middle" x="479.5" y="-119" font-family="Helvetica,sans-Serif" font-size="10.00"> q</text>
</g>
<!-- Node21 -->
<g id="node21" class="node"><title>Node21</title>
<g id="a_node21"><a xlink:href="structQe.html" target="_top" xlink:title="Qe">
<polygon fill="white" stroke="black" points="317.5,-226.5 317.5,-245.5 346.5,-245.5 346.5,-226.5 317.5,-226.5"/>
<text text-anchor="middle" x="332" y="-233.5" font-family="Helvetica,sans-Serif" font-size="10.00">Qe</text>
</a>
</g>
</g>
<!-- Node21&#45;&gt;Node20 -->
<g id="edge33" class="edge"><title>Node21&#45;&gt;Node20</title>
<path fill="none" stroke="#9a32cd" stroke-dasharray="5,2" d="M345.487,-218.17C370.415,-187.063 422.894,-121.577 441.92,-97.8348"/>
<polygon fill="#9a32cd" stroke="#9a32cd" points="342.491,-216.312 338.968,-226.304 347.953,-220.689 342.491,-216.312"/>
<text text-anchor="middle" x="428" y="-170" font-family="Helvetica,sans-Serif" font-size="10.00"> active</text>
<text text-anchor="middle" x="428" y="-159" font-family="Helvetica,sans-Serif" font-size="10.00">blocked</text>
<text text-anchor="middle" x="428" y="-148" font-family="Helvetica,sans-Serif" font-size="10.00">completed</text>
</g>
<!-- Node21&#45;&gt;Node21 -->
<g id="edge34" class="edge"><title>Node21&#45;&gt;Node21</title>
<path fill="none" stroke="#9a32cd" stroke-dasharray="5,2" d="M357.048,-241.981C361.441,-241.187 364.5,-239.194 364.5,-236 364.5,-230.621 355.824,-228.646 346.706,-230.075"/>
<polygon fill="#9a32cd" stroke="#9a32cd" points="356.725,-238.48 346.706,-241.925 356.687,-245.479 356.725,-238.48"/>
<text text-anchor="middle" x="375.5" y="-239" font-family="Helvetica,sans-Serif" font-size="10.00"> prev</text>
<text text-anchor="middle" x="375.5" y="-228" font-family="Helvetica,sans-Serif" font-size="10.00">next</text>
</g>
<!-- Node22&#45;&gt;Node21 -->
<g id="edge35" class="edge"><title>Node22&#45;&gt;Node21</title>
<path fill="none" stroke="#9a32cd" stroke-dasharray="5,2" d="M246.963,-320.102C258.942,-304.953 277.617,-282.488 296,-265 303.458,-257.905 312.625,-250.796 319.842,-245.516"/>
<polygon fill="#9a32cd" stroke="#9a32cd" points="244.128,-318.045 240.736,-328.082 249.647,-322.351 244.128,-318.045"/>
<text text-anchor="middle" x="314" y="-284.5" font-family="Helvetica,sans-Serif" font-size="10.00"> context</text>
</g>
<!-- Node22&#45;&gt;Node22 -->
<g id="edge36" class="edge"><title>Node22&#45;&gt;Node22</title>
<path fill="none" stroke="#9a32cd" stroke-dasharray="5,2" d="M259.048,-346.796C263.441,-345.629 266.5,-342.697 266.5,-338 266.5,-330.09 257.824,-327.185 248.706,-329.286"/>
<polygon fill="#9a32cd" stroke="#9a32cd" points="258.734,-343.293 248.706,-346.714 258.678,-350.293 258.734,-343.293"/>
<text text-anchor="middle" x="280" y="-341" font-family="Helvetica,sans-Serif" font-size="10.00"> caller</text>
<text text-anchor="middle" x="280" y="-330" font-family="Helvetica,sans-Serif" font-size="10.00">callee</text>
</g>
<!-- Node23 -->
<g id="node23" class="node"><title>Node23</title>
<g id="a_node23"><a xlink:href="structAccounting.html" target="_top" xlink:title="Accounting">
<polygon fill="white" stroke="black" points="311.5,-328.5 311.5,-347.5 376.5,-347.5 376.5,-328.5 311.5,-328.5"/>
<text text-anchor="middle" x="344" y="-335.5" font-family="Helvetica,sans-Serif" font-size="10.00">Accounting</text>
</a>
</g>
</g>
<!-- Node23&#45;&gt;Node21 -->
<g id="edge38" class="edge"><title>Node23&#45;&gt;Node21</title>
<path fill="none" stroke="#9a32cd" stroke-dasharray="5,2" d="M341.779,-318.494C339.169,-296.741 334.949,-261.576 333.021,-245.504"/>
<polygon fill="#9a32cd" stroke="#9a32cd" points="338.31,-318.962 342.977,-328.474 345.26,-318.128 338.31,-318.962"/>
<text text-anchor="middle" x="362.5" y="-284.5" font-family="Helvetica,sans-Serif" font-size="10.00"> accounts</text>
</g>
<!-- Node24 -->
<g id="node24" class="node"><title>Node24</title>
<g id="a_node24"><a xlink:href="structthread.html" target="_top" xlink:title="thread">
<polygon fill="white" stroke="black" points="373,-78.5 373,-97.5 417,-97.5 417,-78.5 373,-78.5"/>
<text text-anchor="middle" x="395" y="-85.5" font-family="Helvetica,sans-Serif" font-size="10.00">thread</text>
</a>
</g>
</g>
<!-- Node24&#45;&gt;Node1 -->
<g id="edge41" class="edge"><title>Node24&#45;&gt;Node1</title>
<path fill="none" stroke="#9a32cd" stroke-dasharray="5,2" d="M383.53,-69.5654C373.256,-53.9486 358.619,-31.7002 350.669,-19.6165"/>
<polygon fill="#9a32cd" stroke="#9a32cd" points="380.844,-71.8513 389.264,-78.2818 386.692,-68.004 380.844,-71.8513"/>
<text text-anchor="middle" x="404" y="-52" font-family="Helvetica,sans-Serif" font-size="10.00"> vm_thread</text>
<text text-anchor="middle" x="404" y="-41" font-family="Helvetica,sans-Serif" font-size="10.00">clock_thread</text>
</g>
<!-- Node25&#45;&gt;Node1 -->
<g id="edge42" class="edge"><title>Node25&#45;&gt;Node1</title>
<path fill="none" stroke="#9a32cd" stroke-dasharray="5,2" d="M249.461,-68.2835C248.175,-58.3429 248.566,-46.4658 255,-38 269.609,-18.7781 297.407,-12.7574 318.261,-11.0984"/>
<polygon fill="#9a32cd" stroke="#9a32cd" points="246.079,-69.2325 251.392,-78.3987 252.955,-67.9198 246.079,-69.2325"/>
<text text-anchor="middle" x="293" y="-46.5" font-family="Helvetica,sans-Serif" font-size="10.00"> active_receptors</text>
</g>
</g>
</svg>
