<?xml version="1.0" encoding="UTF-8" standalone="no"?>
<!DOCTYPE svg PUBLIC "-//W3C//DTD SVG 1.1//EN"
 "http://www.w3.org/Graphics/SVG/1.1/DTD/svg11.dtd">
<!-- Generated by graphviz version 2.38.0 (20140413.2041)
 -->
<!-- Title: instance_elem Pages: 1 -->
<svg width="380pt" height="309pt"
 viewBox="0.00 0.00 379.50 309.00" xmlns="http://www.w3.org/2000/svg" xmlns:xlink="http://www.w3.org/1999/xlink">
<g id="graph0" class="graph" transform="scale(1 1) rotate(0) translate(4 305)">
<title>instance_elem</title>
<polygon fill="white" stroke="none" points="-4,4 -4,-305 375.5,-305 375.5,4 -4,4"/>
<!-- Node1 -->
<g id="node1" class="node"><title>Node1</title>
<polygon fill="#bfbfbf" stroke="black" points="185.5,-67.5 185.5,-86.5 265.5,-86.5 265.5,-67.5 185.5,-67.5"/>
<text text-anchor="middle" x="225.5" y="-74.5" font-family="Helvetica,sans-Serif" font-size="10.00">instance_elem</text>
</g>
<!-- Node2 -->
<g id="node2" class="node"><title>Node2</title>
<g id="a_node2"><a xlink:href="structUT__hash__handle.html" target="_top" xlink:title="UT_hash_handle">
<polygon fill="white" stroke="black" points="36.5,-146.5 36.5,-165.5 126.5,-165.5 126.5,-146.5 36.5,-146.5"/>
<text text-anchor="middle" x="81.5" y="-153.5" font-family="Helvetica,sans-Serif" font-size="10.00">UT_hash_handle</text>
</a>
</g>
</g>
<!-- Node2&#45;&gt;Node1 -->
<g id="edge1" class="edge"><title>Node2&#45;&gt;Node1</title>
<path fill="none" stroke="#9a32cd" stroke-dasharray="5,2" d="M115.718,-142.925C127.308,-138.414 140.178,-132.933 151.5,-127 174.702,-114.842 199.721,-97.223 213.913,-86.7578"/>
<polygon fill="#9a32cd" stroke="#9a32cd" points="114.458,-139.659 106.346,-146.474 116.937,-146.205 114.458,-139.659"/>
<text text-anchor="middle" x="194.5" y="-113.5" font-family="Helvetica,sans-Serif" font-size="10.00"> hh</text>
</g>
<!-- Node2&#45;&gt;Node2 -->
<g id="edge2" class="edge"><title>Node2&#45;&gt;Node2</title>
<path fill="none" stroke="#9a32cd" stroke-dasharray="5,2" d="M136.764,-160.98C141.526,-159.922 144.5,-158.262 144.5,-156 144.5,-152.381 136.886,-150.303 126.52,-149.765"/>
<polygon fill="#9a32cd" stroke="#9a32cd" points="136.021,-157.545 126.52,-162.235 136.872,-164.493 136.021,-157.545"/>
<text text-anchor="middle" x="163.5" y="-159" font-family="Helvetica,sans-Serif" font-size="10.00"> hh_prev</text>
<text text-anchor="middle" x="163.5" y="-148" font-family="Helvetica,sans-Serif" font-size="10.00">hh_next</text>
</g>
<!-- Node3 -->
<g id="node3" class="node"><title>Node3</title>
<g id="a_node3"><a xlink:href="structUT__hash__table.html" target="_top" xlink:title="UT_hash_table">
<polygon fill="white" stroke="black" points="0,-0.5 0,-19.5 83,-19.5 83,-0.5 0,-0.5"/>
<text text-anchor="middle" x="41.5" y="-7.5" font-family="Helvetica,sans-Serif" font-size="10.00">UT_hash_table</text>
</a>
</g>
</g>
<!-- Node2&#45;&gt;Node3 -->
<g id="edge6" class="edge"><title>Node2&#45;&gt;Node3</title>
<path fill="none" stroke="#9a32cd" stroke-dasharray="5,2" d="M71.4627,-137.067C64.4392,-123.682 55.4585,-104.723 50.5,-87 43.8415,-63.2008 42.1076,-33.8649 41.6572,-19.6013"/>
<polygon fill="#9a32cd" stroke="#9a32cd" points="68.5151,-138.974 76.3531,-146.103 74.6714,-135.642 68.5151,-138.974"/>
<text text-anchor="middle" x="58.5" y="-74.5" font-family="Helvetica,sans-Serif" font-size="10.00"> tail</text>
</g>
<!-- Node4 -->
<g id="node4" class="node"><title>Node4</title>
<g id="a_node4"><a xlink:href="structUT__hash__bucket.html" target="_top" xlink:title="UT_hash_bucket">
<polygon fill="white" stroke="black" points="76,-67.5 76,-86.5 167,-86.5 167,-67.5 76,-67.5"/>
<text text-anchor="middle" x="121.5" y="-74.5" font-family="Helvetica,sans-Serif" font-size="10.00">UT_hash_bucket</text>
</a>
</g>
</g>
<!-- Node2&#45;&gt;Node4 -->
<g id="edge5" class="edge"><title>Node2&#45;&gt;Node4</title>
<path fill="none" stroke="#9a32cd" stroke-dasharray="5,2" d="M90.7346,-137.223C98.9331,-121.441 110.57,-99.0409 116.924,-86.8094"/>
<polygon fill="#9a32cd" stroke="#9a32cd" points="87.4376,-135.978 85.9335,-146.465 93.6494,-139.205 87.4376,-135.978"/>
<text text-anchor="middle" x="127.5" y="-113.5" font-family="Helvetica,sans-Serif" font-size="10.00"> hh_head</text>
</g>
<!-- Node3&#45;&gt;Node2 -->
<g id="edge3" class="edge"><title>Node3&#45;&gt;Node2</title>
<path fill="none" stroke="#9a32cd" stroke-dasharray="5,2" d="M25.8032,-27.7542C13.7311,-42.701 -0.0260048,-65.486 5.5,-87 10.5476,-106.651 12.9787,-112.83 27.5,-127 36.1163,-135.408 47.7671,-141.88 58.0411,-146.473"/>
<polygon fill="#9a32cd" stroke="#9a32cd" points="28.6734,-29.7855 32.5578,-19.9284 23.3742,-25.2117 28.6734,-29.7855"/>
<text text-anchor="middle" x="12.5" y="-74.5" font-family="Helvetica,sans-Serif" font-size="10.00"> tbl</text>
</g>
<!-- Node4&#45;&gt;Node3 -->
<g id="edge4" class="edge"><title>Node4&#45;&gt;Node3</title>
<path fill="none" stroke="#9a32cd" stroke-dasharray="5,2" d="M102.686,-60.7134C86.924,-47.907 64.9934,-30.0884 52.1182,-19.6273"/>
<polygon fill="#9a32cd" stroke="#9a32cd" points="100.743,-63.6443 110.711,-67.2338 105.157,-58.2114 100.743,-63.6443"/>
<text text-anchor="middle" x="105.5" y="-41" font-family="Helvetica,sans-Serif" font-size="10.00"> buckets</text>
</g>
<!-- Node5 -->
<g id="node5" class="node"><title>Node5</title>
<g id="a_node5"><a xlink:href="structT.html" target="_top" xlink:title="T">
<polygon fill="white" stroke="black" points="274,-146.5 274,-165.5 303,-165.5 303,-146.5 274,-146.5"/>
<text text-anchor="middle" x="288.5" y="-153.5" font-family="Helvetica,sans-Serif" font-size="10.00">T</text>
</a>
</g>
</g>
<!-- Node5&#45;&gt;Node1 -->
<g id="edge7" class="edge"><title>Node5&#45;&gt;Node1</title>
<path fill="none" stroke="#9a32cd" stroke-dasharray="5,2" d="M264.518,-146.789C254.819,-142.341 244.325,-135.895 237.5,-127 228.33,-115.048 226.065,-97.0372 225.566,-86.5043"/>
<polygon fill="#9a32cd" stroke="#9a32cd" points="263.206,-150.033 273.787,-150.587 265.861,-143.556 263.206,-150.033"/>
<text text-anchor="middle" x="257.5" y="-113.5" font-family="Helvetica,sans-Serif" font-size="10.00"> instance</text>
</g>
<!-- Node6 -->
<g id="node6" class="node"><title>Node6</title>
<g id="a_node6"><a xlink:href="structTstruct.html" target="_top" xlink:title="Tstruct">
<polygon fill="white" stroke="black" points="303,-67.5 303,-86.5 350,-86.5 350,-67.5 303,-67.5"/>
<text text-anchor="middle" x="326.5" y="-74.5" font-family="Helvetica,sans-Serif" font-size="10.00">Tstruct</text>
</a>
</g>
</g>
<!-- Node5&#45;&gt;Node6 -->
<g id="edge9" class="edge"><title>Node5&#45;&gt;Node6</title>
<path fill="none" stroke="#9a32cd" stroke-dasharray="5,2" d="M282.828,-136.284C280.925,-126.427 280.405,-114.456 285.5,-105 289.866,-96.8967 297.846,-90.8252 305.612,-86.5133"/>
<polygon fill="#9a32cd" stroke="#9a32cd" points="279.505,-137.424 285.338,-146.269 286.294,-135.718 279.505,-137.424"/>
<text text-anchor="middle" x="302.5" y="-119" font-family="Helvetica,sans-Serif" font-size="10.00"> parent</text>
<text text-anchor="middle" x="302.5" y="-108" font-family="Helvetica,sans-Serif" font-size="10.00">children</text>
</g>
<!-- Node6&#45;&gt;Node5 -->
<g id="edge8" class="edge"><title>Node6&#45;&gt;Node5</title>
<path fill="none" stroke="#9a32cd" stroke-dasharray="5,2" d="M328.829,-96.5909C329.197,-106.174 328.296,-117.756 323.5,-127 319.056,-135.565 310.706,-142.402 303.276,-147.175"/>
<polygon fill="#9a32cd" stroke="#9a32cd" points="332.307,-96.1867 327.971,-86.52 325.333,-96.781 332.307,-96.1867"/>
<text text-anchor="middle" x="350.5" y="-113.5" font-family="Helvetica,sans-Serif" font-size="10.00"> structure</text>
</g>
<!-- Node7 -->
<g id="node7" class="node"><title>Node7</title>
<g id="a_node7"><a xlink:href="structTcontext.html" target="_top" xlink:title="Tcontext">
<polygon fill="white" stroke="black" points="227,-214.5 227,-233.5 282,-233.5 282,-214.5 227,-214.5"/>
<text text-anchor="middle" x="254.5" y="-221.5" font-family="Helvetica,sans-Serif" font-size="10.00">Tcontext</text>
</a>
</g>
</g>
<!-- Node7&#45;&gt;Node5 -->
<g id="edge10" class="edge"><title>Node7&#45;&gt;Node5</title>
<path fill="none" stroke="#9a32cd" stroke-dasharray="5,2" d="M256.963,-204.55C258.309,-198.116 260.367,-191.008 263.5,-185 267.297,-177.719 273.412,-170.823 278.644,-165.696"/>
<polygon fill="#9a32cd" stroke="#9a32cd" points="253.509,-203.987 255.308,-214.428 260.413,-205.143 253.509,-203.987"/>
<text text-anchor="middle" x="281.5" y="-188" font-family="Helvetica,sans-Serif" font-size="10.00"> context</text>
</g>
<!-- Node8 -->
<g id="node8" class="node"><title>Node8</title>
<g id="a_node8"><a xlink:href="structTcontents.html" target="_top" xlink:title="Tcontents">
<polygon fill="white" stroke="black" points="300.5,-214.5 300.5,-233.5 360.5,-233.5 360.5,-214.5 300.5,-214.5"/>
<text text-anchor="middle" x="330.5" y="-221.5" font-family="Helvetica,sans-Serif" font-size="10.00">Tcontents</text>
</a>
</g>
</g>
<!-- Node8&#45;&gt;Node5 -->
<g id="edge11" class="edge"><title>Node8&#45;&gt;Node5</title>
<path fill="none" stroke="#9a32cd" stroke-dasharray="5,2" d="M319.404,-205.563C311.27,-192.781 300.565,-175.96 294.126,-165.841"/>
<polygon fill="#9a32cd" stroke="#9a32cd" points="316.688,-207.814 325.009,-214.372 322.593,-204.056 316.688,-207.814"/>
<text text-anchor="middle" x="334" y="-188" font-family="Helvetica,sans-Serif" font-size="10.00"> contents</text>
</g>
<!-- Node9 -->
<g id="node9" class="node"><title>Node9</title>
<g id="a_node9"><a xlink:href="structSemanticID.html" target="_top" xlink:title="SemanticID">
<polygon fill="white" stroke="black" points="296.5,-281.5 296.5,-300.5 364.5,-300.5 364.5,-281.5 296.5,-281.5"/>
<text text-anchor="middle" x="330.5" y="-288.5" font-family="Helvetica,sans-Serif" font-size="10.00">SemanticID</text>
</a>
</g>
</g>
<!-- Node9&#45;&gt;Node8 -->
<g id="edge12" class="edge"><title>Node9&#45;&gt;Node8</title>
<path fill="none" stroke="#9a32cd" stroke-dasharray="5,2" d="M330.5,-271.037C330.5,-258.67 330.5,-243.12 330.5,-233.627"/>
<polygon fill="#9a32cd" stroke="#9a32cd" points="327,-271.234 330.5,-281.234 334,-271.234 327,-271.234"/>
<text text-anchor="middle" x="348" y="-255" font-family="Helvetica,sans-Serif" font-size="10.00"> symbol</text>
</g>
</g>
</svg>
