<?xml version="1.0" encoding="UTF-8" standalone="no"?>
<!DOCTYPE svg PUBLIC "-//W3C//DTD SVG 1.1//EN"
 "http://www.w3.org/Graphics/SVG/1.1/DTD/svg11.dtd">
<!-- Generated by graphviz version 2.38.0 (20140413.2041)
 -->
<!-- Title: Qe Pages: 1 -->
<svg width="314pt" height="402pt"
 viewBox="0.00 0.00 313.88 402.00" xmlns="http://www.w3.org/2000/svg" xmlns:xlink="http://www.w3.org/1999/xlink">
<g id="graph0" class="graph" transform="scale(1 1) rotate(0) translate(4 398)">
<title>Qe</title>
<polygon fill="white" stroke="none" points="-4,4 -4,-398 309.878,-398 309.878,4 -4,4"/>
<!-- Node1 -->
<g id="node1" class="node"><title>Node1</title>
<polygon fill="#bfbfbf" stroke="black" points="82.3782,-1.5 82.3782,-20.5 111.378,-20.5 111.378,-1.5 82.3782,-1.5"/>
<text text-anchor="middle" x="96.8782" y="-8.5" font-family="Helvetica,sans-Serif" font-size="10.00">Qe</text>
</g>
<!-- Node1&#45;&gt;Node1 -->
<g id="edge1" class="edge"><title>Node1&#45;&gt;Node1</title>
<path fill="none" stroke="#9a32cd" stroke-dasharray="5,2" d="M121.926,-16.9812C126.319,-16.1875 129.378,-14.1937 129.378,-11 129.378,-5.62109 120.702,-3.64603 111.585,-5.0748"/>
<polygon fill="#9a32cd" stroke="#9a32cd" points="121.604,-13.4795 111.585,-16.9252 121.566,-20.4794 121.604,-13.4795"/>
<text text-anchor="middle" x="140.378" y="-14" font-family="Helvetica,sans-Serif" font-size="10.00"> prev</text>
<text text-anchor="middle" x="140.378" y="-3" font-family="Helvetica,sans-Serif" font-size="10.00">next</text>
</g>
<!-- Node2 -->
<g id="node2" class="node"><title>Node2</title>
<g id="a_node2"><a xlink:href="structR.html" target="_top" xlink:title="R">
<polygon fill="white" stroke="black" points="2.37823,-70.5 2.37823,-89.5 31.3782,-89.5 31.3782,-70.5 2.37823,-70.5"/>
<text text-anchor="middle" x="16.8782" y="-77.5" font-family="Helvetica,sans-Serif" font-size="10.00">R</text>
</a>
</g>
</g>
<!-- Node2&#45;&gt;Node1 -->
<g id="edge2" class="edge"><title>Node2&#45;&gt;Node1</title>
<path fill="none" stroke="#9a32cd" stroke-dasharray="5,2" d="M35.4308,-63.4623C51.3784,-50.1061 73.7843,-31.3412 86.67,-20.5494"/>
<polygon fill="#9a32cd" stroke="#9a32cd" points="32.7561,-61.1369 27.3368,-70.2409 37.2506,-66.5035 32.7561,-61.1369"/>
<text text-anchor="middle" x="79.8782" y="-43" font-family="Helvetica,sans-Serif" font-size="10.00"> context</text>
</g>
<!-- Node2&#45;&gt;Node2 -->
<g id="edge3" class="edge"><title>Node2&#45;&gt;Node2</title>
<path fill="none" stroke="#9a32cd" stroke-dasharray="5,2" d="M41.9258,-85.9812C46.3194,-85.1875 49.3782,-83.1937 49.3782,-80 49.3782,-74.6211 40.7018,-72.646 31.5847,-74.0748"/>
<polygon fill="#9a32cd" stroke="#9a32cd" points="41.6036,-82.4795 31.5847,-85.9252 41.5656,-89.4794 41.6036,-82.4795"/>
<text text-anchor="middle" x="62.8782" y="-83" font-family="Helvetica,sans-Serif" font-size="10.00"> caller</text>
<text text-anchor="middle" x="62.8782" y="-72" font-family="Helvetica,sans-Serif" font-size="10.00">callee</text>
</g>
<!-- Node3 -->
<g id="node3" class="node"><title>Node3</title>
<g id="a_node3"><a xlink:href="structConversationState.html" target="_top" xlink:title="ConversationState">
<polygon fill="white" stroke="black" points="74.8782,-150.5 74.8782,-169.5 172.878,-169.5 172.878,-150.5 74.8782,-150.5"/>
<text text-anchor="middle" x="123.878" y="-157.5" font-family="Helvetica,sans-Serif" font-size="10.00">ConversationState</text>
</a>
</g>
</g>
<!-- Node3&#45;&gt;Node2 -->
<g id="edge4" class="edge"><title>Node3&#45;&gt;Node2</title>
<path fill="none" stroke="#9a32cd" stroke-dasharray="5,2" d="M103.678,-144.274C81.5802,-128.166 46.9005,-102.885 28.791,-89.6841"/>
<polygon fill="#9a32cd" stroke="#9a32cd" points="101.876,-147.292 112.019,-150.355 105.999,-141.636 101.876,-147.292"/>
<text text-anchor="middle" x="100.378" y="-112" font-family="Helvetica,sans-Serif" font-size="10.00"> conversation</text>
</g>
<!-- Node3&#45;&gt;Node3 -->
<g id="edge5" class="edge"><title>Node3&#45;&gt;Node3</title>
<path fill="none" stroke="#9a32cd" stroke-dasharray="5,2" d="M182.842,-166.393C187.794,-165.021 190.878,-162.89 190.878,-160 190.878,-155.488 183.364,-152.827 172.959,-152.016"/>
<polygon fill="#9a32cd" stroke="#9a32cd" points="182.275,-162.939 172.959,-167.984 183.388,-169.85 182.275,-162.939"/>
<text text-anchor="middle" x="201.878" y="-157.5" font-family="Helvetica,sans-Serif" font-size="10.00"> next</text>
</g>
<!-- Node4 -->
<g id="node4" class="node"><title>Node4</title>
<g id="a_node4"><a xlink:href="structT.html" target="_top" xlink:title="T">
<polygon fill="white" stroke="black" points="152.378,-240.5 152.378,-259.5 181.378,-259.5 181.378,-240.5 152.378,-240.5"/>
<text text-anchor="middle" x="166.878" y="-247.5" font-family="Helvetica,sans-Serif" font-size="10.00">T</text>
</a>
</g>
</g>
<!-- Node4&#45;&gt;Node2 -->
<g id="edge12" class="edge"><title>Node4&#45;&gt;Node2</title>
<path fill="none" stroke="#9a32cd" stroke-dasharray="5,2" d="M142.11,-246.663C105.866,-241.759 39.4816,-226.82 9.87823,-182 -9.30232,-152.961 5.37448,-108.423 13.0095,-89.7322"/>
<polygon fill="#9a32cd" stroke="#9a32cd" points="141.971,-250.171 152.316,-247.884 142.803,-243.221 141.971,-250.171"/>
<text text-anchor="middle" x="37.8782" y="-174" font-family="Helvetica,sans-Serif" font-size="10.00"> run_tree</text>
<text text-anchor="middle" x="37.8782" y="-163" font-family="Helvetica,sans-Serif" font-size="10.00">node_pointer</text>
<text text-anchor="middle" x="37.8782" y="-152" font-family="Helvetica,sans-Serif" font-size="10.00">parent</text>
<text text-anchor="middle" x="37.8782" y="-141" font-family="Helvetica,sans-Serif" font-size="10.00">sem_map</text>
</g>
<!-- Node4&#45;&gt;Node3 -->
<g id="edge6" class="edge"><title>Node4&#45;&gt;Node3</title>
<path fill="none" stroke="#9a32cd" stroke-dasharray="5,2" d="M142.507,-241.629C133.096,-237.46 123.305,-231.186 117.878,-222 108.136,-205.508 115.06,-182.051 120.03,-169.576"/>
<polygon fill="#9a32cd" stroke="#9a32cd" points="141.387,-244.948 151.978,-245.247 143.885,-238.409 141.387,-244.948"/>
<text text-anchor="middle" x="156.878" y="-214" font-family="Helvetica,sans-Serif" font-size="10.00"> converse_pointer</text>
<text text-anchor="middle" x="156.878" y="-203" font-family="Helvetica,sans-Serif" font-size="10.00">cid</text>
</g>
<!-- Node5 -->
<g id="node5" class="node"><title>Node5</title>
<g id="a_node5"><a xlink:href="structTstruct.html" target="_top" xlink:title="Tstruct">
<polygon fill="white" stroke="black" points="244.378,-150.5 244.378,-169.5 291.378,-169.5 291.378,-150.5 244.378,-150.5"/>
<text text-anchor="middle" x="267.878" y="-157.5" font-family="Helvetica,sans-Serif" font-size="10.00">Tstruct</text>
</a>
</g>
</g>
<!-- Node4&#45;&gt;Node5 -->
<g id="edge8" class="edge"><title>Node4&#45;&gt;Node5</title>
<path fill="none" stroke="#9a32cd" stroke-dasharray="5,2" d="M184.167,-233.481C188.096,-229.797 192.194,-225.824 195.878,-222 204.842,-212.696 205.394,-208.772 214.878,-200 227.458,-188.364 243.492,-176.975 254.614,-169.537"/>
<polygon fill="#9a32cd" stroke="#9a32cd" points="181.526,-231.154 176.529,-240.497 186.262,-236.309 181.526,-231.154"/>
<text text-anchor="middle" x="231.878" y="-214" font-family="Helvetica,sans-Serif" font-size="10.00"> parent</text>
<text text-anchor="middle" x="231.878" y="-203" font-family="Helvetica,sans-Serif" font-size="10.00">children</text>
</g>
<!-- Node5&#45;&gt;Node4 -->
<g id="edge7" class="edge"><title>Node5&#45;&gt;Node4</title>
<path fill="none" stroke="#9a32cd" stroke-dasharray="5,2" d="M267.913,-179.746C266.943,-193.13 263.492,-210.695 252.878,-222 234.134,-241.966 200.829,-247.252 181.629,-248.598"/>
<polygon fill="#9a32cd" stroke="#9a32cd" points="271.413,-179.828 268.248,-169.717 264.416,-179.595 271.413,-179.828"/>
<text text-anchor="middle" x="284.878" y="-208.5" font-family="Helvetica,sans-Serif" font-size="10.00"> structure</text>
</g>
<!-- Node6 -->
<g id="node6" class="node"><title>Node6</title>
<g id="a_node6"><a xlink:href="structTcontext.html" target="_top" xlink:title="Tcontext">
<polygon fill="white" stroke="black" points="110.378,-307.5 110.378,-326.5 165.378,-326.5 165.378,-307.5 110.378,-307.5"/>
<text text-anchor="middle" x="137.878" y="-314.5" font-family="Helvetica,sans-Serif" font-size="10.00">Tcontext</text>
</a>
</g>
</g>
<!-- Node6&#45;&gt;Node4 -->
<g id="edge9" class="edge"><title>Node6&#45;&gt;Node4</title>
<path fill="none" stroke="#9a32cd" stroke-dasharray="5,2" d="M140.805,-296.989C142.174,-290.757 144.128,-283.918 146.878,-278 149.927,-271.44 154.714,-264.901 158.841,-259.901"/>
<polygon fill="#9a32cd" stroke="#9a32cd" points="137.291,-296.752 138.93,-307.219 144.176,-298.014 137.291,-296.752"/>
<text text-anchor="middle" x="164.878" y="-281" font-family="Helvetica,sans-Serif" font-size="10.00"> context</text>
</g>
<!-- Node7 -->
<g id="node7" class="node"><title>Node7</title>
<g id="a_node7"><a xlink:href="structTcontents.html" target="_top" xlink:title="Tcontents">
<polygon fill="white" stroke="black" points="183.878,-307.5 183.878,-326.5 243.878,-326.5 243.878,-307.5 183.878,-307.5"/>
<text text-anchor="middle" x="213.878" y="-314.5" font-family="Helvetica,sans-Serif" font-size="10.00">Tcontents</text>
</a>
</g>
</g>
<!-- Node7&#45;&gt;Node4 -->
<g id="edge10" class="edge"><title>Node7&#45;&gt;Node4</title>
<path fill="none" stroke="#9a32cd" stroke-dasharray="5,2" d="M201.516,-298.904C192.383,-286.273 180.33,-269.604 173.116,-259.627"/>
<polygon fill="#9a32cd" stroke="#9a32cd" points="198.844,-301.181 207.54,-307.234 204.516,-297.079 198.844,-301.181"/>
<text text-anchor="middle" x="214.378" y="-281" font-family="Helvetica,sans-Serif" font-size="10.00"> contents</text>
</g>
<!-- Node8 -->
<g id="node8" class="node"><title>Node8</title>
<g id="a_node8"><a xlink:href="structSemanticID.html" target="_top" xlink:title="SemanticID">
<polygon fill="white" stroke="black" points="179.878,-374.5 179.878,-393.5 247.878,-393.5 247.878,-374.5 179.878,-374.5"/>
<text text-anchor="middle" x="213.878" y="-381.5" font-family="Helvetica,sans-Serif" font-size="10.00">SemanticID</text>
</a>
</g>
</g>
<!-- Node8&#45;&gt;Node7 -->
<g id="edge11" class="edge"><title>Node8&#45;&gt;Node7</title>
<path fill="none" stroke="#9a32cd" stroke-dasharray="5,2" d="M213.878,-364.037C213.878,-351.67 213.878,-336.12 213.878,-326.627"/>
<polygon fill="#9a32cd" stroke="#9a32cd" points="210.378,-364.234 213.878,-374.234 217.378,-364.234 210.378,-364.234"/>
<text text-anchor="middle" x="231.378" y="-348" font-family="Helvetica,sans-Serif" font-size="10.00"> symbol</text>
</g>
<!-- Node9 -->
<g id="node9" class="node"><title>Node9</title>
<g id="a_node9"><a xlink:href="structAccounting.html" target="_top" xlink:title="Accounting">
<polygon fill="white" stroke="black" points="94.3782,-70.5 94.3782,-89.5 159.378,-89.5 159.378,-70.5 94.3782,-70.5"/>
<text text-anchor="middle" x="126.878" y="-77.5" font-family="Helvetica,sans-Serif" font-size="10.00">Accounting</text>
</a>
</g>
</g>
<!-- Node9&#45;&gt;Node1 -->
<g id="edge13" class="edge"><title>Node9&#45;&gt;Node1</title>
<path fill="none" stroke="#9a32cd" stroke-dasharray="5,2" d="M118.729,-60.8007C112.866,-47.7071 105.225,-30.6417 100.706,-20.5494"/>
<polygon fill="#9a32cd" stroke="#9a32cd" points="115.675,-62.5444 122.956,-70.2409 122.064,-59.6837 115.675,-62.5444"/>
<text text-anchor="middle" x="135.378" y="-43" font-family="Helvetica,sans-Serif" font-size="10.00"> accounts</text>
</g>
</g>
</svg>
