<?xml version="1.0" encoding="UTF-8" standalone="no"?>
<!DOCTYPE svg PUBLIC "-//W3C//DTD SVG 1.1//EN"
 "http://www.w3.org/Graphics/SVG/1.1/DTD/svg11.dtd">
<!-- Generated by graphviz version 2.38.0 (20140413.2041)
 -->
<!-- Title: VMHost Pages: 1 -->
<svg width="1068pt" height="609pt"
 viewBox="0.00 0.00 1068.00 609.00" xmlns="http://www.w3.org/2000/svg" xmlns:xlink="http://www.w3.org/1999/xlink">
<g id="graph0" class="graph" transform="scale(1 1) rotate(0) translate(4 605)">
<title>VMHost</title>
<polygon fill="white" stroke="none" points="-4,4 -4,-605 1064,-605 1064,4 -4,4"/>
<!-- Node1 -->
<g id="node1" class="node"><title>Node1</title>
<polygon fill="#bfbfbf" stroke="black" points="917.5,-0.5 917.5,-19.5 970.5,-19.5 970.5,-0.5 917.5,-0.5"/>
<text text-anchor="middle" x="944" y="-7.5" font-family="Helvetica,sans-Serif" font-size="10.00">VMHost</text>
</g>
<!-- Node2 -->
<g id="node2" class="node"><title>Node2</title>
<g id="a_node2"><a xlink:href="structScape.html" target="_top" xlink:title="Scape">
<polygon fill="white" stroke="black" points="59,-235.5 59,-254.5 103,-254.5 103,-235.5 59,-235.5"/>
<text text-anchor="middle" x="81" y="-242.5" font-family="Helvetica,sans-Serif" font-size="10.00">Scape</text>
</a>
</g>
</g>
<!-- Node2&#45;&gt;Node1 -->
<g id="edge1" class="edge"><title>Node2&#45;&gt;Node1</title>
<path fill="none" stroke="#9a32cd" stroke-dasharray="5,2" d="M113.05,-234.64C186.826,-213.151 374.423,-158.841 532,-116 664.941,-79.8573 698.363,-71.478 832,-38 861.103,-30.7093 894.553,-22.6927 917.264,-17.3039"/>
<polygon fill="#9a32cd" stroke="#9a32cd" points="111.63,-231.408 103.008,-237.567 113.588,-238.128 111.63,-231.408"/>
<text text-anchor="middle" x="574.5" y="-119" font-family="Helvetica,sans-Serif" font-size="10.00"> installed_receptors</text>
</g>
<!-- Node3 -->
<g id="node3" class="node"><title>Node3</title>
<g id="a_node3"><a xlink:href="structSemanticID.html" target="_top" xlink:title="SemanticID">
<polygon fill="white" stroke="black" points="420,-581.5 420,-600.5 488,-600.5 488,-581.5 420,-581.5"/>
<text text-anchor="middle" x="454" y="-588.5" font-family="Helvetica,sans-Serif" font-size="10.00">SemanticID</text>
</a>
</g>
</g>
<!-- Node3&#45;&gt;Node2 -->
<g id="edge2" class="edge"><title>Node3&#45;&gt;Node2</title>
<path fill="none" stroke="#9a32cd" stroke-dasharray="5,2" d="M409.728,-588.264C295.552,-583.198 0,-566.116 0,-525 0,-525 0,-525 0,-338.5 0,-299.224 41.8447,-268.621 65.3824,-254.514"/>
<polygon fill="#9a32cd" stroke="#9a32cd" points="409.734,-591.767 419.876,-588.703 410.037,-584.774 409.734,-591.767"/>
<text text-anchor="middle" x="27" y="-450" font-family="Helvetica,sans-Serif" font-size="10.00"> key_source</text>
<text text-anchor="middle" x="27" y="-439" font-family="Helvetica,sans-Serif" font-size="10.00">data_source</text>
</g>
<!-- Node5 -->
<g id="node5" class="node"><title>Node5</title>
<g id="a_node5"><a xlink:href="structXaddr.html" target="_top" xlink:title="Xaddr">
<polygon fill="white" stroke="black" points="166,-476.5 166,-495.5 208,-495.5 208,-476.5 166,-476.5"/>
<text text-anchor="middle" x="187" y="-483.5" font-family="Helvetica,sans-Serif" font-size="10.00">Xaddr</text>
</a>
</g>
</g>
<!-- Node3&#45;&gt;Node5 -->
<g id="edge5" class="edge"><title>Node3&#45;&gt;Node5</title>
<path fill="none" stroke="#9a32cd" stroke-dasharray="5,2" d="M422.078,-577.685C366.889,-556.395 255.071,-513.26 208.311,-495.221"/>
<polygon fill="#9a32cd" stroke="#9a32cd" points="421.105,-581.062 431.695,-581.395 423.625,-574.531 421.105,-581.062"/>
<text text-anchor="middle" x="399.5" y="-555" font-family="Helvetica,sans-Serif" font-size="10.00"> symbol</text>
</g>
<!-- Node11 -->
<g id="node11" class="node"><title>Node11</title>
<g id="a_node11"><a xlink:href="structinstances__elem.html" target="_top" xlink:title="instances_elem">
<polygon fill="white" stroke="black" points="446.5,-235.5 446.5,-254.5 531.5,-254.5 531.5,-235.5 446.5,-235.5"/>
<text text-anchor="middle" x="489" y="-242.5" font-family="Helvetica,sans-Serif" font-size="10.00">instances_elem</text>
</a>
</g>
</g>
<!-- Node3&#45;&gt;Node11 -->
<g id="edge25" class="edge"><title>Node3&#45;&gt;Node11</title>
<path fill="none" stroke="#9a32cd" stroke-dasharray="5,2" d="M461.267,-571.679C475.838,-534.034 508.472,-444.961 523,-367 530.583,-326.307 546.896,-310.828 528,-274 523.738,-265.694 515.741,-259.297 508.092,-254.727"/>
<polygon fill="#9a32cd" stroke="#9a32cd" points="457.901,-570.676 457.514,-581.264 464.419,-573.228 457.901,-570.676"/>
<text text-anchor="middle" x="511.5" y="-444.5" font-family="Helvetica,sans-Serif" font-size="10.00"> s</text>
</g>
<!-- Node16 -->
<g id="node16" class="node"><title>Node16</title>
<g id="a_node16"><a xlink:href="structTcontents.html" target="_top" xlink:title="Tcontents">
<polygon fill="white" stroke="black" points="754,-514.5 754,-533.5 814,-533.5 814,-514.5 754,-514.5"/>
<text text-anchor="middle" x="784" y="-521.5" font-family="Helvetica,sans-Serif" font-size="10.00">Tcontents</text>
</a>
</g>
</g>
<!-- Node3&#45;&gt;Node16 -->
<g id="edge24" class="edge"><title>Node3&#45;&gt;Node16</title>
<path fill="none" stroke="#9a32cd" stroke-dasharray="5,2" d="M498.551,-581.834C555.553,-571.286 657.293,-552.122 744,-534 747.205,-533.33 750.55,-532.61 753.881,-531.88"/>
<polygon fill="#9a32cd" stroke="#9a32cd" points="497.64,-578.443 488.442,-583.701 498.911,-585.327 497.64,-578.443"/>
<text text-anchor="middle" x="666.5" y="-555" font-family="Helvetica,sans-Serif" font-size="10.00"> symbol</text>
</g>
<!-- Node4 -->
<g id="node4" class="node"><title>Node4</title>
<g id="a_node4"><a xlink:href="structscape__elem.html" target="_top" xlink:title="scape_elem">
<polygon fill="white" stroke="black" points="46.5,-330 46.5,-349 115.5,-349 115.5,-330 46.5,-330"/>
<text text-anchor="middle" x="81" y="-337" font-family="Helvetica,sans-Serif" font-size="10.00">scape_elem</text>
</a>
</g>
</g>
<!-- Node4&#45;&gt;Node2 -->
<g id="edge3" class="edge"><title>Node4&#45;&gt;Node2</title>
<path fill="none" stroke="#9a32cd" stroke-dasharray="5,2" d="M81,-319.944C81,-300.038 81,-269.3 81,-254.516"/>
<polygon fill="#9a32cd" stroke="#9a32cd" points="77.5001,-319.964 81,-329.964 84.5001,-319.964 77.5001,-319.964"/>
<text text-anchor="middle" x="92" y="-281.5" font-family="Helvetica,sans-Serif" font-size="10.00"> data</text>
</g>
<!-- Node5&#45;&gt;Node4 -->
<g id="edge4" class="edge"><title>Node5&#45;&gt;Node4</title>
<path fill="none" stroke="#9a32cd" stroke-dasharray="5,2" d="M162.893,-471.195C144.25,-459.341 119.142,-440.612 104,-418 89.3184,-396.076 83.7963,-364.557 81.8986,-349.359"/>
<polygon fill="#9a32cd" stroke="#9a32cd" points="161.099,-474.201 171.453,-476.448 164.761,-468.235 161.099,-474.201"/>
<text text-anchor="middle" x="157.5" y="-444.5" font-family="Helvetica,sans-Serif" font-size="10.00"> value</text>
</g>
<!-- Node6 -->
<g id="node6" class="node"><title>Node6</title>
<g id="a_node6"><a xlink:href="structUT__hash__handle.html" target="_top" xlink:title="UT_hash_handle">
<polygon fill="white" stroke="black" points="267,-437.5 267,-456.5 357,-456.5 357,-437.5 267,-437.5"/>
<text text-anchor="middle" x="312" y="-444.5" font-family="Helvetica,sans-Serif" font-size="10.00">UT_hash_handle</text>
</a>
</g>
</g>
<!-- Node6&#45;&gt;Node4 -->
<g id="edge6" class="edge"><title>Node6&#45;&gt;Node4</title>
<path fill="none" stroke="#9a32cd" stroke-dasharray="5,2" d="M256.796,-443.144C209.216,-439.727 144.972,-432.535 124,-418 111.416,-409.279 92.4131,-367.286 84.5745,-349.018"/>
<polygon fill="#9a32cd" stroke="#9a32cd" points="256.762,-446.649 266.977,-443.836 257.237,-439.665 256.762,-446.649"/>
<text text-anchor="middle" x="131" y="-399" font-family="Helvetica,sans-Serif" font-size="10.00"> hh</text>
</g>
<!-- Node6&#45;&gt;Node6 -->
<g id="edge7" class="edge"><title>Node6&#45;&gt;Node6</title>
<path fill="none" stroke="#9a32cd" stroke-dasharray="5,2" d="M367.264,-452.566C372.026,-451.383 375,-449.528 375,-447 375,-442.955 367.386,-440.632 357.02,-440.032"/>
<polygon fill="#9a32cd" stroke="#9a32cd" points="366.453,-449.144 357.02,-453.968 367.403,-456.08 366.453,-449.144"/>
<text text-anchor="middle" x="394" y="-450" font-family="Helvetica,sans-Serif" font-size="10.00"> hh_prev</text>
<text text-anchor="middle" x="394" y="-439" font-family="Helvetica,sans-Serif" font-size="10.00">hh_next</text>
</g>
<!-- Node7 -->
<g id="node7" class="node"><title>Node7</title>
<g id="a_node7"><a xlink:href="structUT__hash__table.html" target="_top" xlink:title="UT_hash_table">
<polygon fill="white" stroke="black" points="188.5,-235.5 188.5,-254.5 271.5,-254.5 271.5,-235.5 188.5,-235.5"/>
<text text-anchor="middle" x="230" y="-242.5" font-family="Helvetica,sans-Serif" font-size="10.00">UT_hash_table</text>
</a>
</g>
</g>
<!-- Node6&#45;&gt;Node7 -->
<g id="edge11" class="edge"><title>Node6&#45;&gt;Node7</title>
<path fill="none" stroke="#9a32cd" stroke-dasharray="5,2" d="M312.374,-427.171C312.103,-393.165 307.088,-320.702 272,-274 265.894,-265.873 256.698,-259.362 248.466,-254.671"/>
<polygon fill="#9a32cd" stroke="#9a32cd" points="308.872,-427.471 312.313,-437.491 315.872,-427.512 308.872,-427.471"/>
<text text-anchor="middle" x="316" y="-337" font-family="Helvetica,sans-Serif" font-size="10.00"> tail</text>
</g>
<!-- Node8 -->
<g id="node8" class="node"><title>Node8</title>
<g id="a_node8"><a xlink:href="structUT__hash__bucket.html" target="_top" xlink:title="UT_hash_bucket">
<polygon fill="white" stroke="black" points="184.5,-330 184.5,-349 275.5,-349 275.5,-330 184.5,-330"/>
<text text-anchor="middle" x="230" y="-337" font-family="Helvetica,sans-Serif" font-size="10.00">UT_hash_bucket</text>
</a>
</g>
</g>
<!-- Node6&#45;&gt;Node8 -->
<g id="edge10" class="edge"><title>Node6&#45;&gt;Node8</title>
<path fill="none" stroke="#9a32cd" stroke-dasharray="5,2" d="M277.477,-432.99C270.314,-429.039 263.334,-424.087 258,-418 240.086,-397.557 233.339,-364.769 231.051,-349.221"/>
<polygon fill="#9a32cd" stroke="#9a32cd" points="276.021,-436.175 286.537,-437.469 279.124,-429.9 276.021,-436.175"/>
<text text-anchor="middle" x="278" y="-399" font-family="Helvetica,sans-Serif" font-size="10.00"> hh_head</text>
</g>
<!-- Node10 -->
<g id="node10" class="node"><title>Node10</title>
<g id="a_node10"><a xlink:href="structtable__elem.html" target="_top" xlink:title="table_elem">
<polygon fill="white" stroke="black" points="325,-274.5 325,-293.5 389,-293.5 389,-274.5 325,-274.5"/>
<text text-anchor="middle" x="357" y="-281.5" font-family="Helvetica,sans-Serif" font-size="10.00">table_elem</text>
</a>
</g>
</g>
<!-- Node6&#45;&gt;Node10 -->
<g id="edge14" class="edge"><title>Node6&#45;&gt;Node10</title>
<path fill="none" stroke="#9a32cd" stroke-dasharray="5,2" d="M321.676,-428.199C323.262,-424.869 324.782,-421.374 326,-418 342.418,-372.505 352.355,-315.061 355.715,-293.602"/>
<polygon fill="#9a32cd" stroke="#9a32cd" points="318.404,-426.91 316.958,-437.406 324.634,-430.103 318.404,-426.91"/>
<text text-anchor="middle" x="343" y="-399" font-family="Helvetica,sans-Serif" font-size="10.00"> hh</text>
</g>
<!-- Node6&#45;&gt;Node11 -->
<g id="edge16" class="edge"><title>Node6&#45;&gt;Node11</title>
<path fill="none" stroke="#9a32cd" stroke-dasharray="5,2" d="M337.844,-431.661C343.595,-427.719 349.356,-423.105 354,-418 389.992,-378.43 377.326,-353.56 411,-312 430.431,-288.018 459.482,-266.146 476.099,-254.595"/>
<polygon fill="#9a32cd" stroke="#9a32cd" points="335.552,-428.969 328.975,-437.276 339.296,-434.884 335.552,-428.969"/>
<text text-anchor="middle" x="418" y="-337" font-family="Helvetica,sans-Serif" font-size="10.00"> hh</text>
</g>
<!-- Node12 -->
<g id="node12" class="node"><title>Node12</title>
<g id="a_node12"><a xlink:href="structinstance__elem.html" target="_top" xlink:title="instance_elem">
<polygon fill="white" stroke="black" points="434,-330 434,-349 514,-349 514,-330 434,-330"/>
<text text-anchor="middle" x="474" y="-337" font-family="Helvetica,sans-Serif" font-size="10.00">instance_elem</text>
</a>
</g>
</g>
<!-- Node6&#45;&gt;Node12 -->
<g id="edge18" class="edge"><title>Node6&#45;&gt;Node12</title>
<path fill="none" stroke="#9a32cd" stroke-dasharray="5,2" d="M367.424,-438.234C384.039,-434.085 401.644,-427.73 416,-418 442.71,-399.897 461.98,-365.355 469.946,-349.215"/>
<polygon fill="#9a32cd" stroke="#9a32cd" points="366.222,-434.917 357.244,-440.542 367.77,-441.744 366.222,-434.917"/>
<text text-anchor="middle" x="455" y="-399" font-family="Helvetica,sans-Serif" font-size="10.00"> hh</text>
</g>
<!-- Node7&#45;&gt;Node6 -->
<g id="edge8" class="edge"><title>Node7&#45;&gt;Node6</title>
<path fill="none" stroke="#9a32cd" stroke-dasharray="5,2" d="M207.13,-260.377C190.878,-272.052 170.343,-290.135 161,-312 151.395,-334.478 149.498,-345.431 161,-367 182.369,-407.074 232.401,-427.493 269.04,-437.42"/>
<polygon fill="#9a32cd" stroke="#9a32cd" points="209.344,-263.103 215.62,-254.567 205.391,-257.326 209.344,-263.103"/>
<text text-anchor="middle" x="168" y="-337" font-family="Helvetica,sans-Serif" font-size="10.00"> tbl</text>
</g>
<!-- Node8&#45;&gt;Node7 -->
<g id="edge9" class="edge"><title>Node8&#45;&gt;Node7</title>
<path fill="none" stroke="#9a32cd" stroke-dasharray="5,2" d="M230,-319.944C230,-300.038 230,-269.3 230,-254.516"/>
<polygon fill="#9a32cd" stroke="#9a32cd" points="226.5,-319.964 230,-329.964 233.5,-319.964 226.5,-319.964"/>
<text text-anchor="middle" x="249" y="-281.5" font-family="Helvetica,sans-Serif" font-size="10.00"> buckets</text>
</g>
<!-- Node9 -->
<g id="node9" class="node"><title>Node9</title>
<g id="a_node9"><a xlink:href="structReceptor.html" target="_top" xlink:title="Receptor">
<polygon fill="white" stroke="black" points="740,-78.5 740,-97.5 796,-97.5 796,-78.5 740,-78.5"/>
<text text-anchor="middle" x="768" y="-85.5" font-family="Helvetica,sans-Serif" font-size="10.00">Receptor</text>
</a>
</g>
</g>
<!-- Node9&#45;&gt;Node1 -->
<g id="edge12" class="edge"><title>Node9&#45;&gt;Node1</title>
<path fill="none" stroke="#9a32cd" stroke-dasharray="5,2" d="M797.311,-74.343C833.28,-58.8107 893.291,-32.897 924.225,-19.5391"/>
<polygon fill="#9a32cd" stroke="#9a32cd" points="795.64,-71.2519 787.847,-78.4296 798.415,-77.6784 795.64,-71.2519"/>
<text text-anchor="middle" x="880.5" y="-52" font-family="Helvetica,sans-Serif" font-size="10.00"> r</text>
<text text-anchor="middle" x="880.5" y="-41" font-family="Helvetica,sans-Serif" font-size="10.00">c</text>
</g>
<!-- Node10&#45;&gt;Node9 -->
<g id="edge13" class="edge"><title>Node10&#45;&gt;Node9</title>
<path fill="none" stroke="#9a32cd" stroke-dasharray="5,2" d="M374.941,-267.698C400.12,-246.728 447.922,-208.737 493,-183 560.663,-144.368 580.713,-139.497 655,-116 683.462,-106.997 716.783,-99.3799 739.831,-94.5549"/>
<polygon fill="#9a32cd" stroke="#9a32cd" points="372.422,-265.243 367.02,-274.357 376.926,-270.601 372.422,-265.243"/>
<text text-anchor="middle" x="505.5" y="-197" font-family="Helvetica,sans-Serif" font-size="10.00"> table</text>
</g>
<!-- Node11&#45;&gt;Node9 -->
<g id="edge15" class="edge"><title>Node11&#45;&gt;Node9</title>
<path fill="none" stroke="#9a32cd" stroke-dasharray="5,2" d="M506.028,-228.541C520.317,-215.824 541.468,-197.586 561,-183 585.692,-164.56 591.521,-158.95 619,-145 659.412,-124.485 709.196,-107.272 739.759,-97.5503"/>
<polygon fill="#9a32cd" stroke="#9a32cd" points="503.577,-226.038 498.472,-235.322 508.252,-231.248 503.577,-226.038"/>
<text text-anchor="middle" x="642" y="-152.5" font-family="Helvetica,sans-Serif" font-size="10.00"> instances</text>
</g>
<!-- Node12&#45;&gt;Node11 -->
<g id="edge17" class="edge"><title>Node12&#45;&gt;Node11</title>
<path fill="none" stroke="#9a32cd" stroke-dasharray="5,2" d="M475.724,-319.687C477.056,-306.772 479.155,-289.272 482,-274 483.211,-267.498 485.035,-260.257 486.517,-254.767"/>
<polygon fill="#9a32cd" stroke="#9a32cd" points="472.236,-319.392 474.751,-329.684 479.203,-320.071 472.236,-319.392"/>
<text text-anchor="middle" x="505" y="-281.5" font-family="Helvetica,sans-Serif" font-size="10.00"> instances</text>
</g>
<!-- Node13 -->
<g id="node13" class="node"><title>Node13</title>
<g id="a_node13"><a xlink:href="structT.html" target="_top" xlink:title="T">
<polygon fill="white" stroke="black" points="769.5,-437.5 769.5,-456.5 798.5,-456.5 798.5,-437.5 769.5,-437.5"/>
<text text-anchor="middle" x="784" y="-444.5" font-family="Helvetica,sans-Serif" font-size="10.00">T</text>
</a>
</g>
</g>
<!-- Node13&#45;&gt;Node1 -->
<g id="edge39" class="edge"><title>Node13&#45;&gt;Node1</title>
<path fill="none" stroke="#9a32cd" stroke-dasharray="5,2" d="M808.904,-443.888C845.635,-440.342 912.039,-432.155 931,-418 962.061,-394.812 971,-379.262 971,-340.5 971,-340.5 971,-340.5 971,-87 971,-61.2357 957.052,-33.2458 949.206,-19.5396"/>
<polygon fill="#9a32cd" stroke="#9a32cd" points="808.18,-440.44 798.543,-444.841 808.821,-447.41 808.18,-440.44"/>
<text text-anchor="middle" x="1009" y="-202.5" font-family="Helvetica,sans-Serif" font-size="10.00"> active_receptors</text>
<text text-anchor="middle" x="1009" y="-191.5" font-family="Helvetica,sans-Serif" font-size="10.00">pending_signals</text>
</g>
<!-- Node13&#45;&gt;Node9 -->
<g id="edge37" class="edge"><title>Node13&#45;&gt;Node9</title>
<path fill="none" stroke="#9a32cd" stroke-dasharray="5,2" d="M808.876,-444.271C842.852,-441.333 901.043,-434.045 914,-418 921.369,-408.875 922.712,-349.118 911,-312 881.523,-218.578 802.102,-126.239 776.253,-97.854"/>
<polygon fill="#9a32cd" stroke="#9a32cd" points="808.473,-440.792 798.784,-445.078 809.031,-447.77 808.473,-440.792"/>
<text text-anchor="middle" x="898" y="-248" font-family="Helvetica,sans-Serif" font-size="10.00"> root</text>
<text text-anchor="middle" x="898" y="-237" font-family="Helvetica,sans-Serif" font-size="10.00">flux</text>
</g>
<!-- Node13&#45;&gt;Node12 -->
<g id="edge19" class="edge"><title>Node13&#45;&gt;Node12</title>
<path fill="none" stroke="#9a32cd" stroke-dasharray="5,2" d="M759.294,-444.712C709.057,-441.798 596.805,-433.7 562,-418 525.999,-401.761 494.025,-365.627 480.65,-349.078"/>
<polygon fill="#9a32cd" stroke="#9a32cd" points="759.116,-448.208 769.296,-445.271 759.507,-441.218 759.116,-448.208"/>
<text text-anchor="middle" x="582" y="-399" font-family="Helvetica,sans-Serif" font-size="10.00"> instance</text>
</g>
<!-- Node14 -->
<g id="node14" class="node"><title>Node14</title>
<g id="a_node14"><a xlink:href="structTstruct.html" target="_top" xlink:title="Tstruct">
<polygon fill="white" stroke="black" points="855.5,-330 855.5,-349 902.5,-349 902.5,-330 855.5,-330"/>
<text text-anchor="middle" x="879" y="-337" font-family="Helvetica,sans-Serif" font-size="10.00">Tstruct</text>
</a>
</g>
</g>
<!-- Node13&#45;&gt;Node14 -->
<g id="edge21" class="edge"><title>Node13&#45;&gt;Node14</title>
<path fill="none" stroke="#9a32cd" stroke-dasharray="5,2" d="M808.791,-442.967C825.553,-439.624 846.936,-432.624 860,-418 877.628,-398.267 879.528,-364.839 879.357,-349.135"/>
<polygon fill="#9a32cd" stroke="#9a32cd" points="807.86,-439.574 798.576,-444.679 809.017,-446.478 807.86,-439.574"/>
<text text-anchor="middle" x="893" y="-404.5" font-family="Helvetica,sans-Serif" font-size="10.00"> parent</text>
<text text-anchor="middle" x="893" y="-393.5" font-family="Helvetica,sans-Serif" font-size="10.00">children</text>
</g>
<!-- Node17 -->
<g id="node17" class="node"><title>Node17</title>
<g id="a_node17"><a xlink:href="structDefs.html" target="_top" xlink:title="Defs">
<polygon fill="white" stroke="black" points="763,-235.5 763,-254.5 801,-254.5 801,-235.5 763,-235.5"/>
<text text-anchor="middle" x="782" y="-242.5" font-family="Helvetica,sans-Serif" font-size="10.00">Defs</text>
</a>
</g>
</g>
<!-- Node13&#45;&gt;Node17 -->
<g id="edge27" class="edge"><title>Node13&#45;&gt;Node17</title>
<path fill="none" stroke="#9a32cd" stroke-dasharray="5,2" d="M783.812,-427.208C783.392,-385.202 782.39,-285.021 782.088,-254.787"/>
<polygon fill="#9a32cd" stroke="#9a32cd" points="780.314,-427.442 783.914,-437.406 787.314,-427.372 780.314,-427.442"/>
<text text-anchor="middle" x="808.5" y="-359" font-family="Helvetica,sans-Serif" font-size="10.00"> processes</text>
<text text-anchor="middle" x="808.5" y="-348" font-family="Helvetica,sans-Serif" font-size="10.00">structures</text>
<text text-anchor="middle" x="808.5" y="-337" font-family="Helvetica,sans-Serif" font-size="10.00">symbols</text>
<text text-anchor="middle" x="808.5" y="-326" font-family="Helvetica,sans-Serif" font-size="10.00">scapes</text>
<text text-anchor="middle" x="808.5" y="-315" font-family="Helvetica,sans-Serif" font-size="10.00">protocols</text>
</g>
<!-- Node18 -->
<g id="node18" class="node"><title>Node18</title>
<g id="a_node18"><a xlink:href="structQ.html" target="_top" xlink:title="Q">
<polygon fill="white" stroke="black" points="674.5,-145.5 674.5,-164.5 703.5,-164.5 703.5,-145.5 674.5,-145.5"/>
<text text-anchor="middle" x="689" y="-152.5" font-family="Helvetica,sans-Serif" font-size="10.00">Q</text>
</a>
</g>
</g>
<!-- Node13&#45;&gt;Node18 -->
<g id="edge36" class="edge"><title>Node13&#45;&gt;Node18</title>
<path fill="none" stroke="#9a32cd" stroke-dasharray="5,2" d="M759.718,-440.61C741.153,-435.981 715.226,-428.403 694,-418 627.848,-385.577 601.122,-365.653 584,-294 570.007,-235.439 641.965,-184.151 674.116,-164.515"/>
<polygon fill="#9a32cd" stroke="#9a32cd" points="758.913,-444.016 769.452,-442.935 760.539,-437.207 758.913,-444.016"/>
<text text-anchor="middle" x="620.5" y="-281.5" font-family="Helvetica,sans-Serif" font-size="10.00"> pending_signals</text>
</g>
<!-- Node21 -->
<g id="node21" class="node"><title>Node21</title>
<g id="a_node21"><a xlink:href="structR.html" target="_top" xlink:title="R">
<polygon fill="white" stroke="black" points="677.5,-330 677.5,-349 706.5,-349 706.5,-330 677.5,-330"/>
<text text-anchor="middle" x="692" y="-337" font-family="Helvetica,sans-Serif" font-size="10.00">R</text>
</a>
</g>
</g>
<!-- Node13&#45;&gt;Node21 -->
<g id="edge34" class="edge"><title>Node13&#45;&gt;Node21</title>
<path fill="none" stroke="#9a32cd" stroke-dasharray="5,2" d="M759.044,-441.757C744.03,-437.961 725.634,-430.91 714,-418 696.117,-398.155 692.672,-364.781 692.076,-349.114"/>
<polygon fill="#9a32cd" stroke="#9a32cd" points="758.717,-445.268 769.234,-443.983 760.211,-438.429 758.717,-445.268"/>
<text text-anchor="middle" x="742" y="-410" font-family="Helvetica,sans-Serif" font-size="10.00"> run_tree</text>
<text text-anchor="middle" x="742" y="-399" font-family="Helvetica,sans-Serif" font-size="10.00">node_pointer</text>
<text text-anchor="middle" x="742" y="-388" font-family="Helvetica,sans-Serif" font-size="10.00">parent</text>
</g>
<!-- Node14&#45;&gt;Node13 -->
<g id="edge20" class="edge"><title>Node14&#45;&gt;Node13</title>
<path fill="none" stroke="#9a32cd" stroke-dasharray="5,2" d="M858.023,-355.134C841.692,-366.637 821.262,-381.314 818,-385 803.536,-401.342 792.603,-424.861 787.386,-437.384"/>
<polygon fill="#9a32cd" stroke="#9a32cd" points="860.363,-357.768 866.539,-349.159 856.342,-352.037 860.363,-357.768"/>
<text text-anchor="middle" x="839" y="-399" font-family="Helvetica,sans-Serif" font-size="10.00"> structure</text>
</g>
<!-- Node15 -->
<g id="node15" class="node"><title>Node15</title>
<g id="a_node15"><a xlink:href="structTcontext.html" target="_top" xlink:title="Tcontext">
<polygon fill="white" stroke="black" points="680.5,-514.5 680.5,-533.5 735.5,-533.5 735.5,-514.5 680.5,-514.5"/>
<text text-anchor="middle" x="708" y="-521.5" font-family="Helvetica,sans-Serif" font-size="10.00">Tcontext</text>
</a>
</g>
</g>
<!-- Node15&#45;&gt;Node13 -->
<g id="edge22" class="edge"><title>Node15&#45;&gt;Node13</title>
<path fill="none" stroke="#9a32cd" stroke-dasharray="5,2" d="M719.187,-505.88C725.781,-496.485 734.648,-484.959 744,-476 751.713,-468.611 761.523,-461.713 769.498,-456.612"/>
<polygon fill="#9a32cd" stroke="#9a32cd" points="716.131,-504.15 713.417,-514.392 721.925,-508.078 716.131,-504.15"/>
<text text-anchor="middle" x="762" y="-483.5" font-family="Helvetica,sans-Serif" font-size="10.00"> context</text>
</g>
<!-- Node16&#45;&gt;Node13 -->
<g id="edge23" class="edge"><title>Node16&#45;&gt;Node13</title>
<path fill="none" stroke="#9a32cd" stroke-dasharray="5,2" d="M784,-504.023C784,-488.741 784,-467.978 784,-456.503"/>
<polygon fill="#9a32cd" stroke="#9a32cd" points="780.5,-504.397 784,-514.397 787.5,-504.397 780.5,-504.397"/>
<text text-anchor="middle" x="804.5" y="-483.5" font-family="Helvetica,sans-Serif" font-size="10.00"> contents</text>
</g>
<!-- Node17&#45;&gt;Node9 -->
<g id="edge26" class="edge"><title>Node17&#45;&gt;Node9</title>
<path fill="none" stroke="#9a32cd" stroke-dasharray="5,2" d="M780.271,-224.858C777.216,-191.032 770.978,-121.968 768.784,-97.6813"/>
<polygon fill="#9a32cd" stroke="#9a32cd" points="776.822,-225.578 781.207,-235.222 783.793,-224.948 776.822,-225.578"/>
<text text-anchor="middle" x="786" y="-152.5" font-family="Helvetica,sans-Serif" font-size="10.00"> defs</text>
</g>
<!-- Node17&#45;&gt;Node18 -->
<g id="edge35" class="edge"><title>Node17&#45;&gt;Node18</title>
<path fill="none" stroke="#9a32cd" stroke-dasharray="5,2" d="M760.668,-229.116C755.604,-225.132 750.399,-220.636 746,-216 733.694,-203.032 735.24,-196.03 723,-183 716.601,-176.188 708.423,-169.64 701.692,-164.699"/>
<polygon fill="#9a32cd" stroke="#9a32cd" points="758.788,-232.081 768.891,-235.27 762.982,-226.476 758.788,-232.081"/>
<text text-anchor="middle" x="757" y="-197" font-family="Helvetica,sans-Serif" font-size="10.00"> defs</text>
</g>
<!-- Node18&#45;&gt;Node9 -->
<g id="edge28" class="edge"><title>Node18&#45;&gt;Node9</title>
<path fill="none" stroke="#9a32cd" stroke-dasharray="5,2" d="M707.579,-138.713C723.144,-125.907 744.8,-108.088 757.515,-97.6273"/>
<polygon fill="#9a32cd" stroke="#9a32cd" points="705.153,-136.177 699.654,-145.234 709.6,-141.583 705.153,-136.177"/>
<text text-anchor="middle" x="738.5" y="-119" font-family="Helvetica,sans-Serif" font-size="10.00"> q</text>
</g>
<!-- Node19 -->
<g id="node19" class="node"><title>Node19</title>
<g id="a_node19"><a xlink:href="structQe.html" target="_top" xlink:title="Qe">
<polygon fill="white" stroke="black" points="661.5,-235.5 661.5,-254.5 690.5,-254.5 690.5,-235.5 661.5,-235.5"/>
<text text-anchor="middle" x="676" y="-242.5" font-family="Helvetica,sans-Serif" font-size="10.00">Qe</text>
</a>
</g>
</g>
<!-- Node19&#45;&gt;Node18 -->
<g id="edge29" class="edge"><title>Node19&#45;&gt;Node18</title>
<path fill="none" stroke="#9a32cd" stroke-dasharray="5,2" d="M674.372,-224.915C673.811,-212.773 673.954,-196.794 677,-183 678.416,-176.589 681.416,-169.839 684.062,-164.691"/>
<polygon fill="#9a32cd" stroke="#9a32cd" points="670.899,-225.439 675.054,-235.185 677.884,-224.975 670.899,-225.439"/>
<text text-anchor="middle" x="700" y="-208" font-family="Helvetica,sans-Serif" font-size="10.00"> active</text>
<text text-anchor="middle" x="700" y="-197" font-family="Helvetica,sans-Serif" font-size="10.00">blocked</text>
<text text-anchor="middle" x="700" y="-186" font-family="Helvetica,sans-Serif" font-size="10.00">completed</text>
</g>
<!-- Node19&#45;&gt;Node19 -->
<g id="edge30" class="edge"><title>Node19&#45;&gt;Node19</title>
<path fill="none" stroke="#9a32cd" stroke-dasharray="5,2" d="M701.048,-251.685C705.441,-250.798 708.5,-248.569 708.5,-245 708.5,-238.988 699.824,-236.781 690.706,-238.378"/>
<polygon fill="#9a32cd" stroke="#9a32cd" points="700.728,-248.183 690.706,-251.622 700.685,-255.183 700.728,-248.183"/>
<text text-anchor="middle" x="719.5" y="-248" font-family="Helvetica,sans-Serif" font-size="10.00"> prev</text>
<text text-anchor="middle" x="719.5" y="-237" font-family="Helvetica,sans-Serif" font-size="10.00">next</text>
</g>
<!-- Node20 -->
<g id="node20" class="node"><title>Node20</title>
<g id="a_node20"><a xlink:href="structA.html" target="_top" xlink:title="A">
<polygon fill="white" stroke="black" points="630.5,-330 630.5,-349 659.5,-349 659.5,-330 630.5,-330"/>
<text text-anchor="middle" x="645" y="-337" font-family="Helvetica,sans-Serif" font-size="10.00">A</text>
</a>
</g>
</g>
<!-- Node20&#45;&gt;Node19 -->
<g id="edge31" class="edge"><title>Node20&#45;&gt;Node19</title>
<path fill="none" stroke="#9a32cd" stroke-dasharray="5,2" d="M651.126,-320.221C657.794,-300.325 668.168,-269.369 673.146,-254.516"/>
<polygon fill="#9a32cd" stroke="#9a32cd" points="647.72,-319.37 647.861,-329.964 654.357,-321.594 647.72,-319.37"/>
<text text-anchor="middle" x="687.5" y="-281.5" font-family="Helvetica,sans-Serif" font-size="10.00"> accounts</text>
</g>
<!-- Node21&#45;&gt;Node19 -->
<g id="edge32" class="edge"><title>Node21&#45;&gt;Node19</title>
<path fill="none" stroke="#9a32cd" stroke-dasharray="5,2" d="M705.434,-321.63C714.299,-308.315 722.937,-289.47 715,-274 709.901,-264.063 699.455,-256.857 690.656,-252.246"/>
<polygon fill="#9a32cd" stroke="#9a32cd" points="702.505,-319.707 699.461,-329.855 708.169,-323.82 702.505,-319.707"/>
<text text-anchor="middle" x="737" y="-281.5" font-family="Helvetica,sans-Serif" font-size="10.00"> context</text>
</g>
<!-- Node21&#45;&gt;Node21 -->
<g id="edge33" class="edge"><title>Node21&#45;&gt;Node21</title>
<path fill="none" stroke="#9a32cd" stroke-dasharray="5,2" d="M717.048,-349C721.441,-347.739 724.5,-344.572 724.5,-339.5 724.5,-330.957 715.824,-327.82 706.706,-330.089"/>
<polygon fill="#9a32cd" stroke="#9a32cd" points="716.736,-345.497 706.706,-348.911 716.676,-352.497 716.736,-345.497"/>
<text text-anchor="middle" x="738" y="-342.5" font-family="Helvetica,sans-Serif" font-size="10.00"> caller</text>
<text text-anchor="middle" x="738" y="-331.5" font-family="Helvetica,sans-Serif" font-size="10.00">callee</text>
</g>
<!-- Node22 -->
<g id="node22" class="node"><title>Node22</title>
<g id="a_node22"><a xlink:href="structthread.html" target="_top" xlink:title="thread">
<polygon fill="white" stroke="black" points="999,-78.5 999,-97.5 1043,-97.5 1043,-78.5 999,-78.5"/>
<text text-anchor="middle" x="1021" y="-85.5" font-family="Helvetica,sans-Serif" font-size="10.00">thread</text>
</a>
</g>
</g>
<!-- Node22&#45;&gt;Node1 -->
<g id="edge38" class="edge"><title>Node22&#45;&gt;Node1</title>
<path fill="none" stroke="#9a32cd" stroke-dasharray="5,2" d="M1010.47,-69.6719C1003.91,-59.7148 994.859,-47.3664 985,-38 977.461,-30.8385 967.797,-24.3708 959.744,-19.562"/>
<polygon fill="#9a32cd" stroke="#9a32cd" points="1007.64,-71.7358 1015.95,-78.3104 1013.55,-67.9897 1007.64,-71.7358"/>
<text text-anchor="middle" x="1032" y="-52" font-family="Helvetica,sans-Serif" font-size="10.00"> vm_thread</text>
<text text-anchor="middle" x="1032" y="-41" font-family="Helvetica,sans-Serif" font-size="10.00">clock_thread</text>
</g>
</g>
</svg>
