<?xml version="1.0" encoding="UTF-8" standalone="no"?>
<!DOCTYPE svg PUBLIC "-//W3C//DTD SVG 1.1//EN"
 "http://www.w3.org/Graphics/SVG/1.1/DTD/svg11.dtd">
<!-- Generated by graphviz version 2.38.0 (20140413.2041)
 -->
<!-- Title: Qe Pages: 1 -->
<svg width="230pt" height="322pt"
 viewBox="0.00 0.00 230.00 322.00" xmlns="http://www.w3.org/2000/svg" xmlns:xlink="http://www.w3.org/1999/xlink">
<g id="graph0" class="graph" transform="scale(1 1) rotate(0) translate(4 318)">
<title>Qe</title>
<polygon fill="white" stroke="none" points="-4,4 -4,-318 226,-318 226,4 -4,4"/>
<!-- Node1 -->
<g id="node1" class="node"><title>Node1</title>
<polygon fill="#bfbfbf" stroke="black" points="131,-1.5 131,-20.5 160,-20.5 160,-1.5 131,-1.5"/>
<text text-anchor="middle" x="145.5" y="-8.5" font-family="Helvetica,sans-Serif" font-size="10.00">Qe</text>
</g>
<!-- Node1&#45;&gt;Node1 -->
<g id="edge1" class="edge"><title>Node1&#45;&gt;Node1</title>
<path fill="none" stroke="#9a32cd" stroke-dasharray="5,2" d="M170.548,-16.9812C174.941,-16.1875 178,-14.1937 178,-11 178,-5.62109 169.324,-3.64603 160.206,-5.0748"/>
<polygon fill="#9a32cd" stroke="#9a32cd" points="170.225,-13.4795 160.206,-16.9252 170.187,-20.4794 170.225,-13.4795"/>
<text text-anchor="middle" x="189" y="-14" font-family="Helvetica,sans-Serif" font-size="10.00"> prev</text>
<text text-anchor="middle" x="189" y="-3" font-family="Helvetica,sans-Serif" font-size="10.00">next</text>
</g>
<!-- Node2 -->
<g id="node2" class="node"><title>Node2</title>
<g id="a_node2"><a xlink:href="structR.html" target="_top" xlink:title="R">
<polygon fill="white" stroke="black" points="0,-70.5 0,-89.5 29,-89.5 29,-70.5 0,-70.5"/>
<text text-anchor="middle" x="14.5" y="-77.5" font-family="Helvetica,sans-Serif" font-size="10.00">R</text>
</a>
</g>
</g>
<!-- Node2&#45;&gt;Node1 -->
<g id="edge2" class="edge"><title>Node2&#45;&gt;Node1</title>
<path fill="none" stroke="#9a32cd" stroke-dasharray="5,2" d="M38.1577,-66.9003C65.1496,-53.0952 108.448,-30.9502 130.915,-19.4594"/>
<polygon fill="#9a32cd" stroke="#9a32cd" points="36.3292,-63.9042 29.0198,-71.5738 39.5167,-70.1364 36.3292,-63.9042"/>
<text text-anchor="middle" x="106.5" y="-43" font-family="Helvetica,sans-Serif" font-size="10.00"> context</text>
</g>
<!-- Node2&#45;&gt;Node2 -->
<g id="edge3" class="edge"><title>Node2&#45;&gt;Node2</title>
<path fill="none" stroke="#9a32cd" stroke-dasharray="5,2" d="M39.5476,-85.9812C43.9412,-85.1875 47,-83.1937 47,-80 47,-74.6211 38.3235,-72.646 29.2065,-74.0748"/>
<polygon fill="#9a32cd" stroke="#9a32cd" points="39.2253,-82.4795 29.2065,-85.9252 39.1874,-89.4794 39.2253,-82.4795"/>
<text text-anchor="middle" x="60.5" y="-83" font-family="Helvetica,sans-Serif" font-size="10.00"> caller</text>
<text text-anchor="middle" x="60.5" y="-72" font-family="Helvetica,sans-Serif" font-size="10.00">callee</text>
</g>
<!-- Node3 -->
<g id="node3" class="node"><title>Node3</title>
<g id="a_node3"><a xlink:href="structT.html" target="_top" xlink:title="T">
<polygon fill="white" stroke="black" points="79,-160.5 79,-179.5 108,-179.5 108,-160.5 79,-160.5"/>
<text text-anchor="middle" x="93.5" y="-167.5" font-family="Helvetica,sans-Serif" font-size="10.00">T</text>
</a>
</g>
</g>
<!-- Node3&#45;&gt;Node2 -->
<g id="edge4" class="edge"><title>Node3&#45;&gt;Node2</title>
<path fill="none" stroke="#9a32cd" stroke-dasharray="5,2" d="M68.7389,-164.781C54.6516,-161.107 37.8129,-154.338 27.5,-142 14.8613,-126.879 13.6226,-102.427 13.9626,-89.5539"/>
<polygon fill="#9a32cd" stroke="#9a32cd" points="68.2997,-168.269 78.8217,-167.029 69.8229,-161.437 68.2997,-168.269"/>
<text text-anchor="middle" x="55.5" y="-134" font-family="Helvetica,sans-Serif" font-size="10.00"> run_tree</text>
<text text-anchor="middle" x="55.5" y="-123" font-family="Helvetica,sans-Serif" font-size="10.00">node_pointer</text>
<text text-anchor="middle" x="55.5" y="-112" font-family="Helvetica,sans-Serif" font-size="10.00">parent</text>
</g>
<!-- Node4 -->
<g id="node4" class="node"><title>Node4</title>
<g id="a_node4"><a xlink:href="structTstruct.html" target="_top" xlink:title="Tstruct">
<polygon fill="white" stroke="black" points="92,-70.5 92,-89.5 139,-89.5 139,-70.5 92,-70.5"/>
<text text-anchor="middle" x="115.5" y="-77.5" font-family="Helvetica,sans-Serif" font-size="10.00">Tstruct</text>
</a>
</g>
</g>
<!-- Node3&#45;&gt;Node4 -->
<g id="edge6" class="edge"><title>Node3&#45;&gt;Node4</title>
<path fill="none" stroke="#9a32cd" stroke-dasharray="5,2" d="M88.7475,-150.208C86.5863,-138.062 85.491,-122.131 90.5,-109 93.3801,-101.45 99.3356,-94.6446 104.711,-89.634"/>
<polygon fill="#9a32cd" stroke="#9a32cd" points="85.3538,-151.074 90.8875,-160.109 92.1958,-149.595 85.3538,-151.074"/>
<text text-anchor="middle" x="107.5" y="-128.5" font-family="Helvetica,sans-Serif" font-size="10.00"> parent</text>
<text text-anchor="middle" x="107.5" y="-117.5" font-family="Helvetica,sans-Serif" font-size="10.00">children</text>
</g>
<!-- Node4&#45;&gt;Node3 -->
<g id="edge5" class="edge"><title>Node4&#45;&gt;Node3</title>
<path fill="none" stroke="#9a32cd" stroke-dasharray="5,2" d="M125.155,-98.7215C130.643,-111.318 135.209,-128.351 128.5,-142 124.234,-150.678 115.689,-157.354 108.11,-161.897"/>
<polygon fill="#9a32cd" stroke="#9a32cd" points="128.29,-97.1663 120.753,-89.7205 122.002,-100.241 128.29,-97.1663"/>
<text text-anchor="middle" x="153.5" y="-123" font-family="Helvetica,sans-Serif" font-size="10.00"> structure</text>
</g>
<!-- Node5 -->
<g id="node5" class="node"><title>Node5</title>
<g id="a_node5"><a xlink:href="structTcontext.html" target="_top" xlink:title="Tcontext">
<polygon fill="white" stroke="black" points="37,-227.5 37,-246.5 92,-246.5 92,-227.5 37,-227.5"/>
<text text-anchor="middle" x="64.5" y="-234.5" font-family="Helvetica,sans-Serif" font-size="10.00">Tcontext</text>
</a>
</g>
</g>
<!-- Node5&#45;&gt;Node3 -->
<g id="edge7" class="edge"><title>Node5&#45;&gt;Node3</title>
<path fill="none" stroke="#9a32cd" stroke-dasharray="5,2" d="M67.4271,-216.989C68.7954,-210.757 70.7498,-203.918 73.5,-198 76.5486,-191.44 81.3363,-184.901 85.463,-179.901"/>
<polygon fill="#9a32cd" stroke="#9a32cd" points="63.9124,-216.752 65.5521,-227.219 70.7977,-218.014 63.9124,-216.752"/>
<text text-anchor="middle" x="91.5" y="-201" font-family="Helvetica,sans-Serif" font-size="10.00"> context</text>
</g>
<!-- Node6 -->
<g id="node6" class="node"><title>Node6</title>
<g id="a_node6"><a xlink:href="structTcontents.html" target="_top" xlink:title="Tcontents">
<polygon fill="white" stroke="black" points="110.5,-227.5 110.5,-246.5 170.5,-246.5 170.5,-227.5 110.5,-227.5"/>
<text text-anchor="middle" x="140.5" y="-234.5" font-family="Helvetica,sans-Serif" font-size="10.00">Tcontents</text>
</a>
</g>
</g>
<!-- Node6&#45;&gt;Node3 -->
<g id="edge8" class="edge"><title>Node6&#45;&gt;Node3</title>
<path fill="none" stroke="#9a32cd" stroke-dasharray="5,2" d="M128.138,-218.904C119.005,-206.273 106.952,-189.604 99.7382,-179.627"/>
<polygon fill="#9a32cd" stroke="#9a32cd" points="125.466,-221.181 134.161,-227.234 131.138,-217.079 125.466,-221.181"/>
<text text-anchor="middle" x="141" y="-201" font-family="Helvetica,sans-Serif" font-size="10.00"> contents</text>
</g>
<!-- Node7 -->
<g id="node7" class="node"><title>Node7</title>
<g id="a_node7"><a xlink:href="structSemanticID.html" target="_top" xlink:title="SemanticID">
<polygon fill="white" stroke="black" points="106.5,-294.5 106.5,-313.5 174.5,-313.5 174.5,-294.5 106.5,-294.5"/>
<text text-anchor="middle" x="140.5" y="-301.5" font-family="Helvetica,sans-Serif" font-size="10.00">SemanticID</text>
</a>
</g>
</g>
<!-- Node7&#45;&gt;Node6 -->
<g id="edge9" class="edge"><title>Node7&#45;&gt;Node6</title>
<path fill="none" stroke="#9a32cd" stroke-dasharray="5,2" d="M140.5,-284.037C140.5,-271.67 140.5,-256.12 140.5,-246.627"/>
<polygon fill="#9a32cd" stroke="#9a32cd" points="137,-284.234 140.5,-294.234 144,-284.234 137,-284.234"/>
<text text-anchor="middle" x="158" y="-268" font-family="Helvetica,sans-Serif" font-size="10.00"> symbol</text>
</g>
<!-- Node8 -->
<g id="node8" class="node"><title>Node8</title>
<g id="a_node8"><a xlink:href="structAccounting.html" target="_top" xlink:title="Accounting">
<polygon fill="white" stroke="black" points="157,-70.5 157,-89.5 222,-89.5 222,-70.5 157,-70.5"/>
<text text-anchor="middle" x="189.5" y="-77.5" font-family="Helvetica,sans-Serif" font-size="10.00">Accounting</text>
</a>
</g>
</g>
<!-- Node8&#45;&gt;Node1 -->
<g id="edge10" class="edge"><title>Node8&#45;&gt;Node1</title>
<path fill="none" stroke="#9a32cd" stroke-dasharray="5,2" d="M178.056,-61.5738C169.395,-48.3857 157.874,-30.8416 151.115,-20.5494"/>
<polygon fill="#9a32cd" stroke="#9a32cd" points="175.333,-63.8035 183.748,-70.2409 181.184,-59.9609 175.333,-63.8035"/>
<text text-anchor="middle" x="192" y="-43" font-family="Helvetica,sans-Serif" font-size="10.00"> accounts</text>
</g>
</g>
</svg>
