<?xml version="1.0" encoding="UTF-8" standalone="no"?>
<!DOCTYPE svg PUBLIC "-//W3C//DTD SVG 1.1//EN"
 "http://www.w3.org/Graphics/SVG/1.1/DTD/svg11.dtd">
<!-- Generated by graphviz version 2.38.0 (20140413.2041)
 -->
<!-- Title: SocketListener Pages: 1 -->
<svg width="131pt" height="95pt"
 viewBox="0.00 0.00 131.00 95.00" xmlns="http://www.w3.org/2000/svg" xmlns:xlink="http://www.w3.org/1999/xlink">
<g id="graph0" class="graph" transform="scale(1 1) rotate(0) translate(4 91)">
<title>SocketListener</title>
<polygon fill="white" stroke="none" points="-4,4 -4,-91 127,-91 127,4 -4,4"/>
<!-- Node1 -->
<g id="node1" class="node"><title>Node1</title>
<polygon fill="#bfbfbf" stroke="black" points="0,-0.5 0,-19.5 82,-19.5 82,-0.5 0,-0.5"/>
<text text-anchor="middle" x="41" y="-7.5" font-family="Helvetica,sans-Serif" font-size="10.00">SocketListener</text>
</g>
<!-- Node2 -->
<g id="node2" class="node"><title>Node2</title>
<g id="a_node2"><a xlink:href="structStream.html" target="_top" xlink:title="Stream">
<polygon fill="white" stroke="black" points="17,-67.5 17,-86.5 65,-86.5 65,-67.5 17,-67.5"/>
<text text-anchor="middle" x="41" y="-74.5" font-family="Helvetica,sans-Serif" font-size="10.00">Stream</text>
</a>
</g>
</g>
<!-- Node2&#45;&gt;Node1 -->
<g id="edge1" class="edge"><title>Node2&#45;&gt;Node1</title>
<path fill="none" stroke="#9a32cd" stroke-dasharray="5,2" d="M41,-57.037C41,-44.6703 41,-29.1198 41,-19.6273"/>
<polygon fill="#9a32cd" stroke="#9a32cd" points="37.5001,-57.2338 41,-67.2338 44.5001,-57.2338 37.5001,-57.2338"/>
<text text-anchor="middle" x="61" y="-41" font-family="Helvetica,sans-Serif" font-size="10.00"> callback</text>
</g>
<!-- Node2&#45;&gt;Node2 -->
<g id="edge2" class="edge"><title>Node2&#45;&gt;Node2</title>
<path fill="none" stroke="#9a32cd" stroke-dasharray="5,2" d="M75.4246,-82.294C79.9786,-81.3926 83,-79.6279 83,-77 83,-72.6875 74.8635,-70.6997 65.1697,-71.0366"/>
<polygon fill="#9a32cd" stroke="#9a32cd" points="74.9205,-78.8194 65.1697,-82.9634 75.3764,-85.8045 74.9205,-78.8194"/>
<text text-anchor="middle" x="103" y="-74.5" font-family="Helvetica,sans-Serif" font-size="10.00"> callback</text>
</g>
</g>
</svg>
