<?xml version="1.0" encoding="UTF-8" standalone="no"?>
<!DOCTYPE svg PUBLIC "-//W3C//DTD SVG 1.1//EN"
 "http://www.w3.org/Graphics/SVG/1.1/DTD/svg11.dtd">
<!-- Generated by graphviz version 2.38.0 (20140413.2041)
 -->
<!-- Title: R Pages: 1 -->
<svg width="185pt" height="240pt"
 viewBox="0.00 0.00 184.50 240.00" xmlns="http://www.w3.org/2000/svg" xmlns:xlink="http://www.w3.org/1999/xlink">
<g id="graph0" class="graph" transform="scale(1 1) rotate(0) translate(4 236)">
<title>R</title>
<polygon fill="white" stroke="none" points="-4,4 -4,-236 180.5,-236 180.5,4 -4,4"/>
<!-- Node1 -->
<g id="node1" class="node"><title>Node1</title>
<polygon fill="#bfbfbf" stroke="black" points="0,-0.5 0,-19.5 29,-19.5 29,-0.5 0,-0.5"/>
<text text-anchor="middle" x="14.5" y="-7.5" font-family="Helvetica,sans-Serif" font-size="10.00">R</text>
</g>
<!-- Node2 -->
<g id="node2" class="node"><title>Node2</title>
<g id="a_node2"><a xlink:href="structT.html" target="_top" xlink:title="T">
<polygon fill="white" stroke="black" points="82,-78.5 82,-97.5 111,-97.5 111,-78.5 82,-78.5"/>
<text text-anchor="middle" x="96.5" y="-85.5" font-family="Helvetica,sans-Serif" font-size="10.00">T</text>
</a>
</g>
</g>
<!-- Node2&#45;&gt;Node1 -->
<g id="edge1" class="edge"><title>Node2&#45;&gt;Node1</title>
<path fill="none" stroke="#9a32cd" stroke-dasharray="5,2" d="M71.8334,-83.1129C57.0081,-79.5311 38.8716,-72.7435 27.5,-60 17.421,-48.705 15.0172,-30.4683 14.5249,-19.7165"/>
<polygon fill="#9a32cd" stroke="#9a32cd" points="71.3978,-86.5967 81.8993,-85.1937 72.8149,-79.7417 71.3978,-86.5967"/>
<text text-anchor="middle" x="57" y="-52" font-family="Helvetica,sans-Serif" font-size="10.00"> node_pointer</text>
<text text-anchor="middle" x="57" y="-41" font-family="Helvetica,sans-Serif" font-size="10.00">parent</text>
</g>
<!-- Node3 -->
<g id="node3" class="node"><title>Node3</title>
<g id="a_node3"><a xlink:href="structTstruct.html" target="_top" xlink:title="Tstruct">
<polygon fill="white" stroke="black" points="101,-0.5 101,-19.5 148,-19.5 148,-0.5 101,-0.5"/>
<text text-anchor="middle" x="124.5" y="-7.5" font-family="Helvetica,sans-Serif" font-size="10.00">Tstruct</text>
</a>
</g>
</g>
<!-- Node2&#45;&gt;Node3 -->
<g id="edge3" class="edge"><title>Node2&#45;&gt;Node3</title>
<path fill="none" stroke="#9a32cd" stroke-dasharray="5,2" d="M91.3028,-68.2641C89.6627,-58.7989 89.2367,-47.3668 93.5,-38 96.9296,-30.4648 103.616,-24.2146 109.904,-19.6321"/>
<polygon fill="#9a32cd" stroke="#9a32cd" points="87.94,-69.2599 93.5776,-78.2303 94.7644,-67.7022 87.94,-69.2599"/>
<text text-anchor="middle" x="110.5" y="-52" font-family="Helvetica,sans-Serif" font-size="10.00"> parent</text>
<text text-anchor="middle" x="110.5" y="-41" font-family="Helvetica,sans-Serif" font-size="10.00">children</text>
</g>
<!-- Node3&#45;&gt;Node2 -->
<g id="edge2" class="edge"><title>Node3&#45;&gt;Node2</title>
<path fill="none" stroke="#9a32cd" stroke-dasharray="5,2" d="M132.043,-29.4732C134.75,-39.01 136.127,-50.5865 131.5,-60 127.234,-68.6779 118.689,-75.3542 111.11,-79.8971"/>
<polygon fill="#9a32cd" stroke="#9a32cd" points="135.267,-28.0875 128.67,-19.7966 128.657,-30.3914 135.267,-28.0875"/>
<text text-anchor="middle" x="155.5" y="-46.5" font-family="Helvetica,sans-Serif" font-size="10.00"> structure</text>
</g>
<!-- Node4 -->
<g id="node4" class="node"><title>Node4</title>
<g id="a_node4"><a xlink:href="structTcontext.html" target="_top" xlink:title="Tcontext">
<polygon fill="white" stroke="black" points="36,-145.5 36,-164.5 91,-164.5 91,-145.5 36,-145.5"/>
<text text-anchor="middle" x="63.5" y="-152.5" font-family="Helvetica,sans-Serif" font-size="10.00">Tcontext</text>
</a>
</g>
</g>
<!-- Node4&#45;&gt;Node2 -->
<g id="edge4" class="edge"><title>Node4&#45;&gt;Node2</title>
<path fill="none" stroke="#9a32cd" stroke-dasharray="5,2" d="M65.9705,-135.554C67.3166,-129.12 69.3736,-122.011 72.5,-116 76.0884,-109.101 81.8314,-102.55 86.7998,-97.6295"/>
<polygon fill="#9a32cd" stroke="#9a32cd" points="62.5165,-134.989 64.313,-145.43 69.4199,-136.147 62.5165,-134.989"/>
<text text-anchor="middle" x="90.5" y="-119" font-family="Helvetica,sans-Serif" font-size="10.00"> context</text>
</g>
<!-- Node5 -->
<g id="node5" class="node"><title>Node5</title>
<g id="a_node5"><a xlink:href="structTcontents.html" target="_top" xlink:title="Tcontents">
<polygon fill="white" stroke="black" points="109.5,-145.5 109.5,-164.5 169.5,-164.5 169.5,-145.5 109.5,-145.5"/>
<text text-anchor="middle" x="139.5" y="-152.5" font-family="Helvetica,sans-Serif" font-size="10.00">Tcontents</text>
</a>
</g>
</g>
<!-- Node5&#45;&gt;Node2 -->
<g id="edge5" class="edge"><title>Node5&#45;&gt;Node2</title>
<path fill="none" stroke="#9a32cd" stroke-dasharray="5,2" d="M127.946,-136.535C119.621,-123.95 108.743,-107.507 102.207,-97.6273"/>
<polygon fill="#9a32cd" stroke="#9a32cd" points="125.264,-138.825 133.701,-145.234 131.103,-134.963 125.264,-138.825"/>
<text text-anchor="middle" x="142" y="-119" font-family="Helvetica,sans-Serif" font-size="10.00"> contents</text>
</g>
<!-- Node6 -->
<g id="node6" class="node"><title>Node6</title>
<g id="a_node6"><a xlink:href="structSemanticID.html" target="_top" xlink:title="SemanticID">
<polygon fill="white" stroke="black" points="105.5,-212.5 105.5,-231.5 173.5,-231.5 173.5,-212.5 105.5,-212.5"/>
<text text-anchor="middle" x="139.5" y="-219.5" font-family="Helvetica,sans-Serif" font-size="10.00">SemanticID</text>
</a>
</g>
</g>
<!-- Node6&#45;&gt;Node5 -->
<g id="edge6" class="edge"><title>Node6&#45;&gt;Node5</title>
<path fill="none" stroke="#9a32cd" stroke-dasharray="5,2" d="M139.5,-202.037C139.5,-189.67 139.5,-174.12 139.5,-164.627"/>
<polygon fill="#9a32cd" stroke="#9a32cd" points="136,-202.234 139.5,-212.234 143,-202.234 136,-202.234"/>
<text text-anchor="middle" x="157" y="-186" font-family="Helvetica,sans-Serif" font-size="10.00"> symbol</text>
</g>
</g>
</svg>
