<?xml version="1.0" encoding="UTF-8" standalone="no"?>
<!DOCTYPE svg PUBLIC "-//W3C//DTD SVG 1.1//EN"
 "http://www.w3.org/Graphics/SVG/1.1/DTD/svg11.dtd">
<!-- Generated by graphviz version 2.38.0 (20140413.2041)
 -->
<!-- Title: BranchPoint Pages: 1 -->
<svg width="520pt" height="318pt"
 viewBox="0.00 0.00 520.00 318.00" xmlns="http://www.w3.org/2000/svg" xmlns:xlink="http://www.w3.org/1999/xlink">
<g id="graph0" class="graph" transform="scale(1 1) rotate(0) translate(4 314)">
<title>BranchPoint</title>
<polygon fill="white" stroke="none" points="-4,4 -4,-314 516,-314 516,4 -4,4"/>
<!-- Node1 -->
<g id="node1" class="node"><title>Node1</title>
<polygon fill="#bfbfbf" stroke="black" points="149.5,-67.5 149.5,-86.5 219.5,-86.5 219.5,-67.5 149.5,-67.5"/>
<text text-anchor="middle" x="184.5" y="-74.5" font-family="Helvetica,sans-Serif" font-size="10.00">BranchPoint</text>
</g>
<!-- Node2 -->
<g id="node2" class="node"><title>Node2</title>
<g id="a_node2"><a xlink:href="structSState.html" target="_top" xlink:title="SState">
<polygon fill="white" stroke="black" points="86,-146.5 86,-165.5 133,-165.5 133,-146.5 86,-146.5"/>
<text text-anchor="middle" x="109.5" y="-153.5" font-family="Helvetica,sans-Serif" font-size="10.00">SState</text>
</a>
</g>
</g>
<!-- Node2&#45;&gt;Node1 -->
<g id="edge1" class="edge"><title>Node2&#45;&gt;Node1</title>
<path fill="none" stroke="#9a32cd" stroke-dasharray="5,2" d="M118.988,-137.628C125.118,-127.389 133.753,-114.603 143.5,-105 150.785,-97.8219 160.249,-91.4407 168.249,-86.6864"/>
<polygon fill="#9a32cd" stroke="#9a32cd" points="115.854,-136.058 113.925,-146.476 121.93,-139.535 115.854,-136.058"/>
<text text-anchor="middle" x="148" y="-113.5" font-family="Helvetica,sans-Serif" font-size="10.00"> s</text>
</g>
<!-- Node2&#45;&gt;Node2 -->
<g id="edge16" class="edge"><title>Node2&#45;&gt;Node2</title>
<path fill="none" stroke="#9a32cd" stroke-dasharray="5,2" d="M143.515,-162.287C148.015,-161.216 151,-159.121 151,-156 151,-150.879 142.96,-148.518 133.382,-148.918"/>
<polygon fill="#9a32cd" stroke="#9a32cd" points="143.078,-158.81 133.382,-163.082 143.625,-165.789 143.078,-158.81"/>
<text text-anchor="middle" x="162" y="-159" font-family="Helvetica,sans-Serif" font-size="10.00"> out1</text>
<text text-anchor="middle" x="162" y="-148" font-family="Helvetica,sans-Serif" font-size="10.00">out</text>
</g>
<!-- Node6 -->
<g id="node6" class="node"><title>Node6</title>
<g id="a_node6"><a xlink:href="structSgroupClose.html" target="_top" xlink:title="SgroupClose">
<polygon fill="white" stroke="black" points="0,-67.5 0,-86.5 73,-86.5 73,-67.5 0,-67.5"/>
<text text-anchor="middle" x="36.5" y="-74.5" font-family="Helvetica,sans-Serif" font-size="10.00">SgroupClose</text>
</a>
</g>
</g>
<!-- Node2&#45;&gt;Node6 -->
<g id="edge6" class="edge"><title>Node2&#45;&gt;Node6</title>
<path fill="none" stroke="#9a32cd" stroke-dasharray="5,2" d="M82.3249,-141.105C76.0149,-137.098 69.6466,-132.343 64.5,-127 52.9448,-115.004 44.3889,-97.332 39.9445,-86.8127"/>
<polygon fill="#9a32cd" stroke="#9a32cd" points="80.9836,-144.376 91.379,-146.422 84.5285,-138.34 80.9836,-144.376"/>
<text text-anchor="middle" x="80" y="-113.5" font-family="Helvetica,sans-Serif" font-size="10.00"> openP</text>
</g>
<!-- Node3 -->
<g id="node3" class="node"><title>Node3</title>
<g id="a_node3"><a xlink:href="unionSTypeData.html" target="_top" xlink:title="STypeData">
<polygon fill="white" stroke="black" points="322.5,-0.5 322.5,-19.5 388.5,-19.5 388.5,-0.5 322.5,-0.5"/>
<text text-anchor="middle" x="355.5" y="-7.5" font-family="Helvetica,sans-Serif" font-size="10.00">STypeData</text>
</a>
</g>
</g>
<!-- Node3&#45;&gt;Node2 -->
<g id="edge2" class="edge"><title>Node3&#45;&gt;Node2</title>
<path fill="none" stroke="#9a32cd" stroke-dasharray="5,2" d="M311.959,-15.305C250.67,-22.3195 143.611,-38.3886 118.5,-67 98.6444,-89.6231 103.917,-129.189 107.479,-146.492"/>
<polygon fill="#9a32cd" stroke="#9a32cd" points="312.559,-18.76 322.111,-14.1779 311.786,-11.8028 312.559,-18.76"/>
<text text-anchor="middle" x="129.5" y="-74.5" font-family="Helvetica,sans-Serif" font-size="10.00"> data</text>
</g>
<!-- Node4 -->
<g id="node4" class="node"><title>Node4</title>
<g id="a_node4"><a xlink:href="structSgroupOpen.html" target="_top" xlink:title="SgroupOpen">
<polygon fill="white" stroke="black" points="441,-185.5 441,-204.5 512,-204.5 512,-185.5 441,-185.5"/>
<text text-anchor="middle" x="476.5" y="-192.5" font-family="Helvetica,sans-Serif" font-size="10.00">SgroupOpen</text>
</a>
</g>
</g>
<!-- Node4&#45;&gt;Node3 -->
<g id="edge3" class="edge"><title>Node4&#45;&gt;Node3</title>
<path fill="none" stroke="#9a32cd" stroke-dasharray="5,2" d="M477.947,-175.22C479.378,-141.639 476.886,-71.6756 435.5,-38 422.197,-27.1754 404.344,-20.6055 388.878,-16.6622"/>
<polygon fill="#9a32cd" stroke="#9a32cd" points="474.438,-175.27 477.334,-185.461 481.425,-175.688 474.438,-175.27"/>
<text text-anchor="middle" x="493" y="-113.5" font-family="Helvetica,sans-Serif" font-size="10.00"> groupo</text>
</g>
<!-- Node5 -->
<g id="node5" class="node"><title>Node5</title>
<g id="a_node5"><a xlink:href="structSemanticID.html" target="_top" xlink:title="SemanticID">
<polygon fill="white" stroke="black" points="390.5,-290.5 390.5,-309.5 458.5,-309.5 458.5,-290.5 390.5,-290.5"/>
<text text-anchor="middle" x="424.5" y="-297.5" font-family="Helvetica,sans-Serif" font-size="10.00">SemanticID</text>
</a>
</g>
</g>
<!-- Node5&#45;&gt;Node4 -->
<g id="edge4" class="edge"><title>Node5&#45;&gt;Node4</title>
<path fill="none" stroke="#9a32cd" stroke-dasharray="5,2" d="M433.508,-281.158C444.76,-258.87 463.567,-221.617 472.078,-204.759"/>
<polygon fill="#9a32cd" stroke="#9a32cd" points="430.316,-279.714 428.933,-290.218 436.565,-282.869 430.316,-279.714"/>
<text text-anchor="middle" x="461" y="-264" font-family="Helvetica,sans-Serif" font-size="10.00"> symbol</text>
</g>
<!-- Node11 -->
<g id="node11" class="node"><title>Node11</title>
<g id="a_node11"><a xlink:href="structTcontents.html" target="_top" xlink:title="Tcontents">
<polygon fill="white" stroke="black" points="353.5,-223.5 353.5,-242.5 413.5,-242.5 413.5,-223.5 353.5,-223.5"/>
<text text-anchor="middle" x="383.5" y="-230.5" font-family="Helvetica,sans-Serif" font-size="10.00">Tcontents</text>
</a>
</g>
</g>
<!-- Node5&#45;&gt;Node11 -->
<g id="edge13" class="edge"><title>Node5&#45;&gt;Node11</title>
<path fill="none" stroke="#9a32cd" stroke-dasharray="5,2" d="M410.173,-282.582C407.483,-279.185 404.797,-275.555 402.5,-272 396.335,-262.46 390.712,-250.646 387.209,-242.747"/>
<polygon fill="#9a32cd" stroke="#9a32cd" points="407.567,-284.922 416.65,-290.375 412.95,-280.448 407.567,-284.922"/>
<text text-anchor="middle" x="420" y="-264" font-family="Helvetica,sans-Serif" font-size="10.00"> symbol</text>
</g>
<!-- Node6&#45;&gt;Node3 -->
<g id="edge5" class="edge"><title>Node6&#45;&gt;Node3</title>
<path fill="none" stroke="#9a32cd" stroke-dasharray="5,2" d="M44.2262,-58.4159C48.4901,-50.8433 54.5531,-42.6703 62.5,-38 105.77,-12.5704 255.243,-10.2715 322.386,-10.5765"/>
<polygon fill="#9a32cd" stroke="#9a32cd" points="41.0891,-56.864 39.7811,-67.3778 47.3601,-59.9744 41.0891,-56.864"/>
<text text-anchor="middle" x="79" y="-41" font-family="Helvetica,sans-Serif" font-size="10.00"> groupc</text>
</g>
<!-- Node7 -->
<g id="node7" class="node"><title>Node7</title>
<g id="a_node7"><a xlink:href="structSvalue.html" target="_top" xlink:title="Svalue">
<polygon fill="white" stroke="black" points="332,-67.5 332,-86.5 379,-86.5 379,-67.5 332,-67.5"/>
<text text-anchor="middle" x="355.5" y="-74.5" font-family="Helvetica,sans-Serif" font-size="10.00">Svalue</text>
</a>
</g>
</g>
<!-- Node7&#45;&gt;Node3 -->
<g id="edge7" class="edge"><title>Node7&#45;&gt;Node3</title>
<path fill="none" stroke="#9a32cd" stroke-dasharray="5,2" d="M355.5,-57.037C355.5,-44.6703 355.5,-29.1198 355.5,-19.6273"/>
<polygon fill="#9a32cd" stroke="#9a32cd" points="352,-57.2338 355.5,-67.2338 359,-57.2338 352,-57.2338"/>
<text text-anchor="middle" x="369" y="-41" font-family="Helvetica,sans-Serif" font-size="10.00"> value</text>
</g>
<!-- Node8 -->
<g id="node8" class="node"><title>Node8</title>
<g id="a_node8"><a xlink:href="structT.html" target="_top" xlink:title="T">
<polygon fill="white" stroke="black" points="289,-146.5 289,-165.5 318,-165.5 318,-146.5 289,-146.5"/>
<text text-anchor="middle" x="303.5" y="-153.5" font-family="Helvetica,sans-Serif" font-size="10.00">T</text>
</a>
</g>
</g>
<!-- Node8&#45;&gt;Node1 -->
<g id="edge17" class="edge"><title>Node8&#45;&gt;Node1</title>
<path fill="none" stroke="#9a32cd" stroke-dasharray="5,2" d="M278.618,-155.544C254.049,-154.67 217.11,-149.331 195.5,-127 184.95,-116.098 183.66,-97.3792 183.916,-86.5059"/>
<polygon fill="#9a32cd" stroke="#9a32cd" points="278.892,-159.047 288.936,-155.676 278.982,-152.048 278.892,-159.047"/>
<text text-anchor="middle" x="218.5" y="-119" font-family="Helvetica,sans-Serif" font-size="10.00"> walk_root</text>
<text text-anchor="middle" x="218.5" y="-108" font-family="Helvetica,sans-Serif" font-size="10.00">match</text>
</g>
<!-- Node8&#45;&gt;Node7 -->
<g id="edge8" class="edge"><title>Node8&#45;&gt;Node7</title>
<path fill="none" stroke="#9a32cd" stroke-dasharray="5,2" d="M326.33,-140.566C331.2,-136.644 335.941,-132.063 339.5,-127 348.249,-114.554 352.434,-97.0298 354.258,-86.6604"/>
<polygon fill="#9a32cd" stroke="#9a32cd" points="324.205,-137.784 318.199,-146.512 328.337,-143.434 324.205,-137.784"/>
<text text-anchor="middle" x="366.5" y="-113.5" font-family="Helvetica,sans-Serif" font-size="10.00"> values</text>
</g>
<!-- Node9 -->
<g id="node9" class="node"><title>Node9</title>
<g id="a_node9"><a xlink:href="structTstruct.html" target="_top" xlink:title="Tstruct">
<polygon fill="white" stroke="black" points="253,-67.5 253,-86.5 300,-86.5 300,-67.5 253,-67.5"/>
<text text-anchor="middle" x="276.5" y="-74.5" font-family="Helvetica,sans-Serif" font-size="10.00">Tstruct</text>
</a>
</g>
</g>
<!-- Node8&#45;&gt;Node9 -->
<g id="edge10" class="edge"><title>Node8&#45;&gt;Node9</title>
<path fill="none" stroke="#9a32cd" stroke-dasharray="5,2" d="M279.302,-149.039C267.862,-144.874 255.257,-138.022 248.5,-127 243.39,-118.664 244.676,-113.999 248.5,-105 251.616,-97.666 257.809,-91.3566 263.579,-86.6853"/>
<polygon fill="#9a32cd" stroke="#9a32cd" points="278.289,-152.389 288.879,-152.044 280.385,-145.71 278.289,-152.389"/>
<text text-anchor="middle" x="265.5" y="-119" font-family="Helvetica,sans-Serif" font-size="10.00"> parent</text>
<text text-anchor="middle" x="265.5" y="-108" font-family="Helvetica,sans-Serif" font-size="10.00">children</text>
</g>
<!-- Node12 -->
<g id="node12" class="node"><title>Node12</title>
<g id="a_node12"><a xlink:href="structSliteral.html" target="_top" xlink:title="Sliteral">
<polygon fill="white" stroke="black" points="397,-67.5 397,-86.5 444,-86.5 444,-67.5 397,-67.5"/>
<text text-anchor="middle" x="420.5" y="-74.5" font-family="Helvetica,sans-Serif" font-size="10.00">Sliteral</text>
</a>
</g>
</g>
<!-- Node8&#45;&gt;Node12 -->
<g id="edge15" class="edge"><title>Node8&#45;&gt;Node12</title>
<path fill="none" stroke="#9a32cd" stroke-dasharray="5,2" d="M328.097,-150.977C345.721,-147.135 369.288,-139.943 386.5,-127 400.899,-116.172 411.432,-97.4264 416.702,-86.5286"/>
<polygon fill="#9a32cd" stroke="#9a32cd" points="327.139,-147.598 318.001,-152.959 328.487,-154.467 327.139,-147.598"/>
<text text-anchor="middle" x="426.5" y="-113.5" font-family="Helvetica,sans-Serif" font-size="10.00"> symbols</text>
</g>
<!-- Node9&#45;&gt;Node8 -->
<g id="edge9" class="edge"><title>Node9&#45;&gt;Node8</title>
<path fill="none" stroke="#9a32cd" stroke-dasharray="5,2" d="M283.019,-96.5901C288.577,-112.441 296.313,-134.503 300.507,-146.465"/>
<polygon fill="#9a32cd" stroke="#9a32cd" points="286.201,-95.0879 279.589,-86.8094 279.595,-97.4043 286.201,-95.0879"/>
<text text-anchor="middle" x="314.5" y="-113.5" font-family="Helvetica,sans-Serif" font-size="10.00"> structure</text>
</g>
<!-- Node10 -->
<g id="node10" class="node"><title>Node10</title>
<g id="a_node10"><a xlink:href="structTcontext.html" target="_top" xlink:title="Tcontext">
<polygon fill="white" stroke="black" points="276,-223.5 276,-242.5 331,-242.5 331,-223.5 276,-223.5"/>
<text text-anchor="middle" x="303.5" y="-230.5" font-family="Helvetica,sans-Serif" font-size="10.00">Tcontext</text>
</a>
</g>
</g>
<!-- Node10&#45;&gt;Node8 -->
<g id="edge11" class="edge"><title>Node10&#45;&gt;Node8</title>
<path fill="none" stroke="#9a32cd" stroke-dasharray="5,2" d="M303.5,-213.023C303.5,-197.741 303.5,-176.978 303.5,-165.503"/>
<polygon fill="#9a32cd" stroke="#9a32cd" points="300,-213.397 303.5,-223.397 307,-213.397 300,-213.397"/>
<text text-anchor="middle" x="321.5" y="-192.5" font-family="Helvetica,sans-Serif" font-size="10.00"> context</text>
</g>
<!-- Node11&#45;&gt;Node8 -->
<g id="edge12" class="edge"><title>Node11&#45;&gt;Node8</title>
<path fill="none" stroke="#9a32cd" stroke-dasharray="5,2" d="M370.988,-215.27C363.537,-205.853 353.59,-194.18 343.5,-185 335.474,-177.698 325.474,-170.698 317.481,-165.524"/>
<polygon fill="#9a32cd" stroke="#9a32cd" points="368.415,-217.665 377.29,-223.451 373.96,-213.393 368.415,-217.665"/>
<text text-anchor="middle" x="383" y="-192.5" font-family="Helvetica,sans-Serif" font-size="10.00"> contents</text>
</g>
<!-- Node12&#45;&gt;Node3 -->
<g id="edge14" class="edge"><title>Node12&#45;&gt;Node3</title>
<path fill="none" stroke="#9a32cd" stroke-dasharray="5,2" d="M406.418,-59.3693C400.457,-52.5682 393.323,-44.7326 386.5,-38 379.997,-31.5835 372.247,-24.8335 366.123,-19.6877"/>
<polygon fill="#9a32cd" stroke="#9a32cd" points="404.049,-61.9816 413.23,-67.2697 409.351,-57.4106 404.049,-61.9816"/>
<text text-anchor="middle" x="414" y="-41" font-family="Helvetica,sans-Serif" font-size="10.00"> symbol</text>
</g>
</g>
</svg>
