<?xml version="1.0" encoding="UTF-8" standalone="no"?>
<!DOCTYPE svg PUBLIC "-//W3C//DTD SVG 1.1//EN"
 "http://www.w3.org/Graphics/SVG/1.1/DTD/svg11.dtd">
<!-- Generated by graphviz version 2.38.0 (20140413.2041)
 -->
<!-- Title: CondState Pages: 1 -->
<svg width="192pt" height="240pt"
 viewBox="0.00 0.00 191.50 240.00" xmlns="http://www.w3.org/2000/svg" xmlns:xlink="http://www.w3.org/1999/xlink">
<g id="graph0" class="graph" transform="scale(1 1) rotate(0) translate(4 236)">
<title>CondState</title>
<polygon fill="white" stroke="none" points="-4,4 -4,-236 187.5,-236 187.5,4 -4,4"/>
<!-- Node1 -->
<g id="node1" class="node"><title>Node1</title>
<polygon fill="#bfbfbf" stroke="black" points="0,-0.5 0,-19.5 63,-19.5 63,-0.5 0,-0.5"/>
<text text-anchor="middle" x="31.5" y="-7.5" font-family="Helvetica,sans-Serif" font-size="10.00">CondState</text>
</g>
<!-- Node2 -->
<g id="node2" class="node"><title>Node2</title>
<g id="a_node2"><a xlink:href="structT.html" target="_top" xlink:title="T">
<polygon fill="white" stroke="black" points="88,-78.5 88,-97.5 117,-97.5 117,-78.5 88,-78.5"/>
<text text-anchor="middle" x="102.5" y="-85.5" font-family="Helvetica,sans-Serif" font-size="10.00">T</text>
</a>
</g>
</g>
<!-- Node2&#45;&gt;Node1 -->
<g id="edge1" class="edge"><title>Node2&#45;&gt;Node1</title>
<path fill="none" stroke="#9a32cd" stroke-dasharray="5,2" d="M78.2224,-80.9544C66.4825,-76.861 53.1049,-70.2738 44.5,-60 34.7799,-48.3947 32.2528,-30.2646 31.6409,-19.6163"/>
<polygon fill="#9a32cd" stroke="#9a32cd" points="77.37,-84.3538 87.9567,-83.9397 79.4224,-77.6614 77.37,-84.3538"/>
<text text-anchor="middle" x="68.5" y="-46.5" font-family="Helvetica,sans-Serif" font-size="10.00"> conditions</text>
</g>
<!-- Node3 -->
<g id="node3" class="node"><title>Node3</title>
<g id="a_node3"><a xlink:href="structTstruct.html" target="_top" xlink:title="Tstruct">
<polygon fill="white" stroke="black" points="108,-0.5 108,-19.5 155,-19.5 155,-0.5 108,-0.5"/>
<text text-anchor="middle" x="131.5" y="-7.5" font-family="Helvetica,sans-Serif" font-size="10.00">Tstruct</text>
</a>
</g>
</g>
<!-- Node2&#45;&gt;Node3 -->
<g id="edge3" class="edge"><title>Node2&#45;&gt;Node3</title>
<path fill="none" stroke="#9a32cd" stroke-dasharray="5,2" d="M97.2414,-68.2359C95.5852,-58.7633 95.1634,-47.3331 99.5,-38 103.053,-30.3532 109.956,-24.0927 116.444,-19.5321"/>
<polygon fill="#9a32cd" stroke="#9a32cd" points="93.8845,-69.2554 99.5414,-78.2137 100.706,-67.683 93.8845,-69.2554"/>
<text text-anchor="middle" x="116.5" y="-52" font-family="Helvetica,sans-Serif" font-size="10.00"> parent</text>
<text text-anchor="middle" x="116.5" y="-41" font-family="Helvetica,sans-Serif" font-size="10.00">children</text>
</g>
<!-- Node3&#45;&gt;Node2 -->
<g id="edge2" class="edge"><title>Node3&#45;&gt;Node2</title>
<path fill="none" stroke="#9a32cd" stroke-dasharray="5,2" d="M138.498,-29.4938C140.965,-39.0362 142.115,-50.6116 137.5,-60 133.234,-68.6779 124.689,-75.3542 117.11,-79.8971"/>
<polygon fill="#9a32cd" stroke="#9a32cd" points="141.779,-28.2616 135.391,-19.8088 135.113,-30.4 141.779,-28.2616"/>
<text text-anchor="middle" x="162.5" y="-46.5" font-family="Helvetica,sans-Serif" font-size="10.00"> structure</text>
</g>
<!-- Node4 -->
<g id="node4" class="node"><title>Node4</title>
<g id="a_node4"><a xlink:href="structTcontext.html" target="_top" xlink:title="Tcontext">
<polygon fill="white" stroke="black" points="42,-145.5 42,-164.5 97,-164.5 97,-145.5 42,-145.5"/>
<text text-anchor="middle" x="69.5" y="-152.5" font-family="Helvetica,sans-Serif" font-size="10.00">Tcontext</text>
</a>
</g>
</g>
<!-- Node4&#45;&gt;Node2 -->
<g id="edge4" class="edge"><title>Node4&#45;&gt;Node2</title>
<path fill="none" stroke="#9a32cd" stroke-dasharray="5,2" d="M71.9705,-135.554C73.3166,-129.12 75.3736,-122.011 78.5,-116 82.0884,-109.101 87.8314,-102.55 92.7998,-97.6295"/>
<polygon fill="#9a32cd" stroke="#9a32cd" points="68.5165,-134.989 70.313,-145.43 75.4199,-136.147 68.5165,-134.989"/>
<text text-anchor="middle" x="96.5" y="-119" font-family="Helvetica,sans-Serif" font-size="10.00"> context</text>
</g>
<!-- Node5 -->
<g id="node5" class="node"><title>Node5</title>
<g id="a_node5"><a xlink:href="structTcontents.html" target="_top" xlink:title="Tcontents">
<polygon fill="white" stroke="black" points="115.5,-145.5 115.5,-164.5 175.5,-164.5 175.5,-145.5 115.5,-145.5"/>
<text text-anchor="middle" x="145.5" y="-152.5" font-family="Helvetica,sans-Serif" font-size="10.00">Tcontents</text>
</a>
</g>
</g>
<!-- Node5&#45;&gt;Node2 -->
<g id="edge5" class="edge"><title>Node5&#45;&gt;Node2</title>
<path fill="none" stroke="#9a32cd" stroke-dasharray="5,2" d="M133.946,-136.535C125.621,-123.95 114.743,-107.507 108.207,-97.6273"/>
<polygon fill="#9a32cd" stroke="#9a32cd" points="131.264,-138.825 139.701,-145.234 137.103,-134.963 131.264,-138.825"/>
<text text-anchor="middle" x="148" y="-119" font-family="Helvetica,sans-Serif" font-size="10.00"> contents</text>
</g>
<!-- Node6 -->
<g id="node6" class="node"><title>Node6</title>
<g id="a_node6"><a xlink:href="structSemanticID.html" target="_top" xlink:title="SemanticID">
<polygon fill="white" stroke="black" points="111.5,-212.5 111.5,-231.5 179.5,-231.5 179.5,-212.5 111.5,-212.5"/>
<text text-anchor="middle" x="145.5" y="-219.5" font-family="Helvetica,sans-Serif" font-size="10.00">SemanticID</text>
</a>
</g>
</g>
<!-- Node6&#45;&gt;Node5 -->
<g id="edge6" class="edge"><title>Node6&#45;&gt;Node5</title>
<path fill="none" stroke="#9a32cd" stroke-dasharray="5,2" d="M145.5,-202.037C145.5,-189.67 145.5,-174.12 145.5,-164.627"/>
<polygon fill="#9a32cd" stroke="#9a32cd" points="142,-202.234 145.5,-212.234 149,-202.234 142,-202.234"/>
<text text-anchor="middle" x="163" y="-186" font-family="Helvetica,sans-Serif" font-size="10.00"> symbol</text>
</g>
</g>
</svg>
