<?xml version="1.0" encoding="UTF-8" standalone="no"?>
<!DOCTYPE svg PUBLIC "-//W3C//DTD SVG 1.1//EN"
 "http://www.w3.org/Graphics/SVG/1.1/DTD/svg11.dtd">
<!-- Generated by graphviz version 2.38.0 (20140413.2041)
 -->
<!-- Title: VMHost Pages: 1 -->
<!--zoomable 615 -->
<svg id="main" version="1.1" xmlns="http://www.w3.org/2000/svg" xmlns:xlink="http://www.w3.org/1999/xlink" xml:space="preserve" onload="init(evt)">
<style type="text/css"><![CDATA[
.edge:hover path { stroke: red; }
.edge:hover polygon { stroke: red; fill: red; }
]]></style>
<script type="text/javascript"><![CDATA[
var edges = document.getElementsByTagName('g');
if (edges && edges.length) {
  for (var i=0;i<edges.length;i++) {
    if (edges[i].id.substr(0,4)=='edge') {
      edges[i].setAttribute('class','edge');
    }
  }
}
]]></script>
        <defs>
                <circle id="rim" cx="0" cy="0" r="7"/>
                <circle id="rim2" cx="0" cy="0" r="3.5"/>
                <g id="zoomPlus">
                        <use xlink:href="#rim" fill="#404040">
                                <set attributeName="fill" to="#808080" begin="zoomplus.mouseover" end="zoomplus.mouseout"/>
                        </use>
                        <path d="M-4,0h8M0,-4v8" fill="none" stroke="white" stroke-width="1.5" pointer-events="none"/>
                </g>
                <g id="zoomMin">
                        <use xlink:href="#rim" fill="#404040">
                                <set attributeName="fill" to="#808080" begin="zoomminus.mouseover" end="zoomminus.mouseout"/>
                        </use>
                        <path d="M-4,0h8" fill="none" stroke="white" stroke-width="1.5" pointer-events="none"/>
                </g>
                <g id="dirArrow">
                        <path fill="none" stroke="white" stroke-width="1.5" d="M0,-3.0v7 M-2.5,-0.5L0,-3.0L2.5,-0.5"/>
                </g>
               <g id="resetDef">
                       <use xlink:href="#rim2" fill="#404040">
                               <set attributeName="fill" to="#808080" begin="reset.mouseover" end="reset.mouseout"/>
                       </use>
               </g>
        </defs>

<script type="text/javascript">
var viewWidth = 793;
var viewHeight = 615;
var sectionId = 'dynsection-0';
</script>
<script xlink:href="svgpan.js"/>
<svg id="graph" class="graph">
<g id="viewport">
<title>VMHost</title>
<polygon fill="white" stroke="none" points="-4,4 -4,-611 788.5,-611 788.5,4 -4,4"/>
<!-- Node1 -->
<g id="node1" class="node"><title>Node1</title>
<polygon fill="#bfbfbf" stroke="black" points="423.5,-0.5 423.5,-19.5 476.5,-19.5 476.5,-0.5 423.5,-0.5"/>
<text text-anchor="middle" x="450" y="-7.5" font-family="Helvetica,sans-Serif" font-size="10.00">VMHost</text>
</g>
<!-- Node2 -->
<g id="node2" class="node"><title>Node2</title>
<g id="a_node2"><a xlink:href="structScape.html" target="_top" xlink:title="Scape">
<polygon fill="white" stroke="black" points="0,-339.5 0,-358.5 44,-358.5 44,-339.5 0,-339.5"/>
<text text-anchor="middle" x="22" y="-346.5" font-family="Helvetica,sans-Serif" font-size="10.00">Scape</text>
</a>
</g>
</g>
<!-- Node2&#45;&gt;Node1 -->
<g id="edge1" class="edge"><title>Node2&#45;&gt;Node1</title>
<path fill="none" stroke="#9a32cd" stroke-dasharray="5,2" d="M22,-329.081C22,-306.988 22,-269.343 22,-237 22,-237 22,-237 22,-87 22,-46.0586 329.527,-19.9181 423.227,-12.9036"/>
<polygon fill="#9a32cd" stroke="#9a32cd" points="18.5001,-329.364 22,-339.364 25.5001,-329.364 18.5001,-329.364"/>
<text text-anchor="middle" x="64.5" y="-159" font-family="Helvetica,sans-Serif" font-size="10.00"> installed_receptors</text>
</g>
<!-- Node3 -->
<g id="node3" class="node"><title>Node3</title>
<g id="a_node3"><a xlink:href="structSemanticID.html" target="_top" xlink:title="SemanticID">
<polygon fill="white" stroke="black" points="276,-587.5 276,-606.5 344,-606.5 344,-587.5 276,-587.5"/>
<text text-anchor="middle" x="310" y="-594.5" font-family="Helvetica,sans-Serif" font-size="10.00">SemanticID</text>
</a>
</g>
</g>
<!-- Node3&#45;&gt;Node2 -->
<g id="edge2" class="edge"><title>Node3&#45;&gt;Node2</title>
<path fill="none" stroke="#9a32cd" stroke-dasharray="5,2" d="M265.668,-596.802C198.935,-595.247 75.0559,-580.946 24,-500 -5.03863,-453.961 12.0043,-383.117 19.2411,-358.656"/>
<polygon fill="#9a32cd" stroke="#9a32cd" points="265.818,-600.305 275.867,-596.951 265.919,-593.306 265.818,-600.305"/>
<text text-anchor="middle" x="51" y="-492" font-family="Helvetica,sans-Serif" font-size="10.00"> key_source</text>
<text text-anchor="middle" x="51" y="-481" font-family="Helvetica,sans-Serif" font-size="10.00">data_source</text>
</g>
<!-- Node5 -->
<g id="node5" class="node"><title>Node5</title>
<g id="a_node5"><a xlink:href="structXaddr.html" target="_top" xlink:title="Xaddr">
<polygon fill="white" stroke="black" points="114,-519.5 114,-538.5 156,-538.5 156,-519.5 114,-519.5"/>
<text text-anchor="middle" x="135" y="-526.5" font-family="Helvetica,sans-Serif" font-size="10.00">Xaddr</text>
</a>
</g>
</g>
<!-- Node3&#45;&gt;Node5 -->
<g id="edge5" class="edge"><title>Node3&#45;&gt;Node5</title>
<path fill="none" stroke="#9a32cd" stroke-dasharray="5,2" d="M277.715,-583.824C242.31,-570.471 186.511,-549.427 156.24,-538.01"/>
<polygon fill="#9a32cd" stroke="#9a32cd" points="276.53,-587.118 287.122,-587.372 279,-580.568 276.53,-587.118"/>
<text text-anchor="middle" x="256.5" y="-561" font-family="Helvetica,sans-Serif" font-size="10.00"> symbol</text>
</g>
<!-- Node14 -->
<g id="node14" class="node"><title>Node14</title>
<g id="a_node14"><a xlink:href="structTcontents.html" target="_top" xlink:title="Tcontents">
<polygon fill="white" stroke="black" points="414,-519.5 414,-538.5 474,-538.5 474,-519.5 414,-519.5"/>
<text text-anchor="middle" x="444" y="-526.5" font-family="Helvetica,sans-Serif" font-size="10.00">Tcontents</text>
</a>
</g>
</g>
<!-- Node3&#45;&gt;Node14 -->
<g id="edge19" class="edge"><title>Node3&#45;&gt;Node14</title>
<path fill="none" stroke="#9a32cd" stroke-dasharray="5,2" d="M354.254,-586.514C369.023,-582.336 385.217,-576.607 399,-569 413.663,-560.907 427.788,-547.439 436.185,-538.64"/>
<polygon fill="#9a32cd" stroke="#9a32cd" points="353.067,-583.209 344.303,-589.163 354.867,-589.973 353.067,-583.209"/>
<text text-anchor="middle" x="433.5" y="-561" font-family="Helvetica,sans-Serif" font-size="10.00"> symbol</text>
</g>
<!-- Node15 -->
<g id="node15" class="node"><title>Node15</title>
<g id="a_node15"><a xlink:href="structReceptorRoute.html" target="_top" xlink:title="ReceptorRoute">
<polygon fill="white" stroke="black" points="367.5,-78.5 367.5,-97.5 450.5,-97.5 450.5,-78.5 367.5,-78.5"/>
<text text-anchor="middle" x="409" y="-85.5" font-family="Helvetica,sans-Serif" font-size="10.00">ReceptorRoute</text>
</a>
</g>
</g>
<!-- Node3&#45;&gt;Node15 -->
<g id="edge33" class="edge"><title>Node3&#45;&gt;Node15</title>
<path fill="none" stroke="#9a32cd" stroke-dasharray="5,2" d="M341.654,-582.896C362.134,-572.081 385,-554.517 385,-530 385,-530 385,-530 385,-160.5 385,-136.931 396.865,-111.157 403.91,-97.9316"/>
<polygon fill="#9a32cd" stroke="#9a32cd" points="339.935,-579.841 332.502,-587.391 343.021,-586.124 339.935,-579.841"/>
<text text-anchor="middle" x="389.5" y="-346.5" font-family="Helvetica,sans-Serif" font-size="10.00"> s</text>
</g>
<!-- Node4 -->
<g id="node4" class="node"><title>Node4</title>
<g id="a_node4"><a xlink:href="structscape__elem.html" target="_top" xlink:title="scape_elem">
<polygon fill="white" stroke="black" points="37.5,-440.5 37.5,-459.5 106.5,-459.5 106.5,-440.5 37.5,-440.5"/>
<text text-anchor="middle" x="72" y="-447.5" font-family="Helvetica,sans-Serif" font-size="10.00">scape_elem</text>
</a>
</g>
</g>
<!-- Node4&#45;&gt;Node2 -->
<g id="edge3" class="edge"><title>Node4&#45;&gt;Node2</title>
<path fill="none" stroke="#9a32cd" stroke-dasharray="5,2" d="M63.012,-431.204C52.2046,-409.805 34.5045,-374.759 26.3558,-358.625"/>
<polygon fill="#9a32cd" stroke="#9a32cd" points="59.9305,-432.866 67.5628,-440.214 66.1788,-429.71 59.9305,-432.866"/>
<text text-anchor="middle" x="69" y="-397.5" font-family="Helvetica,sans-Serif" font-size="10.00"> data</text>
</g>
<!-- Node5&#45;&gt;Node4 -->
<g id="edge4" class="edge"><title>Node5&#45;&gt;Node4</title>
<path fill="none" stroke="#9a32cd" stroke-dasharray="5,2" d="M109.518,-513.805C103.912,-509.858 98.3563,-505.206 94,-500 83.8262,-487.843 77.4629,-470.224 74.3358,-459.758"/>
<polygon fill="#9a32cd" stroke="#9a32cd" points="107.9,-516.927 118.201,-519.405 111.694,-511.044 107.9,-516.927"/>
<text text-anchor="middle" x="107.5" y="-486.5" font-family="Helvetica,sans-Serif" font-size="10.00"> value</text>
</g>
<!-- Node23 -->
<g id="node23" class="node"><title>Node23</title>
<g id="a_node23"><a xlink:href="structActiveReceptor.html" target="_top" xlink:title="ActiveReceptor">
<polygon fill="white" stroke="black" points="265,-78.5 265,-97.5 349,-97.5 349,-78.5 265,-78.5"/>
<text text-anchor="middle" x="307" y="-85.5" font-family="Helvetica,sans-Serif" font-size="10.00">ActiveReceptor</text>
</a>
</g>
</g>
<!-- Node5&#45;&gt;Node23 -->
<g id="edge37" class="edge"><title>Node5&#45;&gt;Node23</title>
<path fill="none" stroke="#9a32cd" stroke-dasharray="5,2" d="M135,-509.083C135,-493.496 135,-470.814 135,-451 135,-451 135,-451 135,-160.5 135,-104.393 214.004,-91.4955 264.924,-89.0098"/>
<polygon fill="#9a32cd" stroke="#9a32cd" points="131.5,-509.454 135,-519.454 138.5,-509.454 131.5,-509.454"/>
<text text-anchor="middle" x="139.5" y="-290" font-family="Helvetica,sans-Serif" font-size="10.00"> x</text>
</g>
<!-- Node6 -->
<g id="node6" class="node"><title>Node6</title>
<g id="a_node6"><a xlink:href="structUT__hash__handle.html" target="_top" xlink:title="UT_hash_handle">
<polygon fill="white" stroke="black" points="193,-519.5 193,-538.5 283,-538.5 283,-519.5 193,-519.5"/>
<text text-anchor="middle" x="238" y="-526.5" font-family="Helvetica,sans-Serif" font-size="10.00">UT_hash_handle</text>
</a>
</g>
</g>
<!-- Node6&#45;&gt;Node4 -->
<g id="edge6" class="edge"><title>Node6&#45;&gt;Node4</title>
<path fill="none" stroke="#9a32cd" stroke-dasharray="5,2" d="M206.014,-515.656C194.282,-510.962 180.953,-505.433 169,-500 161.099,-496.409 114.445,-472.666 88.8277,-459.595"/>
<polygon fill="#9a32cd" stroke="#9a32cd" points="204.841,-518.956 215.428,-519.382 207.418,-512.448 204.841,-518.956"/>
<text text-anchor="middle" x="176" y="-486.5" font-family="Helvetica,sans-Serif" font-size="10.00"> hh</text>
</g>
<!-- Node6&#45;&gt;Node6 -->
<g id="edge7" class="edge"><title>Node6&#45;&gt;Node6</title>
<path fill="none" stroke="#9a32cd" stroke-dasharray="5,2" d="M293.264,-533.98C298.026,-532.922 301,-531.262 301,-529 301,-525.381 293.386,-523.303 283.02,-522.765"/>
<polygon fill="#9a32cd" stroke="#9a32cd" points="292.521,-530.545 283.02,-535.235 293.372,-537.493 292.521,-530.545"/>
<text text-anchor="middle" x="320" y="-532" font-family="Helvetica,sans-Serif" font-size="10.00"> hh_prev</text>
<text text-anchor="middle" x="320" y="-521" font-family="Helvetica,sans-Serif" font-size="10.00">hh_next</text>
</g>
<!-- Node7 -->
<g id="node7" class="node"><title>Node7</title>
<g id="a_node7"><a xlink:href="structUT__hash__table.html" target="_top" xlink:title="UT_hash_table">
<polygon fill="white" stroke="black" points="219.5,-339.5 219.5,-358.5 302.5,-358.5 302.5,-339.5 219.5,-339.5"/>
<text text-anchor="middle" x="261" y="-346.5" font-family="Helvetica,sans-Serif" font-size="10.00">UT_hash_table</text>
</a>
</g>
</g>
<!-- Node6&#45;&gt;Node7 -->
<g id="edge11" class="edge"><title>Node6&#45;&gt;Node7</title>
<path fill="none" stroke="#9a32cd" stroke-dasharray="5,2" d="M220.201,-512.489C202.947,-495.46 180.65,-466.947 190,-440 202.134,-405.028 234.116,-373.364 250.699,-358.663"/>
<polygon fill="#9a32cd" stroke="#9a32cd" points="217.951,-515.176 227.642,-519.457 222.736,-510.067 217.951,-515.176"/>
<text text-anchor="middle" x="198" y="-447.5" font-family="Helvetica,sans-Serif" font-size="10.00"> tail</text>
</g>
<!-- Node8 -->
<g id="node8" class="node"><title>Node8</title>
<g id="a_node8"><a xlink:href="structUT__hash__bucket.html" target="_top" xlink:title="UT_hash_bucket">
<polygon fill="white" stroke="black" points="215.5,-440.5 215.5,-459.5 306.5,-459.5 306.5,-440.5 215.5,-440.5"/>
<text text-anchor="middle" x="261" y="-447.5" font-family="Helvetica,sans-Serif" font-size="10.00">UT_hash_bucket</text>
</a>
</g>
</g>
<!-- Node6&#45;&gt;Node8 -->
<g id="edge10" class="edge"><title>Node6&#45;&gt;Node8</title>
<path fill="none" stroke="#9a32cd" stroke-dasharray="5,2" d="M243.445,-509.771C248.151,-494.016 254.75,-471.924 258.369,-459.809"/>
<polygon fill="#9a32cd" stroke="#9a32cd" points="240.058,-508.882 240.549,-519.465 246.765,-510.886 240.058,-508.882"/>
<text text-anchor="middle" x="273" y="-486.5" font-family="Helvetica,sans-Serif" font-size="10.00"> hh_head</text>
</g>
<!-- Node7&#45;&gt;Node6 -->
<g id="edge8" class="edge"><title>Node7&#45;&gt;Node6</title>
<path fill="none" stroke="#9a32cd" stroke-dasharray="5,2" d="M288.879,-364.02C294.273,-367.882 299.369,-372.541 303,-378 323.4,-408.667 322.73,-423.988 315,-460 310.909,-479.061 310.645,-486.076 297,-500 288.509,-508.665 276.809,-514.978 266.065,-519.391"/>
<polygon fill="#9a32cd" stroke="#9a32cd" points="290.647,-360.997 280.324,-358.61 286.905,-366.913 290.647,-360.997"/>
<text text-anchor="middle" x="326" y="-447.5" font-family="Helvetica,sans-Serif" font-size="10.00"> tbl</text>
</g>
<!-- Node8&#45;&gt;Node7 -->
<g id="edge9" class="edge"><title>Node8&#45;&gt;Node7</title>
<path fill="none" stroke="#9a32cd" stroke-dasharray="5,2" d="M261,-430.029C261,-408.543 261,-374.467 261,-358.625"/>
<polygon fill="#9a32cd" stroke="#9a32cd" points="257.5,-430.214 261,-440.214 264.5,-430.214 257.5,-430.214"/>
<text text-anchor="middle" x="280" y="-397.5" font-family="Helvetica,sans-Serif" font-size="10.00"> buckets</text>
</g>
<!-- Node9 -->
<g id="node9" class="node"><title>Node9</title>
<g id="a_node9"><a xlink:href="structSemTable.html" target="_top" xlink:title="SemTable">
<polygon fill="white" stroke="black" points="561.5,-226.5 561.5,-245.5 622.5,-245.5 622.5,-226.5 561.5,-226.5"/>
<text text-anchor="middle" x="592" y="-233.5" font-family="Helvetica,sans-Serif" font-size="10.00">SemTable</text>
</a>
</g>
</g>
<!-- Node9&#45;&gt;Node1 -->
<g id="edge12" class="edge"><title>Node9&#45;&gt;Node1</title>
<path fill="none" stroke="#9a32cd" stroke-dasharray="5,2" d="M594.081,-216.203C596.57,-184.687 597.249,-120.475 568,-78 546.155,-46.2765 504.081,-27.7454 476.528,-18.4955"/>
<polygon fill="#9a32cd" stroke="#9a32cd" points="590.59,-215.949 593.135,-226.234 597.559,-216.607 590.59,-215.949"/>
<text text-anchor="middle" x="600" y="-119" font-family="Helvetica,sans-Serif" font-size="10.00"> sem</text>
</g>
<!-- Node16 -->
<g id="node16" class="node"><title>Node16</title>
<g id="a_node16"><a xlink:href="structReceptor.html" target="_top" xlink:title="Receptor">
<polygon fill="white" stroke="black" points="464,-152 464,-171 520,-171 520,-152 464,-152"/>
<text text-anchor="middle" x="492" y="-159" font-family="Helvetica,sans-Serif" font-size="10.00">Receptor</text>
</a>
</g>
</g>
<!-- Node9&#45;&gt;Node16 -->
<g id="edge23" class="edge"><title>Node9&#45;&gt;Node16</title>
<path fill="none" stroke="#9a32cd" stroke-dasharray="5,2" d="M570.892,-220.385C564.773,-216.106 558.099,-211.395 552,-207 534.955,-194.717 515.455,-180.16 503.434,-171.125"/>
<polygon fill="#9a32cd" stroke="#9a32cd" points="569.121,-223.417 579.327,-226.26 573.121,-217.673 569.121,-223.417"/>
<text text-anchor="middle" x="563" y="-199" font-family="Helvetica,sans-Serif" font-size="10.00"> sem</text>
</g>
<!-- Node10 -->
<g id="node10" class="node"><title>Node10</title>
<g id="a_node10"><a xlink:href="structContextStore.html" target="_top" xlink:title="ContextStore">
<polygon fill="white" stroke="black" points="535,-339.5 535,-358.5 609,-358.5 609,-339.5 535,-339.5"/>
<text text-anchor="middle" x="572" y="-346.5" font-family="Helvetica,sans-Serif" font-size="10.00">ContextStore</text>
</a>
</g>
</g>
<!-- Node10&#45;&gt;Node9 -->
<g id="edge13" class="edge"><title>Node10&#45;&gt;Node9</title>
<path fill="none" stroke="#9a32cd" stroke-dasharray="5,2" d="M575.391,-329.179C579.772,-304.865 587.217,-263.547 590.438,-245.67"/>
<polygon fill="#9a32cd" stroke="#9a32cd" points="571.898,-328.828 573.569,-339.29 578.787,-330.069 571.898,-328.828"/>
<text text-anchor="middle" x="602.5" y="-290" font-family="Helvetica,sans-Serif" font-size="10.00"> stores</text>
</g>
<!-- Node11 -->
<g id="node11" class="node"><title>Node11</title>
<g id="a_node11"><a xlink:href="structT.html" target="_top" xlink:title="T">
<polygon fill="white" stroke="black" points="505.5,-440.5 505.5,-459.5 534.5,-459.5 534.5,-440.5 505.5,-440.5"/>
<text text-anchor="middle" x="520" y="-447.5" font-family="Helvetica,sans-Serif" font-size="10.00">T</text>
</a>
</g>
</g>
<!-- Node11&#45;&gt;Node10 -->
<g id="edge14" class="edge"><title>Node11&#45;&gt;Node10</title>
<path fill="none" stroke="#9a32cd" stroke-dasharray="5,2" d="M541.574,-433.921C545.485,-430.383 549.203,-426.359 552,-422 565.031,-401.69 569.684,-372.885 571.254,-358.65"/>
<polygon fill="#9a32cd" stroke="#9a32cd" points="539.078,-431.438 533.51,-440.452 543.484,-436.878 539.078,-431.438"/>
<text text-anchor="middle" x="593" y="-397.5" font-family="Helvetica,sans-Serif" font-size="10.00"> definitions</text>
</g>
<!-- Node12 -->
<g id="node12" class="node"><title>Node12</title>
<g id="a_node12"><a xlink:href="structTstruct.html" target="_top" xlink:title="Tstruct">
<polygon fill="white" stroke="black" points="460.5,-339.5 460.5,-358.5 507.5,-358.5 507.5,-339.5 460.5,-339.5"/>
<text text-anchor="middle" x="484" y="-346.5" font-family="Helvetica,sans-Serif" font-size="10.00">Tstruct</text>
</a>
</g>
</g>
<!-- Node11&#45;&gt;Node12 -->
<g id="edge16" class="edge"><title>Node11&#45;&gt;Node12</title>
<path fill="none" stroke="#9a32cd" stroke-dasharray="5,2" d="M515.576,-430.264C511.88,-415.738 506.082,-395.245 499,-378 496.235,-371.266 492.333,-364.032 489.202,-358.604"/>
<polygon fill="#9a32cd" stroke="#9a32cd" points="512.196,-431.179 517.978,-440.057 518.994,-429.511 512.196,-431.179"/>
<text text-anchor="middle" x="531" y="-403" font-family="Helvetica,sans-Serif" font-size="10.00"> parent</text>
<text text-anchor="middle" x="531" y="-392" font-family="Helvetica,sans-Serif" font-size="10.00">children</text>
</g>
<!-- Node11&#45;&gt;Node16 -->
<g id="edge32" class="edge"><title>Node11&#45;&gt;Node16</title>
<path fill="none" stroke="#9a32cd" stroke-dasharray="5,2" d="M495.218,-446.826C478.667,-443.951 457.988,-437.309 447,-422 395.929,-350.847 413.009,-307.647 442,-225 449.819,-202.709 469.303,-182.462 481.51,-171.374"/>
<polygon fill="#9a32cd" stroke="#9a32cd" points="494.971,-450.325 505.355,-448.224 495.927,-443.39 494.971,-450.325"/>
<text text-anchor="middle" x="473" y="-312" font-family="Helvetica,sans-Serif" font-size="10.00"> pending_responses</text>
<text text-anchor="middle" x="473" y="-301" font-family="Helvetica,sans-Serif" font-size="10.00">root</text>
<text text-anchor="middle" x="473" y="-290" font-family="Helvetica,sans-Serif" font-size="10.00">pending_signals</text>
<text text-anchor="middle" x="473" y="-279" font-family="Helvetica,sans-Serif" font-size="10.00">instances</text>
<text text-anchor="middle" x="473" y="-268" font-family="Helvetica,sans-Serif" font-size="10.00">flux</text>
</g>
<!-- Node20 -->
<g id="node20" class="node"><title>Node20</title>
<g id="a_node20"><a xlink:href="structR.html" target="_top" xlink:title="R">
<polygon fill="white" stroke="black" points="710.5,-339.5 710.5,-358.5 739.5,-358.5 739.5,-339.5 710.5,-339.5"/>
<text text-anchor="middle" x="725" y="-346.5" font-family="Helvetica,sans-Serif" font-size="10.00">R</text>
</a>
</g>
</g>
<!-- Node11&#45;&gt;Node20 -->
<g id="edge29" class="edge"><title>Node11&#45;&gt;Node20</title>
<path fill="none" stroke="#9a32cd" stroke-dasharray="5,2" d="M544.596,-444.886C565.568,-440.809 596.172,-433.489 621,-422 658.668,-404.57 697.403,-373.632 715.098,-358.632"/>
<polygon fill="#9a32cd" stroke="#9a32cd" points="543.79,-441.475 534.589,-446.728 545.057,-448.36 543.79,-441.475"/>
<text text-anchor="middle" x="718" y="-414" font-family="Helvetica,sans-Serif" font-size="10.00"> run_tree</text>
<text text-anchor="middle" x="718" y="-403" font-family="Helvetica,sans-Serif" font-size="10.00">node_pointer</text>
<text text-anchor="middle" x="718" y="-392" font-family="Helvetica,sans-Serif" font-size="10.00">parent</text>
<text text-anchor="middle" x="718" y="-381" font-family="Helvetica,sans-Serif" font-size="10.00">sem_map</text>
</g>
<!-- Node12&#45;&gt;Node11 -->
<g id="edge15" class="edge"><title>Node12&#45;&gt;Node11</title>
<path fill="none" stroke="#9a32cd" stroke-dasharray="5,2" d="M464.826,-365.84C461.632,-369.475 458.783,-373.583 457,-378 449.681,-396.134 446.235,-405.674 457,-422 467.678,-438.193 490.299,-444.711 505.325,-447.31"/>
<polygon fill="#9a32cd" stroke="#9a32cd" points="467.408,-368.21 472.086,-358.704 462.501,-363.218 467.408,-368.21"/>
<text text-anchor="middle" x="478" y="-397.5" font-family="Helvetica,sans-Serif" font-size="10.00"> structure</text>
</g>
<!-- Node13 -->
<g id="node13" class="node"><title>Node13</title>
<g id="a_node13"><a xlink:href="structTcontext.html" target="_top" xlink:title="Tcontext">
<polygon fill="white" stroke="black" points="492.5,-519.5 492.5,-538.5 547.5,-538.5 547.5,-519.5 492.5,-519.5"/>
<text text-anchor="middle" x="520" y="-526.5" font-family="Helvetica,sans-Serif" font-size="10.00">Tcontext</text>
</a>
</g>
</g>
<!-- Node13&#45;&gt;Node11 -->
<g id="edge17" class="edge"><title>Node13&#45;&gt;Node11</title>
<path fill="none" stroke="#9a32cd" stroke-dasharray="5,2" d="M520,-509.315C520,-493.592 520,-471.808 520,-459.809"/>
<polygon fill="#9a32cd" stroke="#9a32cd" points="516.5,-509.465 520,-519.465 523.5,-509.465 516.5,-509.465"/>
<text text-anchor="middle" x="538" y="-486.5" font-family="Helvetica,sans-Serif" font-size="10.00"> context</text>
</g>
<!-- Node14&#45;&gt;Node11 -->
<g id="edge18" class="edge"><title>Node14&#45;&gt;Node11</title>
<path fill="none" stroke="#9a32cd" stroke-dasharray="5,2" d="M452.39,-510.121C457.818,-499.872 465.616,-487.248 475,-478 483.825,-469.302 495.974,-462.226 505.424,-457.503"/>
<polygon fill="#9a32cd" stroke="#9a32cd" points="449.11,-508.855 447.781,-519.366 455.375,-511.978 449.11,-508.855"/>
<text text-anchor="middle" x="495.5" y="-486.5" font-family="Helvetica,sans-Serif" font-size="10.00"> contents</text>
</g>
<!-- Node15&#45;&gt;Node1 -->
<g id="edge20" class="edge"><title>Node15&#45;&gt;Node1</title>
<path fill="none" stroke="#9a32cd" stroke-dasharray="5,2" d="M407.456,-68.2878C407.486,-58.6715 408.858,-47.0958 414,-38 418.383,-30.2467 426.001,-24.0445 433.104,-19.5495"/>
<polygon fill="#9a32cd" stroke="#9a32cd" points="403.965,-68.5702 407.892,-78.4103 410.958,-68.269 403.965,-68.5702"/>
<text text-anchor="middle" x="443.5" y="-46.5" font-family="Helvetica,sans-Serif" font-size="10.00"> routing_table</text>
</g>
<!-- Node16&#45;&gt;Node1 -->
<g id="edge34" class="edge"><title>Node16&#45;&gt;Node1</title>
<path fill="none" stroke="#9a32cd" stroke-dasharray="5,2" d="M492.206,-141.489C491.786,-116.596 488.636,-72.1179 473,-38 469.819,-31.0587 464.323,-24.507 459.502,-19.5962"/>
<polygon fill="#9a32cd" stroke="#9a32cd" points="488.706,-141.734 492.238,-151.723 495.706,-141.712 488.706,-141.734"/>
<text text-anchor="middle" x="492.5" y="-85.5" font-family="Helvetica,sans-Serif" font-size="10.00"> r</text>
</g>
<!-- Node16&#45;&gt;Node15 -->
<g id="edge21" class="edge"><title>Node16&#45;&gt;Node15</title>
<path fill="none" stroke="#9a32cd" stroke-dasharray="5,2" d="M474.869,-144.937C465.287,-136.312 453.075,-125.452 442,-116 434.68,-109.753 426.285,-102.888 419.794,-97.6436"/>
<polygon fill="#9a32cd" stroke="#9a32cd" points="472.753,-147.742 482.519,-151.85 477.446,-142.548 472.753,-147.742"/>
<text text-anchor="middle" x="458.5" y="-119" font-family="Helvetica,sans-Serif" font-size="10.00"> r</text>
</g>
<!-- Node18 -->
<g id="node18" class="node"><title>Node18</title>
<g id="a_node18"><a xlink:href="structQ.html" target="_top" xlink:title="Q">
<polygon fill="white" stroke="black" points="530.5,-78.5 530.5,-97.5 559.5,-97.5 559.5,-78.5 530.5,-78.5"/>
<text text-anchor="middle" x="545" y="-85.5" font-family="Helvetica,sans-Serif" font-size="10.00">Q</text>
</a>
</g>
</g>
<!-- Node16&#45;&gt;Node18 -->
<g id="edge31" class="edge"><title>Node16&#45;&gt;Node18</title>
<path fill="none" stroke="#9a32cd" stroke-dasharray="5,2" d="M503.525,-143.318C509.238,-134.968 516.328,-124.849 523,-116 527.66,-109.82 533.16,-103.07 537.495,-97.8653"/>
<polygon fill="#9a32cd" stroke="#9a32cd" points="500.467,-141.591 497.755,-151.833 506.262,-145.518 500.467,-141.591"/>
<text text-anchor="middle" x="526.5" y="-119" font-family="Helvetica,sans-Serif" font-size="10.00"> r</text>
</g>
<!-- Node16&#45;&gt;Node23 -->
<g id="edge38" class="edge"><title>Node16&#45;&gt;Node23</title>
<path fill="none" stroke="#9a32cd" stroke-dasharray="5,2" d="M460.267,-148.235C422.872,-133.783 361.714,-110.146 329.106,-97.5439"/>
<polygon fill="#9a32cd" stroke="#9a32cd" points="459.095,-151.535 469.685,-151.875 461.619,-145.006 459.095,-151.535"/>
<text text-anchor="middle" x="409.5" y="-119" font-family="Helvetica,sans-Serif" font-size="10.00"> r</text>
</g>
<!-- Node17 -->
<g id="node17" class="node"><title>Node17</title>
<g id="a_node17"><a xlink:href="structReceptorAddress.html" target="_top" xlink:title="ReceptorAddress">
<polygon fill="white" stroke="black" points="451,-226.5 451,-245.5 543,-245.5 543,-226.5 451,-226.5"/>
<text text-anchor="middle" x="497" y="-233.5" font-family="Helvetica,sans-Serif" font-size="10.00">ReceptorAddress</text>
</a>
</g>
</g>
<!-- Node17&#45;&gt;Node16 -->
<g id="edge22" class="edge"><title>Node17&#45;&gt;Node16</title>
<path fill="none" stroke="#9a32cd" stroke-dasharray="5,2" d="M495.691,-216.025C494.688,-201.481 493.351,-182.095 492.592,-171.09"/>
<polygon fill="#9a32cd" stroke="#9a32cd" points="492.227,-216.663 496.407,-226.399 499.21,-216.181 492.227,-216.663"/>
<text text-anchor="middle" x="506" y="-199" font-family="Helvetica,sans-Serif" font-size="10.00"> addr</text>
</g>
<!-- Node18&#45;&gt;Node16 -->
<g id="edge24" class="edge"><title>Node18&#45;&gt;Node16</title>
<path fill="none" stroke="#9a32cd" stroke-dasharray="5,2" d="M538.633,-107.128C535.886,-113.701 532.305,-120.982 528,-127 521.145,-136.582 511.219,-145.568 503.525,-151.816"/>
<polygon fill="#9a32cd" stroke="#9a32cd" points="541.948,-108.258 542.248,-97.6676 535.409,-105.76 541.948,-108.258"/>
<text text-anchor="middle" x="539.5" y="-119" font-family="Helvetica,sans-Serif" font-size="10.00"> q</text>
</g>
<!-- Node19 -->
<g id="node19" class="node"><title>Node19</title>
<g id="a_node19"><a xlink:href="structQe.html" target="_top" xlink:title="Qe">
<polygon fill="white" stroke="black" points="645.5,-226.5 645.5,-245.5 674.5,-245.5 674.5,-226.5 645.5,-226.5"/>
<text text-anchor="middle" x="660" y="-233.5" font-family="Helvetica,sans-Serif" font-size="10.00">Qe</text>
</a>
</g>
</g>
<!-- Node19&#45;&gt;Node18 -->
<g id="edge25" class="edge"><title>Node19&#45;&gt;Node18</title>
<path fill="none" stroke="#9a32cd" stroke-dasharray="5,2" d="M657.518,-216.241C653.155,-190.4 641.775,-143.889 614,-116 599.113,-101.052 574.983,-94.1752 559.561,-91.1632"/>
<polygon fill="#9a32cd" stroke="#9a32cd" points="654.071,-216.862 659.024,-226.228 660.993,-215.818 654.071,-216.862"/>
<text text-anchor="middle" x="672" y="-170" font-family="Helvetica,sans-Serif" font-size="10.00"> active</text>
<text text-anchor="middle" x="672" y="-159" font-family="Helvetica,sans-Serif" font-size="10.00">blocked</text>
<text text-anchor="middle" x="672" y="-148" font-family="Helvetica,sans-Serif" font-size="10.00">completed</text>
</g>
<!-- Node19&#45;&gt;Node19 -->
<g id="edge26" class="edge"><title>Node19&#45;&gt;Node19</title>
<path fill="none" stroke="#9a32cd" stroke-dasharray="5,2" d="M685.048,-241.981C689.441,-241.187 692.5,-239.194 692.5,-236 692.5,-230.621 683.824,-228.646 674.706,-230.075"/>
<polygon fill="#9a32cd" stroke="#9a32cd" points="684.725,-238.48 674.706,-241.925 684.687,-245.479 684.725,-238.48"/>
<text text-anchor="middle" x="703.5" y="-239" font-family="Helvetica,sans-Serif" font-size="10.00"> prev</text>
<text text-anchor="middle" x="703.5" y="-228" font-family="Helvetica,sans-Serif" font-size="10.00">next</text>
</g>
<!-- Node20&#45;&gt;Node19 -->
<g id="edge27" class="edge"><title>Node20&#45;&gt;Node19</title>
<path fill="none" stroke="#9a32cd" stroke-dasharray="5,2" d="M724.18,-329.275C722.548,-311.274 717.781,-284.062 704,-265 696.68,-254.874 684.466,-247.528 674.761,-242.908"/>
<polygon fill="#9a32cd" stroke="#9a32cd" points="720.696,-329.623 724.854,-339.368 727.68,-329.157 720.696,-329.623"/>
<text text-anchor="middle" x="741" y="-290" font-family="Helvetica,sans-Serif" font-size="10.00"> context</text>
</g>
<!-- Node20&#45;&gt;Node20 -->
<g id="edge28" class="edge"><title>Node20&#45;&gt;Node20</title>
<path fill="none" stroke="#9a32cd" stroke-dasharray="5,2" d="M750.048,-357.796C754.441,-356.629 757.5,-353.697 757.5,-349 757.5,-341.09 748.824,-338.185 739.706,-340.286"/>
<polygon fill="#9a32cd" stroke="#9a32cd" points="749.734,-354.293 739.706,-357.714 749.678,-361.293 749.734,-354.293"/>
<text text-anchor="middle" x="771" y="-352" font-family="Helvetica,sans-Serif" font-size="10.00"> caller</text>
<text text-anchor="middle" x="771" y="-341" font-family="Helvetica,sans-Serif" font-size="10.00">callee</text>
</g>
<!-- Node21 -->
<g id="node21" class="node"><title>Node21</title>
<g id="a_node21"><a xlink:href="structAccounting.html" target="_top" xlink:title="Accounting">
<polygon fill="white" stroke="black" points="627.5,-339.5 627.5,-358.5 692.5,-358.5 692.5,-339.5 627.5,-339.5"/>
<text text-anchor="middle" x="660" y="-346.5" font-family="Helvetica,sans-Serif" font-size="10.00">Accounting</text>
</a>
</g>
</g>
<!-- Node21&#45;&gt;Node19 -->
<g id="edge30" class="edge"><title>Node21&#45;&gt;Node19</title>
<path fill="none" stroke="#9a32cd" stroke-dasharray="5,2" d="M660,-329.179C660,-304.865 660,-263.547 660,-245.67"/>
<polygon fill="#9a32cd" stroke="#9a32cd" points="656.5,-329.29 660,-339.29 663.5,-329.29 656.5,-329.29"/>
<text text-anchor="middle" x="681.5" y="-290" font-family="Helvetica,sans-Serif" font-size="10.00"> accounts</text>
</g>
<!-- Node22 -->
<g id="node22" class="node"><title>Node22</title>
<g id="a_node22"><a xlink:href="structthread.html" target="_top" xlink:title="thread">
<polygon fill="white" stroke="black" points="616,-78.5 616,-97.5 660,-97.5 660,-78.5 616,-78.5"/>
<text text-anchor="middle" x="638" y="-85.5" font-family="Helvetica,sans-Serif" font-size="10.00">thread</text>
</a>
</g>
</g>
<!-- Node22&#45;&gt;Node1 -->
<g id="edge35" class="edge"><title>Node22&#45;&gt;Node1</title>
<path fill="none" stroke="#9a32cd" stroke-dasharray="5,2" d="M629.34,-69.1234C623.203,-58.3943 613.941,-45.4279 602,-38 581.461,-25.2235 514.321,-17.0412 476.505,-13.3262"/>
<polygon fill="#9a32cd" stroke="#9a32cd" points="626.326,-70.911 634.086,-78.1247 632.518,-67.6464 626.326,-70.911"/>
<text text-anchor="middle" x="651" y="-52" font-family="Helvetica,sans-Serif" font-size="10.00"> vm_thread</text>
<text text-anchor="middle" x="651" y="-41" font-family="Helvetica,sans-Serif" font-size="10.00">clock_thread</text>
</g>
<!-- Node23&#45;&gt;Node1 -->
<g id="edge36" class="edge"><title>Node23&#45;&gt;Node1</title>
<path fill="none" stroke="#9a32cd" stroke-dasharray="5,2" d="M310.579,-68.4449C313.534,-58.0265 318.796,-45.6252 328,-38 354.979,-15.6494 396.472,-10.7534 423.429,-10.1844"/>
<polygon fill="#9a32cd" stroke="#9a32cd" points="307.143,-67.7656 308.266,-78.3008 313.958,-69.3648 307.143,-67.7656"/>
<text text-anchor="middle" x="366" y="-46.5" font-family="Helvetica,sans-Serif" font-size="10.00"> active_receptors</text>
</g>
</g>
</svg>
        <g id="navigator" transform="translate(0 0)" fill="#404254">
                <rect fill="#f2f5e9" fill-opacity="0.5" stroke="#606060" stroke-width=".5" x="0" y="0" width="60" height="60"/>
                <use id="zoomplus" xlink:href="#zoomPlus" x="17" y="9" onmousedown="handleZoom(evt,'in')"/>
                <use id="zoomminus" xlink:href="#zoomMin" x="42" y="9" onmousedown="handleZoom(evt,'out')"/>
                <use id="reset" xlink:href="#resetDef" x="30" y="36" onmousedown="handleReset()"/>
                <g id="arrowUp" xlink:href="#dirArrow" transform="translate(30 24)" onmousedown="handlePan(0,-1)">
                  <use xlink:href="#rim" fill="#404040">
                        <set attributeName="fill" to="#808080" begin="arrowUp.mouseover" end="arrowUp.mouseout"/>
                  </use>
                  <path fill="none" stroke="white" stroke-width="1.5" d="M0,-3.0v7 M-2.5,-0.5L0,-3.0L2.5,-0.5"/>
                </g>
                <g id="arrowRight" xlink:href="#dirArrow" transform="rotate(90) translate(36 -43)" onmousedown="handlePan(1,0)">
                  <use xlink:href="#rim" fill="#404040">
                        <set attributeName="fill" to="#808080" begin="arrowRight.mouseover" end="arrowRight.mouseout"/>
                  </use>
                  <path fill="none" stroke="white" stroke-width="1.5" d="M0,-3.0v7 M-2.5,-0.5L0,-3.0L2.5,-0.5"/>
                </g>
                <g id="arrowDown" xlink:href="#dirArrow" transform="rotate(180) translate(-30 -48)" onmousedown="handlePan(0,1)">
                  <use xlink:href="#rim" fill="#404040">
                        <set attributeName="fill" to="#808080" begin="arrowDown.mouseover" end="arrowDown.mouseout"/>
                  </use>
                  <path fill="none" stroke="white" stroke-width="1.5" d="M0,-3.0v7 M-2.5,-0.5L0,-3.0L2.5,-0.5"/>
                </g>
                <g id="arrowLeft" xlink:href="#dirArrow" transform="rotate(270) translate(-36 17)" onmousedown="handlePan(-1,0)">
                  <use xlink:href="#rim" fill="#404040">
                        <set attributeName="fill" to="#808080" begin="arrowLeft.mouseover" end="arrowLeft.mouseout"/>
                  </use>
                  <path fill="none" stroke="white" stroke-width="1.5" d="M0,-3.0v7 M-2.5,-0.5L0,-3.0L2.5,-0.5"/>
                </g>
        </g>
        <svg viewBox="0 0 15 15" width="100%" height="30px" preserveAspectRatio="xMaxYMin meet">
         <g id="arrow_out" transform="scale(0.3 0.3)">
          <a xlink:href="structVMHost__coll__graph_org.svg" target="_base">
           <rect id="button" ry="5" rx="5" y="6" x="6" height="38" width="38"
                fill="#f2f5e9" fill-opacity="0.5" stroke="#606060" stroke-width="1.0"/>
           <path id="arrow"
             d="M 11.500037,31.436501 C 11.940474,20.09759 22.043105,11.32322 32.158766,21.979434 L 37.068811,17.246167 C 37.068811,17.246167 37.088388,32 37.088388,32 L 22.160133,31.978069 C 22.160133,31.978069 26.997745,27.140456 26.997745,27.140456 C 18.528582,18.264221 13.291696,25.230495 11.500037,31.436501 z"
             style="fill:#404040;"/>
          </a>
         </g>
        </svg>
</svg>
