<?xml version="1.0" encoding="UTF-8" standalone="no"?>
<!DOCTYPE svg PUBLIC "-//W3C//DTD SVG 1.1//EN"
 "http://www.w3.org/Graphics/SVG/1.1/DTD/svg11.dtd">
<!-- Generated by graphviz version 2.38.0 (20140413.2041)
 -->
<!-- Title: Q Pages: 1 -->
<!--zoomable 624 -->
<svg id="main" version="1.1" xmlns="http://www.w3.org/2000/svg" xmlns:xlink="http://www.w3.org/1999/xlink" xml:space="preserve" onload="init(evt)">
<style type="text/css"><![CDATA[
.edge:hover path { stroke: red; }
.edge:hover polygon { stroke: red; fill: red; }
]]></style>
<script type="text/javascript"><![CDATA[
var edges = document.getElementsByTagName('g');
if (edges && edges.length) {
  for (var i=0;i<edges.length;i++) {
    if (edges[i].id.substr(0,4)=='edge') {
      edges[i].setAttribute('class','edge');
    }
  }
}
]]></script>
        <defs>
                <circle id="rim" cx="0" cy="0" r="7"/>
                <circle id="rim2" cx="0" cy="0" r="3.5"/>
                <g id="zoomPlus">
                        <use xlink:href="#rim" fill="#404040">
                                <set attributeName="fill" to="#808080" begin="zoomplus.mouseover" end="zoomplus.mouseout"/>
                        </use>
                        <path d="M-4,0h8M0,-4v8" fill="none" stroke="white" stroke-width="1.5" pointer-events="none"/>
                </g>
                <g id="zoomMin">
                        <use xlink:href="#rim" fill="#404040">
                                <set attributeName="fill" to="#808080" begin="zoomminus.mouseover" end="zoomminus.mouseout"/>
                        </use>
                        <path d="M-4,0h8" fill="none" stroke="white" stroke-width="1.5" pointer-events="none"/>
                </g>
                <g id="dirArrow">
                        <path fill="none" stroke="white" stroke-width="1.5" d="M0,-3.0v7 M-2.5,-0.5L0,-3.0L2.5,-0.5"/>
                </g>
               <g id="resetDef">
                       <use xlink:href="#rim2" fill="#404040">
                               <set attributeName="fill" to="#808080" begin="reset.mouseover" end="reset.mouseout"/>
                       </use>
               </g>
        </defs>

<script type="text/javascript">
var viewWidth = 476;
var viewHeight = 624;
var sectionId = 'dynsection-0';
</script>
<script xlink:href="svgpan.js"/>
<svg id="graph" class="graph">
<g id="viewport">
<title>Q</title>
<polygon fill="white" stroke="none" points="-4,4 -4,-620 471.932,-620 471.932,4 -4,4"/>
<!-- Node1 -->
<g id="node1" class="node"><title>Node1</title>
<polygon fill="#bfbfbf" stroke="black" points="241.432,-67.5 241.432,-86.5 270.432,-86.5 270.432,-67.5 241.432,-67.5"/>
<text text-anchor="middle" x="255.932" y="-74.5" font-family="Helvetica,sans-Serif" font-size="10.00">Q</text>
</g>
<!-- Node11 -->
<g id="node11" class="node"><title>Node11</title>
<g id="a_node11"><a xlink:href="structReceptor.html" target="_top" xlink:title="Receptor">
<polygon fill="white" stroke="black" points="281.932,-0.5 281.932,-19.5 337.932,-19.5 337.932,-0.5 281.932,-0.5"/>
<text text-anchor="middle" x="309.932" y="-7.5" font-family="Helvetica,sans-Serif" font-size="10.00">Receptor</text>
</a>
</g>
</g>
<!-- Node1&#45;&gt;Node11 -->
<g id="edge20" class="edge"><title>Node1&#45;&gt;Node11</title>
<path fill="none" stroke="#9a32cd" stroke-dasharray="5,2" d="M258.544,-57.2119C260.152,-50.6532 262.747,-43.5512 266.932,-38 272.875,-30.1163 281.848,-23.9629 290.063,-19.5347"/>
<polygon fill="#9a32cd" stroke="#9a32cd" points="255.042,-56.8966 256.662,-67.367 261.925,-58.1721 255.042,-56.8966"/>
<text text-anchor="middle" x="271.432" y="-41" font-family="Helvetica,sans-Serif" font-size="10.00"> q</text>
</g>
<!-- Node2 -->
<g id="node2" class="node"><title>Node2</title>
<g id="a_node2"><a xlink:href="structQe.html" target="_top" xlink:title="Qe">
<polygon fill="white" stroke="black" points="108.432,-157.5 108.432,-176.5 137.432,-176.5 137.432,-157.5 108.432,-157.5"/>
<text text-anchor="middle" x="122.932" y="-164.5" font-family="Helvetica,sans-Serif" font-size="10.00">Qe</text>
</a>
</g>
</g>
<!-- Node2&#45;&gt;Node1 -->
<g id="edge1" class="edge"><title>Node2&#45;&gt;Node1</title>
<path fill="none" stroke="#9a32cd" stroke-dasharray="5,2" d="M144.807,-151.526C172.653,-133.102 219.88,-101.854 242.746,-86.7241"/>
<polygon fill="#9a32cd" stroke="#9a32cd" points="142.579,-148.804 136.171,-157.241 146.442,-154.641 142.579,-148.804"/>
<text text-anchor="middle" x="235.932" y="-130" font-family="Helvetica,sans-Serif" font-size="10.00"> active</text>
<text text-anchor="middle" x="235.932" y="-119" font-family="Helvetica,sans-Serif" font-size="10.00">blocked</text>
<text text-anchor="middle" x="235.932" y="-108" font-family="Helvetica,sans-Serif" font-size="10.00">completed</text>
</g>
<!-- Node2&#45;&gt;Node2 -->
<g id="edge2" class="edge"><title>Node2&#45;&gt;Node2</title>
<path fill="none" stroke="#9a32cd" stroke-dasharray="5,2" d="M147.979,-174.74C152.373,-173.713 155.432,-171.133 155.432,-167 155.432,-160.039 146.755,-157.483 137.638,-159.332"/>
<polygon fill="#9a32cd" stroke="#9a32cd" points="147.663,-171.238 137.638,-174.668 147.613,-178.238 147.663,-171.238"/>
<text text-anchor="middle" x="166.432" y="-170" font-family="Helvetica,sans-Serif" font-size="10.00"> prev</text>
<text text-anchor="middle" x="166.432" y="-159" font-family="Helvetica,sans-Serif" font-size="10.00">next</text>
</g>
<!-- Node3 -->
<g id="node3" class="node"><title>Node3</title>
<g id="a_node3"><a xlink:href="structR.html" target="_top" xlink:title="R">
<polygon fill="white" stroke="black" points="107.432,-292.5 107.432,-311.5 136.432,-311.5 136.432,-292.5 107.432,-292.5"/>
<text text-anchor="middle" x="121.932" y="-299.5" font-family="Helvetica,sans-Serif" font-size="10.00">R</text>
</a>
</g>
</g>
<!-- Node3&#45;&gt;Node2 -->
<g id="edge3" class="edge"><title>Node3&#45;&gt;Node2</title>
<path fill="none" stroke="#9a32cd" stroke-dasharray="5,2" d="M122.074,-282.133C122.294,-252.884 122.708,-197.762 122.867,-176.586"/>
<polygon fill="#9a32cd" stroke="#9a32cd" points="118.573,-282.247 121.997,-292.273 125.573,-282.3 118.573,-282.247"/>
<text text-anchor="middle" x="140.932" y="-232" font-family="Helvetica,sans-Serif" font-size="10.00"> context</text>
</g>
<!-- Node3&#45;&gt;Node3 -->
<g id="edge4" class="edge"><title>Node3&#45;&gt;Node3</title>
<path fill="none" stroke="#9a32cd" stroke-dasharray="5,2" d="M146.979,-307.981C151.373,-307.187 154.432,-305.194 154.432,-302 154.432,-296.621 145.755,-294.646 136.638,-296.075"/>
<polygon fill="#9a32cd" stroke="#9a32cd" points="146.657,-304.48 136.638,-307.925 146.619,-311.479 146.657,-304.48"/>
<text text-anchor="middle" x="167.932" y="-305" font-family="Helvetica,sans-Serif" font-size="10.00"> caller</text>
<text text-anchor="middle" x="167.932" y="-294" font-family="Helvetica,sans-Serif" font-size="10.00">callee</text>
</g>
<!-- Node4 -->
<g id="node4" class="node"><title>Node4</title>
<g id="a_node4"><a xlink:href="structConversationState.html" target="_top" xlink:title="ConversationState">
<polygon fill="white" stroke="black" points="72.9317,-372.5 72.9317,-391.5 170.932,-391.5 170.932,-372.5 72.9317,-372.5"/>
<text text-anchor="middle" x="121.932" y="-379.5" font-family="Helvetica,sans-Serif" font-size="10.00">ConversationState</text>
</a>
</g>
</g>
<!-- Node4&#45;&gt;Node3 -->
<g id="edge5" class="edge"><title>Node4&#45;&gt;Node3</title>
<path fill="none" stroke="#9a32cd" stroke-dasharray="5,2" d="M121.932,-362.072C121.932,-346.145 121.932,-324.078 121.932,-311.924"/>
<polygon fill="#9a32cd" stroke="#9a32cd" points="118.432,-362.355 121.932,-372.355 125.432,-362.355 118.432,-362.355"/>
<text text-anchor="middle" x="151.432" y="-334" font-family="Helvetica,sans-Serif" font-size="10.00"> conversation</text>
</g>
<!-- Node4&#45;&gt;Node4 -->
<g id="edge6" class="edge"><title>Node4&#45;&gt;Node4</title>
<path fill="none" stroke="#9a32cd" stroke-dasharray="5,2" d="M180.896,-388.393C185.848,-387.021 188.932,-384.89 188.932,-382 188.932,-377.488 181.418,-374.827 171.012,-374.016"/>
<polygon fill="#9a32cd" stroke="#9a32cd" points="180.329,-384.939 171.012,-389.984 181.441,-391.85 180.329,-384.939"/>
<text text-anchor="middle" x="199.932" y="-379.5" font-family="Helvetica,sans-Serif" font-size="10.00"> next</text>
</g>
<!-- Node5 -->
<g id="node5" class="node"><title>Node5</title>
<g id="a_node5"><a xlink:href="structT.html" target="_top" xlink:title="T">
<polygon fill="white" stroke="black" points="209.432,-462.5 209.432,-481.5 238.432,-481.5 238.432,-462.5 209.432,-462.5"/>
<text text-anchor="middle" x="223.932" y="-469.5" font-family="Helvetica,sans-Serif" font-size="10.00">T</text>
</a>
</g>
</g>
<!-- Node5&#45;&gt;Node3 -->
<g id="edge13" class="edge"><title>Node5&#45;&gt;Node3</title>
<path fill="none" stroke="#9a32cd" stroke-dasharray="5,2" d="M199.301,-467.283C147.32,-458.859 29.4131,-436.486 7.93173,-404 -2.8544,-387.688 -2.34923,-376.635 7.93173,-360 13.632,-350.777 77.4285,-322.264 107.02,-309.406"/>
<polygon fill="#9a32cd" stroke="#9a32cd" points="198.911,-470.765 209.334,-468.868 200.003,-463.851 198.911,-470.765"/>
<text text-anchor="middle" x="35.9317" y="-396" font-family="Helvetica,sans-Serif" font-size="10.00"> run_tree</text>
<text text-anchor="middle" x="35.9317" y="-385" font-family="Helvetica,sans-Serif" font-size="10.00">node_pointer</text>
<text text-anchor="middle" x="35.9317" y="-374" font-family="Helvetica,sans-Serif" font-size="10.00">parent</text>
<text text-anchor="middle" x="35.9317" y="-363" font-family="Helvetica,sans-Serif" font-size="10.00">sem_map</text>
</g>
<!-- Node5&#45;&gt;Node4 -->
<g id="edge7" class="edge"><title>Node5&#45;&gt;Node4</title>
<path fill="none" stroke="#9a32cd" stroke-dasharray="5,2" d="M199.294,-468.632C169.425,-465.192 121.727,-457.679 110.932,-444 98.9317,-428.795 109.245,-404.815 116.426,-391.916"/>
<polygon fill="#9a32cd" stroke="#9a32cd" points="199.074,-472.128 209.391,-469.719 199.823,-465.168 199.074,-472.128"/>
<text text-anchor="middle" x="149.932" y="-436" font-family="Helvetica,sans-Serif" font-size="10.00"> converse_pointer</text>
<text text-anchor="middle" x="149.932" y="-425" font-family="Helvetica,sans-Serif" font-size="10.00">cid</text>
</g>
<!-- Node6 -->
<g id="node6" class="node"><title>Node6</title>
<g id="a_node6"><a xlink:href="structTstruct.html" target="_top" xlink:title="Tstruct">
<polygon fill="white" stroke="black" points="229.432,-372.5 229.432,-391.5 276.432,-391.5 276.432,-372.5 229.432,-372.5"/>
<text text-anchor="middle" x="252.932" y="-379.5" font-family="Helvetica,sans-Serif" font-size="10.00">Tstruct</text>
</a>
</g>
</g>
<!-- Node5&#45;&gt;Node6 -->
<g id="edge9" class="edge"><title>Node5&#45;&gt;Node6</title>
<path fill="none" stroke="#9a32cd" stroke-dasharray="5,2" d="M203.488,-455.294C200.411,-451.927 197.685,-448.125 195.932,-444 192.108,-435.001 191.37,-430.648 195.932,-422 197.155,-419.68 223.342,-402.307 239.791,-391.546"/>
<polygon fill="#9a32cd" stroke="#9a32cd" points="201.312,-458.051 211.011,-462.315 206.088,-452.933 201.312,-458.051"/>
<text text-anchor="middle" x="212.932" y="-436" font-family="Helvetica,sans-Serif" font-size="10.00"> parent</text>
<text text-anchor="middle" x="212.932" y="-425" font-family="Helvetica,sans-Serif" font-size="10.00">children</text>
</g>
<!-- Node5&#45;&gt;Node11 -->
<g id="edge21" class="edge"><title>Node5&#45;&gt;Node11</title>
<path fill="none" stroke="#9a32cd" stroke-dasharray="5,2" d="M248.495,-465.168C261.097,-461.079 275.87,-454.429 285.932,-444 306.16,-423.033 309.932,-412.134 309.932,-383 309.932,-383 309.932,-383 309.932,-76 309.932,-55.9132 309.932,-32.3347 309.932,-19.8314"/>
<polygon fill="#9a32cd" stroke="#9a32cd" points="247.21,-461.896 238.571,-468.028 249.149,-468.622 247.21,-461.896"/>
<text text-anchor="middle" x="353.932" y="-265" font-family="Helvetica,sans-Serif" font-size="10.00"> pending_responses</text>
<text text-anchor="middle" x="353.932" y="-254" font-family="Helvetica,sans-Serif" font-size="10.00">root</text>
<text text-anchor="middle" x="353.932" y="-243" font-family="Helvetica,sans-Serif" font-size="10.00">conversations</text>
<text text-anchor="middle" x="353.932" y="-232" font-family="Helvetica,sans-Serif" font-size="10.00">pending_signals</text>
<text text-anchor="middle" x="353.932" y="-221" font-family="Helvetica,sans-Serif" font-size="10.00">instances</text>
<text text-anchor="middle" x="353.932" y="-210" font-family="Helvetica,sans-Serif" font-size="10.00">flux</text>
<text text-anchor="middle" x="353.932" y="-199" font-family="Helvetica,sans-Serif" font-size="10.00">edge</text>
</g>
<!-- Node14 -->
<g id="node14" class="node"><title>Node14</title>
<g id="a_node14"><a xlink:href="structContextStore.html" target="_top" xlink:title="ContextStore">
<polygon fill="white" stroke="black" points="352.932,-372.5 352.932,-391.5 426.932,-391.5 426.932,-372.5 352.932,-372.5"/>
<text text-anchor="middle" x="389.932" y="-379.5" font-family="Helvetica,sans-Serif" font-size="10.00">ContextStore</text>
</a>
</g>
</g>
<!-- Node5&#45;&gt;Node14 -->
<g id="edge19" class="edge"><title>Node5&#45;&gt;Node14</title>
<path fill="none" stroke="#9a32cd" stroke-dasharray="5,2" d="M248.72,-467.709C269.755,-464.143 300.209,-457.111 323.932,-444 348.786,-430.264 371.659,-405.228 382.806,-391.901"/>
<polygon fill="#9a32cd" stroke="#9a32cd" points="248.008,-464.277 238.664,-469.272 249.083,-471.194 248.008,-464.277"/>
<text text-anchor="middle" x="377.932" y="-430.5" font-family="Helvetica,sans-Serif" font-size="10.00"> definitions</text>
</g>
<!-- Node6&#45;&gt;Node5 -->
<g id="edge8" class="edge"><title>Node6&#45;&gt;Node5</title>
<path fill="none" stroke="#9a32cd" stroke-dasharray="5,2" d="M246.852,-401.449C240.704,-420.105 231.465,-448.14 226.818,-462.241"/>
<polygon fill="#9a32cd" stroke="#9a32cd" points="250.251,-402.317 250.057,-391.724 243.603,-400.126 250.251,-402.317"/>
<text text-anchor="middle" x="260.932" y="-430.5" font-family="Helvetica,sans-Serif" font-size="10.00"> structure</text>
</g>
<!-- Node7 -->
<g id="node7" class="node"><title>Node7</title>
<g id="a_node7"><a xlink:href="structTcontext.html" target="_top" xlink:title="Tcontext">
<polygon fill="white" stroke="black" points="167.432,-529.5 167.432,-548.5 222.432,-548.5 222.432,-529.5 167.432,-529.5"/>
<text text-anchor="middle" x="194.932" y="-536.5" font-family="Helvetica,sans-Serif" font-size="10.00">Tcontext</text>
</a>
</g>
</g>
<!-- Node7&#45;&gt;Node5 -->
<g id="edge10" class="edge"><title>Node7&#45;&gt;Node5</title>
<path fill="none" stroke="#9a32cd" stroke-dasharray="5,2" d="M197.859,-518.989C199.227,-512.757 201.182,-505.918 203.932,-500 206.98,-493.44 211.768,-486.901 215.895,-481.901"/>
<polygon fill="#9a32cd" stroke="#9a32cd" points="194.344,-518.752 195.984,-529.219 201.229,-520.014 194.344,-518.752"/>
<text text-anchor="middle" x="221.932" y="-503" font-family="Helvetica,sans-Serif" font-size="10.00"> context</text>
</g>
<!-- Node8 -->
<g id="node8" class="node"><title>Node8</title>
<g id="a_node8"><a xlink:href="structTcontents.html" target="_top" xlink:title="Tcontents">
<polygon fill="white" stroke="black" points="240.932,-529.5 240.932,-548.5 300.932,-548.5 300.932,-529.5 240.932,-529.5"/>
<text text-anchor="middle" x="270.932" y="-536.5" font-family="Helvetica,sans-Serif" font-size="10.00">Tcontents</text>
</a>
</g>
</g>
<!-- Node8&#45;&gt;Node5 -->
<g id="edge11" class="edge"><title>Node8&#45;&gt;Node5</title>
<path fill="none" stroke="#9a32cd" stroke-dasharray="5,2" d="M258.57,-520.904C249.437,-508.273 237.384,-491.604 230.17,-481.627"/>
<polygon fill="#9a32cd" stroke="#9a32cd" points="255.897,-523.181 264.593,-529.234 261.57,-519.079 255.897,-523.181"/>
<text text-anchor="middle" x="271.432" y="-503" font-family="Helvetica,sans-Serif" font-size="10.00"> contents</text>
</g>
<!-- Node9 -->
<g id="node9" class="node"><title>Node9</title>
<g id="a_node9"><a xlink:href="structSemanticID.html" target="_top" xlink:title="SemanticID">
<polygon fill="white" stroke="black" points="236.932,-596.5 236.932,-615.5 304.932,-615.5 304.932,-596.5 236.932,-596.5"/>
<text text-anchor="middle" x="270.932" y="-603.5" font-family="Helvetica,sans-Serif" font-size="10.00">SemanticID</text>
</a>
</g>
</g>
<!-- Node9&#45;&gt;Node8 -->
<g id="edge12" class="edge"><title>Node9&#45;&gt;Node8</title>
<path fill="none" stroke="#9a32cd" stroke-dasharray="5,2" d="M270.932,-586.037C270.932,-573.67 270.932,-558.12 270.932,-548.627"/>
<polygon fill="#9a32cd" stroke="#9a32cd" points="267.432,-586.234 270.932,-596.234 274.432,-586.234 267.432,-586.234"/>
<text text-anchor="middle" x="288.432" y="-570" font-family="Helvetica,sans-Serif" font-size="10.00"> symbol</text>
</g>
<!-- Node10 -->
<g id="node10" class="node"><title>Node10</title>
<g id="a_node10"><a xlink:href="structAccounting.html" target="_top" xlink:title="Accounting">
<polygon fill="white" stroke="black" points="24.4317,-292.5 24.4317,-311.5 89.4317,-311.5 89.4317,-292.5 24.4317,-292.5"/>
<text text-anchor="middle" x="56.9317" y="-299.5" font-family="Helvetica,sans-Serif" font-size="10.00">Accounting</text>
</a>
</g>
</g>
<!-- Node10&#45;&gt;Node2 -->
<g id="edge14" class="edge"><title>Node10&#45;&gt;Node2</title>
<path fill="none" stroke="#9a32cd" stroke-dasharray="5,2" d="M55.8504,-282.298C55.4875,-259.83 57.9541,-221.928 75.9317,-196 83.7249,-184.76 97.6219,-177.306 108.29,-172.935"/>
<polygon fill="#9a32cd" stroke="#9a32cd" points="52.3603,-282.633 56.2309,-292.496 59.3554,-282.372 52.3603,-282.633"/>
<text text-anchor="middle" x="97.4317" y="-232" font-family="Helvetica,sans-Serif" font-size="10.00"> accounts</text>
</g>
<!-- Node11&#45;&gt;Node1 -->
<g id="edge15" class="edge"><title>Node11&#45;&gt;Node1</title>
<path fill="none" stroke="#9a32cd" stroke-dasharray="5,2" d="M296.178,-27.5556C285.682,-40.1899 271.635,-57.0979 263.214,-67.2338"/>
<polygon fill="#9a32cd" stroke="#9a32cd" points="299.066,-29.5558 302.764,-19.6273 293.682,-25.0826 299.066,-29.5558"/>
<text text-anchor="middle" x="290.432" y="-41" font-family="Helvetica,sans-Serif" font-size="10.00"> r</text>
</g>
<!-- Node12 -->
<g id="node12" class="node"><title>Node12</title>
<g id="a_node12"><a xlink:href="structReceptorAddress.html" target="_top" xlink:title="ReceptorAddress">
<polygon fill="white" stroke="black" points="375.932,-67.5 375.932,-86.5 467.932,-86.5 467.932,-67.5 375.932,-67.5"/>
<text text-anchor="middle" x="421.932" y="-74.5" font-family="Helvetica,sans-Serif" font-size="10.00">ReceptorAddress</text>
</a>
</g>
</g>
<!-- Node12&#45;&gt;Node11 -->
<g id="edge16" class="edge"><title>Node12&#45;&gt;Node11</title>
<path fill="none" stroke="#9a32cd" stroke-dasharray="5,2" d="M400.408,-61.7398C389.098,-54.4075 374.921,-45.4674 361.932,-38 350.644,-31.5108 337.644,-24.7608 327.466,-19.6331"/>
<polygon fill="#9a32cd" stroke="#9a32cd" points="398.501,-64.6747 408.787,-67.2165 402.331,-58.8154 398.501,-64.6747"/>
<text text-anchor="middle" x="389.932" y="-41" font-family="Helvetica,sans-Serif" font-size="10.00"> addr</text>
</g>
<!-- Node13 -->
<g id="node13" class="node"><title>Node13</title>
<g id="a_node13"><a xlink:href="structSemTable.html" target="_top" xlink:title="SemTable">
<polygon fill="white" stroke="black" points="403.432,-225 403.432,-244 464.432,-244 464.432,-225 403.432,-225"/>
<text text-anchor="middle" x="433.932" y="-232" font-family="Helvetica,sans-Serif" font-size="10.00">SemTable</text>
</a>
</g>
</g>
<!-- Node13&#45;&gt;Node11 -->
<g id="edge17" class="edge"><title>Node13&#45;&gt;Node11</title>
<path fill="none" stroke="#9a32cd" stroke-dasharray="5,2" d="M424.124,-215.901C399.085,-170.972 333.466,-53.228 314.894,-19.9038"/>
<polygon fill="#9a32cd" stroke="#9a32cd" points="421.145,-217.746 429.071,-224.778 427.26,-214.339 421.145,-217.746"/>
<text text-anchor="middle" x="391.932" y="-119" font-family="Helvetica,sans-Serif" font-size="10.00"> sem</text>
</g>
<!-- Node14&#45;&gt;Node13 -->
<g id="edge18" class="edge"><title>Node14&#45;&gt;Node13</title>
<path fill="none" stroke="#9a32cd" stroke-dasharray="5,2" d="M395.496,-362.601C405.052,-330.999 424.237,-267.559 431.269,-244.305"/>
<polygon fill="#9a32cd" stroke="#9a32cd" points="392.097,-361.749 392.552,-372.334 398.797,-363.775 392.097,-361.749"/>
<text text-anchor="middle" x="420.432" y="-334" font-family="Helvetica,sans-Serif" font-size="10.00"> stores</text>
</g>
</g>
</svg>
        <g id="navigator" transform="translate(0 0)" fill="#404254">
                <rect fill="#f2f5e9" fill-opacity="0.5" stroke="#606060" stroke-width=".5" x="0" y="0" width="60" height="60"/>
                <use id="zoomplus" xlink:href="#zoomPlus" x="17" y="9" onmousedown="handleZoom(evt,'in')"/>
                <use id="zoomminus" xlink:href="#zoomMin" x="42" y="9" onmousedown="handleZoom(evt,'out')"/>
                <use id="reset" xlink:href="#resetDef" x="30" y="36" onmousedown="handleReset()"/>
                <g id="arrowUp" xlink:href="#dirArrow" transform="translate(30 24)" onmousedown="handlePan(0,-1)">
                  <use xlink:href="#rim" fill="#404040">
                        <set attributeName="fill" to="#808080" begin="arrowUp.mouseover" end="arrowUp.mouseout"/>
                  </use>
                  <path fill="none" stroke="white" stroke-width="1.5" d="M0,-3.0v7 M-2.5,-0.5L0,-3.0L2.5,-0.5"/>
                </g>
                <g id="arrowRight" xlink:href="#dirArrow" transform="rotate(90) translate(36 -43)" onmousedown="handlePan(1,0)">
                  <use xlink:href="#rim" fill="#404040">
                        <set attributeName="fill" to="#808080" begin="arrowRight.mouseover" end="arrowRight.mouseout"/>
                  </use>
                  <path fill="none" stroke="white" stroke-width="1.5" d="M0,-3.0v7 M-2.5,-0.5L0,-3.0L2.5,-0.5"/>
                </g>
                <g id="arrowDown" xlink:href="#dirArrow" transform="rotate(180) translate(-30 -48)" onmousedown="handlePan(0,1)">
                  <use xlink:href="#rim" fill="#404040">
                        <set attributeName="fill" to="#808080" begin="arrowDown.mouseover" end="arrowDown.mouseout"/>
                  </use>
                  <path fill="none" stroke="white" stroke-width="1.5" d="M0,-3.0v7 M-2.5,-0.5L0,-3.0L2.5,-0.5"/>
                </g>
                <g id="arrowLeft" xlink:href="#dirArrow" transform="rotate(270) translate(-36 17)" onmousedown="handlePan(-1,0)">
                  <use xlink:href="#rim" fill="#404040">
                        <set attributeName="fill" to="#808080" begin="arrowLeft.mouseover" end="arrowLeft.mouseout"/>
                  </use>
                  <path fill="none" stroke="white" stroke-width="1.5" d="M0,-3.0v7 M-2.5,-0.5L0,-3.0L2.5,-0.5"/>
                </g>
        </g>
        <svg viewBox="0 0 15 15" width="100%" height="30px" preserveAspectRatio="xMaxYMin meet">
         <g id="arrow_out" transform="scale(0.3 0.3)">
          <a xlink:href="structQ__coll__graph_org.svg" target="_base">
           <rect id="button" ry="5" rx="5" y="6" x="6" height="38" width="38"
                fill="#f2f5e9" fill-opacity="0.5" stroke="#606060" stroke-width="1.0"/>
           <path id="arrow"
             d="M 11.500037,31.436501 C 11.940474,20.09759 22.043105,11.32322 32.158766,21.979434 L 37.068811,17.246167 C 37.068811,17.246167 37.088388,32 37.088388,32 L 22.160133,31.978069 C 22.160133,31.978069 26.997745,27.140456 26.997745,27.140456 C 18.528582,18.264221 13.291696,25.230495 11.500037,31.436501 z"
             style="fill:#404040;"/>
          </a>
         </g>
        </svg>
</svg>
