<?xml version="1.0" encoding="UTF-8" standalone="no"?>
<!DOCTYPE svg PUBLIC "-//W3C//DTD SVG 1.1//EN"
 "http://www.w3.org/Graphics/SVG/1.1/DTD/svg11.dtd">
<!-- Generated by graphviz version 2.38.0 (20140413.2041)
 -->
<!-- Title: Q Pages: 1 -->
<!--zoomable 502 -->
<svg id="main" version="1.1" xmlns="http://www.w3.org/2000/svg" xmlns:xlink="http://www.w3.org/1999/xlink" xml:space="preserve" onload="init(evt)">
<style type="text/css"><![CDATA[
.edge:hover path { stroke: red; }
.edge:hover polygon { stroke: red; fill: red; }
]]></style>
<script type="text/javascript"><![CDATA[
var edges = document.getElementsByTagName('g');
if (edges && edges.length) {
  for (var i=0;i<edges.length;i++) {
    if (edges[i].id.substr(0,4)=='edge') {
      edges[i].setAttribute('class','edge');
    }
  }
}
]]></script>
        <defs>
                <circle id="rim" cx="0" cy="0" r="7"/>
                <circle id="rim2" cx="0" cy="0" r="3.5"/>
                <g id="zoomPlus">
                        <use xlink:href="#rim" fill="#404040">
                                <set attributeName="fill" to="#808080" begin="zoomplus.mouseover" end="zoomplus.mouseout"/>
                        </use>
                        <path d="M-4,0h8M0,-4v8" fill="none" stroke="white" stroke-width="1.5" pointer-events="none"/>
                </g>
                <g id="zoomMin">
                        <use xlink:href="#rim" fill="#404040">
                                <set attributeName="fill" to="#808080" begin="zoomminus.mouseover" end="zoomminus.mouseout"/>
                        </use>
                        <path d="M-4,0h8" fill="none" stroke="white" stroke-width="1.5" pointer-events="none"/>
                </g>
                <g id="dirArrow">
                        <path fill="none" stroke="white" stroke-width="1.5" d="M0,-3.0v7 M-2.5,-0.5L0,-3.0L2.5,-0.5"/>
                </g>
               <g id="resetDef">
                       <use xlink:href="#rim2" fill="#404040">
                               <set attributeName="fill" to="#808080" begin="reset.mouseover" end="reset.mouseout"/>
                       </use>
               </g>
        </defs>

<script type="text/javascript">
var viewWidth = 775;
var viewHeight = 502;
var sectionId = 'dynsection-0';
</script>
<script xlink:href="svgpan.js"/>
<svg id="graph" class="graph">
<g id="viewport">
<title>Q</title>
<polygon fill="white" stroke="none" points="-4,4 -4,-498 770.5,-498 770.5,4 -4,4"/>
<!-- Node1 -->
<g id="node1" class="node"><title>Node1</title>
<polygon fill="#bfbfbf" stroke="black" points="175.5,-67.5 175.5,-86.5 204.5,-86.5 204.5,-67.5 175.5,-67.5"/>
<text text-anchor="middle" x="190" y="-74.5" font-family="Helvetica,sans-Serif" font-size="10.00">Q</text>
</g>
<!-- Node10 -->
<g id="node10" class="node"><title>Node10</title>
<g id="a_node10"><a xlink:href="structReceptor.html" target="_top" xlink:title="Receptor">
<polygon fill="white" stroke="black" points="225,-0.5 225,-19.5 281,-19.5 281,-0.5 225,-0.5"/>
<text text-anchor="middle" x="253" y="-7.5" font-family="Helvetica,sans-Serif" font-size="10.00">Receptor</text>
</a>
</g>
</g>
<!-- Node1&#45;&gt;Node10 -->
<g id="edge28" class="edge"><title>Node1&#45;&gt;Node10</title>
<path fill="none" stroke="#9a32cd" stroke-dasharray="5,2" d="M194.478,-57.5378C196.788,-50.8291 200.166,-43.5425 205,-38 211.913,-30.0735 221.747,-23.9738 230.716,-19.5944"/>
<polygon fill="#9a32cd" stroke="#9a32cd" points="191.079,-56.6923 191.673,-67.2704 197.806,-58.6306 191.079,-56.6923"/>
<text text-anchor="middle" x="209.5" y="-41" font-family="Helvetica,sans-Serif" font-size="10.00"> q</text>
</g>
<!-- Node2 -->
<g id="node2" class="node"><title>Node2</title>
<g id="a_node2"><a xlink:href="structQe.html" target="_top" xlink:title="Qe">
<polygon fill="white" stroke="black" points="175.5,-168.5 175.5,-187.5 204.5,-187.5 204.5,-168.5 175.5,-168.5"/>
<text text-anchor="middle" x="190" y="-175.5" font-family="Helvetica,sans-Serif" font-size="10.00">Qe</text>
</a>
</g>
</g>
<!-- Node2&#45;&gt;Node1 -->
<g id="edge1" class="edge"><title>Node2&#45;&gt;Node1</title>
<path fill="none" stroke="#9a32cd" stroke-dasharray="5,2" d="M190,-158.029C190,-136.543 190,-102.467 190,-86.6245"/>
<polygon fill="#9a32cd" stroke="#9a32cd" points="186.5,-158.214 190,-168.214 193.5,-158.214 186.5,-158.214"/>
<text text-anchor="middle" x="213" y="-130" font-family="Helvetica,sans-Serif" font-size="10.00"> active</text>
<text text-anchor="middle" x="213" y="-119" font-family="Helvetica,sans-Serif" font-size="10.00">blocked</text>
<text text-anchor="middle" x="213" y="-108" font-family="Helvetica,sans-Serif" font-size="10.00">completed</text>
</g>
<!-- Node2&#45;&gt;Node2 -->
<g id="edge2" class="edge"><title>Node2&#45;&gt;Node2</title>
<path fill="none" stroke="#9a32cd" stroke-dasharray="5,2" d="M215.048,-185.74C219.441,-184.713 222.5,-182.133 222.5,-178 222.5,-171.039 213.824,-168.483 204.706,-170.332"/>
<polygon fill="#9a32cd" stroke="#9a32cd" points="214.731,-182.238 204.706,-185.668 214.682,-189.238 214.731,-182.238"/>
<text text-anchor="middle" x="233.5" y="-181" font-family="Helvetica,sans-Serif" font-size="10.00"> prev</text>
<text text-anchor="middle" x="233.5" y="-170" font-family="Helvetica,sans-Serif" font-size="10.00">next</text>
</g>
<!-- Node3 -->
<g id="node3" class="node"><title>Node3</title>
<g id="a_node3"><a xlink:href="structR.html" target="_top" xlink:title="R">
<polygon fill="white" stroke="black" points="240.5,-248.5 240.5,-267.5 269.5,-267.5 269.5,-248.5 240.5,-248.5"/>
<text text-anchor="middle" x="255" y="-255.5" font-family="Helvetica,sans-Serif" font-size="10.00">R</text>
</a>
</g>
</g>
<!-- Node3&#45;&gt;Node2 -->
<g id="edge3" class="edge"><title>Node3&#45;&gt;Node2</title>
<path fill="none" stroke="#9a32cd" stroke-dasharray="5,2" d="M241.122,-240.346C227.759,-224.311 208.057,-200.668 197.437,-187.924"/>
<polygon fill="#9a32cd" stroke="#9a32cd" points="238.705,-242.913 247.796,-248.355 244.082,-238.432 238.705,-242.913"/>
<text text-anchor="middle" x="249" y="-221" font-family="Helvetica,sans-Serif" font-size="10.00"> context</text>
</g>
<!-- Node3&#45;&gt;Node3 -->
<g id="edge4" class="edge"><title>Node3&#45;&gt;Node3</title>
<path fill="none" stroke="#9a32cd" stroke-dasharray="5,2" d="M280.048,-263.981C284.441,-263.187 287.5,-261.194 287.5,-258 287.5,-252.621 278.824,-250.646 269.706,-252.075"/>
<polygon fill="#9a32cd" stroke="#9a32cd" points="279.725,-260.48 269.706,-263.925 279.687,-267.479 279.725,-260.48"/>
<text text-anchor="middle" x="301" y="-261" font-family="Helvetica,sans-Serif" font-size="10.00"> caller</text>
<text text-anchor="middle" x="301" y="-250" font-family="Helvetica,sans-Serif" font-size="10.00">callee</text>
</g>
<!-- Node4 -->
<g id="node4" class="node"><title>Node4</title>
<g id="a_node4"><a xlink:href="structT.html" target="_top" xlink:title="T">
<polygon fill="white" stroke="black" points="257.5,-339.5 257.5,-358.5 286.5,-358.5 286.5,-339.5 257.5,-339.5"/>
<text text-anchor="middle" x="272" y="-346.5" font-family="Helvetica,sans-Serif" font-size="10.00">T</text>
</a>
</g>
</g>
<!-- Node4&#45;&gt;Node3 -->
<g id="edge5" class="edge"><title>Node4&#45;&gt;Node3</title>
<path fill="none" stroke="#9a32cd" stroke-dasharray="5,2" d="M268.488,-329.616C264.866,-310.652 259.373,-281.894 256.65,-267.639"/>
<polygon fill="#9a32cd" stroke="#9a32cd" points="265.056,-330.301 270.37,-339.466 271.932,-328.987 265.056,-330.301"/>
<text text-anchor="middle" x="295" y="-312" font-family="Helvetica,sans-Serif" font-size="10.00"> run_tree</text>
<text text-anchor="middle" x="295" y="-301" font-family="Helvetica,sans-Serif" font-size="10.00">node_pointer</text>
<text text-anchor="middle" x="295" y="-290" font-family="Helvetica,sans-Serif" font-size="10.00">parent</text>
</g>
<!-- Node5 -->
<g id="node5" class="node"><title>Node5</title>
<g id="a_node5"><a xlink:href="structTstruct.html" target="_top" xlink:title="Tstruct">
<polygon fill="white" stroke="black" points="175.5,-248.5 175.5,-267.5 222.5,-267.5 222.5,-248.5 175.5,-248.5"/>
<text text-anchor="middle" x="199" y="-255.5" font-family="Helvetica,sans-Serif" font-size="10.00">Tstruct</text>
</a>
</g>
</g>
<!-- Node4&#45;&gt;Node5 -->
<g id="edge7" class="edge"><title>Node4&#45;&gt;Node5</title>
<path fill="none" stroke="#9a32cd" stroke-dasharray="5,2" d="M247.162,-345.069C218.526,-341.12 174.091,-333.04 164,-320 155.024,-308.401 157.647,-300.219 164,-287 167.91,-278.864 175.463,-272.353 182.555,-267.663"/>
<polygon fill="#9a32cd" stroke="#9a32cd" points="246.891,-348.563 257.259,-346.382 247.794,-341.622 246.891,-348.563"/>
<text text-anchor="middle" x="181" y="-306.5" font-family="Helvetica,sans-Serif" font-size="10.00"> parent</text>
<text text-anchor="middle" x="181" y="-295.5" font-family="Helvetica,sans-Serif" font-size="10.00">children</text>
</g>
<!-- Node4&#45;&gt;Node10 -->
<g id="edge29" class="edge"><title>Node4&#45;&gt;Node10</title>
<path fill="none" stroke="#9a32cd" stroke-dasharray="5,2" d="M296.254,-340.763C307.1,-336.378 319.177,-329.71 327,-320 344.585,-298.175 343,-287.028 343,-259 343,-259 343,-259 343,-76 343,-45.1617 307.844,-27.4806 281.477,-18.5565"/>
<polygon fill="#9a32cd" stroke="#9a32cd" points="295.019,-337.488 286.797,-344.171 297.391,-344.074 295.019,-337.488"/>
<text text-anchor="middle" x="387" y="-192" font-family="Helvetica,sans-Serif" font-size="10.00"> pending_responses</text>
<text text-anchor="middle" x="387" y="-181" font-family="Helvetica,sans-Serif" font-size="10.00">root</text>
<text text-anchor="middle" x="387" y="-170" font-family="Helvetica,sans-Serif" font-size="10.00">pending_signals</text>
<text text-anchor="middle" x="387" y="-159" font-family="Helvetica,sans-Serif" font-size="10.00">flux</text>
</g>
<!-- Node13 -->
<g id="node13" class="node"><title>Node13</title>
<g id="a_node13"><a xlink:href="structContextStore.html" target="_top" xlink:title="ContextStore">
<polygon fill="white" stroke="black" points="0,-248.5 0,-267.5 74,-267.5 74,-248.5 0,-248.5"/>
<text text-anchor="middle" x="37" y="-255.5" font-family="Helvetica,sans-Serif" font-size="10.00">ContextStore</text>
</a>
</g>
</g>
<!-- Node4&#45;&gt;Node13 -->
<g id="edge16" class="edge"><title>Node4&#45;&gt;Node13</title>
<path fill="none" stroke="#9a32cd" stroke-dasharray="5,2" d="M246.81,-347.906C213.317,-346.872 153.002,-341.795 107,-320 80.1959,-307.301 55.7606,-281.344 44.136,-267.748"/>
<polygon fill="#9a32cd" stroke="#9a32cd" points="247.01,-351.411 257.081,-348.12 247.156,-344.413 247.01,-351.411"/>
<text text-anchor="middle" x="131" y="-301" font-family="Helvetica,sans-Serif" font-size="10.00"> definitions</text>
</g>
<!-- Node18 -->
<g id="node18" class="node"><title>Node18</title>
<g id="a_node18"><a xlink:href="structinstance__elem.html" target="_top" xlink:title="instance_elem">
<polygon fill="white" stroke="black" points="371,-248.5 371,-267.5 451,-267.5 451,-248.5 371,-248.5"/>
<text text-anchor="middle" x="411" y="-255.5" font-family="Helvetica,sans-Serif" font-size="10.00">instance_elem</text>
</a>
</g>
</g>
<!-- Node4&#45;&gt;Node18 -->
<g id="edge26" class="edge"><title>Node4&#45;&gt;Node18</title>
<path fill="none" stroke="#9a32cd" stroke-dasharray="5,2" d="M296.488,-343.529C314.341,-339.448 338.536,-332.155 357,-320 378.501,-305.846 396.723,-280.986 405.462,-267.796"/>
<polygon fill="#9a32cd" stroke="#9a32cd" points="295.615,-340.136 286.55,-345.621 297.057,-346.986 295.615,-340.136"/>
<text text-anchor="middle" x="411" y="-301" font-family="Helvetica,sans-Serif" font-size="10.00"> instance</text>
</g>
<!-- Node5&#45;&gt;Node4 -->
<g id="edge6" class="edge"><title>Node5&#45;&gt;Node4</title>
<path fill="none" stroke="#9a32cd" stroke-dasharray="5,2" d="M199.928,-278.133C201.466,-291.193 205.352,-308.199 215,-320 225.817,-333.23 244.431,-340.704 257.435,-344.542"/>
<polygon fill="#9a32cd" stroke="#9a32cd" points="203.395,-277.585 199.095,-267.902 196.418,-278.153 203.395,-277.585"/>
<text text-anchor="middle" x="236" y="-301" font-family="Helvetica,sans-Serif" font-size="10.00"> structure</text>
</g>
<!-- Node6 -->
<g id="node6" class="node"><title>Node6</title>
<g id="a_node6"><a xlink:href="structTcontext.html" target="_top" xlink:title="Tcontext">
<polygon fill="white" stroke="black" points="320.5,-407.5 320.5,-426.5 375.5,-426.5 375.5,-407.5 320.5,-407.5"/>
<text text-anchor="middle" x="348" y="-414.5" font-family="Helvetica,sans-Serif" font-size="10.00">Tcontext</text>
</a>
</g>
</g>
<!-- Node6&#45;&gt;Node4 -->
<g id="edge8" class="edge"><title>Node6&#45;&gt;Node4</title>
<path fill="none" stroke="#9a32cd" stroke-dasharray="5,2" d="M336.273,-399.263C330.877,-392.229 324.101,-384.248 317,-378 307.743,-369.856 295.847,-362.566 286.612,-357.467"/>
<polygon fill="#9a32cd" stroke="#9a32cd" points="333.552,-401.472 342.29,-407.464 339.196,-397.331 333.552,-401.472"/>
<text text-anchor="middle" x="346" y="-381" font-family="Helvetica,sans-Serif" font-size="10.00"> context</text>
</g>
<!-- Node7 -->
<g id="node7" class="node"><title>Node7</title>
<g id="a_node7"><a xlink:href="structTcontents.html" target="_top" xlink:title="Tcontents">
<polygon fill="white" stroke="black" points="242,-407.5 242,-426.5 302,-426.5 302,-407.5 242,-407.5"/>
<text text-anchor="middle" x="272" y="-414.5" font-family="Helvetica,sans-Serif" font-size="10.00">Tcontents</text>
</a>
</g>
</g>
<!-- Node7&#45;&gt;Node4 -->
<g id="edge9" class="edge"><title>Node7&#45;&gt;Node4</title>
<path fill="none" stroke="#9a32cd" stroke-dasharray="5,2" d="M272,-397.041C272,-384.472 272,-368.563 272,-358.841"/>
<polygon fill="#9a32cd" stroke="#9a32cd" points="268.5,-397.372 272,-407.372 275.5,-397.372 268.5,-397.372"/>
<text text-anchor="middle" x="292.5" y="-381" font-family="Helvetica,sans-Serif" font-size="10.00"> contents</text>
</g>
<!-- Node8 -->
<g id="node8" class="node"><title>Node8</title>
<g id="a_node8"><a xlink:href="structSemanticID.html" target="_top" xlink:title="SemanticID">
<polygon fill="white" stroke="black" points="381,-474.5 381,-493.5 449,-493.5 449,-474.5 381,-474.5"/>
<text text-anchor="middle" x="415" y="-481.5" font-family="Helvetica,sans-Serif" font-size="10.00">SemanticID</text>
</a>
</g>
</g>
<!-- Node8&#45;&gt;Node7 -->
<g id="edge10" class="edge"><title>Node8&#45;&gt;Node7</title>
<path fill="none" stroke="#9a32cd" stroke-dasharray="5,2" d="M386.648,-470.113C358.325,-457.239 315.573,-437.806 291.068,-426.667"/>
<polygon fill="#9a32cd" stroke="#9a32cd" points="385.459,-473.417 396.011,-474.369 388.355,-467.044 385.459,-473.417"/>
<text text-anchor="middle" x="370.5" y="-448" font-family="Helvetica,sans-Serif" font-size="10.00"> symbol</text>
</g>
<!-- Node14 -->
<g id="node14" class="node"><title>Node14</title>
<g id="a_node14"><a xlink:href="structinstances__elem.html" target="_top" xlink:title="instances_elem">
<polygon fill="white" stroke="black" points="449.5,-168.5 449.5,-187.5 534.5,-187.5 534.5,-168.5 449.5,-168.5"/>
<text text-anchor="middle" x="492" y="-175.5" font-family="Helvetica,sans-Serif" font-size="10.00">instances_elem</text>
</a>
</g>
</g>
<!-- Node8&#45;&gt;Node14 -->
<g id="edge27" class="edge"><title>Node8&#45;&gt;Node14</title>
<path fill="none" stroke="#9a32cd" stroke-dasharray="5,2" d="M441.693,-469.239C459.25,-458.08 479,-440.522 479,-418 479,-418 479,-418 479,-257 479,-231.465 485.863,-201.86 489.616,-187.579"/>
<polygon fill="#9a32cd" stroke="#9a32cd" points="439.652,-466.379 432.828,-474.484 443.216,-472.404 439.652,-466.379"/>
<text text-anchor="middle" x="483.5" y="-346.5" font-family="Helvetica,sans-Serif" font-size="10.00"> s</text>
</g>
<!-- Node9 -->
<g id="node9" class="node"><title>Node9</title>
<g id="a_node9"><a xlink:href="structAccounting.html" target="_top" xlink:title="Accounting">
<polygon fill="white" stroke="black" points="92.5,-248.5 92.5,-267.5 157.5,-267.5 157.5,-248.5 92.5,-248.5"/>
<text text-anchor="middle" x="125" y="-255.5" font-family="Helvetica,sans-Serif" font-size="10.00">Accounting</text>
</a>
</g>
</g>
<!-- Node9&#45;&gt;Node2 -->
<g id="edge11" class="edge"><title>Node9&#45;&gt;Node2</title>
<path fill="none" stroke="#9a32cd" stroke-dasharray="5,2" d="M138.878,-240.346C152.241,-224.311 171.943,-200.668 182.563,-187.924"/>
<polygon fill="#9a32cd" stroke="#9a32cd" points="135.918,-238.432 132.204,-248.355 141.295,-242.913 135.918,-238.432"/>
<text text-anchor="middle" x="179.5" y="-221" font-family="Helvetica,sans-Serif" font-size="10.00"> accounts</text>
</g>
<!-- Node10&#45;&gt;Node1 -->
<g id="edge12" class="edge"><title>Node10&#45;&gt;Node1</title>
<path fill="none" stroke="#9a32cd" stroke-dasharray="5,2" d="M237.656,-26.8315C225.341,-39.5371 208.509,-56.903 198.496,-67.2338"/>
<polygon fill="#9a32cd" stroke="#9a32cd" points="240.192,-29.2439 244.638,-19.6273 235.165,-24.3721 240.192,-29.2439"/>
<text text-anchor="middle" x="229.5" y="-41" font-family="Helvetica,sans-Serif" font-size="10.00"> r</text>
</g>
<!-- Node11 -->
<g id="node11" class="node"><title>Node11</title>
<g id="a_node11"><a xlink:href="structReceptorAddress.html" target="_top" xlink:title="ReceptorAddress">
<polygon fill="white" stroke="black" points="223,-67.5 223,-86.5 315,-86.5 315,-67.5 223,-67.5"/>
<text text-anchor="middle" x="269" y="-74.5" font-family="Helvetica,sans-Serif" font-size="10.00">ReceptorAddress</text>
</a>
</g>
</g>
<!-- Node11&#45;&gt;Node10 -->
<g id="edge13" class="edge"><title>Node11&#45;&gt;Node10</title>
<path fill="none" stroke="#9a32cd" stroke-dasharray="5,2" d="M264.425,-57.4145C261.366,-44.9883 257.484,-29.2166 255.124,-19.6273"/>
<polygon fill="#9a32cd" stroke="#9a32cd" points="261.053,-58.3603 266.842,-67.2338 267.85,-56.6871 261.053,-58.3603"/>
<text text-anchor="middle" x="273" y="-41" font-family="Helvetica,sans-Serif" font-size="10.00"> addr</text>
</g>
<!-- Node12 -->
<g id="node12" class="node"><title>Node12</title>
<g id="a_node12"><a xlink:href="structSemTable.html" target="_top" xlink:title="SemTable">
<polygon fill="white" stroke="black" points="39.5,-112 39.5,-131 100.5,-131 100.5,-112 39.5,-112"/>
<text text-anchor="middle" x="70" y="-119" font-family="Helvetica,sans-Serif" font-size="10.00">SemTable</text>
</a>
</g>
</g>
<!-- Node12&#45;&gt;Node10 -->
<g id="edge14" class="edge"><title>Node12&#45;&gt;Node10</title>
<path fill="none" stroke="#9a32cd" stroke-dasharray="5,2" d="M89.5543,-105.467C104.241,-94.3987 125.008,-79.2139 144,-67 165.931,-52.8961 171.828,-49.9565 195,-38 207.634,-31.4809 222.134,-24.7309 233.476,-19.6106"/>
<polygon fill="#9a32cd" stroke="#9a32cd" points="87.1115,-102.927 81.2656,-111.764 91.3458,-108.502 87.1115,-102.927"/>
<text text-anchor="middle" x="155" y="-74.5" font-family="Helvetica,sans-Serif" font-size="10.00"> sem</text>
</g>
<!-- Node13&#45;&gt;Node12 -->
<g id="edge15" class="edge"><title>Node13&#45;&gt;Node12</title>
<path fill="none" stroke="#9a32cd" stroke-dasharray="5,2" d="M41.5852,-238.312C48.8172,-208.836 62.5922,-152.692 67.8697,-131.183"/>
<polygon fill="#9a32cd" stroke="#9a32cd" points="38.149,-237.629 39.1652,-248.175 44.9473,-239.297 38.149,-237.629"/>
<text text-anchor="middle" x="61.5" y="-221" font-family="Helvetica,sans-Serif" font-size="10.00"> stores</text>
</g>
<!-- Node14&#45;&gt;Node10 -->
<g id="edge17" class="edge"><title>Node14&#45;&gt;Node10</title>
<path fill="none" stroke="#9a32cd" stroke-dasharray="5,2" d="M480.254,-159.799C459.142,-130.239 411.834,-69.9078 357,-38 333.46,-24.3023 302.944,-17.4466 281.065,-14.0841"/>
<polygon fill="#9a32cd" stroke="#9a32cd" points="477.562,-162.056 486.165,-168.24 483.296,-158.041 477.562,-162.056"/>
<text text-anchor="middle" x="440" y="-74.5" font-family="Helvetica,sans-Serif" font-size="10.00"> instances</text>
</g>
<!-- Node15 -->
<g id="node15" class="node"><title>Node15</title>
<g id="a_node15"><a xlink:href="structUT__hash__handle.html" target="_top" xlink:title="UT_hash_handle">
<polygon fill="white" stroke="black" points="546,-339.5 546,-358.5 636,-358.5 636,-339.5 546,-339.5"/>
<text text-anchor="middle" x="591" y="-346.5" font-family="Helvetica,sans-Serif" font-size="10.00">UT_hash_handle</text>
</a>
</g>
</g>
<!-- Node15&#45;&gt;Node14 -->
<g id="edge18" class="edge"><title>Node15&#45;&gt;Node14</title>
<path fill="none" stroke="#9a32cd" stroke-dasharray="5,2" d="M580.796,-330.582C559.879,-294.873 512.788,-214.486 497.154,-187.798"/>
<polygon fill="#9a32cd" stroke="#9a32cd" points="577.88,-332.528 585.954,-339.387 583.92,-328.989 577.88,-332.528"/>
<text text-anchor="middle" x="551" y="-255.5" font-family="Helvetica,sans-Serif" font-size="10.00"> hh</text>
</g>
<!-- Node15&#45;&gt;Node15 -->
<g id="edge19" class="edge"><title>Node15&#45;&gt;Node15</title>
<path fill="none" stroke="#9a32cd" stroke-dasharray="5,2" d="M646.264,-353.98C651.026,-352.922 654,-351.262 654,-349 654,-345.381 646.386,-343.303 636.02,-342.765"/>
<polygon fill="#9a32cd" stroke="#9a32cd" points="645.521,-350.545 636.02,-355.235 646.372,-357.493 645.521,-350.545"/>
<text text-anchor="middle" x="673" y="-352" font-family="Helvetica,sans-Serif" font-size="10.00"> hh_prev</text>
<text text-anchor="middle" x="673" y="-341" font-family="Helvetica,sans-Serif" font-size="10.00">hh_next</text>
</g>
<!-- Node16 -->
<g id="node16" class="node"><title>Node16</title>
<g id="a_node16"><a xlink:href="structUT__hash__table.html" target="_top" xlink:title="UT_hash_table">
<polygon fill="white" stroke="black" points="601.5,-168.5 601.5,-187.5 684.5,-187.5 684.5,-168.5 601.5,-168.5"/>
<text text-anchor="middle" x="643" y="-175.5" font-family="Helvetica,sans-Serif" font-size="10.00">UT_hash_table</text>
</a>
</g>
</g>
<!-- Node15&#45;&gt;Node16 -->
<g id="edge23" class="edge"><title>Node15&#45;&gt;Node16</title>
<path fill="none" stroke="#9a32cd" stroke-dasharray="5,2" d="M590.948,-329.106C591.412,-308.426 593.719,-274.545 603,-247 610.785,-223.896 627.082,-200.046 636.291,-187.657"/>
<polygon fill="#9a32cd" stroke="#9a32cd" points="587.445,-329.328 590.847,-339.361 594.445,-329.396 587.445,-329.328"/>
<text text-anchor="middle" x="611" y="-255.5" font-family="Helvetica,sans-Serif" font-size="10.00"> tail</text>
</g>
<!-- Node17 -->
<g id="node17" class="node"><title>Node17</title>
<g id="a_node17"><a xlink:href="structUT__hash__bucket.html" target="_top" xlink:title="UT_hash_bucket">
<polygon fill="white" stroke="black" points="675.5,-248.5 675.5,-267.5 766.5,-267.5 766.5,-248.5 675.5,-248.5"/>
<text text-anchor="middle" x="721" y="-255.5" font-family="Helvetica,sans-Serif" font-size="10.00">UT_hash_bucket</text>
</a>
</g>
</g>
<!-- Node15&#45;&gt;Node17 -->
<g id="edge22" class="edge"><title>Node15&#45;&gt;Node17</title>
<path fill="none" stroke="#9a32cd" stroke-dasharray="5,2" d="M626.652,-335.626C636.842,-331.37 647.698,-326.112 657,-320 680.091,-304.828 702.351,-280.834 713.533,-267.925"/>
<polygon fill="#9a32cd" stroke="#9a32cd" points="625.162,-332.451 617.159,-339.394 627.744,-338.958 625.162,-332.451"/>
<text text-anchor="middle" x="715" y="-301" font-family="Helvetica,sans-Serif" font-size="10.00"> hh_head</text>
</g>
<!-- Node15&#45;&gt;Node18 -->
<g id="edge25" class="edge"><title>Node15&#45;&gt;Node18</title>
<path fill="none" stroke="#9a32cd" stroke-dasharray="5,2" d="M553.427,-336.17C540.403,-331.637 525.852,-326.079 513,-320 479.24,-304.031 442.229,-280.15 423.441,-267.527"/>
<polygon fill="#9a32cd" stroke="#9a32cd" points="552.442,-339.531 563.036,-339.428 554.69,-332.902 552.442,-339.531"/>
<text text-anchor="middle" x="520" y="-301" font-family="Helvetica,sans-Serif" font-size="10.00"> hh</text>
</g>
<!-- Node16&#45;&gt;Node15 -->
<g id="edge20" class="edge"><title>Node16&#45;&gt;Node15</title>
<path fill="none" stroke="#9a32cd" stroke-dasharray="5,2" d="M639.17,-197.91C633.334,-225.33 621.167,-277.494 605,-320 602.45,-326.705 598.807,-333.94 595.877,-339.376"/>
<polygon fill="#9a32cd" stroke="#9a32cd" points="642.668,-198.278 641.276,-187.775 635.815,-196.853 642.668,-198.278"/>
<text text-anchor="middle" x="635" y="-255.5" font-family="Helvetica,sans-Serif" font-size="10.00"> tbl</text>
</g>
<!-- Node17&#45;&gt;Node16 -->
<g id="edge21" class="edge"><title>Node17&#45;&gt;Node16</title>
<path fill="none" stroke="#9a32cd" stroke-dasharray="5,2" d="M705.229,-241.229C689.19,-225.19 664.904,-200.904 651.924,-187.924"/>
<polygon fill="#9a32cd" stroke="#9a32cd" points="702.809,-243.758 712.355,-248.355 707.758,-238.809 702.809,-243.758"/>
<text text-anchor="middle" x="710" y="-221" font-family="Helvetica,sans-Serif" font-size="10.00"> buckets</text>
</g>
<!-- Node18&#45;&gt;Node14 -->
<g id="edge24" class="edge"><title>Node18&#45;&gt;Node14</title>
<path fill="none" stroke="#9a32cd" stroke-dasharray="5,2" d="M411.535,-238.371C412.533,-231.422 414.659,-223.816 419,-218 429.916,-203.376 447.967,-193.664 463.388,-187.589"/>
<polygon fill="#9a32cd" stroke="#9a32cd" points="408.042,-238.154 410.74,-248.399 415.02,-238.707 408.042,-238.154"/>
<text text-anchor="middle" x="442" y="-221" font-family="Helvetica,sans-Serif" font-size="10.00"> instances</text>
</g>
</g>
</svg>
        <g id="navigator" transform="translate(0 0)" fill="#404254">
                <rect fill="#f2f5e9" fill-opacity="0.5" stroke="#606060" stroke-width=".5" x="0" y="0" width="60" height="60"/>
                <use id="zoomplus" xlink:href="#zoomPlus" x="17" y="9" onmousedown="handleZoom(evt,'in')"/>
                <use id="zoomminus" xlink:href="#zoomMin" x="42" y="9" onmousedown="handleZoom(evt,'out')"/>
                <use id="reset" xlink:href="#resetDef" x="30" y="36" onmousedown="handleReset()"/>
                <g id="arrowUp" xlink:href="#dirArrow" transform="translate(30 24)" onmousedown="handlePan(0,-1)">
                  <use xlink:href="#rim" fill="#404040">
                        <set attributeName="fill" to="#808080" begin="arrowUp.mouseover" end="arrowUp.mouseout"/>
                  </use>
                  <path fill="none" stroke="white" stroke-width="1.5" d="M0,-3.0v7 M-2.5,-0.5L0,-3.0L2.5,-0.5"/>
                </g>
                <g id="arrowRight" xlink:href="#dirArrow" transform="rotate(90) translate(36 -43)" onmousedown="handlePan(1,0)">
                  <use xlink:href="#rim" fill="#404040">
                        <set attributeName="fill" to="#808080" begin="arrowRight.mouseover" end="arrowRight.mouseout"/>
                  </use>
                  <path fill="none" stroke="white" stroke-width="1.5" d="M0,-3.0v7 M-2.5,-0.5L0,-3.0L2.5,-0.5"/>
                </g>
                <g id="arrowDown" xlink:href="#dirArrow" transform="rotate(180) translate(-30 -48)" onmousedown="handlePan(0,1)">
                  <use xlink:href="#rim" fill="#404040">
                        <set attributeName="fill" to="#808080" begin="arrowDown.mouseover" end="arrowDown.mouseout"/>
                  </use>
                  <path fill="none" stroke="white" stroke-width="1.5" d="M0,-3.0v7 M-2.5,-0.5L0,-3.0L2.5,-0.5"/>
                </g>
                <g id="arrowLeft" xlink:href="#dirArrow" transform="rotate(270) translate(-36 17)" onmousedown="handlePan(-1,0)">
                  <use xlink:href="#rim" fill="#404040">
                        <set attributeName="fill" to="#808080" begin="arrowLeft.mouseover" end="arrowLeft.mouseout"/>
                  </use>
                  <path fill="none" stroke="white" stroke-width="1.5" d="M0,-3.0v7 M-2.5,-0.5L0,-3.0L2.5,-0.5"/>
                </g>
        </g>
        <svg viewBox="0 0 15 15" width="100%" height="30px" preserveAspectRatio="xMaxYMin meet">
         <g id="arrow_out" transform="scale(0.3 0.3)">
          <a xlink:href="structQ__coll__graph_org.svg" target="_base">
           <rect id="button" ry="5" rx="5" y="6" x="6" height="38" width="38"
                fill="#f2f5e9" fill-opacity="0.5" stroke="#606060" stroke-width="1.0"/>
           <path id="arrow"
             d="M 11.500037,31.436501 C 11.940474,20.09759 22.043105,11.32322 32.158766,21.979434 L 37.068811,17.246167 C 37.068811,17.246167 37.088388,32 37.088388,32 L 22.160133,31.978069 C 22.160133,31.978069 26.997745,27.140456 26.997745,27.140456 C 18.528582,18.264221 13.291696,25.230495 11.500037,31.436501 z"
             style="fill:#404040;"/>
          </a>
         </g>
        </svg>
</svg>
