<?xml version="1.0" encoding="UTF-8" standalone="no"?>
<!DOCTYPE svg PUBLIC "-//W3C//DTD SVG 1.1//EN"
 "http://www.w3.org/Graphics/SVG/1.1/DTD/svg11.dtd">
<!-- Generated by graphviz version 2.38.0 (20140413.2041)
 -->
<!-- Title: src/sys_structures.h Pages: 1 -->
<svg width="1549pt" height="420pt"
 viewBox="0.00 0.00 1549.10 420.00" xmlns="http://www.w3.org/2000/svg" xmlns:xlink="http://www.w3.org/1999/xlink">
<g id="graph0" class="graph" transform="scale(1 1) rotate(0) translate(4 416)">
<title>src/sys_structures.h</title>
<polygon fill="white" stroke="none" points="-4,4 -4,-416 1545.1,-416 1545.1,4 -4,4"/>
<!-- Node1 -->
<g id="node1" class="node"><title>Node1</title>
<polygon fill="#bfbfbf" stroke="black" points="541.102,-392.5 541.102,-411.5 647.102,-411.5 647.102,-392.5 541.102,-392.5"/>
<text text-anchor="middle" x="594.102" y="-399.5" font-family="Helvetica,sans-Serif" font-size="10.00">src/sys_structures.h</text>
</g>
<!-- Node2 -->
<g id="node2" class="node"><title>Node2</title>
<g id="a_node2"><a xlink:href="sys__symbols_8h.html" target="_top" xlink:title="Defines hard&#45;coded system defined symbols. ">
<polygon fill="white" stroke="black" points="544.602,-336.5 544.602,-355.5 643.602,-355.5 643.602,-336.5 544.602,-336.5"/>
<text text-anchor="middle" x="594.102" y="-343.5" font-family="Helvetica,sans-Serif" font-size="10.00">src/sys_symbols.h</text>
</a>
</g>
</g>
<!-- Node1&#45;&gt;Node2 -->
<g id="edge1" class="edge"><title>Node1&#45;&gt;Node2</title>
<path fill="none" stroke="midnightblue" d="M594.102,-381.805C594.102,-372.91 594.102,-362.78 594.102,-355.751"/>
<polygon fill="midnightblue" stroke="midnightblue" points="590.602,-382.083 594.102,-392.083 597.602,-382.083 590.602,-382.083"/>
</g>
<!-- Node3 -->
<g id="node3" class="node"><title>Node3</title>
<g id="a_node3"><a xlink:href="tree_8h.html" target="_top" xlink:title="semantic trees header file ">
<polygon fill="white" stroke="black" points="491.102,-280.5 491.102,-299.5 549.102,-299.5 549.102,-280.5 491.102,-280.5"/>
<text text-anchor="middle" x="520.102" y="-287.5" font-family="Helvetica,sans-Serif" font-size="10.00">src/tree.h</text>
</a>
</g>
</g>
<!-- Node1&#45;&gt;Node3 -->
<g id="edge77" class="edge"><title>Node1&#45;&gt;Node3</title>
<path fill="none" stroke="midnightblue" d="M568.557,-387.147C556.687,-379.463 543.394,-368.853 535.102,-356 523.674,-338.289 520.914,-312.908 520.273,-299.714"/>
<polygon fill="midnightblue" stroke="midnightblue" points="566.889,-390.229 577.25,-392.44 570.529,-384.25 566.889,-390.229"/>
</g>
<!-- Node33 -->
<g id="node33" class="node"><title>Node33</title>
<g id="a_node33"><a xlink:href="mtree_8h.html" target="_top" xlink:title="semantic tree matrix header file `` ">
<polygon fill="white" stroke="black" points="637.102,-280.5 637.102,-299.5 703.102,-299.5 703.102,-280.5 637.102,-280.5"/>
<text text-anchor="middle" x="670.102" y="-287.5" font-family="Helvetica,sans-Serif" font-size="10.00">src/mtree.h</text>
</a>
</g>
</g>
<!-- Node1&#45;&gt;Node33 -->
<g id="edge78" class="edge"><title>Node1&#45;&gt;Node33</title>
<path fill="none" stroke="midnightblue" d="M618.744,-387.058C630.413,-379.302 643.619,-368.654 652.102,-356 663.968,-338.298 668.06,-312.913 669.434,-299.716"/>
<polygon fill="midnightblue" stroke="midnightblue" points="616.829,-384.128 610.224,-392.411 620.553,-390.055 616.829,-384.128"/>
</g>
<!-- Node2&#45;&gt;Node3 -->
<g id="edge2" class="edge"><title>Node2&#45;&gt;Node3</title>
<path fill="none" stroke="midnightblue" d="M574.067,-330.38C560.693,-320.62 543.543,-308.106 532.207,-299.834"/>
<polygon fill="midnightblue" stroke="midnightblue" points="572.071,-333.257 582.212,-336.324 576.198,-327.602 572.071,-333.257"/>
</g>
<!-- Node2&#45;&gt;Node33 -->
<g id="edge74" class="edge"><title>Node2&#45;&gt;Node33</title>
<path fill="none" stroke="midnightblue" d="M614.677,-330.38C628.414,-320.62 646.027,-308.106 657.669,-299.834"/>
<polygon fill="midnightblue" stroke="midnightblue" points="612.437,-327.679 606.312,-336.324 616.491,-333.385 612.437,-327.679"/>
</g>
<!-- Node4 -->
<g id="node4" class="node"><title>Node4</title>
<g id="a_node4"><a xlink:href="ceptr_8h_source.html" target="_top" xlink:title="src/ceptr.h">
<polygon fill="white" stroke="black" points="1161.6,-168.5 1161.6,-187.5 1224.6,-187.5 1224.6,-168.5 1161.6,-168.5"/>
<text text-anchor="middle" x="1193.1" y="-175.5" font-family="Helvetica,sans-Serif" font-size="10.00">src/ceptr.h</text>
</a>
</g>
</g>
<!-- Node3&#45;&gt;Node4 -->
<g id="edge3" class="edge"><title>Node3&#45;&gt;Node4</title>
<path fill="none" stroke="midnightblue" d="M559.236,-285.762C651.149,-278.025 878.724,-258.062 954.102,-244 1032.94,-229.293 1123.75,-201.517 1167.25,-187.519"/>
<polygon fill="midnightblue" stroke="midnightblue" points="558.902,-282.278 549.23,-286.601 559.487,-289.253 558.902,-282.278"/>
</g>
<!-- Node17 -->
<g id="node17" class="node"><title>Node17</title>
<g id="a_node17"><a xlink:href="def_8c.html" target="_top" xlink:title="implementation file for symbol and structure definition functions ">
<polygon fill="white" stroke="black" points="402.602,-168.5 402.602,-187.5 457.602,-187.5 457.602,-168.5 402.602,-168.5"/>
<text text-anchor="middle" x="430.102" y="-175.5" font-family="Helvetica,sans-Serif" font-size="10.00">src/def.c</text>
</a>
</g>
</g>
<!-- Node3&#45;&gt;Node17 -->
<g id="edge30" class="edge"><title>Node3&#45;&gt;Node17</title>
<path fill="none" stroke="midnightblue" d="M501.804,-273.754C492.391,-265.455 481.048,-254.715 472.102,-244 456.602,-225.436 442.135,-200.842 434.911,-187.876"/>
<polygon fill="midnightblue" stroke="midnightblue" points="499.609,-276.482 509.47,-280.356 504.177,-271.178 499.609,-276.482"/>
</g>
<!-- Node18 -->
<g id="node18" class="node"><title>Node18</title>
<g id="a_node18"><a xlink:href="def_8h.html" target="_top" xlink:title="header file for symbol and structure definition functions ">
<polygon fill="white" stroke="black" points="318.602,-224.5 318.602,-243.5 373.602,-243.5 373.602,-224.5 318.602,-224.5"/>
<text text-anchor="middle" x="346.102" y="-231.5" font-family="Helvetica,sans-Serif" font-size="10.00">src/def.h</text>
</a>
</g>
</g>
<!-- Node3&#45;&gt;Node18 -->
<g id="edge31" class="edge"><title>Node3&#45;&gt;Node18</title>
<path fill="none" stroke="midnightblue" d="M482.841,-277.436C450.035,-267.255 403.019,-252.664 373.543,-243.516"/>
<polygon fill="midnightblue" stroke="midnightblue" points="481.943,-280.822 492.531,-280.444 484.018,-274.137 481.943,-280.822"/>
</g>
<!-- Node21 -->
<g id="node21" class="node"><title>Node21</title>
<g id="a_node21"><a xlink:href="receptor_8h.html" target="_top" xlink:title="receptor implementation header file ">
<polygon fill="white" stroke="black" points="844.602,-168.5 844.602,-187.5 921.602,-187.5 921.602,-168.5 844.602,-168.5"/>
<text text-anchor="middle" x="883.102" y="-175.5" font-family="Helvetica,sans-Serif" font-size="10.00">src/receptor.h</text>
</a>
</g>
</g>
<!-- Node3&#45;&gt;Node21 -->
<g id="edge66" class="edge"><title>Node3&#45;&gt;Node21</title>
<path fill="none" stroke="midnightblue" d="M559.342,-284.469C623.155,-276.755 746.387,-260.313 787.102,-244 822.04,-230.001 857.16,-201.771 873.553,-187.57"/>
<polygon fill="midnightblue" stroke="midnightblue" points="558.775,-281.012 549.262,-285.675 559.606,-287.963 558.775,-281.012"/>
</g>
<!-- Node24 -->
<g id="node24" class="node"><title>Node24</title>
<g id="a_node24"><a xlink:href="vmhost_8c.html" target="_top" xlink:title="virtual machine host receptor implementation ">
<polygon fill="white" stroke="black" points="95.1017,-56.5 95.1017,-75.5 169.102,-75.5 169.102,-56.5 95.1017,-56.5"/>
<text text-anchor="middle" x="132.102" y="-63.5" font-family="Helvetica,sans-Serif" font-size="10.00">src/vmhost.c</text>
</a>
</g>
</g>
<!-- Node3&#45;&gt;Node24 -->
<g id="edge73" class="edge"><title>Node3&#45;&gt;Node24</title>
<path fill="none" stroke="midnightblue" d="M481.041,-287.834C371.131,-283.609 63.5918,-264.988 8.10166,-188 -26.6335,-139.808 66.0299,-93.9568 110.194,-75.5181"/>
<polygon fill="midnightblue" stroke="midnightblue" points="480.924,-291.332 491.045,-288.199 481.18,-284.336 480.924,-291.332"/>
</g>
<!-- Node26 -->
<g id="node26" class="node"><title>Node26</title>
<g id="a_node26"><a xlink:href="sys__defs_8c.html" target="_top" xlink:title="definition of system semantic elements for bootstrapping ">
<polygon fill="white" stroke="black" points="93.6017,-168.5 93.6017,-187.5 174.602,-187.5 174.602,-168.5 93.6017,-168.5"/>
<text text-anchor="middle" x="134.102" y="-175.5" font-family="Helvetica,sans-Serif" font-size="10.00">src/sys_defs.c</text>
</a>
</g>
</g>
<!-- Node3&#45;&gt;Node26 -->
<g id="edge71" class="edge"><title>Node3&#45;&gt;Node26</title>
<path fill="none" stroke="midnightblue" d="M480.774,-282.382C438.075,-274.788 368.08,-261.144 309.102,-244 251.837,-227.355 186.485,-201.058 154.254,-187.583"/>
<polygon fill="midnightblue" stroke="midnightblue" points="480.303,-285.853 490.758,-284.136 481.514,-278.959 480.303,-285.853"/>
</g>
<!-- Node27 -->
<g id="node27" class="node"><title>Node27</title>
<g id="a_node27"><a xlink:href="tree_8c.html" target="_top" xlink:title="semantic tree pointer implementation ">
<polygon fill="white" stroke="black" points="17.1017,-168.5 17.1017,-187.5 75.1017,-187.5 75.1017,-168.5 17.1017,-168.5"/>
<text text-anchor="middle" x="46.1017" y="-175.5" font-family="Helvetica,sans-Serif" font-size="10.00">src/tree.c</text>
</a>
</g>
</g>
<!-- Node3&#45;&gt;Node27 -->
<g id="edge72" class="edge"><title>Node3&#45;&gt;Node27</title>
<path fill="none" stroke="midnightblue" d="M480.654,-284.379C427.241,-277.696 329.157,-263.912 247.102,-244 181.166,-228 105.56,-201.18 68.6931,-187.534"/>
<polygon fill="midnightblue" stroke="midnightblue" points="480.37,-287.87 490.723,-285.621 481.227,-280.923 480.37,-287.87"/>
</g>
<!-- Node28 -->
<g id="node28" class="node"><title>Node28</title>
<g id="a_node28"><a xlink:href="semtrex_8h.html" target="_top" xlink:title="Semantic tree regular expression header file. ">
<polygon fill="white" stroke="black" points="481.602,-224.5 481.602,-243.5 558.602,-243.5 558.602,-224.5 481.602,-224.5"/>
<text text-anchor="middle" x="520.102" y="-231.5" font-family="Helvetica,sans-Serif" font-size="10.00">src/semtrex.h</text>
</a>
</g>
</g>
<!-- Node3&#45;&gt;Node28 -->
<g id="edge52" class="edge"><title>Node3&#45;&gt;Node28</title>
<path fill="none" stroke="midnightblue" d="M520.102,-269.805C520.102,-260.91 520.102,-250.78 520.102,-243.751"/>
<polygon fill="midnightblue" stroke="midnightblue" points="516.602,-270.083 520.102,-280.083 523.602,-270.083 516.602,-270.083"/>
</g>
<!-- Node29 -->
<g id="node29" class="node"><title>Node29</title>
<g id="a_node29"><a xlink:href="label_8c.html" target="_top" xlink:title="Implementation of label tabels for semantic reference to parts of semantic trees. ...">
<polygon fill="white" stroke="black" points="577.102,-224.5 577.102,-243.5 639.102,-243.5 639.102,-224.5 577.102,-224.5"/>
<text text-anchor="middle" x="608.102" y="-231.5" font-family="Helvetica,sans-Serif" font-size="10.00">src/label.c</text>
</a>
</g>
</g>
<!-- Node3&#45;&gt;Node29 -->
<g id="edge60" class="edge"><title>Node3&#45;&gt;Node29</title>
<path fill="none" stroke="midnightblue" d="M543.079,-274.901C559.215,-264.999 580.283,-252.071 593.998,-243.655"/>
<polygon fill="midnightblue" stroke="midnightblue" points="540.933,-272.111 534.24,-280.324 544.594,-278.077 540.933,-272.111"/>
</g>
<!-- Node30 -->
<g id="node30" class="node"><title>Node30</title>
<g id="a_node30"><a xlink:href="process_8h.html" target="_top" xlink:title="processing header files ">
<polygon fill="white" stroke="black" points="702.102,-224.5 702.102,-243.5 778.102,-243.5 778.102,-224.5 702.102,-224.5"/>
<text text-anchor="middle" x="740.102" y="-231.5" font-family="Helvetica,sans-Serif" font-size="10.00">src/process.h</text>
</a>
</g>
</g>
<!-- Node3&#45;&gt;Node30 -->
<g id="edge61" class="edge"><title>Node3&#45;&gt;Node30</title>
<path fill="none" stroke="midnightblue" d="M559.065,-279.436C600.53,-269.258 665.528,-253.304 705.321,-243.537"/>
<polygon fill="midnightblue" stroke="midnightblue" points="558.193,-276.046 549.316,-281.829 559.862,-282.844 558.193,-276.046"/>
</g>
<!-- Node31 -->
<g id="node31" class="node"><title>Node31</title>
<g id="a_node31"><a xlink:href="scape_8h.html" target="_top" xlink:title="scape header files ">
<polygon fill="white" stroke="black" points="877.102,-224.5 877.102,-243.5 945.102,-243.5 945.102,-224.5 877.102,-224.5"/>
<text text-anchor="middle" x="911.102" y="-231.5" font-family="Helvetica,sans-Serif" font-size="10.00">src/scape.h</text>
</a>
</g>
</g>
<!-- Node3&#45;&gt;Node31 -->
<g id="edge67" class="edge"><title>Node3&#45;&gt;Node31</title>
<path fill="none" stroke="midnightblue" d="M559.607,-284.087C622.461,-276.185 749.068,-259.921 856.102,-244 862.897,-242.989 870.153,-241.847 877.092,-240.724"/>
<polygon fill="midnightblue" stroke="midnightblue" points="558.842,-280.655 549.355,-285.373 559.713,-287.601 558.842,-280.655"/>
</g>
<!-- Node5 -->
<g id="node5" class="node"><title>Node5</title>
<g id="a_node5"><a xlink:href="ceptr__specs_8c.html" target="_top" xlink:title="implements a main() entry point for running all the tests ">
<polygon fill="white" stroke="black" points="941.102,-0.5 941.102,-19.5 1043.1,-19.5 1043.1,-0.5 941.102,-0.5"/>
<text text-anchor="middle" x="992.102" y="-7.5" font-family="Helvetica,sans-Serif" font-size="10.00">spec/ceptr_specs.c</text>
</a>
</g>
</g>
<!-- Node4&#45;&gt;Node5 -->
<g id="edge4" class="edge"><title>Node4&#45;&gt;Node5</title>
<path fill="none" stroke="midnightblue" d="M1234.87,-176.558C1287.16,-173.932 1368.1,-161.92 1352.1,-112 1342.77,-82.873 1338.25,-71.8597 1312.1,-56 1267.97,-29.2367 1121.96,-17.6986 1043.33,-13.3254"/>
<polygon fill="midnightblue" stroke="midnightblue" points="1234.68,-173.063 1224.83,-176.966 1234.96,-180.057 1234.68,-173.063"/>
</g>
<!-- Node6 -->
<g id="node6" class="node"><title>Node6</title>
<g id="a_node6"><a xlink:href="test__framework_8h.html" target="_top" xlink:title="implements the testing harness ">
<polygon fill="white" stroke="black" points="1425.1,-56.5 1425.1,-75.5 1541.1,-75.5 1541.1,-56.5 1425.1,-56.5"/>
<text text-anchor="middle" x="1483.1" y="-63.5" font-family="Helvetica,sans-Serif" font-size="10.00">spec/test_framework.h</text>
</a>
</g>
</g>
<!-- Node4&#45;&gt;Node6 -->
<g id="edge5" class="edge"><title>Node4&#45;&gt;Node6</title>
<path fill="none" stroke="midnightblue" d="M1234.87,-174.886C1280.4,-171.141 1354.33,-160.762 1411.1,-132 1439.04,-117.843 1464.39,-89.9451 1476.16,-75.7466"/>
<polygon fill="midnightblue" stroke="midnightblue" points="1234.47,-171.406 1224.76,-175.646 1235,-178.386 1234.47,-171.406"/>
</g>
<!-- Node7 -->
<g id="node7" class="node"><title>Node7</title>
<g id="a_node7"><a xlink:href="tree__spec_8h.html" target="_top" xlink:title="spec/tree_spec.h">
<polygon fill="white" stroke="black" points="832.102,-56.5 832.102,-75.5 924.102,-75.5 924.102,-56.5 832.102,-56.5"/>
<text text-anchor="middle" x="878.102" y="-63.5" font-family="Helvetica,sans-Serif" font-size="10.00">spec/tree_spec.h</text>
</a>
</g>
</g>
<!-- Node4&#45;&gt;Node7 -->
<g id="edge7" class="edge"><title>Node4&#45;&gt;Node7</title>
<path fill="none" stroke="midnightblue" d="M1222.66,-163.782C1247.33,-150.981 1275.94,-130.802 1259.1,-112 1210.47,-57.7078 1005.31,-85.8884 933.102,-76 930.226,-75.6062 927.269,-75.1811 924.289,-74.7374"/>
<polygon fill="midnightblue" stroke="midnightblue" points="1220.92,-160.739 1213.5,-168.308 1224.02,-167.014 1220.92,-160.739"/>
</g>
<!-- Node8 -->
<g id="node8" class="node"><title>Node8</title>
<g id="a_node8"><a xlink:href="http__example_8h.html" target="_top" xlink:title="spec/http_example.h">
<polygon fill="white" stroke="black" points="619.602,-112.5 619.602,-131.5 726.602,-131.5 726.602,-112.5 619.602,-112.5"/>
<text text-anchor="middle" x="673.102" y="-119.5" font-family="Helvetica,sans-Serif" font-size="10.00">spec/http_example.h</text>
</a>
</g>
</g>
<!-- Node4&#45;&gt;Node8 -->
<g id="edge9" class="edge"><title>Node4&#45;&gt;Node8</title>
<path fill="none" stroke="midnightblue" d="M1151.54,-173.143C1054.68,-164.115 816.097,-141.648 736.102,-132 733.03,-131.63 729.877,-131.233 726.697,-130.819"/>
<polygon fill="midnightblue" stroke="midnightblue" points="1151.27,-176.633 1161.55,-174.075 1151.92,-169.663 1151.27,-176.633"/>
</g>
<!-- Node9 -->
<g id="node9" class="node"><title>Node9</title>
<g id="a_node9"><a xlink:href="mtree__spec_8h.html" target="_top" xlink:title="spec/mtree_spec.h">
<polygon fill="white" stroke="black" points="942.102,-56.5 942.102,-75.5 1042.1,-75.5 1042.1,-56.5 942.102,-56.5"/>
<text text-anchor="middle" x="992.102" y="-63.5" font-family="Helvetica,sans-Serif" font-size="10.00">spec/mtree_spec.h</text>
</a>
</g>
</g>
<!-- Node4&#45;&gt;Node9 -->
<g id="edge17" class="edge"><title>Node4&#45;&gt;Node9</title>
<path fill="none" stroke="midnightblue" d="M1234.62,-167.53C1272.53,-156.992 1319.52,-137.965 1297.1,-112 1264.79,-74.5736 1120.27,-67.73 1042.32,-66.8197"/>
<polygon fill="midnightblue" stroke="midnightblue" points="1233.5,-164.206 1224.73,-170.151 1235.29,-170.973 1233.5,-164.206"/>
</g>
<!-- Node10 -->
<g id="node10" class="node"><title>Node10</title>
<g id="a_node10"><a xlink:href="receptor__spec_8h.html" target="_top" xlink:title="spec/receptor_spec.h">
<polygon fill="white" stroke="black" points="540.102,-56.5 540.102,-75.5 650.102,-75.5 650.102,-56.5 540.102,-56.5"/>
<text text-anchor="middle" x="595.102" y="-63.5" font-family="Helvetica,sans-Serif" font-size="10.00">spec/receptor_spec.h</text>
</a>
</g>
</g>
<!-- Node4&#45;&gt;Node10 -->
<g id="edge24" class="edge"><title>Node4&#45;&gt;Node10</title>
<path fill="none" stroke="midnightblue" d="M1197.52,-158.417C1199.81,-143.733 1200.02,-123.81 1188.1,-112 1146.26,-70.5259 717.698,-82.1059 659.102,-76 656.2,-75.6976 653.228,-75.3639 650.229,-75.0082"/>
<polygon fill="midnightblue" stroke="midnightblue" points="1194.06,-157.911 1195.54,-168.402 1200.92,-159.277 1194.06,-157.911"/>
</g>
<!-- Node11 -->
<g id="node11" class="node"><title>Node11</title>
<g id="a_node11"><a xlink:href="vmhost__spec_8h.html" target="_top" xlink:title="spec/vmhost_spec.h">
<polygon fill="white" stroke="black" points="668.602,-56.5 668.602,-75.5 775.602,-75.5 775.602,-56.5 668.602,-56.5"/>
<text text-anchor="middle" x="722.102" y="-63.5" font-family="Helvetica,sans-Serif" font-size="10.00">spec/vmhost_spec.h</text>
</a>
</g>
</g>
<!-- Node4&#45;&gt;Node11 -->
<g id="edge29" class="edge"><title>Node4&#45;&gt;Node11</title>
<path fill="none" stroke="midnightblue" d="M1209.02,-160.866C1221.17,-146.602 1233.85,-125.951 1221.1,-112 1220.63,-111.489 904.817,-83.2859 775.919,-71.7947"/>
<polygon fill="midnightblue" stroke="midnightblue" points="1206.27,-158.681 1202.12,-168.428 1211.45,-163.4 1206.27,-158.681"/>
</g>
<!-- Node12 -->
<g id="node12" class="node"><title>Node12</title>
<g id="a_node12"><a xlink:href="def__spec_8h.html" target="_top" xlink:title="spec/def_spec.h">
<polygon fill="white" stroke="black" points="286.602,-112.5 286.602,-131.5 375.602,-131.5 375.602,-112.5 286.602,-112.5"/>
<text text-anchor="middle" x="331.102" y="-119.5" font-family="Helvetica,sans-Serif" font-size="10.00">spec/def_spec.h</text>
</a>
</g>
</g>
<!-- Node4&#45;&gt;Node12 -->
<g id="edge18" class="edge"><title>Node4&#45;&gt;Node12</title>
<path fill="none" stroke="midnightblue" d="M1151.46,-172.886C1133.51,-171.208 1112.29,-169.35 1093.1,-168 778.363,-145.855 697.73,-166.471 384.102,-132 381.411,-131.704 378.65,-131.36 375.869,-130.982"/>
<polygon fill="midnightblue" stroke="midnightblue" points="1151.31,-176.388 1161.6,-173.848 1151.97,-169.419 1151.31,-176.388"/>
</g>
<!-- Node13 -->
<g id="node13" class="node"><title>Node13</title>
<g id="a_node13"><a xlink:href="label__spec_8h.html" target="_top" xlink:title="spec/label_spec.h">
<polygon fill="white" stroke="black" points="1208.6,-56.5 1208.6,-75.5 1303.6,-75.5 1303.6,-56.5 1208.6,-56.5"/>
<text text-anchor="middle" x="1256.1" y="-63.5" font-family="Helvetica,sans-Serif" font-size="10.00">spec/label_spec.h</text>
</a>
</g>
</g>
<!-- Node4&#45;&gt;Node13 -->
<g id="edge20" class="edge"><title>Node4&#45;&gt;Node13</title>
<path fill="none" stroke="midnightblue" d="M1234.93,-176.275C1268.04,-173.219 1312.36,-163.068 1335.1,-132 1353.1,-107.422 1311.53,-86.6033 1282.12,-75.5371"/>
<polygon fill="midnightblue" stroke="midnightblue" points="1234.33,-172.81 1224.62,-177.036 1234.85,-179.791 1234.33,-172.81"/>
</g>
<!-- Node14 -->
<g id="node14" class="node"><title>Node14</title>
<g id="a_node14"><a xlink:href="semtrex__spec_8h.html" target="_top" xlink:title="spec/semtrex_spec.h">
<polygon fill="white" stroke="black" points="745.102,-112.5 745.102,-131.5 855.102,-131.5 855.102,-112.5 745.102,-112.5"/>
<text text-anchor="middle" x="800.102" y="-119.5" font-family="Helvetica,sans-Serif" font-size="10.00">spec/semtrex_spec.h</text>
</a>
</g>
</g>
<!-- Node4&#45;&gt;Node14 -->
<g id="edge22" class="edge"><title>Node4&#45;&gt;Node14</title>
<path fill="none" stroke="midnightblue" d="M1151.3,-171.256C1079.94,-161.452 934.661,-141.489 855.143,-130.563"/>
<polygon fill="midnightblue" stroke="midnightblue" points="1150.89,-174.733 1161.27,-172.627 1151.84,-167.798 1150.89,-174.733"/>
</g>
<!-- Node15 -->
<g id="node15" class="node"><title>Node15</title>
<g id="a_node15"><a xlink:href="process__spec_8h.html" target="_top" xlink:title="spec/process_spec.h">
<polygon fill="white" stroke="black" points="1069.1,-112.5 1069.1,-131.5 1179.1,-131.5 1179.1,-112.5 1069.1,-112.5"/>
<text text-anchor="middle" x="1124.1" y="-119.5" font-family="Helvetica,sans-Serif" font-size="10.00">spec/process_spec.h</text>
</a>
</g>
</g>
<!-- Node4&#45;&gt;Node15 -->
<g id="edge25" class="edge"><title>Node4&#45;&gt;Node15</title>
<path fill="none" stroke="midnightblue" d="M1174.06,-162.101C1161.65,-152.382 1145.86,-140.027 1135.39,-131.834"/>
<polygon fill="midnightblue" stroke="midnightblue" points="1171.98,-164.917 1182.02,-168.324 1176.3,-159.405 1171.98,-164.917"/>
</g>
<!-- Node16 -->
<g id="node16" class="node"><title>Node16</title>
<g id="a_node16"><a xlink:href="scape__spec_8h.html" target="_top" xlink:title="spec/scape_spec.h">
<polygon fill="white" stroke="black" points="949.602,-112.5 949.602,-131.5 1050.6,-131.5 1050.6,-112.5 949.602,-112.5"/>
<text text-anchor="middle" x="1000.1" y="-119.5" font-family="Helvetica,sans-Serif" font-size="10.00">spec/scape_spec.h</text>
</a>
</g>
</g>
<!-- Node4&#45;&gt;Node16 -->
<g id="edge27" class="edge"><title>Node4&#45;&gt;Node16</title>
<path fill="none" stroke="midnightblue" d="M1152.71,-165.699C1116.28,-155.507 1063.52,-140.743 1030.54,-131.516"/>
<polygon fill="midnightblue" stroke="midnightblue" points="1151.95,-169.12 1162.52,-168.444 1153.83,-162.378 1151.95,-169.12"/>
</g>
<!-- Node6&#45;&gt;Node5 -->
<g id="edge6" class="edge"><title>Node6&#45;&gt;Node5</title>
<path fill="none" stroke="midnightblue" d="M1414.94,-56.4485C1413.65,-56.2968 1412.37,-56.1472 1411.1,-56 1278.66,-40.6111 1122.43,-24.3264 1043.41,-16.2208"/>
<polygon fill="midnightblue" stroke="midnightblue" points="1414.61,-59.9341 1424.95,-57.6435 1415.44,-52.9834 1414.61,-59.9341"/>
</g>
<!-- Node7&#45;&gt;Node5 -->
<g id="edge8" class="edge"><title>Node7&#45;&gt;Node5</title>
<path fill="none" stroke="midnightblue" d="M905.343,-52.096C926.642,-42.0073 955.643,-28.2697 974.123,-19.5164"/>
<polygon fill="midnightblue" stroke="midnightblue" points="903.704,-48.9995 896.165,-56.4435 906.701,-55.3257 903.704,-48.9995"/>
</g>
<!-- Node8&#45;&gt;Node7 -->
<g id="edge10" class="edge"><title>Node8&#45;&gt;Node7</title>
<path fill="none" stroke="midnightblue" d="M715.51,-109.829C754.216,-99.6333 810.595,-84.7823 845.771,-75.5164"/>
<polygon fill="midnightblue" stroke="midnightblue" points="714.363,-106.512 705.585,-112.444 716.146,-113.281 714.363,-106.512"/>
</g>
<!-- Node8&#45;&gt;Node9 -->
<g id="edge11" class="edge"><title>Node8&#45;&gt;Node9</title>
<path fill="none" stroke="midnightblue" d="M733.801,-110.725C794.177,-100.505 885.713,-85.0094 942.054,-75.4719"/>
<polygon fill="midnightblue" stroke="midnightblue" points="732.924,-107.324 723.648,-112.444 734.092,-114.225 732.924,-107.324"/>
</g>
<!-- Node8&#45;&gt;Node10 -->
<g id="edge13" class="edge"><title>Node8&#45;&gt;Node10</title>
<path fill="none" stroke="midnightblue" d="M652.334,-106.622C638.085,-96.7574 619.646,-83.9919 607.603,-75.6545"/>
<polygon fill="midnightblue" stroke="midnightblue" points="650.355,-109.51 660.57,-112.324 654.34,-103.754 650.355,-109.51"/>
</g>
<!-- Node8&#45;&gt;Node11 -->
<g id="edge15" class="edge"><title>Node8&#45;&gt;Node11</title>
<path fill="none" stroke="midnightblue" d="M688.136,-104.431C696.724,-94.9673 707.145,-83.4827 714.161,-75.7511"/>
<polygon fill="midnightblue" stroke="midnightblue" points="685.321,-102.325 681.193,-112.083 690.505,-107.029 685.321,-102.325"/>
</g>
<!-- Node9&#45;&gt;Node5 -->
<g id="edge12" class="edge"><title>Node9&#45;&gt;Node5</title>
<path fill="none" stroke="midnightblue" d="M992.102,-45.8045C992.102,-36.9102 992.102,-26.7798 992.102,-19.7511"/>
<polygon fill="midnightblue" stroke="midnightblue" points="988.602,-46.083 992.102,-56.083 995.602,-46.083 988.602,-46.083"/>
</g>
<!-- Node10&#45;&gt;Node5 -->
<g id="edge14" class="edge"><title>Node10&#45;&gt;Node5</title>
<path fill="none" stroke="midnightblue" d="M660.467,-55.8175C766.182,-41.2618 877.711,-26.2829 941.032,-17.8144"/>
<polygon fill="midnightblue" stroke="midnightblue" points="659.686,-52.3921 650.257,-57.2246 660.641,-59.3265 659.686,-52.3921"/>
</g>
<!-- Node11&#45;&gt;Node5 -->
<g id="edge16" class="edge"><title>Node11&#45;&gt;Node5</title>
<path fill="none" stroke="midnightblue" d="M774.735,-54.4734C825.763,-44.2678 902.204,-28.9794 949.52,-19.5164"/>
<polygon fill="midnightblue" stroke="midnightblue" points="774.003,-51.0503 764.884,-56.4435 775.376,-57.9143 774.003,-51.0503"/>
</g>
<!-- Node12&#45;&gt;Node5 -->
<g id="edge19" class="edge"><title>Node12&#45;&gt;Node5</title>
<path fill="none" stroke="midnightblue" d="M361.945,-108.653C400.75,-93.6637 469.751,-68.8053 531.102,-56 677.912,-25.3573 855.484,-15.4789 941.079,-12.3737"/>
<polygon fill="midnightblue" stroke="midnightblue" points="360.336,-105.524 352.292,-112.42 362.88,-112.045 360.336,-105.524"/>
</g>
<!-- Node13&#45;&gt;Node5 -->
<g id="edge21" class="edge"><title>Node13&#45;&gt;Node5</title>
<path fill="none" stroke="midnightblue" d="M1204.33,-54.4096C1154.43,-44.2042 1079.9,-28.9597 1033.74,-19.5164"/>
<polygon fill="midnightblue" stroke="midnightblue" points="1203.77,-57.8685 1214.27,-56.4435 1205.17,-51.0105 1203.77,-57.8685"/>
</g>
<!-- Node14&#45;&gt;Node5 -->
<g id="edge23" class="edge"><title>Node14&#45;&gt;Node5</title>
<path fill="none" stroke="midnightblue" d="M801.967,-102.536C804.414,-87.923 810.065,-68.0349 823.102,-56 855.004,-26.5486 903.998,-15.9587 941.035,-12.3481"/>
<polygon fill="midnightblue" stroke="midnightblue" points="798.495,-102.092 800.651,-112.466 805.435,-103.012 798.495,-102.092"/>
</g>
<!-- Node15&#45;&gt;Node5 -->
<g id="edge26" class="edge"><title>Node15&#45;&gt;Node5</title>
<path fill="none" stroke="midnightblue" d="M1111.61,-104.021C1100.83,-90.0788 1084.3,-70.361 1067.1,-56 1049.15,-41.0132 1025.66,-27.7729 1009.78,-19.6013"/>
<polygon fill="midnightblue" stroke="midnightblue" points="1109,-106.368 1117.82,-112.235 1114.58,-102.147 1109,-106.368"/>
</g>
<!-- Node16&#45;&gt;Node5 -->
<g id="edge28" class="edge"><title>Node16&#45;&gt;Node5</title>
<path fill="none" stroke="midnightblue" d="M1023.86,-106.811C1041.4,-94.3835 1060.67,-75.333 1051.1,-56 1042.82,-39.259 1024.99,-27.0457 1011.09,-19.6018"/>
<polygon fill="midnightblue" stroke="midnightblue" points="1021.92,-103.901 1015.53,-112.353 1025.8,-109.729 1021.92,-103.901"/>
</g>
<!-- Node18&#45;&gt;Node8 -->
<g id="edge49" class="edge"><title>Node18&#45;&gt;Node8</title>
<path fill="none" stroke="midnightblue" d="M323.53,-218.723C304.811,-205.154 283.452,-184.438 298.102,-168 344.539,-115.897 540.883,-140.936 610.102,-132 613.17,-131.604 616.32,-131.187 619.499,-130.758"/>
<polygon fill="midnightblue" stroke="midnightblue" points="321.583,-221.631 331.806,-224.413 325.549,-215.863 321.583,-221.631"/>
</g>
<!-- Node18&#45;&gt;Node10 -->
<g id="edge51" class="edge"><title>Node18&#45;&gt;Node10</title>
<path fill="none" stroke="midnightblue" d="M309.045,-223.975C290.311,-217.334 269.235,-206.198 258.102,-188 244.806,-166.269 265.98,-121.219 277.102,-112 316.058,-79.7074 459.621,-70.5851 539.88,-68.0104"/>
<polygon fill="midnightblue" stroke="midnightblue" points="307.972,-227.306 318.564,-227.052 310.125,-220.646 307.972,-227.306"/>
</g>
<!-- Node18&#45;&gt;Node12 -->
<g id="edge50" class="edge"><title>Node18&#45;&gt;Node12</title>
<path fill="none" stroke="midnightblue" d="M308.849,-221.96C292.395,-215.021 274.649,-204.226 265.102,-188 250.992,-164.021 286.093,-142.767 310.338,-131.505"/>
<polygon fill="midnightblue" stroke="midnightblue" points="307.726,-225.278 318.315,-225.611 310.245,-218.747 307.726,-225.278"/>
</g>
<!-- Node18&#45;&gt;Node17 -->
<g id="edge32" class="edge"><title>Node18&#45;&gt;Node17</title>
<path fill="none" stroke="midnightblue" d="M368.034,-218.901C383.437,-208.999 403.547,-196.071 416.639,-187.655"/>
<polygon fill="midnightblue" stroke="midnightblue" points="366.117,-215.972 359.598,-224.324 369.902,-221.86 366.117,-215.972"/>
</g>
<!-- Node19 -->
<g id="node19" class="node"><title>Node19</title>
<g id="a_node19"><a xlink:href="mtree_8c.html" target="_top" xlink:title="semantic tree matrix implementation ">
<polygon fill="white" stroke="black" points="608.102,-168.5 608.102,-187.5 674.102,-187.5 674.102,-168.5 608.102,-168.5"/>
<text text-anchor="middle" x="641.102" y="-175.5" font-family="Helvetica,sans-Serif" font-size="10.00">src/mtree.c</text>
</a>
</g>
</g>
<!-- Node18&#45;&gt;Node19 -->
<g id="edge33" class="edge"><title>Node18&#45;&gt;Node19</title>
<path fill="none" stroke="midnightblue" d="M383.731,-226.112C441.844,-215.474 552.492,-195.22 607.839,-185.089"/>
<polygon fill="midnightblue" stroke="midnightblue" points="383.061,-222.676 373.855,-227.92 384.321,-229.562 383.061,-222.676"/>
</g>
<!-- Node20 -->
<g id="node20" class="node"><title>Node20</title>
<g id="a_node20"><a xlink:href="process_8c.html" target="_top" xlink:title="implementation of ceptr processing: instructions and run tree reduction ">
<polygon fill="white" stroke="black" points="476.102,-168.5 476.102,-187.5 552.102,-187.5 552.102,-168.5 476.102,-168.5"/>
<text text-anchor="middle" x="514.102" y="-175.5" font-family="Helvetica,sans-Serif" font-size="10.00">src/process.c</text>
</a>
</g>
</g>
<!-- Node18&#45;&gt;Node20 -->
<g id="edge34" class="edge"><title>Node18&#45;&gt;Node20</title>
<path fill="none" stroke="midnightblue" d="M382.488,-221.304C414.144,-211.129 459.27,-196.625 487.606,-187.516"/>
<polygon fill="midnightblue" stroke="midnightblue" points="381.171,-218.051 372.722,-224.444 383.313,-224.715 381.171,-218.051"/>
</g>
<!-- Node18&#45;&gt;Node21 -->
<g id="edge35" class="edge"><title>Node18&#45;&gt;Node21</title>
<path fill="none" stroke="midnightblue" d="M383.919,-229.197C482.24,-219.31 745.136,-192.874 844.417,-182.89"/>
<polygon fill="midnightblue" stroke="midnightblue" points="383.442,-225.727 373.842,-230.21 384.142,-232.692 383.442,-225.727"/>
</g>
<!-- Node25 -->
<g id="node25" class="node"><title>Node25</title>
<g id="a_node25"><a xlink:href="semtrex_8c.html" target="_top" xlink:title="semtrex implementation ">
<polygon fill="white" stroke="black" points="307.602,-168.5 307.602,-187.5 384.602,-187.5 384.602,-168.5 307.602,-168.5"/>
<text text-anchor="middle" x="346.102" y="-175.5" font-family="Helvetica,sans-Serif" font-size="10.00">src/semtrex.c</text>
</a>
</g>
</g>
<!-- Node18&#45;&gt;Node25 -->
<g id="edge46" class="edge"><title>Node18&#45;&gt;Node25</title>
<path fill="none" stroke="midnightblue" d="M346.102,-213.805C346.102,-204.91 346.102,-194.78 346.102,-187.751"/>
<polygon fill="midnightblue" stroke="midnightblue" points="342.602,-214.083 346.102,-224.083 349.602,-214.083 342.602,-214.083"/>
</g>
<!-- Node18&#45;&gt;Node26 -->
<g id="edge47" class="edge"><title>Node18&#45;&gt;Node26</title>
<path fill="none" stroke="midnightblue" d="M308.509,-223.425C268.603,-213.26 206.115,-197.343 167.771,-187.576"/>
<polygon fill="midnightblue" stroke="midnightblue" points="307.832,-226.864 318.386,-225.94 309.56,-220.08 307.832,-226.864"/>
</g>
<!-- Node18&#45;&gt;Node27 -->
<g id="edge48" class="edge"><title>Node18&#45;&gt;Node27</title>
<path fill="none" stroke="midnightblue" d="M308.55,-227.306C257.554,-219.401 163.636,-204.232 84.1017,-188 81.1788,-187.403 78.1382,-186.746 75.1065,-186.067"/>
<polygon fill="midnightblue" stroke="midnightblue" points="308.043,-230.769 318.46,-228.834 309.11,-223.851 308.043,-230.769"/>
</g>
<!-- Node21&#45;&gt;Node7 -->
<g id="edge40" class="edge"><title>Node21&#45;&gt;Node7</title>
<path fill="none" stroke="midnightblue" d="M882.254,-158.348C881.159,-134.254 879.297,-93.3079 878.492,-75.5914"/>
<polygon fill="midnightblue" stroke="midnightblue" points="878.759,-158.538 882.709,-168.368 885.752,-158.22 878.759,-158.538"/>
</g>
<!-- Node21&#45;&gt;Node8 -->
<g id="edge41" class="edge"><title>Node21&#45;&gt;Node8</title>
<path fill="none" stroke="midnightblue" d="M839.912,-165.894C800.255,-155.697 742.332,-140.802 706.221,-131.516"/>
<polygon fill="midnightblue" stroke="midnightblue" points="839.27,-169.343 849.827,-168.444 841.013,-162.563 839.27,-169.343"/>
</g>
<!-- Node21&#45;&gt;Node9 -->
<g id="edge42" class="edge"><title>Node21&#45;&gt;Node9</title>
<path fill="none" stroke="midnightblue" d="M896.64,-160.32C907.831,-146.845 924.38,-127.619 940.102,-112 953.653,-98.5371 970.578,-84.3247 981.366,-75.5586"/>
<polygon fill="midnightblue" stroke="midnightblue" points="893.769,-158.302 890.122,-168.25 899.176,-162.747 893.769,-158.302"/>
</g>
<!-- Node21&#45;&gt;Node10 -->
<g id="edge44" class="edge"><title>Node21&#45;&gt;Node10</title>
<path fill="none" stroke="midnightblue" d="M834.213,-172.688C737.138,-163.893 528.469,-143.725 518.102,-132 497.821,-109.066 541.25,-87.1124 570.763,-75.516"/>
<polygon fill="midnightblue" stroke="midnightblue" points="834.091,-176.191 844.365,-173.603 834.72,-169.22 834.091,-176.191"/>
</g>
<!-- Node21&#45;&gt;Node14 -->
<g id="edge43" class="edge"><title>Node21&#45;&gt;Node14</title>
<path fill="none" stroke="midnightblue" d="M861.002,-162.622C845.84,-152.757 826.219,-139.992 813.404,-131.655"/>
<polygon fill="midnightblue" stroke="midnightblue" points="859.475,-165.804 869.766,-168.324 863.293,-159.937 859.475,-165.804"/>
</g>
<!-- Node21&#45;&gt;Node16 -->
<g id="edge45" class="edge"><title>Node21&#45;&gt;Node16</title>
<path fill="none" stroke="midnightblue" d="M910.765,-164.232C932.651,-154.131 962.598,-140.309 981.649,-131.516"/>
<polygon fill="midnightblue" stroke="midnightblue" points="909.254,-161.075 901.641,-168.444 912.187,-167.431 909.254,-161.075"/>
</g>
<!-- Node22 -->
<g id="node22" class="node"><title>Node22</title>
<g id="a_node22"><a xlink:href="receptor_8c.html" target="_top" xlink:title="receptor implementation ">
<polygon fill="white" stroke="black" points="393.602,-112.5 393.602,-131.5 470.602,-131.5 470.602,-112.5 393.602,-112.5"/>
<text text-anchor="middle" x="432.102" y="-119.5" font-family="Helvetica,sans-Serif" font-size="10.00">src/receptor.c</text>
</a>
</g>
</g>
<!-- Node21&#45;&gt;Node22 -->
<g id="edge36" class="edge"><title>Node21&#45;&gt;Node22</title>
<path fill="none" stroke="midnightblue" d="M834.493,-172.384C759.395,-165.054 610.704,-149.751 485.102,-132 480.481,-131.347 475.644,-130.606 470.85,-129.836"/>
<polygon fill="midnightblue" stroke="midnightblue" points="834.299,-175.881 844.591,-173.365 834.976,-168.914 834.299,-175.881"/>
</g>
<!-- Node23 -->
<g id="node23" class="node"><title>Node23</title>
<g id="a_node23"><a xlink:href="vmhost_8h.html" target="_top" xlink:title="vmhost implementation header file ">
<polygon fill="white" stroke="black" points="527.102,-112.5 527.102,-131.5 601.102,-131.5 601.102,-112.5 527.102,-112.5"/>
<text text-anchor="middle" x="564.102" y="-119.5" font-family="Helvetica,sans-Serif" font-size="10.00">src/vmhost.h</text>
</a>
</g>
</g>
<!-- Node21&#45;&gt;Node23 -->
<g id="edge37" class="edge"><title>Node21&#45;&gt;Node23</title>
<path fill="none" stroke="midnightblue" d="M834.049,-169.366C779.345,-160.748 688.266,-146.085 610.102,-132 607.219,-131.48 604.237,-130.929 601.241,-130.365"/>
<polygon fill="midnightblue" stroke="midnightblue" points="833.737,-172.86 844.159,-170.956 834.824,-165.945 833.737,-172.86"/>
</g>
<!-- Node23&#45;&gt;Node11 -->
<g id="edge39" class="edge"><title>Node23&#45;&gt;Node11</title>
<path fill="none" stroke="midnightblue" d="M598.709,-109.172C628.461,-99.0039 670.649,-84.5852 697.183,-75.5164"/>
<polygon fill="midnightblue" stroke="midnightblue" points="597.468,-105.898 589.137,-112.444 599.732,-112.521 597.468,-105.898"/>
</g>
<!-- Node23&#45;&gt;Node24 -->
<g id="edge38" class="edge"><title>Node23&#45;&gt;Node24</title>
<path fill="none" stroke="midnightblue" d="M516.825,-115.09C430.239,-104.267 247.898,-81.4746 169.371,-71.6587"/>
<polygon fill="midnightblue" stroke="midnightblue" points="516.539,-118.582 526.896,-116.349 517.407,-111.636 516.539,-118.582"/>
</g>
<!-- Node28&#45;&gt;Node8 -->
<g id="edge57" class="edge"><title>Node28&#45;&gt;Node8</title>
<path fill="none" stroke="midnightblue" d="M568.858,-222.361C620.738,-210.809 695.967,-193.296 700.102,-188 713.788,-170.471 694.368,-145.013 681.996,-131.76"/>
<polygon fill="midnightblue" stroke="midnightblue" points="567.826,-219.004 558.821,-224.586 569.342,-225.838 567.826,-219.004"/>
</g>
<!-- Node28&#45;&gt;Node12 -->
<g id="edge58" class="edge"><title>Node28&#45;&gt;Node12</title>
<path fill="none" stroke="midnightblue" d="M540.62,-217.856C556.641,-204.197 574.173,-183.876 561.102,-168 558.144,-164.407 441.884,-142.956 375.821,-131.014"/>
<polygon fill="midnightblue" stroke="midnightblue" points="538.158,-215.344 532.549,-224.333 542.539,-220.804 538.158,-215.344"/>
</g>
<!-- Node28&#45;&gt;Node14 -->
<g id="edge59" class="edge"><title>Node28&#45;&gt;Node14</title>
<path fill="none" stroke="midnightblue" d="M569.061,-222.982C622.959,-211.769 703.786,-194.342 717.102,-188 747.837,-173.362 777.725,-145.682 791.772,-131.639"/>
<polygon fill="midnightblue" stroke="midnightblue" points="568.082,-219.61 559.001,-225.068 569.503,-226.465 568.082,-219.61"/>
</g>
<!-- Node28&#45;&gt;Node17 -->
<g id="edge53" class="edge"><title>Node28&#45;&gt;Node17</title>
<path fill="none" stroke="midnightblue" d="M497.064,-219.177C480.503,-209.241 458.684,-196.149 444.526,-187.655"/>
<polygon fill="midnightblue" stroke="midnightblue" points="495.266,-222.18 505.642,-224.324 498.867,-216.178 495.266,-222.18"/>
</g>
<!-- Node28&#45;&gt;Node20 -->
<g id="edge54" class="edge"><title>Node28&#45;&gt;Node20</title>
<path fill="none" stroke="midnightblue" d="M518.002,-214.101C517.006,-205.136 515.864,-194.858 515.074,-187.751"/>
<polygon fill="midnightblue" stroke="midnightblue" points="514.528,-214.531 519.111,-224.083 521.485,-213.758 514.528,-214.531"/>
</g>
<!-- Node28&#45;&gt;Node22 -->
<g id="edge55" class="edge"><title>Node28&#45;&gt;Node22</title>
<path fill="none" stroke="midnightblue" d="M568.755,-222.686C614.167,-212.568 675.992,-197.338 683.102,-188 688.486,-180.928 688.806,-174.817 683.102,-168 681.395,-165.96 540.696,-141.606 470.727,-129.602"/>
<polygon fill="midnightblue" stroke="midnightblue" points="567.775,-219.317 558.764,-224.889 569.283,-226.153 567.775,-219.317"/>
</g>
<!-- Node28&#45;&gt;Node25 -->
<g id="edge56" class="edge"><title>Node28&#45;&gt;Node25</title>
<path fill="none" stroke="midnightblue" d="M482.841,-221.436C450.035,-211.255 403.019,-196.664 373.543,-187.516"/>
<polygon fill="midnightblue" stroke="midnightblue" points="481.943,-224.822 492.531,-224.444 484.018,-218.137 481.943,-224.822"/>
</g>
<!-- Node30&#45;&gt;Node15 -->
<g id="edge65" class="edge"><title>Node30&#45;&gt;Node15</title>
<path fill="none" stroke="midnightblue" d="M788.142,-222.887C826.742,-214.458 882.224,-201.66 930.102,-188 992.439,-170.214 1064.49,-144.753 1100.72,-131.599"/>
<polygon fill="midnightblue" stroke="midnightblue" points="787.246,-219.5 778.215,-225.04 788.73,-226.341 787.246,-219.5"/>
</g>
<!-- Node30&#45;&gt;Node20 -->
<g id="edge62" class="edge"><title>Node30&#45;&gt;Node20</title>
<path fill="none" stroke="midnightblue" d="M694.434,-222.088C651.738,-211.887 588.854,-196.861 549.744,-187.516"/>
<polygon fill="midnightblue" stroke="midnightblue" points="693.752,-225.524 704.291,-224.444 695.378,-218.715 693.752,-225.524"/>
</g>
<!-- Node30&#45;&gt;Node21 -->
<g id="edge63" class="edge"><title>Node30&#45;&gt;Node21</title>
<path fill="none" stroke="midnightblue" d="M772.129,-220.906C799.014,-210.754 836.742,-196.506 860.549,-187.516"/>
<polygon fill="midnightblue" stroke="midnightblue" points="770.879,-217.636 762.76,-224.444 773.352,-224.185 770.879,-217.636"/>
</g>
<!-- Node30&#45;&gt;Node22 -->
<g id="edge64" class="edge"><title>Node30&#45;&gt;Node22</title>
<path fill="none" stroke="midnightblue" d="M733.645,-214.409C727.438,-199.422 716.55,-179.079 700.102,-168 681.343,-155.365 540.328,-136.411 470.727,-127.693"/>
<polygon fill="midnightblue" stroke="midnightblue" points="730.528,-216.06 737.35,-224.166 737.072,-213.575 730.528,-216.06"/>
</g>
<!-- Node31&#45;&gt;Node16 -->
<g id="edge70" class="edge"><title>Node31&#45;&gt;Node16</title>
<path fill="none" stroke="midnightblue" d="M924.382,-216.586C943.57,-192.871 978.362,-149.869 993.15,-131.591"/>
<polygon fill="midnightblue" stroke="midnightblue" points="921.654,-214.393 918.085,-224.368 927.096,-218.796 921.654,-214.393"/>
</g>
<!-- Node31&#45;&gt;Node21 -->
<g id="edge68" class="edge"><title>Node31&#45;&gt;Node21</title>
<path fill="none" stroke="midnightblue" d="M901.759,-214.983C897.007,-205.817 891.446,-195.092 887.639,-187.751"/>
<polygon fill="midnightblue" stroke="midnightblue" points="898.768,-216.817 906.478,-224.083 904.982,-213.594 898.768,-216.817"/>
</g>
<!-- Node32 -->
<g id="node32" class="node"><title>Node32</title>
<g id="a_node32"><a xlink:href="scape_8c.html" target="_top" xlink:title="implementation of scapes ">
<polygon fill="white" stroke="black" points="1016.1,-168.5 1016.1,-187.5 1084.1,-187.5 1084.1,-168.5 1016.1,-168.5"/>
<text text-anchor="middle" x="1050.1" y="-175.5" font-family="Helvetica,sans-Serif" font-size="10.00">src/scape.c</text>
</a>
</g>
</g>
<!-- Node31&#45;&gt;Node32 -->
<g id="edge69" class="edge"><title>Node31&#45;&gt;Node32</title>
<path fill="none" stroke="midnightblue" d="M942.577,-220.772C968.687,-210.629 1005.14,-196.467 1028.18,-187.516"/>
<polygon fill="midnightblue" stroke="midnightblue" points="941.18,-217.56 933.127,-224.444 943.715,-224.085 941.18,-217.56"/>
</g>
<!-- Node33&#45;&gt;Node4 -->
<g id="edge75" class="edge"><title>Node33&#45;&gt;Node4</title>
<path fill="none" stroke="midnightblue" d="M713.302,-287.185C807.603,-282.785 1029.05,-269.951 1099.1,-244 1134.08,-231.043 1168.38,-202.062 1184.13,-187.58"/>
<polygon fill="midnightblue" stroke="midnightblue" points="713.077,-283.691 703.248,-287.644 713.397,-290.684 713.077,-283.691"/>
</g>
<!-- Node33&#45;&gt;Node19 -->
<g id="edge76" class="edge"><title>Node33&#45;&gt;Node19</title>
<path fill="none" stroke="midnightblue" d="M665.27,-270.674C658.93,-246.625 648.059,-205.388 643.367,-187.591"/>
<polygon fill="midnightblue" stroke="midnightblue" points="661.892,-271.591 667.826,-280.368 668.661,-269.807 661.892,-271.591"/>
</g>
</g>
</svg>
