<?xml version="1.0" encoding="UTF-8" standalone="no"?>
<!DOCTYPE svg PUBLIC "-//W3C//DTD SVG 1.1//EN"
 "http://www.w3.org/Graphics/SVG/1.1/DTD/svg11.dtd">
<!-- Generated by graphviz version 2.38.0 (20140413.2041)
 -->
<!-- Title: src/sys_defs.c Pages: 1 -->
<!--zoomable 532 -->
<svg id="main" version="1.1" xmlns="http://www.w3.org/2000/svg" xmlns:xlink="http://www.w3.org/1999/xlink" xml:space="preserve" onload="init(evt)">
<style type="text/css"><![CDATA[
.edge:hover path { stroke: red; }
.edge:hover polygon { stroke: red; fill: red; }
]]></style>
<script type="text/javascript"><![CDATA[
var edges = document.getElementsByTagName('g');
if (edges && edges.length) {
  for (var i=0;i<edges.length;i++) {
    if (edges[i].id.substr(0,4)=='edge') {
      edges[i].setAttribute('class','edge');
    }
  }
}
]]></script>
        <defs>
                <circle id="rim" cx="0" cy="0" r="7"/>
                <circle id="rim2" cx="0" cy="0" r="3.5"/>
                <g id="zoomPlus">
                        <use xlink:href="#rim" fill="#404040">
                                <set attributeName="fill" to="#808080" begin="zoomplus.mouseover" end="zoomplus.mouseout"/>
                        </use>
                        <path d="M-4,0h8M0,-4v8" fill="none" stroke="white" stroke-width="1.5" pointer-events="none"/>
                </g>
                <g id="zoomMin">
                        <use xlink:href="#rim" fill="#404040">
                                <set attributeName="fill" to="#808080" begin="zoomminus.mouseover" end="zoomminus.mouseout"/>
                        </use>
                        <path d="M-4,0h8" fill="none" stroke="white" stroke-width="1.5" pointer-events="none"/>
                </g>
                <g id="dirArrow">
                        <path fill="none" stroke="white" stroke-width="1.5" d="M0,-3.0v7 M-2.5,-0.5L0,-3.0L2.5,-0.5"/>
                </g>
               <g id="resetDef">
                       <use xlink:href="#rim2" fill="#404040">
                               <set attributeName="fill" to="#808080" begin="reset.mouseover" end="reset.mouseout"/>
                       </use>
               </g>
        </defs>

<script type="text/javascript">
var viewWidth = 590;
var viewHeight = 532;
var sectionId = 'dynsection-0';
</script>
<script xlink:href="svgpan.js"/>
<svg id="graph" class="graph">
<g id="viewport">
<title>src/sys_defs.c</title>
<polygon fill="white" stroke="none" points="-4,4 -4,-528 586,-528 586,4 -4,4"/>
<!-- Node1 -->
<g id="node1" class="node"><title>Node1</title>
<polygon fill="#bfbfbf" stroke="black" points="389.5,-504.5 389.5,-523.5 470.5,-523.5 470.5,-504.5 389.5,-504.5"/>
<text text-anchor="middle" x="430" y="-511.5" font-family="Helvetica,sans-Serif" font-size="10.00">src/sys_defs.c</text>
</g>
<!-- Node2 -->
<g id="node2" class="node"><title>Node2</title>
<g id="a_node2"><a xlink:href="tree_8h.html" target="_top" xlink:title="semantic trees header file ">
<polygon fill="white" stroke="black" points="371.5,-336.5 371.5,-355.5 412.5,-355.5 412.5,-336.5 371.5,-336.5"/>
<text text-anchor="middle" x="392" y="-343.5" font-family="Helvetica,sans-Serif" font-size="10.00">tree.h</text>
</a>
</g>
</g>
<!-- Node1&#45;&gt;Node2 -->
<g id="edge1" class="edge"><title>Node1&#45;&gt;Node2</title>
<path fill="none" stroke="midnightblue" d="M427.957,-504.075C421.975,-477.945 404.41,-401.211 396.253,-365.577"/>
<polygon fill="midnightblue" stroke="midnightblue" points="399.605,-364.535 393.961,-355.568 392.781,-366.097 399.605,-364.535"/>
</g>
<!-- Node18 -->
<g id="node18" class="node"><title>Node18</title>
<g id="a_node18"><a xlink:href="base__defs_8h.html" target="_top" xlink:title="auto&#45;generated system definitions ">
<polygon fill="white" stroke="black" points="218,-280.5 218,-299.5 288,-299.5 288,-280.5 218,-280.5"/>
<text text-anchor="middle" x="253" y="-287.5" font-family="Helvetica,sans-Serif" font-size="10.00">base_defs.h</text>
</a>
</g>
</g>
<!-- Node1&#45;&gt;Node18 -->
<g id="edge41" class="edge"><title>Node1&#45;&gt;Node18</title>
<path fill="none" stroke="midnightblue" d="M389.11,-507.37C338.773,-497.885 256.243,-473.316 226,-412 209.097,-377.729 228.625,-332.797 242.183,-308.474"/>
<polygon fill="midnightblue" stroke="midnightblue" points="245.302,-310.073 247.336,-299.675 239.261,-306.535 245.302,-310.073"/>
</g>
<!-- Node21 -->
<g id="node21" class="node"><title>Node21</title>
<g id="a_node21"><a xlink:href="def_8h.html" target="_top" xlink:title="header file for symbol and structure definition functions ">
<polygon fill="white" stroke="black" points="458,-392.5 458,-411.5 496,-411.5 496,-392.5 458,-392.5"/>
<text text-anchor="middle" x="477" y="-399.5" font-family="Helvetica,sans-Serif" font-size="10.00">def.h</text>
</a>
</g>
</g>
<!-- Node1&#45;&gt;Node21 -->
<g id="edge28" class="edge"><title>Node1&#45;&gt;Node21</title>
<path fill="none" stroke="midnightblue" d="M433.688,-504.368C441.341,-486.456 459.087,-444.923 469.331,-420.948"/>
<polygon fill="midnightblue" stroke="midnightblue" points="472.618,-422.162 473.329,-411.591 466.181,-419.412 472.618,-422.162"/>
</g>
<!-- Node22 -->
<g id="node22" class="node"><title>Node22</title>
<polygon fill="white" stroke="#bfbfbf" points="474,-336.5 474,-355.5 526,-355.5 526,-336.5 474,-336.5"/>
<text text-anchor="middle" x="500" y="-343.5" font-family="Helvetica,sans-Serif" font-size="10.00">stdarg.h</text>
</g>
<!-- Node1&#45;&gt;Node22 -->
<g id="edge42" class="edge"><title>Node1&#45;&gt;Node22</title>
<path fill="none" stroke="midnightblue" d="M439.728,-504.499C457.154,-488.51 492.994,-451.95 505,-412 509.581,-396.757 507.62,-378.647 504.923,-365.419"/>
<polygon fill="midnightblue" stroke="midnightblue" points="508.315,-364.554 502.611,-355.626 501.502,-366.163 508.315,-364.554"/>
</g>
<!-- Node23 -->
<g id="node23" class="node"><title>Node23</title>
<g id="a_node23"><a xlink:href="receptor_8h.html" target="_top" xlink:title="receptor implementation header file ">
<polygon fill="white" stroke="black" points="308,-448.5 308,-467.5 368,-467.5 368,-448.5 308,-448.5"/>
<text text-anchor="middle" x="338" y="-455.5" font-family="Helvetica,sans-Serif" font-size="10.00">receptor.h</text>
</a>
</g>
</g>
<!-- Node1&#45;&gt;Node23 -->
<g id="edge31" class="edge"><title>Node1&#45;&gt;Node23</title>
<path fill="none" stroke="midnightblue" d="M415.219,-504.324C400.733,-495.822 378.427,-482.729 361.507,-472.797"/>
<polygon fill="midnightblue" stroke="midnightblue" points="363.141,-469.698 352.745,-467.655 359.597,-475.735 363.141,-469.698"/>
</g>
<!-- Node3 -->
<g id="node3" class="node"><title>Node3</title>
<polygon fill="white" stroke="#bfbfbf" points="471.5,-0.5 471.5,-19.5 520.5,-19.5 520.5,-0.5 471.5,-0.5"/>
<text text-anchor="middle" x="496" y="-7.5" font-family="Helvetica,sans-Serif" font-size="10.00">string.h</text>
</g>
<!-- Node2&#45;&gt;Node3 -->
<g id="edge2" class="edge"><title>Node2&#45;&gt;Node3</title>
<path fill="none" stroke="midnightblue" d="M412.695,-342.805C461.939,-336.323 582,-312.565 582,-235 582,-235 582,-235 582,-121 582,-79.583 543.693,-44.4526 518.212,-25.6658"/>
<polygon fill="midnightblue" stroke="midnightblue" points="520,-22.6436 509.817,-19.7187 515.954,-28.3555 520,-22.6436"/>
</g>
<!-- Node4 -->
<g id="node4" class="node"><title>Node4</title>
<polygon fill="white" stroke="#bfbfbf" points="319,-0.5 319,-19.5 367,-19.5 367,-0.5 319,-0.5"/>
<text text-anchor="middle" x="343" y="-7.5" font-family="Helvetica,sans-Serif" font-size="10.00">stdlib.h</text>
</g>
<!-- Node2&#45;&gt;Node4 -->
<g id="edge3" class="edge"><title>Node2&#45;&gt;Node4</title>
<path fill="none" stroke="midnightblue" d="M398.027,-336.319C427.412,-293.498 552.738,-104.881 515,-56 498.288,-34.3534 422.305,-21.1135 377.109,-15.0135"/>
<polygon fill="midnightblue" stroke="midnightblue" points="377.519,-11.5373 367.151,-13.7174 376.615,-18.4788 377.519,-11.5373"/>
</g>
<!-- Node5 -->
<g id="node5" class="node"><title>Node5</title>
<g id="a_node5"><a xlink:href="ceptr__error_8h_source.html" target="_top" xlink:title="ceptr_error.h">
<polygon fill="white" stroke="black" points="375.5,-112.5 375.5,-131.5 446.5,-131.5 446.5,-112.5 375.5,-112.5"/>
<text text-anchor="middle" x="411" y="-119.5" font-family="Helvetica,sans-Serif" font-size="10.00">ceptr_error.h</text>
</a>
</g>
</g>
<!-- Node2&#45;&gt;Node5 -->
<g id="edge4" class="edge"><title>Node2&#45;&gt;Node5</title>
<path fill="none" stroke="midnightblue" d="M392.745,-336.297C395.54,-303.633 405.448,-187.866 409.378,-141.957"/>
<polygon fill="midnightblue" stroke="midnightblue" points="412.874,-142.146 410.24,-131.884 405.9,-141.549 412.874,-142.146"/>
</g>
<!-- Node10 -->
<g id="node10" class="node"><title>Node10</title>
<g id="a_node10"><a xlink:href="sys__defs_8h.html" target="_top" xlink:title="Defines types and vars for system defined semantics. ">
<polygon fill="white" stroke="black" points="226.5,-224.5 226.5,-243.5 291.5,-243.5 291.5,-224.5 226.5,-224.5"/>
<text text-anchor="middle" x="259" y="-231.5" font-family="Helvetica,sans-Serif" font-size="10.00">sys_defs.h</text>
</a>
</g>
</g>
<!-- Node2&#45;&gt;Node10 -->
<g id="edge9" class="edge"><title>Node2&#45;&gt;Node10</title>
<path fill="none" stroke="midnightblue" d="M381.564,-336.368C359.032,-317.733 305.589,-273.532 277.298,-250.134"/>
<polygon fill="midnightblue" stroke="midnightblue" points="279.324,-247.268 269.388,-243.591 274.863,-252.662 279.324,-247.268"/>
</g>
<!-- Node11 -->
<g id="node11" class="node"><title>Node11</title>
<g id="a_node11"><a xlink:href="ceptr__types_8h_source.html" target="_top" xlink:title="ceptr_types.h">
<polygon fill="white" stroke="black" points="166,-112.5 166,-131.5 242,-131.5 242,-112.5 166,-112.5"/>
<text text-anchor="middle" x="204" y="-119.5" font-family="Helvetica,sans-Serif" font-size="10.00">ceptr_types.h</text>
</a>
</g>
</g>
<!-- Node2&#45;&gt;Node11 -->
<g id="edge24" class="edge"><title>Node2&#45;&gt;Node11</title>
<path fill="none" stroke="midnightblue" d="M386.874,-336.217C370.847,-309.191 319.377,-225.619 263,-168 251.8,-156.553 237.565,-145.613 225.884,-137.385"/>
<polygon fill="midnightblue" stroke="midnightblue" points="227.766,-134.433 217.541,-131.659 223.805,-140.204 227.766,-134.433"/>
</g>
<!-- Node2&#45;&gt;Node18 -->
<g id="edge22" class="edge"><title>Node2&#45;&gt;Node18</title>
<path fill="none" stroke="midnightblue" d="M371.49,-337.032C348.589,-328.135 311.248,-313.629 284.606,-303.279"/>
<polygon fill="midnightblue" stroke="midnightblue" points="285.561,-299.895 274.972,-299.536 283.026,-306.42 285.561,-299.895"/>
</g>
<!-- Node19 -->
<g id="node19" class="node"><title>Node19</title>
<g id="a_node19"><a xlink:href="stream_8h.html" target="_top" xlink:title="streams abstraction header file ">
<polygon fill="white" stroke="black" points="458.5,-280.5 458.5,-299.5 513.5,-299.5 513.5,-280.5 458.5,-280.5"/>
<text text-anchor="middle" x="486" y="-287.5" font-family="Helvetica,sans-Serif" font-size="10.00">stream.h</text>
</a>
</g>
</g>
<!-- Node2&#45;&gt;Node19 -->
<g id="edge25" class="edge"><title>Node2&#45;&gt;Node19</title>
<path fill="none" stroke="midnightblue" d="M407.103,-336.324C421.903,-327.822 444.694,-314.729 461.982,-304.797"/>
<polygon fill="midnightblue" stroke="midnightblue" points="464.007,-307.671 470.935,-299.655 460.52,-301.601 464.007,-307.671"/>
</g>
<!-- Node6 -->
<g id="node6" class="node"><title>Node6</title>
<polygon fill="white" stroke="#bfbfbf" points="250,-56.5 250,-75.5 296,-75.5 296,-56.5 250,-56.5"/>
<text text-anchor="middle" x="273" y="-63.5" font-family="Helvetica,sans-Serif" font-size="10.00">stdio.h</text>
</g>
<!-- Node5&#45;&gt;Node6 -->
<g id="edge5" class="edge"><title>Node5&#45;&gt;Node6</title>
<path fill="none" stroke="midnightblue" d="M389.133,-112.444C366.221,-103.478 330.025,-89.314 304.134,-79.1827"/>
<polygon fill="midnightblue" stroke="midnightblue" points="305.352,-75.9011 294.764,-75.5164 302.801,-82.4198 305.352,-75.9011"/>
</g>
<!-- Node7 -->
<g id="node7" class="node"><title>Node7</title>
<polygon fill="white" stroke="#bfbfbf" points="386,-56.5 386,-75.5 436,-75.5 436,-56.5 386,-56.5"/>
<text text-anchor="middle" x="411" y="-63.5" font-family="Helvetica,sans-Serif" font-size="10.00">signal.h</text>
</g>
<!-- Node5&#45;&gt;Node7 -->
<g id="edge6" class="edge"><title>Node5&#45;&gt;Node7</title>
<path fill="none" stroke="midnightblue" d="M411,-112.083C411,-105.006 411,-94.8611 411,-85.9865"/>
<polygon fill="midnightblue" stroke="midnightblue" points="414.5,-85.751 411,-75.7511 407.5,-85.7511 414.5,-85.751"/>
</g>
<!-- Node8 -->
<g id="node8" class="node"><title>Node8</title>
<polygon fill="white" stroke="#bfbfbf" points="454,-56.5 454,-75.5 506,-75.5 506,-56.5 454,-56.5"/>
<text text-anchor="middle" x="480" y="-63.5" font-family="Helvetica,sans-Serif" font-size="10.00">assert.h</text>
</g>
<!-- Node5&#45;&gt;Node8 -->
<g id="edge7" class="edge"><title>Node5&#45;&gt;Node8</title>
<path fill="none" stroke="midnightblue" d="M422.086,-112.324C432.486,-104.185 448.261,-91.8395 460.722,-82.0874"/>
<polygon fill="midnightblue" stroke="midnightblue" points="462.994,-84.7533 468.712,-75.8339 458.68,-79.2407 462.994,-84.7533"/>
</g>
<!-- Node9 -->
<g id="node9" class="node"><title>Node9</title>
<polygon fill="white" stroke="#bfbfbf" points="314,-56.5 314,-75.5 368,-75.5 368,-56.5 314,-56.5"/>
<text text-anchor="middle" x="341" y="-63.5" font-family="Helvetica,sans-Serif" font-size="10.00">setjmp.h</text>
</g>
<!-- Node5&#45;&gt;Node9 -->
<g id="edge8" class="edge"><title>Node5&#45;&gt;Node9</title>
<path fill="none" stroke="midnightblue" d="M399.753,-112.324C389.203,-104.185 373.199,-91.8395 360.558,-82.0874"/>
<polygon fill="midnightblue" stroke="midnightblue" points="362.507,-79.1707 352.451,-75.8339 358.231,-84.7132 362.507,-79.1707"/>
</g>
<!-- Node10&#45;&gt;Node11 -->
<g id="edge10" class="edge"><title>Node10&#45;&gt;Node11</title>
<path fill="none" stroke="midnightblue" d="M258.546,-224.099C257.569,-211.103 254.513,-186.473 245,-168 239.28,-156.892 230.099,-146.447 221.874,-138.421"/>
<polygon fill="midnightblue" stroke="midnightblue" points="224.141,-135.75 214.425,-131.525 219.386,-140.887 224.141,-135.75"/>
</g>
<!-- Node17 -->
<g id="node17" class="node"><title>Node17</title>
<g id="a_node17"><a xlink:href="semtable_8h.html" target="_top" xlink:title="header file for table for coordinating meaning across a vmhost ">
<polygon fill="white" stroke="black" points="171.5,-168.5 171.5,-187.5 236.5,-187.5 236.5,-168.5 171.5,-168.5"/>
<text text-anchor="middle" x="204" y="-175.5" font-family="Helvetica,sans-Serif" font-size="10.00">semtable.h</text>
</a>
</g>
</g>
<!-- Node10&#45;&gt;Node17 -->
<g id="edge19" class="edge"><title>Node10&#45;&gt;Node17</title>
<path fill="none" stroke="midnightblue" d="M249.918,-224.083C241.829,-216.141 229.805,-204.335 220.09,-194.797"/>
<polygon fill="midnightblue" stroke="midnightblue" points="222.501,-192.26 212.913,-187.751 217.597,-197.254 222.501,-192.26"/>
</g>
<!-- Node11&#45;&gt;Node6 -->
<g id="edge12" class="edge"><title>Node11&#45;&gt;Node6</title>
<path fill="none" stroke="midnightblue" d="M215.086,-112.324C225.486,-104.185 241.261,-91.8395 253.722,-82.0874"/>
<polygon fill="midnightblue" stroke="midnightblue" points="255.994,-84.7533 261.712,-75.8339 251.68,-79.2407 255.994,-84.7533"/>
</g>
<!-- Node12 -->
<g id="node12" class="node"><title>Node12</title>
<polygon fill="white" stroke="#bfbfbf" points="108.5,-56.5 108.5,-75.5 157.5,-75.5 157.5,-56.5 108.5,-56.5"/>
<text text-anchor="middle" x="133" y="-63.5" font-family="Helvetica,sans-Serif" font-size="10.00">stdint.h</text>
</g>
<!-- Node11&#45;&gt;Node12 -->
<g id="edge11" class="edge"><title>Node11&#45;&gt;Node12</title>
<path fill="none" stroke="midnightblue" d="M192.593,-112.324C181.891,-104.185 165.659,-91.8395 152.837,-82.0874"/>
<polygon fill="midnightblue" stroke="midnightblue" points="154.693,-79.1018 144.615,-75.8339 150.456,-84.6734 154.693,-79.1018"/>
</g>
<!-- Node13 -->
<g id="node13" class="node"><title>Node13</title>
<g id="a_node13"><a xlink:href="uthash_8h_source.html" target="_top" xlink:title="uthash.h">
<polygon fill="white" stroke="black" points="36,-56.5 36,-75.5 90,-75.5 90,-56.5 36,-56.5"/>
<text text-anchor="middle" x="63" y="-63.5" font-family="Helvetica,sans-Serif" font-size="10.00">uthash.h</text>
</a>
</g>
</g>
<!-- Node11&#45;&gt;Node13 -->
<g id="edge13" class="edge"><title>Node11&#45;&gt;Node13</title>
<path fill="none" stroke="midnightblue" d="M181.658,-112.444C158.247,-103.478 121.264,-89.314 94.8104,-79.1827"/>
<polygon fill="midnightblue" stroke="midnightblue" points="95.8277,-75.8245 85.2373,-75.5164 93.3241,-82.3615 95.8277,-75.8245"/>
</g>
<!-- Node16 -->
<g id="node16" class="node"><title>Node16</title>
<polygon fill="white" stroke="#bfbfbf" points="176,-56.5 176,-75.5 232,-75.5 232,-56.5 176,-56.5"/>
<text text-anchor="middle" x="204" y="-63.5" font-family="Helvetica,sans-Serif" font-size="10.00">stdbool.h</text>
</g>
<!-- Node11&#45;&gt;Node16 -->
<g id="edge18" class="edge"><title>Node11&#45;&gt;Node16</title>
<path fill="none" stroke="midnightblue" d="M204,-112.083C204,-105.006 204,-94.8611 204,-85.9865"/>
<polygon fill="midnightblue" stroke="midnightblue" points="207.5,-85.751 204,-75.7511 200.5,-85.7511 207.5,-85.751"/>
</g>
<!-- Node13&#45;&gt;Node3 -->
<g id="edge14" class="edge"><title>Node13&#45;&gt;Node3</title>
<path fill="none" stroke="midnightblue" d="M90.0437,-57.832C93.0533,-57.1559 96.0838,-56.5274 99,-56 231.498,-32.0366 391.32,-18.541 460.846,-13.4166"/>
<polygon fill="midnightblue" stroke="midnightblue" points="461.491,-16.8792 471.212,-12.6657 460.985,-9.89746 461.491,-16.8792"/>
</g>
<!-- Node13&#45;&gt;Node4 -->
<g id="edge16" class="edge"><title>Node13&#45;&gt;Node4</title>
<path fill="none" stroke="midnightblue" d="M90.0842,-58.036C93.0863,-57.3216 96.1039,-56.6284 99,-56 173.358,-39.8649 261.271,-24.5717 308.631,-16.6405"/>
<polygon fill="midnightblue" stroke="midnightblue" points="309.368,-20.066 318.657,-14.9701 308.218,-13.1612 309.368,-20.066"/>
</g>
<!-- Node14 -->
<g id="node14" class="node"><title>Node14</title>
<polygon fill="white" stroke="#bfbfbf" points="0,-0.5 0,-19.5 52,-19.5 52,-0.5 0,-0.5"/>
<text text-anchor="middle" x="26" y="-7.5" font-family="Helvetica,sans-Serif" font-size="10.00">stddef.h</text>
</g>
<!-- Node13&#45;&gt;Node14 -->
<g id="edge15" class="edge"><title>Node13&#45;&gt;Node14</title>
<path fill="none" stroke="midnightblue" d="M56.8902,-56.083C51.7178,-48.5341 44.1539,-37.4948 37.8056,-28.2298"/>
<polygon fill="midnightblue" stroke="midnightblue" points="40.5357,-26.0221 31.9961,-19.7511 34.7612,-29.9787 40.5357,-26.0221"/>
</g>
<!-- Node15 -->
<g id="node15" class="node"><title>Node15</title>
<polygon fill="white" stroke="#bfbfbf" points="70.5,-0.5 70.5,-19.5 129.5,-19.5 129.5,-0.5 70.5,-0.5"/>
<text text-anchor="middle" x="100" y="-7.5" font-family="Helvetica,sans-Serif" font-size="10.00">inttypes.h</text>
</g>
<!-- Node13&#45;&gt;Node15 -->
<g id="edge17" class="edge"><title>Node13&#45;&gt;Node15</title>
<path fill="none" stroke="midnightblue" d="M69.1098,-56.083C74.2822,-48.5341 81.8461,-37.4948 88.1944,-28.2298"/>
<polygon fill="midnightblue" stroke="midnightblue" points="91.2388,-29.9787 94.0039,-19.7511 85.4643,-26.0221 91.2388,-29.9787"/>
</g>
<!-- Node17&#45;&gt;Node5 -->
<g id="edge21" class="edge"><title>Node17&#45;&gt;Node5</title>
<path fill="none" stroke="midnightblue" d="M236.8,-168.444C272.38,-159.162 329.314,-144.309 368.347,-134.127"/>
<polygon fill="midnightblue" stroke="midnightblue" points="369.561,-137.427 378.354,-131.516 367.794,-130.654 369.561,-137.427"/>
</g>
<!-- Node17&#45;&gt;Node11 -->
<g id="edge20" class="edge"><title>Node17&#45;&gt;Node11</title>
<path fill="none" stroke="midnightblue" d="M204,-168.083C204,-161.006 204,-150.861 204,-141.986"/>
<polygon fill="midnightblue" stroke="midnightblue" points="207.5,-141.751 204,-131.751 200.5,-141.751 207.5,-141.751"/>
</g>
<!-- Node18&#45;&gt;Node10 -->
<g id="edge23" class="edge"><title>Node18&#45;&gt;Node10</title>
<path fill="none" stroke="midnightblue" d="M253.991,-280.083C254.786,-272.927 255.929,-262.635 256.923,-253.691"/>
<polygon fill="midnightblue" stroke="midnightblue" points="260.402,-254.076 258.028,-243.751 253.445,-253.303 260.402,-254.076"/>
</g>
<!-- Node19&#45;&gt;Node6 -->
<g id="edge26" class="edge"><title>Node19&#45;&gt;Node6</title>
<path fill="none" stroke="midnightblue" d="M477.65,-280.297C445.646,-246.94 330.494,-126.923 288.481,-83.1349"/>
<polygon fill="midnightblue" stroke="midnightblue" points="290.972,-80.6764 281.524,-75.8837 285.921,-85.5228 290.972,-80.6764"/>
</g>
<!-- Node20 -->
<g id="node20" class="node"><title>Node20</title>
<polygon fill="white" stroke="#bfbfbf" points="496.5,-224.5 496.5,-243.5 553.5,-243.5 553.5,-224.5 496.5,-224.5"/>
<text text-anchor="middle" x="525" y="-231.5" font-family="Helvetica,sans-Serif" font-size="10.00">pthread.h</text>
</g>
<!-- Node19&#45;&gt;Node20 -->
<g id="edge27" class="edge"><title>Node19&#45;&gt;Node20</title>
<path fill="none" stroke="midnightblue" d="M492.44,-280.083C497.949,-272.455 506.031,-261.264 512.765,-251.941"/>
<polygon fill="midnightblue" stroke="midnightblue" points="515.662,-253.907 518.68,-243.751 509.987,-249.809 515.662,-253.907"/>
</g>
<!-- Node21&#45;&gt;Node2 -->
<g id="edge29" class="edge"><title>Node21&#45;&gt;Node2</title>
<path fill="none" stroke="midnightblue" d="M463.343,-392.324C450.084,-383.9 429.732,-370.971 414.154,-361.074"/>
<polygon fill="midnightblue" stroke="midnightblue" points="415.94,-358.063 405.623,-355.655 412.187,-363.971 415.94,-358.063"/>
</g>
<!-- Node21&#45;&gt;Node22 -->
<g id="edge30" class="edge"><title>Node21&#45;&gt;Node22</title>
<path fill="none" stroke="midnightblue" d="M480.798,-392.083C483.913,-384.77 488.423,-374.181 492.289,-365.103"/>
<polygon fill="midnightblue" stroke="midnightblue" points="495.574,-366.323 496.273,-355.751 489.134,-363.58 495.574,-366.323"/>
</g>
<!-- Node23&#45;&gt;Node2 -->
<g id="edge33" class="edge"><title>Node23&#45;&gt;Node2</title>
<path fill="none" stroke="midnightblue" d="M346.036,-448.321C353.655,-439.687 364.955,-425.774 372,-412 379.56,-397.218 384.85,-379.062 388.082,-365.7"/>
<polygon fill="midnightblue" stroke="midnightblue" points="391.533,-366.307 390.317,-355.782 384.704,-364.768 391.533,-366.307"/>
</g>
<!-- Node23&#45;&gt;Node17 -->
<g id="edge32" class="edge"><title>Node23&#45;&gt;Node17</title>
<path fill="none" stroke="midnightblue" d="M307.863,-453.215C282.021,-448.301 245.902,-437.137 226,-412 175.295,-347.959 190.66,-240.812 199.595,-197.754"/>
<polygon fill="midnightblue" stroke="midnightblue" points="203.049,-198.342 201.784,-187.823 196.213,-196.835 203.049,-198.342"/>
</g>
<!-- Node23&#45;&gt;Node21 -->
<g id="edge34" class="edge"><title>Node23&#45;&gt;Node21</title>
<path fill="none" stroke="midnightblue" d="M360.025,-448.444C383.919,-439.161 422.152,-424.308 448.362,-414.125"/>
<polygon fill="midnightblue" stroke="midnightblue" points="449.71,-417.357 457.764,-410.473 447.175,-410.832 449.71,-417.357"/>
</g>
<!-- Node24 -->
<g id="node24" class="node"><title>Node24</title>
<g id="a_node24"><a xlink:href="label_8h.html" target="_top" xlink:title="Label tables map human readable text strings to parts of semantic trees. ">
<polygon fill="white" stroke="black" points="108.5,-168.5 108.5,-187.5 153.5,-187.5 153.5,-168.5 108.5,-168.5"/>
<text text-anchor="middle" x="131" y="-175.5" font-family="Helvetica,sans-Serif" font-size="10.00">label.h</text>
</a>
</g>
</g>
<!-- Node23&#45;&gt;Node24 -->
<g id="edge35" class="edge"><title>Node23&#45;&gt;Node24</title>
<path fill="none" stroke="midnightblue" d="M307.9,-454.71C250.489,-448.528 131,-426.155 131,-347 131,-347 131,-347 131,-289 131,-256.948 131,-219.643 131,-197.749"/>
<polygon fill="midnightblue" stroke="midnightblue" points="134.5,-197.558 131,-187.558 127.5,-197.558 134.5,-197.558"/>
</g>
<!-- Node25 -->
<g id="node25" class="node"><title>Node25</title>
<g id="a_node25"><a xlink:href="process_8h.html" target="_top" xlink:title="processing header files ">
<polygon fill="white" stroke="black" points="235.5,-392.5 235.5,-411.5 294.5,-411.5 294.5,-392.5 235.5,-392.5"/>
<text text-anchor="middle" x="265" y="-399.5" font-family="Helvetica,sans-Serif" font-size="10.00">process.h</text>
</a>
</g>
</g>
<!-- Node23&#45;&gt;Node25 -->
<g id="edge37" class="edge"><title>Node23&#45;&gt;Node25</title>
<path fill="none" stroke="midnightblue" d="M326.271,-448.324C315.163,-440.107 298.258,-427.602 285.017,-417.807"/>
<polygon fill="midnightblue" stroke="midnightblue" points="287.063,-414.967 276.942,-411.834 282.9,-420.595 287.063,-414.967"/>
</g>
<!-- Node26 -->
<g id="node26" class="node"><title>Node26</title>
<g id="a_node26"><a xlink:href="scape_8h.html" target="_top" xlink:title="scape header files ">
<polygon fill="white" stroke="black" points="312.5,-392.5 312.5,-411.5 363.5,-411.5 363.5,-392.5 312.5,-392.5"/>
<text text-anchor="middle" x="338" y="-399.5" font-family="Helvetica,sans-Serif" font-size="10.00">scape.h</text>
</a>
</g>
</g>
<!-- Node23&#45;&gt;Node26 -->
<g id="edge39" class="edge"><title>Node23&#45;&gt;Node26</title>
<path fill="none" stroke="midnightblue" d="M338,-448.083C338,-441.006 338,-430.861 338,-421.986"/>
<polygon fill="midnightblue" stroke="midnightblue" points="341.5,-421.751 338,-411.751 334.5,-421.751 341.5,-421.751"/>
</g>
<!-- Node24&#45;&gt;Node11 -->
<g id="edge36" class="edge"><title>Node24&#45;&gt;Node11</title>
<path fill="none" stroke="midnightblue" d="M142.729,-168.324C153.837,-160.107 170.742,-147.602 183.983,-137.807"/>
<polygon fill="midnightblue" stroke="midnightblue" points="186.1,-140.595 192.058,-131.834 181.937,-134.967 186.1,-140.595"/>
</g>
<!-- Node25&#45;&gt;Node2 -->
<g id="edge38" class="edge"><title>Node25&#45;&gt;Node2</title>
<path fill="none" stroke="midnightblue" d="M285.124,-392.444C306.024,-383.557 338.935,-369.563 362.716,-359.451"/>
<polygon fill="midnightblue" stroke="midnightblue" points="364.138,-362.65 371.971,-355.516 361.398,-356.208 364.138,-362.65"/>
</g>
<!-- Node26&#45;&gt;Node2 -->
<g id="edge40" class="edge"><title>Node26&#45;&gt;Node2</title>
<path fill="none" stroke="midnightblue" d="M346.917,-392.083C354.78,-384.22 366.431,-372.569 375.919,-363.081"/>
<polygon fill="midnightblue" stroke="midnightblue" points="378.653,-365.297 383.249,-355.751 373.703,-360.347 378.653,-365.297"/>
</g>
</g>
</svg>
        <g id="navigator" transform="translate(0 0)" fill="#404254">
                <rect fill="#f2f5e9" fill-opacity="0.5" stroke="#606060" stroke-width=".5" x="0" y="0" width="60" height="60"/>
                <use id="zoomplus" xlink:href="#zoomPlus" x="17" y="9" onmousedown="handleZoom(evt,'in')"/>
                <use id="zoomminus" xlink:href="#zoomMin" x="42" y="9" onmousedown="handleZoom(evt,'out')"/>
                <use id="reset" xlink:href="#resetDef" x="30" y="36" onmousedown="handleReset()"/>
                <g id="arrowUp" xlink:href="#dirArrow" transform="translate(30 24)" onmousedown="handlePan(0,-1)">
                  <use xlink:href="#rim" fill="#404040">
                        <set attributeName="fill" to="#808080" begin="arrowUp.mouseover" end="arrowUp.mouseout"/>
                  </use>
                  <path fill="none" stroke="white" stroke-width="1.5" d="M0,-3.0v7 M-2.5,-0.5L0,-3.0L2.5,-0.5"/>
                </g>
                <g id="arrowRight" xlink:href="#dirArrow" transform="rotate(90) translate(36 -43)" onmousedown="handlePan(1,0)">
                  <use xlink:href="#rim" fill="#404040">
                        <set attributeName="fill" to="#808080" begin="arrowRight.mouseover" end="arrowRight.mouseout"/>
                  </use>
                  <path fill="none" stroke="white" stroke-width="1.5" d="M0,-3.0v7 M-2.5,-0.5L0,-3.0L2.5,-0.5"/>
                </g>
                <g id="arrowDown" xlink:href="#dirArrow" transform="rotate(180) translate(-30 -48)" onmousedown="handlePan(0,1)">
                  <use xlink:href="#rim" fill="#404040">
                        <set attributeName="fill" to="#808080" begin="arrowDown.mouseover" end="arrowDown.mouseout"/>
                  </use>
                  <path fill="none" stroke="white" stroke-width="1.5" d="M0,-3.0v7 M-2.5,-0.5L0,-3.0L2.5,-0.5"/>
                </g>
                <g id="arrowLeft" xlink:href="#dirArrow" transform="rotate(270) translate(-36 17)" onmousedown="handlePan(-1,0)">
                  <use xlink:href="#rim" fill="#404040">
                        <set attributeName="fill" to="#808080" begin="arrowLeft.mouseover" end="arrowLeft.mouseout"/>
                  </use>
                  <path fill="none" stroke="white" stroke-width="1.5" d="M0,-3.0v7 M-2.5,-0.5L0,-3.0L2.5,-0.5"/>
                </g>
        </g>
        <svg viewBox="0 0 15 15" width="100%" height="30px" preserveAspectRatio="xMaxYMin meet">
         <g id="arrow_out" transform="scale(0.3 0.3)">
          <a xlink:href="sys__defs_8c__incl_org.svg" target="_base">
           <rect id="button" ry="5" rx="5" y="6" x="6" height="38" width="38"
                fill="#f2f5e9" fill-opacity="0.5" stroke="#606060" stroke-width="1.0"/>
           <path id="arrow"
             d="M 11.500037,31.436501 C 11.940474,20.09759 22.043105,11.32322 32.158766,21.979434 L 37.068811,17.246167 C 37.068811,17.246167 37.088388,32 37.088388,32 L 22.160133,31.978069 C 22.160133,31.978069 26.997745,27.140456 26.997745,27.140456 C 18.528582,18.264221 13.291696,25.230495 11.500037,31.436501 z"
             style="fill:#404040;"/>
          </a>
         </g>
        </svg>
</svg>
