<?xml version="1.0" encoding="UTF-8" standalone="no"?>
<!DOCTYPE svg PUBLIC "-//W3C//DTD SVG 1.1//EN"
 "http://www.w3.org/Graphics/SVG/1.1/DTD/svg11.dtd">
<!-- Generated by graphviz version 2.38.0 (20140413.2041)
 -->
<!-- Title: src/sys_processes.h Pages: 1 -->
<!--zoomable 364 -->
<svg id="main" version="1.1" xmlns="http://www.w3.org/2000/svg" xmlns:xlink="http://www.w3.org/1999/xlink" xml:space="preserve" onload="init(evt)">
<style type="text/css"><![CDATA[
.edge:hover path { stroke: red; }
.edge:hover polygon { stroke: red; fill: red; }
]]></style>
<script type="text/javascript"><![CDATA[
var edges = document.getElementsByTagName('g');
if (edges && edges.length) {
  for (var i=0;i<edges.length;i++) {
    if (edges[i].id.substr(0,4)=='edge') {
      edges[i].setAttribute('class','edge');
    }
  }
}
]]></script>
        <defs>
                <circle id="rim" cx="0" cy="0" r="7"/>
                <circle id="rim2" cx="0" cy="0" r="3.5"/>
                <g id="zoomPlus">
                        <use xlink:href="#rim" fill="#404040">
                                <set attributeName="fill" to="#808080" begin="zoomplus.mouseover" end="zoomplus.mouseout"/>
                        </use>
                        <path d="M-4,0h8M0,-4v8" fill="none" stroke="white" stroke-width="1.5" pointer-events="none"/>
                </g>
                <g id="zoomMin">
                        <use xlink:href="#rim" fill="#404040">
                                <set attributeName="fill" to="#808080" begin="zoomminus.mouseover" end="zoomminus.mouseout"/>
                        </use>
                        <path d="M-4,0h8" fill="none" stroke="white" stroke-width="1.5" pointer-events="none"/>
                </g>
                <g id="dirArrow">
                        <path fill="none" stroke="white" stroke-width="1.5" d="M0,-3.0v7 M-2.5,-0.5L0,-3.0L2.5,-0.5"/>
                </g>
               <g id="resetDef">
                       <use xlink:href="#rim2" fill="#404040">
                               <set attributeName="fill" to="#808080" begin="reset.mouseover" end="reset.mouseout"/>
                       </use>
               </g>
        </defs>

<script type="text/javascript">
var viewWidth = 1404;
var viewHeight = 364;
var sectionId = 'dynsection-0';
</script>
<script xlink:href="svgpan.js"/>
<svg id="graph" class="graph">
<g id="viewport">
<title>src/sys_processes.h</title>
<polygon fill="white" stroke="none" points="-4,4 -4,-360 1400.4,-360 1400.4,4 -4,4"/>
<!-- Node1 -->
<g id="node1" class="node"><title>Node1</title>
<polygon fill="#bfbfbf" stroke="black" points="590.899,-336.5 590.899,-355.5 697.899,-355.5 697.899,-336.5 590.899,-336.5"/>
<text text-anchor="middle" x="644.399" y="-343.5" font-family="Helvetica,sans-Serif" font-size="10.00">src/sys_processes.h</text>
</g>
<!-- Node2 -->
<g id="node2" class="node"><title>Node2</title>
<g id="a_node2"><a xlink:href="tree_8h.html" target="_top" xlink:title="semantic trees header file ">
<polygon fill="white" stroke="black" points="504.399,-280.5 504.399,-299.5 562.399,-299.5 562.399,-280.5 504.399,-280.5"/>
<text text-anchor="middle" x="533.399" y="-287.5" font-family="Helvetica,sans-Serif" font-size="10.00">src/tree.h</text>
</a>
</g>
</g>
<!-- Node1&#45;&gt;Node2 -->
<g id="edge1" class="edge"><title>Node1&#45;&gt;Node2</title>
<path fill="none" stroke="midnightblue" d="M617.394,-331.862C596.811,-321.849 569.054,-308.346 551.189,-299.655"/>
<polygon fill="midnightblue" stroke="midnightblue" points="616.042,-335.097 626.565,-336.324 619.104,-328.802 616.042,-335.097"/>
</g>
<!-- Node32 -->
<g id="node32" class="node"><title>Node32</title>
<g id="a_node32"><a xlink:href="mtree_8h.html" target="_top" xlink:title="semantic tree matrix header file `` ">
<polygon fill="white" stroke="black" points="855.399,-224.5 855.399,-243.5 921.399,-243.5 921.399,-224.5 855.399,-224.5"/>
<text text-anchor="middle" x="888.399" y="-231.5" font-family="Helvetica,sans-Serif" font-size="10.00">src/mtree.h</text>
</a>
</g>
</g>
<!-- Node1&#45;&gt;Node32 -->
<g id="edge75" class="edge"><title>Node1&#45;&gt;Node32</title>
<path fill="none" stroke="midnightblue" d="M672.873,-332.163C723.22,-309.466 826.665,-262.831 869.342,-243.591"/>
<polygon fill="midnightblue" stroke="midnightblue" points="671.223,-329.068 663.545,-336.368 674.1,-335.449 671.223,-329.068"/>
</g>
<!-- Node3 -->
<g id="node3" class="node"><title>Node3</title>
<g id="a_node3"><a xlink:href="ceptr_8h_source.html" target="_top" xlink:title="src/ceptr.h">
<polygon fill="white" stroke="black" points="946.899,-168.5 946.899,-187.5 1009.9,-187.5 1009.9,-168.5 946.899,-168.5"/>
<text text-anchor="middle" x="978.399" y="-175.5" font-family="Helvetica,sans-Serif" font-size="10.00">src/ceptr.h</text>
</a>
</g>
</g>
<!-- Node2&#45;&gt;Node3 -->
<g id="edge2" class="edge"><title>Node2&#45;&gt;Node3</title>
<path fill="none" stroke="midnightblue" d="M572.67,-288.479C660.568,-286.692 870.155,-278.798 930.399,-244 953.236,-230.809 968.418,-201.937 974.872,-187.53"/>
<polygon fill="midnightblue" stroke="midnightblue" points="572.505,-284.981 562.572,-288.668 572.636,-291.98 572.505,-284.981"/>
</g>
<!-- Node16 -->
<g id="node16" class="node"><title>Node16</title>
<g id="a_node16"><a xlink:href="def_8c.html" target="_top" xlink:title="implementation file for symbol and structure definition functions ">
<polygon fill="white" stroke="black" points="370.899,-168.5 370.899,-187.5 425.899,-187.5 425.899,-168.5 370.899,-168.5"/>
<text text-anchor="middle" x="398.399" y="-175.5" font-family="Helvetica,sans-Serif" font-size="10.00">src/def.c</text>
</a>
</g>
</g>
<!-- Node2&#45;&gt;Node16 -->
<g id="edge29" class="edge"><title>Node2&#45;&gt;Node16</title>
<path fill="none" stroke="midnightblue" d="M504.428,-276.183C488.203,-268.229 468.133,-257.048 452.399,-244 431.846,-226.956 413.223,-201.293 404.175,-187.881"/>
<polygon fill="midnightblue" stroke="midnightblue" points="502.941,-279.351 513.475,-280.482 505.946,-273.029 502.941,-279.351"/>
</g>
<!-- Node17 -->
<g id="node17" class="node"><title>Node17</title>
<g id="a_node17"><a xlink:href="def_8h.html" target="_top" xlink:title="header file for symbol and structure definition functions ">
<polygon fill="white" stroke="black" points="286.899,-224.5 286.899,-243.5 341.899,-243.5 341.899,-224.5 286.899,-224.5"/>
<text text-anchor="middle" x="314.399" y="-231.5" font-family="Helvetica,sans-Serif" font-size="10.00">src/def.h</text>
</a>
</g>
</g>
<!-- Node2&#45;&gt;Node17 -->
<g id="edge30" class="edge"><title>Node2&#45;&gt;Node17</title>
<path fill="none" stroke="midnightblue" d="M494.603,-279.434C450.865,-268.649 380.834,-251.381 342.215,-241.859"/>
<polygon fill="midnightblue" stroke="midnightblue" points="493.77,-282.833 504.318,-281.829 495.446,-276.037 493.77,-282.833"/>
</g>
<!-- Node20 -->
<g id="node20" class="node"><title>Node20</title>
<g id="a_node20"><a xlink:href="receptor_8h.html" target="_top" xlink:title="receptor implementation header file ">
<polygon fill="white" stroke="black" points="690.899,-168.5 690.899,-187.5 767.899,-187.5 767.899,-168.5 690.899,-168.5"/>
<text text-anchor="middle" x="729.399" y="-175.5" font-family="Helvetica,sans-Serif" font-size="10.00">src/receptor.h</text>
</a>
</g>
</g>
<!-- Node2&#45;&gt;Node20 -->
<g id="edge66" class="edge"><title>Node2&#45;&gt;Node20</title>
<path fill="none" stroke="midnightblue" d="M543.357,-271.85C552.715,-257.163 568.011,-236.467 586.399,-224 617.958,-202.603 660.228,-190.958 690.614,-184.912"/>
<polygon fill="midnightblue" stroke="midnightblue" points="540.308,-270.127 538.092,-280.487 546.286,-273.77 540.308,-270.127"/>
</g>
<!-- Node22 -->
<g id="node22" class="node"><title>Node22</title>
<g id="a_node22"><a xlink:href="tree_8c.html" target="_top" xlink:title="semantic tree pointer implementation ">
<polygon fill="white" stroke="black" points="161.399,-112.5 161.399,-131.5 219.399,-131.5 219.399,-112.5 161.399,-112.5"/>
<text text-anchor="middle" x="190.399" y="-119.5" font-family="Helvetica,sans-Serif" font-size="10.00">src/tree.c</text>
</a>
</g>
</g>
<!-- Node2&#45;&gt;Node22 -->
<g id="edge73" class="edge"><title>Node2&#45;&gt;Node22</title>
<path fill="none" stroke="midnightblue" d="M494.315,-287.854C383.575,-283.672 71.9922,-265.133 14.3991,-188 -24.0899,-136.453 101.562,-125.754 160.998,-123.556"/>
<polygon fill="midnightblue" stroke="midnightblue" points="494.271,-291.354 504.39,-288.215 494.522,-284.359 494.271,-291.354"/>
</g>
<!-- Node24 -->
<g id="node24" class="node"><title>Node24</title>
<g id="a_node24"><a xlink:href="vmhost_8c.html" target="_top" xlink:title="virtual machine host receptor implementation ">
<polygon fill="white" stroke="black" points="318.399,-56.5 318.399,-75.5 392.399,-75.5 392.399,-56.5 318.399,-56.5"/>
<text text-anchor="middle" x="355.399" y="-63.5" font-family="Helvetica,sans-Serif" font-size="10.00">src/vmhost.c</text>
</a>
</g>
</g>
<!-- Node2&#45;&gt;Node24 -->
<g id="edge74" class="edge"><title>Node2&#45;&gt;Node24</title>
<path fill="none" stroke="midnightblue" d="M494.187,-288.236C396.519,-285.852 144.767,-276.632 68.3991,-244 33.3344,-229.017 19.2889,-222.663 3.39908,-188 -0.304988,-179.92 -1.54705,-175.386 3.39908,-168 38.9085,-114.977 235.184,-83.0042 318.251,-71.6734"/>
<polygon fill="midnightblue" stroke="midnightblue" points="494.155,-291.736 504.233,-288.47 494.318,-284.738 494.155,-291.736"/>
</g>
<!-- Node26 -->
<g id="node26" class="node"><title>Node26</title>
<g id="a_node26"><a xlink:href="sys__defs_8c.html" target="_top" xlink:title="definition of system semantic elements for bootstrapping ">
<polygon fill="white" stroke="black" points="23.8991,-168.5 23.8991,-187.5 104.899,-187.5 104.899,-168.5 23.8991,-168.5"/>
<text text-anchor="middle" x="64.3991" y="-175.5" font-family="Helvetica,sans-Serif" font-size="10.00">src/sys_defs.c</text>
</a>
</g>
</g>
<!-- Node2&#45;&gt;Node26 -->
<g id="edge72" class="edge"><title>Node2&#45;&gt;Node26</title>
<path fill="none" stroke="midnightblue" d="M494.219,-283.634C443.728,-276.372 353.399,-262.204 277.399,-244 208.217,-227.429 128.448,-201.1 89.0503,-187.6"/>
<polygon fill="midnightblue" stroke="midnightblue" points="493.976,-287.134 504.369,-285.078 494.961,-280.204 493.976,-287.134"/>
</g>
<!-- Node27 -->
<g id="node27" class="node"><title>Node27</title>
<g id="a_node27"><a xlink:href="semtrex_8h.html" target="_top" xlink:title="Semantic tree regular expression header file. ">
<polygon fill="white" stroke="black" points="461.899,-224.5 461.899,-243.5 538.899,-243.5 538.899,-224.5 461.899,-224.5"/>
<text text-anchor="middle" x="500.399" y="-231.5" font-family="Helvetica,sans-Serif" font-size="10.00">src/semtrex.h</text>
</a>
</g>
</g>
<!-- Node2&#45;&gt;Node27 -->
<g id="edge52" class="edge"><title>Node2&#45;&gt;Node27</title>
<path fill="none" stroke="midnightblue" d="M522.567,-271.275C516.927,-262.045 510.281,-251.17 505.747,-243.751"/>
<polygon fill="midnightblue" stroke="midnightblue" points="519.749,-273.375 527.95,-280.083 525.722,-269.725 519.749,-273.375"/>
</g>
<!-- Node28 -->
<g id="node28" class="node"><title>Node28</title>
<g id="a_node28"><a xlink:href="label_8c.html" target="_top" xlink:title="Implementation of label tabels for semantic reference to parts of semantic trees. ...">
<polygon fill="white" stroke="black" points="595.399,-224.5 595.399,-243.5 657.399,-243.5 657.399,-224.5 595.399,-224.5"/>
<text text-anchor="middle" x="626.399" y="-231.5" font-family="Helvetica,sans-Serif" font-size="10.00">src/label.c</text>
</a>
</g>
</g>
<!-- Node2&#45;&gt;Node28 -->
<g id="edge60" class="edge"><title>Node2&#45;&gt;Node28</title>
<path fill="none" stroke="midnightblue" d="M557.205,-275.177C574.318,-265.241 596.864,-252.149 611.494,-243.655"/>
<polygon fill="midnightblue" stroke="midnightblue" points="555.232,-272.276 548.341,-280.324 558.747,-278.329 555.232,-272.276"/>
</g>
<!-- Node29 -->
<g id="node29" class="node"><title>Node29</title>
<g id="a_node29"><a xlink:href="process_8h.html" target="_top" xlink:title="processing header files ">
<polygon fill="white" stroke="black" points="675.399,-224.5 675.399,-243.5 751.399,-243.5 751.399,-224.5 675.399,-224.5"/>
<text text-anchor="middle" x="713.399" y="-231.5" font-family="Helvetica,sans-Serif" font-size="10.00">src/process.h</text>
</a>
</g>
</g>
<!-- Node2&#45;&gt;Node29 -->
<g id="edge61" class="edge"><title>Node2&#45;&gt;Node29</title>
<path fill="none" stroke="midnightblue" d="M571.507,-277.568C605.463,-267.381 654.388,-252.703 685.011,-243.516"/>
<polygon fill="midnightblue" stroke="midnightblue" points="570.493,-274.218 561.921,-280.444 572.505,-280.922 570.493,-274.218"/>
</g>
<!-- Node30 -->
<g id="node30" class="node"><title>Node30</title>
<g id="a_node30"><a xlink:href="scape_8h.html" target="_top" xlink:title="scape header files ">
<polygon fill="white" stroke="black" points="769.399,-224.5 769.399,-243.5 837.399,-243.5 837.399,-224.5 769.399,-224.5"/>
<text text-anchor="middle" x="803.399" y="-231.5" font-family="Helvetica,sans-Serif" font-size="10.00">src/scape.h</text>
</a>
</g>
</g>
<!-- Node2&#45;&gt;Node30 -->
<g id="edge67" class="edge"><title>Node2&#45;&gt;Node30</title>
<path fill="none" stroke="midnightblue" d="M572.422,-281.395C617.668,-272.547 694.476,-257.433 760.399,-244 763.239,-243.421 766.183,-242.816 769.138,-242.205"/>
<polygon fill="midnightblue" stroke="midnightblue" points="571.587,-277.992 562.444,-283.345 572.93,-284.862 571.587,-277.992"/>
</g>
<!-- Node4 -->
<g id="node4" class="node"><title>Node4</title>
<g id="a_node4"><a xlink:href="ceptr__specs_8c.html" target="_top" xlink:title="implements a main() entry point for running all the tests ">
<polygon fill="white" stroke="black" points="826.399,-0.5 826.399,-19.5 928.399,-19.5 928.399,-0.5 826.399,-0.5"/>
<text text-anchor="middle" x="877.399" y="-7.5" font-family="Helvetica,sans-Serif" font-size="10.00">spec/ceptr_specs.c</text>
</a>
</g>
</g>
<!-- Node3&#45;&gt;Node4 -->
<g id="edge3" class="edge"><title>Node3&#45;&gt;Node4</title>
<path fill="none" stroke="midnightblue" d="M1020.12,-166.971C1098.49,-153.18 1197.48,-184.031 1179.4,-112 1172.53,-84.614 1172.36,-72.4395 1149.4,-56 1114.81,-31.2323 997.124,-19.1642 928.409,-14.1007"/>
<polygon fill="midnightblue" stroke="midnightblue" points="1019.29,-163.569 1010.19,-168.998 1020.69,-170.428 1019.29,-163.569"/>
</g>
<!-- Node5 -->
<g id="node5" class="node"><title>Node5</title>
<g id="a_node5"><a xlink:href="test__framework_8h.html" target="_top" xlink:title="implements the testing harness ">
<polygon fill="white" stroke="black" points="1200.4,-56.5 1200.4,-75.5 1316.4,-75.5 1316.4,-56.5 1200.4,-56.5"/>
<text text-anchor="middle" x="1258.4" y="-63.5" font-family="Helvetica,sans-Serif" font-size="10.00">spec/test_framework.h</text>
</a>
</g>
</g>
<!-- Node3&#45;&gt;Node5 -->
<g id="edge4" class="edge"><title>Node3&#45;&gt;Node5</title>
<path fill="none" stroke="midnightblue" d="M1019.98,-168.819C1021.47,-168.54 1022.95,-168.266 1024.4,-168 1117.54,-150.908 1161.57,-192.527 1234.4,-132 1251.61,-117.698 1256.48,-89.8658 1257.86,-75.7141"/>
<polygon fill="midnightblue" stroke="midnightblue" points="1019.22,-165.4 1010.05,-170.705 1020.53,-172.277 1019.22,-165.4"/>
</g>
<!-- Node6 -->
<g id="node6" class="node"><title>Node6</title>
<g id="a_node6"><a xlink:href="tree__spec_8h.html" target="_top" xlink:title="spec/tree_spec.h">
<polygon fill="white" stroke="black" points="831.399,-56.5 831.399,-75.5 923.399,-75.5 923.399,-56.5 831.399,-56.5"/>
<text text-anchor="middle" x="877.399" y="-63.5" font-family="Helvetica,sans-Serif" font-size="10.00">spec/tree_spec.h</text>
</a>
</g>
</g>
<!-- Node3&#45;&gt;Node6 -->
<g id="edge6" class="edge"><title>Node3&#45;&gt;Node6</title>
<path fill="none" stroke="midnightblue" d="M991.99,-160.134C1001.41,-146.26 1010.59,-126.578 1000.4,-112 983.139,-87.3059 950.795,-76.1191 923.606,-71.0727"/>
<polygon fill="midnightblue" stroke="midnightblue" points="989.085,-158.176 985.965,-168.301 994.718,-162.332 989.085,-158.176"/>
</g>
<!-- Node7 -->
<g id="node7" class="node"><title>Node7</title>
<g id="a_node7"><a xlink:href="http__example_8h.html" target="_top" xlink:title="spec/http_example.h">
<polygon fill="white" stroke="black" points="474.899,-112.5 474.899,-131.5 581.899,-131.5 581.899,-112.5 474.899,-112.5"/>
<text text-anchor="middle" x="528.399" y="-119.5" font-family="Helvetica,sans-Serif" font-size="10.00">spec/http_example.h</text>
</a>
</g>
</g>
<!-- Node3&#45;&gt;Node7 -->
<g id="edge8" class="edge"><title>Node3&#45;&gt;Node7</title>
<path fill="none" stroke="midnightblue" d="M936.442,-172.485C865.365,-164.754 716.775,-148.242 591.399,-132 588.331,-131.603 585.181,-131.184 582.002,-130.755"/>
<polygon fill="midnightblue" stroke="midnightblue" points="936.442,-176.005 946.761,-173.605 937.197,-169.046 936.442,-176.005"/>
</g>
<!-- Node8 -->
<g id="node8" class="node"><title>Node8</title>
<g id="a_node8"><a xlink:href="mtree__spec_8h.html" target="_top" xlink:title="spec/mtree_spec.h">
<polygon fill="white" stroke="black" points="713.399,-56.5 713.399,-75.5 813.399,-75.5 813.399,-56.5 713.399,-56.5"/>
<text text-anchor="middle" x="763.399" y="-63.5" font-family="Helvetica,sans-Serif" font-size="10.00">spec/mtree_spec.h</text>
</a>
</g>
</g>
<!-- Node3&#45;&gt;Node8 -->
<g id="edge16" class="edge"><title>Node3&#45;&gt;Node8</title>
<path fill="none" stroke="midnightblue" d="M978.796,-158.121C978.048,-143.558 974.574,-123.946 962.399,-112 951.749,-101.55 868.906,-85.3609 813.519,-75.5151"/>
<polygon fill="midnightblue" stroke="midnightblue" points="975.3,-158.518 978.925,-168.474 982.3,-158.431 975.3,-158.518"/>
</g>
<!-- Node9 -->
<g id="node9" class="node"><title>Node9</title>
<g id="a_node9"><a xlink:href="receptor__spec_8h.html" target="_top" xlink:title="spec/receptor_spec.h">
<polygon fill="white" stroke="black" points="421.399,-56.5 421.399,-75.5 531.399,-75.5 531.399,-56.5 421.399,-56.5"/>
<text text-anchor="middle" x="476.399" y="-63.5" font-family="Helvetica,sans-Serif" font-size="10.00">spec/receptor_spec.h</text>
</a>
</g>
</g>
<!-- Node3&#45;&gt;Node9 -->
<g id="edge23" class="edge"><title>Node3&#45;&gt;Node9</title>
<path fill="none" stroke="midnightblue" d="M960.237,-161.782C939.173,-144.463 905.422,-117.815 890.399,-112 744.568,-55.5478 695.63,-94.8913 540.399,-76 537.503,-75.6476 534.535,-75.2739 531.54,-74.8869"/>
<polygon fill="midnightblue" stroke="midnightblue" points="958.206,-164.644 968.139,-168.33 962.673,-159.254 958.206,-164.644"/>
</g>
<!-- Node10 -->
<g id="node10" class="node"><title>Node10</title>
<g id="a_node10"><a xlink:href="vmhost__spec_8h.html" target="_top" xlink:title="spec/vmhost_spec.h">
<polygon fill="white" stroke="black" points="549.899,-56.5 549.899,-75.5 656.899,-75.5 656.899,-56.5 549.899,-56.5"/>
<text text-anchor="middle" x="603.399" y="-63.5" font-family="Helvetica,sans-Serif" font-size="10.00">spec/vmhost_spec.h</text>
</a>
</g>
</g>
<!-- Node3&#45;&gt;Node10 -->
<g id="edge28" class="edge"><title>Node3&#45;&gt;Node10</title>
<path fill="none" stroke="midnightblue" d="M968.654,-159.081C959.38,-143.894 943.952,-122.897 924.399,-112 901.542,-99.2616 742.445,-81.2785 657.148,-72.3964"/>
<polygon fill="midnightblue" stroke="midnightblue" points="965.807,-161.151 973.841,-168.058 971.868,-157.648 965.807,-161.151"/>
</g>
<!-- Node11 -->
<g id="node11" class="node"><title>Node11</title>
<g id="a_node11"><a xlink:href="def__spec_8h.html" target="_top" xlink:title="spec/def_spec.h">
<polygon fill="white" stroke="black" points="236.899,-112.5 236.899,-131.5 325.899,-131.5 325.899,-112.5 236.899,-112.5"/>
<text text-anchor="middle" x="281.399" y="-119.5" font-family="Helvetica,sans-Serif" font-size="10.00">spec/def_spec.h</text>
</a>
</g>
</g>
<!-- Node3&#45;&gt;Node11 -->
<g id="edge17" class="edge"><title>Node3&#45;&gt;Node11</title>
<path fill="none" stroke="midnightblue" d="M936.485,-173.69C914.189,-171.951 886.307,-169.81 861.399,-168 627.691,-151.014 568.129,-159.293 335.399,-132 332.378,-131.646 329.269,-131.239 326.141,-130.8"/>
<polygon fill="midnightblue" stroke="midnightblue" points="936.381,-177.192 946.623,-174.483 936.927,-170.214 936.381,-177.192"/>
</g>
<!-- Node12 -->
<g id="node12" class="node"><title>Node12</title>
<g id="a_node12"><a xlink:href="label__spec_8h.html" target="_top" xlink:title="spec/label_spec.h">
<polygon fill="white" stroke="black" points="1045.9,-56.5 1045.9,-75.5 1140.9,-75.5 1140.9,-56.5 1045.9,-56.5"/>
<text text-anchor="middle" x="1093.4" y="-63.5" font-family="Helvetica,sans-Serif" font-size="10.00">spec/label_spec.h</text>
</a>
</g>
</g>
<!-- Node3&#45;&gt;Node12 -->
<g id="edge19" class="edge"><title>Node3&#45;&gt;Node12</title>
<path fill="none" stroke="midnightblue" d="M1020.06,-168.168C1072.95,-156.756 1157.94,-137.681 1162.4,-132 1180.18,-109.345 1141.41,-87.289 1115.09,-75.5999"/>
<polygon fill="midnightblue" stroke="midnightblue" points="1019.3,-164.75 1010.26,-170.273 1020.77,-171.594 1019.3,-164.75"/>
</g>
<!-- Node13 -->
<g id="node13" class="node"><title>Node13</title>
<g id="a_node13"><a xlink:href="semtrex__spec_8h.html" target="_top" xlink:title="spec/semtrex_spec.h">
<polygon fill="white" stroke="black" points="600.399,-112.5 600.399,-131.5 710.399,-131.5 710.399,-112.5 600.399,-112.5"/>
<text text-anchor="middle" x="655.399" y="-119.5" font-family="Helvetica,sans-Serif" font-size="10.00">spec/semtrex_spec.h</text>
</a>
</g>
</g>
<!-- Node3&#45;&gt;Node13 -->
<g id="edge21" class="edge"><title>Node3&#45;&gt;Node13</title>
<path fill="none" stroke="midnightblue" d="M936.764,-170.039C877.784,-160.179 770.011,-142.161 706.336,-131.516"/>
<polygon fill="midnightblue" stroke="midnightblue" points="936.4,-173.527 946.84,-171.724 937.554,-166.623 936.4,-173.527"/>
</g>
<!-- Node14 -->
<g id="node14" class="node"><title>Node14</title>
<g id="a_node14"><a xlink:href="process__spec_8h.html" target="_top" xlink:title="spec/process_spec.h">
<polygon fill="white" stroke="black" points="1286.4,-112.5 1286.4,-131.5 1396.4,-131.5 1396.4,-112.5 1286.4,-112.5"/>
<text text-anchor="middle" x="1341.4" y="-119.5" font-family="Helvetica,sans-Serif" font-size="10.00">spec/process_spec.h</text>
</a>
</g>
</g>
<!-- Node3&#45;&gt;Node14 -->
<g id="edge24" class="edge"><title>Node3&#45;&gt;Node14</title>
<path fill="none" stroke="midnightblue" d="M1019.97,-168.764C1021.47,-168.501 1022.94,-168.245 1024.4,-168 1073.52,-159.713 1209.27,-140.969 1286.25,-130.474"/>
<polygon fill="midnightblue" stroke="midnightblue" points="1019.24,-165.341 1010.03,-170.585 1020.5,-172.226 1019.24,-165.341"/>
</g>
<!-- Node15 -->
<g id="node15" class="node"><title>Node15</title>
<g id="a_node15"><a xlink:href="scape__spec_8h.html" target="_top" xlink:title="spec/scape_spec.h">
<polygon fill="white" stroke="black" points="1052.9,-112.5 1052.9,-131.5 1153.9,-131.5 1153.9,-112.5 1052.9,-112.5"/>
<text text-anchor="middle" x="1103.4" y="-119.5" font-family="Helvetica,sans-Serif" font-size="10.00">spec/scape_spec.h</text>
</a>
</g>
</g>
<!-- Node3&#45;&gt;Node15 -->
<g id="edge26" class="edge"><title>Node3&#45;&gt;Node15</title>
<path fill="none" stroke="midnightblue" d="M1007.64,-164.368C1031.05,-154.255 1063.24,-140.349 1083.69,-131.516"/>
<polygon fill="midnightblue" stroke="midnightblue" points="1006,-161.265 998.206,-168.444 1008.77,-167.691 1006,-161.265"/>
</g>
<!-- Node5&#45;&gt;Node4 -->
<g id="edge5" class="edge"><title>Node5&#45;&gt;Node4</title>
<path fill="none" stroke="midnightblue" d="M1189.82,-55.2805C1114.74,-44.6382 996.061,-27.8182 928.651,-18.264"/>
<polygon fill="midnightblue" stroke="midnightblue" points="1189.73,-58.8018 1200.12,-56.7398 1190.71,-51.871 1189.73,-58.8018"/>
</g>
<!-- Node6&#45;&gt;Node4 -->
<g id="edge7" class="edge"><title>Node6&#45;&gt;Node4</title>
<path fill="none" stroke="midnightblue" d="M877.399,-45.8045C877.399,-36.9102 877.399,-26.7798 877.399,-19.7511"/>
<polygon fill="midnightblue" stroke="midnightblue" points="873.899,-46.083 877.399,-56.083 880.899,-46.083 873.899,-46.083"/>
</g>
<!-- Node7&#45;&gt;Node6 -->
<g id="edge9" class="edge"><title>Node7&#45;&gt;Node6</title>
<path fill="none" stroke="midnightblue" d="M592.083,-111.446C651.652,-102.464 743.091,-88.558 822.399,-76 825.266,-75.546 828.216,-75.0749 831.191,-74.5968"/>
<polygon fill="midnightblue" stroke="midnightblue" points="591.44,-108.003 582.073,-112.954 592.483,-114.925 591.44,-108.003"/>
</g>
<!-- Node7&#45;&gt;Node8 -->
<g id="edge10" class="edge"><title>Node7&#45;&gt;Node8</title>
<path fill="none" stroke="midnightblue" d="M575.604,-110.153C620.006,-99.95 685.584,-84.8809 726.337,-75.5164"/>
<polygon fill="midnightblue" stroke="midnightblue" points="574.598,-106.793 565.636,-112.444 576.165,-113.615 574.598,-106.793"/>
</g>
<!-- Node7&#45;&gt;Node9 -->
<g id="edge12" class="edge"><title>Node7&#45;&gt;Node9</title>
<path fill="none" stroke="midnightblue" d="M512.72,-104.718C503.554,-95.1997 492.347,-83.5608 484.826,-75.7511"/>
<polygon fill="midnightblue" stroke="midnightblue" points="510.355,-107.308 519.812,-112.083 515.397,-102.452 510.355,-107.308"/>
</g>
<!-- Node7&#45;&gt;Node10 -->
<g id="edge14" class="edge"><title>Node7&#45;&gt;Node10</title>
<path fill="none" stroke="midnightblue" d="M548.704,-106.38C562.26,-96.6204 579.641,-84.1057 591.13,-75.8339"/>
<polygon fill="midnightblue" stroke="midnightblue" points="546.519,-103.641 540.449,-112.324 550.61,-109.321 546.519,-103.641"/>
</g>
<!-- Node8&#45;&gt;Node4 -->
<g id="edge11" class="edge"><title>Node8&#45;&gt;Node4</title>
<path fill="none" stroke="midnightblue" d="M790.641,-52.096C811.939,-42.0073 840.941,-28.2697 859.42,-19.5164"/>
<polygon fill="midnightblue" stroke="midnightblue" points="789.002,-48.9995 781.463,-56.4435 791.998,-55.3257 789.002,-48.9995"/>
</g>
<!-- Node9&#45;&gt;Node4 -->
<g id="edge13" class="edge"><title>Node9&#45;&gt;Node4</title>
<path fill="none" stroke="midnightblue" d="M541.58,-55.8456C648.843,-41.1678 762.244,-26.1482 826.286,-17.7126"/>
<polygon fill="midnightblue" stroke="midnightblue" points="540.986,-52.3942 531.554,-57.219 541.936,-59.3294 540.986,-52.3942"/>
</g>
<!-- Node10&#45;&gt;Node4 -->
<g id="edge15" class="edge"><title>Node10&#45;&gt;Node4</title>
<path fill="none" stroke="midnightblue" d="M656.812,-54.4734C708.596,-44.2678 786.17,-28.9794 834.186,-19.5164"/>
<polygon fill="midnightblue" stroke="midnightblue" points="655.95,-51.0759 646.815,-56.4435 657.303,-57.9438 655.95,-51.0759"/>
</g>
<!-- Node11&#45;&gt;Node4 -->
<g id="edge18" class="edge"><title>Node11&#45;&gt;Node4</title>
<path fill="none" stroke="midnightblue" d="M284.14,-102.217C287.408,-87.1141 294.448,-66.7088 309.399,-56 350.865,-26.2994 694.202,-15.247 826.081,-12.0729"/>
<polygon fill="midnightblue" stroke="midnightblue" points="280.695,-101.601 282.367,-112.063 287.584,-102.842 280.695,-101.601"/>
</g>
<!-- Node12&#45;&gt;Node4 -->
<g id="edge20" class="edge"><title>Node12&#45;&gt;Node4</title>
<path fill="none" stroke="midnightblue" d="M1049.23,-53.959C1008.44,-43.7598 948.686,-28.8217 911.465,-19.5164"/>
<polygon fill="midnightblue" stroke="midnightblue" points="1048.62,-57.4136 1059.17,-56.4435 1050.32,-50.6226 1048.62,-57.4136"/>
</g>
<!-- Node13&#45;&gt;Node4 -->
<g id="edge22" class="edge"><title>Node13&#45;&gt;Node4</title>
<path fill="none" stroke="midnightblue" d="M664.395,-103.191C672.779,-88.3825 686.649,-67.8761 704.399,-56 740.768,-31.6671 789.555,-20.4872 826.049,-15.3531"/>
<polygon fill="midnightblue" stroke="midnightblue" points="661.122,-101.889 659.486,-112.357 667.293,-105.194 661.122,-101.889"/>
</g>
<!-- Node14&#45;&gt;Node4 -->
<g id="edge25" class="edge"><title>Node14&#45;&gt;Node4</title>
<path fill="none" stroke="midnightblue" d="M1342.2,-102.14C1341.72,-87.296 1338.41,-67.2903 1325.4,-56 1295.92,-30.4141 1039.69,-17.359 928.512,-12.8572"/>
<polygon fill="midnightblue" stroke="midnightblue" points="1338.7,-102.232 1342.13,-112.256 1345.7,-102.281 1338.7,-102.232"/>
</g>
<!-- Node15&#45;&gt;Node4 -->
<g id="edge27" class="edge"><title>Node15&#45;&gt;Node4</title>
<path fill="none" stroke="midnightblue" d="M1076.44,-107.878C1029.6,-85.0778 934.415,-38.7509 895.051,-19.5914"/>
<polygon fill="midnightblue" stroke="midnightblue" points="1075.14,-111.139 1085.67,-112.368 1078.21,-104.845 1075.14,-111.139"/>
</g>
<!-- Node17&#45;&gt;Node7 -->
<g id="edge49" class="edge"><title>Node17&#45;&gt;Node7</title>
<path fill="none" stroke="midnightblue" d="M291.475,-218.496C273.042,-205.05 252.35,-184.667 266.399,-168 279.691,-152.23 402.157,-136.543 474.857,-128.512"/>
<polygon fill="midnightblue" stroke="midnightblue" points="289.698,-221.522 299.917,-224.32 293.674,-215.76 289.698,-221.522"/>
</g>
<!-- Node17&#45;&gt;Node9 -->
<g id="edge51" class="edge"><title>Node17&#45;&gt;Node9</title>
<path fill="none" stroke="midnightblue" d="M277.039,-222.468C216.781,-203.712 109.054,-161.781 152.399,-112 156.787,-106.961 329.922,-84.9994 421.254,-73.7282"/>
<polygon fill="midnightblue" stroke="midnightblue" points="276.041,-225.823 286.627,-225.383 278.077,-219.126 276.041,-225.823"/>
</g>
<!-- Node17&#45;&gt;Node11 -->
<g id="edge50" class="edge"><title>Node17&#45;&gt;Node11</title>
<path fill="none" stroke="midnightblue" d="M277.146,-221.96C260.693,-215.021 242.947,-204.226 233.399,-188 220.807,-166.6 248.574,-143.719 266.91,-131.636"/>
<polygon fill="midnightblue" stroke="midnightblue" points="276.023,-225.278 286.613,-225.611 278.543,-218.747 276.023,-225.278"/>
</g>
<!-- Node17&#45;&gt;Node16 -->
<g id="edge31" class="edge"><title>Node17&#45;&gt;Node16</title>
<path fill="none" stroke="midnightblue" d="M336.332,-218.901C351.735,-208.999 371.845,-196.071 384.937,-187.655"/>
<polygon fill="midnightblue" stroke="midnightblue" points="334.414,-215.972 327.895,-224.324 338.2,-221.86 334.414,-215.972"/>
</g>
<!-- Node18 -->
<g id="node18" class="node"><title>Node18</title>
<g id="a_node18"><a xlink:href="mtree_8c.html" target="_top" xlink:title="semantic tree matrix implementation ">
<polygon fill="white" stroke="black" points="786.399,-168.5 786.399,-187.5 852.399,-187.5 852.399,-168.5 786.399,-168.5"/>
<text text-anchor="middle" x="819.399" y="-175.5" font-family="Helvetica,sans-Serif" font-size="10.00">src/mtree.c</text>
</a>
</g>
</g>
<!-- Node17&#45;&gt;Node18 -->
<g id="edge32" class="edge"><title>Node17&#45;&gt;Node18</title>
<path fill="none" stroke="midnightblue" d="M352.581,-230.698C431.879,-225.605 620.047,-211.904 776.399,-188 779.566,-187.516 782.851,-186.948 786.13,-186.338"/>
<polygon fill="midnightblue" stroke="midnightblue" points="351.888,-227.235 342.129,-231.359 352.33,-234.221 351.888,-227.235"/>
</g>
<!-- Node19 -->
<g id="node19" class="node"><title>Node19</title>
<g id="a_node19"><a xlink:href="process_8c.html" target="_top" xlink:title="implementation of ceptr processing: instructions and run tree reduction ">
<polygon fill="white" stroke="black" points="482.399,-168.5 482.399,-187.5 558.399,-187.5 558.399,-168.5 482.399,-168.5"/>
<text text-anchor="middle" x="520.399" y="-175.5" font-family="Helvetica,sans-Serif" font-size="10.00">src/process.c</text>
</a>
</g>
</g>
<!-- Node17&#45;&gt;Node19 -->
<g id="edge33" class="edge"><title>Node17&#45;&gt;Node19</title>
<path fill="none" stroke="midnightblue" d="M352.046,-223.131C390.845,-212.961 450.722,-197.265 487.63,-187.59"/>
<polygon fill="midnightblue" stroke="midnightblue" points="350.967,-219.796 342.181,-225.717 352.742,-226.567 350.967,-219.796"/>
</g>
<!-- Node17&#45;&gt;Node20 -->
<g id="edge34" class="edge"><title>Node17&#45;&gt;Node20</title>
<path fill="none" stroke="midnightblue" d="M351.882,-228.123C430.357,-217.912 611.238,-194.375 690.731,-184.031"/>
<polygon fill="midnightblue" stroke="midnightblue" points="351.415,-224.654 341.95,-229.415 352.318,-231.595 351.415,-224.654"/>
</g>
<!-- Node17&#45;&gt;Node22 -->
<g id="edge48" class="edge"><title>Node17&#45;&gt;Node22</title>
<path fill="none" stroke="midnightblue" d="M279.094,-220.637C261.681,-213.218 241.279,-202.396 226.399,-188 209.34,-171.496 198.206,-145.138 193.292,-131.616"/>
<polygon fill="midnightblue" stroke="midnightblue" points="277.824,-223.899 288.406,-224.41 280.452,-217.411 277.824,-223.899"/>
</g>
<!-- Node25 -->
<g id="node25" class="node"><title>Node25</title>
<g id="a_node25"><a xlink:href="semtrex_8c.html" target="_top" xlink:title="semtrex implementation ">
<polygon fill="white" stroke="black" points="275.899,-168.5 275.899,-187.5 352.899,-187.5 352.899,-168.5 275.899,-168.5"/>
<text text-anchor="middle" x="314.399" y="-175.5" font-family="Helvetica,sans-Serif" font-size="10.00">src/semtrex.c</text>
</a>
</g>
</g>
<!-- Node17&#45;&gt;Node25 -->
<g id="edge46" class="edge"><title>Node17&#45;&gt;Node25</title>
<path fill="none" stroke="midnightblue" d="M314.399,-213.805C314.399,-204.91 314.399,-194.78 314.399,-187.751"/>
<polygon fill="midnightblue" stroke="midnightblue" points="310.899,-214.083 314.399,-224.083 317.899,-214.083 310.899,-214.083"/>
</g>
<!-- Node17&#45;&gt;Node26 -->
<g id="edge47" class="edge"><title>Node17&#45;&gt;Node26</title>
<path fill="none" stroke="midnightblue" d="M276.723,-224.862C230.242,-214.822 151.57,-197.829 104.153,-187.587"/>
<polygon fill="midnightblue" stroke="midnightblue" points="276.176,-228.324 286.69,-227.015 277.654,-221.482 276.176,-228.324"/>
</g>
<!-- Node20&#45;&gt;Node6 -->
<g id="edge40" class="edge"><title>Node20&#45;&gt;Node6</title>
<path fill="none" stroke="midnightblue" d="M743.84,-160.405C756.529,-146.434 775.955,-126.472 795.399,-112 815.46,-97.0687 841.059,-83.8171 858.274,-75.6277"/>
<polygon fill="midnightblue" stroke="midnightblue" points="740.909,-158.433 736.869,-168.227 746.135,-163.09 740.909,-158.433"/>
</g>
<!-- Node20&#45;&gt;Node7 -->
<g id="edge41" class="edge"><title>Node20&#45;&gt;Node7</title>
<path fill="none" stroke="midnightblue" d="M687.818,-165.829C649.868,-155.633 594.589,-140.782 560.099,-131.516"/>
<polygon fill="midnightblue" stroke="midnightblue" points="686.984,-169.229 697.55,-168.444 688.801,-162.469 686.984,-169.229"/>
</g>
<!-- Node20&#45;&gt;Node8 -->
<g id="edge42" class="edge"><title>Node20&#45;&gt;Node8</title>
<path fill="none" stroke="midnightblue" d="M735.063,-158.674C742.497,-134.625 755.243,-93.3881 760.744,-75.5914"/>
<polygon fill="midnightblue" stroke="midnightblue" points="731.676,-157.781 732.067,-168.368 738.364,-159.848 731.676,-157.781"/>
</g>
<!-- Node20&#45;&gt;Node9 -->
<g id="edge44" class="edge"><title>Node20&#45;&gt;Node9</title>
<path fill="none" stroke="midnightblue" d="M680.588,-172.075C608.128,-164.266 479.118,-148.256 465.399,-132 451.817,-115.906 463.442,-89.3683 471.055,-75.7136"/>
<polygon fill="midnightblue" stroke="midnightblue" points="680.534,-175.589 690.848,-173.167 681.274,-168.628 680.534,-175.589"/>
</g>
<!-- Node20&#45;&gt;Node13 -->
<g id="edge43" class="edge"><title>Node20&#45;&gt;Node13</title>
<path fill="none" stroke="midnightblue" d="M709.365,-162.38C695.99,-152.62 678.84,-140.106 667.505,-131.834"/>
<polygon fill="midnightblue" stroke="midnightblue" points="707.369,-165.257 717.51,-168.324 711.495,-159.602 707.369,-165.257"/>
</g>
<!-- Node20&#45;&gt;Node15 -->
<g id="edge45" class="edge"><title>Node20&#45;&gt;Node15</title>
<path fill="none" stroke="midnightblue" d="M778.138,-167.948C881.612,-151.273 990.551,-137.036 1052.74,-129.224"/>
<polygon fill="midnightblue" stroke="midnightblue" points="777.454,-164.514 768.144,-169.57 778.575,-171.423 777.454,-164.514"/>
</g>
<!-- Node21 -->
<g id="node21" class="node"><title>Node21</title>
<g id="a_node21"><a xlink:href="receptor_8c.html" target="_top" xlink:title="receptor implementation ">
<polygon fill="white" stroke="black" points="804.899,-112.5 804.899,-131.5 881.899,-131.5 881.899,-112.5 804.899,-112.5"/>
<text text-anchor="middle" x="843.399" y="-119.5" font-family="Helvetica,sans-Serif" font-size="10.00">src/receptor.c</text>
</a>
</g>
</g>
<!-- Node20&#45;&gt;Node21 -->
<g id="edge35" class="edge"><title>Node20&#45;&gt;Node21</title>
<path fill="none" stroke="midnightblue" d="M756.641,-164.096C777.939,-154.007 806.941,-140.27 825.42,-131.516"/>
<polygon fill="midnightblue" stroke="midnightblue" points="755.002,-161 747.463,-168.444 757.998,-167.326 755.002,-161"/>
</g>
<!-- Node20&#45;&gt;Node22 -->
<g id="edge36" class="edge"><title>Node20&#45;&gt;Node22</title>
<path fill="none" stroke="midnightblue" d="M680.707,-173.567C572.31,-165.772 313.852,-146.307 227.399,-132 224.79,-131.568 222.093,-131.052 219.4,-130.487"/>
<polygon fill="midnightblue" stroke="midnightblue" points="680.493,-177.06 690.718,-174.284 680.994,-170.078 680.493,-177.06"/>
</g>
<!-- Node23 -->
<g id="node23" class="node"><title>Node23</title>
<g id="a_node23"><a xlink:href="vmhost_8h.html" target="_top" xlink:title="vmhost implementation header file ">
<polygon fill="white" stroke="black" points="344.399,-112.5 344.399,-131.5 418.399,-131.5 418.399,-112.5 344.399,-112.5"/>
<text text-anchor="middle" x="381.399" y="-119.5" font-family="Helvetica,sans-Serif" font-size="10.00">src/vmhost.h</text>
</a>
</g>
</g>
<!-- Node20&#45;&gt;Node23 -->
<g id="edge37" class="edge"><title>Node20&#45;&gt;Node23</title>
<path fill="none" stroke="midnightblue" d="M680.292,-169.933C621.349,-161.364 519.544,-146.289 432.399,-132 427.874,-131.258 423.128,-130.455 418.428,-129.643"/>
<polygon fill="midnightblue" stroke="midnightblue" points="680.034,-173.432 690.433,-171.404 681.039,-166.504 680.034,-173.432"/>
</g>
<!-- Node23&#45;&gt;Node10 -->
<g id="edge39" class="edge"><title>Node23&#45;&gt;Node10</title>
<path fill="none" stroke="midnightblue" d="M426.524,-110.024C468.459,-99.8232 530.051,-84.8414 568.387,-75.5164"/>
<polygon fill="midnightblue" stroke="midnightblue" points="425.465,-106.679 416.576,-112.444 427.12,-113.481 425.465,-106.679"/>
</g>
<!-- Node23&#45;&gt;Node24 -->
<g id="edge38" class="edge"><title>Node23&#45;&gt;Node24</title>
<path fill="none" stroke="midnightblue" d="M372.724,-102.983C368.311,-93.8168 363.147,-83.0922 359.613,-75.7511"/>
<polygon fill="midnightblue" stroke="midnightblue" points="369.614,-104.591 377.106,-112.083 375.921,-101.555 369.614,-104.591"/>
</g>
<!-- Node27&#45;&gt;Node7 -->
<g id="edge57" class="edge"><title>Node27&#45;&gt;Node7</title>
<path fill="none" stroke="midnightblue" d="M532.241,-219.942C545.639,-212.665 559.849,-202.166 567.399,-188 578.417,-167.328 555.258,-143.978 540.123,-131.668"/>
<polygon fill="midnightblue" stroke="midnightblue" points="530.565,-216.867 523.187,-224.471 533.697,-223.128 530.565,-216.867"/>
</g>
<!-- Node27&#45;&gt;Node11 -->
<g id="edge58" class="edge"><title>Node27&#45;&gt;Node11</title>
<path fill="none" stroke="midnightblue" d="M487.489,-216.257C475.3,-201.54 455.748,-180.564 434.399,-168 400.753,-148.2 357.756,-136.56 325.916,-130.097"/>
<polygon fill="midnightblue" stroke="midnightblue" points="485.093,-218.865 494.076,-224.481 490.556,-214.488 485.093,-218.865"/>
</g>
<!-- Node27&#45;&gt;Node13 -->
<g id="edge59" class="edge"><title>Node27&#45;&gt;Node13</title>
<path fill="none" stroke="midnightblue" d="M528.448,-219.887C545.01,-211.641 566.059,-200.264 583.399,-188 608.422,-170.302 634.257,-144.915 647.101,-131.717"/>
<polygon fill="midnightblue" stroke="midnightblue" points="526.728,-216.832 519.277,-224.364 529.799,-223.123 526.728,-216.832"/>
</g>
<!-- Node27&#45;&gt;Node16 -->
<g id="edge53" class="edge"><title>Node27&#45;&gt;Node16</title>
<path fill="none" stroke="midnightblue" d="M475.068,-219.59C456.209,-209.605 431.015,-196.267 414.746,-187.655"/>
<polygon fill="midnightblue" stroke="midnightblue" points="473.536,-222.738 484.011,-224.324 476.811,-216.552 473.536,-222.738"/>
</g>
<!-- Node27&#45;&gt;Node19 -->
<g id="edge54" class="edge"><title>Node27&#45;&gt;Node19</title>
<path fill="none" stroke="midnightblue" d="M507.181,-214.69C510.551,-205.589 514.468,-195.014 517.158,-187.751"/>
<polygon fill="midnightblue" stroke="midnightblue" points="503.893,-213.49 503.702,-224.083 510.457,-215.921 503.893,-213.49"/>
</g>
<!-- Node27&#45;&gt;Node21 -->
<g id="edge55" class="edge"><title>Node27&#45;&gt;Node21</title>
<path fill="none" stroke="midnightblue" d="M549.235,-227.755C646.649,-217.179 856.269,-193.81 861.399,-188 875.661,-171.85 860.122,-145.337 850.254,-131.7"/>
<polygon fill="midnightblue" stroke="midnightblue" points="548.614,-224.301 539.049,-228.858 549.368,-231.261 548.614,-224.301"/>
</g>
<!-- Node27&#45;&gt;Node25 -->
<g id="edge56" class="edge"><title>Node27&#45;&gt;Node25</title>
<path fill="none" stroke="midnightblue" d="M461.021,-221.568C425.934,-211.381 375.378,-196.703 343.733,-187.516"/>
<polygon fill="midnightblue" stroke="midnightblue" points="460.348,-225.017 470.927,-224.444 462.299,-218.294 460.348,-225.017"/>
</g>
<!-- Node29&#45;&gt;Node14 -->
<g id="edge65" class="edge"><title>Node29&#45;&gt;Node14</title>
<path fill="none" stroke="midnightblue" d="M761.478,-223.902C876.34,-205.386 907.952,-209.973 1018.4,-188 1053.08,-181.101 1060.87,-175.631 1095.4,-168 1161.53,-153.383 1238.42,-139.87 1288.39,-131.544"/>
<polygon fill="midnightblue" stroke="midnightblue" points="760.894,-220.451 751.59,-225.52 762.024,-227.359 760.894,-220.451"/>
</g>
<!-- Node29&#45;&gt;Node19 -->
<g id="edge62" class="edge"><title>Node29&#45;&gt;Node19</title>
<path fill="none" stroke="midnightblue" d="M673.007,-221.699C636.582,-211.507 583.813,-196.743 550.837,-187.516"/>
<polygon fill="midnightblue" stroke="midnightblue" points="672.244,-225.12 682.818,-224.444 674.131,-218.378 672.244,-225.12"/>
</g>
<!-- Node29&#45;&gt;Node20 -->
<g id="edge63" class="edge"><title>Node29&#45;&gt;Node20</title>
<path fill="none" stroke="midnightblue" d="M718.911,-214.396C721.588,-205.362 724.677,-194.936 726.806,-187.751"/>
<polygon fill="midnightblue" stroke="midnightblue" points="715.526,-213.501 716.041,-224.083 722.238,-215.489 715.526,-213.501"/>
</g>
<!-- Node29&#45;&gt;Node21 -->
<g id="edge64" class="edge"><title>Node29&#45;&gt;Node21</title>
<path fill="none" stroke="midnightblue" d="M761.548,-222.564C813.74,-211.023 890.216,-193.351 894.399,-188 910.213,-167.773 878.978,-144.053 858.757,-131.614"/>
<polygon fill="midnightblue" stroke="midnightblue" points="760.476,-219.216 751.462,-224.785 761.981,-226.052 760.476,-219.216"/>
</g>
<!-- Node30&#45;&gt;Node15 -->
<g id="edge71" class="edge"><title>Node30&#45;&gt;Node15</title>
<path fill="none" stroke="midnightblue" d="M847.529,-223.764C910.445,-210.595 1018.4,-188 1018.4,-188 1049.81,-173.609 1080.45,-145.817 1094.86,-131.694"/>
<polygon fill="midnightblue" stroke="midnightblue" points="846.537,-220.395 837.466,-225.87 847.971,-227.247 846.537,-220.395"/>
</g>
<!-- Node30&#45;&gt;Node20 -->
<g id="edge68" class="edge"><title>Node30&#45;&gt;Node20</title>
<path fill="none" stroke="midnightblue" d="M783.365,-218.38C769.99,-208.62 752.84,-196.106 741.505,-187.834"/>
<polygon fill="midnightblue" stroke="midnightblue" points="781.369,-221.257 791.51,-224.324 785.495,-215.602 781.369,-221.257"/>
</g>
<!-- Node30&#45;&gt;Node22 -->
<g id="edge70" class="edge"><title>Node30&#45;&gt;Node22</title>
<path fill="none" stroke="midnightblue" d="M768.149,-221.344C722.386,-206.664 639.798,-181.708 567.399,-168 418.096,-139.731 377.111,-158.015 227.399,-132 224.794,-131.547 222.099,-131.016 219.407,-130.443"/>
<polygon fill="midnightblue" stroke="midnightblue" points="767.289,-224.744 777.88,-224.489 769.441,-218.083 767.289,-224.744"/>
</g>
<!-- Node31 -->
<g id="node31" class="node"><title>Node31</title>
<g id="a_node31"><a xlink:href="scape_8c.html" target="_top" xlink:title="implementation of scapes ">
<polygon fill="white" stroke="black" points="1104.4,-168.5 1104.4,-187.5 1172.4,-187.5 1172.4,-168.5 1104.4,-168.5"/>
<text text-anchor="middle" x="1138.4" y="-175.5" font-family="Helvetica,sans-Serif" font-size="10.00">src/scape.c</text>
</a>
</g>
</g>
<!-- Node30&#45;&gt;Node31 -->
<g id="edge69" class="edge"><title>Node30&#45;&gt;Node31</title>
<path fill="none" stroke="midnightblue" d="M847.662,-223.864C956.024,-204.825 985.453,-205.574 1090.4,-188 1094.91,-187.244 1099.66,-186.406 1104.34,-185.555"/>
<polygon fill="midnightblue" stroke="midnightblue" points="846.866,-220.45 837.631,-225.643 848.088,-227.343 846.866,-220.45"/>
</g>
<!-- Node32&#45;&gt;Node3 -->
<g id="edge76" class="edge"><title>Node32&#45;&gt;Node3</title>
<path fill="none" stroke="midnightblue" d="M911.437,-219.177C927.998,-209.241 949.817,-196.149 963.975,-187.655"/>
<polygon fill="midnightblue" stroke="midnightblue" points="909.633,-216.178 902.859,-224.324 913.235,-222.18 909.633,-216.178"/>
</g>
<!-- Node32&#45;&gt;Node18 -->
<g id="edge77" class="edge"><title>Node32&#45;&gt;Node18</title>
<path fill="none" stroke="midnightblue" d="M869.361,-218.101C856.943,-208.382 841.156,-196.027 830.687,-187.834"/>
<polygon fill="midnightblue" stroke="midnightblue" points="867.281,-220.917 877.313,-224.324 871.595,-215.405 867.281,-220.917"/>
</g>
</g>
</svg>
        <g id="navigator" transform="translate(0 0)" fill="#404254">
                <rect fill="#f2f5e9" fill-opacity="0.5" stroke="#606060" stroke-width=".5" x="0" y="0" width="60" height="60"/>
                <use id="zoomplus" xlink:href="#zoomPlus" x="17" y="9" onmousedown="handleZoom(evt,'in')"/>
                <use id="zoomminus" xlink:href="#zoomMin" x="42" y="9" onmousedown="handleZoom(evt,'out')"/>
                <use id="reset" xlink:href="#resetDef" x="30" y="36" onmousedown="handleReset()"/>
                <g id="arrowUp" xlink:href="#dirArrow" transform="translate(30 24)" onmousedown="handlePan(0,-1)">
                  <use xlink:href="#rim" fill="#404040">
                        <set attributeName="fill" to="#808080" begin="arrowUp.mouseover" end="arrowUp.mouseout"/>
                  </use>
                  <path fill="none" stroke="white" stroke-width="1.5" d="M0,-3.0v7 M-2.5,-0.5L0,-3.0L2.5,-0.5"/>
                </g>
                <g id="arrowRight" xlink:href="#dirArrow" transform="rotate(90) translate(36 -43)" onmousedown="handlePan(1,0)">
                  <use xlink:href="#rim" fill="#404040">
                        <set attributeName="fill" to="#808080" begin="arrowRight.mouseover" end="arrowRight.mouseout"/>
                  </use>
                  <path fill="none" stroke="white" stroke-width="1.5" d="M0,-3.0v7 M-2.5,-0.5L0,-3.0L2.5,-0.5"/>
                </g>
                <g id="arrowDown" xlink:href="#dirArrow" transform="rotate(180) translate(-30 -48)" onmousedown="handlePan(0,1)">
                  <use xlink:href="#rim" fill="#404040">
                        <set attributeName="fill" to="#808080" begin="arrowDown.mouseover" end="arrowDown.mouseout"/>
                  </use>
                  <path fill="none" stroke="white" stroke-width="1.5" d="M0,-3.0v7 M-2.5,-0.5L0,-3.0L2.5,-0.5"/>
                </g>
                <g id="arrowLeft" xlink:href="#dirArrow" transform="rotate(270) translate(-36 17)" onmousedown="handlePan(-1,0)">
                  <use xlink:href="#rim" fill="#404040">
                        <set attributeName="fill" to="#808080" begin="arrowLeft.mouseover" end="arrowLeft.mouseout"/>
                  </use>
                  <path fill="none" stroke="white" stroke-width="1.5" d="M0,-3.0v7 M-2.5,-0.5L0,-3.0L2.5,-0.5"/>
                </g>
        </g>
        <svg viewBox="0 0 15 15" width="100%" height="30px" preserveAspectRatio="xMaxYMin meet">
         <g id="arrow_out" transform="scale(0.3 0.3)">
          <a xlink:href="sys__processes_8h__dep__incl_org.svg" target="_base">
           <rect id="button" ry="5" rx="5" y="6" x="6" height="38" width="38"
                fill="#f2f5e9" fill-opacity="0.5" stroke="#606060" stroke-width="1.0"/>
           <path id="arrow"
             d="M 11.500037,31.436501 C 11.940474,20.09759 22.043105,11.32322 32.158766,21.979434 L 37.068811,17.246167 C 37.068811,17.246167 37.088388,32 37.088388,32 L 22.160133,31.978069 C 22.160133,31.978069 26.997745,27.140456 26.997745,27.140456 C 18.528582,18.264221 13.291696,25.230495 11.500037,31.436501 z"
             style="fill:#404040;"/>
          </a>
         </g>
        </svg>
</svg>
