<?xml version="1.0" encoding="UTF-8" standalone="no"?>
<!DOCTYPE svg PUBLIC "-//W3C//DTD SVG 1.1//EN"
 "http://www.w3.org/Graphics/SVG/1.1/DTD/svg11.dtd">
<!-- Generated by graphviz version 2.38.0 (20140413.2041)
 -->
<!-- Title: src/sys_defs.c Pages: 1 -->
<svg width="582pt" height="420pt"
 viewBox="0.00 0.00 582.00 420.00" xmlns="http://www.w3.org/2000/svg" xmlns:xlink="http://www.w3.org/1999/xlink">
<g id="graph0" class="graph" transform="scale(1 1) rotate(0) translate(4 416)">
<title>src/sys_defs.c</title>
<polygon fill="white" stroke="none" points="-4,4 -4,-416 578,-416 578,4 -4,4"/>
<!-- Node1 -->
<g id="node1" class="node"><title>Node1</title>
<polygon fill="#bfbfbf" stroke="black" points="60.5,-392.5 60.5,-411.5 141.5,-411.5 141.5,-392.5 60.5,-392.5"/>
<text text-anchor="middle" x="101" y="-399.5" font-family="Helvetica,sans-Serif" font-size="10.00">src/sys_defs.c</text>
</g>
<!-- Node2 -->
<g id="node2" class="node"><title>Node2</title>
<g id="a_node2"><a xlink:href="tree_8h.html" target="_top" xlink:title="semantic trees header file ">
<polygon fill="white" stroke="black" points="151.5,-280.5 151.5,-299.5 192.5,-299.5 192.5,-280.5 151.5,-280.5"/>
<text text-anchor="middle" x="172" y="-287.5" font-family="Helvetica,sans-Serif" font-size="10.00">tree.h</text>
</a>
</g>
</g>
<!-- Node1&#45;&gt;Node2 -->
<g id="edge1" class="edge"><title>Node1&#45;&gt;Node2</title>
<path fill="none" stroke="midnightblue" d="M114.918,-392.314C126.7,-384.27 143.193,-371.269 153,-356 162.034,-341.934 166.894,-323.441 169.43,-309.778"/>
<polygon fill="midnightblue" stroke="midnightblue" points="172.928,-310.068 171.054,-299.641 166.016,-308.961 172.928,-310.068"/>
</g>
<!-- Node16 -->
<g id="node16" class="node"><title>Node16</title>
<g id="a_node16"><a xlink:href="base__defs_8h.html" target="_top" xlink:title="auto&#45;generated system definitions ">
<polygon fill="white" stroke="black" points="0,-224.5 0,-243.5 70,-243.5 70,-224.5 0,-224.5"/>
<text text-anchor="middle" x="35" y="-231.5" font-family="Helvetica,sans-Serif" font-size="10.00">base_defs.h</text>
</a>
</g>
</g>
<!-- Node1&#45;&gt;Node16 -->
<g id="edge27" class="edge"><title>Node1&#45;&gt;Node16</title>
<path fill="none" stroke="midnightblue" d="M97.4516,-392.075C87.0176,-365.832 56.2891,-288.545 42.203,-253.117"/>
<polygon fill="midnightblue" stroke="midnightblue" points="45.3536,-251.567 38.4066,-243.568 38.8489,-254.154 45.3536,-251.567"/>
</g>
<!-- Node19 -->
<g id="node19" class="node"><title>Node19</title>
<g id="a_node19"><a xlink:href="def_8h.html" target="_top" xlink:title="header file for symbol and structure definition functions ">
<polygon fill="white" stroke="black" points="106,-336.5 106,-355.5 144,-355.5 144,-336.5 106,-336.5"/>
<text text-anchor="middle" x="125" y="-343.5" font-family="Helvetica,sans-Serif" font-size="10.00">def.h</text>
</a>
</g>
</g>
<!-- Node1&#45;&gt;Node19 -->
<g id="edge24" class="edge"><title>Node1&#45;&gt;Node19</title>
<path fill="none" stroke="midnightblue" d="M104.963,-392.083C108.213,-384.77 112.919,-374.181 116.954,-365.103"/>
<polygon fill="midnightblue" stroke="midnightblue" points="120.248,-366.311 121.111,-355.751 113.851,-363.468 120.248,-366.311"/>
</g>
<!-- Node20 -->
<g id="node20" class="node"><title>Node20</title>
<polygon fill="white" stroke="#bfbfbf" points="73,-280.5 73,-299.5 125,-299.5 125,-280.5 73,-280.5"/>
<text text-anchor="middle" x="99" y="-287.5" font-family="Helvetica,sans-Serif" font-size="10.00">stdarg.h</text>
</g>
<!-- Node1&#45;&gt;Node20 -->
<g id="edge28" class="edge"><title>Node1&#45;&gt;Node20</title>
<path fill="none" stroke="midnightblue" d="M100.006,-392.388C99.0153,-383.342 97.5631,-368.694 97,-356 96.3112,-340.472 96.9417,-322.847 97.6717,-309.871"/>
<polygon fill="midnightblue" stroke="midnightblue" points="101.168,-310.036 98.3081,-299.834 94.1822,-309.593 101.168,-310.036"/>
</g>
<!-- Node3 -->
<g id="node3" class="node"><title>Node3</title>
<polygon fill="white" stroke="#bfbfbf" points="384.5,-0.5 384.5,-19.5 433.5,-19.5 433.5,-0.5 384.5,-0.5"/>
<text text-anchor="middle" x="409" y="-7.5" font-family="Helvetica,sans-Serif" font-size="10.00">string.h</text>
</g>
<!-- Node2&#45;&gt;Node3 -->
<g id="edge2" class="edge"><title>Node2&#45;&gt;Node3</title>
<path fill="none" stroke="midnightblue" d="M192.615,-287.648C255.161,-283.311 441.852,-268.584 497,-244 537.905,-225.765 574,-223.785 574,-179 574,-179 574,-179 574,-121 574,-58.8057 491.836,-29.6121 443.469,-17.8148"/>
<polygon fill="midnightblue" stroke="midnightblue" points="444.234,-14.3995 433.702,-15.5559 442.656,-21.2194 444.234,-14.3995"/>
</g>
<!-- Node4 -->
<g id="node4" class="node"><title>Node4</title>
<polygon fill="white" stroke="#bfbfbf" points="154,-0.5 154,-19.5 202,-19.5 202,-0.5 154,-0.5"/>
<text text-anchor="middle" x="178" y="-7.5" font-family="Helvetica,sans-Serif" font-size="10.00">stdlib.h</text>
</g>
<!-- Node2&#45;&gt;Node4 -->
<g id="edge3" class="edge"><title>Node2&#45;&gt;Node4</title>
<path fill="none" stroke="midnightblue" d="M172.261,-280.443C172.804,-261.939 174,-216.819 174,-179 174,-179 174,-179 174,-121 174,-88.9268 175.719,-51.628 176.904,-29.7413"/>
<polygon fill="midnightblue" stroke="midnightblue" points="180.409,-29.7349 177.477,-19.5539 173.42,-29.3413 180.409,-29.7349"/>
</g>
<!-- Node5 -->
<g id="node5" class="node"><title>Node5</title>
<g id="a_node5"><a xlink:href="ceptr__error_8h_source.html" target="_top" xlink:title="ceptr_error.h">
<polygon fill="white" stroke="black" points="263.5,-224.5 263.5,-243.5 334.5,-243.5 334.5,-224.5 263.5,-224.5"/>
<text text-anchor="middle" x="299" y="-231.5" font-family="Helvetica,sans-Serif" font-size="10.00">ceptr_error.h</text>
</a>
</g>
</g>
<!-- Node2&#45;&gt;Node5 -->
<g id="edge4" class="edge"><title>Node2&#45;&gt;Node5</title>
<path fill="none" stroke="midnightblue" d="M192.124,-280.444C213.024,-271.557 245.935,-257.563 269.716,-247.451"/>
<polygon fill="midnightblue" stroke="midnightblue" points="271.138,-250.65 278.971,-243.516 268.398,-244.208 271.138,-250.65"/>
</g>
<!-- Node10 -->
<g id="node10" class="node"><title>Node10</title>
<g id="a_node10"><a xlink:href="sys__defs_8h.html" target="_top" xlink:title="Defines types and vars for system defined semantics. ">
<polygon fill="white" stroke="black" points="42.5,-168.5 42.5,-187.5 107.5,-187.5 107.5,-168.5 42.5,-168.5"/>
<text text-anchor="middle" x="75" y="-175.5" font-family="Helvetica,sans-Serif" font-size="10.00">sys_defs.h</text>
</a>
</g>
</g>
<!-- Node2&#45;&gt;Node10 -->
<g id="edge9" class="edge"><title>Node2&#45;&gt;Node10</title>
<path fill="none" stroke="midnightblue" d="M161.05,-280.299C150.488,-271.65 134.333,-257.725 122,-244 108.388,-228.851 94.9891,-209.797 86.0027,-196.244"/>
<polygon fill="midnightblue" stroke="midnightblue" points="88.929,-194.323 80.5378,-187.855 83.0638,-198.144 88.929,-194.323"/>
</g>
<!-- Node11 -->
<g id="node11" class="node"><title>Node11</title>
<g id="a_node11"><a xlink:href="ceptr__types_8h_source.html" target="_top" xlink:title="ceptr_types.h">
<polygon fill="white" stroke="black" points="70,-112.5 70,-131.5 146,-131.5 146,-112.5 70,-112.5"/>
<text text-anchor="middle" x="108" y="-119.5" font-family="Helvetica,sans-Serif" font-size="10.00">ceptr_types.h</text>
</a>
</g>
</g>
<!-- Node2&#45;&gt;Node11 -->
<g id="edge20" class="edge"><title>Node2&#45;&gt;Node11</title>
<path fill="none" stroke="midnightblue" d="M168.559,-280.075C158.441,-253.832 128.644,-176.545 114.985,-141.117"/>
<polygon fill="midnightblue" stroke="midnightblue" points="118.166,-139.64 111.303,-131.568 111.635,-142.158 118.166,-139.64"/>
</g>
<!-- Node2&#45;&gt;Node16 -->
<g id="edge18" class="edge"><title>Node2&#45;&gt;Node16</title>
<path fill="none" stroke="midnightblue" d="M151.49,-280.916C128.985,-272.045 92.5934,-257.701 66.4719,-247.405"/>
<polygon fill="midnightblue" stroke="midnightblue" points="67.6007,-244.088 57.0138,-243.677 65.0337,-250.6 67.6007,-244.088"/>
</g>
<!-- Node17 -->
<g id="node17" class="node"><title>Node17</title>
<g id="a_node17"><a xlink:href="stream_8h.html" target="_top" xlink:title="streams abstraction header file ">
<polygon fill="white" stroke="black" points="432.5,-224.5 432.5,-243.5 487.5,-243.5 487.5,-224.5 432.5,-224.5"/>
<text text-anchor="middle" x="460" y="-231.5" font-family="Helvetica,sans-Serif" font-size="10.00">stream.h</text>
</a>
</g>
</g>
<!-- Node2&#45;&gt;Node17 -->
<g id="edge21" class="edge"><title>Node2&#45;&gt;Node17</title>
<path fill="none" stroke="midnightblue" d="M192.712,-285.116C240.872,-276.087 360.949,-253.572 422.43,-242.044"/>
<polygon fill="midnightblue" stroke="midnightblue" points="423.304,-245.442 432.487,-240.159 422.014,-238.562 423.304,-245.442"/>
</g>
<!-- Node6 -->
<g id="node6" class="node"><title>Node6</title>
<polygon fill="white" stroke="#bfbfbf" points="399,-56.5 399,-75.5 445,-75.5 445,-56.5 399,-56.5"/>
<text text-anchor="middle" x="422" y="-63.5" font-family="Helvetica,sans-Serif" font-size="10.00">stdio.h</text>
</g>
<!-- Node5&#45;&gt;Node6 -->
<g id="edge5" class="edge"><title>Node5&#45;&gt;Node6</title>
<path fill="none" stroke="midnightblue" d="M334.573,-226.747C357.661,-220.78 386.434,-209.385 403,-188 426.037,-158.261 426.308,-111.842 424.277,-85.9972"/>
<polygon fill="midnightblue" stroke="midnightblue" points="427.726,-85.3096 423.255,-75.7043 420.76,-86.0012 427.726,-85.3096"/>
</g>
<!-- Node7 -->
<g id="node7" class="node"><title>Node7</title>
<polygon fill="white" stroke="#bfbfbf" points="274,-168.5 274,-187.5 324,-187.5 324,-168.5 274,-168.5"/>
<text text-anchor="middle" x="299" y="-175.5" font-family="Helvetica,sans-Serif" font-size="10.00">signal.h</text>
</g>
<!-- Node5&#45;&gt;Node7 -->
<g id="edge6" class="edge"><title>Node5&#45;&gt;Node7</title>
<path fill="none" stroke="midnightblue" d="M299,-224.083C299,-217.006 299,-206.861 299,-197.986"/>
<polygon fill="midnightblue" stroke="midnightblue" points="302.5,-197.751 299,-187.751 295.5,-197.751 302.5,-197.751"/>
</g>
<!-- Node8 -->
<g id="node8" class="node"><title>Node8</title>
<polygon fill="white" stroke="#bfbfbf" points="342,-168.5 342,-187.5 394,-187.5 394,-168.5 342,-168.5"/>
<text text-anchor="middle" x="368" y="-175.5" font-family="Helvetica,sans-Serif" font-size="10.00">assert.h</text>
</g>
<!-- Node5&#45;&gt;Node8 -->
<g id="edge7" class="edge"><title>Node5&#45;&gt;Node8</title>
<path fill="none" stroke="midnightblue" d="M310.086,-224.324C320.486,-216.185 336.261,-203.839 348.722,-194.087"/>
<polygon fill="midnightblue" stroke="midnightblue" points="350.994,-196.753 356.712,-187.834 346.68,-191.241 350.994,-196.753"/>
</g>
<!-- Node9 -->
<g id="node9" class="node"><title>Node9</title>
<polygon fill="white" stroke="#bfbfbf" points="202,-168.5 202,-187.5 256,-187.5 256,-168.5 202,-168.5"/>
<text text-anchor="middle" x="229" y="-175.5" font-family="Helvetica,sans-Serif" font-size="10.00">setjmp.h</text>
</g>
<!-- Node5&#45;&gt;Node9 -->
<g id="edge8" class="edge"><title>Node5&#45;&gt;Node9</title>
<path fill="none" stroke="midnightblue" d="M287.753,-224.324C277.203,-216.185 261.199,-203.839 248.558,-194.087"/>
<polygon fill="midnightblue" stroke="midnightblue" points="250.507,-191.171 240.451,-187.834 246.231,-196.713 250.507,-191.171"/>
</g>
<!-- Node10&#45;&gt;Node11 -->
<g id="edge10" class="edge"><title>Node10&#45;&gt;Node11</title>
<path fill="none" stroke="midnightblue" d="M80.4493,-168.083C85.0145,-160.613 91.6684,-149.724 97.2934,-140.52"/>
<polygon fill="midnightblue" stroke="midnightblue" points="100.424,-142.109 102.652,-131.751 94.4511,-138.459 100.424,-142.109"/>
</g>
<!-- Node11&#45;&gt;Node6 -->
<g id="edge12" class="edge"><title>Node11&#45;&gt;Node6</title>
<path fill="none" stroke="midnightblue" d="M146.189,-114.433C208.324,-103.747 330.253,-82.7782 388.92,-72.6889"/>
<polygon fill="midnightblue" stroke="midnightblue" points="389.515,-76.1381 398.777,-70.9938 388.328,-69.2394 389.515,-76.1381"/>
</g>
<!-- Node12 -->
<g id="node12" class="node"><title>Node12</title>
<polygon fill="white" stroke="#bfbfbf" points="19.5,-56.5 19.5,-75.5 68.5,-75.5 68.5,-56.5 19.5,-56.5"/>
<text text-anchor="middle" x="44" y="-63.5" font-family="Helvetica,sans-Serif" font-size="10.00">stdint.h</text>
</g>
<!-- Node11&#45;&gt;Node12 -->
<g id="edge11" class="edge"><title>Node11&#45;&gt;Node12</title>
<path fill="none" stroke="midnightblue" d="M97.7173,-112.324C88.1637,-104.263 73.7203,-92.0765 62.2157,-82.3695"/>
<polygon fill="midnightblue" stroke="midnightblue" points="64.3698,-79.6076 54.4698,-75.8339 59.8557,-84.9577 64.3698,-79.6076"/>
</g>
<!-- Node13 -->
<g id="node13" class="node"><title>Node13</title>
<g id="a_node13"><a xlink:href="uthash_8h_source.html" target="_top" xlink:title="uthash.h">
<polygon fill="white" stroke="black" points="87,-56.5 87,-75.5 141,-75.5 141,-56.5 87,-56.5"/>
<text text-anchor="middle" x="114" y="-63.5" font-family="Helvetica,sans-Serif" font-size="10.00">uthash.h</text>
</a>
</g>
</g>
<!-- Node11&#45;&gt;Node13 -->
<g id="edge13" class="edge"><title>Node11&#45;&gt;Node13</title>
<path fill="none" stroke="midnightblue" d="M108.991,-112.083C109.786,-104.927 110.929,-94.6353 111.923,-85.6911"/>
<polygon fill="midnightblue" stroke="midnightblue" points="115.402,-86.0765 113.028,-75.7511 108.445,-85.3034 115.402,-86.0765"/>
</g>
<!-- Node13&#45;&gt;Node3 -->
<g id="edge14" class="edge"><title>Node13&#45;&gt;Node3</title>
<path fill="none" stroke="midnightblue" d="M141.224,-60.0166C195.047,-50.1643 314.982,-28.21 374.346,-17.3435"/>
<polygon fill="midnightblue" stroke="midnightblue" points="375.15,-20.7546 384.356,-15.5111 373.889,-13.869 375.15,-20.7546"/>
</g>
<!-- Node13&#45;&gt;Node4 -->
<g id="edge16" class="edge"><title>Node13&#45;&gt;Node4</title>
<path fill="none" stroke="midnightblue" d="M124.283,-56.324C133.836,-48.2631 148.28,-36.0765 159.784,-26.3695"/>
<polygon fill="midnightblue" stroke="midnightblue" points="162.144,-28.9577 167.53,-19.8339 157.63,-23.6076 162.144,-28.9577"/>
</g>
<!-- Node14 -->
<g id="node14" class="node"><title>Node14</title>
<polygon fill="white" stroke="#bfbfbf" points="84,-0.5 84,-19.5 136,-19.5 136,-0.5 84,-0.5"/>
<text text-anchor="middle" x="110" y="-7.5" font-family="Helvetica,sans-Serif" font-size="10.00">stddef.h</text>
</g>
<!-- Node13&#45;&gt;Node14 -->
<g id="edge15" class="edge"><title>Node13&#45;&gt;Node14</title>
<path fill="none" stroke="midnightblue" d="M113.339,-56.083C112.815,-49.0059 112.064,-38.8611 111.406,-29.9865"/>
<polygon fill="midnightblue" stroke="midnightblue" points="114.877,-29.4652 110.648,-19.7511 107.897,-29.9823 114.877,-29.4652"/>
</g>
<!-- Node15 -->
<g id="node15" class="node"><title>Node15</title>
<polygon fill="white" stroke="#bfbfbf" points="6.5,-0.5 6.5,-19.5 65.5,-19.5 65.5,-0.5 6.5,-0.5"/>
<text text-anchor="middle" x="36" y="-7.5" font-family="Helvetica,sans-Serif" font-size="10.00">inttypes.h</text>
</g>
<!-- Node13&#45;&gt;Node15 -->
<g id="edge17" class="edge"><title>Node13&#45;&gt;Node15</title>
<path fill="none" stroke="midnightblue" d="M101.468,-56.324C89.4141,-47.979 70.9732,-35.2122 56.7313,-25.3524"/>
<polygon fill="midnightblue" stroke="midnightblue" points="58.7151,-22.469 48.5009,-19.6545 54.7306,-28.2243 58.7151,-22.469"/>
</g>
<!-- Node16&#45;&gt;Node10 -->
<g id="edge19" class="edge"><title>Node16&#45;&gt;Node10</title>
<path fill="none" stroke="midnightblue" d="M41.6052,-224.083C47.2552,-216.455 55.5448,-205.264 62.4512,-195.941"/>
<polygon fill="midnightblue" stroke="midnightblue" points="65.3779,-197.87 68.5177,-187.751 59.7529,-193.703 65.3779,-197.87"/>
</g>
<!-- Node17&#45;&gt;Node6 -->
<g id="edge22" class="edge"><title>Node17&#45;&gt;Node6</title>
<path fill="none" stroke="midnightblue" d="M458.62,-224.422C455.348,-204.52 446.596,-153.722 436,-112 433.731,-103.067 430.749,-93.2835 428.12,-85.1268"/>
<polygon fill="midnightblue" stroke="midnightblue" points="431.416,-83.9477 424.957,-75.5497 424.769,-86.1429 431.416,-83.9477"/>
</g>
<!-- Node18 -->
<g id="node18" class="node"><title>Node18</title>
<polygon fill="white" stroke="#bfbfbf" points="488.5,-168.5 488.5,-187.5 545.5,-187.5 545.5,-168.5 488.5,-168.5"/>
<text text-anchor="middle" x="517" y="-175.5" font-family="Helvetica,sans-Serif" font-size="10.00">pthread.h</text>
</g>
<!-- Node17&#45;&gt;Node18 -->
<g id="edge23" class="edge"><title>Node17&#45;&gt;Node18</title>
<path fill="none" stroke="midnightblue" d="M469.158,-224.324C477.501,-216.42 490.032,-204.548 500.177,-194.938"/>
<polygon fill="midnightblue" stroke="midnightblue" points="502.823,-197.252 507.675,-187.834 498.009,-192.171 502.823,-197.252"/>
</g>
<!-- Node19&#45;&gt;Node2 -->
<g id="edge25" class="edge"><title>Node19&#45;&gt;Node2</title>
<path fill="none" stroke="midnightblue" d="M132.761,-336.083C139.537,-328.298 149.543,-316.801 157.755,-307.367"/>
<polygon fill="midnightblue" stroke="midnightblue" points="160.458,-309.592 164.383,-299.751 155.178,-304.996 160.458,-309.592"/>
</g>
<!-- Node19&#45;&gt;Node20 -->
<g id="edge26" class="edge"><title>Node19&#45;&gt;Node20</title>
<path fill="none" stroke="midnightblue" d="M120.707,-336.083C117.148,-328.691 111.978,-317.953 107.576,-308.811"/>
<polygon fill="midnightblue" stroke="midnightblue" points="110.705,-307.243 103.213,-299.751 104.398,-310.279 110.705,-307.243"/>
</g>
</g>
</svg>
