<?xml version="1.0" encoding="UTF-8" standalone="no"?>
<!DOCTYPE svg PUBLIC "-//W3C//DTD SVG 1.1//EN"
 "http://www.w3.org/Graphics/SVG/1.1/DTD/svg11.dtd">
<!-- Generated by graphviz version 2.38.0 (20140413.2041)
 -->
<!-- Title: src/sys_defs.c Pages: 1 -->
<svg width="526pt" height="420pt"
 viewBox="0.00 0.00 526.00 420.00" xmlns="http://www.w3.org/2000/svg" xmlns:xlink="http://www.w3.org/1999/xlink">
<g id="graph0" class="graph" transform="scale(1 1) rotate(0) translate(4 416)">
<title>src/sys_defs.c</title>
<polygon fill="white" stroke="none" points="-4,4 -4,-416 522,-416 522,4 -4,4"/>
<!-- Node1 -->
<g id="node1" class="node"><title>Node1</title>
<polygon fill="#bfbfbf" stroke="black" points="111.5,-392.5 111.5,-411.5 192.5,-411.5 192.5,-392.5 111.5,-392.5"/>
<text text-anchor="middle" x="152" y="-399.5" font-family="Helvetica,sans-Serif" font-size="10.00">src/sys_defs.c</text>
</g>
<!-- Node2 -->
<g id="node2" class="node"><title>Node2</title>
<g id="a_node2"><a xlink:href="tree_8h.html" target="_top" xlink:title="semantic trees header file ">
<polygon fill="white" stroke="black" points="156.5,-280.5 156.5,-299.5 197.5,-299.5 197.5,-280.5 156.5,-280.5"/>
<text text-anchor="middle" x="177" y="-287.5" font-family="Helvetica,sans-Serif" font-size="10.00">tree.h</text>
</a>
</g>
</g>
<!-- Node1&#45;&gt;Node2 -->
<g id="edge1" class="edge"><title>Node1&#45;&gt;Node2</title>
<path fill="none" stroke="midnightblue" d="M153.962,-392.368C157.996,-374.617 167.303,-333.666 172.773,-309.597"/>
<polygon fill="midnightblue" stroke="midnightblue" points="176.244,-310.118 175.047,-299.591 169.418,-308.567 176.244,-310.118"/>
</g>
<!-- Node16 -->
<g id="node16" class="node"><title>Node16</title>
<g id="a_node16"><a xlink:href="base__defs_8h.html" target="_top" xlink:title="auto&#45;generated system definitions ">
<polygon fill="white" stroke="black" points="0,-224.5 0,-243.5 70,-243.5 70,-224.5 0,-224.5"/>
<text text-anchor="middle" x="35" y="-231.5" font-family="Helvetica,sans-Serif" font-size="10.00">base_defs.h</text>
</a>
</g>
</g>
<!-- Node1&#45;&gt;Node16 -->
<g id="edge26" class="edge"><title>Node1&#45;&gt;Node16</title>
<path fill="none" stroke="midnightblue" d="M145.71,-392.075C126.974,-365.493 71.3249,-286.538 46.8151,-251.763"/>
<polygon fill="midnightblue" stroke="midnightblue" points="49.6609,-249.726 41.039,-243.568 43.9392,-253.758 49.6609,-249.726"/>
</g>
<!-- Node18 -->
<g id="node18" class="node"><title>Node18</title>
<g id="a_node18"><a xlink:href="def_8h.html" target="_top" xlink:title="header file for symbol and structure definition functions ">
<polygon fill="white" stroke="black" points="180,-336.5 180,-355.5 218,-355.5 218,-336.5 180,-336.5"/>
<text text-anchor="middle" x="199" y="-343.5" font-family="Helvetica,sans-Serif" font-size="10.00">def.h</text>
</a>
</g>
</g>
<!-- Node1&#45;&gt;Node18 -->
<g id="edge23" class="edge"><title>Node1&#45;&gt;Node18</title>
<path fill="none" stroke="midnightblue" d="M159.761,-392.083C166.537,-384.298 176.543,-372.801 184.755,-363.367"/>
<polygon fill="midnightblue" stroke="midnightblue" points="187.458,-365.592 191.383,-355.751 182.178,-360.996 187.458,-365.592"/>
</g>
<!-- Node3 -->
<g id="node3" class="node"><title>Node3</title>
<polygon fill="white" stroke="#bfbfbf" points="395.5,-0.5 395.5,-19.5 444.5,-19.5 444.5,-0.5 395.5,-0.5"/>
<text text-anchor="middle" x="420" y="-7.5" font-family="Helvetica,sans-Serif" font-size="10.00">string.h</text>
</g>
<!-- Node2&#45;&gt;Node3 -->
<g id="edge2" class="edge"><title>Node2&#45;&gt;Node3</title>
<path fill="none" stroke="midnightblue" d="M197.737,-282.645C234.52,-271.347 308.425,-248.523 320,-244 383.146,-219.324 458,-246.796 458,-179 458,-179 458,-179 458,-121 458,-86.8131 441.4,-49.7639 430.143,-28.5707"/>
<polygon fill="midnightblue" stroke="midnightblue" points="433.181,-26.832 425.284,-19.769 427.053,-30.2151 433.181,-26.832"/>
</g>
<!-- Node4 -->
<g id="node4" class="node"><title>Node4</title>
<polygon fill="white" stroke="#bfbfbf" points="470,-0.5 470,-19.5 518,-19.5 518,-0.5 470,-0.5"/>
<text text-anchor="middle" x="494" y="-7.5" font-family="Helvetica,sans-Serif" font-size="10.00">stdlib.h</text>
</g>
<!-- Node2&#45;&gt;Node4 -->
<g id="edge3" class="edge"><title>Node2&#45;&gt;Node4</title>
<path fill="none" stroke="midnightblue" d="M197.586,-282.543C200.726,-281.64 203.939,-280.762 207,-280 339.036,-247.143 496,-315.062 496,-179 496,-179 496,-179 496,-121 496,-88.9427 495.14,-51.639 494.548,-29.747"/>
<polygon fill="midnightblue" stroke="midnightblue" points="498.041,-29.4544 494.261,-19.5568 491.044,-29.6513 498.041,-29.4544"/>
</g>
<!-- Node5 -->
<g id="node5" class="node"><title>Node5</title>
<g id="a_node5"><a xlink:href="ceptr__error_8h_source.html" target="_top" xlink:title="ceptr_error.h">
<polygon fill="white" stroke="black" points="202.5,-224.5 202.5,-243.5 273.5,-243.5 273.5,-224.5 202.5,-224.5"/>
<text text-anchor="middle" x="238" y="-231.5" font-family="Helvetica,sans-Serif" font-size="10.00">ceptr_error.h</text>
</a>
</g>
</g>
<!-- Node2&#45;&gt;Node5 -->
<g id="edge4" class="edge"><title>Node2&#45;&gt;Node5</title>
<path fill="none" stroke="midnightblue" d="M186.801,-280.324C195.818,-272.341 209.406,-260.313 220.318,-250.653"/>
<polygon fill="midnightblue" stroke="midnightblue" points="222.853,-253.083 228.021,-243.834 218.213,-247.842 222.853,-253.083"/>
</g>
<!-- Node10 -->
<g id="node10" class="node"><title>Node10</title>
<g id="a_node10"><a xlink:href="sys__defs_8h.html" target="_top" xlink:title="Defines types and vars for system defined semantics. ">
<polygon fill="white" stroke="black" points="22.5,-168.5 22.5,-187.5 87.5,-187.5 87.5,-168.5 22.5,-168.5"/>
<text text-anchor="middle" x="55" y="-175.5" font-family="Helvetica,sans-Serif" font-size="10.00">sys_defs.h</text>
</a>
</g>
</g>
<!-- Node2&#45;&gt;Node10 -->
<g id="edge9" class="edge"><title>Node2&#45;&gt;Node10</title>
<path fill="none" stroke="midnightblue" d="M165.814,-280.303C154.536,-271.429 136.736,-257.134 122,-244 103.796,-227.775 83.8447,-208.167 70.4893,-194.759"/>
<polygon fill="midnightblue" stroke="midnightblue" points="72.9749,-192.295 63.4511,-187.653 68.0016,-197.221 72.9749,-192.295"/>
</g>
<!-- Node11 -->
<g id="node11" class="node"><title>Node11</title>
<g id="a_node11"><a xlink:href="ceptr__types_8h_source.html" target="_top" xlink:title="ceptr_types.h">
<polygon fill="white" stroke="black" points="128,-112.5 128,-131.5 204,-131.5 204,-112.5 128,-112.5"/>
<text text-anchor="middle" x="166" y="-119.5" font-family="Helvetica,sans-Serif" font-size="10.00">ceptr_types.h</text>
</a>
</g>
</g>
<!-- Node2&#45;&gt;Node11 -->
<g id="edge20" class="edge"><title>Node2&#45;&gt;Node11</title>
<path fill="none" stroke="midnightblue" d="M172.072,-280.454C162.613,-263.502 142.212,-224.128 135,-188 133.26,-179.283 132.359,-176.488 135,-168 138.229,-157.622 144.776,-147.521 151.025,-139.527"/>
<polygon fill="midnightblue" stroke="midnightblue" points="153.785,-141.682 157.517,-131.766 148.416,-137.19 153.785,-141.682"/>
</g>
<!-- Node2&#45;&gt;Node16 -->
<g id="edge18" class="edge"><title>Node2&#45;&gt;Node16</title>
<path fill="none" stroke="midnightblue" d="M156.352,-281.148C132.922,-272.238 94.4212,-257.597 67.073,-247.197"/>
<polygon fill="midnightblue" stroke="midnightblue" points="68.1416,-243.859 57.5506,-243.576 65.6535,-250.402 68.1416,-243.859"/>
</g>
<!-- Node17 -->
<g id="node17" class="node"><title>Node17</title>
<g id="a_node17"><a xlink:href="stream_8h.html" target="_top" xlink:title="streams abstraction header file ">
<polygon fill="white" stroke="black" points="374.5,-112.5 374.5,-131.5 429.5,-131.5 429.5,-112.5 374.5,-112.5"/>
<text text-anchor="middle" x="402" y="-119.5" font-family="Helvetica,sans-Serif" font-size="10.00">stream.h</text>
</a>
</g>
</g>
<!-- Node2&#45;&gt;Node17 -->
<g id="edge21" class="edge"><title>Node2&#45;&gt;Node17</title>
<path fill="none" stroke="midnightblue" d="M197.751,-282.743C235.502,-270.4 315.945,-239.55 364,-188 376.927,-174.133 387.403,-155.116 394.057,-141.235"/>
<polygon fill="midnightblue" stroke="midnightblue" points="397.399,-142.341 398.377,-131.792 391.034,-139.429 397.399,-142.341"/>
</g>
<!-- Node6 -->
<g id="node6" class="node"><title>Node6</title>
<polygon fill="white" stroke="#bfbfbf" points="331,-56.5 331,-75.5 377,-75.5 377,-56.5 331,-56.5"/>
<text text-anchor="middle" x="354" y="-63.5" font-family="Helvetica,sans-Serif" font-size="10.00">stdio.h</text>
</g>
<!-- Node5&#45;&gt;Node6 -->
<g id="edge5" class="edge"><title>Node5&#45;&gt;Node6</title>
<path fill="none" stroke="midnightblue" d="M273.593,-227.823C297.853,-222.297 328.469,-210.987 345,-188 366.855,-157.61 362.706,-111.107 358.123,-85.504"/>
<polygon fill="midnightblue" stroke="midnightblue" points="361.541,-84.7472 356.142,-75.6308 354.677,-86.1238 361.541,-84.7472"/>
</g>
<!-- Node7 -->
<g id="node7" class="node"><title>Node7</title>
<polygon fill="white" stroke="#bfbfbf" points="144,-168.5 144,-187.5 194,-187.5 194,-168.5 144,-168.5"/>
<text text-anchor="middle" x="169" y="-175.5" font-family="Helvetica,sans-Serif" font-size="10.00">signal.h</text>
</g>
<!-- Node5&#45;&gt;Node7 -->
<g id="edge6" class="edge"><title>Node5&#45;&gt;Node7</title>
<path fill="none" stroke="midnightblue" d="M226.914,-224.324C216.514,-216.185 200.739,-203.839 188.278,-194.087"/>
<polygon fill="midnightblue" stroke="midnightblue" points="190.32,-191.241 180.288,-187.834 186.006,-196.753 190.32,-191.241"/>
</g>
<!-- Node8 -->
<g id="node8" class="node"><title>Node8</title>
<polygon fill="white" stroke="#bfbfbf" points="212,-168.5 212,-187.5 264,-187.5 264,-168.5 212,-168.5"/>
<text text-anchor="middle" x="238" y="-175.5" font-family="Helvetica,sans-Serif" font-size="10.00">assert.h</text>
</g>
<!-- Node5&#45;&gt;Node8 -->
<g id="edge7" class="edge"><title>Node5&#45;&gt;Node8</title>
<path fill="none" stroke="midnightblue" d="M238,-224.083C238,-217.006 238,-206.861 238,-197.986"/>
<polygon fill="midnightblue" stroke="midnightblue" points="241.5,-197.751 238,-187.751 234.5,-197.751 241.5,-197.751"/>
</g>
<!-- Node9 -->
<g id="node9" class="node"><title>Node9</title>
<polygon fill="white" stroke="#bfbfbf" points="282,-168.5 282,-187.5 336,-187.5 336,-168.5 282,-168.5"/>
<text text-anchor="middle" x="309" y="-175.5" font-family="Helvetica,sans-Serif" font-size="10.00">setjmp.h</text>
</g>
<!-- Node5&#45;&gt;Node9 -->
<g id="edge8" class="edge"><title>Node5&#45;&gt;Node9</title>
<path fill="none" stroke="midnightblue" d="M249.407,-224.324C260.109,-216.185 276.341,-203.839 289.163,-194.087"/>
<polygon fill="midnightblue" stroke="midnightblue" points="291.544,-196.673 297.385,-187.834 287.307,-191.102 291.544,-196.673"/>
</g>
<!-- Node10&#45;&gt;Node11 -->
<g id="edge10" class="edge"><title>Node10&#45;&gt;Node11</title>
<path fill="none" stroke="midnightblue" d="M72.8341,-168.324C90.7159,-159.625 118.475,-146.12 139.046,-136.113"/>
<polygon fill="midnightblue" stroke="midnightblue" points="140.749,-139.177 148.21,-131.655 137.687,-132.882 140.749,-139.177"/>
</g>
<!-- Node11&#45;&gt;Node6 -->
<g id="edge12" class="edge"><title>Node11&#45;&gt;Node6</title>
<path fill="none" stroke="midnightblue" d="M195.789,-112.444C229.902,-102.645 285.627,-86.6391 321.022,-76.4723"/>
<polygon fill="midnightblue" stroke="midnightblue" points="322.224,-79.7686 330.87,-73.6439 320.292,-73.0407 322.224,-79.7686"/>
</g>
<!-- Node12 -->
<g id="node12" class="node"><title>Node12</title>
<polygon fill="white" stroke="#bfbfbf" points="141.5,-56.5 141.5,-75.5 190.5,-75.5 190.5,-56.5 141.5,-56.5"/>
<text text-anchor="middle" x="166" y="-63.5" font-family="Helvetica,sans-Serif" font-size="10.00">stdint.h</text>
</g>
<!-- Node11&#45;&gt;Node12 -->
<g id="edge11" class="edge"><title>Node11&#45;&gt;Node12</title>
<path fill="none" stroke="midnightblue" d="M166,-112.083C166,-105.006 166,-94.8611 166,-85.9865"/>
<polygon fill="midnightblue" stroke="midnightblue" points="169.5,-85.751 166,-75.7511 162.5,-85.7511 169.5,-85.751"/>
</g>
<!-- Node13 -->
<g id="node13" class="node"><title>Node13</title>
<g id="a_node13"><a xlink:href="uthash_8h_source.html" target="_top" xlink:title="uthash.h">
<polygon fill="white" stroke="black" points="259,-56.5 259,-75.5 313,-75.5 313,-56.5 259,-56.5"/>
<text text-anchor="middle" x="286" y="-63.5" font-family="Helvetica,sans-Serif" font-size="10.00">uthash.h</text>
</a>
</g>
</g>
<!-- Node11&#45;&gt;Node13 -->
<g id="edge13" class="edge"><title>Node11&#45;&gt;Node13</title>
<path fill="none" stroke="midnightblue" d="M185.014,-112.444C204.588,-103.636 235.308,-89.8116 257.729,-79.722"/>
<polygon fill="midnightblue" stroke="midnightblue" points="259.392,-82.8119 267.075,-75.5164 256.519,-76.4284 259.392,-82.8119"/>
</g>
<!-- Node13&#45;&gt;Node3 -->
<g id="edge14" class="edge"><title>Node13&#45;&gt;Node3</title>
<path fill="none" stroke="midnightblue" d="M307.233,-56.4435C329.384,-47.5171 364.319,-33.4387 389.436,-23.3168"/>
<polygon fill="midnightblue" stroke="midnightblue" points="390.9,-26.5006 398.867,-19.5164 388.283,-20.0079 390.9,-26.5006"/>
</g>
<!-- Node13&#45;&gt;Node4 -->
<g id="edge16" class="edge"><title>Node13&#45;&gt;Node4</title>
<path fill="none" stroke="midnightblue" d="M313.192,-57.9404C350.855,-48.1627 418.881,-30.5021 459.899,-19.8532"/>
<polygon fill="midnightblue" stroke="midnightblue" points="460.911,-23.2066 469.71,-17.306 459.152,-16.4312 460.911,-23.2066"/>
</g>
<!-- Node14 -->
<g id="node14" class="node"><title>Node14</title>
<polygon fill="white" stroke="#bfbfbf" points="234,-0.5 234,-19.5 286,-19.5 286,-0.5 234,-0.5"/>
<text text-anchor="middle" x="260" y="-7.5" font-family="Helvetica,sans-Serif" font-size="10.00">stddef.h</text>
</g>
<!-- Node13&#45;&gt;Node14 -->
<g id="edge15" class="edge"><title>Node13&#45;&gt;Node14</title>
<path fill="none" stroke="midnightblue" d="M281.707,-56.083C278.148,-48.6913 272.978,-37.9533 268.576,-28.8111"/>
<polygon fill="midnightblue" stroke="midnightblue" points="271.705,-27.2427 264.213,-19.7511 265.398,-30.2795 271.705,-27.2427"/>
</g>
<!-- Node15 -->
<g id="node15" class="node"><title>Node15</title>
<polygon fill="white" stroke="#bfbfbf" points="304.5,-0.5 304.5,-19.5 363.5,-19.5 363.5,-0.5 304.5,-0.5"/>
<text text-anchor="middle" x="334" y="-7.5" font-family="Helvetica,sans-Serif" font-size="10.00">inttypes.h</text>
</g>
<!-- Node13&#45;&gt;Node15 -->
<g id="edge17" class="edge"><title>Node13&#45;&gt;Node15</title>
<path fill="none" stroke="midnightblue" d="M293.926,-56.083C300.846,-48.2982 311.065,-36.8015 319.452,-27.3665"/>
<polygon fill="midnightblue" stroke="midnightblue" points="322.194,-29.5505 326.221,-19.7511 316.962,-24.8999 322.194,-29.5505"/>
</g>
<!-- Node16&#45;&gt;Node10 -->
<g id="edge19" class="edge"><title>Node16&#45;&gt;Node10</title>
<path fill="none" stroke="midnightblue" d="M38.3026,-224.083C40.982,-216.849 44.8486,-206.409 48.1864,-197.397"/>
<polygon fill="midnightblue" stroke="midnightblue" points="51.5678,-198.344 51.7589,-187.751 45.0035,-195.913 51.5678,-198.344"/>
</g>
<!-- Node17&#45;&gt;Node6 -->
<g id="edge22" class="edge"><title>Node17&#45;&gt;Node6</title>
<path fill="none" stroke="midnightblue" d="M394.074,-112.083C387.154,-104.298 376.935,-92.8015 368.548,-83.3665"/>
<polygon fill="midnightblue" stroke="midnightblue" points="371.038,-80.8999 361.779,-75.7511 365.806,-85.5505 371.038,-80.8999"/>
</g>
<!-- Node18&#45;&gt;Node2 -->
<g id="edge24" class="edge"><title>Node18&#45;&gt;Node2</title>
<path fill="none" stroke="midnightblue" d="M195.367,-336.083C192.388,-328.77 188.074,-318.181 184.375,-309.103"/>
<polygon fill="midnightblue" stroke="midnightblue" points="187.58,-307.691 180.565,-299.751 181.097,-310.333 187.58,-307.691"/>
</g>
<!-- Node19 -->
<g id="node19" class="node"><title>Node19</title>
<polygon fill="white" stroke="#bfbfbf" points="216,-280.5 216,-299.5 268,-299.5 268,-280.5 216,-280.5"/>
<text text-anchor="middle" x="242" y="-287.5" font-family="Helvetica,sans-Serif" font-size="10.00">stdarg.h</text>
</g>
<!-- Node18&#45;&gt;Node19 -->
<g id="edge25" class="edge"><title>Node18&#45;&gt;Node19</title>
<path fill="none" stroke="midnightblue" d="M206.101,-336.083C212.237,-328.377 221.27,-317.033 228.739,-307.653"/>
<polygon fill="midnightblue" stroke="midnightblue" points="231.54,-309.754 235.032,-299.751 226.064,-305.394 231.54,-309.754"/>
</g>
</g>
</svg>
