<?xml version="1.0" encoding="UTF-8" standalone="no"?>
<!DOCTYPE svg PUBLIC "-//W3C//DTD SVG 1.1//EN"
 "http://www.w3.org/Graphics/SVG/1.1/DTD/svg11.dtd">
<!-- Generated by graphviz version 2.38.0 (20140413.2041)
 -->
<!-- Title: src/tree.c Pages: 1 -->
<!--zoomable 532 -->
<svg id="main" version="1.1" xmlns="http://www.w3.org/2000/svg" xmlns:xlink="http://www.w3.org/1999/xlink" xml:space="preserve" onload="init(evt)">
<style type="text/css"><![CDATA[
.edge:hover path { stroke: red; }
.edge:hover polygon { stroke: red; fill: red; }
]]></style>
<script type="text/javascript"><![CDATA[
var edges = document.getElementsByTagName('g');
if (edges && edges.length) {
  for (var i=0;i<edges.length;i++) {
    if (edges[i].id.substr(0,4)=='edge') {
      edges[i].setAttribute('class','edge');
    }
  }
}
]]></script>
        <defs>
                <circle id="rim" cx="0" cy="0" r="7"/>
                <circle id="rim2" cx="0" cy="0" r="3.5"/>
                <g id="zoomPlus">
                        <use xlink:href="#rim" fill="#404040">
                                <set attributeName="fill" to="#808080" begin="zoomplus.mouseover" end="zoomplus.mouseout"/>
                        </use>
                        <path d="M-4,0h8M0,-4v8" fill="none" stroke="white" stroke-width="1.5" pointer-events="none"/>
                </g>
                <g id="zoomMin">
                        <use xlink:href="#rim" fill="#404040">
                                <set attributeName="fill" to="#808080" begin="zoomminus.mouseover" end="zoomminus.mouseout"/>
                        </use>
                        <path d="M-4,0h8" fill="none" stroke="white" stroke-width="1.5" pointer-events="none"/>
                </g>
                <g id="dirArrow">
                        <path fill="none" stroke="white" stroke-width="1.5" d="M0,-3.0v7 M-2.5,-0.5L0,-3.0L2.5,-0.5"/>
                </g>
               <g id="resetDef">
                       <use xlink:href="#rim2" fill="#404040">
                               <set attributeName="fill" to="#808080" begin="reset.mouseover" end="reset.mouseout"/>
                       </use>
               </g>
        </defs>

<script type="text/javascript">
var viewWidth = 787;
var viewHeight = 532;
var sectionId = 'dynsection-0';
</script>
<script xlink:href="svgpan.js"/>
<svg id="graph" class="graph">
<g id="viewport">
<title>src/tree.c</title>
<polygon fill="white" stroke="none" points="-4,4 -4,-528 783,-528 783,4 -4,4"/>
<!-- Node1 -->
<g id="node1" class="node"><title>Node1</title>
<polygon fill="#bfbfbf" stroke="black" points="342,-504.5 342,-523.5 400,-523.5 400,-504.5 342,-504.5"/>
<text text-anchor="middle" x="371" y="-511.5" font-family="Helvetica,sans-Serif" font-size="10.00">src/tree.c</text>
</g>
<!-- Node2 -->
<g id="node2" class="node"><title>Node2</title>
<g id="a_node2"><a xlink:href="tree_8h.html" target="_top" xlink:title="semantic trees header file ">
<polygon fill="white" stroke="black" points="226.5,-336.5 226.5,-355.5 267.5,-355.5 267.5,-336.5 226.5,-336.5"/>
<text text-anchor="middle" x="247" y="-343.5" font-family="Helvetica,sans-Serif" font-size="10.00">tree.h</text>
</a>
</g>
</g>
<!-- Node1&#45;&gt;Node2 -->
<g id="edge1" class="edge"><title>Node1&#45;&gt;Node2</title>
<path fill="none" stroke="midnightblue" d="M341.862,-509.879C296.421,-504.343 212.003,-491.153 194,-468 168.213,-434.837 206.464,-387.182 230.313,-362.753"/>
<polygon fill="midnightblue" stroke="midnightblue" points="232.808,-365.209 237.451,-355.686 227.882,-360.235 232.808,-365.209"/>
</g>
<!-- Node5 -->
<g id="node5" class="node"><title>Node5</title>
<g id="a_node5"><a xlink:href="ceptr__error_8h_source.html" target="_top" xlink:title="ceptr_error.h">
<polygon fill="white" stroke="black" points="162.5,-112.5 162.5,-131.5 233.5,-131.5 233.5,-112.5 162.5,-112.5"/>
<text text-anchor="middle" x="198" y="-119.5" font-family="Helvetica,sans-Serif" font-size="10.00">ceptr_error.h</text>
</a>
</g>
</g>
<!-- Node1&#45;&gt;Node5 -->
<g id="edge29" class="edge"><title>Node1&#45;&gt;Node5</title>
<path fill="none" stroke="midnightblue" d="M341.888,-510.68C254.428,-502.916 0,-474.212 0,-403 0,-403 0,-403 0,-289 0,-205.887 103.717,-156.127 161.019,-134.977"/>
<polygon fill="midnightblue" stroke="midnightblue" points="162.235,-138.259 170.469,-131.593 159.874,-131.669 162.235,-138.259"/>
</g>
<!-- Node21 -->
<g id="node21" class="node"><title>Node21</title>
<g id="a_node21"><a xlink:href="hashfn_8h_source.html" target="_top" xlink:title="hashfn.h">
<polygon fill="white" stroke="black" points="591,-224.5 591,-243.5 645,-243.5 645,-224.5 591,-224.5"/>
<text text-anchor="middle" x="618" y="-231.5" font-family="Helvetica,sans-Serif" font-size="10.00">hashfn.h</text>
</a>
</g>
</g>
<!-- Node1&#45;&gt;Node21 -->
<g id="edge30" class="edge"><title>Node1&#45;&gt;Node21</title>
<path fill="none" stroke="midnightblue" d="M400.321,-509.714C450.391,-503.602 549.63,-489.156 577,-468 602.634,-448.186 610,-435.399 610,-403 610,-403 610,-403 610,-345 610,-312.863 613.439,-275.584 615.807,-253.719"/>
<polygon fill="midnightblue" stroke="midnightblue" points="619.312,-253.872 616.954,-243.542 612.356,-253.087 619.312,-253.872"/>
</g>
<!-- Node22 -->
<g id="node22" class="node"><title>Node22</title>
<g id="a_node22"><a xlink:href="def_8h.html" target="_top" xlink:title="header file for symbol and structure definition functions ">
<polygon fill="white" stroke="black" points="445,-392.5 445,-411.5 483,-411.5 483,-392.5 445,-392.5"/>
<text text-anchor="middle" x="464" y="-399.5" font-family="Helvetica,sans-Serif" font-size="10.00">def.h</text>
</a>
</g>
</g>
<!-- Node1&#45;&gt;Node22 -->
<g id="edge32" class="edge"><title>Node1&#45;&gt;Node22</title>
<path fill="none" stroke="midnightblue" d="M378.53,-504.419C386.425,-495.398 399.164,-480.77 410,-468 423.86,-451.666 439.477,-432.819 450.337,-419.639"/>
<polygon fill="midnightblue" stroke="midnightblue" points="453.071,-421.826 456.721,-411.88 447.665,-417.379 453.071,-421.826"/>
</g>
<!-- Node24 -->
<g id="node24" class="node"><title>Node24</title>
<g id="a_node24"><a xlink:href="receptor_8h.html" target="_top" xlink:title="receptor implementation header file ">
<polygon fill="white" stroke="black" points="341,-448.5 341,-467.5 401,-467.5 401,-448.5 341,-448.5"/>
<text text-anchor="middle" x="371" y="-455.5" font-family="Helvetica,sans-Serif" font-size="10.00">receptor.h</text>
</a>
</g>
</g>
<!-- Node1&#45;&gt;Node24 -->
<g id="edge35" class="edge"><title>Node1&#45;&gt;Node24</title>
<path fill="none" stroke="midnightblue" d="M371,-504.083C371,-497.006 371,-486.861 371,-477.986"/>
<polygon fill="midnightblue" stroke="midnightblue" points="374.5,-477.751 371,-467.751 367.5,-477.751 374.5,-477.751"/>
</g>
<!-- Node27 -->
<g id="node27" class="node"><title>Node27</title>
<g id="a_node27"><a xlink:href="scape_8h.html" target="_top" xlink:title="scape header files ">
<polygon fill="white" stroke="black" points="221.5,-392.5 221.5,-411.5 272.5,-411.5 272.5,-392.5 221.5,-392.5"/>
<text text-anchor="middle" x="247" y="-399.5" font-family="Helvetica,sans-Serif" font-size="10.00">scape.h</text>
</a>
</g>
</g>
<!-- Node1&#45;&gt;Node27 -->
<g id="edge45" class="edge"><title>Node1&#45;&gt;Node27</title>
<path fill="none" stroke="midnightblue" d="M361.27,-504.368C340.354,-485.814 290.865,-441.913 264.402,-418.438"/>
<polygon fill="midnightblue" stroke="midnightblue" points="266.488,-415.609 256.685,-411.591 261.843,-420.846 266.488,-415.609"/>
</g>
<!-- Node28 -->
<g id="node28" class="node"><title>Node28</title>
<g id="a_node28"><a xlink:href="util_8h.html" target="_top" xlink:title="util.h">
<polygon fill="white" stroke="black" points="654,-112.5 654,-131.5 692,-131.5 692,-112.5 654,-112.5"/>
<text text-anchor="middle" x="673" y="-119.5" font-family="Helvetica,sans-Serif" font-size="10.00">util.h</text>
</a>
</g>
</g>
<!-- Node1&#45;&gt;Node28 -->
<g id="edge46" class="edge"><title>Node1&#45;&gt;Node28</title>
<path fill="none" stroke="midnightblue" d="M400.35,-512.319C445.879,-510.187 535.231,-501.652 602,-468 640.204,-448.745 673,-445.782 673,-403 673,-403 673,-403 673,-233 673,-200.948 673,-163.643 673,-141.749"/>
<polygon fill="midnightblue" stroke="midnightblue" points="676.5,-141.558 673,-131.558 669.5,-141.558 676.5,-141.558"/>
</g>
<!-- Node31 -->
<g id="node31" class="node"><title>Node31</title>
<g id="a_node31"><a xlink:href="debug_8h.html" target="_top" xlink:title="debug.h">
<polygon fill="white" stroke="black" points="536.5,-168.5 536.5,-187.5 587.5,-187.5 587.5,-168.5 536.5,-168.5"/>
<text text-anchor="middle" x="562" y="-175.5" font-family="Helvetica,sans-Serif" font-size="10.00">debug.h</text>
</a>
</g>
</g>
<!-- Node1&#45;&gt;Node31 -->
<g id="edge51" class="edge"><title>Node1&#45;&gt;Node31</title>
<path fill="none" stroke="midnightblue" d="M400.161,-509.764C453.872,-502.014 563,-477.144 563,-403 563,-403 563,-403 563,-289 563,-256.947 562.57,-219.642 562.274,-197.748"/>
<polygon fill="midnightblue" stroke="midnightblue" points="565.771,-197.507 562.131,-187.558 558.772,-197.606 565.771,-197.507"/>
</g>
<!-- Node32 -->
<g id="node32" class="node"><title>Node32</title>
<g id="a_node32"><a xlink:href="semtrex_8h.html" target="_top" xlink:title="Semantic tree regular expression header file. ">
<polygon fill="white" stroke="black" points="203,-448.5 203,-467.5 263,-467.5 263,-448.5 203,-448.5"/>
<text text-anchor="middle" x="233" y="-455.5" font-family="Helvetica,sans-Serif" font-size="10.00">semtrex.h</text>
</a>
</g>
</g>
<!-- Node1&#45;&gt;Node32 -->
<g id="edge53" class="edge"><title>Node1&#45;&gt;Node32</title>
<path fill="none" stroke="midnightblue" d="M349.133,-504.444C326.221,-495.478 290.025,-481.314 264.134,-471.183"/>
<polygon fill="midnightblue" stroke="midnightblue" points="265.352,-467.901 254.764,-467.516 262.801,-474.42 265.352,-467.901"/>
</g>
<!-- Node3 -->
<g id="node3" class="node"><title>Node3</title>
<polygon fill="white" stroke="#bfbfbf" points="111.5,-0.5 111.5,-19.5 160.5,-19.5 160.5,-0.5 111.5,-0.5"/>
<text text-anchor="middle" x="136" y="-7.5" font-family="Helvetica,sans-Serif" font-size="10.00">string.h</text>
</g>
<!-- Node2&#45;&gt;Node3 -->
<g id="edge2" class="edge"><title>Node2&#45;&gt;Node3</title>
<path fill="none" stroke="midnightblue" d="M226.196,-343.717C173.332,-339.222 38,-319.467 38,-235 38,-235 38,-235 38,-121 38,-77.3804 81.4924,-43.0601 110.529,-25.0074"/>
<polygon fill="midnightblue" stroke="midnightblue" points="112.583,-27.8576 119.376,-19.7265 108.995,-21.8471 112.583,-27.8576"/>
</g>
<!-- Node4 -->
<g id="node4" class="node"><title>Node4</title>
<polygon fill="white" stroke="#bfbfbf" points="301,-0.5 301,-19.5 349,-19.5 349,-0.5 301,-0.5"/>
<text text-anchor="middle" x="325" y="-7.5" font-family="Helvetica,sans-Serif" font-size="10.00">stdlib.h</text>
</g>
<!-- Node2&#45;&gt;Node4 -->
<g id="edge3" class="edge"><title>Node2&#45;&gt;Node4</title>
<path fill="none" stroke="midnightblue" d="M226.373,-341.711C180.893,-333.163 76,-305.775 76,-235 76,-235 76,-235 76,-121 76,-90.9022 72.7699,-76.2904 95,-56 123.22,-30.2422 233.824,-18.0582 290.744,-13.3948"/>
<polygon fill="midnightblue" stroke="midnightblue" points="291.021,-16.884 300.716,-12.61 290.472,-9.90555 291.021,-16.884"/>
</g>
<!-- Node2&#45;&gt;Node5 -->
<g id="edge4" class="edge"><title>Node2&#45;&gt;Node5</title>
<path fill="none" stroke="midnightblue" d="M233.719,-336.476C222.674,-328.536 207.717,-315.596 201,-300 177.946,-246.47 187.402,-175.118 193.853,-141.723"/>
<polygon fill="midnightblue" stroke="midnightblue" points="197.352,-142.087 195.951,-131.586 190.497,-140.669 197.352,-142.087"/>
</g>
<!-- Node10 -->
<g id="node10" class="node"><title>Node10</title>
<g id="a_node10"><a xlink:href="sys__defs_8h.html" target="_top" xlink:title="Defines types and vars for system defined semantics. ">
<polygon fill="white" stroke="black" points="287.5,-224.5 287.5,-243.5 352.5,-243.5 352.5,-224.5 287.5,-224.5"/>
<text text-anchor="middle" x="320" y="-231.5" font-family="Helvetica,sans-Serif" font-size="10.00">sys_defs.h</text>
</a>
</g>
</g>
<!-- Node2&#45;&gt;Node10 -->
<g id="edge9" class="edge"><title>Node2&#45;&gt;Node10</title>
<path fill="none" stroke="midnightblue" d="M248.979,-336.422C252.261,-323.407 259.713,-298.255 272,-280 279.597,-268.713 290.515,-258.187 300.02,-250.158"/>
<polygon fill="midnightblue" stroke="midnightblue" points="302.319,-252.801 307.89,-243.789 297.915,-247.359 302.319,-252.801"/>
</g>
<!-- Node11 -->
<g id="node11" class="node"><title>Node11</title>
<g id="a_node11"><a xlink:href="ceptr__types_8h_source.html" target="_top" xlink:title="ceptr_types.h">
<polygon fill="white" stroke="black" points="434,-112.5 434,-131.5 510,-131.5 510,-112.5 434,-112.5"/>
<text text-anchor="middle" x="472" y="-119.5" font-family="Helvetica,sans-Serif" font-size="10.00">ceptr_types.h</text>
</a>
</g>
</g>
<!-- Node2&#45;&gt;Node11 -->
<g id="edge24" class="edge"><title>Node2&#45;&gt;Node11</title>
<path fill="none" stroke="midnightblue" d="M267.768,-340.838C292.09,-335.103 332.541,-322.793 360,-300 414.265,-254.956 450.589,-176.578 465.012,-141.222"/>
<polygon fill="midnightblue" stroke="midnightblue" points="468.349,-142.302 468.78,-131.716 461.842,-139.722 468.349,-142.302"/>
</g>
<!-- Node18 -->
<g id="node18" class="node"><title>Node18</title>
<g id="a_node18"><a xlink:href="base__defs_8h.html" target="_top" xlink:title="auto&#45;generated system definitions ">
<polygon fill="white" stroke="black" points="281,-280.5 281,-299.5 351,-299.5 351,-280.5 281,-280.5"/>
<text text-anchor="middle" x="316" y="-287.5" font-family="Helvetica,sans-Serif" font-size="10.00">base_defs.h</text>
</a>
</g>
</g>
<!-- Node2&#45;&gt;Node18 -->
<g id="edge22" class="edge"><title>Node2&#45;&gt;Node18</title>
<path fill="none" stroke="midnightblue" d="M258.086,-336.324C268.486,-328.185 284.261,-315.839 296.722,-306.087"/>
<polygon fill="midnightblue" stroke="midnightblue" points="298.994,-308.753 304.712,-299.834 294.68,-303.241 298.994,-308.753"/>
</g>
<!-- Node19 -->
<g id="node19" class="node"><title>Node19</title>
<g id="a_node19"><a xlink:href="stream_8h.html" target="_top" xlink:title="streams abstraction header file ">
<polygon fill="white" stroke="black" points="337.5,-112.5 337.5,-131.5 392.5,-131.5 392.5,-112.5 337.5,-112.5"/>
<text text-anchor="middle" x="365" y="-119.5" font-family="Helvetica,sans-Serif" font-size="10.00">stream.h</text>
</a>
</g>
</g>
<!-- Node2&#45;&gt;Node19 -->
<g id="edge25" class="edge"><title>Node2&#45;&gt;Node19</title>
<path fill="none" stroke="midnightblue" d="M247.957,-336.486C249.472,-323.97 252.797,-299.933 258,-280 264.675,-254.428 264.735,-246.858 278,-224 294.453,-195.648 304.599,-192.831 326,-168 334.201,-158.485 343.402,-147.866 350.807,-139.333"/>
<polygon fill="midnightblue" stroke="midnightblue" points="353.595,-141.46 357.509,-131.615 348.31,-136.87 353.595,-141.46"/>
</g>
<!-- Node6 -->
<g id="node6" class="node"><title>Node6</title>
<polygon fill="white" stroke="#bfbfbf" points="536,-56.5 536,-75.5 582,-75.5 582,-56.5 536,-56.5"/>
<text text-anchor="middle" x="559" y="-63.5" font-family="Helvetica,sans-Serif" font-size="10.00">stdio.h</text>
</g>
<!-- Node5&#45;&gt;Node6 -->
<g id="edge5" class="edge"><title>Node5&#45;&gt;Node6</title>
<path fill="none" stroke="midnightblue" d="M233.816,-117.739C292.775,-112.017 414.075,-98.7582 525.604,-76.0452"/>
<polygon fill="midnightblue" stroke="midnightblue" points="526.589,-79.4155 535.673,-73.9628 525.172,-72.5606 526.589,-79.4155"/>
</g>
<!-- Node7 -->
<g id="node7" class="node"><title>Node7</title>
<polygon fill="white" stroke="#bfbfbf" points="104,-56.5 104,-75.5 154,-75.5 154,-56.5 104,-56.5"/>
<text text-anchor="middle" x="129" y="-63.5" font-family="Helvetica,sans-Serif" font-size="10.00">signal.h</text>
</g>
<!-- Node5&#45;&gt;Node7 -->
<g id="edge6" class="edge"><title>Node5&#45;&gt;Node7</title>
<path fill="none" stroke="midnightblue" d="M186.914,-112.324C176.514,-104.185 160.739,-91.8395 148.278,-82.0874"/>
<polygon fill="midnightblue" stroke="midnightblue" points="150.32,-79.2407 140.288,-75.8339 146.006,-84.7533 150.32,-79.2407"/>
</g>
<!-- Node8 -->
<g id="node8" class="node"><title>Node8</title>
<polygon fill="white" stroke="#bfbfbf" points="172,-56.5 172,-75.5 224,-75.5 224,-56.5 172,-56.5"/>
<text text-anchor="middle" x="198" y="-63.5" font-family="Helvetica,sans-Serif" font-size="10.00">assert.h</text>
</g>
<!-- Node5&#45;&gt;Node8 -->
<g id="edge7" class="edge"><title>Node5&#45;&gt;Node8</title>
<path fill="none" stroke="midnightblue" d="M198,-112.083C198,-105.006 198,-94.8611 198,-85.9865"/>
<polygon fill="midnightblue" stroke="midnightblue" points="201.5,-85.751 198,-75.7511 194.5,-85.7511 201.5,-85.751"/>
</g>
<!-- Node9 -->
<g id="node9" class="node"><title>Node9</title>
<polygon fill="white" stroke="#bfbfbf" points="242,-56.5 242,-75.5 296,-75.5 296,-56.5 242,-56.5"/>
<text text-anchor="middle" x="269" y="-63.5" font-family="Helvetica,sans-Serif" font-size="10.00">setjmp.h</text>
</g>
<!-- Node5&#45;&gt;Node9 -->
<g id="edge8" class="edge"><title>Node5&#45;&gt;Node9</title>
<path fill="none" stroke="midnightblue" d="M209.407,-112.324C220.109,-104.185 236.341,-91.8395 249.163,-82.0874"/>
<polygon fill="midnightblue" stroke="midnightblue" points="251.544,-84.6734 257.385,-75.8339 247.307,-79.1018 251.544,-84.6734"/>
</g>
<!-- Node10&#45;&gt;Node11 -->
<g id="edge10" class="edge"><title>Node10&#45;&gt;Node11</title>
<path fill="none" stroke="midnightblue" d="M320.576,-224.158C321.946,-210.328 326.553,-183.554 342,-168 363.713,-146.137 396.56,-134.881 423.802,-129.094"/>
<polygon fill="midnightblue" stroke="midnightblue" points="424.781,-132.469 433.934,-127.133 423.451,-125.597 424.781,-132.469"/>
</g>
<!-- Node17 -->
<g id="node17" class="node"><title>Node17</title>
<g id="a_node17"><a xlink:href="semtable_8h.html" target="_top" xlink:title="header file for table for coordinating meaning across a vmhost ">
<polygon fill="white" stroke="black" points="351.5,-168.5 351.5,-187.5 416.5,-187.5 416.5,-168.5 351.5,-168.5"/>
<text text-anchor="middle" x="384" y="-175.5" font-family="Helvetica,sans-Serif" font-size="10.00">semtable.h</text>
</a>
</g>
</g>
<!-- Node10&#45;&gt;Node17 -->
<g id="edge19" class="edge"><title>Node10&#45;&gt;Node17</title>
<path fill="none" stroke="midnightblue" d="M330.283,-224.324C339.836,-216.263 354.28,-204.077 365.784,-194.369"/>
<polygon fill="midnightblue" stroke="midnightblue" points="368.144,-196.958 373.53,-187.834 363.63,-191.608 368.144,-196.958"/>
</g>
<!-- Node11&#45;&gt;Node6 -->
<g id="edge12" class="edge"><title>Node11&#45;&gt;Node6</title>
<path fill="none" stroke="midnightblue" d="M485.978,-112.324C499.55,-103.9 520.38,-90.9709 536.325,-81.0741"/>
<polygon fill="midnightblue" stroke="midnightblue" points="538.406,-83.9019 545.057,-75.6545 534.714,-77.9544 538.406,-83.9019"/>
</g>
<!-- Node12 -->
<g id="node12" class="node"><title>Node12</title>
<polygon fill="white" stroke="#bfbfbf" points="600.5,-56.5 600.5,-75.5 649.5,-75.5 649.5,-56.5 600.5,-56.5"/>
<text text-anchor="middle" x="625" y="-63.5" font-family="Helvetica,sans-Serif" font-size="10.00">stdint.h</text>
</g>
<!-- Node11&#45;&gt;Node12 -->
<g id="edge11" class="edge"><title>Node11&#45;&gt;Node12</title>
<path fill="none" stroke="midnightblue" d="M496.243,-112.444C521.871,-103.399 562.485,-89.064 591.238,-78.9158"/>
<polygon fill="midnightblue" stroke="midnightblue" points="592.605,-82.1452 600.87,-75.5164 590.275,-75.5442 592.605,-82.1452"/>
</g>
<!-- Node13 -->
<g id="node13" class="node"><title>Node13</title>
<g id="a_node13"><a xlink:href="uthash_8h_source.html" target="_top" xlink:title="uthash.h">
<polygon fill="white" stroke="black" points="464,-56.5 464,-75.5 518,-75.5 518,-56.5 464,-56.5"/>
<text text-anchor="middle" x="491" y="-63.5" font-family="Helvetica,sans-Serif" font-size="10.00">uthash.h</text>
</a>
</g>
</g>
<!-- Node11&#45;&gt;Node13 -->
<g id="edge13" class="edge"><title>Node11&#45;&gt;Node13</title>
<path fill="none" stroke="midnightblue" d="M475.137,-112.083C477.683,-104.849 481.356,-94.4087 484.527,-85.3968"/>
<polygon fill="midnightblue" stroke="midnightblue" points="487.903,-86.3459 487.921,-75.7511 481.3,-84.0225 487.903,-86.3459"/>
</g>
<!-- Node16 -->
<g id="node16" class="node"><title>Node16</title>
<polygon fill="white" stroke="#bfbfbf" points="390,-56.5 390,-75.5 446,-75.5 446,-56.5 390,-56.5"/>
<text text-anchor="middle" x="418" y="-63.5" font-family="Helvetica,sans-Serif" font-size="10.00">stdbool.h</text>
</g>
<!-- Node11&#45;&gt;Node16 -->
<g id="edge18" class="edge"><title>Node11&#45;&gt;Node16</title>
<path fill="none" stroke="midnightblue" d="M463.083,-112.083C455.22,-104.22 443.569,-92.5688 434.081,-83.0813"/>
<polygon fill="midnightblue" stroke="midnightblue" points="436.297,-80.3473 426.751,-75.7511 431.347,-85.2971 436.297,-80.3473"/>
</g>
<!-- Node13&#45;&gt;Node3 -->
<g id="edge14" class="edge"><title>Node13&#45;&gt;Node3</title>
<path fill="none" stroke="midnightblue" d="M463.941,-57.9122C460.934,-57.221 457.909,-56.5671 455,-56 352.415,-35.9985 229.62,-21.2198 170.781,-14.6966"/>
<polygon fill="midnightblue" stroke="midnightblue" points="170.88,-11.1865 160.558,-13.5752 170.117,-18.1448 170.88,-11.1865"/>
</g>
<!-- Node13&#45;&gt;Node4 -->
<g id="edge16" class="edge"><title>Node13&#45;&gt;Node4</title>
<path fill="none" stroke="midnightblue" d="M464.697,-56.4435C435.989,-47.1049 389.948,-32.1276 358.633,-21.9409"/>
<polygon fill="midnightblue" stroke="midnightblue" points="359.616,-18.5803 349.024,-18.8151 357.451,-25.2369 359.616,-18.5803"/>
</g>
<!-- Node14 -->
<g id="node14" class="node"><title>Node14</title>
<polygon fill="white" stroke="#bfbfbf" points="428,-0.5 428,-19.5 480,-19.5 480,-0.5 428,-0.5"/>
<text text-anchor="middle" x="454" y="-7.5" font-family="Helvetica,sans-Serif" font-size="10.00">stddef.h</text>
</g>
<!-- Node13&#45;&gt;Node14 -->
<g id="edge15" class="edge"><title>Node13&#45;&gt;Node14</title>
<path fill="none" stroke="midnightblue" d="M484.89,-56.083C479.718,-48.5341 472.154,-37.4948 465.806,-28.2298"/>
<polygon fill="midnightblue" stroke="midnightblue" points="468.536,-26.0221 459.996,-19.7511 462.761,-29.9787 468.536,-26.0221"/>
</g>
<!-- Node15 -->
<g id="node15" class="node"><title>Node15</title>
<polygon fill="white" stroke="#bfbfbf" points="498.5,-0.5 498.5,-19.5 557.5,-19.5 557.5,-0.5 498.5,-0.5"/>
<text text-anchor="middle" x="528" y="-7.5" font-family="Helvetica,sans-Serif" font-size="10.00">inttypes.h</text>
</g>
<!-- Node13&#45;&gt;Node15 -->
<g id="edge17" class="edge"><title>Node13&#45;&gt;Node15</title>
<path fill="none" stroke="midnightblue" d="M497.11,-56.083C502.282,-48.5341 509.846,-37.4948 516.194,-28.2298"/>
<polygon fill="midnightblue" stroke="midnightblue" points="519.239,-29.9787 522.004,-19.7511 513.464,-26.0221 519.239,-29.9787"/>
</g>
<!-- Node17&#45;&gt;Node5 -->
<g id="edge21" class="edge"><title>Node17&#45;&gt;Node5</title>
<path fill="none" stroke="midnightblue" d="M354.528,-168.444C322.829,-159.241 272.268,-144.562 237.225,-134.388"/>
<polygon fill="midnightblue" stroke="midnightblue" points="237.914,-130.943 227.334,-131.516 235.962,-137.666 237.914,-130.943"/>
</g>
<!-- Node17&#45;&gt;Node11 -->
<g id="edge20" class="edge"><title>Node17&#45;&gt;Node11</title>
<path fill="none" stroke="midnightblue" d="M398.139,-168.324C411.866,-159.9 432.936,-146.971 449.064,-137.074"/>
<polygon fill="midnightblue" stroke="midnightblue" points="451.204,-139.868 457.896,-131.655 447.543,-133.902 451.204,-139.868"/>
</g>
<!-- Node18&#45;&gt;Node10 -->
<g id="edge23" class="edge"><title>Node18&#45;&gt;Node10</title>
<path fill="none" stroke="midnightblue" d="M316.661,-280.083C317.185,-273.006 317.936,-262.861 318.594,-253.986"/>
<polygon fill="midnightblue" stroke="midnightblue" points="322.103,-253.982 319.352,-243.751 315.123,-253.465 322.103,-253.982"/>
</g>
<!-- Node19&#45;&gt;Node6 -->
<g id="edge26" class="edge"><title>Node19&#45;&gt;Node6</title>
<path fill="none" stroke="midnightblue" d="M392.525,-113.383C422.874,-104.979 473.403,-90.967 526.075,-76.2524"/>
<polygon fill="midnightblue" stroke="midnightblue" points="527.242,-79.5605 535.93,-73.4979 525.357,-72.8189 527.242,-79.5605"/>
</g>
<!-- Node19&#45;&gt;Node16 -->
<g id="edge28" class="edge"><title>Node19&#45;&gt;Node16</title>
<path fill="none" stroke="midnightblue" d="M373.752,-112.083C381.47,-104.22 392.905,-92.5688 402.217,-83.0813"/>
<polygon fill="midnightblue" stroke="midnightblue" points="404.904,-85.3396 409.411,-75.7511 399.908,-80.4363 404.904,-85.3396"/>
</g>
<!-- Node20 -->
<g id="node20" class="node"><title>Node20</title>
<polygon fill="white" stroke="#bfbfbf" points="314.5,-56.5 314.5,-75.5 371.5,-75.5 371.5,-56.5 314.5,-56.5"/>
<text text-anchor="middle" x="343" y="-63.5" font-family="Helvetica,sans-Serif" font-size="10.00">pthread.h</text>
</g>
<!-- Node19&#45;&gt;Node20 -->
<g id="edge27" class="edge"><title>Node19&#45;&gt;Node20</title>
<path fill="none" stroke="midnightblue" d="M361.367,-112.083C358.388,-104.77 354.074,-94.1814 350.375,-85.1034"/>
<polygon fill="midnightblue" stroke="midnightblue" points="353.58,-83.6914 346.565,-75.7511 347.097,-86.3326 353.58,-83.6914"/>
</g>
<!-- Node21&#45;&gt;Node12 -->
<g id="edge31" class="edge"><title>Node21&#45;&gt;Node12</title>
<path fill="none" stroke="midnightblue" d="M618.376,-224.075C619.478,-197.945 622.714,-121.211 624.217,-85.577"/>
<polygon fill="midnightblue" stroke="midnightblue" points="627.714,-85.7067 624.639,-75.5681 620.72,-85.4117 627.714,-85.7067"/>
</g>
<!-- Node22&#45;&gt;Node2 -->
<g id="edge33" class="edge"><title>Node22&#45;&gt;Node2</title>
<path fill="none" stroke="midnightblue" d="M444.743,-396.208C407.02,-386.821 323.121,-365.942 277.675,-354.633"/>
<polygon fill="midnightblue" stroke="midnightblue" points="278.344,-351.193 267.795,-352.175 276.653,-357.986 278.344,-351.193"/>
</g>
<!-- Node23 -->
<g id="node23" class="node"><title>Node23</title>
<polygon fill="white" stroke="#bfbfbf" points="445,-336.5 445,-355.5 497,-355.5 497,-336.5 445,-336.5"/>
<text text-anchor="middle" x="471" y="-343.5" font-family="Helvetica,sans-Serif" font-size="10.00">stdarg.h</text>
</g>
<!-- Node22&#45;&gt;Node23 -->
<g id="edge34" class="edge"><title>Node22&#45;&gt;Node23</title>
<path fill="none" stroke="midnightblue" d="M465.156,-392.083C466.084,-384.927 467.418,-374.635 468.577,-365.691"/>
<polygon fill="midnightblue" stroke="midnightblue" points="472.051,-366.118 469.866,-355.751 465.109,-365.218 472.051,-366.118"/>
</g>
<!-- Node24&#45;&gt;Node2 -->
<g id="edge37" class="edge"><title>Node24&#45;&gt;Node2</title>
<path fill="none" stroke="midnightblue" d="M361.211,-448.386C350.936,-439.339 334.315,-424.689 320,-412 301.104,-395.251 279.512,-376.013 264.742,-362.838"/>
<polygon fill="midnightblue" stroke="midnightblue" points="266.697,-359.892 256.906,-355.846 262.037,-365.115 266.697,-359.892"/>
</g>
<!-- Node24&#45;&gt;Node17 -->
<g id="edge36" class="edge"><title>Node24&#45;&gt;Node17</title>
<path fill="none" stroke="midnightblue" d="M377.89,-448.319C384.269,-439.684 393.308,-425.77 397,-412 417.767,-334.547 398.651,-237.58 388.909,-197.573"/>
<polygon fill="midnightblue" stroke="midnightblue" points="392.247,-196.497 386.398,-187.663 385.462,-198.216 392.247,-196.497"/>
</g>
<!-- Node24&#45;&gt;Node22 -->
<g id="edge38" class="edge"><title>Node24&#45;&gt;Node22</title>
<path fill="none" stroke="midnightblue" d="M385.942,-448.324C400.585,-439.822 423.134,-426.729 440.238,-416.797"/>
<polygon fill="midnightblue" stroke="midnightblue" points="442.205,-419.703 449.095,-411.655 438.69,-413.649 442.205,-419.703"/>
</g>
<!-- Node25 -->
<g id="node25" class="node"><title>Node25</title>
<g id="a_node25"><a xlink:href="label_8h.html" target="_top" xlink:title="Label tables map human readable text strings to parts of semantic trees. ">
<polygon fill="white" stroke="black" points="471.5,-280.5 471.5,-299.5 516.5,-299.5 516.5,-280.5 471.5,-280.5"/>
<text text-anchor="middle" x="494" y="-287.5" font-family="Helvetica,sans-Serif" font-size="10.00">label.h</text>
</a>
</g>
</g>
<!-- Node24&#45;&gt;Node25 -->
<g id="edge39" class="edge"><title>Node24&#45;&gt;Node25</title>
<path fill="none" stroke="midnightblue" d="M401.029,-453.737C428.6,-449.138 468.613,-438.141 492,-412 517.128,-383.914 508.024,-335.781 500.323,-309.483"/>
<polygon fill="midnightblue" stroke="midnightblue" points="503.571,-308.146 497.213,-299.672 496.899,-310.262 503.571,-308.146"/>
</g>
<!-- Node26 -->
<g id="node26" class="node"><title>Node26</title>
<g id="a_node26"><a xlink:href="process_8h.html" target="_top" xlink:title="processing header files ">
<polygon fill="white" stroke="black" points="329.5,-392.5 329.5,-411.5 388.5,-411.5 388.5,-392.5 329.5,-392.5"/>
<text text-anchor="middle" x="359" y="-399.5" font-family="Helvetica,sans-Serif" font-size="10.00">process.h</text>
</a>
</g>
</g>
<!-- Node24&#45;&gt;Node26 -->
<g id="edge41" class="edge"><title>Node24&#45;&gt;Node26</title>
<path fill="none" stroke="midnightblue" d="M369.018,-448.083C367.428,-440.927 365.141,-430.635 363.154,-421.691"/>
<polygon fill="midnightblue" stroke="midnightblue" points="366.531,-420.754 360.945,-411.751 359.697,-422.272 366.531,-420.754"/>
</g>
<!-- Node24&#45;&gt;Node27 -->
<g id="edge43" class="edge"><title>Node24&#45;&gt;Node27</title>
<path fill="none" stroke="midnightblue" d="M351.352,-448.444C331.035,-439.596 299.097,-425.687 275.902,-415.586"/>
<polygon fill="midnightblue" stroke="midnightblue" points="277.122,-412.3 266.556,-411.516 274.327,-418.718 277.122,-412.3"/>
</g>
<!-- Node25&#45;&gt;Node11 -->
<g id="edge40" class="edge"><title>Node25&#45;&gt;Node11</title>
<path fill="none" stroke="midnightblue" d="M492.817,-280.075C489.354,-253.945 479.185,-177.211 474.462,-141.577"/>
<polygon fill="midnightblue" stroke="midnightblue" points="477.919,-141.022 473.136,-131.568 470.98,-141.941 477.919,-141.022"/>
</g>
<!-- Node26&#45;&gt;Node2 -->
<g id="edge42" class="edge"><title>Node26&#45;&gt;Node2</title>
<path fill="none" stroke="midnightblue" d="M341.005,-392.324C322.962,-383.625 294.953,-370.12 274.197,-360.113"/>
<polygon fill="midnightblue" stroke="midnightblue" points="275.478,-356.845 264.95,-355.655 272.438,-363.15 275.478,-356.845"/>
</g>
<!-- Node27&#45;&gt;Node2 -->
<g id="edge44" class="edge"><title>Node27&#45;&gt;Node2</title>
<path fill="none" stroke="midnightblue" d="M247,-392.083C247,-385.006 247,-374.861 247,-365.986"/>
<polygon fill="midnightblue" stroke="midnightblue" points="250.5,-365.751 247,-355.751 243.5,-365.751 250.5,-365.751"/>
</g>
<!-- Node28&#45;&gt;Node6 -->
<g id="edge48" class="edge"><title>Node28&#45;&gt;Node6</title>
<path fill="none" stroke="midnightblue" d="M654.936,-112.444C636.425,-103.675 607.419,-89.9355 586.145,-79.8579"/>
<polygon fill="midnightblue" stroke="midnightblue" points="587.515,-76.6343 576.979,-75.5164 584.518,-82.9604 587.515,-76.6343"/>
</g>
<!-- Node28&#45;&gt;Node12 -->
<g id="edge50" class="edge"><title>Node28&#45;&gt;Node12</title>
<path fill="none" stroke="midnightblue" d="M665.074,-112.083C658.154,-104.298 647.935,-92.8015 639.548,-83.3665"/>
<polygon fill="midnightblue" stroke="midnightblue" points="642.038,-80.8999 632.779,-75.7511 636.806,-85.5505 642.038,-80.8999"/>
</g>
<!-- Node29 -->
<g id="node29" class="node"><title>Node29</title>
<polygon fill="white" stroke="#bfbfbf" points="667.5,-56.5 667.5,-75.5 716.5,-75.5 716.5,-56.5 667.5,-56.5"/>
<text text-anchor="middle" x="692" y="-63.5" font-family="Helvetica,sans-Serif" font-size="10.00">ctype.h</text>
</g>
<!-- Node28&#45;&gt;Node29 -->
<g id="edge47" class="edge"><title>Node28&#45;&gt;Node29</title>
<path fill="none" stroke="midnightblue" d="M676.137,-112.083C678.683,-104.849 682.356,-94.4087 685.527,-85.3968"/>
<polygon fill="midnightblue" stroke="midnightblue" points="688.903,-86.3459 688.921,-75.7511 682.3,-84.0225 688.903,-86.3459"/>
</g>
<!-- Node30 -->
<g id="node30" class="node"><title>Node30</title>
<polygon fill="white" stroke="#bfbfbf" points="735,-56.5 735,-75.5 779,-75.5 779,-56.5 735,-56.5"/>
<text text-anchor="middle" x="757" y="-63.5" font-family="Helvetica,sans-Serif" font-size="10.00">time.h</text>
</g>
<!-- Node28&#45;&gt;Node30 -->
<g id="edge49" class="edge"><title>Node28&#45;&gt;Node30</title>
<path fill="none" stroke="midnightblue" d="M686.496,-112.324C699.6,-103.9 719.712,-90.9709 735.107,-81.0741"/>
<polygon fill="midnightblue" stroke="midnightblue" points="737.018,-84.0063 743.537,-75.6545 733.233,-78.118 737.018,-84.0063"/>
</g>
<!-- Node31&#45;&gt;Node6 -->
<g id="edge52" class="edge"><title>Node31&#45;&gt;Node6</title>
<path fill="none" stroke="midnightblue" d="M561.765,-168.368C561.28,-150.617 560.164,-109.666 559.507,-85.5974"/>
<polygon fill="midnightblue" stroke="midnightblue" points="563.006,-85.4922 559.234,-75.5914 556.008,-85.6832 563.006,-85.4922"/>
</g>
<!-- Node32&#45;&gt;Node2 -->
<g id="edge54" class="edge"><title>Node32&#45;&gt;Node2</title>
<path fill="none" stroke="midnightblue" d="M226.431,-448.135C217.978,-435.592 205.149,-411.967 212,-392 215.719,-381.161 223.233,-370.922 230.349,-362.957"/>
<polygon fill="midnightblue" stroke="midnightblue" points="233.054,-365.192 237.444,-355.55 227.999,-360.35 233.054,-365.192"/>
</g>
</g>
</svg>
        <g id="navigator" transform="translate(0 0)" fill="#404254">
                <rect fill="#f2f5e9" fill-opacity="0.5" stroke="#606060" stroke-width=".5" x="0" y="0" width="60" height="60"/>
                <use id="zoomplus" xlink:href="#zoomPlus" x="17" y="9" onmousedown="handleZoom(evt,'in')"/>
                <use id="zoomminus" xlink:href="#zoomMin" x="42" y="9" onmousedown="handleZoom(evt,'out')"/>
                <use id="reset" xlink:href="#resetDef" x="30" y="36" onmousedown="handleReset()"/>
                <g id="arrowUp" xlink:href="#dirArrow" transform="translate(30 24)" onmousedown="handlePan(0,-1)">
                  <use xlink:href="#rim" fill="#404040">
                        <set attributeName="fill" to="#808080" begin="arrowUp.mouseover" end="arrowUp.mouseout"/>
                  </use>
                  <path fill="none" stroke="white" stroke-width="1.5" d="M0,-3.0v7 M-2.5,-0.5L0,-3.0L2.5,-0.5"/>
                </g>
                <g id="arrowRight" xlink:href="#dirArrow" transform="rotate(90) translate(36 -43)" onmousedown="handlePan(1,0)">
                  <use xlink:href="#rim" fill="#404040">
                        <set attributeName="fill" to="#808080" begin="arrowRight.mouseover" end="arrowRight.mouseout"/>
                  </use>
                  <path fill="none" stroke="white" stroke-width="1.5" d="M0,-3.0v7 M-2.5,-0.5L0,-3.0L2.5,-0.5"/>
                </g>
                <g id="arrowDown" xlink:href="#dirArrow" transform="rotate(180) translate(-30 -48)" onmousedown="handlePan(0,1)">
                  <use xlink:href="#rim" fill="#404040">
                        <set attributeName="fill" to="#808080" begin="arrowDown.mouseover" end="arrowDown.mouseout"/>
                  </use>
                  <path fill="none" stroke="white" stroke-width="1.5" d="M0,-3.0v7 M-2.5,-0.5L0,-3.0L2.5,-0.5"/>
                </g>
                <g id="arrowLeft" xlink:href="#dirArrow" transform="rotate(270) translate(-36 17)" onmousedown="handlePan(-1,0)">
                  <use xlink:href="#rim" fill="#404040">
                        <set attributeName="fill" to="#808080" begin="arrowLeft.mouseover" end="arrowLeft.mouseout"/>
                  </use>
                  <path fill="none" stroke="white" stroke-width="1.5" d="M0,-3.0v7 M-2.5,-0.5L0,-3.0L2.5,-0.5"/>
                </g>
        </g>
        <svg viewBox="0 0 15 15" width="100%" height="30px" preserveAspectRatio="xMaxYMin meet">
         <g id="arrow_out" transform="scale(0.3 0.3)">
          <a xlink:href="tree_8c__incl_org.svg" target="_base">
           <rect id="button" ry="5" rx="5" y="6" x="6" height="38" width="38"
                fill="#f2f5e9" fill-opacity="0.5" stroke="#606060" stroke-width="1.0"/>
           <path id="arrow"
             d="M 11.500037,31.436501 C 11.940474,20.09759 22.043105,11.32322 32.158766,21.979434 L 37.068811,17.246167 C 37.068811,17.246167 37.088388,32 37.088388,32 L 22.160133,31.978069 C 22.160133,31.978069 26.997745,27.140456 26.997745,27.140456 C 18.528582,18.264221 13.291696,25.230495 11.500037,31.436501 z"
             style="fill:#404040;"/>
          </a>
         </g>
        </svg>
</svg>
