<?xml version="1.0" encoding="UTF-8" standalone="no"?>
<!DOCTYPE svg PUBLIC "-//W3C//DTD SVG 1.1//EN"
 "http://www.w3.org/Graphics/SVG/1.1/DTD/svg11.dtd">
<!-- Generated by graphviz version 2.38.0 (20140413.2041)
 -->
<!-- Title: src/tree.c Pages: 1 -->
<!--zoomable 476 -->
<svg id="main" version="1.1" xmlns="http://www.w3.org/2000/svg" xmlns:xlink="http://www.w3.org/1999/xlink" xml:space="preserve" onload="init(evt)">
<style type="text/css"><![CDATA[
.edge:hover path { stroke: red; }
.edge:hover polygon { stroke: red; fill: red; }
]]></style>
<script type="text/javascript"><![CDATA[
var edges = document.getElementsByTagName('g');
if (edges && edges.length) {
  for (var i=0;i<edges.length;i++) {
    if (edges[i].id.substr(0,4)=='edge') {
      edges[i].setAttribute('class','edge');
    }
  }
}
]]></script>
        <defs>
                <circle id="rim" cx="0" cy="0" r="7"/>
                <circle id="rim2" cx="0" cy="0" r="3.5"/>
                <g id="zoomPlus">
                        <use xlink:href="#rim" fill="#404040">
                                <set attributeName="fill" to="#808080" begin="zoomplus.mouseover" end="zoomplus.mouseout"/>
                        </use>
                        <path d="M-4,0h8M0,-4v8" fill="none" stroke="white" stroke-width="1.5" pointer-events="none"/>
                </g>
                <g id="zoomMin">
                        <use xlink:href="#rim" fill="#404040">
                                <set attributeName="fill" to="#808080" begin="zoomminus.mouseover" end="zoomminus.mouseout"/>
                        </use>
                        <path d="M-4,0h8" fill="none" stroke="white" stroke-width="1.5" pointer-events="none"/>
                </g>
                <g id="dirArrow">
                        <path fill="none" stroke="white" stroke-width="1.5" d="M0,-3.0v7 M-2.5,-0.5L0,-3.0L2.5,-0.5"/>
                </g>
               <g id="resetDef">
                       <use xlink:href="#rim2" fill="#404040">
                               <set attributeName="fill" to="#808080" begin="reset.mouseover" end="reset.mouseout"/>
                       </use>
               </g>
        </defs>

<script type="text/javascript">
var viewWidth = 716;
var viewHeight = 476;
var sectionId = 'dynsection-0';
</script>
<script xlink:href="svgpan.js"/>
<svg id="graph" class="graph">
<g id="viewport">
<title>src/tree.c</title>
<polygon fill="white" stroke="none" points="-4,4 -4,-472 711.5,-472 711.5,4 -4,4"/>
<!-- Node1 -->
<g id="node1" class="node"><title>Node1</title>
<polygon fill="#bfbfbf" stroke="black" points="393.5,-448.5 393.5,-467.5 451.5,-467.5 451.5,-448.5 393.5,-448.5"/>
<text text-anchor="middle" x="422.5" y="-455.5" font-family="Helvetica,sans-Serif" font-size="10.00">src/tree.c</text>
</g>
<!-- Node2 -->
<g id="node2" class="node"><title>Node2</title>
<g id="a_node2"><a xlink:href="tree_8h.html" target="_top" xlink:title="semantic trees header file ">
<polygon fill="white" stroke="black" points="293,-280.5 293,-299.5 334,-299.5 334,-280.5 293,-280.5"/>
<text text-anchor="middle" x="313.5" y="-287.5" font-family="Helvetica,sans-Serif" font-size="10.00">tree.h</text>
</a>
</g>
</g>
<!-- Node1&#45;&gt;Node2 -->
<g id="edge1" class="edge"><title>Node1&#45;&gt;Node2</title>
<path fill="none" stroke="midnightblue" d="M425.792,-448.447C433.347,-427.264 449.505,-371.516 425.5,-336 407.474,-309.331 370.756,-298.465 344.267,-294.039"/>
<polygon fill="midnightblue" stroke="midnightblue" points="344.727,-290.569 334.327,-292.595 343.72,-297.496 344.727,-290.569"/>
</g>
<!-- Node5 -->
<g id="node5" class="node"><title>Node5</title>
<g id="a_node5"><a xlink:href="ceptr__error_8h_source.html" target="_top" xlink:title="ceptr_error.h">
<polygon fill="white" stroke="black" points="469,-224.5 469,-243.5 540,-243.5 540,-224.5 469,-224.5"/>
<text text-anchor="middle" x="504.5" y="-231.5" font-family="Helvetica,sans-Serif" font-size="10.00">ceptr_error.h</text>
</a>
</g>
</g>
<!-- Node1&#45;&gt;Node5 -->
<g id="edge25" class="edge"><title>Node1&#45;&gt;Node5</title>
<path fill="none" stroke="midnightblue" d="M429.051,-448.46C435.505,-439.708 445.278,-425.507 451.5,-412 476.833,-357.01 493.621,-286.891 500.693,-253.844"/>
<polygon fill="midnightblue" stroke="midnightblue" points="504.176,-254.29 502.788,-243.786 497.323,-252.863 504.176,-254.29"/>
</g>
<!-- Node19 -->
<g id="node19" class="node"><title>Node19</title>
<g id="a_node19"><a xlink:href="hashfn_8h_source.html" target="_top" xlink:title="hashfn.h">
<polygon fill="white" stroke="black" points="598.5,-392.5 598.5,-411.5 652.5,-411.5 652.5,-392.5 598.5,-392.5"/>
<text text-anchor="middle" x="625.5" y="-399.5" font-family="Helvetica,sans-Serif" font-size="10.00">hashfn.h</text>
</a>
</g>
</g>
<!-- Node1&#45;&gt;Node19 -->
<g id="edge26" class="edge"><title>Node1&#45;&gt;Node19</title>
<path fill="none" stroke="midnightblue" d="M451.585,-449.263C487.69,-439.659 549.303,-423.269 588.672,-412.797"/>
<polygon fill="midnightblue" stroke="midnightblue" points="589.651,-416.158 598.415,-410.205 587.852,-409.393 589.651,-416.158"/>
</g>
<!-- Node20 -->
<g id="node20" class="node"><title>Node20</title>
<g id="a_node20"><a xlink:href="def_8h.html" target="_top" xlink:title="header file for symbol and structure definition functions ">
<polygon fill="white" stroke="black" points="156.5,-336.5 156.5,-355.5 194.5,-355.5 194.5,-336.5 156.5,-336.5"/>
<text text-anchor="middle" x="175.5" y="-343.5" font-family="Helvetica,sans-Serif" font-size="10.00">def.h</text>
</a>
</g>
</g>
<!-- Node1&#45;&gt;Node20 -->
<g id="edge28" class="edge"><title>Node1&#45;&gt;Node20</title>
<path fill="none" stroke="midnightblue" d="M393.394,-452.605C359.592,-446.705 302.811,-434.29 258.5,-412 232.881,-399.112 207.53,-377.651 191.715,-362.938"/>
<polygon fill="midnightblue" stroke="midnightblue" points="194.021,-360.301 184.364,-355.941 189.194,-365.371 194.021,-360.301"/>
</g>
<!-- Node22 -->
<g id="node22" class="node"><title>Node22</title>
<g id="a_node22"><a xlink:href="receptor_8h.html" target="_top" xlink:title="receptor implementation header file ">
<polygon fill="white" stroke="black" points="267.5,-392.5 267.5,-411.5 327.5,-411.5 327.5,-392.5 267.5,-392.5"/>
<text text-anchor="middle" x="297.5" y="-399.5" font-family="Helvetica,sans-Serif" font-size="10.00">receptor.h</text>
</a>
</g>
</g>
<!-- Node1&#45;&gt;Node22 -->
<g id="edge31" class="edge"><title>Node1&#45;&gt;Node22</title>
<path fill="none" stroke="midnightblue" d="M402.693,-448.444C382.213,-439.596 350.017,-425.687 326.635,-415.586"/>
<polygon fill="midnightblue" stroke="midnightblue" points="327.782,-412.269 317.214,-411.516 325.006,-418.695 327.782,-412.269"/>
</g>
<!-- Node25 -->
<g id="node25" class="node"><title>Node25</title>
<g id="a_node25"><a xlink:href="scape_8h.html" target="_top" xlink:title="scape header files ">
<polygon fill="white" stroke="black" points="366,-336.5 366,-355.5 417,-355.5 417,-336.5 366,-336.5"/>
<text text-anchor="middle" x="391.5" y="-343.5" font-family="Helvetica,sans-Serif" font-size="10.00">scape.h</text>
</a>
</g>
</g>
<!-- Node1&#45;&gt;Node25 -->
<g id="edge40" class="edge"><title>Node1&#45;&gt;Node25</title>
<path fill="none" stroke="midnightblue" d="M420.067,-448.368C415.042,-430.537 403.42,-389.295 396.649,-365.272"/>
<polygon fill="midnightblue" stroke="midnightblue" points="400.003,-364.267 393.921,-355.591 393.265,-366.166 400.003,-364.267"/>
</g>
<!-- Node3 -->
<g id="node3" class="node"><title>Node3</title>
<polygon fill="white" stroke="#bfbfbf" points="0,-0.5 0,-19.5 49,-19.5 49,-0.5 0,-0.5"/>
<text text-anchor="middle" x="24.5" y="-7.5" font-family="Helvetica,sans-Serif" font-size="10.00">string.h</text>
</g>
<!-- Node2&#45;&gt;Node3 -->
<g id="edge2" class="edge"><title>Node2&#45;&gt;Node3</title>
<path fill="none" stroke="midnightblue" d="M292.922,-286.056C245.782,-279.1 131.358,-260.958 96.5,-244 56.2275,-224.408 19.5,-223.785 19.5,-179 19.5,-179 19.5,-179 19.5,-121 19.5,-88.9149 21.6491,-51.6198 23.1294,-29.7371"/>
<polygon fill="midnightblue" stroke="midnightblue" points="26.6354,-29.7729 23.8463,-19.5518 19.6527,-29.2813 26.6354,-29.7729"/>
</g>
<!-- Node4 -->
<g id="node4" class="node"><title>Node4</title>
<polygon fill="white" stroke="#bfbfbf" points="71.5,-0.5 71.5,-19.5 119.5,-19.5 119.5,-0.5 71.5,-0.5"/>
<text text-anchor="middle" x="95.5" y="-7.5" font-family="Helvetica,sans-Serif" font-size="10.00">stdlib.h</text>
</g>
<!-- Node2&#45;&gt;Node4 -->
<g id="edge3" class="edge"><title>Node2&#45;&gt;Node4</title>
<path fill="none" stroke="midnightblue" d="M292.771,-285.534C244.477,-277.29 127.567,-256.281 114.5,-244 92.5683,-223.387 95.5,-209.098 95.5,-179 95.5,-179 95.5,-179 95.5,-121 95.5,-88.948 95.5,-51.6426 95.5,-29.7489"/>
<polygon fill="midnightblue" stroke="midnightblue" points="99.0001,-29.5577 95.5,-19.5578 92.0001,-29.5578 99.0001,-29.5577"/>
</g>
<!-- Node2&#45;&gt;Node5 -->
<g id="edge4" class="edge"><title>Node2&#45;&gt;Node5</title>
<path fill="none" stroke="midnightblue" d="M334.304,-283.118C365.5,-274.298 424.969,-257.485 464.686,-246.256"/>
<polygon fill="midnightblue" stroke="midnightblue" points="465.659,-249.619 474.329,-243.53 463.754,-242.883 465.659,-249.619"/>
</g>
<!-- Node10 -->
<g id="node10" class="node"><title>Node10</title>
<g id="a_node10"><a xlink:href="sys__symbols_8h.html" target="_top" xlink:title="Defines hard&#45;coded system defined symbols. ">
<polygon fill="white" stroke="black" points="272,-224.5 272,-243.5 355,-243.5 355,-224.5 272,-224.5"/>
<text text-anchor="middle" x="313.5" y="-231.5" font-family="Helvetica,sans-Serif" font-size="10.00">sys_symbols.h</text>
</a>
</g>
</g>
<!-- Node2&#45;&gt;Node10 -->
<g id="edge9" class="edge"><title>Node2&#45;&gt;Node10</title>
<path fill="none" stroke="midnightblue" d="M313.5,-280.083C313.5,-273.006 313.5,-262.861 313.5,-253.986"/>
<polygon fill="midnightblue" stroke="midnightblue" points="317,-253.751 313.5,-243.751 310,-253.751 317,-253.751"/>
</g>
<!-- Node11 -->
<g id="node11" class="node"><title>Node11</title>
<g id="a_node11"><a xlink:href="sys__structures_8h.html" target="_top" xlink:title="Defines hard&#45;coded system defined structures. ">
<polygon fill="white" stroke="black" points="304,-168.5 304,-187.5 393,-187.5 393,-168.5 304,-168.5"/>
<text text-anchor="middle" x="348.5" y="-175.5" font-family="Helvetica,sans-Serif" font-size="10.00">sys_structures.h</text>
</a>
</g>
</g>
<!-- Node2&#45;&gt;Node11 -->
<g id="edge20" class="edge"><title>Node2&#45;&gt;Node11</title>
<path fill="none" stroke="midnightblue" d="M328.452,-280.474C340.432,-272.702 356.373,-260.002 363.5,-244 370.258,-228.825 364.734,-210.249 358.57,-196.847"/>
<polygon fill="midnightblue" stroke="midnightblue" points="361.589,-195.064 353.924,-187.75 355.355,-198.247 361.589,-195.064"/>
</g>
<!-- Node12 -->
<g id="node12" class="node"><title>Node12</title>
<g id="a_node12"><a xlink:href="ceptr__types_8h_source.html" target="_top" xlink:title="ceptr_types.h">
<polygon fill="white" stroke="black" points="237.5,-112.5 237.5,-131.5 313.5,-131.5 313.5,-112.5 237.5,-112.5"/>
<text text-anchor="middle" x="275.5" y="-119.5" font-family="Helvetica,sans-Serif" font-size="10.00">ceptr_types.h</text>
</a>
</g>
</g>
<!-- Node2&#45;&gt;Node12 -->
<g id="edge22" class="edge"><title>Node2&#45;&gt;Node12</title>
<path fill="none" stroke="midnightblue" d="M297.766,-280.236C285.611,-272.481 269.688,-259.929 262.5,-244 247.208,-210.114 259.08,-165.645 267.998,-141.15"/>
<polygon fill="midnightblue" stroke="midnightblue" points="271.315,-142.277 271.665,-131.688 264.788,-139.747 271.315,-142.277"/>
</g>
<!-- Node17 -->
<g id="node17" class="node"><title>Node17</title>
<g id="a_node17"><a xlink:href="sys__processes_8h.html" target="_top" xlink:title="Defines hard&#45;coded system defined processes. ">
<polygon fill="white" stroke="black" points="124,-224.5 124,-243.5 215,-243.5 215,-224.5 124,-224.5"/>
<text text-anchor="middle" x="169.5" y="-231.5" font-family="Helvetica,sans-Serif" font-size="10.00">sys_processes.h</text>
</a>
</g>
</g>
<!-- Node2&#45;&gt;Node17 -->
<g id="edge21" class="edge"><title>Node2&#45;&gt;Node17</title>
<path fill="none" stroke="midnightblue" d="M292.868,-281.263C269.181,-272.38 230.015,-257.693 202.171,-247.251"/>
<polygon fill="midnightblue" stroke="midnightblue" points="203.066,-243.849 192.474,-243.615 200.608,-250.404 203.066,-243.849"/>
</g>
<!-- Node18 -->
<g id="node18" class="node"><title>Node18</title>
<g id="a_node18"><a xlink:href="stream_8h.html" target="_top" xlink:title="streams abstraction header file ">
<polygon fill="white" stroke="black" points="376,-112.5 376,-131.5 431,-131.5 431,-112.5 376,-112.5"/>
<text text-anchor="middle" x="403.5" y="-119.5" font-family="Helvetica,sans-Serif" font-size="10.00">stream.h</text>
</a>
</g>
</g>
<!-- Node2&#45;&gt;Node18 -->
<g id="edge23" class="edge"><title>Node2&#45;&gt;Node18</title>
<path fill="none" stroke="midnightblue" d="M331.698,-280.453C346.37,-272.748 366.614,-260.154 379.5,-244 403.127,-214.383 405.56,-167.917 404.809,-142.032"/>
<polygon fill="midnightblue" stroke="midnightblue" points="408.289,-141.539 404.304,-131.722 401.297,-141.881 408.289,-141.539"/>
</g>
<!-- Node6 -->
<g id="node6" class="node"><title>Node6</title>
<polygon fill="white" stroke="#bfbfbf" points="380.5,-56.5 380.5,-75.5 426.5,-75.5 426.5,-56.5 380.5,-56.5"/>
<text text-anchor="middle" x="403.5" y="-63.5" font-family="Helvetica,sans-Serif" font-size="10.00">stdio.h</text>
</g>
<!-- Node5&#45;&gt;Node6 -->
<g id="edge5" class="edge"><title>Node5&#45;&gt;Node6</title>
<path fill="none" stroke="midnightblue" d="M499.387,-224.445C494.049,-215.446 485.495,-200.834 478.5,-188 460.331,-154.664 460.129,-143.872 439.5,-112 433.044,-102.026 424.832,-91.6225 417.881,-83.334"/>
<polygon fill="midnightblue" stroke="midnightblue" points="420.388,-80.8809 411.221,-75.5689 415.075,-85.4381 420.388,-80.8809"/>
</g>
<!-- Node7 -->
<g id="node7" class="node"><title>Node7</title>
<polygon fill="white" stroke="#bfbfbf" points="487.5,-168.5 487.5,-187.5 537.5,-187.5 537.5,-168.5 487.5,-168.5"/>
<text text-anchor="middle" x="512.5" y="-175.5" font-family="Helvetica,sans-Serif" font-size="10.00">signal.h</text>
</g>
<!-- Node5&#45;&gt;Node7 -->
<g id="edge6" class="edge"><title>Node5&#45;&gt;Node7</title>
<path fill="none" stroke="midnightblue" d="M505.821,-224.083C506.881,-216.927 508.406,-206.635 509.731,-197.691"/>
<polygon fill="midnightblue" stroke="midnightblue" points="513.2,-198.156 511.204,-187.751 506.276,-197.13 513.2,-198.156"/>
</g>
<!-- Node8 -->
<g id="node8" class="node"><title>Node8</title>
<polygon fill="white" stroke="#bfbfbf" points="555.5,-168.5 555.5,-187.5 607.5,-187.5 607.5,-168.5 555.5,-168.5"/>
<text text-anchor="middle" x="581.5" y="-175.5" font-family="Helvetica,sans-Serif" font-size="10.00">assert.h</text>
</g>
<!-- Node5&#45;&gt;Node8 -->
<g id="edge7" class="edge"><title>Node5&#45;&gt;Node8</title>
<path fill="none" stroke="midnightblue" d="M516.871,-224.324C528.658,-216.058 546.632,-203.453 560.636,-193.632"/>
<polygon fill="midnightblue" stroke="midnightblue" points="562.982,-196.262 569.159,-187.655 558.962,-190.531 562.982,-196.262"/>
</g>
<!-- Node9 -->
<g id="node9" class="node"><title>Node9</title>
<polygon fill="white" stroke="#bfbfbf" points="625.5,-168.5 625.5,-187.5 679.5,-187.5 679.5,-168.5 625.5,-168.5"/>
<text text-anchor="middle" x="652.5" y="-175.5" font-family="Helvetica,sans-Serif" font-size="10.00">setjmp.h</text>
</g>
<!-- Node5&#45;&gt;Node9 -->
<g id="edge8" class="edge"><title>Node5&#45;&gt;Node9</title>
<path fill="none" stroke="midnightblue" d="M527.951,-224.444C552.633,-215.438 591.685,-201.189 619.477,-191.049"/>
<polygon fill="midnightblue" stroke="midnightblue" points="620.964,-194.232 629.159,-187.516 618.565,-187.656 620.964,-194.232"/>
</g>
<!-- Node10&#45;&gt;Node11 -->
<g id="edge10" class="edge"><title>Node10&#45;&gt;Node11</title>
<path fill="none" stroke="midnightblue" d="M319.28,-224.083C324.172,-216.534 331.327,-205.495 337.333,-196.23"/>
<polygon fill="midnightblue" stroke="midnightblue" points="340.326,-198.046 342.828,-187.751 334.452,-194.239 340.326,-198.046"/>
</g>
<!-- Node10&#45;&gt;Node12 -->
<g id="edge19" class="edge"><title>Node10&#45;&gt;Node12</title>
<path fill="none" stroke="midnightblue" d="M309.559,-224.489C305.492,-215.525 299.107,-200.943 294.5,-188 288.956,-172.424 283.77,-154.347 280.221,-141.216"/>
<polygon fill="midnightblue" stroke="midnightblue" points="283.595,-140.285 277.653,-131.513 276.828,-142.076 283.595,-140.285"/>
</g>
<!-- Node11&#45;&gt;Node12 -->
<g id="edge11" class="edge"><title>Node11&#45;&gt;Node12</title>
<path fill="none" stroke="midnightblue" d="M336.771,-168.324C325.663,-160.107 308.758,-147.602 295.517,-137.807"/>
<polygon fill="midnightblue" stroke="midnightblue" points="297.563,-134.967 287.442,-131.834 293.4,-140.595 297.563,-134.967"/>
</g>
<!-- Node12&#45;&gt;Node6 -->
<g id="edge13" class="edge"><title>Node12&#45;&gt;Node6</title>
<path fill="none" stroke="midnightblue" d="M295.782,-112.444C316.847,-103.557 350.017,-89.5632 373.986,-79.4514"/>
<polygon fill="midnightblue" stroke="midnightblue" points="375.46,-82.6283 383.313,-75.5164 372.739,-76.1787 375.46,-82.6283"/>
</g>
<!-- Node13 -->
<g id="node13" class="node"><title>Node13</title>
<polygon fill="white" stroke="#bfbfbf" points="564,-56.5 564,-75.5 613,-75.5 613,-56.5 564,-56.5"/>
<text text-anchor="middle" x="588.5" y="-63.5" font-family="Helvetica,sans-Serif" font-size="10.00">stdint.h</text>
</g>
<!-- Node12&#45;&gt;Node13 -->
<g id="edge12" class="edge"><title>Node12&#45;&gt;Node13</title>
<path fill="none" stroke="midnightblue" d="M313.567,-114.433C374.89,-103.853 494.638,-83.1934 553.766,-72.9925"/>
<polygon fill="midnightblue" stroke="midnightblue" points="554.475,-76.4219 563.735,-71.2726 553.285,-69.5238 554.475,-76.4219"/>
</g>
<!-- Node14 -->
<g id="node14" class="node"><title>Node14</title>
<g id="a_node14"><a xlink:href="uthash_8h_source.html" target="_top" xlink:title="uthash.h">
<polygon fill="white" stroke="black" points="136.5,-56.5 136.5,-75.5 190.5,-75.5 190.5,-56.5 136.5,-56.5"/>
<text text-anchor="middle" x="163.5" y="-63.5" font-family="Helvetica,sans-Serif" font-size="10.00">uthash.h</text>
</a>
</g>
</g>
<!-- Node12&#45;&gt;Node14 -->
<g id="edge14" class="edge"><title>Node12&#45;&gt;Node14</title>
<path fill="none" stroke="midnightblue" d="M257.505,-112.324C239.462,-103.625 211.453,-90.1202 190.697,-80.113"/>
<polygon fill="midnightblue" stroke="midnightblue" points="191.978,-76.8449 181.45,-75.6545 188.938,-83.1502 191.978,-76.8449"/>
</g>
<!-- Node14&#45;&gt;Node3 -->
<g id="edge15" class="edge"><title>Node14&#45;&gt;Node3</title>
<path fill="none" stroke="midnightblue" d="M141.475,-56.4435C118.396,-47.4776 81.938,-33.314 55.8591,-23.1827"/>
<polygon fill="midnightblue" stroke="midnightblue" points="57.0107,-19.8753 46.4219,-19.5164 54.4758,-26.4002 57.0107,-19.8753"/>
</g>
<!-- Node14&#45;&gt;Node4 -->
<g id="edge17" class="edge"><title>Node14&#45;&gt;Node4</title>
<path fill="none" stroke="midnightblue" d="M152.575,-56.324C142.325,-48.1849 126.779,-35.8395 114.499,-26.0874"/>
<polygon fill="midnightblue" stroke="midnightblue" points="116.632,-23.3119 106.624,-19.8339 112.279,-28.7937 116.632,-23.3119"/>
</g>
<!-- Node15 -->
<g id="node15" class="node"><title>Node15</title>
<polygon fill="white" stroke="#bfbfbf" points="137.5,-0.5 137.5,-19.5 189.5,-19.5 189.5,-0.5 137.5,-0.5"/>
<text text-anchor="middle" x="163.5" y="-7.5" font-family="Helvetica,sans-Serif" font-size="10.00">stddef.h</text>
</g>
<!-- Node14&#45;&gt;Node15 -->
<g id="edge16" class="edge"><title>Node14&#45;&gt;Node15</title>
<path fill="none" stroke="midnightblue" d="M163.5,-56.083C163.5,-49.0059 163.5,-38.8611 163.5,-29.9865"/>
<polygon fill="midnightblue" stroke="midnightblue" points="167,-29.751 163.5,-19.7511 160,-29.7511 167,-29.751"/>
</g>
<!-- Node16 -->
<g id="node16" class="node"><title>Node16</title>
<polygon fill="white" stroke="#bfbfbf" points="208,-0.5 208,-19.5 267,-19.5 267,-0.5 208,-0.5"/>
<text text-anchor="middle" x="237.5" y="-7.5" font-family="Helvetica,sans-Serif" font-size="10.00">inttypes.h</text>
</g>
<!-- Node14&#45;&gt;Node16 -->
<g id="edge18" class="edge"><title>Node14&#45;&gt;Node16</title>
<path fill="none" stroke="midnightblue" d="M175.389,-56.324C186.65,-48.1066 203.787,-35.6017 217.209,-25.8069"/>
<polygon fill="midnightblue" stroke="midnightblue" points="219.38,-28.5559 225.394,-19.8339 215.253,-22.9014 219.38,-28.5559"/>
</g>
<!-- Node18&#45;&gt;Node6 -->
<g id="edge24" class="edge"><title>Node18&#45;&gt;Node6</title>
<path fill="none" stroke="midnightblue" d="M403.5,-112.083C403.5,-105.006 403.5,-94.8611 403.5,-85.9865"/>
<polygon fill="midnightblue" stroke="midnightblue" points="407,-85.751 403.5,-75.7511 400,-85.7511 407,-85.751"/>
</g>
<!-- Node19&#45;&gt;Node13 -->
<g id="edge27" class="edge"><title>Node19&#45;&gt;Node13</title>
<path fill="none" stroke="midnightblue" d="M638.312,-392.388C661.375,-375.742 707.5,-336.734 707.5,-291 707.5,-291 707.5,-291 707.5,-177 707.5,-129.296 655.296,-96.5284 620.041,-79.8385"/>
<polygon fill="midnightblue" stroke="midnightblue" points="621.157,-76.5015 610.604,-75.5584 618.265,-82.8765 621.157,-76.5015"/>
</g>
<!-- Node20&#45;&gt;Node2 -->
<g id="edge29" class="edge"><title>Node20&#45;&gt;Node2</title>
<path fill="none" stroke="midnightblue" d="M194.688,-337.492C217.642,-328.51 256.344,-313.365 283.316,-302.811"/>
<polygon fill="midnightblue" stroke="midnightblue" points="284.635,-306.054 292.672,-299.15 282.084,-299.535 284.635,-306.054"/>
</g>
<!-- Node21 -->
<g id="node21" class="node"><title>Node21</title>
<polygon fill="white" stroke="#bfbfbf" points="129.5,-280.5 129.5,-299.5 181.5,-299.5 181.5,-280.5 129.5,-280.5"/>
<text text-anchor="middle" x="155.5" y="-287.5" font-family="Helvetica,sans-Serif" font-size="10.00">stdarg.h</text>
</g>
<!-- Node20&#45;&gt;Node21 -->
<g id="edge30" class="edge"><title>Node20&#45;&gt;Node21</title>
<path fill="none" stroke="midnightblue" d="M172.197,-336.083C169.518,-328.849 165.651,-318.409 162.314,-309.397"/>
<polygon fill="midnightblue" stroke="midnightblue" points="165.496,-307.913 158.741,-299.751 158.932,-310.344 165.496,-307.913"/>
</g>
<!-- Node22&#45;&gt;Node2 -->
<g id="edge32" class="edge"><title>Node22&#45;&gt;Node2</title>
<path fill="none" stroke="midnightblue" d="M291.911,-392.499C284.42,-380 272.799,-355.984 279.5,-336 283.104,-325.251 290.403,-315.02 297.317,-307.038"/>
<polygon fill="midnightblue" stroke="midnightblue" points="299.977,-309.317 304.212,-299.605 294.845,-304.556 299.977,-309.317"/>
</g>
<!-- Node22&#45;&gt;Node20 -->
<g id="edge33" class="edge"><title>Node22&#45;&gt;Node20</title>
<path fill="none" stroke="midnightblue" d="M278.169,-392.444C258.18,-383.596 226.757,-369.687 203.936,-359.586"/>
<polygon fill="midnightblue" stroke="midnightblue" points="205.302,-356.363 194.741,-355.516 202.468,-362.764 205.302,-356.363"/>
</g>
<!-- Node23 -->
<g id="node23" class="node"><title>Node23</title>
<g id="a_node23"><a xlink:href="label_8h.html" target="_top" xlink:title="Label tables map human readable text strings to parts of semantic trees. ">
<polygon fill="white" stroke="black" points="200,-280.5 200,-299.5 245,-299.5 245,-280.5 200,-280.5"/>
<text text-anchor="middle" x="222.5" y="-287.5" font-family="Helvetica,sans-Serif" font-size="10.00">label.h</text>
</a>
</g>
</g>
<!-- Node22&#45;&gt;Node23 -->
<g id="edge34" class="edge"><title>Node22&#45;&gt;Node23</title>
<path fill="none" stroke="midnightblue" d="M291.615,-392.368C279.238,-374.215 250.319,-331.802 234.084,-307.99"/>
<polygon fill="midnightblue" stroke="midnightblue" points="236.883,-305.882 228.358,-299.591 231.099,-309.825 236.883,-305.882"/>
</g>
<!-- Node24 -->
<g id="node24" class="node"><title>Node24</title>
<g id="a_node24"><a xlink:href="process_8h.html" target="_top" xlink:title="processing header files ">
<polygon fill="white" stroke="black" points="289,-336.5 289,-355.5 348,-355.5 348,-336.5 289,-336.5"/>
<text text-anchor="middle" x="318.5" y="-343.5" font-family="Helvetica,sans-Serif" font-size="10.00">process.h</text>
</a>
</g>
</g>
<!-- Node22&#45;&gt;Node24 -->
<g id="edge36" class="edge"><title>Node22&#45;&gt;Node24</title>
<path fill="none" stroke="midnightblue" d="M300.968,-392.083C303.812,-384.77 307.929,-374.181 311.46,-365.103"/>
<polygon fill="midnightblue" stroke="midnightblue" points="314.734,-366.34 315.097,-355.751 308.21,-363.803 314.734,-366.34"/>
</g>
<!-- Node22&#45;&gt;Node25 -->
<g id="edge38" class="edge"><title>Node22&#45;&gt;Node25</title>
<path fill="none" stroke="midnightblue" d="M312.603,-392.324C327.403,-383.822 350.194,-370.729 367.482,-360.797"/>
<polygon fill="midnightblue" stroke="midnightblue" points="369.507,-363.671 376.435,-355.655 366.02,-357.601 369.507,-363.671"/>
</g>
<!-- Node23&#45;&gt;Node12 -->
<g id="edge35" class="edge"><title>Node23&#45;&gt;Node12</title>
<path fill="none" stroke="midnightblue" d="M199.867,-282.777C171.207,-274.387 124.359,-258.788 114.5,-244 109.569,-236.604 110.197,-231.778 114.5,-224 140.304,-177.352 197.663,-149.356 236.47,-135.049"/>
<polygon fill="midnightblue" stroke="midnightblue" points="238.134,-138.173 246.394,-131.538 235.799,-131.574 238.134,-138.173"/>
</g>
<!-- Node24&#45;&gt;Node2 -->
<g id="edge37" class="edge"><title>Node24&#45;&gt;Node2</title>
<path fill="none" stroke="midnightblue" d="M317.674,-336.083C317.019,-329.006 316.08,-318.861 315.258,-309.986"/>
<polygon fill="midnightblue" stroke="midnightblue" points="318.717,-309.386 314.31,-299.751 311.747,-310.031 318.717,-309.386"/>
</g>
<!-- Node25&#45;&gt;Node2 -->
<g id="edge39" class="edge"><title>Node25&#45;&gt;Node2</title>
<path fill="none" stroke="midnightblue" d="M378.968,-336.324C366.914,-327.979 348.473,-315.212 334.231,-305.352"/>
<polygon fill="midnightblue" stroke="midnightblue" points="336.215,-302.469 326.001,-299.655 332.231,-308.224 336.215,-302.469"/>
</g>
</g>
</svg>
        <g id="navigator" transform="translate(0 0)" fill="#404254">
                <rect fill="#f2f5e9" fill-opacity="0.5" stroke="#606060" stroke-width=".5" x="0" y="0" width="60" height="60"/>
                <use id="zoomplus" xlink:href="#zoomPlus" x="17" y="9" onmousedown="handleZoom(evt,'in')"/>
                <use id="zoomminus" xlink:href="#zoomMin" x="42" y="9" onmousedown="handleZoom(evt,'out')"/>
                <use id="reset" xlink:href="#resetDef" x="30" y="36" onmousedown="handleReset()"/>
                <g id="arrowUp" xlink:href="#dirArrow" transform="translate(30 24)" onmousedown="handlePan(0,-1)">
                  <use xlink:href="#rim" fill="#404040">
                        <set attributeName="fill" to="#808080" begin="arrowUp.mouseover" end="arrowUp.mouseout"/>
                  </use>
                  <path fill="none" stroke="white" stroke-width="1.5" d="M0,-3.0v7 M-2.5,-0.5L0,-3.0L2.5,-0.5"/>
                </g>
                <g id="arrowRight" xlink:href="#dirArrow" transform="rotate(90) translate(36 -43)" onmousedown="handlePan(1,0)">
                  <use xlink:href="#rim" fill="#404040">
                        <set attributeName="fill" to="#808080" begin="arrowRight.mouseover" end="arrowRight.mouseout"/>
                  </use>
                  <path fill="none" stroke="white" stroke-width="1.5" d="M0,-3.0v7 M-2.5,-0.5L0,-3.0L2.5,-0.5"/>
                </g>
                <g id="arrowDown" xlink:href="#dirArrow" transform="rotate(180) translate(-30 -48)" onmousedown="handlePan(0,1)">
                  <use xlink:href="#rim" fill="#404040">
                        <set attributeName="fill" to="#808080" begin="arrowDown.mouseover" end="arrowDown.mouseout"/>
                  </use>
                  <path fill="none" stroke="white" stroke-width="1.5" d="M0,-3.0v7 M-2.5,-0.5L0,-3.0L2.5,-0.5"/>
                </g>
                <g id="arrowLeft" xlink:href="#dirArrow" transform="rotate(270) translate(-36 17)" onmousedown="handlePan(-1,0)">
                  <use xlink:href="#rim" fill="#404040">
                        <set attributeName="fill" to="#808080" begin="arrowLeft.mouseover" end="arrowLeft.mouseout"/>
                  </use>
                  <path fill="none" stroke="white" stroke-width="1.5" d="M0,-3.0v7 M-2.5,-0.5L0,-3.0L2.5,-0.5"/>
                </g>
        </g>
        <svg viewBox="0 0 15 15" width="100%" height="30px" preserveAspectRatio="xMaxYMin meet">
         <g id="arrow_out" transform="scale(0.3 0.3)">
          <a xlink:href="tree_8c__incl_org.svg" target="_base">
           <rect id="button" ry="5" rx="5" y="6" x="6" height="38" width="38"
                fill="#f2f5e9" fill-opacity="0.5" stroke="#606060" stroke-width="1.0"/>
           <path id="arrow"
             d="M 11.500037,31.436501 C 11.940474,20.09759 22.043105,11.32322 32.158766,21.979434 L 37.068811,17.246167 C 37.068811,17.246167 37.088388,32 37.088388,32 L 22.160133,31.978069 C 22.160133,31.978069 26.997745,27.140456 26.997745,27.140456 C 18.528582,18.264221 13.291696,25.230495 11.500037,31.436501 z"
             style="fill:#404040;"/>
          </a>
         </g>
        </svg>
</svg>
