<?xml version="1.0" encoding="UTF-8" standalone="no"?>
<!DOCTYPE svg PUBLIC "-//W3C//DTD SVG 1.1//EN"
 "http://www.w3.org/Graphics/SVG/1.1/DTD/svg11.dtd">
<!-- Generated by graphviz version 2.38.0 (20140413.2041)
 -->
<!-- Title: spec/tree_spec.h Pages: 1 -->
<svg width="729pt" height="532pt"
 viewBox="0.00 0.00 728.50 532.00" xmlns="http://www.w3.org/2000/svg" xmlns:xlink="http://www.w3.org/1999/xlink">
<g id="graph0" class="graph" transform="scale(1 1) rotate(0) translate(4 528)">
<title>spec/tree_spec.h</title>
<polygon fill="white" stroke="none" points="-4,4 -4,-528 724.5,-528 724.5,4 -4,4"/>
<!-- Node1 -->
<g id="node1" class="node"><title>Node1</title>
<polygon fill="#bfbfbf" stroke="black" points="287.5,-504.5 287.5,-523.5 379.5,-523.5 379.5,-504.5 287.5,-504.5"/>
<text text-anchor="middle" x="333.5" y="-511.5" font-family="Helvetica,sans-Serif" font-size="10.00">spec/tree_spec.h</text>
</g>
<!-- Node2 -->
<g id="node2" class="node"><title>Node2</title>
<g id="a_node2"><a xlink:href="ceptr_8h_source.html" target="_top" xlink:title="../src/ceptr.h">
<polygon fill="white" stroke="black" points="409.5,-336.5 409.5,-355.5 481.5,-355.5 481.5,-336.5 409.5,-336.5"/>
<text text-anchor="middle" x="445.5" y="-343.5" font-family="Helvetica,sans-Serif" font-size="10.00">../src/ceptr.h</text>
</a>
</g>
</g>
<!-- Node1&#45;&gt;Node2 -->
<g id="edge1" class="edge"><title>Node1&#45;&gt;Node2</title>
<path fill="none" stroke="midnightblue" d="M345.343,-504.375C356.254,-495.991 372.391,-482.44 383.5,-468 408.951,-434.918 428.824,-389.805 438.681,-365.067"/>
<polygon fill="midnightblue" stroke="midnightblue" points="442.028,-366.117 442.385,-355.528 435.503,-363.583 442.028,-366.117"/>
</g>
<!-- Node19 -->
<g id="node19" class="node"><title>Node19</title>
<g id="a_node19"><a xlink:href="receptor_8h.html" target="_top" xlink:title="receptor implementation header file ">
<polygon fill="white" stroke="black" points="151.5,-392.5 151.5,-411.5 237.5,-411.5 237.5,-392.5 151.5,-392.5"/>
<text text-anchor="middle" x="194.5" y="-399.5" font-family="Helvetica,sans-Serif" font-size="10.00">../src/receptor.h</text>
</a>
</g>
</g>
<!-- Node1&#45;&gt;Node19 -->
<g id="edge27" class="edge"><title>Node1&#45;&gt;Node19</title>
<path fill="none" stroke="midnightblue" d="M322.593,-504.368C298.943,-485.653 242.709,-441.151 213.243,-417.832"/>
<polygon fill="midnightblue" stroke="midnightblue" points="215.37,-415.052 205.356,-411.591 211.026,-420.542 215.37,-415.052"/>
</g>
<!-- Node25 -->
<g id="node25" class="node"><title>Node25</title>
<g id="a_node25"><a xlink:href="http__example_8h.html" target="_top" xlink:title="http_example.h">
<polygon fill="white" stroke="black" points="292,-448.5 292,-467.5 375,-467.5 375,-448.5 292,-448.5"/>
<text text-anchor="middle" x="333.5" y="-455.5" font-family="Helvetica,sans-Serif" font-size="10.00">http_example.h</text>
</a>
</g>
</g>
<!-- Node1&#45;&gt;Node25 -->
<g id="edge38" class="edge"><title>Node1&#45;&gt;Node25</title>
<path fill="none" stroke="midnightblue" d="M333.5,-504.083C333.5,-497.006 333.5,-486.861 333.5,-477.986"/>
<polygon fill="midnightblue" stroke="midnightblue" points="337,-477.751 333.5,-467.751 330,-477.751 337,-477.751"/>
</g>
<!-- Node3 -->
<g id="node3" class="node"><title>Node3</title>
<polygon fill="white" stroke="#bfbfbf" points="375,-0.5 375,-19.5 424,-19.5 424,-0.5 375,-0.5"/>
<text text-anchor="middle" x="399.5" y="-7.5" font-family="Helvetica,sans-Serif" font-size="10.00">string.h</text>
</g>
<!-- Node2&#45;&gt;Node3 -->
<g id="edge2" class="edge"><title>Node2&#45;&gt;Node3</title>
<path fill="none" stroke="midnightblue" d="M481.734,-338.403C556.409,-323.774 720.5,-285.842 720.5,-235 720.5,-235 720.5,-235 720.5,-121 720.5,-60.9749 517.093,-26.8102 434.116,-15.3705"/>
<polygon fill="midnightblue" stroke="midnightblue" points="434.533,-11.8952 424.155,-14.0271 433.598,-18.8324 434.533,-11.8952"/>
</g>
<!-- Node4 -->
<g id="node4" class="node"><title>Node4</title>
<polygon fill="white" stroke="#bfbfbf" points="646.5,-168.5 646.5,-187.5 692.5,-187.5 692.5,-168.5 646.5,-168.5"/>
<text text-anchor="middle" x="669.5" y="-175.5" font-family="Helvetica,sans-Serif" font-size="10.00">stdio.h</text>
</g>
<!-- Node2&#45;&gt;Node4 -->
<g id="edge3" class="edge"><title>Node2&#45;&gt;Node4</title>
<path fill="none" stroke="midnightblue" d="M457.228,-336.309C493.517,-309.416 604.254,-227.352 649.709,-193.666"/>
<polygon fill="midnightblue" stroke="midnightblue" points="651.938,-196.371 657.888,-187.605 647.77,-190.747 651.938,-196.371"/>
</g>
<!-- Node5 -->
<g id="node5" class="node"><title>Node5</title>
<polygon fill="white" stroke="#bfbfbf" points="308.5,-0.5 308.5,-19.5 356.5,-19.5 356.5,-0.5 308.5,-0.5"/>
<text text-anchor="middle" x="332.5" y="-7.5" font-family="Helvetica,sans-Serif" font-size="10.00">stdlib.h</text>
</g>
<!-- Node2&#45;&gt;Node5 -->
<g id="edge4" class="edge"><title>Node2&#45;&gt;Node5</title>
<path fill="none" stroke="midnightblue" d="M440.51,-336.49C430.411,-318.436 408.5,-274.693 408.5,-235 408.5,-235 408.5,-235 408.5,-121 408.5,-81.2757 374.536,-45.5045 352.018,-26.1536"/>
<polygon fill="midnightblue" stroke="midnightblue" points="353.982,-23.2364 344.043,-19.5672 349.524,-28.6337 353.982,-23.2364"/>
</g>
<!-- Node6 -->
<g id="node6" class="node"><title>Node6</title>
<g id="a_node6"><a xlink:href="ceptr__error_8h_source.html" target="_top" xlink:title="ceptr_error.h">
<polygon fill="white" stroke="black" points="476,-224.5 476,-243.5 547,-243.5 547,-224.5 476,-224.5"/>
<text text-anchor="middle" x="511.5" y="-231.5" font-family="Helvetica,sans-Serif" font-size="10.00">ceptr_error.h</text>
</a>
</g>
</g>
<!-- Node2&#45;&gt;Node6 -->
<g id="edge5" class="edge"><title>Node2&#45;&gt;Node6</title>
<path fill="none" stroke="midnightblue" d="M450.679,-336.368C461.523,-318.296 486.794,-276.176 501.116,-252.307"/>
<polygon fill="midnightblue" stroke="midnightblue" points="504.201,-253.967 506.345,-243.591 498.199,-250.366 504.201,-253.967"/>
</g>
<!-- Node10 -->
<g id="node10" class="node"><title>Node10</title>
<g id="a_node10"><a xlink:href="tree_8h.html" target="_top" xlink:title="semantic trees header file ">
<polygon fill="white" stroke="black" points="238,-280.5 238,-299.5 279,-299.5 279,-280.5 238,-280.5"/>
<text text-anchor="middle" x="258.5" y="-287.5" font-family="Helvetica,sans-Serif" font-size="10.00">tree.h</text>
</a>
</g>
</g>
<!-- Node2&#45;&gt;Node10 -->
<g id="edge10" class="edge"><title>Node2&#45;&gt;Node10</title>
<path fill="none" stroke="midnightblue" d="M415.869,-336.444C381.094,-326.402 323.74,-309.839 288.715,-299.725"/>
<polygon fill="midnightblue" stroke="midnightblue" points="289.617,-296.343 279.038,-296.931 287.674,-303.068 289.617,-296.343"/>
</g>
<!-- Node6&#45;&gt;Node4 -->
<g id="edge6" class="edge"><title>Node6&#45;&gt;Node4</title>
<path fill="none" stroke="midnightblue" d="M536.536,-224.444C563.663,-215.172 607.053,-200.343 636.843,-190.161"/>
<polygon fill="midnightblue" stroke="midnightblue" points="638.05,-193.448 646.381,-186.902 635.786,-186.824 638.05,-193.448"/>
</g>
<!-- Node7 -->
<g id="node7" class="node"><title>Node7</title>
<polygon fill="white" stroke="#bfbfbf" points="578.5,-168.5 578.5,-187.5 628.5,-187.5 628.5,-168.5 578.5,-168.5"/>
<text text-anchor="middle" x="603.5" y="-175.5" font-family="Helvetica,sans-Serif" font-size="10.00">signal.h</text>
</g>
<!-- Node6&#45;&gt;Node7 -->
<g id="edge7" class="edge"><title>Node6&#45;&gt;Node7</title>
<path fill="none" stroke="midnightblue" d="M526.281,-224.324C540.767,-215.822 563.073,-202.729 579.993,-192.797"/>
<polygon fill="midnightblue" stroke="midnightblue" points="581.903,-195.735 588.755,-187.655 578.359,-189.698 581.903,-195.735"/>
</g>
<!-- Node8 -->
<g id="node8" class="node"><title>Node8</title>
<polygon fill="white" stroke="#bfbfbf" points="436.5,-168.5 436.5,-187.5 488.5,-187.5 488.5,-168.5 436.5,-168.5"/>
<text text-anchor="middle" x="462.5" y="-175.5" font-family="Helvetica,sans-Serif" font-size="10.00">assert.h</text>
</g>
<!-- Node6&#45;&gt;Node8 -->
<g id="edge8" class="edge"><title>Node6&#45;&gt;Node8</title>
<path fill="none" stroke="midnightblue" d="M503.409,-224.083C496.345,-216.298 485.912,-204.801 477.351,-195.367"/>
<polygon fill="midnightblue" stroke="midnightblue" points="479.753,-192.805 470.441,-187.751 474.569,-197.509 479.753,-192.805"/>
</g>
<!-- Node9 -->
<g id="node9" class="node"><title>Node9</title>
<polygon fill="white" stroke="#bfbfbf" points="506.5,-168.5 506.5,-187.5 560.5,-187.5 560.5,-168.5 506.5,-168.5"/>
<text text-anchor="middle" x="533.5" y="-175.5" font-family="Helvetica,sans-Serif" font-size="10.00">setjmp.h</text>
</g>
<!-- Node6&#45;&gt;Node9 -->
<g id="edge9" class="edge"><title>Node6&#45;&gt;Node9</title>
<path fill="none" stroke="midnightblue" d="M515.133,-224.083C518.112,-216.77 522.426,-206.181 526.125,-197.103"/>
<polygon fill="midnightblue" stroke="midnightblue" points="529.403,-198.333 529.935,-187.751 522.92,-195.691 529.403,-198.333"/>
</g>
<!-- Node10&#45;&gt;Node3 -->
<g id="edge11" class="edge"><title>Node10&#45;&gt;Node3</title>
<path fill="none" stroke="midnightblue" d="M278.523,-280.442C310.739,-265.168 370.5,-229.965 370.5,-179 370.5,-179 370.5,-179 370.5,-121 370.5,-87.7163 383.068,-50.5837 391.656,-29.0939"/>
<polygon fill="midnightblue" stroke="midnightblue" points="394.982,-30.2128 395.589,-19.6354 388.518,-27.5254 394.982,-30.2128"/>
</g>
<!-- Node10&#45;&gt;Node5 -->
<g id="edge12" class="edge"><title>Node10&#45;&gt;Node5</title>
<path fill="none" stroke="midnightblue" d="M272.906,-280.399C285.112,-272.41 302.222,-259.441 312.5,-244 329.248,-218.839 332.5,-209.225 332.5,-179 332.5,-179 332.5,-179 332.5,-121 332.5,-88.948 332.5,-51.6426 332.5,-29.7489"/>
<polygon fill="midnightblue" stroke="midnightblue" points="336,-29.5577 332.5,-19.5578 329,-29.5578 336,-29.5577"/>
</g>
<!-- Node10&#45;&gt;Node6 -->
<g id="edge13" class="edge"><title>Node10&#45;&gt;Node6</title>
<path fill="none" stroke="midnightblue" d="M279.204,-284.581C319.756,-275.926 410.504,-256.557 465.808,-244.752"/>
<polygon fill="midnightblue" stroke="midnightblue" points="466.653,-248.151 475.702,-242.641 465.192,-241.305 466.653,-248.151"/>
</g>
<!-- Node11 -->
<g id="node11" class="node"><title>Node11</title>
<g id="a_node11"><a xlink:href="sys__symbols_8h.html" target="_top" xlink:title="Defines hard&#45;coded system defined symbols. ">
<polygon fill="white" stroke="black" points="73,-224.5 73,-243.5 156,-243.5 156,-224.5 73,-224.5"/>
<text text-anchor="middle" x="114.5" y="-231.5" font-family="Helvetica,sans-Serif" font-size="10.00">sys_symbols.h</text>
</a>
</g>
</g>
<!-- Node10&#45;&gt;Node11 -->
<g id="edge14" class="edge"><title>Node10&#45;&gt;Node11</title>
<path fill="none" stroke="midnightblue" d="M237.868,-281.263C214.181,-272.38 175.015,-257.693 147.171,-247.251"/>
<polygon fill="midnightblue" stroke="midnightblue" points="148.066,-243.849 137.474,-243.615 145.608,-250.404 148.066,-243.849"/>
</g>
<!-- Node12 -->
<g id="node12" class="node"><title>Node12</title>
<g id="a_node12"><a xlink:href="sys__structures_8h.html" target="_top" xlink:title="Defines hard&#45;coded system defined structures. ">
<polygon fill="white" stroke="black" points="29,-168.5 29,-187.5 118,-187.5 118,-168.5 29,-168.5"/>
<text text-anchor="middle" x="73.5" y="-175.5" font-family="Helvetica,sans-Serif" font-size="10.00">sys_structures.h</text>
</a>
</g>
</g>
<!-- Node10&#45;&gt;Node12 -->
<g id="edge24" class="edge"><title>Node10&#45;&gt;Node12</title>
<path fill="none" stroke="midnightblue" d="M237.694,-287.385C191.982,-283.361 85.1299,-271.19 63.5,-244 52.9758,-230.77 57.9704,-211.101 64.0531,-196.866"/>
<polygon fill="midnightblue" stroke="midnightblue" points="67.3125,-198.163 68.4683,-187.631 60.9972,-195.143 67.3125,-198.163"/>
</g>
<!-- Node13 -->
<g id="node13" class="node"><title>Node13</title>
<g id="a_node13"><a xlink:href="ceptr__types_8h_source.html" target="_top" xlink:title="ceptr_types.h">
<polygon fill="white" stroke="black" points="108.5,-112.5 108.5,-131.5 184.5,-131.5 184.5,-112.5 108.5,-112.5"/>
<text text-anchor="middle" x="146.5" y="-119.5" font-family="Helvetica,sans-Serif" font-size="10.00">ceptr_types.h</text>
</a>
</g>
</g>
<!-- Node10&#45;&gt;Node13 -->
<g id="edge26" class="edge"><title>Node10&#45;&gt;Node13</title>
<path fill="none" stroke="midnightblue" d="M244.831,-280.395C232.718,-272.221 215.189,-258.979 203.5,-244 178.238,-211.628 160.679,-166.245 152.234,-141.271"/>
<polygon fill="midnightblue" stroke="midnightblue" points="155.519,-140.053 149.089,-131.633 148.864,-142.225 155.519,-140.053"/>
</g>
<!-- Node18 -->
<g id="node18" class="node"><title>Node18</title>
<g id="a_node18"><a xlink:href="sys__processes_8h.html" target="_top" xlink:title="Defines hard&#45;coded system defined processes. ">
<polygon fill="white" stroke="black" points="213,-224.5 213,-243.5 304,-243.5 304,-224.5 213,-224.5"/>
<text text-anchor="middle" x="258.5" y="-231.5" font-family="Helvetica,sans-Serif" font-size="10.00">sys_processes.h</text>
</a>
</g>
</g>
<!-- Node10&#45;&gt;Node18 -->
<g id="edge25" class="edge"><title>Node10&#45;&gt;Node18</title>
<path fill="none" stroke="midnightblue" d="M258.5,-280.083C258.5,-273.006 258.5,-262.861 258.5,-253.986"/>
<polygon fill="midnightblue" stroke="midnightblue" points="262,-253.751 258.5,-243.751 255,-253.751 262,-253.751"/>
</g>
<!-- Node11&#45;&gt;Node12 -->
<g id="edge15" class="edge"><title>Node11&#45;&gt;Node12</title>
<path fill="none" stroke="midnightblue" d="M107.73,-224.083C101.938,-216.455 93.4415,-205.264 86.3625,-195.941"/>
<polygon fill="midnightblue" stroke="midnightblue" points="88.979,-193.599 80.1443,-187.751 83.4039,-197.832 88.979,-193.599"/>
</g>
<!-- Node11&#45;&gt;Node13 -->
<g id="edge23" class="edge"><title>Node11&#45;&gt;Node13</title>
<path fill="none" stroke="midnightblue" d="M117.011,-224.368C122.198,-206.537 134.196,-165.295 141.185,-141.272"/>
<polygon fill="midnightblue" stroke="midnightblue" points="144.568,-142.171 144.001,-131.591 137.847,-140.216 144.568,-142.171"/>
</g>
<!-- Node12&#45;&gt;Node13 -->
<g id="edge16" class="edge"><title>Node12&#45;&gt;Node13</title>
<path fill="none" stroke="midnightblue" d="M85.2287,-168.324C96.3374,-160.107 113.242,-147.602 126.483,-137.807"/>
<polygon fill="midnightblue" stroke="midnightblue" points="128.6,-140.595 134.558,-131.834 124.437,-134.967 128.6,-140.595"/>
</g>
<!-- Node14 -->
<g id="node14" class="node"><title>Node14</title>
<polygon fill="white" stroke="#bfbfbf" points="122,-56.5 122,-75.5 171,-75.5 171,-56.5 122,-56.5"/>
<text text-anchor="middle" x="146.5" y="-63.5" font-family="Helvetica,sans-Serif" font-size="10.00">stdint.h</text>
</g>
<!-- Node13&#45;&gt;Node14 -->
<g id="edge17" class="edge"><title>Node13&#45;&gt;Node14</title>
<path fill="none" stroke="midnightblue" d="M146.5,-112.083C146.5,-105.006 146.5,-94.8611 146.5,-85.9865"/>
<polygon fill="midnightblue" stroke="midnightblue" points="150,-85.751 146.5,-75.7511 143,-85.7511 150,-85.751"/>
</g>
<!-- Node15 -->
<g id="node15" class="node"><title>Node15</title>
<g id="a_node15"><a xlink:href="uthash_8h_source.html" target="_top" xlink:title="uthash.h">
<polygon fill="white" stroke="black" points="237.5,-56.5 237.5,-75.5 291.5,-75.5 291.5,-56.5 237.5,-56.5"/>
<text text-anchor="middle" x="264.5" y="-63.5" font-family="Helvetica,sans-Serif" font-size="10.00">uthash.h</text>
</a>
</g>
</g>
<!-- Node13&#45;&gt;Node15 -->
<g id="edge18" class="edge"><title>Node13&#45;&gt;Node15</title>
<path fill="none" stroke="midnightblue" d="M165.197,-112.444C184.444,-103.636 214.652,-89.8116 236.7,-79.722"/>
<polygon fill="midnightblue" stroke="midnightblue" points="238.253,-82.8603 245.89,-75.5164 235.34,-76.4951 238.253,-82.8603"/>
</g>
<!-- Node15&#45;&gt;Node3 -->
<g id="edge19" class="edge"><title>Node15&#45;&gt;Node3</title>
<path fill="none" stroke="midnightblue" d="M285.891,-56.4435C308.207,-47.5171 343.403,-33.4387 368.708,-23.3168"/>
<polygon fill="midnightblue" stroke="midnightblue" points="370.224,-26.4801 378.209,-19.5164 367.624,-19.9807 370.224,-26.4801"/>
</g>
<!-- Node15&#45;&gt;Node5 -->
<g id="edge21" class="edge"><title>Node15&#45;&gt;Node5</title>
<path fill="none" stroke="midnightblue" d="M275.425,-56.324C285.675,-48.1849 301.221,-35.8395 313.501,-26.0874"/>
<polygon fill="midnightblue" stroke="midnightblue" points="315.721,-28.7937 321.376,-19.8339 311.368,-23.3119 315.721,-28.7937"/>
</g>
<!-- Node16 -->
<g id="node16" class="node"><title>Node16</title>
<polygon fill="white" stroke="#bfbfbf" points="238.5,-0.5 238.5,-19.5 290.5,-19.5 290.5,-0.5 238.5,-0.5"/>
<text text-anchor="middle" x="264.5" y="-7.5" font-family="Helvetica,sans-Serif" font-size="10.00">stddef.h</text>
</g>
<!-- Node15&#45;&gt;Node16 -->
<g id="edge20" class="edge"><title>Node15&#45;&gt;Node16</title>
<path fill="none" stroke="midnightblue" d="M264.5,-56.083C264.5,-49.0059 264.5,-38.8611 264.5,-29.9865"/>
<polygon fill="midnightblue" stroke="midnightblue" points="268,-29.751 264.5,-19.7511 261,-29.7511 268,-29.751"/>
</g>
<!-- Node17 -->
<g id="node17" class="node"><title>Node17</title>
<polygon fill="white" stroke="#bfbfbf" points="161,-0.5 161,-19.5 220,-19.5 220,-0.5 161,-0.5"/>
<text text-anchor="middle" x="190.5" y="-7.5" font-family="Helvetica,sans-Serif" font-size="10.00">inttypes.h</text>
</g>
<!-- Node15&#45;&gt;Node17 -->
<g id="edge22" class="edge"><title>Node15&#45;&gt;Node17</title>
<path fill="none" stroke="midnightblue" d="M252.611,-56.324C241.35,-48.1066 224.213,-35.6017 210.791,-25.8069"/>
<polygon fill="midnightblue" stroke="midnightblue" points="212.747,-22.9014 202.606,-19.8339 208.62,-28.5559 212.747,-22.9014"/>
</g>
<!-- Node19&#45;&gt;Node10 -->
<g id="edge28" class="edge"><title>Node19&#45;&gt;Node10</title>
<path fill="none" stroke="midnightblue" d="M179.433,-392.41C159.986,-380.193 130.245,-356.953 144.5,-336 162.991,-308.821 200.682,-298.058 227.665,-293.795"/>
<polygon fill="midnightblue" stroke="midnightblue" points="228.338,-297.236 237.774,-292.418 227.393,-290.3 228.338,-297.236"/>
</g>
<!-- Node20 -->
<g id="node20" class="node"><title>Node20</title>
<g id="a_node20"><a xlink:href="def_8h.html" target="_top" xlink:title="header file for symbol and structure definition functions ">
<polygon fill="white" stroke="black" points="338.5,-336.5 338.5,-355.5 376.5,-355.5 376.5,-336.5 338.5,-336.5"/>
<text text-anchor="middle" x="357.5" y="-343.5" font-family="Helvetica,sans-Serif" font-size="10.00">def.h</text>
</a>
</g>
</g>
<!-- Node19&#45;&gt;Node20 -->
<g id="edge29" class="edge"><title>Node19&#45;&gt;Node20</title>
<path fill="none" stroke="midnightblue" d="M220.328,-392.444C249.846,-382.664 298.029,-366.702 328.726,-356.532"/>
<polygon fill="midnightblue" stroke="midnightblue" points="330.022,-359.79 338.414,-353.323 327.821,-353.145 330.022,-359.79"/>
</g>
<!-- Node22 -->
<g id="node22" class="node"><title>Node22</title>
<g id="a_node22"><a xlink:href="label_8h.html" target="_top" xlink:title="Label tables map human readable text strings to parts of semantic trees. ">
<polygon fill="white" stroke="black" points="0,-280.5 0,-299.5 45,-299.5 45,-280.5 0,-280.5"/>
<text text-anchor="middle" x="22.5" y="-287.5" font-family="Helvetica,sans-Serif" font-size="10.00">label.h</text>
</a>
</g>
</g>
<!-- Node19&#45;&gt;Node22 -->
<g id="edge32" class="edge"><title>Node19&#45;&gt;Node22</title>
<path fill="none" stroke="midnightblue" d="M181.003,-392.368C151.488,-373.492 80.9565,-328.385 44.761,-305.237"/>
<polygon fill="midnightblue" stroke="midnightblue" points="46.2441,-302.031 35.9339,-299.591 42.4726,-307.928 46.2441,-302.031"/>
</g>
<!-- Node23 -->
<g id="node23" class="node"><title>Node23</title>
<g id="a_node23"><a xlink:href="process_8h.html" target="_top" xlink:title="processing header files ">
<polygon fill="white" stroke="black" points="154,-336.5 154,-355.5 213,-355.5 213,-336.5 154,-336.5"/>
<text text-anchor="middle" x="183.5" y="-343.5" font-family="Helvetica,sans-Serif" font-size="10.00">process.h</text>
</a>
</g>
</g>
<!-- Node19&#45;&gt;Node23 -->
<g id="edge34" class="edge"><title>Node19&#45;&gt;Node23</title>
<path fill="none" stroke="midnightblue" d="M192.684,-392.083C191.226,-384.927 189.129,-374.635 187.307,-365.691"/>
<polygon fill="midnightblue" stroke="midnightblue" points="190.708,-364.851 185.283,-355.751 183.849,-366.248 190.708,-364.851"/>
</g>
<!-- Node24 -->
<g id="node24" class="node"><title>Node24</title>
<g id="a_node24"><a xlink:href="scape_8h.html" target="_top" xlink:title="scape header files ">
<polygon fill="white" stroke="black" points="231,-336.5 231,-355.5 282,-355.5 282,-336.5 231,-336.5"/>
<text text-anchor="middle" x="256.5" y="-343.5" font-family="Helvetica,sans-Serif" font-size="10.00">scape.h</text>
</a>
</g>
</g>
<!-- Node19&#45;&gt;Node24 -->
<g id="edge36" class="edge"><title>Node19&#45;&gt;Node24</title>
<path fill="none" stroke="midnightblue" d="M204.461,-392.324C213.627,-384.341 227.437,-372.313 238.528,-362.653"/>
<polygon fill="midnightblue" stroke="midnightblue" points="241.115,-365.041 246.357,-355.834 236.518,-359.762 241.115,-365.041"/>
</g>
<!-- Node20&#45;&gt;Node10 -->
<g id="edge30" class="edge"><title>Node20&#45;&gt;Node10</title>
<path fill="none" stroke="midnightblue" d="M341.594,-336.324C325.862,-327.743 301.558,-314.486 283.291,-304.522"/>
<polygon fill="midnightblue" stroke="midnightblue" points="284.822,-301.37 274.367,-299.655 281.47,-307.516 284.822,-301.37"/>
</g>
<!-- Node21 -->
<g id="node21" class="node"><title>Node21</title>
<polygon fill="white" stroke="#bfbfbf" points="328.5,-280.5 328.5,-299.5 380.5,-299.5 380.5,-280.5 328.5,-280.5"/>
<text text-anchor="middle" x="354.5" y="-287.5" font-family="Helvetica,sans-Serif" font-size="10.00">stdarg.h</text>
</g>
<!-- Node20&#45;&gt;Node21 -->
<g id="edge31" class="edge"><title>Node20&#45;&gt;Node21</title>
<path fill="none" stroke="midnightblue" d="M357.005,-336.083C356.611,-329.006 356.048,-318.861 355.555,-309.986"/>
<polygon fill="midnightblue" stroke="midnightblue" points="359.036,-309.542 354.986,-299.751 352.046,-309.93 359.036,-309.542"/>
</g>
<!-- Node22&#45;&gt;Node13 -->
<g id="edge33" class="edge"><title>Node22&#45;&gt;Node13</title>
<path fill="none" stroke="midnightblue" d="M19.117,-280.384C11.3555,-259.059 -5.23738,-203.01 19.5,-168 37.2929,-142.819 70.4325,-131.638 98.3978,-126.717"/>
<polygon fill="midnightblue" stroke="midnightblue" points="99.0777,-130.154 108.429,-125.173 98.0125,-123.235 99.0777,-130.154"/>
</g>
<!-- Node23&#45;&gt;Node10 -->
<g id="edge35" class="edge"><title>Node23&#45;&gt;Node10</title>
<path fill="none" stroke="midnightblue" d="M195.55,-336.324C206.963,-328.107 224.331,-315.602 237.935,-305.807"/>
<polygon fill="midnightblue" stroke="midnightblue" points="240.16,-308.517 246.231,-299.834 236.07,-302.837 240.16,-308.517"/>
</g>
<!-- Node24&#45;&gt;Node10 -->
<g id="edge37" class="edge"><title>Node24&#45;&gt;Node10</title>
<path fill="none" stroke="midnightblue" d="M256.83,-336.083C257.092,-329.006 257.468,-318.861 257.797,-309.986"/>
<polygon fill="midnightblue" stroke="midnightblue" points="261.303,-309.874 258.176,-299.751 254.308,-309.615 261.303,-309.874"/>
</g>
<!-- Node25&#45;&gt;Node2 -->
<g id="edge39" class="edge"><title>Node25&#45;&gt;Node2</title>
<path fill="none" stroke="midnightblue" d="M342.288,-448.368C361.099,-429.894 405.493,-386.293 429.47,-362.744"/>
<polygon fill="midnightblue" stroke="midnightblue" points="432.07,-365.096 436.752,-355.591 427.165,-360.101 432.07,-365.096"/>
</g>
<!-- Node25&#45;&gt;Node19 -->
<g id="edge40" class="edge"><title>Node25&#45;&gt;Node19</title>
<path fill="none" stroke="midnightblue" d="M311.475,-448.444C288.396,-439.478 251.938,-425.314 225.859,-415.183"/>
<polygon fill="midnightblue" stroke="midnightblue" points="227.011,-411.875 216.422,-411.516 224.476,-418.4 227.011,-411.875"/>
</g>
<!-- Node25&#45;&gt;Node20 -->
<g id="edge41" class="edge"><title>Node25&#45;&gt;Node20</title>
<path fill="none" stroke="midnightblue" d="M337.57,-448.245C341.533,-439.326 347.399,-424.997 350.5,-412 354.168,-396.63 355.916,-378.754 356.749,-365.643"/>
<polygon fill="midnightblue" stroke="midnightblue" points="360.25,-365.697 357.269,-355.531 353.26,-365.337 360.25,-365.697"/>
</g>
<!-- Node26 -->
<g id="node26" class="node"><title>Node26</title>
<g id="a_node26"><a xlink:href="semtrex_8h.html" target="_top" xlink:title="Semantic tree regular expression header file. ">
<polygon fill="white" stroke="black" points="255.5,-392.5 255.5,-411.5 341.5,-411.5 341.5,-392.5 255.5,-392.5"/>
<text text-anchor="middle" x="298.5" y="-399.5" font-family="Helvetica,sans-Serif" font-size="10.00">../src/semtrex.h</text>
</a>
</g>
</g>
<!-- Node25&#45;&gt;Node26 -->
<g id="edge42" class="edge"><title>Node25&#45;&gt;Node26</title>
<path fill="none" stroke="midnightblue" d="M327.72,-448.083C322.828,-440.534 315.673,-429.495 309.667,-420.23"/>
<polygon fill="midnightblue" stroke="midnightblue" points="312.548,-418.239 304.172,-411.751 306.674,-422.046 312.548,-418.239"/>
</g>
<!-- Node26&#45;&gt;Node10 -->
<g id="edge43" class="edge"><title>Node26&#45;&gt;Node10</title>
<path fill="none" stroke="midnightblue" d="M298.762,-392.26C298.853,-379.463 297.907,-355.079 290.5,-336 286.475,-325.631 279.524,-315.417 273.127,-307.347"/>
<polygon fill="midnightblue" stroke="midnightblue" points="275.676,-304.94 266.568,-299.527 270.313,-309.438 275.676,-304.94"/>
</g>
</g>
</svg>
