<?xml version="1.0" encoding="UTF-8" standalone="no"?>
<!DOCTYPE svg PUBLIC "-//W3C//DTD SVG 1.1//EN"
 "http://www.w3.org/Graphics/SVG/1.1/DTD/svg11.dtd">
<!-- Generated by graphviz version 2.38.0 (20140413.2041)
 -->
<!-- Title: src/tree.c Pages: 1 -->
<svg width="763pt" height="476pt"
 viewBox="0.00 0.00 762.50 476.00" xmlns="http://www.w3.org/2000/svg" xmlns:xlink="http://www.w3.org/1999/xlink">
<g id="graph0" class="graph" transform="scale(1 1) rotate(0) translate(4 472)">
<title>src/tree.c</title>
<polygon fill="white" stroke="none" points="-4,4 -4,-472 758.5,-472 758.5,4 -4,4"/>
<!-- Node1 -->
<g id="node1" class="node"><title>Node1</title>
<polygon fill="#bfbfbf" stroke="black" points="356,-448.5 356,-467.5 414,-467.5 414,-448.5 356,-448.5"/>
<text text-anchor="middle" x="385" y="-455.5" font-family="Helvetica,sans-Serif" font-size="10.00">src/tree.c</text>
</g>
<!-- Node2 -->
<g id="node2" class="node"><title>Node2</title>
<g id="a_node2"><a xlink:href="tree_8h.html" target="_top" xlink:title="semantic trees header file ">
<polygon fill="white" stroke="black" points="220.5,-280.5 220.5,-299.5 261.5,-299.5 261.5,-280.5 220.5,-280.5"/>
<text text-anchor="middle" x="241" y="-287.5" font-family="Helvetica,sans-Serif" font-size="10.00">tree.h</text>
</a>
</g>
</g>
<!-- Node1&#45;&gt;Node2 -->
<g id="edge1" class="edge"><title>Node1&#45;&gt;Node2</title>
<path fill="none" stroke="midnightblue" d="M386.295,-448.186C388.976,-426.409 392.757,-369.41 365,-336 342.031,-308.353 300.618,-297.691 272.009,-293.58"/>
<polygon fill="midnightblue" stroke="midnightblue" points="272.092,-290.064 261.737,-292.304 271.229,-297.01 272.092,-290.064"/>
</g>
<!-- Node5 -->
<g id="node5" class="node"><title>Node5</title>
<g id="a_node5"><a xlink:href="ceptr__error_8h_source.html" target="_top" xlink:title="ceptr_error.h">
<polygon fill="white" stroke="black" points="387.5,-224.5 387.5,-243.5 458.5,-243.5 458.5,-224.5 387.5,-224.5"/>
<text text-anchor="middle" x="423" y="-231.5" font-family="Helvetica,sans-Serif" font-size="10.00">ceptr_error.h</text>
</a>
</g>
</g>
<!-- Node1&#45;&gt;Node5 -->
<g id="edge25" class="edge"><title>Node1&#45;&gt;Node5</title>
<path fill="none" stroke="midnightblue" d="M389.041,-448.238C392.981,-439.313 398.828,-424.98 402,-412 415.803,-355.51 420.657,-286.577 422.263,-253.91"/>
<polygon fill="midnightblue" stroke="midnightblue" points="425.773,-253.75 422.718,-243.605 418.78,-253.441 425.773,-253.75"/>
</g>
<!-- Node20 -->
<g id="node20" class="node"><title>Node20</title>
<g id="a_node20"><a xlink:href="hashfn_8h_source.html" target="_top" xlink:title="hashfn.h">
<polygon fill="white" stroke="black" points="513,-392.5 513,-411.5 567,-411.5 567,-392.5 513,-392.5"/>
<text text-anchor="middle" x="540" y="-399.5" font-family="Helvetica,sans-Serif" font-size="10.00">hashfn.h</text>
</a>
</g>
</g>
<!-- Node1&#45;&gt;Node20 -->
<g id="edge26" class="edge"><title>Node1&#45;&gt;Node20</title>
<path fill="none" stroke="midnightblue" d="M409.56,-448.444C435.523,-439.399 476.668,-425.064 505.797,-414.916"/>
<polygon fill="midnightblue" stroke="midnightblue" points="507.263,-418.112 515.555,-411.516 504.96,-411.501 507.263,-418.112"/>
</g>
<!-- Node21 -->
<g id="node21" class="node"><title>Node21</title>
<g id="a_node21"><a xlink:href="def_8h.html" target="_top" xlink:title="header file for symbol and structure definition functions ">
<polygon fill="white" stroke="black" points="95,-336.5 95,-355.5 133,-355.5 133,-336.5 95,-336.5"/>
<text text-anchor="middle" x="114" y="-343.5" font-family="Helvetica,sans-Serif" font-size="10.00">def.h</text>
</a>
</g>
</g>
<!-- Node1&#45;&gt;Node21 -->
<g id="edge28" class="edge"><title>Node1&#45;&gt;Node21</title>
<path fill="none" stroke="midnightblue" d="M355.924,-452.769C320.153,-446.851 258.129,-434.246 209,-412 180.057,-398.895 150.424,-376.998 132.12,-362.283"/>
<polygon fill="midnightblue" stroke="midnightblue" points="134.05,-359.34 124.097,-355.707 129.612,-364.753 134.05,-359.34"/>
</g>
<!-- Node23 -->
<g id="node23" class="node"><title>Node23</title>
<g id="a_node23"><a xlink:href="receptor_8h.html" target="_top" xlink:title="receptor implementation header file ">
<polygon fill="white" stroke="black" points="218,-392.5 218,-411.5 278,-411.5 278,-392.5 218,-392.5"/>
<text text-anchor="middle" x="248" y="-399.5" font-family="Helvetica,sans-Serif" font-size="10.00">receptor.h</text>
</a>
</g>
</g>
<!-- Node1&#45;&gt;Node23 -->
<g id="edge31" class="edge"><title>Node1&#45;&gt;Node23</title>
<path fill="none" stroke="midnightblue" d="M363.292,-448.444C340.645,-439.517 304.928,-425.439 279.248,-415.317"/>
<polygon fill="midnightblue" stroke="midnightblue" points="280.193,-411.927 269.606,-411.516 277.626,-418.44 280.193,-411.927"/>
</g>
<!-- Node26 -->
<g id="node26" class="node"><title>Node26</title>
<g id="a_node26"><a xlink:href="scape_8h.html" target="_top" xlink:title="scape header files ">
<polygon fill="white" stroke="black" points="305.5,-336.5 305.5,-355.5 356.5,-355.5 356.5,-336.5 305.5,-336.5"/>
<text text-anchor="middle" x="331" y="-343.5" font-family="Helvetica,sans-Serif" font-size="10.00">scape.h</text>
</a>
</g>
</g>
<!-- Node1&#45;&gt;Node26 -->
<g id="edge40" class="edge"><title>Node1&#45;&gt;Node26</title>
<path fill="none" stroke="midnightblue" d="M380.763,-448.368C371.93,-430.376 351.397,-388.55 339.653,-364.627"/>
<polygon fill="midnightblue" stroke="midnightblue" points="342.766,-363.026 335.218,-355.591 336.483,-366.11 342.766,-363.026"/>
</g>
<!-- Node27 -->
<g id="node27" class="node"><title>Node27</title>
<g id="a_node27"><a xlink:href="util_8h.html" target="_top" xlink:title="util.h">
<polygon fill="white" stroke="black" points="646,-112.5 646,-131.5 684,-131.5 684,-112.5 646,-112.5"/>
<text text-anchor="middle" x="665" y="-119.5" font-family="Helvetica,sans-Serif" font-size="10.00">util.h</text>
</a>
</g>
</g>
<!-- Node1&#45;&gt;Node27 -->
<g id="edge41" class="edge"><title>Node1&#45;&gt;Node27</title>
<path fill="none" stroke="midnightblue" d="M414.08,-453.997C452.646,-449.17 522.114,-437.508 576,-412 618.985,-391.652 661,-394.558 661,-347 661,-347 661,-347 661,-233 661,-200.927 662.719,-163.628 663.904,-141.741"/>
<polygon fill="midnightblue" stroke="midnightblue" points="667.409,-141.735 664.477,-131.554 660.42,-141.341 667.409,-141.735"/>
</g>
<!-- Node3 -->
<g id="node3" class="node"><title>Node3</title>
<polygon fill="white" stroke="#bfbfbf" points="70.5,-0.5 70.5,-19.5 119.5,-19.5 119.5,-0.5 70.5,-0.5"/>
<text text-anchor="middle" x="95" y="-7.5" font-family="Helvetica,sans-Serif" font-size="10.00">string.h</text>
</g>
<!-- Node2&#45;&gt;Node3 -->
<g id="edge2" class="edge"><title>Node2&#45;&gt;Node3</title>
<path fill="none" stroke="midnightblue" d="M220.368,-283.689C180.551,-272.059 97,-240.346 97,-179 97,-179 97,-179 97,-121 97,-88.9427 96.1404,-51.639 95.5482,-29.747"/>
<polygon fill="midnightblue" stroke="midnightblue" points="99.0415,-29.4544 95.2615,-19.5568 92.0443,-29.6513 99.0415,-29.4544"/>
</g>
<!-- Node4 -->
<g id="node4" class="node"><title>Node4</title>
<polygon fill="white" stroke="#bfbfbf" points="0,-0.5 0,-19.5 48,-19.5 48,-0.5 0,-0.5"/>
<text text-anchor="middle" x="24" y="-7.5" font-family="Helvetica,sans-Serif" font-size="10.00">stdlib.h</text>
</g>
<!-- Node2&#45;&gt;Node4 -->
<g id="edge3" class="edge"><title>Node2&#45;&gt;Node4</title>
<path fill="none" stroke="midnightblue" d="M220.303,-283.422C165.537,-268.056 21,-223.304 21,-179 21,-179 21,-179 21,-121 21,-88.9361 22.2895,-51.6344 23.1776,-29.7446"/>
<polygon fill="midnightblue" stroke="midnightblue" points="26.6828,-29.6944 23.6078,-19.5556 19.689,-29.399 26.6828,-29.6944"/>
</g>
<!-- Node2&#45;&gt;Node5 -->
<g id="edge4" class="edge"><title>Node2&#45;&gt;Node5</title>
<path fill="none" stroke="midnightblue" d="M261.524,-282.91C291.307,-274.074 347.041,-257.537 384.589,-246.397"/>
<polygon fill="midnightblue" stroke="midnightblue" points="385.596,-249.749 394.187,-243.549 383.605,-243.038 385.596,-249.749"/>
</g>
<!-- Node10 -->
<g id="node10" class="node"><title>Node10</title>
<g id="a_node10"><a xlink:href="sys__defs_8h.html" target="_top" xlink:title="Defines types and vars for system defined semantics. ">
<polygon fill="white" stroke="black" points="163.5,-168.5 163.5,-187.5 228.5,-187.5 228.5,-168.5 163.5,-168.5"/>
<text text-anchor="middle" x="196" y="-175.5" font-family="Helvetica,sans-Serif" font-size="10.00">sys_defs.h</text>
</a>
</g>
</g>
<!-- Node2&#45;&gt;Node10 -->
<g id="edge9" class="edge"><title>Node2&#45;&gt;Node10</title>
<path fill="none" stroke="midnightblue" d="M243.295,-280.166C246.183,-267.253 249.877,-242.726 242,-224 236.974,-212.053 227.056,-201.692 217.713,-193.934"/>
<polygon fill="midnightblue" stroke="midnightblue" points="219.84,-191.155 209.787,-187.811 215.561,-196.694 219.84,-191.155"/>
</g>
<!-- Node11 -->
<g id="node11" class="node"><title>Node11</title>
<g id="a_node11"><a xlink:href="ceptr__types_8h_source.html" target="_top" xlink:title="ceptr_types.h">
<polygon fill="white" stroke="black" points="158,-112.5 158,-131.5 234,-131.5 234,-112.5 158,-112.5"/>
<text text-anchor="middle" x="196" y="-119.5" font-family="Helvetica,sans-Serif" font-size="10.00">ceptr_types.h</text>
</a>
</g>
</g>
<!-- Node2&#45;&gt;Node11 -->
<g id="edge21" class="edge"><title>Node2&#45;&gt;Node11</title>
<path fill="none" stroke="midnightblue" d="M220.217,-284.772C199.357,-279.302 168.322,-267.532 154,-244 136.439,-215.146 141.614,-199.425 154,-168 158.514,-156.548 167.469,-146.291 175.955,-138.472"/>
<polygon fill="midnightblue" stroke="midnightblue" points="178.469,-140.927 183.786,-131.764 173.915,-135.611 178.469,-140.927"/>
</g>
<!-- Node17 -->
<g id="node17" class="node"><title>Node17</title>
<g id="a_node17"><a xlink:href="base__defs_8h.html" target="_top" xlink:title="auto&#45;generated system definitions ">
<polygon fill="white" stroke="black" points="163,-224.5 163,-243.5 233,-243.5 233,-224.5 163,-224.5"/>
<text text-anchor="middle" x="198" y="-231.5" font-family="Helvetica,sans-Serif" font-size="10.00">base_defs.h</text>
</a>
</g>
</g>
<!-- Node2&#45;&gt;Node17 -->
<g id="edge19" class="edge"><title>Node2&#45;&gt;Node17</title>
<path fill="none" stroke="midnightblue" d="M233.899,-280.083C227.763,-272.377 218.73,-261.033 211.261,-251.653"/>
<polygon fill="midnightblue" stroke="midnightblue" points="213.936,-249.394 204.968,-243.751 208.46,-253.754 213.936,-249.394"/>
</g>
<!-- Node18 -->
<g id="node18" class="node"><title>Node18</title>
<g id="a_node18"><a xlink:href="stream_8h.html" target="_top" xlink:title="streams abstraction header file ">
<polygon fill="white" stroke="black" points="289.5,-224.5 289.5,-243.5 344.5,-243.5 344.5,-224.5 289.5,-224.5"/>
<text text-anchor="middle" x="317" y="-231.5" font-family="Helvetica,sans-Serif" font-size="10.00">stream.h</text>
</a>
</g>
</g>
<!-- Node2&#45;&gt;Node18 -->
<g id="edge22" class="edge"><title>Node2&#45;&gt;Node18</title>
<path fill="none" stroke="midnightblue" d="M253.211,-280.324C264.776,-272.107 282.375,-259.602 296.161,-249.807"/>
<polygon fill="midnightblue" stroke="midnightblue" points="298.443,-252.479 304.567,-243.834 294.388,-246.773 298.443,-252.479"/>
</g>
<!-- Node6 -->
<g id="node6" class="node"><title>Node6</title>
<polygon fill="white" stroke="#bfbfbf" points="328,-56.5 328,-75.5 374,-75.5 374,-56.5 328,-56.5"/>
<text text-anchor="middle" x="351" y="-63.5" font-family="Helvetica,sans-Serif" font-size="10.00">stdio.h</text>
</g>
<!-- Node5&#45;&gt;Node6 -->
<g id="edge5" class="edge"><title>Node5&#45;&gt;Node6</title>
<path fill="none" stroke="midnightblue" d="M414.982,-224.312C407.376,-215.671 396.085,-201.753 389,-188 371.417,-153.866 360.156,-110.09 354.763,-85.6461"/>
<polygon fill="midnightblue" stroke="midnightblue" points="358.132,-84.6625 352.64,-75.6023 351.284,-86.1099 358.132,-84.6625"/>
</g>
<!-- Node7 -->
<g id="node7" class="node"><title>Node7</title>
<polygon fill="white" stroke="#bfbfbf" points="398,-168.5 398,-187.5 448,-187.5 448,-168.5 398,-168.5"/>
<text text-anchor="middle" x="423" y="-175.5" font-family="Helvetica,sans-Serif" font-size="10.00">signal.h</text>
</g>
<!-- Node5&#45;&gt;Node7 -->
<g id="edge6" class="edge"><title>Node5&#45;&gt;Node7</title>
<path fill="none" stroke="midnightblue" d="M423,-224.083C423,-217.006 423,-206.861 423,-197.986"/>
<polygon fill="midnightblue" stroke="midnightblue" points="426.5,-197.751 423,-187.751 419.5,-197.751 426.5,-197.751"/>
</g>
<!-- Node8 -->
<g id="node8" class="node"><title>Node8</title>
<polygon fill="white" stroke="#bfbfbf" points="466,-168.5 466,-187.5 518,-187.5 518,-168.5 466,-168.5"/>
<text text-anchor="middle" x="492" y="-175.5" font-family="Helvetica,sans-Serif" font-size="10.00">assert.h</text>
</g>
<!-- Node5&#45;&gt;Node8 -->
<g id="edge7" class="edge"><title>Node5&#45;&gt;Node8</title>
<path fill="none" stroke="midnightblue" d="M434.086,-224.324C444.486,-216.185 460.261,-203.839 472.722,-194.087"/>
<polygon fill="midnightblue" stroke="midnightblue" points="474.994,-196.753 480.712,-187.834 470.68,-191.241 474.994,-196.753"/>
</g>
<!-- Node9 -->
<g id="node9" class="node"><title>Node9</title>
<polygon fill="white" stroke="#bfbfbf" points="536,-168.5 536,-187.5 590,-187.5 590,-168.5 536,-168.5"/>
<text text-anchor="middle" x="563" y="-175.5" font-family="Helvetica,sans-Serif" font-size="10.00">setjmp.h</text>
</g>
<!-- Node5&#45;&gt;Node9 -->
<g id="edge8" class="edge"><title>Node5&#45;&gt;Node9</title>
<path fill="none" stroke="midnightblue" d="M445.183,-224.444C468.428,-215.478 505.149,-201.314 531.415,-191.183"/>
<polygon fill="midnightblue" stroke="midnightblue" points="532.85,-194.381 540.92,-187.516 530.331,-187.85 532.85,-194.381"/>
</g>
<!-- Node10&#45;&gt;Node11 -->
<g id="edge10" class="edge"><title>Node10&#45;&gt;Node11</title>
<path fill="none" stroke="midnightblue" d="M196,-168.083C196,-161.006 196,-150.861 196,-141.986"/>
<polygon fill="midnightblue" stroke="midnightblue" points="199.5,-141.751 196,-131.751 192.5,-141.751 199.5,-141.751"/>
</g>
<!-- Node11&#45;&gt;Node6 -->
<g id="edge12" class="edge"><title>Node11&#45;&gt;Node6</title>
<path fill="none" stroke="midnightblue" d="M220.56,-112.444C246.828,-103.292 288.638,-88.726 317.82,-78.5594"/>
<polygon fill="midnightblue" stroke="midnightblue" points="319.277,-81.7581 327.569,-75.1629 316.974,-75.1478 319.277,-81.7581"/>
</g>
<!-- Node12 -->
<g id="node12" class="node"><title>Node12</title>
<polygon fill="white" stroke="#bfbfbf" points="575.5,-56.5 575.5,-75.5 624.5,-75.5 624.5,-56.5 575.5,-56.5"/>
<text text-anchor="middle" x="600" y="-63.5" font-family="Helvetica,sans-Serif" font-size="10.00">stdint.h</text>
</g>
<!-- Node11&#45;&gt;Node12 -->
<g id="edge11" class="edge"><title>Node11&#45;&gt;Node12</title>
<path fill="none" stroke="midnightblue" d="M234.007,-115.92C312.078,-105.485 489.488,-81.7714 564.963,-71.6832"/>
<polygon fill="midnightblue" stroke="midnightblue" points="565.887,-75.0909 575.335,-70.2968 564.959,-68.1526 565.887,-75.0909"/>
</g>
<!-- Node13 -->
<g id="node13" class="node"><title>Node13</title>
<g id="a_node13"><a xlink:href="uthash_8h_source.html" target="_top" xlink:title="uthash.h">
<polygon fill="white" stroke="black" points="130,-56.5 130,-75.5 184,-75.5 184,-56.5 130,-56.5"/>
<text text-anchor="middle" x="157" y="-63.5" font-family="Helvetica,sans-Serif" font-size="10.00">uthash.h</text>
</a>
</g>
</g>
<!-- Node11&#45;&gt;Node13 -->
<g id="edge13" class="edge"><title>Node11&#45;&gt;Node13</title>
<path fill="none" stroke="midnightblue" d="M189.56,-112.083C184.051,-104.455 175.969,-93.2645 169.235,-83.9408"/>
<polygon fill="midnightblue" stroke="midnightblue" points="172.013,-81.8087 163.32,-75.7511 166.338,-85.9071 172.013,-81.8087"/>
</g>
<!-- Node16 -->
<g id="node16" class="node"><title>Node16</title>
<polygon fill="white" stroke="#bfbfbf" points="202,-56.5 202,-75.5 258,-75.5 258,-56.5 202,-56.5"/>
<text text-anchor="middle" x="230" y="-63.5" font-family="Helvetica,sans-Serif" font-size="10.00">stdbool.h</text>
</g>
<!-- Node11&#45;&gt;Node16 -->
<g id="edge18" class="edge"><title>Node11&#45;&gt;Node16</title>
<path fill="none" stroke="midnightblue" d="M201.614,-112.083C206.367,-104.534 213.318,-93.4948 219.152,-84.2298"/>
<polygon fill="midnightblue" stroke="midnightblue" points="222.124,-86.0783 224.49,-75.7511 216.2,-82.3486 222.124,-86.0783"/>
</g>
<!-- Node13&#45;&gt;Node3 -->
<g id="edge14" class="edge"><title>Node13&#45;&gt;Node3</title>
<path fill="none" stroke="midnightblue" d="M147.039,-56.324C137.873,-48.3414 124.063,-36.3128 112.972,-26.6529"/>
<polygon fill="midnightblue" stroke="midnightblue" points="114.982,-23.7624 105.143,-19.8339 110.385,-29.041 114.982,-23.7624"/>
</g>
<!-- Node13&#45;&gt;Node4 -->
<g id="edge16" class="edge"><title>Node13&#45;&gt;Node4</title>
<path fill="none" stroke="midnightblue" d="M135.926,-56.4435C113.94,-47.5171 79.2657,-33.4387 54.3359,-23.3168"/>
<polygon fill="midnightblue" stroke="midnightblue" points="55.5578,-20.0355 44.9756,-19.5164 52.9244,-26.5213 55.5578,-20.0355"/>
</g>
<!-- Node14 -->
<g id="node14" class="node"><title>Node14</title>
<polygon fill="white" stroke="#bfbfbf" points="138,-0.5 138,-19.5 190,-19.5 190,-0.5 138,-0.5"/>
<text text-anchor="middle" x="164" y="-7.5" font-family="Helvetica,sans-Serif" font-size="10.00">stddef.h</text>
</g>
<!-- Node13&#45;&gt;Node14 -->
<g id="edge15" class="edge"><title>Node13&#45;&gt;Node14</title>
<path fill="none" stroke="midnightblue" d="M158.156,-56.083C159.084,-48.9272 160.418,-38.6353 161.577,-29.6911"/>
<polygon fill="midnightblue" stroke="midnightblue" points="165.051,-30.1181 162.866,-19.7511 158.109,-29.2181 165.051,-30.1181"/>
</g>
<!-- Node15 -->
<g id="node15" class="node"><title>Node15</title>
<polygon fill="white" stroke="#bfbfbf" points="208.5,-0.5 208.5,-19.5 267.5,-19.5 267.5,-0.5 208.5,-0.5"/>
<text text-anchor="middle" x="238" y="-7.5" font-family="Helvetica,sans-Serif" font-size="10.00">inttypes.h</text>
</g>
<!-- Node13&#45;&gt;Node15 -->
<g id="edge17" class="edge"><title>Node13&#45;&gt;Node15</title>
<path fill="none" stroke="midnightblue" d="M170.014,-56.324C182.532,-47.979 201.682,-35.2122 216.471,-25.3524"/>
<polygon fill="midnightblue" stroke="midnightblue" points="218.639,-28.1137 225.018,-19.6545 214.756,-22.2894 218.639,-28.1137"/>
</g>
<!-- Node17&#45;&gt;Node10 -->
<g id="edge20" class="edge"><title>Node17&#45;&gt;Node10</title>
<path fill="none" stroke="midnightblue" d="M197.67,-224.083C197.408,-217.006 197.032,-206.861 196.703,-197.986"/>
<polygon fill="midnightblue" stroke="midnightblue" points="200.192,-197.615 196.324,-187.751 193.197,-197.874 200.192,-197.615"/>
</g>
<!-- Node18&#45;&gt;Node6 -->
<g id="edge23" class="edge"><title>Node18&#45;&gt;Node6</title>
<path fill="none" stroke="midnightblue" d="M318.828,-224.075C324.18,-197.945 339.897,-121.211 347.195,-85.577"/>
<polygon fill="midnightblue" stroke="midnightblue" points="350.667,-86.067 349.245,-75.5681 343.81,-84.6624 350.667,-86.067"/>
</g>
<!-- Node19 -->
<g id="node19" class="node"><title>Node19</title>
<polygon fill="white" stroke="#bfbfbf" points="246.5,-168.5 246.5,-187.5 303.5,-187.5 303.5,-168.5 246.5,-168.5"/>
<text text-anchor="middle" x="275" y="-175.5" font-family="Helvetica,sans-Serif" font-size="10.00">pthread.h</text>
</g>
<!-- Node18&#45;&gt;Node19 -->
<g id="edge24" class="edge"><title>Node18&#45;&gt;Node19</title>
<path fill="none" stroke="midnightblue" d="M310.065,-224.083C304.071,-216.377 295.248,-205.033 287.952,-195.653"/>
<polygon fill="midnightblue" stroke="midnightblue" points="290.709,-193.496 281.806,-187.751 285.183,-197.793 290.709,-193.496"/>
</g>
<!-- Node20&#45;&gt;Node12 -->
<g id="edge27" class="edge"><title>Node20&#45;&gt;Node12</title>
<path fill="none" stroke="midnightblue" d="M552.188,-392.241C574.125,-375.35 618,-335.949 618,-291 618,-291 618,-291 618,-177 618,-144.537 610.27,-107.384 604.942,-85.6276"/>
<polygon fill="midnightblue" stroke="midnightblue" points="608.288,-84.5867 602.428,-75.7605 601.505,-86.3151 608.288,-84.5867"/>
</g>
<!-- Node21&#45;&gt;Node2 -->
<g id="edge29" class="edge"><title>Node21&#45;&gt;Node2</title>
<path fill="none" stroke="midnightblue" d="M133.013,-336.916C153.691,-328.123 187.017,-313.953 211.183,-303.678"/>
<polygon fill="midnightblue" stroke="midnightblue" points="212.76,-306.811 220.593,-299.677 210.021,-300.369 212.76,-306.811"/>
</g>
<!-- Node22 -->
<g id="node22" class="node"><title>Node22</title>
<polygon fill="white" stroke="#bfbfbf" points="68,-280.5 68,-299.5 120,-299.5 120,-280.5 68,-280.5"/>
<text text-anchor="middle" x="94" y="-287.5" font-family="Helvetica,sans-Serif" font-size="10.00">stdarg.h</text>
</g>
<!-- Node21&#45;&gt;Node22 -->
<g id="edge30" class="edge"><title>Node21&#45;&gt;Node22</title>
<path fill="none" stroke="midnightblue" d="M110.697,-336.083C108.018,-328.849 104.151,-318.409 100.814,-309.397"/>
<polygon fill="midnightblue" stroke="midnightblue" points="103.996,-307.913 97.2411,-299.751 97.4322,-310.344 103.996,-307.913"/>
</g>
<!-- Node23&#45;&gt;Node2 -->
<g id="edge32" class="edge"><title>Node23&#45;&gt;Node2</title>
<path fill="none" stroke="midnightblue" d="M250.957,-392.14C254.749,-379.602 260.447,-355.983 257,-336 255.432,-326.91 252.205,-317.222 249.057,-309.173"/>
<polygon fill="midnightblue" stroke="midnightblue" points="252.194,-307.602 245.111,-299.723 245.735,-310.299 252.194,-307.602"/>
</g>
<!-- Node23&#45;&gt;Node21 -->
<g id="edge33" class="edge"><title>Node23&#45;&gt;Node21</title>
<path fill="none" stroke="midnightblue" d="M226.767,-392.444C204.095,-383.307 168.03,-368.773 142.808,-358.609"/>
<polygon fill="midnightblue" stroke="midnightblue" points="143.976,-355.307 133.393,-354.815 141.36,-361.799 143.976,-355.307"/>
</g>
<!-- Node24 -->
<g id="node24" class="node"><title>Node24</title>
<g id="a_node24"><a xlink:href="label_8h.html" target="_top" xlink:title="Label tables map human readable text strings to parts of semantic trees. ">
<polygon fill="white" stroke="black" points="138.5,-280.5 138.5,-299.5 183.5,-299.5 183.5,-280.5 138.5,-280.5"/>
<text text-anchor="middle" x="161" y="-287.5" font-family="Helvetica,sans-Serif" font-size="10.00">label.h</text>
</a>
</g>
</g>
<!-- Node23&#45;&gt;Node24 -->
<g id="edge34" class="edge"><title>Node23&#45;&gt;Node24</title>
<path fill="none" stroke="midnightblue" d="M227.918,-392.429C212.658,-384.933 192.265,-372.636 180,-356 170.08,-342.545 165.318,-323.984 163.045,-310.14"/>
<polygon fill="midnightblue" stroke="midnightblue" points="166.461,-309.282 161.662,-299.836 159.523,-310.213 166.461,-309.282"/>
</g>
<!-- Node25 -->
<g id="node25" class="node"><title>Node25</title>
<g id="a_node25"><a xlink:href="process_8h.html" target="_top" xlink:title="processing header files ">
<polygon fill="white" stroke="black" points="189.5,-336.5 189.5,-355.5 248.5,-355.5 248.5,-336.5 189.5,-336.5"/>
<text text-anchor="middle" x="219" y="-343.5" font-family="Helvetica,sans-Serif" font-size="10.00">process.h</text>
</a>
</g>
</g>
<!-- Node23&#45;&gt;Node25 -->
<g id="edge36" class="edge"><title>Node23&#45;&gt;Node25</title>
<path fill="none" stroke="midnightblue" d="M243.211,-392.083C239.242,-384.691 233.475,-373.953 228.565,-364.811"/>
<polygon fill="midnightblue" stroke="midnightblue" points="231.514,-362.905 223.7,-355.751 225.347,-366.217 231.514,-362.905"/>
</g>
<!-- Node23&#45;&gt;Node26 -->
<g id="edge38" class="edge"><title>Node23&#45;&gt;Node26</title>
<path fill="none" stroke="midnightblue" d="M261.335,-392.324C274.162,-383.979 293.785,-371.212 308.94,-361.352"/>
<polygon fill="midnightblue" stroke="midnightblue" points="311.224,-364.042 317.698,-355.655 307.407,-358.174 311.224,-364.042"/>
</g>
<!-- Node24&#45;&gt;Node11 -->
<g id="edge35" class="edge"><title>Node24&#45;&gt;Node11</title>
<path fill="none" stroke="midnightblue" d="M149.734,-280.427C140.034,-272.275 126.721,-259.046 121,-244 108.996,-212.427 104.358,-197.393 121,-168 129.347,-153.258 144.662,-142.819 159.287,-135.732"/>
<polygon fill="midnightblue" stroke="midnightblue" points="160.997,-138.803 168.718,-131.547 158.158,-132.404 160.997,-138.803"/>
</g>
<!-- Node25&#45;&gt;Node2 -->
<g id="edge37" class="edge"><title>Node25&#45;&gt;Node2</title>
<path fill="none" stroke="midnightblue" d="M222.633,-336.083C225.612,-328.77 229.926,-318.181 233.625,-309.103"/>
<polygon fill="midnightblue" stroke="midnightblue" points="236.903,-310.333 237.435,-299.751 230.42,-307.691 236.903,-310.333"/>
</g>
<!-- Node26&#45;&gt;Node2 -->
<g id="edge39" class="edge"><title>Node26&#45;&gt;Node2</title>
<path fill="none" stroke="midnightblue" d="M316.54,-336.324C302.5,-327.9 280.952,-314.971 264.457,-305.074"/>
<polygon fill="midnightblue" stroke="midnightblue" points="265.8,-301.798 255.424,-299.655 262.198,-307.801 265.8,-301.798"/>
</g>
<!-- Node27&#45;&gt;Node6 -->
<g id="edge43" class="edge"><title>Node27&#45;&gt;Node6</title>
<path fill="none" stroke="midnightblue" d="M645.831,-117.703C593.865,-108.767 449.816,-83.9938 384.259,-72.7197"/>
<polygon fill="midnightblue" stroke="midnightblue" points="384.518,-69.2129 374.069,-70.9673 383.331,-76.1116 384.518,-69.2129"/>
</g>
<!-- Node27&#45;&gt;Node12 -->
<g id="edge45" class="edge"><title>Node27&#45;&gt;Node12</title>
<path fill="none" stroke="midnightblue" d="M654.557,-112.324C644.854,-104.263 630.185,-92.0765 618.5,-82.3695"/>
<polygon fill="midnightblue" stroke="midnightblue" points="620.562,-79.532 610.633,-75.8339 616.089,-84.9163 620.562,-79.532"/>
</g>
<!-- Node28 -->
<g id="node28" class="node"><title>Node28</title>
<polygon fill="white" stroke="#bfbfbf" points="705.5,-56.5 705.5,-75.5 754.5,-75.5 754.5,-56.5 705.5,-56.5"/>
<text text-anchor="middle" x="730" y="-63.5" font-family="Helvetica,sans-Serif" font-size="10.00">ctype.h</text>
</g>
<!-- Node27&#45;&gt;Node28 -->
<g id="edge42" class="edge"><title>Node27&#45;&gt;Node28</title>
<path fill="none" stroke="midnightblue" d="M675.443,-112.324C685.146,-104.263 699.815,-92.0765 711.5,-82.3695"/>
<polygon fill="midnightblue" stroke="midnightblue" points="713.911,-84.9163 719.367,-75.8339 709.438,-79.532 713.911,-84.9163"/>
</g>
<!-- Node29 -->
<g id="node29" class="node"><title>Node29</title>
<polygon fill="white" stroke="#bfbfbf" points="643,-56.5 643,-75.5 687,-75.5 687,-56.5 643,-56.5"/>
<text text-anchor="middle" x="665" y="-63.5" font-family="Helvetica,sans-Serif" font-size="10.00">time.h</text>
</g>
<!-- Node27&#45;&gt;Node29 -->
<g id="edge44" class="edge"><title>Node27&#45;&gt;Node29</title>
<path fill="none" stroke="midnightblue" d="M665,-112.083C665,-105.006 665,-94.8611 665,-85.9865"/>
<polygon fill="midnightblue" stroke="midnightblue" points="668.5,-85.751 665,-75.7511 661.5,-85.7511 668.5,-85.751"/>
</g>
</g>
</svg>
