<?xml version="1.0" encoding="UTF-8" standalone="no"?>
<!DOCTYPE svg PUBLIC "-//W3C//DTD SVG 1.1//EN"
 "http://www.w3.org/Graphics/SVG/1.1/DTD/svg11.dtd">
<!-- Generated by graphviz version 2.38.0 (20140413.2041)
 -->
<!-- Title: src/tree.c Pages: 1 -->
<!--zoomable 532 -->
<svg id="main" version="1.1" xmlns="http://www.w3.org/2000/svg" xmlns:xlink="http://www.w3.org/1999/xlink" xml:space="preserve" onload="init(evt)">
<style type="text/css"><![CDATA[
.edge:hover path { stroke: red; }
.edge:hover polygon { stroke: red; fill: red; }
]]></style>
<script type="text/javascript"><![CDATA[
var edges = document.getElementsByTagName('g');
if (edges && edges.length) {
  for (var i=0;i<edges.length;i++) {
    if (edges[i].id.substr(0,4)=='edge') {
      edges[i].setAttribute('class','edge');
    }
  }
}
]]></script>
        <defs>
                <circle id="rim" cx="0" cy="0" r="7"/>
                <circle id="rim2" cx="0" cy="0" r="3.5"/>
                <g id="zoomPlus">
                        <use xlink:href="#rim" fill="#404040">
                                <set attributeName="fill" to="#808080" begin="zoomplus.mouseover" end="zoomplus.mouseout"/>
                        </use>
                        <path d="M-4,0h8M0,-4v8" fill="none" stroke="white" stroke-width="1.5" pointer-events="none"/>
                </g>
                <g id="zoomMin">
                        <use xlink:href="#rim" fill="#404040">
                                <set attributeName="fill" to="#808080" begin="zoomminus.mouseover" end="zoomminus.mouseout"/>
                        </use>
                        <path d="M-4,0h8" fill="none" stroke="white" stroke-width="1.5" pointer-events="none"/>
                </g>
                <g id="dirArrow">
                        <path fill="none" stroke="white" stroke-width="1.5" d="M0,-3.0v7 M-2.5,-0.5L0,-3.0L2.5,-0.5"/>
                </g>
               <g id="resetDef">
                       <use xlink:href="#rim2" fill="#404040">
                               <set attributeName="fill" to="#808080" begin="reset.mouseover" end="reset.mouseout"/>
                       </use>
               </g>
        </defs>

<script type="text/javascript">
var viewWidth = 784;
var viewHeight = 532;
var sectionId = 'dynsection-0';
</script>
<script xlink:href="svgpan.js"/>
<svg id="graph" class="graph">
<g id="viewport">
<title>src/tree.c</title>
<polygon fill="white" stroke="none" points="-4,4 -4,-528 779.5,-528 779.5,4 -4,4"/>
<!-- Node1 -->
<g id="node1" class="node"><title>Node1</title>
<polygon fill="#bfbfbf" stroke="black" points="411,-504.5 411,-523.5 469,-523.5 469,-504.5 411,-504.5"/>
<text text-anchor="middle" x="440" y="-511.5" font-family="Helvetica,sans-Serif" font-size="10.00">src/tree.c</text>
</g>
<!-- Node2 -->
<g id="node2" class="node"><title>Node2</title>
<g id="a_node2"><a xlink:href="tree_8h.html" target="_top" xlink:title="semantic trees header file ">
<polygon fill="white" stroke="black" points="309.5,-336.5 309.5,-355.5 350.5,-355.5 350.5,-336.5 309.5,-336.5"/>
<text text-anchor="middle" x="330" y="-343.5" font-family="Helvetica,sans-Serif" font-size="10.00">tree.h</text>
</a>
</g>
</g>
<!-- Node1&#45;&gt;Node2 -->
<g id="edge1" class="edge"><title>Node1&#45;&gt;Node2</title>
<path fill="none" stroke="midnightblue" d="M417.271,-504.457C384.736,-490.76 326.548,-460.402 306,-412 299.125,-395.806 307.938,-376.901 316.758,-363.667"/>
<polygon fill="midnightblue" stroke="midnightblue" points="319.634,-365.664 322.673,-355.515 313.968,-361.554 319.634,-365.664"/>
</g>
<!-- Node5 -->
<g id="node5" class="node"><title>Node5</title>
<g id="a_node5"><a xlink:href="ceptr__error_8h_source.html" target="_top" xlink:title="ceptr_error.h">
<polygon fill="white" stroke="black" points="127.5,-112.5 127.5,-131.5 198.5,-131.5 198.5,-112.5 127.5,-112.5"/>
<text text-anchor="middle" x="163" y="-119.5" font-family="Helvetica,sans-Serif" font-size="10.00">ceptr_error.h</text>
</a>
</g>
</g>
<!-- Node1&#45;&gt;Node5 -->
<g id="edge28" class="edge"><title>Node1&#45;&gt;Node5</title>
<path fill="none" stroke="midnightblue" d="M410.79,-511.997C312.518,-507.839 0,-487.941 0,-403 0,-403 0,-403 0,-233 0,-176.107 69.0717,-146.672 117.289,-133.055"/>
<polygon fill="midnightblue" stroke="midnightblue" points="118.479,-136.359 127.229,-130.385 116.663,-129.599 118.479,-136.359"/>
</g>
<!-- Node21 -->
<g id="node21" class="node"><title>Node21</title>
<g id="a_node21"><a xlink:href="hashfn_8h_source.html" target="_top" xlink:title="hashfn.h">
<polygon fill="white" stroke="black" points="604,-336.5 604,-355.5 658,-355.5 658,-336.5 604,-336.5"/>
<text text-anchor="middle" x="631" y="-343.5" font-family="Helvetica,sans-Serif" font-size="10.00">hashfn.h</text>
</a>
</g>
</g>
<!-- Node1&#45;&gt;Node21 -->
<g id="edge29" class="edge"><title>Node1&#45;&gt;Node21</title>
<path fill="none" stroke="midnightblue" d="M469.101,-511.233C501.117,-507.795 552.234,-497.688 584,-468 613.402,-440.522 624.654,-392.502 628.771,-365.969"/>
<polygon fill="midnightblue" stroke="midnightblue" points="632.283,-366.119 630.166,-355.738 625.347,-365.173 632.283,-366.119"/>
</g>
<!-- Node22 -->
<g id="node22" class="node"><title>Node22</title>
<g id="a_node22"><a xlink:href="def_8h.html" target="_top" xlink:title="header file for symbol and structure definition functions ">
<polygon fill="white" stroke="black" points="183,-392.5 183,-411.5 221,-411.5 221,-392.5 183,-392.5"/>
<text text-anchor="middle" x="202" y="-399.5" font-family="Helvetica,sans-Serif" font-size="10.00">def.h</text>
</a>
</g>
</g>
<!-- Node1&#45;&gt;Node22 -->
<g id="edge31" class="edge"><title>Node1&#45;&gt;Node22</title>
<path fill="none" stroke="midnightblue" d="M410.821,-509.697C360.992,-503.558 262.233,-489.072 235,-468 220.019,-456.408 211.275,-436.152 206.596,-421.326"/>
<polygon fill="midnightblue" stroke="midnightblue" points="209.962,-420.364 203.877,-411.691 203.225,-422.266 209.962,-420.364"/>
</g>
<!-- Node24 -->
<g id="node24" class="node"><title>Node24</title>
<g id="a_node24"><a xlink:href="receptor_8h.html" target="_top" xlink:title="receptor implementation header file ">
<polygon fill="white" stroke="black" points="373,-448.5 373,-467.5 433,-467.5 433,-448.5 373,-448.5"/>
<text text-anchor="middle" x="403" y="-455.5" font-family="Helvetica,sans-Serif" font-size="10.00">receptor.h</text>
</a>
</g>
</g>
<!-- Node1&#45;&gt;Node24 -->
<g id="edge34" class="edge"><title>Node1&#45;&gt;Node24</title>
<path fill="none" stroke="midnightblue" d="M433.89,-504.083C428.718,-496.534 421.154,-485.495 414.806,-476.23"/>
<polygon fill="midnightblue" stroke="midnightblue" points="417.536,-474.022 408.996,-467.751 411.761,-477.979 417.536,-474.022"/>
</g>
<!-- Node27 -->
<g id="node27" class="node"><title>Node27</title>
<g id="a_node27"><a xlink:href="scape_8h.html" target="_top" xlink:title="scape header files ">
<polygon fill="white" stroke="black" points="469.5,-392.5 469.5,-411.5 520.5,-411.5 520.5,-392.5 469.5,-392.5"/>
<text text-anchor="middle" x="495" y="-399.5" font-family="Helvetica,sans-Serif" font-size="10.00">scape.h</text>
</a>
</g>
</g>
<!-- Node1&#45;&gt;Node27 -->
<g id="edge44" class="edge"><title>Node1&#45;&gt;Node27</title>
<path fill="none" stroke="midnightblue" d="M444.316,-504.368C453.312,-486.376 474.225,-444.55 486.187,-420.627"/>
<polygon fill="midnightblue" stroke="midnightblue" points="489.363,-422.101 490.704,-411.591 483.102,-418.97 489.363,-422.101"/>
</g>
<!-- Node28 -->
<g id="node28" class="node"><title>Node28</title>
<g id="a_node28"><a xlink:href="util_8h.html" target="_top" xlink:title="util.h">
<polygon fill="white" stroke="black" points="667,-112.5 667,-131.5 705,-131.5 705,-112.5 667,-112.5"/>
<text text-anchor="middle" x="686" y="-119.5" font-family="Helvetica,sans-Serif" font-size="10.00">util.h</text>
</a>
</g>
</g>
<!-- Node1&#45;&gt;Node28 -->
<g id="edge45" class="edge"><title>Node1&#45;&gt;Node28</title>
<path fill="none" stroke="midnightblue" d="M469.185,-512.971C534.348,-511.217 686,-497.035 686,-403 686,-403 686,-403 686,-233 686,-200.948 686,-163.643 686,-141.749"/>
<polygon fill="midnightblue" stroke="midnightblue" points="689.5,-141.558 686,-131.558 682.5,-141.558 689.5,-141.558"/>
</g>
<!-- Node31 -->
<g id="node31" class="node"><title>Node31</title>
<g id="a_node31"><a xlink:href="debug_8h.html" target="_top" xlink:title="debug.h">
<polygon fill="white" stroke="black" points="524.5,-448.5 524.5,-467.5 575.5,-467.5 575.5,-448.5 524.5,-448.5"/>
<text text-anchor="middle" x="550" y="-455.5" font-family="Helvetica,sans-Serif" font-size="10.00">debug.h</text>
</a>
</g>
</g>
<!-- Node1&#45;&gt;Node31 -->
<g id="edge50" class="edge"><title>Node1&#45;&gt;Node31</title>
<path fill="none" stroke="midnightblue" d="M457.673,-504.324C475.394,-495.625 502.903,-482.12 523.288,-472.113"/>
<polygon fill="midnightblue" stroke="midnightblue" points="524.936,-475.203 532.37,-467.655 521.851,-468.919 524.936,-475.203"/>
</g>
<!-- Node3 -->
<g id="node3" class="node"><title>Node3</title>
<polygon fill="white" stroke="#bfbfbf" points="275.5,-0.5 275.5,-19.5 324.5,-19.5 324.5,-0.5 275.5,-0.5"/>
<text text-anchor="middle" x="300" y="-7.5" font-family="Helvetica,sans-Serif" font-size="10.00">string.h</text>
</g>
<!-- Node2&#45;&gt;Node3 -->
<g id="edge2" class="edge"><title>Node2&#45;&gt;Node3</title>
<path fill="none" stroke="midnightblue" d="M319.199,-336.292C309.864,-328.048 296.962,-314.763 291,-300 252.542,-204.768 281.305,-77.1621 294.406,-29.7573"/>
<polygon fill="midnightblue" stroke="midnightblue" points="297.823,-30.5377 297.212,-19.9605 291.093,-28.6101 297.823,-30.5377"/>
</g>
<!-- Node4 -->
<g id="node4" class="node"><title>Node4</title>
<polygon fill="white" stroke="#bfbfbf" points="119,-0.5 119,-19.5 167,-19.5 167,-0.5 119,-0.5"/>
<text text-anchor="middle" x="143" y="-7.5" font-family="Helvetica,sans-Serif" font-size="10.00">stdlib.h</text>
</g>
<!-- Node2&#45;&gt;Node4 -->
<g id="edge3" class="edge"><title>Node2&#45;&gt;Node4</title>
<path fill="none" stroke="midnightblue" d="M309.467,-341.845C243.002,-331.064 38,-293.1 38,-235 38,-235 38,-235 38,-121 38,-90.9022 37.9218,-79.2787 57,-56 70.4285,-39.6148 91.4083,-28.4702 109.284,-21.3706"/>
<polygon fill="midnightblue" stroke="midnightblue" points="110.667,-24.5909 118.828,-17.835 108.235,-18.0269 110.667,-24.5909"/>
</g>
<!-- Node2&#45;&gt;Node5 -->
<g id="edge4" class="edge"><title>Node2&#45;&gt;Node5</title>
<path fill="none" stroke="midnightblue" d="M309.499,-341.214C286.104,-335.885 248.104,-324.007 225,-300 181.59,-254.894 168.414,-177.703 164.543,-142.063"/>
<polygon fill="midnightblue" stroke="midnightblue" points="167.987,-141.3 163.557,-131.675 161.018,-141.961 167.987,-141.3"/>
</g>
<!-- Node10 -->
<g id="node10" class="node"><title>Node10</title>
<g id="a_node10"><a xlink:href="sys__defs_8h.html" target="_top" xlink:title="Defines types and vars for system defined semantics. ">
<polygon fill="white" stroke="black" points="297.5,-224.5 297.5,-243.5 362.5,-243.5 362.5,-224.5 297.5,-224.5"/>
<text text-anchor="middle" x="330" y="-231.5" font-family="Helvetica,sans-Serif" font-size="10.00">sys_defs.h</text>
</a>
</g>
</g>
<!-- Node2&#45;&gt;Node10 -->
<g id="edge9" class="edge"><title>Node2&#45;&gt;Node10</title>
<path fill="none" stroke="midnightblue" d="M320.712,-336.395C312.419,-328.025 300.856,-314.483 296,-300 290.155,-282.567 301.716,-264.124 312.91,-251.354"/>
<polygon fill="midnightblue" stroke="midnightblue" points="315.685,-253.514 320.027,-243.85 310.606,-248.698 315.685,-253.514"/>
</g>
<!-- Node11 -->
<g id="node11" class="node"><title>Node11</title>
<g id="a_node11"><a xlink:href="ceptr__types_8h_source.html" target="_top" xlink:title="ceptr_types.h">
<polygon fill="white" stroke="black" points="371,-112.5 371,-131.5 447,-131.5 447,-112.5 371,-112.5"/>
<text text-anchor="middle" x="409" y="-119.5" font-family="Helvetica,sans-Serif" font-size="10.00">ceptr_types.h</text>
</a>
</g>
</g>
<!-- Node2&#45;&gt;Node11 -->
<g id="edge24" class="edge"><title>Node2&#45;&gt;Node11</title>
<path fill="none" stroke="midnightblue" d="M345.526,-336.469C358.084,-328.693 375.093,-315.992 384,-300 412.638,-248.584 412.566,-176.214 410.604,-142.149"/>
<polygon fill="midnightblue" stroke="midnightblue" points="414.069,-141.525 409.875,-131.795 407.086,-142.016 414.069,-141.525"/>
</g>
<!-- Node18 -->
<g id="node18" class="node"><title>Node18</title>
<g id="a_node18"><a xlink:href="base__defs_8h.html" target="_top" xlink:title="auto&#45;generated system definitions ">
<polygon fill="white" stroke="black" points="305,-280.5 305,-299.5 375,-299.5 375,-280.5 305,-280.5"/>
<text text-anchor="middle" x="340" y="-287.5" font-family="Helvetica,sans-Serif" font-size="10.00">base_defs.h</text>
</a>
</g>
</g>
<!-- Node2&#45;&gt;Node18 -->
<g id="edge22" class="edge"><title>Node2&#45;&gt;Node18</title>
<path fill="none" stroke="midnightblue" d="M331.651,-336.083C332.976,-328.927 334.882,-318.635 336.539,-309.691"/>
<polygon fill="midnightblue" stroke="midnightblue" points="340,-310.221 338.379,-299.751 333.117,-308.947 340,-310.221"/>
</g>
<!-- Node19 -->
<g id="node19" class="node"><title>Node19</title>
<g id="a_node19"><a xlink:href="stream_8h.html" target="_top" xlink:title="streams abstraction header file ">
<polygon fill="white" stroke="black" points="470.5,-280.5 470.5,-299.5 525.5,-299.5 525.5,-280.5 470.5,-280.5"/>
<text text-anchor="middle" x="498" y="-287.5" font-family="Helvetica,sans-Serif" font-size="10.00">stream.h</text>
</a>
</g>
</g>
<!-- Node2&#45;&gt;Node19 -->
<g id="edge25" class="edge"><title>Node2&#45;&gt;Node19</title>
<path fill="none" stroke="midnightblue" d="M350.6,-338.379C378.272,-329.484 427.891,-313.535 461.852,-302.619"/>
<polygon fill="midnightblue" stroke="midnightblue" points="462.965,-305.938 471.415,-299.545 460.823,-299.273 462.965,-305.938"/>
</g>
<!-- Node6 -->
<g id="node6" class="node"><title>Node6</title>
<polygon fill="white" stroke="#bfbfbf" points="532,-56.5 532,-75.5 578,-75.5 578,-56.5 532,-56.5"/>
<text text-anchor="middle" x="555" y="-63.5" font-family="Helvetica,sans-Serif" font-size="10.00">stdio.h</text>
</g>
<!-- Node5&#45;&gt;Node6 -->
<g id="edge5" class="edge"><title>Node5&#45;&gt;Node6</title>
<path fill="none" stroke="midnightblue" d="M198.827,-116.065C274.307,-105.667 448.733,-81.6388 521.828,-71.5696"/>
<polygon fill="midnightblue" stroke="midnightblue" points="522.425,-75.0206 531.853,-70.1886 521.469,-68.086 522.425,-75.0206"/>
</g>
<!-- Node7 -->
<g id="node7" class="node"><title>Node7</title>
<polygon fill="white" stroke="#bfbfbf" points="208,-56.5 208,-75.5 258,-75.5 258,-56.5 208,-56.5"/>
<text text-anchor="middle" x="233" y="-63.5" font-family="Helvetica,sans-Serif" font-size="10.00">signal.h</text>
</g>
<!-- Node5&#45;&gt;Node7 -->
<g id="edge6" class="edge"><title>Node5&#45;&gt;Node7</title>
<path fill="none" stroke="midnightblue" d="M174.247,-112.324C184.797,-104.185 200.801,-91.8395 213.442,-82.0874"/>
<polygon fill="midnightblue" stroke="midnightblue" points="215.769,-84.7132 221.549,-75.8339 211.493,-79.1707 215.769,-84.7132"/>
</g>
<!-- Node8 -->
<g id="node8" class="node"><title>Node8</title>
<polygon fill="white" stroke="#bfbfbf" points="66,-56.5 66,-75.5 118,-75.5 118,-56.5 66,-56.5"/>
<text text-anchor="middle" x="92" y="-63.5" font-family="Helvetica,sans-Serif" font-size="10.00">assert.h</text>
</g>
<!-- Node5&#45;&gt;Node8 -->
<g id="edge7" class="edge"><title>Node5&#45;&gt;Node8</title>
<path fill="none" stroke="midnightblue" d="M151.593,-112.324C140.891,-104.185 124.659,-91.8395 111.837,-82.0874"/>
<polygon fill="midnightblue" stroke="midnightblue" points="113.693,-79.1018 103.615,-75.8339 109.456,-84.6734 113.693,-79.1018"/>
</g>
<!-- Node9 -->
<g id="node9" class="node"><title>Node9</title>
<polygon fill="white" stroke="#bfbfbf" points="136,-56.5 136,-75.5 190,-75.5 190,-56.5 136,-56.5"/>
<text text-anchor="middle" x="163" y="-63.5" font-family="Helvetica,sans-Serif" font-size="10.00">setjmp.h</text>
</g>
<!-- Node5&#45;&gt;Node9 -->
<g id="edge8" class="edge"><title>Node5&#45;&gt;Node9</title>
<path fill="none" stroke="midnightblue" d="M163,-112.083C163,-105.006 163,-94.8611 163,-85.9865"/>
<polygon fill="midnightblue" stroke="midnightblue" points="166.5,-85.751 163,-75.7511 159.5,-85.7511 166.5,-85.751"/>
</g>
<!-- Node10&#45;&gt;Node11 -->
<g id="edge10" class="edge"><title>Node10&#45;&gt;Node11</title>
<path fill="none" stroke="midnightblue" d="M336.199,-224.368C349.236,-206.215 379.697,-163.802 396.798,-139.99"/>
<polygon fill="midnightblue" stroke="midnightblue" points="399.839,-141.755 402.83,-131.591 394.154,-137.672 399.839,-141.755"/>
</g>
<!-- Node17 -->
<g id="node17" class="node"><title>Node17</title>
<g id="a_node17"><a xlink:href="semtable_8h.html" target="_top" xlink:title="header file for table for coordinating meaning across a vmhost ">
<polygon fill="white" stroke="black" points="191.5,-168.5 191.5,-187.5 256.5,-187.5 256.5,-168.5 191.5,-168.5"/>
<text text-anchor="middle" x="224" y="-175.5" font-family="Helvetica,sans-Serif" font-size="10.00">semtable.h</text>
</a>
</g>
</g>
<!-- Node10&#45;&gt;Node17 -->
<g id="edge19" class="edge"><title>Node10&#45;&gt;Node17</title>
<path fill="none" stroke="midnightblue" d="M312.969,-224.324C295.97,-215.664 269.624,-202.242 250.007,-192.249"/>
<polygon fill="midnightblue" stroke="midnightblue" points="251.488,-189.075 240.988,-187.655 248.31,-195.312 251.488,-189.075"/>
</g>
<!-- Node11&#45;&gt;Node6 -->
<g id="edge12" class="edge"><title>Node11&#45;&gt;Node6</title>
<path fill="none" stroke="midnightblue" d="M432.134,-112.444C456.482,-103.438 495.007,-89.1891 522.423,-79.049"/>
<polygon fill="midnightblue" stroke="midnightblue" points="523.809,-82.2681 531.974,-75.5164 521.381,-75.7028 523.809,-82.2681"/>
</g>
<!-- Node12 -->
<g id="node12" class="node"><title>Node12</title>
<polygon fill="white" stroke="#bfbfbf" points="596.5,-56.5 596.5,-75.5 645.5,-75.5 645.5,-56.5 596.5,-56.5"/>
<text text-anchor="middle" x="621" y="-63.5" font-family="Helvetica,sans-Serif" font-size="10.00">stdint.h</text>
</g>
<!-- Node11&#45;&gt;Node12 -->
<g id="edge11" class="edge"><title>Node11&#45;&gt;Node12</title>
<path fill="none" stroke="midnightblue" d="M443.153,-112.486C477.047,-104.01 530.731,-90.5135 586.752,-76.0422"/>
<polygon fill="midnightblue" stroke="midnightblue" points="587.69,-79.4148 596.495,-73.5216 585.937,-72.6379 587.69,-79.4148"/>
</g>
<!-- Node13 -->
<g id="node13" class="node"><title>Node13</title>
<g id="a_node13"><a xlink:href="uthash_8h_source.html" target="_top" xlink:title="uthash.h">
<polygon fill="white" stroke="black" points="388,-56.5 388,-75.5 442,-75.5 442,-56.5 388,-56.5"/>
<text text-anchor="middle" x="415" y="-63.5" font-family="Helvetica,sans-Serif" font-size="10.00">uthash.h</text>
</a>
</g>
</g>
<!-- Node11&#45;&gt;Node13 -->
<g id="edge13" class="edge"><title>Node11&#45;&gt;Node13</title>
<path fill="none" stroke="midnightblue" d="M409.991,-112.083C410.786,-104.927 411.929,-94.6353 412.923,-85.6911"/>
<polygon fill="midnightblue" stroke="midnightblue" points="416.402,-86.0765 414.028,-75.7511 409.445,-85.3034 416.402,-86.0765"/>
</g>
<!-- Node16 -->
<g id="node16" class="node"><title>Node16</title>
<polygon fill="white" stroke="#bfbfbf" points="314,-56.5 314,-75.5 370,-75.5 370,-56.5 314,-56.5"/>
<text text-anchor="middle" x="342" y="-63.5" font-family="Helvetica,sans-Serif" font-size="10.00">stdbool.h</text>
</g>
<!-- Node11&#45;&gt;Node16 -->
<g id="edge18" class="edge"><title>Node11&#45;&gt;Node16</title>
<path fill="none" stroke="midnightblue" d="M398.235,-112.324C388.234,-104.263 373.113,-92.0765 361.07,-82.3695"/>
<polygon fill="midnightblue" stroke="midnightblue" points="362.943,-79.3841 352.961,-75.8339 358.55,-84.8343 362.943,-79.3841"/>
</g>
<!-- Node13&#45;&gt;Node3 -->
<g id="edge14" class="edge"><title>Node13&#45;&gt;Node3</title>
<path fill="none" stroke="midnightblue" d="M396.778,-56.4435C378.104,-47.6751 348.844,-33.9355 327.383,-23.8579"/>
<polygon fill="midnightblue" stroke="midnightblue" points="328.676,-20.5988 318.137,-19.5164 325.701,-26.935 328.676,-20.5988"/>
</g>
<!-- Node13&#45;&gt;Node4 -->
<g id="edge16" class="edge"><title>Node13&#45;&gt;Node4</title>
<path fill="none" stroke="midnightblue" d="M387.912,-58.0536C384.911,-57.3359 381.894,-56.6372 379,-56 307.575,-40.2754 223.278,-24.9805 177.249,-16.9036"/>
<polygon fill="midnightblue" stroke="midnightblue" points="177.667,-13.4236 167.214,-15.1507 176.462,-20.3192 177.667,-13.4236"/>
</g>
<!-- Node14 -->
<g id="node14" class="node"><title>Node14</title>
<polygon fill="white" stroke="#bfbfbf" points="448,-0.5 448,-19.5 500,-19.5 500,-0.5 448,-0.5"/>
<text text-anchor="middle" x="474" y="-7.5" font-family="Helvetica,sans-Serif" font-size="10.00">stddef.h</text>
</g>
<!-- Node13&#45;&gt;Node14 -->
<g id="edge15" class="edge"><title>Node13&#45;&gt;Node14</title>
<path fill="none" stroke="midnightblue" d="M424.479,-56.324C433.201,-48.3414 446.343,-36.3128 456.898,-26.6529"/>
<polygon fill="midnightblue" stroke="midnightblue" points="459.334,-29.1674 464.348,-19.8339 454.608,-24.0036 459.334,-29.1674"/>
</g>
<!-- Node15 -->
<g id="node15" class="node"><title>Node15</title>
<polygon fill="white" stroke="#bfbfbf" points="370.5,-0.5 370.5,-19.5 429.5,-19.5 429.5,-0.5 370.5,-0.5"/>
<text text-anchor="middle" x="400" y="-7.5" font-family="Helvetica,sans-Serif" font-size="10.00">inttypes.h</text>
</g>
<!-- Node13&#45;&gt;Node15 -->
<g id="edge17" class="edge"><title>Node13&#45;&gt;Node15</title>
<path fill="none" stroke="midnightblue" d="M412.523,-56.083C410.514,-48.8486 407.614,-38.4087 405.11,-29.3968"/>
<polygon fill="midnightblue" stroke="midnightblue" points="408.48,-28.4495 402.431,-19.7511 401.735,-30.323 408.48,-28.4495"/>
</g>
<!-- Node17&#45;&gt;Node5 -->
<g id="edge21" class="edge"><title>Node17&#45;&gt;Node5</title>
<path fill="none" stroke="midnightblue" d="M214.199,-168.324C205.182,-160.341 191.594,-148.313 180.682,-138.653"/>
<polygon fill="midnightblue" stroke="midnightblue" points="182.787,-135.842 172.979,-131.834 178.147,-141.083 182.787,-135.842"/>
</g>
<!-- Node17&#45;&gt;Node11 -->
<g id="edge20" class="edge"><title>Node17&#45;&gt;Node11</title>
<path fill="none" stroke="midnightblue" d="M253.314,-168.444C284.842,-159.241 335.131,-144.562 369.986,-134.388"/>
<polygon fill="midnightblue" stroke="midnightblue" points="371.205,-137.678 379.823,-131.516 369.243,-130.959 371.205,-137.678"/>
</g>
<!-- Node18&#45;&gt;Node10 -->
<g id="edge23" class="edge"><title>Node18&#45;&gt;Node10</title>
<path fill="none" stroke="midnightblue" d="M338.349,-280.083C337.024,-272.927 335.118,-262.635 333.461,-253.691"/>
<polygon fill="midnightblue" stroke="midnightblue" points="336.883,-252.947 331.621,-243.751 330,-254.221 336.883,-252.947"/>
</g>
<!-- Node19&#45;&gt;Node6 -->
<g id="edge26" class="edge"><title>Node19&#45;&gt;Node6</title>
<path fill="none" stroke="midnightblue" d="M507.712,-280.417C516.456,-272.062 528.851,-258.531 535,-244 557.856,-189.991 557.824,-118.869 556.272,-85.6267"/>
<polygon fill="midnightblue" stroke="midnightblue" points="559.761,-85.3218 555.695,-75.5381 552.772,-85.7218 559.761,-85.3218"/>
</g>
<!-- Node20 -->
<g id="node20" class="node"><title>Node20</title>
<polygon fill="white" stroke="#bfbfbf" points="469.5,-224.5 469.5,-243.5 526.5,-243.5 526.5,-224.5 469.5,-224.5"/>
<text text-anchor="middle" x="498" y="-231.5" font-family="Helvetica,sans-Serif" font-size="10.00">pthread.h</text>
</g>
<!-- Node19&#45;&gt;Node20 -->
<g id="edge27" class="edge"><title>Node19&#45;&gt;Node20</title>
<path fill="none" stroke="midnightblue" d="M498,-280.083C498,-273.006 498,-262.861 498,-253.986"/>
<polygon fill="midnightblue" stroke="midnightblue" points="501.5,-253.751 498,-243.751 494.5,-253.751 501.5,-253.751"/>
</g>
<!-- Node21&#45;&gt;Node12 -->
<g id="edge30" class="edge"><title>Node21&#45;&gt;Node12</title>
<path fill="none" stroke="midnightblue" d="M631,-336.442C631,-317.936 631,-272.812 631,-235 631,-235 631,-235 631,-177 631,-144.816 626.702,-107.552 623.741,-85.7018"/>
<polygon fill="midnightblue" stroke="midnightblue" points="627.169,-84.947 622.307,-75.5338 620.238,-85.9245 627.169,-84.947"/>
</g>
<!-- Node22&#45;&gt;Node2 -->
<g id="edge32" class="edge"><title>Node22&#45;&gt;Node2</title>
<path fill="none" stroke="midnightblue" d="M221.163,-392.916C242.004,-384.123 275.592,-369.953 299.948,-359.678"/>
<polygon fill="midnightblue" stroke="midnightblue" points="301.579,-362.789 309.432,-355.677 298.858,-356.339 301.579,-362.789"/>
</g>
<!-- Node23 -->
<g id="node23" class="node"><title>Node23</title>
<polygon fill="white" stroke="#bfbfbf" points="176,-336.5 176,-355.5 228,-355.5 228,-336.5 176,-336.5"/>
<text text-anchor="middle" x="202" y="-343.5" font-family="Helvetica,sans-Serif" font-size="10.00">stdarg.h</text>
</g>
<!-- Node22&#45;&gt;Node23 -->
<g id="edge33" class="edge"><title>Node22&#45;&gt;Node23</title>
<path fill="none" stroke="midnightblue" d="M202,-392.083C202,-385.006 202,-374.861 202,-365.986"/>
<polygon fill="midnightblue" stroke="midnightblue" points="205.5,-365.751 202,-355.751 198.5,-365.751 205.5,-365.751"/>
</g>
<!-- Node24&#45;&gt;Node2 -->
<g id="edge36" class="edge"><title>Node24&#45;&gt;Node2</title>
<path fill="none" stroke="midnightblue" d="M401.917,-448.344C399.945,-435.226 394.824,-409.943 383,-392 375.113,-380.031 363.138,-369.484 352.566,-361.614"/>
<polygon fill="midnightblue" stroke="midnightblue" points="354.323,-358.57 344.136,-355.661 350.285,-364.288 354.323,-358.57"/>
</g>
<!-- Node24&#45;&gt;Node17 -->
<g id="edge35" class="edge"><title>Node24&#45;&gt;Node17</title>
<path fill="none" stroke="midnightblue" d="M375.39,-448.462C354.739,-441.119 326.626,-429.006 306,-412 258.602,-372.92 244.161,-358.367 225,-300 213.63,-265.366 217.214,-222.092 220.704,-197.802"/>
<polygon fill="midnightblue" stroke="midnightblue" points="224.18,-198.226 222.295,-187.8 217.267,-197.126 224.18,-198.226"/>
</g>
<!-- Node24&#45;&gt;Node22 -->
<g id="edge37" class="edge"><title>Node24&#45;&gt;Node22</title>
<path fill="none" stroke="midnightblue" d="M372.908,-448.916C334.568,-438.615 268.754,-420.934 230.963,-410.781"/>
<polygon fill="midnightblue" stroke="midnightblue" points="231.659,-407.344 221.093,-408.129 229.842,-414.104 231.659,-407.344"/>
</g>
<!-- Node25 -->
<g id="node25" class="node"><title>Node25</title>
<g id="a_node25"><a xlink:href="label_8h.html" target="_top" xlink:title="Label tables map human readable text strings to parts of semantic trees. ">
<polygon fill="white" stroke="black" points="431.5,-168.5 431.5,-187.5 476.5,-187.5 476.5,-168.5 431.5,-168.5"/>
<text text-anchor="middle" x="454" y="-175.5" font-family="Helvetica,sans-Serif" font-size="10.00">label.h</text>
</a>
</g>
</g>
<!-- Node24&#45;&gt;Node25 -->
<g id="edge38" class="edge"><title>Node24&#45;&gt;Node25</title>
<path fill="none" stroke="midnightblue" d="M408.284,-448.231C418.725,-430.043 441,-386.601 441,-347 441,-347 441,-347 441,-289 441,-256.576 446.639,-219.146 450.49,-197.369"/>
<polygon fill="midnightblue" stroke="midnightblue" points="453.935,-197.985 452.3,-187.517 447.05,-196.72 453.935,-197.985"/>
</g>
<!-- Node26 -->
<g id="node26" class="node"><title>Node26</title>
<g id="a_node26"><a xlink:href="process_8h.html" target="_top" xlink:title="processing header files ">
<polygon fill="white" stroke="black" points="315.5,-392.5 315.5,-411.5 374.5,-411.5 374.5,-392.5 315.5,-392.5"/>
<text text-anchor="middle" x="345" y="-399.5" font-family="Helvetica,sans-Serif" font-size="10.00">process.h</text>
</a>
</g>
</g>
<!-- Node24&#45;&gt;Node26 -->
<g id="edge40" class="edge"><title>Node24&#45;&gt;Node26</title>
<path fill="none" stroke="midnightblue" d="M393.681,-448.324C385.107,-440.341 372.188,-428.313 361.812,-418.653"/>
<polygon fill="midnightblue" stroke="midnightblue" points="364.192,-416.086 354.488,-411.834 359.422,-421.21 364.192,-416.086"/>
</g>
<!-- Node24&#45;&gt;Node27 -->
<g id="edge42" class="edge"><title>Node24&#45;&gt;Node27</title>
<path fill="none" stroke="midnightblue" d="M417.781,-448.324C432.267,-439.822 454.573,-426.729 471.493,-416.797"/>
<polygon fill="midnightblue" stroke="midnightblue" points="473.403,-419.735 480.255,-411.655 469.859,-413.698 473.403,-419.735"/>
</g>
<!-- Node25&#45;&gt;Node11 -->
<g id="edge39" class="edge"><title>Node25&#45;&gt;Node11</title>
<path fill="none" stroke="midnightblue" d="M446.569,-168.083C440.147,-160.377 430.694,-149.033 422.878,-139.653"/>
<polygon fill="midnightblue" stroke="midnightblue" points="425.383,-137.193 416.293,-131.751 420.006,-141.674 425.383,-137.193"/>
</g>
<!-- Node26&#45;&gt;Node2 -->
<g id="edge41" class="edge"><title>Node26&#45;&gt;Node2</title>
<path fill="none" stroke="midnightblue" d="M342.523,-392.083C340.514,-384.849 337.614,-374.409 335.11,-365.397"/>
<polygon fill="midnightblue" stroke="midnightblue" points="338.48,-364.449 332.431,-355.751 331.735,-366.323 338.48,-364.449"/>
</g>
<!-- Node27&#45;&gt;Node2 -->
<g id="edge43" class="edge"><title>Node27&#45;&gt;Node2</title>
<path fill="none" stroke="midnightblue" d="M469.219,-392.562C439.776,-382.927 391.653,-367.177 360.405,-356.951"/>
<polygon fill="midnightblue" stroke="midnightblue" points="361.49,-353.623 350.897,-353.839 359.313,-360.276 361.49,-353.623"/>
</g>
<!-- Node28&#45;&gt;Node6 -->
<g id="edge47" class="edge"><title>Node28&#45;&gt;Node6</title>
<path fill="none" stroke="midnightblue" d="M666.951,-113.148C645.526,-104.316 610.44,-89.8532 585.255,-79.4714"/>
<polygon fill="midnightblue" stroke="midnightblue" points="586.383,-76.1508 575.804,-75.5756 583.715,-82.6225 586.383,-76.1508"/>
</g>
<!-- Node28&#45;&gt;Node12 -->
<g id="edge49" class="edge"><title>Node28&#45;&gt;Node12</title>
<path fill="none" stroke="midnightblue" d="M675.557,-112.324C665.854,-104.263 651.185,-92.0765 639.5,-82.3695"/>
<polygon fill="midnightblue" stroke="midnightblue" points="641.562,-79.532 631.633,-75.8339 637.089,-84.9163 641.562,-79.532"/>
</g>
<!-- Node29 -->
<g id="node29" class="node"><title>Node29</title>
<polygon fill="white" stroke="#bfbfbf" points="726.5,-56.5 726.5,-75.5 775.5,-75.5 775.5,-56.5 726.5,-56.5"/>
<text text-anchor="middle" x="751" y="-63.5" font-family="Helvetica,sans-Serif" font-size="10.00">ctype.h</text>
</g>
<!-- Node28&#45;&gt;Node29 -->
<g id="edge46" class="edge"><title>Node28&#45;&gt;Node29</title>
<path fill="none" stroke="midnightblue" d="M696.443,-112.324C706.146,-104.263 720.815,-92.0765 732.5,-82.3695"/>
<polygon fill="midnightblue" stroke="midnightblue" points="734.911,-84.9163 740.367,-75.8339 730.438,-79.532 734.911,-84.9163"/>
</g>
<!-- Node30 -->
<g id="node30" class="node"><title>Node30</title>
<polygon fill="white" stroke="#bfbfbf" points="664,-56.5 664,-75.5 708,-75.5 708,-56.5 664,-56.5"/>
<text text-anchor="middle" x="686" y="-63.5" font-family="Helvetica,sans-Serif" font-size="10.00">time.h</text>
</g>
<!-- Node28&#45;&gt;Node30 -->
<g id="edge48" class="edge"><title>Node28&#45;&gt;Node30</title>
<path fill="none" stroke="midnightblue" d="M686,-112.083C686,-105.006 686,-94.8611 686,-85.9865"/>
<polygon fill="midnightblue" stroke="midnightblue" points="689.5,-85.751 686,-75.7511 682.5,-85.7511 689.5,-85.751"/>
</g>
<!-- Node31&#45;&gt;Node6 -->
<g id="edge51" class="edge"><title>Node31&#45;&gt;Node6</title>
<path fill="none" stroke="midnightblue" d="M550.754,-448.473C554.017,-411.101 566.933,-258.021 571,-132 571.287,-123.116 572.511,-120.76 571,-112 569.432,-102.91 566.205,-93.2219 563.057,-85.1726"/>
<polygon fill="midnightblue" stroke="midnightblue" points="566.194,-83.6018 559.111,-75.7229 559.735,-86.2993 566.194,-83.6018"/>
</g>
</g>
</svg>
        <g id="navigator" transform="translate(0 0)" fill="#404254">
                <rect fill="#f2f5e9" fill-opacity="0.5" stroke="#606060" stroke-width=".5" x="0" y="0" width="60" height="60"/>
                <use id="zoomplus" xlink:href="#zoomPlus" x="17" y="9" onmousedown="handleZoom(evt,'in')"/>
                <use id="zoomminus" xlink:href="#zoomMin" x="42" y="9" onmousedown="handleZoom(evt,'out')"/>
                <use id="reset" xlink:href="#resetDef" x="30" y="36" onmousedown="handleReset()"/>
                <g id="arrowUp" xlink:href="#dirArrow" transform="translate(30 24)" onmousedown="handlePan(0,-1)">
                  <use xlink:href="#rim" fill="#404040">
                        <set attributeName="fill" to="#808080" begin="arrowUp.mouseover" end="arrowUp.mouseout"/>
                  </use>
                  <path fill="none" stroke="white" stroke-width="1.5" d="M0,-3.0v7 M-2.5,-0.5L0,-3.0L2.5,-0.5"/>
                </g>
                <g id="arrowRight" xlink:href="#dirArrow" transform="rotate(90) translate(36 -43)" onmousedown="handlePan(1,0)">
                  <use xlink:href="#rim" fill="#404040">
                        <set attributeName="fill" to="#808080" begin="arrowRight.mouseover" end="arrowRight.mouseout"/>
                  </use>
                  <path fill="none" stroke="white" stroke-width="1.5" d="M0,-3.0v7 M-2.5,-0.5L0,-3.0L2.5,-0.5"/>
                </g>
                <g id="arrowDown" xlink:href="#dirArrow" transform="rotate(180) translate(-30 -48)" onmousedown="handlePan(0,1)">
                  <use xlink:href="#rim" fill="#404040">
                        <set attributeName="fill" to="#808080" begin="arrowDown.mouseover" end="arrowDown.mouseout"/>
                  </use>
                  <path fill="none" stroke="white" stroke-width="1.5" d="M0,-3.0v7 M-2.5,-0.5L0,-3.0L2.5,-0.5"/>
                </g>
                <g id="arrowLeft" xlink:href="#dirArrow" transform="rotate(270) translate(-36 17)" onmousedown="handlePan(-1,0)">
                  <use xlink:href="#rim" fill="#404040">
                        <set attributeName="fill" to="#808080" begin="arrowLeft.mouseover" end="arrowLeft.mouseout"/>
                  </use>
                  <path fill="none" stroke="white" stroke-width="1.5" d="M0,-3.0v7 M-2.5,-0.5L0,-3.0L2.5,-0.5"/>
                </g>
        </g>
        <svg viewBox="0 0 15 15" width="100%" height="30px" preserveAspectRatio="xMaxYMin meet">
         <g id="arrow_out" transform="scale(0.3 0.3)">
          <a xlink:href="tree_8c__incl_org.svg" target="_base">
           <rect id="button" ry="5" rx="5" y="6" x="6" height="38" width="38"
                fill="#f2f5e9" fill-opacity="0.5" stroke="#606060" stroke-width="1.0"/>
           <path id="arrow"
             d="M 11.500037,31.436501 C 11.940474,20.09759 22.043105,11.32322 32.158766,21.979434 L 37.068811,17.246167 C 37.068811,17.246167 37.088388,32 37.088388,32 L 22.160133,31.978069 C 22.160133,31.978069 26.997745,27.140456 26.997745,27.140456 C 18.528582,18.264221 13.291696,25.230495 11.500037,31.436501 z"
             style="fill:#404040;"/>
          </a>
         </g>
        </svg>
</svg>
