<?xml version="1.0" encoding="UTF-8" standalone="no"?>
<!DOCTYPE svg PUBLIC "-//W3C//DTD SVG 1.1//EN"
 "http://www.w3.org/Graphics/SVG/1.1/DTD/svg11.dtd">
<!-- Generated by graphviz version 2.38.0 (20140413.2041)
 -->
<!-- Title: src/tree.c Pages: 1 -->
<!--zoomable 476 -->
<svg id="main" version="1.1" xmlns="http://www.w3.org/2000/svg" xmlns:xlink="http://www.w3.org/1999/xlink" xml:space="preserve" onload="init(evt)">
<style type="text/css"><![CDATA[
.edge:hover path { stroke: red; }
.edge:hover polygon { stroke: red; fill: red; }
]]></style>
<script type="text/javascript"><![CDATA[
var edges = document.getElementsByTagName('g');
if (edges && edges.length) {
  for (var i=0;i<edges.length;i++) {
    if (edges[i].id.substr(0,4)=='edge') {
      edges[i].setAttribute('class','edge');
    }
  }
}
]]></script>
        <defs>
                <circle id="rim" cx="0" cy="0" r="7"/>
                <circle id="rim2" cx="0" cy="0" r="3.5"/>
                <g id="zoomPlus">
                        <use xlink:href="#rim" fill="#404040">
                                <set attributeName="fill" to="#808080" begin="zoomplus.mouseover" end="zoomplus.mouseout"/>
                        </use>
                        <path d="M-4,0h8M0,-4v8" fill="none" stroke="white" stroke-width="1.5" pointer-events="none"/>
                </g>
                <g id="zoomMin">
                        <use xlink:href="#rim" fill="#404040">
                                <set attributeName="fill" to="#808080" begin="zoomminus.mouseover" end="zoomminus.mouseout"/>
                        </use>
                        <path d="M-4,0h8" fill="none" stroke="white" stroke-width="1.5" pointer-events="none"/>
                </g>
                <g id="dirArrow">
                        <path fill="none" stroke="white" stroke-width="1.5" d="M0,-3.0v7 M-2.5,-0.5L0,-3.0L2.5,-0.5"/>
                </g>
               <g id="resetDef">
                       <use xlink:href="#rim2" fill="#404040">
                               <set attributeName="fill" to="#808080" begin="reset.mouseover" end="reset.mouseout"/>
                       </use>
               </g>
        </defs>

<script type="text/javascript">
var viewWidth = 755;
var viewHeight = 476;
var sectionId = 'dynsection-0';
</script>
<script xlink:href="svgpan.js"/>
<svg id="graph" class="graph">
<g id="viewport">
<title>src/tree.c</title>
<polygon fill="white" stroke="none" points="-4,4 -4,-472 750.5,-472 750.5,4 -4,4"/>
<!-- Node1 -->
<g id="node1" class="node"><title>Node1</title>
<polygon fill="#bfbfbf" stroke="black" points="432,-448.5 432,-467.5 490,-467.5 490,-448.5 432,-448.5"/>
<text text-anchor="middle" x="461" y="-455.5" font-family="Helvetica,sans-Serif" font-size="10.00">src/tree.c</text>
</g>
<!-- Node2 -->
<g id="node2" class="node"><title>Node2</title>
<g id="a_node2"><a xlink:href="tree_8h.html" target="_top" xlink:title="semantic trees header file ">
<polygon fill="white" stroke="black" points="356.5,-280.5 356.5,-299.5 397.5,-299.5 397.5,-280.5 356.5,-280.5"/>
<text text-anchor="middle" x="377" y="-287.5" font-family="Helvetica,sans-Serif" font-size="10.00">tree.h</text>
</a>
</g>
</g>
<!-- Node1&#45;&gt;Node2 -->
<g id="edge1" class="edge"><title>Node1&#45;&gt;Node2</title>
<path fill="none" stroke="midnightblue" d="M431.757,-449.204C392.22,-436.886 323.398,-408.717 295,-356 280.974,-329.962 317.952,-310.754 346.734,-300.219"/>
<polygon fill="midnightblue" stroke="midnightblue" points="348.164,-303.428 356.476,-296.857 345.881,-296.811 348.164,-303.428"/>
</g>
<!-- Node5 -->
<g id="node5" class="node"><title>Node5</title>
<g id="a_node5"><a xlink:href="ceptr__error_8h_source.html" target="_top" xlink:title="ceptr_error.h">
<polygon fill="white" stroke="black" points="120.5,-224.5 120.5,-243.5 191.5,-243.5 191.5,-224.5 120.5,-224.5"/>
<text text-anchor="middle" x="156" y="-231.5" font-family="Helvetica,sans-Serif" font-size="10.00">ceptr_error.h</text>
</a>
</g>
</g>
<!-- Node1&#45;&gt;Node5 -->
<g id="edge24" class="edge"><title>Node1&#45;&gt;Node5</title>
<path fill="none" stroke="midnightblue" d="M431.753,-451.989C402.286,-445.958 356.378,-433.807 322,-412 252.411,-367.858 192.249,-287.833 167.737,-252.533"/>
<polygon fill="midnightblue" stroke="midnightblue" points="170.322,-250.112 161.791,-243.83 164.542,-254.061 170.322,-250.112"/>
</g>
<!-- Node19 -->
<g id="node19" class="node"><title>Node19</title>
<g id="a_node19"><a xlink:href="hashfn_8h_source.html" target="_top" xlink:title="hashfn.h">
<polygon fill="white" stroke="black" points="567,-392.5 567,-411.5 621,-411.5 621,-392.5 567,-392.5"/>
<text text-anchor="middle" x="594" y="-399.5" font-family="Helvetica,sans-Serif" font-size="10.00">hashfn.h</text>
</a>
</g>
</g>
<!-- Node1&#45;&gt;Node19 -->
<g id="edge25" class="edge"><title>Node1&#45;&gt;Node19</title>
<path fill="none" stroke="midnightblue" d="M482.074,-448.444C504.06,-439.517 538.734,-425.439 563.664,-415.317"/>
<polygon fill="midnightblue" stroke="midnightblue" points="565.076,-418.521 573.024,-411.516 562.442,-412.035 565.076,-418.521"/>
</g>
<!-- Node20 -->
<g id="node20" class="node"><title>Node20</title>
<g id="a_node20"><a xlink:href="def_8h.html" target="_top" xlink:title="header file for symbol and structure definition functions ">
<polygon fill="white" stroke="black" points="527,-336.5 527,-355.5 565,-355.5 565,-336.5 527,-336.5"/>
<text text-anchor="middle" x="546" y="-343.5" font-family="Helvetica,sans-Serif" font-size="10.00">def.h</text>
</a>
</g>
</g>
<!-- Node1&#45;&gt;Node20 -->
<g id="edge27" class="edge"><title>Node1&#45;&gt;Node20</title>
<path fill="none" stroke="midnightblue" d="M469.034,-448.253C477.111,-439.341 489.793,-425.017 500,-412 512.356,-396.242 525.456,-377.508 534.502,-364.209"/>
<polygon fill="midnightblue" stroke="midnightblue" points="537.614,-365.855 540.304,-355.607 531.811,-361.94 537.614,-365.855"/>
</g>
<!-- Node22 -->
<g id="node22" class="node"><title>Node22</title>
<g id="a_node22"><a xlink:href="receptor_8h.html" target="_top" xlink:title="receptor implementation header file ">
<polygon fill="white" stroke="black" points="431,-392.5 431,-411.5 491,-411.5 491,-392.5 431,-392.5"/>
<text text-anchor="middle" x="461" y="-399.5" font-family="Helvetica,sans-Serif" font-size="10.00">receptor.h</text>
</a>
</g>
</g>
<!-- Node1&#45;&gt;Node22 -->
<g id="edge30" class="edge"><title>Node1&#45;&gt;Node22</title>
<path fill="none" stroke="midnightblue" d="M461,-448.083C461,-441.006 461,-430.861 461,-421.986"/>
<polygon fill="midnightblue" stroke="midnightblue" points="464.5,-421.751 461,-411.751 457.5,-421.751 464.5,-421.751"/>
</g>
<!-- Node25 -->
<g id="node25" class="node"><title>Node25</title>
<g id="a_node25"><a xlink:href="scape_8h.html" target="_top" xlink:title="scape header files ">
<polygon fill="white" stroke="black" points="304.5,-336.5 304.5,-355.5 355.5,-355.5 355.5,-336.5 304.5,-336.5"/>
<text text-anchor="middle" x="330" y="-343.5" font-family="Helvetica,sans-Serif" font-size="10.00">scape.h</text>
</a>
</g>
</g>
<!-- Node1&#45;&gt;Node25 -->
<g id="edge39" class="edge"><title>Node1&#45;&gt;Node25</title>
<path fill="none" stroke="midnightblue" d="M450.721,-448.368C428.528,-429.733 375.889,-385.532 348.023,-362.134"/>
<polygon fill="midnightblue" stroke="midnightblue" points="350.141,-359.342 340.232,-355.591 345.639,-364.702 350.141,-359.342"/>
</g>
<!-- Node26 -->
<g id="node26" class="node"><title>Node26</title>
<g id="a_node26"><a xlink:href="util_8h.html" target="_top" xlink:title="util.h">
<polygon fill="white" stroke="black" points="638,-112.5 638,-131.5 676,-131.5 676,-112.5 638,-112.5"/>
<text text-anchor="middle" x="657" y="-119.5" font-family="Helvetica,sans-Serif" font-size="10.00">util.h</text>
</a>
</g>
</g>
<!-- Node1&#45;&gt;Node26 -->
<g id="edge40" class="edge"><title>Node1&#45;&gt;Node26</title>
<path fill="none" stroke="midnightblue" d="M490.282,-457.125C527.426,-455.701 591.293,-447.733 630,-412 652.516,-391.214 653,-377.644 653,-347 653,-347 653,-347 653,-233 653,-200.927 654.719,-163.628 655.904,-141.741"/>
<polygon fill="midnightblue" stroke="midnightblue" points="659.409,-141.735 656.477,-131.554 652.42,-141.341 659.409,-141.735"/>
</g>
<!-- Node3 -->
<g id="node3" class="node"><title>Node3</title>
<polygon fill="white" stroke="#bfbfbf" points="212.5,-0.5 212.5,-19.5 261.5,-19.5 261.5,-0.5 212.5,-0.5"/>
<text text-anchor="middle" x="237" y="-7.5" font-family="Helvetica,sans-Serif" font-size="10.00">string.h</text>
</g>
<!-- Node2&#45;&gt;Node3 -->
<g id="edge2" class="edge"><title>Node2&#45;&gt;Node3</title>
<path fill="none" stroke="midnightblue" d="M356.475,-284.767C313.918,-274.662 220,-244.897 220,-179 220,-179 220,-179 220,-121 220,-88.5826 227.3,-51.4151 232.333,-29.6439"/>
<polygon fill="midnightblue" stroke="midnightblue" points="235.772,-30.3102 234.707,-19.769 228.966,-28.6736 235.772,-30.3102"/>
</g>
<!-- Node4 -->
<g id="node4" class="node"><title>Node4</title>
<polygon fill="white" stroke="#bfbfbf" points="297,-0.5 297,-19.5 345,-19.5 345,-0.5 297,-0.5"/>
<text text-anchor="middle" x="321" y="-7.5" font-family="Helvetica,sans-Serif" font-size="10.00">stdlib.h</text>
</g>
<!-- Node2&#45;&gt;Node4 -->
<g id="edge3" class="edge"><title>Node2&#45;&gt;Node4</title>
<path fill="none" stroke="midnightblue" d="M359.542,-280.479C345.543,-272.788 326.412,-260.201 315,-244 297.667,-219.394 296,-209.098 296,-179 296,-179 296,-179 296,-121 296,-87.9952 306.834,-50.7743 314.238,-29.1916"/>
<polygon fill="midnightblue" stroke="midnightblue" points="317.565,-30.282 317.628,-19.6873 310.972,-27.9302 317.565,-30.282"/>
</g>
<!-- Node2&#45;&gt;Node5 -->
<g id="edge4" class="edge"><title>Node2&#45;&gt;Node5</title>
<path fill="none" stroke="midnightblue" d="M356.209,-283.92C320.872,-275.285 248.328,-257.56 200.955,-245.984"/>
<polygon fill="midnightblue" stroke="midnightblue" points="201.503,-242.515 190.958,-243.542 199.841,-249.315 201.503,-242.515"/>
</g>
<!-- Node10 -->
<g id="node10" class="node"><title>Node10</title>
<g id="a_node10"><a xlink:href="sys__defs_8h.html" target="_top" xlink:title="Defines types and vars for system defined semantics. ">
<polygon fill="white" stroke="black" points="476.5,-168.5 476.5,-187.5 541.5,-187.5 541.5,-168.5 476.5,-168.5"/>
<text text-anchor="middle" x="509" y="-175.5" font-family="Helvetica,sans-Serif" font-size="10.00">sys_defs.h</text>
</a>
</g>
</g>
<!-- Node2&#45;&gt;Node10 -->
<g id="edge9" class="edge"><title>Node2&#45;&gt;Node10</title>
<path fill="none" stroke="midnightblue" d="M397.536,-285.327C432.46,-278.616 501.013,-263.273 515,-244 524.76,-230.552 521.371,-211.186 516.695,-197.092"/>
<polygon fill="midnightblue" stroke="midnightblue" points="519.885,-195.634 513.063,-187.528 513.341,-198.119 519.885,-195.634"/>
</g>
<!-- Node11 -->
<g id="node11" class="node"><title>Node11</title>
<g id="a_node11"><a xlink:href="ceptr__types_8h_source.html" target="_top" xlink:title="ceptr_types.h">
<polygon fill="white" stroke="black" points="440,-112.5 440,-131.5 516,-131.5 516,-112.5 440,-112.5"/>
<text text-anchor="middle" x="478" y="-119.5" font-family="Helvetica,sans-Serif" font-size="10.00">ceptr_types.h</text>
</a>
</g>
</g>
<!-- Node2&#45;&gt;Node11 -->
<g id="edge20" class="edge"><title>Node2&#45;&gt;Node11</title>
<path fill="none" stroke="midnightblue" d="M382.43,-280.075C398.535,-253.606 446.234,-175.209 467.529,-140.21"/>
<polygon fill="midnightblue" stroke="midnightblue" points="470.579,-141.93 472.787,-131.568 464.599,-138.292 470.579,-141.93"/>
</g>
<!-- Node16 -->
<g id="node16" class="node"><title>Node16</title>
<g id="a_node16"><a xlink:href="base__defs_8h.html" target="_top" xlink:title="auto&#45;generated system definitions ">
<polygon fill="white" stroke="black" points="436,-224.5 436,-243.5 506,-243.5 506,-224.5 436,-224.5"/>
<text text-anchor="middle" x="471" y="-231.5" font-family="Helvetica,sans-Serif" font-size="10.00">base_defs.h</text>
</a>
</g>
</g>
<!-- Node2&#45;&gt;Node16 -->
<g id="edge18" class="edge"><title>Node2&#45;&gt;Node16</title>
<path fill="none" stroke="midnightblue" d="M392.103,-280.324C406.903,-271.822 429.694,-258.729 446.982,-248.797"/>
<polygon fill="midnightblue" stroke="midnightblue" points="449.007,-251.671 455.935,-243.655 445.52,-245.601 449.007,-251.671"/>
</g>
<!-- Node17 -->
<g id="node17" class="node"><title>Node17</title>
<g id="a_node17"><a xlink:href="stream_8h.html" target="_top" xlink:title="streams abstraction header file ">
<polygon fill="white" stroke="black" points="324.5,-224.5 324.5,-243.5 379.5,-243.5 379.5,-224.5 324.5,-224.5"/>
<text text-anchor="middle" x="352" y="-231.5" font-family="Helvetica,sans-Serif" font-size="10.00">stream.h</text>
</a>
</g>
</g>
<!-- Node2&#45;&gt;Node17 -->
<g id="edge21" class="edge"><title>Node2&#45;&gt;Node17</title>
<path fill="none" stroke="midnightblue" d="M372.872,-280.083C369.486,-272.77 364.584,-262.181 360.381,-253.103"/>
<polygon fill="midnightblue" stroke="midnightblue" points="363.429,-251.355 356.051,-243.751 357.077,-254.296 363.429,-251.355"/>
</g>
<!-- Node6 -->
<g id="node6" class="node"><title>Node6</title>
<polygon fill="white" stroke="#bfbfbf" points="324,-56.5 324,-75.5 370,-75.5 370,-56.5 324,-56.5"/>
<text text-anchor="middle" x="347" y="-63.5" font-family="Helvetica,sans-Serif" font-size="10.00">stdio.h</text>
</g>
<!-- Node5&#45;&gt;Node6 -->
<g id="edge5" class="edge"><title>Node5&#45;&gt;Node6</title>
<path fill="none" stroke="midnightblue" d="M166,-224.309C196.685,-197.64 289.797,-116.716 329.144,-82.5186"/>
<polygon fill="midnightblue" stroke="midnightblue" points="331.847,-84.8067 337.099,-75.6051 327.255,-79.5233 331.847,-84.8067"/>
</g>
<!-- Node7 -->
<g id="node7" class="node"><title>Node7</title>
<polygon fill="white" stroke="#bfbfbf" points="0,-168.5 0,-187.5 50,-187.5 50,-168.5 0,-168.5"/>
<text text-anchor="middle" x="25" y="-175.5" font-family="Helvetica,sans-Serif" font-size="10.00">signal.h</text>
</g>
<!-- Node5&#45;&gt;Node7 -->
<g id="edge6" class="edge"><title>Node5&#45;&gt;Node7</title>
<path fill="none" stroke="midnightblue" d="M135.243,-224.444C113.684,-215.557 79.7367,-201.563 55.2062,-191.451"/>
<polygon fill="midnightblue" stroke="midnightblue" points="56.2394,-188.092 45.6602,-187.516 53.5717,-194.563 56.2394,-188.092"/>
</g>
<!-- Node8 -->
<g id="node8" class="node"><title>Node8</title>
<polygon fill="white" stroke="#bfbfbf" points="68,-168.5 68,-187.5 120,-187.5 120,-168.5 68,-168.5"/>
<text text-anchor="middle" x="94" y="-175.5" font-family="Helvetica,sans-Serif" font-size="10.00">assert.h</text>
</g>
<!-- Node5&#45;&gt;Node8 -->
<g id="edge7" class="edge"><title>Node5&#45;&gt;Node8</title>
<path fill="none" stroke="midnightblue" d="M146.039,-224.324C136.873,-216.341 123.063,-204.313 111.972,-194.653"/>
<polygon fill="midnightblue" stroke="midnightblue" points="113.982,-191.762 104.143,-187.834 109.385,-197.041 113.982,-191.762"/>
</g>
<!-- Node9 -->
<g id="node9" class="node"><title>Node9</title>
<polygon fill="white" stroke="#bfbfbf" points="138,-168.5 138,-187.5 192,-187.5 192,-168.5 138,-168.5"/>
<text text-anchor="middle" x="165" y="-175.5" font-family="Helvetica,sans-Serif" font-size="10.00">setjmp.h</text>
</g>
<!-- Node5&#45;&gt;Node9 -->
<g id="edge8" class="edge"><title>Node5&#45;&gt;Node9</title>
<path fill="none" stroke="midnightblue" d="M157.486,-224.083C158.679,-216.927 160.394,-206.635 161.885,-197.691"/>
<polygon fill="midnightblue" stroke="midnightblue" points="165.35,-198.19 163.541,-187.751 158.445,-197.04 165.35,-198.19"/>
</g>
<!-- Node10&#45;&gt;Node11 -->
<g id="edge10" class="edge"><title>Node10&#45;&gt;Node11</title>
<path fill="none" stroke="midnightblue" d="M503.881,-168.083C499.592,-160.613 493.342,-149.724 488.058,-140.52"/>
<polygon fill="midnightblue" stroke="midnightblue" points="491.038,-138.681 483.024,-131.751 484.967,-142.166 491.038,-138.681"/>
</g>
<!-- Node11&#45;&gt;Node6 -->
<g id="edge12" class="edge"><title>Node11&#45;&gt;Node6</title>
<path fill="none" stroke="midnightblue" d="M457.243,-112.444C435.684,-103.557 401.737,-89.5632 377.206,-79.4514"/>
<polygon fill="midnightblue" stroke="midnightblue" points="378.239,-76.0917 367.66,-75.5164 375.572,-82.5634 378.239,-76.0917"/>
</g>
<!-- Node12 -->
<g id="node12" class="node"><title>Node12</title>
<polygon fill="white" stroke="#bfbfbf" points="567.5,-56.5 567.5,-75.5 616.5,-75.5 616.5,-56.5 567.5,-56.5"/>
<text text-anchor="middle" x="592" y="-63.5" font-family="Helvetica,sans-Serif" font-size="10.00">stdint.h</text>
</g>
<!-- Node11&#45;&gt;Node12 -->
<g id="edge11" class="edge"><title>Node11&#45;&gt;Node12</title>
<path fill="none" stroke="midnightblue" d="M496.064,-112.444C514.575,-103.675 543.581,-89.9355 564.855,-79.8579"/>
<polygon fill="midnightblue" stroke="midnightblue" points="566.482,-82.9604 574.021,-75.5164 563.485,-76.6343 566.482,-82.9604"/>
</g>
<!-- Node13 -->
<g id="node13" class="node"><title>Node13</title>
<g id="a_node13"><a xlink:href="uthash_8h_source.html" target="_top" xlink:title="uthash.h">
<polygon fill="white" stroke="black" points="388,-56.5 388,-75.5 442,-75.5 442,-56.5 388,-56.5"/>
<text text-anchor="middle" x="415" y="-63.5" font-family="Helvetica,sans-Serif" font-size="10.00">uthash.h</text>
</a>
</g>
</g>
<!-- Node11&#45;&gt;Node13 -->
<g id="edge13" class="edge"><title>Node11&#45;&gt;Node13</title>
<path fill="none" stroke="midnightblue" d="M467.878,-112.324C458.474,-104.263 444.256,-92.0765 432.931,-82.3695"/>
<polygon fill="midnightblue" stroke="midnightblue" points="435.177,-79.6844 425.306,-75.8339 430.621,-84.9993 435.177,-79.6844"/>
</g>
<!-- Node13&#45;&gt;Node3 -->
<g id="edge14" class="edge"><title>Node13&#45;&gt;Node3</title>
<path fill="none" stroke="midnightblue" d="M387.966,-56.7986C356.853,-47.3599 305.683,-31.8365 271.667,-21.5169"/>
<polygon fill="midnightblue" stroke="midnightblue" points="272.287,-18.0477 261.702,-18.4938 270.255,-24.7462 272.287,-18.0477"/>
</g>
<!-- Node13&#45;&gt;Node4 -->
<g id="edge16" class="edge"><title>Node13&#45;&gt;Node4</title>
<path fill="none" stroke="midnightblue" d="M399.897,-56.324C385.097,-47.8215 362.306,-34.7288 345.018,-24.7975"/>
<polygon fill="midnightblue" stroke="midnightblue" points="346.48,-21.6009 336.065,-19.6545 342.993,-27.6707 346.48,-21.6009"/>
</g>
<!-- Node14 -->
<g id="node14" class="node"><title>Node14</title>
<polygon fill="white" stroke="#bfbfbf" points="376,-0.5 376,-19.5 428,-19.5 428,-0.5 376,-0.5"/>
<text text-anchor="middle" x="402" y="-7.5" font-family="Helvetica,sans-Serif" font-size="10.00">stddef.h</text>
</g>
<!-- Node13&#45;&gt;Node14 -->
<g id="edge15" class="edge"><title>Node13&#45;&gt;Node14</title>
<path fill="none" stroke="midnightblue" d="M412.853,-56.083C411.131,-48.9272 408.653,-38.6353 406.5,-29.6911"/>
<polygon fill="midnightblue" stroke="midnightblue" points="409.85,-28.6541 404.107,-19.7511 403.045,-30.2925 409.85,-28.6541"/>
</g>
<!-- Node15 -->
<g id="node15" class="node"><title>Node15</title>
<polygon fill="white" stroke="#bfbfbf" points="446.5,-0.5 446.5,-19.5 505.5,-19.5 505.5,-0.5 446.5,-0.5"/>
<text text-anchor="middle" x="476" y="-7.5" font-family="Helvetica,sans-Serif" font-size="10.00">inttypes.h</text>
</g>
<!-- Node13&#45;&gt;Node15 -->
<g id="edge17" class="edge"><title>Node13&#45;&gt;Node15</title>
<path fill="none" stroke="midnightblue" d="M424.801,-56.324C433.818,-48.3414 447.406,-36.3128 458.318,-26.6529"/>
<polygon fill="midnightblue" stroke="midnightblue" points="460.853,-29.083 466.021,-19.8339 456.213,-23.8416 460.853,-29.083"/>
</g>
<!-- Node16&#45;&gt;Node10 -->
<g id="edge19" class="edge"><title>Node16&#45;&gt;Node10</title>
<path fill="none" stroke="midnightblue" d="M477.275,-224.083C482.642,-216.455 490.518,-205.264 497.079,-195.941"/>
<polygon fill="midnightblue" stroke="midnightblue" points="499.949,-197.943 502.842,-187.751 494.225,-193.915 499.949,-197.943"/>
</g>
<!-- Node17&#45;&gt;Node6 -->
<g id="edge22" class="edge"><title>Node17&#45;&gt;Node6</title>
<path fill="none" stroke="midnightblue" d="M351.731,-224.075C350.944,-197.945 348.633,-121.211 347.56,-85.577"/>
<polygon fill="midnightblue" stroke="midnightblue" points="351.058,-85.4582 347.258,-75.5681 344.061,-85.669 351.058,-85.4582"/>
</g>
<!-- Node18 -->
<g id="node18" class="node"><title>Node18</title>
<polygon fill="white" stroke="#bfbfbf" points="362.5,-168.5 362.5,-187.5 419.5,-187.5 419.5,-168.5 362.5,-168.5"/>
<text text-anchor="middle" x="391" y="-175.5" font-family="Helvetica,sans-Serif" font-size="10.00">pthread.h</text>
</g>
<!-- Node17&#45;&gt;Node18 -->
<g id="edge23" class="edge"><title>Node17&#45;&gt;Node18</title>
<path fill="none" stroke="midnightblue" d="M358.44,-224.083C363.949,-216.455 372.031,-205.264 378.765,-195.941"/>
<polygon fill="midnightblue" stroke="midnightblue" points="381.662,-197.907 384.68,-187.751 375.987,-193.809 381.662,-197.907"/>
</g>
<!-- Node19&#45;&gt;Node12 -->
<g id="edge26" class="edge"><title>Node19&#45;&gt;Node12</title>
<path fill="none" stroke="midnightblue" d="M596.158,-392.223C600.525,-373.663 610,-329.017 610,-291 610,-291 610,-291 610,-177 610,-144.537 602.27,-107.384 596.942,-85.6276"/>
<polygon fill="midnightblue" stroke="midnightblue" points="600.288,-84.5867 594.428,-75.7605 593.505,-86.3151 600.288,-84.5867"/>
</g>
<!-- Node20&#45;&gt;Node2 -->
<g id="edge28" class="edge"><title>Node20&#45;&gt;Node2</title>
<path fill="none" stroke="midnightblue" d="M526.942,-338.91C497.793,-329.597 441.875,-311.729 407.175,-300.642"/>
<polygon fill="midnightblue" stroke="midnightblue" points="408.156,-297.281 397.565,-297.571 406.025,-303.949 408.156,-297.281"/>
</g>
<!-- Node21 -->
<g id="node21" class="node"><title>Node21</title>
<polygon fill="white" stroke="#bfbfbf" points="530,-280.5 530,-299.5 582,-299.5 582,-280.5 530,-280.5"/>
<text text-anchor="middle" x="556" y="-287.5" font-family="Helvetica,sans-Serif" font-size="10.00">stdarg.h</text>
</g>
<!-- Node20&#45;&gt;Node21 -->
<g id="edge29" class="edge"><title>Node20&#45;&gt;Node21</title>
<path fill="none" stroke="midnightblue" d="M547.651,-336.083C548.976,-328.927 550.882,-318.635 552.539,-309.691"/>
<polygon fill="midnightblue" stroke="midnightblue" points="556,-310.221 554.379,-299.751 549.117,-308.947 556,-310.221"/>
</g>
<!-- Node22&#45;&gt;Node2 -->
<g id="edge31" class="edge"><title>Node22&#45;&gt;Node2</title>
<path fill="none" stroke="midnightblue" d="M460.118,-392.204C458.41,-378.904 453.629,-353.386 441,-336 431.493,-322.912 416.98,-312.263 404.177,-304.615"/>
<polygon fill="midnightblue" stroke="midnightblue" points="405.683,-301.446 395.253,-299.585 402.246,-307.544 405.683,-301.446"/>
</g>
<!-- Node22&#45;&gt;Node20 -->
<g id="edge32" class="edge"><title>Node22&#45;&gt;Node20</title>
<path fill="none" stroke="midnightblue" d="M474.657,-392.324C487.916,-383.9 508.268,-370.971 523.846,-361.074"/>
<polygon fill="midnightblue" stroke="midnightblue" points="525.813,-363.971 532.377,-355.655 522.06,-358.063 525.813,-363.971"/>
</g>
<!-- Node23 -->
<g id="node23" class="node"><title>Node23</title>
<g id="a_node23"><a xlink:href="label_8h.html" target="_top" xlink:title="Label tables map human readable text strings to parts of semantic trees. ">
<polygon fill="white" stroke="black" points="466.5,-280.5 466.5,-299.5 511.5,-299.5 511.5,-280.5 466.5,-280.5"/>
<text text-anchor="middle" x="489" y="-287.5" font-family="Helvetica,sans-Serif" font-size="10.00">label.h</text>
</a>
</g>
</g>
<!-- Node22&#45;&gt;Node23 -->
<g id="edge33" class="edge"><title>Node22&#45;&gt;Node23</title>
<path fill="none" stroke="midnightblue" d="M463.914,-392.439C466.921,-383.435 471.632,-368.82 475,-356 479.038,-340.629 482.781,-322.992 485.38,-309.972"/>
<polygon fill="midnightblue" stroke="midnightblue" points="488.867,-310.376 487.347,-299.891 481.996,-309.035 488.867,-310.376"/>
</g>
<!-- Node24 -->
<g id="node24" class="node"><title>Node24</title>
<g id="a_node24"><a xlink:href="process_8h.html" target="_top" xlink:title="processing header files ">
<polygon fill="white" stroke="black" points="373.5,-336.5 373.5,-355.5 432.5,-355.5 432.5,-336.5 373.5,-336.5"/>
<text text-anchor="middle" x="403" y="-343.5" font-family="Helvetica,sans-Serif" font-size="10.00">process.h</text>
</a>
</g>
</g>
<!-- Node22&#45;&gt;Node24 -->
<g id="edge35" class="edge"><title>Node22&#45;&gt;Node24</title>
<path fill="none" stroke="midnightblue" d="M451.681,-392.324C443.107,-384.341 430.188,-372.313 419.812,-362.653"/>
<polygon fill="midnightblue" stroke="midnightblue" points="422.192,-360.086 412.488,-355.834 417.422,-365.21 422.192,-360.086"/>
</g>
<!-- Node22&#45;&gt;Node25 -->
<g id="edge37" class="edge"><title>Node22&#45;&gt;Node25</title>
<path fill="none" stroke="midnightblue" d="M440.243,-392.444C418.684,-383.557 384.737,-369.563 360.206,-359.451"/>
<polygon fill="midnightblue" stroke="midnightblue" points="361.239,-356.092 350.66,-355.516 358.572,-362.563 361.239,-356.092"/>
</g>
<!-- Node23&#45;&gt;Node11 -->
<g id="edge34" class="edge"><title>Node23&#45;&gt;Node11</title>
<path fill="none" stroke="midnightblue" d="M499.411,-280.372C522.245,-260.364 572.923,-209.358 550,-168 541.911,-153.405 526.897,-142.918 512.664,-135.761"/>
<polygon fill="midnightblue" stroke="midnightblue" points="514.05,-132.546 503.504,-131.528 511.114,-138.9 514.05,-132.546"/>
</g>
<!-- Node24&#45;&gt;Node2 -->
<g id="edge36" class="edge"><title>Node24&#45;&gt;Node2</title>
<path fill="none" stroke="midnightblue" d="M398.707,-336.083C395.148,-328.691 389.978,-317.953 385.576,-308.811"/>
<polygon fill="midnightblue" stroke="midnightblue" points="388.705,-307.243 381.213,-299.751 382.398,-310.279 388.705,-307.243"/>
</g>
<!-- Node25&#45;&gt;Node2 -->
<g id="edge38" class="edge"><title>Node25&#45;&gt;Node2</title>
<path fill="none" stroke="midnightblue" d="M337.761,-336.083C344.537,-328.298 354.543,-316.801 362.755,-307.367"/>
<polygon fill="midnightblue" stroke="midnightblue" points="365.458,-309.592 369.383,-299.751 360.178,-304.996 365.458,-309.592"/>
</g>
<!-- Node26&#45;&gt;Node6 -->
<g id="edge42" class="edge"><title>Node26&#45;&gt;Node6</title>
<path fill="none" stroke="midnightblue" d="M637.983,-118.68C594.186,-113.179 482.702,-98.2666 380.227,-76.0666"/>
<polygon fill="midnightblue" stroke="midnightblue" points="380.859,-72.622 370.341,-73.8955 379.358,-79.4591 380.859,-72.622"/>
</g>
<!-- Node26&#45;&gt;Node12 -->
<g id="edge44" class="edge"><title>Node26&#45;&gt;Node12</title>
<path fill="none" stroke="midnightblue" d="M646.557,-112.324C636.854,-104.263 622.185,-92.0765 610.5,-82.3695"/>
<polygon fill="midnightblue" stroke="midnightblue" points="612.562,-79.532 602.633,-75.8339 608.089,-84.9163 612.562,-79.532"/>
</g>
<!-- Node27 -->
<g id="node27" class="node"><title>Node27</title>
<polygon fill="white" stroke="#bfbfbf" points="697.5,-56.5 697.5,-75.5 746.5,-75.5 746.5,-56.5 697.5,-56.5"/>
<text text-anchor="middle" x="722" y="-63.5" font-family="Helvetica,sans-Serif" font-size="10.00">ctype.h</text>
</g>
<!-- Node26&#45;&gt;Node27 -->
<g id="edge41" class="edge"><title>Node26&#45;&gt;Node27</title>
<path fill="none" stroke="midnightblue" d="M667.443,-112.324C677.146,-104.263 691.815,-92.0765 703.5,-82.3695"/>
<polygon fill="midnightblue" stroke="midnightblue" points="705.911,-84.9163 711.367,-75.8339 701.438,-79.532 705.911,-84.9163"/>
</g>
<!-- Node28 -->
<g id="node28" class="node"><title>Node28</title>
<polygon fill="white" stroke="#bfbfbf" points="635,-56.5 635,-75.5 679,-75.5 679,-56.5 635,-56.5"/>
<text text-anchor="middle" x="657" y="-63.5" font-family="Helvetica,sans-Serif" font-size="10.00">time.h</text>
</g>
<!-- Node26&#45;&gt;Node28 -->
<g id="edge43" class="edge"><title>Node26&#45;&gt;Node28</title>
<path fill="none" stroke="midnightblue" d="M657,-112.083C657,-105.006 657,-94.8611 657,-85.9865"/>
<polygon fill="midnightblue" stroke="midnightblue" points="660.5,-85.751 657,-75.7511 653.5,-85.7511 660.5,-85.751"/>
</g>
</g>
</svg>
        <g id="navigator" transform="translate(0 0)" fill="#404254">
                <rect fill="#f2f5e9" fill-opacity="0.5" stroke="#606060" stroke-width=".5" x="0" y="0" width="60" height="60"/>
                <use id="zoomplus" xlink:href="#zoomPlus" x="17" y="9" onmousedown="handleZoom(evt,'in')"/>
                <use id="zoomminus" xlink:href="#zoomMin" x="42" y="9" onmousedown="handleZoom(evt,'out')"/>
                <use id="reset" xlink:href="#resetDef" x="30" y="36" onmousedown="handleReset()"/>
                <g id="arrowUp" xlink:href="#dirArrow" transform="translate(30 24)" onmousedown="handlePan(0,-1)">
                  <use xlink:href="#rim" fill="#404040">
                        <set attributeName="fill" to="#808080" begin="arrowUp.mouseover" end="arrowUp.mouseout"/>
                  </use>
                  <path fill="none" stroke="white" stroke-width="1.5" d="M0,-3.0v7 M-2.5,-0.5L0,-3.0L2.5,-0.5"/>
                </g>
                <g id="arrowRight" xlink:href="#dirArrow" transform="rotate(90) translate(36 -43)" onmousedown="handlePan(1,0)">
                  <use xlink:href="#rim" fill="#404040">
                        <set attributeName="fill" to="#808080" begin="arrowRight.mouseover" end="arrowRight.mouseout"/>
                  </use>
                  <path fill="none" stroke="white" stroke-width="1.5" d="M0,-3.0v7 M-2.5,-0.5L0,-3.0L2.5,-0.5"/>
                </g>
                <g id="arrowDown" xlink:href="#dirArrow" transform="rotate(180) translate(-30 -48)" onmousedown="handlePan(0,1)">
                  <use xlink:href="#rim" fill="#404040">
                        <set attributeName="fill" to="#808080" begin="arrowDown.mouseover" end="arrowDown.mouseout"/>
                  </use>
                  <path fill="none" stroke="white" stroke-width="1.5" d="M0,-3.0v7 M-2.5,-0.5L0,-3.0L2.5,-0.5"/>
                </g>
                <g id="arrowLeft" xlink:href="#dirArrow" transform="rotate(270) translate(-36 17)" onmousedown="handlePan(-1,0)">
                  <use xlink:href="#rim" fill="#404040">
                        <set attributeName="fill" to="#808080" begin="arrowLeft.mouseover" end="arrowLeft.mouseout"/>
                  </use>
                  <path fill="none" stroke="white" stroke-width="1.5" d="M0,-3.0v7 M-2.5,-0.5L0,-3.0L2.5,-0.5"/>
                </g>
        </g>
        <svg viewBox="0 0 15 15" width="100%" height="30px" preserveAspectRatio="xMaxYMin meet">
         <g id="arrow_out" transform="scale(0.3 0.3)">
          <a xlink:href="tree_8c__incl_org.svg" target="_base">
           <rect id="button" ry="5" rx="5" y="6" x="6" height="38" width="38"
                fill="#f2f5e9" fill-opacity="0.5" stroke="#606060" stroke-width="1.0"/>
           <path id="arrow"
             d="M 11.500037,31.436501 C 11.940474,20.09759 22.043105,11.32322 32.158766,21.979434 L 37.068811,17.246167 C 37.068811,17.246167 37.088388,32 37.088388,32 L 22.160133,31.978069 C 22.160133,31.978069 26.997745,27.140456 26.997745,27.140456 C 18.528582,18.264221 13.291696,25.230495 11.500037,31.436501 z"
             style="fill:#404040;"/>
          </a>
         </g>
        </svg>
</svg>
