<?xml version="1.0" encoding="UTF-8" standalone="no"?>
<!DOCTYPE svg PUBLIC "-//W3C//DTD SVG 1.1//EN"
 "http://www.w3.org/Graphics/SVG/1.1/DTD/svg11.dtd">
<!-- Generated by graphviz version 2.38.0 (20140413.2041)
 -->
<!-- Title: Ptrlist Pages: 1 -->
<!--zoomable 318 -->
<svg id="main" version="1.1" xmlns="http://www.w3.org/2000/svg" xmlns:xlink="http://www.w3.org/1999/xlink" xml:space="preserve" onload="init(evt)">
<style type="text/css"><![CDATA[
.edge:hover path { stroke: red; }
.edge:hover polygon { stroke: red; fill: red; }
]]></style>
<script type="text/javascript"><![CDATA[
var edges = document.getElementsByTagName('g');
if (edges && edges.length) {
  for (var i=0;i<edges.length;i++) {
    if (edges[i].id.substr(0,4)=='edge') {
      edges[i].setAttribute('class','edge');
    }
  }
}
]]></script>
        <defs>
                <circle id="rim" cx="0" cy="0" r="7"/>
                <circle id="rim2" cx="0" cy="0" r="3.5"/>
                <g id="zoomPlus">
                        <use xlink:href="#rim" fill="#404040">
                                <set attributeName="fill" to="#808080" begin="zoomplus.mouseover" end="zoomplus.mouseout"/>
                        </use>
                        <path d="M-4,0h8M0,-4v8" fill="none" stroke="white" stroke-width="1.5" pointer-events="none"/>
                </g>
                <g id="zoomMin">
                        <use xlink:href="#rim" fill="#404040">
                                <set attributeName="fill" to="#808080" begin="zoomminus.mouseover" end="zoomminus.mouseout"/>
                        </use>
                        <path d="M-4,0h8" fill="none" stroke="white" stroke-width="1.5" pointer-events="none"/>
                </g>
                <g id="dirArrow">
                        <path fill="none" stroke="white" stroke-width="1.5" d="M0,-3.0v7 M-2.5,-0.5L0,-3.0L2.5,-0.5"/>
                </g>
               <g id="resetDef">
                       <use xlink:href="#rim2" fill="#404040">
                               <set attributeName="fill" to="#808080" begin="reset.mouseover" end="reset.mouseout"/>
                       </use>
               </g>
        </defs>

<script type="text/javascript">
var viewWidth = 519;
var viewHeight = 318;
var sectionId = 'dynsection-0';
</script>
<script xlink:href="svgpan.js"/>
<svg id="graph" class="graph">
<g id="viewport">
<title>Ptrlist</title>
<polygon fill="white" stroke="none" points="-4,4 -4,-314 515,-314 515,4 -4,4"/>
<!-- Node1 -->
<g id="node1" class="node"><title>Node1</title>
<polygon fill="#bfbfbf" stroke="black" points="0,-67.5 0,-86.5 42,-86.5 42,-67.5 0,-67.5"/>
<text text-anchor="middle" x="21" y="-74.5" font-family="Helvetica,sans-Serif" font-size="10.00">Ptrlist</text>
</g>
<!-- Node1&#45;&gt;Node1 -->
<g id="edge17" class="edge"><title>Node1&#45;&gt;Node1</title>
<path fill="none" stroke="#9a32cd" stroke-dasharray="5,2" d="M52.4062,-82.4067C56.9452,-81.5444 60,-79.7422 60,-77 60,-72.5 51.7734,-70.5312 42.2615,-71.0938"/>
<polygon fill="#9a32cd" stroke="#9a32cd" points="52.0772,-78.9186 42.2615,-82.9062 52.4215,-85.9101 52.0772,-78.9186"/>
<text text-anchor="middle" x="71" y="-74.5" font-family="Helvetica,sans-Serif" font-size="10.00"> next</text>
</g>
<!-- Node2 -->
<g id="node2" class="node"><title>Node2</title>
<g id="a_node2"><a xlink:href="structSState.html" target="_top" xlink:title="SState">
<polygon fill="white" stroke="black" points="113.5,-146.5 113.5,-165.5 160.5,-165.5 160.5,-146.5 113.5,-146.5"/>
<text text-anchor="middle" x="137" y="-153.5" font-family="Helvetica,sans-Serif" font-size="10.00">SState</text>
</a>
</g>
</g>
<!-- Node2&#45;&gt;Node1 -->
<g id="edge1" class="edge"><title>Node2&#45;&gt;Node1</title>
<path fill="none" stroke="#9a32cd" stroke-dasharray="5,2" d="M115.736,-140.885C91.814,-125.006 53.722,-99.7207 33.9148,-86.5728"/>
<polygon fill="#9a32cd" stroke="#9a32cd" points="113.876,-143.851 124.143,-146.465 117.747,-138.019 113.876,-143.851"/>
<text text-anchor="middle" x="97.5" y="-113.5" font-family="Helvetica,sans-Serif" font-size="10.00"> s</text>
</g>
<!-- Node2&#45;&gt;Node2 -->
<g id="edge16" class="edge"><title>Node2&#45;&gt;Node2</title>
<path fill="none" stroke="#9a32cd" stroke-dasharray="5,2" d="M171.015,-162.287C175.515,-161.216 178.5,-159.121 178.5,-156 178.5,-150.879 170.46,-148.518 160.882,-148.918"/>
<polygon fill="#9a32cd" stroke="#9a32cd" points="170.578,-158.81 160.882,-163.082 171.125,-165.789 170.578,-158.81"/>
<text text-anchor="middle" x="189.5" y="-159" font-family="Helvetica,sans-Serif" font-size="10.00"> out1</text>
<text text-anchor="middle" x="189.5" y="-148" font-family="Helvetica,sans-Serif" font-size="10.00">out</text>
</g>
<!-- Node6 -->
<g id="node6" class="node"><title>Node6</title>
<g id="a_node6"><a xlink:href="structSgroupClose.html" target="_top" xlink:title="SgroupClose">
<polygon fill="white" stroke="black" points="100.5,-67.5 100.5,-86.5 173.5,-86.5 173.5,-67.5 100.5,-67.5"/>
<text text-anchor="middle" x="137" y="-74.5" font-family="Helvetica,sans-Serif" font-size="10.00">SgroupClose</text>
</a>
</g>
</g>
<!-- Node2&#45;&gt;Node6 -->
<g id="edge6" class="edge"><title>Node2&#45;&gt;Node6</title>
<path fill="none" stroke="#9a32cd" stroke-dasharray="5,2" d="M137,-136.315C137,-120.592 137,-98.8079 137,-86.8094"/>
<polygon fill="#9a32cd" stroke="#9a32cd" points="133.5,-136.465 137,-146.465 140.5,-136.465 133.5,-136.465"/>
<text text-anchor="middle" x="152.5" y="-113.5" font-family="Helvetica,sans-Serif" font-size="10.00"> openP</text>
</g>
<!-- Node3 -->
<g id="node3" class="node"><title>Node3</title>
<g id="a_node3"><a xlink:href="unionSTypeData.html" target="_top" xlink:title="STypeData">
<polygon fill="white" stroke="black" points="227,-0.5 227,-19.5 293,-19.5 293,-0.5 227,-0.5"/>
<text text-anchor="middle" x="260" y="-7.5" font-family="Helvetica,sans-Serif" font-size="10.00">STypeData</text>
</a>
</g>
</g>
<!-- Node3&#45;&gt;Node2 -->
<g id="edge2" class="edge"><title>Node3&#45;&gt;Node2</title>
<path fill="none" stroke="#9a32cd" stroke-dasharray="5,2" d="M248.863,-28.3042C233.225,-51.9368 203.168,-95.0193 172,-127 165.048,-134.133 156.298,-141.133 149.286,-146.35"/>
<polygon fill="#9a32cd" stroke="#9a32cd" points="251.93,-30.0093 254.47,-19.7236 246.07,-26.18 251.93,-30.0093"/>
<text text-anchor="middle" x="233" y="-74.5" font-family="Helvetica,sans-Serif" font-size="10.00"> data</text>
</g>
<!-- Node4 -->
<g id="node4" class="node"><title>Node4</title>
<g id="a_node4"><a xlink:href="structSgroupOpen.html" target="_top" xlink:title="SgroupOpen">
<polygon fill="white" stroke="black" points="224.5,-185.5 224.5,-204.5 295.5,-204.5 295.5,-185.5 224.5,-185.5"/>
<text text-anchor="middle" x="260" y="-192.5" font-family="Helvetica,sans-Serif" font-size="10.00">SgroupOpen</text>
</a>
</g>
</g>
<!-- Node4&#45;&gt;Node3 -->
<g id="edge3" class="edge"><title>Node4&#45;&gt;Node3</title>
<path fill="none" stroke="#9a32cd" stroke-dasharray="5,2" d="M260,-175.169C260,-136.159 260,-47.8137 260,-19.7379"/>
<polygon fill="#9a32cd" stroke="#9a32cd" points="256.5,-175.173 260,-185.174 263.5,-175.174 256.5,-175.173"/>
<text text-anchor="middle" x="276.5" y="-113.5" font-family="Helvetica,sans-Serif" font-size="10.00"> groupo</text>
</g>
<!-- Node5 -->
<g id="node5" class="node"><title>Node5</title>
<g id="a_node5"><a xlink:href="structSemanticID.html" target="_top" xlink:title="SemanticID">
<polygon fill="white" stroke="black" points="255,-290.5 255,-309.5 323,-309.5 323,-290.5 255,-290.5"/>
<text text-anchor="middle" x="289" y="-297.5" font-family="Helvetica,sans-Serif" font-size="10.00">SemanticID</text>
</a>
</g>
</g>
<!-- Node5&#45;&gt;Node4 -->
<g id="edge4" class="edge"><title>Node5&#45;&gt;Node4</title>
<path fill="none" stroke="#9a32cd" stroke-dasharray="5,2" d="M270.272,-283.214C267.344,-279.828 264.723,-276.041 263,-272 253.368,-249.407 256.149,-219.524 258.39,-204.872"/>
<polygon fill="#9a32cd" stroke="#9a32cd" points="267.83,-285.722 277.376,-290.318 272.78,-280.772 267.83,-285.722"/>
<text text-anchor="middle" x="280.5" y="-264" font-family="Helvetica,sans-Serif" font-size="10.00"> symbol</text>
</g>
<!-- Node11 -->
<g id="node11" class="node"><title>Node11</title>
<g id="a_node11"><a xlink:href="structTcontents.html" target="_top" xlink:title="Tcontents">
<polygon fill="white" stroke="black" points="288,-223.5 288,-242.5 348,-242.5 348,-223.5 288,-223.5"/>
<text text-anchor="middle" x="318" y="-230.5" font-family="Helvetica,sans-Serif" font-size="10.00">Tcontents</text>
</a>
</g>
</g>
<!-- Node5&#45;&gt;Node11 -->
<g id="edge13" class="edge"><title>Node5&#45;&gt;Node11</title>
<path fill="none" stroke="#9a32cd" stroke-dasharray="5,2" d="M297.124,-280.79C302.694,-268.308 309.829,-252.314 314.151,-242.627"/>
<polygon fill="#9a32cd" stroke="#9a32cd" points="293.789,-279.675 292.911,-290.234 300.182,-282.528 293.789,-279.675"/>
<text text-anchor="middle" x="323.5" y="-264" font-family="Helvetica,sans-Serif" font-size="10.00"> symbol</text>
</g>
<!-- Node6&#45;&gt;Node3 -->
<g id="edge5" class="edge"><title>Node6&#45;&gt;Node3</title>
<path fill="none" stroke="#9a32cd" stroke-dasharray="5,2" d="M145.586,-58.2798C149.898,-51.0464 155.76,-43.181 163,-38 181.765,-24.5722 206.968,-17.8133 226.98,-14.4161"/>
<polygon fill="#9a32cd" stroke="#9a32cd" points="142.316,-56.9723 140.683,-67.4404 148.488,-60.2759 142.316,-56.9723"/>
<text text-anchor="middle" x="179.5" y="-41" font-family="Helvetica,sans-Serif" font-size="10.00"> groupc</text>
</g>
<!-- Node7 -->
<g id="node7" class="node"><title>Node7</title>
<g id="a_node7"><a xlink:href="structSvalue.html" target="_top" xlink:title="Svalue">
<polygon fill="white" stroke="black" points="290.5,-67.5 290.5,-86.5 337.5,-86.5 337.5,-67.5 290.5,-67.5"/>
<text text-anchor="middle" x="314" y="-74.5" font-family="Helvetica,sans-Serif" font-size="10.00">Svalue</text>
</a>
</g>
</g>
<!-- Node7&#45;&gt;Node3 -->
<g id="edge7" class="edge"><title>Node7&#45;&gt;Node3</title>
<path fill="none" stroke="#9a32cd" stroke-dasharray="5,2" d="M300.102,-59.2705C289.573,-46.5972 275.536,-29.701 267.167,-19.6273"/>
<polygon fill="#9a32cd" stroke="#9a32cd" points="297.635,-61.7785 306.717,-67.2338 303.019,-57.3053 297.635,-61.7785"/>
<text text-anchor="middle" x="304.5" y="-41" font-family="Helvetica,sans-Serif" font-size="10.00"> value</text>
</g>
<!-- Node8 -->
<g id="node8" class="node"><title>Node8</title>
<g id="a_node8"><a xlink:href="structT.html" target="_top" xlink:title="T">
<polygon fill="white" stroke="black" points="367.5,-146.5 367.5,-165.5 396.5,-165.5 396.5,-146.5 367.5,-146.5"/>
<text text-anchor="middle" x="382" y="-153.5" font-family="Helvetica,sans-Serif" font-size="10.00">T</text>
</a>
</g>
</g>
<!-- Node8&#45;&gt;Node7 -->
<g id="edge8" class="edge"><title>Node8&#45;&gt;Node7</title>
<path fill="none" stroke="#9a32cd" stroke-dasharray="5,2" d="M357.876,-146.632C348.045,-142.156 337.299,-135.732 330,-127 320.128,-115.19 316.299,-97.1304 314.849,-86.5502"/>
<polygon fill="#9a32cd" stroke="#9a32cd" points="356.66,-149.916 367.241,-150.471 359.316,-143.439 356.66,-149.916"/>
<text text-anchor="middle" x="346" y="-113.5" font-family="Helvetica,sans-Serif" font-size="10.00"> values</text>
</g>
<!-- Node9 -->
<g id="node9" class="node"><title>Node9</title>
<g id="a_node9"><a xlink:href="structTstruct.html" target="_top" xlink:title="Tstruct">
<polygon fill="white" stroke="black" points="379.5,-67.5 379.5,-86.5 426.5,-86.5 426.5,-67.5 379.5,-67.5"/>
<text text-anchor="middle" x="403" y="-74.5" font-family="Helvetica,sans-Serif" font-size="10.00">Tstruct</text>
</a>
</g>
</g>
<!-- Node8&#45;&gt;Node9 -->
<g id="edge10" class="edge"><title>Node8&#45;&gt;Node9</title>
<path fill="none" stroke="#9a32cd" stroke-dasharray="5,2" d="M370.96,-137.3C366.303,-127.465 362.99,-115.193 368,-105 371.792,-97.2863 378.965,-91.1541 385.835,-86.6961"/>
<polygon fill="#9a32cd" stroke="#9a32cd" points="367.935,-139.063 375.806,-146.155 374.075,-135.703 367.935,-139.063"/>
<text text-anchor="middle" x="385" y="-119" font-family="Helvetica,sans-Serif" font-size="10.00"> parent</text>
<text text-anchor="middle" x="385" y="-108" font-family="Helvetica,sans-Serif" font-size="10.00">children</text>
</g>
<!-- Node12 -->
<g id="node12" class="node"><title>Node12</title>
<g id="a_node12"><a xlink:href="structSliteral.html" target="_top" xlink:title="Sliteral">
<polygon fill="white" stroke="black" points="456.5,-67.5 456.5,-86.5 503.5,-86.5 503.5,-67.5 456.5,-67.5"/>
<text text-anchor="middle" x="480" y="-74.5" font-family="Helvetica,sans-Serif" font-size="10.00">Sliteral</text>
</a>
</g>
</g>
<!-- Node8&#45;&gt;Node12 -->
<g id="edge15" class="edge"><title>Node8&#45;&gt;Node12</title>
<path fill="none" stroke="#9a32cd" stroke-dasharray="5,2" d="M406.422,-150.35C421.858,-146.359 441.39,-139.245 455,-127 467.212,-116.014 474.299,-97.6708 477.636,-86.8162"/>
<polygon fill="#9a32cd" stroke="#9a32cd" points="405.468,-146.978 396.512,-152.639 407.044,-153.799 405.468,-146.978"/>
<text text-anchor="middle" x="491" y="-113.5" font-family="Helvetica,sans-Serif" font-size="10.00"> symbols</text>
</g>
<!-- Node9&#45;&gt;Node8 -->
<g id="edge9" class="edge"><title>Node9&#45;&gt;Node8</title>
<path fill="none" stroke="#9a32cd" stroke-dasharray="5,2" d="M407.617,-96.4969C409.105,-105.9 409.571,-117.348 406,-127 403.246,-134.446 397.529,-141.248 392.365,-146.283"/>
<polygon fill="#9a32cd" stroke="#9a32cd" points="411.03,-95.7152 405.581,-86.629 404.174,-97.13 411.03,-95.7152"/>
<text text-anchor="middle" x="430" y="-113.5" font-family="Helvetica,sans-Serif" font-size="10.00"> structure</text>
</g>
<!-- Node10 -->
<g id="node10" class="node"><title>Node10</title>
<g id="a_node10"><a xlink:href="structTcontext.html" target="_top" xlink:title="Tcontext">
<polygon fill="white" stroke="black" points="366.5,-223.5 366.5,-242.5 421.5,-242.5 421.5,-223.5 366.5,-223.5"/>
<text text-anchor="middle" x="394" y="-230.5" font-family="Helvetica,sans-Serif" font-size="10.00">Tcontext</text>
</a>
</g>
</g>
<!-- Node10&#45;&gt;Node8 -->
<g id="edge11" class="edge"><title>Node10&#45;&gt;Node8</title>
<path fill="none" stroke="#9a32cd" stroke-dasharray="5,2" d="M391.035,-213.471C388.584,-198.149 385.214,-177.09 383.36,-165.503"/>
<polygon fill="#9a32cd" stroke="#9a32cd" points="387.587,-214.075 392.623,-223.397 394.5,-212.969 387.587,-214.075"/>
<text text-anchor="middle" x="408" y="-192.5" font-family="Helvetica,sans-Serif" font-size="10.00"> context</text>
</g>
<!-- Node11&#45;&gt;Node8 -->
<g id="edge12" class="edge"><title>Node11&#45;&gt;Node8</title>
<path fill="none" stroke="#9a32cd" stroke-dasharray="5,2" d="M324.806,-213.794C328.862,-204.513 334.659,-193.436 342,-185 349.123,-176.815 359.123,-169.815 367.342,-164.861"/>
<polygon fill="#9a32cd" stroke="#9a32cd" points="321.477,-212.69 320.976,-223.273 327.967,-215.312 321.477,-212.69"/>
<text text-anchor="middle" x="362.5" y="-192.5" font-family="Helvetica,sans-Serif" font-size="10.00"> contents</text>
</g>
<!-- Node12&#45;&gt;Node3 -->
<g id="edge14" class="edge"><title>Node12&#45;&gt;Node3</title>
<path fill="none" stroke="#9a32cd" stroke-dasharray="5,2" d="M446.756,-66.1778C403.787,-53.4824 329.662,-31.5821 288.917,-19.5435"/>
<polygon fill="#9a32cd" stroke="#9a32cd" points="445.874,-69.5669 456.456,-69.0439 447.858,-62.8538 445.874,-69.5669"/>
<text text-anchor="middle" x="401.5" y="-41" font-family="Helvetica,sans-Serif" font-size="10.00"> symbol</text>
</g>
</g>
</svg>
        <g id="navigator" transform="translate(0 0)" fill="#404254">
                <rect fill="#f2f5e9" fill-opacity="0.5" stroke="#606060" stroke-width=".5" x="0" y="0" width="60" height="60"/>
                <use id="zoomplus" xlink:href="#zoomPlus" x="17" y="9" onmousedown="handleZoom(evt,'in')"/>
                <use id="zoomminus" xlink:href="#zoomMin" x="42" y="9" onmousedown="handleZoom(evt,'out')"/>
                <use id="reset" xlink:href="#resetDef" x="30" y="36" onmousedown="handleReset()"/>
                <g id="arrowUp" xlink:href="#dirArrow" transform="translate(30 24)" onmousedown="handlePan(0,-1)">
                  <use xlink:href="#rim" fill="#404040">
                        <set attributeName="fill" to="#808080" begin="arrowUp.mouseover" end="arrowUp.mouseout"/>
                  </use>
                  <path fill="none" stroke="white" stroke-width="1.5" d="M0,-3.0v7 M-2.5,-0.5L0,-3.0L2.5,-0.5"/>
                </g>
                <g id="arrowRight" xlink:href="#dirArrow" transform="rotate(90) translate(36 -43)" onmousedown="handlePan(1,0)">
                  <use xlink:href="#rim" fill="#404040">
                        <set attributeName="fill" to="#808080" begin="arrowRight.mouseover" end="arrowRight.mouseout"/>
                  </use>
                  <path fill="none" stroke="white" stroke-width="1.5" d="M0,-3.0v7 M-2.5,-0.5L0,-3.0L2.5,-0.5"/>
                </g>
                <g id="arrowDown" xlink:href="#dirArrow" transform="rotate(180) translate(-30 -48)" onmousedown="handlePan(0,1)">
                  <use xlink:href="#rim" fill="#404040">
                        <set attributeName="fill" to="#808080" begin="arrowDown.mouseover" end="arrowDown.mouseout"/>
                  </use>
                  <path fill="none" stroke="white" stroke-width="1.5" d="M0,-3.0v7 M-2.5,-0.5L0,-3.0L2.5,-0.5"/>
                </g>
                <g id="arrowLeft" xlink:href="#dirArrow" transform="rotate(270) translate(-36 17)" onmousedown="handlePan(-1,0)">
                  <use xlink:href="#rim" fill="#404040">
                        <set attributeName="fill" to="#808080" begin="arrowLeft.mouseover" end="arrowLeft.mouseout"/>
                  </use>
                  <path fill="none" stroke="white" stroke-width="1.5" d="M0,-3.0v7 M-2.5,-0.5L0,-3.0L2.5,-0.5"/>
                </g>
        </g>
        <svg viewBox="0 0 15 15" width="100%" height="30px" preserveAspectRatio="xMaxYMin meet">
         <g id="arrow_out" transform="scale(0.3 0.3)">
          <a xlink:href="unionPtrlist__coll__graph_org.svg" target="_base">
           <rect id="button" ry="5" rx="5" y="6" x="6" height="38" width="38"
                fill="#f2f5e9" fill-opacity="0.5" stroke="#606060" stroke-width="1.0"/>
           <path id="arrow"
             d="M 11.500037,31.436501 C 11.940474,20.09759 22.043105,11.32322 32.158766,21.979434 L 37.068811,17.246167 C 37.068811,17.246167 37.088388,32 37.088388,32 L 22.160133,31.978069 C 22.160133,31.978069 26.997745,27.140456 26.997745,27.140456 C 18.528582,18.264221 13.291696,25.230495 11.500037,31.436501 z"
             style="fill:#404040;"/>
          </a>
         </g>
        </svg>
</svg>
