<?xml version="1.0" encoding="UTF-8" standalone="no"?>
<!DOCTYPE svg PUBLIC "-//W3C//DTD SVG 1.1//EN"
 "http://www.w3.org/Graphics/SVG/1.1/DTD/svg11.dtd">
<!-- Generated by graphviz version 2.38.0 (20140413.2041)
 -->
<!-- Title: spec/vmhost_spec.h Pages: 1 -->
<svg width="879pt" height="532pt"
 viewBox="0.00 0.00 878.56 532.00" xmlns="http://www.w3.org/2000/svg" xmlns:xlink="http://www.w3.org/1999/xlink">
<g id="graph0" class="graph" transform="scale(1 1) rotate(0) translate(4 528)">
<title>spec/vmhost_spec.h</title>
<polygon fill="white" stroke="none" points="-4,4 -4,-528 874.557,-528 874.557,4 -4,4"/>
<!-- Node1 -->
<g id="node1" class="node"><title>Node1</title>
<polygon fill="#bfbfbf" stroke="black" points="267,-504.5 267,-523.5 374,-523.5 374,-504.5 267,-504.5"/>
<text text-anchor="middle" x="320.5" y="-511.5" font-family="Helvetica,sans-Serif" font-size="10.00">spec/vmhost_spec.h</text>
</g>
<!-- Node2 -->
<g id="node2" class="node"><title>Node2</title>
<g id="a_node2"><a xlink:href="ceptr_8h_source.html" target="_top" xlink:title="../src/ceptr.h">
<polygon fill="white" stroke="black" points="462.5,-336.5 462.5,-355.5 534.5,-355.5 534.5,-336.5 462.5,-336.5"/>
<text text-anchor="middle" x="498.5" y="-343.5" font-family="Helvetica,sans-Serif" font-size="10.00">../src/ceptr.h</text>
</a>
</g>
</g>
<!-- Node1&#45;&gt;Node2 -->
<g id="edge1" class="edge"><title>Node1&#45;&gt;Node2</title>
<path fill="none" stroke="midnightblue" d="M349.307,-504.493C388.096,-491.416 456.099,-462.444 489.5,-412 498.443,-398.494 500.228,-379.939 500.048,-366.11"/>
<polygon fill="midnightblue" stroke="midnightblue" points="503.529,-365.639 499.548,-355.82 496.537,-365.978 503.529,-365.639"/>
</g>
<!-- Node24 -->
<g id="node24" class="node"><title>Node24</title>
<g id="a_node24"><a xlink:href="vmhost_8h.html" target="_top" xlink:title="vmhost implementation header file ">
<polygon fill="white" stroke="black" points="178,-448.5 178,-467.5 261,-467.5 261,-448.5 178,-448.5"/>
<text text-anchor="middle" x="219.5" y="-455.5" font-family="Helvetica,sans-Serif" font-size="10.00">../src/vmhost.h</text>
</a>
</g>
</g>
<!-- Node1&#45;&gt;Node24 -->
<g id="edge42" class="edge"><title>Node1&#45;&gt;Node24</title>
<path fill="none" stroke="midnightblue" d="M304.273,-504.324C288.149,-495.703 263.2,-482.364 244.536,-472.386"/>
<polygon fill="midnightblue" stroke="midnightblue" points="246.156,-469.283 235.687,-467.655 242.856,-475.456 246.156,-469.283"/>
</g>
<!-- Node31 -->
<g id="node31" class="node"><title>Node31</title>
<g id="a_node31"><a xlink:href="http__example_8h.html" target="_top" xlink:title="http_example.h">
<polygon fill="white" stroke="black" points="279,-448.5 279,-467.5 362,-467.5 362,-448.5 279,-448.5"/>
<text text-anchor="middle" x="320.5" y="-455.5" font-family="Helvetica,sans-Serif" font-size="10.00">http_example.h</text>
</a>
</g>
</g>
<!-- Node1&#45;&gt;Node31 -->
<g id="edge54" class="edge"><title>Node1&#45;&gt;Node31</title>
<path fill="none" stroke="midnightblue" d="M320.5,-504.083C320.5,-497.006 320.5,-486.861 320.5,-477.986"/>
<polygon fill="midnightblue" stroke="midnightblue" points="324,-477.751 320.5,-467.751 317,-477.751 324,-477.751"/>
</g>
<!-- Node3 -->
<g id="node3" class="node"><title>Node3</title>
<polygon fill="white" stroke="#bfbfbf" points="338,-0.5 338,-19.5 387,-19.5 387,-0.5 338,-0.5"/>
<text text-anchor="middle" x="362.5" y="-7.5" font-family="Helvetica,sans-Serif" font-size="10.00">string.h</text>
</g>
<!-- Node2&#45;&gt;Node3 -->
<g id="edge2" class="edge"><title>Node2&#45;&gt;Node3</title>
<path fill="none" stroke="midnightblue" d="M534.749,-342.033C628.102,-333.398 869.5,-304.365 869.5,-235 869.5,-235 869.5,-235 869.5,-121 869.5,-90.9022 873.728,-75.1394 850.5,-56 815.664,-27.2962 503.247,-15.2583 397.391,-11.98"/>
<polygon fill="midnightblue" stroke="midnightblue" points="397.336,-8.47679 387.235,-11.6729 397.124,-15.4736 397.336,-8.47679"/>
</g>
<!-- Node4 -->
<g id="node4" class="node"><title>Node4</title>
<polygon fill="white" stroke="#bfbfbf" points="598.5,-56.5 598.5,-75.5 644.5,-75.5 644.5,-56.5 598.5,-56.5"/>
<text text-anchor="middle" x="621.5" y="-63.5" font-family="Helvetica,sans-Serif" font-size="10.00">stdio.h</text>
</g>
<!-- Node2&#45;&gt;Node4 -->
<g id="edge3" class="edge"><title>Node2&#45;&gt;Node4</title>
<path fill="none" stroke="midnightblue" d="M534.825,-343.233C598.015,-337.994 721.5,-317.237 721.5,-235 721.5,-235 721.5,-235 721.5,-177 721.5,-132.984 677.12,-98.7956 647.49,-80.875"/>
<polygon fill="midnightblue" stroke="midnightblue" points="648.869,-77.6286 638.464,-75.6363 645.356,-83.683 648.869,-77.6286"/>
</g>
<!-- Node5 -->
<g id="node5" class="node"><title>Node5</title>
<polygon fill="white" stroke="#bfbfbf" points="124.5,-0.5 124.5,-19.5 172.5,-19.5 172.5,-0.5 124.5,-0.5"/>
<text text-anchor="middle" x="148.5" y="-7.5" font-family="Helvetica,sans-Serif" font-size="10.00">stdlib.h</text>
</g>
<!-- Node2&#45;&gt;Node5 -->
<g id="edge4" class="edge"><title>Node2&#45;&gt;Node5</title>
<path fill="none" stroke="midnightblue" d="M464.199,-336.439C385.331,-316.445 196.391,-266.662 177.5,-244 125.028,-181.053 137.084,-73.282 144.68,-29.9054"/>
<polygon fill="midnightblue" stroke="midnightblue" points="148.153,-30.3718 146.56,-19.8974 141.274,-29.0792 148.153,-30.3718"/>
</g>
<!-- Node6 -->
<g id="node6" class="node"><title>Node6</title>
<g id="a_node6"><a xlink:href="ceptr__error_8h_source.html" target="_top" xlink:title="ceptr_error.h">
<polygon fill="white" stroke="black" points="441,-168.5 441,-187.5 512,-187.5 512,-168.5 441,-168.5"/>
<text text-anchor="middle" x="476.5" y="-175.5" font-family="Helvetica,sans-Serif" font-size="10.00">ceptr_error.h</text>
</a>
</g>
</g>
<!-- Node2&#45;&gt;Node6 -->
<g id="edge5" class="edge"><title>Node2&#45;&gt;Node6</title>
<path fill="none" stroke="midnightblue" d="M497.317,-336.075C493.854,-309.945 483.685,-233.211 478.962,-197.577"/>
<polygon fill="midnightblue" stroke="midnightblue" points="482.419,-197.022 477.636,-187.568 475.48,-197.941 482.419,-197.022"/>
</g>
<!-- Node10 -->
<g id="node10" class="node"><title>Node10</title>
<g id="a_node10"><a xlink:href="tree_8h.html" target="_top" xlink:title="semantic trees header file ">
<polygon fill="white" stroke="black" points="201,-280.5 201,-299.5 242,-299.5 242,-280.5 201,-280.5"/>
<text text-anchor="middle" x="221.5" y="-287.5" font-family="Helvetica,sans-Serif" font-size="10.00">tree.h</text>
</a>
</g>
</g>
<!-- Node2&#45;&gt;Node10 -->
<g id="edge10" class="edge"><title>Node2&#45;&gt;Node10</title>
<path fill="none" stroke="midnightblue" d="M462.265,-339.052C414.808,-331.081 329.101,-316.065 256.5,-300 255.045,-299.678 253.559,-299.338 252.06,-298.987"/>
<polygon fill="midnightblue" stroke="midnightblue" points="252.718,-295.545 242.172,-296.563 251.051,-302.344 252.718,-295.545"/>
</g>
<!-- Node18 -->
<g id="node18" class="node"><title>Node18</title>
<g id="a_node18"><a xlink:href="stream_8h.html" target="_top" xlink:title="streams abstraction header file ">
<polygon fill="white" stroke="black" points="505,-224.5 505,-243.5 560,-243.5 560,-224.5 505,-224.5"/>
<text text-anchor="middle" x="532.5" y="-231.5" font-family="Helvetica,sans-Serif" font-size="10.00">stream.h</text>
</a>
</g>
</g>
<!-- Node2&#45;&gt;Node18 -->
<g id="edge34" class="edge"><title>Node2&#45;&gt;Node18</title>
<path fill="none" stroke="midnightblue" d="M501.168,-336.368C506.68,-318.537 519.427,-277.295 526.852,-253.272"/>
<polygon fill="midnightblue" stroke="midnightblue" points="530.235,-254.179 529.844,-243.591 523.547,-252.112 530.235,-254.179"/>
</g>
<!-- Node19 -->
<g id="node19" class="node"><title>Node19</title>
<g id="a_node19"><a xlink:href="mtree_8h.html" target="_top" xlink:title="semantic tree matrix header file `` ">
<polygon fill="white" stroke="black" points="356.5,-224.5 356.5,-243.5 406.5,-243.5 406.5,-224.5 356.5,-224.5"/>
<text text-anchor="middle" x="381.5" y="-231.5" font-family="Helvetica,sans-Serif" font-size="10.00">mtree.h</text>
</a>
</g>
</g>
<!-- Node2&#45;&gt;Node19 -->
<g id="edge28" class="edge"><title>Node2&#45;&gt;Node19</title>
<path fill="none" stroke="midnightblue" d="M489.319,-336.368C469.669,-317.894 423.293,-274.293 398.245,-250.744"/>
<polygon fill="midnightblue" stroke="midnightblue" points="400.321,-247.891 390.638,-243.591 395.526,-252.991 400.321,-247.891"/>
</g>
<!-- Node20 -->
<g id="node20" class="node"><title>Node20</title>
<g id="a_node20"><a xlink:href="util_8h.html" target="_top" xlink:title="util.h">
<polygon fill="white" stroke="black" points="749.5,-112.5 749.5,-131.5 787.5,-131.5 787.5,-112.5 749.5,-112.5"/>
<text text-anchor="middle" x="768.5" y="-119.5" font-family="Helvetica,sans-Serif" font-size="10.00">util.h</text>
</a>
</g>
</g>
<!-- Node2&#45;&gt;Node20 -->
<g id="edge35" class="edge"><title>Node2&#45;&gt;Node20</title>
<path fill="none" stroke="midnightblue" d="M534.846,-343C594.139,-338.962 707.857,-327.735 735.5,-300 778.31,-257.048 775.187,-177.545 771.163,-141.557"/>
<polygon fill="midnightblue" stroke="midnightblue" points="774.618,-140.981 769.883,-131.503 767.674,-141.865 774.618,-140.981"/>
</g>
<!-- Node23 -->
<g id="node23" class="node"><title>Node23</title>
<g id="a_node23"><a xlink:href="debug_8h.html" target="_top" xlink:title="debug.h">
<polygon fill="white" stroke="black" points="642,-168.5 642,-187.5 693,-187.5 693,-168.5 642,-168.5"/>
<text text-anchor="middle" x="667.5" y="-175.5" font-family="Helvetica,sans-Serif" font-size="10.00">debug.h</text>
</a>
</g>
</g>
<!-- Node2&#45;&gt;Node23 -->
<g id="edge40" class="edge"><title>Node2&#45;&gt;Node23</title>
<path fill="none" stroke="midnightblue" d="M507.586,-336.075C534.879,-309.267 616.403,-229.19 651.328,-194.885"/>
<polygon fill="midnightblue" stroke="midnightblue" points="654.096,-197.073 658.777,-187.568 649.19,-192.079 654.096,-197.073"/>
</g>
<!-- Node6&#45;&gt;Node4 -->
<g id="edge6" class="edge"><title>Node6&#45;&gt;Node4</title>
<path fill="none" stroke="midnightblue" d="M512.098,-169.651C536.071,-163.166 567.097,-151.603 588.5,-132 602.184,-119.467 611.019,-99.9673 616.07,-85.5931"/>
<polygon fill="midnightblue" stroke="midnightblue" points="619.489,-86.3915 619.212,-75.8003 612.824,-84.2525 619.489,-86.3915"/>
</g>
<!-- Node7 -->
<g id="node7" class="node"><title>Node7</title>
<polygon fill="white" stroke="#bfbfbf" points="459.5,-112.5 459.5,-131.5 509.5,-131.5 509.5,-112.5 459.5,-112.5"/>
<text text-anchor="middle" x="484.5" y="-119.5" font-family="Helvetica,sans-Serif" font-size="10.00">signal.h</text>
</g>
<!-- Node6&#45;&gt;Node7 -->
<g id="edge7" class="edge"><title>Node6&#45;&gt;Node7</title>
<path fill="none" stroke="midnightblue" d="M477.821,-168.083C478.881,-160.927 480.406,-150.635 481.731,-141.691"/>
<polygon fill="midnightblue" stroke="midnightblue" points="485.2,-142.156 483.204,-131.751 478.276,-141.13 485.2,-142.156"/>
</g>
<!-- Node8 -->
<g id="node8" class="node"><title>Node8</title>
<polygon fill="white" stroke="#bfbfbf" points="527.5,-112.5 527.5,-131.5 579.5,-131.5 579.5,-112.5 527.5,-112.5"/>
<text text-anchor="middle" x="553.5" y="-119.5" font-family="Helvetica,sans-Serif" font-size="10.00">assert.h</text>
</g>
<!-- Node6&#45;&gt;Node8 -->
<g id="edge8" class="edge"><title>Node6&#45;&gt;Node8</title>
<path fill="none" stroke="midnightblue" d="M488.871,-168.324C500.658,-160.058 518.632,-147.453 532.636,-137.632"/>
<polygon fill="midnightblue" stroke="midnightblue" points="534.982,-140.262 541.159,-131.655 530.962,-134.531 534.982,-140.262"/>
</g>
<!-- Node9 -->
<g id="node9" class="node"><title>Node9</title>
<polygon fill="white" stroke="#bfbfbf" points="387.5,-112.5 387.5,-131.5 441.5,-131.5 441.5,-112.5 387.5,-112.5"/>
<text text-anchor="middle" x="414.5" y="-119.5" font-family="Helvetica,sans-Serif" font-size="10.00">setjmp.h</text>
</g>
<!-- Node6&#45;&gt;Node9 -->
<g id="edge9" class="edge"><title>Node6&#45;&gt;Node9</title>
<path fill="none" stroke="midnightblue" d="M466.539,-168.324C457.373,-160.341 443.563,-148.313 432.472,-138.653"/>
<polygon fill="midnightblue" stroke="midnightblue" points="434.482,-135.762 424.643,-131.834 429.885,-141.041 434.482,-135.762"/>
</g>
<!-- Node10&#45;&gt;Node3 -->
<g id="edge11" class="edge"><title>Node10&#45;&gt;Node3</title>
<path fill="none" stroke="midnightblue" d="M208.719,-280.369C198.106,-272.36 183.769,-259.379 177.5,-244 172.501,-231.736 165.992,-194.491 178.5,-168 183.09,-158.279 298.097,-63.6309 343.915,-26.1611"/>
<polygon fill="midnightblue" stroke="midnightblue" points="346.334,-28.7043 351.864,-19.6669 341.905,-23.2835 346.334,-28.7043"/>
</g>
<!-- Node10&#45;&gt;Node5 -->
<g id="edge12" class="edge"><title>Node10&#45;&gt;Node5</title>
<path fill="none" stroke="midnightblue" d="M200.789,-285.244C163.855,-278.171 88.6865,-261.963 69.5,-244 47.0192,-222.953 45.5,-209.795 45.5,-179 45.5,-179 45.5,-179 45.5,-121 45.5,-76.4259 91.1214,-42.4604 121.64,-24.726"/>
<polygon fill="midnightblue" stroke="midnightblue" points="123.531,-27.6785 130.559,-19.7495 120.121,-21.5656 123.531,-27.6785"/>
</g>
<!-- Node10&#45;&gt;Node6 -->
<g id="edge13" class="edge"><title>Node10&#45;&gt;Node6</title>
<path fill="none" stroke="midnightblue" d="M242.184,-288.107C279.284,-285.693 358.574,-276.785 415.5,-244 436.157,-232.103 454.039,-210.991 465.008,-196.06"/>
<polygon fill="midnightblue" stroke="midnightblue" points="468.001,-197.888 470.907,-187.7 462.282,-193.853 468.001,-197.888"/>
</g>
<!-- Node11 -->
<g id="node11" class="node"><title>Node11</title>
<g id="a_node11"><a xlink:href="sys__defs_8h.html" target="_top" xlink:title="Defines types and vars for system defined semantics. ">
<polygon fill="white" stroke="black" points="188,-168.5 188,-187.5 253,-187.5 253,-168.5 188,-168.5"/>
<text text-anchor="middle" x="220.5" y="-175.5" font-family="Helvetica,sans-Serif" font-size="10.00">sys_defs.h</text>
</a>
</g>
</g>
<!-- Node10&#45;&gt;Node11 -->
<g id="edge14" class="edge"><title>Node10&#45;&gt;Node11</title>
<path fill="none" stroke="midnightblue" d="M234.394,-280.416C250.439,-268.571 274.678,-246.158 265.5,-224 260.58,-212.121 250.833,-201.743 241.666,-193.956"/>
<polygon fill="midnightblue" stroke="midnightblue" points="243.583,-191.01 233.564,-187.564 239.247,-196.506 243.583,-191.01"/>
</g>
<!-- Node12 -->
<g id="node12" class="node"><title>Node12</title>
<g id="a_node12"><a xlink:href="ceptr__types_8h_source.html" target="_top" xlink:title="ceptr_types.h">
<polygon fill="white" stroke="black" points="255.5,-112.5 255.5,-131.5 331.5,-131.5 331.5,-112.5 255.5,-112.5"/>
<text text-anchor="middle" x="293.5" y="-119.5" font-family="Helvetica,sans-Serif" font-size="10.00">ceptr_types.h</text>
</a>
</g>
</g>
<!-- Node10&#45;&gt;Node12 -->
<g id="edge25" class="edge"><title>Node10&#45;&gt;Node12</title>
<path fill="none" stroke="midnightblue" d="M240.045,-280.389C253.965,-272.87 272.169,-260.563 281.5,-244 299.741,-211.623 298.57,-166.558 296.058,-141.564"/>
<polygon fill="midnightblue" stroke="midnightblue" points="299.531,-141.127 294.875,-131.611 292.58,-141.954 299.531,-141.127"/>
</g>
<!-- Node17 -->
<g id="node17" class="node"><title>Node17</title>
<g id="a_node17"><a xlink:href="base__defs_8h.html" target="_top" xlink:title="auto&#45;generated system definitions ">
<polygon fill="white" stroke="black" points="186.5,-224.5 186.5,-243.5 256.5,-243.5 256.5,-224.5 186.5,-224.5"/>
<text text-anchor="middle" x="221.5" y="-231.5" font-family="Helvetica,sans-Serif" font-size="10.00">base_defs.h</text>
</a>
</g>
</g>
<!-- Node10&#45;&gt;Node17 -->
<g id="edge23" class="edge"><title>Node10&#45;&gt;Node17</title>
<path fill="none" stroke="midnightblue" d="M221.5,-280.083C221.5,-273.006 221.5,-262.861 221.5,-253.986"/>
<polygon fill="midnightblue" stroke="midnightblue" points="225,-253.751 221.5,-243.751 218,-253.751 225,-253.751"/>
</g>
<!-- Node10&#45;&gt;Node18 -->
<g id="edge26" class="edge"><title>Node10&#45;&gt;Node18</title>
<path fill="none" stroke="midnightblue" d="M242.389,-285.373C294.099,-276.394 428.658,-253.031 494.751,-241.555"/>
<polygon fill="midnightblue" stroke="midnightblue" points="495.493,-244.978 504.747,-239.819 494.296,-238.081 495.493,-244.978"/>
</g>
<!-- Node11&#45;&gt;Node12 -->
<g id="edge15" class="edge"><title>Node11&#45;&gt;Node12</title>
<path fill="none" stroke="midnightblue" d="M232.229,-168.324C243.337,-160.107 260.242,-147.602 273.483,-137.807"/>
<polygon fill="midnightblue" stroke="midnightblue" points="275.6,-140.595 281.558,-131.834 271.437,-134.967 275.6,-140.595"/>
</g>
<!-- Node12&#45;&gt;Node4 -->
<g id="edge17" class="edge"><title>Node12&#45;&gt;Node4</title>
<path fill="none" stroke="midnightblue" d="M331.768,-114.7C396.625,-104.022 527.05,-82.5497 588.299,-72.466"/>
<polygon fill="midnightblue" stroke="midnightblue" points="588.91,-75.9126 598.209,-70.8345 587.773,-69.0056 588.91,-75.9126"/>
</g>
<!-- Node13 -->
<g id="node13" class="node"><title>Node13</title>
<polygon fill="white" stroke="#bfbfbf" points="663,-56.5 663,-75.5 712,-75.5 712,-56.5 663,-56.5"/>
<text text-anchor="middle" x="687.5" y="-63.5" font-family="Helvetica,sans-Serif" font-size="10.00">stdint.h</text>
</g>
<!-- Node12&#45;&gt;Node13 -->
<g id="edge16" class="edge"><title>Node12&#45;&gt;Node13</title>
<path fill="none" stroke="midnightblue" d="M331.739,-116.88C407.75,-108.586 576.372,-89.6474 652.585,-75.8814"/>
<polygon fill="midnightblue" stroke="midnightblue" points="653.527,-79.2656 662.707,-73.975 652.232,-72.3866 653.527,-79.2656"/>
</g>
<!-- Node14 -->
<g id="node14" class="node"><title>Node14</title>
<g id="a_node14"><a xlink:href="uthash_8h_source.html" target="_top" xlink:title="uthash.h">
<polygon fill="white" stroke="black" points="217.5,-56.5 217.5,-75.5 271.5,-75.5 271.5,-56.5 217.5,-56.5"/>
<text text-anchor="middle" x="244.5" y="-63.5" font-family="Helvetica,sans-Serif" font-size="10.00">uthash.h</text>
</a>
</g>
</g>
<!-- Node12&#45;&gt;Node14 -->
<g id="edge18" class="edge"><title>Node12&#45;&gt;Node14</title>
<path fill="none" stroke="midnightblue" d="M285.409,-112.083C278.345,-104.298 267.912,-92.8015 259.351,-83.3665"/>
<polygon fill="midnightblue" stroke="midnightblue" points="261.753,-80.8047 252.441,-75.7511 256.569,-85.5087 261.753,-80.8047"/>
</g>
<!-- Node14&#45;&gt;Node3 -->
<g id="edge19" class="edge"><title>Node14&#45;&gt;Node3</title>
<path fill="none" stroke="midnightblue" d="M263.197,-56.4435C282.444,-47.6356 312.652,-33.8116 334.7,-23.722"/>
<polygon fill="midnightblue" stroke="midnightblue" points="336.253,-26.8603 343.89,-19.5164 333.34,-20.4951 336.253,-26.8603"/>
</g>
<!-- Node14&#45;&gt;Node5 -->
<g id="edge21" class="edge"><title>Node14&#45;&gt;Node5</title>
<path fill="none" stroke="midnightblue" d="M229.076,-56.324C213.96,-47.8215 190.685,-34.7288 173.029,-24.7975"/>
<polygon fill="midnightblue" stroke="midnightblue" points="174.317,-21.5066 163.886,-19.6545 170.886,-27.6077 174.317,-21.5066"/>
</g>
<!-- Node15 -->
<g id="node15" class="node"><title>Node15</title>
<polygon fill="white" stroke="#bfbfbf" points="190.5,-0.5 190.5,-19.5 242.5,-19.5 242.5,-0.5 190.5,-0.5"/>
<text text-anchor="middle" x="216.5" y="-7.5" font-family="Helvetica,sans-Serif" font-size="10.00">stddef.h</text>
</g>
<!-- Node14&#45;&gt;Node15 -->
<g id="edge20" class="edge"><title>Node14&#45;&gt;Node15</title>
<path fill="none" stroke="midnightblue" d="M239.876,-56.083C236.044,-48.6913 230.476,-37.9533 225.735,-28.8111"/>
<polygon fill="midnightblue" stroke="midnightblue" points="228.748,-27.0175 221.038,-19.7511 222.534,-30.2398 228.748,-27.0175"/>
</g>
<!-- Node16 -->
<g id="node16" class="node"><title>Node16</title>
<polygon fill="white" stroke="#bfbfbf" points="261,-0.5 261,-19.5 320,-19.5 320,-0.5 261,-0.5"/>
<text text-anchor="middle" x="290.5" y="-7.5" font-family="Helvetica,sans-Serif" font-size="10.00">inttypes.h</text>
</g>
<!-- Node14&#45;&gt;Node16 -->
<g id="edge22" class="edge"><title>Node14&#45;&gt;Node16</title>
<path fill="none" stroke="midnightblue" d="M252.096,-56.083C258.727,-48.2982 268.521,-36.8015 276.558,-27.3665"/>
<polygon fill="midnightblue" stroke="midnightblue" points="279.225,-29.6332 283.045,-19.7511 273.896,-25.0939 279.225,-29.6332"/>
</g>
<!-- Node17&#45;&gt;Node11 -->
<g id="edge24" class="edge"><title>Node17&#45;&gt;Node11</title>
<path fill="none" stroke="midnightblue" d="M221.335,-224.083C221.204,-217.006 221.016,-206.861 220.852,-197.986"/>
<polygon fill="midnightblue" stroke="midnightblue" points="224.347,-197.685 220.662,-187.751 217.348,-197.814 224.347,-197.685"/>
</g>
<!-- Node18&#45;&gt;Node4 -->
<g id="edge27" class="edge"><title>Node18&#45;&gt;Node4</title>
<path fill="none" stroke="midnightblue" d="M541.75,-224.27C558.464,-207.907 593.531,-170.764 610.5,-132 616.89,-117.403 619.583,-99.4595 620.71,-86.1257"/>
<polygon fill="midnightblue" stroke="midnightblue" points="624.225,-85.9926 621.352,-75.7949 617.239,-85.5588 624.225,-85.9926"/>
</g>
<!-- Node19&#45;&gt;Node3 -->
<g id="edge29" class="edge"><title>Node19&#45;&gt;Node3</title>
<path fill="none" stroke="midnightblue" d="M380.755,-224.297C377.96,-191.633 368.052,-75.8661 364.122,-29.9573"/>
<polygon fill="midnightblue" stroke="midnightblue" points="367.6,-29.5488 363.26,-19.8837 360.626,-30.1458 367.6,-29.5488"/>
</g>
<!-- Node19&#45;&gt;Node5 -->
<g id="edge30" class="edge"><title>Node19&#45;&gt;Node5</title>
<path fill="none" stroke="midnightblue" d="M367.601,-224.27C342.106,-207.908 286.785,-170.765 246.5,-132 211.437,-98.26 177.231,-52.1448 160.012,-27.7386"/>
<polygon fill="midnightblue" stroke="midnightblue" points="162.87,-25.7179 154.278,-19.5187 157.128,-29.7228 162.87,-25.7179"/>
</g>
<!-- Node19&#45;&gt;Node6 -->
<g id="edge31" class="edge"><title>Node19&#45;&gt;Node6</title>
<path fill="none" stroke="midnightblue" d="M396.763,-224.324C411.721,-215.822 434.755,-202.729 452.227,-192.797"/>
<polygon fill="midnightblue" stroke="midnightblue" points="454.31,-195.639 461.274,-187.655 450.851,-189.553 454.31,-195.639"/>
</g>
<!-- Node19&#45;&gt;Node11 -->
<g id="edge32" class="edge"><title>Node19&#45;&gt;Node11</title>
<path fill="none" stroke="midnightblue" d="M356.344,-224.562C329.328,-215.501 286.194,-201.034 255.792,-190.837"/>
<polygon fill="midnightblue" stroke="midnightblue" points="256.605,-187.418 246.011,-187.556 254.379,-194.055 256.605,-187.418"/>
</g>
<!-- Node19&#45;&gt;Node12 -->
<g id="edge33" class="edge"><title>Node19&#45;&gt;Node12</title>
<path fill="none" stroke="midnightblue" d="M375.526,-224.401C366.674,-211.78 349.404,-187.613 333.5,-168 325.6,-158.257 316.317,-147.761 308.683,-139.358"/>
<polygon fill="midnightblue" stroke="midnightblue" points="311.051,-136.761 301.712,-131.758 305.893,-141.493 311.051,-136.761"/>
</g>
<!-- Node20&#45;&gt;Node4 -->
<g id="edge37" class="edge"><title>Node20&#45;&gt;Node4</title>
<path fill="none" stroke="midnightblue" d="M749.282,-113.94C725.195,-105.092 683.534,-89.7881 654.349,-79.0669"/>
<polygon fill="midnightblue" stroke="midnightblue" points="655.189,-75.6468 644.595,-75.4839 652.775,-82.2175 655.189,-75.6468"/>
</g>
<!-- Node20&#45;&gt;Node13 -->
<g id="edge39" class="edge"><title>Node20&#45;&gt;Node13</title>
<path fill="none" stroke="midnightblue" d="M755.486,-112.324C742.968,-103.979 723.818,-91.2122 709.029,-81.3524"/>
<polygon fill="midnightblue" stroke="midnightblue" points="710.744,-78.2894 700.482,-75.6545 706.861,-84.1137 710.744,-78.2894"/>
</g>
<!-- Node21 -->
<g id="node21" class="node"><title>Node21</title>
<polygon fill="white" stroke="#bfbfbf" points="730,-56.5 730,-75.5 779,-75.5 779,-56.5 730,-56.5"/>
<text text-anchor="middle" x="754.5" y="-63.5" font-family="Helvetica,sans-Serif" font-size="10.00">ctype.h</text>
</g>
<!-- Node20&#45;&gt;Node21 -->
<g id="edge36" class="edge"><title>Node20&#45;&gt;Node21</title>
<path fill="none" stroke="midnightblue" d="M766.188,-112.083C764.333,-104.927 761.665,-94.6353 759.346,-85.6911"/>
<polygon fill="midnightblue" stroke="midnightblue" points="762.666,-84.5527 756.769,-75.7511 755.891,-86.3094 762.666,-84.5527"/>
</g>
<!-- Node22 -->
<g id="node22" class="node"><title>Node22</title>
<polygon fill="white" stroke="#bfbfbf" points="797.5,-56.5 797.5,-75.5 841.5,-75.5 841.5,-56.5 797.5,-56.5"/>
<text text-anchor="middle" x="819.5" y="-63.5" font-family="Helvetica,sans-Serif" font-size="10.00">time.h</text>
</g>
<!-- Node20&#45;&gt;Node22 -->
<g id="edge38" class="edge"><title>Node20&#45;&gt;Node22</title>
<path fill="none" stroke="midnightblue" d="M776.922,-112.083C784.348,-104.22 795.352,-92.5688 804.312,-83.0813"/>
<polygon fill="midnightblue" stroke="midnightblue" points="806.913,-85.4244 811.235,-75.7511 801.824,-80.618 806.913,-85.4244"/>
</g>
<!-- Node23&#45;&gt;Node4 -->
<g id="edge41" class="edge"><title>Node23&#45;&gt;Node4</title>
<path fill="none" stroke="midnightblue" d="M667.97,-168.174C668.32,-155.27 667.693,-130.754 659.5,-112 654.711,-101.037 646.362,-90.6951 638.707,-82.6968"/>
<polygon fill="midnightblue" stroke="midnightblue" points="641.023,-80.0654 631.442,-75.5435 636.112,-85.0535 641.023,-80.0654"/>
</g>
<!-- Node25 -->
<g id="node25" class="node"><title>Node25</title>
<g id="a_node25"><a xlink:href="receptor_8h.html" target="_top" xlink:title="receptor implementation header file ">
<polygon fill="white" stroke="black" points="189.5,-392.5 189.5,-411.5 249.5,-411.5 249.5,-392.5 189.5,-392.5"/>
<text text-anchor="middle" x="219.5" y="-399.5" font-family="Helvetica,sans-Serif" font-size="10.00">receptor.h</text>
</a>
</g>
</g>
<!-- Node24&#45;&gt;Node25 -->
<g id="edge43" class="edge"><title>Node24&#45;&gt;Node25</title>
<path fill="none" stroke="midnightblue" d="M219.5,-448.083C219.5,-441.006 219.5,-430.861 219.5,-421.986"/>
<polygon fill="midnightblue" stroke="midnightblue" points="223,-421.751 219.5,-411.751 216,-421.751 223,-421.751"/>
</g>
<!-- Node25&#45;&gt;Node10 -->
<g id="edge44" class="edge"><title>Node25&#45;&gt;Node10</title>
<path fill="none" stroke="midnightblue" d="M208.578,-392.197C194.996,-380.105 174.513,-357.412 182.5,-336 186.673,-324.812 195.02,-314.56 202.924,-306.676"/>
<polygon fill="midnightblue" stroke="midnightblue" points="205.562,-309.003 210.51,-299.635 200.799,-303.872 205.562,-309.003"/>
</g>
<!-- Node26 -->
<g id="node26" class="node"><title>Node26</title>
<g id="a_node26"><a xlink:href="def_8h.html" target="_top" xlink:title="header file for symbol and structure definition functions ">
<polygon fill="white" stroke="black" points="97.5,-336.5 97.5,-355.5 135.5,-355.5 135.5,-336.5 97.5,-336.5"/>
<text text-anchor="middle" x="116.5" y="-343.5" font-family="Helvetica,sans-Serif" font-size="10.00">def.h</text>
</a>
</g>
</g>
<!-- Node25&#45;&gt;Node26 -->
<g id="edge45" class="edge"><title>Node25&#45;&gt;Node26</title>
<path fill="none" stroke="midnightblue" d="M202.951,-392.324C186.508,-383.703 161.065,-370.364 142.032,-360.386"/>
<polygon fill="midnightblue" stroke="midnightblue" points="143.489,-357.198 133.008,-355.655 140.239,-363.398 143.489,-357.198"/>
</g>
<!-- Node28 -->
<g id="node28" class="node"><title>Node28</title>
<g id="a_node28"><a xlink:href="label_8h.html" target="_top" xlink:title="Label tables map human readable text strings to parts of semantic trees. ">
<polygon fill="white" stroke="black" points="0,-280.5 0,-299.5 45,-299.5 45,-280.5 0,-280.5"/>
<text text-anchor="middle" x="22.5" y="-287.5" font-family="Helvetica,sans-Serif" font-size="10.00">label.h</text>
</a>
</g>
</g>
<!-- Node25&#45;&gt;Node28 -->
<g id="edge48" class="edge"><title>Node25&#45;&gt;Node28</title>
<path fill="none" stroke="midnightblue" d="M189.484,-394.74C161.797,-388.057 120.294,-375.683 88.5,-356 67.4676,-342.979 47.8832,-322.14 35.5995,-307.578"/>
<polygon fill="midnightblue" stroke="midnightblue" points="38.3005,-305.352 29.2548,-299.836 32.8863,-309.789 38.3005,-305.352"/>
</g>
<!-- Node29 -->
<g id="node29" class="node"><title>Node29</title>
<g id="a_node29"><a xlink:href="process_8h.html" target="_top" xlink:title="processing header files ">
<polygon fill="white" stroke="black" points="192,-336.5 192,-355.5 251,-355.5 251,-336.5 192,-336.5"/>
<text text-anchor="middle" x="221.5" y="-343.5" font-family="Helvetica,sans-Serif" font-size="10.00">process.h</text>
</a>
</g>
</g>
<!-- Node25&#45;&gt;Node29 -->
<g id="edge50" class="edge"><title>Node25&#45;&gt;Node29</title>
<path fill="none" stroke="midnightblue" d="M219.83,-392.083C220.092,-385.006 220.468,-374.861 220.797,-365.986"/>
<polygon fill="midnightblue" stroke="midnightblue" points="224.303,-365.874 221.176,-355.751 217.308,-365.615 224.303,-365.874"/>
</g>
<!-- Node30 -->
<g id="node30" class="node"><title>Node30</title>
<g id="a_node30"><a xlink:href="scape_8h.html" target="_top" xlink:title="scape header files ">
<polygon fill="white" stroke="black" points="269,-336.5 269,-355.5 320,-355.5 320,-336.5 269,-336.5"/>
<text text-anchor="middle" x="294.5" y="-343.5" font-family="Helvetica,sans-Serif" font-size="10.00">scape.h</text>
</a>
</g>
</g>
<!-- Node25&#45;&gt;Node30 -->
<g id="edge52" class="edge"><title>Node25&#45;&gt;Node30</title>
<path fill="none" stroke="midnightblue" d="M231.55,-392.324C242.963,-384.107 260.331,-371.602 273.935,-361.807"/>
<polygon fill="midnightblue" stroke="midnightblue" points="276.16,-364.517 282.231,-355.834 272.07,-358.837 276.16,-364.517"/>
</g>
<!-- Node26&#45;&gt;Node10 -->
<g id="edge46" class="edge"><title>Node26&#45;&gt;Node10</title>
<path fill="none" stroke="midnightblue" d="M133.37,-336.324C150.209,-327.664 176.307,-314.242 195.738,-304.249"/>
<polygon fill="midnightblue" stroke="midnightblue" points="197.38,-307.341 204.672,-299.655 194.178,-301.116 197.38,-307.341"/>
</g>
<!-- Node27 -->
<g id="node27" class="node"><title>Node27</title>
<polygon fill="white" stroke="#bfbfbf" points="90.5,-280.5 90.5,-299.5 142.5,-299.5 142.5,-280.5 90.5,-280.5"/>
<text text-anchor="middle" x="116.5" y="-287.5" font-family="Helvetica,sans-Serif" font-size="10.00">stdarg.h</text>
</g>
<!-- Node26&#45;&gt;Node27 -->
<g id="edge47" class="edge"><title>Node26&#45;&gt;Node27</title>
<path fill="none" stroke="midnightblue" d="M116.5,-336.083C116.5,-329.006 116.5,-318.861 116.5,-309.986"/>
<polygon fill="midnightblue" stroke="midnightblue" points="120,-309.751 116.5,-299.751 113,-309.751 120,-309.751"/>
</g>
<!-- Node28&#45;&gt;Node12 -->
<g id="edge49" class="edge"><title>Node28&#45;&gt;Node12</title>
<path fill="none" stroke="midnightblue" d="M31.6682,-280.324C54.7361,-258.86 117.694,-202.521 178.5,-168 202.861,-154.169 232.314,-142.734 255.313,-134.852"/>
<polygon fill="midnightblue" stroke="midnightblue" points="256.69,-138.082 265.063,-131.59 254.469,-131.444 256.69,-138.082"/>
</g>
<!-- Node29&#45;&gt;Node10 -->
<g id="edge51" class="edge"><title>Node29&#45;&gt;Node10</title>
<path fill="none" stroke="midnightblue" d="M221.5,-336.083C221.5,-329.006 221.5,-318.861 221.5,-309.986"/>
<polygon fill="midnightblue" stroke="midnightblue" points="225,-309.751 221.5,-299.751 218,-309.751 225,-309.751"/>
</g>
<!-- Node30&#45;&gt;Node10 -->
<g id="edge53" class="edge"><title>Node30&#45;&gt;Node10</title>
<path fill="none" stroke="midnightblue" d="M282.771,-336.324C271.663,-328.107 254.758,-315.602 241.517,-305.807"/>
<polygon fill="midnightblue" stroke="midnightblue" points="243.563,-302.967 233.442,-299.834 239.4,-308.595 243.563,-302.967"/>
</g>
<!-- Node31&#45;&gt;Node2 -->
<g id="edge55" class="edge"><title>Node31&#45;&gt;Node2</title>
<path fill="none" stroke="midnightblue" d="M330.047,-448.209C344.802,-434.914 374.388,-409.402 402.5,-392 423.119,-379.236 447.94,-367.692 467.177,-359.492"/>
<polygon fill="midnightblue" stroke="midnightblue" points="468.528,-362.721 476.403,-355.633 465.827,-356.264 468.528,-362.721"/>
</g>
<!-- Node31&#45;&gt;Node25 -->
<g id="edge56" class="edge"><title>Node31&#45;&gt;Node25</title>
<path fill="none" stroke="midnightblue" d="M304.273,-448.324C288.149,-439.703 263.2,-426.364 244.536,-416.386"/>
<polygon fill="midnightblue" stroke="midnightblue" points="246.156,-413.283 235.687,-411.655 242.856,-419.456 246.156,-413.283"/>
</g>
<!-- Node31&#45;&gt;Node26 -->
<g id="edge57" class="edge"><title>Node31&#45;&gt;Node26</title>
<path fill="none" stroke="midnightblue" d="M278.748,-449.129C249.671,-442.362 210.824,-430.678 180.5,-412 159.954,-399.344 141.192,-378.726 129.37,-364.108"/>
<polygon fill="midnightblue" stroke="midnightblue" points="131.871,-361.624 122.952,-355.906 126.359,-365.938 131.871,-361.624"/>
</g>
<!-- Node32 -->
<g id="node32" class="node"><title>Node32</title>
<g id="a_node32"><a xlink:href="semtrex_8h.html" target="_top" xlink:title="Semantic tree regular expression header file. ">
<polygon fill="white" stroke="black" points="269.5,-392.5 269.5,-411.5 355.5,-411.5 355.5,-392.5 269.5,-392.5"/>
<text text-anchor="middle" x="312.5" y="-399.5" font-family="Helvetica,sans-Serif" font-size="10.00">../src/semtrex.h</text>
</a>
</g>
</g>
<!-- Node31&#45;&gt;Node32 -->
<g id="edge58" class="edge"><title>Node31&#45;&gt;Node32</title>
<path fill="none" stroke="midnightblue" d="M319.179,-448.083C318.119,-440.927 316.594,-430.635 315.269,-421.691"/>
<polygon fill="midnightblue" stroke="midnightblue" points="318.724,-421.13 313.796,-411.751 311.8,-422.156 318.724,-421.13"/>
</g>
<!-- Node33 -->
<g id="node33" class="node"><title>Node33</title>
<g id="a_node33"><a xlink:href="spec__utils_8h.html" target="_top" xlink:title="spec_utils.h">
<polygon fill="white" stroke="black" points="412,-392.5 412,-411.5 481,-411.5 481,-392.5 412,-392.5"/>
<text text-anchor="middle" x="446.5" y="-399.5" font-family="Helvetica,sans-Serif" font-size="10.00">spec_utils.h</text>
</a>
</g>
</g>
<!-- Node31&#45;&gt;Node33 -->
<g id="edge60" class="edge"><title>Node31&#45;&gt;Node33</title>
<path fill="none" stroke="midnightblue" d="M340.465,-448.444C361.109,-439.596 393.563,-425.687 417.132,-415.586"/>
<polygon fill="midnightblue" stroke="midnightblue" points="418.816,-418.673 426.628,-411.516 416.058,-412.239 418.816,-418.673"/>
</g>
<!-- Node32&#45;&gt;Node10 -->
<g id="edge59" class="edge"><title>Node32&#45;&gt;Node10</title>
<path fill="none" stroke="midnightblue" d="M318.672,-392.263C327.179,-379.039 340.203,-353.618 328.5,-336 319.612,-322.62 280.298,-308.453 251.901,-299.668"/>
<polygon fill="midnightblue" stroke="midnightblue" points="252.593,-296.222 242.009,-296.687 250.573,-302.924 252.593,-296.222"/>
</g>
<!-- Node33&#45;&gt;Node2 -->
<g id="edge61" class="edge"><title>Node33&#45;&gt;Node2</title>
<path fill="none" stroke="midnightblue" d="M455.087,-392.083C462.659,-384.22 473.878,-372.569 483.014,-363.081"/>
<polygon fill="midnightblue" stroke="midnightblue" points="485.658,-365.382 490.073,-355.751 480.615,-360.527 485.658,-365.382"/>
</g>
</g>
</svg>
