<?xml version="1.0" encoding="UTF-8" standalone="no"?>
<!DOCTYPE svg PUBLIC "-//W3C//DTD SVG 1.1//EN"
 "http://www.w3.org/Graphics/SVG/1.1/DTD/svg11.dtd">
<!-- Generated by graphviz version 2.38.0 (20140413.2041)
 -->
<!-- Title: src/vmhost.c Pages: 1 -->
<!--zoomable 588 -->
<svg id="main" version="1.1" xmlns="http://www.w3.org/2000/svg" xmlns:xlink="http://www.w3.org/1999/xlink" xml:space="preserve" onload="init(evt)">
<style type="text/css"><![CDATA[
.edge:hover path { stroke: red; }
.edge:hover polygon { stroke: red; fill: red; }
]]></style>
<script type="text/javascript"><![CDATA[
var edges = document.getElementsByTagName('g');
if (edges && edges.length) {
  for (var i=0;i<edges.length;i++) {
    if (edges[i].id.substr(0,4)=='edge') {
      edges[i].setAttribute('class','edge');
    }
  }
}
]]></script>
        <defs>
                <circle id="rim" cx="0" cy="0" r="7"/>
                <circle id="rim2" cx="0" cy="0" r="3.5"/>
                <g id="zoomPlus">
                        <use xlink:href="#rim" fill="#404040">
                                <set attributeName="fill" to="#808080" begin="zoomplus.mouseover" end="zoomplus.mouseout"/>
                        </use>
                        <path d="M-4,0h8M0,-4v8" fill="none" stroke="white" stroke-width="1.5" pointer-events="none"/>
                </g>
                <g id="zoomMin">
                        <use xlink:href="#rim" fill="#404040">
                                <set attributeName="fill" to="#808080" begin="zoomminus.mouseover" end="zoomminus.mouseout"/>
                        </use>
                        <path d="M-4,0h8" fill="none" stroke="white" stroke-width="1.5" pointer-events="none"/>
                </g>
                <g id="dirArrow">
                        <path fill="none" stroke="white" stroke-width="1.5" d="M0,-3.0v7 M-2.5,-0.5L0,-3.0L2.5,-0.5"/>
                </g>
               <g id="resetDef">
                       <use xlink:href="#rim2" fill="#404040">
                               <set attributeName="fill" to="#808080" begin="reset.mouseover" end="reset.mouseout"/>
                       </use>
               </g>
        </defs>

<script type="text/javascript">
var viewWidth = 606;
var viewHeight = 588;
var sectionId = 'dynsection-0';
</script>
<script xlink:href="svgpan.js"/>
<svg id="graph" class="graph">
<g id="viewport">
<title>src/vmhost.c</title>
<polygon fill="white" stroke="none" points="-4,4 -4,-584 602,-584 602,4 -4,4"/>
<!-- Node1 -->
<g id="node1" class="node"><title>Node1</title>
<polygon fill="#bfbfbf" stroke="black" points="328,-560.5 328,-579.5 402,-579.5 402,-560.5 328,-560.5"/>
<text text-anchor="middle" x="365" y="-567.5" font-family="Helvetica,sans-Serif" font-size="10.00">src/vmhost.c</text>
</g>
<!-- Node2 -->
<g id="node2" class="node"><title>Node2</title>
<g id="a_node2"><a xlink:href="vmhost_8h.html" target="_top" xlink:title="vmhost implementation header file ">
<polygon fill="white" stroke="black" points="269.5,-448.5 269.5,-467.5 326.5,-467.5 326.5,-448.5 269.5,-448.5"/>
<text text-anchor="middle" x="298" y="-455.5" font-family="Helvetica,sans-Serif" font-size="10.00">vmhost.h</text>
</a>
</g>
</g>
<!-- Node1&#45;&gt;Node2 -->
<g id="edge1" class="edge"><title>Node1&#45;&gt;Node2</title>
<path fill="none" stroke="midnightblue" d="M352.598,-560.399C341.709,-552.228 326.21,-538.987 317,-524 308.248,-509.757 303.357,-491.284 300.737,-477.673"/>
<polygon fill="midnightblue" stroke="midnightblue" points="304.15,-476.863 299.037,-467.584 297.248,-478.026 304.15,-476.863"/>
</g>
<!-- Node4 -->
<g id="node4" class="node"><title>Node4</title>
<g id="a_node4"><a xlink:href="tree_8h.html" target="_top" xlink:title="semantic trees header file ">
<polygon fill="white" stroke="black" points="243.5,-280.5 243.5,-299.5 284.5,-299.5 284.5,-280.5 243.5,-280.5"/>
<text text-anchor="middle" x="264" y="-287.5" font-family="Helvetica,sans-Serif" font-size="10.00">tree.h</text>
</a>
</g>
</g>
<!-- Node1&#45;&gt;Node4 -->
<g id="edge36" class="edge"><title>Node1&#45;&gt;Node4</title>
<path fill="none" stroke="midnightblue" d="M379.37,-560.33C390.88,-552.469 406.189,-539.722 413,-524 447.51,-444.342 417.878,-400.703 360,-336 342.81,-316.783 315.689,-305.123 294.652,-298.503"/>
<polygon fill="midnightblue" stroke="midnightblue" points="295.464,-295.094 284.883,-295.648 293.5,-301.813 295.464,-295.094"/>
</g>
<!-- Node27 -->
<g id="node27" class="node"><title>Node27</title>
<g id="a_node27"><a xlink:href="accumulator_8h.html" target="_top" xlink:title="header file for the accumulator ">
<polygon fill="white" stroke="black" points="326,-504.5 326,-523.5 404,-523.5 404,-504.5 326,-504.5"/>
<text text-anchor="middle" x="365" y="-511.5" font-family="Helvetica,sans-Serif" font-size="10.00">accumulator.h</text>
</a>
</g>
</g>
<!-- Node1&#45;&gt;Node27 -->
<g id="edge37" class="edge"><title>Node1&#45;&gt;Node27</title>
<path fill="none" stroke="midnightblue" d="M365,-560.083C365,-553.006 365,-542.861 365,-533.986"/>
<polygon fill="midnightblue" stroke="midnightblue" points="368.5,-533.751 365,-523.751 361.5,-533.751 368.5,-533.751"/>
</g>
<!-- Node3 -->
<g id="node3" class="node"><title>Node3</title>
<g id="a_node3"><a xlink:href="receptor_8h.html" target="_top" xlink:title="receptor implementation header file ">
<polygon fill="white" stroke="black" points="187,-392.5 187,-411.5 247,-411.5 247,-392.5 187,-392.5"/>
<text text-anchor="middle" x="217" y="-399.5" font-family="Helvetica,sans-Serif" font-size="10.00">receptor.h</text>
</a>
</g>
</g>
<!-- Node2&#45;&gt;Node3 -->
<g id="edge2" class="edge"><title>Node2&#45;&gt;Node3</title>
<path fill="none" stroke="midnightblue" d="M284.986,-448.324C272.468,-439.979 253.318,-427.212 238.529,-417.352"/>
<polygon fill="midnightblue" stroke="midnightblue" points="240.244,-414.289 229.982,-411.655 236.361,-420.114 240.244,-414.289"/>
</g>
<!-- Node3&#45;&gt;Node4 -->
<g id="edge3" class="edge"><title>Node3&#45;&gt;Node4</title>
<path fill="none" stroke="midnightblue" d="M220.688,-392.368C228.341,-374.456 246.087,-332.923 256.331,-308.948"/>
<polygon fill="midnightblue" stroke="midnightblue" points="259.618,-310.162 260.329,-299.591 253.181,-307.412 259.618,-310.162"/>
</g>
<!-- Node22 -->
<g id="node22" class="node"><title>Node22</title>
<g id="a_node22"><a xlink:href="def_8h.html" target="_top" xlink:title="header file for symbol and structure definition functions ">
<polygon fill="white" stroke="black" points="108,-336.5 108,-355.5 146,-355.5 146,-336.5 108,-336.5"/>
<text text-anchor="middle" x="127" y="-343.5" font-family="Helvetica,sans-Serif" font-size="10.00">def.h</text>
</a>
</g>
</g>
<!-- Node3&#45;&gt;Node22 -->
<g id="edge27" class="edge"><title>Node3&#45;&gt;Node22</title>
<path fill="none" stroke="midnightblue" d="M202.54,-392.324C188.5,-383.9 166.952,-370.971 150.457,-361.074"/>
<polygon fill="midnightblue" stroke="midnightblue" points="151.8,-357.798 141.424,-355.655 148.198,-363.801 151.8,-357.798"/>
</g>
<!-- Node24 -->
<g id="node24" class="node"><title>Node24</title>
<g id="a_node24"><a xlink:href="label_8h.html" target="_top" xlink:title="Label tables map human readable text strings to parts of semantic trees. ">
<polygon fill="white" stroke="black" points="57.5,-280.5 57.5,-299.5 102.5,-299.5 102.5,-280.5 57.5,-280.5"/>
<text text-anchor="middle" x="80" y="-287.5" font-family="Helvetica,sans-Serif" font-size="10.00">label.h</text>
</a>
</g>
</g>
<!-- Node3&#45;&gt;Node24 -->
<g id="edge30" class="edge"><title>Node3&#45;&gt;Node24</title>
<path fill="none" stroke="midnightblue" d="M186.896,-397.126C160.199,-392.128 121.977,-380.891 99,-356 87.422,-343.457 82.8653,-324.234 81.0899,-309.943"/>
<polygon fill="midnightblue" stroke="midnightblue" points="84.5564,-309.41 80.1814,-299.761 77.5841,-310.032 84.5564,-309.41"/>
</g>
<!-- Node25 -->
<g id="node25" class="node"><title>Node25</title>
<g id="a_node25"><a xlink:href="process_8h.html" target="_top" xlink:title="processing header files ">
<polygon fill="white" stroke="black" points="272.5,-336.5 272.5,-355.5 331.5,-355.5 331.5,-336.5 272.5,-336.5"/>
<text text-anchor="middle" x="302" y="-343.5" font-family="Helvetica,sans-Serif" font-size="10.00">process.h</text>
</a>
</g>
</g>
<!-- Node3&#45;&gt;Node25 -->
<g id="edge32" class="edge"><title>Node3&#45;&gt;Node25</title>
<path fill="none" stroke="midnightblue" d="M230.657,-392.324C243.916,-383.9 264.268,-370.971 279.846,-361.074"/>
<polygon fill="midnightblue" stroke="midnightblue" points="281.813,-363.971 288.377,-355.655 278.06,-358.063 281.813,-363.971"/>
</g>
<!-- Node26 -->
<g id="node26" class="node"><title>Node26</title>
<g id="a_node26"><a xlink:href="scape_8h.html" target="_top" xlink:title="scape header files ">
<polygon fill="white" stroke="black" points="164.5,-336.5 164.5,-355.5 215.5,-355.5 215.5,-336.5 164.5,-336.5"/>
<text text-anchor="middle" x="190" y="-343.5" font-family="Helvetica,sans-Serif" font-size="10.00">scape.h</text>
</a>
</g>
</g>
<!-- Node3&#45;&gt;Node26 -->
<g id="edge34" class="edge"><title>Node3&#45;&gt;Node26</title>
<path fill="none" stroke="midnightblue" d="M212.541,-392.083C208.846,-384.691 203.477,-373.953 198.906,-364.811"/>
<polygon fill="midnightblue" stroke="midnightblue" points="201.978,-363.13 194.376,-355.751 195.717,-366.261 201.978,-363.13"/>
</g>
<!-- Node5 -->
<g id="node5" class="node"><title>Node5</title>
<polygon fill="white" stroke="#bfbfbf" points="147.5,-0.5 147.5,-19.5 196.5,-19.5 196.5,-0.5 147.5,-0.5"/>
<text text-anchor="middle" x="172" y="-7.5" font-family="Helvetica,sans-Serif" font-size="10.00">string.h</text>
</g>
<!-- Node4&#45;&gt;Node5 -->
<g id="edge4" class="edge"><title>Node4&#45;&gt;Node5</title>
<path fill="none" stroke="midnightblue" d="M243.397,-283.405C188.88,-267.995 45,-223.143 45,-179 45,-179 45,-179 45,-121 45,-90.9022 43.9243,-78.4242 64,-56 74.1965,-44.6107 109.737,-31.0582 137.295,-21.8233"/>
<polygon fill="midnightblue" stroke="midnightblue" points="138.616,-25.0735 147.025,-18.6284 136.432,-18.4229 138.616,-25.0735"/>
</g>
<!-- Node6 -->
<g id="node6" class="node"><title>Node6</title>
<polygon fill="white" stroke="#bfbfbf" points="536,-0.5 536,-19.5 584,-19.5 584,-0.5 536,-0.5"/>
<text text-anchor="middle" x="560" y="-7.5" font-family="Helvetica,sans-Serif" font-size="10.00">stdlib.h</text>
</g>
<!-- Node4&#45;&gt;Node6 -->
<g id="edge5" class="edge"><title>Node4&#45;&gt;Node6</title>
<path fill="none" stroke="midnightblue" d="M284.641,-286.76C357.461,-278.296 598,-245.315 598,-179 598,-179 598,-179 598,-121 598,-86.8131 581.4,-49.7639 570.143,-28.5707"/>
<polygon fill="midnightblue" stroke="midnightblue" points="573.181,-26.832 565.284,-19.769 567.053,-30.2151 573.181,-26.832"/>
</g>
<!-- Node7 -->
<g id="node7" class="node"><title>Node7</title>
<g id="a_node7"><a xlink:href="ceptr__error_8h_source.html" target="_top" xlink:title="ceptr_error.h">
<polygon fill="white" stroke="black" points="386.5,-168.5 386.5,-187.5 457.5,-187.5 457.5,-168.5 386.5,-168.5"/>
<text text-anchor="middle" x="422" y="-175.5" font-family="Helvetica,sans-Serif" font-size="10.00">ceptr_error.h</text>
</a>
</g>
</g>
<!-- Node4&#45;&gt;Node7 -->
<g id="edge6" class="edge"><title>Node4&#45;&gt;Node7</title>
<path fill="none" stroke="midnightblue" d="M276.398,-280.368C303.395,-261.573 367.751,-216.768 401.125,-193.533"/>
<polygon fill="midnightblue" stroke="midnightblue" points="403.452,-196.178 409.66,-187.591 399.453,-190.433 403.452,-196.178"/>
</g>
<!-- Node12 -->
<g id="node12" class="node"><title>Node12</title>
<g id="a_node12"><a xlink:href="sys__defs_8h.html" target="_top" xlink:title="Defines types and vars for system defined semantics. ">
<polygon fill="white" stroke="black" points="264.5,-168.5 264.5,-187.5 329.5,-187.5 329.5,-168.5 264.5,-168.5"/>
<text text-anchor="middle" x="297" y="-175.5" font-family="Helvetica,sans-Serif" font-size="10.00">sys_defs.h</text>
</a>
</g>
</g>
<!-- Node4&#45;&gt;Node12 -->
<g id="edge11" class="edge"><title>Node4&#45;&gt;Node12</title>
<path fill="none" stroke="midnightblue" d="M276.781,-280.369C287.394,-272.36 301.731,-259.379 308,-244 314.136,-228.947 310.078,-210.589 305.248,-197.227"/>
<polygon fill="midnightblue" stroke="midnightblue" points="308.399,-195.685 301.389,-187.741 301.915,-198.323 308.399,-195.685"/>
</g>
<!-- Node13 -->
<g id="node13" class="node"><title>Node13</title>
<g id="a_node13"><a xlink:href="ceptr__types_8h_source.html" target="_top" xlink:title="ceptr_types.h">
<polygon fill="white" stroke="black" points="132,-112.5 132,-131.5 208,-131.5 208,-112.5 132,-112.5"/>
<text text-anchor="middle" x="170" y="-119.5" font-family="Helvetica,sans-Serif" font-size="10.00">ceptr_types.h</text>
</a>
</g>
</g>
<!-- Node4&#45;&gt;Node13 -->
<g id="edge23" class="edge"><title>Node4&#45;&gt;Node13</title>
<path fill="none" stroke="midnightblue" d="M243.453,-287.578C216.326,-284.502 169.284,-274.772 146,-244 125.574,-217.006 131.443,-200.474 141,-168 144.012,-157.765 150.155,-147.66 156.014,-139.627"/>
<polygon fill="midnightblue" stroke="midnightblue" points="158.932,-141.577 162.327,-131.541 153.414,-137.269 158.932,-141.577"/>
</g>
<!-- Node19 -->
<g id="node19" class="node"><title>Node19</title>
<g id="a_node19"><a xlink:href="base__defs_8h.html" target="_top" xlink:title="auto&#45;generated system definitions ">
<polygon fill="white" stroke="black" points="229,-224.5 229,-243.5 299,-243.5 299,-224.5 229,-224.5"/>
<text text-anchor="middle" x="264" y="-231.5" font-family="Helvetica,sans-Serif" font-size="10.00">base_defs.h</text>
</a>
</g>
</g>
<!-- Node4&#45;&gt;Node19 -->
<g id="edge21" class="edge"><title>Node4&#45;&gt;Node19</title>
<path fill="none" stroke="midnightblue" d="M264,-280.083C264,-273.006 264,-262.861 264,-253.986"/>
<polygon fill="midnightblue" stroke="midnightblue" points="267.5,-253.751 264,-243.751 260.5,-253.751 267.5,-253.751"/>
</g>
<!-- Node20 -->
<g id="node20" class="node"><title>Node20</title>
<g id="a_node20"><a xlink:href="stream_8h.html" target="_top" xlink:title="streams abstraction header file ">
<polygon fill="white" stroke="black" points="155.5,-224.5 155.5,-243.5 210.5,-243.5 210.5,-224.5 155.5,-224.5"/>
<text text-anchor="middle" x="183" y="-231.5" font-family="Helvetica,sans-Serif" font-size="10.00">stream.h</text>
</a>
</g>
</g>
<!-- Node4&#45;&gt;Node20 -->
<g id="edge24" class="edge"><title>Node4&#45;&gt;Node20</title>
<path fill="none" stroke="midnightblue" d="M250.986,-280.324C238.468,-271.979 219.318,-259.212 204.529,-249.352"/>
<polygon fill="midnightblue" stroke="midnightblue" points="206.244,-246.289 195.982,-243.655 202.361,-252.114 206.244,-246.289"/>
</g>
<!-- Node8 -->
<g id="node8" class="node"><title>Node8</title>
<polygon fill="white" stroke="#bfbfbf" points="287,-56.5 287,-75.5 333,-75.5 333,-56.5 287,-56.5"/>
<text text-anchor="middle" x="310" y="-63.5" font-family="Helvetica,sans-Serif" font-size="10.00">stdio.h</text>
</g>
<!-- Node7&#45;&gt;Node8 -->
<g id="edge7" class="edge"><title>Node7&#45;&gt;Node8</title>
<path fill="none" stroke="midnightblue" d="M386.459,-169.44C352.229,-161.352 304.057,-147.567 293,-132 283.012,-117.938 290.235,-98.4329 298.119,-84.4654"/>
<polygon fill="midnightblue" stroke="midnightblue" points="301.186,-86.1592 303.478,-75.8152 295.236,-82.4722 301.186,-86.1592"/>
</g>
<!-- Node9 -->
<g id="node9" class="node"><title>Node9</title>
<polygon fill="white" stroke="#bfbfbf" points="302,-112.5 302,-131.5 352,-131.5 352,-112.5 302,-112.5"/>
<text text-anchor="middle" x="327" y="-119.5" font-family="Helvetica,sans-Serif" font-size="10.00">signal.h</text>
</g>
<!-- Node7&#45;&gt;Node9 -->
<g id="edge8" class="edge"><title>Node7&#45;&gt;Node9</title>
<path fill="none" stroke="midnightblue" d="M406.737,-168.324C391.779,-159.822 368.745,-146.729 351.273,-136.797"/>
<polygon fill="midnightblue" stroke="midnightblue" points="352.649,-133.553 342.226,-131.655 349.19,-139.639 352.649,-133.553"/>
</g>
<!-- Node10 -->
<g id="node10" class="node"><title>Node10</title>
<polygon fill="white" stroke="#bfbfbf" points="370,-112.5 370,-131.5 422,-131.5 422,-112.5 370,-112.5"/>
<text text-anchor="middle" x="396" y="-119.5" font-family="Helvetica,sans-Serif" font-size="10.00">assert.h</text>
</g>
<!-- Node7&#45;&gt;Node10 -->
<g id="edge9" class="edge"><title>Node7&#45;&gt;Node10</title>
<path fill="none" stroke="midnightblue" d="M417.707,-168.083C414.148,-160.691 408.978,-149.953 404.576,-140.811"/>
<polygon fill="midnightblue" stroke="midnightblue" points="407.705,-139.243 400.213,-131.751 401.398,-142.279 407.705,-139.243"/>
</g>
<!-- Node11 -->
<g id="node11" class="node"><title>Node11</title>
<polygon fill="white" stroke="#bfbfbf" points="440,-112.5 440,-131.5 494,-131.5 494,-112.5 440,-112.5"/>
<text text-anchor="middle" x="467" y="-119.5" font-family="Helvetica,sans-Serif" font-size="10.00">setjmp.h</text>
</g>
<!-- Node7&#45;&gt;Node11 -->
<g id="edge10" class="edge"><title>Node7&#45;&gt;Node11</title>
<path fill="none" stroke="midnightblue" d="M429.431,-168.083C435.853,-160.377 445.306,-149.033 453.122,-139.653"/>
<polygon fill="midnightblue" stroke="midnightblue" points="455.994,-141.674 459.707,-131.751 450.617,-137.193 455.994,-141.674"/>
</g>
<!-- Node12&#45;&gt;Node13 -->
<g id="edge12" class="edge"><title>Node12&#45;&gt;Node13</title>
<path fill="none" stroke="midnightblue" d="M276.876,-168.444C255.976,-159.557 223.065,-145.563 199.284,-135.451"/>
<polygon fill="midnightblue" stroke="midnightblue" points="200.602,-132.208 190.029,-131.516 197.862,-138.65 200.602,-132.208"/>
</g>
<!-- Node13&#45;&gt;Node8 -->
<g id="edge14" class="edge"><title>Node13&#45;&gt;Node8</title>
<path fill="none" stroke="midnightblue" d="M192.183,-112.444C215.428,-103.478 252.149,-89.314 278.415,-79.1827"/>
<polygon fill="midnightblue" stroke="midnightblue" points="279.85,-82.3807 287.92,-75.5164 277.331,-75.8497 279.85,-82.3807"/>
</g>
<!-- Node14 -->
<g id="node14" class="node"><title>Node14</title>
<polygon fill="white" stroke="#bfbfbf" points="145.5,-56.5 145.5,-75.5 194.5,-75.5 194.5,-56.5 145.5,-56.5"/>
<text text-anchor="middle" x="170" y="-63.5" font-family="Helvetica,sans-Serif" font-size="10.00">stdint.h</text>
</g>
<!-- Node13&#45;&gt;Node14 -->
<g id="edge13" class="edge"><title>Node13&#45;&gt;Node14</title>
<path fill="none" stroke="midnightblue" d="M170,-112.083C170,-105.006 170,-94.8611 170,-85.9865"/>
<polygon fill="midnightblue" stroke="midnightblue" points="173.5,-85.751 170,-75.7511 166.5,-85.7511 173.5,-85.751"/>
</g>
<!-- Node15 -->
<g id="node15" class="node"><title>Node15</title>
<g id="a_node15"><a xlink:href="uthash_8h_source.html" target="_top" xlink:title="uthash.h">
<polygon fill="white" stroke="black" points="73,-56.5 73,-75.5 127,-75.5 127,-56.5 73,-56.5"/>
<text text-anchor="middle" x="100" y="-63.5" font-family="Helvetica,sans-Serif" font-size="10.00">uthash.h</text>
</a>
</g>
</g>
<!-- Node13&#45;&gt;Node15 -->
<g id="edge15" class="edge"><title>Node13&#45;&gt;Node15</title>
<path fill="none" stroke="midnightblue" d="M158.753,-112.324C148.203,-104.185 132.199,-91.8395 119.558,-82.0874"/>
<polygon fill="midnightblue" stroke="midnightblue" points="121.507,-79.1707 111.451,-75.8339 117.231,-84.7132 121.507,-79.1707"/>
</g>
<!-- Node18 -->
<g id="node18" class="node"><title>Node18</title>
<polygon fill="white" stroke="#bfbfbf" points="213,-56.5 213,-75.5 269,-75.5 269,-56.5 213,-56.5"/>
<text text-anchor="middle" x="241" y="-63.5" font-family="Helvetica,sans-Serif" font-size="10.00">stdbool.h</text>
</g>
<!-- Node13&#45;&gt;Node18 -->
<g id="edge20" class="edge"><title>Node13&#45;&gt;Node18</title>
<path fill="none" stroke="midnightblue" d="M181.407,-112.324C192.109,-104.185 208.341,-91.8395 221.163,-82.0874"/>
<polygon fill="midnightblue" stroke="midnightblue" points="223.544,-84.6734 229.385,-75.8339 219.307,-79.1018 223.544,-84.6734"/>
</g>
<!-- Node15&#45;&gt;Node5 -->
<g id="edge16" class="edge"><title>Node15&#45;&gt;Node5</title>
<path fill="none" stroke="midnightblue" d="M111.568,-56.324C122.42,-48.1849 138.881,-35.8395 151.883,-26.0874"/>
<polygon fill="midnightblue" stroke="midnightblue" points="154.321,-28.6339 160.221,-19.8339 150.121,-23.0339 154.321,-28.6339"/>
</g>
<!-- Node15&#45;&gt;Node6 -->
<g id="edge18" class="edge"><title>Node15&#45;&gt;Node6</title>
<path fill="none" stroke="midnightblue" d="M127.04,-57.811C130.05,-57.1388 133.082,-56.517 136,-56 279.514,-30.5726 453.081,-17.6393 525.58,-13.0225"/>
<polygon fill="midnightblue" stroke="midnightblue" points="526.166,-16.4928 535.928,-12.3766 525.73,-9.50639 526.166,-16.4928"/>
</g>
<!-- Node16 -->
<g id="node16" class="node"><title>Node16</title>
<polygon fill="white" stroke="#bfbfbf" points="0,-0.5 0,-19.5 52,-19.5 52,-0.5 0,-0.5"/>
<text text-anchor="middle" x="26" y="-7.5" font-family="Helvetica,sans-Serif" font-size="10.00">stddef.h</text>
</g>
<!-- Node15&#45;&gt;Node16 -->
<g id="edge17" class="edge"><title>Node15&#45;&gt;Node16</title>
<path fill="none" stroke="midnightblue" d="M88.1106,-56.324C76.8498,-48.1066 59.7134,-35.6017 46.2909,-25.8069"/>
<polygon fill="midnightblue" stroke="midnightblue" points="48.2468,-22.9014 38.1057,-19.8339 44.1205,-28.5559 48.2468,-22.9014"/>
</g>
<!-- Node17 -->
<g id="node17" class="node"><title>Node17</title>
<polygon fill="white" stroke="#bfbfbf" points="70.5,-0.5 70.5,-19.5 129.5,-19.5 129.5,-0.5 70.5,-0.5"/>
<text text-anchor="middle" x="100" y="-7.5" font-family="Helvetica,sans-Serif" font-size="10.00">inttypes.h</text>
</g>
<!-- Node15&#45;&gt;Node17 -->
<g id="edge19" class="edge"><title>Node15&#45;&gt;Node17</title>
<path fill="none" stroke="midnightblue" d="M100,-56.083C100,-49.0059 100,-38.8611 100,-29.9865"/>
<polygon fill="midnightblue" stroke="midnightblue" points="103.5,-29.751 100,-19.7511 96.5001,-29.7511 103.5,-29.751"/>
</g>
<!-- Node19&#45;&gt;Node12 -->
<g id="edge22" class="edge"><title>Node19&#45;&gt;Node12</title>
<path fill="none" stroke="midnightblue" d="M269.449,-224.083C274.014,-216.613 280.668,-205.724 286.293,-196.52"/>
<polygon fill="midnightblue" stroke="midnightblue" points="289.424,-198.109 291.652,-187.751 283.451,-194.459 289.424,-198.109"/>
</g>
<!-- Node20&#45;&gt;Node8 -->
<g id="edge25" class="edge"><title>Node20&#45;&gt;Node8</title>
<path fill="none" stroke="midnightblue" d="M189.828,-224.075C210.165,-197.493 270.57,-118.538 297.175,-83.7633"/>
<polygon fill="midnightblue" stroke="midnightblue" points="300.148,-85.6371 303.445,-75.5681 294.589,-81.3836 300.148,-85.6371"/>
</g>
<!-- Node21 -->
<g id="node21" class="node"><title>Node21</title>
<polygon fill="white" stroke="#bfbfbf" points="150.5,-168.5 150.5,-187.5 207.5,-187.5 207.5,-168.5 150.5,-168.5"/>
<text text-anchor="middle" x="179" y="-175.5" font-family="Helvetica,sans-Serif" font-size="10.00">pthread.h</text>
</g>
<!-- Node20&#45;&gt;Node21 -->
<g id="edge26" class="edge"><title>Node20&#45;&gt;Node21</title>
<path fill="none" stroke="midnightblue" d="M182.339,-224.083C181.815,-217.006 181.064,-206.861 180.406,-197.986"/>
<polygon fill="midnightblue" stroke="midnightblue" points="183.877,-197.465 179.648,-187.751 176.897,-197.982 183.877,-197.465"/>
</g>
<!-- Node22&#45;&gt;Node4 -->
<g id="edge28" class="edge"><title>Node22&#45;&gt;Node4</title>
<path fill="none" stroke="midnightblue" d="M146.049,-337.492C168.737,-328.549 206.921,-313.498 233.682,-302.95"/>
<polygon fill="midnightblue" stroke="midnightblue" points="235.303,-306.073 243.323,-299.15 232.736,-299.561 235.303,-306.073"/>
</g>
<!-- Node23 -->
<g id="node23" class="node"><title>Node23</title>
<polygon fill="white" stroke="#bfbfbf" points="121,-280.5 121,-299.5 173,-299.5 173,-280.5 121,-280.5"/>
<text text-anchor="middle" x="147" y="-287.5" font-family="Helvetica,sans-Serif" font-size="10.00">stdarg.h</text>
</g>
<!-- Node22&#45;&gt;Node23 -->
<g id="edge29" class="edge"><title>Node22&#45;&gt;Node23</title>
<path fill="none" stroke="midnightblue" d="M130.303,-336.083C132.982,-328.849 136.849,-318.409 140.186,-309.397"/>
<polygon fill="midnightblue" stroke="midnightblue" points="143.568,-310.344 143.759,-299.751 137.004,-307.913 143.568,-310.344"/>
</g>
<!-- Node24&#45;&gt;Node13 -->
<g id="edge31" class="edge"><title>Node24&#45;&gt;Node13</title>
<path fill="none" stroke="midnightblue" d="M79.9947,-280.28C80.3829,-259.193 83.8231,-204.488 108,-168 116.749,-154.796 130.776,-144.138 143.276,-136.515"/>
<polygon fill="midnightblue" stroke="midnightblue" points="145.077,-139.518 152.012,-131.508 141.595,-133.445 145.077,-139.518"/>
</g>
<!-- Node25&#45;&gt;Node4 -->
<g id="edge33" class="edge"><title>Node25&#45;&gt;Node4</title>
<path fill="none" stroke="midnightblue" d="M295.725,-336.083C290.358,-328.455 282.482,-317.264 275.921,-307.941"/>
<polygon fill="midnightblue" stroke="midnightblue" points="278.775,-305.915 270.158,-299.751 273.051,-309.943 278.775,-305.915"/>
</g>
<!-- Node26&#45;&gt;Node4 -->
<g id="edge35" class="edge"><title>Node26&#45;&gt;Node4</title>
<path fill="none" stroke="midnightblue" d="M201.889,-336.324C213.15,-328.107 230.287,-315.602 243.709,-305.807"/>
<polygon fill="midnightblue" stroke="midnightblue" points="245.88,-308.556 251.894,-299.834 241.753,-302.901 245.88,-308.556"/>
</g>
<!-- Node27&#45;&gt;Node2 -->
<g id="edge45" class="edge"><title>Node27&#45;&gt;Node2</title>
<path fill="none" stroke="midnightblue" d="M354.235,-504.324C344.234,-496.263 329.113,-484.077 317.07,-474.369"/>
<polygon fill="midnightblue" stroke="midnightblue" points="318.943,-471.384 308.961,-467.834 314.55,-476.834 318.943,-471.384"/>
</g>
<!-- Node27&#45;&gt;Node4 -->
<g id="edge38" class="edge"><title>Node27&#45;&gt;Node4</title>
<path fill="none" stroke="midnightblue" d="M366.226,-504.351C369.63,-477.007 376.681,-390.991 340,-336 329.219,-319.837 310.493,-308.65 294.327,-301.473"/>
<polygon fill="midnightblue" stroke="midnightblue" points="295.266,-298.075 284.686,-297.514 292.607,-304.55 295.266,-298.075"/>
</g>
<!-- Node28 -->
<g id="node28" class="node"><title>Node28</title>
<g id="a_node28"><a xlink:href="mtree_8h.html" target="_top" xlink:title="semantic tree matrix header file `` ">
<polygon fill="white" stroke="black" points="402,-224.5 402,-243.5 452,-243.5 452,-224.5 402,-224.5"/>
<text text-anchor="middle" x="427" y="-231.5" font-family="Helvetica,sans-Serif" font-size="10.00">mtree.h</text>
</a>
</g>
</g>
<!-- Node27&#45;&gt;Node28 -->
<g id="edge39" class="edge"><title>Node27&#45;&gt;Node28</title>
<path fill="none" stroke="midnightblue" d="M369.369,-504.245C373.658,-495.327 380.107,-480.998 384,-468 407.31,-390.174 420.247,-293.749 424.942,-253.746"/>
<polygon fill="midnightblue" stroke="midnightblue" points="428.441,-253.953 426.093,-243.622 421.486,-253.162 428.441,-253.953"/>
</g>
<!-- Node28&#45;&gt;Node5 -->
<g id="edge40" class="edge"><title>Node28&#45;&gt;Node5</title>
<path fill="none" stroke="midnightblue" d="M440.017,-224.272C468.563,-204.055 531.892,-152.639 503,-112 468.089,-62.894 284.708,-28.7383 206.928,-16.2488"/>
<polygon fill="midnightblue" stroke="midnightblue" points="207.104,-12.7332 196.68,-14.6309 206.012,-19.6476 207.104,-12.7332"/>
</g>
<!-- Node28&#45;&gt;Node6 -->
<g id="edge41" class="edge"><title>Node28&#45;&gt;Node6</title>
<path fill="none" stroke="midnightblue" d="M452.103,-229.876C477.475,-225.306 515.744,-214.261 536,-188 572.245,-141.011 567.713,-65.3658 563.114,-30.1645"/>
<polygon fill="midnightblue" stroke="midnightblue" points="566.52,-29.2658 561.611,-19.877 559.593,-30.278 566.52,-29.2658"/>
</g>
<!-- Node28&#45;&gt;Node7 -->
<g id="edge42" class="edge"><title>Node28&#45;&gt;Node7</title>
<path fill="none" stroke="midnightblue" d="M426.174,-224.083C425.519,-217.006 424.58,-206.861 423.758,-197.986"/>
<polygon fill="midnightblue" stroke="midnightblue" points="427.217,-197.386 422.81,-187.751 420.247,-198.031 427.217,-197.386"/>
</g>
<!-- Node28&#45;&gt;Node12 -->
<g id="edge43" class="edge"><title>Node28&#45;&gt;Node12</title>
<path fill="none" stroke="midnightblue" d="M406.401,-224.444C385.007,-215.557 351.319,-201.563 326.976,-191.451"/>
<polygon fill="midnightblue" stroke="midnightblue" points="328.08,-188.12 317.503,-187.516 325.395,-194.585 328.08,-188.12"/>
</g>
<!-- Node28&#45;&gt;Node13 -->
<g id="edge44" class="edge"><title>Node28&#45;&gt;Node13</title>
<path fill="none" stroke="midnightblue" d="M417.376,-224.073C401.841,-210.126 369.758,-183.194 338,-168 299.574,-149.615 252.481,-137.828 217.942,-130.949"/>
<polygon fill="midnightblue" stroke="midnightblue" points="218.583,-127.508 208.101,-129.054 217.259,-134.382 218.583,-127.508"/>
</g>
</g>
</svg>
        <g id="navigator" transform="translate(0 0)" fill="#404254">
                <rect fill="#f2f5e9" fill-opacity="0.5" stroke="#606060" stroke-width=".5" x="0" y="0" width="60" height="60"/>
                <use id="zoomplus" xlink:href="#zoomPlus" x="17" y="9" onmousedown="handleZoom(evt,'in')"/>
                <use id="zoomminus" xlink:href="#zoomMin" x="42" y="9" onmousedown="handleZoom(evt,'out')"/>
                <use id="reset" xlink:href="#resetDef" x="30" y="36" onmousedown="handleReset()"/>
                <g id="arrowUp" xlink:href="#dirArrow" transform="translate(30 24)" onmousedown="handlePan(0,-1)">
                  <use xlink:href="#rim" fill="#404040">
                        <set attributeName="fill" to="#808080" begin="arrowUp.mouseover" end="arrowUp.mouseout"/>
                  </use>
                  <path fill="none" stroke="white" stroke-width="1.5" d="M0,-3.0v7 M-2.5,-0.5L0,-3.0L2.5,-0.5"/>
                </g>
                <g id="arrowRight" xlink:href="#dirArrow" transform="rotate(90) translate(36 -43)" onmousedown="handlePan(1,0)">
                  <use xlink:href="#rim" fill="#404040">
                        <set attributeName="fill" to="#808080" begin="arrowRight.mouseover" end="arrowRight.mouseout"/>
                  </use>
                  <path fill="none" stroke="white" stroke-width="1.5" d="M0,-3.0v7 M-2.5,-0.5L0,-3.0L2.5,-0.5"/>
                </g>
                <g id="arrowDown" xlink:href="#dirArrow" transform="rotate(180) translate(-30 -48)" onmousedown="handlePan(0,1)">
                  <use xlink:href="#rim" fill="#404040">
                        <set attributeName="fill" to="#808080" begin="arrowDown.mouseover" end="arrowDown.mouseout"/>
                  </use>
                  <path fill="none" stroke="white" stroke-width="1.5" d="M0,-3.0v7 M-2.5,-0.5L0,-3.0L2.5,-0.5"/>
                </g>
                <g id="arrowLeft" xlink:href="#dirArrow" transform="rotate(270) translate(-36 17)" onmousedown="handlePan(-1,0)">
                  <use xlink:href="#rim" fill="#404040">
                        <set attributeName="fill" to="#808080" begin="arrowLeft.mouseover" end="arrowLeft.mouseout"/>
                  </use>
                  <path fill="none" stroke="white" stroke-width="1.5" d="M0,-3.0v7 M-2.5,-0.5L0,-3.0L2.5,-0.5"/>
                </g>
        </g>
        <svg viewBox="0 0 15 15" width="100%" height="30px" preserveAspectRatio="xMaxYMin meet">
         <g id="arrow_out" transform="scale(0.3 0.3)">
          <a xlink:href="vmhost_8c__incl_org.svg" target="_base">
           <rect id="button" ry="5" rx="5" y="6" x="6" height="38" width="38"
                fill="#f2f5e9" fill-opacity="0.5" stroke="#606060" stroke-width="1.0"/>
           <path id="arrow"
             d="M 11.500037,31.436501 C 11.940474,20.09759 22.043105,11.32322 32.158766,21.979434 L 37.068811,17.246167 C 37.068811,17.246167 37.088388,32 37.088388,32 L 22.160133,31.978069 C 22.160133,31.978069 26.997745,27.140456 26.997745,27.140456 C 18.528582,18.264221 13.291696,25.230495 11.500037,31.436501 z"
             style="fill:#404040;"/>
          </a>
         </g>
        </svg>
</svg>
