<?xml version="1.0" encoding="UTF-8" standalone="no"?>
<!DOCTYPE svg PUBLIC "-//W3C//DTD SVG 1.1//EN"
 "http://www.w3.org/Graphics/SVG/1.1/DTD/svg11.dtd">
<!-- Generated by graphviz version 2.38.0 (20140413.2041)
 -->
<!-- Title: spec/vmhost_spec.h Pages: 1 -->
<svg width="755pt" height="532pt"
 viewBox="0.00 0.00 754.50 532.00" xmlns="http://www.w3.org/2000/svg" xmlns:xlink="http://www.w3.org/1999/xlink">
<g id="graph0" class="graph" transform="scale(1 1) rotate(0) translate(4 528)">
<title>spec/vmhost_spec.h</title>
<polygon fill="white" stroke="none" points="-4,4 -4,-528 750.5,-528 750.5,4 -4,4"/>
<!-- Node1 -->
<g id="node1" class="node"><title>Node1</title>
<polygon fill="#bfbfbf" stroke="black" points="303.5,-504.5 303.5,-523.5 410.5,-523.5 410.5,-504.5 303.5,-504.5"/>
<text text-anchor="middle" x="357" y="-511.5" font-family="Helvetica,sans-Serif" font-size="10.00">spec/vmhost_spec.h</text>
</g>
<!-- Node2 -->
<g id="node2" class="node"><title>Node2</title>
<g id="a_node2"><a xlink:href="ceptr_8h_source.html" target="_top" xlink:title="../src/ceptr.h">
<polygon fill="white" stroke="black" points="209,-336.5 209,-355.5 281,-355.5 281,-336.5 209,-336.5"/>
<text text-anchor="middle" x="245" y="-343.5" font-family="Helvetica,sans-Serif" font-size="10.00">../src/ceptr.h</text>
</a>
</g>
</g>
<!-- Node1&#45;&gt;Node2 -->
<g id="edge1" class="edge"><title>Node1&#45;&gt;Node2</title>
<path fill="none" stroke="midnightblue" d="M344.886,-504.44C333.732,-496.102 317.256,-482.582 306,-468 280.58,-435.069 261.173,-389.899 251.6,-365.11"/>
<polygon fill="midnightblue" stroke="midnightblue" points="254.802,-363.681 248.009,-355.55 248.249,-366.143 254.802,-363.681"/>
</g>
<!-- Node20 -->
<g id="node20" class="node"><title>Node20</title>
<g id="a_node20"><a xlink:href="vmhost_8h.html" target="_top" xlink:title="vmhost implementation header file ">
<polygon fill="white" stroke="black" points="446.5,-448.5 446.5,-467.5 529.5,-467.5 529.5,-448.5 446.5,-448.5"/>
<text text-anchor="middle" x="488" y="-455.5" font-family="Helvetica,sans-Serif" font-size="10.00">../src/vmhost.h</text>
</a>
</g>
</g>
<!-- Node1&#45;&gt;Node20 -->
<g id="edge35" class="edge"><title>Node1&#45;&gt;Node20</title>
<path fill="none" stroke="midnightblue" d="M377.757,-504.444C399.316,-495.557 433.263,-481.563 457.794,-471.451"/>
<polygon fill="midnightblue" stroke="midnightblue" points="459.428,-474.563 467.34,-467.516 456.761,-468.092 459.428,-474.563"/>
</g>
<!-- Node27 -->
<g id="node27" class="node"><title>Node27</title>
<g id="a_node27"><a xlink:href="http__example_8h.html" target="_top" xlink:title="http_example.h">
<polygon fill="white" stroke="black" points="315.5,-448.5 315.5,-467.5 398.5,-467.5 398.5,-448.5 315.5,-448.5"/>
<text text-anchor="middle" x="357" y="-455.5" font-family="Helvetica,sans-Serif" font-size="10.00">http_example.h</text>
</a>
</g>
</g>
<!-- Node1&#45;&gt;Node27 -->
<g id="edge47" class="edge"><title>Node1&#45;&gt;Node27</title>
<path fill="none" stroke="midnightblue" d="M357,-504.083C357,-497.006 357,-486.861 357,-477.986"/>
<polygon fill="midnightblue" stroke="midnightblue" points="360.5,-477.751 357,-467.751 353.5,-477.751 360.5,-477.751"/>
</g>
<!-- Node3 -->
<g id="node3" class="node"><title>Node3</title>
<polygon fill="white" stroke="#bfbfbf" points="220.5,-0.5 220.5,-19.5 269.5,-19.5 269.5,-0.5 220.5,-0.5"/>
<text text-anchor="middle" x="245" y="-7.5" font-family="Helvetica,sans-Serif" font-size="10.00">string.h</text>
</g>
<!-- Node2&#45;&gt;Node3 -->
<g id="edge2" class="edge"><title>Node2&#45;&gt;Node3</title>
<path fill="none" stroke="midnightblue" d="M208.877,-341.889C153.549,-336.439 51.3423,-323.453 24,-300 0.625685,-279.95 0,-265.795 0,-235 0,-235 0,-235 0,-121 0,-30.0509 142.247,-13.837 209.965,-11.2712"/>
<polygon fill="midnightblue" stroke="midnightblue" points="210.269,-14.7638 220.16,-10.9672 210.06,-7.76687 210.269,-14.7638"/>
</g>
<!-- Node4 -->
<g id="node4" class="node"><title>Node4</title>
<polygon fill="white" stroke="#bfbfbf" points="104,-168.5 104,-187.5 150,-187.5 150,-168.5 104,-168.5"/>
<text text-anchor="middle" x="127" y="-175.5" font-family="Helvetica,sans-Serif" font-size="10.00">stdio.h</text>
</g>
<!-- Node2&#45;&gt;Node4 -->
<g id="edge3" class="edge"><title>Node2&#45;&gt;Node4</title>
<path fill="none" stroke="midnightblue" d="M234.195,-336.423C214.567,-320.309 172.883,-283.556 149,-244 140.244,-229.499 134.428,-211.054 130.987,-197.52"/>
<polygon fill="midnightblue" stroke="midnightblue" points="134.329,-196.44 128.643,-187.501 127.513,-198.035 134.329,-196.44"/>
</g>
<!-- Node5 -->
<g id="node5" class="node"><title>Node5</title>
<polygon fill="white" stroke="#bfbfbf" points="457,-0.5 457,-19.5 505,-19.5 505,-0.5 457,-0.5"/>
<text text-anchor="middle" x="481" y="-7.5" font-family="Helvetica,sans-Serif" font-size="10.00">stdlib.h</text>
</g>
<!-- Node2&#45;&gt;Node5 -->
<g id="edge4" class="edge"><title>Node2&#45;&gt;Node5</title>
<path fill="none" stroke="midnightblue" d="M226.936,-336.355C177.722,-311.621 48.0059,-237.847 95,-168 176.192,-47.3258 367.921,-19.3611 446.497,-12.9157"/>
<polygon fill="midnightblue" stroke="midnightblue" points="447.1,-16.3804 456.81,-12.1417 446.576,-9.40003 447.1,-16.3804"/>
</g>
<!-- Node6 -->
<g id="node6" class="node"><title>Node6</title>
<g id="a_node6"><a xlink:href="ceptr__error_8h_source.html" target="_top" xlink:title="ceptr_error.h">
<polygon fill="white" stroke="black" points="158.5,-224.5 158.5,-243.5 229.5,-243.5 229.5,-224.5 158.5,-224.5"/>
<text text-anchor="middle" x="194" y="-231.5" font-family="Helvetica,sans-Serif" font-size="10.00">ceptr_error.h</text>
</a>
</g>
</g>
<!-- Node2&#45;&gt;Node6 -->
<g id="edge5" class="edge"><title>Node2&#45;&gt;Node6</title>
<path fill="none" stroke="midnightblue" d="M240.998,-336.368C232.693,-318.456 213.437,-276.923 202.321,-252.948"/>
<polygon fill="midnightblue" stroke="midnightblue" points="205.365,-251.192 197.983,-243.591 199.014,-254.136 205.365,-251.192"/>
</g>
<!-- Node10 -->
<g id="node10" class="node"><title>Node10</title>
<g id="a_node10"><a xlink:href="tree_8h.html" target="_top" xlink:title="semantic trees header file ">
<polygon fill="white" stroke="black" points="492.5,-280.5 492.5,-299.5 533.5,-299.5 533.5,-280.5 492.5,-280.5"/>
<text text-anchor="middle" x="513" y="-287.5" font-family="Helvetica,sans-Serif" font-size="10.00">tree.h</text>
</a>
</g>
</g>
<!-- Node2&#45;&gt;Node10 -->
<g id="edge10" class="edge"><title>Node2&#45;&gt;Node10</title>
<path fill="none" stroke="midnightblue" d="M281.144,-337.717C334.366,-326.994 432.872,-307.145 482.598,-297.126"/>
<polygon fill="midnightblue" stroke="midnightblue" points="483.323,-300.55 492.435,-295.144 481.94,-293.688 483.323,-300.55"/>
</g>
<!-- Node19 -->
<g id="node19" class="node"><title>Node19</title>
<g id="a_node19"><a xlink:href="mtree_8h.html" target="_top" xlink:title="semantic tree matrix header file `` ">
<polygon fill="white" stroke="black" points="252,-280.5 252,-299.5 302,-299.5 302,-280.5 252,-280.5"/>
<text text-anchor="middle" x="277" y="-287.5" font-family="Helvetica,sans-Serif" font-size="10.00">mtree.h</text>
</a>
</g>
</g>
<!-- Node2&#45;&gt;Node19 -->
<g id="edge27" class="edge"><title>Node2&#45;&gt;Node19</title>
<path fill="none" stroke="midnightblue" d="M250.284,-336.083C254.711,-328.613 261.163,-317.724 266.618,-308.52"/>
<polygon fill="midnightblue" stroke="midnightblue" points="269.727,-310.138 271.814,-299.751 263.705,-306.57 269.727,-310.138"/>
</g>
<!-- Node6&#45;&gt;Node4 -->
<g id="edge6" class="edge"><title>Node6&#45;&gt;Node4</title>
<path fill="none" stroke="midnightblue" d="M183.235,-224.324C173.234,-216.263 158.113,-204.077 146.07,-194.369"/>
<polygon fill="midnightblue" stroke="midnightblue" points="147.943,-191.384 137.961,-187.834 143.55,-196.834 147.943,-191.384"/>
</g>
<!-- Node7 -->
<g id="node7" class="node"><title>Node7</title>
<polygon fill="white" stroke="#bfbfbf" points="310,-168.5 310,-187.5 360,-187.5 360,-168.5 310,-168.5"/>
<text text-anchor="middle" x="335" y="-175.5" font-family="Helvetica,sans-Serif" font-size="10.00">signal.h</text>
</g>
<!-- Node6&#45;&gt;Node7 -->
<g id="edge7" class="edge"><title>Node6&#45;&gt;Node7</title>
<path fill="none" stroke="midnightblue" d="M216.342,-224.444C239.753,-215.478 276.736,-201.314 303.19,-191.183"/>
<polygon fill="midnightblue" stroke="midnightblue" points="304.676,-194.361 312.763,-187.516 302.172,-187.824 304.676,-194.361"/>
</g>
<!-- Node8 -->
<g id="node8" class="node"><title>Node8</title>
<polygon fill="white" stroke="#bfbfbf" points="168,-168.5 168,-187.5 220,-187.5 220,-168.5 168,-168.5"/>
<text text-anchor="middle" x="194" y="-175.5" font-family="Helvetica,sans-Serif" font-size="10.00">assert.h</text>
</g>
<!-- Node6&#45;&gt;Node8 -->
<g id="edge8" class="edge"><title>Node6&#45;&gt;Node8</title>
<path fill="none" stroke="midnightblue" d="M194,-224.083C194,-217.006 194,-206.861 194,-197.986"/>
<polygon fill="midnightblue" stroke="midnightblue" points="197.5,-197.751 194,-187.751 190.5,-197.751 197.5,-197.751"/>
</g>
<!-- Node9 -->
<g id="node9" class="node"><title>Node9</title>
<polygon fill="white" stroke="#bfbfbf" points="238,-168.5 238,-187.5 292,-187.5 292,-168.5 238,-168.5"/>
<text text-anchor="middle" x="265" y="-175.5" font-family="Helvetica,sans-Serif" font-size="10.00">setjmp.h</text>
</g>
<!-- Node6&#45;&gt;Node9 -->
<g id="edge9" class="edge"><title>Node6&#45;&gt;Node9</title>
<path fill="none" stroke="midnightblue" d="M205.407,-224.324C216.109,-216.185 232.341,-203.839 245.163,-194.087"/>
<polygon fill="midnightblue" stroke="midnightblue" points="247.544,-196.673 253.385,-187.834 243.307,-191.102 247.544,-196.673"/>
</g>
<!-- Node10&#45;&gt;Node3 -->
<g id="edge11" class="edge"><title>Node10&#45;&gt;Node3</title>
<path fill="none" stroke="midnightblue" d="M533.674,-283.507C553.108,-277.236 581.464,-265.022 597,-244 646.707,-176.744 667.593,-111.464 605,-56 580.874,-34.6217 365.132,-18.6588 279.654,-13.1207"/>
<polygon fill="midnightblue" stroke="midnightblue" points="279.865,-9.62706 269.662,-12.4825 279.418,-16.6128 279.865,-9.62706"/>
</g>
<!-- Node10&#45;&gt;Node5 -->
<g id="edge12" class="edge"><title>Node10&#45;&gt;Node5</title>
<path fill="none" stroke="midnightblue" d="M533.885,-288.262C589.149,-285.087 735,-268.253 735,-179 735,-179 735,-179 735,-121 735,-90.9022 738.271,-76.2457 716,-56 686.991,-29.629 573.007,-17.682 515.124,-13.2251"/>
<polygon fill="midnightblue" stroke="midnightblue" points="515.232,-9.72365 505.002,-12.4782 514.717,-16.7047 515.232,-9.72365"/>
</g>
<!-- Node10&#45;&gt;Node6 -->
<g id="edge13" class="edge"><title>Node10&#45;&gt;Node6</title>
<path fill="none" stroke="midnightblue" d="M492.07,-285.457C441.074,-276.824 309.461,-254.545 239.42,-242.689"/>
<polygon fill="midnightblue" stroke="midnightblue" points="239.993,-239.236 229.549,-241.018 238.825,-246.138 239.993,-239.236"/>
</g>
<!-- Node11 -->
<g id="node11" class="node"><title>Node11</title>
<g id="a_node11"><a xlink:href="sys__symbols_8h.html" target="_top" xlink:title="Defines hard&#45;coded system defined symbols. ">
<polygon fill="white" stroke="black" points="471.5,-224.5 471.5,-243.5 554.5,-243.5 554.5,-224.5 471.5,-224.5"/>
<text text-anchor="middle" x="513" y="-231.5" font-family="Helvetica,sans-Serif" font-size="10.00">sys_symbols.h</text>
</a>
</g>
</g>
<!-- Node10&#45;&gt;Node11 -->
<g id="edge14" class="edge"><title>Node10&#45;&gt;Node11</title>
<path fill="none" stroke="midnightblue" d="M513,-280.083C513,-273.006 513,-262.861 513,-253.986"/>
<polygon fill="midnightblue" stroke="midnightblue" points="516.5,-253.751 513,-243.751 509.5,-253.751 516.5,-253.751"/>
</g>
<!-- Node12 -->
<g id="node12" class="node"><title>Node12</title>
<g id="a_node12"><a xlink:href="sys__structures_8h.html" target="_top" xlink:title="Defines hard&#45;coded system defined structures. ">
<polygon fill="white" stroke="black" points="454.5,-168.5 454.5,-187.5 543.5,-187.5 543.5,-168.5 454.5,-168.5"/>
<text text-anchor="middle" x="499" y="-175.5" font-family="Helvetica,sans-Serif" font-size="10.00">sys_structures.h</text>
</a>
</g>
</g>
<!-- Node10&#45;&gt;Node12 -->
<g id="edge24" class="edge"><title>Node10&#45;&gt;Node12</title>
<path fill="none" stroke="midnightblue" d="M527.98,-280.439C546.585,-268.621 574.548,-246.238 563,-224 555.847,-210.226 542.329,-199.783 529.553,-192.441"/>
<polygon fill="midnightblue" stroke="midnightblue" points="530.958,-189.225 520.483,-187.64 527.683,-195.412 530.958,-189.225"/>
</g>
<!-- Node13 -->
<g id="node13" class="node"><title>Node13</title>
<g id="a_node13"><a xlink:href="ceptr__types_8h_source.html" target="_top" xlink:title="ceptr_types.h">
<polygon fill="white" stroke="black" points="534,-112.5 534,-131.5 610,-131.5 610,-112.5 534,-112.5"/>
<text text-anchor="middle" x="572" y="-119.5" font-family="Helvetica,sans-Serif" font-size="10.00">ceptr_types.h</text>
</a>
</g>
</g>
<!-- Node10&#45;&gt;Node13 -->
<g id="edge26" class="edge"><title>Node10&#45;&gt;Node13</title>
<path fill="none" stroke="midnightblue" d="M533.526,-281.276C549.126,-274.186 569.474,-262.024 579,-244 596.386,-211.103 586.413,-165.92 578.583,-141.12"/>
<polygon fill="midnightblue" stroke="midnightblue" points="581.866,-139.904 575.342,-131.555 575.236,-142.15 581.866,-139.904"/>
</g>
<!-- Node18 -->
<g id="node18" class="node"><title>Node18</title>
<g id="a_node18"><a xlink:href="sys__processes_8h.html" target="_top" xlink:title="Defines hard&#45;coded system defined processes. ">
<polygon fill="white" stroke="black" points="362.5,-224.5 362.5,-243.5 453.5,-243.5 453.5,-224.5 362.5,-224.5"/>
<text text-anchor="middle" x="408" y="-231.5" font-family="Helvetica,sans-Serif" font-size="10.00">sys_processes.h</text>
</a>
</g>
</g>
<!-- Node10&#45;&gt;Node18 -->
<g id="edge25" class="edge"><title>Node10&#45;&gt;Node18</title>
<path fill="none" stroke="midnightblue" d="M496.13,-280.324C479.291,-271.664 453.193,-258.242 433.762,-248.249"/>
<polygon fill="midnightblue" stroke="midnightblue" points="435.322,-245.116 424.828,-243.655 432.12,-251.341 435.322,-245.116"/>
</g>
<!-- Node11&#45;&gt;Node12 -->
<g id="edge15" class="edge"><title>Node11&#45;&gt;Node12</title>
<path fill="none" stroke="midnightblue" d="M510.688,-224.083C508.833,-216.927 506.165,-206.635 503.846,-197.691"/>
<polygon fill="midnightblue" stroke="midnightblue" points="507.166,-196.553 501.269,-187.751 500.391,-198.309 507.166,-196.553"/>
</g>
<!-- Node11&#45;&gt;Node13 -->
<g id="edge23" class="edge"><title>Node11&#45;&gt;Node13</title>
<path fill="none" stroke="midnightblue" d="M522.623,-224.222C531.408,-215.729 544.179,-202.104 552,-188 560.052,-173.48 565.292,-155.298 568.381,-141.859"/>
<polygon fill="midnightblue" stroke="midnightblue" points="571.849,-142.377 570.483,-131.871 564.999,-140.935 571.849,-142.377"/>
</g>
<!-- Node12&#45;&gt;Node13 -->
<g id="edge16" class="edge"><title>Node12&#45;&gt;Node13</title>
<path fill="none" stroke="midnightblue" d="M510.729,-168.324C521.837,-160.107 538.742,-147.602 551.983,-137.807"/>
<polygon fill="midnightblue" stroke="midnightblue" points="554.1,-140.595 560.058,-131.834 549.937,-134.967 554.1,-140.595"/>
</g>
<!-- Node14 -->
<g id="node14" class="node"><title>Node14</title>
<polygon fill="white" stroke="#bfbfbf" points="547.5,-56.5 547.5,-75.5 596.5,-75.5 596.5,-56.5 547.5,-56.5"/>
<text text-anchor="middle" x="572" y="-63.5" font-family="Helvetica,sans-Serif" font-size="10.00">stdint.h</text>
</g>
<!-- Node13&#45;&gt;Node14 -->
<g id="edge17" class="edge"><title>Node13&#45;&gt;Node14</title>
<path fill="none" stroke="midnightblue" d="M572,-112.083C572,-105.006 572,-94.8611 572,-85.9865"/>
<polygon fill="midnightblue" stroke="midnightblue" points="575.5,-85.751 572,-75.7511 568.5,-85.7511 575.5,-85.751"/>
</g>
<!-- Node15 -->
<g id="node15" class="node"><title>Node15</title>
<g id="a_node15"><a xlink:href="uthash_8h_source.html" target="_top" xlink:title="uthash.h">
<polygon fill="white" stroke="black" points="653,-56.5 653,-75.5 707,-75.5 707,-56.5 653,-56.5"/>
<text text-anchor="middle" x="680" y="-63.5" font-family="Helvetica,sans-Serif" font-size="10.00">uthash.h</text>
</a>
</g>
</g>
<!-- Node13&#45;&gt;Node15 -->
<g id="edge18" class="edge"><title>Node13&#45;&gt;Node15</title>
<path fill="none" stroke="midnightblue" d="M589.352,-112.324C606.672,-103.664 633.515,-90.2424 653.502,-80.249"/>
<polygon fill="midnightblue" stroke="midnightblue" points="655.312,-83.2572 662.691,-75.6545 652.181,-76.9962 655.312,-83.2572"/>
</g>
<!-- Node15&#45;&gt;Node3 -->
<g id="edge19" class="edge"><title>Node15&#45;&gt;Node3</title>
<path fill="none" stroke="midnightblue" d="M652.728,-58.6058C648.16,-57.652 643.457,-56.7417 639,-56 507.17,-34.0616 348.728,-19.52 279.83,-13.7716"/>
<polygon fill="midnightblue" stroke="midnightblue" points="279.812,-10.2583 269.558,-12.9247 279.237,-17.2347 279.812,-10.2583"/>
</g>
<!-- Node15&#45;&gt;Node5 -->
<g id="edge21" class="edge"><title>Node15&#45;&gt;Node5</title>
<path fill="none" stroke="midnightblue" d="M652.747,-57.6048C616.886,-47.8735 553.858,-30.7705 514.941,-20.2102"/>
<polygon fill="midnightblue" stroke="midnightblue" points="515.69,-16.7869 505.122,-17.5458 513.857,-23.5426 515.69,-16.7869"/>
</g>
<!-- Node16 -->
<g id="node16" class="node"><title>Node16</title>
<polygon fill="white" stroke="#bfbfbf" points="617,-0.5 617,-19.5 669,-19.5 669,-0.5 617,-0.5"/>
<text text-anchor="middle" x="643" y="-7.5" font-family="Helvetica,sans-Serif" font-size="10.00">stddef.h</text>
</g>
<!-- Node15&#45;&gt;Node16 -->
<g id="edge20" class="edge"><title>Node15&#45;&gt;Node16</title>
<path fill="none" stroke="midnightblue" d="M673.89,-56.083C668.718,-48.5341 661.154,-37.4948 654.806,-28.2298"/>
<polygon fill="midnightblue" stroke="midnightblue" points="657.536,-26.0221 648.996,-19.7511 651.761,-29.9787 657.536,-26.0221"/>
</g>
<!-- Node17 -->
<g id="node17" class="node"><title>Node17</title>
<polygon fill="white" stroke="#bfbfbf" points="687.5,-0.5 687.5,-19.5 746.5,-19.5 746.5,-0.5 687.5,-0.5"/>
<text text-anchor="middle" x="717" y="-7.5" font-family="Helvetica,sans-Serif" font-size="10.00">inttypes.h</text>
</g>
<!-- Node15&#45;&gt;Node17 -->
<g id="edge22" class="edge"><title>Node15&#45;&gt;Node17</title>
<path fill="none" stroke="midnightblue" d="M686.11,-56.083C691.282,-48.5341 698.846,-37.4948 705.194,-28.2298"/>
<polygon fill="midnightblue" stroke="midnightblue" points="708.239,-29.9787 711.004,-19.7511 702.464,-26.0221 708.239,-29.9787"/>
</g>
<!-- Node19&#45;&gt;Node3 -->
<g id="edge28" class="edge"><title>Node19&#45;&gt;Node3</title>
<path fill="none" stroke="midnightblue" d="M251.726,-284.95C208.042,-276.334 120.63,-251.502 95,-188 65.7541,-115.538 166.973,-51.2551 217.718,-24.3673"/>
<polygon fill="midnightblue" stroke="midnightblue" points="219.579,-27.3456 226.853,-19.6424 216.362,-21.1282 219.579,-27.3456"/>
</g>
<!-- Node19&#45;&gt;Node5 -->
<g id="edge29" class="edge"><title>Node19&#45;&gt;Node5</title>
<path fill="none" stroke="midnightblue" d="M278.169,-280.42C280.403,-266.949 286.425,-240.658 301,-224 323.518,-198.264 343.904,-211.228 369,-188 420.515,-140.319 458.021,-63.9088 473.355,-29.2041"/>
<polygon fill="midnightblue" stroke="midnightblue" points="476.643,-30.4188 477.393,-19.8505 470.216,-27.6443 476.643,-30.4188"/>
</g>
<!-- Node19&#45;&gt;Node6 -->
<g id="edge30" class="edge"><title>Node19&#45;&gt;Node6</title>
<path fill="none" stroke="midnightblue" d="M263.665,-280.324C250.838,-271.979 231.215,-259.212 216.06,-249.352"/>
<polygon fill="midnightblue" stroke="midnightblue" points="217.593,-246.174 207.302,-243.655 213.776,-252.042 217.593,-246.174"/>
</g>
<!-- Node19&#45;&gt;Node11 -->
<g id="edge31" class="edge"><title>Node19&#45;&gt;Node11</title>
<path fill="none" stroke="midnightblue" d="M302.256,-283.221C341.192,-274.312 416.521,-257.076 465.769,-245.807"/>
<polygon fill="midnightblue" stroke="midnightblue" points="466.589,-249.21 475.556,-243.568 465.027,-242.386 466.589,-249.21"/>
</g>
<!-- Node19&#45;&gt;Node12 -->
<g id="edge32" class="edge"><title>Node19&#45;&gt;Node12</title>
<path fill="none" stroke="midnightblue" d="M285.013,-280.124C297.997,-266.246 325.015,-239.407 353,-224 381.787,-208.152 416.906,-197.103 445.485,-189.921"/>
<polygon fill="midnightblue" stroke="midnightblue" points="446.407,-193.299 455.301,-187.541 444.757,-186.496 446.407,-193.299"/>
</g>
<!-- Node19&#45;&gt;Node13 -->
<g id="edge34" class="edge"><title>Node19&#45;&gt;Node13</title>
<path fill="none" stroke="midnightblue" d="M281.07,-280.301C287.834,-266.666 302.588,-240.154 322,-224 351.97,-199.06 366.545,-204.222 402,-188 421.166,-179.231 425.489,-175.973 445,-168 475.203,-155.657 510.196,-143.406 535.793,-134.81"/>
<polygon fill="midnightblue" stroke="midnightblue" points="537.077,-138.071 545.457,-131.588 534.863,-131.43 537.077,-138.071"/>
</g>
<!-- Node19&#45;&gt;Node18 -->
<g id="edge33" class="edge"><title>Node19&#45;&gt;Node18</title>
<path fill="none" stroke="midnightblue" d="M297.757,-280.444C319.316,-271.557 353.263,-257.563 377.794,-247.451"/>
<polygon fill="midnightblue" stroke="midnightblue" points="379.428,-250.563 387.34,-243.516 376.761,-244.092 379.428,-250.563"/>
</g>
<!-- Node21 -->
<g id="node21" class="node"><title>Node21</title>
<g id="a_node21"><a xlink:href="receptor_8h.html" target="_top" xlink:title="receptor implementation header file ">
<polygon fill="white" stroke="black" points="474,-392.5 474,-411.5 534,-411.5 534,-392.5 474,-392.5"/>
<text text-anchor="middle" x="504" y="-399.5" font-family="Helvetica,sans-Serif" font-size="10.00">receptor.h</text>
</a>
</g>
</g>
<!-- Node20&#45;&gt;Node21 -->
<g id="edge36" class="edge"><title>Node20&#45;&gt;Node21</title>
<path fill="none" stroke="midnightblue" d="M490.642,-448.083C492.786,-440.849 495.879,-430.409 498.549,-421.397"/>
<polygon fill="midnightblue" stroke="midnightblue" points="501.922,-422.333 501.407,-411.751 495.21,-420.345 501.922,-422.333"/>
</g>
<!-- Node21&#45;&gt;Node10 -->
<g id="edge37" class="edge"><title>Node21&#45;&gt;Node10</title>
<path fill="none" stroke="midnightblue" d="M504.706,-392.368C506.159,-374.617 509.509,-333.666 511.478,-309.597"/>
<polygon fill="midnightblue" stroke="midnightblue" points="514.97,-309.844 512.297,-299.591 507.993,-309.273 514.97,-309.844"/>
</g>
<!-- Node22 -->
<g id="node22" class="node"><title>Node22</title>
<g id="a_node22"><a xlink:href="def_8h.html" target="_top" xlink:title="header file for symbol and structure definition functions ">
<polygon fill="white" stroke="black" points="347,-336.5 347,-355.5 385,-355.5 385,-336.5 347,-336.5"/>
<text text-anchor="middle" x="366" y="-343.5" font-family="Helvetica,sans-Serif" font-size="10.00">def.h</text>
</a>
</g>
</g>
<!-- Node21&#45;&gt;Node22 -->
<g id="edge38" class="edge"><title>Node21&#45;&gt;Node22</title>
<path fill="none" stroke="midnightblue" d="M482.133,-392.444C458.412,-383.161 420.453,-368.308 394.432,-358.125"/>
<polygon fill="midnightblue" stroke="midnightblue" points="395.686,-354.858 385.098,-354.473 393.135,-361.376 395.686,-354.858"/>
</g>
<!-- Node24 -->
<g id="node24" class="node"><title>Node24</title>
<g id="a_node24"><a xlink:href="label_8h.html" target="_top" xlink:title="Label tables map human readable text strings to parts of semantic trees. ">
<polygon fill="white" stroke="black" points="665.5,-280.5 665.5,-299.5 710.5,-299.5 710.5,-280.5 665.5,-280.5"/>
<text text-anchor="middle" x="688" y="-287.5" font-family="Helvetica,sans-Serif" font-size="10.00">label.h</text>
</a>
</g>
</g>
<!-- Node21&#45;&gt;Node24 -->
<g id="edge41" class="edge"><title>Node21&#45;&gt;Node24</title>
<path fill="none" stroke="midnightblue" d="M533.71,-392.443C557.347,-384.882 590.703,-372.492 617,-356 638.777,-342.343 660.016,-321.632 673.502,-307.274"/>
<polygon fill="midnightblue" stroke="midnightblue" points="676.311,-309.39 680.492,-299.656 671.153,-304.658 676.311,-309.39"/>
</g>
<!-- Node25 -->
<g id="node25" class="node"><title>Node25</title>
<g id="a_node25"><a xlink:href="process_8h.html" target="_top" xlink:title="processing header files ">
<polygon fill="white" stroke="black" points="549.5,-336.5 549.5,-355.5 608.5,-355.5 608.5,-336.5 549.5,-336.5"/>
<text text-anchor="middle" x="579" y="-343.5" font-family="Helvetica,sans-Serif" font-size="10.00">process.h</text>
</a>
</g>
</g>
<!-- Node21&#45;&gt;Node25 -->
<g id="edge43" class="edge"><title>Node21&#45;&gt;Node25</title>
<path fill="none" stroke="midnightblue" d="M516.05,-392.324C527.463,-384.107 544.831,-371.602 558.435,-361.807"/>
<polygon fill="midnightblue" stroke="midnightblue" points="560.66,-364.517 566.731,-355.834 556.57,-358.837 560.66,-364.517"/>
</g>
<!-- Node26 -->
<g id="node26" class="node"><title>Node26</title>
<g id="a_node26"><a xlink:href="scape_8h.html" target="_top" xlink:title="scape header files ">
<polygon fill="white" stroke="black" points="441.5,-336.5 441.5,-355.5 492.5,-355.5 492.5,-336.5 441.5,-336.5"/>
<text text-anchor="middle" x="467" y="-343.5" font-family="Helvetica,sans-Serif" font-size="10.00">scape.h</text>
</a>
</g>
</g>
<!-- Node21&#45;&gt;Node26 -->
<g id="edge45" class="edge"><title>Node21&#45;&gt;Node26</title>
<path fill="none" stroke="midnightblue" d="M497.89,-392.083C492.718,-384.534 485.154,-373.495 478.806,-364.23"/>
<polygon fill="midnightblue" stroke="midnightblue" points="481.536,-362.022 472.996,-355.751 475.761,-365.979 481.536,-362.022"/>
</g>
<!-- Node22&#45;&gt;Node10 -->
<g id="edge39" class="edge"><title>Node22&#45;&gt;Node10</title>
<path fill="none" stroke="midnightblue" d="M385.218,-337.94C410.001,-328.836 453.389,-312.898 482.65,-302.149"/>
<polygon fill="midnightblue" stroke="midnightblue" points="484.177,-305.317 492.357,-298.583 481.763,-298.746 484.177,-305.317"/>
</g>
<!-- Node23 -->
<g id="node23" class="node"><title>Node23</title>
<polygon fill="white" stroke="#bfbfbf" points="340,-280.5 340,-299.5 392,-299.5 392,-280.5 340,-280.5"/>
<text text-anchor="middle" x="366" y="-287.5" font-family="Helvetica,sans-Serif" font-size="10.00">stdarg.h</text>
</g>
<!-- Node22&#45;&gt;Node23 -->
<g id="edge40" class="edge"><title>Node22&#45;&gt;Node23</title>
<path fill="none" stroke="midnightblue" d="M366,-336.083C366,-329.006 366,-318.861 366,-309.986"/>
<polygon fill="midnightblue" stroke="midnightblue" points="369.5,-309.751 366,-299.751 362.5,-309.751 369.5,-309.751"/>
</g>
<!-- Node24&#45;&gt;Node13 -->
<g id="edge42" class="edge"><title>Node24&#45;&gt;Node13</title>
<path fill="none" stroke="midnightblue" d="M681.763,-280.075C663.267,-253.606 608.483,-175.209 584.026,-140.21"/>
<polygon fill="midnightblue" stroke="midnightblue" points="586.584,-137.76 577.987,-131.568 580.846,-141.77 586.584,-137.76"/>
</g>
<!-- Node25&#45;&gt;Node10 -->
<g id="edge44" class="edge"><title>Node25&#45;&gt;Node10</title>
<path fill="none" stroke="midnightblue" d="M568.396,-336.324C558.544,-328.263 543.649,-316.077 531.785,-306.369"/>
<polygon fill="midnightblue" stroke="midnightblue" points="533.753,-303.457 523.797,-299.834 529.32,-308.875 533.753,-303.457"/>
</g>
<!-- Node26&#45;&gt;Node10 -->
<g id="edge46" class="edge"><title>Node26&#45;&gt;Node10</title>
<path fill="none" stroke="midnightblue" d="M474.596,-336.083C481.227,-328.298 491.021,-316.801 499.058,-307.367"/>
<polygon fill="midnightblue" stroke="midnightblue" points="501.725,-309.633 505.545,-299.751 496.396,-305.094 501.725,-309.633"/>
</g>
<!-- Node27&#45;&gt;Node2 -->
<g id="edge48" class="edge"><title>Node27&#45;&gt;Node2</title>
<path fill="none" stroke="midnightblue" d="M348.212,-448.368C329.401,-429.894 285.007,-386.293 261.03,-362.744"/>
<polygon fill="midnightblue" stroke="midnightblue" points="263.335,-360.101 253.748,-355.591 258.43,-365.096 263.335,-360.101"/>
</g>
<!-- Node27&#45;&gt;Node21 -->
<g id="edge49" class="edge"><title>Node27&#45;&gt;Node21</title>
<path fill="none" stroke="midnightblue" d="M380.293,-448.444C404.807,-439.438 443.596,-425.189 471.2,-415.049"/>
<polygon fill="midnightblue" stroke="midnightblue" points="472.637,-418.25 480.816,-411.516 470.223,-411.679 472.637,-418.25"/>
</g>
<!-- Node27&#45;&gt;Node22 -->
<g id="edge50" class="edge"><title>Node27&#45;&gt;Node22</title>
<path fill="none" stroke="midnightblue" d="M357.406,-448.158C358.012,-435.643 359.27,-412.05 361,-392 361.744,-383.377 362.773,-373.847 363.704,-365.785"/>
<polygon fill="midnightblue" stroke="midnightblue" points="367.208,-365.958 364.915,-355.614 360.257,-365.13 367.208,-365.958"/>
</g>
<!-- Node28 -->
<g id="node28" class="node"><title>Node28</title>
<g id="a_node28"><a xlink:href="semtrex_8h.html" target="_top" xlink:title="Semantic tree regular expression header file. ">
<polygon fill="white" stroke="black" points="370,-392.5 370,-411.5 456,-411.5 456,-392.5 370,-392.5"/>
<text text-anchor="middle" x="413" y="-399.5" font-family="Helvetica,sans-Serif" font-size="10.00">../src/semtrex.h</text>
</a>
</g>
</g>
<!-- Node27&#45;&gt;Node28 -->
<g id="edge51" class="edge"><title>Node27&#45;&gt;Node28</title>
<path fill="none" stroke="midnightblue" d="M365.997,-448.324C374.194,-440.42 386.506,-428.548 396.472,-418.938"/>
<polygon fill="midnightblue" stroke="midnightblue" points="399.07,-421.295 403.839,-411.834 394.211,-416.256 399.07,-421.295"/>
</g>
<!-- Node28&#45;&gt;Node10 -->
<g id="edge52" class="edge"><title>Node28&#45;&gt;Node10</title>
<path fill="none" stroke="midnightblue" d="M413.459,-392.478C414.59,-379.086 418.498,-352.902 432,-336 445.01,-319.715 465.6,-308.387 482.765,-301.17"/>
<polygon fill="midnightblue" stroke="midnightblue" points="484.363,-304.302 492.392,-297.389 481.804,-297.787 484.363,-304.302"/>
</g>
</g>
</svg>
