<?xml version="1.0" encoding="UTF-8" standalone="no"?>
<!DOCTYPE svg PUBLIC "-//W3C//DTD SVG 1.1//EN"
 "http://www.w3.org/Graphics/SVG/1.1/DTD/svg11.dtd">
<!-- Generated by graphviz version 2.38.0 (20140413.2041)
 -->
<!-- Title: src/vmhost.h Pages: 1 -->
<svg width="638pt" height="252pt"
 viewBox="0.00 0.00 638.48 252.00" xmlns="http://www.w3.org/2000/svg" xmlns:xlink="http://www.w3.org/1999/xlink">
<g id="graph0" class="graph" transform="scale(1 1) rotate(0) translate(4 248)">
<title>src/vmhost.h</title>
<polygon fill="white" stroke="none" points="-4,4 -4,-248 634.482,-248 634.482,4 -4,4"/>
<!-- Node1 -->
<g id="node1" class="node"><title>Node1</title>
<polygon fill="#bfbfbf" stroke="black" points="393,-224.5 393,-243.5 467,-243.5 467,-224.5 393,-224.5"/>
<text text-anchor="middle" x="430" y="-231.5" font-family="Helvetica,sans-Serif" font-size="10.00">src/vmhost.h</text>
</g>
<!-- Node2 -->
<g id="node2" class="node"><title>Node2</title>
<g id="a_node2"><a xlink:href="accumulator_8h.html" target="_top" xlink:title="header file for the accumulator ">
<polygon fill="white" stroke="black" points="293.5,-168.5 293.5,-187.5 388.5,-187.5 388.5,-168.5 293.5,-168.5"/>
<text text-anchor="middle" x="341" y="-175.5" font-family="Helvetica,sans-Serif" font-size="10.00">src/accumulator.h</text>
</a>
</g>
</g>
<!-- Node1&#45;&gt;Node2 -->
<g id="edge1" class="edge"><title>Node1&#45;&gt;Node2</title>
<path fill="none" stroke="midnightblue" d="M406.762,-218.901C390.442,-208.999 369.135,-196.071 355.264,-187.655"/>
<polygon fill="midnightblue" stroke="midnightblue" points="405.336,-222.129 415.701,-224.324 408.967,-216.144 405.336,-222.129"/>
</g>
<!-- Node8 -->
<g id="node8" class="node"><title>Node8</title>
<g id="a_node8"><a xlink:href="vmhost__spec_8h.html" target="_top" xlink:title="spec/vmhost_spec.h">
<polygon fill="white" stroke="black" points="324.5,-56.5 324.5,-75.5 431.5,-75.5 431.5,-56.5 324.5,-56.5"/>
<text text-anchor="middle" x="378" y="-63.5" font-family="Helvetica,sans-Serif" font-size="10.00">spec/vmhost_spec.h</text>
</a>
</g>
</g>
<!-- Node1&#45;&gt;Node8 -->
<g id="edge16" class="edge"><title>Node1&#45;&gt;Node8</title>
<path fill="none" stroke="midnightblue" d="M477.058,-222.922C547.165,-205.815 666.103,-167.467 620,-112 596.542,-83.7782 495.635,-73.1696 431.758,-69.2436"/>
<polygon fill="midnightblue" stroke="midnightblue" points="476.013,-219.573 467.094,-225.291 477.633,-226.383 476.013,-219.573"/>
</g>
<!-- Node10 -->
<g id="node10" class="node"><title>Node10</title>
<g id="a_node10"><a xlink:href="vmhost_8c.html" target="_top" xlink:title="virtual machine host receptor implementation ">
<polygon fill="white" stroke="black" points="537,-112.5 537,-131.5 611,-131.5 611,-112.5 537,-112.5"/>
<text text-anchor="middle" x="574" y="-119.5" font-family="Helvetica,sans-Serif" font-size="10.00">src/vmhost.c</text>
</a>
</g>
</g>
<!-- Node1&#45;&gt;Node10 -->
<g id="edge14" class="edge"><title>Node1&#45;&gt;Node10</title>
<path fill="none" stroke="midnightblue" d="M449.483,-218.118C480.048,-194.769 538.301,-150.27 562.753,-131.591"/>
<polygon fill="midnightblue" stroke="midnightblue" points="447.122,-215.517 441.299,-224.368 451.371,-221.079 447.122,-215.517"/>
</g>
<!-- Node12 -->
<g id="node12" class="node"><title>Node12</title>
<g id="a_node12"><a xlink:href="receptor__spec_8h.html" target="_top" xlink:title="spec/receptor_spec.h">
<polygon fill="white" stroke="black" points="0,-112.5 0,-131.5 110,-131.5 110,-112.5 0,-112.5"/>
<text text-anchor="middle" x="55" y="-119.5" font-family="Helvetica,sans-Serif" font-size="10.00">spec/receptor_spec.h</text>
</a>
</g>
</g>
<!-- Node1&#45;&gt;Node12 -->
<g id="edge15" class="edge"><title>Node1&#45;&gt;Node12</title>
<path fill="none" stroke="midnightblue" d="M390.831,-221.51C315.256,-199.342 150.887,-151.127 84.095,-131.535"/>
<polygon fill="midnightblue" stroke="midnightblue" points="390.306,-225.004 400.886,-224.46 392.276,-218.287 390.306,-225.004"/>
</g>
<!-- Node3 -->
<g id="node3" class="node"><title>Node3</title>
<g id="a_node3"><a xlink:href="accumulator_8c.html" target="_top" xlink:title="implementation file for accumulator ">
<polygon fill="white" stroke="black" points="342.5,-112.5 342.5,-131.5 437.5,-131.5 437.5,-112.5 342.5,-112.5"/>
<text text-anchor="middle" x="390" y="-119.5" font-family="Helvetica,sans-Serif" font-size="10.00">src/accumulator.c</text>
</a>
</g>
</g>
<!-- Node2&#45;&gt;Node3 -->
<g id="edge2" class="edge"><title>Node2&#45;&gt;Node3</title>
<path fill="none" stroke="midnightblue" d="M356.034,-160.431C364.622,-150.967 375.043,-139.483 382.059,-131.751"/>
<polygon fill="midnightblue" stroke="midnightblue" points="353.219,-158.325 349.091,-168.083 358.403,-163.029 353.219,-158.325"/>
</g>
<!-- Node4 -->
<g id="node4" class="node"><title>Node4</title>
<g id="a_node4"><a xlink:href="ceptr_8c.html" target="_top" xlink:title="implements main() entry point for the ceptr node ">
<polygon fill="white" stroke="black" points="455.5,-112.5 455.5,-131.5 518.5,-131.5 518.5,-112.5 455.5,-112.5"/>
<text text-anchor="middle" x="487" y="-119.5" font-family="Helvetica,sans-Serif" font-size="10.00">src/ceptr.c</text>
</a>
</g>
</g>
<!-- Node2&#45;&gt;Node4 -->
<g id="edge3" class="edge"><title>Node2&#45;&gt;Node4</title>
<path fill="none" stroke="midnightblue" d="M373.699,-164.906C401.148,-154.754 439.668,-140.506 463.974,-131.516"/>
<polygon fill="midnightblue" stroke="midnightblue" points="372.299,-161.692 364.134,-168.444 374.727,-168.257 372.299,-161.692"/>
</g>
<!-- Node5 -->
<g id="node5" class="node"><title>Node5</title>
<g id="a_node5"><a xlink:href="receptor_8c.html" target="_top" xlink:title="receptor implementation ">
<polygon fill="white" stroke="black" points="166.5,-112.5 166.5,-131.5 243.5,-131.5 243.5,-112.5 166.5,-112.5"/>
<text text-anchor="middle" x="205" y="-119.5" font-family="Helvetica,sans-Serif" font-size="10.00">src/receptor.c</text>
</a>
</g>
</g>
<!-- Node2&#45;&gt;Node5 -->
<g id="edge4" class="edge"><title>Node2&#45;&gt;Node5</title>
<path fill="none" stroke="midnightblue" d="M309.865,-164.638C284.343,-154.504 248.891,-140.427 226.449,-131.516"/>
<polygon fill="midnightblue" stroke="midnightblue" points="308.865,-168.006 319.45,-168.444 311.448,-161.5 308.865,-168.006"/>
</g>
<!-- Node6 -->
<g id="node6" class="node"><title>Node6</title>
<g id="a_node6"><a xlink:href="shell_8h.html" target="_top" xlink:title="command line shell receptor header files ">
<polygon fill="white" stroke="black" points="262,-112.5 262,-131.5 324,-131.5 324,-112.5 262,-112.5"/>
<text text-anchor="middle" x="293" y="-119.5" font-family="Helvetica,sans-Serif" font-size="10.00">src/shell.h</text>
</a>
</g>
</g>
<!-- Node2&#45;&gt;Node6 -->
<g id="edge5" class="edge"><title>Node2&#45;&gt;Node6</title>
<path fill="none" stroke="midnightblue" d="M326.272,-160.431C317.86,-150.967 307.651,-139.483 300.779,-131.751"/>
<polygon fill="midnightblue" stroke="midnightblue" points="323.814,-162.934 333.074,-168.083 329.046,-158.284 323.814,-162.934"/>
</g>
<!-- Node2&#45;&gt;Node10 -->
<g id="edge9" class="edge"><title>Node2&#45;&gt;Node10</title>
<path fill="none" stroke="midnightblue" d="M387.803,-166.153C431.827,-155.95 496.847,-140.881 537.253,-131.516"/>
<polygon fill="midnightblue" stroke="midnightblue" points="386.871,-162.776 377.92,-168.444 388.452,-169.595 386.871,-162.776"/>
</g>
<!-- Node11 -->
<g id="node11" class="node"><title>Node11</title>
<g id="a_node11"><a xlink:href="accumulator__spec_8h_source.html" target="_top" xlink:title="spec/accumulator_spec.h">
<polygon fill="white" stroke="black" points="83,-56.5 83,-75.5 211,-75.5 211,-56.5 83,-56.5"/>
<text text-anchor="middle" x="147" y="-63.5" font-family="Helvetica,sans-Serif" font-size="10.00">spec/accumulator_spec.h</text>
</a>
</g>
</g>
<!-- Node2&#45;&gt;Node11 -->
<g id="edge10" class="edge"><title>Node2&#45;&gt;Node11</title>
<path fill="none" stroke="midnightblue" d="M283.234,-169.922C235.849,-162.889 173.922,-150.466 157,-132 142.807,-116.512 143.85,-89.7087 145.56,-75.8572"/>
<polygon fill="midnightblue" stroke="midnightblue" points="283.01,-173.426 293.406,-171.384 284.006,-166.497 283.01,-173.426"/>
</g>
<!-- Node2&#45;&gt;Node12 -->
<g id="edge12" class="edge"><title>Node2&#45;&gt;Node12</title>
<path fill="none" stroke="midnightblue" d="M285.586,-166.537C231.534,-156.332 150.329,-140.999 100.106,-131.516"/>
<polygon fill="midnightblue" stroke="midnightblue" points="285.207,-170.027 295.682,-168.444 286.505,-163.149 285.207,-170.027"/>
</g>
<!-- Node7 -->
<g id="node7" class="node"><title>Node7</title>
<g id="a_node7"><a xlink:href="shell_8c.html" target="_top" xlink:title="implementation of a command line shell receptor ">
<polygon fill="white" stroke="black" points="245,-56.5 245,-75.5 307,-75.5 307,-56.5 245,-56.5"/>
<text text-anchor="middle" x="276" y="-63.5" font-family="Helvetica,sans-Serif" font-size="10.00">src/shell.c</text>
</a>
</g>
</g>
<!-- Node6&#45;&gt;Node7 -->
<g id="edge6" class="edge"><title>Node6&#45;&gt;Node7</title>
<path fill="none" stroke="midnightblue" d="M287.143,-102.396C284.299,-93.362 281.017,-82.936 278.755,-75.7511"/>
<polygon fill="midnightblue" stroke="midnightblue" points="283.851,-103.596 290.193,-112.083 290.528,-101.493 283.851,-103.596"/>
</g>
<!-- Node6&#45;&gt;Node8 -->
<g id="edge7" class="edge"><title>Node6&#45;&gt;Node8</title>
<path fill="none" stroke="midnightblue" d="M315.194,-106.901C330.78,-96.9986 351.13,-84.0705 364.377,-75.6545"/>
<polygon fill="midnightblue" stroke="midnightblue" points="313.221,-104.007 306.657,-112.324 316.974,-109.916 313.221,-104.007"/>
</g>
<!-- Node9 -->
<g id="node9" class="node"><title>Node9</title>
<g id="a_node9"><a xlink:href="ceptr__specs_8c.html" target="_top" xlink:title="implements a main() entry point for running all the tests ">
<polygon fill="white" stroke="black" points="96,-0.5 96,-19.5 198,-19.5 198,-0.5 96,-0.5"/>
<text text-anchor="middle" x="147" y="-7.5" font-family="Helvetica,sans-Serif" font-size="10.00">spec/ceptr_specs.c</text>
</a>
</g>
</g>
<!-- Node8&#45;&gt;Node9 -->
<g id="edge8" class="edge"><title>Node8&#45;&gt;Node9</title>
<path fill="none" stroke="midnightblue" d="M331.598,-54.1529C287.953,-43.95 223.49,-28.8809 183.431,-19.5164"/>
<polygon fill="midnightblue" stroke="midnightblue" points="330.863,-57.5753 341.397,-56.4435 332.457,-50.7591 330.863,-57.5753"/>
</g>
<!-- Node11&#45;&gt;Node9 -->
<g id="edge11" class="edge"><title>Node11&#45;&gt;Node9</title>
<path fill="none" stroke="midnightblue" d="M147,-45.8045C147,-36.9102 147,-26.7798 147,-19.7511"/>
<polygon fill="midnightblue" stroke="midnightblue" points="143.5,-46.083 147,-56.083 150.5,-46.083 143.5,-46.083"/>
</g>
<!-- Node12&#45;&gt;Node9 -->
<g id="edge13" class="edge"><title>Node12&#45;&gt;Node9</title>
<path fill="none" stroke="midnightblue" d="M56.8517,-102.179C59.0326,-88.2446 63.7634,-69.427 74,-56 86.9981,-38.9508 108.471,-26.8437 124.772,-19.5133"/>
<polygon fill="midnightblue" stroke="midnightblue" points="53.3781,-101.751 55.593,-112.112 60.3226,-102.631 53.3781,-101.751"/>
</g>
</g>
</svg>
