<?xml version="1.0" encoding="UTF-8" standalone="no"?>
<!DOCTYPE svg PUBLIC "-//W3C//DTD SVG 1.1//EN"
 "http://www.w3.org/Graphics/SVG/1.1/DTD/svg11.dtd">
<!-- Generated by graphviz version 2.38.0 (20140413.2041)
 -->
<!-- Title: spec/vmhost_spec.h Pages: 1 -->
<svg width="1006pt" height="532pt"
 viewBox="0.00 0.00 1006.00 532.00" xmlns="http://www.w3.org/2000/svg" xmlns:xlink="http://www.w3.org/1999/xlink">
<g id="graph0" class="graph" transform="scale(1 1) rotate(0) translate(4 528)">
<title>spec/vmhost_spec.h</title>
<polygon fill="white" stroke="none" points="-4,4 -4,-528 1002,-528 1002,4 -4,4"/>
<!-- Node1 -->
<g id="node1" class="node"><title>Node1</title>
<polygon fill="#bfbfbf" stroke="black" points="520.5,-504.5 520.5,-523.5 627.5,-523.5 627.5,-504.5 520.5,-504.5"/>
<text text-anchor="middle" x="574" y="-511.5" font-family="Helvetica,sans-Serif" font-size="10.00">spec/vmhost_spec.h</text>
</g>
<!-- Node2 -->
<g id="node2" class="node"><title>Node2</title>
<g id="a_node2"><a xlink:href="ceptr_8h_source.html" target="_top" xlink:title="../src/ceptr.h">
<polygon fill="white" stroke="black" points="374,-336.5 374,-355.5 446,-355.5 446,-336.5 374,-336.5"/>
<text text-anchor="middle" x="410" y="-343.5" font-family="Helvetica,sans-Serif" font-size="10.00">../src/ceptr.h</text>
</a>
</g>
</g>
<!-- Node1&#45;&gt;Node2 -->
<g id="edge1" class="edge"><title>Node1&#45;&gt;Node2</title>
<path fill="none" stroke="midnightblue" d="M558.295,-504.281C531.479,-488.741 476.429,-453.923 442,-412 430.422,-397.903 421.692,-378.916 416.299,-365.105"/>
<polygon fill="midnightblue" stroke="midnightblue" points="419.581,-363.888 412.834,-355.719 413.014,-366.312 419.581,-363.888"/>
</g>
<!-- Node25 -->
<g id="node25" class="node"><title>Node25</title>
<g id="a_node25"><a xlink:href="vmhost_8h.html" target="_top" xlink:title="vmhost implementation header file ">
<polygon fill="white" stroke="black" points="663.5,-448.5 663.5,-467.5 746.5,-467.5 746.5,-448.5 663.5,-448.5"/>
<text text-anchor="middle" x="705" y="-455.5" font-family="Helvetica,sans-Serif" font-size="10.00">../src/vmhost.h</text>
</a>
</g>
</g>
<!-- Node1&#45;&gt;Node25 -->
<g id="edge45" class="edge"><title>Node1&#45;&gt;Node25</title>
<path fill="none" stroke="midnightblue" d="M594.757,-504.444C616.316,-495.557 650.263,-481.563 674.794,-471.451"/>
<polygon fill="midnightblue" stroke="midnightblue" points="676.428,-474.563 684.34,-467.516 673.761,-468.092 676.428,-474.563"/>
</g>
<!-- Node32 -->
<g id="node32" class="node"><title>Node32</title>
<g id="a_node32"><a xlink:href="http__example_8h.html" target="_top" xlink:title="http_example.h">
<polygon fill="white" stroke="black" points="532.5,-448.5 532.5,-467.5 615.5,-467.5 615.5,-448.5 532.5,-448.5"/>
<text text-anchor="middle" x="574" y="-455.5" font-family="Helvetica,sans-Serif" font-size="10.00">http_example.h</text>
</a>
</g>
</g>
<!-- Node1&#45;&gt;Node32 -->
<g id="edge57" class="edge"><title>Node1&#45;&gt;Node32</title>
<path fill="none" stroke="midnightblue" d="M574,-504.083C574,-497.006 574,-486.861 574,-477.986"/>
<polygon fill="midnightblue" stroke="midnightblue" points="577.5,-477.751 574,-467.751 570.5,-477.751 577.5,-477.751"/>
</g>
<!-- Node3 -->
<g id="node3" class="node"><title>Node3</title>
<polygon fill="white" stroke="#bfbfbf" points="315.5,-0.5 315.5,-19.5 364.5,-19.5 364.5,-0.5 315.5,-0.5"/>
<text text-anchor="middle" x="340" y="-7.5" font-family="Helvetica,sans-Serif" font-size="10.00">string.h</text>
</g>
<!-- Node2&#45;&gt;Node3 -->
<g id="edge2" class="edge"><title>Node2&#45;&gt;Node3</title>
<path fill="none" stroke="midnightblue" d="M373.975,-343.049C273.927,-336.655 0,-312.106 0,-235 0,-235 0,-235 0,-121 0,-57.3494 218.433,-25.065 305.138,-14.7572"/>
<polygon fill="midnightblue" stroke="midnightblue" points="305.744,-18.2105 315.274,-13.5815 304.937,-11.2571 305.744,-18.2105"/>
</g>
<!-- Node4 -->
<g id="node4" class="node"><title>Node4</title>
<polygon fill="white" stroke="#bfbfbf" points="263,-56.5 263,-75.5 309,-75.5 309,-56.5 263,-56.5"/>
<text text-anchor="middle" x="286" y="-63.5" font-family="Helvetica,sans-Serif" font-size="10.00">stdio.h</text>
</g>
<!-- Node2&#45;&gt;Node4 -->
<g id="edge3" class="edge"><title>Node2&#45;&gt;Node4</title>
<path fill="none" stroke="midnightblue" d="M396.623,-336.296C346.639,-303.759 173.606,-190.983 172,-188 147.124,-141.789 215.102,-100.178 256.577,-79.9467"/>
<polygon fill="midnightblue" stroke="midnightblue" points="258.188,-83.0566 265.73,-75.616 255.194,-76.7291 258.188,-83.0566"/>
</g>
<!-- Node5 -->
<g id="node5" class="node"><title>Node5</title>
<polygon fill="white" stroke="#bfbfbf" points="615,-0.5 615,-19.5 663,-19.5 663,-0.5 615,-0.5"/>
<text text-anchor="middle" x="639" y="-7.5" font-family="Helvetica,sans-Serif" font-size="10.00">stdlib.h</text>
</g>
<!-- Node2&#45;&gt;Node5 -->
<g id="edge4" class="edge"><title>Node2&#45;&gt;Node5</title>
<path fill="none" stroke="midnightblue" d="M413.465,-336.253C428.642,-298.79 492.548,-149.526 583,-56 593.81,-44.8228 607.372,-33.8596 618.443,-25.5528"/>
<polygon fill="midnightblue" stroke="midnightblue" points="620.692,-28.2434 626.686,-19.5072 616.553,-22.5987 620.692,-28.2434"/>
</g>
<!-- Node6 -->
<g id="node6" class="node"><title>Node6</title>
<g id="a_node6"><a xlink:href="ceptr__error_8h_source.html" target="_top" xlink:title="ceptr_error.h">
<polygon fill="white" stroke="black" points="310.5,-224.5 310.5,-243.5 381.5,-243.5 381.5,-224.5 310.5,-224.5"/>
<text text-anchor="middle" x="346" y="-231.5" font-family="Helvetica,sans-Serif" font-size="10.00">ceptr_error.h</text>
</a>
</g>
</g>
<!-- Node2&#45;&gt;Node6 -->
<g id="edge5" class="edge"><title>Node2&#45;&gt;Node6</title>
<path fill="none" stroke="midnightblue" d="M404.978,-336.368C394.463,-318.296 369.957,-276.176 356.07,-252.307"/>
<polygon fill="midnightblue" stroke="midnightblue" points="359.053,-250.475 350.999,-243.591 353.002,-253.995 359.053,-250.475"/>
</g>
<!-- Node10 -->
<g id="node10" class="node"><title>Node10</title>
<g id="a_node10"><a xlink:href="tree_8h.html" target="_top" xlink:title="semantic trees header file ">
<polygon fill="white" stroke="black" points="705.5,-280.5 705.5,-299.5 746.5,-299.5 746.5,-280.5 705.5,-280.5"/>
<text text-anchor="middle" x="726" y="-287.5" font-family="Helvetica,sans-Serif" font-size="10.00">tree.h</text>
</a>
</g>
</g>
<!-- Node2&#45;&gt;Node10 -->
<g id="edge10" class="edge"><title>Node2&#45;&gt;Node10</title>
<path fill="none" stroke="midnightblue" d="M446.249,-338.806C508.974,-328.087 636.657,-306.267 695.3,-296.246"/>
<polygon fill="midnightblue" stroke="midnightblue" points="696.147,-299.652 705.415,-294.518 694.968,-292.752 696.147,-299.652"/>
</g>
<!-- Node19 -->
<g id="node19" class="node"><title>Node19</title>
<g id="a_node19"><a xlink:href="stream_8h.html" target="_top" xlink:title="streams abstraction header file ">
<polygon fill="white" stroke="black" points="661.5,-224.5 661.5,-243.5 716.5,-243.5 716.5,-224.5 661.5,-224.5"/>
<text text-anchor="middle" x="689" y="-231.5" font-family="Helvetica,sans-Serif" font-size="10.00">stream.h</text>
</a>
</g>
</g>
<!-- Node2&#45;&gt;Node19 -->
<g id="edge38" class="edge"><title>Node2&#45;&gt;Node19</title>
<path fill="none" stroke="midnightblue" d="M429.173,-336.426C458.006,-323.629 514.343,-299.005 563,-280 593.561,-268.063 628.757,-255.599 654.168,-246.823"/>
<polygon fill="midnightblue" stroke="midnightblue" points="655.419,-250.095 663.737,-243.534 653.143,-243.475 655.419,-250.095"/>
</g>
<!-- Node20 -->
<g id="node20" class="node"><title>Node20</title>
<g id="a_node20"><a xlink:href="mtree_8h.html" target="_top" xlink:title="semantic tree matrix header file `` ">
<polygon fill="white" stroke="black" points="450,-280.5 450,-299.5 500,-299.5 500,-280.5 450,-280.5"/>
<text text-anchor="middle" x="475" y="-287.5" font-family="Helvetica,sans-Serif" font-size="10.00">mtree.h</text>
</a>
</g>
</g>
<!-- Node2&#45;&gt;Node20 -->
<g id="edge30" class="edge"><title>Node2&#45;&gt;Node20</title>
<path fill="none" stroke="midnightblue" d="M420.443,-336.324C430.146,-328.263 444.815,-316.077 456.5,-306.369"/>
<polygon fill="midnightblue" stroke="midnightblue" points="458.911,-308.916 464.367,-299.834 454.438,-303.532 458.911,-308.916"/>
</g>
<!-- Node21 -->
<g id="node21" class="node"><title>Node21</title>
<g id="a_node21"><a xlink:href="util_8h.html" target="_top" xlink:title="util.h">
<polygon fill="white" stroke="black" points="140,-280.5 140,-299.5 178,-299.5 178,-280.5 140,-280.5"/>
<text text-anchor="middle" x="159" y="-287.5" font-family="Helvetica,sans-Serif" font-size="10.00">util.h</text>
</a>
</g>
</g>
<!-- Node2&#45;&gt;Node21 -->
<g id="edge39" class="edge"><title>Node2&#45;&gt;Node21</title>
<path fill="none" stroke="midnightblue" d="M373.771,-337.206C323.642,-326.421 234.117,-307.161 188.09,-297.258"/>
<polygon fill="midnightblue" stroke="midnightblue" points="188.677,-293.805 178.165,-295.123 187.205,-300.648 188.677,-293.805"/>
</g>
<!-- Node24 -->
<g id="node24" class="node"><title>Node24</title>
<g id="a_node24"><a xlink:href="debug_8h.html" target="_top" xlink:title="debug.h">
<polygon fill="white" stroke="black" points="28.5,-112.5 28.5,-131.5 79.5,-131.5 79.5,-112.5 28.5,-112.5"/>
<text text-anchor="middle" x="54" y="-119.5" font-family="Helvetica,sans-Serif" font-size="10.00">debug.h</text>
</a>
</g>
</g>
<!-- Node2&#45;&gt;Node24 -->
<g id="edge43" class="edge"><title>Node2&#45;&gt;Node24</title>
<path fill="none" stroke="midnightblue" d="M373.965,-342.537C308.093,-337.493 171.311,-324.362 131,-300 74.8581,-266.071 59.5529,-180.54 55.4584,-142.159"/>
<polygon fill="midnightblue" stroke="midnightblue" points="58.9136,-141.51 54.5149,-131.871 51.9429,-142.149 58.9136,-141.51"/>
</g>
<!-- Node6&#45;&gt;Node4 -->
<g id="edge6" class="edge"><title>Node6&#45;&gt;Node4</title>
<path fill="none" stroke="midnightblue" d="M356.817,-224.101C370.248,-211.9 390.422,-189.084 382,-168 367.041,-130.548 330.856,-99.0445 307.433,-81.6232"/>
<polygon fill="midnightblue" stroke="midnightblue" points="309.31,-78.6617 299.151,-75.6528 305.216,-84.3399 309.31,-78.6617"/>
</g>
<!-- Node7 -->
<g id="node7" class="node"><title>Node7</title>
<polygon fill="white" stroke="#bfbfbf" points="181,-168.5 181,-187.5 231,-187.5 231,-168.5 181,-168.5"/>
<text text-anchor="middle" x="206" y="-175.5" font-family="Helvetica,sans-Serif" font-size="10.00">signal.h</text>
</g>
<!-- Node6&#45;&gt;Node7 -->
<g id="edge7" class="edge"><title>Node6&#45;&gt;Node7</title>
<path fill="none" stroke="midnightblue" d="M323.817,-224.444C300.572,-215.478 263.851,-201.314 237.585,-191.183"/>
<polygon fill="midnightblue" stroke="midnightblue" points="238.669,-187.85 228.08,-187.516 236.15,-194.381 238.669,-187.85"/>
</g>
<!-- Node8 -->
<g id="node8" class="node"><title>Node8</title>
<polygon fill="white" stroke="#bfbfbf" points="249,-168.5 249,-187.5 301,-187.5 301,-168.5 249,-168.5"/>
<text text-anchor="middle" x="275" y="-175.5" font-family="Helvetica,sans-Serif" font-size="10.00">assert.h</text>
</g>
<!-- Node6&#45;&gt;Node8 -->
<g id="edge8" class="edge"><title>Node6&#45;&gt;Node8</title>
<path fill="none" stroke="midnightblue" d="M334.593,-224.324C323.891,-216.185 307.659,-203.839 294.837,-194.087"/>
<polygon fill="midnightblue" stroke="midnightblue" points="296.693,-191.102 286.615,-187.834 292.456,-196.673 296.693,-191.102"/>
</g>
<!-- Node9 -->
<g id="node9" class="node"><title>Node9</title>
<polygon fill="white" stroke="#bfbfbf" points="319,-168.5 319,-187.5 373,-187.5 373,-168.5 319,-168.5"/>
<text text-anchor="middle" x="346" y="-175.5" font-family="Helvetica,sans-Serif" font-size="10.00">setjmp.h</text>
</g>
<!-- Node6&#45;&gt;Node9 -->
<g id="edge9" class="edge"><title>Node6&#45;&gt;Node9</title>
<path fill="none" stroke="midnightblue" d="M346,-224.083C346,-217.006 346,-206.861 346,-197.986"/>
<polygon fill="midnightblue" stroke="midnightblue" points="349.5,-197.751 346,-187.751 342.5,-197.751 349.5,-197.751"/>
</g>
<!-- Node10&#45;&gt;Node3 -->
<g id="edge11" class="edge"><title>Node10&#45;&gt;Node3</title>
<path fill="none" stroke="midnightblue" d="M746.683,-288.919C777.137,-287.544 833.212,-279.95 859,-244 886.049,-206.293 817.567,-62.7272 809,-56 775.02,-29.3173 477.692,-16.0269 374.835,-12.1974"/>
<polygon fill="midnightblue" stroke="midnightblue" points="374.786,-8.69342 364.665,-11.8262 374.531,-15.6888 374.786,-8.69342"/>
</g>
<!-- Node10&#45;&gt;Node5 -->
<g id="edge12" class="edge"><title>Node10&#45;&gt;Node5</title>
<path fill="none" stroke="midnightblue" d="M746.79,-288.536C786.184,-286.829 873.36,-279.043 936,-244 970.842,-224.508 998,-218.923 998,-179 998,-179 998,-179 998,-121 998,-84.2802 978.769,-74.4137 947,-56 900.972,-29.3219 743.553,-17.0617 673.315,-12.8224"/>
<polygon fill="midnightblue" stroke="midnightblue" points="673.401,-9.32158 663.214,-12.2321 672.993,-16.3097 673.401,-9.32158"/>
</g>
<!-- Node10&#45;&gt;Node6 -->
<g id="edge13" class="edge"><title>Node10&#45;&gt;Node6</title>
<path fill="none" stroke="midnightblue" d="M705.3,-286.058C646.038,-277.637 474.681,-253.286 391.872,-241.519"/>
<polygon fill="midnightblue" stroke="midnightblue" points="392.142,-238.022 381.749,-240.08 391.157,-244.952 392.142,-238.022"/>
</g>
<!-- Node11 -->
<g id="node11" class="node"><title>Node11</title>
<g id="a_node11"><a xlink:href="sys__symbols_8h.html" target="_top" xlink:title="Defines hard&#45;coded system defined symbols. ">
<polygon fill="white" stroke="black" points="734.5,-224.5 734.5,-243.5 817.5,-243.5 817.5,-224.5 734.5,-224.5"/>
<text text-anchor="middle" x="776" y="-231.5" font-family="Helvetica,sans-Serif" font-size="10.00">sys_symbols.h</text>
</a>
</g>
</g>
<!-- Node10&#45;&gt;Node11 -->
<g id="edge14" class="edge"><title>Node10&#45;&gt;Node11</title>
<path fill="none" stroke="midnightblue" d="M734.256,-280.083C741.465,-272.298 752.11,-260.801 760.846,-251.367"/>
<polygon fill="midnightblue" stroke="midnightblue" points="763.671,-253.467 767.897,-243.751 758.535,-248.711 763.671,-253.467"/>
</g>
<!-- Node12 -->
<g id="node12" class="node"><title>Node12</title>
<g id="a_node12"><a xlink:href="sys__structures_8h.html" target="_top" xlink:title="Defines hard&#45;coded system defined structures. ">
<polygon fill="white" stroke="black" points="731.5,-168.5 731.5,-187.5 820.5,-187.5 820.5,-168.5 731.5,-168.5"/>
<text text-anchor="middle" x="776" y="-175.5" font-family="Helvetica,sans-Serif" font-size="10.00">sys_structures.h</text>
</a>
</g>
</g>
<!-- Node10&#45;&gt;Node12 -->
<g id="edge25" class="edge"><title>Node10&#45;&gt;Node12</title>
<path fill="none" stroke="midnightblue" d="M746.745,-286.302C770.545,-281.975 808.53,-271.018 826,-244 837.759,-225.814 817.892,-206.292 799.83,-193.441"/>
<polygon fill="midnightblue" stroke="midnightblue" points="801.512,-190.356 791.255,-187.704 797.62,-196.174 801.512,-190.356"/>
</g>
<!-- Node13 -->
<g id="node13" class="node"><title>Node13</title>
<g id="a_node13"><a xlink:href="ceptr__types_8h_source.html" target="_top" xlink:title="ceptr_types.h">
<polygon fill="white" stroke="black" points="738,-112.5 738,-131.5 814,-131.5 814,-112.5 738,-112.5"/>
<text text-anchor="middle" x="776" y="-119.5" font-family="Helvetica,sans-Serif" font-size="10.00">ceptr_types.h</text>
</a>
</g>
</g>
<!-- Node10&#45;&gt;Node13 -->
<g id="edge27" class="edge"><title>Node10&#45;&gt;Node13</title>
<path fill="none" stroke="midnightblue" d="M746.612,-287.753C773.748,-284.876 820.522,-275.37 842,-244 853.051,-227.86 841.422,-188.376 829,-168 821.637,-155.922 809.909,-145.472 799.355,-137.691"/>
<polygon fill="midnightblue" stroke="midnightblue" points="801.096,-134.639 790.888,-131.805 797.101,-140.386 801.096,-134.639"/>
</g>
<!-- Node18 -->
<g id="node18" class="node"><title>Node18</title>
<g id="a_node18"><a xlink:href="sys__processes_8h.html" target="_top" xlink:title="Defines hard&#45;coded system defined processes. ">
<polygon fill="white" stroke="black" points="552.5,-224.5 552.5,-243.5 643.5,-243.5 643.5,-224.5 552.5,-224.5"/>
<text text-anchor="middle" x="598" y="-231.5" font-family="Helvetica,sans-Serif" font-size="10.00">sys_processes.h</text>
</a>
</g>
</g>
<!-- Node10&#45;&gt;Node18 -->
<g id="edge26" class="edge"><title>Node10&#45;&gt;Node18</title>
<path fill="none" stroke="midnightblue" d="M705.718,-280.444C684.653,-271.557 651.483,-257.563 627.514,-247.451"/>
<polygon fill="midnightblue" stroke="midnightblue" points="628.761,-244.179 618.187,-243.516 626.04,-250.628 628.761,-244.179"/>
</g>
<!-- Node10&#45;&gt;Node19 -->
<g id="edge28" class="edge"><title>Node10&#45;&gt;Node19</title>
<path fill="none" stroke="midnightblue" d="M719.89,-280.083C714.718,-272.534 707.154,-261.495 700.806,-252.23"/>
<polygon fill="midnightblue" stroke="midnightblue" points="703.536,-250.022 694.996,-243.751 697.761,-253.979 703.536,-250.022"/>
</g>
<!-- Node11&#45;&gt;Node12 -->
<g id="edge15" class="edge"><title>Node11&#45;&gt;Node12</title>
<path fill="none" stroke="midnightblue" d="M776,-224.083C776,-217.006 776,-206.861 776,-197.986"/>
<polygon fill="midnightblue" stroke="midnightblue" points="779.5,-197.751 776,-187.751 772.5,-197.751 779.5,-197.751"/>
</g>
<!-- Node11&#45;&gt;Node13 -->
<g id="edge24" class="edge"><title>Node11&#45;&gt;Node13</title>
<path fill="none" stroke="midnightblue" d="M759.367,-224.464C746.512,-216.841 729.661,-204.356 722,-188 712.695,-168.134 732.684,-149.299 750.92,-137.068"/>
<polygon fill="midnightblue" stroke="midnightblue" points="752.989,-139.902 759.595,-131.619 749.266,-133.974 752.989,-139.902"/>
</g>
<!-- Node12&#45;&gt;Node13 -->
<g id="edge16" class="edge"><title>Node12&#45;&gt;Node13</title>
<path fill="none" stroke="midnightblue" d="M776,-168.083C776,-161.006 776,-150.861 776,-141.986"/>
<polygon fill="midnightblue" stroke="midnightblue" points="779.5,-141.751 776,-131.751 772.5,-141.751 779.5,-141.751"/>
</g>
<!-- Node13&#45;&gt;Node4 -->
<g id="edge18" class="edge"><title>Node13&#45;&gt;Node4</title>
<path fill="none" stroke="midnightblue" d="M737.958,-116.808C644.925,-106.555 407.116,-80.3475 319.267,-70.6662"/>
<polygon fill="midnightblue" stroke="midnightblue" points="319.403,-67.16 309.079,-69.5434 318.636,-74.1179 319.403,-67.16"/>
</g>
<!-- Node14 -->
<g id="node14" class="node"><title>Node14</title>
<polygon fill="white" stroke="#bfbfbf" points="751.5,-56.5 751.5,-75.5 800.5,-75.5 800.5,-56.5 751.5,-56.5"/>
<text text-anchor="middle" x="776" y="-63.5" font-family="Helvetica,sans-Serif" font-size="10.00">stdint.h</text>
</g>
<!-- Node13&#45;&gt;Node14 -->
<g id="edge17" class="edge"><title>Node13&#45;&gt;Node14</title>
<path fill="none" stroke="midnightblue" d="M776,-112.083C776,-105.006 776,-94.8611 776,-85.9865"/>
<polygon fill="midnightblue" stroke="midnightblue" points="779.5,-85.751 776,-75.7511 772.5,-85.7511 779.5,-85.751"/>
</g>
<!-- Node15 -->
<g id="node15" class="node"><title>Node15</title>
<g id="a_node15"><a xlink:href="uthash_8h_source.html" target="_top" xlink:title="uthash.h">
<polygon fill="white" stroke="black" points="884,-56.5 884,-75.5 938,-75.5 938,-56.5 884,-56.5"/>
<text text-anchor="middle" x="911" y="-63.5" font-family="Helvetica,sans-Serif" font-size="10.00">uthash.h</text>
</a>
</g>
</g>
<!-- Node13&#45;&gt;Node15 -->
<g id="edge19" class="edge"><title>Node13&#45;&gt;Node15</title>
<path fill="none" stroke="midnightblue" d="M797.391,-112.444C819.707,-103.517 854.903,-89.4387 880.208,-79.3168"/>
<polygon fill="midnightblue" stroke="midnightblue" points="881.724,-82.4801 889.709,-75.5164 879.124,-75.9807 881.724,-82.4801"/>
</g>
<!-- Node15&#45;&gt;Node3 -->
<g id="edge20" class="edge"><title>Node15&#45;&gt;Node3</title>
<path fill="none" stroke="midnightblue" d="M883.746,-58.4943C879.176,-57.5539 874.467,-56.677 870,-56 684.596,-27.9043 459.848,-16.0668 374.83,-12.3726"/>
<polygon fill="midnightblue" stroke="midnightblue" points="374.842,-8.87006 364.702,-11.9427 374.545,-15.8638 374.842,-8.87006"/>
</g>
<!-- Node15&#45;&gt;Node5 -->
<g id="edge22" class="edge"><title>Node15&#45;&gt;Node5</title>
<path fill="none" stroke="midnightblue" d="M883.672,-58.9068C879.111,-57.9168 874.424,-56.9164 870,-56 800.219,-41.5464 718.298,-25.8995 673.169,-17.3943"/>
<polygon fill="midnightblue" stroke="midnightblue" points="673.791,-13.9499 663.316,-15.5407 672.497,-20.8293 673.791,-13.9499"/>
</g>
<!-- Node16 -->
<g id="node16" class="node"><title>Node16</title>
<polygon fill="white" stroke="#bfbfbf" points="922,-0.5 922,-19.5 974,-19.5 974,-0.5 922,-0.5"/>
<text text-anchor="middle" x="948" y="-7.5" font-family="Helvetica,sans-Serif" font-size="10.00">stddef.h</text>
</g>
<!-- Node15&#45;&gt;Node16 -->
<g id="edge21" class="edge"><title>Node15&#45;&gt;Node16</title>
<path fill="none" stroke="midnightblue" d="M917.11,-56.083C922.282,-48.5341 929.846,-37.4948 936.194,-28.2298"/>
<polygon fill="midnightblue" stroke="midnightblue" points="939.239,-29.9787 942.004,-19.7511 933.464,-26.0221 939.239,-29.9787"/>
</g>
<!-- Node17 -->
<g id="node17" class="node"><title>Node17</title>
<polygon fill="white" stroke="#bfbfbf" points="844.5,-0.5 844.5,-19.5 903.5,-19.5 903.5,-0.5 844.5,-0.5"/>
<text text-anchor="middle" x="874" y="-7.5" font-family="Helvetica,sans-Serif" font-size="10.00">inttypes.h</text>
</g>
<!-- Node15&#45;&gt;Node17 -->
<g id="edge23" class="edge"><title>Node15&#45;&gt;Node17</title>
<path fill="none" stroke="midnightblue" d="M904.89,-56.083C899.718,-48.5341 892.154,-37.4948 885.806,-28.2298"/>
<polygon fill="midnightblue" stroke="midnightblue" points="888.536,-26.0221 879.996,-19.7511 882.761,-29.9787 888.536,-26.0221"/>
</g>
<!-- Node19&#45;&gt;Node4 -->
<g id="edge29" class="edge"><title>Node19&#45;&gt;Node4</title>
<path fill="none" stroke="midnightblue" d="M668.182,-224.425C601.718,-197.047 394.406,-111.654 316.236,-79.4545"/>
<polygon fill="midnightblue" stroke="midnightblue" points="317.515,-76.1962 306.936,-75.6237 314.849,-82.6686 317.515,-76.1962"/>
</g>
<!-- Node20&#45;&gt;Node3 -->
<g id="edge31" class="edge"><title>Node20&#45;&gt;Node3</title>
<path fill="none" stroke="midnightblue" d="M449.892,-284.678C383.024,-272.582 203.557,-236.101 172,-188 126.21,-118.203 250.422,-50.9963 310.076,-23.7379"/>
<polygon fill="midnightblue" stroke="midnightblue" points="311.702,-26.8448 319.398,-19.5633 308.841,-20.4561 311.702,-26.8448"/>
</g>
<!-- Node20&#45;&gt;Node5 -->
<g id="edge32" class="edge"><title>Node20&#45;&gt;Node5</title>
<path fill="none" stroke="midnightblue" d="M476.291,-280.261C478.399,-267.467 483.249,-243.085 492,-224 528.774,-143.804 595.62,-61.3182 624.77,-27.2374"/>
<polygon fill="midnightblue" stroke="midnightblue" points="627.439,-29.5019 631.327,-19.6465 622.142,-24.9258 627.439,-29.5019"/>
</g>
<!-- Node20&#45;&gt;Node6 -->
<g id="edge33" class="edge"><title>Node20&#45;&gt;Node6</title>
<path fill="none" stroke="midnightblue" d="M454.56,-280.444C433.33,-271.557 399.901,-257.563 375.745,-247.451"/>
<polygon fill="midnightblue" stroke="midnightblue" points="376.921,-244.149 366.345,-243.516 374.218,-250.606 376.921,-244.149"/>
</g>
<!-- Node20&#45;&gt;Node11 -->
<g id="edge34" class="edge"><title>Node20&#45;&gt;Node11</title>
<path fill="none" stroke="midnightblue" d="M500.145,-284.489C549.3,-275.67 659.013,-255.988 724.295,-244.276"/>
<polygon fill="midnightblue" stroke="midnightblue" points="725.15,-247.679 734.375,-242.468 723.914,-240.788 725.15,-247.679"/>
</g>
<!-- Node20&#45;&gt;Node12 -->
<g id="edge35" class="edge"><title>Node20&#45;&gt;Node12</title>
<path fill="none" stroke="midnightblue" d="M481.419,-280.205C492.344,-265.937 516.012,-237.941 543,-224 599.214,-194.961 671.836,-184.569 720.948,-180.901"/>
<polygon fill="midnightblue" stroke="midnightblue" points="721.317,-184.384 731.057,-180.216 720.843,-177.4 721.317,-184.384"/>
</g>
<!-- Node20&#45;&gt;Node13 -->
<g id="edge37" class="edge"><title>Node20&#45;&gt;Node13</title>
<path fill="none" stroke="midnightblue" d="M477.832,-280.16C482.688,-266.333 493.871,-239.562 512,-224 575.228,-169.725 670.729,-143.014 727.871,-131.181"/>
<polygon fill="midnightblue" stroke="midnightblue" points="728.615,-134.601 737.734,-129.207 727.242,-127.737 728.615,-134.601"/>
</g>
<!-- Node20&#45;&gt;Node18 -->
<g id="edge36" class="edge"><title>Node20&#45;&gt;Node18</title>
<path fill="none" stroke="midnightblue" d="M494.49,-280.444C514.642,-271.596 546.323,-257.687 569.331,-247.586"/>
<polygon fill="midnightblue" stroke="midnightblue" points="570.852,-250.741 578.601,-243.516 568.038,-244.332 570.852,-250.741"/>
</g>
<!-- Node21&#45;&gt;Node4 -->
<g id="edge41" class="edge"><title>Node21&#45;&gt;Node4</title>
<path fill="none" stroke="midnightblue" d="M139.998,-281.544C124.749,-274.423 104.39,-262.081 95,-244 90.9033,-236.111 92.4154,-232.505 95,-224 112.419,-166.681 123.244,-149.455 170,-112 194.449,-92.4148 228.422,-80.5783 253.284,-73.9965"/>
<polygon fill="midnightblue" stroke="midnightblue" points="254.141,-77.3902 262.993,-71.5687 252.442,-70.5993 254.141,-77.3902"/>
</g>
<!-- Node22 -->
<g id="node22" class="node"><title>Node22</title>
<polygon fill="white" stroke="#bfbfbf" points="166.5,-224.5 166.5,-243.5 215.5,-243.5 215.5,-224.5 166.5,-224.5"/>
<text text-anchor="middle" x="191" y="-231.5" font-family="Helvetica,sans-Serif" font-size="10.00">ctype.h</text>
</g>
<!-- Node21&#45;&gt;Node22 -->
<g id="edge40" class="edge"><title>Node21&#45;&gt;Node22</title>
<path fill="none" stroke="midnightblue" d="M164.284,-280.083C168.711,-272.613 175.163,-261.724 180.618,-252.52"/>
<polygon fill="midnightblue" stroke="midnightblue" points="183.727,-254.138 185.814,-243.751 177.705,-250.57 183.727,-254.138"/>
</g>
<!-- Node23 -->
<g id="node23" class="node"><title>Node23</title>
<polygon fill="white" stroke="#bfbfbf" points="104,-224.5 104,-243.5 148,-243.5 148,-224.5 104,-224.5"/>
<text text-anchor="middle" x="126" y="-231.5" font-family="Helvetica,sans-Serif" font-size="10.00">time.h</text>
</g>
<!-- Node21&#45;&gt;Node23 -->
<g id="edge42" class="edge"><title>Node21&#45;&gt;Node23</title>
<path fill="none" stroke="midnightblue" d="M153.551,-280.083C148.986,-272.613 142.332,-261.724 136.707,-252.52"/>
<polygon fill="midnightblue" stroke="midnightblue" points="139.549,-250.459 131.348,-243.751 133.576,-254.109 139.549,-250.459"/>
</g>
<!-- Node24&#45;&gt;Node4 -->
<g id="edge44" class="edge"><title>Node24&#45;&gt;Node4</title>
<path fill="none" stroke="midnightblue" d="M79.7145,-115.015C122.052,-105.16 206.38,-85.5323 253.038,-74.6722"/>
<polygon fill="midnightblue" stroke="midnightblue" points="253.997,-78.0425 262.943,-72.3666 252.41,-71.2248 253.997,-78.0425"/>
</g>
<!-- Node26 -->
<g id="node26" class="node"><title>Node26</title>
<g id="a_node26"><a xlink:href="receptor_8h.html" target="_top" xlink:title="receptor implementation header file ">
<polygon fill="white" stroke="black" points="706,-392.5 706,-411.5 766,-411.5 766,-392.5 706,-392.5"/>
<text text-anchor="middle" x="736" y="-399.5" font-family="Helvetica,sans-Serif" font-size="10.00">receptor.h</text>
</a>
</g>
</g>
<!-- Node25&#45;&gt;Node26 -->
<g id="edge46" class="edge"><title>Node25&#45;&gt;Node26</title>
<path fill="none" stroke="midnightblue" d="M710.119,-448.083C714.408,-440.613 720.658,-429.724 725.942,-420.52"/>
<polygon fill="midnightblue" stroke="midnightblue" points="729.033,-422.166 730.976,-411.751 722.962,-418.681 729.033,-422.166"/>
</g>
<!-- Node26&#45;&gt;Node10 -->
<g id="edge47" class="edge"><title>Node26&#45;&gt;Node10</title>
<path fill="none" stroke="midnightblue" d="M735.895,-392.146C735.676,-379.617 735.012,-356.007 733,-336 732.119,-327.238 730.68,-317.583 729.334,-309.47"/>
<polygon fill="midnightblue" stroke="midnightblue" points="732.779,-308.845 727.62,-299.591 725.882,-310.042 732.779,-308.845"/>
</g>
<!-- Node27 -->
<g id="node27" class="node"><title>Node27</title>
<g id="a_node27"><a xlink:href="def_8h.html" target="_top" xlink:title="header file for symbol and structure definition functions ">
<polygon fill="white" stroke="black" points="579,-336.5 579,-355.5 617,-355.5 617,-336.5 579,-336.5"/>
<text text-anchor="middle" x="598" y="-343.5" font-family="Helvetica,sans-Serif" font-size="10.00">def.h</text>
</a>
</g>
</g>
<!-- Node26&#45;&gt;Node27 -->
<g id="edge48" class="edge"><title>Node26&#45;&gt;Node27</title>
<path fill="none" stroke="midnightblue" d="M714.133,-392.444C690.412,-383.161 652.453,-368.308 626.432,-358.125"/>
<polygon fill="midnightblue" stroke="midnightblue" points="627.686,-354.858 617.098,-354.473 625.135,-361.376 627.686,-354.858"/>
</g>
<!-- Node29 -->
<g id="node29" class="node"><title>Node29</title>
<g id="a_node29"><a xlink:href="label_8h.html" target="_top" xlink:title="Label tables map human readable text strings to parts of semantic trees. ">
<polygon fill="white" stroke="black" points="914.5,-280.5 914.5,-299.5 959.5,-299.5 959.5,-280.5 914.5,-280.5"/>
<text text-anchor="middle" x="937" y="-287.5" font-family="Helvetica,sans-Serif" font-size="10.00">label.h</text>
</a>
</g>
</g>
<!-- Node26&#45;&gt;Node29 -->
<g id="edge51" class="edge"><title>Node26&#45;&gt;Node29</title>
<path fill="none" stroke="midnightblue" d="M762.907,-392.478C786.372,-384.54 820.95,-371.601 849,-356 875.008,-341.534 902.146,-320.426 919.287,-306.226"/>
<polygon fill="midnightblue" stroke="midnightblue" points="921.881,-308.617 927.28,-299.502 917.375,-303.261 921.881,-308.617"/>
</g>
<!-- Node30 -->
<g id="node30" class="node"><title>Node30</title>
<g id="a_node30"><a xlink:href="process_8h.html" target="_top" xlink:title="processing header files ">
<polygon fill="white" stroke="black" points="781.5,-336.5 781.5,-355.5 840.5,-355.5 840.5,-336.5 781.5,-336.5"/>
<text text-anchor="middle" x="811" y="-343.5" font-family="Helvetica,sans-Serif" font-size="10.00">process.h</text>
</a>
</g>
</g>
<!-- Node26&#45;&gt;Node30 -->
<g id="edge53" class="edge"><title>Node26&#45;&gt;Node30</title>
<path fill="none" stroke="midnightblue" d="M748.05,-392.324C759.463,-384.107 776.831,-371.602 790.435,-361.807"/>
<polygon fill="midnightblue" stroke="midnightblue" points="792.66,-364.517 798.731,-355.834 788.57,-358.837 792.66,-364.517"/>
</g>
<!-- Node31 -->
<g id="node31" class="node"><title>Node31</title>
<g id="a_node31"><a xlink:href="scape_8h.html" target="_top" xlink:title="scape header files ">
<polygon fill="white" stroke="black" points="673.5,-336.5 673.5,-355.5 724.5,-355.5 724.5,-336.5 673.5,-336.5"/>
<text text-anchor="middle" x="699" y="-343.5" font-family="Helvetica,sans-Serif" font-size="10.00">scape.h</text>
</a>
</g>
</g>
<!-- Node26&#45;&gt;Node31 -->
<g id="edge55" class="edge"><title>Node26&#45;&gt;Node31</title>
<path fill="none" stroke="midnightblue" d="M729.89,-392.083C724.718,-384.534 717.154,-373.495 710.806,-364.23"/>
<polygon fill="midnightblue" stroke="midnightblue" points="713.536,-362.022 704.996,-355.751 707.761,-365.979 713.536,-362.022"/>
</g>
<!-- Node27&#45;&gt;Node10 -->
<g id="edge49" class="edge"><title>Node27&#45;&gt;Node10</title>
<path fill="none" stroke="midnightblue" d="M617.163,-336.916C638.004,-328.123 671.592,-313.953 695.948,-303.678"/>
<polygon fill="midnightblue" stroke="midnightblue" points="697.579,-306.789 705.432,-299.677 694.858,-300.339 697.579,-306.789"/>
</g>
<!-- Node28 -->
<g id="node28" class="node"><title>Node28</title>
<polygon fill="white" stroke="#bfbfbf" points="572,-280.5 572,-299.5 624,-299.5 624,-280.5 572,-280.5"/>
<text text-anchor="middle" x="598" y="-287.5" font-family="Helvetica,sans-Serif" font-size="10.00">stdarg.h</text>
</g>
<!-- Node27&#45;&gt;Node28 -->
<g id="edge50" class="edge"><title>Node27&#45;&gt;Node28</title>
<path fill="none" stroke="midnightblue" d="M598,-336.083C598,-329.006 598,-318.861 598,-309.986"/>
<polygon fill="midnightblue" stroke="midnightblue" points="601.5,-309.751 598,-299.751 594.5,-309.751 601.5,-309.751"/>
</g>
<!-- Node29&#45;&gt;Node13 -->
<g id="edge52" class="edge"><title>Node29&#45;&gt;Node13</title>
<path fill="none" stroke="midnightblue" d="M932.127,-280.217C920.037,-258.987 886.82,-203.991 848,-168 834.433,-155.422 816.863,-144.361 802.476,-136.352"/>
<polygon fill="midnightblue" stroke="midnightblue" points="804.019,-133.208 793.555,-131.545 800.698,-139.37 804.019,-133.208"/>
</g>
<!-- Node30&#45;&gt;Node10 -->
<g id="edge54" class="edge"><title>Node30&#45;&gt;Node10</title>
<path fill="none" stroke="midnightblue" d="M797.343,-336.324C784.084,-327.9 763.732,-314.971 748.154,-305.074"/>
<polygon fill="midnightblue" stroke="midnightblue" points="749.94,-302.063 739.623,-299.655 746.187,-307.971 749.94,-302.063"/>
</g>
<!-- Node31&#45;&gt;Node10 -->
<g id="edge56" class="edge"><title>Node31&#45;&gt;Node10</title>
<path fill="none" stroke="midnightblue" d="M703.459,-336.083C707.154,-328.691 712.523,-317.953 717.094,-308.811"/>
<polygon fill="midnightblue" stroke="midnightblue" points="720.283,-310.261 721.624,-299.751 714.022,-307.13 720.283,-310.261"/>
</g>
<!-- Node32&#45;&gt;Node2 -->
<g id="edge58" class="edge"><title>Node32&#45;&gt;Node2</title>
<path fill="none" stroke="midnightblue" d="M543.997,-448.44C521.455,-441.085 490.542,-428.967 467,-412 448.621,-398.754 432.1,-378.532 421.635,-364.165"/>
<polygon fill="midnightblue" stroke="midnightblue" points="424.293,-361.861 415.674,-355.701 418.57,-365.892 424.293,-361.861"/>
</g>
<!-- Node32&#45;&gt;Node26 -->
<g id="edge59" class="edge"><title>Node32&#45;&gt;Node26</title>
<path fill="none" stroke="midnightblue" d="M599.669,-448.444C626.923,-439.359 670.184,-424.939 700.651,-414.783"/>
<polygon fill="midnightblue" stroke="midnightblue" points="702.071,-417.999 710.451,-411.516 699.857,-411.358 702.071,-417.999"/>
</g>
<!-- Node32&#45;&gt;Node27 -->
<g id="edge60" class="edge"><title>Node32&#45;&gt;Node27</title>
<path fill="none" stroke="midnightblue" d="M575.883,-448.368C579.756,-430.617 588.691,-389.666 593.942,-365.597"/>
<polygon fill="midnightblue" stroke="midnightblue" points="597.413,-366.108 596.126,-355.591 590.574,-364.615 597.413,-366.108"/>
</g>
<!-- Node33 -->
<g id="node33" class="node"><title>Node33</title>
<g id="a_node33"><a xlink:href="semtrex_8h.html" target="_top" xlink:title="Semantic tree regular expression header file. ">
<polygon fill="white" stroke="black" points="602,-392.5 602,-411.5 688,-411.5 688,-392.5 602,-392.5"/>
<text text-anchor="middle" x="645" y="-399.5" font-family="Helvetica,sans-Serif" font-size="10.00">../src/semtrex.h</text>
</a>
</g>
</g>
<!-- Node32&#45;&gt;Node33 -->
<g id="edge61" class="edge"><title>Node32&#45;&gt;Node33</title>
<path fill="none" stroke="midnightblue" d="M585.407,-448.324C596.109,-440.185 612.341,-427.839 625.163,-418.087"/>
<polygon fill="midnightblue" stroke="midnightblue" points="627.544,-420.673 633.385,-411.834 623.307,-415.102 627.544,-420.673"/>
</g>
<!-- Node34 -->
<g id="node34" class="node"><title>Node34</title>
<g id="a_node34"><a xlink:href="spec__utils_8h.html" target="_top" xlink:title="spec_utils.h">
<polygon fill="white" stroke="black" points="476.5,-392.5 476.5,-411.5 545.5,-411.5 545.5,-392.5 476.5,-392.5"/>
<text text-anchor="middle" x="511" y="-399.5" font-family="Helvetica,sans-Serif" font-size="10.00">spec_utils.h</text>
</a>
</g>
</g>
<!-- Node32&#45;&gt;Node34 -->
<g id="edge63" class="edge"><title>Node32&#45;&gt;Node34</title>
<path fill="none" stroke="midnightblue" d="M563.878,-448.324C554.474,-440.263 540.256,-428.077 528.931,-418.369"/>
<polygon fill="midnightblue" stroke="midnightblue" points="531.177,-415.684 521.306,-411.834 526.621,-420.999 531.177,-415.684"/>
</g>
<!-- Node33&#45;&gt;Node10 -->
<g id="edge62" class="edge"><title>Node33&#45;&gt;Node10</title>
<path fill="none" stroke="midnightblue" d="M645.756,-392.231C647.273,-378.966 651.678,-353.493 664,-336 673.183,-322.963 687.365,-312.267 699.848,-304.579"/>
<polygon fill="midnightblue" stroke="midnightblue" points="701.657,-307.575 708.542,-299.521 698.138,-301.524 701.657,-307.575"/>
</g>
<!-- Node34&#45;&gt;Node2 -->
<g id="edge64" class="edge"><title>Node34&#45;&gt;Node2</title>
<path fill="none" stroke="midnightblue" d="M494.773,-392.324C478.649,-383.703 453.7,-370.364 435.036,-360.386"/>
<polygon fill="midnightblue" stroke="midnightblue" points="436.656,-357.283 426.187,-355.655 433.356,-363.456 436.656,-357.283"/>
</g>
</g>
</svg>
