<?xml version="1.0" encoding="UTF-8" standalone="no"?>
<!DOCTYPE svg PUBLIC "-//W3C//DTD SVG 1.1//EN"
 "http://www.w3.org/Graphics/SVG/1.1/DTD/svg11.dtd">
<!-- Generated by graphviz version 2.38.0 (20140413.2041)
 -->
<!-- Title: src/vmhost.h Pages: 1 -->
<!--zoomable 252 -->
<svg id="main" version="1.1" xmlns="http://www.w3.org/2000/svg" xmlns:xlink="http://www.w3.org/1999/xlink" xml:space="preserve" onload="init(evt)">
<style type="text/css"><![CDATA[
.edge:hover path { stroke: red; }
.edge:hover polygon { stroke: red; fill: red; }
]]></style>
<script type="text/javascript"><![CDATA[
var edges = document.getElementsByTagName('g');
if (edges && edges.length) {
  for (var i=0;i<edges.length;i++) {
    if (edges[i].id.substr(0,4)=='edge') {
      edges[i].setAttribute('class','edge');
    }
  }
}
]]></script>
        <defs>
                <circle id="rim" cx="0" cy="0" r="7"/>
                <circle id="rim2" cx="0" cy="0" r="3.5"/>
                <g id="zoomPlus">
                        <use xlink:href="#rim" fill="#404040">
                                <set attributeName="fill" to="#808080" begin="zoomplus.mouseover" end="zoomplus.mouseout"/>
                        </use>
                        <path d="M-4,0h8M0,-4v8" fill="none" stroke="white" stroke-width="1.5" pointer-events="none"/>
                </g>
                <g id="zoomMin">
                        <use xlink:href="#rim" fill="#404040">
                                <set attributeName="fill" to="#808080" begin="zoomminus.mouseover" end="zoomminus.mouseout"/>
                        </use>
                        <path d="M-4,0h8" fill="none" stroke="white" stroke-width="1.5" pointer-events="none"/>
                </g>
                <g id="dirArrow">
                        <path fill="none" stroke="white" stroke-width="1.5" d="M0,-3.0v7 M-2.5,-0.5L0,-3.0L2.5,-0.5"/>
                </g>
               <g id="resetDef">
                       <use xlink:href="#rim2" fill="#404040">
                               <set attributeName="fill" to="#808080" begin="reset.mouseover" end="reset.mouseout"/>
                       </use>
               </g>
        </defs>

<script type="text/javascript">
var viewWidth = 1010;
var viewHeight = 252;
var sectionId = 'dynsection-1';
</script>
<script xlink:href="svgpan.js"/>
<svg id="graph" class="graph">
<g id="viewport">
<title>src/vmhost.h</title>
<polygon fill="white" stroke="none" points="-4,4 -4,-248 1006,-248 1006,4 -4,4"/>
<!-- Node1 -->
<g id="node1" class="node"><title>Node1</title>
<polygon fill="#bfbfbf" stroke="black" points="363,-224.5 363,-243.5 437,-243.5 437,-224.5 363,-224.5"/>
<text text-anchor="middle" x="400" y="-231.5" font-family="Helvetica,sans-Serif" font-size="10.00">src/vmhost.h</text>
</g>
<!-- Node2 -->
<g id="node2" class="node"><title>Node2</title>
<g id="a_node2"><a xlink:href="accumulator_8h.html" target="_top" xlink:title="header file for the accumulator ">
<polygon fill="white" stroke="black" points="480.5,-168.5 480.5,-187.5 575.5,-187.5 575.5,-168.5 480.5,-168.5"/>
<text text-anchor="middle" x="528" y="-175.5" font-family="Helvetica,sans-Serif" font-size="10.00">src/accumulator.h</text>
</a>
</g>
</g>
<!-- Node1&#45;&gt;Node2 -->
<g id="edge1" class="edge"><title>Node1&#45;&gt;Node2</title>
<path fill="none" stroke="midnightblue" d="M429.623,-220.503C453.619,-210.38 486.784,-196.388 507.813,-187.516"/>
<polygon fill="midnightblue" stroke="midnightblue" points="428.135,-217.332 420.282,-224.444 430.856,-223.781 428.135,-217.332"/>
</g>
<!-- Node13 -->
<g id="node13" class="node"><title>Node13</title>
<g id="a_node13"><a xlink:href="vmhost__spec_8h.html" target="_top" xlink:title="spec/vmhost_spec.h">
<polygon fill="white" stroke="black" points="394.5,-56.5 394.5,-75.5 501.5,-75.5 501.5,-56.5 394.5,-56.5"/>
<text text-anchor="middle" x="448" y="-63.5" font-family="Helvetica,sans-Serif" font-size="10.00">spec/vmhost_spec.h</text>
</a>
</g>
</g>
<!-- Node1&#45;&gt;Node13 -->
<g id="edge31" class="edge"><title>Node1&#45;&gt;Node13</title>
<path fill="none" stroke="midnightblue" d="M380.748,-217.972C353.14,-194.562 308.219,-148.307 333,-112 346.899,-91.6359 371.517,-80.4867 394.42,-74.383"/>
<polygon fill="midnightblue" stroke="midnightblue" points="378.713,-220.83 388.664,-224.468 383.154,-215.418 378.713,-220.83"/>
</g>
<!-- Node14 -->
<g id="node14" class="node"><title>Node14</title>
<g id="a_node14"><a xlink:href="vmhost_8c.html" target="_top" xlink:title="virtual machine host receptor implementation ">
<polygon fill="white" stroke="black" points="928,-112.5 928,-131.5 1002,-131.5 1002,-112.5 928,-112.5"/>
<text text-anchor="middle" x="965" y="-119.5" font-family="Helvetica,sans-Serif" font-size="10.00">src/vmhost.c</text>
</a>
</g>
</g>
<!-- Node1&#45;&gt;Node14 -->
<g id="edge28" class="edge"><title>Node1&#45;&gt;Node14</title>
<path fill="none" stroke="midnightblue" d="M447.256,-224.613C484.972,-217.169 538.794,-204.854 584,-188 602.252,-181.195 604.401,-173.79 623,-168 741.115,-131.233 776.38,-148.357 899,-132 908.285,-130.761 918.302,-129.406 927.658,-128.131"/>
<polygon fill="midnightblue" stroke="midnightblue" points="446.22,-221.248 437.066,-226.583 447.549,-228.121 446.22,-221.248"/>
</g>
<!-- Node16 -->
<g id="node16" class="node"><title>Node16</title>
<g id="a_node16"><a xlink:href="http__example_8h.html" target="_top" xlink:title="spec/http_example.h">
<polygon fill="white" stroke="black" points="178.5,-112.5 178.5,-131.5 285.5,-131.5 285.5,-112.5 178.5,-112.5"/>
<text text-anchor="middle" x="232" y="-119.5" font-family="Helvetica,sans-Serif" font-size="10.00">spec/http_example.h</text>
</a>
</g>
</g>
<!-- Node1&#45;&gt;Node16 -->
<g id="edge29" class="edge"><title>Node1&#45;&gt;Node16</title>
<path fill="none" stroke="midnightblue" d="M365.581,-220.878C345.564,-213.025 320.353,-201.712 300,-188 275.078,-171.21 250.853,-144.977 239.197,-131.548"/>
<polygon fill="midnightblue" stroke="midnightblue" points="364.355,-224.156 374.945,-224.45 366.85,-217.616 364.355,-224.156"/>
</g>
<!-- Node19 -->
<g id="node19" class="node"><title>Node19</title>
<g id="a_node19"><a xlink:href="receptor__spec_8h.html" target="_top" xlink:title="spec/receptor_spec.h">
<polygon fill="white" stroke="black" points="0,-56.5 0,-75.5 110,-75.5 110,-56.5 0,-56.5"/>
<text text-anchor="middle" x="55" y="-63.5" font-family="Helvetica,sans-Serif" font-size="10.00">spec/receptor_spec.h</text>
</a>
</g>
</g>
<!-- Node1&#45;&gt;Node19 -->
<g id="edge30" class="edge"><title>Node1&#45;&gt;Node19</title>
<path fill="none" stroke="midnightblue" d="M352.921,-222.333C295.513,-207.911 196.997,-178.513 123,-132 97.5589,-116.008 73.5605,-89.4254 62.0738,-75.7377"/>
<polygon fill="midnightblue" stroke="midnightblue" points="352.256,-225.773 362.803,-224.769 353.931,-218.977 352.256,-225.773"/>
</g>
<!-- Node20 -->
<g id="node20" class="node"><title>Node20</title>
<g id="a_node20"><a xlink:href="protocol_8c.html" target="_top" xlink:title="implementation of protocol helpers ">
<polygon fill="white" stroke="black" points="632,-168.5 632,-187.5 708,-187.5 708,-168.5 632,-168.5"/>
<text text-anchor="middle" x="670" y="-175.5" font-family="Helvetica,sans-Serif" font-size="10.00">src/protocol.c</text>
</a>
</g>
</g>
<!-- Node1&#45;&gt;Node20 -->
<g id="edge27" class="edge"><title>Node1&#45;&gt;Node20</title>
<path fill="none" stroke="midnightblue" d="M447.315,-223.537C499.771,-213.046 583.357,-196.329 631.818,-186.636"/>
<polygon fill="midnightblue" stroke="midnightblue" points="446.378,-220.155 437.259,-225.548 447.751,-227.019 446.378,-220.155"/>
</g>
<!-- Node3 -->
<g id="node3" class="node"><title>Node3</title>
<g id="a_node3"><a xlink:href="accumulator_8c.html" target="_top" xlink:title="implementation file for accumulator ">
<polygon fill="white" stroke="black" points="342.5,-112.5 342.5,-131.5 437.5,-131.5 437.5,-112.5 342.5,-112.5"/>
<text text-anchor="middle" x="390" y="-119.5" font-family="Helvetica,sans-Serif" font-size="10.00">src/accumulator.c</text>
</a>
</g>
</g>
<!-- Node2&#45;&gt;Node3 -->
<g id="edge2" class="edge"><title>Node2&#45;&gt;Node3</title>
<path fill="none" stroke="midnightblue" d="M496.751,-164.772C470.829,-154.629 434.638,-140.467 411.764,-131.516"/>
<polygon fill="midnightblue" stroke="midnightblue" points="495.546,-168.059 506.133,-168.444 498.096,-161.54 495.546,-168.059"/>
</g>
<!-- Node4 -->
<g id="node4" class="node"><title>Node4</title>
<g id="a_node4"><a xlink:href="ceptr_8c.html" target="_top" xlink:title="implements main() entry point for the ceptr node ">
<polygon fill="white" stroke="black" points="455.5,-112.5 455.5,-131.5 518.5,-131.5 518.5,-112.5 455.5,-112.5"/>
<text text-anchor="middle" x="487" y="-119.5" font-family="Helvetica,sans-Serif" font-size="10.00">src/ceptr.c</text>
</a>
</g>
</g>
<!-- Node2&#45;&gt;Node4 -->
<g id="edge3" class="edge"><title>Node2&#45;&gt;Node4</title>
<path fill="none" stroke="midnightblue" d="M514.983,-159.855C507.883,-150.505 499.396,-139.327 493.644,-131.751"/>
<polygon fill="midnightblue" stroke="midnightblue" points="512.395,-162.235 521.23,-168.083 517.97,-158.002 512.395,-162.235"/>
</g>
<!-- Node5 -->
<g id="node5" class="node"><title>Node5</title>
<g id="a_node5"><a xlink:href="group_8h.html" target="_top" xlink:title="group communication receptors header file ">
<polygon fill="white" stroke="black" points="536.5,-112.5 536.5,-131.5 601.5,-131.5 601.5,-112.5 536.5,-112.5"/>
<text text-anchor="middle" x="569" y="-119.5" font-family="Helvetica,sans-Serif" font-size="10.00">src/group.h</text>
</a>
</g>
</g>
<!-- Node2&#45;&gt;Node5 -->
<g id="edge4" class="edge"><title>Node2&#45;&gt;Node5</title>
<path fill="none" stroke="midnightblue" d="M541.017,-159.855C548.117,-150.505 556.604,-139.327 562.356,-131.751"/>
<polygon fill="midnightblue" stroke="midnightblue" points="538.03,-158.002 534.77,-168.083 543.605,-162.235 538.03,-158.002"/>
</g>
<!-- Node9 -->
<g id="node9" class="node"><title>Node9</title>
<g id="a_node9"><a xlink:href="process_8c.html" target="_top" xlink:title="implementation of ceptr processing: instructions and run tree reduction ">
<polygon fill="white" stroke="black" points="700,-112.5 700,-131.5 776,-131.5 776,-112.5 700,-112.5"/>
<text text-anchor="middle" x="738" y="-119.5" font-family="Helvetica,sans-Serif" font-size="10.00">src/process.c</text>
</a>
</g>
</g>
<!-- Node2&#45;&gt;Node9 -->
<g id="edge8" class="edge"><title>Node2&#45;&gt;Node9</title>
<path fill="none" stroke="midnightblue" d="M571.19,-165.894C610.847,-155.697 668.77,-140.802 704.881,-131.516"/>
<polygon fill="midnightblue" stroke="midnightblue" points="570.088,-162.563 561.275,-168.444 571.832,-169.343 570.088,-162.563"/>
</g>
<!-- Node10 -->
<g id="node10" class="node"><title>Node10</title>
<g id="a_node10"><a xlink:href="receptor_8c.html" target="_top" xlink:title="receptor implementation ">
<polygon fill="white" stroke="black" points="794.5,-112.5 794.5,-131.5 871.5,-131.5 871.5,-112.5 794.5,-112.5"/>
<text text-anchor="middle" x="833" y="-119.5" font-family="Helvetica,sans-Serif" font-size="10.00">src/receptor.c</text>
</a>
</g>
</g>
<!-- Node2&#45;&gt;Node10 -->
<g id="edge9" class="edge"><title>Node2&#45;&gt;Node10</title>
<path fill="none" stroke="midnightblue" d="M585.928,-167.061C638.039,-158.072 716.682,-144.385 785,-132 788.087,-131.44 791.284,-130.855 794.495,-130.262"/>
<polygon fill="midnightblue" stroke="midnightblue" points="585.131,-163.647 575.87,-168.795 586.32,-170.545 585.131,-163.647"/>
</g>
<!-- Node11 -->
<g id="node11" class="node"><title>Node11</title>
<g id="a_node11"><a xlink:href="shell_8h.html" target="_top" xlink:title="command line shell receptor header files ">
<polygon fill="white" stroke="black" points="620,-112.5 620,-131.5 682,-131.5 682,-112.5 620,-112.5"/>
<text text-anchor="middle" x="651" y="-119.5" font-family="Helvetica,sans-Serif" font-size="10.00">src/shell.h</text>
</a>
</g>
</g>
<!-- Node2&#45;&gt;Node11 -->
<g id="edge10" class="edge"><title>Node2&#45;&gt;Node11</title>
<path fill="none" stroke="midnightblue" d="M556.773,-164.368C579.807,-154.255 611.484,-140.349 631.601,-131.516"/>
<polygon fill="midnightblue" stroke="midnightblue" points="555.239,-161.219 547.49,-168.444 558.053,-167.628 555.239,-161.219"/>
</g>
<!-- Node2&#45;&gt;Node14 -->
<g id="edge14" class="edge"><title>Node2&#45;&gt;Node14</title>
<path fill="none" stroke="midnightblue" d="M586.045,-168.514C587.375,-168.339 588.695,-168.167 590,-168 733.712,-149.591 770.586,-152.6 914,-132 918.539,-131.348 923.293,-130.599 927.997,-129.817"/>
<polygon fill="midnightblue" stroke="midnightblue" points="585.147,-165.103 575.705,-169.911 586.084,-172.04 585.147,-165.103"/>
</g>
<!-- Node15 -->
<g id="node15" class="node"><title>Node15</title>
<g id="a_node15"><a xlink:href="accumulator__spec_8h_source.html" target="_top" xlink:title="spec/accumulator_spec.h">
<polygon fill="white" stroke="black" points="818,-56.5 818,-75.5 946,-75.5 946,-56.5 818,-56.5"/>
<text text-anchor="middle" x="882" y="-63.5" font-family="Helvetica,sans-Serif" font-size="10.00">spec/accumulator_spec.h</text>
</a>
</g>
</g>
<!-- Node2&#45;&gt;Node15 -->
<g id="edge15" class="edge"><title>Node2&#45;&gt;Node15</title>
<path fill="none" stroke="midnightblue" d="M586.048,-168.536C587.378,-168.355 588.696,-168.176 590,-168 654.358,-159.335 836.259,-179.998 880,-132 893.992,-116.646 888.904,-89.7841 884.935,-75.889"/>
<polygon fill="midnightblue" stroke="midnightblue" points="585.136,-165.129 575.713,-169.973 586.1,-172.063 585.136,-165.129"/>
</g>
<!-- Node2&#45;&gt;Node16 -->
<g id="edge17" class="edge"><title>Node2&#45;&gt;Node16</title>
<path fill="none" stroke="midnightblue" d="M470.997,-166.601C415.056,-156.395 330.77,-141.019 278.683,-131.516"/>
<polygon fill="midnightblue" stroke="midnightblue" points="470.632,-170.092 481.098,-168.444 471.888,-163.206 470.632,-170.092"/>
</g>
<!-- Node2&#45;&gt;Node19 -->
<g id="edge26" class="edge"><title>Node2&#45;&gt;Node19</title>
<path fill="none" stroke="midnightblue" d="M469.967,-176.655C397.683,-174.671 271.246,-166.048 169,-132 128.578,-118.54 86.3816,-90.061 66.5714,-75.6871"/>
<polygon fill="midnightblue" stroke="midnightblue" points="470.148,-180.16 480.229,-176.902 470.316,-173.162 470.148,-180.16"/>
</g>
<!-- Node6 -->
<g id="node6" class="node"><title>Node6</title>
<g id="a_node6"><a xlink:href="group_8c.html" target="_top" xlink:title="implementation of some group communication receptors ">
<polygon fill="white" stroke="black" points="636.5,-56.5 636.5,-75.5 701.5,-75.5 701.5,-56.5 636.5,-56.5"/>
<text text-anchor="middle" x="669" y="-63.5" font-family="Helvetica,sans-Serif" font-size="10.00">src/group.c</text>
</a>
</g>
</g>
<!-- Node5&#45;&gt;Node6 -->
<g id="edge5" class="edge"><title>Node5&#45;&gt;Node6</title>
<path fill="none" stroke="midnightblue" d="M594.088,-107.453C612.549,-97.4835 637.097,-84.2279 652.973,-75.6545"/>
<polygon fill="midnightblue" stroke="midnightblue" points="592.203,-104.493 585.067,-112.324 595.529,-110.652 592.203,-104.493"/>
</g>
<!-- Node7 -->
<g id="node7" class="node"><title>Node7</title>
<g id="a_node7"><a xlink:href="group__spec_8h.html" target="_top" xlink:title="spec/group_spec.h">
<polygon fill="white" stroke="black" points="519.5,-56.5 519.5,-75.5 618.5,-75.5 618.5,-56.5 519.5,-56.5"/>
<text text-anchor="middle" x="569" y="-63.5" font-family="Helvetica,sans-Serif" font-size="10.00">spec/group_spec.h</text>
</a>
</g>
</g>
<!-- Node5&#45;&gt;Node7 -->
<g id="edge6" class="edge"><title>Node5&#45;&gt;Node7</title>
<path fill="none" stroke="midnightblue" d="M569,-101.805C569,-92.9102 569,-82.7798 569,-75.7511"/>
<polygon fill="midnightblue" stroke="midnightblue" points="565.5,-102.083 569,-112.083 572.5,-102.083 565.5,-102.083"/>
</g>
<!-- Node8 -->
<g id="node8" class="node"><title>Node8</title>
<g id="a_node8"><a xlink:href="ceptr__specs_8c.html" target="_top" xlink:title="implements a main() entry point for running all the tests ">
<polygon fill="white" stroke="black" points="279,-0.5 279,-19.5 381,-19.5 381,-0.5 279,-0.5"/>
<text text-anchor="middle" x="330" y="-7.5" font-family="Helvetica,sans-Serif" font-size="10.00">spec/ceptr_specs.c</text>
</a>
</g>
</g>
<!-- Node7&#45;&gt;Node8 -->
<g id="edge7" class="edge"><title>Node7&#45;&gt;Node8</title>
<path fill="none" stroke="midnightblue" d="M521.276,-54.2172C476.115,-44.0134 409.227,-28.9006 367.693,-19.5164"/>
<polygon fill="midnightblue" stroke="midnightblue" points="520.604,-57.6535 531.13,-56.4435 522.147,-50.8257 520.604,-57.6535"/>
</g>
<!-- Node12 -->
<g id="node12" class="node"><title>Node12</title>
<g id="a_node12"><a xlink:href="shell_8c.html" target="_top" xlink:title="implementation of a command line shell receptor ">
<polygon fill="white" stroke="black" points="720,-56.5 720,-75.5 782,-75.5 782,-56.5 720,-56.5"/>
<text text-anchor="middle" x="751" y="-63.5" font-family="Helvetica,sans-Serif" font-size="10.00">src/shell.c</text>
</a>
</g>
</g>
<!-- Node11&#45;&gt;Node12 -->
<g id="edge11" class="edge"><title>Node11&#45;&gt;Node12</title>
<path fill="none" stroke="midnightblue" d="M676.088,-107.453C694.549,-97.4835 719.097,-84.2279 734.973,-75.6545"/>
<polygon fill="midnightblue" stroke="midnightblue" points="674.203,-104.493 667.067,-112.324 677.529,-110.652 674.203,-104.493"/>
</g>
<!-- Node11&#45;&gt;Node13 -->
<g id="edge12" class="edge"><title>Node11&#45;&gt;Node13</title>
<path fill="none" stroke="midnightblue" d="M609.903,-110.068C571.54,-99.8629 515.083,-84.8447 479.98,-75.5069"/>
<polygon fill="midnightblue" stroke="midnightblue" points="609.162,-113.492 619.726,-112.681 610.962,-106.728 609.162,-113.492"/>
</g>
<!-- Node13&#45;&gt;Node8 -->
<g id="edge13" class="edge"><title>Node13&#45;&gt;Node8</title>
<path fill="none" stroke="midnightblue" d="M420.1,-52.2321C398.027,-42.1312 367.824,-28.3091 348.61,-19.5164"/>
<polygon fill="midnightblue" stroke="midnightblue" points="418.753,-55.4648 429.303,-56.4435 421.666,-49.0997 418.753,-55.4648"/>
</g>
<!-- Node15&#45;&gt;Node8 -->
<g id="edge16" class="edge"><title>Node15&#45;&gt;Node8</title>
<path fill="none" stroke="midnightblue" d="M807.693,-57.6431C802.044,-57.0863 796.431,-56.5336 791,-56 642.145,-41.3739 466.236,-24.2461 381.166,-15.973"/>
<polygon fill="midnightblue" stroke="midnightblue" points="807.572,-61.1481 817.867,-58.6469 808.259,-54.1819 807.572,-61.1481"/>
</g>
<!-- Node16&#45;&gt;Node8 -->
<g id="edge25" class="edge"><title>Node16&#45;&gt;Node8</title>
<path fill="none" stroke="midnightblue" d="M241.585,-103.556C249.558,-89.8567 261.715,-70.7033 275,-56 287.903,-41.7193 305.504,-28.133 317.286,-19.6978"/>
<polygon fill="midnightblue" stroke="midnightblue" points="238.444,-102 236.563,-112.427 244.536,-105.449 238.444,-102"/>
</g>
<!-- Node16&#45;&gt;Node13 -->
<g id="edge24" class="edge"><title>Node16&#45;&gt;Node13</title>
<path fill="none" stroke="midnightblue" d="M276.164,-109.959C316.961,-99.7598 376.713,-84.8217 413.934,-75.5164"/>
<polygon fill="midnightblue" stroke="midnightblue" points="275.078,-106.623 266.226,-112.444 276.776,-113.414 275.078,-106.623"/>
</g>
<!-- Node17 -->
<g id="node17" class="node"><title>Node17</title>
<g id="a_node17"><a xlink:href="tree__spec_8h.html" target="_top" xlink:title="spec/tree_spec.h">
<polygon fill="white" stroke="black" points="284,-56.5 284,-75.5 376,-75.5 376,-56.5 284,-56.5"/>
<text text-anchor="middle" x="330" y="-63.5" font-family="Helvetica,sans-Serif" font-size="10.00">spec/tree_spec.h</text>
</a>
</g>
</g>
<!-- Node16&#45;&gt;Node17 -->
<g id="edge18" class="edge"><title>Node16&#45;&gt;Node17</title>
<path fill="none" stroke="midnightblue" d="M256.586,-107.453C274.678,-97.4835 298.735,-84.2279 314.294,-75.6545"/>
<polygon fill="midnightblue" stroke="midnightblue" points="254.815,-104.432 247.745,-112.324 258.193,-110.563 254.815,-104.432"/>
</g>
<!-- Node18 -->
<g id="node18" class="node"><title>Node18</title>
<g id="a_node18"><a xlink:href="mtree__spec_8h.html" target="_top" xlink:title="spec/mtree_spec.h">
<polygon fill="white" stroke="black" points="128,-56.5 128,-75.5 228,-75.5 228,-56.5 128,-56.5"/>
<text text-anchor="middle" x="178" y="-63.5" font-family="Helvetica,sans-Serif" font-size="10.00">spec/mtree_spec.h</text>
</a>
</g>
</g>
<!-- Node16&#45;&gt;Node18 -->
<g id="edge20" class="edge"><title>Node16&#45;&gt;Node18</title>
<path fill="none" stroke="midnightblue" d="M216.002,-105.002C206.433,-95.4329 194.639,-83.6389 186.751,-75.7511"/>
<polygon fill="midnightblue" stroke="midnightblue" points="213.537,-107.487 223.083,-112.083 218.487,-102.537 213.537,-107.487"/>
</g>
<!-- Node16&#45;&gt;Node19 -->
<g id="edge22" class="edge"><title>Node16&#45;&gt;Node19</title>
<path fill="none" stroke="midnightblue" d="M194.097,-109.436C160.725,-99.2551 112.899,-84.664 82.915,-75.5164"/>
<polygon fill="midnightblue" stroke="midnightblue" points="193.368,-112.873 203.954,-112.444 195.41,-106.178 193.368,-112.873"/>
</g>
<!-- Node17&#45;&gt;Node8 -->
<g id="edge19" class="edge"><title>Node17&#45;&gt;Node8</title>
<path fill="none" stroke="midnightblue" d="M330,-45.8045C330,-36.9102 330,-26.7798 330,-19.7511"/>
<polygon fill="midnightblue" stroke="midnightblue" points="326.5,-46.083 330,-56.083 333.5,-46.083 326.5,-46.083"/>
</g>
<!-- Node18&#45;&gt;Node8 -->
<g id="edge21" class="edge"><title>Node18&#45;&gt;Node8</title>
<path fill="none" stroke="midnightblue" d="M211.668,-53.0392C240.268,-42.8786 280.612,-28.5457 306.028,-19.5164"/>
<polygon fill="midnightblue" stroke="midnightblue" points="210.336,-49.7978 202.085,-56.4435 212.68,-56.3939 210.336,-49.7978"/>
</g>
<!-- Node19&#45;&gt;Node8 -->
<g id="edge23" class="edge"><title>Node19&#45;&gt;Node8</title>
<path fill="none" stroke="midnightblue" d="M108.608,-54.4734C160.581,-44.2678 238.438,-28.9794 286.629,-19.5164"/>
<polygon fill="midnightblue" stroke="midnightblue" points="107.713,-51.0822 98.5746,-56.4435 109.062,-57.951 107.713,-51.0822"/>
</g>
</g>
</svg>
        <g id="navigator" transform="translate(0 0)" fill="#404254">
                <rect fill="#f2f5e9" fill-opacity="0.5" stroke="#606060" stroke-width=".5" x="0" y="0" width="60" height="60"/>
                <use id="zoomplus" xlink:href="#zoomPlus" x="17" y="9" onmousedown="handleZoom(evt,'in')"/>
                <use id="zoomminus" xlink:href="#zoomMin" x="42" y="9" onmousedown="handleZoom(evt,'out')"/>
                <use id="reset" xlink:href="#resetDef" x="30" y="36" onmousedown="handleReset()"/>
                <g id="arrowUp" xlink:href="#dirArrow" transform="translate(30 24)" onmousedown="handlePan(0,-1)">
                  <use xlink:href="#rim" fill="#404040">
                        <set attributeName="fill" to="#808080" begin="arrowUp.mouseover" end="arrowUp.mouseout"/>
                  </use>
                  <path fill="none" stroke="white" stroke-width="1.5" d="M0,-3.0v7 M-2.5,-0.5L0,-3.0L2.5,-0.5"/>
                </g>
                <g id="arrowRight" xlink:href="#dirArrow" transform="rotate(90) translate(36 -43)" onmousedown="handlePan(1,0)">
                  <use xlink:href="#rim" fill="#404040">
                        <set attributeName="fill" to="#808080" begin="arrowRight.mouseover" end="arrowRight.mouseout"/>
                  </use>
                  <path fill="none" stroke="white" stroke-width="1.5" d="M0,-3.0v7 M-2.5,-0.5L0,-3.0L2.5,-0.5"/>
                </g>
                <g id="arrowDown" xlink:href="#dirArrow" transform="rotate(180) translate(-30 -48)" onmousedown="handlePan(0,1)">
                  <use xlink:href="#rim" fill="#404040">
                        <set attributeName="fill" to="#808080" begin="arrowDown.mouseover" end="arrowDown.mouseout"/>
                  </use>
                  <path fill="none" stroke="white" stroke-width="1.5" d="M0,-3.0v7 M-2.5,-0.5L0,-3.0L2.5,-0.5"/>
                </g>
                <g id="arrowLeft" xlink:href="#dirArrow" transform="rotate(270) translate(-36 17)" onmousedown="handlePan(-1,0)">
                  <use xlink:href="#rim" fill="#404040">
                        <set attributeName="fill" to="#808080" begin="arrowLeft.mouseover" end="arrowLeft.mouseout"/>
                  </use>
                  <path fill="none" stroke="white" stroke-width="1.5" d="M0,-3.0v7 M-2.5,-0.5L0,-3.0L2.5,-0.5"/>
                </g>
        </g>
        <svg viewBox="0 0 15 15" width="100%" height="30px" preserveAspectRatio="xMaxYMin meet">
         <g id="arrow_out" transform="scale(0.3 0.3)">
          <a xlink:href="vmhost_8h__dep__incl_org.svg" target="_base">
           <rect id="button" ry="5" rx="5" y="6" x="6" height="38" width="38"
                fill="#f2f5e9" fill-opacity="0.5" stroke="#606060" stroke-width="1.0"/>
           <path id="arrow"
             d="M 11.500037,31.436501 C 11.940474,20.09759 22.043105,11.32322 32.158766,21.979434 L 37.068811,17.246167 C 37.068811,17.246167 37.088388,32 37.088388,32 L 22.160133,31.978069 C 22.160133,31.978069 26.997745,27.140456 26.997745,27.140456 C 18.528582,18.264221 13.291696,25.230495 11.500037,31.436501 z"
             style="fill:#404040;"/>
          </a>
         </g>
        </svg>
</svg>
