<?xml version="1.0" encoding="UTF-8" standalone="no"?>
<!DOCTYPE svg PUBLIC "-//W3C//DTD SVG 1.1//EN"
 "http://www.w3.org/Graphics/SVG/1.1/DTD/svg11.dtd">
<!-- Generated by graphviz version 2.38.0 (20140413.2041)
 -->
<!-- Title: src/vmhost.c Pages: 1 -->
<!--zoomable 532 -->
<svg id="main" version="1.1" xmlns="http://www.w3.org/2000/svg" xmlns:xlink="http://www.w3.org/1999/xlink" xml:space="preserve" onload="init(evt)">
<style type="text/css"><![CDATA[
.edge:hover path { stroke: red; }
.edge:hover polygon { stroke: red; fill: red; }
]]></style>
<script type="text/javascript"><![CDATA[
var edges = document.getElementsByTagName('g');
if (edges && edges.length) {
  for (var i=0;i<edges.length;i++) {
    if (edges[i].id.substr(0,4)=='edge') {
      edges[i].setAttribute('class','edge');
    }
  }
}
]]></script>
        <defs>
                <circle id="rim" cx="0" cy="0" r="7"/>
                <circle id="rim2" cx="0" cy="0" r="3.5"/>
                <g id="zoomPlus">
                        <use xlink:href="#rim" fill="#404040">
                                <set attributeName="fill" to="#808080" begin="zoomplus.mouseover" end="zoomplus.mouseout"/>
                        </use>
                        <path d="M-4,0h8M0,-4v8" fill="none" stroke="white" stroke-width="1.5" pointer-events="none"/>
                </g>
                <g id="zoomMin">
                        <use xlink:href="#rim" fill="#404040">
                                <set attributeName="fill" to="#808080" begin="zoomminus.mouseover" end="zoomminus.mouseout"/>
                        </use>
                        <path d="M-4,0h8" fill="none" stroke="white" stroke-width="1.5" pointer-events="none"/>
                </g>
                <g id="dirArrow">
                        <path fill="none" stroke="white" stroke-width="1.5" d="M0,-3.0v7 M-2.5,-0.5L0,-3.0L2.5,-0.5"/>
                </g>
               <g id="resetDef">
                       <use xlink:href="#rim2" fill="#404040">
                               <set attributeName="fill" to="#808080" begin="reset.mouseover" end="reset.mouseout"/>
                       </use>
               </g>
        </defs>

<script type="text/javascript">
var viewWidth = 517;
var viewHeight = 532;
var sectionId = 'dynsection-0';
</script>
<script xlink:href="svgpan.js"/>
<svg id="graph" class="graph">
<g id="viewport">
<title>src/vmhost.c</title>
<polygon fill="white" stroke="none" points="-4,4 -4,-528 512.5,-528 512.5,4 -4,4"/>
<!-- Node1 -->
<g id="node1" class="node"><title>Node1</title>
<polygon fill="#bfbfbf" stroke="black" points="262.5,-504.5 262.5,-523.5 336.5,-523.5 336.5,-504.5 262.5,-504.5"/>
<text text-anchor="middle" x="299.5" y="-511.5" font-family="Helvetica,sans-Serif" font-size="10.00">src/vmhost.c</text>
</g>
<!-- Node2 -->
<g id="node2" class="node"><title>Node2</title>
<g id="a_node2"><a xlink:href="vmhost_8h.html" target="_top" xlink:title="vmhost implementation header file ">
<polygon fill="white" stroke="black" points="211,-448.5 211,-467.5 268,-467.5 268,-448.5 211,-448.5"/>
<text text-anchor="middle" x="239.5" y="-455.5" font-family="Helvetica,sans-Serif" font-size="10.00">vmhost.h</text>
</a>
</g>
</g>
<!-- Node1&#45;&gt;Node2 -->
<g id="edge1" class="edge"><title>Node1&#45;&gt;Node2</title>
<path fill="none" stroke="midnightblue" d="M289.86,-504.324C280.99,-496.341 267.625,-484.313 256.892,-474.653"/>
<polygon fill="midnightblue" stroke="midnightblue" points="259.09,-471.922 249.315,-467.834 254.407,-477.125 259.09,-471.922"/>
</g>
<!-- Node4 -->
<g id="node4" class="node"><title>Node4</title>
<g id="a_node4"><a xlink:href="tree_8h.html" target="_top" xlink:title="semantic trees header file ">
<polygon fill="white" stroke="black" points="249,-280.5 249,-299.5 290,-299.5 290,-280.5 249,-280.5"/>
<text text-anchor="middle" x="269.5" y="-287.5" font-family="Helvetica,sans-Serif" font-size="10.00">tree.h</text>
</a>
</g>
</g>
<!-- Node1&#45;&gt;Node4 -->
<g id="edge32" class="edge"><title>Node1&#45;&gt;Node4</title>
<path fill="none" stroke="midnightblue" d="M305.574,-504.304C323.462,-477.525 372.732,-394.59 340.5,-336 331.787,-320.162 314.883,-309.115 299.755,-301.931"/>
<polygon fill="midnightblue" stroke="midnightblue" points="300.74,-298.542 290.174,-297.757 297.943,-304.96 300.74,-298.542"/>
</g>
<!-- Node3 -->
<g id="node3" class="node"><title>Node3</title>
<g id="a_node3"><a xlink:href="receptor_8h.html" target="_top" xlink:title="receptor implementation header file ">
<polygon fill="white" stroke="black" points="174.5,-392.5 174.5,-411.5 234.5,-411.5 234.5,-392.5 174.5,-392.5"/>
<text text-anchor="middle" x="204.5" y="-399.5" font-family="Helvetica,sans-Serif" font-size="10.00">receptor.h</text>
</a>
</g>
</g>
<!-- Node2&#45;&gt;Node3 -->
<g id="edge2" class="edge"><title>Node2&#45;&gt;Node3</title>
<path fill="none" stroke="midnightblue" d="M233.72,-448.083C228.828,-440.534 221.673,-429.495 215.667,-420.23"/>
<polygon fill="midnightblue" stroke="midnightblue" points="218.548,-418.239 210.172,-411.751 212.674,-422.046 218.548,-418.239"/>
</g>
<!-- Node3&#45;&gt;Node4 -->
<g id="edge3" class="edge"><title>Node3&#45;&gt;Node4</title>
<path fill="none" stroke="midnightblue" d="M199.91,-392.379C193.635,-379.307 184.262,-354.083 194.5,-336 204.041,-319.148 222.689,-307.919 239.002,-300.892"/>
<polygon fill="midnightblue" stroke="midnightblue" points="240.736,-303.971 248.756,-297.047 238.169,-297.459 240.736,-303.971"/>
</g>
<!-- Node19 -->
<g id="node19" class="node"><title>Node19</title>
<g id="a_node19"><a xlink:href="def_8h.html" target="_top" xlink:title="header file for symbol and structure definition functions ">
<polygon fill="white" stroke="black" points="109.5,-336.5 109.5,-355.5 147.5,-355.5 147.5,-336.5 109.5,-336.5"/>
<text text-anchor="middle" x="128.5" y="-343.5" font-family="Helvetica,sans-Serif" font-size="10.00">def.h</text>
</a>
</g>
</g>
<!-- Node3&#45;&gt;Node19 -->
<g id="edge23" class="edge"><title>Node3&#45;&gt;Node19</title>
<path fill="none" stroke="midnightblue" d="M192.289,-392.324C180.724,-384.107 163.125,-371.602 149.339,-361.807"/>
<polygon fill="midnightblue" stroke="midnightblue" points="151.112,-358.773 140.933,-355.834 147.057,-364.479 151.112,-358.773"/>
</g>
<!-- Node21 -->
<g id="node21" class="node"><title>Node21</title>
<g id="a_node21"><a xlink:href="label_8h.html" target="_top" xlink:title="Label tables map human readable text strings to parts of semantic trees. ">
<polygon fill="white" stroke="black" points="0,-280.5 0,-299.5 45,-299.5 45,-280.5 0,-280.5"/>
<text text-anchor="middle" x="22.5" y="-287.5" font-family="Helvetica,sans-Serif" font-size="10.00">label.h</text>
</a>
</g>
</g>
<!-- Node3&#45;&gt;Node21 -->
<g id="edge26" class="edge"><title>Node3&#45;&gt;Node21</title>
<path fill="none" stroke="midnightblue" d="M179.134,-392.355C157.438,-384.426 125.802,-371.567 100.5,-356 77.4451,-341.816 53.983,-321.26 38.898,-307.08"/>
<polygon fill="midnightblue" stroke="midnightblue" points="41.0801,-304.324 31.435,-299.94 36.2408,-309.382 41.0801,-304.324"/>
</g>
<!-- Node22 -->
<g id="node22" class="node"><title>Node22</title>
<g id="a_node22"><a xlink:href="process_8h.html" target="_top" xlink:title="processing header files ">
<polygon fill="white" stroke="black" points="204,-336.5 204,-355.5 263,-355.5 263,-336.5 204,-336.5"/>
<text text-anchor="middle" x="233.5" y="-343.5" font-family="Helvetica,sans-Serif" font-size="10.00">process.h</text>
</a>
</g>
</g>
<!-- Node3&#45;&gt;Node22 -->
<g id="edge28" class="edge"><title>Node3&#45;&gt;Node22</title>
<path fill="none" stroke="midnightblue" d="M209.289,-392.083C213.258,-384.691 219.025,-373.953 223.935,-364.811"/>
<polygon fill="midnightblue" stroke="midnightblue" points="227.153,-366.217 228.8,-355.751 220.986,-362.905 227.153,-366.217"/>
</g>
<!-- Node23 -->
<g id="node23" class="node"><title>Node23</title>
<g id="a_node23"><a xlink:href="scape_8h.html" target="_top" xlink:title="scape header files ">
<polygon fill="white" stroke="black" points="281,-336.5 281,-355.5 332,-355.5 332,-336.5 281,-336.5"/>
<text text-anchor="middle" x="306.5" y="-343.5" font-family="Helvetica,sans-Serif" font-size="10.00">scape.h</text>
</a>
</g>
</g>
<!-- Node3&#45;&gt;Node23 -->
<g id="edge30" class="edge"><title>Node3&#45;&gt;Node23</title>
<path fill="none" stroke="midnightblue" d="M220.888,-392.324C237.171,-383.703 262.367,-370.364 281.216,-360.386"/>
<polygon fill="midnightblue" stroke="midnightblue" points="282.952,-363.427 290.153,-355.655 279.677,-357.24 282.952,-363.427"/>
</g>
<!-- Node5 -->
<g id="node5" class="node"><title>Node5</title>
<polygon fill="white" stroke="#bfbfbf" points="393,-0.5 393,-19.5 442,-19.5 442,-0.5 393,-0.5"/>
<text text-anchor="middle" x="417.5" y="-7.5" font-family="Helvetica,sans-Serif" font-size="10.00">string.h</text>
</g>
<!-- Node4&#45;&gt;Node5 -->
<g id="edge4" class="edge"><title>Node4&#45;&gt;Node5</title>
<path fill="none" stroke="midnightblue" d="M290.064,-285.328C334.295,-276.121 434.5,-247.684 434.5,-179 434.5,-179 434.5,-179 434.5,-121 434.5,-88.5826 427.2,-51.4151 422.167,-29.6439"/>
<polygon fill="midnightblue" stroke="midnightblue" points="425.534,-28.6736 419.793,-19.769 418.728,-30.3102 425.534,-28.6736"/>
</g>
<!-- Node6 -->
<g id="node6" class="node"><title>Node6</title>
<polygon fill="white" stroke="#bfbfbf" points="460.5,-0.5 460.5,-19.5 508.5,-19.5 508.5,-0.5 460.5,-0.5"/>
<text text-anchor="middle" x="484.5" y="-7.5" font-family="Helvetica,sans-Serif" font-size="10.00">stdlib.h</text>
</g>
<!-- Node4&#45;&gt;Node6 -->
<g id="edge5" class="edge"><title>Node4&#45;&gt;Node6</title>
<path fill="none" stroke="midnightblue" d="M290.019,-287.957C343.582,-284.023 483.5,-265.471 483.5,-179 483.5,-179 483.5,-179 483.5,-121 483.5,-88.9467 483.93,-51.6417 484.226,-29.7484"/>
<polygon fill="midnightblue" stroke="midnightblue" points="487.728,-29.6058 484.369,-19.5575 480.729,-29.5073 487.728,-29.6058"/>
</g>
<!-- Node7 -->
<g id="node7" class="node"><title>Node7</title>
<g id="a_node7"><a xlink:href="ceptr__error_8h_source.html" target="_top" xlink:title="ceptr_error.h">
<polygon fill="white" stroke="black" points="87,-224.5 87,-243.5 158,-243.5 158,-224.5 87,-224.5"/>
<text text-anchor="middle" x="122.5" y="-231.5" font-family="Helvetica,sans-Serif" font-size="10.00">ceptr_error.h</text>
</a>
</g>
</g>
<!-- Node4&#45;&gt;Node7 -->
<g id="edge6" class="edge"><title>Node4&#45;&gt;Node7</title>
<path fill="none" stroke="midnightblue" d="M248.75,-281.378C224.538,-272.484 184.186,-257.66 155.625,-247.168"/>
<polygon fill="midnightblue" stroke="midnightblue" points="156.654,-243.818 146.061,-243.655 154.241,-250.389 156.654,-243.818"/>
</g>
<!-- Node11 -->
<g id="node11" class="node"><title>Node11</title>
<g id="a_node11"><a xlink:href="sys__symbols_8h.html" target="_top" xlink:title="Defines hard&#45;coded system defined symbols. ">
<polygon fill="white" stroke="black" points="176,-224.5 176,-243.5 259,-243.5 259,-224.5 176,-224.5"/>
<text text-anchor="middle" x="217.5" y="-231.5" font-family="Helvetica,sans-Serif" font-size="10.00">sys_symbols.h</text>
</a>
</g>
</g>
<!-- Node4&#45;&gt;Node11 -->
<g id="edge10" class="edge"><title>Node4&#45;&gt;Node11</title>
<path fill="none" stroke="midnightblue" d="M260.913,-280.083C253.341,-272.22 242.122,-260.569 232.986,-251.081"/>
<polygon fill="midnightblue" stroke="midnightblue" points="235.385,-248.527 225.927,-243.751 230.342,-253.382 235.385,-248.527"/>
</g>
<!-- Node12 -->
<g id="node12" class="node"><title>Node12</title>
<g id="a_node12"><a xlink:href="sys__structures_8h.html" target="_top" xlink:title="Defines hard&#45;coded system defined structures. ">
<polygon fill="white" stroke="black" points="312,-168.5 312,-187.5 401,-187.5 401,-168.5 312,-168.5"/>
<text text-anchor="middle" x="356.5" y="-175.5" font-family="Helvetica,sans-Serif" font-size="10.00">sys_structures.h</text>
</a>
</g>
</g>
<!-- Node4&#45;&gt;Node12 -->
<g id="edge20" class="edge"><title>Node4&#45;&gt;Node12</title>
<path fill="none" stroke="midnightblue" d="M290.306,-286.97C315.612,-283.261 357.321,-272.872 376.5,-244 386.161,-229.457 377.987,-210.027 369.36,-196.208"/>
<polygon fill="midnightblue" stroke="midnightblue" points="372.057,-193.952 363.528,-187.667 366.276,-197.899 372.057,-193.952"/>
</g>
<!-- Node13 -->
<g id="node13" class="node"><title>Node13</title>
<g id="a_node13"><a xlink:href="ceptr__types_8h_source.html" target="_top" xlink:title="ceptr_types.h">
<polygon fill="white" stroke="black" points="244.5,-112.5 244.5,-131.5 320.5,-131.5 320.5,-112.5 244.5,-112.5"/>
<text text-anchor="middle" x="282.5" y="-119.5" font-family="Helvetica,sans-Serif" font-size="10.00">ceptr_types.h</text>
</a>
</g>
</g>
<!-- Node4&#45;&gt;Node13 -->
<g id="edge22" class="edge"><title>Node4&#45;&gt;Node13</title>
<path fill="none" stroke="midnightblue" d="M248.822,-286.826C204.413,-281.748 101.964,-267.706 77.5,-244 52.7744,-220.041 40.7303,-194.673 62.5,-168 83.7194,-142.001 175.898,-130.619 233.997,-125.952"/>
<polygon fill="midnightblue" stroke="midnightblue" points="234.367,-129.434 244.071,-125.183 233.833,-122.455 234.367,-129.434"/>
</g>
<!-- Node18 -->
<g id="node18" class="node"><title>Node18</title>
<g id="a_node18"><a xlink:href="sys__processes_8h.html" target="_top" xlink:title="Defines hard&#45;coded system defined processes. ">
<polygon fill="white" stroke="black" points="277,-224.5 277,-243.5 368,-243.5 368,-224.5 277,-224.5"/>
<text text-anchor="middle" x="322.5" y="-231.5" font-family="Helvetica,sans-Serif" font-size="10.00">sys_processes.h</text>
</a>
</g>
</g>
<!-- Node4&#45;&gt;Node18 -->
<g id="edge21" class="edge"><title>Node4&#45;&gt;Node18</title>
<path fill="none" stroke="midnightblue" d="M278.252,-280.083C285.97,-272.22 297.405,-260.569 306.717,-251.081"/>
<polygon fill="midnightblue" stroke="midnightblue" points="309.404,-253.34 313.911,-243.751 304.408,-248.436 309.404,-253.34"/>
</g>
<!-- Node8 -->
<g id="node8" class="node"><title>Node8</title>
<polygon fill="white" stroke="#bfbfbf" points="71.5,-168.5 71.5,-187.5 117.5,-187.5 117.5,-168.5 71.5,-168.5"/>
<text text-anchor="middle" x="94.5" y="-175.5" font-family="Helvetica,sans-Serif" font-size="10.00">stdio.h</text>
</g>
<!-- Node7&#45;&gt;Node8 -->
<g id="edge7" class="edge"><title>Node7&#45;&gt;Node8</title>
<path fill="none" stroke="midnightblue" d="M117.876,-224.083C114.044,-216.691 108.476,-205.953 103.735,-196.811"/>
<polygon fill="midnightblue" stroke="midnightblue" points="106.748,-195.018 99.0376,-187.751 100.534,-198.24 106.748,-195.018"/>
</g>
<!-- Node9 -->
<g id="node9" class="node"><title>Node9</title>
<polygon fill="white" stroke="#bfbfbf" points="135.5,-168.5 135.5,-187.5 185.5,-187.5 185.5,-168.5 135.5,-168.5"/>
<text text-anchor="middle" x="160.5" y="-175.5" font-family="Helvetica,sans-Serif" font-size="10.00">signal.h</text>
</g>
<!-- Node7&#45;&gt;Node9 -->
<g id="edge8" class="edge"><title>Node7&#45;&gt;Node9</title>
<path fill="none" stroke="midnightblue" d="M128.775,-224.083C134.142,-216.455 142.018,-205.264 148.579,-195.941"/>
<polygon fill="midnightblue" stroke="midnightblue" points="151.449,-197.943 154.342,-187.751 145.725,-193.915 151.449,-197.943"/>
</g>
<!-- Node10 -->
<g id="node10" class="node"><title>Node10</title>
<polygon fill="white" stroke="#bfbfbf" points="203.5,-168.5 203.5,-187.5 255.5,-187.5 255.5,-168.5 203.5,-168.5"/>
<text text-anchor="middle" x="229.5" y="-175.5" font-family="Helvetica,sans-Serif" font-size="10.00">assert.h</text>
</g>
<!-- Node7&#45;&gt;Node10 -->
<g id="edge9" class="edge"><title>Node7&#45;&gt;Node10</title>
<path fill="none" stroke="midnightblue" d="M139.691,-224.324C156.851,-215.664 183.446,-202.242 203.247,-192.249"/>
<polygon fill="midnightblue" stroke="midnightblue" points="205.001,-195.285 212.351,-187.655 201.847,-189.035 205.001,-195.285"/>
</g>
<!-- Node11&#45;&gt;Node12 -->
<g id="edge11" class="edge"><title>Node11&#45;&gt;Node12</title>
<path fill="none" stroke="midnightblue" d="M239.525,-224.444C262.604,-215.478 299.062,-201.314 325.141,-191.183"/>
<polygon fill="midnightblue" stroke="midnightblue" points="326.524,-194.4 334.578,-187.516 323.989,-187.875 326.524,-194.4"/>
</g>
<!-- Node11&#45;&gt;Node13 -->
<g id="edge19" class="edge"><title>Node11&#45;&gt;Node13</title>
<path fill="none" stroke="midnightblue" d="M229.688,-224.373C240.38,-216.185 255.576,-202.934 264.5,-188 273.041,-173.708 277.647,-155.24 280.054,-141.644"/>
<polygon fill="midnightblue" stroke="midnightblue" points="283.543,-141.983 281.598,-131.568 276.624,-140.923 283.543,-141.983"/>
</g>
<!-- Node12&#45;&gt;Node13 -->
<g id="edge12" class="edge"><title>Node12&#45;&gt;Node13</title>
<path fill="none" stroke="midnightblue" d="M344.611,-168.324C333.35,-160.107 316.213,-147.602 302.791,-137.807"/>
<polygon fill="midnightblue" stroke="midnightblue" points="304.747,-134.901 294.606,-131.834 300.62,-140.556 304.747,-134.901"/>
</g>
<!-- Node14 -->
<g id="node14" class="node"><title>Node14</title>
<polygon fill="white" stroke="#bfbfbf" points="255,-56.5 255,-75.5 304,-75.5 304,-56.5 255,-56.5"/>
<text text-anchor="middle" x="279.5" y="-63.5" font-family="Helvetica,sans-Serif" font-size="10.00">stdint.h</text>
</g>
<!-- Node13&#45;&gt;Node14 -->
<g id="edge13" class="edge"><title>Node13&#45;&gt;Node14</title>
<path fill="none" stroke="midnightblue" d="M282.005,-112.083C281.611,-105.006 281.048,-94.8611 280.555,-85.9865"/>
<polygon fill="midnightblue" stroke="midnightblue" points="284.036,-85.5415 279.986,-75.7511 277.046,-85.9299 284.036,-85.5415"/>
</g>
<!-- Node15 -->
<g id="node15" class="node"><title>Node15</title>
<g id="a_node15"><a xlink:href="uthash_8h_source.html" target="_top" xlink:title="uthash.h">
<polygon fill="white" stroke="black" points="322.5,-56.5 322.5,-75.5 376.5,-75.5 376.5,-56.5 322.5,-56.5"/>
<text text-anchor="middle" x="349.5" y="-63.5" font-family="Helvetica,sans-Serif" font-size="10.00">uthash.h</text>
</a>
</g>
</g>
<!-- Node13&#45;&gt;Node15 -->
<g id="edge14" class="edge"><title>Node13&#45;&gt;Node15</title>
<path fill="none" stroke="midnightblue" d="M293.265,-112.324C303.266,-104.263 318.387,-92.0765 330.43,-82.3695"/>
<polygon fill="midnightblue" stroke="midnightblue" points="332.95,-84.8343 338.539,-75.8339 328.557,-79.3841 332.95,-84.8343"/>
</g>
<!-- Node15&#45;&gt;Node5 -->
<g id="edge15" class="edge"><title>Node15&#45;&gt;Node5</title>
<path fill="none" stroke="midnightblue" d="M360.425,-56.324C370.675,-48.1849 386.221,-35.8395 398.501,-26.0874"/>
<polygon fill="midnightblue" stroke="midnightblue" points="400.721,-28.7937 406.376,-19.8339 396.368,-23.3119 400.721,-28.7937"/>
</g>
<!-- Node15&#45;&gt;Node6 -->
<g id="edge17" class="edge"><title>Node15&#45;&gt;Node6</title>
<path fill="none" stroke="midnightblue" d="M370.891,-56.4435C393.207,-47.5171 428.403,-33.4387 453.708,-23.3168"/>
<polygon fill="midnightblue" stroke="midnightblue" points="455.224,-26.4801 463.209,-19.5164 452.624,-19.9807 455.224,-26.4801"/>
</g>
<!-- Node16 -->
<g id="node16" class="node"><title>Node16</title>
<polygon fill="white" stroke="#bfbfbf" points="322.5,-0.5 322.5,-19.5 374.5,-19.5 374.5,-0.5 322.5,-0.5"/>
<text text-anchor="middle" x="348.5" y="-7.5" font-family="Helvetica,sans-Serif" font-size="10.00">stddef.h</text>
</g>
<!-- Node15&#45;&gt;Node16 -->
<g id="edge16" class="edge"><title>Node15&#45;&gt;Node16</title>
<path fill="none" stroke="midnightblue" d="M349.335,-56.083C349.204,-49.0059 349.016,-38.8611 348.852,-29.9865"/>
<polygon fill="midnightblue" stroke="midnightblue" points="352.347,-29.6845 348.662,-19.7511 345.348,-29.8142 352.347,-29.6845"/>
</g>
<!-- Node17 -->
<g id="node17" class="node"><title>Node17</title>
<polygon fill="white" stroke="#bfbfbf" points="245,-0.5 245,-19.5 304,-19.5 304,-0.5 245,-0.5"/>
<text text-anchor="middle" x="274.5" y="-7.5" font-family="Helvetica,sans-Serif" font-size="10.00">inttypes.h</text>
</g>
<!-- Node15&#45;&gt;Node17 -->
<g id="edge18" class="edge"><title>Node15&#45;&gt;Node17</title>
<path fill="none" stroke="midnightblue" d="M337.45,-56.324C326.037,-48.1066 308.669,-35.6017 295.065,-25.8069"/>
<polygon fill="midnightblue" stroke="midnightblue" points="296.93,-22.8366 286.769,-19.8339 292.84,-28.5174 296.93,-22.8366"/>
</g>
<!-- Node19&#45;&gt;Node4 -->
<g id="edge24" class="edge"><title>Node19&#45;&gt;Node4</title>
<path fill="none" stroke="midnightblue" d="M147.516,-337.717C171.082,-328.692 211.522,-313.204 239.338,-302.551"/>
<polygon fill="midnightblue" stroke="midnightblue" points="240.873,-305.712 248.96,-298.867 238.369,-299.175 240.873,-305.712"/>
</g>
<!-- Node20 -->
<g id="node20" class="node"><title>Node20</title>
<polygon fill="white" stroke="#bfbfbf" points="102.5,-280.5 102.5,-299.5 154.5,-299.5 154.5,-280.5 102.5,-280.5"/>
<text text-anchor="middle" x="128.5" y="-287.5" font-family="Helvetica,sans-Serif" font-size="10.00">stdarg.h</text>
</g>
<!-- Node19&#45;&gt;Node20 -->
<g id="edge25" class="edge"><title>Node19&#45;&gt;Node20</title>
<path fill="none" stroke="midnightblue" d="M128.5,-336.083C128.5,-329.006 128.5,-318.861 128.5,-309.986"/>
<polygon fill="midnightblue" stroke="midnightblue" points="132,-309.751 128.5,-299.751 125,-309.751 132,-309.751"/>
</g>
<!-- Node21&#45;&gt;Node13 -->
<g id="edge27" class="edge"><title>Node21&#45;&gt;Node13</title>
<path fill="none" stroke="midnightblue" d="M21.4677,-280.498C19.3069,-258.443 16.8647,-198.957 48.5,-168 74.2846,-142.768 173.548,-131.03 234.202,-126.11"/>
<polygon fill="midnightblue" stroke="midnightblue" points="234.62,-129.588 244.319,-125.324 234.078,-122.609 234.62,-129.588"/>
</g>
<!-- Node22&#45;&gt;Node4 -->
<g id="edge29" class="edge"><title>Node22&#45;&gt;Node4</title>
<path fill="none" stroke="midnightblue" d="M239.445,-336.083C244.477,-328.534 251.837,-317.495 258.013,-308.23"/>
<polygon fill="midnightblue" stroke="midnightblue" points="261.031,-310.013 263.666,-299.751 255.207,-306.13 261.031,-310.013"/>
</g>
<!-- Node23&#45;&gt;Node4 -->
<g id="edge31" class="edge"><title>Node23&#45;&gt;Node4</title>
<path fill="none" stroke="midnightblue" d="M300.39,-336.083C295.218,-328.534 287.654,-317.495 281.306,-308.23"/>
<polygon fill="midnightblue" stroke="midnightblue" points="284.036,-306.022 275.496,-299.751 278.261,-309.979 284.036,-306.022"/>
</g>
</g>
</svg>
        <g id="navigator" transform="translate(0 0)" fill="#404254">
                <rect fill="#f2f5e9" fill-opacity="0.5" stroke="#606060" stroke-width=".5" x="0" y="0" width="60" height="60"/>
                <use id="zoomplus" xlink:href="#zoomPlus" x="17" y="9" onmousedown="handleZoom(evt,'in')"/>
                <use id="zoomminus" xlink:href="#zoomMin" x="42" y="9" onmousedown="handleZoom(evt,'out')"/>
                <use id="reset" xlink:href="#resetDef" x="30" y="36" onmousedown="handleReset()"/>
                <g id="arrowUp" xlink:href="#dirArrow" transform="translate(30 24)" onmousedown="handlePan(0,-1)">
                  <use xlink:href="#rim" fill="#404040">
                        <set attributeName="fill" to="#808080" begin="arrowUp.mouseover" end="arrowUp.mouseout"/>
                  </use>
                  <path fill="none" stroke="white" stroke-width="1.5" d="M0,-3.0v7 M-2.5,-0.5L0,-3.0L2.5,-0.5"/>
                </g>
                <g id="arrowRight" xlink:href="#dirArrow" transform="rotate(90) translate(36 -43)" onmousedown="handlePan(1,0)">
                  <use xlink:href="#rim" fill="#404040">
                        <set attributeName="fill" to="#808080" begin="arrowRight.mouseover" end="arrowRight.mouseout"/>
                  </use>
                  <path fill="none" stroke="white" stroke-width="1.5" d="M0,-3.0v7 M-2.5,-0.5L0,-3.0L2.5,-0.5"/>
                </g>
                <g id="arrowDown" xlink:href="#dirArrow" transform="rotate(180) translate(-30 -48)" onmousedown="handlePan(0,1)">
                  <use xlink:href="#rim" fill="#404040">
                        <set attributeName="fill" to="#808080" begin="arrowDown.mouseover" end="arrowDown.mouseout"/>
                  </use>
                  <path fill="none" stroke="white" stroke-width="1.5" d="M0,-3.0v7 M-2.5,-0.5L0,-3.0L2.5,-0.5"/>
                </g>
                <g id="arrowLeft" xlink:href="#dirArrow" transform="rotate(270) translate(-36 17)" onmousedown="handlePan(-1,0)">
                  <use xlink:href="#rim" fill="#404040">
                        <set attributeName="fill" to="#808080" begin="arrowLeft.mouseover" end="arrowLeft.mouseout"/>
                  </use>
                  <path fill="none" stroke="white" stroke-width="1.5" d="M0,-3.0v7 M-2.5,-0.5L0,-3.0L2.5,-0.5"/>
                </g>
        </g>
        <svg viewBox="0 0 15 15" width="100%" height="30px" preserveAspectRatio="xMaxYMin meet">
         <g id="arrow_out" transform="scale(0.3 0.3)">
          <a xlink:href="vmhost_8c__incl_org.svg" target="_base">
           <rect id="button" ry="5" rx="5" y="6" x="6" height="38" width="38"
                fill="#f2f5e9" fill-opacity="0.5" stroke="#606060" stroke-width="1.0"/>
           <path id="arrow"
             d="M 11.500037,31.436501 C 11.940474,20.09759 22.043105,11.32322 32.158766,21.979434 L 37.068811,17.246167 C 37.068811,17.246167 37.088388,32 37.088388,32 L 22.160133,31.978069 C 22.160133,31.978069 26.997745,27.140456 26.997745,27.140456 C 18.528582,18.264221 13.291696,25.230495 11.500037,31.436501 z"
             style="fill:#404040;"/>
          </a>
         </g>
        </svg>
</svg>
