<?xml version="1.0" encoding="UTF-8" standalone="no"?>
<!DOCTYPE svg PUBLIC "-//W3C//DTD SVG 1.1//EN"
 "http://www.w3.org/Graphics/SVG/1.1/DTD/svg11.dtd">
<!-- Generated by graphviz version 2.38.0 (20140413.2041)
 -->
<!-- Title: src/vmhost.c Pages: 1 -->
<!--zoomable 588 -->
<svg id="main" version="1.1" xmlns="http://www.w3.org/2000/svg" xmlns:xlink="http://www.w3.org/1999/xlink" xml:space="preserve" onload="init(evt)">
<style type="text/css"><![CDATA[
.edge:hover path { stroke: red; }
.edge:hover polygon { stroke: red; fill: red; }
]]></style>
<script type="text/javascript"><![CDATA[
var edges = document.getElementsByTagName('g');
if (edges && edges.length) {
  for (var i=0;i<edges.length;i++) {
    if (edges[i].id.substr(0,4)=='edge') {
      edges[i].setAttribute('class','edge');
    }
  }
}
]]></script>
        <defs>
                <circle id="rim" cx="0" cy="0" r="7"/>
                <circle id="rim2" cx="0" cy="0" r="3.5"/>
                <g id="zoomPlus">
                        <use xlink:href="#rim" fill="#404040">
                                <set attributeName="fill" to="#808080" begin="zoomplus.mouseover" end="zoomplus.mouseout"/>
                        </use>
                        <path d="M-4,0h8M0,-4v8" fill="none" stroke="white" stroke-width="1.5" pointer-events="none"/>
                </g>
                <g id="zoomMin">
                        <use xlink:href="#rim" fill="#404040">
                                <set attributeName="fill" to="#808080" begin="zoomminus.mouseover" end="zoomminus.mouseout"/>
                        </use>
                        <path d="M-4,0h8" fill="none" stroke="white" stroke-width="1.5" pointer-events="none"/>
                </g>
                <g id="dirArrow">
                        <path fill="none" stroke="white" stroke-width="1.5" d="M0,-3.0v7 M-2.5,-0.5L0,-3.0L2.5,-0.5"/>
                </g>
               <g id="resetDef">
                       <use xlink:href="#rim2" fill="#404040">
                               <set attributeName="fill" to="#808080" begin="reset.mouseover" end="reset.mouseout"/>
                       </use>
               </g>
        </defs>

<script type="text/javascript">
var viewWidth = 608;
var viewHeight = 588;
var sectionId = 'dynsection-0';
</script>
<script xlink:href="svgpan.js"/>
<svg id="graph" class="graph">
<g id="viewport">
<title>src/vmhost.c</title>
<polygon fill="white" stroke="none" points="-4,4 -4,-584 604,-584 604,4 -4,4"/>
<!-- Node1 -->
<g id="node1" class="node"><title>Node1</title>
<polygon fill="#bfbfbf" stroke="black" points="308,-560.5 308,-579.5 382,-579.5 382,-560.5 308,-560.5"/>
<text text-anchor="middle" x="345" y="-567.5" font-family="Helvetica,sans-Serif" font-size="10.00">src/vmhost.c</text>
</g>
<!-- Node2 -->
<g id="node2" class="node"><title>Node2</title>
<g id="a_node2"><a xlink:href="vmhost_8h.html" target="_top" xlink:title="vmhost implementation header file ">
<polygon fill="white" stroke="black" points="249.5,-448.5 249.5,-467.5 306.5,-467.5 306.5,-448.5 249.5,-448.5"/>
<text text-anchor="middle" x="278" y="-455.5" font-family="Helvetica,sans-Serif" font-size="10.00">vmhost.h</text>
</a>
</g>
</g>
<!-- Node1&#45;&gt;Node2 -->
<g id="edge1" class="edge"><title>Node1&#45;&gt;Node2</title>
<path fill="none" stroke="midnightblue" d="M332.598,-560.399C321.709,-552.228 306.21,-538.987 297,-524 288.248,-509.757 283.357,-491.284 280.737,-477.673"/>
<polygon fill="midnightblue" stroke="midnightblue" points="284.15,-476.863 279.037,-467.584 277.248,-478.026 284.15,-476.863"/>
</g>
<!-- Node4 -->
<g id="node4" class="node"><title>Node4</title>
<g id="a_node4"><a xlink:href="tree_8h.html" target="_top" xlink:title="semantic trees header file ">
<polygon fill="white" stroke="black" points="232.5,-280.5 232.5,-299.5 273.5,-299.5 273.5,-280.5 232.5,-280.5"/>
<text text-anchor="middle" x="253" y="-287.5" font-family="Helvetica,sans-Serif" font-size="10.00">tree.h</text>
</a>
</g>
</g>
<!-- Node1&#45;&gt;Node4 -->
<g id="edge35" class="edge"><title>Node1&#45;&gt;Node4</title>
<path fill="none" stroke="midnightblue" d="M359.37,-560.33C370.88,-552.469 386.189,-539.722 393,-524 427.559,-444.23 395.529,-402.046 339,-336 324.325,-318.854 301.467,-307.332 283.004,-300.242"/>
<polygon fill="midnightblue" stroke="midnightblue" points="284.143,-296.932 273.548,-296.842 281.774,-303.519 284.143,-296.932"/>
</g>
<!-- Node26 -->
<g id="node26" class="node"><title>Node26</title>
<g id="a_node26"><a xlink:href="accumulator_8h.html" target="_top" xlink:title="header file for the accumulator ">
<polygon fill="white" stroke="black" points="306,-504.5 306,-523.5 384,-523.5 384,-504.5 306,-504.5"/>
<text text-anchor="middle" x="345" y="-511.5" font-family="Helvetica,sans-Serif" font-size="10.00">accumulator.h</text>
</a>
</g>
</g>
<!-- Node1&#45;&gt;Node26 -->
<g id="edge36" class="edge"><title>Node1&#45;&gt;Node26</title>
<path fill="none" stroke="midnightblue" d="M345,-560.083C345,-553.006 345,-542.861 345,-533.986"/>
<polygon fill="midnightblue" stroke="midnightblue" points="348.5,-533.751 345,-523.751 341.5,-533.751 348.5,-533.751"/>
</g>
<!-- Node3 -->
<g id="node3" class="node"><title>Node3</title>
<g id="a_node3"><a xlink:href="receptor_8h.html" target="_top" xlink:title="receptor implementation header file ">
<polygon fill="white" stroke="black" points="167,-392.5 167,-411.5 227,-411.5 227,-392.5 167,-392.5"/>
<text text-anchor="middle" x="197" y="-399.5" font-family="Helvetica,sans-Serif" font-size="10.00">receptor.h</text>
</a>
</g>
</g>
<!-- Node2&#45;&gt;Node3 -->
<g id="edge2" class="edge"><title>Node2&#45;&gt;Node3</title>
<path fill="none" stroke="midnightblue" d="M264.986,-448.324C252.468,-439.979 233.318,-427.212 218.529,-417.352"/>
<polygon fill="midnightblue" stroke="midnightblue" points="220.244,-414.289 209.982,-411.655 216.361,-420.114 220.244,-414.289"/>
</g>
<!-- Node3&#45;&gt;Node4 -->
<g id="edge3" class="edge"><title>Node3&#45;&gt;Node4</title>
<path fill="none" stroke="midnightblue" d="M201.394,-392.368C210.554,-374.376 231.847,-332.55 244.026,-308.627"/>
<polygon fill="midnightblue" stroke="midnightblue" points="247.208,-310.091 248.626,-299.591 240.97,-306.915 247.208,-310.091"/>
</g>
<!-- Node21 -->
<g id="node21" class="node"><title>Node21</title>
<g id="a_node21"><a xlink:href="def_8h.html" target="_top" xlink:title="header file for symbol and structure definition functions ">
<polygon fill="white" stroke="black" points="88,-336.5 88,-355.5 126,-355.5 126,-336.5 88,-336.5"/>
<text text-anchor="middle" x="107" y="-343.5" font-family="Helvetica,sans-Serif" font-size="10.00">def.h</text>
</a>
</g>
</g>
<!-- Node3&#45;&gt;Node21 -->
<g id="edge26" class="edge"><title>Node3&#45;&gt;Node21</title>
<path fill="none" stroke="midnightblue" d="M182.54,-392.324C168.5,-383.9 146.952,-370.971 130.457,-361.074"/>
<polygon fill="midnightblue" stroke="midnightblue" points="131.8,-357.798 121.424,-355.655 128.198,-363.801 131.8,-357.798"/>
</g>
<!-- Node23 -->
<g id="node23" class="node"><title>Node23</title>
<g id="a_node23"><a xlink:href="label_8h.html" target="_top" xlink:title="Label tables map human readable text strings to parts of semantic trees. ">
<polygon fill="white" stroke="black" points="37.5,-280.5 37.5,-299.5 82.5,-299.5 82.5,-280.5 37.5,-280.5"/>
<text text-anchor="middle" x="60" y="-287.5" font-family="Helvetica,sans-Serif" font-size="10.00">label.h</text>
</a>
</g>
</g>
<!-- Node3&#45;&gt;Node23 -->
<g id="edge29" class="edge"><title>Node3&#45;&gt;Node23</title>
<path fill="none" stroke="midnightblue" d="M166.896,-397.126C140.199,-392.128 101.977,-380.891 79,-356 67.422,-343.457 62.8653,-324.234 61.0899,-309.943"/>
<polygon fill="midnightblue" stroke="midnightblue" points="64.5564,-309.41 60.1814,-299.761 57.5841,-310.032 64.5564,-309.41"/>
</g>
<!-- Node24 -->
<g id="node24" class="node"><title>Node24</title>
<g id="a_node24"><a xlink:href="process_8h.html" target="_top" xlink:title="processing header files ">
<polygon fill="white" stroke="black" points="252.5,-336.5 252.5,-355.5 311.5,-355.5 311.5,-336.5 252.5,-336.5"/>
<text text-anchor="middle" x="282" y="-343.5" font-family="Helvetica,sans-Serif" font-size="10.00">process.h</text>
</a>
</g>
</g>
<!-- Node3&#45;&gt;Node24 -->
<g id="edge31" class="edge"><title>Node3&#45;&gt;Node24</title>
<path fill="none" stroke="midnightblue" d="M210.657,-392.324C223.916,-383.9 244.268,-370.971 259.846,-361.074"/>
<polygon fill="midnightblue" stroke="midnightblue" points="261.813,-363.971 268.377,-355.655 258.06,-358.063 261.813,-363.971"/>
</g>
<!-- Node25 -->
<g id="node25" class="node"><title>Node25</title>
<g id="a_node25"><a xlink:href="scape_8h.html" target="_top" xlink:title="scape header files ">
<polygon fill="white" stroke="black" points="144.5,-336.5 144.5,-355.5 195.5,-355.5 195.5,-336.5 144.5,-336.5"/>
<text text-anchor="middle" x="170" y="-343.5" font-family="Helvetica,sans-Serif" font-size="10.00">scape.h</text>
</a>
</g>
</g>
<!-- Node3&#45;&gt;Node25 -->
<g id="edge33" class="edge"><title>Node3&#45;&gt;Node25</title>
<path fill="none" stroke="midnightblue" d="M192.541,-392.083C188.846,-384.691 183.477,-373.953 178.906,-364.811"/>
<polygon fill="midnightblue" stroke="midnightblue" points="181.978,-363.13 174.376,-355.751 175.717,-366.261 181.978,-363.13"/>
</g>
<!-- Node5 -->
<g id="node5" class="node"><title>Node5</title>
<polygon fill="white" stroke="#bfbfbf" points="244.5,-0.5 244.5,-19.5 293.5,-19.5 293.5,-0.5 244.5,-0.5"/>
<text text-anchor="middle" x="269" y="-7.5" font-family="Helvetica,sans-Serif" font-size="10.00">string.h</text>
</g>
<!-- Node4&#45;&gt;Node5 -->
<g id="edge4" class="edge"><title>Node4&#45;&gt;Node5</title>
<path fill="none" stroke="midnightblue" d="M232.421,-288.292C195.125,-286.173 114.955,-277.718 58,-244 24.683,-224.276 0,-217.718 0,-179 0,-179 0,-179 0,-121 0,-70.9863 161.324,-32.4663 234.109,-17.6324"/>
<polygon fill="midnightblue" stroke="midnightblue" points="235.057,-21.0121 244.175,-15.6171 233.683,-14.1483 235.057,-21.0121"/>
</g>
<!-- Node6 -->
<g id="node6" class="node"><title>Node6</title>
<polygon fill="white" stroke="#bfbfbf" points="538,-0.5 538,-19.5 586,-19.5 586,-0.5 538,-0.5"/>
<text text-anchor="middle" x="562" y="-7.5" font-family="Helvetica,sans-Serif" font-size="10.00">stdlib.h</text>
</g>
<!-- Node4&#45;&gt;Node6 -->
<g id="edge5" class="edge"><title>Node4&#45;&gt;Node6</title>
<path fill="none" stroke="midnightblue" d="M273.667,-287.002C348.37,-279.218 600,-247.885 600,-179 600,-179 600,-179 600,-121 600,-86.8131 583.4,-49.7639 572.143,-28.5707"/>
<polygon fill="midnightblue" stroke="midnightblue" points="575.181,-26.832 567.284,-19.769 569.053,-30.2151 575.181,-26.832"/>
</g>
<!-- Node7 -->
<g id="node7" class="node"><title>Node7</title>
<g id="a_node7"><a xlink:href="ceptr__error_8h_source.html" target="_top" xlink:title="ceptr_error.h">
<polygon fill="white" stroke="black" points="382.5,-168.5 382.5,-187.5 453.5,-187.5 453.5,-168.5 382.5,-168.5"/>
<text text-anchor="middle" x="418" y="-175.5" font-family="Helvetica,sans-Serif" font-size="10.00">ceptr_error.h</text>
</a>
</g>
</g>
<!-- Node4&#45;&gt;Node7 -->
<g id="edge6" class="edge"><title>Node4&#45;&gt;Node7</title>
<path fill="none" stroke="midnightblue" d="M273.539,-288.995C305.925,-287.817 368.695,-280.598 403,-244 414.499,-231.732 417.78,-212.472 418.465,-198.097"/>
<polygon fill="midnightblue" stroke="midnightblue" points="421.968,-197.877 418.566,-187.843 414.968,-197.808 421.968,-197.877"/>
</g>
<!-- Node12 -->
<g id="node12" class="node"><title>Node12</title>
<g id="a_node12"><a xlink:href="sys__defs_8h.html" target="_top" xlink:title="Defines types and vars for system defined semantics. ">
<polygon fill="white" stroke="black" points="218.5,-168.5 218.5,-187.5 283.5,-187.5 283.5,-168.5 218.5,-168.5"/>
<text text-anchor="middle" x="251" y="-175.5" font-family="Helvetica,sans-Serif" font-size="10.00">sys_defs.h</text>
</a>
</g>
</g>
<!-- Node4&#45;&gt;Node12 -->
<g id="edge11" class="edge"><title>Node4&#45;&gt;Node12</title>
<path fill="none" stroke="midnightblue" d="M265.93,-280.401C282.015,-268.54 306.3,-246.107 297,-224 291.974,-212.053 282.056,-201.692 272.713,-193.934"/>
<polygon fill="midnightblue" stroke="midnightblue" points="274.84,-191.155 264.787,-187.811 270.561,-196.694 274.84,-191.155"/>
</g>
<!-- Node13 -->
<g id="node13" class="node"><title>Node13</title>
<g id="a_node13"><a xlink:href="ceptr__types_8h_source.html" target="_top" xlink:title="ceptr_types.h">
<polygon fill="white" stroke="black" points="172,-112.5 172,-131.5 248,-131.5 248,-112.5 172,-112.5"/>
<text text-anchor="middle" x="210" y="-119.5" font-family="Helvetica,sans-Serif" font-size="10.00">ceptr_types.h</text>
</a>
</g>
</g>
<!-- Node4&#45;&gt;Node13 -->
<g id="edge22" class="edge"><title>Node4&#45;&gt;Node13</title>
<path fill="none" stroke="midnightblue" d="M240.219,-280.369C229.606,-272.36 215.269,-259.379 209,-244 195.171,-210.077 200.646,-166.224 205.543,-141.71"/>
<polygon fill="midnightblue" stroke="midnightblue" points="209.029,-142.152 207.747,-131.635 202.191,-140.656 209.029,-142.152"/>
</g>
<!-- Node18 -->
<g id="node18" class="node"><title>Node18</title>
<g id="a_node18"><a xlink:href="base__defs_8h.html" target="_top" xlink:title="auto&#45;generated system definitions ">
<polygon fill="white" stroke="black" points="218,-224.5 218,-243.5 288,-243.5 288,-224.5 218,-224.5"/>
<text text-anchor="middle" x="253" y="-231.5" font-family="Helvetica,sans-Serif" font-size="10.00">base_defs.h</text>
</a>
</g>
</g>
<!-- Node4&#45;&gt;Node18 -->
<g id="edge20" class="edge"><title>Node4&#45;&gt;Node18</title>
<path fill="none" stroke="midnightblue" d="M253,-280.083C253,-273.006 253,-262.861 253,-253.986"/>
<polygon fill="midnightblue" stroke="midnightblue" points="256.5,-253.751 253,-243.751 249.5,-253.751 256.5,-253.751"/>
</g>
<!-- Node19 -->
<g id="node19" class="node"><title>Node19</title>
<g id="a_node19"><a xlink:href="stream_8h.html" target="_top" xlink:title="streams abstraction header file ">
<polygon fill="white" stroke="black" points="67.5,-224.5 67.5,-243.5 122.5,-243.5 122.5,-224.5 67.5,-224.5"/>
<text text-anchor="middle" x="95" y="-231.5" font-family="Helvetica,sans-Serif" font-size="10.00">stream.h</text>
</a>
</g>
</g>
<!-- Node4&#45;&gt;Node19 -->
<g id="edge23" class="edge"><title>Node4&#45;&gt;Node19</title>
<path fill="none" stroke="midnightblue" d="M232.344,-281.94C206.304,-273.041 161.155,-257.61 129.761,-246.88"/>
<polygon fill="midnightblue" stroke="midnightblue" points="130.687,-243.498 120.093,-243.576 128.424,-250.122 130.687,-243.498"/>
</g>
<!-- Node8 -->
<g id="node8" class="node"><title>Node8</title>
<polygon fill="white" stroke="#bfbfbf" points="194,-56.5 194,-75.5 240,-75.5 240,-56.5 194,-56.5"/>
<text text-anchor="middle" x="217" y="-63.5" font-family="Helvetica,sans-Serif" font-size="10.00">stdio.h</text>
</g>
<!-- Node7&#45;&gt;Node8 -->
<g id="edge7" class="edge"><title>Node7&#45;&gt;Node8</title>
<path fill="none" stroke="midnightblue" d="M447.051,-168.459C479.835,-157.389 526.025,-136.566 505,-112 496.747,-102.358 324.535,-80.1893 250.429,-71.0512"/>
<polygon fill="midnightblue" stroke="midnightblue" points="250.591,-67.5448 240.239,-69.8006 249.738,-74.4927 250.591,-67.5448"/>
</g>
<!-- Node9 -->
<g id="node9" class="node"><title>Node9</title>
<polygon fill="white" stroke="#bfbfbf" points="304,-112.5 304,-131.5 354,-131.5 354,-112.5 304,-112.5"/>
<text text-anchor="middle" x="329" y="-119.5" font-family="Helvetica,sans-Serif" font-size="10.00">signal.h</text>
</g>
<!-- Node7&#45;&gt;Node9 -->
<g id="edge8" class="edge"><title>Node7&#45;&gt;Node9</title>
<path fill="none" stroke="midnightblue" d="M403.701,-168.324C389.817,-159.9 368.508,-146.971 352.196,-137.074"/>
<polygon fill="midnightblue" stroke="midnightblue" points="353.629,-133.85 343.264,-131.655 349.998,-139.834 353.629,-133.85"/>
</g>
<!-- Node10 -->
<g id="node10" class="node"><title>Node10</title>
<polygon fill="white" stroke="#bfbfbf" points="372,-112.5 372,-131.5 424,-131.5 424,-112.5 372,-112.5"/>
<text text-anchor="middle" x="398" y="-119.5" font-family="Helvetica,sans-Serif" font-size="10.00">assert.h</text>
</g>
<!-- Node7&#45;&gt;Node10 -->
<g id="edge9" class="edge"><title>Node7&#45;&gt;Node10</title>
<path fill="none" stroke="midnightblue" d="M414.697,-168.083C412.018,-160.849 408.151,-150.409 404.814,-141.397"/>
<polygon fill="midnightblue" stroke="midnightblue" points="407.996,-139.913 401.241,-131.751 401.432,-142.344 407.996,-139.913"/>
</g>
<!-- Node11 -->
<g id="node11" class="node"><title>Node11</title>
<polygon fill="white" stroke="#bfbfbf" points="442,-112.5 442,-131.5 496,-131.5 496,-112.5 442,-112.5"/>
<text text-anchor="middle" x="469" y="-119.5" font-family="Helvetica,sans-Serif" font-size="10.00">setjmp.h</text>
</g>
<!-- Node7&#45;&gt;Node11 -->
<g id="edge10" class="edge"><title>Node7&#45;&gt;Node11</title>
<path fill="none" stroke="midnightblue" d="M426.422,-168.083C433.848,-160.22 444.852,-148.569 453.812,-139.081"/>
<polygon fill="midnightblue" stroke="midnightblue" points="456.413,-141.424 460.735,-131.751 451.324,-136.618 456.413,-141.424"/>
</g>
<!-- Node12&#45;&gt;Node13 -->
<g id="edge12" class="edge"><title>Node12&#45;&gt;Node13</title>
<path fill="none" stroke="midnightblue" d="M244.23,-168.083C238.438,-160.455 229.942,-149.264 222.862,-139.941"/>
<polygon fill="midnightblue" stroke="midnightblue" points="225.479,-137.599 216.644,-131.751 219.904,-141.832 225.479,-137.599"/>
</g>
<!-- Node13&#45;&gt;Node8 -->
<g id="edge14" class="edge"><title>Node13&#45;&gt;Node8</title>
<path fill="none" stroke="midnightblue" d="M211.156,-112.083C212.084,-104.927 213.418,-94.6353 214.577,-85.6911"/>
<polygon fill="midnightblue" stroke="midnightblue" points="218.051,-86.1181 215.866,-75.7511 211.109,-85.2181 218.051,-86.1181"/>
</g>
<!-- Node14 -->
<g id="node14" class="node"><title>Node14</title>
<polygon fill="white" stroke="#bfbfbf" points="126.5,-56.5 126.5,-75.5 175.5,-75.5 175.5,-56.5 126.5,-56.5"/>
<text text-anchor="middle" x="151" y="-63.5" font-family="Helvetica,sans-Serif" font-size="10.00">stdint.h</text>
</g>
<!-- Node13&#45;&gt;Node14 -->
<g id="edge13" class="edge"><title>Node13&#45;&gt;Node14</title>
<path fill="none" stroke="midnightblue" d="M200.521,-112.324C191.799,-104.341 178.657,-92.3128 168.102,-82.6529"/>
<polygon fill="midnightblue" stroke="midnightblue" points="170.392,-80.0036 160.652,-75.8339 165.666,-85.1674 170.392,-80.0036"/>
</g>
<!-- Node15 -->
<g id="node15" class="node"><title>Node15</title>
<g id="a_node15"><a xlink:href="uthash_8h_source.html" target="_top" xlink:title="uthash.h">
<polygon fill="white" stroke="black" points="311,-56.5 311,-75.5 365,-75.5 365,-56.5 311,-56.5"/>
<text text-anchor="middle" x="338" y="-63.5" font-family="Helvetica,sans-Serif" font-size="10.00">uthash.h</text>
</a>
</g>
</g>
<!-- Node13&#45;&gt;Node15 -->
<g id="edge15" class="edge"><title>Node13&#45;&gt;Node15</title>
<path fill="none" stroke="midnightblue" d="M230.282,-112.444C251.347,-103.557 284.517,-89.5632 308.486,-79.4514"/>
<polygon fill="midnightblue" stroke="midnightblue" points="309.96,-82.6283 317.813,-75.5164 307.239,-76.1787 309.96,-82.6283"/>
</g>
<!-- Node15&#45;&gt;Node5 -->
<g id="edge16" class="edge"><title>Node15&#45;&gt;Node5</title>
<path fill="none" stroke="midnightblue" d="M326.914,-56.324C316.514,-48.1849 300.739,-35.8395 288.278,-26.0874"/>
<polygon fill="midnightblue" stroke="midnightblue" points="290.32,-23.2407 280.288,-19.8339 286.006,-28.7533 290.32,-23.2407"/>
</g>
<!-- Node15&#45;&gt;Node6 -->
<g id="edge18" class="edge"><title>Node15&#45;&gt;Node6</title>
<path fill="none" stroke="midnightblue" d="M365.02,-58.4863C405.934,-48.6231 483.552,-29.9117 528.166,-19.1565"/>
<polygon fill="midnightblue" stroke="midnightblue" points="529.056,-22.5421 537.957,-16.796 527.416,-15.7371 529.056,-22.5421"/>
</g>
<!-- Node16 -->
<g id="node16" class="node"><title>Node16</title>
<polygon fill="white" stroke="#bfbfbf" points="312,-0.5 312,-19.5 364,-19.5 364,-0.5 312,-0.5"/>
<text text-anchor="middle" x="338" y="-7.5" font-family="Helvetica,sans-Serif" font-size="10.00">stddef.h</text>
</g>
<!-- Node15&#45;&gt;Node16 -->
<g id="edge17" class="edge"><title>Node15&#45;&gt;Node16</title>
<path fill="none" stroke="midnightblue" d="M338,-56.083C338,-49.0059 338,-38.8611 338,-29.9865"/>
<polygon fill="midnightblue" stroke="midnightblue" points="341.5,-29.751 338,-19.7511 334.5,-29.7511 341.5,-29.751"/>
</g>
<!-- Node17 -->
<g id="node17" class="node"><title>Node17</title>
<polygon fill="white" stroke="#bfbfbf" points="382.5,-0.5 382.5,-19.5 441.5,-19.5 441.5,-0.5 382.5,-0.5"/>
<text text-anchor="middle" x="412" y="-7.5" font-family="Helvetica,sans-Serif" font-size="10.00">inttypes.h</text>
</g>
<!-- Node15&#45;&gt;Node17 -->
<g id="edge19" class="edge"><title>Node15&#45;&gt;Node17</title>
<path fill="none" stroke="midnightblue" d="M349.889,-56.324C361.15,-48.1066 378.287,-35.6017 391.709,-25.8069"/>
<polygon fill="midnightblue" stroke="midnightblue" points="393.88,-28.5559 399.894,-19.8339 389.753,-22.9014 393.88,-28.5559"/>
</g>
<!-- Node18&#45;&gt;Node12 -->
<g id="edge21" class="edge"><title>Node18&#45;&gt;Node12</title>
<path fill="none" stroke="midnightblue" d="M252.67,-224.083C252.408,-217.006 252.032,-206.861 251.703,-197.986"/>
<polygon fill="midnightblue" stroke="midnightblue" points="255.192,-197.615 251.324,-187.751 248.197,-197.874 255.192,-197.615"/>
</g>
<!-- Node19&#45;&gt;Node8 -->
<g id="edge24" class="edge"><title>Node19&#45;&gt;Node8</title>
<path fill="none" stroke="midnightblue" d="M83.4379,-224.249C68.5259,-211.842 45.7663,-188.376 57,-168 84.0067,-119.015 145.877,-90.509 184.282,-76.9116"/>
<polygon fill="midnightblue" stroke="midnightblue" points="185.631,-80.1499 193.974,-73.6195 183.379,-73.5218 185.631,-80.1499"/>
</g>
<!-- Node20 -->
<g id="node20" class="node"><title>Node20</title>
<polygon fill="white" stroke="#bfbfbf" points="66.5,-168.5 66.5,-187.5 123.5,-187.5 123.5,-168.5 66.5,-168.5"/>
<text text-anchor="middle" x="95" y="-175.5" font-family="Helvetica,sans-Serif" font-size="10.00">pthread.h</text>
</g>
<!-- Node19&#45;&gt;Node20 -->
<g id="edge25" class="edge"><title>Node19&#45;&gt;Node20</title>
<path fill="none" stroke="midnightblue" d="M95,-224.083C95,-217.006 95,-206.861 95,-197.986"/>
<polygon fill="midnightblue" stroke="midnightblue" points="98.5001,-197.751 95,-187.751 91.5001,-197.751 98.5001,-197.751"/>
</g>
<!-- Node21&#45;&gt;Node4 -->
<g id="edge27" class="edge"><title>Node21&#45;&gt;Node4</title>
<path fill="none" stroke="midnightblue" d="M126.087,-337.94C150.702,-328.836 193.794,-312.898 222.856,-302.149"/>
<polygon fill="midnightblue" stroke="midnightblue" points="224.333,-305.335 232.497,-298.583 221.904,-298.769 224.333,-305.335"/>
</g>
<!-- Node22 -->
<g id="node22" class="node"><title>Node22</title>
<polygon fill="white" stroke="#bfbfbf" points="101,-280.5 101,-299.5 153,-299.5 153,-280.5 101,-280.5"/>
<text text-anchor="middle" x="127" y="-287.5" font-family="Helvetica,sans-Serif" font-size="10.00">stdarg.h</text>
</g>
<!-- Node21&#45;&gt;Node22 -->
<g id="edge28" class="edge"><title>Node21&#45;&gt;Node22</title>
<path fill="none" stroke="midnightblue" d="M110.303,-336.083C112.982,-328.849 116.849,-318.409 120.186,-309.397"/>
<polygon fill="midnightblue" stroke="midnightblue" points="123.568,-310.344 123.759,-299.751 117.004,-307.913 123.568,-310.344"/>
</g>
<!-- Node23&#45;&gt;Node13 -->
<g id="edge30" class="edge"><title>Node23&#45;&gt;Node13</title>
<path fill="none" stroke="midnightblue" d="M77.8143,-280.467C93.1397,-272.522 115.209,-259.579 131,-244 162.864,-212.563 188.686,-166.172 201.41,-140.941"/>
<polygon fill="midnightblue" stroke="midnightblue" points="204.628,-142.33 205.906,-131.812 198.348,-139.238 204.628,-142.33"/>
</g>
<!-- Node24&#45;&gt;Node4 -->
<g id="edge32" class="edge"><title>Node24&#45;&gt;Node4</title>
<path fill="none" stroke="midnightblue" d="M277.211,-336.083C273.242,-328.691 267.475,-317.953 262.565,-308.811"/>
<polygon fill="midnightblue" stroke="midnightblue" points="265.514,-306.905 257.7,-299.751 259.347,-310.217 265.514,-306.905"/>
</g>
<!-- Node25&#45;&gt;Node4 -->
<g id="edge34" class="edge"><title>Node25&#45;&gt;Node4</title>
<path fill="none" stroke="midnightblue" d="M183.335,-336.324C196.162,-327.979 215.785,-315.212 230.94,-305.352"/>
<polygon fill="midnightblue" stroke="midnightblue" points="233.224,-308.042 239.698,-299.655 229.407,-302.174 233.224,-308.042"/>
</g>
<!-- Node26&#45;&gt;Node2 -->
<g id="edge44" class="edge"><title>Node26&#45;&gt;Node2</title>
<path fill="none" stroke="midnightblue" d="M334.235,-504.324C324.234,-496.263 309.113,-484.077 297.07,-474.369"/>
<polygon fill="midnightblue" stroke="midnightblue" points="298.943,-471.384 288.961,-467.834 294.55,-476.834 298.943,-471.384"/>
</g>
<!-- Node26&#45;&gt;Node4 -->
<g id="edge37" class="edge"><title>Node26&#45;&gt;Node4</title>
<path fill="none" stroke="midnightblue" d="M346.092,-504.437C349.1,-477.349 355.104,-392.012 320,-336 311.234,-322.012 296.346,-311.368 282.828,-303.953"/>
<polygon fill="midnightblue" stroke="midnightblue" points="284.278,-300.764 273.78,-299.334 281.095,-306.998 284.278,-300.764"/>
</g>
<!-- Node27 -->
<g id="node27" class="node"><title>Node27</title>
<g id="a_node27"><a xlink:href="mtree_8h.html" target="_top" xlink:title="semantic tree matrix header file `` ">
<polygon fill="white" stroke="black" points="344,-224.5 344,-243.5 394,-243.5 394,-224.5 344,-224.5"/>
<text text-anchor="middle" x="369" y="-231.5" font-family="Helvetica,sans-Serif" font-size="10.00">mtree.h</text>
</a>
</g>
</g>
<!-- Node26&#45;&gt;Node27 -->
<g id="edge38" class="edge"><title>Node26&#45;&gt;Node27</title>
<path fill="none" stroke="midnightblue" d="M349.55,-504.325C353.932,-495.468 360.284,-481.186 363,-468 379.122,-389.724 373.939,-293.543 370.729,-253.676"/>
<polygon fill="midnightblue" stroke="midnightblue" points="374.205,-253.249 369.858,-243.587 367.231,-253.851 374.205,-253.249"/>
</g>
<!-- Node27&#45;&gt;Node5 -->
<g id="edge39" class="edge"><title>Node27&#45;&gt;Node5</title>
<path fill="none" stroke="midnightblue" d="M362.415,-224.223C344.72,-200.609 297.315,-137.156 295,-132 279.654,-97.8182 273.15,-54.0593 270.564,-29.6315"/>
<polygon fill="midnightblue" stroke="midnightblue" points="274.04,-29.2189 269.61,-19.5949 267.072,-29.8813 274.04,-29.2189"/>
</g>
<!-- Node27&#45;&gt;Node6 -->
<g id="edge40" class="edge"><title>Node27&#45;&gt;Node6</title>
<path fill="none" stroke="midnightblue" d="M392.99,-224.451C427.664,-210.748 491.019,-180.38 522,-132 543.004,-99.2 554.036,-54.2932 558.878,-29.4402"/>
<polygon fill="midnightblue" stroke="midnightblue" points="562.331,-30.0134 560.681,-19.5479 555.445,-28.7582 562.331,-30.0134"/>
</g>
<!-- Node27&#45;&gt;Node7 -->
<g id="edge41" class="edge"><title>Node27&#45;&gt;Node7</title>
<path fill="none" stroke="midnightblue" d="M377.091,-224.083C384.155,-216.298 394.588,-204.801 403.149,-195.367"/>
<polygon fill="midnightblue" stroke="midnightblue" points="405.931,-197.509 410.059,-187.751 400.747,-192.805 405.931,-197.509"/>
</g>
<!-- Node27&#45;&gt;Node12 -->
<g id="edge42" class="edge"><title>Node27&#45;&gt;Node12</title>
<path fill="none" stroke="midnightblue" d="M350.303,-224.444C331.056,-215.636 300.848,-201.812 278.8,-191.722"/>
<polygon fill="midnightblue" stroke="midnightblue" points="280.16,-188.495 269.61,-187.516 277.247,-194.86 280.16,-188.495"/>
</g>
<!-- Node27&#45;&gt;Node13 -->
<g id="edge43" class="edge"><title>Node27&#45;&gt;Node13</title>
<path fill="none" stroke="midnightblue" d="M359.998,-224.363C346.095,-211.269 318.251,-186.017 292,-168 274.428,-155.94 253.322,-144.418 236.923,-136.053"/>
<polygon fill="midnightblue" stroke="midnightblue" points="238.382,-132.869 227.874,-131.512 235.242,-139.125 238.382,-132.869"/>
</g>
</g>
</svg>
        <g id="navigator" transform="translate(0 0)" fill="#404254">
                <rect fill="#f2f5e9" fill-opacity="0.5" stroke="#606060" stroke-width=".5" x="0" y="0" width="60" height="60"/>
                <use id="zoomplus" xlink:href="#zoomPlus" x="17" y="9" onmousedown="handleZoom(evt,'in')"/>
                <use id="zoomminus" xlink:href="#zoomMin" x="42" y="9" onmousedown="handleZoom(evt,'out')"/>
                <use id="reset" xlink:href="#resetDef" x="30" y="36" onmousedown="handleReset()"/>
                <g id="arrowUp" xlink:href="#dirArrow" transform="translate(30 24)" onmousedown="handlePan(0,-1)">
                  <use xlink:href="#rim" fill="#404040">
                        <set attributeName="fill" to="#808080" begin="arrowUp.mouseover" end="arrowUp.mouseout"/>
                  </use>
                  <path fill="none" stroke="white" stroke-width="1.5" d="M0,-3.0v7 M-2.5,-0.5L0,-3.0L2.5,-0.5"/>
                </g>
                <g id="arrowRight" xlink:href="#dirArrow" transform="rotate(90) translate(36 -43)" onmousedown="handlePan(1,0)">
                  <use xlink:href="#rim" fill="#404040">
                        <set attributeName="fill" to="#808080" begin="arrowRight.mouseover" end="arrowRight.mouseout"/>
                  </use>
                  <path fill="none" stroke="white" stroke-width="1.5" d="M0,-3.0v7 M-2.5,-0.5L0,-3.0L2.5,-0.5"/>
                </g>
                <g id="arrowDown" xlink:href="#dirArrow" transform="rotate(180) translate(-30 -48)" onmousedown="handlePan(0,1)">
                  <use xlink:href="#rim" fill="#404040">
                        <set attributeName="fill" to="#808080" begin="arrowDown.mouseover" end="arrowDown.mouseout"/>
                  </use>
                  <path fill="none" stroke="white" stroke-width="1.5" d="M0,-3.0v7 M-2.5,-0.5L0,-3.0L2.5,-0.5"/>
                </g>
                <g id="arrowLeft" xlink:href="#dirArrow" transform="rotate(270) translate(-36 17)" onmousedown="handlePan(-1,0)">
                  <use xlink:href="#rim" fill="#404040">
                        <set attributeName="fill" to="#808080" begin="arrowLeft.mouseover" end="arrowLeft.mouseout"/>
                  </use>
                  <path fill="none" stroke="white" stroke-width="1.5" d="M0,-3.0v7 M-2.5,-0.5L0,-3.0L2.5,-0.5"/>
                </g>
        </g>
        <svg viewBox="0 0 15 15" width="100%" height="30px" preserveAspectRatio="xMaxYMin meet">
         <g id="arrow_out" transform="scale(0.3 0.3)">
          <a xlink:href="vmhost_8c__incl_org.svg" target="_base">
           <rect id="button" ry="5" rx="5" y="6" x="6" height="38" width="38"
                fill="#f2f5e9" fill-opacity="0.5" stroke="#606060" stroke-width="1.0"/>
           <path id="arrow"
             d="M 11.500037,31.436501 C 11.940474,20.09759 22.043105,11.32322 32.158766,21.979434 L 37.068811,17.246167 C 37.068811,17.246167 37.088388,32 37.088388,32 L 22.160133,31.978069 C 22.160133,31.978069 26.997745,27.140456 26.997745,27.140456 C 18.528582,18.264221 13.291696,25.230495 11.500037,31.436501 z"
             style="fill:#404040;"/>
          </a>
         </g>
        </svg>
</svg>
