<?xml version="1.0" encoding="UTF-8" standalone="no"?>
<!DOCTYPE svg PUBLIC "-//W3C//DTD SVG 1.1//EN"
 "http://www.w3.org/Graphics/SVG/1.1/DTD/svg11.dtd">
<!-- Generated by graphviz version 2.38.0 (20140413.2041)
 -->
<!-- Title: src/vmhost.c Pages: 1 -->
<!--zoomable 644 -->
<svg id="main" version="1.1" xmlns="http://www.w3.org/2000/svg" xmlns:xlink="http://www.w3.org/1999/xlink" xml:space="preserve" onload="init(evt)">
<style type="text/css"><![CDATA[
.edge:hover path { stroke: red; }
.edge:hover polygon { stroke: red; fill: red; }
]]></style>
<script type="text/javascript"><![CDATA[
var edges = document.getElementsByTagName('g');
if (edges && edges.length) {
  for (var i=0;i<edges.length;i++) {
    if (edges[i].id.substr(0,4)=='edge') {
      edges[i].setAttribute('class','edge');
    }
  }
}
]]></script>
        <defs>
                <circle id="rim" cx="0" cy="0" r="7"/>
                <circle id="rim2" cx="0" cy="0" r="3.5"/>
                <g id="zoomPlus">
                        <use xlink:href="#rim" fill="#404040">
                                <set attributeName="fill" to="#808080" begin="zoomplus.mouseover" end="zoomplus.mouseout"/>
                        </use>
                        <path d="M-4,0h8M0,-4v8" fill="none" stroke="white" stroke-width="1.5" pointer-events="none"/>
                </g>
                <g id="zoomMin">
                        <use xlink:href="#rim" fill="#404040">
                                <set attributeName="fill" to="#808080" begin="zoomminus.mouseover" end="zoomminus.mouseout"/>
                        </use>
                        <path d="M-4,0h8" fill="none" stroke="white" stroke-width="1.5" pointer-events="none"/>
                </g>
                <g id="dirArrow">
                        <path fill="none" stroke="white" stroke-width="1.5" d="M0,-3.0v7 M-2.5,-0.5L0,-3.0L2.5,-0.5"/>
                </g>
               <g id="resetDef">
                       <use xlink:href="#rim2" fill="#404040">
                               <set attributeName="fill" to="#808080" begin="reset.mouseover" end="reset.mouseout"/>
                       </use>
               </g>
        </defs>

<script type="text/javascript">
var viewWidth = 629;
var viewHeight = 644;
var sectionId = 'dynsection-0';
</script>
<script xlink:href="svgpan.js"/>
<svg id="graph" class="graph">
<g id="viewport">
<title>src/vmhost.c</title>
<polygon fill="white" stroke="none" points="-4,4 -4,-640 624.569,-640 624.569,4 -4,4"/>
<!-- Node1 -->
<g id="node1" class="node"><title>Node1</title>
<polygon fill="#bfbfbf" stroke="black" points="36.6539,-616.5 36.6539,-635.5 110.654,-635.5 110.654,-616.5 36.6539,-616.5"/>
<text text-anchor="middle" x="73.6539" y="-623.5" font-family="Helvetica,sans-Serif" font-size="10.00">src/vmhost.c</text>
</g>
<!-- Node2 -->
<g id="node2" class="node"><title>Node2</title>
<g id="a_node2"><a xlink:href="vmhost_8h.html" target="_top" xlink:title="vmhost implementation header file ">
<polygon fill="white" stroke="black" points="112.154,-504.5 112.154,-523.5 169.154,-523.5 169.154,-504.5 112.154,-504.5"/>
<text text-anchor="middle" x="140.654" y="-511.5" font-family="Helvetica,sans-Serif" font-size="10.00">vmhost.h</text>
</a>
</g>
</g>
<!-- Node1&#45;&gt;Node2 -->
<g id="edge1" class="edge"><title>Node1&#45;&gt;Node2</title>
<path fill="none" stroke="midnightblue" d="M86.0558,-616.399C96.9447,-608.228 112.444,-594.987 121.654,-580 130.406,-565.757 135.297,-547.284 137.917,-533.673"/>
<polygon fill="midnightblue" stroke="midnightblue" points="141.406,-534.026 139.617,-523.584 134.504,-532.863 141.406,-534.026"/>
</g>
<!-- Node18 -->
<g id="node18" class="node"><title>Node18</title>
<g id="a_node18"><a xlink:href="tree_8h.html" target="_top" xlink:title="semantic trees header file ">
<polygon fill="white" stroke="black" points="219.154,-336.5 219.154,-355.5 260.154,-355.5 260.154,-336.5 219.154,-336.5"/>
<text text-anchor="middle" x="239.654" y="-343.5" font-family="Helvetica,sans-Serif" font-size="10.00">tree.h</text>
</a>
</g>
</g>
<!-- Node1&#45;&gt;Node18 -->
<g id="edge40" class="edge"><title>Node1&#45;&gt;Node18</title>
<path fill="none" stroke="midnightblue" d="M61.4492,-616.274C50.6929,-608.019 35.2776,-594.725 25.6539,-580 8.88918,-554.348 2.65394,-545.644 2.65394,-515 2.65394,-515 2.65394,-515 2.65394,-457 2.65394,-367.164 144.49,-350.492 208.712,-347.548"/>
<polygon fill="midnightblue" stroke="midnightblue" points="209.174,-351.033 219.036,-347.163 208.913,-344.038 209.174,-351.033"/>
</g>
<!-- Node28 -->
<g id="node28" class="node"><title>Node28</title>
<g id="a_node28"><a xlink:href="accumulator_8h.html" target="_top" xlink:title="header file for the accumulator ">
<polygon fill="white" stroke="black" points="34.6539,-560.5 34.6539,-579.5 112.654,-579.5 112.654,-560.5 34.6539,-560.5"/>
<text text-anchor="middle" x="73.6539" y="-567.5" font-family="Helvetica,sans-Serif" font-size="10.00">accumulator.h</text>
</a>
</g>
</g>
<!-- Node1&#45;&gt;Node28 -->
<g id="edge41" class="edge"><title>Node1&#45;&gt;Node28</title>
<path fill="none" stroke="midnightblue" d="M73.6539,-616.083C73.6539,-609.006 73.6539,-598.861 73.6539,-589.986"/>
<polygon fill="midnightblue" stroke="midnightblue" points="77.154,-589.751 73.6539,-579.751 70.154,-589.751 77.154,-589.751"/>
</g>
<!-- Node3 -->
<g id="node3" class="node"><title>Node3</title>
<g id="a_node3"><a xlink:href="receptor_8h.html" target="_top" xlink:title="receptor implementation header file ">
<polygon fill="white" stroke="black" points="156.654,-448.5 156.654,-467.5 216.654,-467.5 216.654,-448.5 156.654,-448.5"/>
<text text-anchor="middle" x="186.654" y="-455.5" font-family="Helvetica,sans-Serif" font-size="10.00">receptor.h</text>
</a>
</g>
</g>
<!-- Node2&#45;&gt;Node3 -->
<g id="edge2" class="edge"><title>Node2&#45;&gt;Node3</title>
<path fill="none" stroke="midnightblue" d="M148.25,-504.083C154.881,-496.298 164.675,-484.801 172.712,-475.367"/>
<polygon fill="midnightblue" stroke="midnightblue" points="175.379,-477.633 179.199,-467.751 170.05,-473.094 175.379,-477.633"/>
</g>
<!-- Node4 -->
<g id="node4" class="node"><title>Node4</title>
<g id="a_node4"><a xlink:href="semtable_8h.html" target="_top" xlink:title="header file for table for coordinating meaning across a vmhost ">
<polygon fill="white" stroke="black" points="331.154,-168.5 331.154,-187.5 396.154,-187.5 396.154,-168.5 331.154,-168.5"/>
<text text-anchor="middle" x="363.654" y="-175.5" font-family="Helvetica,sans-Serif" font-size="10.00">semtable.h</text>
</a>
</g>
</g>
<!-- Node3&#45;&gt;Node4 -->
<g id="edge3" class="edge"><title>Node3&#45;&gt;Node4</title>
<path fill="none" stroke="midnightblue" d="M216.871,-455.747C250.763,-452.785 305.451,-443.115 339.654,-412 362.669,-391.062 365.654,-378.114 365.654,-347 365.654,-347 365.654,-347 365.654,-289 365.654,-256.943 364.794,-219.639 364.202,-197.747"/>
<polygon fill="midnightblue" stroke="midnightblue" points="367.695,-197.454 363.915,-187.557 360.698,-197.651 367.695,-197.454"/>
</g>
<!-- Node3&#45;&gt;Node18 -->
<g id="edge18" class="edge"><title>Node3&#45;&gt;Node18</title>
<path fill="none" stroke="midnightblue" d="M188.171,-448.215C190.618,-435.362 196.151,-410.909 205.654,-392 210.81,-381.741 218.377,-371.438 225.064,-363.284"/>
<polygon fill="midnightblue" stroke="midnightblue" points="227.744,-365.535 231.575,-355.657 222.42,-360.99 227.744,-365.535"/>
</g>
<!-- Node23 -->
<g id="node23" class="node"><title>Node23</title>
<g id="a_node23"><a xlink:href="def_8h.html" target="_top" xlink:title="header file for symbol and structure definition functions ">
<polygon fill="white" stroke="black" points="292.654,-392.5 292.654,-411.5 330.654,-411.5 330.654,-392.5 292.654,-392.5"/>
<text text-anchor="middle" x="311.654" y="-399.5" font-family="Helvetica,sans-Serif" font-size="10.00">def.h</text>
</a>
</g>
</g>
<!-- Node3&#45;&gt;Node23 -->
<g id="edge31" class="edge"><title>Node3&#45;&gt;Node23</title>
<path fill="none" stroke="midnightblue" d="M206.461,-448.444C227.061,-439.544 259.516,-425.524 282.93,-415.409"/>
<polygon fill="midnightblue" stroke="midnightblue" points="284.559,-418.518 292.351,-411.339 281.783,-412.092 284.559,-418.518"/>
</g>
<!-- Node25 -->
<g id="node25" class="node"><title>Node25</title>
<g id="a_node25"><a xlink:href="label_8h.html" target="_top" xlink:title="Label tables map human readable text strings to parts of semantic trees. ">
<polygon fill="white" stroke="black" points="18.1539,-168.5 18.1539,-187.5 63.1539,-187.5 63.1539,-168.5 18.1539,-168.5"/>
<text text-anchor="middle" x="40.6539" y="-175.5" font-family="Helvetica,sans-Serif" font-size="10.00">label.h</text>
</a>
</g>
</g>
<!-- Node3&#45;&gt;Node25 -->
<g id="edge34" class="edge"><title>Node3&#45;&gt;Node25</title>
<path fill="none" stroke="midnightblue" d="M156.403,-448.999C113.638,-435.646 40.6539,-404.442 40.6539,-347 40.6539,-347 40.6539,-347 40.6539,-289 40.6539,-256.948 40.6539,-219.643 40.6539,-197.749"/>
<polygon fill="midnightblue" stroke="midnightblue" points="44.154,-197.558 40.6539,-187.558 37.154,-197.558 44.154,-197.558"/>
</g>
<!-- Node26 -->
<g id="node26" class="node"><title>Node26</title>
<g id="a_node26"><a xlink:href="process_8h.html" target="_top" xlink:title="processing header files ">
<polygon fill="white" stroke="black" points="215.154,-392.5 215.154,-411.5 274.154,-411.5 274.154,-392.5 215.154,-392.5"/>
<text text-anchor="middle" x="244.654" y="-399.5" font-family="Helvetica,sans-Serif" font-size="10.00">process.h</text>
</a>
</g>
</g>
<!-- Node3&#45;&gt;Node26 -->
<g id="edge36" class="edge"><title>Node3&#45;&gt;Node26</title>
<path fill="none" stroke="midnightblue" d="M195.973,-448.324C204.547,-440.341 217.466,-428.313 227.842,-418.653"/>
<polygon fill="midnightblue" stroke="midnightblue" points="230.232,-421.21 235.166,-411.834 225.462,-416.086 230.232,-421.21"/>
</g>
<!-- Node27 -->
<g id="node27" class="node"><title>Node27</title>
<g id="a_node27"><a xlink:href="scape_8h.html" target="_top" xlink:title="scape header files ">
<polygon fill="white" stroke="black" points="107.154,-392.5 107.154,-411.5 158.154,-411.5 158.154,-392.5 107.154,-392.5"/>
<text text-anchor="middle" x="132.654" y="-399.5" font-family="Helvetica,sans-Serif" font-size="10.00">scape.h</text>
</a>
</g>
</g>
<!-- Node3&#45;&gt;Node27 -->
<g id="edge38" class="edge"><title>Node3&#45;&gt;Node27</title>
<path fill="none" stroke="midnightblue" d="M177.737,-448.083C169.873,-440.22 158.223,-428.569 148.735,-419.081"/>
<polygon fill="midnightblue" stroke="midnightblue" points="150.951,-416.347 141.405,-411.751 146.001,-421.297 150.951,-416.347"/>
</g>
<!-- Node5 -->
<g id="node5" class="node"><title>Node5</title>
<g id="a_node5"><a xlink:href="ceptr__types_8h_source.html" target="_top" xlink:title="ceptr_types.h">
<polygon fill="white" stroke="black" points="136.654,-112.5 136.654,-131.5 212.654,-131.5 212.654,-112.5 136.654,-112.5"/>
<text text-anchor="middle" x="174.654" y="-119.5" font-family="Helvetica,sans-Serif" font-size="10.00">ceptr_types.h</text>
</a>
</g>
</g>
<!-- Node4&#45;&gt;Node5 -->
<g id="edge4" class="edge"><title>Node4&#45;&gt;Node5</title>
<path fill="none" stroke="midnightblue" d="M333.706,-168.444C301.496,-159.241 250.12,-144.562 214.512,-134.388"/>
<polygon fill="midnightblue" stroke="midnightblue" points="215.038,-130.898 204.461,-131.516 213.115,-137.629 215.038,-130.898"/>
</g>
<!-- Node14 -->
<g id="node14" class="node"><title>Node14</title>
<g id="a_node14"><a xlink:href="ceptr__error_8h_source.html" target="_top" xlink:title="ceptr_error.h">
<polygon fill="white" stroke="black" points="476.154,-112.5 476.154,-131.5 547.154,-131.5 547.154,-112.5 476.154,-112.5"/>
<text text-anchor="middle" x="511.654" y="-119.5" font-family="Helvetica,sans-Serif" font-size="10.00">ceptr_error.h</text>
</a>
</g>
</g>
<!-- Node4&#45;&gt;Node14 -->
<g id="edge13" class="edge"><title>Node4&#45;&gt;Node14</title>
<path fill="none" stroke="midnightblue" d="M387.105,-168.444C411.787,-159.438 450.839,-145.189 478.631,-135.049"/>
<polygon fill="midnightblue" stroke="midnightblue" points="480.118,-138.232 488.313,-131.516 477.719,-131.656 480.118,-138.232"/>
</g>
<!-- Node6 -->
<g id="node6" class="node"><title>Node6</title>
<polygon fill="white" stroke="#bfbfbf" points="80.1539,-56.5 80.1539,-75.5 129.154,-75.5 129.154,-56.5 80.1539,-56.5"/>
<text text-anchor="middle" x="104.654" y="-63.5" font-family="Helvetica,sans-Serif" font-size="10.00">stdint.h</text>
</g>
<!-- Node5&#45;&gt;Node6 -->
<g id="edge5" class="edge"><title>Node5&#45;&gt;Node6</title>
<path fill="none" stroke="midnightblue" d="M163.407,-112.324C152.857,-104.185 136.853,-91.8395 124.212,-82.0874"/>
<polygon fill="midnightblue" stroke="midnightblue" points="126.161,-79.1707 116.105,-75.8339 121.885,-84.7132 126.161,-79.1707"/>
</g>
<!-- Node7 -->
<g id="node7" class="node"><title>Node7</title>
<polygon fill="white" stroke="#bfbfbf" points="335.654,-56.5 335.654,-75.5 381.654,-75.5 381.654,-56.5 335.654,-56.5"/>
<text text-anchor="middle" x="358.654" y="-63.5" font-family="Helvetica,sans-Serif" font-size="10.00">stdio.h</text>
</g>
<!-- Node5&#45;&gt;Node7 -->
<g id="edge6" class="edge"><title>Node5&#45;&gt;Node7</title>
<path fill="none" stroke="midnightblue" d="M203.809,-112.444C237.012,-102.699 291.134,-86.8158 325.802,-76.6414"/>
<polygon fill="midnightblue" stroke="midnightblue" points="326.851,-79.9811 335.461,-73.8067 324.88,-73.2644 326.851,-79.9811"/>
</g>
<!-- Node8 -->
<g id="node8" class="node"><title>Node8</title>
<g id="a_node8"><a xlink:href="uthash_8h_source.html" target="_top" xlink:title="uthash.h">
<polygon fill="white" stroke="black" points="147.654,-56.5 147.654,-75.5 201.654,-75.5 201.654,-56.5 147.654,-56.5"/>
<text text-anchor="middle" x="174.654" y="-63.5" font-family="Helvetica,sans-Serif" font-size="10.00">uthash.h</text>
</a>
</g>
</g>
<!-- Node5&#45;&gt;Node8 -->
<g id="edge7" class="edge"><title>Node5&#45;&gt;Node8</title>
<path fill="none" stroke="midnightblue" d="M174.654,-112.083C174.654,-105.006 174.654,-94.8611 174.654,-85.9865"/>
<polygon fill="midnightblue" stroke="midnightblue" points="178.154,-85.751 174.654,-75.7511 171.154,-85.7511 178.154,-85.751"/>
</g>
<!-- Node13 -->
<g id="node13" class="node"><title>Node13</title>
<polygon fill="white" stroke="#bfbfbf" points="219.654,-56.5 219.654,-75.5 275.654,-75.5 275.654,-56.5 219.654,-56.5"/>
<text text-anchor="middle" x="247.654" y="-63.5" font-family="Helvetica,sans-Serif" font-size="10.00">stdbool.h</text>
</g>
<!-- Node5&#45;&gt;Node13 -->
<g id="edge12" class="edge"><title>Node5&#45;&gt;Node13</title>
<path fill="none" stroke="midnightblue" d="M186.383,-112.324C197.491,-104.107 214.396,-91.6017 227.637,-81.8069"/>
<polygon fill="midnightblue" stroke="midnightblue" points="229.754,-84.5948 235.712,-75.8339 225.591,-78.9671 229.754,-84.5948"/>
</g>
<!-- Node9 -->
<g id="node9" class="node"><title>Node9</title>
<polygon fill="white" stroke="#bfbfbf" points="27.1539,-0.5 27.1539,-19.5 76.1539,-19.5 76.1539,-0.5 27.1539,-0.5"/>
<text text-anchor="middle" x="51.6539" y="-7.5" font-family="Helvetica,sans-Serif" font-size="10.00">string.h</text>
</g>
<!-- Node8&#45;&gt;Node9 -->
<g id="edge8" class="edge"><title>Node8&#45;&gt;Node9</title>
<path fill="none" stroke="midnightblue" d="M155.164,-56.4435C135.012,-47.5961 103.331,-33.6875 80.3231,-23.5865"/>
<polygon fill="midnightblue" stroke="midnightblue" points="81.6159,-20.3316 71.0525,-19.5164 78.8019,-26.7411 81.6159,-20.3316"/>
</g>
<!-- Node10 -->
<g id="node10" class="node"><title>Node10</title>
<polygon fill="white" stroke="#bfbfbf" points="113.654,-0.5 113.654,-19.5 165.654,-19.5 165.654,-0.5 113.654,-0.5"/>
<text text-anchor="middle" x="139.654" y="-7.5" font-family="Helvetica,sans-Serif" font-size="10.00">stddef.h</text>
</g>
<!-- Node8&#45;&gt;Node10 -->
<g id="edge9" class="edge"><title>Node8&#45;&gt;Node10</title>
<path fill="none" stroke="midnightblue" d="M168.874,-56.083C163.982,-48.5341 156.827,-37.4948 150.821,-28.2298"/>
<polygon fill="midnightblue" stroke="midnightblue" points="153.702,-26.239 145.326,-19.7511 147.828,-30.0463 153.702,-26.239"/>
</g>
<!-- Node11 -->
<g id="node11" class="node"><title>Node11</title>
<polygon fill="white" stroke="#bfbfbf" points="279.654,-0.5 279.654,-19.5 327.654,-19.5 327.654,-0.5 279.654,-0.5"/>
<text text-anchor="middle" x="303.654" y="-7.5" font-family="Helvetica,sans-Serif" font-size="10.00">stdlib.h</text>
</g>
<!-- Node8&#45;&gt;Node11 -->
<g id="edge10" class="edge"><title>Node8&#45;&gt;Node11</title>
<path fill="none" stroke="midnightblue" d="M195.094,-56.4435C216.324,-47.5566 249.753,-33.5632 273.909,-23.4514"/>
<polygon fill="midnightblue" stroke="midnightblue" points="275.436,-26.6064 283.309,-19.5164 272.733,-20.1493 275.436,-26.6064"/>
</g>
<!-- Node12 -->
<g id="node12" class="node"><title>Node12</title>
<polygon fill="white" stroke="#bfbfbf" points="184.154,-0.5 184.154,-19.5 243.154,-19.5 243.154,-0.5 184.154,-0.5"/>
<text text-anchor="middle" x="213.654" y="-7.5" font-family="Helvetica,sans-Serif" font-size="10.00">inttypes.h</text>
</g>
<!-- Node8&#45;&gt;Node12 -->
<g id="edge11" class="edge"><title>Node8&#45;&gt;Node12</title>
<path fill="none" stroke="midnightblue" d="M181.094,-56.083C186.603,-48.4554 194.685,-37.2645 201.419,-27.9408"/>
<polygon fill="midnightblue" stroke="midnightblue" points="204.316,-29.9071 207.334,-19.7511 198.641,-25.8087 204.316,-29.9071"/>
</g>
<!-- Node14&#45;&gt;Node7 -->
<g id="edge14" class="edge"><title>Node14&#45;&gt;Node7</title>
<path fill="none" stroke="midnightblue" d="M487.411,-112.444C461.482,-103.292 420.211,-88.726 391.406,-78.5594"/>
<polygon fill="midnightblue" stroke="midnightblue" points="392.377,-75.1907 381.782,-75.1629 390.047,-81.7917 392.377,-75.1907"/>
</g>
<!-- Node15 -->
<g id="node15" class="node"><title>Node15</title>
<polygon fill="white" stroke="#bfbfbf" points="471.654,-56.5 471.654,-75.5 521.654,-75.5 521.654,-56.5 471.654,-56.5"/>
<text text-anchor="middle" x="496.654" y="-63.5" font-family="Helvetica,sans-Serif" font-size="10.00">signal.h</text>
</g>
<!-- Node14&#45;&gt;Node15 -->
<g id="edge15" class="edge"><title>Node14&#45;&gt;Node15</title>
<path fill="none" stroke="midnightblue" d="M509.177,-112.083C507.167,-104.849 504.267,-94.4087 501.764,-85.3968"/>
<polygon fill="midnightblue" stroke="midnightblue" points="505.134,-84.4495 499.085,-75.7511 498.389,-86.323 505.134,-84.4495"/>
</g>
<!-- Node16 -->
<g id="node16" class="node"><title>Node16</title>
<polygon fill="white" stroke="#bfbfbf" points="539.654,-56.5 539.654,-75.5 591.654,-75.5 591.654,-56.5 539.654,-56.5"/>
<text text-anchor="middle" x="565.654" y="-63.5" font-family="Helvetica,sans-Serif" font-size="10.00">assert.h</text>
</g>
<!-- Node14&#45;&gt;Node16 -->
<g id="edge16" class="edge"><title>Node14&#45;&gt;Node16</title>
<path fill="none" stroke="midnightblue" d="M520.571,-112.083C528.434,-104.22 540.085,-92.5688 549.573,-83.0813"/>
<polygon fill="midnightblue" stroke="midnightblue" points="552.307,-85.2971 556.903,-75.7511 547.357,-80.3473 552.307,-85.2971"/>
</g>
<!-- Node17 -->
<g id="node17" class="node"><title>Node17</title>
<polygon fill="white" stroke="#bfbfbf" points="399.654,-56.5 399.654,-75.5 453.654,-75.5 453.654,-56.5 399.654,-56.5"/>
<text text-anchor="middle" x="426.654" y="-63.5" font-family="Helvetica,sans-Serif" font-size="10.00">setjmp.h</text>
</g>
<!-- Node14&#45;&gt;Node17 -->
<g id="edge17" class="edge"><title>Node14&#45;&gt;Node17</title>
<path fill="none" stroke="midnightblue" d="M497.997,-112.324C484.738,-103.9 464.386,-90.9709 448.808,-81.0741"/>
<polygon fill="midnightblue" stroke="midnightblue" points="450.594,-78.0626 440.277,-75.6545 446.841,-83.9711 450.594,-78.0626"/>
</g>
<!-- Node18&#45;&gt;Node5 -->
<g id="edge27" class="edge"><title>Node18&#45;&gt;Node5</title>
<path fill="none" stroke="midnightblue" d="M218.804,-341.017C197.477,-335.71 165.437,-324.04 150.654,-300 119.298,-249.01 148.874,-174.281 165.321,-140.603"/>
<polygon fill="midnightblue" stroke="midnightblue" points="168.515,-142.043 169.922,-131.541 162.274,-138.874 168.515,-142.043"/>
</g>
<!-- Node18&#45;&gt;Node9 -->
<g id="edge19" class="edge"><title>Node18&#45;&gt;Node9</title>
<path fill="none" stroke="midnightblue" d="M218.965,-338.991C170.294,-323.544 49.5715,-277.261 8.65394,-188 -16.544,-133.031 19.8922,-61.4262 39.9463,-28.7066"/>
<polygon fill="midnightblue" stroke="midnightblue" points="43.1558,-30.1811 45.5577,-19.8621 37.245,-26.431 43.1558,-30.1811"/>
</g>
<!-- Node18&#45;&gt;Node11 -->
<g id="edge20" class="edge"><title>Node18&#45;&gt;Node11</title>
<path fill="none" stroke="midnightblue" d="M260.343,-339.717C265.645,-338.432 271.348,-337.11 276.654,-336 432.203,-303.46 619.654,-393.916 619.654,-235 619.654,-235 619.654,-235 619.654,-121 619.654,-90.9022 623.314,-75.8096 600.654,-56 562.081,-22.2782 407.755,-13.8118 338.089,-11.6978"/>
<polygon fill="midnightblue" stroke="midnightblue" points="337.758,-8.18745 327.665,-11.4102 337.565,-15.1848 337.758,-8.18745"/>
</g>
<!-- Node18&#45;&gt;Node14 -->
<g id="edge21" class="edge"><title>Node18&#45;&gt;Node14</title>
<path fill="none" stroke="midnightblue" d="M260.36,-339.796C265.661,-338.51 271.36,-337.167 276.654,-336 357.177,-318.252 397.523,-355.335 458.654,-300 504.791,-258.238 511.438,-178.121 511.952,-141.766"/>
<polygon fill="midnightblue" stroke="midnightblue" points="515.452,-141.602 511.945,-131.605 508.452,-141.607 515.452,-141.602"/>
</g>
<!-- Node19 -->
<g id="node19" class="node"><title>Node19</title>
<g id="a_node19"><a xlink:href="sys__defs_8h.html" target="_top" xlink:title="Defines types and vars for system defined semantics. ">
<polygon fill="white" stroke="black" points="272.154,-224.5 272.154,-243.5 337.154,-243.5 337.154,-224.5 272.154,-224.5"/>
<text text-anchor="middle" x="304.654" y="-231.5" font-family="Helvetica,sans-Serif" font-size="10.00">sys_defs.h</text>
</a>
</g>
</g>
<!-- Node18&#45;&gt;Node19 -->
<g id="edge22" class="edge"><title>Node18&#45;&gt;Node19</title>
<path fill="none" stroke="midnightblue" d="M240.739,-336.446C242.687,-323.461 247.646,-298.349 258.654,-280 265.431,-268.704 275.723,-258.268 284.855,-250.295"/>
<polygon fill="midnightblue" stroke="midnightblue" points="287.324,-252.794 292.781,-243.712 282.852,-247.409 287.324,-252.794"/>
</g>
<!-- Node20 -->
<g id="node20" class="node"><title>Node20</title>
<g id="a_node20"><a xlink:href="base__defs_8h.html" target="_top" xlink:title="auto&#45;generated system definitions ">
<polygon fill="white" stroke="black" points="267.654,-280.5 267.654,-299.5 337.654,-299.5 337.654,-280.5 267.654,-280.5"/>
<text text-anchor="middle" x="302.654" y="-287.5" font-family="Helvetica,sans-Serif" font-size="10.00">base_defs.h</text>
</a>
</g>
</g>
<!-- Node18&#45;&gt;Node20 -->
<g id="edge25" class="edge"><title>Node18&#45;&gt;Node20</title>
<path fill="none" stroke="midnightblue" d="M249.776,-336.324C259.18,-328.263 273.398,-316.077 284.723,-306.369"/>
<polygon fill="midnightblue" stroke="midnightblue" points="287.033,-308.999 292.348,-299.834 282.477,-303.684 287.033,-308.999"/>
</g>
<!-- Node21 -->
<g id="node21" class="node"><title>Node21</title>
<g id="a_node21"><a xlink:href="stream_8h.html" target="_top" xlink:title="streams abstraction header file ">
<polygon fill="white" stroke="black" points="395.154,-280.5 395.154,-299.5 450.154,-299.5 450.154,-280.5 395.154,-280.5"/>
<text text-anchor="middle" x="422.654" y="-287.5" font-family="Helvetica,sans-Serif" font-size="10.00">stream.h</text>
</a>
</g>
</g>
<!-- Node18&#45;&gt;Node21 -->
<g id="edge28" class="edge"><title>Node18&#45;&gt;Node21</title>
<path fill="none" stroke="midnightblue" d="M260.291,-338.91C290.581,-329.972 347.566,-313.157 385.322,-302.016"/>
<polygon fill="midnightblue" stroke="midnightblue" points="386.35,-305.362 394.951,-299.175 384.369,-298.648 386.35,-305.362"/>
</g>
<!-- Node19&#45;&gt;Node4 -->
<g id="edge24" class="edge"><title>Node19&#45;&gt;Node4</title>
<path fill="none" stroke="midnightblue" d="M314.133,-224.324C322.855,-216.341 335.997,-204.313 346.552,-194.653"/>
<polygon fill="midnightblue" stroke="midnightblue" points="348.988,-197.167 354.002,-187.834 344.262,-192.004 348.988,-197.167"/>
</g>
<!-- Node19&#45;&gt;Node5 -->
<g id="edge23" class="edge"><title>Node19&#45;&gt;Node5</title>
<path fill="none" stroke="midnightblue" d="M294.453,-224.368C272.43,-205.733 220.192,-161.532 192.539,-138.134"/>
<polygon fill="midnightblue" stroke="midnightblue" points="194.702,-135.379 184.807,-131.591 190.181,-140.723 194.702,-135.379"/>
</g>
<!-- Node20&#45;&gt;Node19 -->
<g id="edge26" class="edge"><title>Node20&#45;&gt;Node19</title>
<path fill="none" stroke="midnightblue" d="M302.984,-280.083C303.246,-273.006 303.622,-262.861 303.951,-253.986"/>
<polygon fill="midnightblue" stroke="midnightblue" points="307.457,-253.874 304.33,-243.751 300.462,-253.615 307.457,-253.874"/>
</g>
<!-- Node21&#45;&gt;Node7 -->
<g id="edge29" class="edge"><title>Node21&#45;&gt;Node7</title>
<path fill="none" stroke="midnightblue" d="M433.092,-280.245C442.078,-271.969 454.4,-258.663 459.654,-244 462.652,-235.632 462.16,-232.528 459.654,-224 442.75,-166.48 397.541,-110.113 373.758,-83.2644"/>
<polygon fill="midnightblue" stroke="midnightblue" points="376.153,-80.6945 366.852,-75.6207 370.959,-85.3872 376.153,-80.6945"/>
</g>
<!-- Node22 -->
<g id="node22" class="node"><title>Node22</title>
<polygon fill="white" stroke="#bfbfbf" points="394.154,-224.5 394.154,-243.5 451.154,-243.5 451.154,-224.5 394.154,-224.5"/>
<text text-anchor="middle" x="422.654" y="-231.5" font-family="Helvetica,sans-Serif" font-size="10.00">pthread.h</text>
</g>
<!-- Node21&#45;&gt;Node22 -->
<g id="edge30" class="edge"><title>Node21&#45;&gt;Node22</title>
<path fill="none" stroke="midnightblue" d="M422.654,-280.083C422.654,-273.006 422.654,-262.861 422.654,-253.986"/>
<polygon fill="midnightblue" stroke="midnightblue" points="426.154,-253.751 422.654,-243.751 419.154,-253.751 426.154,-253.751"/>
</g>
<!-- Node23&#45;&gt;Node18 -->
<g id="edge32" class="edge"><title>Node23&#45;&gt;Node18</title>
<path fill="none" stroke="midnightblue" d="M300.086,-392.324C289.234,-384.185 272.773,-371.839 259.771,-362.087"/>
<polygon fill="midnightblue" stroke="midnightblue" points="261.533,-359.034 251.432,-355.834 257.332,-364.634 261.533,-359.034"/>
</g>
<!-- Node24 -->
<g id="node24" class="node"><title>Node24</title>
<polygon fill="white" stroke="#bfbfbf" points="285.654,-336.5 285.654,-355.5 337.654,-355.5 337.654,-336.5 285.654,-336.5"/>
<text text-anchor="middle" x="311.654" y="-343.5" font-family="Helvetica,sans-Serif" font-size="10.00">stdarg.h</text>
</g>
<!-- Node23&#45;&gt;Node24 -->
<g id="edge33" class="edge"><title>Node23&#45;&gt;Node24</title>
<path fill="none" stroke="midnightblue" d="M311.654,-392.083C311.654,-385.006 311.654,-374.861 311.654,-365.986"/>
<polygon fill="midnightblue" stroke="midnightblue" points="315.154,-365.751 311.654,-355.751 308.154,-365.751 315.154,-365.751"/>
</g>
<!-- Node25&#45;&gt;Node5 -->
<g id="edge35" class="edge"><title>Node25&#45;&gt;Node5</title>
<path fill="none" stroke="midnightblue" d="M61.8866,-168.444C84.0374,-159.517 118.973,-145.439 144.09,-135.317"/>
<polygon fill="midnightblue" stroke="midnightblue" points="145.554,-138.501 153.521,-131.516 142.937,-132.008 145.554,-138.501"/>
</g>
<!-- Node26&#45;&gt;Node18 -->
<g id="edge37" class="edge"><title>Node26&#45;&gt;Node18</title>
<path fill="none" stroke="midnightblue" d="M243.828,-392.083C243.173,-385.006 242.234,-374.861 241.412,-365.986"/>
<polygon fill="midnightblue" stroke="midnightblue" points="244.871,-365.386 240.464,-355.751 237.901,-366.031 244.871,-365.386"/>
</g>
<!-- Node27&#45;&gt;Node18 -->
<g id="edge39" class="edge"><title>Node27&#45;&gt;Node18</title>
<path fill="none" stroke="midnightblue" d="M149.845,-392.324C167.005,-383.664 193.6,-370.242 213.401,-360.249"/>
<polygon fill="midnightblue" stroke="midnightblue" points="215.155,-363.285 222.505,-355.655 212.001,-357.035 215.155,-363.285"/>
</g>
<!-- Node28&#45;&gt;Node2 -->
<g id="edge49" class="edge"><title>Node28&#45;&gt;Node2</title>
<path fill="none" stroke="midnightblue" d="M84.4186,-560.324C94.4201,-552.263 109.54,-540.077 121.584,-530.369"/>
<polygon fill="midnightblue" stroke="midnightblue" points="124.104,-532.834 129.693,-523.834 119.711,-527.384 124.104,-532.834"/>
</g>
<!-- Node28&#45;&gt;Node18 -->
<g id="edge42" class="edge"><title>Node28&#45;&gt;Node18</title>
<path fill="none" stroke="midnightblue" d="M71.9305,-560.371C66.8661,-532.35 54.9358,-442.785 97.6539,-392 125.024,-359.461 175.809,-350.157 208.644,-347.664"/>
<polygon fill="midnightblue" stroke="midnightblue" points="209.252,-351.134 219.031,-347.056 208.843,-344.146 209.252,-351.134"/>
</g>
<!-- Node29 -->
<g id="node29" class="node"><title>Node29</title>
<g id="a_node29"><a xlink:href="mtree_8h.html" target="_top" xlink:title="semantic tree matrix header file `` ">
<polygon fill="white" stroke="black" points="159.654,-280.5 159.654,-299.5 209.654,-299.5 209.654,-280.5 159.654,-280.5"/>
<text text-anchor="middle" x="184.654" y="-287.5" font-family="Helvetica,sans-Serif" font-size="10.00">mtree.h</text>
</a>
</g>
</g>
<!-- Node28&#45;&gt;Node29 -->
<g id="edge43" class="edge"><title>Node28&#45;&gt;Node29</title>
<path fill="none" stroke="midnightblue" d="M70.924,-560.486C68.2031,-551.52 64.212,-536.935 62.6539,-524 55.5734,-465.215 50.2545,-442.81 80.6539,-392 102.31,-355.803 140.183,-323.714 163.758,-305.867"/>
<polygon fill="midnightblue" stroke="midnightblue" points="166.074,-308.507 172.03,-299.745 161.91,-302.88 166.074,-308.507"/>
</g>
<!-- Node29&#45;&gt;Node5 -->
<g id="edge48" class="edge"><title>Node29&#45;&gt;Node5</title>
<path fill="none" stroke="midnightblue" d="M184.116,-280.075C182.542,-253.945 177.92,-177.211 175.773,-141.577"/>
<polygon fill="midnightblue" stroke="midnightblue" points="179.265,-141.34 175.17,-131.568 172.278,-141.761 179.265,-141.34"/>
</g>
<!-- Node29&#45;&gt;Node9 -->
<g id="edge44" class="edge"><title>Node29&#45;&gt;Node9</title>
<path fill="none" stroke="midnightblue" d="M179.197,-280.391C161.456,-252.106 104.604,-159.088 70.6539,-76 64.4003,-60.6951 59.2839,-42.591 55.9423,-29.3813"/>
<polygon fill="midnightblue" stroke="midnightblue" points="59.3291,-28.4959 53.5669,-19.6051 52.5271,-30.1488 59.3291,-28.4959"/>
</g>
<!-- Node29&#45;&gt;Node11 -->
<g id="edge45" class="edge"><title>Node29&#45;&gt;Node11</title>
<path fill="none" stroke="midnightblue" d="M189.348,-280.284C204.625,-251.673 253.721,-157.767 284.654,-76 290.504,-60.5363 295.66,-42.4479 299.12,-29.2845"/>
<polygon fill="midnightblue" stroke="midnightblue" points="302.522,-30.1064 301.604,-19.5513 295.739,-28.3748 302.522,-30.1064"/>
</g>
<!-- Node29&#45;&gt;Node14 -->
<g id="edge46" class="edge"><title>Node29&#45;&gt;Node14</title>
<path fill="none" stroke="midnightblue" d="M191.648,-280.397C210.27,-258.097 263.611,-198.071 321.654,-168 367.479,-144.259 425.999,-132.84 465.906,-127.484"/>
<polygon fill="midnightblue" stroke="midnightblue" points="466.403,-130.949 475.884,-126.219 465.523,-124.005 466.403,-130.949"/>
</g>
<!-- Node29&#45;&gt;Node19 -->
<g id="edge47" class="edge"><title>Node29&#45;&gt;Node19</title>
<path fill="none" stroke="midnightblue" d="M203.668,-280.444C223.242,-271.636 253.962,-257.812 276.383,-247.722"/>
<polygon fill="midnightblue" stroke="midnightblue" points="278.046,-250.812 285.729,-243.516 275.173,-244.428 278.046,-250.812"/>
</g>
</g>
</svg>
        <g id="navigator" transform="translate(0 0)" fill="#404254">
                <rect fill="#f2f5e9" fill-opacity="0.5" stroke="#606060" stroke-width=".5" x="0" y="0" width="60" height="60"/>
                <use id="zoomplus" xlink:href="#zoomPlus" x="17" y="9" onmousedown="handleZoom(evt,'in')"/>
                <use id="zoomminus" xlink:href="#zoomMin" x="42" y="9" onmousedown="handleZoom(evt,'out')"/>
                <use id="reset" xlink:href="#resetDef" x="30" y="36" onmousedown="handleReset()"/>
                <g id="arrowUp" xlink:href="#dirArrow" transform="translate(30 24)" onmousedown="handlePan(0,-1)">
                  <use xlink:href="#rim" fill="#404040">
                        <set attributeName="fill" to="#808080" begin="arrowUp.mouseover" end="arrowUp.mouseout"/>
                  </use>
                  <path fill="none" stroke="white" stroke-width="1.5" d="M0,-3.0v7 M-2.5,-0.5L0,-3.0L2.5,-0.5"/>
                </g>
                <g id="arrowRight" xlink:href="#dirArrow" transform="rotate(90) translate(36 -43)" onmousedown="handlePan(1,0)">
                  <use xlink:href="#rim" fill="#404040">
                        <set attributeName="fill" to="#808080" begin="arrowRight.mouseover" end="arrowRight.mouseout"/>
                  </use>
                  <path fill="none" stroke="white" stroke-width="1.5" d="M0,-3.0v7 M-2.5,-0.5L0,-3.0L2.5,-0.5"/>
                </g>
                <g id="arrowDown" xlink:href="#dirArrow" transform="rotate(180) translate(-30 -48)" onmousedown="handlePan(0,1)">
                  <use xlink:href="#rim" fill="#404040">
                        <set attributeName="fill" to="#808080" begin="arrowDown.mouseover" end="arrowDown.mouseout"/>
                  </use>
                  <path fill="none" stroke="white" stroke-width="1.5" d="M0,-3.0v7 M-2.5,-0.5L0,-3.0L2.5,-0.5"/>
                </g>
                <g id="arrowLeft" xlink:href="#dirArrow" transform="rotate(270) translate(-36 17)" onmousedown="handlePan(-1,0)">
                  <use xlink:href="#rim" fill="#404040">
                        <set attributeName="fill" to="#808080" begin="arrowLeft.mouseover" end="arrowLeft.mouseout"/>
                  </use>
                  <path fill="none" stroke="white" stroke-width="1.5" d="M0,-3.0v7 M-2.5,-0.5L0,-3.0L2.5,-0.5"/>
                </g>
        </g>
        <svg viewBox="0 0 15 15" width="100%" height="30px" preserveAspectRatio="xMaxYMin meet">
         <g id="arrow_out" transform="scale(0.3 0.3)">
          <a xlink:href="vmhost_8c__incl_org.svg" target="_base">
           <rect id="button" ry="5" rx="5" y="6" x="6" height="38" width="38"
                fill="#f2f5e9" fill-opacity="0.5" stroke="#606060" stroke-width="1.0"/>
           <path id="arrow"
             d="M 11.500037,31.436501 C 11.940474,20.09759 22.043105,11.32322 32.158766,21.979434 L 37.068811,17.246167 C 37.068811,17.246167 37.088388,32 37.088388,32 L 22.160133,31.978069 C 22.160133,31.978069 26.997745,27.140456 26.997745,27.140456 C 18.528582,18.264221 13.291696,25.230495 11.500037,31.436501 z"
             style="fill:#404040;"/>
          </a>
         </g>
        </svg>
</svg>
