<?xml version="1.0" encoding="UTF-8" standalone="no"?>
<!DOCTYPE svg PUBLIC "-//W3C//DTD SVG 1.1//EN"
 "http://www.w3.org/Graphics/SVG/1.1/DTD/svg11.dtd">
<!-- Generated by graphviz version 2.38.0 (20140413.2041)
 -->
<!-- Title: src/vmhost.c Pages: 1 -->
<svg width="570pt" height="532pt"
 viewBox="0.00 0.00 569.50 532.00" xmlns="http://www.w3.org/2000/svg" xmlns:xlink="http://www.w3.org/1999/xlink">
<g id="graph0" class="graph" transform="scale(1 1) rotate(0) translate(4 528)">
<title>src/vmhost.c</title>
<polygon fill="white" stroke="none" points="-4,4 -4,-528 565.5,-528 565.5,4 -4,4"/>
<!-- Node1 -->
<g id="node1" class="node"><title>Node1</title>
<polygon fill="#bfbfbf" stroke="black" points="265.5,-504.5 265.5,-523.5 339.5,-523.5 339.5,-504.5 265.5,-504.5"/>
<text text-anchor="middle" x="302.5" y="-511.5" font-family="Helvetica,sans-Serif" font-size="10.00">src/vmhost.c</text>
</g>
<!-- Node2 -->
<g id="node2" class="node"><title>Node2</title>
<g id="a_node2"><a xlink:href="vmhost_8h.html" target="_top" xlink:title="vmhost implementation header file ">
<polygon fill="white" stroke="black" points="219,-448.5 219,-467.5 276,-467.5 276,-448.5 219,-448.5"/>
<text text-anchor="middle" x="247.5" y="-455.5" font-family="Helvetica,sans-Serif" font-size="10.00">vmhost.h</text>
</a>
</g>
</g>
<!-- Node1&#45;&gt;Node2 -->
<g id="edge1" class="edge"><title>Node1&#45;&gt;Node2</title>
<path fill="none" stroke="midnightblue" d="M293.418,-504.083C285.329,-496.141 273.305,-484.335 263.59,-474.797"/>
<polygon fill="midnightblue" stroke="midnightblue" points="266.001,-472.26 256.413,-467.751 261.097,-477.254 266.001,-472.26"/>
</g>
<!-- Node4 -->
<g id="node4" class="node"><title>Node4</title>
<g id="a_node4"><a xlink:href="tree_8h.html" target="_top" xlink:title="semantic trees header file ">
<polygon fill="white" stroke="black" points="273,-280.5 273,-299.5 314,-299.5 314,-280.5 273,-280.5"/>
<text text-anchor="middle" x="293.5" y="-287.5" font-family="Helvetica,sans-Serif" font-size="10.00">tree.h</text>
</a>
</g>
</g>
<!-- Node1&#45;&gt;Node4 -->
<g id="edge33" class="edge"><title>Node1&#45;&gt;Node4</title>
<path fill="none" stroke="midnightblue" d="M305.19,-504.367C312.858,-478.436 333.282,-399.128 317.5,-336 315.061,-326.245 310.063,-316.29 305.257,-308.231"/>
<polygon fill="midnightblue" stroke="midnightblue" points="308.191,-306.322 299.867,-299.768 302.287,-310.083 308.191,-306.322"/>
</g>
<!-- Node3 -->
<g id="node3" class="node"><title>Node3</title>
<g id="a_node3"><a xlink:href="receptor_8h.html" target="_top" xlink:title="receptor implementation header file ">
<polygon fill="white" stroke="black" points="190.5,-392.5 190.5,-411.5 250.5,-411.5 250.5,-392.5 190.5,-392.5"/>
<text text-anchor="middle" x="220.5" y="-399.5" font-family="Helvetica,sans-Serif" font-size="10.00">receptor.h</text>
</a>
</g>
</g>
<!-- Node2&#45;&gt;Node3 -->
<g id="edge2" class="edge"><title>Node2&#45;&gt;Node3</title>
<path fill="none" stroke="midnightblue" d="M243.041,-448.083C239.346,-440.691 233.977,-429.953 229.406,-420.811"/>
<polygon fill="midnightblue" stroke="midnightblue" points="232.478,-419.13 224.876,-411.751 226.217,-422.261 232.478,-419.13"/>
</g>
<!-- Node3&#45;&gt;Node4 -->
<g id="edge3" class="edge"><title>Node3&#45;&gt;Node4</title>
<path fill="none" stroke="midnightblue" d="M250.747,-392.488C268.625,-385.726 289.8,-374.295 300.5,-356 308.729,-341.93 305.522,-323.191 301.121,-309.449"/>
<polygon fill="midnightblue" stroke="midnightblue" points="304.267,-307.862 297.531,-299.684 297.697,-310.277 304.267,-307.862"/>
</g>
<!-- Node20 -->
<g id="node20" class="node"><title>Node20</title>
<g id="a_node20"><a xlink:href="def_8h.html" target="_top" xlink:title="header file for symbol and structure definition functions ">
<polygon fill="white" stroke="black" points="107.5,-336.5 107.5,-355.5 145.5,-355.5 145.5,-336.5 107.5,-336.5"/>
<text text-anchor="middle" x="126.5" y="-343.5" font-family="Helvetica,sans-Serif" font-size="10.00">def.h</text>
</a>
</g>
</g>
<!-- Node3&#45;&gt;Node20 -->
<g id="edge24" class="edge"><title>Node3&#45;&gt;Node20</title>
<path fill="none" stroke="midnightblue" d="M205.397,-392.324C190.597,-383.822 167.806,-370.729 150.518,-360.797"/>
<polygon fill="midnightblue" stroke="midnightblue" points="151.98,-357.601 141.565,-355.655 148.493,-363.671 151.98,-357.601"/>
</g>
<!-- Node22 -->
<g id="node22" class="node"><title>Node22</title>
<g id="a_node22"><a xlink:href="label_8h.html" target="_top" xlink:title="Label tables map human readable text strings to parts of semantic trees. ">
<polygon fill="white" stroke="black" points="0,-280.5 0,-299.5 45,-299.5 45,-280.5 0,-280.5"/>
<text text-anchor="middle" x="22.5" y="-287.5" font-family="Helvetica,sans-Serif" font-size="10.00">label.h</text>
</a>
</g>
</g>
<!-- Node3&#45;&gt;Node22 -->
<g id="edge27" class="edge"><title>Node3&#45;&gt;Node22</title>
<path fill="none" stroke="midnightblue" d="M190.35,-393.13C164.82,-385.721 127.807,-373.189 98.5,-356 75.2497,-342.363 52.2485,-321.361 37.7452,-306.942"/>
<polygon fill="midnightblue" stroke="midnightblue" points="40.1237,-304.369 30.6144,-299.697 35.1349,-309.279 40.1237,-304.369"/>
</g>
<!-- Node23 -->
<g id="node23" class="node"><title>Node23</title>
<g id="a_node23"><a xlink:href="process_8h.html" target="_top" xlink:title="processing header files ">
<polygon fill="white" stroke="black" points="164,-336.5 164,-355.5 223,-355.5 223,-336.5 164,-336.5"/>
<text text-anchor="middle" x="193.5" y="-343.5" font-family="Helvetica,sans-Serif" font-size="10.00">process.h</text>
</a>
</g>
</g>
<!-- Node3&#45;&gt;Node23 -->
<g id="edge29" class="edge"><title>Node3&#45;&gt;Node23</title>
<path fill="none" stroke="midnightblue" d="M216.041,-392.083C212.346,-384.691 206.977,-373.953 202.406,-364.811"/>
<polygon fill="midnightblue" stroke="midnightblue" points="205.478,-363.13 197.876,-355.751 199.217,-366.261 205.478,-363.13"/>
</g>
<!-- Node24 -->
<g id="node24" class="node"><title>Node24</title>
<g id="a_node24"><a xlink:href="scape_8h.html" target="_top" xlink:title="scape header files ">
<polygon fill="white" stroke="black" points="241,-336.5 241,-355.5 292,-355.5 292,-336.5 241,-336.5"/>
<text text-anchor="middle" x="266.5" y="-343.5" font-family="Helvetica,sans-Serif" font-size="10.00">scape.h</text>
</a>
</g>
</g>
<!-- Node3&#45;&gt;Node24 -->
<g id="edge31" class="edge"><title>Node3&#45;&gt;Node24</title>
<path fill="none" stroke="midnightblue" d="M228.096,-392.083C234.727,-384.298 244.521,-372.801 252.558,-363.367"/>
<polygon fill="midnightblue" stroke="midnightblue" points="255.225,-365.633 259.045,-355.751 249.896,-361.094 255.225,-365.633"/>
</g>
<!-- Node5 -->
<g id="node5" class="node"><title>Node5</title>
<polygon fill="white" stroke="#bfbfbf" points="446,-0.5 446,-19.5 495,-19.5 495,-0.5 446,-0.5"/>
<text text-anchor="middle" x="470.5" y="-7.5" font-family="Helvetica,sans-Serif" font-size="10.00">string.h</text>
</g>
<!-- Node4&#45;&gt;Node5 -->
<g id="edge4" class="edge"><title>Node4&#45;&gt;Node5</title>
<path fill="none" stroke="midnightblue" d="M314.005,-287.609C366.11,-282.852 499.5,-262.519 499.5,-179 499.5,-179 499.5,-179 499.5,-121 499.5,-87.7163 486.932,-50.5837 478.344,-29.0939"/>
<polygon fill="midnightblue" stroke="midnightblue" points="481.482,-27.5254 474.411,-19.6354 475.018,-30.2128 481.482,-27.5254"/>
</g>
<!-- Node6 -->
<g id="node6" class="node"><title>Node6</title>
<polygon fill="white" stroke="#bfbfbf" points="513.5,-0.5 513.5,-19.5 561.5,-19.5 561.5,-0.5 513.5,-0.5"/>
<text text-anchor="middle" x="537.5" y="-7.5" font-family="Helvetica,sans-Serif" font-size="10.00">stdlib.h</text>
</g>
<!-- Node4&#45;&gt;Node6 -->
<g id="edge5" class="edge"><title>Node4&#45;&gt;Node6</title>
<path fill="none" stroke="midnightblue" d="M314.303,-289.073C373.309,-288.088 537.5,-276.58 537.5,-179 537.5,-179 537.5,-179 537.5,-121 537.5,-88.948 537.5,-51.6426 537.5,-29.7489"/>
<polygon fill="midnightblue" stroke="midnightblue" points="541,-29.5577 537.5,-19.5578 534,-29.5578 541,-29.5577"/>
</g>
<!-- Node7 -->
<g id="node7" class="node"><title>Node7</title>
<g id="a_node7"><a xlink:href="ceptr__error_8h_source.html" target="_top" xlink:title="ceptr_error.h">
<polygon fill="white" stroke="black" points="268,-224.5 268,-243.5 339,-243.5 339,-224.5 268,-224.5"/>
<text text-anchor="middle" x="303.5" y="-231.5" font-family="Helvetica,sans-Serif" font-size="10.00">ceptr_error.h</text>
</a>
</g>
</g>
<!-- Node4&#45;&gt;Node7 -->
<g id="edge6" class="edge"><title>Node4&#45;&gt;Node7</title>
<path fill="none" stroke="midnightblue" d="M295.151,-280.083C296.476,-272.927 298.382,-262.635 300.039,-253.691"/>
<polygon fill="midnightblue" stroke="midnightblue" points="303.5,-254.221 301.879,-243.751 296.617,-252.947 303.5,-254.221"/>
</g>
<!-- Node12 -->
<g id="node12" class="node"><title>Node12</title>
<g id="a_node12"><a xlink:href="sys__symbols_8h.html" target="_top" xlink:title="Defines hard&#45;coded system defined symbols. ">
<polygon fill="white" stroke="black" points="146,-224.5 146,-243.5 229,-243.5 229,-224.5 146,-224.5"/>
<text text-anchor="middle" x="187.5" y="-231.5" font-family="Helvetica,sans-Serif" font-size="10.00">sys_symbols.h</text>
</a>
</g>
</g>
<!-- Node4&#45;&gt;Node12 -->
<g id="edge11" class="edge"><title>Node4&#45;&gt;Node12</title>
<path fill="none" stroke="midnightblue" d="M276.469,-280.324C259.47,-271.664 233.124,-258.242 213.507,-248.249"/>
<polygon fill="midnightblue" stroke="midnightblue" points="214.988,-245.075 204.488,-243.655 211.81,-251.312 214.988,-245.075"/>
</g>
<!-- Node13 -->
<g id="node13" class="node"><title>Node13</title>
<g id="a_node13"><a xlink:href="sys__structures_8h.html" target="_top" xlink:title="Defines hard&#45;coded system defined structures. ">
<polygon fill="white" stroke="black" points="70,-168.5 70,-187.5 159,-187.5 159,-168.5 70,-168.5"/>
<text text-anchor="middle" x="114.5" y="-175.5" font-family="Helvetica,sans-Serif" font-size="10.00">sys_structures.h</text>
</a>
</g>
</g>
<!-- Node4&#45;&gt;Node13 -->
<g id="edge21" class="edge"><title>Node4&#45;&gt;Node13</title>
<path fill="none" stroke="midnightblue" d="M272.997,-288.901C239.897,-287.623 174.56,-280.304 136.5,-244 123.984,-232.061 118.588,-212.757 116.262,-198.283"/>
<polygon fill="midnightblue" stroke="midnightblue" points="119.684,-197.434 114.978,-187.942 112.737,-198.297 119.684,-197.434"/>
</g>
<!-- Node14 -->
<g id="node14" class="node"><title>Node14</title>
<g id="a_node14"><a xlink:href="ceptr__types_8h_source.html" target="_top" xlink:title="ceptr_types.h">
<polygon fill="white" stroke="black" points="76.5,-112.5 76.5,-131.5 152.5,-131.5 152.5,-112.5 76.5,-112.5"/>
<text text-anchor="middle" x="114.5" y="-119.5" font-family="Helvetica,sans-Serif" font-size="10.00">ceptr_types.h</text>
</a>
</g>
</g>
<!-- Node4&#45;&gt;Node14 -->
<g id="edge23" class="edge"><title>Node4&#45;&gt;Node14</title>
<path fill="none" stroke="midnightblue" d="M272.959,-288.42C222.879,-285.708 95.9993,-270.638 60.5,-188 51.8413,-167.844 71.7215,-149.057 89.7553,-136.918"/>
<polygon fill="midnightblue" stroke="midnightblue" points="91.7332,-139.808 98.3268,-131.515 88.0007,-133.886 91.7332,-139.808"/>
</g>
<!-- Node19 -->
<g id="node19" class="node"><title>Node19</title>
<g id="a_node19"><a xlink:href="sys__processes_8h.html" target="_top" xlink:title="Defines hard&#45;coded system defined processes. ">
<polygon fill="white" stroke="black" points="357,-224.5 357,-243.5 448,-243.5 448,-224.5 357,-224.5"/>
<text text-anchor="middle" x="402.5" y="-231.5" font-family="Helvetica,sans-Serif" font-size="10.00">sys_processes.h</text>
</a>
</g>
</g>
<!-- Node4&#45;&gt;Node19 -->
<g id="edge22" class="edge"><title>Node4&#45;&gt;Node19</title>
<path fill="none" stroke="midnightblue" d="M311.013,-280.324C328.572,-271.625 355.831,-258.12 376.031,-248.113"/>
<polygon fill="midnightblue" stroke="midnightblue" points="377.624,-251.23 385.031,-243.655 374.516,-244.958 377.624,-251.23"/>
</g>
<!-- Node8 -->
<g id="node8" class="node"><title>Node8</title>
<polygon fill="white" stroke="#bfbfbf" points="357.5,-168.5 357.5,-187.5 403.5,-187.5 403.5,-168.5 357.5,-168.5"/>
<text text-anchor="middle" x="380.5" y="-175.5" font-family="Helvetica,sans-Serif" font-size="10.00">stdio.h</text>
</g>
<!-- Node7&#45;&gt;Node8 -->
<g id="edge7" class="edge"><title>Node7&#45;&gt;Node8</title>
<path fill="none" stroke="midnightblue" d="M315.871,-224.324C327.658,-216.058 345.632,-203.453 359.636,-193.632"/>
<polygon fill="midnightblue" stroke="midnightblue" points="361.982,-196.262 368.159,-187.655 357.962,-190.531 361.982,-196.262"/>
</g>
<!-- Node9 -->
<g id="node9" class="node"><title>Node9</title>
<polygon fill="white" stroke="#bfbfbf" points="421.5,-168.5 421.5,-187.5 471.5,-187.5 471.5,-168.5 421.5,-168.5"/>
<text text-anchor="middle" x="446.5" y="-175.5" font-family="Helvetica,sans-Serif" font-size="10.00">signal.h</text>
</g>
<!-- Node7&#45;&gt;Node9 -->
<g id="edge8" class="edge"><title>Node7&#45;&gt;Node9</title>
<path fill="none" stroke="midnightblue" d="M326.159,-224.444C349.902,-215.478 387.409,-201.314 414.238,-191.183"/>
<polygon fill="midnightblue" stroke="midnightblue" points="415.829,-194.324 423.947,-187.516 413.356,-187.775 415.829,-194.324"/>
</g>
<!-- Node10 -->
<g id="node10" class="node"><title>Node10</title>
<polygon fill="white" stroke="#bfbfbf" points="215.5,-168.5 215.5,-187.5 267.5,-187.5 267.5,-168.5 215.5,-168.5"/>
<text text-anchor="middle" x="241.5" y="-175.5" font-family="Helvetica,sans-Serif" font-size="10.00">assert.h</text>
</g>
<!-- Node7&#45;&gt;Node10 -->
<g id="edge9" class="edge"><title>Node7&#45;&gt;Node10</title>
<path fill="none" stroke="midnightblue" d="M293.539,-224.324C284.373,-216.341 270.563,-204.313 259.472,-194.653"/>
<polygon fill="midnightblue" stroke="midnightblue" points="261.482,-191.762 251.643,-187.834 256.885,-197.041 261.482,-191.762"/>
</g>
<!-- Node11 -->
<g id="node11" class="node"><title>Node11</title>
<polygon fill="white" stroke="#bfbfbf" points="285.5,-168.5 285.5,-187.5 339.5,-187.5 339.5,-168.5 285.5,-168.5"/>
<text text-anchor="middle" x="312.5" y="-175.5" font-family="Helvetica,sans-Serif" font-size="10.00">setjmp.h</text>
</g>
<!-- Node7&#45;&gt;Node11 -->
<g id="edge10" class="edge"><title>Node7&#45;&gt;Node11</title>
<path fill="none" stroke="midnightblue" d="M304.986,-224.083C306.179,-216.927 307.894,-206.635 309.385,-197.691"/>
<polygon fill="midnightblue" stroke="midnightblue" points="312.85,-198.19 311.041,-187.751 305.945,-197.04 312.85,-198.19"/>
</g>
<!-- Node12&#45;&gt;Node13 -->
<g id="edge12" class="edge"><title>Node12&#45;&gt;Node13</title>
<path fill="none" stroke="midnightblue" d="M175.771,-224.324C164.663,-216.107 147.758,-203.602 134.517,-193.807"/>
<polygon fill="midnightblue" stroke="midnightblue" points="136.563,-190.967 126.442,-187.834 132.4,-196.595 136.563,-190.967"/>
</g>
<!-- Node12&#45;&gt;Node14 -->
<g id="edge20" class="edge"><title>Node12&#45;&gt;Node14</title>
<path fill="none" stroke="midnightblue" d="M186.417,-224.344C184.445,-211.226 179.324,-185.943 167.5,-168 159.613,-156.031 147.638,-145.484 137.066,-137.614"/>
<polygon fill="midnightblue" stroke="midnightblue" points="138.823,-134.57 128.636,-131.661 134.785,-140.288 138.823,-134.57"/>
</g>
<!-- Node13&#45;&gt;Node14 -->
<g id="edge13" class="edge"><title>Node13&#45;&gt;Node14</title>
<path fill="none" stroke="midnightblue" d="M114.5,-168.083C114.5,-161.006 114.5,-150.861 114.5,-141.986"/>
<polygon fill="midnightblue" stroke="midnightblue" points="118,-141.751 114.5,-131.751 111,-141.751 118,-141.751"/>
</g>
<!-- Node15 -->
<g id="node15" class="node"><title>Node15</title>
<polygon fill="white" stroke="#bfbfbf" points="90,-56.5 90,-75.5 139,-75.5 139,-56.5 90,-56.5"/>
<text text-anchor="middle" x="114.5" y="-63.5" font-family="Helvetica,sans-Serif" font-size="10.00">stdint.h</text>
</g>
<!-- Node14&#45;&gt;Node15 -->
<g id="edge14" class="edge"><title>Node14&#45;&gt;Node15</title>
<path fill="none" stroke="midnightblue" d="M114.5,-112.083C114.5,-105.006 114.5,-94.8611 114.5,-85.9865"/>
<polygon fill="midnightblue" stroke="midnightblue" points="118,-85.751 114.5,-75.7511 111,-85.7511 118,-85.751"/>
</g>
<!-- Node16 -->
<g id="node16" class="node"><title>Node16</title>
<g id="a_node16"><a xlink:href="uthash_8h_source.html" target="_top" xlink:title="uthash.h">
<polygon fill="white" stroke="black" points="374.5,-56.5 374.5,-75.5 428.5,-75.5 428.5,-56.5 374.5,-56.5"/>
<text text-anchor="middle" x="401.5" y="-63.5" font-family="Helvetica,sans-Serif" font-size="10.00">uthash.h</text>
</a>
</g>
</g>
<!-- Node14&#45;&gt;Node16 -->
<g id="edge15" class="edge"><title>Node14&#45;&gt;Node16</title>
<path fill="none" stroke="midnightblue" d="M152.611,-113.829C207.905,-103.426 309.725,-84.2679 364.428,-73.9752"/>
<polygon fill="midnightblue" stroke="midnightblue" points="365.212,-77.3891 374.393,-72.1003 363.918,-70.5098 365.212,-77.3891"/>
</g>
<!-- Node16&#45;&gt;Node5 -->
<g id="edge16" class="edge"><title>Node16&#45;&gt;Node5</title>
<path fill="none" stroke="midnightblue" d="M412.586,-56.324C422.986,-48.1849 438.761,-35.8395 451.222,-26.0874"/>
<polygon fill="midnightblue" stroke="midnightblue" points="453.494,-28.7533 459.212,-19.8339 449.18,-23.2407 453.494,-28.7533"/>
</g>
<!-- Node16&#45;&gt;Node6 -->
<g id="edge18" class="edge"><title>Node16&#45;&gt;Node6</title>
<path fill="none" stroke="midnightblue" d="M423.05,-56.4435C445.531,-47.5171 480.988,-33.4387 506.48,-23.3168"/>
<polygon fill="midnightblue" stroke="midnightblue" points="508.049,-26.4598 516.051,-19.5164 505.465,-19.9539 508.049,-26.4598"/>
</g>
<!-- Node17 -->
<g id="node17" class="node"><title>Node17</title>
<polygon fill="white" stroke="#bfbfbf" points="375.5,-0.5 375.5,-19.5 427.5,-19.5 427.5,-0.5 375.5,-0.5"/>
<text text-anchor="middle" x="401.5" y="-7.5" font-family="Helvetica,sans-Serif" font-size="10.00">stddef.h</text>
</g>
<!-- Node16&#45;&gt;Node17 -->
<g id="edge17" class="edge"><title>Node16&#45;&gt;Node17</title>
<path fill="none" stroke="midnightblue" d="M401.5,-56.083C401.5,-49.0059 401.5,-38.8611 401.5,-29.9865"/>
<polygon fill="midnightblue" stroke="midnightblue" points="405,-29.751 401.5,-19.7511 398,-29.7511 405,-29.751"/>
</g>
<!-- Node18 -->
<g id="node18" class="node"><title>Node18</title>
<polygon fill="white" stroke="#bfbfbf" points="298,-0.5 298,-19.5 357,-19.5 357,-0.5 298,-0.5"/>
<text text-anchor="middle" x="327.5" y="-7.5" font-family="Helvetica,sans-Serif" font-size="10.00">inttypes.h</text>
</g>
<!-- Node16&#45;&gt;Node18 -->
<g id="edge19" class="edge"><title>Node16&#45;&gt;Node18</title>
<path fill="none" stroke="midnightblue" d="M389.611,-56.324C378.35,-48.1066 361.213,-35.6017 347.791,-25.8069"/>
<polygon fill="midnightblue" stroke="midnightblue" points="349.747,-22.9014 339.606,-19.8339 345.62,-28.5559 349.747,-22.9014"/>
</g>
<!-- Node20&#45;&gt;Node4 -->
<g id="edge25" class="edge"><title>Node20&#45;&gt;Node4</title>
<path fill="none" stroke="midnightblue" d="M145.657,-338.806C174.307,-329.541 228.6,-311.985 262.818,-300.921"/>
<polygon fill="midnightblue" stroke="midnightblue" points="264.304,-304.119 272.742,-297.712 262.15,-297.459 264.304,-304.119"/>
</g>
<!-- Node21 -->
<g id="node21" class="node"><title>Node21</title>
<polygon fill="white" stroke="#bfbfbf" points="100.5,-280.5 100.5,-299.5 152.5,-299.5 152.5,-280.5 100.5,-280.5"/>
<text text-anchor="middle" x="126.5" y="-287.5" font-family="Helvetica,sans-Serif" font-size="10.00">stdarg.h</text>
</g>
<!-- Node20&#45;&gt;Node21 -->
<g id="edge26" class="edge"><title>Node20&#45;&gt;Node21</title>
<path fill="none" stroke="midnightblue" d="M126.5,-336.083C126.5,-329.006 126.5,-318.861 126.5,-309.986"/>
<polygon fill="midnightblue" stroke="midnightblue" points="130,-309.751 126.5,-299.751 123,-309.751 130,-309.751"/>
</g>
<!-- Node22&#45;&gt;Node14 -->
<g id="edge28" class="edge"><title>Node22&#45;&gt;Node14</title>
<path fill="none" stroke="midnightblue" d="M20.1048,-280.217C14.8585,-258.988 4.56265,-203.993 27.5,-168 37.355,-152.536 54.3446,-142.115 70.7094,-135.232"/>
<polygon fill="midnightblue" stroke="midnightblue" points="72.1364,-138.434 80.214,-131.578 69.624,-131.9 72.1364,-138.434"/>
</g>
<!-- Node23&#45;&gt;Node4 -->
<g id="edge30" class="edge"><title>Node23&#45;&gt;Node4</title>
<path fill="none" stroke="midnightblue" d="M209.567,-336.324C225.458,-327.743 250.007,-314.486 268.458,-304.522"/>
<polygon fill="midnightblue" stroke="midnightblue" points="270.337,-307.486 277.473,-299.655 267.011,-301.326 270.337,-307.486"/>
</g>
<!-- Node24&#45;&gt;Node4 -->
<g id="edge32" class="edge"><title>Node24&#45;&gt;Node4</title>
<path fill="none" stroke="midnightblue" d="M270.959,-336.083C274.654,-328.691 280.023,-317.953 284.594,-308.811"/>
<polygon fill="midnightblue" stroke="midnightblue" points="287.783,-310.261 289.124,-299.751 281.522,-307.13 287.783,-310.261"/>
</g>
</g>
</svg>
