<?xml version="1.0" encoding="UTF-8" standalone="no"?>
<!DOCTYPE svg PUBLIC "-//W3C//DTD SVG 1.1//EN"
 "http://www.w3.org/Graphics/SVG/1.1/DTD/svg11.dtd">
<!-- Generated by graphviz version 2.38.0 (20140413.2041)
 -->
<!-- Title: spec/vmhost_spec.h Pages: 1 -->
<!--zoomable 644 -->
<svg id="main" version="1.1" xmlns="http://www.w3.org/2000/svg" xmlns:xlink="http://www.w3.org/1999/xlink" xml:space="preserve" onload="init(evt)">
<style type="text/css"><![CDATA[
.edge:hover path { stroke: red; }
.edge:hover polygon { stroke: red; fill: red; }
]]></style>
<script type="text/javascript"><![CDATA[
var edges = document.getElementsByTagName('g');
if (edges && edges.length) {
  for (var i=0;i<edges.length;i++) {
    if (edges[i].id.substr(0,4)=='edge') {
      edges[i].setAttribute('class','edge');
    }
  }
}
]]></script>
        <defs>
                <circle id="rim" cx="0" cy="0" r="7"/>
                <circle id="rim2" cx="0" cy="0" r="3.5"/>
                <g id="zoomPlus">
                        <use xlink:href="#rim" fill="#404040">
                                <set attributeName="fill" to="#808080" begin="zoomplus.mouseover" end="zoomplus.mouseout"/>
                        </use>
                        <path d="M-4,0h8M0,-4v8" fill="none" stroke="white" stroke-width="1.5" pointer-events="none"/>
                </g>
                <g id="zoomMin">
                        <use xlink:href="#rim" fill="#404040">
                                <set attributeName="fill" to="#808080" begin="zoomminus.mouseover" end="zoomminus.mouseout"/>
                        </use>
                        <path d="M-4,0h8" fill="none" stroke="white" stroke-width="1.5" pointer-events="none"/>
                </g>
                <g id="dirArrow">
                        <path fill="none" stroke="white" stroke-width="1.5" d="M0,-3.0v7 M-2.5,-0.5L0,-3.0L2.5,-0.5"/>
                </g>
               <g id="resetDef">
                       <use xlink:href="#rim2" fill="#404040">
                               <set attributeName="fill" to="#808080" begin="reset.mouseover" end="reset.mouseout"/>
                       </use>
               </g>
        </defs>

<script type="text/javascript">
var viewWidth = 835;
var viewHeight = 644;
var sectionId = 'dynsection-0';
</script>
<script xlink:href="svgpan.js"/>
<svg id="graph" class="graph">
<g id="viewport">
<title>spec/vmhost_spec.h</title>
<polygon fill="white" stroke="none" points="-4,4 -4,-640 830.567,-640 830.567,4 -4,4"/>
<!-- Node1 -->
<g id="node1" class="node"><title>Node1</title>
<polygon fill="#bfbfbf" stroke="black" points="263,-616.5 263,-635.5 370,-635.5 370,-616.5 263,-616.5"/>
<text text-anchor="middle" x="316.5" y="-623.5" font-family="Helvetica,sans-Serif" font-size="10.00">spec/vmhost_spec.h</text>
</g>
<!-- Node2 -->
<g id="node2" class="node"><title>Node2</title>
<g id="a_node2"><a xlink:href="ceptr_8h_source.html" target="_top" xlink:title="../src/ceptr.h">
<polygon fill="white" stroke="black" points="461.5,-336.5 461.5,-355.5 533.5,-355.5 533.5,-336.5 461.5,-336.5"/>
<text text-anchor="middle" x="497.5" y="-343.5" font-family="Helvetica,sans-Serif" font-size="10.00">../src/ceptr.h</text>
</a>
</g>
</g>
<!-- Node1&#45;&gt;Node2 -->
<g id="edge1" class="edge"><title>Node1&#45;&gt;Node2</title>
<path fill="none" stroke="midnightblue" d="M370.184,-622.687C439.269,-616.498 550.5,-594.231 550.5,-515 550.5,-515 550.5,-515 550.5,-457 550.5,-426.775 544.071,-419.008 530.5,-392 525.453,-381.956 518.202,-371.772 511.781,-363.639"/>
<polygon fill="midnightblue" stroke="midnightblue" points="514.333,-361.231 505.284,-355.722 508.922,-365.672 514.333,-361.231"/>
</g>
<!-- Node26 -->
<g id="node26" class="node"><title>Node26</title>
<g id="a_node26"><a xlink:href="vmhost_8h.html" target="_top" xlink:title="vmhost implementation header file ">
<polygon fill="white" stroke="black" points="171,-448.5 171,-467.5 254,-467.5 254,-448.5 171,-448.5"/>
<text text-anchor="middle" x="212.5" y="-455.5" font-family="Helvetica,sans-Serif" font-size="10.00">../src/vmhost.h</text>
</a>
</g>
</g>
<!-- Node1&#45;&gt;Node26 -->
<g id="edge44" class="edge"><title>Node1&#45;&gt;Node26</title>
<path fill="none" stroke="midnightblue" d="M290.533,-616.4C273.191,-609.322 251.295,-597.564 238.5,-580 216.119,-549.277 212.254,-503.234 212.003,-477.715"/>
<polygon fill="midnightblue" stroke="midnightblue" points="215.504,-477.593 212.088,-467.564 208.504,-477.534 215.504,-477.593"/>
</g>
<!-- Node33 -->
<g id="node33" class="node"><title>Node33</title>
<g id="a_node33"><a xlink:href="http__example_8h.html" target="_top" xlink:title="http_example.h">
<polygon fill="white" stroke="black" points="312,-448.5 312,-467.5 395,-467.5 395,-448.5 312,-448.5"/>
<text text-anchor="middle" x="353.5" y="-455.5" font-family="Helvetica,sans-Serif" font-size="10.00">http_example.h</text>
</a>
</g>
</g>
<!-- Node1&#45;&gt;Node33 -->
<g id="edge56" class="edge"><title>Node1&#45;&gt;Node33</title>
<path fill="none" stroke="midnightblue" d="M318.681,-616.39C320.954,-607.346 324.584,-592.698 327.5,-580 335.806,-543.827 344.74,-501.38 349.674,-477.595"/>
<polygon fill="midnightblue" stroke="midnightblue" points="353.158,-478.028 351.754,-467.527 346.303,-476.612 353.158,-478.028"/>
</g>
<!-- Node36 -->
<g id="node36" class="node"><title>Node36</title>
<g id="a_node36"><a xlink:href="shell_8h.html" target="_top" xlink:title="command line shell receptor header files ">
<polygon fill="white" stroke="black" points="248,-560.5 248,-579.5 319,-579.5 319,-560.5 248,-560.5"/>
<text text-anchor="middle" x="283.5" y="-567.5" font-family="Helvetica,sans-Serif" font-size="10.00">../src/shell.h</text>
</a>
</g>
</g>
<!-- Node1&#45;&gt;Node36 -->
<g id="edge64" class="edge"><title>Node1&#45;&gt;Node36</title>
<path fill="none" stroke="midnightblue" d="M311.051,-616.083C306.486,-608.613 299.832,-597.724 294.207,-588.52"/>
<polygon fill="midnightblue" stroke="midnightblue" points="297.049,-586.459 288.848,-579.751 291.076,-590.109 297.049,-586.459"/>
</g>
<!-- Node3 -->
<g id="node3" class="node"><title>Node3</title>
<polygon fill="white" stroke="#bfbfbf" points="24,-0.5 24,-19.5 73,-19.5 73,-0.5 24,-0.5"/>
<text text-anchor="middle" x="48.5" y="-7.5" font-family="Helvetica,sans-Serif" font-size="10.00">string.h</text>
</g>
<!-- Node2&#45;&gt;Node3 -->
<g id="edge2" class="edge"><title>Node2&#45;&gt;Node3</title>
<path fill="none" stroke="midnightblue" d="M480.397,-336.472C439.679,-316.251 333.654,-264.094 243.5,-224 205.264,-206.996 189.415,-213.841 156.5,-188 101.588,-144.889 67.8928,-65.5151 54.7827,-29.5633"/>
<polygon fill="midnightblue" stroke="midnightblue" points="57.9982,-28.1569 51.3743,-19.8881 51.3959,-30.4829 57.9982,-28.1569"/>
</g>
<!-- Node4 -->
<g id="node4" class="node"><title>Node4</title>
<polygon fill="white" stroke="#bfbfbf" points="554.5,-56.5 554.5,-75.5 600.5,-75.5 600.5,-56.5 554.5,-56.5"/>
<text text-anchor="middle" x="577.5" y="-63.5" font-family="Helvetica,sans-Serif" font-size="10.00">stdio.h</text>
</g>
<!-- Node2&#45;&gt;Node4 -->
<g id="edge3" class="edge"><title>Node2&#45;&gt;Node4</title>
<path fill="none" stroke="midnightblue" d="M533.926,-339.448C586.522,-329.132 677.5,-301.654 677.5,-235 677.5,-235 677.5,-235 677.5,-177 677.5,-132.984 633.12,-98.7956 603.49,-80.875"/>
<polygon fill="midnightblue" stroke="midnightblue" points="604.869,-77.6286 594.464,-75.6363 601.356,-83.683 604.869,-77.6286"/>
</g>
<!-- Node5 -->
<g id="node5" class="node"><title>Node5</title>
<polygon fill="white" stroke="#bfbfbf" points="272.5,-0.5 272.5,-19.5 320.5,-19.5 320.5,-0.5 272.5,-0.5"/>
<text text-anchor="middle" x="296.5" y="-7.5" font-family="Helvetica,sans-Serif" font-size="10.00">stdlib.h</text>
</g>
<!-- Node2&#45;&gt;Node5 -->
<g id="edge4" class="edge"><title>Node2&#45;&gt;Node5</title>
<path fill="none" stroke="midnightblue" d="M533.54,-340.688C618.745,-329.492 825.5,-296.037 825.5,-235 825.5,-235 825.5,-235 825.5,-121 825.5,-90.9022 829.766,-75.0935 806.5,-56 769.802,-25.884 439.182,-14.6938 330.762,-11.8149"/>
<polygon fill="midnightblue" stroke="midnightblue" points="330.776,-8.31423 320.689,-11.5546 330.595,-15.3119 330.776,-8.31423"/>
</g>
<!-- Node6 -->
<g id="node6" class="node"><title>Node6</title>
<g id="a_node6"><a xlink:href="ceptr__error_8h_source.html" target="_top" xlink:title="ceptr_error.h">
<polygon fill="white" stroke="black" points="405,-168.5 405,-187.5 476,-187.5 476,-168.5 405,-168.5"/>
<text text-anchor="middle" x="440.5" y="-175.5" font-family="Helvetica,sans-Serif" font-size="10.00">ceptr_error.h</text>
</a>
</g>
</g>
<!-- Node2&#45;&gt;Node6 -->
<g id="edge5" class="edge"><title>Node2&#45;&gt;Node6</title>
<path fill="none" stroke="midnightblue" d="M494.435,-336.075C485.424,-309.832 458.886,-232.545 446.721,-197.117"/>
<polygon fill="midnightblue" stroke="midnightblue" points="450,-195.889 443.442,-187.568 443.379,-198.163 450,-195.889"/>
</g>
<!-- Node10 -->
<g id="node10" class="node"><title>Node10</title>
<g id="a_node10"><a xlink:href="tree_8h.html" target="_top" xlink:title="semantic trees header file ">
<polygon fill="white" stroke="black" points="183,-280.5 183,-299.5 224,-299.5 224,-280.5 183,-280.5"/>
<text text-anchor="middle" x="203.5" y="-287.5" font-family="Helvetica,sans-Serif" font-size="10.00">tree.h</text>
</a>
</g>
</g>
<!-- Node2&#45;&gt;Node10 -->
<g id="edge10" class="edge"><title>Node2&#45;&gt;Node10</title>
<path fill="none" stroke="midnightblue" d="M461.172,-338.653C412.648,-330.125 324.021,-314.375 248.5,-300 243.885,-299.122 239.008,-298.17 234.235,-297.226"/>
<polygon fill="midnightblue" stroke="midnightblue" points="234.586,-293.727 224.094,-295.203 233.216,-300.592 234.586,-293.727"/>
</g>
<!-- Node19 -->
<g id="node19" class="node"><title>Node19</title>
<g id="a_node19"><a xlink:href="stream_8h.html" target="_top" xlink:title="streams abstraction header file ">
<polygon fill="white" stroke="black" points="493,-224.5 493,-243.5 548,-243.5 548,-224.5 493,-224.5"/>
<text text-anchor="middle" x="520.5" y="-231.5" font-family="Helvetica,sans-Serif" font-size="10.00">stream.h</text>
</a>
</g>
</g>
<!-- Node2&#45;&gt;Node19 -->
<g id="edge36" class="edge"><title>Node2&#45;&gt;Node19</title>
<path fill="none" stroke="midnightblue" d="M499.305,-336.368C503.016,-318.617 511.579,-277.666 516.611,-253.597"/>
<polygon fill="midnightblue" stroke="midnightblue" points="520.083,-254.096 518.704,-243.591 513.231,-252.663 520.083,-254.096"/>
</g>
<!-- Node21 -->
<g id="node21" class="node"><title>Node21</title>
<g id="a_node21"><a xlink:href="mtree_8h.html" target="_top" xlink:title="semantic tree matrix header file `` ">
<polygon fill="white" stroke="black" points="335.5,-224.5 335.5,-243.5 385.5,-243.5 385.5,-224.5 335.5,-224.5"/>
<text text-anchor="middle" x="360.5" y="-231.5" font-family="Helvetica,sans-Serif" font-size="10.00">mtree.h</text>
</a>
</g>
</g>
<!-- Node2&#45;&gt;Node21 -->
<g id="edge30" class="edge"><title>Node2&#45;&gt;Node21</title>
<path fill="none" stroke="midnightblue" d="M486.75,-336.368C463.541,-317.733 408.49,-273.532 379.349,-250.134"/>
<polygon fill="midnightblue" stroke="midnightblue" points="381.189,-247.123 371.2,-243.591 376.807,-252.581 381.189,-247.123"/>
</g>
<!-- Node22 -->
<g id="node22" class="node"><title>Node22</title>
<g id="a_node22"><a xlink:href="util_8h.html" target="_top" xlink:title="util.h">
<polygon fill="white" stroke="black" points="705.5,-112.5 705.5,-131.5 743.5,-131.5 743.5,-112.5 705.5,-112.5"/>
<text text-anchor="middle" x="724.5" y="-119.5" font-family="Helvetica,sans-Serif" font-size="10.00">util.h</text>
</a>
</g>
</g>
<!-- Node2&#45;&gt;Node22 -->
<g id="edge37" class="edge"><title>Node2&#45;&gt;Node22</title>
<path fill="none" stroke="midnightblue" d="M533.787,-341.302C583.779,-335.447 670.101,-322.353 691.5,-300 733.241,-256.398 730.787,-177.866 727.062,-141.908"/>
<polygon fill="midnightblue" stroke="midnightblue" points="730.52,-141.344 725.862,-131.828 723.569,-142.171 730.52,-141.344"/>
</g>
<!-- Node25 -->
<g id="node25" class="node"><title>Node25</title>
<g id="a_node25"><a xlink:href="debug_8h.html" target="_top" xlink:title="debug.h">
<polygon fill="white" stroke="black" points="583,-224.5 583,-243.5 634,-243.5 634,-224.5 583,-224.5"/>
<text text-anchor="middle" x="608.5" y="-231.5" font-family="Helvetica,sans-Serif" font-size="10.00">debug.h</text>
</a>
</g>
</g>
<!-- Node2&#45;&gt;Node25 -->
<g id="edge42" class="edge"><title>Node2&#45;&gt;Node25</title>
<path fill="none" stroke="midnightblue" d="M506.21,-336.368C524.852,-317.894 568.85,-274.293 592.613,-250.744"/>
<polygon fill="midnightblue" stroke="midnightblue" points="595.191,-253.117 599.83,-243.591 590.264,-248.144 595.191,-253.117"/>
</g>
<!-- Node6&#45;&gt;Node4 -->
<g id="edge6" class="edge"><title>Node6&#45;&gt;Node4</title>
<path fill="none" stroke="midnightblue" d="M475.762,-168.386C497.701,-161.543 525.296,-150.06 544.5,-132 558.018,-119.288 566.877,-99.8143 571.979,-85.495"/>
<polygon fill="midnightblue" stroke="midnightblue" points="575.385,-86.3395 575.163,-75.747 568.731,-84.1659 575.385,-86.3395"/>
</g>
<!-- Node7 -->
<g id="node7" class="node"><title>Node7</title>
<polygon fill="white" stroke="#bfbfbf" points="485.5,-112.5 485.5,-131.5 535.5,-131.5 535.5,-112.5 485.5,-112.5"/>
<text text-anchor="middle" x="510.5" y="-119.5" font-family="Helvetica,sans-Serif" font-size="10.00">signal.h</text>
</g>
<!-- Node6&#45;&gt;Node7 -->
<g id="edge7" class="edge"><title>Node6&#45;&gt;Node7</title>
<path fill="none" stroke="midnightblue" d="M451.747,-168.324C462.297,-160.185 478.301,-147.839 490.942,-138.087"/>
<polygon fill="midnightblue" stroke="midnightblue" points="493.269,-140.713 499.049,-131.834 488.993,-135.171 493.269,-140.713"/>
</g>
<!-- Node8 -->
<g id="node8" class="node"><title>Node8</title>
<polygon fill="white" stroke="#bfbfbf" points="343.5,-112.5 343.5,-131.5 395.5,-131.5 395.5,-112.5 343.5,-112.5"/>
<text text-anchor="middle" x="369.5" y="-119.5" font-family="Helvetica,sans-Serif" font-size="10.00">assert.h</text>
</g>
<!-- Node6&#45;&gt;Node8 -->
<g id="edge8" class="edge"><title>Node6&#45;&gt;Node8</title>
<path fill="none" stroke="midnightblue" d="M429.093,-168.324C418.391,-160.185 402.159,-147.839 389.337,-138.087"/>
<polygon fill="midnightblue" stroke="midnightblue" points="391.193,-135.102 381.115,-131.834 386.956,-140.673 391.193,-135.102"/>
</g>
<!-- Node9 -->
<g id="node9" class="node"><title>Node9</title>
<polygon fill="white" stroke="#bfbfbf" points="413.5,-112.5 413.5,-131.5 467.5,-131.5 467.5,-112.5 413.5,-112.5"/>
<text text-anchor="middle" x="440.5" y="-119.5" font-family="Helvetica,sans-Serif" font-size="10.00">setjmp.h</text>
</g>
<!-- Node6&#45;&gt;Node9 -->
<g id="edge9" class="edge"><title>Node6&#45;&gt;Node9</title>
<path fill="none" stroke="midnightblue" d="M440.5,-168.083C440.5,-161.006 440.5,-150.861 440.5,-141.986"/>
<polygon fill="midnightblue" stroke="midnightblue" points="444,-141.751 440.5,-131.751 437,-141.751 444,-141.751"/>
</g>
<!-- Node10&#45;&gt;Node3 -->
<g id="edge11" class="edge"><title>Node10&#45;&gt;Node3</title>
<path fill="none" stroke="midnightblue" d="M182.731,-282.501C147.681,-270.313 77.5767,-240.41 46.5,-188 16.5054,-137.415 32.472,-63.5501 42.4462,-29.4769"/>
<polygon fill="midnightblue" stroke="midnightblue" points="45.9091,-30.126 45.5239,-19.5382 39.2223,-28.0553 45.9091,-30.126"/>
</g>
<!-- Node10&#45;&gt;Node5 -->
<g id="edge12" class="edge"><title>Node10&#45;&gt;Node5</title>
<path fill="none" stroke="midnightblue" d="M213.627,-280.403C222.819,-272.038 236.04,-258.5 243.5,-244 281.236,-170.65 292.326,-70.6776 295.397,-29.6905"/>
<polygon fill="midnightblue" stroke="midnightblue" points="298.899,-29.774 296.078,-19.5617 291.915,-29.3043 298.899,-29.774"/>
</g>
<!-- Node10&#45;&gt;Node6 -->
<g id="edge13" class="edge"><title>Node10&#45;&gt;Node6</title>
<path fill="none" stroke="midnightblue" d="M224.044,-288.794C261.198,-287.482 340.687,-280.277 394.5,-244 411.824,-232.321 424.725,-211.779 432.387,-196.908"/>
<polygon fill="midnightblue" stroke="midnightblue" points="435.639,-198.224 436.845,-187.698 429.338,-195.174 435.639,-198.224"/>
</g>
<!-- Node11 -->
<g id="node11" class="node"><title>Node11</title>
<g id="a_node11"><a xlink:href="sys__defs_8h.html" target="_top" xlink:title="Defines types and vars for system defined semantics. ">
<polygon fill="white" stroke="black" points="166,-168.5 166,-187.5 231,-187.5 231,-168.5 166,-168.5"/>
<text text-anchor="middle" x="198.5" y="-175.5" font-family="Helvetica,sans-Serif" font-size="10.00">sys_defs.h</text>
</a>
</g>
</g>
<!-- Node10&#45;&gt;Node11 -->
<g id="edge14" class="edge"><title>Node10&#45;&gt;Node11</title>
<path fill="none" stroke="midnightblue" d="M189.13,-280.33C177.62,-272.469 162.311,-259.722 155.5,-244 147.513,-225.563 163.261,-206.644 177.895,-194.006"/>
<polygon fill="midnightblue" stroke="midnightblue" points="180.163,-196.674 185.753,-187.674 175.771,-191.223 180.163,-196.674"/>
</g>
<!-- Node12 -->
<g id="node12" class="node"><title>Node12</title>
<g id="a_node12"><a xlink:href="ceptr__types_8h_source.html" target="_top" xlink:title="ceptr_types.h">
<polygon fill="white" stroke="black" points="135.5,-112.5 135.5,-131.5 211.5,-131.5 211.5,-112.5 135.5,-112.5"/>
<text text-anchor="middle" x="173.5" y="-119.5" font-family="Helvetica,sans-Serif" font-size="10.00">ceptr_types.h</text>
</a>
</g>
</g>
<!-- Node10&#45;&gt;Node12 -->
<g id="edge26" class="edge"><title>Node10&#45;&gt;Node12</title>
<path fill="none" stroke="midnightblue" d="M186.867,-280.464C174.012,-272.841 157.161,-260.356 149.5,-244 133.444,-209.721 151,-165.096 163.408,-140.753"/>
<polygon fill="midnightblue" stroke="midnightblue" points="166.648,-142.117 168.298,-131.651 160.482,-138.804 166.648,-142.117"/>
</g>
<!-- Node18 -->
<g id="node18" class="node"><title>Node18</title>
<g id="a_node18"><a xlink:href="base__defs_8h.html" target="_top" xlink:title="auto&#45;generated system definitions ">
<polygon fill="white" stroke="black" points="164.5,-224.5 164.5,-243.5 234.5,-243.5 234.5,-224.5 164.5,-224.5"/>
<text text-anchor="middle" x="199.5" y="-231.5" font-family="Helvetica,sans-Serif" font-size="10.00">base_defs.h</text>
</a>
</g>
</g>
<!-- Node10&#45;&gt;Node18 -->
<g id="edge24" class="edge"><title>Node10&#45;&gt;Node18</title>
<path fill="none" stroke="midnightblue" d="M202.839,-280.083C202.315,-273.006 201.564,-262.861 200.906,-253.986"/>
<polygon fill="midnightblue" stroke="midnightblue" points="204.377,-253.465 200.148,-243.751 197.397,-253.982 204.377,-253.465"/>
</g>
<!-- Node10&#45;&gt;Node19 -->
<g id="edge27" class="edge"><title>Node10&#45;&gt;Node19</title>
<path fill="none" stroke="midnightblue" d="M224.299,-285.457C276.729,-276.526 414.91,-252.987 482.365,-241.496"/>
<polygon fill="midnightblue" stroke="midnightblue" points="483.289,-244.889 492.559,-239.76 482.114,-237.989 483.289,-244.889"/>
</g>
<!-- Node11&#45;&gt;Node12 -->
<g id="edge15" class="edge"><title>Node11&#45;&gt;Node12</title>
<path fill="none" stroke="midnightblue" d="M194.372,-168.083C190.986,-160.77 186.084,-150.181 181.881,-141.103"/>
<polygon fill="midnightblue" stroke="midnightblue" points="184.929,-139.355 177.551,-131.751 178.577,-142.296 184.929,-139.355"/>
</g>
<!-- Node12&#45;&gt;Node4 -->
<g id="edge17" class="edge"><title>Node12&#45;&gt;Node4</title>
<path fill="none" stroke="midnightblue" d="M211.507,-115.92C290.139,-105.41 469.546,-81.4295 544.076,-71.4676"/>
<polygon fill="midnightblue" stroke="midnightblue" points="544.839,-74.8968 554.287,-70.1028 543.911,-67.9585 544.839,-74.8968"/>
</g>
<!-- Node13 -->
<g id="node13" class="node"><title>Node13</title>
<polygon fill="white" stroke="#bfbfbf" points="619,-56.5 619,-75.5 668,-75.5 668,-56.5 619,-56.5"/>
<text text-anchor="middle" x="643.5" y="-63.5" font-family="Helvetica,sans-Serif" font-size="10.00">stdint.h</text>
</g>
<!-- Node12&#45;&gt;Node13 -->
<g id="edge16" class="edge"><title>Node12&#45;&gt;Node13</title>
<path fill="none" stroke="midnightblue" d="M211.69,-119.065C286.231,-114.856 456.387,-103.134 608.712,-75.8569"/>
<polygon fill="midnightblue" stroke="midnightblue" points="609.506,-79.2701 618.718,-74.0376 608.254,-72.383 609.506,-79.2701"/>
</g>
<!-- Node14 -->
<g id="node14" class="node"><title>Node14</title>
<g id="a_node14"><a xlink:href="uthash_8h_source.html" target="_top" xlink:title="uthash.h">
<polygon fill="white" stroke="black" points="83.5,-56.5 83.5,-75.5 137.5,-75.5 137.5,-56.5 83.5,-56.5"/>
<text text-anchor="middle" x="110.5" y="-63.5" font-family="Helvetica,sans-Serif" font-size="10.00">uthash.h</text>
</a>
</g>
</g>
<!-- Node12&#45;&gt;Node14 -->
<g id="edge18" class="edge"><title>Node12&#45;&gt;Node14</title>
<path fill="none" stroke="midnightblue" d="M163.378,-112.324C153.974,-104.263 139.756,-92.0765 128.431,-82.3695"/>
<polygon fill="midnightblue" stroke="midnightblue" points="130.677,-79.6844 120.806,-75.8339 126.121,-84.9993 130.677,-79.6844"/>
</g>
<!-- Node17 -->
<g id="node17" class="node"><title>Node17</title>
<polygon fill="white" stroke="#bfbfbf" points="155.5,-56.5 155.5,-75.5 211.5,-75.5 211.5,-56.5 155.5,-56.5"/>
<text text-anchor="middle" x="183.5" y="-63.5" font-family="Helvetica,sans-Serif" font-size="10.00">stdbool.h</text>
</g>
<!-- Node12&#45;&gt;Node17 -->
<g id="edge23" class="edge"><title>Node12&#45;&gt;Node17</title>
<path fill="none" stroke="midnightblue" d="M175.151,-112.083C176.476,-104.927 178.382,-94.6353 180.039,-85.6911"/>
<polygon fill="midnightblue" stroke="midnightblue" points="183.5,-86.2212 181.879,-75.7511 176.617,-84.9466 183.5,-86.2212"/>
</g>
<!-- Node14&#45;&gt;Node3 -->
<g id="edge19" class="edge"><title>Node14&#45;&gt;Node3</title>
<path fill="none" stroke="midnightblue" d="M100.539,-56.324C91.3734,-48.3414 77.5628,-36.3128 66.4718,-26.6529"/>
<polygon fill="midnightblue" stroke="midnightblue" points="68.4822,-23.7624 58.6426,-19.8339 63.8847,-29.041 68.4822,-23.7624"/>
</g>
<!-- Node14&#45;&gt;Node5 -->
<g id="edge21" class="edge"><title>Node14&#45;&gt;Node5</title>
<path fill="none" stroke="midnightblue" d="M137.546,-57.1479C170.559,-47.5635 226.417,-31.3468 262.36,-20.9117"/>
<polygon fill="midnightblue" stroke="midnightblue" points="263.753,-24.1519 272.38,-18.0025 261.801,-17.4294 263.753,-24.1519"/>
</g>
<!-- Node15 -->
<g id="node15" class="node"><title>Node15</title>
<polygon fill="white" stroke="#bfbfbf" points="91.5,-0.5 91.5,-19.5 143.5,-19.5 143.5,-0.5 91.5,-0.5"/>
<text text-anchor="middle" x="117.5" y="-7.5" font-family="Helvetica,sans-Serif" font-size="10.00">stddef.h</text>
</g>
<!-- Node14&#45;&gt;Node15 -->
<g id="edge20" class="edge"><title>Node14&#45;&gt;Node15</title>
<path fill="none" stroke="midnightblue" d="M111.656,-56.083C112.584,-48.9272 113.918,-38.6353 115.077,-29.6911"/>
<polygon fill="midnightblue" stroke="midnightblue" points="118.551,-30.1181 116.366,-19.7511 111.609,-29.2181 118.551,-30.1181"/>
</g>
<!-- Node16 -->
<g id="node16" class="node"><title>Node16</title>
<polygon fill="white" stroke="#bfbfbf" points="162,-0.5 162,-19.5 221,-19.5 221,-0.5 162,-0.5"/>
<text text-anchor="middle" x="191.5" y="-7.5" font-family="Helvetica,sans-Serif" font-size="10.00">inttypes.h</text>
</g>
<!-- Node14&#45;&gt;Node16 -->
<g id="edge22" class="edge"><title>Node14&#45;&gt;Node16</title>
<path fill="none" stroke="midnightblue" d="M123.514,-56.324C136.032,-47.979 155.182,-35.2122 169.971,-25.3524"/>
<polygon fill="midnightblue" stroke="midnightblue" points="172.139,-28.1137 178.518,-19.6545 168.256,-22.2894 172.139,-28.1137"/>
</g>
<!-- Node18&#45;&gt;Node11 -->
<g id="edge25" class="edge"><title>Node18&#45;&gt;Node11</title>
<path fill="none" stroke="midnightblue" d="M199.335,-224.083C199.204,-217.006 199.016,-206.861 198.852,-197.986"/>
<polygon fill="midnightblue" stroke="midnightblue" points="202.347,-197.685 198.662,-187.751 195.348,-197.814 202.347,-197.685"/>
</g>
<!-- Node19&#45;&gt;Node4 -->
<g id="edge28" class="edge"><title>Node19&#45;&gt;Node4</title>
<path fill="none" stroke="midnightblue" d="M530.62,-224.473C539.755,-216.158 552.764,-202.654 559.5,-188 574.969,-154.35 577.716,-110.398 577.895,-85.7935"/>
<polygon fill="midnightblue" stroke="midnightblue" points="581.394,-85.6534 577.827,-75.6771 574.394,-85.7003 581.394,-85.6534"/>
</g>
<!-- Node20 -->
<g id="node20" class="node"><title>Node20</title>
<polygon fill="white" stroke="#bfbfbf" points="494,-168.5 494,-187.5 551,-187.5 551,-168.5 494,-168.5"/>
<text text-anchor="middle" x="522.5" y="-175.5" font-family="Helvetica,sans-Serif" font-size="10.00">pthread.h</text>
</g>
<!-- Node19&#45;&gt;Node20 -->
<g id="edge29" class="edge"><title>Node19&#45;&gt;Node20</title>
<path fill="none" stroke="midnightblue" d="M520.83,-224.083C521.092,-217.006 521.468,-206.861 521.797,-197.986"/>
<polygon fill="midnightblue" stroke="midnightblue" points="525.303,-197.874 522.176,-187.751 518.308,-197.615 525.303,-197.874"/>
</g>
<!-- Node21&#45;&gt;Node3 -->
<g id="edge31" class="edge"><title>Node21&#45;&gt;Node3</title>
<path fill="none" stroke="midnightblue" d="M356.305,-224.378C341.84,-195.595 291.035,-102.05 220.5,-56 170.016,-23.0405 146.181,-34.7863 83.0529,-19.9966"/>
<polygon fill="midnightblue" stroke="midnightblue" points="83.5604,-16.5163 73.0113,-17.4995 81.871,-23.3094 83.5604,-16.5163"/>
</g>
<!-- Node21&#45;&gt;Node5 -->
<g id="edge32" class="edge"><title>Node21&#45;&gt;Node5</title>
<path fill="none" stroke="midnightblue" d="M360.139,-224.412C359.424,-211.804 357.352,-187.654 351.5,-168 346.451,-151.041 340.944,-148.479 334.5,-132 320.586,-96.4171 308.076,-53.4804 301.459,-29.5067"/>
<polygon fill="midnightblue" stroke="midnightblue" points="304.779,-28.378 298.777,-19.6478 298.025,-30.216 304.779,-28.378"/>
</g>
<!-- Node21&#45;&gt;Node6 -->
<g id="edge33" class="edge"><title>Node21&#45;&gt;Node6</title>
<path fill="none" stroke="midnightblue" d="M373.353,-224.324C385.716,-215.979 404.63,-203.212 419.237,-193.352"/>
<polygon fill="midnightblue" stroke="midnightblue" points="421.348,-196.15 427.679,-187.655 417.432,-190.348 421.348,-196.15"/>
</g>
<!-- Node21&#45;&gt;Node11 -->
<g id="edge34" class="edge"><title>Node21&#45;&gt;Node11</title>
<path fill="none" stroke="midnightblue" d="M335.188,-224.562C308.004,-215.501 264.602,-201.034 234.011,-190.837"/>
<polygon fill="midnightblue" stroke="midnightblue" points="234.763,-187.398 224.169,-187.556 232.549,-194.039 234.763,-187.398"/>
</g>
<!-- Node21&#45;&gt;Node12 -->
<g id="edge35" class="edge"><title>Node21&#45;&gt;Node12</title>
<path fill="none" stroke="midnightblue" d="M345.826,-224.368C313.601,-205.412 236.401,-160.001 197.202,-136.942"/>
<polygon fill="midnightblue" stroke="midnightblue" points="198.499,-133.645 188.105,-131.591 194.95,-139.678 198.499,-133.645"/>
</g>
<!-- Node22&#45;&gt;Node4 -->
<g id="edge39" class="edge"><title>Node22&#45;&gt;Node4</title>
<path fill="none" stroke="midnightblue" d="M705.282,-113.94C681.195,-105.092 639.534,-89.7881 610.349,-79.0669"/>
<polygon fill="midnightblue" stroke="midnightblue" points="611.189,-75.6468 600.595,-75.4839 608.775,-82.2175 611.189,-75.6468"/>
</g>
<!-- Node22&#45;&gt;Node13 -->
<g id="edge41" class="edge"><title>Node22&#45;&gt;Node13</title>
<path fill="none" stroke="midnightblue" d="M711.486,-112.324C698.968,-103.979 679.818,-91.2122 665.029,-81.3524"/>
<polygon fill="midnightblue" stroke="midnightblue" points="666.744,-78.2894 656.482,-75.6545 662.861,-84.1137 666.744,-78.2894"/>
</g>
<!-- Node23 -->
<g id="node23" class="node"><title>Node23</title>
<polygon fill="white" stroke="#bfbfbf" points="686,-56.5 686,-75.5 735,-75.5 735,-56.5 686,-56.5"/>
<text text-anchor="middle" x="710.5" y="-63.5" font-family="Helvetica,sans-Serif" font-size="10.00">ctype.h</text>
</g>
<!-- Node22&#45;&gt;Node23 -->
<g id="edge38" class="edge"><title>Node22&#45;&gt;Node23</title>
<path fill="none" stroke="midnightblue" d="M722.188,-112.083C720.333,-104.927 717.665,-94.6353 715.346,-85.6911"/>
<polygon fill="midnightblue" stroke="midnightblue" points="718.666,-84.5527 712.769,-75.7511 711.891,-86.3094 718.666,-84.5527"/>
</g>
<!-- Node24 -->
<g id="node24" class="node"><title>Node24</title>
<polygon fill="white" stroke="#bfbfbf" points="753.5,-56.5 753.5,-75.5 797.5,-75.5 797.5,-56.5 753.5,-56.5"/>
<text text-anchor="middle" x="775.5" y="-63.5" font-family="Helvetica,sans-Serif" font-size="10.00">time.h</text>
</g>
<!-- Node22&#45;&gt;Node24 -->
<g id="edge40" class="edge"><title>Node22&#45;&gt;Node24</title>
<path fill="none" stroke="midnightblue" d="M732.922,-112.083C740.348,-104.22 751.352,-92.5688 760.312,-83.0813"/>
<polygon fill="midnightblue" stroke="midnightblue" points="762.913,-85.4244 767.235,-75.7511 757.824,-80.618 762.913,-85.4244"/>
</g>
<!-- Node25&#45;&gt;Node4 -->
<g id="edge43" class="edge"><title>Node25&#45;&gt;Node4</title>
<path fill="none" stroke="midnightblue" d="M611.252,-224.448C617.301,-204.178 630.1,-151.919 615.5,-112 611.443,-100.908 603.312,-90.6651 595.609,-82.7625"/>
<polygon fill="midnightblue" stroke="midnightblue" points="597.862,-80.0747 588.214,-75.6955 593.025,-85.1351 597.862,-80.0747"/>
</g>
<!-- Node27 -->
<g id="node27" class="node"><title>Node27</title>
<g id="a_node27"><a xlink:href="receptor_8h.html" target="_top" xlink:title="receptor implementation header file ">
<polygon fill="white" stroke="black" points="176.5,-392.5 176.5,-411.5 236.5,-411.5 236.5,-392.5 176.5,-392.5"/>
<text text-anchor="middle" x="206.5" y="-399.5" font-family="Helvetica,sans-Serif" font-size="10.00">receptor.h</text>
</a>
</g>
</g>
<!-- Node26&#45;&gt;Node27 -->
<g id="edge45" class="edge"><title>Node26&#45;&gt;Node27</title>
<path fill="none" stroke="midnightblue" d="M211.509,-448.083C210.714,-440.927 209.571,-430.635 208.577,-421.691"/>
<polygon fill="midnightblue" stroke="midnightblue" points="212.055,-421.303 207.472,-411.751 205.098,-422.076 212.055,-421.303"/>
</g>
<!-- Node27&#45;&gt;Node10 -->
<g id="edge46" class="edge"><title>Node27&#45;&gt;Node10</title>
<path fill="none" stroke="midnightblue" d="M206.265,-392.368C205.78,-374.617 204.664,-333.666 204.007,-309.597"/>
<polygon fill="midnightblue" stroke="midnightblue" points="207.506,-309.492 203.734,-299.591 200.508,-309.683 207.506,-309.492"/>
</g>
<!-- Node28 -->
<g id="node28" class="node"><title>Node28</title>
<g id="a_node28"><a xlink:href="def_8h.html" target="_top" xlink:title="header file for symbol and structure definition functions ">
<polygon fill="white" stroke="black" points="70.5,-336.5 70.5,-355.5 108.5,-355.5 108.5,-336.5 70.5,-336.5"/>
<text text-anchor="middle" x="89.5" y="-343.5" font-family="Helvetica,sans-Serif" font-size="10.00">def.h</text>
</a>
</g>
</g>
<!-- Node27&#45;&gt;Node28 -->
<g id="edge47" class="edge"><title>Node27&#45;&gt;Node28</title>
<path fill="none" stroke="midnightblue" d="M187.961,-392.444C168.877,-383.636 138.925,-369.812 117.064,-359.722"/>
<polygon fill="midnightblue" stroke="midnightblue" points="118.499,-356.529 107.952,-355.516 115.565,-362.885 118.499,-356.529"/>
</g>
<!-- Node30 -->
<g id="node30" class="node"><title>Node30</title>
<g id="a_node30"><a xlink:href="label_8h.html" target="_top" xlink:title="Label tables map human readable text strings to parts of semantic trees. ">
<polygon fill="white" stroke="black" points="0,-280.5 0,-299.5 45,-299.5 45,-280.5 0,-280.5"/>
<text text-anchor="middle" x="22.5" y="-287.5" font-family="Helvetica,sans-Serif" font-size="10.00">label.h</text>
</a>
</g>
</g>
<!-- Node27&#45;&gt;Node30 -->
<g id="edge50" class="edge"><title>Node27&#45;&gt;Node30</title>
<path fill="none" stroke="midnightblue" d="M176.374,-398.003C144.836,-393.521 95.2916,-382.533 61.5,-356 46.008,-343.836 35.2999,-323.677 29.0773,-309.03"/>
<polygon fill="midnightblue" stroke="midnightblue" points="32.2571,-307.552 25.3348,-299.531 25.7444,-310.118 32.2571,-307.552"/>
</g>
<!-- Node31 -->
<g id="node31" class="node"><title>Node31</title>
<g id="a_node31"><a xlink:href="process_8h.html" target="_top" xlink:title="processing header files ">
<polygon fill="white" stroke="black" points="235,-336.5 235,-355.5 294,-355.5 294,-336.5 235,-336.5"/>
<text text-anchor="middle" x="264.5" y="-343.5" font-family="Helvetica,sans-Serif" font-size="10.00">process.h</text>
</a>
</g>
</g>
<!-- Node27&#45;&gt;Node31 -->
<g id="edge52" class="edge"><title>Node27&#45;&gt;Node31</title>
<path fill="none" stroke="midnightblue" d="M215.819,-392.324C224.393,-384.341 237.312,-372.313 247.688,-362.653"/>
<polygon fill="midnightblue" stroke="midnightblue" points="250.078,-365.21 255.012,-355.834 245.308,-360.086 250.078,-365.21"/>
</g>
<!-- Node32 -->
<g id="node32" class="node"><title>Node32</title>
<g id="a_node32"><a xlink:href="scape_8h.html" target="_top" xlink:title="scape header files ">
<polygon fill="white" stroke="black" points="127,-336.5 127,-355.5 178,-355.5 178,-336.5 127,-336.5"/>
<text text-anchor="middle" x="152.5" y="-343.5" font-family="Helvetica,sans-Serif" font-size="10.00">scape.h</text>
</a>
</g>
</g>
<!-- Node27&#45;&gt;Node32 -->
<g id="edge54" class="edge"><title>Node27&#45;&gt;Node32</title>
<path fill="none" stroke="midnightblue" d="M197.583,-392.083C189.72,-384.22 178.069,-372.569 168.581,-363.081"/>
<polygon fill="midnightblue" stroke="midnightblue" points="170.797,-360.347 161.251,-355.751 165.847,-365.297 170.797,-360.347"/>
</g>
<!-- Node28&#45;&gt;Node10 -->
<g id="edge48" class="edge"><title>Node28&#45;&gt;Node10</title>
<path fill="none" stroke="midnightblue" d="M107.564,-336.444C126.075,-327.675 155.081,-313.935 176.355,-303.858"/>
<polygon fill="midnightblue" stroke="midnightblue" points="177.982,-306.96 185.521,-299.516 174.985,-300.634 177.982,-306.96"/>
</g>
<!-- Node29 -->
<g id="node29" class="node"><title>Node29</title>
<polygon fill="white" stroke="#bfbfbf" points="63.5,-280.5 63.5,-299.5 115.5,-299.5 115.5,-280.5 63.5,-280.5"/>
<text text-anchor="middle" x="89.5" y="-287.5" font-family="Helvetica,sans-Serif" font-size="10.00">stdarg.h</text>
</g>
<!-- Node28&#45;&gt;Node29 -->
<g id="edge49" class="edge"><title>Node28&#45;&gt;Node29</title>
<path fill="none" stroke="midnightblue" d="M89.5,-336.083C89.5,-329.006 89.5,-318.861 89.5,-309.986"/>
<polygon fill="midnightblue" stroke="midnightblue" points="93.0001,-309.751 89.5,-299.751 86.0001,-309.751 93.0001,-309.751"/>
</g>
<!-- Node30&#45;&gt;Node12 -->
<g id="edge51" class="edge"><title>Node30&#45;&gt;Node12</title>
<path fill="none" stroke="midnightblue" d="M30.6184,-280.075C54.9016,-253.38 127.231,-173.865 158.653,-139.322"/>
<polygon fill="midnightblue" stroke="midnightblue" points="161.566,-141.321 165.706,-131.568 156.388,-136.61 161.566,-141.321"/>
</g>
<!-- Node31&#45;&gt;Node10 -->
<g id="edge53" class="edge"><title>Node31&#45;&gt;Node10</title>
<path fill="none" stroke="midnightblue" d="M254.699,-336.324C245.682,-328.341 232.094,-316.313 221.182,-306.653"/>
<polygon fill="midnightblue" stroke="midnightblue" points="223.287,-303.842 213.479,-299.834 218.647,-309.083 223.287,-303.842"/>
</g>
<!-- Node32&#45;&gt;Node10 -->
<g id="edge55" class="edge"><title>Node32&#45;&gt;Node10</title>
<path fill="none" stroke="midnightblue" d="M160.922,-336.083C168.348,-328.22 179.352,-316.569 188.312,-307.081"/>
<polygon fill="midnightblue" stroke="midnightblue" points="190.913,-309.424 195.235,-299.751 185.824,-304.618 190.913,-309.424"/>
</g>
<!-- Node33&#45;&gt;Node2 -->
<g id="edge57" class="edge"><title>Node33&#45;&gt;Node2</title>
<path fill="none" stroke="midnightblue" d="M364.799,-448.368C389.3,-429.653 447.557,-385.151 478.083,-361.832"/>
<polygon fill="midnightblue" stroke="midnightblue" points="480.431,-364.443 486.253,-355.591 476.182,-358.881 480.431,-364.443"/>
</g>
<!-- Node33&#45;&gt;Node27 -->
<g id="edge58" class="edge"><title>Node33&#45;&gt;Node27</title>
<path fill="none" stroke="midnightblue" d="M330.207,-448.444C305.693,-439.438 266.904,-425.189 239.3,-415.049"/>
<polygon fill="midnightblue" stroke="midnightblue" points="240.277,-411.679 229.684,-411.516 237.863,-418.25 240.277,-411.679"/>
</g>
<!-- Node33&#45;&gt;Node28 -->
<g id="edge59" class="edge"><title>Node33&#45;&gt;Node28</title>
<path fill="none" stroke="midnightblue" d="M311.724,-452.426C272.741,-446.905 213.801,-435.29 167.5,-412 142.787,-399.569 119.06,-377.951 104.398,-363.082"/>
<polygon fill="midnightblue" stroke="midnightblue" points="106.685,-360.41 97.2365,-355.617 101.634,-365.256 106.685,-360.41"/>
</g>
<!-- Node34 -->
<g id="node34" class="node"><title>Node34</title>
<g id="a_node34"><a xlink:href="semtrex_8h.html" target="_top" xlink:title="Semantic tree regular expression header file. ">
<polygon fill="white" stroke="black" points="310.5,-392.5 310.5,-411.5 396.5,-411.5 396.5,-392.5 310.5,-392.5"/>
<text text-anchor="middle" x="353.5" y="-399.5" font-family="Helvetica,sans-Serif" font-size="10.00">../src/semtrex.h</text>
</a>
</g>
</g>
<!-- Node33&#45;&gt;Node34 -->
<g id="edge60" class="edge"><title>Node33&#45;&gt;Node34</title>
<path fill="none" stroke="midnightblue" d="M353.5,-448.083C353.5,-441.006 353.5,-430.861 353.5,-421.986"/>
<polygon fill="midnightblue" stroke="midnightblue" points="357,-421.751 353.5,-411.751 350,-421.751 357,-421.751"/>
</g>
<!-- Node35 -->
<g id="node35" class="node"><title>Node35</title>
<g id="a_node35"><a xlink:href="spec__utils_8h.html" target="_top" xlink:title="spec_utils.h">
<polygon fill="white" stroke="black" points="453,-392.5 453,-411.5 522,-411.5 522,-392.5 453,-392.5"/>
<text text-anchor="middle" x="487.5" y="-399.5" font-family="Helvetica,sans-Serif" font-size="10.00">spec_utils.h</text>
</a>
</g>
</g>
<!-- Node33&#45;&gt;Node35 -->
<g id="edge62" class="edge"><title>Node33&#45;&gt;Node35</title>
<path fill="none" stroke="midnightblue" d="M374.733,-448.444C396.884,-439.517 431.819,-425.439 456.936,-415.317"/>
<polygon fill="midnightblue" stroke="midnightblue" points="458.4,-418.501 466.367,-411.516 455.783,-412.008 458.4,-418.501"/>
</g>
<!-- Node34&#45;&gt;Node10 -->
<g id="edge61" class="edge"><title>Node34&#45;&gt;Node10</title>
<path fill="none" stroke="midnightblue" d="M348.591,-392.337C340.519,-378.752 323.251,-352.308 302.5,-336 281.834,-319.759 254.367,-307.874 233.607,-300.41"/>
<polygon fill="midnightblue" stroke="midnightblue" points="234.609,-297.054 224.014,-297.102 232.327,-303.671 234.609,-297.054"/>
</g>
<!-- Node35&#45;&gt;Node2 -->
<g id="edge63" class="edge"><title>Node35&#45;&gt;Node2</title>
<path fill="none" stroke="midnightblue" d="M489.151,-392.083C490.476,-384.927 492.382,-374.635 494.039,-365.691"/>
<polygon fill="midnightblue" stroke="midnightblue" points="497.5,-366.221 495.879,-355.751 490.617,-364.947 497.5,-366.221"/>
</g>
<!-- Node37 -->
<g id="node37" class="node"><title>Node37</title>
<g id="a_node37"><a xlink:href="accumulator_8h.html" target="_top" xlink:title="header file for the accumulator ">
<polygon fill="white" stroke="black" points="242.5,-504.5 242.5,-523.5 320.5,-523.5 320.5,-504.5 242.5,-504.5"/>
<text text-anchor="middle" x="281.5" y="-511.5" font-family="Helvetica,sans-Serif" font-size="10.00">accumulator.h</text>
</a>
</g>
</g>
<!-- Node36&#45;&gt;Node37 -->
<g id="edge65" class="edge"><title>Node36&#45;&gt;Node37</title>
<path fill="none" stroke="midnightblue" d="M283.17,-560.083C282.908,-553.006 282.532,-542.861 282.203,-533.986"/>
<polygon fill="midnightblue" stroke="midnightblue" points="285.692,-533.615 281.824,-523.751 278.697,-533.874 285.692,-533.615"/>
</g>
<!-- Node37&#45;&gt;Node10 -->
<g id="edge66" class="edge"><title>Node37&#45;&gt;Node10</title>
<path fill="none" stroke="midnightblue" d="M245.745,-504.494C220.682,-497.406 187.203,-485.598 161.5,-468 106.437,-430.301 85.2842,-418.349 61.5,-356 58.3319,-347.695 56.2491,-343.172 61.5,-336 74.7657,-317.88 135.386,-303.635 173.004,-296.347"/>
<polygon fill="midnightblue" stroke="midnightblue" points="173.764,-299.765 182.945,-294.478 172.471,-292.886 173.764,-299.765"/>
</g>
<!-- Node37&#45;&gt;Node21 -->
<g id="edge67" class="edge"><title>Node37&#45;&gt;Node21</title>
<path fill="none" stroke="midnightblue" d="M282.34,-504.369C284.414,-484.356 290.43,-433.34 301.5,-392 315.386,-340.145 339.87,-281.554 352.487,-252.821"/>
<polygon fill="midnightblue" stroke="midnightblue" points="355.698,-254.215 356.556,-243.655 349.3,-251.374 355.698,-254.215"/>
</g>
<!-- Node37&#45;&gt;Node26 -->
<g id="edge68" class="edge"><title>Node37&#45;&gt;Node26</title>
<path fill="none" stroke="midnightblue" d="M270.414,-504.324C260.014,-496.185 244.239,-483.839 231.778,-474.087"/>
<polygon fill="midnightblue" stroke="midnightblue" points="233.82,-471.241 223.788,-467.834 229.506,-476.753 233.82,-471.241"/>
</g>
</g>
</svg>
        <g id="navigator" transform="translate(0 0)" fill="#404254">
                <rect fill="#f2f5e9" fill-opacity="0.5" stroke="#606060" stroke-width=".5" x="0" y="0" width="60" height="60"/>
                <use id="zoomplus" xlink:href="#zoomPlus" x="17" y="9" onmousedown="handleZoom(evt,'in')"/>
                <use id="zoomminus" xlink:href="#zoomMin" x="42" y="9" onmousedown="handleZoom(evt,'out')"/>
                <use id="reset" xlink:href="#resetDef" x="30" y="36" onmousedown="handleReset()"/>
                <g id="arrowUp" xlink:href="#dirArrow" transform="translate(30 24)" onmousedown="handlePan(0,-1)">
                  <use xlink:href="#rim" fill="#404040">
                        <set attributeName="fill" to="#808080" begin="arrowUp.mouseover" end="arrowUp.mouseout"/>
                  </use>
                  <path fill="none" stroke="white" stroke-width="1.5" d="M0,-3.0v7 M-2.5,-0.5L0,-3.0L2.5,-0.5"/>
                </g>
                <g id="arrowRight" xlink:href="#dirArrow" transform="rotate(90) translate(36 -43)" onmousedown="handlePan(1,0)">
                  <use xlink:href="#rim" fill="#404040">
                        <set attributeName="fill" to="#808080" begin="arrowRight.mouseover" end="arrowRight.mouseout"/>
                  </use>
                  <path fill="none" stroke="white" stroke-width="1.5" d="M0,-3.0v7 M-2.5,-0.5L0,-3.0L2.5,-0.5"/>
                </g>
                <g id="arrowDown" xlink:href="#dirArrow" transform="rotate(180) translate(-30 -48)" onmousedown="handlePan(0,1)">
                  <use xlink:href="#rim" fill="#404040">
                        <set attributeName="fill" to="#808080" begin="arrowDown.mouseover" end="arrowDown.mouseout"/>
                  </use>
                  <path fill="none" stroke="white" stroke-width="1.5" d="M0,-3.0v7 M-2.5,-0.5L0,-3.0L2.5,-0.5"/>
                </g>
                <g id="arrowLeft" xlink:href="#dirArrow" transform="rotate(270) translate(-36 17)" onmousedown="handlePan(-1,0)">
                  <use xlink:href="#rim" fill="#404040">
                        <set attributeName="fill" to="#808080" begin="arrowLeft.mouseover" end="arrowLeft.mouseout"/>
                  </use>
                  <path fill="none" stroke="white" stroke-width="1.5" d="M0,-3.0v7 M-2.5,-0.5L0,-3.0L2.5,-0.5"/>
                </g>
        </g>
        <svg viewBox="0 0 15 15" width="100%" height="30px" preserveAspectRatio="xMaxYMin meet">
         <g id="arrow_out" transform="scale(0.3 0.3)">
          <a xlink:href="vmhost__spec_8h__incl_org.svg" target="_base">
           <rect id="button" ry="5" rx="5" y="6" x="6" height="38" width="38"
                fill="#f2f5e9" fill-opacity="0.5" stroke="#606060" stroke-width="1.0"/>
           <path id="arrow"
             d="M 11.500037,31.436501 C 11.940474,20.09759 22.043105,11.32322 32.158766,21.979434 L 37.068811,17.246167 C 37.068811,17.246167 37.088388,32 37.088388,32 L 22.160133,31.978069 C 22.160133,31.978069 26.997745,27.140456 26.997745,27.140456 C 18.528582,18.264221 13.291696,25.230495 11.500037,31.436501 z"
             style="fill:#404040;"/>
          </a>
         </g>
        </svg>
</svg>
